<?xml version="1.0" encoding="utf-8"?>
<svg xmlns="http://www.w3.org/2000/svg" xmlns:xlink="http://www.w3.org/1999/xlink" width="600" height="400" viewBox="0 0 2400 1600">
<defs>
  <clipPath id="clip780">
    <rect x="0" y="0" width="2400" height="1600"/>
  </clipPath>
</defs>
<path clip-path="url(#clip780)" d="M0 1600 L2400 1600 L2400 0 L0 0  Z" fill="#282c34" fill-rule="evenodd" fill-opacity="1"/>
<defs>
  <clipPath id="clip781">
    <rect x="229" y="123" width="2124" height="1364"/>
  </clipPath>
</defs>
<path clip-path="url(#clip780)" d="M229.445 1486.45 L2352.76 1486.45 L2352.76 123.472 L229.445 123.472  Z" fill="#21252b" fill-rule="evenodd" fill-opacity="1"/>
<polyline clip-path="url(#clip781)" style="stroke:#adb2b7; stroke-linecap:round; stroke-linejoin:round; stroke-width:2; stroke-opacity:0.1; fill:none" points="289.539,1486.45 289.539,123.472 "/>
<polyline clip-path="url(#clip781)" style="stroke:#adb2b7; stroke-linecap:round; stroke-linejoin:round; stroke-width:2; stroke-opacity:0.1; fill:none" points="690.163,1486.45 690.163,123.472 "/>
<polyline clip-path="url(#clip781)" style="stroke:#adb2b7; stroke-linecap:round; stroke-linejoin:round; stroke-width:2; stroke-opacity:0.1; fill:none" points="1090.79,1486.45 1090.79,123.472 "/>
<polyline clip-path="url(#clip781)" style="stroke:#adb2b7; stroke-linecap:round; stroke-linejoin:round; stroke-width:2; stroke-opacity:0.1; fill:none" points="1491.41,1486.45 1491.41,123.472 "/>
<polyline clip-path="url(#clip781)" style="stroke:#adb2b7; stroke-linecap:round; stroke-linejoin:round; stroke-width:2; stroke-opacity:0.1; fill:none" points="1892.04,1486.45 1892.04,123.472 "/>
<polyline clip-path="url(#clip781)" style="stroke:#adb2b7; stroke-linecap:round; stroke-linejoin:round; stroke-width:2; stroke-opacity:0.1; fill:none" points="2292.66,1486.45 2292.66,123.472 "/>
<polyline clip-path="url(#clip781)" style="stroke:#adb2b7; stroke-linecap:round; stroke-linejoin:round; stroke-width:2; stroke-opacity:0.1; fill:none" points="229.445,1395.93 2352.76,1395.93 "/>
<polyline clip-path="url(#clip781)" style="stroke:#adb2b7; stroke-linecap:round; stroke-linejoin:round; stroke-width:2; stroke-opacity:0.1; fill:none" points="229.445,1138.76 2352.76,1138.76 "/>
<polyline clip-path="url(#clip781)" style="stroke:#adb2b7; stroke-linecap:round; stroke-linejoin:round; stroke-width:2; stroke-opacity:0.1; fill:none" points="229.445,881.595 2352.76,881.595 "/>
<polyline clip-path="url(#clip781)" style="stroke:#adb2b7; stroke-linecap:round; stroke-linejoin:round; stroke-width:2; stroke-opacity:0.1; fill:none" points="229.445,624.43 2352.76,624.43 "/>
<polyline clip-path="url(#clip781)" style="stroke:#adb2b7; stroke-linecap:round; stroke-linejoin:round; stroke-width:2; stroke-opacity:0.1; fill:none" points="229.445,367.265 2352.76,367.265 "/>
<polyline clip-path="url(#clip780)" style="stroke:#adb2b7; stroke-linecap:round; stroke-linejoin:round; stroke-width:4; stroke-opacity:1; fill:none" points="229.445,1486.45 2352.76,1486.45 "/>
<polyline clip-path="url(#clip780)" style="stroke:#adb2b7; stroke-linecap:round; stroke-linejoin:round; stroke-width:4; stroke-opacity:1; fill:none" points="289.539,1486.45 289.539,1467.55 "/>
<polyline clip-path="url(#clip780)" style="stroke:#adb2b7; stroke-linecap:round; stroke-linejoin:round; stroke-width:4; stroke-opacity:1; fill:none" points="690.163,1486.45 690.163,1467.55 "/>
<polyline clip-path="url(#clip780)" style="stroke:#adb2b7; stroke-linecap:round; stroke-linejoin:round; stroke-width:4; stroke-opacity:1; fill:none" points="1090.79,1486.45 1090.79,1467.55 "/>
<polyline clip-path="url(#clip780)" style="stroke:#adb2b7; stroke-linecap:round; stroke-linejoin:round; stroke-width:4; stroke-opacity:1; fill:none" points="1491.41,1486.45 1491.41,1467.55 "/>
<polyline clip-path="url(#clip780)" style="stroke:#adb2b7; stroke-linecap:round; stroke-linejoin:round; stroke-width:4; stroke-opacity:1; fill:none" points="1892.04,1486.45 1892.04,1467.55 "/>
<polyline clip-path="url(#clip780)" style="stroke:#adb2b7; stroke-linecap:round; stroke-linejoin:round; stroke-width:4; stroke-opacity:1; fill:none" points="2292.66,1486.45 2292.66,1467.55 "/>
<path clip-path="url(#clip780)" d="M39.7832 1544.91 L56.1025 1544.91 L56.1025 1548.85 L34.1582 1548.85 L34.1582 1544.91 Q36.8202 1542.16 41.4035 1537.53 Q46.01 1532.88 47.1905 1531.53 Q49.4359 1529.01 50.3155 1527.27 Q51.2183 1525.51 51.2183 1523.82 Q51.2183 1521.07 49.2739 1519.33 Q47.3526 1517.6 44.2507 1517.6 Q42.0517 1517.6 39.598 1518.36 Q37.1674 1519.13 34.3897 1520.68 L34.3897 1515.95 Q37.2137 1514.82 39.6674 1514.24 Q42.1211 1513.66 44.1581 1513.66 Q49.5285 1513.66 52.7229 1516.35 Q55.9173 1519.03 55.9173 1523.52 Q55.9173 1525.65 55.1072 1527.57 Q54.3201 1529.47 52.2137 1532.07 Q51.635 1532.74 48.5331 1535.95 Q45.4313 1539.15 39.7832 1544.91 Z" fill="#9eb1be" fill-rule="nonzero" fill-opacity="1" /><path clip-path="url(#clip780)" d="M75.9172 1517.37 Q72.3061 1517.37 70.4774 1520.93 Q68.6719 1524.47 68.6719 1531.6 Q68.6719 1538.71 70.4774 1542.27 Q72.3061 1545.82 75.9172 1545.82 Q79.5515 1545.82 81.357 1542.27 Q83.1857 1538.71 83.1857 1531.6 Q83.1857 1524.47 81.357 1520.93 Q79.5515 1517.37 75.9172 1517.37 M75.9172 1513.66 Q81.7274 1513.66 84.7829 1518.27 Q87.8616 1522.85 87.8616 1531.6 Q87.8616 1540.33 84.7829 1544.94 Q81.7274 1549.52 75.9172 1549.52 Q70.1071 1549.52 67.0284 1544.94 Q63.9728 1540.33 63.9728 1531.6 Q63.9728 1522.85 67.0284 1518.27 Q70.1071 1513.66 75.9172 1513.66 Z" fill="#9eb1be" fill-rule="nonzero" fill-opacity="1" /><path clip-path="url(#clip780)" d="M100.107 1544.91 L116.426 1544.91 L116.426 1548.85 L94.4819 1548.85 L94.4819 1544.91 Q97.144 1542.16 101.727 1537.53 Q106.334 1532.88 107.514 1531.53 Q109.76 1529.01 110.639 1527.27 Q111.542 1525.51 111.542 1523.82 Q111.542 1521.07 109.598 1519.33 Q107.676 1517.6 104.574 1517.6 Q102.375 1517.6 99.9217 1518.36 Q97.4912 1519.13 94.7134 1520.68 L94.7134 1515.95 Q97.5375 1514.82 99.9912 1514.24 Q102.445 1513.66 104.482 1513.66 Q109.852 1513.66 113.047 1516.35 Q116.241 1519.03 116.241 1523.52 Q116.241 1525.65 115.431 1527.57 Q114.644 1529.47 112.537 1532.07 Q111.959 1532.74 108.857 1535.95 Q105.755 1539.15 100.107 1544.91 Z" fill="#9eb1be" fill-rule="nonzero" fill-opacity="1" /><path clip-path="url(#clip780)" d="M139.088 1518.36 L127.283 1536.81 L139.088 1536.81 L139.088 1518.36 M137.861 1514.29 L143.741 1514.29 L143.741 1536.81 L148.671 1536.81 L148.671 1540.7 L143.741 1540.7 L143.741 1548.85 L139.088 1548.85 L139.088 1540.7 L123.486 1540.7 L123.486 1536.19 L137.861 1514.29 Z" fill="#9eb1be" fill-rule="nonzero" fill-opacity="1" /><path clip-path="url(#clip780)" d="M153.648 1533.96 L166.125 1533.96 L166.125 1537.76 L153.648 1537.76 L153.648 1533.96 Z" fill="#9eb1be" fill-rule="nonzero" fill-opacity="1" /><path clip-path="url(#clip780)" d="M183.509 1517.37 Q179.898 1517.37 178.069 1520.93 Q176.264 1524.47 176.264 1531.6 Q176.264 1538.71 178.069 1542.27 Q179.898 1545.82 183.509 1545.82 Q187.143 1545.82 188.949 1542.27 Q190.778 1538.71 190.778 1531.6 Q190.778 1524.47 188.949 1520.93 Q187.143 1517.37 183.509 1517.37 M183.509 1513.66 Q189.319 1513.66 192.375 1518.27 Q195.454 1522.85 195.454 1531.6 Q195.454 1540.33 192.375 1544.94 Q189.319 1549.52 183.509 1549.52 Q177.699 1549.52 174.62 1544.94 Q171.565 1540.33 171.565 1531.6 Q171.565 1522.85 174.62 1518.27 Q177.699 1513.66 183.509 1513.66 Z" fill="#9eb1be" fill-rule="nonzero" fill-opacity="1" /><path clip-path="url(#clip780)" d="M204.481 1544.91 L212.12 1544.91 L212.12 1518.55 L203.81 1520.21 L203.81 1515.95 L212.074 1514.29 L216.75 1514.29 L216.75 1544.91 L224.389 1544.91 L224.389 1548.85 L204.481 1548.85 L204.481 1544.91 Z" fill="#9eb1be" fill-rule="nonzero" fill-opacity="1" /><path clip-path="url(#clip780)" d="M231.078 1533.96 L243.555 1533.96 L243.555 1537.76 L231.078 1537.76 L231.078 1533.96 Z" fill="#9eb1be" fill-rule="nonzero" fill-opacity="1" /><path clip-path="url(#clip780)" d="M260.939 1517.37 Q257.328 1517.37 255.5 1520.93 Q253.694 1524.47 253.694 1531.6 Q253.694 1538.71 255.5 1542.27 Q257.328 1545.82 260.939 1545.82 Q264.574 1545.82 266.379 1542.27 Q268.208 1538.71 268.208 1531.6 Q268.208 1524.47 266.379 1520.93 Q264.574 1517.37 260.939 1517.37 M260.939 1513.66 Q266.75 1513.66 269.805 1518.27 Q272.884 1522.85 272.884 1531.6 Q272.884 1540.33 269.805 1544.94 Q266.75 1549.52 260.939 1549.52 Q255.129 1549.52 252.051 1544.94 Q248.995 1540.33 248.995 1531.6 Q248.995 1522.85 252.051 1518.27 Q255.129 1513.66 260.939 1513.66 Z" fill="#9eb1be" fill-rule="nonzero" fill-opacity="1" /><path clip-path="url(#clip780)" d="M281.911 1544.91 L289.55 1544.91 L289.55 1518.55 L281.24 1520.21 L281.24 1515.95 L289.504 1514.29 L294.18 1514.29 L294.18 1544.91 L301.819 1544.91 L301.819 1548.85 L281.911 1548.85 L281.911 1544.91 Z" fill="#9eb1be" fill-rule="nonzero" fill-opacity="1" /><path clip-path="url(#clip780)" d="M306.055 1514.29 L335.291 1514.29 L335.291 1518.22 L323.022 1518.22 L323.022 1548.85 L318.323 1548.85 L318.323 1518.22 L306.055 1518.22 L306.055 1514.29 Z" fill="#9eb1be" fill-rule="nonzero" fill-opacity="1" /><path clip-path="url(#clip780)" d="M350.221 1517.37 Q346.61 1517.37 344.782 1520.93 Q342.976 1524.47 342.976 1531.6 Q342.976 1538.71 344.782 1542.27 Q346.61 1545.82 350.221 1545.82 Q353.856 1545.82 355.661 1542.27 Q357.49 1538.71 357.49 1531.6 Q357.49 1524.47 355.661 1520.93 Q353.856 1517.37 350.221 1517.37 M350.221 1513.66 Q356.031 1513.66 359.087 1518.27 Q362.166 1522.85 362.166 1531.6 Q362.166 1540.33 359.087 1544.94 Q356.031 1549.52 350.221 1549.52 Q344.411 1549.52 341.332 1544.94 Q338.277 1540.33 338.277 1531.6 Q338.277 1522.85 341.332 1518.27 Q344.411 1513.66 350.221 1513.66 Z" fill="#9eb1be" fill-rule="nonzero" fill-opacity="1" /><path clip-path="url(#clip780)" d="M380.383 1517.37 Q376.772 1517.37 374.943 1520.93 Q373.138 1524.47 373.138 1531.6 Q373.138 1538.71 374.943 1542.27 Q376.772 1545.82 380.383 1545.82 Q384.017 1545.82 385.823 1542.27 Q387.652 1538.71 387.652 1531.6 Q387.652 1524.47 385.823 1520.93 Q384.017 1517.37 380.383 1517.37 M380.383 1513.66 Q386.193 1513.66 389.249 1518.27 Q392.328 1522.85 392.328 1531.6 Q392.328 1540.33 389.249 1544.94 Q386.193 1549.52 380.383 1549.52 Q374.573 1549.52 371.494 1544.94 Q368.439 1540.33 368.439 1531.6 Q368.439 1522.85 371.494 1518.27 Q374.573 1513.66 380.383 1513.66 Z" fill="#9eb1be" fill-rule="nonzero" fill-opacity="1" /><path clip-path="url(#clip780)" d="M401.031 1542.97 L405.915 1542.97 L405.915 1548.85 L401.031 1548.85 L401.031 1542.97 M401.031 1524.33 L405.915 1524.33 L405.915 1530.21 L401.031 1530.21 L401.031 1524.33 Z" fill="#9eb1be" fill-rule="nonzero" fill-opacity="1" /><path clip-path="url(#clip780)" d="M426.517 1517.37 Q422.906 1517.37 421.077 1520.93 Q419.272 1524.47 419.272 1531.6 Q419.272 1538.71 421.077 1542.27 Q422.906 1545.82 426.517 1545.82 Q430.151 1545.82 431.957 1542.27 Q433.786 1538.71 433.786 1531.6 Q433.786 1524.47 431.957 1520.93 Q430.151 1517.37 426.517 1517.37 M426.517 1513.66 Q432.327 1513.66 435.383 1518.27 Q438.462 1522.85 438.462 1531.6 Q438.462 1540.33 435.383 1544.94 Q432.327 1549.52 426.517 1549.52 Q420.707 1549.52 417.628 1544.94 Q414.573 1540.33 414.573 1531.6 Q414.573 1522.85 417.628 1518.27 Q420.707 1513.66 426.517 1513.66 Z" fill="#9eb1be" fill-rule="nonzero" fill-opacity="1" /><path clip-path="url(#clip780)" d="M456.679 1517.37 Q453.068 1517.37 451.239 1520.93 Q449.434 1524.47 449.434 1531.6 Q449.434 1538.71 451.239 1542.27 Q453.068 1545.82 456.679 1545.82 Q460.313 1545.82 462.119 1542.27 Q463.948 1538.71 463.948 1531.6 Q463.948 1524.47 462.119 1520.93 Q460.313 1517.37 456.679 1517.37 M456.679 1513.66 Q462.489 1513.66 465.545 1518.27 Q468.623 1522.85 468.623 1531.6 Q468.623 1540.33 465.545 1544.94 Q462.489 1549.52 456.679 1549.52 Q450.869 1549.52 447.79 1544.94 Q444.735 1540.33 444.735 1531.6 Q444.735 1522.85 447.79 1518.27 Q450.869 1513.66 456.679 1513.66 Z" fill="#9eb1be" fill-rule="nonzero" fill-opacity="1" /><path clip-path="url(#clip780)" d="M477.327 1542.97 L482.211 1542.97 L482.211 1548.85 L477.327 1548.85 L477.327 1542.97 M477.327 1524.33 L482.211 1524.33 L482.211 1530.21 L477.327 1530.21 L477.327 1524.33 Z" fill="#9eb1be" fill-rule="nonzero" fill-opacity="1" /><path clip-path="url(#clip780)" d="M502.813 1517.37 Q499.202 1517.37 497.373 1520.93 Q495.568 1524.47 495.568 1531.6 Q495.568 1538.71 497.373 1542.27 Q499.202 1545.82 502.813 1545.82 Q506.447 1545.82 508.253 1542.27 Q510.082 1538.71 510.082 1531.6 Q510.082 1524.47 508.253 1520.93 Q506.447 1517.37 502.813 1517.37 M502.813 1513.66 Q508.623 1513.66 511.679 1518.27 Q514.757 1522.85 514.757 1531.6 Q514.757 1540.33 511.679 1544.94 Q508.623 1549.52 502.813 1549.52 Q497.003 1549.52 493.924 1544.94 Q490.869 1540.33 490.869 1531.6 Q490.869 1522.85 493.924 1518.27 Q497.003 1513.66 502.813 1513.66 Z" fill="#9eb1be" fill-rule="nonzero" fill-opacity="1" /><path clip-path="url(#clip780)" d="M532.975 1517.37 Q529.364 1517.37 527.535 1520.93 Q525.73 1524.47 525.73 1531.6 Q525.73 1538.71 527.535 1542.27 Q529.364 1545.82 532.975 1545.82 Q536.609 1545.82 538.415 1542.27 Q540.243 1538.71 540.243 1531.6 Q540.243 1524.47 538.415 1520.93 Q536.609 1517.37 532.975 1517.37 M532.975 1513.66 Q538.785 1513.66 541.841 1518.27 Q544.919 1522.85 544.919 1531.6 Q544.919 1540.33 541.841 1544.94 Q538.785 1549.52 532.975 1549.52 Q527.165 1549.52 524.086 1544.94 Q521.031 1540.33 521.031 1531.6 Q521.031 1522.85 524.086 1518.27 Q527.165 1513.66 532.975 1513.66 Z" fill="#9eb1be" fill-rule="nonzero" fill-opacity="1" /><path clip-path="url(#clip780)" d="M440.408 1544.91 L456.727 1544.91 L456.727 1548.85 L434.783 1548.85 L434.783 1544.91 Q437.445 1542.16 442.028 1537.53 Q446.635 1532.88 447.815 1531.53 Q450.061 1529.01 450.94 1527.27 Q451.843 1525.51 451.843 1523.82 Q451.843 1521.07 449.899 1519.33 Q447.977 1517.6 444.875 1517.6 Q442.676 1517.6 440.223 1518.36 Q437.792 1519.13 435.014 1520.68 L435.014 1515.95 Q437.838 1514.82 440.292 1514.24 Q442.746 1513.66 444.783 1513.66 Q450.153 1513.66 453.348 1516.35 Q456.542 1519.03 456.542 1523.52 Q456.542 1525.65 455.732 1527.57 Q454.945 1529.47 452.838 1532.07 Q452.26 1532.74 449.158 1535.95 Q446.056 1539.15 440.408 1544.91 Z" fill="#9eb1be" fill-rule="nonzero" fill-opacity="1" /><path clip-path="url(#clip780)" d="M476.542 1517.37 Q472.931 1517.37 471.102 1520.93 Q469.297 1524.47 469.297 1531.6 Q469.297 1538.71 471.102 1542.27 Q472.931 1545.82 476.542 1545.82 Q480.176 1545.82 481.982 1542.27 Q483.81 1538.71 483.81 1531.6 Q483.81 1524.47 481.982 1520.93 Q480.176 1517.37 476.542 1517.37 M476.542 1513.66 Q482.352 1513.66 485.408 1518.27 Q488.486 1522.85 488.486 1531.6 Q488.486 1540.33 485.408 1544.94 Q482.352 1549.52 476.542 1549.52 Q470.732 1549.52 467.653 1544.94 Q464.598 1540.33 464.598 1531.6 Q464.598 1522.85 467.653 1518.27 Q470.732 1513.66 476.542 1513.66 Z" fill="#9eb1be" fill-rule="nonzero" fill-opacity="1" /><path clip-path="url(#clip780)" d="M500.732 1544.91 L517.051 1544.91 L517.051 1548.85 L495.107 1548.85 L495.107 1544.91 Q497.769 1542.16 502.352 1537.53 Q506.958 1532.88 508.139 1531.53 Q510.384 1529.01 511.264 1527.27 Q512.167 1525.51 512.167 1523.82 Q512.167 1521.07 510.222 1519.33 Q508.301 1517.6 505.199 1517.6 Q503 1517.6 500.546 1518.36 Q498.116 1519.13 495.338 1520.68 L495.338 1515.95 Q498.162 1514.82 500.616 1514.24 Q503.07 1513.66 505.107 1513.66 Q510.477 1513.66 513.671 1516.35 Q516.866 1519.03 516.866 1523.52 Q516.866 1525.65 516.056 1527.57 Q515.269 1529.47 513.162 1532.07 Q512.583 1532.74 509.482 1535.95 Q506.38 1539.15 500.732 1544.91 Z" fill="#9eb1be" fill-rule="nonzero" fill-opacity="1" /><path clip-path="url(#clip780)" d="M539.713 1518.36 L527.907 1536.81 L539.713 1536.81 L539.713 1518.36 M538.486 1514.29 L544.366 1514.29 L544.366 1536.81 L549.296 1536.81 L549.296 1540.7 L544.366 1540.7 L544.366 1548.85 L539.713 1548.85 L539.713 1540.7 L524.111 1540.7 L524.111 1536.19 L538.486 1514.29 Z" fill="#9eb1be" fill-rule="nonzero" fill-opacity="1" /><path clip-path="url(#clip780)" d="M554.273 1533.96 L566.75 1533.96 L566.75 1537.76 L554.273 1537.76 L554.273 1533.96 Z" fill="#9eb1be" fill-rule="nonzero" fill-opacity="1" /><path clip-path="url(#clip780)" d="M584.134 1517.37 Q580.523 1517.37 578.694 1520.93 Q576.889 1524.47 576.889 1531.6 Q576.889 1538.71 578.694 1542.27 Q580.523 1545.82 584.134 1545.82 Q587.768 1545.82 589.574 1542.27 Q591.402 1538.71 591.402 1531.6 Q591.402 1524.47 589.574 1520.93 Q587.768 1517.37 584.134 1517.37 M584.134 1513.66 Q589.944 1513.66 593 1518.27 Q596.078 1522.85 596.078 1531.6 Q596.078 1540.33 593 1544.94 Q589.944 1549.52 584.134 1549.52 Q578.324 1549.52 575.245 1544.94 Q572.19 1540.33 572.19 1531.6 Q572.19 1522.85 575.245 1518.27 Q578.324 1513.66 584.134 1513.66 Z" fill="#9eb1be" fill-rule="nonzero" fill-opacity="1" /><path clip-path="url(#clip780)" d="M605.106 1544.91 L612.745 1544.91 L612.745 1518.55 L604.435 1520.21 L604.435 1515.95 L612.699 1514.29 L617.374 1514.29 L617.374 1544.91 L625.013 1544.91 L625.013 1548.85 L605.106 1548.85 L605.106 1544.91 Z" fill="#9eb1be" fill-rule="nonzero" fill-opacity="1" /><path clip-path="url(#clip780)" d="M631.703 1533.96 L644.18 1533.96 L644.18 1537.76 L631.703 1537.76 L631.703 1533.96 Z" fill="#9eb1be" fill-rule="nonzero" fill-opacity="1" /><path clip-path="url(#clip780)" d="M661.564 1517.37 Q657.953 1517.37 656.124 1520.93 Q654.319 1524.47 654.319 1531.6 Q654.319 1538.71 656.124 1542.27 Q657.953 1545.82 661.564 1545.82 Q665.198 1545.82 667.004 1542.27 Q668.833 1538.71 668.833 1531.6 Q668.833 1524.47 667.004 1520.93 Q665.198 1517.37 661.564 1517.37 M661.564 1513.66 Q667.374 1513.66 670.43 1518.27 Q673.508 1522.85 673.508 1531.6 Q673.508 1540.33 670.43 1544.94 Q667.374 1549.52 661.564 1549.52 Q655.754 1549.52 652.675 1544.94 Q649.62 1540.33 649.62 1531.6 Q649.62 1522.85 652.675 1518.27 Q655.754 1513.66 661.564 1513.66 Z" fill="#9eb1be" fill-rule="nonzero" fill-opacity="1" /><path clip-path="url(#clip780)" d="M682.536 1544.91 L690.175 1544.91 L690.175 1518.55 L681.865 1520.21 L681.865 1515.95 L690.129 1514.29 L694.805 1514.29 L694.805 1544.91 L702.443 1544.91 L702.443 1548.85 L682.536 1548.85 L682.536 1544.91 Z" fill="#9eb1be" fill-rule="nonzero" fill-opacity="1" /><path clip-path="url(#clip780)" d="M706.68 1514.29 L735.916 1514.29 L735.916 1518.22 L723.647 1518.22 L723.647 1548.85 L718.948 1548.85 L718.948 1518.22 L706.68 1518.22 L706.68 1514.29 Z" fill="#9eb1be" fill-rule="nonzero" fill-opacity="1" /><path clip-path="url(#clip780)" d="M750.846 1517.37 Q747.235 1517.37 745.406 1520.93 Q743.601 1524.47 743.601 1531.6 Q743.601 1538.71 745.406 1542.27 Q747.235 1545.82 750.846 1545.82 Q754.48 1545.82 756.286 1542.27 Q758.114 1538.71 758.114 1531.6 Q758.114 1524.47 756.286 1520.93 Q754.48 1517.37 750.846 1517.37 M750.846 1513.66 Q756.656 1513.66 759.712 1518.27 Q762.79 1522.85 762.79 1531.6 Q762.79 1540.33 759.712 1544.94 Q756.656 1549.52 750.846 1549.52 Q745.036 1549.52 741.957 1544.94 Q738.902 1540.33 738.902 1531.6 Q738.902 1522.85 741.957 1518.27 Q745.036 1513.66 750.846 1513.66 Z" fill="#9eb1be" fill-rule="nonzero" fill-opacity="1" /><path clip-path="url(#clip780)" d="M771.818 1544.91 L779.457 1544.91 L779.457 1518.55 L771.147 1520.21 L771.147 1515.95 L779.411 1514.29 L784.087 1514.29 L784.087 1544.91 L791.725 1544.91 L791.725 1548.85 L771.818 1548.85 L771.818 1544.91 Z" fill="#9eb1be" fill-rule="nonzero" fill-opacity="1" /><path clip-path="url(#clip780)" d="M801.656 1542.97 L806.54 1542.97 L806.54 1548.85 L801.656 1548.85 L801.656 1542.97 M801.656 1524.33 L806.54 1524.33 L806.54 1530.21 L801.656 1530.21 L801.656 1524.33 Z" fill="#9eb1be" fill-rule="nonzero" fill-opacity="1" /><path clip-path="url(#clip780)" d="M827.142 1517.37 Q823.531 1517.37 821.702 1520.93 Q819.897 1524.47 819.897 1531.6 Q819.897 1538.71 821.702 1542.27 Q823.531 1545.82 827.142 1545.82 Q830.776 1545.82 832.582 1542.27 Q834.41 1538.71 834.41 1531.6 Q834.41 1524.47 832.582 1520.93 Q830.776 1517.37 827.142 1517.37 M827.142 1513.66 Q832.952 1513.66 836.008 1518.27 Q839.086 1522.85 839.086 1531.6 Q839.086 1540.33 836.008 1544.94 Q832.952 1549.52 827.142 1549.52 Q821.332 1549.52 818.253 1544.94 Q815.198 1540.33 815.198 1531.6 Q815.198 1522.85 818.253 1518.27 Q821.332 1513.66 827.142 1513.66 Z" fill="#9eb1be" fill-rule="nonzero" fill-opacity="1" /><path clip-path="url(#clip780)" d="M857.304 1517.37 Q853.693 1517.37 851.864 1520.93 Q850.058 1524.47 850.058 1531.6 Q850.058 1538.71 851.864 1542.27 Q853.693 1545.82 857.304 1545.82 Q860.938 1545.82 862.744 1542.27 Q864.572 1538.71 864.572 1531.6 Q864.572 1524.47 862.744 1520.93 Q860.938 1517.37 857.304 1517.37 M857.304 1513.66 Q863.114 1513.66 866.169 1518.27 Q869.248 1522.85 869.248 1531.6 Q869.248 1540.33 866.169 1544.94 Q863.114 1549.52 857.304 1549.52 Q851.494 1549.52 848.415 1544.94 Q845.359 1540.33 845.359 1531.6 Q845.359 1522.85 848.415 1518.27 Q851.494 1513.66 857.304 1513.66 Z" fill="#9eb1be" fill-rule="nonzero" fill-opacity="1" /><path clip-path="url(#clip780)" d="M877.952 1542.97 L882.836 1542.97 L882.836 1548.85 L877.952 1548.85 L877.952 1542.97 M877.952 1524.33 L882.836 1524.33 L882.836 1530.21 L877.952 1530.21 L877.952 1524.33 Z" fill="#9eb1be" fill-rule="nonzero" fill-opacity="1" /><path clip-path="url(#clip780)" d="M903.438 1517.37 Q899.827 1517.37 897.998 1520.93 Q896.192 1524.47 896.192 1531.6 Q896.192 1538.71 897.998 1542.27 Q899.827 1545.82 903.438 1545.82 Q907.072 1545.82 908.878 1542.27 Q910.706 1538.71 910.706 1531.6 Q910.706 1524.47 908.878 1520.93 Q907.072 1517.37 903.438 1517.37 M903.438 1513.66 Q909.248 1513.66 912.303 1518.27 Q915.382 1522.85 915.382 1531.6 Q915.382 1540.33 912.303 1544.94 Q909.248 1549.52 903.438 1549.52 Q897.628 1549.52 894.549 1544.94 Q891.493 1540.33 891.493 1531.6 Q891.493 1522.85 894.549 1518.27 Q897.628 1513.66 903.438 1513.66 Z" fill="#9eb1be" fill-rule="nonzero" fill-opacity="1" /><path clip-path="url(#clip780)" d="M933.6 1517.37 Q929.989 1517.37 928.16 1520.93 Q926.354 1524.47 926.354 1531.6 Q926.354 1538.71 928.16 1542.27 Q929.989 1545.82 933.6 1545.82 Q937.234 1545.82 939.039 1542.27 Q940.868 1538.71 940.868 1531.6 Q940.868 1524.47 939.039 1520.93 Q937.234 1517.37 933.6 1517.37 M933.6 1513.66 Q939.41 1513.66 942.465 1518.27 Q945.544 1522.85 945.544 1531.6 Q945.544 1540.33 942.465 1544.94 Q939.41 1549.52 933.6 1549.52 Q927.789 1549.52 924.711 1544.94 Q921.655 1540.33 921.655 1531.6 Q921.655 1522.85 924.711 1518.27 Q927.789 1513.66 933.6 1513.66 Z" fill="#9eb1be" fill-rule="nonzero" fill-opacity="1" /><path clip-path="url(#clip780)" d="M841.033 1544.91 L857.352 1544.91 L857.352 1548.85 L835.408 1548.85 L835.408 1544.91 Q838.07 1542.16 842.653 1537.53 Q847.259 1532.88 848.44 1531.53 Q850.685 1529.01 851.565 1527.27 Q852.468 1525.51 852.468 1523.82 Q852.468 1521.07 850.523 1519.33 Q848.602 1517.6 845.5 1517.6 Q843.301 1517.6 840.847 1518.36 Q838.417 1519.13 835.639 1520.68 L835.639 1515.95 Q838.463 1514.82 840.917 1514.24 Q843.37 1513.66 845.408 1513.66 Q850.778 1513.66 853.972 1516.35 Q857.167 1519.03 857.167 1523.52 Q857.167 1525.65 856.357 1527.57 Q855.569 1529.47 853.463 1532.07 Q852.884 1532.74 849.782 1535.95 Q846.681 1539.15 841.033 1544.91 Z" fill="#9eb1be" fill-rule="nonzero" fill-opacity="1" /><path clip-path="url(#clip780)" d="M877.167 1517.37 Q873.556 1517.37 871.727 1520.93 Q869.921 1524.47 869.921 1531.6 Q869.921 1538.71 871.727 1542.27 Q873.556 1545.82 877.167 1545.82 Q880.801 1545.82 882.606 1542.27 Q884.435 1538.71 884.435 1531.6 Q884.435 1524.47 882.606 1520.93 Q880.801 1517.37 877.167 1517.37 M877.167 1513.66 Q882.977 1513.66 886.032 1518.27 Q889.111 1522.85 889.111 1531.6 Q889.111 1540.33 886.032 1544.94 Q882.977 1549.52 877.167 1549.52 Q871.356 1549.52 868.278 1544.94 Q865.222 1540.33 865.222 1531.6 Q865.222 1522.85 868.278 1518.27 Q871.356 1513.66 877.167 1513.66 Z" fill="#9eb1be" fill-rule="nonzero" fill-opacity="1" /><path clip-path="url(#clip780)" d="M901.356 1544.91 L917.676 1544.91 L917.676 1548.85 L895.731 1548.85 L895.731 1544.91 Q898.393 1542.16 902.977 1537.53 Q907.583 1532.88 908.764 1531.53 Q911.009 1529.01 911.889 1527.27 Q912.791 1525.51 912.791 1523.82 Q912.791 1521.07 910.847 1519.33 Q908.926 1517.6 905.824 1517.6 Q903.625 1517.6 901.171 1518.36 Q898.741 1519.13 895.963 1520.68 L895.963 1515.95 Q898.787 1514.82 901.241 1514.24 Q903.694 1513.66 905.731 1513.66 Q911.102 1513.66 914.296 1516.35 Q917.49 1519.03 917.49 1523.52 Q917.49 1525.65 916.68 1527.57 Q915.893 1529.47 913.787 1532.07 Q913.208 1532.74 910.106 1535.95 Q907.004 1539.15 901.356 1544.91 Z" fill="#9eb1be" fill-rule="nonzero" fill-opacity="1" /><path clip-path="url(#clip780)" d="M940.338 1518.36 L928.532 1536.81 L940.338 1536.81 L940.338 1518.36 M939.111 1514.29 L944.99 1514.29 L944.99 1536.81 L949.921 1536.81 L949.921 1540.7 L944.99 1540.7 L944.99 1548.85 L940.338 1548.85 L940.338 1540.7 L924.736 1540.7 L924.736 1536.19 L939.111 1514.29 Z" fill="#9eb1be" fill-rule="nonzero" fill-opacity="1" /><path clip-path="url(#clip780)" d="M954.898 1533.96 L967.374 1533.96 L967.374 1537.76 L954.898 1537.76 L954.898 1533.96 Z" fill="#9eb1be" fill-rule="nonzero" fill-opacity="1" /><path clip-path="url(#clip780)" d="M984.759 1517.37 Q981.148 1517.37 979.319 1520.93 Q977.513 1524.47 977.513 1531.6 Q977.513 1538.71 979.319 1542.27 Q981.148 1545.82 984.759 1545.82 Q988.393 1545.82 990.198 1542.27 Q992.027 1538.71 992.027 1531.6 Q992.027 1524.47 990.198 1520.93 Q988.393 1517.37 984.759 1517.37 M984.759 1513.66 Q990.569 1513.66 993.624 1518.27 Q996.703 1522.85 996.703 1531.6 Q996.703 1540.33 993.624 1544.94 Q990.569 1549.52 984.759 1549.52 Q978.948 1549.52 975.87 1544.94 Q972.814 1540.33 972.814 1531.6 Q972.814 1522.85 975.87 1518.27 Q978.948 1513.66 984.759 1513.66 Z" fill="#9eb1be" fill-rule="nonzero" fill-opacity="1" /><path clip-path="url(#clip780)" d="M1005.73 1544.91 L1013.37 1544.91 L1013.37 1518.55 L1005.06 1520.21 L1005.06 1515.95 L1013.32 1514.29 L1018 1514.29 L1018 1544.91 L1025.64 1544.91 L1025.64 1548.85 L1005.73 1548.85 L1005.73 1544.91 Z" fill="#9eb1be" fill-rule="nonzero" fill-opacity="1" /><path clip-path="url(#clip780)" d="M1032.33 1533.96 L1044.8 1533.96 L1044.8 1537.76 L1032.33 1537.76 L1032.33 1533.96 Z" fill="#9eb1be" fill-rule="nonzero" fill-opacity="1" /><path clip-path="url(#clip780)" d="M1062.19 1517.37 Q1058.58 1517.37 1056.75 1520.93 Q1054.94 1524.47 1054.94 1531.6 Q1054.94 1538.71 1056.75 1542.27 Q1058.58 1545.82 1062.19 1545.82 Q1065.82 1545.82 1067.63 1542.27 Q1069.46 1538.71 1069.46 1531.6 Q1069.46 1524.47 1067.63 1520.93 Q1065.82 1517.37 1062.19 1517.37 M1062.19 1513.66 Q1068 1513.66 1071.05 1518.27 Q1074.13 1522.85 1074.13 1531.6 Q1074.13 1540.33 1071.05 1544.94 Q1068 1549.52 1062.19 1549.52 Q1056.38 1549.52 1053.3 1544.94 Q1050.24 1540.33 1050.24 1531.6 Q1050.24 1522.85 1053.3 1518.27 Q1056.38 1513.66 1062.19 1513.66 Z" fill="#9eb1be" fill-rule="nonzero" fill-opacity="1" /><path clip-path="url(#clip780)" d="M1083.16 1544.91 L1090.8 1544.91 L1090.8 1518.55 L1082.49 1520.21 L1082.49 1515.95 L1090.75 1514.29 L1095.43 1514.29 L1095.43 1544.91 L1103.07 1544.91 L1103.07 1548.85 L1083.16 1548.85 L1083.16 1544.91 Z" fill="#9eb1be" fill-rule="nonzero" fill-opacity="1" /><path clip-path="url(#clip780)" d="M1107.3 1514.29 L1136.54 1514.29 L1136.54 1518.22 L1124.27 1518.22 L1124.27 1548.85 L1119.57 1548.85 L1119.57 1518.22 L1107.3 1518.22 L1107.3 1514.29 Z" fill="#9eb1be" fill-rule="nonzero" fill-opacity="1" /><path clip-path="url(#clip780)" d="M1151.47 1517.37 Q1147.86 1517.37 1146.03 1520.93 Q1144.23 1524.47 1144.23 1531.6 Q1144.23 1538.71 1146.03 1542.27 Q1147.86 1545.82 1151.47 1545.82 Q1155.1 1545.82 1156.91 1542.27 Q1158.74 1538.71 1158.74 1531.6 Q1158.74 1524.47 1156.91 1520.93 Q1155.1 1517.37 1151.47 1517.37 M1151.47 1513.66 Q1157.28 1513.66 1160.34 1518.27 Q1163.42 1522.85 1163.42 1531.6 Q1163.42 1540.33 1160.34 1544.94 Q1157.28 1549.52 1151.47 1549.52 Q1145.66 1549.52 1142.58 1544.94 Q1139.53 1540.33 1139.53 1531.6 Q1139.53 1522.85 1142.58 1518.27 Q1145.66 1513.66 1151.47 1513.66 Z" fill="#9eb1be" fill-rule="nonzero" fill-opacity="1" /><path clip-path="url(#clip780)" d="M1175.66 1544.91 L1191.98 1544.91 L1191.98 1548.85 L1170.04 1548.85 L1170.04 1544.91 Q1172.7 1542.16 1177.28 1537.53 Q1181.89 1532.88 1183.07 1531.53 Q1185.31 1529.01 1186.19 1527.27 Q1187.1 1525.51 1187.1 1523.82 Q1187.1 1521.07 1185.15 1519.33 Q1183.23 1517.6 1180.13 1517.6 Q1177.93 1517.6 1175.48 1518.36 Q1173.04 1519.13 1170.27 1520.68 L1170.27 1515.95 Q1173.09 1514.82 1175.54 1514.24 Q1178 1513.66 1180.04 1513.66 Q1185.41 1513.66 1188.6 1516.35 Q1191.79 1519.03 1191.79 1523.52 Q1191.79 1525.65 1190.98 1527.57 Q1190.2 1529.47 1188.09 1532.07 Q1187.51 1532.74 1184.41 1535.95 Q1181.31 1539.15 1175.66 1544.91 Z" fill="#9eb1be" fill-rule="nonzero" fill-opacity="1" /><path clip-path="url(#clip780)" d="M1202.28 1542.97 L1207.16 1542.97 L1207.16 1548.85 L1202.28 1548.85 L1202.28 1542.97 M1202.28 1524.33 L1207.16 1524.33 L1207.16 1530.21 L1202.28 1530.21 L1202.28 1524.33 Z" fill="#9eb1be" fill-rule="nonzero" fill-opacity="1" /><path clip-path="url(#clip780)" d="M1227.77 1517.37 Q1224.16 1517.37 1222.33 1520.93 Q1220.52 1524.47 1220.52 1531.6 Q1220.52 1538.71 1222.33 1542.27 Q1224.16 1545.82 1227.77 1545.82 Q1231.4 1545.82 1233.21 1542.27 Q1235.04 1538.71 1235.04 1531.6 Q1235.04 1524.47 1233.21 1520.93 Q1231.4 1517.37 1227.77 1517.37 M1227.77 1513.66 Q1233.58 1513.66 1236.63 1518.27 Q1239.71 1522.85 1239.71 1531.6 Q1239.71 1540.33 1236.63 1544.94 Q1233.58 1549.52 1227.77 1549.52 Q1221.96 1549.52 1218.88 1544.94 Q1215.82 1540.33 1215.82 1531.6 Q1215.82 1522.85 1218.88 1518.27 Q1221.96 1513.66 1227.77 1513.66 Z" fill="#9eb1be" fill-rule="nonzero" fill-opacity="1" /><path clip-path="url(#clip780)" d="M1257.93 1517.37 Q1254.32 1517.37 1252.49 1520.93 Q1250.68 1524.47 1250.68 1531.6 Q1250.68 1538.71 1252.49 1542.27 Q1254.32 1545.82 1257.93 1545.82 Q1261.56 1545.82 1263.37 1542.27 Q1265.2 1538.71 1265.2 1531.6 Q1265.2 1524.47 1263.37 1520.93 Q1261.56 1517.37 1257.93 1517.37 M1257.93 1513.66 Q1263.74 1513.66 1266.79 1518.27 Q1269.87 1522.85 1269.87 1531.6 Q1269.87 1540.33 1266.79 1544.94 Q1263.74 1549.52 1257.93 1549.52 Q1252.12 1549.52 1249.04 1544.94 Q1245.98 1540.33 1245.98 1531.6 Q1245.98 1522.85 1249.04 1518.27 Q1252.12 1513.66 1257.93 1513.66 Z" fill="#9eb1be" fill-rule="nonzero" fill-opacity="1" /><path clip-path="url(#clip780)" d="M1278.58 1542.97 L1283.46 1542.97 L1283.46 1548.85 L1278.58 1548.85 L1278.58 1542.97 M1278.58 1524.33 L1283.46 1524.33 L1283.46 1530.21 L1278.58 1530.21 L1278.58 1524.33 Z" fill="#9eb1be" fill-rule="nonzero" fill-opacity="1" /><path clip-path="url(#clip780)" d="M1304.06 1517.37 Q1300.45 1517.37 1298.62 1520.93 Q1296.82 1524.47 1296.82 1531.6 Q1296.82 1538.71 1298.62 1542.27 Q1300.45 1545.82 1304.06 1545.82 Q1307.7 1545.82 1309.5 1542.27 Q1311.33 1538.71 1311.33 1531.6 Q1311.33 1524.47 1309.5 1520.93 Q1307.7 1517.37 1304.06 1517.37 M1304.06 1513.66 Q1309.87 1513.66 1312.93 1518.27 Q1316.01 1522.85 1316.01 1531.6 Q1316.01 1540.33 1312.93 1544.94 Q1309.87 1549.52 1304.06 1549.52 Q1298.25 1549.52 1295.17 1544.94 Q1292.12 1540.33 1292.12 1531.6 Q1292.12 1522.85 1295.17 1518.27 Q1298.25 1513.66 1304.06 1513.66 Z" fill="#9eb1be" fill-rule="nonzero" fill-opacity="1" /><path clip-path="url(#clip780)" d="M1334.22 1517.37 Q1330.61 1517.37 1328.78 1520.93 Q1326.98 1524.47 1326.98 1531.6 Q1326.98 1538.71 1328.78 1542.27 Q1330.61 1545.82 1334.22 1545.82 Q1337.86 1545.82 1339.66 1542.27 Q1341.49 1538.71 1341.49 1531.6 Q1341.49 1524.47 1339.66 1520.93 Q1337.86 1517.37 1334.22 1517.37 M1334.22 1513.66 Q1340.03 1513.66 1343.09 1518.27 Q1346.17 1522.85 1346.17 1531.6 Q1346.17 1540.33 1343.09 1544.94 Q1340.03 1549.52 1334.22 1549.52 Q1328.41 1549.52 1325.34 1544.94 Q1322.28 1540.33 1322.28 1531.6 Q1322.28 1522.85 1325.34 1518.27 Q1328.41 1513.66 1334.22 1513.66 Z" fill="#9eb1be" fill-rule="nonzero" fill-opacity="1" /><path clip-path="url(#clip780)" d="M1241.66 1544.91 L1257.98 1544.91 L1257.98 1548.85 L1236.03 1548.85 L1236.03 1544.91 Q1238.69 1542.16 1243.28 1537.53 Q1247.88 1532.88 1249.06 1531.53 Q1251.31 1529.01 1252.19 1527.27 Q1253.09 1525.51 1253.09 1523.82 Q1253.09 1521.07 1251.15 1519.33 Q1249.23 1517.6 1246.12 1517.6 Q1243.93 1517.6 1241.47 1518.36 Q1239.04 1519.13 1236.26 1520.68 L1236.26 1515.95 Q1239.09 1514.82 1241.54 1514.24 Q1244 1513.66 1246.03 1513.66 Q1251.4 1513.66 1254.6 1516.35 Q1257.79 1519.03 1257.79 1523.52 Q1257.79 1525.65 1256.98 1527.57 Q1256.19 1529.47 1254.09 1532.07 Q1253.51 1532.74 1250.41 1535.95 Q1247.31 1539.15 1241.66 1544.91 Z" fill="#9eb1be" fill-rule="nonzero" fill-opacity="1" /><path clip-path="url(#clip780)" d="M1277.79 1517.37 Q1274.18 1517.37 1272.35 1520.93 Q1270.55 1524.47 1270.55 1531.6 Q1270.55 1538.71 1272.35 1542.27 Q1274.18 1545.82 1277.79 1545.82 Q1281.43 1545.82 1283.23 1542.27 Q1285.06 1538.71 1285.06 1531.6 Q1285.06 1524.47 1283.23 1520.93 Q1281.43 1517.37 1277.79 1517.37 M1277.79 1513.66 Q1283.6 1513.66 1286.66 1518.27 Q1289.74 1522.85 1289.74 1531.6 Q1289.74 1540.33 1286.66 1544.94 Q1283.6 1549.52 1277.79 1549.52 Q1271.98 1549.52 1268.9 1544.94 Q1265.85 1540.33 1265.85 1531.6 Q1265.85 1522.85 1268.9 1518.27 Q1271.98 1513.66 1277.79 1513.66 Z" fill="#9eb1be" fill-rule="nonzero" fill-opacity="1" /><path clip-path="url(#clip780)" d="M1301.98 1544.91 L1318.3 1544.91 L1318.3 1548.85 L1296.36 1548.85 L1296.36 1544.91 Q1299.02 1542.16 1303.6 1537.53 Q1308.21 1532.88 1309.39 1531.53 Q1311.63 1529.01 1312.51 1527.27 Q1313.42 1525.51 1313.42 1523.82 Q1313.42 1521.07 1311.47 1519.33 Q1309.55 1517.6 1306.45 1517.6 Q1304.25 1517.6 1301.8 1518.36 Q1299.37 1519.13 1296.59 1520.68 L1296.59 1515.95 Q1299.41 1514.82 1301.87 1514.24 Q1304.32 1513.66 1306.36 1513.66 Q1311.73 1513.66 1314.92 1516.35 Q1318.12 1519.03 1318.12 1523.52 Q1318.12 1525.65 1317.3 1527.57 Q1316.52 1529.47 1314.41 1532.07 Q1313.83 1532.74 1310.73 1535.95 Q1307.63 1539.15 1301.98 1544.91 Z" fill="#9eb1be" fill-rule="nonzero" fill-opacity="1" /><path clip-path="url(#clip780)" d="M1340.96 1518.36 L1329.16 1536.81 L1340.96 1536.81 L1340.96 1518.36 M1339.74 1514.29 L1345.61 1514.29 L1345.61 1536.81 L1350.55 1536.81 L1350.55 1540.7 L1345.61 1540.7 L1345.61 1548.85 L1340.96 1548.85 L1340.96 1540.7 L1325.36 1540.7 L1325.36 1536.19 L1339.74 1514.29 Z" fill="#9eb1be" fill-rule="nonzero" fill-opacity="1" /><path clip-path="url(#clip780)" d="M1355.52 1533.96 L1368 1533.96 L1368 1537.76 L1355.52 1537.76 L1355.52 1533.96 Z" fill="#9eb1be" fill-rule="nonzero" fill-opacity="1" /><path clip-path="url(#clip780)" d="M1385.38 1517.37 Q1381.77 1517.37 1379.94 1520.93 Q1378.14 1524.47 1378.14 1531.6 Q1378.14 1538.71 1379.94 1542.27 Q1381.77 1545.82 1385.38 1545.82 Q1389.02 1545.82 1390.82 1542.27 Q1392.65 1538.71 1392.65 1531.6 Q1392.65 1524.47 1390.82 1520.93 Q1389.02 1517.37 1385.38 1517.37 M1385.38 1513.66 Q1391.19 1513.66 1394.25 1518.27 Q1397.33 1522.85 1397.33 1531.6 Q1397.33 1540.33 1394.25 1544.94 Q1391.19 1549.52 1385.38 1549.52 Q1379.57 1549.52 1376.49 1544.94 Q1373.44 1540.33 1373.44 1531.6 Q1373.44 1522.85 1376.49 1518.27 Q1379.57 1513.66 1385.38 1513.66 Z" fill="#9eb1be" fill-rule="nonzero" fill-opacity="1" /><path clip-path="url(#clip780)" d="M1406.36 1544.91 L1413.99 1544.91 L1413.99 1518.55 L1405.68 1520.21 L1405.68 1515.95 L1413.95 1514.29 L1418.62 1514.29 L1418.62 1544.91 L1426.26 1544.91 L1426.26 1548.85 L1406.36 1548.85 L1406.36 1544.91 Z" fill="#9eb1be" fill-rule="nonzero" fill-opacity="1" /><path clip-path="url(#clip780)" d="M1432.95 1533.96 L1445.43 1533.96 L1445.43 1537.76 L1432.95 1537.76 L1432.95 1533.96 Z" fill="#9eb1be" fill-rule="nonzero" fill-opacity="1" /><path clip-path="url(#clip780)" d="M1462.81 1517.37 Q1459.2 1517.37 1457.37 1520.93 Q1455.57 1524.47 1455.57 1531.6 Q1455.57 1538.71 1457.37 1542.27 Q1459.2 1545.82 1462.81 1545.82 Q1466.45 1545.82 1468.25 1542.27 Q1470.08 1538.71 1470.08 1531.6 Q1470.08 1524.47 1468.25 1520.93 Q1466.45 1517.37 1462.81 1517.37 M1462.81 1513.66 Q1468.62 1513.66 1471.68 1518.27 Q1474.76 1522.85 1474.76 1531.6 Q1474.76 1540.33 1471.68 1544.94 Q1468.62 1549.52 1462.81 1549.52 Q1457 1549.52 1453.92 1544.94 Q1450.87 1540.33 1450.87 1531.6 Q1450.87 1522.85 1453.92 1518.27 Q1457 1513.66 1462.81 1513.66 Z" fill="#9eb1be" fill-rule="nonzero" fill-opacity="1" /><path clip-path="url(#clip780)" d="M1483.79 1544.91 L1491.42 1544.91 L1491.42 1518.55 L1483.11 1520.21 L1483.11 1515.95 L1491.38 1514.29 L1496.05 1514.29 L1496.05 1544.91 L1503.69 1544.91 L1503.69 1548.85 L1483.79 1548.85 L1483.79 1544.91 Z" fill="#9eb1be" fill-rule="nonzero" fill-opacity="1" /><path clip-path="url(#clip780)" d="M1507.93 1514.29 L1537.16 1514.29 L1537.16 1518.22 L1524.9 1518.22 L1524.9 1548.85 L1520.2 1548.85 L1520.2 1518.22 L1507.93 1518.22 L1507.93 1514.29 Z" fill="#9eb1be" fill-rule="nonzero" fill-opacity="1" /><path clip-path="url(#clip780)" d="M1552.1 1517.37 Q1548.48 1517.37 1546.66 1520.93 Q1544.85 1524.47 1544.85 1531.6 Q1544.85 1538.71 1546.66 1542.27 Q1548.48 1545.82 1552.1 1545.82 Q1555.73 1545.82 1557.54 1542.27 Q1559.36 1538.71 1559.36 1531.6 Q1559.36 1524.47 1557.54 1520.93 Q1555.73 1517.37 1552.1 1517.37 M1552.1 1513.66 Q1557.91 1513.66 1560.96 1518.27 Q1564.04 1522.85 1564.04 1531.6 Q1564.04 1540.33 1560.96 1544.94 Q1557.91 1549.52 1552.1 1549.52 Q1546.29 1549.52 1543.21 1544.94 Q1540.15 1540.33 1540.15 1531.6 Q1540.15 1522.85 1543.21 1518.27 Q1546.29 1513.66 1552.1 1513.66 Z" fill="#9eb1be" fill-rule="nonzero" fill-opacity="1" /><path clip-path="url(#clip780)" d="M1586.42 1530.21 Q1589.78 1530.93 1591.66 1533.2 Q1593.55 1535.47 1593.55 1538.8 Q1593.55 1543.92 1590.03 1546.72 Q1586.52 1549.52 1580.04 1549.52 Q1577.86 1549.52 1575.54 1549.08 Q1573.25 1548.66 1570.8 1547.81 L1570.8 1543.29 Q1572.74 1544.43 1575.06 1545.01 Q1577.37 1545.58 1579.9 1545.58 Q1584.29 1545.58 1586.59 1543.85 Q1588.9 1542.11 1588.9 1538.8 Q1588.9 1535.75 1586.75 1534.03 Q1584.62 1532.3 1580.8 1532.3 L1576.77 1532.3 L1576.77 1528.45 L1580.98 1528.45 Q1584.43 1528.45 1586.26 1527.09 Q1588.09 1525.7 1588.09 1523.11 Q1588.09 1520.45 1586.19 1519.03 Q1584.32 1517.6 1580.8 1517.6 Q1578.88 1517.6 1576.68 1518.01 Q1574.48 1518.43 1571.84 1519.31 L1571.84 1515.14 Q1574.5 1514.4 1576.82 1514.03 Q1579.16 1513.66 1581.22 1513.66 Q1586.54 1513.66 1589.64 1516.09 Q1592.74 1518.5 1592.74 1522.62 Q1592.74 1525.49 1591.1 1527.48 Q1589.46 1529.45 1586.42 1530.21 Z" fill="#9eb1be" fill-rule="nonzero" fill-opacity="1" /><path clip-path="url(#clip780)" d="M1602.91 1542.97 L1607.79 1542.97 L1607.79 1548.85 L1602.91 1548.85 L1602.91 1542.97 M1602.91 1524.33 L1607.79 1524.33 L1607.79 1530.21 L1602.91 1530.21 L1602.91 1524.33 Z" fill="#9eb1be" fill-rule="nonzero" fill-opacity="1" /><path clip-path="url(#clip780)" d="M1628.39 1517.37 Q1624.78 1517.37 1622.95 1520.93 Q1621.15 1524.47 1621.15 1531.6 Q1621.15 1538.71 1622.95 1542.27 Q1624.78 1545.82 1628.39 1545.82 Q1632.03 1545.82 1633.83 1542.27 Q1635.66 1538.71 1635.66 1531.6 Q1635.66 1524.47 1633.83 1520.93 Q1632.03 1517.37 1628.39 1517.37 M1628.39 1513.66 Q1634.2 1513.66 1637.26 1518.27 Q1640.34 1522.85 1640.34 1531.6 Q1640.34 1540.33 1637.26 1544.94 Q1634.2 1549.52 1628.39 1549.52 Q1622.58 1549.52 1619.5 1544.94 Q1616.45 1540.33 1616.45 1531.6 Q1616.45 1522.85 1619.5 1518.27 Q1622.58 1513.66 1628.39 1513.66 Z" fill="#9eb1be" fill-rule="nonzero" fill-opacity="1" /><path clip-path="url(#clip780)" d="M1658.55 1517.37 Q1654.94 1517.37 1653.11 1520.93 Q1651.31 1524.47 1651.31 1531.6 Q1651.31 1538.71 1653.11 1542.27 Q1654.94 1545.82 1658.55 1545.82 Q1662.19 1545.82 1663.99 1542.27 Q1665.82 1538.71 1665.82 1531.6 Q1665.82 1524.47 1663.99 1520.93 Q1662.19 1517.37 1658.55 1517.37 M1658.55 1513.66 Q1664.36 1513.66 1667.42 1518.27 Q1670.5 1522.85 1670.5 1531.6 Q1670.5 1540.33 1667.42 1544.94 Q1664.36 1549.52 1658.55 1549.52 Q1652.74 1549.52 1649.66 1544.94 Q1646.61 1540.33 1646.61 1531.6 Q1646.61 1522.85 1649.66 1518.27 Q1652.74 1513.66 1658.55 1513.66 Z" fill="#9eb1be" fill-rule="nonzero" fill-opacity="1" /><path clip-path="url(#clip780)" d="M1679.2 1542.97 L1684.09 1542.97 L1684.09 1548.85 L1679.2 1548.85 L1679.2 1542.97 M1679.2 1524.33 L1684.09 1524.33 L1684.09 1530.21 L1679.2 1530.21 L1679.2 1524.33 Z" fill="#9eb1be" fill-rule="nonzero" fill-opacity="1" /><path clip-path="url(#clip780)" d="M1704.69 1517.37 Q1701.08 1517.37 1699.25 1520.93 Q1697.44 1524.47 1697.44 1531.6 Q1697.44 1538.71 1699.25 1542.27 Q1701.08 1545.82 1704.69 1545.82 Q1708.32 1545.82 1710.13 1542.27 Q1711.96 1538.71 1711.96 1531.6 Q1711.96 1524.47 1710.13 1520.93 Q1708.32 1517.37 1704.69 1517.37 M1704.69 1513.66 Q1710.5 1513.66 1713.55 1518.27 Q1716.63 1522.85 1716.63 1531.6 Q1716.63 1540.33 1713.55 1544.94 Q1710.5 1549.52 1704.69 1549.52 Q1698.88 1549.52 1695.8 1544.94 Q1692.74 1540.33 1692.74 1531.6 Q1692.74 1522.85 1695.8 1518.27 Q1698.88 1513.66 1704.69 1513.66 Z" fill="#9eb1be" fill-rule="nonzero" fill-opacity="1" /><path clip-path="url(#clip780)" d="M1734.85 1517.37 Q1731.24 1517.37 1729.41 1520.93 Q1727.6 1524.47 1727.6 1531.6 Q1727.6 1538.71 1729.41 1542.27 Q1731.24 1545.82 1734.85 1545.82 Q1738.48 1545.82 1740.29 1542.27 Q1742.12 1538.71 1742.12 1531.6 Q1742.12 1524.47 1740.29 1520.93 Q1738.48 1517.37 1734.85 1517.37 M1734.85 1513.66 Q1740.66 1513.66 1743.71 1518.27 Q1746.79 1522.85 1746.79 1531.6 Q1746.79 1540.33 1743.71 1544.94 Q1740.66 1549.52 1734.85 1549.52 Q1729.04 1549.52 1725.96 1544.94 Q1722.9 1540.33 1722.9 1531.6 Q1722.9 1522.85 1725.96 1518.27 Q1729.04 1513.66 1734.85 1513.66 Z" fill="#9eb1be" fill-rule="nonzero" fill-opacity="1" /><path clip-path="url(#clip780)" d="M1642.28 1544.91 L1658.6 1544.91 L1658.6 1548.85 L1636.66 1548.85 L1636.66 1544.91 Q1639.32 1542.16 1643.9 1537.53 Q1648.51 1532.88 1649.69 1531.53 Q1651.93 1529.01 1652.81 1527.27 Q1653.72 1525.51 1653.72 1523.82 Q1653.72 1521.07 1651.77 1519.33 Q1649.85 1517.6 1646.75 1517.6 Q1644.55 1517.6 1642.1 1518.36 Q1639.67 1519.13 1636.89 1520.68 L1636.89 1515.95 Q1639.71 1514.82 1642.17 1514.24 Q1644.62 1513.66 1646.66 1513.66 Q1652.03 1513.66 1655.22 1516.35 Q1658.42 1519.03 1658.42 1523.52 Q1658.42 1525.65 1657.61 1527.57 Q1656.82 1529.47 1654.71 1532.07 Q1654.13 1532.74 1651.03 1535.95 Q1647.93 1539.15 1642.28 1544.91 Z" fill="#9eb1be" fill-rule="nonzero" fill-opacity="1" /><path clip-path="url(#clip780)" d="M1678.42 1517.37 Q1674.8 1517.37 1672.98 1520.93 Q1671.17 1524.47 1671.17 1531.6 Q1671.17 1538.71 1672.98 1542.27 Q1674.8 1545.82 1678.42 1545.82 Q1682.05 1545.82 1683.86 1542.27 Q1685.68 1538.71 1685.68 1531.6 Q1685.68 1524.47 1683.86 1520.93 Q1682.05 1517.37 1678.42 1517.37 M1678.42 1513.66 Q1684.23 1513.66 1687.28 1518.27 Q1690.36 1522.85 1690.36 1531.6 Q1690.36 1540.33 1687.28 1544.94 Q1684.23 1549.52 1678.42 1549.52 Q1672.61 1549.52 1669.53 1544.94 Q1666.47 1540.33 1666.47 1531.6 Q1666.47 1522.85 1669.53 1518.27 Q1672.61 1513.66 1678.42 1513.66 Z" fill="#9eb1be" fill-rule="nonzero" fill-opacity="1" /><path clip-path="url(#clip780)" d="M1702.61 1544.91 L1718.93 1544.91 L1718.93 1548.85 L1696.98 1548.85 L1696.98 1544.91 Q1699.64 1542.16 1704.23 1537.53 Q1708.83 1532.88 1710.01 1531.53 Q1712.26 1529.01 1713.14 1527.27 Q1714.04 1525.51 1714.04 1523.82 Q1714.04 1521.07 1712.1 1519.33 Q1710.18 1517.6 1707.07 1517.6 Q1704.87 1517.6 1702.42 1518.36 Q1699.99 1519.13 1697.21 1520.68 L1697.21 1515.95 Q1700.04 1514.82 1702.49 1514.24 Q1704.94 1513.66 1706.98 1513.66 Q1712.35 1513.66 1715.55 1516.35 Q1718.74 1519.03 1718.74 1523.52 Q1718.74 1525.65 1717.93 1527.57 Q1717.14 1529.47 1715.04 1532.07 Q1714.46 1532.74 1711.36 1535.95 Q1708.25 1539.15 1702.61 1544.91 Z" fill="#9eb1be" fill-rule="nonzero" fill-opacity="1" /><path clip-path="url(#clip780)" d="M1741.59 1518.36 L1729.78 1536.81 L1741.59 1536.81 L1741.59 1518.36 M1740.36 1514.29 L1746.24 1514.29 L1746.24 1536.81 L1751.17 1536.81 L1751.17 1540.7 L1746.24 1540.7 L1746.24 1548.85 L1741.59 1548.85 L1741.59 1540.7 L1725.99 1540.7 L1725.99 1536.19 L1740.36 1514.29 Z" fill="#9eb1be" fill-rule="nonzero" fill-opacity="1" /><path clip-path="url(#clip780)" d="M1756.15 1533.96 L1768.62 1533.96 L1768.62 1537.76 L1756.15 1537.76 L1756.15 1533.96 Z" fill="#9eb1be" fill-rule="nonzero" fill-opacity="1" /><path clip-path="url(#clip780)" d="M1786.01 1517.37 Q1782.4 1517.37 1780.57 1520.93 Q1778.76 1524.47 1778.76 1531.6 Q1778.76 1538.71 1780.57 1542.27 Q1782.4 1545.82 1786.01 1545.82 Q1789.64 1545.82 1791.45 1542.27 Q1793.28 1538.71 1793.28 1531.6 Q1793.28 1524.47 1791.45 1520.93 Q1789.64 1517.37 1786.01 1517.37 M1786.01 1513.66 Q1791.82 1513.66 1794.87 1518.27 Q1797.95 1522.85 1797.95 1531.6 Q1797.95 1540.33 1794.87 1544.94 Q1791.82 1549.52 1786.01 1549.52 Q1780.2 1549.52 1777.12 1544.94 Q1774.06 1540.33 1774.06 1531.6 Q1774.06 1522.85 1777.12 1518.27 Q1780.2 1513.66 1786.01 1513.66 Z" fill="#9eb1be" fill-rule="nonzero" fill-opacity="1" /><path clip-path="url(#clip780)" d="M1806.98 1544.91 L1814.62 1544.91 L1814.62 1518.55 L1806.31 1520.21 L1806.31 1515.95 L1814.57 1514.29 L1819.25 1514.29 L1819.25 1544.91 L1826.89 1544.91 L1826.89 1548.85 L1806.98 1548.85 L1806.98 1544.91 Z" fill="#9eb1be" fill-rule="nonzero" fill-opacity="1" /><path clip-path="url(#clip780)" d="M1833.58 1533.96 L1846.05 1533.96 L1846.05 1537.76 L1833.58 1537.76 L1833.58 1533.96 Z" fill="#9eb1be" fill-rule="nonzero" fill-opacity="1" /><path clip-path="url(#clip780)" d="M1863.44 1517.37 Q1859.83 1517.37 1858 1520.93 Q1856.19 1524.47 1856.19 1531.6 Q1856.19 1538.71 1858 1542.27 Q1859.83 1545.82 1863.44 1545.82 Q1867.07 1545.82 1868.88 1542.27 Q1870.71 1538.71 1870.71 1531.6 Q1870.71 1524.47 1868.88 1520.93 Q1867.07 1517.37 1863.44 1517.37 M1863.44 1513.66 Q1869.25 1513.66 1872.3 1518.27 Q1875.38 1522.85 1875.38 1531.6 Q1875.38 1540.33 1872.3 1544.94 Q1869.25 1549.52 1863.44 1549.52 Q1857.63 1549.52 1854.55 1544.94 Q1851.49 1540.33 1851.49 1531.6 Q1851.49 1522.85 1854.55 1518.27 Q1857.63 1513.66 1863.44 1513.66 Z" fill="#9eb1be" fill-rule="nonzero" fill-opacity="1" /><path clip-path="url(#clip780)" d="M1884.41 1544.91 L1892.05 1544.91 L1892.05 1518.55 L1883.74 1520.21 L1883.74 1515.95 L1892 1514.29 L1896.68 1514.29 L1896.68 1544.91 L1904.32 1544.91 L1904.32 1548.85 L1884.41 1548.85 L1884.41 1544.91 Z" fill="#9eb1be" fill-rule="nonzero" fill-opacity="1" /><path clip-path="url(#clip780)" d="M1908.55 1514.29 L1937.79 1514.29 L1937.79 1518.22 L1925.52 1518.22 L1925.52 1548.85 L1920.82 1548.85 L1920.82 1518.22 L1908.55 1518.22 L1908.55 1514.29 Z" fill="#9eb1be" fill-rule="nonzero" fill-opacity="1" /><path clip-path="url(#clip780)" d="M1952.72 1517.37 Q1949.11 1517.37 1947.28 1520.93 Q1945.47 1524.47 1945.47 1531.6 Q1945.47 1538.71 1947.28 1542.27 Q1949.11 1545.82 1952.72 1545.82 Q1956.35 1545.82 1958.16 1542.27 Q1959.99 1538.71 1959.99 1531.6 Q1959.99 1524.47 1958.16 1520.93 Q1956.35 1517.37 1952.72 1517.37 M1952.72 1513.66 Q1958.53 1513.66 1961.59 1518.27 Q1964.66 1522.85 1964.66 1531.6 Q1964.66 1540.33 1961.59 1544.94 Q1958.53 1549.52 1952.72 1549.52 Q1946.91 1549.52 1943.83 1544.94 Q1940.78 1540.33 1940.78 1531.6 Q1940.78 1522.85 1943.83 1518.27 Q1946.91 1513.66 1952.72 1513.66 Z" fill="#9eb1be" fill-rule="nonzero" fill-opacity="1" /><path clip-path="url(#clip780)" d="M1985.73 1518.36 L1973.92 1536.81 L1985.73 1536.81 L1985.73 1518.36 M1984.5 1514.29 L1990.38 1514.29 L1990.38 1536.81 L1995.31 1536.81 L1995.31 1540.7 L1990.38 1540.7 L1990.38 1548.85 L1985.73 1548.85 L1985.73 1540.7 L1970.13 1540.7 L1970.13 1536.19 L1984.5 1514.29 Z" fill="#9eb1be" fill-rule="nonzero" fill-opacity="1" /><path clip-path="url(#clip780)" d="M2003.53 1542.97 L2008.41 1542.97 L2008.41 1548.85 L2003.53 1548.85 L2003.53 1542.97 M2003.53 1524.33 L2008.41 1524.33 L2008.41 1530.21 L2003.53 1530.21 L2003.53 1524.33 Z" fill="#9eb1be" fill-rule="nonzero" fill-opacity="1" /><path clip-path="url(#clip780)" d="M2029.02 1517.37 Q2025.4 1517.37 2023.58 1520.93 Q2021.77 1524.47 2021.77 1531.6 Q2021.77 1538.71 2023.58 1542.27 Q2025.4 1545.82 2029.02 1545.82 Q2032.65 1545.82 2034.46 1542.27 Q2036.28 1538.71 2036.28 1531.6 Q2036.28 1524.47 2034.46 1520.93 Q2032.65 1517.37 2029.02 1517.37 M2029.02 1513.66 Q2034.83 1513.66 2037.88 1518.27 Q2040.96 1522.85 2040.96 1531.6 Q2040.96 1540.33 2037.88 1544.94 Q2034.83 1549.52 2029.02 1549.52 Q2023.21 1549.52 2020.13 1544.94 Q2017.07 1540.33 2017.07 1531.6 Q2017.07 1522.85 2020.13 1518.27 Q2023.21 1513.66 2029.02 1513.66 Z" fill="#9eb1be" fill-rule="nonzero" fill-opacity="1" /><path clip-path="url(#clip780)" d="M2059.18 1517.37 Q2055.57 1517.37 2053.74 1520.93 Q2051.93 1524.47 2051.93 1531.6 Q2051.93 1538.71 2053.74 1542.27 Q2055.57 1545.82 2059.18 1545.82 Q2062.81 1545.82 2064.62 1542.27 Q2066.45 1538.71 2066.45 1531.6 Q2066.45 1524.47 2064.62 1520.93 Q2062.81 1517.37 2059.18 1517.37 M2059.18 1513.66 Q2064.99 1513.66 2068.04 1518.27 Q2071.12 1522.85 2071.12 1531.6 Q2071.12 1540.33 2068.04 1544.94 Q2064.99 1549.52 2059.18 1549.52 Q2053.37 1549.52 2050.29 1544.94 Q2047.23 1540.33 2047.23 1531.6 Q2047.23 1522.85 2050.29 1518.27 Q2053.37 1513.66 2059.18 1513.66 Z" fill="#9eb1be" fill-rule="nonzero" fill-opacity="1" /><path clip-path="url(#clip780)" d="M2079.83 1542.97 L2084.71 1542.97 L2084.71 1548.85 L2079.83 1548.85 L2079.83 1542.97 M2079.83 1524.33 L2084.71 1524.33 L2084.71 1530.21 L2079.83 1530.21 L2079.83 1524.33 Z" fill="#9eb1be" fill-rule="nonzero" fill-opacity="1" /><path clip-path="url(#clip780)" d="M2105.31 1517.37 Q2101.7 1517.37 2099.87 1520.93 Q2098.07 1524.47 2098.07 1531.6 Q2098.07 1538.71 2099.87 1542.27 Q2101.7 1545.82 2105.31 1545.82 Q2108.95 1545.82 2110.75 1542.27 Q2112.58 1538.71 2112.58 1531.6 Q2112.58 1524.47 2110.75 1520.93 Q2108.95 1517.37 2105.31 1517.37 M2105.31 1513.66 Q2111.12 1513.66 2114.18 1518.27 Q2117.26 1522.85 2117.26 1531.6 Q2117.26 1540.33 2114.18 1544.94 Q2111.12 1549.52 2105.31 1549.52 Q2099.5 1549.52 2096.42 1544.94 Q2093.37 1540.33 2093.37 1531.6 Q2093.37 1522.85 2096.42 1518.27 Q2099.5 1513.66 2105.31 1513.66 Z" fill="#9eb1be" fill-rule="nonzero" fill-opacity="1" /><path clip-path="url(#clip780)" d="M2135.47 1517.37 Q2131.86 1517.37 2130.03 1520.93 Q2128.23 1524.47 2128.23 1531.6 Q2128.23 1538.71 2130.03 1542.27 Q2131.86 1545.82 2135.47 1545.82 Q2139.11 1545.82 2140.91 1542.27 Q2142.74 1538.71 2142.74 1531.6 Q2142.74 1524.47 2140.91 1520.93 Q2139.11 1517.37 2135.47 1517.37 M2135.47 1513.66 Q2141.28 1513.66 2144.34 1518.27 Q2147.42 1522.85 2147.42 1531.6 Q2147.42 1540.33 2144.34 1544.94 Q2141.28 1549.52 2135.47 1549.52 Q2129.66 1549.52 2126.58 1544.94 Q2123.53 1540.33 2123.53 1531.6 Q2123.53 1522.85 2126.58 1518.27 Q2129.66 1513.66 2135.47 1513.66 Z" fill="#9eb1be" fill-rule="nonzero" fill-opacity="1" /><path clip-path="url(#clip780)" d="M2042.91 1544.91 L2059.23 1544.91 L2059.23 1548.85 L2037.28 1548.85 L2037.28 1544.91 Q2039.94 1542.16 2044.53 1537.53 Q2049.13 1532.88 2050.31 1531.53 Q2052.56 1529.01 2053.44 1527.27 Q2054.34 1525.51 2054.34 1523.82 Q2054.34 1521.07 2052.4 1519.33 Q2050.48 1517.6 2047.37 1517.6 Q2045.18 1517.6 2042.72 1518.36 Q2040.29 1519.13 2037.51 1520.68 L2037.51 1515.95 Q2040.34 1514.82 2042.79 1514.24 Q2045.24 1513.66 2047.28 1513.66 Q2052.65 1513.66 2055.85 1516.35 Q2059.04 1519.03 2059.04 1523.52 Q2059.04 1525.65 2058.23 1527.57 Q2057.44 1529.47 2055.34 1532.07 Q2054.76 1532.74 2051.66 1535.95 Q2048.55 1539.15 2042.91 1544.91 Z" fill="#9eb1be" fill-rule="nonzero" fill-opacity="1" /><path clip-path="url(#clip780)" d="M2079.04 1517.37 Q2075.43 1517.37 2073.6 1520.93 Q2071.8 1524.47 2071.8 1531.6 Q2071.8 1538.71 2073.6 1542.27 Q2075.43 1545.82 2079.04 1545.82 Q2082.67 1545.82 2084.48 1542.27 Q2086.31 1538.71 2086.31 1531.6 Q2086.31 1524.47 2084.48 1520.93 Q2082.67 1517.37 2079.04 1517.37 M2079.04 1513.66 Q2084.85 1513.66 2087.91 1518.27 Q2090.99 1522.85 2090.99 1531.6 Q2090.99 1540.33 2087.91 1544.94 Q2084.85 1549.52 2079.04 1549.52 Q2073.23 1549.52 2070.15 1544.94 Q2067.1 1540.33 2067.1 1531.6 Q2067.1 1522.85 2070.15 1518.27 Q2073.23 1513.66 2079.04 1513.66 Z" fill="#9eb1be" fill-rule="nonzero" fill-opacity="1" /><path clip-path="url(#clip780)" d="M2103.23 1544.91 L2119.55 1544.91 L2119.55 1548.85 L2097.61 1548.85 L2097.61 1544.91 Q2100.27 1542.16 2104.85 1537.53 Q2109.46 1532.88 2110.64 1531.53 Q2112.88 1529.01 2113.76 1527.27 Q2114.67 1525.51 2114.67 1523.82 Q2114.67 1521.07 2112.72 1519.33 Q2110.8 1517.6 2107.7 1517.6 Q2105.5 1517.6 2103.05 1518.36 Q2100.61 1519.13 2097.84 1520.68 L2097.84 1515.95 Q2100.66 1514.82 2103.11 1514.24 Q2105.57 1513.66 2107.61 1513.66 Q2112.98 1513.66 2116.17 1516.35 Q2119.36 1519.03 2119.36 1523.52 Q2119.36 1525.65 2118.55 1527.57 Q2117.77 1529.47 2115.66 1532.07 Q2115.08 1532.74 2111.98 1535.95 Q2108.88 1539.15 2103.23 1544.91 Z" fill="#9eb1be" fill-rule="nonzero" fill-opacity="1" /><path clip-path="url(#clip780)" d="M2142.21 1518.36 L2130.41 1536.81 L2142.21 1536.81 L2142.21 1518.36 M2140.98 1514.29 L2146.86 1514.29 L2146.86 1536.81 L2151.79 1536.81 L2151.79 1540.7 L2146.86 1540.7 L2146.86 1548.85 L2142.21 1548.85 L2142.21 1540.7 L2126.61 1540.7 L2126.61 1536.19 L2140.98 1514.29 Z" fill="#9eb1be" fill-rule="nonzero" fill-opacity="1" /><path clip-path="url(#clip780)" d="M2156.77 1533.96 L2169.25 1533.96 L2169.25 1537.76 L2156.77 1537.76 L2156.77 1533.96 Z" fill="#9eb1be" fill-rule="nonzero" fill-opacity="1" /><path clip-path="url(#clip780)" d="M2186.63 1517.37 Q2183.02 1517.37 2181.19 1520.93 Q2179.39 1524.47 2179.39 1531.6 Q2179.39 1538.71 2181.19 1542.27 Q2183.02 1545.82 2186.63 1545.82 Q2190.27 1545.82 2192.07 1542.27 Q2193.9 1538.71 2193.9 1531.6 Q2193.9 1524.47 2192.07 1520.93 Q2190.27 1517.37 2186.63 1517.37 M2186.63 1513.66 Q2192.44 1513.66 2195.5 1518.27 Q2198.58 1522.85 2198.58 1531.6 Q2198.58 1540.33 2195.5 1544.94 Q2192.44 1549.52 2186.63 1549.52 Q2180.82 1549.52 2177.74 1544.94 Q2174.69 1540.33 2174.69 1531.6 Q2174.69 1522.85 2177.74 1518.27 Q2180.82 1513.66 2186.63 1513.66 Z" fill="#9eb1be" fill-rule="nonzero" fill-opacity="1" /><path clip-path="url(#clip780)" d="M2207.6 1544.91 L2215.24 1544.91 L2215.24 1518.55 L2206.93 1520.21 L2206.93 1515.95 L2215.2 1514.29 L2219.87 1514.29 L2219.87 1544.91 L2227.51 1544.91 L2227.51 1548.85 L2207.6 1548.85 L2207.6 1544.91 Z" fill="#9eb1be" fill-rule="nonzero" fill-opacity="1" /><path clip-path="url(#clip780)" d="M2234.2 1533.96 L2246.68 1533.96 L2246.68 1537.76 L2234.2 1537.76 L2234.2 1533.96 Z" fill="#9eb1be" fill-rule="nonzero" fill-opacity="1" /><path clip-path="url(#clip780)" d="M2264.06 1517.37 Q2260.45 1517.37 2258.62 1520.93 Q2256.82 1524.47 2256.82 1531.6 Q2256.82 1538.71 2258.62 1542.27 Q2260.45 1545.82 2264.06 1545.82 Q2267.7 1545.82 2269.5 1542.27 Q2271.33 1538.71 2271.33 1531.6 Q2271.33 1524.47 2269.5 1520.93 Q2267.7 1517.37 2264.06 1517.37 M2264.06 1513.66 Q2269.87 1513.66 2272.93 1518.27 Q2276.01 1522.85 2276.01 1531.6 Q2276.01 1540.33 2272.93 1544.94 Q2269.87 1549.52 2264.06 1549.52 Q2258.25 1549.52 2255.17 1544.94 Q2252.12 1540.33 2252.12 1531.6 Q2252.12 1522.85 2255.17 1518.27 Q2258.25 1513.66 2264.06 1513.66 Z" fill="#9eb1be" fill-rule="nonzero" fill-opacity="1" /><path clip-path="url(#clip780)" d="M2285.03 1544.91 L2292.67 1544.91 L2292.67 1518.55 L2284.36 1520.21 L2284.36 1515.95 L2292.63 1514.29 L2297.3 1514.29 L2297.3 1544.91 L2304.94 1544.91 L2304.94 1548.85 L2285.03 1548.85 L2285.03 1544.91 Z" fill="#9eb1be" fill-rule="nonzero" fill-opacity="1" /><path clip-path="url(#clip780)" d="M2309.18 1514.29 L2338.41 1514.29 L2338.41 1518.22 L2326.15 1518.22 L2326.15 1548.85 L2321.45 1548.85 L2321.45 1518.22 L2309.18 1518.22 L2309.18 1514.29 Z" fill="#9eb1be" fill-rule="nonzero" fill-opacity="1" /><path clip-path="url(#clip780)" d="M2353.34 1517.37 Q2349.73 1517.37 2347.9 1520.93 Q2346.1 1524.47 2346.1 1531.6 Q2346.1 1538.71 2347.9 1542.27 Q2349.73 1545.82 2353.34 1545.82 Q2356.98 1545.82 2358.78 1542.27 Q2360.61 1538.71 2360.61 1531.6 Q2360.61 1524.47 2358.78 1520.93 Q2356.98 1517.37 2353.34 1517.37 M2353.34 1513.66 Q2359.15 1513.66 2362.21 1518.27 Q2365.29 1522.85 2365.29 1531.6 Q2365.29 1540.33 2362.21 1544.94 Q2359.15 1549.52 2353.34 1549.52 Q2347.53 1549.52 2344.46 1544.94 Q2341.4 1540.33 2341.4 1531.6 Q2341.4 1522.85 2344.46 1518.27 Q2347.53 1513.66 2353.34 1513.66 Z" fill="#9eb1be" fill-rule="nonzero" fill-opacity="1" /><path clip-path="url(#clip780)" d="M2373.55 1514.29 L2391.91 1514.29 L2391.91 1518.22 L2377.84 1518.22 L2377.84 1526.7 Q2378.85 1526.35 2379.87 1526.19 Q2380.89 1526 2381.91 1526 Q2387.7 1526 2391.08 1529.17 Q2394.46 1532.34 2394.46 1537.76 Q2394.46 1543.34 2390.98 1546.44 Q2387.51 1549.52 2381.19 1549.52 Q2379.02 1549.52 2376.75 1549.15 Q2374.5 1548.78 2372.09 1548.04 L2372.09 1543.34 Q2374.18 1544.47 2376.4 1545.03 Q2378.62 1545.58 2381.1 1545.58 Q2385.1 1545.58 2387.44 1543.48 Q2389.78 1541.37 2389.78 1537.76 Q2389.78 1534.15 2387.44 1532.04 Q2385.1 1529.94 2381.1 1529.94 Q2379.22 1529.94 2377.35 1530.35 Q2375.5 1530.77 2373.55 1531.65 L2373.55 1514.29 Z" fill="#9eb1be" fill-rule="nonzero" fill-opacity="1" /><path clip-path="url(#clip780)" d="M2404.15 1542.97 L2409.04 1542.97 L2409.04 1548.85 L2404.15 1548.85 L2404.15 1542.97 M2404.15 1524.33 L2409.04 1524.33 L2409.04 1530.21 L2404.15 1530.21 L2404.15 1524.33 Z" fill="#9eb1be" fill-rule="nonzero" fill-opacity="1" /><path clip-path="url(#clip780)" d="M2429.64 1517.37 Q2426.03 1517.37 2424.2 1520.93 Q2422.4 1524.47 2422.4 1531.6 Q2422.4 1538.71 2424.2 1542.27 Q2426.03 1545.82 2429.64 1545.82 Q2433.27 1545.82 2435.08 1542.27 Q2436.91 1538.71 2436.91 1531.6 Q2436.91 1524.47 2435.08 1520.93 Q2433.27 1517.37 2429.64 1517.37 M2429.64 1513.66 Q2435.45 1513.66 2438.51 1518.27 Q2441.59 1522.85 2441.59 1531.6 Q2441.59 1540.33 2438.51 1544.94 Q2435.45 1549.52 2429.64 1549.52 Q2423.83 1549.52 2420.75 1544.94 Q2417.7 1540.33 2417.7 1531.6 Q2417.7 1522.85 2420.75 1518.27 Q2423.83 1513.66 2429.64 1513.66 Z" fill="#9eb1be" fill-rule="nonzero" fill-opacity="1" /><path clip-path="url(#clip780)" d="M2459.8 1517.37 Q2456.19 1517.37 2454.36 1520.93 Q2452.56 1524.47 2452.56 1531.6 Q2452.56 1538.71 2454.36 1542.27 Q2456.19 1545.82 2459.8 1545.82 Q2463.44 1545.82 2465.24 1542.27 Q2467.07 1538.71 2467.07 1531.6 Q2467.07 1524.47 2465.24 1520.93 Q2463.44 1517.37 2459.8 1517.37 M2459.8 1513.66 Q2465.61 1513.66 2468.67 1518.27 Q2471.75 1522.85 2471.75 1531.6 Q2471.75 1540.33 2468.67 1544.94 Q2465.61 1549.52 2459.8 1549.52 Q2453.99 1549.52 2450.91 1544.94 Q2447.86 1540.33 2447.86 1531.6 Q2447.86 1522.85 2450.91 1518.27 Q2453.99 1513.66 2459.8 1513.66 Z" fill="#9eb1be" fill-rule="nonzero" fill-opacity="1" /><path clip-path="url(#clip780)" d="M2480.45 1542.97 L2485.33 1542.97 L2485.33 1548.85 L2480.45 1548.85 L2480.45 1542.97 M2480.45 1524.33 L2485.33 1524.33 L2485.33 1530.21 L2480.45 1530.21 L2480.45 1524.33 Z" fill="#9eb1be" fill-rule="nonzero" fill-opacity="1" /><path clip-path="url(#clip780)" d="M2505.94 1517.37 Q2502.33 1517.37 2500.5 1520.93 Q2498.69 1524.47 2498.69 1531.6 Q2498.69 1538.71 2500.5 1542.27 Q2502.33 1545.82 2505.94 1545.82 Q2509.57 1545.82 2511.38 1542.27 Q2513.21 1538.71 2513.21 1531.6 Q2513.21 1524.47 2511.38 1520.93 Q2509.57 1517.37 2505.94 1517.37 M2505.94 1513.66 Q2511.75 1513.66 2514.8 1518.27 Q2517.88 1522.85 2517.88 1531.6 Q2517.88 1540.33 2514.8 1544.94 Q2511.75 1549.52 2505.94 1549.52 Q2500.13 1549.52 2497.05 1544.94 Q2493.99 1540.33 2493.99 1531.6 Q2493.99 1522.85 2497.05 1518.27 Q2500.13 1513.66 2505.94 1513.66 Z" fill="#9eb1be" fill-rule="nonzero" fill-opacity="1" /><path clip-path="url(#clip780)" d="M2536.1 1517.37 Q2532.49 1517.37 2530.66 1520.93 Q2528.85 1524.47 2528.85 1531.6 Q2528.85 1538.71 2530.66 1542.27 Q2532.49 1545.82 2536.1 1545.82 Q2539.73 1545.82 2541.54 1542.27 Q2543.37 1538.71 2543.37 1531.6 Q2543.37 1524.47 2541.54 1520.93 Q2539.73 1517.37 2536.1 1517.37 M2536.1 1513.66 Q2541.91 1513.66 2544.96 1518.27 Q2548.04 1522.85 2548.04 1531.6 Q2548.04 1540.33 2544.96 1544.94 Q2541.91 1549.52 2536.1 1549.52 Q2530.29 1549.52 2527.21 1544.94 Q2524.15 1540.33 2524.15 1531.6 Q2524.15 1522.85 2527.21 1518.27 Q2530.29 1513.66 2536.1 1513.66 Z" fill="#9eb1be" fill-rule="nonzero" fill-opacity="1" /><polyline clip-path="url(#clip780)" style="stroke:#adb2b7; stroke-linecap:round; stroke-linejoin:round; stroke-width:4; stroke-opacity:1; fill:none" points="229.445,1486.45 229.445,123.472 "/>
<polyline clip-path="url(#clip780)" style="stroke:#adb2b7; stroke-linecap:round; stroke-linejoin:round; stroke-width:4; stroke-opacity:1; fill:none" points="229.445,1395.93 248.343,1395.93 "/>
<polyline clip-path="url(#clip780)" style="stroke:#adb2b7; stroke-linecap:round; stroke-linejoin:round; stroke-width:4; stroke-opacity:1; fill:none" points="229.445,1138.76 248.343,1138.76 "/>
<polyline clip-path="url(#clip780)" style="stroke:#adb2b7; stroke-linecap:round; stroke-linejoin:round; stroke-width:4; stroke-opacity:1; fill:none" points="229.445,881.595 248.343,881.595 "/>
<polyline clip-path="url(#clip780)" style="stroke:#adb2b7; stroke-linecap:round; stroke-linejoin:round; stroke-width:4; stroke-opacity:1; fill:none" points="229.445,624.43 248.343,624.43 "/>
<polyline clip-path="url(#clip780)" style="stroke:#adb2b7; stroke-linecap:round; stroke-linejoin:round; stroke-width:4; stroke-opacity:1; fill:none" points="229.445,367.265 248.343,367.265 "/>
<path clip-path="url(#clip780)" d="M82.1494 1412.49 L82.1494 1408.23 Q83.9086 1409.06 85.7142 1409.5 Q87.5197 1409.94 89.2558 1409.94 Q93.8854 1409.94 96.316 1406.84 Q98.7696 1403.72 99.1169 1397.37 Q97.7743 1399.36 95.7141 1400.43 Q93.6539 1401.49 91.1539 1401.49 Q85.9688 1401.49 82.9364 1398.37 Q79.9272 1395.22 79.9272 1389.78 Q79.9272 1384.46 83.0753 1381.24 Q86.2234 1378.02 91.4549 1378.02 Q97.4502 1378.02 100.598 1382.63 Q103.77 1387.21 103.77 1395.96 Q103.77 1404.13 99.8808 1409.02 Q96.015 1413.88 89.4641 1413.88 Q87.7049 1413.88 85.8993 1413.53 Q84.0938 1413.18 82.1494 1412.49 M91.4549 1397.84 Q94.603 1397.84 96.4317 1395.68 Q98.2835 1393.53 98.2835 1389.78 Q98.2835 1386.05 96.4317 1383.9 Q94.603 1381.72 91.4549 1381.72 Q88.3067 1381.72 86.4549 1383.9 Q84.6262 1386.05 84.6262 1389.78 Q84.6262 1393.53 86.4549 1395.68 Q88.3067 1397.84 91.4549 1397.84 Z" fill="#9eb1be" fill-rule="nonzero" fill-opacity="1" /><path clip-path="url(#clip780)" d="M112.311 1412.49 L112.311 1408.23 Q114.07 1409.06 115.876 1409.5 Q117.682 1409.94 119.418 1409.94 Q124.047 1409.94 126.478 1406.84 Q128.932 1403.72 129.279 1397.37 Q127.936 1399.36 125.876 1400.43 Q123.816 1401.49 121.316 1401.49 Q116.131 1401.49 113.098 1398.37 Q110.089 1395.22 110.089 1389.78 Q110.089 1384.46 113.237 1381.24 Q116.385 1378.02 121.617 1378.02 Q127.612 1378.02 130.76 1382.63 Q133.931 1387.21 133.931 1395.96 Q133.931 1404.13 130.043 1409.02 Q126.177 1413.88 119.626 1413.88 Q117.867 1413.88 116.061 1413.53 Q114.256 1413.18 112.311 1412.49 M121.617 1397.84 Q124.765 1397.84 126.594 1395.68 Q128.445 1393.53 128.445 1389.78 Q128.445 1386.05 126.594 1383.9 Q124.765 1381.72 121.617 1381.72 Q118.469 1381.72 116.617 1383.9 Q114.788 1386.05 114.788 1389.78 Q114.788 1393.53 116.617 1395.68 Q118.469 1397.84 121.617 1397.84 Z" fill="#9eb1be" fill-rule="nonzero" fill-opacity="1" /><path clip-path="url(#clip780)" d="M152.334 1396.79 Q149.001 1396.79 147.08 1398.58 Q145.181 1400.36 145.181 1403.48 Q145.181 1406.61 147.08 1408.39 Q149.001 1410.17 152.334 1410.17 Q155.667 1410.17 157.589 1408.39 Q159.51 1406.59 159.51 1403.48 Q159.51 1400.36 157.589 1398.58 Q155.691 1396.79 152.334 1396.79 M147.658 1394.8 Q144.649 1394.06 142.959 1392 Q141.293 1389.94 141.293 1386.98 Q141.293 1382.84 144.232 1380.43 Q147.195 1378.02 152.334 1378.02 Q157.496 1378.02 160.436 1380.43 Q163.376 1382.84 163.376 1386.98 Q163.376 1389.94 161.686 1392 Q160.019 1394.06 157.033 1394.8 Q160.413 1395.59 162.288 1397.88 Q164.186 1400.17 164.186 1403.48 Q164.186 1408.51 161.107 1411.19 Q158.052 1413.88 152.334 1413.88 Q146.617 1413.88 143.538 1411.19 Q140.482 1408.51 140.482 1403.48 Q140.482 1400.17 142.381 1397.88 Q144.279 1395.59 147.658 1394.8 M145.945 1387.42 Q145.945 1390.1 147.612 1391.61 Q149.302 1393.11 152.334 1393.11 Q155.343 1393.11 157.033 1391.61 Q158.746 1390.1 158.746 1387.42 Q158.746 1384.73 157.033 1383.23 Q155.343 1381.72 152.334 1381.72 Q149.302 1381.72 147.612 1383.23 Q145.945 1384.73 145.945 1387.42 Z" fill="#9eb1be" fill-rule="nonzero" fill-opacity="1" /><path clip-path="url(#clip780)" d="M172.542 1378.65 L190.899 1378.65 L190.899 1382.58 L176.825 1382.58 L176.825 1391.05 Q177.843 1390.71 178.862 1390.54 Q179.88 1390.36 180.899 1390.36 Q186.686 1390.36 190.065 1393.53 Q193.445 1396.7 193.445 1402.12 Q193.445 1407.7 189.973 1410.8 Q186.501 1413.88 180.181 1413.88 Q178.005 1413.88 175.737 1413.51 Q173.491 1413.14 171.084 1412.4 L171.084 1407.7 Q173.167 1408.83 175.39 1409.39 Q177.612 1409.94 180.089 1409.94 Q184.093 1409.94 186.431 1407.84 Q188.769 1405.73 188.769 1402.12 Q188.769 1398.51 186.431 1396.4 Q184.093 1394.29 180.089 1394.29 Q178.214 1394.29 176.339 1394.71 Q174.487 1395.13 172.542 1396.01 L172.542 1378.65 Z" fill="#9eb1be" fill-rule="nonzero" fill-opacity="1" /><path clip-path="url(#clip780)" d="M81.154 1155.32 L81.154 1151.06 Q82.9133 1151.9 84.7188 1152.34 Q86.5243 1152.78 88.2604 1152.78 Q92.89 1152.78 95.3206 1149.67 Q97.7743 1146.55 98.1215 1140.21 Q96.7789 1142.2 94.7187 1143.26 Q92.6586 1144.33 90.1586 1144.33 Q84.9734 1144.33 81.941 1141.2 Q78.9318 1138.05 78.9318 1132.61 Q78.9318 1127.29 82.0799 1124.07 Q85.2281 1120.86 90.4595 1120.86 Q96.4548 1120.86 99.603 1125.46 Q102.774 1130.05 102.774 1138.8 Q102.774 1146.97 98.8854 1151.85 Q95.0197 1156.71 88.4688 1156.71 Q86.7095 1156.71 84.904 1156.36 Q83.0984 1156.02 81.154 1155.32 M90.4595 1140.67 Q93.6076 1140.67 95.4363 1138.52 Q97.2882 1136.36 97.2882 1132.61 Q97.2882 1128.89 95.4363 1126.74 Q93.6076 1124.56 90.4595 1124.56 Q87.3114 1124.56 85.4595 1126.74 Q83.6308 1128.89 83.6308 1132.61 Q83.6308 1136.36 85.4595 1138.52 Q87.3114 1140.67 90.4595 1140.67 Z" fill="#9eb1be" fill-rule="nonzero" fill-opacity="1" /><path clip-path="url(#clip780)" d="M111.316 1155.32 L111.316 1151.06 Q113.075 1151.9 114.881 1152.34 Q116.686 1152.78 118.422 1152.78 Q123.052 1152.78 125.482 1149.67 Q127.936 1146.55 128.283 1140.21 Q126.941 1142.2 124.881 1143.26 Q122.82 1144.33 120.32 1144.33 Q115.135 1144.33 112.103 1141.2 Q109.094 1138.05 109.094 1132.61 Q109.094 1127.29 112.242 1124.07 Q115.39 1120.86 120.621 1120.86 Q126.617 1120.86 129.765 1125.46 Q132.936 1130.05 132.936 1138.8 Q132.936 1146.97 129.047 1151.85 Q125.182 1156.71 118.631 1156.71 Q116.871 1156.71 115.066 1156.36 Q113.26 1156.02 111.316 1155.32 M120.621 1140.67 Q123.77 1140.67 125.598 1138.52 Q127.45 1136.36 127.45 1132.61 Q127.45 1128.89 125.598 1126.74 Q123.77 1124.56 120.621 1124.56 Q117.473 1124.56 115.621 1126.74 Q113.793 1128.89 113.793 1132.61 Q113.793 1136.36 115.621 1138.52 Q117.473 1140.67 120.621 1140.67 Z" fill="#9eb1be" fill-rule="nonzero" fill-opacity="1" /><path clip-path="url(#clip780)" d="M141.478 1155.32 L141.478 1151.06 Q143.237 1151.9 145.043 1152.34 Q146.848 1152.78 148.584 1152.78 Q153.214 1152.78 155.644 1149.67 Q158.098 1146.55 158.445 1140.21 Q157.103 1142.2 155.042 1143.26 Q152.982 1144.33 150.482 1144.33 Q145.297 1144.33 142.265 1141.2 Q139.256 1138.05 139.256 1132.61 Q139.256 1127.29 142.404 1124.07 Q145.552 1120.86 150.783 1120.86 Q156.779 1120.86 159.927 1125.46 Q163.098 1130.05 163.098 1138.8 Q163.098 1146.97 159.209 1151.85 Q155.343 1156.71 148.793 1156.71 Q147.033 1156.71 145.228 1156.36 Q143.422 1156.02 141.478 1155.32 M150.783 1140.67 Q153.931 1140.67 155.76 1138.52 Q157.612 1136.36 157.612 1132.61 Q157.612 1128.89 155.76 1126.74 Q153.931 1124.56 150.783 1124.56 Q147.635 1124.56 145.783 1126.74 Q143.955 1128.89 143.955 1132.61 Q143.955 1136.36 145.783 1138.52 Q147.635 1140.67 150.783 1140.67 Z" fill="#9eb1be" fill-rule="nonzero" fill-opacity="1" /><path clip-path="url(#clip780)" d="M181.501 1124.56 Q177.89 1124.56 176.061 1128.12 Q174.255 1131.67 174.255 1138.8 Q174.255 1145.9 176.061 1149.47 Q177.89 1153.01 181.501 1153.01 Q185.135 1153.01 186.94 1149.47 Q188.769 1145.9 188.769 1138.8 Q188.769 1131.67 186.94 1128.12 Q185.135 1124.56 181.501 1124.56 M181.501 1120.86 Q187.311 1120.86 190.366 1125.46 Q193.445 1130.05 193.445 1138.8 Q193.445 1147.52 190.366 1152.13 Q187.311 1156.71 181.501 1156.71 Q175.691 1156.71 172.612 1152.13 Q169.556 1147.52 169.556 1138.8 Q169.556 1130.05 172.612 1125.46 Q175.691 1120.86 181.501 1120.86 Z" fill="#9eb1be" fill-rule="nonzero" fill-opacity="1" /><path clip-path="url(#clip780)" d="M82.1494 898.158 L82.1494 893.898 Q83.9086 894.732 85.7142 895.172 Q87.5197 895.611 89.2558 895.611 Q93.8854 895.611 96.316 892.51 Q98.7696 889.385 99.1169 883.042 Q97.7743 885.033 95.7141 886.098 Q93.6539 887.162 91.1539 887.162 Q85.9688 887.162 82.9364 884.037 Q79.9272 880.889 79.9272 875.449 Q79.9272 870.125 83.0753 866.908 Q86.2234 863.69 91.4549 863.69 Q97.4502 863.69 100.598 868.297 Q103.77 872.88 103.77 881.63 Q103.77 889.801 99.8808 894.685 Q96.015 899.547 89.4641 899.547 Q87.7049 899.547 85.8993 899.199 Q84.0938 898.852 82.1494 898.158 M91.4549 883.505 Q94.603 883.505 96.4317 881.352 Q98.2835 879.199 98.2835 875.449 Q98.2835 871.723 96.4317 869.57 Q94.603 867.394 91.4549 867.394 Q88.3067 867.394 86.4549 869.57 Q84.6262 871.723 84.6262 875.449 Q84.6262 879.199 86.4549 881.352 Q88.3067 883.505 91.4549 883.505 Z" fill="#9eb1be" fill-rule="nonzero" fill-opacity="1" /><path clip-path="url(#clip780)" d="M112.311 898.158 L112.311 893.898 Q114.07 894.732 115.876 895.172 Q117.682 895.611 119.418 895.611 Q124.047 895.611 126.478 892.51 Q128.932 889.385 129.279 883.042 Q127.936 885.033 125.876 886.098 Q123.816 887.162 121.316 887.162 Q116.131 887.162 113.098 884.037 Q110.089 880.889 110.089 875.449 Q110.089 870.125 113.237 866.908 Q116.385 863.69 121.617 863.69 Q127.612 863.69 130.76 868.297 Q133.931 872.88 133.931 881.63 Q133.931 889.801 130.043 894.685 Q126.177 899.547 119.626 899.547 Q117.867 899.547 116.061 899.199 Q114.256 898.852 112.311 898.158 M121.617 883.505 Q124.765 883.505 126.594 881.352 Q128.445 879.199 128.445 875.449 Q128.445 871.723 126.594 869.57 Q124.765 867.394 121.617 867.394 Q118.469 867.394 116.617 869.57 Q114.788 871.723 114.788 875.449 Q114.788 879.199 116.617 881.352 Q118.469 883.505 121.617 883.505 Z" fill="#9eb1be" fill-rule="nonzero" fill-opacity="1" /><path clip-path="url(#clip780)" d="M142.473 898.158 L142.473 893.898 Q144.232 894.732 146.038 895.172 Q147.843 895.611 149.58 895.611 Q154.209 895.611 156.64 892.51 Q159.093 889.385 159.441 883.042 Q158.098 885.033 156.038 886.098 Q153.978 887.162 151.478 887.162 Q146.293 887.162 143.26 884.037 Q140.251 880.889 140.251 875.449 Q140.251 870.125 143.399 866.908 Q146.547 863.69 151.779 863.69 Q157.774 863.69 160.922 868.297 Q164.093 872.88 164.093 881.63 Q164.093 889.801 160.205 894.685 Q156.339 899.547 149.788 899.547 Q148.029 899.547 146.223 899.199 Q144.418 898.852 142.473 898.158 M151.779 883.505 Q154.927 883.505 156.755 881.352 Q158.607 879.199 158.607 875.449 Q158.607 871.723 156.755 869.57 Q154.927 867.394 151.779 867.394 Q148.63 867.394 146.779 869.57 Q144.95 871.723 144.95 875.449 Q144.95 879.199 146.779 881.352 Q148.63 883.505 151.779 883.505 Z" fill="#9eb1be" fill-rule="nonzero" fill-opacity="1" /><path clip-path="url(#clip780)" d="M172.542 864.315 L190.899 864.315 L190.899 868.25 L176.825 868.25 L176.825 876.723 Q177.843 876.375 178.862 876.213 Q179.88 876.028 180.899 876.028 Q186.686 876.028 190.065 879.199 Q193.445 882.371 193.445 887.787 Q193.445 893.366 189.973 896.468 Q186.501 899.547 180.181 899.547 Q178.005 899.547 175.737 899.176 Q173.491 898.806 171.084 898.065 L171.084 893.366 Q173.167 894.5 175.39 895.056 Q177.612 895.611 180.089 895.611 Q184.093 895.611 186.431 893.505 Q188.769 891.398 188.769 887.787 Q188.769 884.176 186.431 882.07 Q184.093 879.963 180.089 879.963 Q178.214 879.963 176.339 880.38 Q174.487 880.797 172.542 881.676 L172.542 864.315 Z" fill="#9eb1be" fill-rule="nonzero" fill-opacity="1" /><path clip-path="url(#clip780)" d="M51.6634 637.775 L59.3023 637.775 L59.3023 611.409 L50.9921 613.076 L50.9921 608.817 L59.256 607.15 L63.9319 607.15 L63.9319 637.775 L71.5707 637.775 L71.5707 641.71 L51.6634 641.71 L51.6634 637.775 Z" fill="#9eb1be" fill-rule="nonzero" fill-opacity="1" /><path clip-path="url(#clip780)" d="M91.0151 610.229 Q87.404 610.229 85.5753 613.793 Q83.7697 617.335 83.7697 624.465 Q83.7697 631.571 85.5753 635.136 Q87.404 638.678 91.0151 638.678 Q94.6493 638.678 96.4548 635.136 Q98.2835 631.571 98.2835 624.465 Q98.2835 617.335 96.4548 613.793 Q94.6493 610.229 91.0151 610.229 M91.0151 606.525 Q96.8252 606.525 99.8808 611.131 Q102.959 615.715 102.959 624.465 Q102.959 633.192 99.8808 637.798 Q96.8252 642.381 91.0151 642.381 Q85.2049 642.381 82.1262 637.798 Q79.0707 633.192 79.0707 624.465 Q79.0707 615.715 82.1262 611.131 Q85.2049 606.525 91.0151 606.525 Z" fill="#9eb1be" fill-rule="nonzero" fill-opacity="1" /><path clip-path="url(#clip780)" d="M121.177 610.229 Q117.566 610.229 115.737 613.793 Q113.932 617.335 113.932 624.465 Q113.932 631.571 115.737 635.136 Q117.566 638.678 121.177 638.678 Q124.811 638.678 126.617 635.136 Q128.445 631.571 128.445 624.465 Q128.445 617.335 126.617 613.793 Q124.811 610.229 121.177 610.229 M121.177 606.525 Q126.987 606.525 130.043 611.131 Q133.121 615.715 133.121 624.465 Q133.121 633.192 130.043 637.798 Q126.987 642.381 121.177 642.381 Q115.367 642.381 112.288 637.798 Q109.233 633.192 109.233 624.465 Q109.233 615.715 112.288 611.131 Q115.367 606.525 121.177 606.525 Z" fill="#9eb1be" fill-rule="nonzero" fill-opacity="1" /><path clip-path="url(#clip780)" d="M151.339 610.229 Q147.728 610.229 145.899 613.793 Q144.093 617.335 144.093 624.465 Q144.093 631.571 145.899 635.136 Q147.728 638.678 151.339 638.678 Q154.973 638.678 156.779 635.136 Q158.607 631.571 158.607 624.465 Q158.607 617.335 156.779 613.793 Q154.973 610.229 151.339 610.229 M151.339 606.525 Q157.149 606.525 160.205 611.131 Q163.283 615.715 163.283 624.465 Q163.283 633.192 160.205 637.798 Q157.149 642.381 151.339 642.381 Q145.529 642.381 142.45 637.798 Q139.394 633.192 139.394 624.465 Q139.394 615.715 142.45 611.131 Q145.529 606.525 151.339 606.525 Z" fill="#9eb1be" fill-rule="nonzero" fill-opacity="1" /><path clip-path="url(#clip780)" d="M181.501 610.229 Q177.89 610.229 176.061 613.793 Q174.255 617.335 174.255 624.465 Q174.255 631.571 176.061 635.136 Q177.89 638.678 181.501 638.678 Q185.135 638.678 186.94 635.136 Q188.769 631.571 188.769 624.465 Q188.769 617.335 186.94 613.793 Q185.135 610.229 181.501 610.229 M181.501 606.525 Q187.311 606.525 190.366 611.131 Q193.445 615.715 193.445 624.465 Q193.445 633.192 190.366 637.798 Q187.311 642.381 181.501 642.381 Q175.691 642.381 172.612 637.798 Q169.556 633.192 169.556 624.465 Q169.556 615.715 172.612 611.131 Q175.691 606.525 181.501 606.525 Z" fill="#9eb1be" fill-rule="nonzero" fill-opacity="1" /><path clip-path="url(#clip780)" d="M52.6588 380.61 L60.2976 380.61 L60.2976 354.244 L51.9875 355.911 L51.9875 351.651 L60.2513 349.985 L64.9272 349.985 L64.9272 380.61 L72.5661 380.61 L72.5661 384.545 L52.6588 384.545 L52.6588 380.61 Z" fill="#9eb1be" fill-rule="nonzero" fill-opacity="1" /><path clip-path="url(#clip780)" d="M92.0104 353.063 Q88.3993 353.063 86.5706 356.628 Q84.7651 360.17 84.7651 367.299 Q84.7651 374.406 86.5706 377.971 Q88.3993 381.512 92.0104 381.512 Q95.6447 381.512 97.4502 377.971 Q99.2789 374.406 99.2789 367.299 Q99.2789 360.17 97.4502 356.628 Q95.6447 353.063 92.0104 353.063 M92.0104 349.36 Q97.8206 349.36 100.876 353.966 Q103.955 358.55 103.955 367.299 Q103.955 376.026 100.876 380.633 Q97.8206 385.216 92.0104 385.216 Q86.2003 385.216 83.1216 380.633 Q80.066 376.026 80.066 367.299 Q80.066 358.55 83.1216 353.966 Q86.2003 349.36 92.0104 349.36 Z" fill="#9eb1be" fill-rule="nonzero" fill-opacity="1" /><path clip-path="url(#clip780)" d="M122.172 353.063 Q118.561 353.063 116.733 356.628 Q114.927 360.17 114.927 367.299 Q114.927 374.406 116.733 377.971 Q118.561 381.512 122.172 381.512 Q125.807 381.512 127.612 377.971 Q129.441 374.406 129.441 367.299 Q129.441 360.17 127.612 356.628 Q125.807 353.063 122.172 353.063 M122.172 349.36 Q127.982 349.36 131.038 353.966 Q134.117 358.55 134.117 367.299 Q134.117 376.026 131.038 380.633 Q127.982 385.216 122.172 385.216 Q116.362 385.216 113.283 380.633 Q110.228 376.026 110.228 367.299 Q110.228 358.55 113.283 353.966 Q116.362 349.36 122.172 349.36 Z" fill="#9eb1be" fill-rule="nonzero" fill-opacity="1" /><path clip-path="url(#clip780)" d="M152.334 353.063 Q148.723 353.063 146.894 356.628 Q145.089 360.17 145.089 367.299 Q145.089 374.406 146.894 377.971 Q148.723 381.512 152.334 381.512 Q155.968 381.512 157.774 377.971 Q159.603 374.406 159.603 367.299 Q159.603 360.17 157.774 356.628 Q155.968 353.063 152.334 353.063 M152.334 349.36 Q158.144 349.36 161.2 353.966 Q164.279 358.55 164.279 367.299 Q164.279 376.026 161.2 380.633 Q158.144 385.216 152.334 385.216 Q146.524 385.216 143.445 380.633 Q140.39 376.026 140.39 367.299 Q140.39 358.55 143.445 353.966 Q146.524 349.36 152.334 349.36 Z" fill="#9eb1be" fill-rule="nonzero" fill-opacity="1" /><path clip-path="url(#clip780)" d="M172.542 349.985 L190.899 349.985 L190.899 353.92 L176.825 353.92 L176.825 362.392 Q177.843 362.045 178.862 361.883 Q179.88 361.698 180.899 361.698 Q186.686 361.698 190.065 364.869 Q193.445 368.04 193.445 373.457 Q193.445 379.036 189.973 382.137 Q186.501 385.216 180.181 385.216 Q178.005 385.216 175.737 384.846 Q173.491 384.475 171.084 383.735 L171.084 379.036 Q173.167 380.17 175.39 380.725 Q177.612 381.281 180.089 381.281 Q184.093 381.281 186.431 379.174 Q188.769 377.068 188.769 373.457 Q188.769 369.846 186.431 367.739 Q184.093 365.633 180.089 365.633 Q178.214 365.633 176.339 366.049 Q174.487 366.466 172.542 367.346 L172.542 349.985 Z" fill="#9eb1be" fill-rule="nonzero" fill-opacity="1" /><path clip-path="url(#clip780)" d="M1165.24 12.096 L1203.48 12.096 L1203.48 18.9825 L1173.42 18.9825 L1173.42 36.8875 L1202.22 36.8875 L1202.22 43.7741 L1173.42 43.7741 L1173.42 65.6895 L1204.21 65.6895 L1204.21 72.576 L1165.24 72.576 L1165.24 12.096 Z" fill="#adb2b7" fill-rule="nonzero" fill-opacity="1" /><path clip-path="url(#clip780)" d="M1221.79 49.9314 Q1221.79 58.1548 1225.15 62.8538 Q1228.55 67.5124 1234.47 67.5124 Q1240.38 67.5124 1243.79 62.8538 Q1247.19 58.1548 1247.19 49.9314 Q1247.19 41.7081 1243.79 37.0496 Q1240.38 32.3505 1234.47 32.3505 Q1228.55 32.3505 1225.15 37.0496 Q1221.79 41.7081 1221.79 49.9314 M1247.19 65.7705 Q1244.84 69.8214 1241.23 71.8063 Q1237.67 73.7508 1232.65 73.7508 Q1224.42 73.7508 1219.24 67.1883 Q1214.09 60.6258 1214.09 49.9314 Q1214.09 39.2371 1219.24 32.6746 Q1224.42 26.1121 1232.65 26.1121 Q1237.67 26.1121 1241.23 28.0971 Q1244.84 30.0415 1247.19 34.0924 L1247.19 27.2059 L1254.64 27.2059 L1254.64 89.8329 L1247.19 89.8329 L1247.19 65.7705 Z" fill="#adb2b7" fill-rule="nonzero" fill-opacity="1" /><path clip-path="url(#clip780)" d="M1269.23 54.671 L1269.23 27.2059 L1276.68 27.2059 L1276.68 54.3874 Q1276.68 60.8284 1279.19 64.0691 Q1281.7 67.2693 1286.73 67.2693 Q1292.76 67.2693 1296.25 63.421 Q1299.77 59.5726 1299.77 52.9291 L1299.77 27.2059 L1307.22 27.2059 L1307.22 72.576 L1299.77 72.576 L1299.77 65.6084 Q1297.06 69.7404 1293.45 71.7658 Q1289.89 73.7508 1285.15 73.7508 Q1277.33 73.7508 1273.28 68.8897 Q1269.23 64.0286 1269.23 54.671 M1287.98 26.1121 L1287.98 26.1121 Z" fill="#adb2b7" fill-rule="nonzero" fill-opacity="1" /><path clip-path="url(#clip780)" d="M1322.58 27.2059 L1330.03 27.2059 L1330.03 72.576 L1322.58 72.576 L1322.58 27.2059 M1322.58 9.54393 L1330.03 9.54393 L1330.03 18.9825 L1322.58 18.9825 L1322.58 9.54393 Z" fill="#adb2b7" fill-rule="nonzero" fill-opacity="1" /><path clip-path="url(#clip780)" d="M1353 14.324 L1353 27.2059 L1368.35 27.2059 L1368.35 32.9987 L1353 32.9987 L1353 57.6282 Q1353 63.1779 1354.5 64.7578 Q1356.04 66.3376 1360.7 66.3376 L1368.35 66.3376 L1368.35 72.576 L1360.7 72.576 Q1352.07 72.576 1348.79 69.3758 Q1345.5 66.1351 1345.5 57.6282 L1345.5 32.9987 L1340.04 32.9987 L1340.04 27.2059 L1345.5 27.2059 L1345.5 14.324 L1353 14.324 Z" fill="#adb2b7" fill-rule="nonzero" fill-opacity="1" /><path clip-path="url(#clip780)" d="M1397.03 76.7889 Q1393.87 84.8907 1390.87 87.3618 Q1387.88 89.8329 1382.85 89.8329 L1376.9 89.8329 L1376.9 83.5945 L1381.27 83.5945 Q1384.35 83.5945 1386.05 82.1361 Q1387.76 80.6778 1389.82 75.2496 L1391.16 71.8468 L1372.81 27.2059 L1380.71 27.2059 L1394.88 62.6918 L1409.06 27.2059 L1416.96 27.2059 L1397.03 76.7889 Z" fill="#adb2b7" fill-rule="nonzero" fill-opacity="1" /><polyline clip-path="url(#clip781)" style="stroke:#bbbb00; stroke-linecap:round; stroke-linejoin:round; stroke-width:4; stroke-opacity:1; fill:none" points="289.539,624.43 690.163,624.43 690.163,676.377 1090.79,676.377 1090.79,1447.87 1491.41,1447.87 1491.41,162.047 1892.04,162.047 1892.04,728.325 2292.66,728.325 "/>
</svg>
