<?xml version="1.0" encoding="utf-8"?>
<svg xmlns="http://www.w3.org/2000/svg" xmlns:xlink="http://www.w3.org/1999/xlink" width="800" height="450" viewBox="0 0 3200 1800">
<defs>
  <clipPath id="clip240">
    <rect x="0" y="0" width="3200" height="1800"/>
  </clipPath>
</defs>
<path clip-path="url(#clip240)" d="M0 1800 L3200 1800 L3200 0 L0 0  Z" fill="#282c34" fill-rule="evenodd" fill-opacity="1"/>
<defs>
  <clipPath id="clip241">
    <rect x="237" y="99" width="2916" height="1591"/>
  </clipPath>
</defs>
<path clip-path="url(#clip240)" d="M237.445 1689.85 L3152.76 1689.85 L3152.76 99.4421 L237.445 99.4421  Z" fill="#21252b" fill-rule="evenodd" fill-opacity="1"/>
<polyline clip-path="url(#clip241)" style="stroke:#adb2b7; stroke-linecap:round; stroke-linejoin:round; stroke-width:2; stroke-opacity:0.1; fill:none" points="319.954,1689.85 319.954,99.4421 "/>
<polyline clip-path="url(#clip241)" style="stroke:#adb2b7; stroke-linecap:round; stroke-linejoin:round; stroke-width:2; stroke-opacity:0.1; fill:none" points="870.013,1689.85 870.013,99.4421 "/>
<polyline clip-path="url(#clip241)" style="stroke:#adb2b7; stroke-linecap:round; stroke-linejoin:round; stroke-width:2; stroke-opacity:0.1; fill:none" points="1420.07,1689.85 1420.07,99.4421 "/>
<polyline clip-path="url(#clip241)" style="stroke:#adb2b7; stroke-linecap:round; stroke-linejoin:round; stroke-width:2; stroke-opacity:0.1; fill:none" points="1970.13,1689.85 1970.13,99.4421 "/>
<polyline clip-path="url(#clip241)" style="stroke:#adb2b7; stroke-linecap:round; stroke-linejoin:round; stroke-width:2; stroke-opacity:0.1; fill:none" points="2520.19,1689.85 2520.19,99.4421 "/>
<polyline clip-path="url(#clip241)" style="stroke:#adb2b7; stroke-linecap:round; stroke-linejoin:round; stroke-width:2; stroke-opacity:0.1; fill:none" points="3070.25,1689.85 3070.25,99.4421 "/>
<polyline clip-path="url(#clip241)" style="stroke:#adb2b7; stroke-linecap:round; stroke-linejoin:round; stroke-width:2; stroke-opacity:0.1; fill:none" points="237.445,1584.22 3152.76,1584.22 "/>
<polyline clip-path="url(#clip241)" style="stroke:#adb2b7; stroke-linecap:round; stroke-linejoin:round; stroke-width:2; stroke-opacity:0.1; fill:none" points="237.445,1284.14 3152.76,1284.14 "/>
<polyline clip-path="url(#clip241)" style="stroke:#adb2b7; stroke-linecap:round; stroke-linejoin:round; stroke-width:2; stroke-opacity:0.1; fill:none" points="237.445,984.068 3152.76,984.068 "/>
<polyline clip-path="url(#clip241)" style="stroke:#adb2b7; stroke-linecap:round; stroke-linejoin:round; stroke-width:2; stroke-opacity:0.1; fill:none" points="237.445,683.991 3152.76,683.991 "/>
<polyline clip-path="url(#clip241)" style="stroke:#adb2b7; stroke-linecap:round; stroke-linejoin:round; stroke-width:2; stroke-opacity:0.1; fill:none" points="237.445,383.915 3152.76,383.915 "/>
<polyline clip-path="url(#clip240)" style="stroke:#adb2b7; stroke-linecap:round; stroke-linejoin:round; stroke-width:4; stroke-opacity:1; fill:none" points="237.445,1689.85 3152.76,1689.85 "/>
<polyline clip-path="url(#clip240)" style="stroke:#adb2b7; stroke-linecap:round; stroke-linejoin:round; stroke-width:4; stroke-opacity:1; fill:none" points="319.954,1689.85 319.954,1670.95 "/>
<polyline clip-path="url(#clip240)" style="stroke:#adb2b7; stroke-linecap:round; stroke-linejoin:round; stroke-width:4; stroke-opacity:1; fill:none" points="870.013,1689.85 870.013,1670.95 "/>
<polyline clip-path="url(#clip240)" style="stroke:#adb2b7; stroke-linecap:round; stroke-linejoin:round; stroke-width:4; stroke-opacity:1; fill:none" points="1420.07,1689.85 1420.07,1670.95 "/>
<polyline clip-path="url(#clip240)" style="stroke:#adb2b7; stroke-linecap:round; stroke-linejoin:round; stroke-width:4; stroke-opacity:1; fill:none" points="1970.13,1689.85 1970.13,1670.95 "/>
<polyline clip-path="url(#clip240)" style="stroke:#adb2b7; stroke-linecap:round; stroke-linejoin:round; stroke-width:4; stroke-opacity:1; fill:none" points="2520.19,1689.85 2520.19,1670.95 "/>
<polyline clip-path="url(#clip240)" style="stroke:#adb2b7; stroke-linecap:round; stroke-linejoin:round; stroke-width:4; stroke-opacity:1; fill:none" points="3070.25,1689.85 3070.25,1670.95 "/>
<path clip-path="url(#clip240)" d="M70.1983 1754.71 L86.5176 1754.71 L86.5176 1758.65 L64.5733 1758.65 L64.5733 1754.71 Q67.2353 1751.96 71.8186 1747.33 Q76.4251 1742.68 77.6056 1741.33 Q79.851 1738.81 80.7306 1737.07 Q81.6334 1735.31 81.6334 1733.62 Q81.6334 1730.87 79.6889 1729.13 Q77.7677 1727.4 74.6658 1727.4 Q72.4668 1727.4 70.0131 1728.16 Q67.5825 1728.93 64.8048 1730.48 L64.8048 1725.75 Q67.6288 1724.62 70.0825 1724.04 Q72.5362 1723.46 74.5732 1723.46 Q79.9436 1723.46 83.138 1726.15 Q86.3324 1728.83 86.3324 1733.32 Q86.3324 1735.45 85.5223 1737.37 Q84.7352 1739.27 82.6287 1741.87 Q82.05 1742.54 78.9482 1745.75 Q75.8464 1748.95 70.1983 1754.71 Z" fill="#9eb1be" fill-rule="nonzero" fill-opacity="1" /><path clip-path="url(#clip240)" d="M106.332 1727.17 Q102.721 1727.17 100.893 1730.73 Q99.087 1734.27 99.087 1741.4 Q99.087 1748.51 100.893 1752.07 Q102.721 1755.62 106.332 1755.62 Q109.967 1755.62 111.772 1752.07 Q113.601 1748.51 113.601 1741.4 Q113.601 1734.27 111.772 1730.73 Q109.967 1727.17 106.332 1727.17 M106.332 1723.46 Q112.142 1723.46 115.198 1728.07 Q118.277 1732.65 118.277 1741.4 Q118.277 1750.13 115.198 1754.74 Q112.142 1759.32 106.332 1759.32 Q100.522 1759.32 97.4435 1754.74 Q94.3879 1750.13 94.3879 1741.4 Q94.3879 1732.65 97.4435 1728.07 Q100.522 1723.46 106.332 1723.46 Z" fill="#9eb1be" fill-rule="nonzero" fill-opacity="1" /><path clip-path="url(#clip240)" d="M130.522 1754.71 L146.841 1754.71 L146.841 1758.65 L124.897 1758.65 L124.897 1754.71 Q127.559 1751.96 132.142 1747.33 Q136.749 1742.68 137.929 1741.33 Q140.175 1738.81 141.054 1737.07 Q141.957 1735.31 141.957 1733.62 Q141.957 1730.87 140.013 1729.13 Q138.091 1727.4 134.99 1727.4 Q132.791 1727.4 130.337 1728.16 Q127.906 1728.93 125.129 1730.48 L125.129 1725.75 Q127.953 1724.62 130.406 1724.04 Q132.86 1723.46 134.897 1723.46 Q140.267 1723.46 143.462 1726.15 Q146.656 1728.83 146.656 1733.32 Q146.656 1735.45 145.846 1737.37 Q145.059 1739.27 142.952 1741.87 Q142.374 1742.54 139.272 1745.75 Q136.17 1748.95 130.522 1754.71 Z" fill="#9eb1be" fill-rule="nonzero" fill-opacity="1" /><path clip-path="url(#clip240)" d="M169.503 1728.16 L157.698 1746.61 L169.503 1746.61 L169.503 1728.16 M168.276 1724.09 L174.156 1724.09 L174.156 1746.61 L179.087 1746.61 L179.087 1750.5 L174.156 1750.5 L174.156 1758.65 L169.503 1758.65 L169.503 1750.5 L153.902 1750.5 L153.902 1745.99 L168.276 1724.09 Z" fill="#9eb1be" fill-rule="nonzero" fill-opacity="1" /><path clip-path="url(#clip240)" d="M184.063 1743.76 L196.54 1743.76 L196.54 1747.56 L184.063 1747.56 L184.063 1743.76 Z" fill="#9eb1be" fill-rule="nonzero" fill-opacity="1" /><path clip-path="url(#clip240)" d="M213.924 1727.17 Q210.313 1727.17 208.485 1730.73 Q206.679 1734.27 206.679 1741.4 Q206.679 1748.51 208.485 1752.07 Q210.313 1755.62 213.924 1755.62 Q217.559 1755.62 219.364 1752.07 Q221.193 1748.51 221.193 1741.4 Q221.193 1734.27 219.364 1730.73 Q217.559 1727.17 213.924 1727.17 M213.924 1723.46 Q219.734 1723.46 222.79 1728.07 Q225.869 1732.65 225.869 1741.4 Q225.869 1750.13 222.79 1754.74 Q219.734 1759.32 213.924 1759.32 Q208.114 1759.32 205.035 1754.74 Q201.98 1750.13 201.98 1741.4 Q201.98 1732.65 205.035 1728.07 Q208.114 1723.46 213.924 1723.46 Z" fill="#9eb1be" fill-rule="nonzero" fill-opacity="1" /><path clip-path="url(#clip240)" d="M234.896 1754.71 L242.535 1754.71 L242.535 1728.35 L234.225 1730.01 L234.225 1725.75 L242.489 1724.09 L247.165 1724.09 L247.165 1754.71 L254.804 1754.71 L254.804 1758.65 L234.896 1758.65 L234.896 1754.71 Z" fill="#9eb1be" fill-rule="nonzero" fill-opacity="1" /><path clip-path="url(#clip240)" d="M261.494 1743.76 L273.97 1743.76 L273.97 1747.56 L261.494 1747.56 L261.494 1743.76 Z" fill="#9eb1be" fill-rule="nonzero" fill-opacity="1" /><path clip-path="url(#clip240)" d="M291.354 1727.17 Q287.743 1727.17 285.915 1730.73 Q284.109 1734.27 284.109 1741.4 Q284.109 1748.51 285.915 1752.07 Q287.743 1755.62 291.354 1755.62 Q294.989 1755.62 296.794 1752.07 Q298.623 1748.51 298.623 1741.4 Q298.623 1734.27 296.794 1730.73 Q294.989 1727.17 291.354 1727.17 M291.354 1723.46 Q297.165 1723.46 300.22 1728.07 Q303.299 1732.65 303.299 1741.4 Q303.299 1750.13 300.22 1754.74 Q297.165 1759.32 291.354 1759.32 Q285.544 1759.32 282.466 1754.74 Q279.41 1750.13 279.41 1741.4 Q279.41 1732.65 282.466 1728.07 Q285.544 1723.46 291.354 1723.46 Z" fill="#9eb1be" fill-rule="nonzero" fill-opacity="1" /><path clip-path="url(#clip240)" d="M312.327 1754.71 L319.965 1754.71 L319.965 1728.35 L311.655 1730.01 L311.655 1725.75 L319.919 1724.09 L324.595 1724.09 L324.595 1754.71 L332.234 1754.71 L332.234 1758.65 L312.327 1758.65 L312.327 1754.71 Z" fill="#9eb1be" fill-rule="nonzero" fill-opacity="1" /><path clip-path="url(#clip240)" d="M336.47 1724.09 L365.706 1724.09 L365.706 1728.02 L353.437 1728.02 L353.437 1758.65 L348.738 1758.65 L348.738 1728.02 L336.47 1728.02 L336.47 1724.09 Z" fill="#9eb1be" fill-rule="nonzero" fill-opacity="1" /><path clip-path="url(#clip240)" d="M380.636 1727.17 Q377.025 1727.17 375.197 1730.73 Q373.391 1734.27 373.391 1741.4 Q373.391 1748.51 375.197 1752.07 Q377.025 1755.62 380.636 1755.62 Q384.271 1755.62 386.076 1752.07 Q387.905 1748.51 387.905 1741.4 Q387.905 1734.27 386.076 1730.73 Q384.271 1727.17 380.636 1727.17 M380.636 1723.46 Q386.447 1723.46 389.502 1728.07 Q392.581 1732.65 392.581 1741.4 Q392.581 1750.13 389.502 1754.74 Q386.447 1759.32 380.636 1759.32 Q374.826 1759.32 371.748 1754.74 Q368.692 1750.13 368.692 1741.4 Q368.692 1732.65 371.748 1728.07 Q374.826 1723.46 380.636 1723.46 Z" fill="#9eb1be" fill-rule="nonzero" fill-opacity="1" /><path clip-path="url(#clip240)" d="M410.798 1727.17 Q407.187 1727.17 405.358 1730.73 Q403.553 1734.27 403.553 1741.4 Q403.553 1748.51 405.358 1752.07 Q407.187 1755.62 410.798 1755.62 Q414.433 1755.62 416.238 1752.07 Q418.067 1748.51 418.067 1741.4 Q418.067 1734.27 416.238 1730.73 Q414.433 1727.17 410.798 1727.17 M410.798 1723.46 Q416.608 1723.46 419.664 1728.07 Q422.743 1732.65 422.743 1741.4 Q422.743 1750.13 419.664 1754.74 Q416.608 1759.32 410.798 1759.32 Q404.988 1759.32 401.909 1754.74 Q398.854 1750.13 398.854 1741.4 Q398.854 1732.65 401.909 1728.07 Q404.988 1723.46 410.798 1723.46 Z" fill="#9eb1be" fill-rule="nonzero" fill-opacity="1" /><path clip-path="url(#clip240)" d="M431.446 1752.77 L436.331 1752.77 L436.331 1758.65 L431.446 1758.65 L431.446 1752.77 M431.446 1734.13 L436.331 1734.13 L436.331 1740.01 L431.446 1740.01 L431.446 1734.13 Z" fill="#9eb1be" fill-rule="nonzero" fill-opacity="1" /><path clip-path="url(#clip240)" d="M456.932 1727.17 Q453.321 1727.17 451.493 1730.73 Q449.687 1734.27 449.687 1741.4 Q449.687 1748.51 451.493 1752.07 Q453.321 1755.62 456.932 1755.62 Q460.567 1755.62 462.372 1752.07 Q464.201 1748.51 464.201 1741.4 Q464.201 1734.27 462.372 1730.73 Q460.567 1727.17 456.932 1727.17 M456.932 1723.46 Q462.742 1723.46 465.798 1728.07 Q468.877 1732.65 468.877 1741.4 Q468.877 1750.13 465.798 1754.74 Q462.742 1759.32 456.932 1759.32 Q451.122 1759.32 448.043 1754.74 Q444.988 1750.13 444.988 1741.4 Q444.988 1732.65 448.043 1728.07 Q451.122 1723.46 456.932 1723.46 Z" fill="#9eb1be" fill-rule="nonzero" fill-opacity="1" /><path clip-path="url(#clip240)" d="M487.094 1727.17 Q483.483 1727.17 481.654 1730.73 Q479.849 1734.27 479.849 1741.4 Q479.849 1748.51 481.654 1752.07 Q483.483 1755.62 487.094 1755.62 Q490.728 1755.62 492.534 1752.07 Q494.363 1748.51 494.363 1741.4 Q494.363 1734.27 492.534 1730.73 Q490.728 1727.17 487.094 1727.17 M487.094 1723.46 Q492.904 1723.46 495.96 1728.07 Q499.039 1732.65 499.039 1741.4 Q499.039 1750.13 495.96 1754.74 Q492.904 1759.32 487.094 1759.32 Q481.284 1759.32 478.205 1754.74 Q475.15 1750.13 475.15 1741.4 Q475.15 1732.65 478.205 1728.07 Q481.284 1723.46 487.094 1723.46 Z" fill="#9eb1be" fill-rule="nonzero" fill-opacity="1" /><path clip-path="url(#clip240)" d="M507.742 1752.77 L512.626 1752.77 L512.626 1758.65 L507.742 1758.65 L507.742 1752.77 M507.742 1734.13 L512.626 1734.13 L512.626 1740.01 L507.742 1740.01 L507.742 1734.13 Z" fill="#9eb1be" fill-rule="nonzero" fill-opacity="1" /><path clip-path="url(#clip240)" d="M533.228 1727.17 Q529.617 1727.17 527.788 1730.73 Q525.983 1734.27 525.983 1741.4 Q525.983 1748.51 527.788 1752.07 Q529.617 1755.62 533.228 1755.62 Q536.862 1755.62 538.668 1752.07 Q540.497 1748.51 540.497 1741.4 Q540.497 1734.27 538.668 1730.73 Q536.862 1727.17 533.228 1727.17 M533.228 1723.46 Q539.038 1723.46 542.094 1728.07 Q545.173 1732.65 545.173 1741.4 Q545.173 1750.13 542.094 1754.74 Q539.038 1759.32 533.228 1759.32 Q527.418 1759.32 524.339 1754.74 Q521.284 1750.13 521.284 1741.4 Q521.284 1732.65 524.339 1728.07 Q527.418 1723.46 533.228 1723.46 Z" fill="#9eb1be" fill-rule="nonzero" fill-opacity="1" /><path clip-path="url(#clip240)" d="M563.39 1727.17 Q559.779 1727.17 557.95 1730.73 Q556.145 1734.27 556.145 1741.4 Q556.145 1748.51 557.95 1752.07 Q559.779 1755.62 563.39 1755.62 Q567.024 1755.62 568.83 1752.07 Q570.659 1748.51 570.659 1741.4 Q570.659 1734.27 568.83 1730.73 Q567.024 1727.17 563.39 1727.17 M563.39 1723.46 Q569.2 1723.46 572.256 1728.07 Q575.334 1732.65 575.334 1741.4 Q575.334 1750.13 572.256 1754.74 Q569.2 1759.32 563.39 1759.32 Q557.58 1759.32 554.501 1754.74 Q551.446 1750.13 551.446 1741.4 Q551.446 1732.65 554.501 1728.07 Q557.58 1723.46 563.39 1723.46 Z" fill="#9eb1be" fill-rule="nonzero" fill-opacity="1" /><path clip-path="url(#clip240)" d="M620.257 1754.71 L636.576 1754.71 L636.576 1758.65 L614.632 1758.65 L614.632 1754.71 Q617.294 1751.96 621.877 1747.33 Q626.484 1742.68 627.664 1741.33 Q629.91 1738.81 630.789 1737.07 Q631.692 1735.31 631.692 1733.62 Q631.692 1730.87 629.748 1729.13 Q627.826 1727.4 624.724 1727.4 Q622.525 1727.4 620.072 1728.16 Q617.641 1728.93 614.863 1730.48 L614.863 1725.75 Q617.687 1724.62 620.141 1724.04 Q622.595 1723.46 624.632 1723.46 Q630.002 1723.46 633.197 1726.15 Q636.391 1728.83 636.391 1733.32 Q636.391 1735.45 635.581 1737.37 Q634.794 1739.27 632.687 1741.87 Q632.109 1742.54 629.007 1745.75 Q625.905 1748.95 620.257 1754.71 Z" fill="#9eb1be" fill-rule="nonzero" fill-opacity="1" /><path clip-path="url(#clip240)" d="M656.391 1727.17 Q652.78 1727.17 650.951 1730.73 Q649.146 1734.27 649.146 1741.4 Q649.146 1748.51 650.951 1752.07 Q652.78 1755.62 656.391 1755.62 Q660.025 1755.62 661.831 1752.07 Q663.659 1748.51 663.659 1741.4 Q663.659 1734.27 661.831 1730.73 Q660.025 1727.17 656.391 1727.17 M656.391 1723.46 Q662.201 1723.46 665.257 1728.07 Q668.335 1732.65 668.335 1741.4 Q668.335 1750.13 665.257 1754.74 Q662.201 1759.32 656.391 1759.32 Q650.581 1759.32 647.502 1754.74 Q644.447 1750.13 644.447 1741.4 Q644.447 1732.65 647.502 1728.07 Q650.581 1723.46 656.391 1723.46 Z" fill="#9eb1be" fill-rule="nonzero" fill-opacity="1" /><path clip-path="url(#clip240)" d="M680.581 1754.71 L696.9 1754.71 L696.9 1758.65 L674.956 1758.65 L674.956 1754.71 Q677.618 1751.96 682.201 1747.33 Q686.807 1742.68 687.988 1741.33 Q690.233 1738.81 691.113 1737.07 Q692.016 1735.31 692.016 1733.62 Q692.016 1730.87 690.071 1729.13 Q688.15 1727.4 685.048 1727.4 Q682.849 1727.4 680.395 1728.16 Q677.965 1728.93 675.187 1730.48 L675.187 1725.75 Q678.011 1724.62 680.465 1724.04 Q682.919 1723.46 684.956 1723.46 Q690.326 1723.46 693.52 1726.15 Q696.715 1728.83 696.715 1733.32 Q696.715 1735.45 695.905 1737.37 Q695.118 1739.27 693.011 1741.87 Q692.432 1742.54 689.331 1745.75 Q686.229 1748.95 680.581 1754.71 Z" fill="#9eb1be" fill-rule="nonzero" fill-opacity="1" /><path clip-path="url(#clip240)" d="M719.562 1728.16 L707.756 1746.61 L719.562 1746.61 L719.562 1728.16 M718.335 1724.09 L724.215 1724.09 L724.215 1746.61 L729.145 1746.61 L729.145 1750.5 L724.215 1750.5 L724.215 1758.65 L719.562 1758.65 L719.562 1750.5 L703.96 1750.5 L703.96 1745.99 L718.335 1724.09 Z" fill="#9eb1be" fill-rule="nonzero" fill-opacity="1" /><path clip-path="url(#clip240)" d="M734.122 1743.76 L746.599 1743.76 L746.599 1747.56 L734.122 1747.56 L734.122 1743.76 Z" fill="#9eb1be" fill-rule="nonzero" fill-opacity="1" /><path clip-path="url(#clip240)" d="M763.983 1727.17 Q760.372 1727.17 758.543 1730.73 Q756.738 1734.27 756.738 1741.4 Q756.738 1748.51 758.543 1752.07 Q760.372 1755.62 763.983 1755.62 Q767.617 1755.62 769.423 1752.07 Q771.251 1748.51 771.251 1741.4 Q771.251 1734.27 769.423 1730.73 Q767.617 1727.17 763.983 1727.17 M763.983 1723.46 Q769.793 1723.46 772.849 1728.07 Q775.927 1732.65 775.927 1741.4 Q775.927 1750.13 772.849 1754.74 Q769.793 1759.32 763.983 1759.32 Q758.173 1759.32 755.094 1754.74 Q752.039 1750.13 752.039 1741.4 Q752.039 1732.65 755.094 1728.07 Q758.173 1723.46 763.983 1723.46 Z" fill="#9eb1be" fill-rule="nonzero" fill-opacity="1" /><path clip-path="url(#clip240)" d="M784.955 1754.71 L792.594 1754.71 L792.594 1728.35 L784.284 1730.01 L784.284 1725.75 L792.548 1724.09 L797.224 1724.09 L797.224 1754.71 L804.862 1754.71 L804.862 1758.65 L784.955 1758.65 L784.955 1754.71 Z" fill="#9eb1be" fill-rule="nonzero" fill-opacity="1" /><path clip-path="url(#clip240)" d="M811.552 1743.76 L824.029 1743.76 L824.029 1747.56 L811.552 1747.56 L811.552 1743.76 Z" fill="#9eb1be" fill-rule="nonzero" fill-opacity="1" /><path clip-path="url(#clip240)" d="M841.413 1727.17 Q837.802 1727.17 835.973 1730.73 Q834.168 1734.27 834.168 1741.4 Q834.168 1748.51 835.973 1752.07 Q837.802 1755.62 841.413 1755.62 Q845.047 1755.62 846.853 1752.07 Q848.682 1748.51 848.682 1741.4 Q848.682 1734.27 846.853 1730.73 Q845.047 1727.17 841.413 1727.17 M841.413 1723.46 Q847.223 1723.46 850.279 1728.07 Q853.358 1732.65 853.358 1741.4 Q853.358 1750.13 850.279 1754.74 Q847.223 1759.32 841.413 1759.32 Q835.603 1759.32 832.524 1754.74 Q829.469 1750.13 829.469 1741.4 Q829.469 1732.65 832.524 1728.07 Q835.603 1723.46 841.413 1723.46 Z" fill="#9eb1be" fill-rule="nonzero" fill-opacity="1" /><path clip-path="url(#clip240)" d="M862.385 1754.71 L870.024 1754.71 L870.024 1728.35 L861.714 1730.01 L861.714 1725.75 L869.978 1724.09 L874.654 1724.09 L874.654 1754.71 L882.293 1754.71 L882.293 1758.65 L862.385 1758.65 L862.385 1754.71 Z" fill="#9eb1be" fill-rule="nonzero" fill-opacity="1" /><path clip-path="url(#clip240)" d="M886.529 1724.09 L915.765 1724.09 L915.765 1728.02 L903.496 1728.02 L903.496 1758.65 L898.797 1758.65 L898.797 1728.02 L886.529 1728.02 L886.529 1724.09 Z" fill="#9eb1be" fill-rule="nonzero" fill-opacity="1" /><path clip-path="url(#clip240)" d="M930.695 1727.17 Q927.084 1727.17 925.255 1730.73 Q923.45 1734.27 923.45 1741.4 Q923.45 1748.51 925.255 1752.07 Q927.084 1755.62 930.695 1755.62 Q934.329 1755.62 936.135 1752.07 Q937.964 1748.51 937.964 1741.4 Q937.964 1734.27 936.135 1730.73 Q934.329 1727.17 930.695 1727.17 M930.695 1723.46 Q936.505 1723.46 939.561 1728.07 Q942.639 1732.65 942.639 1741.4 Q942.639 1750.13 939.561 1754.74 Q936.505 1759.32 930.695 1759.32 Q924.885 1759.32 921.806 1754.74 Q918.751 1750.13 918.751 1741.4 Q918.751 1732.65 921.806 1728.07 Q924.885 1723.46 930.695 1723.46 Z" fill="#9eb1be" fill-rule="nonzero" fill-opacity="1" /><path clip-path="url(#clip240)" d="M951.667 1754.71 L959.306 1754.71 L959.306 1728.35 L950.996 1730.01 L950.996 1725.75 L959.26 1724.09 L963.936 1724.09 L963.936 1754.71 L971.574 1754.71 L971.574 1758.65 L951.667 1758.65 L951.667 1754.71 Z" fill="#9eb1be" fill-rule="nonzero" fill-opacity="1" /><path clip-path="url(#clip240)" d="M981.505 1752.77 L986.389 1752.77 L986.389 1758.65 L981.505 1758.65 L981.505 1752.77 M981.505 1734.13 L986.389 1734.13 L986.389 1740.01 L981.505 1740.01 L981.505 1734.13 Z" fill="#9eb1be" fill-rule="nonzero" fill-opacity="1" /><path clip-path="url(#clip240)" d="M1006.99 1727.17 Q1003.38 1727.17 1001.55 1730.73 Q999.746 1734.27 999.746 1741.4 Q999.746 1748.51 1001.55 1752.07 Q1003.38 1755.62 1006.99 1755.62 Q1010.63 1755.62 1012.43 1752.07 Q1014.26 1748.51 1014.26 1741.4 Q1014.26 1734.27 1012.43 1730.73 Q1010.63 1727.17 1006.99 1727.17 M1006.99 1723.46 Q1012.8 1723.46 1015.86 1728.07 Q1018.94 1732.65 1018.94 1741.4 Q1018.94 1750.13 1015.86 1754.74 Q1012.8 1759.32 1006.99 1759.32 Q1001.18 1759.32 998.102 1754.74 Q995.047 1750.13 995.047 1741.4 Q995.047 1732.65 998.102 1728.07 Q1001.18 1723.46 1006.99 1723.46 Z" fill="#9eb1be" fill-rule="nonzero" fill-opacity="1" /><path clip-path="url(#clip240)" d="M1037.15 1727.17 Q1033.54 1727.17 1031.71 1730.73 Q1029.91 1734.27 1029.91 1741.4 Q1029.91 1748.51 1031.71 1752.07 Q1033.54 1755.62 1037.15 1755.62 Q1040.79 1755.62 1042.59 1752.07 Q1044.42 1748.51 1044.42 1741.4 Q1044.42 1734.27 1042.59 1730.73 Q1040.79 1727.17 1037.15 1727.17 M1037.15 1723.46 Q1042.96 1723.46 1046.02 1728.07 Q1049.1 1732.65 1049.1 1741.4 Q1049.1 1750.13 1046.02 1754.74 Q1042.96 1759.32 1037.15 1759.32 Q1031.34 1759.32 1028.26 1754.74 Q1025.21 1750.13 1025.21 1741.4 Q1025.21 1732.65 1028.26 1728.07 Q1031.34 1723.46 1037.15 1723.46 Z" fill="#9eb1be" fill-rule="nonzero" fill-opacity="1" /><path clip-path="url(#clip240)" d="M1057.8 1752.77 L1062.69 1752.77 L1062.69 1758.65 L1057.8 1758.65 L1057.8 1752.77 M1057.8 1734.13 L1062.69 1734.13 L1062.69 1740.01 L1057.8 1740.01 L1057.8 1734.13 Z" fill="#9eb1be" fill-rule="nonzero" fill-opacity="1" /><path clip-path="url(#clip240)" d="M1083.29 1727.17 Q1079.68 1727.17 1077.85 1730.73 Q1076.04 1734.27 1076.04 1741.4 Q1076.04 1748.51 1077.85 1752.07 Q1079.68 1755.62 1083.29 1755.62 Q1086.92 1755.62 1088.73 1752.07 Q1090.56 1748.51 1090.56 1741.4 Q1090.56 1734.27 1088.73 1730.73 Q1086.92 1727.17 1083.29 1727.17 M1083.29 1723.46 Q1089.1 1723.46 1092.15 1728.07 Q1095.23 1732.65 1095.23 1741.4 Q1095.23 1750.13 1092.15 1754.74 Q1089.1 1759.32 1083.29 1759.32 Q1077.48 1759.32 1074.4 1754.74 Q1071.34 1750.13 1071.34 1741.4 Q1071.34 1732.65 1074.4 1728.07 Q1077.48 1723.46 1083.29 1723.46 Z" fill="#9eb1be" fill-rule="nonzero" fill-opacity="1" /><path clip-path="url(#clip240)" d="M1113.45 1727.17 Q1109.84 1727.17 1108.01 1730.73 Q1106.2 1734.27 1106.2 1741.4 Q1106.2 1748.51 1108.01 1752.07 Q1109.84 1755.62 1113.45 1755.62 Q1117.08 1755.62 1118.89 1752.07 Q1120.72 1748.51 1120.72 1741.4 Q1120.72 1734.27 1118.89 1730.73 Q1117.08 1727.17 1113.45 1727.17 M1113.45 1723.46 Q1119.26 1723.46 1122.31 1728.07 Q1125.39 1732.65 1125.39 1741.4 Q1125.39 1750.13 1122.31 1754.74 Q1119.26 1759.32 1113.45 1759.32 Q1107.64 1759.32 1104.56 1754.74 Q1101.5 1750.13 1101.5 1741.4 Q1101.5 1732.65 1104.56 1728.07 Q1107.64 1723.46 1113.45 1723.46 Z" fill="#9eb1be" fill-rule="nonzero" fill-opacity="1" /><path clip-path="url(#clip240)" d="M1170.32 1754.71 L1186.63 1754.71 L1186.63 1758.65 L1164.69 1758.65 L1164.69 1754.71 Q1167.35 1751.96 1171.94 1747.33 Q1176.54 1742.68 1177.72 1741.33 Q1179.97 1738.81 1180.85 1737.07 Q1181.75 1735.31 1181.75 1733.62 Q1181.75 1730.87 1179.81 1729.13 Q1177.88 1727.4 1174.78 1727.4 Q1172.58 1727.4 1170.13 1728.16 Q1167.7 1728.93 1164.92 1730.48 L1164.92 1725.75 Q1167.75 1724.62 1170.2 1724.04 Q1172.65 1723.46 1174.69 1723.46 Q1180.06 1723.46 1183.26 1726.15 Q1186.45 1728.83 1186.45 1733.32 Q1186.45 1735.45 1185.64 1737.37 Q1184.85 1739.27 1182.75 1741.87 Q1182.17 1742.54 1179.07 1745.75 Q1175.96 1748.95 1170.32 1754.71 Z" fill="#9eb1be" fill-rule="nonzero" fill-opacity="1" /><path clip-path="url(#clip240)" d="M1206.45 1727.17 Q1202.84 1727.17 1201.01 1730.73 Q1199.2 1734.27 1199.2 1741.4 Q1199.2 1748.51 1201.01 1752.07 Q1202.84 1755.62 1206.45 1755.62 Q1210.08 1755.62 1211.89 1752.07 Q1213.72 1748.51 1213.72 1741.4 Q1213.72 1734.27 1211.89 1730.73 Q1210.08 1727.17 1206.45 1727.17 M1206.45 1723.46 Q1212.26 1723.46 1215.32 1728.07 Q1218.39 1732.65 1218.39 1741.4 Q1218.39 1750.13 1215.32 1754.74 Q1212.26 1759.32 1206.45 1759.32 Q1200.64 1759.32 1197.56 1754.74 Q1194.51 1750.13 1194.51 1741.4 Q1194.51 1732.65 1197.56 1728.07 Q1200.64 1723.46 1206.45 1723.46 Z" fill="#9eb1be" fill-rule="nonzero" fill-opacity="1" /><path clip-path="url(#clip240)" d="M1230.64 1754.71 L1246.96 1754.71 L1246.96 1758.65 L1225.01 1758.65 L1225.01 1754.71 Q1227.68 1751.96 1232.26 1747.33 Q1236.87 1742.68 1238.05 1741.33 Q1240.29 1738.81 1241.17 1737.07 Q1242.07 1735.31 1242.07 1733.62 Q1242.07 1730.87 1240.13 1729.13 Q1238.21 1727.4 1235.11 1727.4 Q1232.91 1727.4 1230.45 1728.16 Q1228.02 1728.93 1225.25 1730.48 L1225.25 1725.75 Q1228.07 1724.62 1230.52 1724.04 Q1232.98 1723.46 1235.01 1723.46 Q1240.38 1723.46 1243.58 1726.15 Q1246.77 1728.83 1246.77 1733.32 Q1246.77 1735.45 1245.96 1737.37 Q1245.18 1739.27 1243.07 1741.87 Q1242.49 1742.54 1239.39 1745.75 Q1236.29 1748.95 1230.64 1754.71 Z" fill="#9eb1be" fill-rule="nonzero" fill-opacity="1" /><path clip-path="url(#clip240)" d="M1269.62 1728.16 L1257.82 1746.61 L1269.62 1746.61 L1269.62 1728.16 M1268.39 1724.09 L1274.27 1724.09 L1274.27 1746.61 L1279.2 1746.61 L1279.2 1750.5 L1274.27 1750.5 L1274.27 1758.65 L1269.62 1758.65 L1269.62 1750.5 L1254.02 1750.5 L1254.02 1745.99 L1268.39 1724.09 Z" fill="#9eb1be" fill-rule="nonzero" fill-opacity="1" /><path clip-path="url(#clip240)" d="M1284.18 1743.76 L1296.66 1743.76 L1296.66 1747.56 L1284.18 1747.56 L1284.18 1743.76 Z" fill="#9eb1be" fill-rule="nonzero" fill-opacity="1" /><path clip-path="url(#clip240)" d="M1314.04 1727.17 Q1310.43 1727.17 1308.6 1730.73 Q1306.8 1734.27 1306.8 1741.4 Q1306.8 1748.51 1308.6 1752.07 Q1310.43 1755.62 1314.04 1755.62 Q1317.68 1755.62 1319.48 1752.07 Q1321.31 1748.51 1321.31 1741.4 Q1321.31 1734.27 1319.48 1730.73 Q1317.68 1727.17 1314.04 1727.17 M1314.04 1723.46 Q1319.85 1723.46 1322.91 1728.07 Q1325.99 1732.65 1325.99 1741.4 Q1325.99 1750.13 1322.91 1754.74 Q1319.85 1759.32 1314.04 1759.32 Q1308.23 1759.32 1305.15 1754.74 Q1302.1 1750.13 1302.1 1741.4 Q1302.1 1732.65 1305.15 1728.07 Q1308.23 1723.46 1314.04 1723.46 Z" fill="#9eb1be" fill-rule="nonzero" fill-opacity="1" /><path clip-path="url(#clip240)" d="M1335.01 1754.71 L1342.65 1754.71 L1342.65 1728.35 L1334.34 1730.01 L1334.34 1725.75 L1342.61 1724.09 L1347.28 1724.09 L1347.28 1754.71 L1354.92 1754.71 L1354.92 1758.65 L1335.01 1758.65 L1335.01 1754.71 Z" fill="#9eb1be" fill-rule="nonzero" fill-opacity="1" /><path clip-path="url(#clip240)" d="M1361.61 1743.76 L1374.09 1743.76 L1374.09 1747.56 L1361.61 1747.56 L1361.61 1743.76 Z" fill="#9eb1be" fill-rule="nonzero" fill-opacity="1" /><path clip-path="url(#clip240)" d="M1391.47 1727.17 Q1387.86 1727.17 1386.03 1730.73 Q1384.23 1734.27 1384.23 1741.4 Q1384.23 1748.51 1386.03 1752.07 Q1387.86 1755.62 1391.47 1755.62 Q1395.11 1755.62 1396.91 1752.07 Q1398.74 1748.51 1398.74 1741.4 Q1398.74 1734.27 1396.91 1730.73 Q1395.11 1727.17 1391.47 1727.17 M1391.47 1723.46 Q1397.28 1723.46 1400.34 1728.07 Q1403.42 1732.65 1403.42 1741.4 Q1403.42 1750.13 1400.34 1754.74 Q1397.28 1759.32 1391.47 1759.32 Q1385.66 1759.32 1382.58 1754.74 Q1379.53 1750.13 1379.53 1741.4 Q1379.53 1732.65 1382.58 1728.07 Q1385.66 1723.46 1391.47 1723.46 Z" fill="#9eb1be" fill-rule="nonzero" fill-opacity="1" /><path clip-path="url(#clip240)" d="M1412.44 1754.71 L1420.08 1754.71 L1420.08 1728.35 L1411.77 1730.01 L1411.77 1725.75 L1420.04 1724.09 L1424.71 1724.09 L1424.71 1754.71 L1432.35 1754.71 L1432.35 1758.65 L1412.44 1758.65 L1412.44 1754.71 Z" fill="#9eb1be" fill-rule="nonzero" fill-opacity="1" /><path clip-path="url(#clip240)" d="M1436.59 1724.09 L1465.82 1724.09 L1465.82 1728.02 L1453.55 1728.02 L1453.55 1758.65 L1448.86 1758.65 L1448.86 1728.02 L1436.59 1728.02 L1436.59 1724.09 Z" fill="#9eb1be" fill-rule="nonzero" fill-opacity="1" /><path clip-path="url(#clip240)" d="M1480.75 1727.17 Q1477.14 1727.17 1475.31 1730.73 Q1473.51 1734.27 1473.51 1741.4 Q1473.51 1748.51 1475.31 1752.07 Q1477.14 1755.62 1480.75 1755.62 Q1484.39 1755.62 1486.19 1752.07 Q1488.02 1748.51 1488.02 1741.4 Q1488.02 1734.27 1486.19 1730.73 Q1484.39 1727.17 1480.75 1727.17 M1480.75 1723.46 Q1486.56 1723.46 1489.62 1728.07 Q1492.7 1732.65 1492.7 1741.4 Q1492.7 1750.13 1489.62 1754.74 Q1486.56 1759.32 1480.75 1759.32 Q1474.94 1759.32 1471.86 1754.74 Q1468.81 1750.13 1468.81 1741.4 Q1468.81 1732.65 1471.86 1728.07 Q1474.94 1723.46 1480.75 1723.46 Z" fill="#9eb1be" fill-rule="nonzero" fill-opacity="1" /><path clip-path="url(#clip240)" d="M1504.94 1754.71 L1521.26 1754.71 L1521.26 1758.65 L1499.32 1758.65 L1499.32 1754.71 Q1501.98 1751.96 1506.56 1747.33 Q1511.17 1742.68 1512.35 1741.33 Q1514.6 1738.81 1515.48 1737.07 Q1516.38 1735.31 1516.38 1733.62 Q1516.38 1730.87 1514.43 1729.13 Q1512.51 1727.4 1509.41 1727.4 Q1507.21 1727.4 1504.76 1728.16 Q1502.33 1728.93 1499.55 1730.48 L1499.55 1725.75 Q1502.37 1724.62 1504.83 1724.04 Q1507.28 1723.46 1509.32 1723.46 Q1514.69 1723.46 1517.88 1726.15 Q1521.08 1728.83 1521.08 1733.32 Q1521.08 1735.45 1520.27 1737.37 Q1519.48 1739.27 1517.37 1741.87 Q1516.8 1742.54 1513.69 1745.75 Q1510.59 1748.95 1504.94 1754.71 Z" fill="#9eb1be" fill-rule="nonzero" fill-opacity="1" /><path clip-path="url(#clip240)" d="M1531.56 1752.77 L1536.45 1752.77 L1536.45 1758.65 L1531.56 1758.65 L1531.56 1752.77 M1531.56 1734.13 L1536.45 1734.13 L1536.45 1740.01 L1531.56 1740.01 L1531.56 1734.13 Z" fill="#9eb1be" fill-rule="nonzero" fill-opacity="1" /><path clip-path="url(#clip240)" d="M1557.05 1727.17 Q1553.44 1727.17 1551.61 1730.73 Q1549.8 1734.27 1549.8 1741.4 Q1549.8 1748.51 1551.61 1752.07 Q1553.44 1755.62 1557.05 1755.62 Q1560.68 1755.62 1562.49 1752.07 Q1564.32 1748.51 1564.32 1741.4 Q1564.32 1734.27 1562.49 1730.73 Q1560.68 1727.17 1557.05 1727.17 M1557.05 1723.46 Q1562.86 1723.46 1565.92 1728.07 Q1568.99 1732.65 1568.99 1741.4 Q1568.99 1750.13 1565.92 1754.74 Q1562.86 1759.32 1557.05 1759.32 Q1551.24 1759.32 1548.16 1754.74 Q1545.11 1750.13 1545.11 1741.4 Q1545.11 1732.65 1548.16 1728.07 Q1551.24 1723.46 1557.05 1723.46 Z" fill="#9eb1be" fill-rule="nonzero" fill-opacity="1" /><path clip-path="url(#clip240)" d="M1587.21 1727.17 Q1583.6 1727.17 1581.77 1730.73 Q1579.97 1734.27 1579.97 1741.4 Q1579.97 1748.51 1581.77 1752.07 Q1583.6 1755.62 1587.21 1755.62 Q1590.85 1755.62 1592.65 1752.07 Q1594.48 1748.51 1594.48 1741.4 Q1594.48 1734.27 1592.65 1730.73 Q1590.85 1727.17 1587.21 1727.17 M1587.21 1723.46 Q1593.02 1723.46 1596.08 1728.07 Q1599.16 1732.65 1599.16 1741.4 Q1599.16 1750.13 1596.08 1754.74 Q1593.02 1759.32 1587.21 1759.32 Q1581.4 1759.32 1578.32 1754.74 Q1575.27 1750.13 1575.27 1741.4 Q1575.27 1732.65 1578.32 1728.07 Q1581.4 1723.46 1587.21 1723.46 Z" fill="#9eb1be" fill-rule="nonzero" fill-opacity="1" /><path clip-path="url(#clip240)" d="M1607.86 1752.77 L1612.74 1752.77 L1612.74 1758.65 L1607.86 1758.65 L1607.86 1752.77 M1607.86 1734.13 L1612.74 1734.13 L1612.74 1740.01 L1607.86 1740.01 L1607.86 1734.13 Z" fill="#9eb1be" fill-rule="nonzero" fill-opacity="1" /><path clip-path="url(#clip240)" d="M1633.35 1727.17 Q1629.73 1727.17 1627.91 1730.73 Q1626.1 1734.27 1626.1 1741.4 Q1626.1 1748.51 1627.91 1752.07 Q1629.73 1755.62 1633.35 1755.62 Q1636.98 1755.62 1638.79 1752.07 Q1640.61 1748.51 1640.61 1741.4 Q1640.61 1734.27 1638.79 1730.73 Q1636.98 1727.17 1633.35 1727.17 M1633.35 1723.46 Q1639.16 1723.46 1642.21 1728.07 Q1645.29 1732.65 1645.29 1741.4 Q1645.29 1750.13 1642.21 1754.74 Q1639.16 1759.32 1633.35 1759.32 Q1627.54 1759.32 1624.46 1754.74 Q1621.4 1750.13 1621.4 1741.4 Q1621.4 1732.65 1624.46 1728.07 Q1627.54 1723.46 1633.35 1723.46 Z" fill="#9eb1be" fill-rule="nonzero" fill-opacity="1" /><path clip-path="url(#clip240)" d="M1663.51 1727.17 Q1659.9 1727.17 1658.07 1730.73 Q1656.26 1734.27 1656.26 1741.4 Q1656.26 1748.51 1658.07 1752.07 Q1659.9 1755.62 1663.51 1755.62 Q1667.14 1755.62 1668.95 1752.07 Q1670.78 1748.51 1670.78 1741.4 Q1670.78 1734.27 1668.95 1730.73 Q1667.14 1727.17 1663.51 1727.17 M1663.51 1723.46 Q1669.32 1723.46 1672.37 1728.07 Q1675.45 1732.65 1675.45 1741.4 Q1675.45 1750.13 1672.37 1754.74 Q1669.32 1759.32 1663.51 1759.32 Q1657.7 1759.32 1654.62 1754.74 Q1651.56 1750.13 1651.56 1741.4 Q1651.56 1732.65 1654.62 1728.07 Q1657.7 1723.46 1663.51 1723.46 Z" fill="#9eb1be" fill-rule="nonzero" fill-opacity="1" /><path clip-path="url(#clip240)" d="M1720.37 1754.71 L1736.69 1754.71 L1736.69 1758.65 L1714.75 1758.65 L1714.75 1754.71 Q1717.41 1751.96 1721.99 1747.33 Q1726.6 1742.68 1727.78 1741.33 Q1730.03 1738.81 1730.91 1737.07 Q1731.81 1735.31 1731.81 1733.62 Q1731.81 1730.87 1729.86 1729.13 Q1727.94 1727.4 1724.84 1727.4 Q1722.64 1727.4 1720.19 1728.16 Q1717.76 1728.93 1714.98 1730.48 L1714.98 1725.75 Q1717.8 1724.62 1720.26 1724.04 Q1722.71 1723.46 1724.75 1723.46 Q1730.12 1723.46 1733.31 1726.15 Q1736.51 1728.83 1736.51 1733.32 Q1736.51 1735.45 1735.7 1737.37 Q1734.91 1739.27 1732.8 1741.87 Q1732.23 1742.54 1729.12 1745.75 Q1726.02 1748.95 1720.37 1754.71 Z" fill="#9eb1be" fill-rule="nonzero" fill-opacity="1" /><path clip-path="url(#clip240)" d="M1756.51 1727.17 Q1752.9 1727.17 1751.07 1730.73 Q1749.26 1734.27 1749.26 1741.4 Q1749.26 1748.51 1751.07 1752.07 Q1752.9 1755.62 1756.51 1755.62 Q1760.14 1755.62 1761.95 1752.07 Q1763.78 1748.51 1763.78 1741.4 Q1763.78 1734.27 1761.95 1730.73 Q1760.14 1727.17 1756.51 1727.17 M1756.51 1723.46 Q1762.32 1723.46 1765.37 1728.07 Q1768.45 1732.65 1768.45 1741.4 Q1768.45 1750.13 1765.37 1754.74 Q1762.32 1759.32 1756.51 1759.32 Q1750.7 1759.32 1747.62 1754.74 Q1744.56 1750.13 1744.56 1741.4 Q1744.56 1732.65 1747.62 1728.07 Q1750.7 1723.46 1756.51 1723.46 Z" fill="#9eb1be" fill-rule="nonzero" fill-opacity="1" /><path clip-path="url(#clip240)" d="M1780.7 1754.71 L1797.02 1754.71 L1797.02 1758.65 L1775.07 1758.65 L1775.07 1754.71 Q1777.74 1751.96 1782.32 1747.33 Q1786.92 1742.68 1788.11 1741.33 Q1790.35 1738.81 1791.23 1737.07 Q1792.13 1735.31 1792.13 1733.62 Q1792.13 1730.87 1790.19 1729.13 Q1788.27 1727.4 1785.17 1727.4 Q1782.97 1727.4 1780.51 1728.16 Q1778.08 1728.93 1775.3 1730.48 L1775.3 1725.75 Q1778.13 1724.62 1780.58 1724.04 Q1783.04 1723.46 1785.07 1723.46 Q1790.44 1723.46 1793.64 1726.15 Q1796.83 1728.83 1796.83 1733.32 Q1796.83 1735.45 1796.02 1737.37 Q1795.23 1739.27 1793.13 1741.87 Q1792.55 1742.54 1789.45 1745.75 Q1786.35 1748.95 1780.7 1754.71 Z" fill="#9eb1be" fill-rule="nonzero" fill-opacity="1" /><path clip-path="url(#clip240)" d="M1819.68 1728.16 L1807.87 1746.61 L1819.68 1746.61 L1819.68 1728.16 M1818.45 1724.09 L1824.33 1724.09 L1824.33 1746.61 L1829.26 1746.61 L1829.26 1750.5 L1824.33 1750.5 L1824.33 1758.65 L1819.68 1758.65 L1819.68 1750.5 L1804.08 1750.5 L1804.08 1745.99 L1818.45 1724.09 Z" fill="#9eb1be" fill-rule="nonzero" fill-opacity="1" /><path clip-path="url(#clip240)" d="M1834.24 1743.76 L1846.72 1743.76 L1846.72 1747.56 L1834.24 1747.56 L1834.24 1743.76 Z" fill="#9eb1be" fill-rule="nonzero" fill-opacity="1" /><path clip-path="url(#clip240)" d="M1864.1 1727.17 Q1860.49 1727.17 1858.66 1730.73 Q1856.85 1734.27 1856.85 1741.4 Q1856.85 1748.51 1858.66 1752.07 Q1860.49 1755.62 1864.1 1755.62 Q1867.73 1755.62 1869.54 1752.07 Q1871.37 1748.51 1871.37 1741.4 Q1871.37 1734.27 1869.54 1730.73 Q1867.73 1727.17 1864.1 1727.17 M1864.1 1723.46 Q1869.91 1723.46 1872.97 1728.07 Q1876.04 1732.65 1876.04 1741.4 Q1876.04 1750.13 1872.97 1754.74 Q1869.91 1759.32 1864.1 1759.32 Q1858.29 1759.32 1855.21 1754.74 Q1852.16 1750.13 1852.16 1741.4 Q1852.16 1732.65 1855.21 1728.07 Q1858.29 1723.46 1864.1 1723.46 Z" fill="#9eb1be" fill-rule="nonzero" fill-opacity="1" /><path clip-path="url(#clip240)" d="M1885.07 1754.71 L1892.71 1754.71 L1892.71 1728.35 L1884.4 1730.01 L1884.4 1725.75 L1892.66 1724.09 L1897.34 1724.09 L1897.34 1754.71 L1904.98 1754.71 L1904.98 1758.65 L1885.07 1758.65 L1885.07 1754.71 Z" fill="#9eb1be" fill-rule="nonzero" fill-opacity="1" /><path clip-path="url(#clip240)" d="M1911.67 1743.76 L1924.15 1743.76 L1924.15 1747.56 L1911.67 1747.56 L1911.67 1743.76 Z" fill="#9eb1be" fill-rule="nonzero" fill-opacity="1" /><path clip-path="url(#clip240)" d="M1941.53 1727.17 Q1937.92 1727.17 1936.09 1730.73 Q1934.29 1734.27 1934.29 1741.4 Q1934.29 1748.51 1936.09 1752.07 Q1937.92 1755.62 1941.53 1755.62 Q1945.16 1755.62 1946.97 1752.07 Q1948.8 1748.51 1948.8 1741.4 Q1948.8 1734.27 1946.97 1730.73 Q1945.16 1727.17 1941.53 1727.17 M1941.53 1723.46 Q1947.34 1723.46 1950.4 1728.07 Q1953.47 1732.65 1953.47 1741.4 Q1953.47 1750.13 1950.4 1754.74 Q1947.34 1759.32 1941.53 1759.32 Q1935.72 1759.32 1932.64 1754.74 Q1929.59 1750.13 1929.59 1741.4 Q1929.59 1732.65 1932.64 1728.07 Q1935.72 1723.46 1941.53 1723.46 Z" fill="#9eb1be" fill-rule="nonzero" fill-opacity="1" /><path clip-path="url(#clip240)" d="M1962.5 1754.71 L1970.14 1754.71 L1970.14 1728.35 L1961.83 1730.01 L1961.83 1725.75 L1970.1 1724.09 L1974.77 1724.09 L1974.77 1754.71 L1982.41 1754.71 L1982.41 1758.65 L1962.5 1758.65 L1962.5 1754.71 Z" fill="#9eb1be" fill-rule="nonzero" fill-opacity="1" /><path clip-path="url(#clip240)" d="M1986.65 1724.09 L2015.88 1724.09 L2015.88 1728.02 L2003.61 1728.02 L2003.61 1758.65 L1998.91 1758.65 L1998.91 1728.02 L1986.65 1728.02 L1986.65 1724.09 Z" fill="#9eb1be" fill-rule="nonzero" fill-opacity="1" /><path clip-path="url(#clip240)" d="M2030.81 1727.17 Q2027.2 1727.17 2025.37 1730.73 Q2023.57 1734.27 2023.57 1741.4 Q2023.57 1748.51 2025.37 1752.07 Q2027.2 1755.62 2030.81 1755.62 Q2034.45 1755.62 2036.25 1752.07 Q2038.08 1748.51 2038.08 1741.4 Q2038.08 1734.27 2036.25 1730.73 Q2034.45 1727.17 2030.81 1727.17 M2030.81 1723.46 Q2036.62 1723.46 2039.68 1728.07 Q2042.76 1732.65 2042.76 1741.4 Q2042.76 1750.13 2039.68 1754.74 Q2036.62 1759.32 2030.81 1759.32 Q2025 1759.32 2021.92 1754.74 Q2018.87 1750.13 2018.87 1741.4 Q2018.87 1732.65 2021.92 1728.07 Q2025 1723.46 2030.81 1723.46 Z" fill="#9eb1be" fill-rule="nonzero" fill-opacity="1" /><path clip-path="url(#clip240)" d="M2065.14 1740.01 Q2068.5 1740.73 2070.37 1743 Q2072.27 1745.27 2072.27 1748.6 Q2072.27 1753.72 2068.75 1756.52 Q2065.23 1759.32 2058.75 1759.32 Q2056.58 1759.32 2054.26 1758.88 Q2051.97 1758.46 2049.52 1757.61 L2049.52 1753.09 Q2051.46 1754.23 2053.78 1754.81 Q2056.09 1755.38 2058.61 1755.38 Q2063.01 1755.38 2065.3 1753.65 Q2067.62 1751.91 2067.62 1748.6 Q2067.62 1745.55 2065.46 1743.83 Q2063.34 1742.1 2059.52 1742.1 L2055.49 1742.1 L2055.49 1738.25 L2059.7 1738.25 Q2063.15 1738.25 2064.98 1736.89 Q2066.81 1735.5 2066.81 1732.91 Q2066.81 1730.25 2064.91 1728.83 Q2063.03 1727.4 2059.52 1727.4 Q2057.59 1727.4 2055.4 1727.81 Q2053.2 1728.23 2050.56 1729.11 L2050.56 1724.94 Q2053.22 1724.2 2055.53 1723.83 Q2057.87 1723.46 2059.93 1723.46 Q2065.26 1723.46 2068.36 1725.89 Q2071.46 1728.3 2071.46 1732.42 Q2071.46 1735.29 2069.82 1737.28 Q2068.17 1739.25 2065.14 1740.01 Z" fill="#9eb1be" fill-rule="nonzero" fill-opacity="1" /><path clip-path="url(#clip240)" d="M2081.62 1752.77 L2086.51 1752.77 L2086.51 1758.65 L2081.62 1758.65 L2081.62 1752.77 M2081.62 1734.13 L2086.51 1734.13 L2086.51 1740.01 L2081.62 1740.01 L2081.62 1734.13 Z" fill="#9eb1be" fill-rule="nonzero" fill-opacity="1" /><path clip-path="url(#clip240)" d="M2107.11 1727.17 Q2103.5 1727.17 2101.67 1730.73 Q2099.86 1734.27 2099.86 1741.4 Q2099.86 1748.51 2101.67 1752.07 Q2103.5 1755.62 2107.11 1755.62 Q2110.74 1755.62 2112.55 1752.07 Q2114.38 1748.51 2114.38 1741.4 Q2114.38 1734.27 2112.55 1730.73 Q2110.74 1727.17 2107.11 1727.17 M2107.11 1723.46 Q2112.92 1723.46 2115.97 1728.07 Q2119.05 1732.65 2119.05 1741.4 Q2119.05 1750.13 2115.97 1754.74 Q2112.92 1759.32 2107.11 1759.32 Q2101.3 1759.32 2098.22 1754.74 Q2095.16 1750.13 2095.16 1741.4 Q2095.16 1732.65 2098.22 1728.07 Q2101.3 1723.46 2107.11 1723.46 Z" fill="#9eb1be" fill-rule="nonzero" fill-opacity="1" /><path clip-path="url(#clip240)" d="M2137.27 1727.17 Q2133.66 1727.17 2131.83 1730.73 Q2130.02 1734.27 2130.02 1741.4 Q2130.02 1748.51 2131.83 1752.07 Q2133.66 1755.62 2137.27 1755.62 Q2140.9 1755.62 2142.71 1752.07 Q2144.54 1748.51 2144.54 1741.4 Q2144.54 1734.27 2142.71 1730.73 Q2140.9 1727.17 2137.27 1727.17 M2137.27 1723.46 Q2143.08 1723.46 2146.14 1728.07 Q2149.21 1732.65 2149.21 1741.4 Q2149.21 1750.13 2146.14 1754.74 Q2143.08 1759.32 2137.27 1759.32 Q2131.46 1759.32 2128.38 1754.74 Q2125.33 1750.13 2125.33 1741.4 Q2125.33 1732.65 2128.38 1728.07 Q2131.46 1723.46 2137.27 1723.46 Z" fill="#9eb1be" fill-rule="nonzero" fill-opacity="1" /><path clip-path="url(#clip240)" d="M2157.92 1752.77 L2162.8 1752.77 L2162.8 1758.65 L2157.92 1758.65 L2157.92 1752.77 M2157.92 1734.13 L2162.8 1734.13 L2162.8 1740.01 L2157.92 1740.01 L2157.92 1734.13 Z" fill="#9eb1be" fill-rule="nonzero" fill-opacity="1" /><path clip-path="url(#clip240)" d="M2183.4 1727.17 Q2179.79 1727.17 2177.96 1730.73 Q2176.16 1734.27 2176.16 1741.4 Q2176.16 1748.51 2177.96 1752.07 Q2179.79 1755.62 2183.4 1755.62 Q2187.04 1755.62 2188.84 1752.07 Q2190.67 1748.51 2190.67 1741.4 Q2190.67 1734.27 2188.84 1730.73 Q2187.04 1727.17 2183.4 1727.17 M2183.4 1723.46 Q2189.21 1723.46 2192.27 1728.07 Q2195.35 1732.65 2195.35 1741.4 Q2195.35 1750.13 2192.27 1754.74 Q2189.21 1759.32 2183.4 1759.32 Q2177.59 1759.32 2174.52 1754.74 Q2171.46 1750.13 2171.46 1741.4 Q2171.46 1732.65 2174.52 1728.07 Q2177.59 1723.46 2183.4 1723.46 Z" fill="#9eb1be" fill-rule="nonzero" fill-opacity="1" /><path clip-path="url(#clip240)" d="M2213.57 1727.17 Q2209.95 1727.17 2208.13 1730.73 Q2206.32 1734.27 2206.32 1741.4 Q2206.32 1748.51 2208.13 1752.07 Q2209.95 1755.62 2213.57 1755.62 Q2217.2 1755.62 2219.01 1752.07 Q2220.83 1748.51 2220.83 1741.4 Q2220.83 1734.27 2219.01 1730.73 Q2217.2 1727.17 2213.57 1727.17 M2213.57 1723.46 Q2219.38 1723.46 2222.43 1728.07 Q2225.51 1732.65 2225.51 1741.4 Q2225.51 1750.13 2222.43 1754.74 Q2219.38 1759.32 2213.57 1759.32 Q2207.76 1759.32 2204.68 1754.74 Q2201.62 1750.13 2201.62 1741.4 Q2201.62 1732.65 2204.68 1728.07 Q2207.76 1723.46 2213.57 1723.46 Z" fill="#9eb1be" fill-rule="nonzero" fill-opacity="1" /><path clip-path="url(#clip240)" d="M2270.43 1754.71 L2286.75 1754.71 L2286.75 1758.65 L2264.81 1758.65 L2264.81 1754.71 Q2267.47 1751.96 2272.05 1747.33 Q2276.66 1742.68 2277.84 1741.33 Q2280.09 1738.81 2280.97 1737.07 Q2281.87 1735.31 2281.87 1733.62 Q2281.87 1730.87 2279.92 1729.13 Q2278 1727.4 2274.9 1727.4 Q2272.7 1727.4 2270.25 1728.16 Q2267.82 1728.93 2265.04 1730.48 L2265.04 1725.75 Q2267.86 1724.62 2270.32 1724.04 Q2272.77 1723.46 2274.81 1723.46 Q2280.18 1723.46 2283.37 1726.15 Q2286.57 1728.83 2286.57 1733.32 Q2286.57 1735.45 2285.76 1737.37 Q2284.97 1739.27 2282.86 1741.87 Q2282.28 1742.54 2279.18 1745.75 Q2276.08 1748.95 2270.43 1754.71 Z" fill="#9eb1be" fill-rule="nonzero" fill-opacity="1" /><path clip-path="url(#clip240)" d="M2306.57 1727.17 Q2302.96 1727.17 2301.13 1730.73 Q2299.32 1734.27 2299.32 1741.4 Q2299.32 1748.51 2301.13 1752.07 Q2302.96 1755.62 2306.57 1755.62 Q2310.2 1755.62 2312.01 1752.07 Q2313.84 1748.51 2313.84 1741.4 Q2313.84 1734.27 2312.01 1730.73 Q2310.2 1727.17 2306.57 1727.17 M2306.57 1723.46 Q2312.38 1723.46 2315.43 1728.07 Q2318.51 1732.65 2318.51 1741.4 Q2318.51 1750.13 2315.43 1754.74 Q2312.38 1759.32 2306.57 1759.32 Q2300.76 1759.32 2297.68 1754.74 Q2294.62 1750.13 2294.62 1741.4 Q2294.62 1732.65 2297.68 1728.07 Q2300.76 1723.46 2306.57 1723.46 Z" fill="#9eb1be" fill-rule="nonzero" fill-opacity="1" /><path clip-path="url(#clip240)" d="M2330.76 1754.71 L2347.08 1754.71 L2347.08 1758.65 L2325.13 1758.65 L2325.13 1754.71 Q2327.79 1751.96 2332.38 1747.33 Q2336.98 1742.68 2338.16 1741.33 Q2340.41 1738.81 2341.29 1737.07 Q2342.19 1735.31 2342.19 1733.62 Q2342.19 1730.87 2340.25 1729.13 Q2338.33 1727.4 2335.22 1727.4 Q2333.03 1727.4 2330.57 1728.16 Q2328.14 1728.93 2325.36 1730.48 L2325.36 1725.75 Q2328.19 1724.62 2330.64 1724.04 Q2333.09 1723.46 2335.13 1723.46 Q2340.5 1723.46 2343.7 1726.15 Q2346.89 1728.83 2346.89 1733.32 Q2346.89 1735.45 2346.08 1737.37 Q2345.29 1739.27 2343.19 1741.87 Q2342.61 1742.54 2339.51 1745.75 Q2336.4 1748.95 2330.76 1754.71 Z" fill="#9eb1be" fill-rule="nonzero" fill-opacity="1" /><path clip-path="url(#clip240)" d="M2369.74 1728.16 L2357.93 1746.61 L2369.74 1746.61 L2369.74 1728.16 M2368.51 1724.09 L2374.39 1724.09 L2374.39 1746.61 L2379.32 1746.61 L2379.32 1750.5 L2374.39 1750.5 L2374.39 1758.65 L2369.74 1758.65 L2369.74 1750.5 L2354.14 1750.5 L2354.14 1745.99 L2368.51 1724.09 Z" fill="#9eb1be" fill-rule="nonzero" fill-opacity="1" /><path clip-path="url(#clip240)" d="M2384.3 1743.76 L2396.77 1743.76 L2396.77 1747.56 L2384.3 1747.56 L2384.3 1743.76 Z" fill="#9eb1be" fill-rule="nonzero" fill-opacity="1" /><path clip-path="url(#clip240)" d="M2414.16 1727.17 Q2410.55 1727.17 2408.72 1730.73 Q2406.91 1734.27 2406.91 1741.4 Q2406.91 1748.51 2408.72 1752.07 Q2410.55 1755.62 2414.16 1755.62 Q2417.79 1755.62 2419.6 1752.07 Q2421.43 1748.51 2421.43 1741.4 Q2421.43 1734.27 2419.6 1730.73 Q2417.79 1727.17 2414.16 1727.17 M2414.16 1723.46 Q2419.97 1723.46 2423.02 1728.07 Q2426.1 1732.65 2426.1 1741.4 Q2426.1 1750.13 2423.02 1754.74 Q2419.97 1759.32 2414.16 1759.32 Q2408.35 1759.32 2405.27 1754.74 Q2402.21 1750.13 2402.21 1741.4 Q2402.21 1732.65 2405.27 1728.07 Q2408.35 1723.46 2414.16 1723.46 Z" fill="#9eb1be" fill-rule="nonzero" fill-opacity="1" /><path clip-path="url(#clip240)" d="M2435.13 1754.71 L2442.77 1754.71 L2442.77 1728.35 L2434.46 1730.01 L2434.46 1725.75 L2442.72 1724.09 L2447.4 1724.09 L2447.4 1754.71 L2455.04 1754.71 L2455.04 1758.65 L2435.13 1758.65 L2435.13 1754.71 Z" fill="#9eb1be" fill-rule="nonzero" fill-opacity="1" /><path clip-path="url(#clip240)" d="M2461.73 1743.76 L2474.2 1743.76 L2474.2 1747.56 L2461.73 1747.56 L2461.73 1743.76 Z" fill="#9eb1be" fill-rule="nonzero" fill-opacity="1" /><path clip-path="url(#clip240)" d="M2491.59 1727.17 Q2487.98 1727.17 2486.15 1730.73 Q2484.34 1734.27 2484.34 1741.4 Q2484.34 1748.51 2486.15 1752.07 Q2487.98 1755.62 2491.59 1755.62 Q2495.22 1755.62 2497.03 1752.07 Q2498.86 1748.51 2498.86 1741.4 Q2498.86 1734.27 2497.03 1730.73 Q2495.22 1727.17 2491.59 1727.17 M2491.59 1723.46 Q2497.4 1723.46 2500.45 1728.07 Q2503.53 1732.65 2503.53 1741.4 Q2503.53 1750.13 2500.45 1754.74 Q2497.4 1759.32 2491.59 1759.32 Q2485.78 1759.32 2482.7 1754.74 Q2479.64 1750.13 2479.64 1741.4 Q2479.64 1732.65 2482.7 1728.07 Q2485.78 1723.46 2491.59 1723.46 Z" fill="#9eb1be" fill-rule="nonzero" fill-opacity="1" /><path clip-path="url(#clip240)" d="M2512.56 1754.71 L2520.2 1754.71 L2520.2 1728.35 L2511.89 1730.01 L2511.89 1725.75 L2520.15 1724.09 L2524.83 1724.09 L2524.83 1754.71 L2532.47 1754.71 L2532.47 1758.65 L2512.56 1758.65 L2512.56 1754.71 Z" fill="#9eb1be" fill-rule="nonzero" fill-opacity="1" /><path clip-path="url(#clip240)" d="M2536.7 1724.09 L2565.94 1724.09 L2565.94 1728.02 L2553.67 1728.02 L2553.67 1758.65 L2548.97 1758.65 L2548.97 1728.02 L2536.7 1728.02 L2536.7 1724.09 Z" fill="#9eb1be" fill-rule="nonzero" fill-opacity="1" /><path clip-path="url(#clip240)" d="M2580.87 1727.17 Q2577.26 1727.17 2575.43 1730.73 Q2573.63 1734.27 2573.63 1741.4 Q2573.63 1748.51 2575.43 1752.07 Q2577.26 1755.62 2580.87 1755.62 Q2584.51 1755.62 2586.31 1752.07 Q2588.14 1748.51 2588.14 1741.4 Q2588.14 1734.27 2586.31 1730.73 Q2584.51 1727.17 2580.87 1727.17 M2580.87 1723.46 Q2586.68 1723.46 2589.74 1728.07 Q2592.82 1732.65 2592.82 1741.4 Q2592.82 1750.13 2589.74 1754.74 Q2586.68 1759.32 2580.87 1759.32 Q2575.06 1759.32 2571.98 1754.74 Q2568.93 1750.13 2568.93 1741.4 Q2568.93 1732.65 2571.98 1728.07 Q2575.06 1723.46 2580.87 1723.46 Z" fill="#9eb1be" fill-rule="nonzero" fill-opacity="1" /><path clip-path="url(#clip240)" d="M2613.88 1728.16 L2602.07 1746.61 L2613.88 1746.61 L2613.88 1728.16 M2612.65 1724.09 L2618.53 1724.09 L2618.53 1746.61 L2623.46 1746.61 L2623.46 1750.5 L2618.53 1750.5 L2618.53 1758.65 L2613.88 1758.65 L2613.88 1750.5 L2598.28 1750.5 L2598.28 1745.99 L2612.65 1724.09 Z" fill="#9eb1be" fill-rule="nonzero" fill-opacity="1" /><path clip-path="url(#clip240)" d="M2631.68 1752.77 L2636.57 1752.77 L2636.57 1758.65 L2631.68 1758.65 L2631.68 1752.77 M2631.68 1734.13 L2636.57 1734.13 L2636.57 1740.01 L2631.68 1740.01 L2631.68 1734.13 Z" fill="#9eb1be" fill-rule="nonzero" fill-opacity="1" /><path clip-path="url(#clip240)" d="M2657.17 1727.17 Q2653.56 1727.17 2651.73 1730.73 Q2649.92 1734.27 2649.92 1741.4 Q2649.92 1748.51 2651.73 1752.07 Q2653.56 1755.62 2657.17 1755.62 Q2660.8 1755.62 2662.61 1752.07 Q2664.44 1748.51 2664.44 1741.4 Q2664.44 1734.27 2662.61 1730.73 Q2660.8 1727.17 2657.17 1727.17 M2657.17 1723.46 Q2662.98 1723.46 2666.03 1728.07 Q2669.11 1732.65 2669.11 1741.4 Q2669.11 1750.13 2666.03 1754.74 Q2662.98 1759.32 2657.17 1759.32 Q2651.36 1759.32 2648.28 1754.74 Q2645.22 1750.13 2645.22 1741.4 Q2645.22 1732.65 2648.28 1728.07 Q2651.36 1723.46 2657.17 1723.46 Z" fill="#9eb1be" fill-rule="nonzero" fill-opacity="1" /><path clip-path="url(#clip240)" d="M2687.33 1727.17 Q2683.72 1727.17 2681.89 1730.73 Q2680.08 1734.27 2680.08 1741.4 Q2680.08 1748.51 2681.89 1752.07 Q2683.72 1755.62 2687.33 1755.62 Q2690.96 1755.62 2692.77 1752.07 Q2694.6 1748.51 2694.6 1741.4 Q2694.6 1734.27 2692.77 1730.73 Q2690.96 1727.17 2687.33 1727.17 M2687.33 1723.46 Q2693.14 1723.46 2696.19 1728.07 Q2699.27 1732.65 2699.27 1741.4 Q2699.27 1750.13 2696.19 1754.74 Q2693.14 1759.32 2687.33 1759.32 Q2681.52 1759.32 2678.44 1754.74 Q2675.38 1750.13 2675.38 1741.4 Q2675.38 1732.65 2678.44 1728.07 Q2681.52 1723.46 2687.33 1723.46 Z" fill="#9eb1be" fill-rule="nonzero" fill-opacity="1" /><path clip-path="url(#clip240)" d="M2707.98 1752.77 L2712.86 1752.77 L2712.86 1758.65 L2707.98 1758.65 L2707.98 1752.77 M2707.98 1734.13 L2712.86 1734.13 L2712.86 1740.01 L2707.98 1740.01 L2707.98 1734.13 Z" fill="#9eb1be" fill-rule="nonzero" fill-opacity="1" /><path clip-path="url(#clip240)" d="M2733.46 1727.17 Q2729.85 1727.17 2728.02 1730.73 Q2726.22 1734.27 2726.22 1741.4 Q2726.22 1748.51 2728.02 1752.07 Q2729.85 1755.62 2733.46 1755.62 Q2737.1 1755.62 2738.9 1752.07 Q2740.73 1748.51 2740.73 1741.4 Q2740.73 1734.27 2738.9 1730.73 Q2737.1 1727.17 2733.46 1727.17 M2733.46 1723.46 Q2739.27 1723.46 2742.33 1728.07 Q2745.41 1732.65 2745.41 1741.4 Q2745.41 1750.13 2742.33 1754.74 Q2739.27 1759.32 2733.46 1759.32 Q2727.65 1759.32 2724.57 1754.74 Q2721.52 1750.13 2721.52 1741.4 Q2721.52 1732.65 2724.57 1728.07 Q2727.65 1723.46 2733.46 1723.46 Z" fill="#9eb1be" fill-rule="nonzero" fill-opacity="1" /><path clip-path="url(#clip240)" d="M2763.62 1727.17 Q2760.01 1727.17 2758.18 1730.73 Q2756.38 1734.27 2756.38 1741.4 Q2756.38 1748.51 2758.18 1752.07 Q2760.01 1755.62 2763.62 1755.62 Q2767.26 1755.62 2769.06 1752.07 Q2770.89 1748.51 2770.89 1741.4 Q2770.89 1734.27 2769.06 1730.73 Q2767.26 1727.17 2763.62 1727.17 M2763.62 1723.46 Q2769.43 1723.46 2772.49 1728.07 Q2775.57 1732.65 2775.57 1741.4 Q2775.57 1750.13 2772.49 1754.74 Q2769.43 1759.32 2763.62 1759.32 Q2757.81 1759.32 2754.74 1754.74 Q2751.68 1750.13 2751.68 1741.4 Q2751.68 1732.65 2754.74 1728.07 Q2757.81 1723.46 2763.62 1723.46 Z" fill="#9eb1be" fill-rule="nonzero" fill-opacity="1" /><path clip-path="url(#clip240)" d="M2820.49 1754.71 L2836.81 1754.71 L2836.81 1758.65 L2814.87 1758.65 L2814.87 1754.71 Q2817.53 1751.96 2822.11 1747.33 Q2826.72 1742.68 2827.9 1741.33 Q2830.14 1738.81 2831.02 1737.07 Q2831.93 1735.31 2831.93 1733.62 Q2831.93 1730.87 2829.98 1729.13 Q2828.06 1727.4 2824.96 1727.4 Q2822.76 1727.4 2820.31 1728.16 Q2817.88 1728.93 2815.1 1730.48 L2815.1 1725.75 Q2817.92 1724.62 2820.38 1724.04 Q2822.83 1723.46 2824.87 1723.46 Q2830.24 1723.46 2833.43 1726.15 Q2836.63 1728.83 2836.63 1733.32 Q2836.63 1735.45 2835.82 1737.37 Q2835.03 1739.27 2832.92 1741.87 Q2832.34 1742.54 2829.24 1745.75 Q2826.14 1748.95 2820.49 1754.71 Z" fill="#9eb1be" fill-rule="nonzero" fill-opacity="1" /><path clip-path="url(#clip240)" d="M2856.63 1727.17 Q2853.01 1727.17 2851.19 1730.73 Q2849.38 1734.27 2849.38 1741.4 Q2849.38 1748.51 2851.19 1752.07 Q2853.01 1755.62 2856.63 1755.62 Q2860.26 1755.62 2862.07 1752.07 Q2863.89 1748.51 2863.89 1741.4 Q2863.89 1734.27 2862.07 1730.73 Q2860.26 1727.17 2856.63 1727.17 M2856.63 1723.46 Q2862.44 1723.46 2865.49 1728.07 Q2868.57 1732.65 2868.57 1741.4 Q2868.57 1750.13 2865.49 1754.74 Q2862.44 1759.32 2856.63 1759.32 Q2850.82 1759.32 2847.74 1754.74 Q2844.68 1750.13 2844.68 1741.4 Q2844.68 1732.65 2847.74 1728.07 Q2850.82 1723.46 2856.63 1723.46 Z" fill="#9eb1be" fill-rule="nonzero" fill-opacity="1" /><path clip-path="url(#clip240)" d="M2880.82 1754.71 L2897.13 1754.71 L2897.13 1758.65 L2875.19 1758.65 L2875.19 1754.71 Q2877.85 1751.96 2882.44 1747.33 Q2887.04 1742.68 2888.22 1741.33 Q2890.47 1738.81 2891.35 1737.07 Q2892.25 1735.31 2892.25 1733.62 Q2892.25 1730.87 2890.31 1729.13 Q2888.38 1727.4 2885.28 1727.4 Q2883.08 1727.4 2880.63 1728.16 Q2878.2 1728.93 2875.42 1730.48 L2875.42 1725.75 Q2878.25 1724.62 2880.7 1724.04 Q2883.15 1723.46 2885.19 1723.46 Q2890.56 1723.46 2893.75 1726.15 Q2896.95 1728.83 2896.95 1733.32 Q2896.95 1735.45 2896.14 1737.37 Q2895.35 1739.27 2893.25 1741.87 Q2892.67 1742.54 2889.57 1745.75 Q2886.46 1748.95 2880.82 1754.71 Z" fill="#9eb1be" fill-rule="nonzero" fill-opacity="1" /><path clip-path="url(#clip240)" d="M2919.8 1728.16 L2907.99 1746.61 L2919.8 1746.61 L2919.8 1728.16 M2918.57 1724.09 L2924.45 1724.09 L2924.45 1746.61 L2929.38 1746.61 L2929.38 1750.5 L2924.45 1750.5 L2924.45 1758.65 L2919.8 1758.65 L2919.8 1750.5 L2904.19 1750.5 L2904.19 1745.99 L2918.57 1724.09 Z" fill="#9eb1be" fill-rule="nonzero" fill-opacity="1" /><path clip-path="url(#clip240)" d="M2934.36 1743.76 L2946.83 1743.76 L2946.83 1747.56 L2934.36 1747.56 L2934.36 1743.76 Z" fill="#9eb1be" fill-rule="nonzero" fill-opacity="1" /><path clip-path="url(#clip240)" d="M2964.22 1727.17 Q2960.61 1727.17 2958.78 1730.73 Q2956.97 1734.27 2956.97 1741.4 Q2956.97 1748.51 2958.78 1752.07 Q2960.61 1755.62 2964.22 1755.62 Q2967.85 1755.62 2969.66 1752.07 Q2971.49 1748.51 2971.49 1741.4 Q2971.49 1734.27 2969.66 1730.73 Q2967.85 1727.17 2964.22 1727.17 M2964.22 1723.46 Q2970.03 1723.46 2973.08 1728.07 Q2976.16 1732.65 2976.16 1741.4 Q2976.16 1750.13 2973.08 1754.74 Q2970.03 1759.32 2964.22 1759.32 Q2958.41 1759.32 2955.33 1754.74 Q2952.27 1750.13 2952.27 1741.4 Q2952.27 1732.65 2955.33 1728.07 Q2958.41 1723.46 2964.22 1723.46 Z" fill="#9eb1be" fill-rule="nonzero" fill-opacity="1" /><path clip-path="url(#clip240)" d="M2985.19 1754.71 L2992.83 1754.71 L2992.83 1728.35 L2984.52 1730.01 L2984.52 1725.75 L2992.78 1724.09 L2997.46 1724.09 L2997.46 1754.71 L3005.1 1754.71 L3005.1 1758.65 L2985.19 1758.65 L2985.19 1754.71 Z" fill="#9eb1be" fill-rule="nonzero" fill-opacity="1" /><path clip-path="url(#clip240)" d="M3011.79 1743.76 L3024.26 1743.76 L3024.26 1747.56 L3011.79 1747.56 L3011.79 1743.76 Z" fill="#9eb1be" fill-rule="nonzero" fill-opacity="1" /><path clip-path="url(#clip240)" d="M3041.65 1727.17 Q3038.04 1727.17 3036.21 1730.73 Q3034.4 1734.27 3034.4 1741.4 Q3034.4 1748.51 3036.21 1752.07 Q3038.04 1755.62 3041.65 1755.62 Q3045.28 1755.62 3047.09 1752.07 Q3048.92 1748.51 3048.92 1741.4 Q3048.92 1734.27 3047.09 1730.73 Q3045.28 1727.17 3041.65 1727.17 M3041.65 1723.46 Q3047.46 1723.46 3050.51 1728.07 Q3053.59 1732.65 3053.59 1741.4 Q3053.59 1750.13 3050.51 1754.74 Q3047.46 1759.32 3041.65 1759.32 Q3035.84 1759.32 3032.76 1754.74 Q3029.7 1750.13 3029.7 1741.4 Q3029.7 1732.65 3032.76 1728.07 Q3035.84 1723.46 3041.65 1723.46 Z" fill="#9eb1be" fill-rule="nonzero" fill-opacity="1" /><path clip-path="url(#clip240)" d="M3062.62 1754.71 L3070.26 1754.71 L3070.26 1728.35 L3061.95 1730.01 L3061.95 1725.75 L3070.21 1724.09 L3074.89 1724.09 L3074.89 1754.71 L3082.53 1754.71 L3082.53 1758.65 L3062.62 1758.65 L3062.62 1754.71 Z" fill="#9eb1be" fill-rule="nonzero" fill-opacity="1" /><path clip-path="url(#clip240)" d="M3086.76 1724.09 L3116 1724.09 L3116 1728.02 L3103.73 1728.02 L3103.73 1758.65 L3099.03 1758.65 L3099.03 1728.02 L3086.76 1728.02 L3086.76 1724.09 Z" fill="#9eb1be" fill-rule="nonzero" fill-opacity="1" /><path clip-path="url(#clip240)" d="M3130.93 1727.17 Q3127.32 1727.17 3125.49 1730.73 Q3123.68 1734.27 3123.68 1741.4 Q3123.68 1748.51 3125.49 1752.07 Q3127.32 1755.62 3130.93 1755.62 Q3134.56 1755.62 3136.37 1752.07 Q3138.2 1748.51 3138.2 1741.4 Q3138.2 1734.27 3136.37 1730.73 Q3134.56 1727.17 3130.93 1727.17 M3130.93 1723.46 Q3136.74 1723.46 3139.8 1728.07 Q3142.87 1732.65 3142.87 1741.4 Q3142.87 1750.13 3139.8 1754.74 Q3136.74 1759.32 3130.93 1759.32 Q3125.12 1759.32 3122.04 1754.74 Q3118.99 1750.13 3118.99 1741.4 Q3118.99 1732.65 3122.04 1728.07 Q3125.12 1723.46 3130.93 1723.46 Z" fill="#9eb1be" fill-rule="nonzero" fill-opacity="1" /><path clip-path="url(#clip240)" d="M3151.14 1724.09 L3169.49 1724.09 L3169.49 1728.02 L3155.42 1728.02 L3155.42 1736.5 Q3156.44 1736.15 3157.46 1735.99 Q3158.48 1735.8 3159.49 1735.8 Q3165.28 1735.8 3168.66 1738.97 Q3172.04 1742.14 3172.04 1747.56 Q3172.04 1753.14 3168.57 1756.24 Q3165.1 1759.32 3158.78 1759.32 Q3156.6 1759.32 3154.33 1758.95 Q3152.09 1758.58 3149.68 1757.84 L3149.68 1753.14 Q3151.76 1754.27 3153.99 1754.83 Q3156.21 1755.38 3158.68 1755.38 Q3162.69 1755.38 3165.03 1753.28 Q3167.36 1751.17 3167.36 1747.56 Q3167.36 1743.95 3165.03 1741.84 Q3162.69 1739.74 3158.68 1739.74 Q3156.81 1739.74 3154.93 1740.15 Q3153.08 1740.57 3151.14 1741.45 L3151.14 1724.09 Z" fill="#9eb1be" fill-rule="nonzero" fill-opacity="1" /><path clip-path="url(#clip240)" d="M3181.74 1752.77 L3186.62 1752.77 L3186.62 1758.65 L3181.74 1758.65 L3181.74 1752.77 M3181.74 1734.13 L3186.62 1734.13 L3186.62 1740.01 L3181.74 1740.01 L3181.74 1734.13 Z" fill="#9eb1be" fill-rule="nonzero" fill-opacity="1" /><path clip-path="url(#clip240)" d="M3207.23 1727.17 Q3203.61 1727.17 3201.79 1730.73 Q3199.98 1734.27 3199.98 1741.4 Q3199.98 1748.51 3201.79 1752.07 Q3203.61 1755.62 3207.23 1755.62 Q3210.86 1755.62 3212.67 1752.07 Q3214.49 1748.51 3214.49 1741.4 Q3214.49 1734.27 3212.67 1730.73 Q3210.86 1727.17 3207.23 1727.17 M3207.23 1723.46 Q3213.04 1723.46 3216.09 1728.07 Q3219.17 1732.65 3219.17 1741.4 Q3219.17 1750.13 3216.09 1754.74 Q3213.04 1759.32 3207.23 1759.32 Q3201.42 1759.32 3198.34 1754.74 Q3195.28 1750.13 3195.28 1741.4 Q3195.28 1732.65 3198.34 1728.07 Q3201.42 1723.46 3207.23 1723.46 Z" fill="#9eb1be" fill-rule="nonzero" fill-opacity="1" /><path clip-path="url(#clip240)" d="M3237.39 1727.17 Q3233.78 1727.17 3231.95 1730.73 Q3230.14 1734.27 3230.14 1741.4 Q3230.14 1748.51 3231.95 1752.07 Q3233.78 1755.62 3237.39 1755.62 Q3241.02 1755.62 3242.83 1752.07 Q3244.66 1748.51 3244.66 1741.4 Q3244.66 1734.27 3242.83 1730.73 Q3241.02 1727.17 3237.39 1727.17 M3237.39 1723.46 Q3243.2 1723.46 3246.25 1728.07 Q3249.33 1732.65 3249.33 1741.4 Q3249.33 1750.13 3246.25 1754.74 Q3243.2 1759.32 3237.39 1759.32 Q3231.58 1759.32 3228.5 1754.74 Q3225.44 1750.13 3225.44 1741.4 Q3225.44 1732.65 3228.5 1728.07 Q3231.58 1723.46 3237.39 1723.46 Z" fill="#9eb1be" fill-rule="nonzero" fill-opacity="1" /><path clip-path="url(#clip240)" d="M3258.04 1752.77 L3262.92 1752.77 L3262.92 1758.65 L3258.04 1758.65 L3258.04 1752.77 M3258.04 1734.13 L3262.92 1734.13 L3262.92 1740.01 L3258.04 1740.01 L3258.04 1734.13 Z" fill="#9eb1be" fill-rule="nonzero" fill-opacity="1" /><path clip-path="url(#clip240)" d="M3283.52 1727.17 Q3279.91 1727.17 3278.08 1730.73 Q3276.28 1734.27 3276.28 1741.4 Q3276.28 1748.51 3278.08 1752.07 Q3279.91 1755.62 3283.52 1755.62 Q3287.16 1755.62 3288.96 1752.07 Q3290.79 1748.51 3290.79 1741.4 Q3290.79 1734.27 3288.96 1730.73 Q3287.16 1727.17 3283.52 1727.17 M3283.52 1723.46 Q3289.33 1723.46 3292.39 1728.07 Q3295.47 1732.65 3295.47 1741.4 Q3295.47 1750.13 3292.39 1754.74 Q3289.33 1759.32 3283.52 1759.32 Q3277.71 1759.32 3274.63 1754.74 Q3271.58 1750.13 3271.58 1741.4 Q3271.58 1732.65 3274.63 1728.07 Q3277.71 1723.46 3283.52 1723.46 Z" fill="#9eb1be" fill-rule="nonzero" fill-opacity="1" /><path clip-path="url(#clip240)" d="M3313.68 1727.17 Q3310.07 1727.17 3308.24 1730.73 Q3306.44 1734.27 3306.44 1741.4 Q3306.44 1748.51 3308.24 1752.07 Q3310.07 1755.62 3313.68 1755.62 Q3317.32 1755.62 3319.12 1752.07 Q3320.95 1748.51 3320.95 1741.4 Q3320.95 1734.27 3319.12 1730.73 Q3317.32 1727.17 3313.68 1727.17 M3313.68 1723.46 Q3319.49 1723.46 3322.55 1728.07 Q3325.63 1732.65 3325.63 1741.4 Q3325.63 1750.13 3322.55 1754.74 Q3319.49 1759.32 3313.68 1759.32 Q3307.87 1759.32 3304.79 1754.74 Q3301.74 1750.13 3301.74 1741.4 Q3301.74 1732.65 3304.79 1728.07 Q3307.87 1723.46 3313.68 1723.46 Z" fill="#9eb1be" fill-rule="nonzero" fill-opacity="1" /><polyline clip-path="url(#clip240)" style="stroke:#adb2b7; stroke-linecap:round; stroke-linejoin:round; stroke-width:4; stroke-opacity:1; fill:none" points="237.445,1689.85 237.445,99.4421 "/>
<polyline clip-path="url(#clip240)" style="stroke:#adb2b7; stroke-linecap:round; stroke-linejoin:round; stroke-width:4; stroke-opacity:1; fill:none" points="237.445,1584.22 256.343,1584.22 "/>
<polyline clip-path="url(#clip240)" style="stroke:#adb2b7; stroke-linecap:round; stroke-linejoin:round; stroke-width:4; stroke-opacity:1; fill:none" points="237.445,1284.14 256.343,1284.14 "/>
<polyline clip-path="url(#clip240)" style="stroke:#adb2b7; stroke-linecap:round; stroke-linejoin:round; stroke-width:4; stroke-opacity:1; fill:none" points="237.445,984.068 256.343,984.068 "/>
<polyline clip-path="url(#clip240)" style="stroke:#adb2b7; stroke-linecap:round; stroke-linejoin:round; stroke-width:4; stroke-opacity:1; fill:none" points="237.445,683.991 256.343,683.991 "/>
<polyline clip-path="url(#clip240)" style="stroke:#adb2b7; stroke-linecap:round; stroke-linejoin:round; stroke-width:4; stroke-opacity:1; fill:none" points="237.445,383.915 256.343,383.915 "/>
<path clip-path="url(#clip240)" d="M78.1494 1600.78 L78.1494 1596.52 Q79.9086 1597.36 81.7142 1597.8 Q83.5197 1598.24 85.2558 1598.24 Q89.8854 1598.24 92.316 1595.14 Q94.7696 1592.01 95.1169 1585.67 Q93.7743 1587.66 91.7141 1588.72 Q89.6539 1589.79 87.1539 1589.79 Q81.9688 1589.79 78.9364 1586.66 Q75.9272 1583.51 75.9272 1578.08 Q75.9272 1572.75 79.0753 1569.53 Q82.2234 1566.32 87.4549 1566.32 Q93.4502 1566.32 96.5983 1570.92 Q99.7696 1575.51 99.7696 1584.26 Q99.7696 1592.43 95.8808 1597.31 Q92.015 1602.17 85.4641 1602.17 Q83.7049 1602.17 81.8993 1601.82 Q80.0938 1601.48 78.1494 1600.78 M87.4549 1586.13 Q90.603 1586.13 92.4317 1583.98 Q94.2835 1581.83 94.2835 1578.08 Q94.2835 1574.35 92.4317 1572.2 Q90.603 1570.02 87.4549 1570.02 Q84.3067 1570.02 82.4549 1572.2 Q80.6262 1574.35 80.6262 1578.08 Q80.6262 1581.83 82.4549 1583.98 Q84.3067 1586.13 87.4549 1586.13 Z" fill="#9eb1be" fill-rule="nonzero" fill-opacity="1" /><path clip-path="url(#clip240)" d="M108.311 1600.78 L108.311 1596.52 Q110.07 1597.36 111.876 1597.8 Q113.682 1598.24 115.418 1598.24 Q120.047 1598.24 122.478 1595.14 Q124.932 1592.01 125.279 1585.67 Q123.936 1587.66 121.876 1588.72 Q119.816 1589.79 117.316 1589.79 Q112.131 1589.79 109.098 1586.66 Q106.089 1583.51 106.089 1578.08 Q106.089 1572.75 109.237 1569.53 Q112.385 1566.32 117.617 1566.32 Q123.612 1566.32 126.76 1570.92 Q129.931 1575.51 129.931 1584.26 Q129.931 1592.43 126.043 1597.31 Q122.177 1602.17 115.626 1602.17 Q113.867 1602.17 112.061 1601.82 Q110.256 1601.48 108.311 1600.78 M117.617 1586.13 Q120.765 1586.13 122.594 1583.98 Q124.445 1581.83 124.445 1578.08 Q124.445 1574.35 122.594 1572.2 Q120.765 1570.02 117.617 1570.02 Q114.469 1570.02 112.617 1572.2 Q110.788 1574.35 110.788 1578.08 Q110.788 1581.83 112.617 1583.98 Q114.469 1586.13 117.617 1586.13 Z" fill="#9eb1be" fill-rule="nonzero" fill-opacity="1" /><path clip-path="url(#clip240)" d="M148.334 1585.09 Q145.001 1585.09 143.08 1586.87 Q141.181 1588.65 141.181 1591.78 Q141.181 1594.9 143.08 1596.69 Q145.001 1598.47 148.334 1598.47 Q151.667 1598.47 153.589 1596.69 Q155.51 1594.88 155.51 1591.78 Q155.51 1588.65 153.589 1586.87 Q151.691 1585.09 148.334 1585.09 M143.658 1583.1 Q140.649 1582.36 138.959 1580.3 Q137.293 1578.24 137.293 1575.27 Q137.293 1571.13 140.232 1568.72 Q143.195 1566.32 148.334 1566.32 Q153.496 1566.32 156.436 1568.72 Q159.376 1571.13 159.376 1575.27 Q159.376 1578.24 157.686 1580.3 Q156.019 1582.36 153.033 1583.1 Q156.413 1583.89 158.288 1586.18 Q160.186 1588.47 160.186 1591.78 Q160.186 1596.8 157.107 1599.49 Q154.052 1602.17 148.334 1602.17 Q142.617 1602.17 139.538 1599.49 Q136.482 1596.8 136.482 1591.78 Q136.482 1588.47 138.381 1586.18 Q140.279 1583.89 143.658 1583.1 M141.945 1575.71 Q141.945 1578.4 143.612 1579.9 Q145.302 1581.41 148.334 1581.41 Q151.343 1581.41 153.033 1579.9 Q154.746 1578.4 154.746 1575.71 Q154.746 1573.03 153.033 1571.52 Q151.343 1570.02 148.334 1570.02 Q145.302 1570.02 143.612 1571.52 Q141.945 1573.03 141.945 1575.71 Z" fill="#9eb1be" fill-rule="nonzero" fill-opacity="1" /><path clip-path="url(#clip240)" d="M168.542 1566.94 L186.899 1566.94 L186.899 1570.88 L172.825 1570.88 L172.825 1579.35 Q173.843 1579 174.862 1578.84 Q175.88 1578.65 176.899 1578.65 Q182.686 1578.65 186.065 1581.83 Q189.445 1585 189.445 1590.41 Q189.445 1595.99 185.973 1599.09 Q182.501 1602.17 176.181 1602.17 Q174.005 1602.17 171.737 1601.8 Q169.491 1601.43 167.084 1600.69 L167.084 1595.99 Q169.167 1597.13 171.39 1597.68 Q173.612 1598.24 176.089 1598.24 Q180.093 1598.24 182.431 1596.13 Q184.769 1594.02 184.769 1590.41 Q184.769 1586.8 182.431 1584.7 Q180.093 1582.59 176.089 1582.59 Q174.214 1582.59 172.339 1583.01 Q170.487 1583.42 168.542 1584.3 L168.542 1566.94 Z" fill="#9eb1be" fill-rule="nonzero" fill-opacity="1" /><path clip-path="url(#clip240)" d="M77.154 1300.71 L77.154 1296.45 Q78.9133 1297.28 80.7188 1297.72 Q82.5243 1298.16 84.2604 1298.16 Q88.8901 1298.16 91.3206 1295.06 Q93.7743 1291.93 94.1215 1285.59 Q92.7789 1287.58 90.7187 1288.65 Q88.6586 1289.71 86.1586 1289.71 Q80.9734 1289.71 77.941 1286.59 Q74.9318 1283.44 74.9318 1278 Q74.9318 1272.67 78.0799 1269.46 Q81.2281 1266.24 86.4595 1266.24 Q92.4548 1266.24 95.603 1270.85 Q98.7743 1275.43 98.7743 1284.18 Q98.7743 1292.35 94.8854 1297.23 Q91.0197 1302.1 84.4688 1302.1 Q82.7095 1302.1 80.904 1301.75 Q79.0984 1301.4 77.154 1300.71 M86.4595 1286.05 Q89.6076 1286.05 91.4363 1283.9 Q93.2882 1281.75 93.2882 1278 Q93.2882 1274.27 91.4363 1272.12 Q89.6076 1269.94 86.4595 1269.94 Q83.3114 1269.94 81.4595 1272.12 Q79.6308 1274.27 79.6308 1278 Q79.6308 1281.75 81.4595 1283.9 Q83.3114 1286.05 86.4595 1286.05 Z" fill="#9eb1be" fill-rule="nonzero" fill-opacity="1" /><path clip-path="url(#clip240)" d="M107.316 1300.71 L107.316 1296.45 Q109.075 1297.28 110.881 1297.72 Q112.686 1298.16 114.422 1298.16 Q119.052 1298.16 121.482 1295.06 Q123.936 1291.93 124.283 1285.59 Q122.941 1287.58 120.881 1288.65 Q118.82 1289.71 116.32 1289.71 Q111.135 1289.71 108.103 1286.59 Q105.094 1283.44 105.094 1278 Q105.094 1272.67 108.242 1269.46 Q111.39 1266.24 116.621 1266.24 Q122.617 1266.24 125.765 1270.85 Q128.936 1275.43 128.936 1284.18 Q128.936 1292.35 125.047 1297.23 Q121.182 1302.1 114.631 1302.1 Q112.871 1302.1 111.066 1301.75 Q109.26 1301.4 107.316 1300.71 M116.621 1286.05 Q119.77 1286.05 121.598 1283.9 Q123.45 1281.75 123.45 1278 Q123.45 1274.27 121.598 1272.12 Q119.77 1269.94 116.621 1269.94 Q113.473 1269.94 111.621 1272.12 Q109.793 1274.27 109.793 1278 Q109.793 1281.75 111.621 1283.9 Q113.473 1286.05 116.621 1286.05 Z" fill="#9eb1be" fill-rule="nonzero" fill-opacity="1" /><path clip-path="url(#clip240)" d="M137.478 1300.71 L137.478 1296.45 Q139.237 1297.28 141.043 1297.72 Q142.848 1298.16 144.584 1298.16 Q149.214 1298.16 151.644 1295.06 Q154.098 1291.93 154.445 1285.59 Q153.103 1287.58 151.042 1288.65 Q148.982 1289.71 146.482 1289.71 Q141.297 1289.71 138.265 1286.59 Q135.256 1283.44 135.256 1278 Q135.256 1272.67 138.404 1269.46 Q141.552 1266.24 146.783 1266.24 Q152.779 1266.24 155.927 1270.85 Q159.098 1275.43 159.098 1284.18 Q159.098 1292.35 155.209 1297.23 Q151.343 1302.1 144.793 1302.1 Q143.033 1302.1 141.228 1301.75 Q139.422 1301.4 137.478 1300.71 M146.783 1286.05 Q149.931 1286.05 151.76 1283.9 Q153.612 1281.75 153.612 1278 Q153.612 1274.27 151.76 1272.12 Q149.931 1269.94 146.783 1269.94 Q143.635 1269.94 141.783 1272.12 Q139.955 1274.27 139.955 1278 Q139.955 1281.75 141.783 1283.9 Q143.635 1286.05 146.783 1286.05 Z" fill="#9eb1be" fill-rule="nonzero" fill-opacity="1" /><path clip-path="url(#clip240)" d="M177.501 1269.94 Q173.89 1269.94 172.061 1273.51 Q170.255 1277.05 170.255 1284.18 Q170.255 1291.29 172.061 1294.85 Q173.89 1298.39 177.501 1298.39 Q181.135 1298.39 182.94 1294.85 Q184.769 1291.29 184.769 1284.18 Q184.769 1277.05 182.94 1273.51 Q181.135 1269.94 177.501 1269.94 M177.501 1266.24 Q183.311 1266.24 186.366 1270.85 Q189.445 1275.43 189.445 1284.18 Q189.445 1292.91 186.366 1297.51 Q183.311 1302.1 177.501 1302.1 Q171.691 1302.1 168.612 1297.51 Q165.556 1292.91 165.556 1284.18 Q165.556 1275.43 168.612 1270.85 Q171.691 1266.24 177.501 1266.24 Z" fill="#9eb1be" fill-rule="nonzero" fill-opacity="1" /><path clip-path="url(#clip240)" d="M78.1494 1000.63 L78.1494 996.371 Q79.9086 997.204 81.7142 997.644 Q83.5197 998.084 85.2558 998.084 Q89.8854 998.084 92.316 994.982 Q94.7696 991.857 95.1169 985.515 Q93.7743 987.505 91.7141 988.57 Q89.6539 989.635 87.1539 989.635 Q81.9688 989.635 78.9364 986.51 Q75.9272 983.362 75.9272 977.922 Q75.9272 972.598 79.0753 969.38 Q82.2234 966.163 87.4549 966.163 Q93.4502 966.163 96.5983 970.769 Q99.7696 975.353 99.7696 984.103 Q99.7696 992.274 95.8808 997.158 Q92.015 1002.02 85.4641 1002.02 Q83.7049 1002.02 81.8993 1001.67 Q80.0938 1001.32 78.1494 1000.63 M87.4549 985.978 Q90.603 985.978 92.4317 983.825 Q94.2835 981.672 94.2835 977.922 Q94.2835 974.195 92.4317 972.042 Q90.603 969.867 87.4549 969.867 Q84.3067 969.867 82.4549 972.042 Q80.6262 974.195 80.6262 977.922 Q80.6262 981.672 82.4549 983.825 Q84.3067 985.978 87.4549 985.978 Z" fill="#9eb1be" fill-rule="nonzero" fill-opacity="1" /><path clip-path="url(#clip240)" d="M108.311 1000.63 L108.311 996.371 Q110.07 997.204 111.876 997.644 Q113.682 998.084 115.418 998.084 Q120.047 998.084 122.478 994.982 Q124.932 991.857 125.279 985.515 Q123.936 987.505 121.876 988.57 Q119.816 989.635 117.316 989.635 Q112.131 989.635 109.098 986.51 Q106.089 983.362 106.089 977.922 Q106.089 972.598 109.237 969.38 Q112.385 966.163 117.617 966.163 Q123.612 966.163 126.76 970.769 Q129.931 975.353 129.931 984.103 Q129.931 992.274 126.043 997.158 Q122.177 1002.02 115.626 1002.02 Q113.867 1002.02 112.061 1001.67 Q110.256 1001.32 108.311 1000.63 M117.617 985.978 Q120.765 985.978 122.594 983.825 Q124.445 981.672 124.445 977.922 Q124.445 974.195 122.594 972.042 Q120.765 969.867 117.617 969.867 Q114.469 969.867 112.617 972.042 Q110.788 974.195 110.788 977.922 Q110.788 981.672 112.617 983.825 Q114.469 985.978 117.617 985.978 Z" fill="#9eb1be" fill-rule="nonzero" fill-opacity="1" /><path clip-path="url(#clip240)" d="M138.473 1000.63 L138.473 996.371 Q140.232 997.204 142.038 997.644 Q143.843 998.084 145.58 998.084 Q150.209 998.084 152.64 994.982 Q155.093 991.857 155.441 985.515 Q154.098 987.505 152.038 988.57 Q149.978 989.635 147.478 989.635 Q142.293 989.635 139.26 986.51 Q136.251 983.362 136.251 977.922 Q136.251 972.598 139.399 969.38 Q142.547 966.163 147.779 966.163 Q153.774 966.163 156.922 970.769 Q160.093 975.353 160.093 984.103 Q160.093 992.274 156.205 997.158 Q152.339 1002.02 145.788 1002.02 Q144.029 1002.02 142.223 1001.67 Q140.418 1001.32 138.473 1000.63 M147.779 985.978 Q150.927 985.978 152.755 983.825 Q154.607 981.672 154.607 977.922 Q154.607 974.195 152.755 972.042 Q150.927 969.867 147.779 969.867 Q144.63 969.867 142.779 972.042 Q140.95 974.195 140.95 977.922 Q140.95 981.672 142.779 983.825 Q144.63 985.978 147.779 985.978 Z" fill="#9eb1be" fill-rule="nonzero" fill-opacity="1" /><path clip-path="url(#clip240)" d="M168.542 966.788 L186.899 966.788 L186.899 970.723 L172.825 970.723 L172.825 979.195 Q173.843 978.848 174.862 978.686 Q175.88 978.501 176.899 978.501 Q182.686 978.501 186.065 981.672 Q189.445 984.843 189.445 990.26 Q189.445 995.839 185.973 998.94 Q182.501 1002.02 176.181 1002.02 Q174.005 1002.02 171.737 1001.65 Q169.491 1001.28 167.084 1000.54 L167.084 995.839 Q169.167 996.973 171.39 997.528 Q173.612 998.084 176.089 998.084 Q180.093 998.084 182.431 995.977 Q184.769 993.871 184.769 990.26 Q184.769 986.649 182.431 984.542 Q180.093 982.436 176.089 982.436 Q174.214 982.436 172.339 982.853 Q170.487 983.269 168.542 984.149 L168.542 966.788 Z" fill="#9eb1be" fill-rule="nonzero" fill-opacity="1" /><path clip-path="url(#clip240)" d="M47.6634 697.336 L55.3023 697.336 L55.3023 670.97 L46.9921 672.637 L46.9921 668.378 L55.256 666.711 L59.9319 666.711 L59.9319 697.336 L67.5707 697.336 L67.5707 701.271 L47.6634 701.271 L47.6634 697.336 Z" fill="#9eb1be" fill-rule="nonzero" fill-opacity="1" /><path clip-path="url(#clip240)" d="M87.0151 669.79 Q83.404 669.79 81.5753 673.355 Q79.7697 676.896 79.7697 684.026 Q79.7697 691.132 81.5753 694.697 Q83.404 698.239 87.0151 698.239 Q90.6493 698.239 92.4548 694.697 Q94.2835 691.132 94.2835 684.026 Q94.2835 676.896 92.4548 673.355 Q90.6493 669.79 87.0151 669.79 M87.0151 666.086 Q92.8252 666.086 95.8808 670.693 Q98.9594 675.276 98.9594 684.026 Q98.9594 692.753 95.8808 697.359 Q92.8252 701.943 87.0151 701.943 Q81.2049 701.943 78.1262 697.359 Q75.0707 692.753 75.0707 684.026 Q75.0707 675.276 78.1262 670.693 Q81.2049 666.086 87.0151 666.086 Z" fill="#9eb1be" fill-rule="nonzero" fill-opacity="1" /><path clip-path="url(#clip240)" d="M117.177 669.79 Q113.566 669.79 111.737 673.355 Q109.932 676.896 109.932 684.026 Q109.932 691.132 111.737 694.697 Q113.566 698.239 117.177 698.239 Q120.811 698.239 122.617 694.697 Q124.445 691.132 124.445 684.026 Q124.445 676.896 122.617 673.355 Q120.811 669.79 117.177 669.79 M117.177 666.086 Q122.987 666.086 126.043 670.693 Q129.121 675.276 129.121 684.026 Q129.121 692.753 126.043 697.359 Q122.987 701.943 117.177 701.943 Q111.367 701.943 108.288 697.359 Q105.233 692.753 105.233 684.026 Q105.233 675.276 108.288 670.693 Q111.367 666.086 117.177 666.086 Z" fill="#9eb1be" fill-rule="nonzero" fill-opacity="1" /><path clip-path="url(#clip240)" d="M147.339 669.79 Q143.728 669.79 141.899 673.355 Q140.093 676.896 140.093 684.026 Q140.093 691.132 141.899 694.697 Q143.728 698.239 147.339 698.239 Q150.973 698.239 152.779 694.697 Q154.607 691.132 154.607 684.026 Q154.607 676.896 152.779 673.355 Q150.973 669.79 147.339 669.79 M147.339 666.086 Q153.149 666.086 156.205 670.693 Q159.283 675.276 159.283 684.026 Q159.283 692.753 156.205 697.359 Q153.149 701.943 147.339 701.943 Q141.529 701.943 138.45 697.359 Q135.394 692.753 135.394 684.026 Q135.394 675.276 138.45 670.693 Q141.529 666.086 147.339 666.086 Z" fill="#9eb1be" fill-rule="nonzero" fill-opacity="1" /><path clip-path="url(#clip240)" d="M177.501 669.79 Q173.89 669.79 172.061 673.355 Q170.255 676.896 170.255 684.026 Q170.255 691.132 172.061 694.697 Q173.89 698.239 177.501 698.239 Q181.135 698.239 182.94 694.697 Q184.769 691.132 184.769 684.026 Q184.769 676.896 182.94 673.355 Q181.135 669.79 177.501 669.79 M177.501 666.086 Q183.311 666.086 186.366 670.693 Q189.445 675.276 189.445 684.026 Q189.445 692.753 186.366 697.359 Q183.311 701.943 177.501 701.943 Q171.691 701.943 168.612 697.359 Q165.556 692.753 165.556 684.026 Q165.556 675.276 168.612 670.693 Q171.691 666.086 177.501 666.086 Z" fill="#9eb1be" fill-rule="nonzero" fill-opacity="1" /><path clip-path="url(#clip240)" d="M48.6588 397.26 L56.2976 397.26 L56.2976 370.894 L47.9875 372.561 L47.9875 368.301 L56.2513 366.635 L60.9272 366.635 L60.9272 397.26 L68.5661 397.26 L68.5661 401.195 L48.6588 401.195 L48.6588 397.26 Z" fill="#9eb1be" fill-rule="nonzero" fill-opacity="1" /><path clip-path="url(#clip240)" d="M88.0104 369.713 Q84.3993 369.713 82.5706 373.278 Q80.7651 376.82 80.7651 383.949 Q80.7651 391.056 82.5706 394.621 Q84.3993 398.162 88.0104 398.162 Q91.6447 398.162 93.4502 394.621 Q95.2789 391.056 95.2789 383.949 Q95.2789 376.82 93.4502 373.278 Q91.6447 369.713 88.0104 369.713 M88.0104 366.01 Q93.8206 366.01 96.8761 370.616 Q99.9548 375.199 99.9548 383.949 Q99.9548 392.676 96.8761 397.283 Q93.8206 401.866 88.0104 401.866 Q82.2003 401.866 79.1216 397.283 Q76.066 392.676 76.066 383.949 Q76.066 375.199 79.1216 370.616 Q82.2003 366.01 88.0104 366.01 Z" fill="#9eb1be" fill-rule="nonzero" fill-opacity="1" /><path clip-path="url(#clip240)" d="M118.172 369.713 Q114.561 369.713 112.733 373.278 Q110.927 376.82 110.927 383.949 Q110.927 391.056 112.733 394.621 Q114.561 398.162 118.172 398.162 Q121.807 398.162 123.612 394.621 Q125.441 391.056 125.441 383.949 Q125.441 376.82 123.612 373.278 Q121.807 369.713 118.172 369.713 M118.172 366.01 Q123.982 366.01 127.038 370.616 Q130.117 375.199 130.117 383.949 Q130.117 392.676 127.038 397.283 Q123.982 401.866 118.172 401.866 Q112.362 401.866 109.283 397.283 Q106.228 392.676 106.228 383.949 Q106.228 375.199 109.283 370.616 Q112.362 366.01 118.172 366.01 Z" fill="#9eb1be" fill-rule="nonzero" fill-opacity="1" /><path clip-path="url(#clip240)" d="M148.334 369.713 Q144.723 369.713 142.894 373.278 Q141.089 376.82 141.089 383.949 Q141.089 391.056 142.894 394.621 Q144.723 398.162 148.334 398.162 Q151.968 398.162 153.774 394.621 Q155.603 391.056 155.603 383.949 Q155.603 376.82 153.774 373.278 Q151.968 369.713 148.334 369.713 M148.334 366.01 Q154.144 366.01 157.2 370.616 Q160.279 375.199 160.279 383.949 Q160.279 392.676 157.2 397.283 Q154.144 401.866 148.334 401.866 Q142.524 401.866 139.445 397.283 Q136.39 392.676 136.39 383.949 Q136.39 375.199 139.445 370.616 Q142.524 366.01 148.334 366.01 Z" fill="#9eb1be" fill-rule="nonzero" fill-opacity="1" /><path clip-path="url(#clip240)" d="M168.542 366.635 L186.899 366.635 L186.899 370.57 L172.825 370.57 L172.825 379.042 Q173.843 378.695 174.862 378.533 Q175.88 378.348 176.899 378.348 Q182.686 378.348 186.065 381.519 Q189.445 384.69 189.445 390.107 Q189.445 395.685 185.973 398.787 Q182.501 401.866 176.181 401.866 Q174.005 401.866 171.737 401.496 Q169.491 401.125 167.084 400.385 L167.084 395.685 Q169.167 396.82 171.39 397.375 Q173.612 397.931 176.089 397.931 Q180.093 397.931 182.431 395.824 Q184.769 393.718 184.769 390.107 Q184.769 386.496 182.431 384.389 Q180.093 382.283 176.089 382.283 Q174.214 382.283 172.339 382.699 Q170.487 383.116 168.542 383.996 L168.542 366.635 Z" fill="#9eb1be" fill-rule="nonzero" fill-opacity="1" /><path clip-path="url(#clip240)" d="M237.445 8.64 L264.76 8.64 L264.76 13.559 L243.29 13.559 L243.29 26.3482 L263.863 26.3482 L263.863 31.2672 L243.29 31.2672 L243.29 46.921 L265.281 46.921 L265.281 51.84 L237.445 51.84 L237.445 8.64 Z" fill="#adb2b7" fill-rule="nonzero" fill-opacity="1" /><path clip-path="url(#clip240)" d="M277.838 35.6653 Q277.838 41.5391 280.24 44.8956 Q282.671 48.2231 286.895 48.2231 Q291.12 48.2231 293.55 44.8956 Q295.981 41.5391 295.981 35.6653 Q295.981 29.7915 293.55 26.464 Q291.12 23.1075 286.895 23.1075 Q282.671 23.1075 280.24 26.464 Q277.838 29.7915 277.838 35.6653 M295.981 46.9789 Q294.302 49.8724 291.727 51.2902 Q289.181 52.6791 285.593 52.6791 Q279.719 52.6791 276.015 47.9916 Q272.341 43.3042 272.341 35.6653 Q272.341 28.0265 276.015 23.339 Q279.719 18.6515 285.593 18.6515 Q289.181 18.6515 291.727 20.0693 Q294.302 21.4582 295.981 24.3517 L295.981 19.4328 L301.305 19.4328 L301.305 64.1663 L295.981 64.1663 L295.981 46.9789 Z" fill="#adb2b7" fill-rule="nonzero" fill-opacity="1" /><path clip-path="url(#clip240)" d="M311.721 39.0507 L311.721 19.4328 L317.045 19.4328 L317.045 38.8482 Q317.045 43.4488 318.839 45.7636 Q320.633 48.0495 324.221 48.0495 Q328.533 48.0495 331.021 45.3007 Q333.538 42.5519 333.538 37.8065 L333.538 19.4328 L338.862 19.4328 L338.862 51.84 L333.538 51.84 L333.538 46.8632 Q331.6 49.8145 329.024 51.2613 Q326.478 52.6791 323.093 52.6791 Q317.508 52.6791 314.615 49.2069 Q311.721 45.7347 311.721 39.0507 M325.118 18.6515 L325.118 18.6515 Z" fill="#adb2b7" fill-rule="nonzero" fill-opacity="1" /><path clip-path="url(#clip240)" d="M349.829 19.4328 L355.153 19.4328 L355.153 51.84 L349.829 51.84 L349.829 19.4328 M349.829 6.81709 L355.153 6.81709 L355.153 13.559 L349.829 13.559 L349.829 6.81709 Z" fill="#adb2b7" fill-rule="nonzero" fill-opacity="1" /><path clip-path="url(#clip240)" d="M371.559 10.2314 L371.559 19.4328 L382.525 19.4328 L382.525 23.5705 L371.559 23.5705 L371.559 41.163 Q371.559 45.1271 372.63 46.2555 Q373.729 47.384 377.057 47.384 L382.525 47.384 L382.525 51.84 L377.057 51.84 Q370.893 51.84 368.55 49.5541 Q366.206 47.2393 366.206 41.163 L366.206 23.5705 L362.3 23.5705 L362.3 19.4328 L366.206 19.4328 L366.206 10.2314 L371.559 10.2314 Z" fill="#adb2b7" fill-rule="nonzero" fill-opacity="1" /><path clip-path="url(#clip240)" d="M403.011 54.8492 Q400.754 60.6362 398.613 62.4013 Q396.472 64.1663 392.884 64.1663 L388.631 64.1663 L388.631 59.7103 L391.756 59.7103 Q393.955 59.7103 395.17 58.6687 Q396.385 57.627 397.861 53.7497 L398.816 51.3192 L385.708 19.4328 L391.35 19.4328 L401.478 44.7799 L411.605 19.4328 L417.247 19.4328 L403.011 54.8492 Z" fill="#adb2b7" fill-rule="nonzero" fill-opacity="1" /><polyline clip-path="url(#clip241)" style="stroke:#bbbb00; stroke-linecap:round; stroke-linejoin:round; stroke-width:4; stroke-opacity:1; fill:none" points="319.954,683.991 870.013,683.991 870.013,744.607 1420.07,744.607 1420.07,1644.84 1970.13,1644.84 1970.13,144.454 2520.19,144.454 2520.19,805.222 3070.25,805.222 "/>
</svg>
