<?xml version="1.0" encoding="utf-8"?>
<svg xmlns="http://www.w3.org/2000/svg" xmlns:xlink="http://www.w3.org/1999/xlink" width="600" height="400" viewBox="0 0 2400 1600">
<defs>
  <clipPath id="clip720">
    <rect x="0" y="0" width="2400" height="1600"/>
  </clipPath>
</defs>
<path clip-path="url(#clip720)" d="M0 1600 L2400 1600 L2400 0 L0 0  Z" fill="#282c34" fill-rule="evenodd" fill-opacity="1"/>
<defs>
  <clipPath id="clip721">
    <rect x="156" y="106" width="2197" height="1381"/>
  </clipPath>
</defs>
<path clip-path="url(#clip720)" d="M156.598 1486.45 L2352.76 1486.45 L2352.76 106.192 L156.598 106.192  Z" fill="#21252b" fill-rule="evenodd" fill-opacity="1"/>
<polyline clip-path="url(#clip721)" style="stroke:#adb2b7; stroke-linecap:round; stroke-linejoin:round; stroke-width:2; stroke-opacity:0.1; fill:none" points="218.754,1486.45 218.754,106.192 "/>
<polyline clip-path="url(#clip721)" style="stroke:#adb2b7; stroke-linecap:round; stroke-linejoin:round; stroke-width:2; stroke-opacity:0.1; fill:none" points="791.12,1486.45 791.12,106.192 "/>
<polyline clip-path="url(#clip721)" style="stroke:#adb2b7; stroke-linecap:round; stroke-linejoin:round; stroke-width:2; stroke-opacity:0.1; fill:none" points="1363.49,1486.45 1363.49,106.192 "/>
<polyline clip-path="url(#clip721)" style="stroke:#adb2b7; stroke-linecap:round; stroke-linejoin:round; stroke-width:2; stroke-opacity:0.1; fill:none" points="1935.85,1486.45 1935.85,106.192 "/>
<polyline clip-path="url(#clip721)" style="stroke:#adb2b7; stroke-linecap:round; stroke-linejoin:round; stroke-width:2; stroke-opacity:0.1; fill:none" points="156.598,1417.64 2352.76,1417.64 "/>
<polyline clip-path="url(#clip721)" style="stroke:#adb2b7; stroke-linecap:round; stroke-linejoin:round; stroke-width:2; stroke-opacity:0.1; fill:none" points="156.598,1204.28 2352.76,1204.28 "/>
<polyline clip-path="url(#clip721)" style="stroke:#adb2b7; stroke-linecap:round; stroke-linejoin:round; stroke-width:2; stroke-opacity:0.1; fill:none" points="156.598,990.918 2352.76,990.918 "/>
<polyline clip-path="url(#clip721)" style="stroke:#adb2b7; stroke-linecap:round; stroke-linejoin:round; stroke-width:2; stroke-opacity:0.1; fill:none" points="156.598,777.558 2352.76,777.558 "/>
<polyline clip-path="url(#clip721)" style="stroke:#adb2b7; stroke-linecap:round; stroke-linejoin:round; stroke-width:2; stroke-opacity:0.1; fill:none" points="156.598,564.197 2352.76,564.197 "/>
<polyline clip-path="url(#clip721)" style="stroke:#adb2b7; stroke-linecap:round; stroke-linejoin:round; stroke-width:2; stroke-opacity:0.1; fill:none" points="156.598,350.837 2352.76,350.837 "/>
<polyline clip-path="url(#clip721)" style="stroke:#adb2b7; stroke-linecap:round; stroke-linejoin:round; stroke-width:2; stroke-opacity:0.1; fill:none" points="156.598,137.477 2352.76,137.477 "/>
<polyline clip-path="url(#clip720)" style="stroke:#adb2b7; stroke-linecap:round; stroke-linejoin:round; stroke-width:4; stroke-opacity:1; fill:none" points="156.598,1486.45 2352.76,1486.45 "/>
<polyline clip-path="url(#clip720)" style="stroke:#adb2b7; stroke-linecap:round; stroke-linejoin:round; stroke-width:4; stroke-opacity:1; fill:none" points="218.754,1486.45 218.754,1467.55 "/>
<polyline clip-path="url(#clip720)" style="stroke:#adb2b7; stroke-linecap:round; stroke-linejoin:round; stroke-width:4; stroke-opacity:1; fill:none" points="791.12,1486.45 791.12,1467.55 "/>
<polyline clip-path="url(#clip720)" style="stroke:#adb2b7; stroke-linecap:round; stroke-linejoin:round; stroke-width:4; stroke-opacity:1; fill:none" points="1363.49,1486.45 1363.49,1467.55 "/>
<polyline clip-path="url(#clip720)" style="stroke:#adb2b7; stroke-linecap:round; stroke-linejoin:round; stroke-width:4; stroke-opacity:1; fill:none" points="1935.85,1486.45 1935.85,1467.55 "/>
<path clip-path="url(#clip720)" d="M90.7335 1544.91 L107.053 1544.91 L107.053 1548.85 L85.1085 1548.85 L85.1085 1544.91 Q87.7705 1542.16 92.3539 1537.53 Q96.9603 1532.88 98.1409 1531.53 Q100.386 1529.01 101.266 1527.27 Q102.169 1525.51 102.169 1523.82 Q102.169 1521.07 100.224 1519.33 Q98.3029 1517.6 95.2011 1517.6 Q93.002 1517.6 90.5483 1518.36 Q88.1178 1519.13 85.34 1520.68 L85.34 1515.95 Q88.1641 1514.82 90.6178 1514.24 Q93.0714 1513.66 95.1085 1513.66 Q100.479 1513.66 103.673 1516.35 Q106.868 1519.03 106.868 1523.52 Q106.868 1525.65 106.057 1527.57 Q105.27 1529.47 103.164 1532.07 Q102.585 1532.74 99.4834 1535.95 Q96.3816 1539.15 90.7335 1544.91 Z" fill="#9eb1be" fill-rule="nonzero" fill-opacity="1" /><path clip-path="url(#clip720)" d="M126.868 1517.37 Q123.256 1517.37 121.428 1520.93 Q119.622 1524.47 119.622 1531.6 Q119.622 1538.71 121.428 1542.27 Q123.256 1545.82 126.868 1545.82 Q130.502 1545.82 132.307 1542.27 Q134.136 1538.71 134.136 1531.6 Q134.136 1524.47 132.307 1520.93 Q130.502 1517.37 126.868 1517.37 M126.868 1513.66 Q132.678 1513.66 135.733 1518.27 Q138.812 1522.85 138.812 1531.6 Q138.812 1540.33 135.733 1544.94 Q132.678 1549.52 126.868 1549.52 Q121.057 1549.52 117.979 1544.94 Q114.923 1540.33 114.923 1531.6 Q114.923 1522.85 117.979 1518.27 Q121.057 1513.66 126.868 1513.66 Z" fill="#9eb1be" fill-rule="nonzero" fill-opacity="1" /><path clip-path="url(#clip720)" d="M151.057 1544.91 L167.377 1544.91 L167.377 1548.85 L145.432 1548.85 L145.432 1544.91 Q148.094 1542.16 152.678 1537.53 Q157.284 1532.88 158.465 1531.53 Q160.71 1529.01 161.59 1527.27 Q162.492 1525.51 162.492 1523.82 Q162.492 1521.07 160.548 1519.33 Q158.627 1517.6 155.525 1517.6 Q153.326 1517.6 150.872 1518.36 Q148.442 1519.13 145.664 1520.68 L145.664 1515.95 Q148.488 1514.82 150.942 1514.24 Q153.395 1513.66 155.432 1513.66 Q160.803 1513.66 163.997 1516.35 Q167.191 1519.03 167.191 1523.52 Q167.191 1525.65 166.381 1527.57 Q165.594 1529.47 163.488 1532.07 Q162.909 1532.74 159.807 1535.95 Q156.705 1539.15 151.057 1544.91 Z" fill="#9eb1be" fill-rule="nonzero" fill-opacity="1" /><path clip-path="url(#clip720)" d="M190.039 1518.36 L178.233 1536.81 L190.039 1536.81 L190.039 1518.36 M188.812 1514.29 L194.691 1514.29 L194.691 1536.81 L199.622 1536.81 L199.622 1540.7 L194.691 1540.7 L194.691 1548.85 L190.039 1548.85 L190.039 1540.7 L174.437 1540.7 L174.437 1536.19 L188.812 1514.29 Z" fill="#9eb1be" fill-rule="nonzero" fill-opacity="1" /><path clip-path="url(#clip720)" d="M204.599 1533.96 L217.075 1533.96 L217.075 1537.76 L204.599 1537.76 L204.599 1533.96 Z" fill="#9eb1be" fill-rule="nonzero" fill-opacity="1" /><path clip-path="url(#clip720)" d="M234.46 1517.37 Q230.848 1517.37 229.02 1520.93 Q227.214 1524.47 227.214 1531.6 Q227.214 1538.71 229.02 1542.27 Q230.848 1545.82 234.46 1545.82 Q238.094 1545.82 239.899 1542.27 Q241.728 1538.71 241.728 1531.6 Q241.728 1524.47 239.899 1520.93 Q238.094 1517.37 234.46 1517.37 M234.46 1513.66 Q240.27 1513.66 243.325 1518.27 Q246.404 1522.85 246.404 1531.6 Q246.404 1540.33 243.325 1544.94 Q240.27 1549.52 234.46 1549.52 Q228.649 1549.52 225.571 1544.94 Q222.515 1540.33 222.515 1531.6 Q222.515 1522.85 225.571 1518.27 Q228.649 1513.66 234.46 1513.66 Z" fill="#9eb1be" fill-rule="nonzero" fill-opacity="1" /><path clip-path="url(#clip720)" d="M255.432 1544.91 L263.071 1544.91 L263.071 1518.55 L254.76 1520.21 L254.76 1515.95 L263.024 1514.29 L267.7 1514.29 L267.7 1544.91 L275.339 1544.91 L275.339 1548.85 L255.432 1548.85 L255.432 1544.91 Z" fill="#9eb1be" fill-rule="nonzero" fill-opacity="1" /><path clip-path="url(#clip720)" d="M282.029 1533.96 L294.506 1533.96 L294.506 1537.76 L282.029 1537.76 L282.029 1533.96 Z" fill="#9eb1be" fill-rule="nonzero" fill-opacity="1" /><path clip-path="url(#clip720)" d="M311.89 1517.37 Q308.279 1517.37 306.45 1520.93 Q304.644 1524.47 304.644 1531.6 Q304.644 1538.71 306.45 1542.27 Q308.279 1545.82 311.89 1545.82 Q315.524 1545.82 317.33 1542.27 Q319.158 1538.71 319.158 1531.6 Q319.158 1524.47 317.33 1520.93 Q315.524 1517.37 311.89 1517.37 M311.89 1513.66 Q317.7 1513.66 320.755 1518.27 Q323.834 1522.85 323.834 1531.6 Q323.834 1540.33 320.755 1544.94 Q317.7 1549.52 311.89 1549.52 Q306.08 1549.52 303.001 1544.94 Q299.945 1540.33 299.945 1531.6 Q299.945 1522.85 303.001 1518.27 Q306.08 1513.66 311.89 1513.66 Z" fill="#9eb1be" fill-rule="nonzero" fill-opacity="1" /><path clip-path="url(#clip720)" d="M336.079 1544.91 L352.399 1544.91 L352.399 1548.85 L330.454 1548.85 L330.454 1544.91 Q333.116 1542.16 337.7 1537.53 Q342.306 1532.88 343.487 1531.53 Q345.732 1529.01 346.612 1527.27 Q347.515 1525.51 347.515 1523.82 Q347.515 1521.07 345.57 1519.33 Q343.649 1517.6 340.547 1517.6 Q338.348 1517.6 335.894 1518.36 Q333.464 1519.13 330.686 1520.68 L330.686 1515.95 Q333.51 1514.82 335.964 1514.24 Q338.417 1513.66 340.454 1513.66 Q345.825 1513.66 349.019 1516.35 Q352.214 1519.03 352.214 1523.52 Q352.214 1525.65 351.403 1527.57 Q350.616 1529.47 348.51 1532.07 Q347.931 1532.74 344.829 1535.95 Q341.728 1539.15 336.079 1544.91 Z" fill="#9eb1be" fill-rule="nonzero" fill-opacity="1" /><path clip-path="url(#clip720)" d="M662.301 1544.91 L678.621 1544.91 L678.621 1548.85 L656.676 1548.85 L656.676 1544.91 Q659.338 1542.16 663.922 1537.53 Q668.528 1532.88 669.709 1531.53 Q671.954 1529.01 672.834 1527.27 Q673.736 1525.51 673.736 1523.82 Q673.736 1521.07 671.792 1519.33 Q669.871 1517.6 666.769 1517.6 Q664.57 1517.6 662.116 1518.36 Q659.685 1519.13 656.908 1520.68 L656.908 1515.95 Q659.732 1514.82 662.185 1514.24 Q664.639 1513.66 666.676 1513.66 Q672.047 1513.66 675.241 1516.35 Q678.435 1519.03 678.435 1523.52 Q678.435 1525.65 677.625 1527.57 Q676.838 1529.47 674.732 1532.07 Q674.153 1532.74 671.051 1535.95 Q667.949 1539.15 662.301 1544.91 Z" fill="#9eb1be" fill-rule="nonzero" fill-opacity="1" /><path clip-path="url(#clip720)" d="M698.435 1517.37 Q694.824 1517.37 692.995 1520.93 Q691.19 1524.47 691.19 1531.6 Q691.19 1538.71 692.995 1542.27 Q694.824 1545.82 698.435 1545.82 Q702.07 1545.82 703.875 1542.27 Q705.704 1538.71 705.704 1531.6 Q705.704 1524.47 703.875 1520.93 Q702.07 1517.37 698.435 1517.37 M698.435 1513.66 Q704.245 1513.66 707.301 1518.27 Q710.38 1522.85 710.38 1531.6 Q710.38 1540.33 707.301 1544.94 Q704.245 1549.52 698.435 1549.52 Q692.625 1549.52 689.546 1544.94 Q686.491 1540.33 686.491 1531.6 Q686.491 1522.85 689.546 1518.27 Q692.625 1513.66 698.435 1513.66 Z" fill="#9eb1be" fill-rule="nonzero" fill-opacity="1" /><path clip-path="url(#clip720)" d="M722.625 1544.91 L738.944 1544.91 L738.944 1548.85 L717 1548.85 L717 1544.91 Q719.662 1542.16 724.245 1537.53 Q728.852 1532.88 730.032 1531.53 Q732.278 1529.01 733.157 1527.27 Q734.06 1525.51 734.06 1523.82 Q734.06 1521.07 732.116 1519.33 Q730.194 1517.6 727.093 1517.6 Q724.893 1517.6 722.44 1518.36 Q720.009 1519.13 717.231 1520.68 L717.231 1515.95 Q720.056 1514.82 722.509 1514.24 Q724.963 1513.66 727 1513.66 Q732.37 1513.66 735.565 1516.35 Q738.759 1519.03 738.759 1523.52 Q738.759 1525.65 737.949 1527.57 Q737.162 1529.47 735.055 1532.07 Q734.477 1532.74 731.375 1535.95 Q728.273 1539.15 722.625 1544.91 Z" fill="#9eb1be" fill-rule="nonzero" fill-opacity="1" /><path clip-path="url(#clip720)" d="M761.606 1518.36 L749.801 1536.81 L761.606 1536.81 L761.606 1518.36 M760.379 1514.29 L766.259 1514.29 L766.259 1536.81 L771.19 1536.81 L771.19 1540.7 L766.259 1540.7 L766.259 1548.85 L761.606 1548.85 L761.606 1540.7 L746.004 1540.7 L746.004 1536.19 L760.379 1514.29 Z" fill="#9eb1be" fill-rule="nonzero" fill-opacity="1" /><path clip-path="url(#clip720)" d="M776.166 1533.96 L788.643 1533.96 L788.643 1537.76 L776.166 1537.76 L776.166 1533.96 Z" fill="#9eb1be" fill-rule="nonzero" fill-opacity="1" /><path clip-path="url(#clip720)" d="M806.027 1517.37 Q802.416 1517.37 800.588 1520.93 Q798.782 1524.47 798.782 1531.6 Q798.782 1538.71 800.588 1542.27 Q802.416 1545.82 806.027 1545.82 Q809.662 1545.82 811.467 1542.27 Q813.296 1538.71 813.296 1531.6 Q813.296 1524.47 811.467 1520.93 Q809.662 1517.37 806.027 1517.37 M806.027 1513.66 Q811.837 1513.66 814.893 1518.27 Q817.972 1522.85 817.972 1531.6 Q817.972 1540.33 814.893 1544.94 Q811.837 1549.52 806.027 1549.52 Q800.217 1549.52 797.138 1544.94 Q794.083 1540.33 794.083 1531.6 Q794.083 1522.85 797.138 1518.27 Q800.217 1513.66 806.027 1513.66 Z" fill="#9eb1be" fill-rule="nonzero" fill-opacity="1" /><path clip-path="url(#clip720)" d="M826.999 1544.91 L834.638 1544.91 L834.638 1518.55 L826.328 1520.21 L826.328 1515.95 L834.592 1514.29 L839.268 1514.29 L839.268 1544.91 L846.907 1544.91 L846.907 1548.85 L826.999 1548.85 L826.999 1544.91 Z" fill="#9eb1be" fill-rule="nonzero" fill-opacity="1" /><path clip-path="url(#clip720)" d="M853.596 1533.96 L866.073 1533.96 L866.073 1537.76 L853.596 1537.76 L853.596 1533.96 Z" fill="#9eb1be" fill-rule="nonzero" fill-opacity="1" /><path clip-path="url(#clip720)" d="M874.268 1544.91 L881.907 1544.91 L881.907 1518.55 L873.596 1520.21 L873.596 1515.95 L881.86 1514.29 L886.536 1514.29 L886.536 1544.91 L894.175 1544.91 L894.175 1548.85 L874.268 1548.85 L874.268 1544.91 Z" fill="#9eb1be" fill-rule="nonzero" fill-opacity="1" /><path clip-path="url(#clip720)" d="M913.619 1517.37 Q910.008 1517.37 908.18 1520.93 Q906.374 1524.47 906.374 1531.6 Q906.374 1538.71 908.18 1542.27 Q910.008 1545.82 913.619 1545.82 Q917.254 1545.82 919.059 1542.27 Q920.888 1538.71 920.888 1531.6 Q920.888 1524.47 919.059 1520.93 Q917.254 1517.37 913.619 1517.37 M913.619 1513.66 Q919.429 1513.66 922.485 1518.27 Q925.564 1522.85 925.564 1531.6 Q925.564 1540.33 922.485 1544.94 Q919.429 1549.52 913.619 1549.52 Q907.809 1549.52 904.73 1544.94 Q901.675 1540.33 901.675 1531.6 Q901.675 1522.85 904.73 1518.27 Q907.809 1513.66 913.619 1513.66 Z" fill="#9eb1be" fill-rule="nonzero" fill-opacity="1" /><path clip-path="url(#clip720)" d="M1234.71 1544.91 L1251.03 1544.91 L1251.03 1548.85 L1229.09 1548.85 L1229.09 1544.91 Q1231.75 1542.16 1236.33 1537.53 Q1240.94 1532.88 1242.12 1531.53 Q1244.37 1529.01 1245.25 1527.27 Q1246.15 1525.51 1246.15 1523.82 Q1246.15 1521.07 1244.2 1519.33 Q1242.28 1517.6 1239.18 1517.6 Q1236.98 1517.6 1234.53 1518.36 Q1232.1 1519.13 1229.32 1520.68 L1229.32 1515.95 Q1232.14 1514.82 1234.6 1514.24 Q1237.05 1513.66 1239.09 1513.66 Q1244.46 1513.66 1247.65 1516.35 Q1250.85 1519.03 1250.85 1523.52 Q1250.85 1525.65 1250.04 1527.57 Q1249.25 1529.47 1247.14 1532.07 Q1246.57 1532.74 1243.46 1535.95 Q1240.36 1539.15 1234.71 1544.91 Z" fill="#9eb1be" fill-rule="nonzero" fill-opacity="1" /><path clip-path="url(#clip720)" d="M1270.85 1517.37 Q1267.24 1517.37 1265.41 1520.93 Q1263.6 1524.47 1263.6 1531.6 Q1263.6 1538.71 1265.41 1542.27 Q1267.24 1545.82 1270.85 1545.82 Q1274.48 1545.82 1276.29 1542.27 Q1278.12 1538.71 1278.12 1531.6 Q1278.12 1524.47 1276.29 1520.93 Q1274.48 1517.37 1270.85 1517.37 M1270.85 1513.66 Q1276.66 1513.66 1279.71 1518.27 Q1282.79 1522.85 1282.79 1531.6 Q1282.79 1540.33 1279.71 1544.94 Q1276.66 1549.52 1270.85 1549.52 Q1265.04 1549.52 1261.96 1544.94 Q1258.9 1540.33 1258.9 1531.6 Q1258.9 1522.85 1261.96 1518.27 Q1265.04 1513.66 1270.85 1513.66 Z" fill="#9eb1be" fill-rule="nonzero" fill-opacity="1" /><path clip-path="url(#clip720)" d="M1295.04 1544.91 L1311.36 1544.91 L1311.36 1548.85 L1289.41 1548.85 L1289.41 1544.91 Q1292.07 1542.16 1296.66 1537.53 Q1301.26 1532.88 1302.44 1531.53 Q1304.69 1529.01 1305.57 1527.27 Q1306.47 1525.51 1306.47 1523.82 Q1306.47 1521.07 1304.53 1519.33 Q1302.61 1517.6 1299.51 1517.6 Q1297.31 1517.6 1294.85 1518.36 Q1292.42 1519.13 1289.64 1520.68 L1289.64 1515.95 Q1292.47 1514.82 1294.92 1514.24 Q1297.38 1513.66 1299.41 1513.66 Q1304.78 1513.66 1307.98 1516.35 Q1311.17 1519.03 1311.17 1523.52 Q1311.17 1525.65 1310.36 1527.57 Q1309.57 1529.47 1307.47 1532.07 Q1306.89 1532.74 1303.79 1535.95 Q1300.69 1539.15 1295.04 1544.91 Z" fill="#9eb1be" fill-rule="nonzero" fill-opacity="1" /><path clip-path="url(#clip720)" d="M1334.02 1518.36 L1322.21 1536.81 L1334.02 1536.81 L1334.02 1518.36 M1332.79 1514.29 L1338.67 1514.29 L1338.67 1536.81 L1343.6 1536.81 L1343.6 1540.7 L1338.67 1540.7 L1338.67 1548.85 L1334.02 1548.85 L1334.02 1540.7 L1318.42 1540.7 L1318.42 1536.19 L1332.79 1514.29 Z" fill="#9eb1be" fill-rule="nonzero" fill-opacity="1" /><path clip-path="url(#clip720)" d="M1348.58 1533.96 L1361.06 1533.96 L1361.06 1537.76 L1348.58 1537.76 L1348.58 1533.96 Z" fill="#9eb1be" fill-rule="nonzero" fill-opacity="1" /><path clip-path="url(#clip720)" d="M1378.44 1517.37 Q1374.83 1517.37 1373 1520.93 Q1371.19 1524.47 1371.19 1531.6 Q1371.19 1538.71 1373 1542.27 Q1374.83 1545.82 1378.44 1545.82 Q1382.07 1545.82 1383.88 1542.27 Q1385.71 1538.71 1385.71 1531.6 Q1385.71 1524.47 1383.88 1520.93 Q1382.07 1517.37 1378.44 1517.37 M1378.44 1513.66 Q1384.25 1513.66 1387.31 1518.27 Q1390.38 1522.85 1390.38 1531.6 Q1390.38 1540.33 1387.31 1544.94 Q1384.25 1549.52 1378.44 1549.52 Q1372.63 1549.52 1369.55 1544.94 Q1366.5 1540.33 1366.5 1531.6 Q1366.5 1522.85 1369.55 1518.27 Q1372.63 1513.66 1378.44 1513.66 Z" fill="#9eb1be" fill-rule="nonzero" fill-opacity="1" /><path clip-path="url(#clip720)" d="M1399.41 1544.91 L1407.05 1544.91 L1407.05 1518.55 L1398.74 1520.21 L1398.74 1515.95 L1407 1514.29 L1411.68 1514.29 L1411.68 1544.91 L1419.32 1544.91 L1419.32 1548.85 L1399.41 1548.85 L1399.41 1544.91 Z" fill="#9eb1be" fill-rule="nonzero" fill-opacity="1" /><path clip-path="url(#clip720)" d="M1426.01 1533.96 L1438.49 1533.96 L1438.49 1537.76 L1426.01 1537.76 L1426.01 1533.96 Z" fill="#9eb1be" fill-rule="nonzero" fill-opacity="1" /><path clip-path="url(#clip720)" d="M1446.68 1544.91 L1454.32 1544.91 L1454.32 1518.55 L1446.01 1520.21 L1446.01 1515.95 L1454.27 1514.29 L1458.95 1514.29 L1458.95 1544.91 L1466.59 1544.91 L1466.59 1548.85 L1446.68 1548.85 L1446.68 1544.91 Z" fill="#9eb1be" fill-rule="nonzero" fill-opacity="1" /><path clip-path="url(#clip720)" d="M1486.03 1532.44 Q1482.7 1532.44 1480.78 1534.22 Q1478.88 1536 1478.88 1539.13 Q1478.88 1542.25 1480.78 1544.03 Q1482.7 1545.82 1486.03 1545.82 Q1489.37 1545.82 1491.29 1544.03 Q1493.21 1542.23 1493.21 1539.13 Q1493.21 1536 1491.29 1534.22 Q1489.39 1532.44 1486.03 1532.44 M1481.36 1530.45 Q1478.35 1529.7 1476.66 1527.64 Q1474.99 1525.58 1474.99 1522.62 Q1474.99 1518.48 1477.93 1516.07 Q1480.89 1513.66 1486.03 1513.66 Q1491.19 1513.66 1494.13 1516.07 Q1497.07 1518.48 1497.07 1522.62 Q1497.07 1525.58 1495.38 1527.64 Q1493.72 1529.7 1490.73 1530.45 Q1494.11 1531.23 1495.99 1533.52 Q1497.88 1535.82 1497.88 1539.13 Q1497.88 1544.15 1494.81 1546.83 Q1491.75 1549.52 1486.03 1549.52 Q1480.31 1549.52 1477.24 1546.83 Q1474.18 1544.15 1474.18 1539.13 Q1474.18 1535.82 1476.08 1533.52 Q1477.98 1531.23 1481.36 1530.45 M1479.64 1523.06 Q1479.64 1525.75 1481.31 1527.25 Q1483 1528.76 1486.03 1528.76 Q1489.04 1528.76 1490.73 1527.25 Q1492.44 1525.75 1492.44 1523.06 Q1492.44 1520.38 1490.73 1518.87 Q1489.04 1517.37 1486.03 1517.37 Q1483 1517.37 1481.31 1518.87 Q1479.64 1520.38 1479.64 1523.06 Z" fill="#9eb1be" fill-rule="nonzero" fill-opacity="1" /><path clip-path="url(#clip720)" d="M1806.95 1544.91 L1823.27 1544.91 L1823.27 1548.85 L1801.33 1548.85 L1801.33 1544.91 Q1803.99 1542.16 1808.57 1537.53 Q1813.18 1532.88 1814.36 1531.53 Q1816.61 1529.01 1817.49 1527.27 Q1818.39 1525.51 1818.39 1523.82 Q1818.39 1521.07 1816.44 1519.33 Q1814.52 1517.6 1811.42 1517.6 Q1809.22 1517.6 1806.77 1518.36 Q1804.34 1519.13 1801.56 1520.68 L1801.56 1515.95 Q1804.38 1514.82 1806.84 1514.24 Q1809.29 1513.66 1811.33 1513.66 Q1816.7 1513.66 1819.89 1516.35 Q1823.09 1519.03 1823.09 1523.52 Q1823.09 1525.65 1822.28 1527.57 Q1821.49 1529.47 1819.38 1532.07 Q1818.8 1532.74 1815.7 1535.95 Q1812.6 1539.15 1806.95 1544.91 Z" fill="#9eb1be" fill-rule="nonzero" fill-opacity="1" /><path clip-path="url(#clip720)" d="M1843.09 1517.37 Q1839.48 1517.37 1837.65 1520.93 Q1835.84 1524.47 1835.84 1531.6 Q1835.84 1538.71 1837.65 1542.27 Q1839.48 1545.82 1843.09 1545.82 Q1846.72 1545.82 1848.53 1542.27 Q1850.36 1538.71 1850.36 1531.6 Q1850.36 1524.47 1848.53 1520.93 Q1846.72 1517.37 1843.09 1517.37 M1843.09 1513.66 Q1848.9 1513.66 1851.95 1518.27 Q1855.03 1522.85 1855.03 1531.6 Q1855.03 1540.33 1851.95 1544.94 Q1848.9 1549.52 1843.09 1549.52 Q1837.28 1549.52 1834.2 1544.94 Q1831.14 1540.33 1831.14 1531.6 Q1831.14 1522.85 1834.2 1518.27 Q1837.28 1513.66 1843.09 1513.66 Z" fill="#9eb1be" fill-rule="nonzero" fill-opacity="1" /><path clip-path="url(#clip720)" d="M1867.28 1544.91 L1883.6 1544.91 L1883.6 1548.85 L1861.65 1548.85 L1861.65 1544.91 Q1864.31 1542.16 1868.9 1537.53 Q1873.5 1532.88 1874.68 1531.53 Q1876.93 1529.01 1877.81 1527.27 Q1878.71 1525.51 1878.71 1523.82 Q1878.71 1521.07 1876.77 1519.33 Q1874.85 1517.6 1871.74 1517.6 Q1869.55 1517.6 1867.09 1518.36 Q1864.66 1519.13 1861.88 1520.68 L1861.88 1515.95 Q1864.71 1514.82 1867.16 1514.24 Q1869.61 1513.66 1871.65 1513.66 Q1877.02 1513.66 1880.22 1516.35 Q1883.41 1519.03 1883.41 1523.52 Q1883.41 1525.65 1882.6 1527.57 Q1881.81 1529.47 1879.71 1532.07 Q1879.13 1532.74 1876.03 1535.95 Q1872.92 1539.15 1867.28 1544.91 Z" fill="#9eb1be" fill-rule="nonzero" fill-opacity="1" /><path clip-path="url(#clip720)" d="M1906.26 1518.36 L1894.45 1536.81 L1906.26 1536.81 L1906.26 1518.36 M1905.03 1514.29 L1910.91 1514.29 L1910.91 1536.81 L1915.84 1536.81 L1915.84 1540.7 L1910.91 1540.7 L1910.91 1548.85 L1906.26 1548.85 L1906.26 1540.7 L1890.66 1540.7 L1890.66 1536.19 L1905.03 1514.29 Z" fill="#9eb1be" fill-rule="nonzero" fill-opacity="1" /><path clip-path="url(#clip720)" d="M1920.82 1533.96 L1933.29 1533.96 L1933.29 1537.76 L1920.82 1537.76 L1920.82 1533.96 Z" fill="#9eb1be" fill-rule="nonzero" fill-opacity="1" /><path clip-path="url(#clip720)" d="M1950.68 1517.37 Q1947.07 1517.37 1945.24 1520.93 Q1943.43 1524.47 1943.43 1531.6 Q1943.43 1538.71 1945.24 1542.27 Q1947.07 1545.82 1950.68 1545.82 Q1954.31 1545.82 1956.12 1542.27 Q1957.95 1538.71 1957.95 1531.6 Q1957.95 1524.47 1956.12 1520.93 Q1954.31 1517.37 1950.68 1517.37 M1950.68 1513.66 Q1956.49 1513.66 1959.54 1518.27 Q1962.62 1522.85 1962.62 1531.6 Q1962.62 1540.33 1959.54 1544.94 Q1956.49 1549.52 1950.68 1549.52 Q1944.87 1549.52 1941.79 1544.94 Q1938.73 1540.33 1938.73 1531.6 Q1938.73 1522.85 1941.79 1518.27 Q1944.87 1513.66 1950.68 1513.66 Z" fill="#9eb1be" fill-rule="nonzero" fill-opacity="1" /><path clip-path="url(#clip720)" d="M1971.65 1544.91 L1979.29 1544.91 L1979.29 1518.55 L1970.98 1520.21 L1970.98 1515.95 L1979.24 1514.29 L1983.92 1514.29 L1983.92 1544.91 L1991.56 1544.91 L1991.56 1548.85 L1971.65 1548.85 L1971.65 1544.91 Z" fill="#9eb1be" fill-rule="nonzero" fill-opacity="1" /><path clip-path="url(#clip720)" d="M1998.25 1533.96 L2010.72 1533.96 L2010.72 1537.76 L1998.25 1537.76 L1998.25 1533.96 Z" fill="#9eb1be" fill-rule="nonzero" fill-opacity="1" /><path clip-path="url(#clip720)" d="M2022.14 1544.91 L2038.46 1544.91 L2038.46 1548.85 L2016.51 1548.85 L2016.51 1544.91 Q2019.17 1542.16 2023.76 1537.53 Q2028.36 1532.88 2029.54 1531.53 Q2031.79 1529.01 2032.67 1527.27 Q2033.57 1525.51 2033.57 1523.82 Q2033.57 1521.07 2031.63 1519.33 Q2029.71 1517.6 2026.6 1517.6 Q2024.41 1517.6 2021.95 1518.36 Q2019.52 1519.13 2016.74 1520.68 L2016.74 1515.95 Q2019.57 1514.82 2022.02 1514.24 Q2024.47 1513.66 2026.51 1513.66 Q2031.88 1513.66 2035.08 1516.35 Q2038.27 1519.03 2038.27 1523.52 Q2038.27 1525.65 2037.46 1527.57 Q2036.67 1529.47 2034.57 1532.07 Q2033.99 1532.74 2030.89 1535.95 Q2027.78 1539.15 2022.14 1544.91 Z" fill="#9eb1be" fill-rule="nonzero" fill-opacity="1" /><path clip-path="url(#clip720)" d="M2058.85 1529.7 Q2055.7 1529.7 2053.85 1531.86 Q2052.02 1534.01 2052.02 1537.76 Q2052.02 1541.49 2053.85 1543.66 Q2055.7 1545.82 2058.85 1545.82 Q2062 1545.82 2063.83 1543.66 Q2065.68 1541.49 2065.68 1537.76 Q2065.68 1534.01 2063.83 1531.86 Q2062 1529.7 2058.85 1529.7 M2068.13 1515.05 L2068.13 1519.31 Q2066.37 1518.48 2064.57 1518.04 Q2062.78 1517.6 2061.03 1517.6 Q2056.4 1517.6 2053.94 1520.72 Q2051.51 1523.85 2051.16 1530.17 Q2052.53 1528.15 2054.59 1527.09 Q2056.65 1526 2059.13 1526 Q2064.34 1526 2067.34 1529.17 Q2070.38 1532.32 2070.38 1537.76 Q2070.38 1543.08 2067.23 1546.3 Q2064.08 1549.52 2058.85 1549.52 Q2052.85 1549.52 2049.68 1544.94 Q2046.51 1540.33 2046.51 1531.6 Q2046.51 1523.41 2050.4 1518.55 Q2054.29 1513.66 2060.84 1513.66 Q2062.6 1513.66 2064.38 1514.01 Q2066.19 1514.36 2068.13 1515.05 Z" fill="#9eb1be" fill-rule="nonzero" fill-opacity="1" /><polyline clip-path="url(#clip720)" style="stroke:#adb2b7; stroke-linecap:round; stroke-linejoin:round; stroke-width:4; stroke-opacity:1; fill:none" points="156.598,1486.45 156.598,106.192 "/>
<polyline clip-path="url(#clip720)" style="stroke:#adb2b7; stroke-linecap:round; stroke-linejoin:round; stroke-width:4; stroke-opacity:1; fill:none" points="156.598,1417.64 175.496,1417.64 "/>
<polyline clip-path="url(#clip720)" style="stroke:#adb2b7; stroke-linecap:round; stroke-linejoin:round; stroke-width:4; stroke-opacity:1; fill:none" points="156.598,1204.28 175.496,1204.28 "/>
<polyline clip-path="url(#clip720)" style="stroke:#adb2b7; stroke-linecap:round; stroke-linejoin:round; stroke-width:4; stroke-opacity:1; fill:none" points="156.598,990.918 175.496,990.918 "/>
<polyline clip-path="url(#clip720)" style="stroke:#adb2b7; stroke-linecap:round; stroke-linejoin:round; stroke-width:4; stroke-opacity:1; fill:none" points="156.598,777.558 175.496,777.558 "/>
<polyline clip-path="url(#clip720)" style="stroke:#adb2b7; stroke-linecap:round; stroke-linejoin:round; stroke-width:4; stroke-opacity:1; fill:none" points="156.598,564.197 175.496,564.197 "/>
<polyline clip-path="url(#clip720)" style="stroke:#adb2b7; stroke-linecap:round; stroke-linejoin:round; stroke-width:4; stroke-opacity:1; fill:none" points="156.598,350.837 175.496,350.837 "/>
<polyline clip-path="url(#clip720)" style="stroke:#adb2b7; stroke-linecap:round; stroke-linejoin:round; stroke-width:4; stroke-opacity:1; fill:none" points="156.598,137.477 175.496,137.477 "/>
<path clip-path="url(#clip720)" d="M63.4226 1403.44 Q59.8115 1403.44 57.9828 1407 Q56.1773 1410.54 56.1773 1417.67 Q56.1773 1424.78 57.9828 1428.34 Q59.8115 1431.89 63.4226 1431.89 Q67.0569 1431.89 68.8624 1428.34 Q70.6911 1424.78 70.6911 1417.67 Q70.6911 1410.54 68.8624 1407 Q67.0569 1403.44 63.4226 1403.44 M63.4226 1399.73 Q69.2328 1399.73 72.2883 1404.34 Q75.367 1408.92 75.367 1417.67 Q75.367 1426.4 72.2883 1431.01 Q69.2328 1435.59 63.4226 1435.59 Q57.6125 1435.59 54.5338 1431.01 Q51.4782 1426.4 51.4782 1417.67 Q51.4782 1408.92 54.5338 1404.34 Q57.6125 1399.73 63.4226 1399.73 Z" fill="#9eb1be" fill-rule="nonzero" fill-opacity="1" /><path clip-path="url(#clip720)" d="M83.5845 1429.04 L88.4688 1429.04 L88.4688 1434.92 L83.5845 1434.92 L83.5845 1429.04 Z" fill="#9eb1be" fill-rule="nonzero" fill-opacity="1" /><path clip-path="url(#clip720)" d="M108.654 1403.44 Q105.043 1403.44 103.214 1407 Q101.409 1410.54 101.409 1417.67 Q101.409 1424.78 103.214 1428.34 Q105.043 1431.89 108.654 1431.89 Q112.288 1431.89 114.094 1428.34 Q115.922 1424.78 115.922 1417.67 Q115.922 1410.54 114.094 1407 Q112.288 1403.44 108.654 1403.44 M108.654 1399.73 Q114.464 1399.73 117.52 1404.34 Q120.598 1408.92 120.598 1417.67 Q120.598 1426.4 117.52 1431.01 Q114.464 1435.59 108.654 1435.59 Q102.844 1435.59 99.765 1431.01 Q96.7095 1426.4 96.7095 1417.67 Q96.7095 1408.92 99.765 1404.34 Q102.844 1399.73 108.654 1399.73 Z" fill="#9eb1be" fill-rule="nonzero" fill-opacity="1" /><path clip-path="url(#clip720)" d="M64.6495 1190.08 Q61.0384 1190.08 59.2097 1193.64 Q57.4041 1197.18 57.4041 1204.31 Q57.4041 1211.42 59.2097 1214.98 Q61.0384 1218.53 64.6495 1218.53 Q68.2837 1218.53 70.0892 1214.98 Q71.9179 1211.42 71.9179 1204.31 Q71.9179 1197.18 70.0892 1193.64 Q68.2837 1190.08 64.6495 1190.08 M64.6495 1186.37 Q70.4596 1186.37 73.5152 1190.98 Q76.5938 1195.56 76.5938 1204.31 Q76.5938 1213.04 73.5152 1217.65 Q70.4596 1222.23 64.6495 1222.23 Q58.8393 1222.23 55.7606 1217.65 Q52.7051 1213.04 52.7051 1204.31 Q52.7051 1195.56 55.7606 1190.98 Q58.8393 1186.37 64.6495 1186.37 Z" fill="#9eb1be" fill-rule="nonzero" fill-opacity="1" /><path clip-path="url(#clip720)" d="M84.8114 1215.68 L89.6956 1215.68 L89.6956 1221.56 L84.8114 1221.56 L84.8114 1215.68 Z" fill="#9eb1be" fill-rule="nonzero" fill-opacity="1" /><path clip-path="url(#clip720)" d="M100.691 1217.62 L108.33 1217.62 L108.33 1191.26 L100.02 1192.92 L100.02 1188.67 L108.283 1187 L112.959 1187 L112.959 1217.62 L120.598 1217.62 L120.598 1221.56 L100.691 1221.56 L100.691 1217.62 Z" fill="#9eb1be" fill-rule="nonzero" fill-opacity="1" /><path clip-path="url(#clip720)" d="M65.0198 976.717 Q61.4087 976.717 59.58 980.282 Q57.7745 983.823 57.7745 990.953 Q57.7745 998.059 59.58 1001.62 Q61.4087 1005.17 65.0198 1005.17 Q68.6541 1005.17 70.4596 1001.62 Q72.2883 998.059 72.2883 990.953 Q72.2883 983.823 70.4596 980.282 Q68.6541 976.717 65.0198 976.717 M65.0198 973.013 Q70.83 973.013 73.8855 977.619 Q76.9642 982.203 76.9642 990.953 Q76.9642 999.68 73.8855 1004.29 Q70.83 1008.87 65.0198 1008.87 Q59.2097 1008.87 56.131 1004.29 Q53.0754 999.68 53.0754 990.953 Q53.0754 982.203 56.131 977.619 Q59.2097 973.013 65.0198 973.013 Z" fill="#9eb1be" fill-rule="nonzero" fill-opacity="1" /><path clip-path="url(#clip720)" d="M85.1818 1002.32 L90.066 1002.32 L90.066 1008.2 L85.1818 1008.2 L85.1818 1002.32 Z" fill="#9eb1be" fill-rule="nonzero" fill-opacity="1" /><path clip-path="url(#clip720)" d="M104.279 1004.26 L120.598 1004.26 L120.598 1008.2 L98.6539 1008.2 L98.6539 1004.26 Q101.316 1001.51 105.899 996.879 Q110.506 992.226 111.686 990.883 Q113.932 988.36 114.811 986.624 Q115.714 984.865 115.714 983.175 Q115.714 980.42 113.77 978.684 Q111.848 976.948 108.746 976.948 Q106.547 976.948 104.094 977.712 Q101.663 978.476 98.8854 980.027 L98.8854 975.305 Q101.709 974.17 104.163 973.592 Q106.617 973.013 108.654 973.013 Q114.024 973.013 117.219 975.698 Q120.413 978.383 120.413 982.874 Q120.413 985.004 119.603 986.925 Q118.816 988.823 116.709 991.416 Q116.131 992.087 113.029 995.305 Q109.927 998.499 104.279 1004.26 Z" fill="#9eb1be" fill-rule="nonzero" fill-opacity="1" /><path clip-path="url(#clip720)" d="M64.0708 763.356 Q60.4597 763.356 58.631 766.921 Q56.8254 770.463 56.8254 777.592 Q56.8254 784.699 58.631 788.264 Q60.4597 791.805 64.0708 791.805 Q67.705 791.805 69.5105 788.264 Q71.3392 784.699 71.3392 777.592 Q71.3392 770.463 69.5105 766.921 Q67.705 763.356 64.0708 763.356 M64.0708 759.653 Q69.8809 759.653 72.9365 764.259 Q76.0151 768.842 76.0151 777.592 Q76.0151 786.319 72.9365 790.926 Q69.8809 795.509 64.0708 795.509 Q58.2606 795.509 55.1819 790.926 Q52.1264 786.319 52.1264 777.592 Q52.1264 768.842 55.1819 764.259 Q58.2606 759.653 64.0708 759.653 Z" fill="#9eb1be" fill-rule="nonzero" fill-opacity="1" /><path clip-path="url(#clip720)" d="M84.2327 788.958 L89.1169 788.958 L89.1169 794.838 L84.2327 794.838 L84.2327 788.958 Z" fill="#9eb1be" fill-rule="nonzero" fill-opacity="1" /><path clip-path="url(#clip720)" d="M113.469 776.204 Q116.825 776.921 118.7 779.19 Q120.598 781.458 120.598 784.791 Q120.598 789.907 117.08 792.708 Q113.561 795.509 107.08 795.509 Q104.904 795.509 102.589 795.069 Q100.297 794.653 97.8437 793.796 L97.8437 789.282 Q99.7882 790.416 102.103 790.995 Q104.418 791.574 106.941 791.574 Q111.339 791.574 113.631 789.838 Q115.945 788.102 115.945 784.791 Q115.945 781.736 113.793 780.023 Q111.663 778.287 107.844 778.287 L103.816 778.287 L103.816 774.444 L108.029 774.444 Q111.478 774.444 113.307 773.079 Q115.135 771.69 115.135 769.097 Q115.135 766.435 113.237 765.023 Q111.362 763.588 107.844 763.588 Q105.922 763.588 103.723 764.005 Q101.524 764.421 98.8854 765.301 L98.8854 761.134 Q101.547 760.393 103.862 760.023 Q106.2 759.653 108.26 759.653 Q113.584 759.653 116.686 762.083 Q119.788 764.491 119.788 768.611 Q119.788 771.481 118.145 773.472 Q116.501 775.44 113.469 776.204 Z" fill="#9eb1be" fill-rule="nonzero" fill-opacity="1" /><path clip-path="url(#clip720)" d="M62.9365 549.996 Q59.3254 549.996 57.4967 553.561 Q55.6912 557.102 55.6912 564.232 Q55.6912 571.339 57.4967 574.903 Q59.3254 578.445 62.9365 578.445 Q66.5707 578.445 68.3763 574.903 Q70.205 571.339 70.205 564.232 Q70.205 557.102 68.3763 553.561 Q66.5707 549.996 62.9365 549.996 M62.9365 546.292 Q68.7467 546.292 71.8022 550.899 Q74.8809 555.482 74.8809 564.232 Q74.8809 572.959 71.8022 577.565 Q68.7467 582.149 62.9365 582.149 Q57.1264 582.149 54.0477 577.565 Q50.9921 572.959 50.9921 564.232 Q50.9921 555.482 54.0477 550.899 Q57.1264 546.292 62.9365 546.292 Z" fill="#9eb1be" fill-rule="nonzero" fill-opacity="1" /><path clip-path="url(#clip720)" d="M83.0984 575.598 L87.9827 575.598 L87.9827 581.477 L83.0984 581.477 L83.0984 575.598 Z" fill="#9eb1be" fill-rule="nonzero" fill-opacity="1" /><path clip-path="url(#clip720)" d="M111.015 550.991 L99.2095 569.44 L111.015 569.44 L111.015 550.991 M109.788 546.917 L115.668 546.917 L115.668 569.44 L120.598 569.44 L120.598 573.329 L115.668 573.329 L115.668 581.477 L111.015 581.477 L111.015 573.329 L95.4132 573.329 L95.4132 568.815 L109.788 546.917 Z" fill="#9eb1be" fill-rule="nonzero" fill-opacity="1" /><path clip-path="url(#clip720)" d="M64.418 336.636 Q60.8069 336.636 58.9782 340.201 Q57.1726 343.742 57.1726 350.872 Q57.1726 357.978 58.9782 361.543 Q60.8069 365.085 64.418 365.085 Q68.0522 365.085 69.8578 361.543 Q71.6865 357.978 71.6865 350.872 Q71.6865 343.742 69.8578 340.201 Q68.0522 336.636 64.418 336.636 M64.418 332.932 Q70.2281 332.932 73.2837 337.538 Q76.3624 342.122 76.3624 350.872 Q76.3624 359.599 73.2837 364.205 Q70.2281 368.788 64.418 368.788 Q58.6078 368.788 55.5291 364.205 Q52.4736 359.599 52.4736 350.872 Q52.4736 342.122 55.5291 337.538 Q58.6078 332.932 64.418 332.932 Z" fill="#9eb1be" fill-rule="nonzero" fill-opacity="1" /><path clip-path="url(#clip720)" d="M84.5799 362.237 L89.4641 362.237 L89.4641 368.117 L84.5799 368.117 L84.5799 362.237 Z" fill="#9eb1be" fill-rule="nonzero" fill-opacity="1" /><path clip-path="url(#clip720)" d="M99.6956 333.557 L118.052 333.557 L118.052 337.492 L103.978 337.492 L103.978 345.964 Q104.996 345.617 106.015 345.455 Q107.033 345.27 108.052 345.27 Q113.839 345.27 117.219 348.441 Q120.598 351.612 120.598 357.029 Q120.598 362.608 117.126 365.71 Q113.654 368.788 107.334 368.788 Q105.159 368.788 102.89 368.418 Q100.645 368.048 98.2372 367.307 L98.2372 362.608 Q100.321 363.742 102.543 364.298 Q104.765 364.853 107.242 364.853 Q111.246 364.853 113.584 362.747 Q115.922 360.64 115.922 357.029 Q115.922 353.418 113.584 351.312 Q111.246 349.205 107.242 349.205 Q105.367 349.205 103.492 349.622 Q101.64 350.038 99.6956 350.918 L99.6956 333.557 Z" fill="#9eb1be" fill-rule="nonzero" fill-opacity="1" /><path clip-path="url(#clip720)" d="M63.2606 123.275 Q59.6495 123.275 57.8208 126.84 Q56.0152 130.382 56.0152 137.511 Q56.0152 144.618 57.8208 148.183 Q59.6495 151.724 63.2606 151.724 Q66.8948 151.724 68.7004 148.183 Q70.5291 144.618 70.5291 137.511 Q70.5291 130.382 68.7004 126.84 Q66.8948 123.275 63.2606 123.275 M63.2606 119.572 Q69.0707 119.572 72.1263 124.178 Q75.205 128.761 75.205 137.511 Q75.205 146.238 72.1263 150.845 Q69.0707 155.428 63.2606 155.428 Q57.4504 155.428 54.3717 150.845 Q51.3162 146.238 51.3162 137.511 Q51.3162 128.761 54.3717 124.178 Q57.4504 119.572 63.2606 119.572 Z" fill="#9eb1be" fill-rule="nonzero" fill-opacity="1" /><path clip-path="url(#clip720)" d="M83.4225 148.877 L88.3067 148.877 L88.3067 154.757 L83.4225 154.757 L83.4225 148.877 Z" fill="#9eb1be" fill-rule="nonzero" fill-opacity="1" /><path clip-path="url(#clip720)" d="M109.071 135.613 Q105.922 135.613 104.071 137.766 Q102.242 139.919 102.242 143.669 Q102.242 147.396 104.071 149.572 Q105.922 151.724 109.071 151.724 Q112.219 151.724 114.047 149.572 Q115.899 147.396 115.899 143.669 Q115.899 139.919 114.047 137.766 Q112.219 135.613 109.071 135.613 M118.353 120.961 L118.353 125.22 Q116.594 124.386 114.788 123.947 Q113.006 123.507 111.246 123.507 Q106.617 123.507 104.163 126.632 Q101.733 129.757 101.385 136.076 Q102.751 134.062 104.811 132.998 Q106.871 131.91 109.348 131.91 Q114.557 131.91 117.566 135.081 Q120.598 138.229 120.598 143.669 Q120.598 148.993 117.45 152.21 Q114.302 155.428 109.071 155.428 Q103.075 155.428 99.9039 150.845 Q96.7326 146.238 96.7326 137.511 Q96.7326 129.317 100.621 124.456 Q104.51 119.572 111.061 119.572 Q112.82 119.572 114.603 119.919 Q116.408 120.266 118.353 120.961 Z" fill="#9eb1be" fill-rule="nonzero" fill-opacity="1" /><path clip-path="url(#clip720)" d="M177.084 31.5855 Q178.965 32.222 180.73 34.3054 Q182.524 36.3887 184.318 40.0345 L190.25 51.84 L183.971 51.84 L178.444 40.7579 Q176.303 36.4176 174.278 34.9998 Q172.281 33.582 168.809 33.582 L162.443 33.582 L162.443 51.84 L156.598 51.84 L156.598 8.64 L169.793 8.64 Q177.2 8.64 180.846 11.736 Q184.492 14.8321 184.492 21.0821 Q184.492 25.1619 182.582 27.8529 Q180.701 30.5438 177.084 31.5855 M162.443 13.4432 L162.443 28.7788 L169.793 28.7788 Q174.017 28.7788 176.158 26.8401 Q178.328 24.8726 178.328 21.0821 Q178.328 17.2916 176.158 15.3819 Q174.017 13.4432 169.793 13.4432 L162.443 13.4432 Z" fill="#adb2b7" fill-rule="nonzero" fill-opacity="1" /><path clip-path="url(#clip720)" d="M222.599 34.3054 L222.599 36.9095 L198.12 36.9095 Q198.467 42.4072 201.419 45.3007 Q204.399 48.1653 209.694 48.1653 Q212.761 48.1653 215.626 47.4129 Q218.519 46.6606 221.355 45.156 L221.355 50.1907 Q218.49 51.406 215.481 52.0425 Q212.472 52.6791 209.376 52.6791 Q201.621 52.6791 197.078 48.1653 Q192.564 43.6514 192.564 35.9547 Q192.564 27.9975 196.847 23.339 Q201.158 18.6515 208.45 18.6515 Q214.989 18.6515 218.78 22.876 Q222.599 27.0716 222.599 34.3054 M217.275 32.7429 Q217.217 28.3737 214.816 25.7695 Q212.443 23.1654 208.508 23.1654 Q204.052 23.1654 201.361 25.6827 Q198.699 28.2001 198.294 32.7718 L217.275 32.7429 Z" fill="#adb2b7" fill-rule="nonzero" fill-opacity="1" /><path clip-path="url(#clip720)" d="M246.065 35.5496 Q239.613 35.5496 237.124 37.0253 Q234.636 38.501 234.636 42.06 Q234.636 44.8956 236.488 46.5738 Q238.369 48.2231 241.58 48.2231 Q246.007 48.2231 248.67 45.0981 Q251.36 41.9442 251.36 36.7359 L251.36 35.5496 L246.065 35.5496 M256.685 33.3505 L256.685 51.84 L251.36 51.84 L251.36 46.921 Q249.538 49.8724 246.818 51.2902 Q244.098 52.6791 240.163 52.6791 Q235.186 52.6791 232.234 49.9014 Q229.312 47.0947 229.312 42.4072 Q229.312 36.9385 232.958 34.1607 Q236.633 31.3829 243.895 31.3829 L251.36 31.3829 L251.36 30.8621 Q251.36 27.1874 248.93 25.1908 Q246.528 23.1654 242.159 23.1654 Q239.381 23.1654 236.748 23.8309 Q234.115 24.4964 231.685 25.8274 L231.685 20.9085 Q234.607 19.78 237.356 19.2302 Q240.105 18.6515 242.709 18.6515 Q249.74 18.6515 253.212 22.2973 Q256.685 25.9431 256.685 33.3505 Z" fill="#adb2b7" fill-rule="nonzero" fill-opacity="1" /><path clip-path="url(#clip720)" d="M267.651 6.81709 L272.975 6.81709 L272.975 51.84 L267.651 51.84 L267.651 6.81709 Z" fill="#adb2b7" fill-rule="nonzero" fill-opacity="1" /><path clip-path="url(#clip720)" d="M284.115 19.4328 L289.439 19.4328 L289.439 51.84 L284.115 51.84 L284.115 19.4328 M284.115 6.81709 L289.439 6.81709 L289.439 13.559 L284.115 13.559 L284.115 6.81709 Z" fill="#adb2b7" fill-rule="nonzero" fill-opacity="1" /><path clip-path="url(#clip720)" d="M298.264 19.4328 L323.553 19.4328 L323.553 24.2939 L303.53 47.5866 L323.553 47.5866 L323.553 51.84 L297.541 51.84 L297.541 46.9789 L317.564 23.6862 L298.264 23.6862 L298.264 19.4328 Z" fill="#adb2b7" fill-rule="nonzero" fill-opacity="1" /><path clip-path="url(#clip720)" d="M359.404 34.3054 L359.404 36.9095 L334.925 36.9095 Q335.272 42.4072 338.223 45.3007 Q341.204 48.1653 346.499 48.1653 Q349.566 48.1653 352.431 47.4129 Q355.324 46.6606 358.16 45.156 L358.16 50.1907 Q355.295 51.406 352.286 52.0425 Q349.277 52.6791 346.181 52.6791 Q338.426 52.6791 333.883 48.1653 Q329.369 43.6514 329.369 35.9547 Q329.369 27.9975 333.652 23.339 Q337.963 18.6515 345.255 18.6515 Q351.794 18.6515 355.584 22.876 Q359.404 27.0716 359.404 34.3054 M354.08 32.7429 Q354.022 28.3737 351.62 25.7695 Q349.248 23.1654 345.313 23.1654 Q340.857 23.1654 338.166 25.6827 Q335.504 28.2001 335.098 32.7718 L354.08 32.7429 Z" fill="#adb2b7" fill-rule="nonzero" fill-opacity="1" /><path clip-path="url(#clip720)" d="M389.467 24.3517 L389.467 6.81709 L394.791 6.81709 L394.791 51.84 L389.467 51.84 L389.467 46.9789 Q387.789 49.8724 385.214 51.2902 Q382.668 52.6791 379.08 52.6791 Q373.206 52.6791 369.502 47.9916 Q365.827 43.3042 365.827 35.6653 Q365.827 28.0265 369.502 23.339 Q373.206 18.6515 379.08 18.6515 Q382.668 18.6515 385.214 20.0693 Q387.789 21.4582 389.467 24.3517 M371.325 35.6653 Q371.325 41.5391 373.727 44.8956 Q376.157 48.2231 380.382 48.2231 Q384.606 48.2231 387.037 44.8956 Q389.467 41.5391 389.467 35.6653 Q389.467 29.7915 387.037 26.464 Q384.606 23.1075 380.382 23.1075 Q376.157 23.1075 373.727 26.464 Q371.325 29.7915 371.325 35.6653 Z" fill="#adb2b7" fill-rule="nonzero" fill-opacity="1" /><path clip-path="url(#clip720)" d="M443.373 24.4096 Q442.476 23.8888 441.406 23.6573 Q440.364 23.3969 439.091 23.3969 Q434.577 23.3969 432.147 26.3482 Q429.745 29.2707 429.745 34.7683 L429.745 51.84 L424.392 51.84 L424.392 19.4328 L429.745 19.4328 L429.745 24.4675 Q431.423 21.5161 434.114 20.0983 Q436.805 18.6515 440.653 18.6515 Q441.203 18.6515 441.869 18.7383 Q442.534 18.7962 443.344 18.9409 L443.373 24.4096 Z" fill="#adb2b7" fill-rule="nonzero" fill-opacity="1" /><path clip-path="url(#clip720)" d="M475.375 34.3054 L475.375 36.9095 L450.896 36.9095 Q451.244 42.4072 454.195 45.3007 Q457.175 48.1653 462.47 48.1653 Q465.538 48.1653 468.402 47.4129 Q471.296 46.6606 474.131 45.156 L474.131 50.1907 Q471.267 51.406 468.257 52.0425 Q465.248 52.6791 462.152 52.6791 Q454.398 52.6791 449.855 48.1653 Q445.341 43.6514 445.341 35.9547 Q445.341 27.9975 449.623 23.339 Q453.935 18.6515 461.226 18.6515 Q467.766 18.6515 471.556 22.876 Q475.375 27.0716 475.375 34.3054 M470.051 32.7429 Q469.994 28.3737 467.592 25.7695 Q465.219 23.1654 461.284 23.1654 Q456.828 23.1654 454.137 25.6827 Q451.475 28.2001 451.07 32.7718 L470.051 32.7429 Z" fill="#adb2b7" fill-rule="nonzero" fill-opacity="1" /><path clip-path="url(#clip720)" d="M489.38 10.2314 L489.38 19.4328 L500.346 19.4328 L500.346 23.5705 L489.38 23.5705 L489.38 41.163 Q489.38 45.1271 490.451 46.2555 Q491.55 47.384 494.878 47.384 L500.346 47.384 L500.346 51.84 L494.878 51.84 Q488.715 51.84 486.371 49.5541 Q484.027 47.2393 484.027 41.163 L484.027 23.5705 L480.121 23.5705 L480.121 19.4328 L484.027 19.4328 L484.027 10.2314 L489.38 10.2314 Z" fill="#adb2b7" fill-rule="nonzero" fill-opacity="1" /><path clip-path="url(#clip720)" d="M506.799 39.0507 L506.799 19.4328 L512.123 19.4328 L512.123 38.8482 Q512.123 43.4488 513.917 45.7636 Q515.711 48.0495 519.299 48.0495 Q523.61 48.0495 526.099 45.3007 Q528.616 42.5519 528.616 37.8065 L528.616 19.4328 L533.94 19.4328 L533.94 51.84 L528.616 51.84 L528.616 46.8632 Q526.677 49.8145 524.102 51.2613 Q521.556 52.6791 518.17 52.6791 Q512.586 52.6791 509.692 49.2069 Q506.799 45.7347 506.799 39.0507 M520.196 18.6515 L520.196 18.6515 Z" fill="#adb2b7" fill-rule="nonzero" fill-opacity="1" /><path clip-path="url(#clip720)" d="M563.685 24.4096 Q562.788 23.8888 561.718 23.6573 Q560.676 23.3969 559.403 23.3969 Q554.889 23.3969 552.458 26.3482 Q550.057 29.2707 550.057 34.7683 L550.057 51.84 L544.704 51.84 L544.704 19.4328 L550.057 19.4328 L550.057 24.4675 Q551.735 21.5161 554.426 20.0983 Q557.117 18.6515 560.965 18.6515 Q561.515 18.6515 562.181 18.7383 Q562.846 18.7962 563.656 18.9409 L563.685 24.4096 Z" fill="#adb2b7" fill-rule="nonzero" fill-opacity="1" /><path clip-path="url(#clip720)" d="M595.166 32.2799 L595.166 51.84 L589.842 51.84 L589.842 32.4535 Q589.842 27.8529 588.048 25.567 Q586.254 23.2811 582.667 23.2811 Q578.355 23.2811 575.867 26.03 Q573.378 28.7788 573.378 33.5241 L573.378 51.84 L568.025 51.84 L568.025 19.4328 L573.378 19.4328 L573.378 24.4675 Q575.288 21.545 577.863 20.0983 Q580.467 18.6515 583.853 18.6515 Q589.437 18.6515 592.302 22.1237 Q595.166 25.567 595.166 32.2799 Z" fill="#adb2b7" fill-rule="nonzero" fill-opacity="1" /><path clip-path="url(#clip720)" d="M626.445 20.3876 L626.445 25.4223 Q624.188 24.2649 621.758 23.6862 Q619.327 23.1075 616.723 23.1075 Q612.759 23.1075 610.762 24.3228 Q608.795 25.5381 608.795 27.9686 Q608.795 29.8204 610.213 30.891 Q611.631 31.9327 615.913 32.8876 L617.736 33.2926 Q623.407 34.5079 625.78 36.7359 Q628.181 38.935 628.181 42.8991 Q628.181 47.4129 624.593 50.046 Q621.034 52.6791 614.784 52.6791 Q612.18 52.6791 609.345 52.1583 Q606.538 51.6664 603.413 50.6537 L603.413 45.156 Q606.364 46.6896 609.229 47.4708 Q612.093 48.2231 614.9 48.2231 Q618.662 48.2231 620.687 46.95 Q622.713 45.6479 622.713 43.3042 Q622.713 41.134 621.237 39.9766 Q619.79 38.8192 614.842 37.7486 L612.99 37.3146 Q608.043 36.273 605.844 34.1318 Q603.644 31.9616 603.644 28.2001 Q603.644 23.6283 606.885 21.1399 Q610.126 18.6515 616.087 18.6515 Q619.038 18.6515 621.642 19.0855 Q624.246 19.5196 626.445 20.3876 Z" fill="#adb2b7" fill-rule="nonzero" fill-opacity="1" /><path clip-path="url(#clip720)" d="M678.76 35.6653 Q678.76 29.7915 676.329 26.464 Q673.928 23.1075 669.703 23.1075 Q665.479 23.1075 663.048 26.464 Q660.646 29.7915 660.646 35.6653 Q660.646 41.5391 663.048 44.8956 Q665.479 48.2231 669.703 48.2231 Q673.928 48.2231 676.329 44.8956 Q678.76 41.5391 678.76 35.6653 M660.646 24.3517 Q662.325 21.4582 664.871 20.0693 Q667.446 18.6515 671.005 18.6515 Q676.908 18.6515 680.583 23.339 Q684.286 28.0265 684.286 35.6653 Q684.286 43.3042 680.583 47.9916 Q676.908 52.6791 671.005 52.6791 Q667.446 52.6791 664.871 51.2902 Q662.325 49.8724 660.646 46.9789 L660.646 51.84 L655.293 51.84 L655.293 6.81709 L660.646 6.81709 L660.646 24.3517 Z" fill="#adb2b7" fill-rule="nonzero" fill-opacity="1" /><path clip-path="url(#clip720)" d="M706.595 54.8492 Q704.338 60.6362 702.197 62.4013 Q700.056 64.1663 696.468 64.1663 L692.215 64.1663 L692.215 59.7103 L695.34 59.7103 Q697.539 59.7103 698.754 58.6687 Q699.969 57.627 701.445 53.7497 L702.4 51.3192 L689.292 19.4328 L694.934 19.4328 L705.062 44.7799 L715.189 19.4328 L720.831 19.4328 L706.595 54.8492 Z" fill="#adb2b7" fill-rule="nonzero" fill-opacity="1" /><path clip-path="url(#clip720)" d="M743.921 19.4328 L749.246 19.4328 L755.901 44.722 L762.527 19.4328 L768.806 19.4328 L775.461 44.722 L782.087 19.4328 L787.411 19.4328 L778.933 51.84 L772.654 51.84 L765.681 25.2776 L758.678 51.84 L752.399 51.84 L743.921 19.4328 Z" fill="#adb2b7" fill-rule="nonzero" fill-opacity="1" /><path clip-path="url(#clip720)" d="M823.203 34.3054 L823.203 36.9095 L798.724 36.9095 Q799.072 42.4072 802.023 45.3007 Q805.003 48.1653 810.298 48.1653 Q813.366 48.1653 816.23 47.4129 Q819.124 46.6606 821.959 45.156 L821.959 50.1907 Q819.095 51.406 816.085 52.0425 Q813.076 52.6791 809.98 52.6791 Q802.226 52.6791 797.683 48.1653 Q793.169 43.6514 793.169 35.9547 Q793.169 27.9975 797.451 23.339 Q801.763 18.6515 809.054 18.6515 Q815.594 18.6515 819.384 22.876 Q823.203 27.0716 823.203 34.3054 M817.879 32.7429 Q817.822 28.3737 815.42 25.7695 Q813.047 23.1654 809.112 23.1654 Q804.656 23.1654 801.965 25.6827 Q799.303 28.2001 798.898 32.7718 L817.879 32.7429 Z" fill="#adb2b7" fill-rule="nonzero" fill-opacity="1" /><path clip-path="url(#clip720)" d="M859.662 34.3054 L859.662 36.9095 L835.183 36.9095 Q835.53 42.4072 838.481 45.3007 Q841.461 48.1653 846.757 48.1653 Q849.824 48.1653 852.688 47.4129 Q855.582 46.6606 858.417 45.156 L858.417 50.1907 Q855.553 51.406 852.544 52.0425 Q849.534 52.6791 846.438 52.6791 Q838.684 52.6791 834.141 48.1653 Q829.627 43.6514 829.627 35.9547 Q829.627 27.9975 833.909 23.339 Q838.221 18.6515 845.512 18.6515 Q852.052 18.6515 855.842 22.876 Q859.662 27.0716 859.662 34.3054 M854.338 32.7429 Q854.28 28.3737 851.878 25.7695 Q849.505 23.1654 845.57 23.1654 Q841.114 23.1654 838.423 25.6827 Q835.761 28.2001 835.356 32.7718 L854.338 32.7429 Z" fill="#adb2b7" fill-rule="nonzero" fill-opacity="1" /><path clip-path="url(#clip720)" d="M868.197 6.81709 L873.55 6.81709 L873.55 33.4084 L889.436 19.4328 L896.235 19.4328 L879.048 34.5947 L896.959 51.84 L890.014 51.84 L873.55 36.0125 L873.55 51.84 L868.197 51.84 L868.197 6.81709 Z" fill="#adb2b7" fill-rule="nonzero" fill-opacity="1" /><path clip-path="url(#clip720)" d="M924.042 24.3517 L924.042 6.81709 L929.366 6.81709 L929.366 51.84 L924.042 51.84 L924.042 46.9789 Q922.364 49.8724 919.789 51.2902 Q917.242 52.6791 913.654 52.6791 Q907.781 52.6791 904.077 47.9916 Q900.402 43.3042 900.402 35.6653 Q900.402 28.0265 904.077 23.339 Q907.781 18.6515 913.654 18.6515 Q917.242 18.6515 919.789 20.0693 Q922.364 21.4582 924.042 24.3517 M905.9 35.6653 Q905.9 41.5391 908.301 44.8956 Q910.732 48.2231 914.956 48.2231 Q919.181 48.2231 921.611 44.8956 Q924.042 41.5391 924.042 35.6653 Q924.042 29.7915 921.611 26.464 Q919.181 23.1075 914.956 23.1075 Q910.732 23.1075 908.301 26.464 Q905.9 29.7915 905.9 35.6653 Z" fill="#adb2b7" fill-rule="nonzero" fill-opacity="1" /><path clip-path="url(#clip720)" d="M955.06 35.5496 Q948.608 35.5496 946.119 37.0253 Q943.631 38.501 943.631 42.06 Q943.631 44.8956 945.483 46.5738 Q947.364 48.2231 950.575 48.2231 Q955.003 48.2231 957.665 45.0981 Q960.356 41.9442 960.356 36.7359 L960.356 35.5496 L955.06 35.5496 M965.68 33.3505 L965.68 51.84 L960.356 51.84 L960.356 46.921 Q958.533 49.8724 955.813 51.2902 Q953.093 52.6791 949.158 52.6791 Q944.181 52.6791 941.229 49.9014 Q938.307 47.0947 938.307 42.4072 Q938.307 36.9385 941.953 34.1607 Q945.628 31.3829 952.89 31.3829 L960.356 31.3829 L960.356 30.8621 Q960.356 27.1874 957.925 25.1908 Q955.523 23.1654 951.154 23.1654 Q948.376 23.1654 945.743 23.8309 Q943.11 24.4964 940.68 25.8274 L940.68 20.9085 Q943.602 19.78 946.351 19.2302 Q949.1 18.6515 951.704 18.6515 Q958.735 18.6515 962.207 22.2973 Q965.68 25.9431 965.68 33.3505 Z" fill="#adb2b7" fill-rule="nonzero" fill-opacity="1" /><path clip-path="url(#clip720)" d="M990.13 54.8492 Q987.873 60.6362 985.732 62.4013 Q983.59 64.1663 980.002 64.1663 L975.749 64.1663 L975.749 59.7103 L978.874 59.7103 Q981.073 59.7103 982.288 58.6687 Q983.504 57.627 984.979 53.7497 L985.934 51.3192 L972.826 19.4328 L978.469 19.4328 L988.596 44.7799 L998.723 19.4328 L1004.37 19.4328 L990.13 54.8492 Z" fill="#adb2b7" fill-rule="nonzero" fill-opacity="1" /><polyline clip-path="url(#clip721)" style="stroke:#fe4365; stroke-linecap:round; stroke-linejoin:round; stroke-width:4; stroke-opacity:1; fill:none" points="659.953,1417.51 662.934,1427.11 677.839,1431.54 692.745,1433.86 713.612,1425.72 716.593,1422.09 1151.83,1398.49 1154.81,1377.92 1157.79,1363.2 1169.72,1356.87 1172.7,1351.81 1193.57,1330.65 1199.53,1316.21 1202.51,1304.81 1649.67,1305.63 1652.65,1308.96 1655.63,1316.48 1682.46,1311.02 1691.4,1299.81 1694.39,1293.69 1709.29,1278.57 1718.23,1258.59 2162.41,1243.43 2168.38,1232.77 2171.36,1223.61 2180.3,1208.44 2183.28,1202.88 2192.23,1182.04 2198.19,1159.38 2201.17,1139.7 2213.09,1112.66 "/>
<polyline clip-path="url(#clip721)" style="stroke:#eca25c; stroke-linecap:round; stroke-linejoin:round; stroke-width:4; stroke-opacity:1; fill:none" points="218.754,1419.82 224.716,1423.25 248.564,1425.86 251.545,1431.9 254.527,1440.35 260.489,1441.61 263.47,1447.38 275.394,1446.25 728.517,1432.16 731.498,1422.92 737.461,1415.54 740.442,1414.32 755.347,1415.74 758.328,1416.98 761.309,1425.62 782.177,1400.98 785.158,1382.4 1223.38,1385.09 1238.28,1387.11 1244.24,1387.68 1250.21,1380.57 1253.19,1374.65 1256.17,1371.08 1259.15,1373.4 1268.09,1368.56 1271.07,1377.19 1285.98,1371.28 1721.22,1353.81 1730.16,1335.08 1736.12,1313.52 1742.08,1289.52 1754.01,1258.16 1756.99,1228.09 1759.97,1201.31 1774.87,1167.26 1783.82,1131.68 1786.8,1096.28 1789.78,1063.13 2225.02,1034.8 2236.94,1001.19 2239.92,971.026 2242.9,951.06 2251.85,954.692 2257.81,954.766 2266.75,951.06 2269.73,956.7 2278.68,956.732 2290.6,939.049 "/>
<polyline clip-path="url(#clip721)" style="stroke:#3f9778; stroke-linecap:round; stroke-linejoin:round; stroke-width:4; stroke-opacity:1; fill:none" points="290.299,1394.34 302.224,1361.21 305.205,1327.94 308.186,1299.29 314.148,1266.3 329.053,1213.38 340.978,1144.48 352.902,1066.3 358.864,984.778 800.063,957.344 820.931,905.597 823.912,859.594 829.874,809.328 835.836,760.566 838.817,712.22 853.723,661.572 856.704,614.043 859.685,570.408 1291.94,561.952 1306.85,537.483 1330.69,491.01 1339.64,441.748 1342.62,395.118 1351.56,341.504 1360.51,279.437 1792.76,250.147 1813.63,239.03 1816.61,229.012 1825.55,216.882 1828.53,205.598 1831.52,196.987 1834.5,191.082 1849.4,173.531 1858.34,158.675 1861.33,145.256 "/>
<polyline clip-path="url(#clip721)" style="stroke:#005d7f; stroke-linecap:round; stroke-linejoin:round; stroke-width:4; stroke-opacity:1; fill:none" points="364.826,1337.07 391.656,1243.48 400.599,1151.59 403.58,1059.91 409.542,968.439 412.523,880.092 424.448,886.967 430.41,885.43 871.609,887.291 874.59,889.827 877.571,892.32 889.495,890.325 898.439,886.359 904.401,886.952 922.287,884.325 928.249,885.582 1363.49,827.471 1369.45,764.112 1372.43,704.706 1375.41,646.002 1378.39,590.157 1384.35,541.798 1396.28,536.541 1408.2,520.985 1411.18,505.526 1414.16,490.881 1417.15,479.099 1423.11,470.912 1426.09,464.339 1429.07,460.941 1870.27,464.08 1882.19,458.483 1885.17,456.214 1888.16,455.677 1900.08,456.765 1903.06,464.943 1912,464.617 1923.93,451.858 "/>
<polyline clip-path="url(#clip721)" style="stroke:#00a8ff; stroke-linecap:round; stroke-linejoin:round; stroke-width:4; stroke-opacity:1; fill:none" points="433.391,1418.98 448.296,1405.85 451.277,1394.94 457.24,1382.18 463.202,1372.38 472.145,1359.47 481.088,1348.7 487.05,1336.48 495.994,1316.64 943.155,1321.99 946.136,1328.5 949.117,1336.15 952.098,1344.54 961.041,1352.86 990.852,1336.3 993.833,1322.01 996.814,1315.22 1002.78,1307.18 1446.96,1293.31 1452.92,1284.51 1455.9,1277.65 1461.86,1269.8 1464.84,1264.19 1467.82,1261.04 1473.79,1259.22 1479.75,1261.2 1494.65,1258.1 1497.63,1264.06 1944.8,1235.09 1947.78,1207.15 1953.74,1174.67 1965.66,1131 1971.63,1087.87 1974.61,1051.01 1977.59,1018.98 1980.57,990.52 1989.51,990.098 "/>
<polyline clip-path="url(#clip721)" style="stroke:#dc3df1; stroke-linecap:round; stroke-linejoin:round; stroke-width:4; stroke-opacity:1; fill:none" points="504.937,1389.16 507.918,1361.53 513.88,1329.21 519.842,1303.33 522.823,1277.63 528.785,1255.75 540.71,1252.75 543.691,1252.27 1005.76,1248.4 1017.68,1250.61 1056.44,1249.65 1062.4,1249.07 1065.38,1252.3 1071.34,1251.51 1074.32,1252.03 1506.58,1258.1 1512.54,1261.28 1518.5,1259.45 1527.45,1250.62 1533.41,1239.94 1542.35,1228.2 1548.31,1215.52 1554.28,1202.32 1563.22,1188.7 1566.2,1175.72 2007.4,1155.23 2010.38,1141.15 2013.36,1129.48 2019.32,1118.87 2025.28,1123.52 2034.23,1135.17 2037.21,1138.45 2046.15,1137.67 2049.13,1136.77 2058.08,1128.23 2061.06,1123.03 2064.04,1119.26 "/>
<polyline clip-path="url(#clip721)" style="stroke:#759500; stroke-linecap:round; stroke-linejoin:round; stroke-width:4; stroke-opacity:1; fill:none" points="576.483,1412.11 579.464,1414.72 591.388,1418.16 606.293,1408.07 609.274,1399.32 612.255,1391.1 615.237,1388.73 618.218,1387.88 624.18,1388.75 627.161,1390.06 630.142,1399.03 1083.27,1403.37 1089.23,1407.02 1098.17,1407.3 1104.13,1407.85 1107.11,1408.44 1113.08,1413.82 1130.96,1386.91 1133.94,1361.91 1145.87,1338.78 1581.1,1316.36 1596.01,1282.66 1604.95,1244.78 1607.93,1206.99 1622.84,1165.94 1631.78,1127.35 1634.76,1089.6 1643.71,1051.69 2084.91,1027.88 2096.83,994.539 2105.77,960.687 2120.68,922.151 2132.6,881.288 2138.57,843.858 2144.53,804.688 2147.51,773.636 "/>
<path clip-path="url(#clip720)" d="M229.803 566.921 L546.896 566.921 L546.896 152.201 L229.803 152.201  Z" fill="#282c34" fill-rule="evenodd" fill-opacity="1"/>
<polyline clip-path="url(#clip720)" style="stroke:#000000; stroke-linecap:round; stroke-linejoin:round; stroke-width:4; stroke-opacity:0; fill:none" points="229.803,566.921 546.896,566.921 546.896,152.201 229.803,152.201 229.803,566.921 "/>
<polyline clip-path="url(#clip720)" style="stroke:#fe4365; stroke-linecap:round; stroke-linejoin:round; stroke-width:4; stroke-opacity:1; fill:none" points="254.205,204.041 400.616,204.041 "/>
<path clip-path="url(#clip720)" d="M425.018 186.761 L431.985 186.761 L440.804 210.279 L449.67 186.761 L456.638 186.761 L456.638 221.321 L452.078 221.321 L452.078 190.974 L443.166 214.677 L438.467 214.677 L429.555 190.974 L429.555 221.321 L425.018 221.321 L425.018 186.761 Z" fill="#adb2b7" fill-rule="nonzero" fill-opacity="1" /><path clip-path="url(#clip720)" d="M475.781 198.381 Q472.355 198.381 470.364 201.066 Q468.374 203.728 468.374 208.381 Q468.374 213.034 470.341 215.719 Q472.332 218.381 475.781 218.381 Q479.184 218.381 481.175 215.696 Q483.165 213.011 483.165 208.381 Q483.165 203.774 481.175 201.089 Q479.184 198.381 475.781 198.381 M475.781 194.77 Q481.337 194.77 484.508 198.381 Q487.679 201.992 487.679 208.381 Q487.679 214.747 484.508 218.381 Q481.337 221.992 475.781 221.992 Q470.202 221.992 467.031 218.381 Q463.883 214.747 463.883 208.381 Q463.883 201.992 467.031 198.381 Q470.202 194.77 475.781 194.77 Z" fill="#adb2b7" fill-rule="nonzero" fill-opacity="1" /><path clip-path="url(#clip720)" d="M516.29 205.673 L516.29 221.321 L512.031 221.321 L512.031 205.811 Q512.031 202.131 510.596 200.302 Q509.161 198.474 506.29 198.474 Q502.841 198.474 500.85 200.673 Q498.86 202.872 498.86 206.668 L498.86 221.321 L494.577 221.321 L494.577 195.395 L498.86 195.395 L498.86 199.423 Q500.387 197.085 502.448 195.927 Q504.531 194.77 507.239 194.77 Q511.707 194.77 513.999 197.548 Q516.29 200.302 516.29 205.673 Z" fill="#adb2b7" fill-rule="nonzero" fill-opacity="1" /><polyline clip-path="url(#clip720)" style="stroke:#eca25c; stroke-linecap:round; stroke-linejoin:round; stroke-width:4; stroke-opacity:1; fill:none" points="254.205,255.881 400.616,255.881 "/>
<path clip-path="url(#clip720)" d="M425.018 238.601 L454.253 238.601 L454.253 242.536 L441.985 242.536 L441.985 273.161 L437.286 273.161 L437.286 242.536 L425.018 242.536 L425.018 238.601 Z" fill="#adb2b7" fill-rule="nonzero" fill-opacity="1" /><path clip-path="url(#clip720)" d="M450.943 262.929 L450.943 247.235 L455.203 247.235 L455.203 262.767 Q455.203 266.448 456.638 268.3 Q458.073 270.128 460.943 270.128 Q464.392 270.128 466.383 267.929 Q468.397 265.73 468.397 261.934 L468.397 247.235 L472.656 247.235 L472.656 273.161 L468.397 273.161 L468.397 269.179 Q466.846 271.54 464.786 272.698 Q462.749 273.832 460.04 273.832 Q455.573 273.832 453.258 271.054 Q450.943 268.276 450.943 262.929 M461.661 246.61 L461.661 246.61 Z" fill="#adb2b7" fill-rule="nonzero" fill-opacity="1" /><path clip-path="url(#clip720)" d="M503.605 259.133 L503.605 261.216 L484.022 261.216 Q484.3 265.614 486.661 267.929 Q489.045 270.221 493.281 270.221 Q495.735 270.221 498.026 269.619 Q500.341 269.017 502.61 267.813 L502.61 271.841 Q500.318 272.813 497.911 273.323 Q495.503 273.832 493.026 273.832 Q486.823 273.832 483.188 270.221 Q479.577 266.61 479.577 260.452 Q479.577 254.087 483.003 250.36 Q486.452 246.61 492.286 246.61 Q497.517 246.61 500.55 249.989 Q503.605 253.346 503.605 259.133 M499.346 257.883 Q499.3 254.388 497.378 252.304 Q495.48 250.221 492.332 250.221 Q488.767 250.221 486.614 252.235 Q484.485 254.249 484.161 257.906 L499.346 257.883 Z" fill="#adb2b7" fill-rule="nonzero" fill-opacity="1" /><polyline clip-path="url(#clip720)" style="stroke:#3f9778; stroke-linecap:round; stroke-linejoin:round; stroke-width:4; stroke-opacity:1; fill:none" points="254.205,307.721 400.616,307.721 "/>
<path clip-path="url(#clip720)" d="M425.018 290.441 L429.74 290.441 L437.008 319.653 L444.254 290.441 L449.508 290.441 L456.777 319.653 L464.022 290.441 L468.767 290.441 L460.087 325.001 L454.207 325.001 L446.916 295.001 L439.554 325.001 L433.675 325.001 L425.018 290.441 Z" fill="#adb2b7" fill-rule="nonzero" fill-opacity="1" /><path clip-path="url(#clip720)" d="M494.184 310.973 L494.184 313.056 L474.601 313.056 Q474.878 317.454 477.239 319.769 Q479.624 322.061 483.86 322.061 Q486.313 322.061 488.605 321.459 Q490.92 320.857 493.188 319.653 L493.188 323.681 Q490.897 324.653 488.489 325.163 Q486.082 325.672 483.605 325.672 Q477.401 325.672 473.767 322.061 Q470.156 318.45 470.156 312.292 Q470.156 305.927 473.582 302.2 Q477.031 298.45 482.864 298.45 Q488.096 298.45 491.128 301.829 Q494.184 305.186 494.184 310.973 M489.925 309.723 Q489.878 306.228 487.957 304.144 Q486.059 302.061 482.911 302.061 Q479.346 302.061 477.193 304.075 Q475.064 306.089 474.739 309.746 L489.925 309.723 Z" fill="#adb2b7" fill-rule="nonzero" fill-opacity="1" /><path clip-path="url(#clip720)" d="M518.235 303.01 L518.235 288.982 L522.494 288.982 L522.494 325.001 L518.235 325.001 L518.235 321.112 Q516.892 323.427 514.832 324.561 Q512.795 325.672 509.924 325.672 Q505.225 325.672 502.262 321.922 Q499.323 318.172 499.323 312.061 Q499.323 305.95 502.262 302.2 Q505.225 298.45 509.924 298.45 Q512.795 298.45 514.832 299.584 Q516.892 300.695 518.235 303.01 M503.721 312.061 Q503.721 316.76 505.642 319.445 Q507.587 322.107 510.966 322.107 Q514.346 322.107 516.29 319.445 Q518.235 316.76 518.235 312.061 Q518.235 307.362 516.29 304.7 Q514.346 302.015 510.966 302.015 Q507.587 302.015 505.642 304.7 Q503.721 307.362 503.721 312.061 Z" fill="#adb2b7" fill-rule="nonzero" fill-opacity="1" /><polyline clip-path="url(#clip720)" style="stroke:#005d7f; stroke-linecap:round; stroke-linejoin:round; stroke-width:4; stroke-opacity:1; fill:none" points="254.205,359.561 400.616,359.561 "/>
<path clip-path="url(#clip720)" d="M425.018 342.281 L454.253 342.281 L454.253 346.216 L441.985 346.216 L441.985 376.841 L437.286 376.841 L437.286 346.216 L425.018 346.216 L425.018 342.281 Z" fill="#adb2b7" fill-rule="nonzero" fill-opacity="1" /><path clip-path="url(#clip720)" d="M480.133 361.193 L480.133 376.841 L475.874 376.841 L475.874 361.331 Q475.874 357.651 474.439 355.822 Q473.003 353.994 470.133 353.994 Q466.684 353.994 464.693 356.193 Q462.702 358.392 462.702 362.188 L462.702 376.841 L458.42 376.841 L458.42 340.822 L462.702 340.822 L462.702 354.943 Q464.23 352.605 466.29 351.447 Q468.374 350.29 471.082 350.29 Q475.55 350.29 477.841 353.068 Q480.133 355.822 480.133 361.193 Z" fill="#adb2b7" fill-rule="nonzero" fill-opacity="1" /><path clip-path="url(#clip720)" d="M488.188 366.609 L488.188 350.915 L492.448 350.915 L492.448 366.447 Q492.448 370.128 493.883 371.98 Q495.318 373.808 498.188 373.808 Q501.637 373.808 503.628 371.609 Q505.642 369.41 505.642 365.614 L505.642 350.915 L509.901 350.915 L509.901 376.841 L505.642 376.841 L505.642 372.859 Q504.091 375.22 502.031 376.378 Q499.994 377.512 497.286 377.512 Q492.818 377.512 490.503 374.734 Q488.188 371.956 488.188 366.609 M498.906 350.29 L498.906 350.29 Z" fill="#adb2b7" fill-rule="nonzero" fill-opacity="1" /><polyline clip-path="url(#clip720)" style="stroke:#00a8ff; stroke-linecap:round; stroke-linejoin:round; stroke-width:4; stroke-opacity:1; fill:none" points="254.205,411.401 400.616,411.401 "/>
<path clip-path="url(#clip720)" d="M425.018 394.121 L444.879 394.121 L444.879 398.056 L429.693 398.056 L429.693 408.241 L443.397 408.241 L443.397 412.176 L429.693 412.176 L429.693 428.681 L425.018 428.681 L425.018 394.121 Z" fill="#adb2b7" fill-rule="nonzero" fill-opacity="1" /><path clip-path="url(#clip720)" d="M463.675 406.736 Q462.957 406.32 462.101 406.134 Q461.267 405.926 460.249 405.926 Q456.638 405.926 454.693 408.287 Q452.772 410.625 452.772 415.023 L452.772 428.681 L448.49 428.681 L448.49 402.755 L452.772 402.755 L452.772 406.783 Q454.115 404.422 456.267 403.287 Q458.42 402.13 461.499 402.13 Q461.939 402.13 462.471 402.199 Q463.003 402.246 463.652 402.361 L463.675 406.736 Z" fill="#adb2b7" fill-rule="nonzero" fill-opacity="1" /><path clip-path="url(#clip720)" d="M468.142 402.755 L472.402 402.755 L472.402 428.681 L468.142 428.681 L468.142 402.755 M468.142 392.662 L472.402 392.662 L472.402 398.056 L468.142 398.056 L468.142 392.662 Z" fill="#adb2b7" fill-rule="nonzero" fill-opacity="1" /><polyline clip-path="url(#clip720)" style="stroke:#dc3df1; stroke-linecap:round; stroke-linejoin:round; stroke-width:4; stroke-opacity:1; fill:none" points="254.205,463.241 400.616,463.241 "/>
<path clip-path="url(#clip720)" d="M447.263 447.095 L447.263 451.655 Q444.601 450.382 442.24 449.757 Q439.879 449.132 437.679 449.132 Q433.86 449.132 431.777 450.613 Q429.717 452.095 429.717 454.826 Q429.717 457.118 431.082 458.299 Q432.471 459.456 436.314 460.174 L439.138 460.752 Q444.369 461.748 446.846 464.271 Q449.346 466.771 449.346 470.984 Q449.346 476.007 445.966 478.599 Q442.61 481.192 436.105 481.192 Q433.652 481.192 430.874 480.636 Q428.119 480.081 425.156 478.993 L425.156 474.178 Q428.004 475.775 430.735 476.585 Q433.467 477.396 436.105 477.396 Q440.11 477.396 442.286 475.822 Q444.462 474.248 444.462 471.331 Q444.462 468.785 442.888 467.349 Q441.337 465.914 437.772 465.197 L434.925 464.641 Q429.693 463.599 427.355 461.377 Q425.018 459.155 425.018 455.197 Q425.018 450.613 428.235 447.975 Q431.476 445.336 437.147 445.336 Q439.578 445.336 442.101 445.775 Q444.624 446.215 447.263 447.095 Z" fill="#adb2b7" fill-rule="nonzero" fill-opacity="1" /><path clip-path="url(#clip720)" d="M468.235 467.488 Q463.073 467.488 461.082 468.669 Q459.091 469.849 459.091 472.697 Q459.091 474.965 460.573 476.308 Q462.077 477.627 464.647 477.627 Q468.189 477.627 470.318 475.127 Q472.471 472.604 472.471 468.437 L472.471 467.488 L468.235 467.488 M476.73 465.729 L476.73 480.521 L472.471 480.521 L472.471 476.585 Q471.013 478.947 468.837 480.081 Q466.661 481.192 463.513 481.192 Q459.531 481.192 457.17 478.97 Q454.832 476.724 454.832 472.974 Q454.832 468.599 457.749 466.377 Q460.689 464.155 466.499 464.155 L472.471 464.155 L472.471 463.738 Q472.471 460.799 470.527 459.201 Q468.605 457.581 465.11 457.581 Q462.888 457.581 460.781 458.113 Q458.675 458.646 456.73 459.711 L456.73 455.775 Q459.068 454.873 461.267 454.433 Q463.466 453.97 465.55 453.97 Q471.175 453.97 473.952 456.887 Q476.73 459.803 476.73 465.729 Z" fill="#adb2b7" fill-rule="nonzero" fill-opacity="1" /><path clip-path="url(#clip720)" d="M489.716 447.234 L489.716 454.595 L498.489 454.595 L498.489 457.905 L489.716 457.905 L489.716 471.979 Q489.716 475.15 490.573 476.053 Q491.452 476.956 494.114 476.956 L498.489 476.956 L498.489 480.521 L494.114 480.521 Q489.184 480.521 487.309 478.692 Q485.434 476.84 485.434 471.979 L485.434 457.905 L482.309 457.905 L482.309 454.595 L485.434 454.595 L485.434 447.234 L489.716 447.234 Z" fill="#adb2b7" fill-rule="nonzero" fill-opacity="1" /><polyline clip-path="url(#clip720)" style="stroke:#759500; stroke-linecap:round; stroke-linejoin:round; stroke-width:4; stroke-opacity:1; fill:none" points="254.205,515.081 400.616,515.081 "/>
<path clip-path="url(#clip720)" d="M447.263 498.935 L447.263 503.495 Q444.601 502.222 442.24 501.597 Q439.879 500.972 437.679 500.972 Q433.86 500.972 431.777 502.453 Q429.717 503.935 429.717 506.666 Q429.717 508.958 431.082 510.139 Q432.471 511.296 436.314 512.014 L439.138 512.592 Q444.369 513.588 446.846 516.111 Q449.346 518.611 449.346 522.824 Q449.346 527.847 445.966 530.439 Q442.61 533.032 436.105 533.032 Q433.652 533.032 430.874 532.476 Q428.119 531.921 425.156 530.833 L425.156 526.018 Q428.004 527.615 430.735 528.425 Q433.467 529.236 436.105 529.236 Q440.11 529.236 442.286 527.662 Q444.462 526.088 444.462 523.171 Q444.462 520.625 442.888 519.189 Q441.337 517.754 437.772 517.037 L434.925 516.481 Q429.693 515.439 427.355 513.217 Q425.018 510.995 425.018 507.037 Q425.018 502.453 428.235 499.815 Q431.476 497.176 437.147 497.176 Q439.578 497.176 442.101 497.615 Q444.624 498.055 447.263 498.935 Z" fill="#adb2b7" fill-rule="nonzero" fill-opacity="1" /><path clip-path="url(#clip720)" d="M456.013 522.129 L456.013 506.435 L460.272 506.435 L460.272 521.967 Q460.272 525.648 461.707 527.5 Q463.142 529.328 466.013 529.328 Q469.462 529.328 471.452 527.129 Q473.466 524.93 473.466 521.134 L473.466 506.435 L477.726 506.435 L477.726 532.361 L473.466 532.361 L473.466 528.379 Q471.915 530.74 469.855 531.898 Q467.818 533.032 465.11 533.032 Q460.642 533.032 458.328 530.254 Q456.013 527.476 456.013 522.129 M466.73 505.81 L466.73 505.81 Z" fill="#adb2b7" fill-rule="nonzero" fill-opacity="1" /><path clip-path="url(#clip720)" d="M508.049 516.713 L508.049 532.361 L503.79 532.361 L503.79 516.851 Q503.79 513.171 502.355 511.342 Q500.92 509.514 498.05 509.514 Q494.6 509.514 492.61 511.713 Q490.619 513.912 490.619 517.708 L490.619 532.361 L486.337 532.361 L486.337 506.435 L490.619 506.435 L490.619 510.463 Q492.147 508.125 494.207 506.967 Q496.29 505.81 498.999 505.81 Q503.466 505.81 505.758 508.588 Q508.049 511.342 508.049 516.713 Z" fill="#adb2b7" fill-rule="nonzero" fill-opacity="1" /><path clip-path="url(#clip720)" d="M2290.6 1095.38 L2297.57 1095.38 L2306.39 1118.9 L2315.25 1095.38 L2322.22 1095.38 L2322.22 1129.94 L2317.66 1129.94 L2317.66 1099.59 L2308.75 1123.29 L2304.05 1123.29 L2295.14 1099.59 L2295.14 1129.94 L2290.6 1129.94 L2290.6 1095.38 Z" fill="#000000" fill-rule="nonzero" fill-opacity="1" /><path clip-path="url(#clip720)" d="M2341.36 1107 Q2337.94 1107 2335.95 1109.68 Q2333.96 1112.35 2333.96 1117 Q2333.96 1121.65 2335.92 1124.34 Q2337.92 1127 2341.36 1127 Q2344.77 1127 2346.76 1124.31 Q2348.75 1121.63 2348.75 1117 Q2348.75 1112.39 2346.76 1109.71 Q2344.77 1107 2341.36 1107 M2341.36 1103.39 Q2346.92 1103.39 2350.09 1107 Q2353.26 1110.61 2353.26 1117 Q2353.26 1123.36 2350.09 1127 Q2346.92 1130.61 2341.36 1130.61 Q2335.79 1130.61 2332.61 1127 Q2329.47 1123.36 2329.47 1117 Q2329.47 1110.61 2332.61 1107 Q2335.79 1103.39 2341.36 1103.39 Z" fill="#000000" fill-rule="nonzero" fill-opacity="1" /><path clip-path="url(#clip720)" d="M2381.87 1114.29 L2381.87 1129.94 L2377.61 1129.94 L2377.61 1114.43 Q2377.61 1110.75 2376.18 1108.92 Q2374.74 1107.09 2371.87 1107.09 Q2368.42 1107.09 2366.43 1109.29 Q2364.44 1111.49 2364.44 1115.29 L2364.44 1129.94 L2360.16 1129.94 L2360.16 1104.01 L2364.44 1104.01 L2364.44 1108.04 Q2365.97 1105.7 2368.03 1104.54 Q2370.11 1103.39 2372.82 1103.39 Q2377.29 1103.39 2379.58 1106.17 Q2381.87 1108.92 2381.87 1114.29 Z" fill="#000000" fill-rule="nonzero" fill-opacity="1" /><path clip-path="url(#clip720)" d="M2290.6 921.769 L2319.84 921.769 L2319.84 925.704 L2307.57 925.704 L2307.57 956.329 L2302.87 956.329 L2302.87 925.704 L2290.6 925.704 L2290.6 921.769 Z" fill="#000000" fill-rule="nonzero" fill-opacity="1" /><path clip-path="url(#clip720)" d="M2316.53 946.098 L2316.53 930.403 L2320.79 930.403 L2320.79 945.936 Q2320.79 949.616 2322.22 951.468 Q2323.66 953.297 2326.53 953.297 Q2329.98 953.297 2331.97 951.098 Q2333.98 948.899 2333.98 945.102 L2333.98 930.403 L2338.24 930.403 L2338.24 956.329 L2333.98 956.329 L2333.98 952.348 Q2332.43 954.709 2330.37 955.866 Q2328.33 957 2325.62 957 Q2321.16 957 2318.84 954.223 Q2316.53 951.445 2316.53 946.098 M2327.24 929.778 L2327.24 929.778 Z" fill="#000000" fill-rule="nonzero" fill-opacity="1" /><path clip-path="url(#clip720)" d="M2369.19 942.301 L2369.19 944.385 L2349.6 944.385 Q2349.88 948.783 2352.24 951.098 Q2354.63 953.389 2358.86 953.389 Q2361.32 953.389 2363.61 952.787 Q2365.92 952.186 2368.19 950.982 L2368.19 955.01 Q2365.9 955.982 2363.49 956.491 Q2361.09 957 2358.61 957 Q2352.41 957 2348.77 953.389 Q2345.16 949.778 2345.16 943.621 Q2345.16 937.255 2348.59 933.528 Q2352.04 929.778 2357.87 929.778 Q2363.1 929.778 2366.13 933.158 Q2369.19 936.514 2369.19 942.301 M2364.93 941.051 Q2364.88 937.556 2362.96 935.473 Q2361.06 933.389 2357.91 933.389 Q2354.35 933.389 2352.2 935.403 Q2350.07 937.417 2349.74 941.075 L2364.93 941.051 Z" fill="#000000" fill-rule="nonzero" fill-opacity="1" /><path clip-path="url(#clip720)" d="M2290.6 127.976 L2295.32 127.976 L2302.59 157.189 L2309.84 127.976 L2315.09 127.976 L2322.36 157.189 L2329.6 127.976 L2334.35 127.976 L2325.67 162.536 L2319.79 162.536 L2312.5 132.536 L2305.14 162.536 L2299.26 162.536 L2290.6 127.976 Z" fill="#000000" fill-rule="nonzero" fill-opacity="1" /><path clip-path="url(#clip720)" d="M2359.77 148.508 L2359.77 150.592 L2340.18 150.592 Q2340.46 154.99 2342.82 157.305 Q2345.21 159.596 2349.44 159.596 Q2351.9 159.596 2354.19 158.994 Q2356.5 158.392 2358.77 157.189 L2358.77 161.217 Q2356.48 162.189 2354.07 162.698 Q2351.66 163.207 2349.19 163.207 Q2342.98 163.207 2339.35 159.596 Q2335.74 155.985 2335.74 149.828 Q2335.74 143.462 2339.17 139.735 Q2342.61 135.985 2348.45 135.985 Q2353.68 135.985 2356.71 139.365 Q2359.77 142.721 2359.77 148.508 M2355.51 147.258 Q2355.46 143.763 2353.54 141.68 Q2351.64 139.596 2348.49 139.596 Q2344.93 139.596 2342.78 141.61 Q2340.65 143.624 2340.32 147.281 L2355.51 147.258 Z" fill="#000000" fill-rule="nonzero" fill-opacity="1" /><path clip-path="url(#clip720)" d="M2383.82 140.545 L2383.82 126.518 L2388.08 126.518 L2388.08 162.536 L2383.82 162.536 L2383.82 158.647 Q2382.48 160.962 2380.41 162.096 Q2378.38 163.207 2375.51 163.207 Q2370.81 163.207 2367.85 159.457 Q2364.91 155.707 2364.91 149.596 Q2364.91 143.485 2367.85 139.735 Q2370.81 135.985 2375.51 135.985 Q2378.38 135.985 2380.41 137.119 Q2382.48 138.231 2383.82 140.545 M2369.3 149.596 Q2369.3 154.295 2371.23 156.98 Q2373.17 159.642 2376.55 159.642 Q2379.93 159.642 2381.87 156.98 Q2383.82 154.295 2383.82 149.596 Q2383.82 144.897 2381.87 142.235 Q2379.93 139.55 2376.55 139.55 Q2373.17 139.55 2371.23 142.235 Q2369.3 144.897 2369.3 149.596 Z" fill="#000000" fill-rule="nonzero" fill-opacity="1" /><path clip-path="url(#clip720)" d="M2290.6 434.578 L2319.84 434.578 L2319.84 438.514 L2307.57 438.514 L2307.57 469.138 L2302.87 469.138 L2302.87 438.514 L2290.6 438.514 L2290.6 434.578 Z" fill="#000000" fill-rule="nonzero" fill-opacity="1" /><path clip-path="url(#clip720)" d="M2345.72 453.49 L2345.72 469.138 L2341.46 469.138 L2341.46 453.629 Q2341.46 449.949 2340.02 448.12 Q2338.59 446.291 2335.72 446.291 Q2332.27 446.291 2330.28 448.49 Q2328.29 450.689 2328.29 454.486 L2328.29 469.138 L2324 469.138 L2324 433.12 L2328.29 433.12 L2328.29 447.24 Q2329.81 444.902 2331.87 443.745 Q2333.96 442.588 2336.67 442.588 Q2341.13 442.588 2343.42 445.365 Q2345.72 448.12 2345.72 453.49 Z" fill="#000000" fill-rule="nonzero" fill-opacity="1" /><path clip-path="url(#clip720)" d="M2353.77 458.907 L2353.77 443.213 L2358.03 443.213 L2358.03 458.745 Q2358.03 462.425 2359.47 464.277 Q2360.9 466.106 2363.77 466.106 Q2367.22 466.106 2369.21 463.907 Q2371.23 461.708 2371.23 457.912 L2371.23 443.213 L2375.48 443.213 L2375.48 469.138 L2371.23 469.138 L2371.23 465.157 Q2369.67 467.518 2367.61 468.675 Q2365.58 469.81 2362.87 469.81 Q2358.4 469.81 2356.09 467.032 Q2353.77 464.254 2353.77 458.907 M2364.49 442.588 L2364.49 442.588 Z" fill="#000000" fill-rule="nonzero" fill-opacity="1" /><path clip-path="url(#clip720)" d="M2290.6 972.818 L2310.46 972.818 L2310.46 976.753 L2295.28 976.753 L2295.28 986.938 L2308.98 986.938 L2308.98 990.873 L2295.28 990.873 L2295.28 1007.38 L2290.6 1007.38 L2290.6 972.818 Z" fill="#000000" fill-rule="nonzero" fill-opacity="1" /><path clip-path="url(#clip720)" d="M2329.26 985.433 Q2328.54 985.017 2327.68 984.832 Q2326.85 984.623 2325.83 984.623 Q2322.22 984.623 2320.28 986.984 Q2318.35 989.322 2318.35 993.72 L2318.35 1007.38 L2314.07 1007.38 L2314.07 981.452 L2318.35 981.452 L2318.35 985.48 Q2319.7 983.119 2321.85 981.984 Q2324 980.827 2327.08 980.827 Q2327.52 980.827 2328.05 980.896 Q2328.59 980.943 2329.23 981.058 L2329.26 985.433 Z" fill="#000000" fill-rule="nonzero" fill-opacity="1" /><path clip-path="url(#clip720)" d="M2333.73 981.452 L2337.98 981.452 L2337.98 1007.38 L2333.73 1007.38 L2333.73 981.452 M2333.73 971.359 L2337.98 971.359 L2337.98 976.753 L2333.73 976.753 L2333.73 971.359 Z" fill="#000000" fill-rule="nonzero" fill-opacity="1" /><path clip-path="url(#clip720)" d="M2312.85 1103.11 L2312.85 1107.67 Q2310.18 1106.4 2307.82 1105.77 Q2305.46 1105.15 2303.26 1105.15 Q2299.44 1105.15 2297.36 1106.63 Q2295.3 1108.11 2295.3 1110.84 Q2295.3 1113.14 2296.67 1114.32 Q2298.05 1115.47 2301.9 1116.19 L2304.72 1116.77 Q2309.95 1117.77 2312.43 1120.29 Q2314.93 1122.79 2314.93 1127 Q2314.93 1132.02 2311.55 1134.62 Q2308.19 1137.21 2301.69 1137.21 Q2299.23 1137.21 2296.46 1136.65 Q2293.7 1136.1 2290.74 1135.01 L2290.74 1130.2 Q2293.59 1131.79 2296.32 1132.6 Q2299.05 1133.41 2301.69 1133.41 Q2305.69 1133.41 2307.87 1131.84 Q2310.04 1130.27 2310.04 1127.35 Q2310.04 1124.8 2308.47 1123.37 Q2306.92 1121.93 2303.36 1121.21 L2300.51 1120.66 Q2295.28 1119.62 2292.94 1117.4 Q2290.6 1115.17 2290.6 1111.21 Q2290.6 1106.63 2293.82 1103.99 Q2297.06 1101.35 2302.73 1101.35 Q2305.16 1101.35 2307.68 1101.79 Q2310.21 1102.23 2312.85 1103.11 Z" fill="#000000" fill-rule="nonzero" fill-opacity="1" /><path clip-path="url(#clip720)" d="M2333.82 1123.51 Q2328.66 1123.51 2326.67 1124.69 Q2324.67 1125.87 2324.67 1128.71 Q2324.67 1130.98 2326.16 1132.33 Q2327.66 1133.64 2330.23 1133.64 Q2333.77 1133.64 2335.9 1131.15 Q2338.05 1128.62 2338.05 1124.46 L2338.05 1123.51 L2333.82 1123.51 M2342.31 1121.75 L2342.31 1136.54 L2338.05 1136.54 L2338.05 1132.6 Q2336.6 1134.96 2334.42 1136.1 Q2332.24 1137.21 2329.1 1137.21 Q2325.11 1137.21 2322.75 1134.99 Q2320.42 1132.74 2320.42 1128.99 Q2320.42 1124.62 2323.33 1122.4 Q2326.27 1120.17 2332.08 1120.17 L2338.05 1120.17 L2338.05 1119.76 Q2338.05 1116.82 2336.11 1115.22 Q2334.19 1113.6 2330.69 1113.6 Q2328.47 1113.6 2326.36 1114.13 Q2324.26 1114.66 2322.31 1115.73 L2322.31 1111.79 Q2324.65 1110.89 2326.85 1110.45 Q2329.05 1109.99 2331.13 1109.99 Q2336.76 1109.99 2339.54 1112.9 Q2342.31 1115.82 2342.31 1121.75 Z" fill="#000000" fill-rule="nonzero" fill-opacity="1" /><path clip-path="url(#clip720)" d="M2355.3 1103.25 L2355.3 1110.61 L2364.07 1110.61 L2364.07 1113.92 L2355.3 1113.92 L2355.3 1128 Q2355.3 1131.17 2356.16 1132.07 Q2357.04 1132.97 2359.7 1132.97 L2364.07 1132.97 L2364.07 1136.54 L2359.7 1136.54 Q2354.77 1136.54 2352.89 1134.71 Q2351.02 1132.86 2351.02 1128 L2351.02 1113.92 L2347.89 1113.92 L2347.89 1110.61 L2351.02 1110.61 L2351.02 1103.25 L2355.3 1103.25 Z" fill="#000000" fill-rule="nonzero" fill-opacity="1" /><path clip-path="url(#clip720)" d="M2312.85 757.491 L2312.85 762.051 Q2310.18 760.778 2307.82 760.153 Q2305.46 759.528 2303.26 759.528 Q2299.44 759.528 2297.36 761.009 Q2295.3 762.491 2295.3 765.222 Q2295.3 767.514 2296.67 768.694 Q2298.05 769.852 2301.9 770.569 L2304.72 771.148 Q2309.95 772.143 2312.43 774.666 Q2314.93 777.166 2314.93 781.379 Q2314.93 786.403 2311.55 788.995 Q2308.19 791.588 2301.69 791.588 Q2299.23 791.588 2296.46 791.032 Q2293.7 790.477 2290.74 789.389 L2290.74 784.574 Q2293.59 786.171 2296.32 786.981 Q2299.05 787.791 2301.69 787.791 Q2305.69 787.791 2307.87 786.217 Q2310.04 784.643 2310.04 781.727 Q2310.04 779.18 2308.47 777.745 Q2306.92 776.31 2303.36 775.592 L2300.51 775.037 Q2295.28 773.995 2292.94 771.773 Q2290.6 769.551 2290.6 765.592 Q2290.6 761.009 2293.82 758.37 Q2297.06 755.731 2302.73 755.731 Q2305.16 755.731 2307.68 756.171 Q2310.21 756.611 2312.85 757.491 Z" fill="#000000" fill-rule="nonzero" fill-opacity="1" /><path clip-path="url(#clip720)" d="M2321.6 780.685 L2321.6 764.991 L2325.85 764.991 L2325.85 780.523 Q2325.85 784.203 2327.29 786.055 Q2328.73 787.884 2331.6 787.884 Q2335.04 787.884 2337.04 785.685 Q2339.05 783.486 2339.05 779.69 L2339.05 764.991 L2343.31 764.991 L2343.31 790.916 L2339.05 790.916 L2339.05 786.935 Q2337.5 789.296 2335.44 790.453 Q2333.4 791.588 2330.69 791.588 Q2326.23 791.588 2323.91 788.81 Q2321.6 786.032 2321.6 780.685 M2332.31 764.366 L2332.31 764.366 Z" fill="#000000" fill-rule="nonzero" fill-opacity="1" /><path clip-path="url(#clip720)" d="M2373.63 775.268 L2373.63 790.916 L2369.37 790.916 L2369.37 775.407 Q2369.37 771.727 2367.94 769.898 Q2366.5 768.069 2363.63 768.069 Q2360.18 768.069 2358.19 770.268 Q2356.2 772.467 2356.2 776.264 L2356.2 790.916 L2351.92 790.916 L2351.92 764.991 L2356.2 764.991 L2356.2 769.018 Q2357.73 766.68 2359.79 765.523 Q2361.87 764.366 2364.58 764.366 Q2369.05 764.366 2371.34 767.143 Q2373.63 769.898 2373.63 775.268 Z" fill="#000000" fill-rule="nonzero" fill-opacity="1" /></svg>
