<?xml version="1.0" encoding="utf-8"?>
<svg xmlns="http://www.w3.org/2000/svg" xmlns:xlink="http://www.w3.org/1999/xlink" width="600" height="400" viewBox="0 0 2400 1600">
<defs>
  <clipPath id="clip190">
    <rect x="0" y="0" width="2400" height="1600"/>
  </clipPath>
</defs>
<path clip-path="url(#clip190)" d="M0 1600 L2400 1600 L2400 0 L0 0  Z" fill="#282c34" fill-rule="evenodd" fill-opacity="1"/>
<defs>
  <clipPath id="clip191">
    <rect x="186" y="106" width="2167" height="1381"/>
  </clipPath>
</defs>
<path clip-path="url(#clip190)" d="M186.274 1486.45 L2352.76 1486.45 L2352.76 106.192 L186.274 106.192  Z" fill="#21252b" fill-rule="evenodd" fill-opacity="1"/>
<polyline clip-path="url(#clip191)" style="stroke:#adb2b7; stroke-linecap:round; stroke-linejoin:round; stroke-width:2; stroke-opacity:0.1; fill:none" points="247.59,1486.45 247.59,106.192 "/>
<polyline clip-path="url(#clip191)" style="stroke:#adb2b7; stroke-linecap:round; stroke-linejoin:round; stroke-width:2; stroke-opacity:0.1; fill:none" points="763.931,1486.45 763.931,106.192 "/>
<polyline clip-path="url(#clip191)" style="stroke:#adb2b7; stroke-linecap:round; stroke-linejoin:round; stroke-width:2; stroke-opacity:0.1; fill:none" points="1280.27,1486.45 1280.27,106.192 "/>
<polyline clip-path="url(#clip191)" style="stroke:#adb2b7; stroke-linecap:round; stroke-linejoin:round; stroke-width:2; stroke-opacity:0.1; fill:none" points="1796.61,1486.45 1796.61,106.192 "/>
<polyline clip-path="url(#clip191)" style="stroke:#adb2b7; stroke-linecap:round; stroke-linejoin:round; stroke-width:2; stroke-opacity:0.1; fill:none" points="2312.95,1486.45 2312.95,106.192 "/>
<polyline clip-path="url(#clip191)" style="stroke:#adb2b7; stroke-linecap:round; stroke-linejoin:round; stroke-width:2; stroke-opacity:0.1; fill:none" points="186.274,1343.28 2352.76,1343.28 "/>
<polyline clip-path="url(#clip191)" style="stroke:#adb2b7; stroke-linecap:round; stroke-linejoin:round; stroke-width:2; stroke-opacity:0.1; fill:none" points="186.274,1090.02 2352.76,1090.02 "/>
<polyline clip-path="url(#clip191)" style="stroke:#adb2b7; stroke-linecap:round; stroke-linejoin:round; stroke-width:2; stroke-opacity:0.1; fill:none" points="186.274,836.752 2352.76,836.752 "/>
<polyline clip-path="url(#clip191)" style="stroke:#adb2b7; stroke-linecap:round; stroke-linejoin:round; stroke-width:2; stroke-opacity:0.1; fill:none" points="186.274,583.488 2352.76,583.488 "/>
<polyline clip-path="url(#clip191)" style="stroke:#adb2b7; stroke-linecap:round; stroke-linejoin:round; stroke-width:2; stroke-opacity:0.1; fill:none" points="186.274,330.224 2352.76,330.224 "/>
<polyline clip-path="url(#clip190)" style="stroke:#adb2b7; stroke-linecap:round; stroke-linejoin:round; stroke-width:4; stroke-opacity:1; fill:none" points="186.274,1486.45 2352.76,1486.45 "/>
<polyline clip-path="url(#clip190)" style="stroke:#adb2b7; stroke-linecap:round; stroke-linejoin:round; stroke-width:4; stroke-opacity:1; fill:none" points="247.59,1486.45 247.59,1467.55 "/>
<polyline clip-path="url(#clip190)" style="stroke:#adb2b7; stroke-linecap:round; stroke-linejoin:round; stroke-width:4; stroke-opacity:1; fill:none" points="763.931,1486.45 763.931,1467.55 "/>
<polyline clip-path="url(#clip190)" style="stroke:#adb2b7; stroke-linecap:round; stroke-linejoin:round; stroke-width:4; stroke-opacity:1; fill:none" points="1280.27,1486.45 1280.27,1467.55 "/>
<polyline clip-path="url(#clip190)" style="stroke:#adb2b7; stroke-linecap:round; stroke-linejoin:round; stroke-width:4; stroke-opacity:1; fill:none" points="1796.61,1486.45 1796.61,1467.55 "/>
<polyline clip-path="url(#clip190)" style="stroke:#adb2b7; stroke-linecap:round; stroke-linejoin:round; stroke-width:4; stroke-opacity:1; fill:none" points="2312.95,1486.45 2312.95,1467.55 "/>
<path clip-path="url(#clip190)" d="M119.569 1544.91 L135.889 1544.91 L135.889 1548.85 L113.944 1548.85 L113.944 1544.91 Q116.606 1542.16 121.19 1537.53 Q125.796 1532.88 126.977 1531.53 Q129.222 1529.01 130.102 1527.27 Q131.005 1525.51 131.005 1523.82 Q131.005 1521.07 129.06 1519.33 Q127.139 1517.6 124.037 1517.6 Q121.838 1517.6 119.384 1518.36 Q116.954 1519.13 114.176 1520.68 L114.176 1515.95 Q117 1514.82 119.454 1514.24 Q121.907 1513.66 123.944 1513.66 Q129.315 1513.66 132.509 1516.35 Q135.704 1519.03 135.704 1523.52 Q135.704 1525.65 134.893 1527.57 Q134.106 1529.47 132 1532.07 Q131.421 1532.74 128.319 1535.95 Q125.217 1539.15 119.569 1544.91 Z" fill="#9eb1be" fill-rule="nonzero" fill-opacity="1" /><path clip-path="url(#clip190)" d="M155.703 1517.37 Q152.092 1517.37 150.264 1520.93 Q148.458 1524.47 148.458 1531.6 Q148.458 1538.71 150.264 1542.27 Q152.092 1545.82 155.703 1545.82 Q159.338 1545.82 161.143 1542.27 Q162.972 1538.71 162.972 1531.6 Q162.972 1524.47 161.143 1520.93 Q159.338 1517.37 155.703 1517.37 M155.703 1513.66 Q161.514 1513.66 164.569 1518.27 Q167.648 1522.85 167.648 1531.6 Q167.648 1540.33 164.569 1544.94 Q161.514 1549.52 155.703 1549.52 Q149.893 1549.52 146.815 1544.94 Q143.759 1540.33 143.759 1531.6 Q143.759 1522.85 146.815 1518.27 Q149.893 1513.66 155.703 1513.66 Z" fill="#9eb1be" fill-rule="nonzero" fill-opacity="1" /><path clip-path="url(#clip190)" d="M179.893 1544.91 L196.212 1544.91 L196.212 1548.85 L174.268 1548.85 L174.268 1544.91 Q176.93 1542.16 181.513 1537.53 Q186.12 1532.88 187.3 1531.53 Q189.546 1529.01 190.425 1527.27 Q191.328 1525.51 191.328 1523.82 Q191.328 1521.07 189.384 1519.33 Q187.463 1517.6 184.361 1517.6 Q182.162 1517.6 179.708 1518.36 Q177.277 1519.13 174.5 1520.68 L174.5 1515.95 Q177.324 1514.82 179.777 1514.24 Q182.231 1513.66 184.268 1513.66 Q189.638 1513.66 192.833 1516.35 Q196.027 1519.03 196.027 1523.52 Q196.027 1525.65 195.217 1527.57 Q194.43 1529.47 192.324 1532.07 Q191.745 1532.74 188.643 1535.95 Q185.541 1539.15 179.893 1544.91 Z" fill="#9eb1be" fill-rule="nonzero" fill-opacity="1" /><path clip-path="url(#clip190)" d="M216.027 1517.37 Q212.416 1517.37 210.587 1520.93 Q208.782 1524.47 208.782 1531.6 Q208.782 1538.71 210.587 1542.27 Q212.416 1545.82 216.027 1545.82 Q219.661 1545.82 221.467 1542.27 Q223.296 1538.71 223.296 1531.6 Q223.296 1524.47 221.467 1520.93 Q219.661 1517.37 216.027 1517.37 M216.027 1513.66 Q221.837 1513.66 224.893 1518.27 Q227.972 1522.85 227.972 1531.6 Q227.972 1540.33 224.893 1544.94 Q221.837 1549.52 216.027 1549.52 Q210.217 1549.52 207.138 1544.94 Q204.083 1540.33 204.083 1531.6 Q204.083 1522.85 207.138 1518.27 Q210.217 1513.66 216.027 1513.66 Z" fill="#9eb1be" fill-rule="nonzero" fill-opacity="1" /><path clip-path="url(#clip190)" d="M233.435 1533.96 L245.911 1533.96 L245.911 1537.76 L233.435 1537.76 L233.435 1533.96 Z" fill="#9eb1be" fill-rule="nonzero" fill-opacity="1" /><path clip-path="url(#clip190)" d="M263.295 1517.37 Q259.684 1517.37 257.856 1520.93 Q256.05 1524.47 256.05 1531.6 Q256.05 1538.71 257.856 1542.27 Q259.684 1545.82 263.295 1545.82 Q266.93 1545.82 268.735 1542.27 Q270.564 1538.71 270.564 1531.6 Q270.564 1524.47 268.735 1520.93 Q266.93 1517.37 263.295 1517.37 M263.295 1513.66 Q269.106 1513.66 272.161 1518.27 Q275.24 1522.85 275.24 1531.6 Q275.24 1540.33 272.161 1544.94 Q269.106 1549.52 263.295 1549.52 Q257.485 1549.52 254.407 1544.94 Q251.351 1540.33 251.351 1531.6 Q251.351 1522.85 254.407 1518.27 Q257.485 1513.66 263.295 1513.66 Z" fill="#9eb1be" fill-rule="nonzero" fill-opacity="1" /><path clip-path="url(#clip190)" d="M284.268 1544.91 L291.906 1544.91 L291.906 1518.55 L283.596 1520.21 L283.596 1515.95 L291.86 1514.29 L296.536 1514.29 L296.536 1544.91 L304.175 1544.91 L304.175 1548.85 L284.268 1548.85 L284.268 1544.91 Z" fill="#9eb1be" fill-rule="nonzero" fill-opacity="1" /><path clip-path="url(#clip190)" d="M310.865 1533.96 L323.341 1533.96 L323.341 1537.76 L310.865 1537.76 L310.865 1533.96 Z" fill="#9eb1be" fill-rule="nonzero" fill-opacity="1" /><path clip-path="url(#clip190)" d="M340.726 1517.37 Q337.115 1517.37 335.286 1520.93 Q333.48 1524.47 333.48 1531.6 Q333.48 1538.71 335.286 1542.27 Q337.115 1545.82 340.726 1545.82 Q344.36 1545.82 346.165 1542.27 Q347.994 1538.71 347.994 1531.6 Q347.994 1524.47 346.165 1520.93 Q344.36 1517.37 340.726 1517.37 M340.726 1513.66 Q346.536 1513.66 349.591 1518.27 Q352.67 1522.85 352.67 1531.6 Q352.67 1540.33 349.591 1544.94 Q346.536 1549.52 340.726 1549.52 Q334.915 1549.52 331.837 1544.94 Q328.781 1540.33 328.781 1531.6 Q328.781 1522.85 331.837 1518.27 Q334.915 1513.66 340.726 1513.66 Z" fill="#9eb1be" fill-rule="nonzero" fill-opacity="1" /><path clip-path="url(#clip190)" d="M364.915 1544.91 L381.235 1544.91 L381.235 1548.85 L359.29 1548.85 L359.29 1544.91 Q361.952 1542.16 366.536 1537.53 Q371.142 1532.88 372.323 1531.53 Q374.568 1529.01 375.448 1527.27 Q376.35 1525.51 376.35 1523.82 Q376.35 1521.07 374.406 1519.33 Q372.485 1517.6 369.383 1517.6 Q367.184 1517.6 364.73 1518.36 Q362.3 1519.13 359.522 1520.68 L359.522 1515.95 Q362.346 1514.82 364.8 1514.24 Q367.253 1513.66 369.29 1513.66 Q374.661 1513.66 377.855 1516.35 Q381.049 1519.03 381.049 1523.52 Q381.049 1525.65 380.239 1527.57 Q379.452 1529.47 377.346 1532.07 Q376.767 1532.74 373.665 1535.95 Q370.563 1539.15 364.915 1544.91 Z" fill="#9eb1be" fill-rule="nonzero" fill-opacity="1" /><path clip-path="url(#clip190)" d="M635.436 1544.91 L651.755 1544.91 L651.755 1548.85 L629.811 1548.85 L629.811 1544.91 Q632.473 1542.16 637.056 1537.53 Q641.663 1532.88 642.843 1531.53 Q645.089 1529.01 645.968 1527.27 Q646.871 1525.51 646.871 1523.82 Q646.871 1521.07 644.927 1519.33 Q643.006 1517.6 639.904 1517.6 Q637.705 1517.6 635.251 1518.36 Q632.82 1519.13 630.043 1520.68 L630.043 1515.95 Q632.867 1514.82 635.32 1514.24 Q637.774 1513.66 639.811 1513.66 Q645.181 1513.66 648.376 1516.35 Q651.57 1519.03 651.57 1523.52 Q651.57 1525.65 650.76 1527.57 Q649.973 1529.47 647.867 1532.07 Q647.288 1532.74 644.186 1535.95 Q641.084 1539.15 635.436 1544.91 Z" fill="#9eb1be" fill-rule="nonzero" fill-opacity="1" /><path clip-path="url(#clip190)" d="M671.57 1517.37 Q667.959 1517.37 666.13 1520.93 Q664.325 1524.47 664.325 1531.6 Q664.325 1538.71 666.13 1542.27 Q667.959 1545.82 671.57 1545.82 Q675.204 1545.82 677.01 1542.27 Q678.839 1538.71 678.839 1531.6 Q678.839 1524.47 677.01 1520.93 Q675.204 1517.37 671.57 1517.37 M671.57 1513.66 Q677.38 1513.66 680.436 1518.27 Q683.515 1522.85 683.515 1531.6 Q683.515 1540.33 680.436 1544.94 Q677.38 1549.52 671.57 1549.52 Q665.76 1549.52 662.681 1544.94 Q659.626 1540.33 659.626 1531.6 Q659.626 1522.85 662.681 1518.27 Q665.76 1513.66 671.57 1513.66 Z" fill="#9eb1be" fill-rule="nonzero" fill-opacity="1" /><path clip-path="url(#clip190)" d="M695.76 1544.91 L712.079 1544.91 L712.079 1548.85 L690.135 1548.85 L690.135 1544.91 Q692.797 1542.16 697.38 1537.53 Q701.987 1532.88 703.167 1531.53 Q705.413 1529.01 706.292 1527.27 Q707.195 1525.51 707.195 1523.82 Q707.195 1521.07 705.251 1519.33 Q703.329 1517.6 700.227 1517.6 Q698.028 1517.6 695.575 1518.36 Q693.144 1519.13 690.366 1520.68 L690.366 1515.95 Q693.19 1514.82 695.644 1514.24 Q698.098 1513.66 700.135 1513.66 Q705.505 1513.66 708.7 1516.35 Q711.894 1519.03 711.894 1523.52 Q711.894 1525.65 711.084 1527.57 Q710.297 1529.47 708.19 1532.07 Q707.612 1532.74 704.51 1535.95 Q701.408 1539.15 695.76 1544.91 Z" fill="#9eb1be" fill-rule="nonzero" fill-opacity="1" /><path clip-path="url(#clip190)" d="M731.894 1517.37 Q728.283 1517.37 726.454 1520.93 Q724.649 1524.47 724.649 1531.6 Q724.649 1538.71 726.454 1542.27 Q728.283 1545.82 731.894 1545.82 Q735.528 1545.82 737.334 1542.27 Q739.162 1538.71 739.162 1531.6 Q739.162 1524.47 737.334 1520.93 Q735.528 1517.37 731.894 1517.37 M731.894 1513.66 Q737.704 1513.66 740.76 1518.27 Q743.838 1522.85 743.838 1531.6 Q743.838 1540.33 740.76 1544.94 Q737.704 1549.52 731.894 1549.52 Q726.084 1549.52 723.005 1544.94 Q719.95 1540.33 719.95 1531.6 Q719.95 1522.85 723.005 1518.27 Q726.084 1513.66 731.894 1513.66 Z" fill="#9eb1be" fill-rule="nonzero" fill-opacity="1" /><path clip-path="url(#clip190)" d="M749.301 1533.96 L761.778 1533.96 L761.778 1537.76 L749.301 1537.76 L749.301 1533.96 Z" fill="#9eb1be" fill-rule="nonzero" fill-opacity="1" /><path clip-path="url(#clip190)" d="M779.162 1517.37 Q775.551 1517.37 773.722 1520.93 Q771.917 1524.47 771.917 1531.6 Q771.917 1538.71 773.722 1542.27 Q775.551 1545.82 779.162 1545.82 Q782.796 1545.82 784.602 1542.27 Q786.431 1538.71 786.431 1531.6 Q786.431 1524.47 784.602 1520.93 Q782.796 1517.37 779.162 1517.37 M779.162 1513.66 Q784.972 1513.66 788.028 1518.27 Q791.107 1522.85 791.107 1531.6 Q791.107 1540.33 788.028 1544.94 Q784.972 1549.52 779.162 1549.52 Q773.352 1549.52 770.273 1544.94 Q767.218 1540.33 767.218 1531.6 Q767.218 1522.85 770.273 1518.27 Q773.352 1513.66 779.162 1513.66 Z" fill="#9eb1be" fill-rule="nonzero" fill-opacity="1" /><path clip-path="url(#clip190)" d="M800.134 1544.91 L807.773 1544.91 L807.773 1518.55 L799.463 1520.21 L799.463 1515.95 L807.727 1514.29 L812.403 1514.29 L812.403 1544.91 L820.042 1544.91 L820.042 1548.85 L800.134 1548.85 L800.134 1544.91 Z" fill="#9eb1be" fill-rule="nonzero" fill-opacity="1" /><path clip-path="url(#clip190)" d="M826.731 1533.96 L839.208 1533.96 L839.208 1537.76 L826.731 1537.76 L826.731 1533.96 Z" fill="#9eb1be" fill-rule="nonzero" fill-opacity="1" /><path clip-path="url(#clip190)" d="M856.592 1517.37 Q852.981 1517.37 851.153 1520.93 Q849.347 1524.47 849.347 1531.6 Q849.347 1538.71 851.153 1542.27 Q852.981 1545.82 856.592 1545.82 Q860.227 1545.82 862.032 1542.27 Q863.861 1538.71 863.861 1531.6 Q863.861 1524.47 862.032 1520.93 Q860.227 1517.37 856.592 1517.37 M856.592 1513.66 Q862.402 1513.66 865.458 1518.27 Q868.537 1522.85 868.537 1531.6 Q868.537 1540.33 865.458 1544.94 Q862.402 1549.52 856.592 1549.52 Q850.782 1549.52 847.703 1544.94 Q844.648 1540.33 844.648 1531.6 Q844.648 1522.85 847.703 1518.27 Q850.782 1513.66 856.592 1513.66 Z" fill="#9eb1be" fill-rule="nonzero" fill-opacity="1" /><path clip-path="url(#clip190)" d="M890.921 1530.21 Q894.277 1530.93 896.152 1533.2 Q898.05 1535.47 898.05 1538.8 Q898.05 1543.92 894.532 1546.72 Q891.013 1549.52 884.532 1549.52 Q882.356 1549.52 880.041 1549.08 Q877.75 1548.66 875.296 1547.81 L875.296 1543.29 Q877.24 1544.43 879.555 1545.01 Q881.87 1545.58 884.393 1545.58 Q888.791 1545.58 891.083 1543.85 Q893.398 1542.11 893.398 1538.8 Q893.398 1535.75 891.245 1534.03 Q889.115 1532.3 885.296 1532.3 L881.268 1532.3 L881.268 1528.45 L885.481 1528.45 Q888.93 1528.45 890.759 1527.09 Q892.588 1525.7 892.588 1523.11 Q892.588 1520.45 890.689 1519.03 Q888.814 1517.6 885.296 1517.6 Q883.375 1517.6 881.176 1518.01 Q878.976 1518.43 876.338 1519.31 L876.338 1515.14 Q879 1514.4 881.314 1514.03 Q883.652 1513.66 885.713 1513.66 Q891.037 1513.66 894.138 1516.09 Q897.24 1518.5 897.24 1522.62 Q897.24 1525.49 895.597 1527.48 Q893.953 1529.45 890.921 1530.21 Z" fill="#9eb1be" fill-rule="nonzero" fill-opacity="1" /><path clip-path="url(#clip190)" d="M1151.21 1544.91 L1167.53 1544.91 L1167.53 1548.85 L1145.59 1548.85 L1145.59 1544.91 Q1148.25 1542.16 1152.83 1537.53 Q1157.44 1532.88 1158.62 1531.53 Q1160.86 1529.01 1161.74 1527.27 Q1162.65 1525.51 1162.65 1523.82 Q1162.65 1521.07 1160.7 1519.33 Q1158.78 1517.6 1155.68 1517.6 Q1153.48 1517.6 1151.03 1518.36 Q1148.59 1519.13 1145.82 1520.68 L1145.82 1515.95 Q1148.64 1514.82 1151.09 1514.24 Q1153.55 1513.66 1155.59 1513.66 Q1160.96 1513.66 1164.15 1516.35 Q1167.34 1519.03 1167.34 1523.52 Q1167.34 1525.65 1166.53 1527.57 Q1165.75 1529.47 1163.64 1532.07 Q1163.06 1532.74 1159.96 1535.95 Q1156.86 1539.15 1151.21 1544.91 Z" fill="#9eb1be" fill-rule="nonzero" fill-opacity="1" /><path clip-path="url(#clip190)" d="M1187.34 1517.37 Q1183.73 1517.37 1181.9 1520.93 Q1180.1 1524.47 1180.1 1531.6 Q1180.1 1538.71 1181.9 1542.27 Q1183.73 1545.82 1187.34 1545.82 Q1190.98 1545.82 1192.78 1542.27 Q1194.61 1538.71 1194.61 1531.6 Q1194.61 1524.47 1192.78 1520.93 Q1190.98 1517.37 1187.34 1517.37 M1187.34 1513.66 Q1193.15 1513.66 1196.21 1518.27 Q1199.29 1522.85 1199.29 1531.6 Q1199.29 1540.33 1196.21 1544.94 Q1193.15 1549.52 1187.34 1549.52 Q1181.53 1549.52 1178.46 1544.94 Q1175.4 1540.33 1175.4 1531.6 Q1175.4 1522.85 1178.46 1518.27 Q1181.53 1513.66 1187.34 1513.66 Z" fill="#9eb1be" fill-rule="nonzero" fill-opacity="1" /><path clip-path="url(#clip190)" d="M1211.53 1544.91 L1227.85 1544.91 L1227.85 1548.85 L1205.91 1548.85 L1205.91 1544.91 Q1208.57 1542.16 1213.15 1537.53 Q1217.76 1532.88 1218.94 1531.53 Q1221.19 1529.01 1222.07 1527.27 Q1222.97 1525.51 1222.97 1523.82 Q1222.97 1521.07 1221.02 1519.33 Q1219.1 1517.6 1216 1517.6 Q1213.8 1517.6 1211.35 1518.36 Q1208.92 1519.13 1206.14 1520.68 L1206.14 1515.95 Q1208.96 1514.82 1211.42 1514.24 Q1213.87 1513.66 1215.91 1513.66 Q1221.28 1513.66 1224.47 1516.35 Q1227.67 1519.03 1227.67 1523.52 Q1227.67 1525.65 1226.86 1527.57 Q1226.07 1529.47 1223.96 1532.07 Q1223.39 1532.74 1220.28 1535.95 Q1217.18 1539.15 1211.53 1544.91 Z" fill="#9eb1be" fill-rule="nonzero" fill-opacity="1" /><path clip-path="url(#clip190)" d="M1247.67 1517.37 Q1244.06 1517.37 1242.23 1520.93 Q1240.42 1524.47 1240.42 1531.6 Q1240.42 1538.71 1242.23 1542.27 Q1244.06 1545.82 1247.67 1545.82 Q1251.3 1545.82 1253.11 1542.27 Q1254.94 1538.71 1254.94 1531.6 Q1254.94 1524.47 1253.11 1520.93 Q1251.3 1517.37 1247.67 1517.37 M1247.67 1513.66 Q1253.48 1513.66 1256.53 1518.27 Q1259.61 1522.85 1259.61 1531.6 Q1259.61 1540.33 1256.53 1544.94 Q1253.48 1549.52 1247.67 1549.52 Q1241.86 1549.52 1238.78 1544.94 Q1235.72 1540.33 1235.72 1531.6 Q1235.72 1522.85 1238.78 1518.27 Q1241.86 1513.66 1247.67 1513.66 Z" fill="#9eb1be" fill-rule="nonzero" fill-opacity="1" /><path clip-path="url(#clip190)" d="M1265.08 1533.96 L1277.55 1533.96 L1277.55 1537.76 L1265.08 1537.76 L1265.08 1533.96 Z" fill="#9eb1be" fill-rule="nonzero" fill-opacity="1" /><path clip-path="url(#clip190)" d="M1294.94 1517.37 Q1291.33 1517.37 1289.5 1520.93 Q1287.69 1524.47 1287.69 1531.6 Q1287.69 1538.71 1289.5 1542.27 Q1291.33 1545.82 1294.94 1545.82 Q1298.57 1545.82 1300.38 1542.27 Q1302.2 1538.71 1302.2 1531.6 Q1302.2 1524.47 1300.38 1520.93 Q1298.57 1517.37 1294.94 1517.37 M1294.94 1513.66 Q1300.75 1513.66 1303.8 1518.27 Q1306.88 1522.85 1306.88 1531.6 Q1306.88 1540.33 1303.8 1544.94 Q1300.75 1549.52 1294.94 1549.52 Q1289.13 1549.52 1286.05 1544.94 Q1282.99 1540.33 1282.99 1531.6 Q1282.99 1522.85 1286.05 1518.27 Q1289.13 1513.66 1294.94 1513.66 Z" fill="#9eb1be" fill-rule="nonzero" fill-opacity="1" /><path clip-path="url(#clip190)" d="M1315.91 1544.91 L1323.55 1544.91 L1323.55 1518.55 L1315.24 1520.21 L1315.24 1515.95 L1323.5 1514.29 L1328.18 1514.29 L1328.18 1544.91 L1335.82 1544.91 L1335.82 1548.85 L1315.91 1548.85 L1315.91 1544.91 Z" fill="#9eb1be" fill-rule="nonzero" fill-opacity="1" /><path clip-path="url(#clip190)" d="M1342.51 1533.96 L1354.98 1533.96 L1354.98 1537.76 L1342.51 1537.76 L1342.51 1533.96 Z" fill="#9eb1be" fill-rule="nonzero" fill-opacity="1" /><path clip-path="url(#clip190)" d="M1372.37 1517.37 Q1368.76 1517.37 1366.93 1520.93 Q1365.12 1524.47 1365.12 1531.6 Q1365.12 1538.71 1366.93 1542.27 Q1368.76 1545.82 1372.37 1545.82 Q1376 1545.82 1377.81 1542.27 Q1379.63 1538.71 1379.63 1531.6 Q1379.63 1524.47 1377.81 1520.93 Q1376 1517.37 1372.37 1517.37 M1372.37 1513.66 Q1378.18 1513.66 1381.23 1518.27 Q1384.31 1522.85 1384.31 1531.6 Q1384.31 1540.33 1381.23 1544.94 Q1378.18 1549.52 1372.37 1549.52 Q1366.56 1549.52 1363.48 1544.94 Q1360.42 1540.33 1360.42 1531.6 Q1360.42 1522.85 1363.48 1518.27 Q1366.56 1513.66 1372.37 1513.66 Z" fill="#9eb1be" fill-rule="nonzero" fill-opacity="1" /><path clip-path="url(#clip190)" d="M1405.38 1518.36 L1393.57 1536.81 L1405.38 1536.81 L1405.38 1518.36 M1404.15 1514.29 L1410.03 1514.29 L1410.03 1536.81 L1414.96 1536.81 L1414.96 1540.7 L1410.03 1540.7 L1410.03 1548.85 L1405.38 1548.85 L1405.38 1540.7 L1389.77 1540.7 L1389.77 1536.19 L1404.15 1514.29 Z" fill="#9eb1be" fill-rule="nonzero" fill-opacity="1" /><path clip-path="url(#clip190)" d="M1668.29 1544.91 L1684.61 1544.91 L1684.61 1548.85 L1662.67 1548.85 L1662.67 1544.91 Q1665.33 1542.16 1669.91 1537.53 Q1674.52 1532.88 1675.7 1531.53 Q1677.94 1529.01 1678.82 1527.27 Q1679.73 1525.51 1679.73 1523.82 Q1679.73 1521.07 1677.78 1519.33 Q1675.86 1517.6 1672.76 1517.6 Q1670.56 1517.6 1668.11 1518.36 Q1665.68 1519.13 1662.9 1520.68 L1662.9 1515.95 Q1665.72 1514.82 1668.18 1514.24 Q1670.63 1513.66 1672.67 1513.66 Q1678.04 1513.66 1681.23 1516.35 Q1684.43 1519.03 1684.43 1523.52 Q1684.43 1525.65 1683.62 1527.57 Q1682.83 1529.47 1680.72 1532.07 Q1680.14 1532.74 1677.04 1535.95 Q1673.94 1539.15 1668.29 1544.91 Z" fill="#9eb1be" fill-rule="nonzero" fill-opacity="1" /><path clip-path="url(#clip190)" d="M1704.43 1517.37 Q1700.82 1517.37 1698.99 1520.93 Q1697.18 1524.47 1697.18 1531.6 Q1697.18 1538.71 1698.99 1542.27 Q1700.82 1545.82 1704.43 1545.82 Q1708.06 1545.82 1709.87 1542.27 Q1711.69 1538.71 1711.69 1531.6 Q1711.69 1524.47 1709.87 1520.93 Q1708.06 1517.37 1704.43 1517.37 M1704.43 1513.66 Q1710.24 1513.66 1713.29 1518.27 Q1716.37 1522.85 1716.37 1531.6 Q1716.37 1540.33 1713.29 1544.94 Q1710.24 1549.52 1704.43 1549.52 Q1698.62 1549.52 1695.54 1544.94 Q1692.48 1540.33 1692.48 1531.6 Q1692.48 1522.85 1695.54 1518.27 Q1698.62 1513.66 1704.43 1513.66 Z" fill="#9eb1be" fill-rule="nonzero" fill-opacity="1" /><path clip-path="url(#clip190)" d="M1728.62 1544.91 L1744.94 1544.91 L1744.94 1548.85 L1722.99 1548.85 L1722.99 1544.91 Q1725.65 1542.16 1730.24 1537.53 Q1734.84 1532.88 1736.02 1531.53 Q1738.27 1529.01 1739.15 1527.27 Q1740.05 1525.51 1740.05 1523.82 Q1740.05 1521.07 1738.11 1519.33 Q1736.19 1517.6 1733.08 1517.6 Q1730.88 1517.6 1728.43 1518.36 Q1726 1519.13 1723.22 1520.68 L1723.22 1515.95 Q1726.05 1514.82 1728.5 1514.24 Q1730.95 1513.66 1732.99 1513.66 Q1738.36 1513.66 1741.56 1516.35 Q1744.75 1519.03 1744.75 1523.52 Q1744.75 1525.65 1743.94 1527.57 Q1743.15 1529.47 1741.05 1532.07 Q1740.47 1532.74 1737.37 1535.95 Q1734.26 1539.15 1728.62 1544.91 Z" fill="#9eb1be" fill-rule="nonzero" fill-opacity="1" /><path clip-path="url(#clip190)" d="M1764.75 1517.37 Q1761.14 1517.37 1759.31 1520.93 Q1757.5 1524.47 1757.5 1531.6 Q1757.5 1538.71 1759.31 1542.27 Q1761.14 1545.82 1764.75 1545.82 Q1768.38 1545.82 1770.19 1542.27 Q1772.02 1538.71 1772.02 1531.6 Q1772.02 1524.47 1770.19 1520.93 Q1768.38 1517.37 1764.75 1517.37 M1764.75 1513.66 Q1770.56 1513.66 1773.62 1518.27 Q1776.69 1522.85 1776.69 1531.6 Q1776.69 1540.33 1773.62 1544.94 Q1770.56 1549.52 1764.75 1549.52 Q1758.94 1549.52 1755.86 1544.94 Q1752.81 1540.33 1752.81 1531.6 Q1752.81 1522.85 1755.86 1518.27 Q1758.94 1513.66 1764.75 1513.66 Z" fill="#9eb1be" fill-rule="nonzero" fill-opacity="1" /><path clip-path="url(#clip190)" d="M1782.16 1533.96 L1794.63 1533.96 L1794.63 1537.76 L1782.16 1537.76 L1782.16 1533.96 Z" fill="#9eb1be" fill-rule="nonzero" fill-opacity="1" /><path clip-path="url(#clip190)" d="M1812.02 1517.37 Q1808.41 1517.37 1806.58 1520.93 Q1804.77 1524.47 1804.77 1531.6 Q1804.77 1538.71 1806.58 1542.27 Q1808.41 1545.82 1812.02 1545.82 Q1815.65 1545.82 1817.46 1542.27 Q1819.29 1538.71 1819.29 1531.6 Q1819.29 1524.47 1817.46 1520.93 Q1815.65 1517.37 1812.02 1517.37 M1812.02 1513.66 Q1817.83 1513.66 1820.88 1518.27 Q1823.96 1522.85 1823.96 1531.6 Q1823.96 1540.33 1820.88 1544.94 Q1817.83 1549.52 1812.02 1549.52 Q1806.21 1549.52 1803.13 1544.94 Q1800.07 1540.33 1800.07 1531.6 Q1800.07 1522.85 1803.13 1518.27 Q1806.21 1513.66 1812.02 1513.66 Z" fill="#9eb1be" fill-rule="nonzero" fill-opacity="1" /><path clip-path="url(#clip190)" d="M1832.99 1544.91 L1840.63 1544.91 L1840.63 1518.55 L1832.32 1520.21 L1832.32 1515.95 L1840.58 1514.29 L1845.26 1514.29 L1845.26 1544.91 L1852.9 1544.91 L1852.9 1548.85 L1832.99 1548.85 L1832.99 1544.91 Z" fill="#9eb1be" fill-rule="nonzero" fill-opacity="1" /><path clip-path="url(#clip190)" d="M1859.59 1533.96 L1872.06 1533.96 L1872.06 1537.76 L1859.59 1537.76 L1859.59 1533.96 Z" fill="#9eb1be" fill-rule="nonzero" fill-opacity="1" /><path clip-path="url(#clip190)" d="M1889.45 1517.37 Q1885.84 1517.37 1884.01 1520.93 Q1882.2 1524.47 1882.2 1531.6 Q1882.2 1538.71 1884.01 1542.27 Q1885.84 1545.82 1889.45 1545.82 Q1893.08 1545.82 1894.89 1542.27 Q1896.72 1538.71 1896.72 1531.6 Q1896.72 1524.47 1894.89 1520.93 Q1893.08 1517.37 1889.45 1517.37 M1889.45 1513.66 Q1895.26 1513.66 1898.31 1518.27 Q1901.39 1522.85 1901.39 1531.6 Q1901.39 1540.33 1898.31 1544.94 Q1895.26 1549.52 1889.45 1549.52 Q1883.64 1549.52 1880.56 1544.94 Q1877.5 1540.33 1877.5 1531.6 Q1877.5 1522.85 1880.56 1518.27 Q1883.64 1513.66 1889.45 1513.66 Z" fill="#9eb1be" fill-rule="nonzero" fill-opacity="1" /><path clip-path="url(#clip190)" d="M1909.66 1514.29 L1928.01 1514.29 L1928.01 1518.22 L1913.94 1518.22 L1913.94 1526.7 Q1914.96 1526.35 1915.98 1526.19 Q1916.99 1526 1918.01 1526 Q1923.8 1526 1927.18 1529.17 Q1930.56 1532.34 1930.56 1537.76 Q1930.56 1543.34 1927.09 1546.44 Q1923.61 1549.52 1917.3 1549.52 Q1915.12 1549.52 1912.85 1549.15 Q1910.61 1548.78 1908.2 1548.04 L1908.2 1543.34 Q1910.28 1544.47 1912.5 1545.03 Q1914.73 1545.58 1917.2 1545.58 Q1921.21 1545.58 1923.55 1543.48 Q1925.88 1541.37 1925.88 1537.76 Q1925.88 1534.15 1923.55 1532.04 Q1921.21 1529.94 1917.2 1529.94 Q1915.33 1529.94 1913.45 1530.35 Q1911.6 1530.77 1909.66 1531.65 L1909.66 1514.29 Z" fill="#9eb1be" fill-rule="nonzero" fill-opacity="1" /><path clip-path="url(#clip190)" d="M2184.05 1544.91 L2200.37 1544.91 L2200.37 1548.85 L2178.43 1548.85 L2178.43 1544.91 Q2181.09 1542.16 2185.68 1537.53 Q2190.28 1532.88 2191.46 1531.53 Q2193.71 1529.01 2194.59 1527.27 Q2195.49 1525.51 2195.49 1523.82 Q2195.49 1521.07 2193.55 1519.33 Q2191.62 1517.6 2188.52 1517.6 Q2186.32 1517.6 2183.87 1518.36 Q2181.44 1519.13 2178.66 1520.68 L2178.66 1515.95 Q2181.49 1514.82 2183.94 1514.24 Q2186.39 1513.66 2188.43 1513.66 Q2193.8 1513.66 2196.99 1516.35 Q2200.19 1519.03 2200.19 1523.52 Q2200.19 1525.65 2199.38 1527.57 Q2198.59 1529.47 2196.49 1532.07 Q2195.91 1532.74 2192.8 1535.95 Q2189.7 1539.15 2184.05 1544.91 Z" fill="#9eb1be" fill-rule="nonzero" fill-opacity="1" /><path clip-path="url(#clip190)" d="M2220.19 1517.37 Q2216.58 1517.37 2214.75 1520.93 Q2212.94 1524.47 2212.94 1531.6 Q2212.94 1538.71 2214.75 1542.27 Q2216.58 1545.82 2220.19 1545.82 Q2223.82 1545.82 2225.63 1542.27 Q2227.46 1538.71 2227.46 1531.6 Q2227.46 1524.47 2225.63 1520.93 Q2223.82 1517.37 2220.19 1517.37 M2220.19 1513.66 Q2226 1513.66 2229.05 1518.27 Q2232.13 1522.85 2232.13 1531.6 Q2232.13 1540.33 2229.05 1544.94 Q2226 1549.52 2220.19 1549.52 Q2214.38 1549.52 2211.3 1544.94 Q2208.24 1540.33 2208.24 1531.6 Q2208.24 1522.85 2211.3 1518.27 Q2214.38 1513.66 2220.19 1513.66 Z" fill="#9eb1be" fill-rule="nonzero" fill-opacity="1" /><path clip-path="url(#clip190)" d="M2244.38 1544.91 L2260.7 1544.91 L2260.7 1548.85 L2238.75 1548.85 L2238.75 1544.91 Q2241.42 1542.16 2246 1537.53 Q2250.61 1532.88 2251.79 1531.53 Q2254.03 1529.01 2254.91 1527.27 Q2255.81 1525.51 2255.81 1523.82 Q2255.81 1521.07 2253.87 1519.33 Q2251.95 1517.6 2248.85 1517.6 Q2246.65 1517.6 2244.19 1518.36 Q2241.76 1519.13 2238.99 1520.68 L2238.99 1515.95 Q2241.81 1514.82 2244.26 1514.24 Q2246.72 1513.66 2248.75 1513.66 Q2254.12 1513.66 2257.32 1516.35 Q2260.51 1519.03 2260.51 1523.52 Q2260.51 1525.65 2259.7 1527.57 Q2258.92 1529.47 2256.81 1532.07 Q2256.23 1532.74 2253.13 1535.95 Q2250.03 1539.15 2244.38 1544.91 Z" fill="#9eb1be" fill-rule="nonzero" fill-opacity="1" /><path clip-path="url(#clip190)" d="M2280.51 1517.37 Q2276.9 1517.37 2275.07 1520.93 Q2273.27 1524.47 2273.27 1531.6 Q2273.27 1538.71 2275.07 1542.27 Q2276.9 1545.82 2280.51 1545.82 Q2284.15 1545.82 2285.95 1542.27 Q2287.78 1538.71 2287.78 1531.6 Q2287.78 1524.47 2285.95 1520.93 Q2284.15 1517.37 2280.51 1517.37 M2280.51 1513.66 Q2286.32 1513.66 2289.38 1518.27 Q2292.46 1522.85 2292.46 1531.6 Q2292.46 1540.33 2289.38 1544.94 Q2286.32 1549.52 2280.51 1549.52 Q2274.7 1549.52 2271.62 1544.94 Q2268.57 1540.33 2268.57 1531.6 Q2268.57 1522.85 2271.62 1518.27 Q2274.7 1513.66 2280.51 1513.66 Z" fill="#9eb1be" fill-rule="nonzero" fill-opacity="1" /><path clip-path="url(#clip190)" d="M2297.92 1533.96 L2310.4 1533.96 L2310.4 1537.76 L2297.92 1537.76 L2297.92 1533.96 Z" fill="#9eb1be" fill-rule="nonzero" fill-opacity="1" /><path clip-path="url(#clip190)" d="M2327.78 1517.37 Q2324.17 1517.37 2322.34 1520.93 Q2320.54 1524.47 2320.54 1531.6 Q2320.54 1538.71 2322.34 1542.27 Q2324.17 1545.82 2327.78 1545.82 Q2331.42 1545.82 2333.22 1542.27 Q2335.05 1538.71 2335.05 1531.6 Q2335.05 1524.47 2333.22 1520.93 Q2331.42 1517.37 2327.78 1517.37 M2327.78 1513.66 Q2333.59 1513.66 2336.65 1518.27 Q2339.73 1522.85 2339.73 1531.6 Q2339.73 1540.33 2336.65 1544.94 Q2333.59 1549.52 2327.78 1549.52 Q2321.97 1549.52 2318.89 1544.94 Q2315.84 1540.33 2315.84 1531.6 Q2315.84 1522.85 2318.89 1518.27 Q2321.97 1513.66 2327.78 1513.66 Z" fill="#9eb1be" fill-rule="nonzero" fill-opacity="1" /><path clip-path="url(#clip190)" d="M2348.75 1544.91 L2356.39 1544.91 L2356.39 1518.55 L2348.08 1520.21 L2348.08 1515.95 L2356.35 1514.29 L2361.02 1514.29 L2361.02 1544.91 L2368.66 1544.91 L2368.66 1548.85 L2348.75 1548.85 L2348.75 1544.91 Z" fill="#9eb1be" fill-rule="nonzero" fill-opacity="1" /><path clip-path="url(#clip190)" d="M2375.35 1533.96 L2387.83 1533.96 L2387.83 1537.76 L2375.35 1537.76 L2375.35 1533.96 Z" fill="#9eb1be" fill-rule="nonzero" fill-opacity="1" /><path clip-path="url(#clip190)" d="M2405.21 1517.37 Q2401.6 1517.37 2399.77 1520.93 Q2397.97 1524.47 2397.97 1531.6 Q2397.97 1538.71 2399.77 1542.27 Q2401.6 1545.82 2405.21 1545.82 Q2408.85 1545.82 2410.65 1542.27 Q2412.48 1538.71 2412.48 1531.6 Q2412.48 1524.47 2410.65 1520.93 Q2408.85 1517.37 2405.21 1517.37 M2405.21 1513.66 Q2411.02 1513.66 2414.08 1518.27 Q2417.16 1522.85 2417.16 1531.6 Q2417.16 1540.33 2414.08 1544.94 Q2411.02 1549.52 2405.21 1549.52 Q2399.4 1549.52 2396.32 1544.94 Q2393.27 1540.33 2393.27 1531.6 Q2393.27 1522.85 2396.32 1518.27 Q2399.4 1513.66 2405.21 1513.66 Z" fill="#9eb1be" fill-rule="nonzero" fill-opacity="1" /><path clip-path="url(#clip190)" d="M2435.95 1529.7 Q2432.8 1529.7 2430.95 1531.86 Q2429.12 1534.01 2429.12 1537.76 Q2429.12 1541.49 2430.95 1543.66 Q2432.8 1545.82 2435.95 1545.82 Q2439.1 1545.82 2440.93 1543.66 Q2442.78 1541.49 2442.78 1537.76 Q2442.78 1534.01 2440.93 1531.86 Q2439.1 1529.7 2435.95 1529.7 M2445.23 1515.05 L2445.23 1519.31 Q2443.47 1518.48 2441.67 1518.04 Q2439.89 1517.6 2438.13 1517.6 Q2433.5 1517.6 2431.04 1520.72 Q2428.61 1523.85 2428.27 1530.17 Q2429.63 1528.15 2431.69 1527.09 Q2433.75 1526 2436.23 1526 Q2441.44 1526 2444.45 1529.17 Q2447.48 1532.32 2447.48 1537.76 Q2447.48 1543.08 2444.33 1546.3 Q2441.18 1549.52 2435.95 1549.52 Q2429.96 1549.52 2426.79 1544.94 Q2423.61 1540.33 2423.61 1531.6 Q2423.61 1523.41 2427.5 1518.55 Q2431.39 1513.66 2437.94 1513.66 Q2439.7 1513.66 2441.48 1514.01 Q2443.29 1514.36 2445.23 1515.05 Z" fill="#9eb1be" fill-rule="nonzero" fill-opacity="1" /><polyline clip-path="url(#clip190)" style="stroke:#adb2b7; stroke-linecap:round; stroke-linejoin:round; stroke-width:4; stroke-opacity:1; fill:none" points="186.274,1486.45 186.274,106.192 "/>
<polyline clip-path="url(#clip190)" style="stroke:#adb2b7; stroke-linecap:round; stroke-linejoin:round; stroke-width:4; stroke-opacity:1; fill:none" points="186.274,1343.28 205.172,1343.28 "/>
<polyline clip-path="url(#clip190)" style="stroke:#adb2b7; stroke-linecap:round; stroke-linejoin:round; stroke-width:4; stroke-opacity:1; fill:none" points="186.274,1090.02 205.172,1090.02 "/>
<polyline clip-path="url(#clip190)" style="stroke:#adb2b7; stroke-linecap:round; stroke-linejoin:round; stroke-width:4; stroke-opacity:1; fill:none" points="186.274,836.752 205.172,836.752 "/>
<polyline clip-path="url(#clip190)" style="stroke:#adb2b7; stroke-linecap:round; stroke-linejoin:round; stroke-width:4; stroke-opacity:1; fill:none" points="186.274,583.488 205.172,583.488 "/>
<polyline clip-path="url(#clip190)" style="stroke:#adb2b7; stroke-linecap:round; stroke-linejoin:round; stroke-width:4; stroke-opacity:1; fill:none" points="186.274,330.224 205.172,330.224 "/>
<path clip-path="url(#clip190)" d="M62.9365 1329.08 Q59.3254 1329.08 57.4967 1332.64 Q55.6912 1336.19 55.6912 1343.32 Q55.6912 1350.42 57.4967 1353.99 Q59.3254 1357.53 62.9365 1357.53 Q66.5707 1357.53 68.3763 1353.99 Q70.205 1350.42 70.205 1343.32 Q70.205 1336.19 68.3763 1332.64 Q66.5707 1329.08 62.9365 1329.08 M62.9365 1325.38 Q68.7467 1325.38 71.8022 1329.98 Q74.8809 1334.57 74.8809 1343.32 Q74.8809 1352.04 71.8022 1356.65 Q68.7467 1361.23 62.9365 1361.23 Q57.1264 1361.23 54.0477 1356.65 Q50.9921 1352.04 50.9921 1343.32 Q50.9921 1334.57 54.0477 1329.98 Q57.1264 1325.38 62.9365 1325.38 Z" fill="#9eb1be" fill-rule="nonzero" fill-opacity="1" /><path clip-path="url(#clip190)" d="M83.0984 1354.68 L87.9827 1354.68 L87.9827 1360.56 L83.0984 1360.56 L83.0984 1354.68 Z" fill="#9eb1be" fill-rule="nonzero" fill-opacity="1" /><path clip-path="url(#clip190)" d="M108.168 1329.08 Q104.557 1329.08 102.728 1332.64 Q100.922 1336.19 100.922 1343.32 Q100.922 1350.42 102.728 1353.99 Q104.557 1357.53 108.168 1357.53 Q111.802 1357.53 113.608 1353.99 Q115.436 1350.42 115.436 1343.32 Q115.436 1336.19 113.608 1332.64 Q111.802 1329.08 108.168 1329.08 M108.168 1325.38 Q113.978 1325.38 117.033 1329.98 Q120.112 1334.57 120.112 1343.32 Q120.112 1352.04 117.033 1356.65 Q113.978 1361.23 108.168 1361.23 Q102.358 1361.23 99.2789 1356.65 Q96.2234 1352.04 96.2234 1343.32 Q96.2234 1334.57 99.2789 1329.98 Q102.358 1325.38 108.168 1325.38 Z" fill="#9eb1be" fill-rule="nonzero" fill-opacity="1" /><path clip-path="url(#clip190)" d="M138.33 1329.08 Q134.719 1329.08 132.89 1332.64 Q131.084 1336.19 131.084 1343.32 Q131.084 1350.42 132.89 1353.99 Q134.719 1357.53 138.33 1357.53 Q141.964 1357.53 143.769 1353.99 Q145.598 1350.42 145.598 1343.32 Q145.598 1336.19 143.769 1332.64 Q141.964 1329.08 138.33 1329.08 M138.33 1325.38 Q144.14 1325.38 147.195 1329.98 Q150.274 1334.57 150.274 1343.32 Q150.274 1352.04 147.195 1356.65 Q144.14 1361.23 138.33 1361.23 Q132.519 1361.23 129.441 1356.65 Q126.385 1352.04 126.385 1343.32 Q126.385 1334.57 129.441 1329.98 Q132.519 1325.38 138.33 1325.38 Z" fill="#9eb1be" fill-rule="nonzero" fill-opacity="1" /><path clip-path="url(#clip190)" d="M63.9319 1075.81 Q60.3208 1075.81 58.4921 1079.38 Q56.6865 1082.92 56.6865 1090.05 Q56.6865 1097.16 58.4921 1100.72 Q60.3208 1104.26 63.9319 1104.26 Q67.5661 1104.26 69.3717 1100.72 Q71.2004 1097.16 71.2004 1090.05 Q71.2004 1082.92 69.3717 1079.38 Q67.5661 1075.81 63.9319 1075.81 M63.9319 1072.11 Q69.742 1072.11 72.7976 1076.72 Q75.8763 1081.3 75.8763 1090.05 Q75.8763 1098.78 72.7976 1103.38 Q69.742 1107.97 63.9319 1107.97 Q58.1217 1107.97 55.043 1103.38 Q51.9875 1098.78 51.9875 1090.05 Q51.9875 1081.3 55.043 1076.72 Q58.1217 1072.11 63.9319 1072.11 Z" fill="#9eb1be" fill-rule="nonzero" fill-opacity="1" /><path clip-path="url(#clip190)" d="M84.0938 1101.42 L88.978 1101.42 L88.978 1107.3 L84.0938 1107.3 L84.0938 1101.42 Z" fill="#9eb1be" fill-rule="nonzero" fill-opacity="1" /><path clip-path="url(#clip190)" d="M109.163 1075.81 Q105.552 1075.81 103.723 1079.38 Q101.918 1082.92 101.918 1090.05 Q101.918 1097.16 103.723 1100.72 Q105.552 1104.26 109.163 1104.26 Q112.797 1104.26 114.603 1100.72 Q116.432 1097.16 116.432 1090.05 Q116.432 1082.92 114.603 1079.38 Q112.797 1075.81 109.163 1075.81 M109.163 1072.11 Q114.973 1072.11 118.029 1076.72 Q121.107 1081.3 121.107 1090.05 Q121.107 1098.78 118.029 1103.38 Q114.973 1107.97 109.163 1107.97 Q103.353 1107.97 100.274 1103.38 Q97.2187 1098.78 97.2187 1090.05 Q97.2187 1081.3 100.274 1076.72 Q103.353 1072.11 109.163 1072.11 Z" fill="#9eb1be" fill-rule="nonzero" fill-opacity="1" /><path clip-path="url(#clip190)" d="M129.371 1072.74 L147.728 1072.74 L147.728 1076.67 L133.654 1076.67 L133.654 1085.14 Q134.672 1084.8 135.691 1084.63 Q136.709 1084.45 137.728 1084.45 Q143.515 1084.45 146.894 1087.62 Q150.274 1090.79 150.274 1096.21 Q150.274 1101.79 146.802 1104.89 Q143.33 1107.97 137.01 1107.97 Q134.834 1107.97 132.566 1107.6 Q130.32 1107.23 127.913 1106.49 L127.913 1101.79 Q129.996 1102.92 132.219 1103.48 Q134.441 1104.03 136.918 1104.03 Q140.922 1104.03 143.26 1101.93 Q145.598 1099.82 145.598 1096.21 Q145.598 1092.6 143.26 1090.49 Q140.922 1088.38 136.918 1088.38 Q135.043 1088.38 133.168 1088.8 Q131.316 1089.22 129.371 1090.1 L129.371 1072.74 Z" fill="#9eb1be" fill-rule="nonzero" fill-opacity="1" /><path clip-path="url(#clip190)" d="M62.9365 822.551 Q59.3254 822.551 57.4967 826.116 Q55.6912 829.657 55.6912 836.787 Q55.6912 843.893 57.4967 847.458 Q59.3254 851 62.9365 851 Q66.5707 851 68.3763 847.458 Q70.205 843.893 70.205 836.787 Q70.205 829.657 68.3763 826.116 Q66.5707 822.551 62.9365 822.551 M62.9365 818.847 Q68.7467 818.847 71.8022 823.453 Q74.8809 828.037 74.8809 836.787 Q74.8809 845.514 71.8022 850.12 Q68.7467 854.703 62.9365 854.703 Q57.1264 854.703 54.0477 850.12 Q50.9921 845.514 50.9921 836.787 Q50.9921 828.037 54.0477 823.453 Q57.1264 818.847 62.9365 818.847 Z" fill="#9eb1be" fill-rule="nonzero" fill-opacity="1" /><path clip-path="url(#clip190)" d="M83.0984 848.152 L87.9827 848.152 L87.9827 854.032 L83.0984 854.032 L83.0984 848.152 Z" fill="#9eb1be" fill-rule="nonzero" fill-opacity="1" /><path clip-path="url(#clip190)" d="M98.978 850.097 L106.617 850.097 L106.617 823.731 L98.3067 825.398 L98.3067 821.139 L106.571 819.472 L111.246 819.472 L111.246 850.097 L118.885 850.097 L118.885 854.032 L98.978 854.032 L98.978 850.097 Z" fill="#9eb1be" fill-rule="nonzero" fill-opacity="1" /><path clip-path="url(#clip190)" d="M138.33 822.551 Q134.719 822.551 132.89 826.116 Q131.084 829.657 131.084 836.787 Q131.084 843.893 132.89 847.458 Q134.719 851 138.33 851 Q141.964 851 143.769 847.458 Q145.598 843.893 145.598 836.787 Q145.598 829.657 143.769 826.116 Q141.964 822.551 138.33 822.551 M138.33 818.847 Q144.14 818.847 147.195 823.453 Q150.274 828.037 150.274 836.787 Q150.274 845.514 147.195 850.12 Q144.14 854.703 138.33 854.703 Q132.519 854.703 129.441 850.12 Q126.385 845.514 126.385 836.787 Q126.385 828.037 129.441 823.453 Q132.519 818.847 138.33 818.847 Z" fill="#9eb1be" fill-rule="nonzero" fill-opacity="1" /><path clip-path="url(#clip190)" d="M63.9319 569.286 Q60.3208 569.286 58.4921 572.851 Q56.6865 576.393 56.6865 583.522 Q56.6865 590.629 58.4921 594.194 Q60.3208 597.735 63.9319 597.735 Q67.5661 597.735 69.3717 594.194 Q71.2004 590.629 71.2004 583.522 Q71.2004 576.393 69.3717 572.851 Q67.5661 569.286 63.9319 569.286 M63.9319 565.583 Q69.742 565.583 72.7976 570.189 Q75.8763 574.773 75.8763 583.522 Q75.8763 592.249 72.7976 596.856 Q69.742 601.439 63.9319 601.439 Q58.1217 601.439 55.043 596.856 Q51.9875 592.249 51.9875 583.522 Q51.9875 574.773 55.043 570.189 Q58.1217 565.583 63.9319 565.583 Z" fill="#9eb1be" fill-rule="nonzero" fill-opacity="1" /><path clip-path="url(#clip190)" d="M84.0938 594.888 L88.978 594.888 L88.978 600.768 L84.0938 600.768 L84.0938 594.888 Z" fill="#9eb1be" fill-rule="nonzero" fill-opacity="1" /><path clip-path="url(#clip190)" d="M99.9733 596.833 L107.612 596.833 L107.612 570.467 L99.3021 572.134 L99.3021 567.874 L107.566 566.208 L112.242 566.208 L112.242 596.833 L119.881 596.833 L119.881 600.768 L99.9733 600.768 L99.9733 596.833 Z" fill="#9eb1be" fill-rule="nonzero" fill-opacity="1" /><path clip-path="url(#clip190)" d="M129.371 566.208 L147.728 566.208 L147.728 570.143 L133.654 570.143 L133.654 578.615 Q134.672 578.268 135.691 578.106 Q136.709 577.921 137.728 577.921 Q143.515 577.921 146.894 581.092 Q150.274 584.263 150.274 589.68 Q150.274 595.259 146.802 598.36 Q143.33 601.439 137.01 601.439 Q134.834 601.439 132.566 601.069 Q130.32 600.698 127.913 599.958 L127.913 595.259 Q129.996 596.393 132.219 596.948 Q134.441 597.504 136.918 597.504 Q140.922 597.504 143.26 595.397 Q145.598 593.291 145.598 589.68 Q145.598 586.069 143.26 583.962 Q140.922 581.856 136.918 581.856 Q135.043 581.856 133.168 582.272 Q131.316 582.689 129.371 583.569 L129.371 566.208 Z" fill="#9eb1be" fill-rule="nonzero" fill-opacity="1" /><path clip-path="url(#clip190)" d="M62.9365 316.022 Q59.3254 316.022 57.4967 319.587 Q55.6912 323.129 55.6912 330.258 Q55.6912 337.365 57.4967 340.929 Q59.3254 344.471 62.9365 344.471 Q66.5707 344.471 68.3763 340.929 Q70.205 337.365 70.205 330.258 Q70.205 323.129 68.3763 319.587 Q66.5707 316.022 62.9365 316.022 M62.9365 312.319 Q68.7467 312.319 71.8022 316.925 Q74.8809 321.508 74.8809 330.258 Q74.8809 338.985 71.8022 343.592 Q68.7467 348.175 62.9365 348.175 Q57.1264 348.175 54.0477 343.592 Q50.9921 338.985 50.9921 330.258 Q50.9921 321.508 54.0477 316.925 Q57.1264 312.319 62.9365 312.319 Z" fill="#9eb1be" fill-rule="nonzero" fill-opacity="1" /><path clip-path="url(#clip190)" d="M83.0984 341.624 L87.9827 341.624 L87.9827 347.504 L83.0984 347.504 L83.0984 341.624 Z" fill="#9eb1be" fill-rule="nonzero" fill-opacity="1" /><path clip-path="url(#clip190)" d="M102.196 343.568 L118.515 343.568 L118.515 347.504 L96.5706 347.504 L96.5706 343.568 Q99.2326 340.814 103.816 336.184 Q108.422 331.531 109.603 330.189 Q111.848 327.666 112.728 325.93 Q113.631 324.17 113.631 322.481 Q113.631 319.726 111.686 317.99 Q109.765 316.254 106.663 316.254 Q104.464 316.254 102.01 317.018 Q99.5798 317.781 96.8021 319.332 L96.8021 314.61 Q99.6261 313.476 102.08 312.897 Q104.534 312.319 106.571 312.319 Q111.941 312.319 115.135 315.004 Q118.33 317.689 118.33 322.18 Q118.33 324.309 117.52 326.23 Q116.733 328.129 114.626 330.721 Q114.047 331.392 110.946 334.61 Q107.844 337.804 102.196 343.568 Z" fill="#9eb1be" fill-rule="nonzero" fill-opacity="1" /><path clip-path="url(#clip190)" d="M138.33 316.022 Q134.719 316.022 132.89 319.587 Q131.084 323.129 131.084 330.258 Q131.084 337.365 132.89 340.929 Q134.719 344.471 138.33 344.471 Q141.964 344.471 143.769 340.929 Q145.598 337.365 145.598 330.258 Q145.598 323.129 143.769 319.587 Q141.964 316.022 138.33 316.022 M138.33 312.319 Q144.14 312.319 147.195 316.925 Q150.274 321.508 150.274 330.258 Q150.274 338.985 147.195 343.592 Q144.14 348.175 138.33 348.175 Q132.519 348.175 129.441 343.592 Q126.385 338.985 126.385 330.258 Q126.385 321.508 129.441 316.925 Q132.519 312.319 138.33 312.319 Z" fill="#9eb1be" fill-rule="nonzero" fill-opacity="1" /><path clip-path="url(#clip190)" d="M206.76 31.5855 Q208.641 32.222 210.406 34.3054 Q212.2 36.3887 213.994 40.0345 L219.925 51.84 L213.647 51.84 L208.12 40.7579 Q205.979 36.4176 203.953 34.9998 Q201.957 33.582 198.485 33.582 L192.119 33.582 L192.119 51.84 L186.274 51.84 L186.274 8.64 L199.468 8.64 Q206.876 8.64 210.522 11.736 Q214.167 14.8321 214.167 21.0821 Q214.167 25.1619 212.258 27.8529 Q210.377 30.5438 206.76 31.5855 M192.119 13.4432 L192.119 28.7788 L199.468 28.7788 Q203.693 28.7788 205.834 26.8401 Q208.004 24.8726 208.004 21.0821 Q208.004 17.2916 205.834 15.3819 Q203.693 13.4432 199.468 13.4432 L192.119 13.4432 Z" fill="#adb2b7" fill-rule="nonzero" fill-opacity="1" /><path clip-path="url(#clip190)" d="M252.275 34.3054 L252.275 36.9095 L227.796 36.9095 Q228.143 42.4072 231.094 45.3007 Q234.075 48.1653 239.37 48.1653 Q242.437 48.1653 245.301 47.4129 Q248.195 46.6606 251.031 45.156 L251.031 50.1907 Q248.166 51.406 245.157 52.0425 Q242.148 52.6791 239.051 52.6791 Q231.297 52.6791 226.754 48.1653 Q222.24 43.6514 222.24 35.9547 Q222.24 27.9975 226.523 23.339 Q230.834 18.6515 238.126 18.6515 Q244.665 18.6515 248.455 22.876 Q252.275 27.0716 252.275 34.3054 M246.951 32.7429 Q246.893 28.3737 244.491 25.7695 Q242.119 23.1654 238.183 23.1654 Q233.727 23.1654 231.036 25.6827 Q228.374 28.2001 227.969 32.7718 L246.951 32.7429 Z" fill="#adb2b7" fill-rule="nonzero" fill-opacity="1" /><path clip-path="url(#clip190)" d="M275.741 35.5496 Q269.289 35.5496 266.8 37.0253 Q264.312 38.501 264.312 42.06 Q264.312 44.8956 266.164 46.5738 Q268.044 48.2231 271.256 48.2231 Q275.683 48.2231 278.345 45.0981 Q281.036 41.9442 281.036 36.7359 L281.036 35.5496 L275.741 35.5496 M286.36 33.3505 L286.36 51.84 L281.036 51.84 L281.036 46.921 Q279.213 49.8724 276.493 51.2902 Q273.774 52.6791 269.838 52.6791 Q264.862 52.6791 261.91 49.9014 Q258.988 47.0947 258.988 42.4072 Q258.988 36.9385 262.634 34.1607 Q266.308 31.3829 273.571 31.3829 L281.036 31.3829 L281.036 30.8621 Q281.036 27.1874 278.606 25.1908 Q276.204 23.1654 271.835 23.1654 Q269.057 23.1654 266.424 23.8309 Q263.791 24.4964 261.36 25.8274 L261.36 20.9085 Q264.283 19.78 267.032 19.2302 Q269.78 18.6515 272.385 18.6515 Q279.416 18.6515 282.888 22.2973 Q286.36 25.9431 286.36 33.3505 Z" fill="#adb2b7" fill-rule="nonzero" fill-opacity="1" /><path clip-path="url(#clip190)" d="M297.327 6.81709 L302.651 6.81709 L302.651 51.84 L297.327 51.84 L297.327 6.81709 Z" fill="#adb2b7" fill-rule="nonzero" fill-opacity="1" /><path clip-path="url(#clip190)" d="M313.791 19.4328 L319.115 19.4328 L319.115 51.84 L313.791 51.84 L313.791 19.4328 M313.791 6.81709 L319.115 6.81709 L319.115 13.559 L313.791 13.559 L313.791 6.81709 Z" fill="#adb2b7" fill-rule="nonzero" fill-opacity="1" /><path clip-path="url(#clip190)" d="M327.94 19.4328 L353.229 19.4328 L353.229 24.2939 L333.206 47.5866 L353.229 47.5866 L353.229 51.84 L327.217 51.84 L327.217 46.9789 L347.24 23.6862 L327.94 23.6862 L327.94 19.4328 Z" fill="#adb2b7" fill-rule="nonzero" fill-opacity="1" /><path clip-path="url(#clip190)" d="M389.08 34.3054 L389.08 36.9095 L364.601 36.9095 Q364.948 42.4072 367.899 45.3007 Q370.879 48.1653 376.175 48.1653 Q379.242 48.1653 382.106 47.4129 Q385 46.6606 387.835 45.156 L387.835 50.1907 Q384.971 51.406 381.962 52.0425 Q378.952 52.6791 375.856 52.6791 Q368.102 52.6791 363.559 48.1653 Q359.045 43.6514 359.045 35.9547 Q359.045 27.9975 363.327 23.339 Q367.639 18.6515 374.93 18.6515 Q381.47 18.6515 385.26 22.876 Q389.08 27.0716 389.08 34.3054 M383.756 32.7429 Q383.698 28.3737 381.296 25.7695 Q378.923 23.1654 374.988 23.1654 Q370.532 23.1654 367.841 25.6827 Q365.179 28.2001 364.774 32.7718 L383.756 32.7429 Z" fill="#adb2b7" fill-rule="nonzero" fill-opacity="1" /><path clip-path="url(#clip190)" d="M419.143 24.3517 L419.143 6.81709 L424.467 6.81709 L424.467 51.84 L419.143 51.84 L419.143 46.9789 Q417.465 49.8724 414.89 51.2902 Q412.343 52.6791 408.755 52.6791 Q402.882 52.6791 399.178 47.9916 Q395.503 43.3042 395.503 35.6653 Q395.503 28.0265 399.178 23.339 Q402.882 18.6515 408.755 18.6515 Q412.343 18.6515 414.89 20.0693 Q417.465 21.4582 419.143 24.3517 M401.001 35.6653 Q401.001 41.5391 403.402 44.8956 Q405.833 48.2231 410.058 48.2231 Q414.282 48.2231 416.713 44.8956 Q419.143 41.5391 419.143 35.6653 Q419.143 29.7915 416.713 26.464 Q414.282 23.1075 410.058 23.1075 Q405.833 23.1075 403.402 26.464 Q401.001 29.7915 401.001 35.6653 Z" fill="#adb2b7" fill-rule="nonzero" fill-opacity="1" /><path clip-path="url(#clip190)" d="M473.049 24.4096 Q472.152 23.8888 471.082 23.6573 Q470.04 23.3969 468.767 23.3969 Q464.253 23.3969 461.822 26.3482 Q459.421 29.2707 459.421 34.7683 L459.421 51.84 L454.068 51.84 L454.068 19.4328 L459.421 19.4328 L459.421 24.4675 Q461.099 21.5161 463.79 20.0983 Q466.481 18.6515 470.329 18.6515 Q470.879 18.6515 471.544 18.7383 Q472.21 18.7962 473.02 18.9409 L473.049 24.4096 Z" fill="#adb2b7" fill-rule="nonzero" fill-opacity="1" /><path clip-path="url(#clip190)" d="M505.051 34.3054 L505.051 36.9095 L480.572 36.9095 Q480.919 42.4072 483.871 45.3007 Q486.851 48.1653 492.146 48.1653 Q495.213 48.1653 498.078 47.4129 Q500.971 46.6606 503.807 45.156 L503.807 50.1907 Q500.942 51.406 497.933 52.0425 Q494.924 52.6791 491.828 52.6791 Q484.073 52.6791 479.531 48.1653 Q475.017 43.6514 475.017 35.9547 Q475.017 27.9975 479.299 23.339 Q483.61 18.6515 490.902 18.6515 Q497.441 18.6515 501.232 22.876 Q505.051 27.0716 505.051 34.3054 M499.727 32.7429 Q499.669 28.3737 497.268 25.7695 Q494.895 23.1654 490.96 23.1654 Q486.504 23.1654 483.813 25.6827 Q481.151 28.2001 480.746 32.7718 L499.727 32.7429 Z" fill="#adb2b7" fill-rule="nonzero" fill-opacity="1" /><path clip-path="url(#clip190)" d="M519.056 10.2314 L519.056 19.4328 L530.022 19.4328 L530.022 23.5705 L519.056 23.5705 L519.056 41.163 Q519.056 45.1271 520.126 46.2555 Q521.226 47.384 524.553 47.384 L530.022 47.384 L530.022 51.84 L524.553 51.84 Q518.39 51.84 516.047 49.5541 Q513.703 47.2393 513.703 41.163 L513.703 23.5705 L509.797 23.5705 L509.797 19.4328 L513.703 19.4328 L513.703 10.2314 L519.056 10.2314 Z" fill="#adb2b7" fill-rule="nonzero" fill-opacity="1" /><path clip-path="url(#clip190)" d="M536.475 39.0507 L536.475 19.4328 L541.799 19.4328 L541.799 38.8482 Q541.799 43.4488 543.593 45.7636 Q545.387 48.0495 548.975 48.0495 Q553.286 48.0495 555.774 45.3007 Q558.292 42.5519 558.292 37.8065 L558.292 19.4328 L563.616 19.4328 L563.616 51.84 L558.292 51.84 L558.292 46.8632 Q556.353 49.8145 553.778 51.2613 Q551.232 52.6791 547.846 52.6791 Q542.262 52.6791 539.368 49.2069 Q536.475 45.7347 536.475 39.0507 M549.872 18.6515 L549.872 18.6515 Z" fill="#adb2b7" fill-rule="nonzero" fill-opacity="1" /><path clip-path="url(#clip190)" d="M593.361 24.4096 Q592.464 23.8888 591.393 23.6573 Q590.352 23.3969 589.079 23.3969 Q584.565 23.3969 582.134 26.3482 Q579.733 29.2707 579.733 34.7683 L579.733 51.84 L574.38 51.84 L574.38 19.4328 L579.733 19.4328 L579.733 24.4675 Q581.411 21.5161 584.102 20.0983 Q586.793 18.6515 590.641 18.6515 Q591.191 18.6515 591.856 18.7383 Q592.522 18.7962 593.332 18.9409 L593.361 24.4096 Z" fill="#adb2b7" fill-rule="nonzero" fill-opacity="1" /><path clip-path="url(#clip190)" d="M624.842 32.2799 L624.842 51.84 L619.518 51.84 L619.518 32.4535 Q619.518 27.8529 617.724 25.567 Q615.93 23.2811 612.342 23.2811 Q608.031 23.2811 605.543 26.03 Q603.054 28.7788 603.054 33.5241 L603.054 51.84 L597.701 51.84 L597.701 19.4328 L603.054 19.4328 L603.054 24.4675 Q604.964 21.545 607.539 20.0983 Q610.143 18.6515 613.529 18.6515 Q619.113 18.6515 621.978 22.1237 Q624.842 25.567 624.842 32.2799 Z" fill="#adb2b7" fill-rule="nonzero" fill-opacity="1" /><path clip-path="url(#clip190)" d="M656.121 20.3876 L656.121 25.4223 Q653.864 24.2649 651.434 23.6862 Q649.003 23.1075 646.399 23.1075 Q642.435 23.1075 640.438 24.3228 Q638.471 25.5381 638.471 27.9686 Q638.471 29.8204 639.888 30.891 Q641.306 31.9327 645.589 32.8876 L647.412 33.2926 Q653.083 34.5079 655.456 36.7359 Q657.857 38.935 657.857 42.8991 Q657.857 47.4129 654.269 50.046 Q650.71 52.6791 644.46 52.6791 Q641.856 52.6791 639.02 52.1583 Q636.214 51.6664 633.089 50.6537 L633.089 45.156 Q636.04 46.6896 638.905 47.4708 Q641.769 48.2231 644.576 48.2231 Q648.337 48.2231 650.363 46.95 Q652.388 45.6479 652.388 43.3042 Q652.388 41.134 650.913 39.9766 Q649.466 38.8192 644.518 37.7486 L642.666 37.3146 Q637.718 36.273 635.519 34.1318 Q633.32 31.9616 633.32 28.2001 Q633.32 23.6283 636.561 21.1399 Q639.802 18.6515 645.762 18.6515 Q648.714 18.6515 651.318 19.0855 Q653.922 19.5196 656.121 20.3876 Z" fill="#adb2b7" fill-rule="nonzero" fill-opacity="1" /><path clip-path="url(#clip190)" d="M708.436 35.6653 Q708.436 29.7915 706.005 26.464 Q703.603 23.1075 699.379 23.1075 Q695.154 23.1075 692.724 26.464 Q690.322 29.7915 690.322 35.6653 Q690.322 41.5391 692.724 44.8956 Q695.154 48.2231 699.379 48.2231 Q703.603 48.2231 706.005 44.8956 Q708.436 41.5391 708.436 35.6653 M690.322 24.3517 Q692 21.4582 694.547 20.0693 Q697.122 18.6515 700.681 18.6515 Q706.584 18.6515 710.258 23.339 Q713.962 28.0265 713.962 35.6653 Q713.962 43.3042 710.258 47.9916 Q706.584 52.6791 700.681 52.6791 Q697.122 52.6791 694.547 51.2902 Q692 49.8724 690.322 46.9789 L690.322 51.84 L684.969 51.84 L684.969 6.81709 L690.322 6.81709 L690.322 24.3517 Z" fill="#adb2b7" fill-rule="nonzero" fill-opacity="1" /><path clip-path="url(#clip190)" d="M736.271 54.8492 Q734.014 60.6362 731.873 62.4013 Q729.732 64.1663 726.144 64.1663 L721.89 64.1663 L721.89 59.7103 L725.015 59.7103 Q727.214 59.7103 728.43 58.6687 Q729.645 57.627 731.121 53.7497 L732.075 51.3192 L718.968 19.4328 L724.61 19.4328 L734.737 44.7799 L744.865 19.4328 L750.507 19.4328 L736.271 54.8492 Z" fill="#adb2b7" fill-rule="nonzero" fill-opacity="1" /><path clip-path="url(#clip190)" d="M773.597 19.4328 L778.921 19.4328 L785.576 44.722 L792.202 19.4328 L798.481 19.4328 L805.136 44.722 L811.763 19.4328 L817.087 19.4328 L808.609 51.84 L802.33 51.84 L795.356 25.2776 L788.354 51.84 L782.075 51.84 L773.597 19.4328 Z" fill="#adb2b7" fill-rule="nonzero" fill-opacity="1" /><path clip-path="url(#clip190)" d="M852.879 34.3054 L852.879 36.9095 L828.4 36.9095 Q828.747 42.4072 831.699 45.3007 Q834.679 48.1653 839.974 48.1653 Q843.041 48.1653 845.906 47.4129 Q848.799 46.6606 851.635 45.156 L851.635 50.1907 Q848.77 51.406 845.761 52.0425 Q842.752 52.6791 839.656 52.6791 Q831.901 52.6791 827.359 48.1653 Q822.845 43.6514 822.845 35.9547 Q822.845 27.9975 827.127 23.339 Q831.438 18.6515 838.73 18.6515 Q845.269 18.6515 849.06 22.876 Q852.879 27.0716 852.879 34.3054 M847.555 32.7429 Q847.497 28.3737 845.096 25.7695 Q842.723 23.1654 838.788 23.1654 Q834.332 23.1654 831.641 25.6827 Q828.979 28.2001 828.574 32.7718 L847.555 32.7429 Z" fill="#adb2b7" fill-rule="nonzero" fill-opacity="1" /><path clip-path="url(#clip190)" d="M889.337 34.3054 L889.337 36.9095 L864.858 36.9095 Q865.206 42.4072 868.157 45.3007 Q871.137 48.1653 876.432 48.1653 Q879.499 48.1653 882.364 47.4129 Q885.258 46.6606 888.093 45.156 L888.093 50.1907 Q885.229 51.406 882.219 52.0425 Q879.21 52.6791 876.114 52.6791 Q868.359 52.6791 863.817 48.1653 Q859.303 43.6514 859.303 35.9547 Q859.303 27.9975 863.585 23.339 Q867.897 18.6515 875.188 18.6515 Q881.727 18.6515 885.518 22.876 Q889.337 27.0716 889.337 34.3054 M884.013 32.7429 Q883.955 28.3737 881.554 25.7695 Q879.181 23.1654 875.246 23.1654 Q870.79 23.1654 868.099 25.6827 Q865.437 28.2001 865.032 32.7718 L884.013 32.7429 Z" fill="#adb2b7" fill-rule="nonzero" fill-opacity="1" /><path clip-path="url(#clip190)" d="M897.873 6.81709 L903.226 6.81709 L903.226 33.4084 L919.112 19.4328 L925.911 19.4328 L908.724 34.5947 L926.635 51.84 L919.69 51.84 L903.226 36.0125 L903.226 51.84 L897.873 51.84 L897.873 6.81709 Z" fill="#adb2b7" fill-rule="nonzero" fill-opacity="1" /><path clip-path="url(#clip190)" d="M953.718 24.3517 L953.718 6.81709 L959.042 6.81709 L959.042 51.84 L953.718 51.84 L953.718 46.9789 Q952.04 49.8724 949.464 51.2902 Q946.918 52.6791 943.33 52.6791 Q937.456 52.6791 933.753 47.9916 Q930.078 43.3042 930.078 35.6653 Q930.078 28.0265 933.753 23.339 Q937.456 18.6515 943.33 18.6515 Q946.918 18.6515 949.464 20.0693 Q952.04 21.4582 953.718 24.3517 M935.576 35.6653 Q935.576 41.5391 937.977 44.8956 Q940.408 48.2231 944.632 48.2231 Q948.857 48.2231 951.287 44.8956 Q953.718 41.5391 953.718 35.6653 Q953.718 29.7915 951.287 26.464 Q948.857 23.1075 944.632 23.1075 Q940.408 23.1075 937.977 26.464 Q935.576 29.7915 935.576 35.6653 Z" fill="#adb2b7" fill-rule="nonzero" fill-opacity="1" /><path clip-path="url(#clip190)" d="M984.736 35.5496 Q978.284 35.5496 975.795 37.0253 Q973.307 38.501 973.307 42.06 Q973.307 44.8956 975.159 46.5738 Q977.039 48.2231 980.251 48.2231 Q984.678 48.2231 987.34 45.0981 Q990.031 41.9442 990.031 36.7359 L990.031 35.5496 L984.736 35.5496 M995.355 33.3505 L995.355 51.84 L990.031 51.84 L990.031 46.921 Q988.208 49.8724 985.488 51.2902 Q982.769 52.6791 978.833 52.6791 Q973.857 52.6791 970.905 49.9014 Q967.983 47.0947 967.983 42.4072 Q967.983 36.9385 971.629 34.1607 Q975.303 31.3829 982.566 31.3829 L990.031 31.3829 L990.031 30.8621 Q990.031 27.1874 987.601 25.1908 Q985.199 23.1654 980.83 23.1654 Q978.052 23.1654 975.419 23.8309 Q972.786 24.4964 970.355 25.8274 L970.355 20.9085 Q973.278 19.78 976.027 19.2302 Q978.776 18.6515 981.38 18.6515 Q988.411 18.6515 991.883 22.2973 Q995.355 25.9431 995.355 33.3505 Z" fill="#adb2b7" fill-rule="nonzero" fill-opacity="1" /><path clip-path="url(#clip190)" d="M1019.81 54.8492 Q1017.55 60.6362 1015.41 62.4013 Q1013.27 64.1663 1009.68 64.1663 L1005.42 64.1663 L1005.42 59.7103 L1008.55 59.7103 Q1010.75 59.7103 1011.96 58.6687 Q1013.18 57.627 1014.65 53.7497 L1015.61 51.3192 L1002.5 19.4328 L1008.14 19.4328 L1018.27 44.7799 L1028.4 19.4328 L1034.04 19.4328 L1019.81 54.8492 Z" fill="#adb2b7" fill-rule="nonzero" fill-opacity="1" /><polyline clip-path="url(#clip191)" style="stroke:#fe4365; stroke-linecap:round; stroke-linejoin:round; stroke-width:4; stroke-opacity:1; fill:none" points="247.59,1411.46 398.189,1160.34 419.703,931.677 441.218,740.229 462.732,598.033 484.246,513.605 505.76,491.352 527.274,531.273 656.36,378.945 677.874,254.357 699.388,172.406 720.902,145.256 742.417,181.506 "/>
<polyline clip-path="url(#clip191)" style="stroke:#eca25c; stroke-linecap:round; stroke-linejoin:round; stroke-width:4; stroke-opacity:1; fill:none" points="763.931,1447.38 914.53,1199.11 936.045,973.035 957.559,783.738 979.073,643.119 1000.59,559.591 1022.1,537.512 1043.62,576.882 1172.7,426.048 1194.22,302.626 1215.73,221.334 1237.24,194.191 1258.76,229.696 "/>
<polyline clip-path="url(#clip191)" style="stroke:#3f9778; stroke-linecap:round; stroke-linejoin:round; stroke-width:4; stroke-opacity:1; fill:none" points="1280.27,1445.83 1430.87,1200.34 1452.39,976.796 1473.9,789.603 1495.41,650.525 1516.93,567.88 1538.44,545.973 1559.96,584.805 1689.04,435.799 1710.56,313.884 1732.07,233.608 1753.58,206.849 1775.1,242.007 "/>
<polyline clip-path="url(#clip191)" style="stroke:#005d7f; stroke-linecap:round; stroke-linejoin:round; stroke-width:4; stroke-opacity:1; fill:none" points="1796.61,1444.7 1947.21,1201.94 1968.73,980.863 1990.24,795.727 2011.76,658.157 2033.27,576.376 2054.78,554.639 2076.3,592.947 2205.38,445.368 2226.9,324.565 2248.41,244.917 2269.93,218.167 2291.44,252.614 2291.44,287.062 "/>
<path clip-path="url(#clip190)" d="M258.49 411.401 L560.022 411.401 L560.022 152.201 L258.49 152.201  Z" fill="#282c34" fill-rule="evenodd" fill-opacity="1"/>
<polyline clip-path="url(#clip190)" style="stroke:#000000; stroke-linecap:round; stroke-linejoin:round; stroke-width:4; stroke-opacity:0; fill:none" points="258.49,411.401 560.022,411.401 560.022,152.201 258.49,152.201 258.49,411.401 "/>
<polyline clip-path="url(#clip190)" style="stroke:#fe4365; stroke-linecap:round; stroke-linejoin:round; stroke-width:4; stroke-opacity:1; fill:none" points="282.562,204.041 426.994,204.041 "/>
<path clip-path="url(#clip190)" d="M451.066 186.761 L480.302 186.761 L480.302 190.696 L468.034 190.696 L468.034 221.321 L463.335 221.321 L463.335 190.696 L451.066 190.696 L451.066 186.761 Z" fill="#adb2b7" fill-rule="nonzero" fill-opacity="1" /><path clip-path="url(#clip190)" d="M506.182 205.673 L506.182 221.321 L501.922 221.321 L501.922 205.811 Q501.922 202.131 500.487 200.302 Q499.052 198.474 496.182 198.474 Q492.733 198.474 490.742 200.673 Q488.751 202.872 488.751 206.668 L488.751 221.321 L484.469 221.321 L484.469 185.302 L488.751 185.302 L488.751 199.423 Q490.279 197.085 492.339 195.927 Q494.422 194.77 497.131 194.77 Q501.598 194.77 503.89 197.548 Q506.182 200.302 506.182 205.673 Z" fill="#adb2b7" fill-rule="nonzero" fill-opacity="1" /><path clip-path="url(#clip190)" d="M514.237 211.089 L514.237 195.395 L518.496 195.395 L518.496 210.927 Q518.496 214.608 519.932 216.46 Q521.367 218.288 524.237 218.288 Q527.686 218.288 529.677 216.089 Q531.691 213.89 531.691 210.094 L531.691 195.395 L535.95 195.395 L535.95 221.321 L531.691 221.321 L531.691 217.339 Q530.14 219.7 528.08 220.858 Q526.043 221.992 523.334 221.992 Q518.867 221.992 516.552 219.214 Q514.237 216.436 514.237 211.089 M524.955 194.77 L524.955 194.77 Z" fill="#adb2b7" fill-rule="nonzero" fill-opacity="1" /><polyline clip-path="url(#clip190)" style="stroke:#eca25c; stroke-linecap:round; stroke-linejoin:round; stroke-width:4; stroke-opacity:1; fill:none" points="282.562,255.881 426.994,255.881 "/>
<path clip-path="url(#clip190)" d="M451.066 238.601 L470.927 238.601 L470.927 242.536 L455.742 242.536 L455.742 252.721 L469.446 252.721 L469.446 256.656 L455.742 256.656 L455.742 273.161 L451.066 273.161 L451.066 238.601 Z" fill="#adb2b7" fill-rule="nonzero" fill-opacity="1" /><path clip-path="url(#clip190)" d="M489.723 251.216 Q489.006 250.8 488.149 250.614 Q487.316 250.406 486.298 250.406 Q482.686 250.406 480.742 252.767 Q478.821 255.105 478.821 259.503 L478.821 273.161 L474.538 273.161 L474.538 247.235 L478.821 247.235 L478.821 251.263 Q480.163 248.902 482.316 247.767 Q484.469 246.61 487.548 246.61 Q487.987 246.61 488.52 246.679 Q489.052 246.726 489.7 246.841 L489.723 251.216 Z" fill="#adb2b7" fill-rule="nonzero" fill-opacity="1" /><path clip-path="url(#clip190)" d="M494.191 247.235 L498.45 247.235 L498.45 273.161 L494.191 273.161 L494.191 247.235 M494.191 237.142 L498.45 237.142 L498.45 242.536 L494.191 242.536 L494.191 237.142 Z" fill="#adb2b7" fill-rule="nonzero" fill-opacity="1" /><polyline clip-path="url(#clip190)" style="stroke:#3f9778; stroke-linecap:round; stroke-linejoin:round; stroke-width:4; stroke-opacity:1; fill:none" points="282.562,307.721 426.994,307.721 "/>
<path clip-path="url(#clip190)" d="M473.311 291.575 L473.311 296.135 Q470.649 294.862 468.288 294.237 Q465.927 293.612 463.728 293.612 Q459.909 293.612 457.825 295.093 Q455.765 296.575 455.765 299.306 Q455.765 301.598 457.131 302.779 Q458.52 303.936 462.362 304.654 L465.187 305.232 Q470.418 306.228 472.895 308.751 Q475.395 311.251 475.395 315.464 Q475.395 320.487 472.015 323.079 Q468.659 325.672 462.154 325.672 Q459.7 325.672 456.923 325.116 Q454.168 324.561 451.205 323.473 L451.205 318.658 Q454.052 320.255 456.784 321.065 Q459.515 321.876 462.154 321.876 Q466.159 321.876 468.335 320.302 Q470.511 318.728 470.511 315.811 Q470.511 313.265 468.937 311.829 Q467.386 310.394 463.821 309.677 L460.974 309.121 Q455.742 308.079 453.404 305.857 Q451.066 303.635 451.066 299.677 Q451.066 295.093 454.284 292.455 Q457.525 289.816 463.196 289.816 Q465.626 289.816 468.149 290.255 Q470.673 290.695 473.311 291.575 Z" fill="#adb2b7" fill-rule="nonzero" fill-opacity="1" /><path clip-path="url(#clip190)" d="M494.284 311.968 Q489.122 311.968 487.131 313.149 Q485.14 314.329 485.14 317.177 Q485.14 319.445 486.622 320.788 Q488.126 322.107 490.696 322.107 Q494.237 322.107 496.367 319.607 Q498.52 317.084 498.52 312.917 L498.52 311.968 L494.284 311.968 M502.779 310.209 L502.779 325.001 L498.52 325.001 L498.52 321.065 Q497.061 323.427 494.885 324.561 Q492.71 325.672 489.561 325.672 Q485.58 325.672 483.219 323.45 Q480.881 321.204 480.881 317.454 Q480.881 313.079 483.798 310.857 Q486.737 308.635 492.547 308.635 L498.52 308.635 L498.52 308.218 Q498.52 305.279 496.575 303.681 Q494.654 302.061 491.159 302.061 Q488.936 302.061 486.83 302.593 Q484.723 303.126 482.779 304.191 L482.779 300.255 Q485.117 299.353 487.316 298.913 Q489.515 298.45 491.598 298.45 Q497.223 298.45 500.001 301.367 Q502.779 304.283 502.779 310.209 Z" fill="#adb2b7" fill-rule="nonzero" fill-opacity="1" /><path clip-path="url(#clip190)" d="M515.765 291.714 L515.765 299.075 L524.538 299.075 L524.538 302.385 L515.765 302.385 L515.765 316.459 Q515.765 319.63 516.621 320.533 Q517.501 321.436 520.163 321.436 L524.538 321.436 L524.538 325.001 L520.163 325.001 Q515.233 325.001 513.358 323.172 Q511.483 321.32 511.483 316.459 L511.483 302.385 L508.358 302.385 L508.358 299.075 L511.483 299.075 L511.483 291.714 L515.765 291.714 Z" fill="#adb2b7" fill-rule="nonzero" fill-opacity="1" /><polyline clip-path="url(#clip190)" style="stroke:#005d7f; stroke-linecap:round; stroke-linejoin:round; stroke-width:4; stroke-opacity:1; fill:none" points="282.562,359.561 426.994,359.561 "/>
<path clip-path="url(#clip190)" d="M473.311 343.415 L473.311 347.975 Q470.649 346.702 468.288 346.077 Q465.927 345.452 463.728 345.452 Q459.909 345.452 457.825 346.933 Q455.765 348.415 455.765 351.146 Q455.765 353.438 457.131 354.619 Q458.52 355.776 462.362 356.494 L465.187 357.072 Q470.418 358.068 472.895 360.591 Q475.395 363.091 475.395 367.304 Q475.395 372.327 472.015 374.919 Q468.659 377.512 462.154 377.512 Q459.7 377.512 456.923 376.956 Q454.168 376.401 451.205 375.313 L451.205 370.498 Q454.052 372.095 456.784 372.905 Q459.515 373.716 462.154 373.716 Q466.159 373.716 468.335 372.142 Q470.511 370.568 470.511 367.651 Q470.511 365.105 468.937 363.669 Q467.386 362.234 463.821 361.517 L460.974 360.961 Q455.742 359.919 453.404 357.697 Q451.066 355.475 451.066 351.517 Q451.066 346.933 454.284 344.295 Q457.525 341.656 463.196 341.656 Q465.626 341.656 468.149 342.095 Q470.673 342.535 473.311 343.415 Z" fill="#adb2b7" fill-rule="nonzero" fill-opacity="1" /><path clip-path="url(#clip190)" d="M482.061 366.609 L482.061 350.915 L486.321 350.915 L486.321 366.447 Q486.321 370.128 487.756 371.98 Q489.191 373.808 492.061 373.808 Q495.51 373.808 497.501 371.609 Q499.515 369.41 499.515 365.614 L499.515 350.915 L503.774 350.915 L503.774 376.841 L499.515 376.841 L499.515 372.859 Q497.964 375.22 495.904 376.378 Q493.867 377.512 491.159 377.512 Q486.691 377.512 484.376 374.734 Q482.061 371.956 482.061 366.609 M492.779 350.29 L492.779 350.29 Z" fill="#adb2b7" fill-rule="nonzero" fill-opacity="1" /><path clip-path="url(#clip190)" d="M534.098 361.193 L534.098 376.841 L529.839 376.841 L529.839 361.331 Q529.839 357.651 528.404 355.822 Q526.969 353.994 524.098 353.994 Q520.649 353.994 518.658 356.193 Q516.668 358.392 516.668 362.188 L516.668 376.841 L512.385 376.841 L512.385 350.915 L516.668 350.915 L516.668 354.943 Q518.196 352.605 520.256 351.447 Q522.339 350.29 525.047 350.29 Q529.515 350.29 531.807 353.068 Q534.098 355.822 534.098 361.193 Z" fill="#adb2b7" fill-rule="nonzero" fill-opacity="1" /><path clip-path="url(#clip190)" d="M2291.44 164.226 L2320.68 164.226 L2320.68 168.162 L2308.41 168.162 L2308.41 198.786 L2303.71 198.786 L2303.71 168.162 L2291.44 168.162 L2291.44 164.226 Z" fill="#000000" fill-rule="nonzero" fill-opacity="1" /><path clip-path="url(#clip190)" d="M2346.56 183.138 L2346.56 198.786 L2342.3 198.786 L2342.3 183.277 Q2342.3 179.597 2340.86 177.768 Q2339.43 175.939 2336.56 175.939 Q2333.11 175.939 2331.12 178.138 Q2329.13 180.337 2329.13 184.134 L2329.13 198.786 L2324.84 198.786 L2324.84 162.768 L2329.13 162.768 L2329.13 176.888 Q2330.65 174.55 2332.71 173.393 Q2334.8 172.236 2337.5 172.236 Q2341.97 172.236 2344.26 175.013 Q2346.56 177.768 2346.56 183.138 Z" fill="#000000" fill-rule="nonzero" fill-opacity="1" /><path clip-path="url(#clip190)" d="M2354.61 188.555 L2354.61 172.861 L2358.87 172.861 L2358.87 188.393 Q2358.87 192.074 2360.31 193.925 Q2361.74 195.754 2364.61 195.754 Q2368.06 195.754 2370.05 193.555 Q2372.06 191.356 2372.06 187.56 L2372.06 172.861 L2376.32 172.861 L2376.32 198.786 L2372.06 198.786 L2372.06 194.805 Q2370.51 197.166 2368.45 198.323 Q2366.42 199.458 2363.71 199.458 Q2359.24 199.458 2356.93 196.68 Q2354.61 193.902 2354.61 188.555 M2365.33 172.236 L2365.33 172.236 Z" fill="#000000" fill-rule="nonzero" fill-opacity="1" /><path clip-path="url(#clip190)" d="M2291.44 212.416 L2311.3 212.416 L2311.3 216.351 L2296.12 216.351 L2296.12 226.536 L2309.82 226.536 L2309.82 230.471 L2296.12 230.471 L2296.12 246.976 L2291.44 246.976 L2291.44 212.416 Z" fill="#000000" fill-rule="nonzero" fill-opacity="1" /><path clip-path="url(#clip190)" d="M2330.1 225.032 Q2329.38 224.615 2328.52 224.43 Q2327.69 224.221 2326.67 224.221 Q2323.06 224.221 2321.12 226.583 Q2319.19 228.921 2319.19 233.319 L2319.19 246.976 L2314.91 246.976 L2314.91 221.05 L2319.19 221.05 L2319.19 225.078 Q2320.54 222.717 2322.69 221.583 Q2324.84 220.425 2327.92 220.425 Q2328.36 220.425 2328.89 220.495 Q2329.43 220.541 2330.07 220.657 L2330.1 225.032 Z" fill="#000000" fill-rule="nonzero" fill-opacity="1" /><path clip-path="url(#clip190)" d="M2334.57 221.05 L2338.82 221.05 L2338.82 246.976 L2334.57 246.976 L2334.57 221.05 M2334.57 210.958 L2338.82 210.958 L2338.82 216.351 L2334.57 216.351 L2334.57 210.958 Z" fill="#000000" fill-rule="nonzero" fill-opacity="1" /><path clip-path="url(#clip190)" d="M2313.69 225.862 L2313.69 230.422 Q2311.02 229.149 2308.66 228.524 Q2306.3 227.899 2304.1 227.899 Q2300.28 227.899 2298.2 229.38 Q2296.14 230.862 2296.14 233.593 Q2296.14 235.885 2297.51 237.065 Q2298.89 238.223 2302.74 238.94 L2305.56 239.519 Q2310.79 240.514 2313.27 243.037 Q2315.77 245.537 2315.77 249.75 Q2315.77 254.773 2312.39 257.366 Q2309.03 259.959 2302.53 259.959 Q2300.07 259.959 2297.3 259.403 Q2294.54 258.847 2291.58 257.76 L2291.58 252.945 Q2294.43 254.542 2297.16 255.352 Q2299.89 256.162 2302.53 256.162 Q2306.53 256.162 2308.71 254.588 Q2310.88 253.014 2310.88 250.098 Q2310.88 247.551 2309.31 246.116 Q2307.76 244.681 2304.19 243.963 L2301.35 243.408 Q2296.12 242.366 2293.78 240.144 Q2291.44 237.922 2291.44 233.963 Q2291.44 229.38 2294.66 226.741 Q2297.9 224.102 2303.57 224.102 Q2306 224.102 2308.52 224.542 Q2311.05 224.982 2313.69 225.862 Z" fill="#000000" fill-rule="nonzero" fill-opacity="1" /><path clip-path="url(#clip190)" d="M2334.66 246.255 Q2329.5 246.255 2327.51 247.435 Q2325.51 248.616 2325.51 251.463 Q2325.51 253.732 2327 255.074 Q2328.5 256.394 2331.07 256.394 Q2334.61 256.394 2336.74 253.894 Q2338.89 251.371 2338.89 247.204 L2338.89 246.255 L2334.66 246.255 M2343.15 244.496 L2343.15 259.287 L2338.89 259.287 L2338.89 255.352 Q2337.44 257.713 2335.26 258.847 Q2333.08 259.959 2329.94 259.959 Q2325.95 259.959 2323.59 257.736 Q2321.26 255.491 2321.26 251.741 Q2321.26 247.366 2324.17 245.144 Q2327.11 242.922 2332.92 242.922 L2338.89 242.922 L2338.89 242.505 Q2338.89 239.565 2336.95 237.968 Q2335.03 236.348 2331.53 236.348 Q2329.31 236.348 2327.2 236.88 Q2325.1 237.412 2323.15 238.477 L2323.15 234.542 Q2325.49 233.639 2327.69 233.199 Q2329.89 232.737 2331.97 232.737 Q2337.6 232.737 2340.38 235.653 Q2343.15 238.57 2343.15 244.496 Z" fill="#000000" fill-rule="nonzero" fill-opacity="1" /><path clip-path="url(#clip190)" d="M2356.14 226 L2356.14 233.362 L2364.91 233.362 L2364.91 236.672 L2356.14 236.672 L2356.14 250.746 Q2356.14 253.917 2357 254.82 Q2357.88 255.722 2360.54 255.722 L2364.91 255.722 L2364.91 259.287 L2360.54 259.287 Q2355.61 259.287 2353.73 257.459 Q2351.86 255.607 2351.86 250.746 L2351.86 236.672 L2348.73 236.672 L2348.73 233.362 L2351.86 233.362 L2351.86 226 L2356.14 226 Z" fill="#000000" fill-rule="nonzero" fill-opacity="1" /><path clip-path="url(#clip190)" d="M2313.69 270.916 L2313.69 275.476 Q2311.02 274.203 2308.66 273.578 Q2306.3 272.953 2304.1 272.953 Q2300.28 272.953 2298.2 274.435 Q2296.14 275.916 2296.14 278.648 Q2296.14 280.939 2297.51 282.12 Q2298.89 283.277 2302.74 283.995 L2305.56 284.573 Q2310.79 285.569 2313.27 288.092 Q2315.77 290.592 2315.77 294.805 Q2315.77 299.828 2312.39 302.421 Q2309.03 305.013 2302.53 305.013 Q2300.07 305.013 2297.3 304.458 Q2294.54 303.902 2291.58 302.814 L2291.58 297.999 Q2294.43 299.596 2297.16 300.407 Q2299.89 301.217 2302.53 301.217 Q2306.53 301.217 2308.71 299.643 Q2310.88 298.069 2310.88 295.152 Q2310.88 292.606 2309.31 291.171 Q2307.76 289.735 2304.19 289.018 L2301.35 288.462 Q2296.12 287.421 2293.78 285.198 Q2291.44 282.976 2291.44 279.018 Q2291.44 274.435 2294.66 271.796 Q2297.9 269.157 2303.57 269.157 Q2306 269.157 2308.52 269.597 Q2311.05 270.036 2313.69 270.916 Z" fill="#000000" fill-rule="nonzero" fill-opacity="1" /><path clip-path="url(#clip190)" d="M2322.44 294.11 L2322.44 278.416 L2326.69 278.416 L2326.69 293.948 Q2326.69 297.629 2328.13 299.481 Q2329.57 301.309 2332.44 301.309 Q2335.88 301.309 2337.88 299.11 Q2339.89 296.911 2339.89 293.115 L2339.89 278.416 L2344.15 278.416 L2344.15 304.342 L2339.89 304.342 L2339.89 300.36 Q2338.34 302.721 2336.28 303.879 Q2334.24 305.013 2331.53 305.013 Q2327.07 305.013 2324.75 302.235 Q2322.44 299.458 2322.44 294.11 M2333.15 277.791 L2333.15 277.791 Z" fill="#000000" fill-rule="nonzero" fill-opacity="1" /><path clip-path="url(#clip190)" d="M2374.47 288.694 L2374.47 304.342 L2370.21 304.342 L2370.21 288.833 Q2370.21 285.152 2368.78 283.323 Q2367.34 281.495 2364.47 281.495 Q2361.02 281.495 2359.03 283.694 Q2357.04 285.893 2357.04 289.689 L2357.04 304.342 L2352.76 304.342 L2352.76 278.416 L2357.04 278.416 L2357.04 282.444 Q2358.57 280.106 2360.63 278.948 Q2362.71 277.791 2365.42 277.791 Q2369.89 277.791 2372.18 280.569 Q2374.47 283.323 2374.47 288.694 Z" fill="#000000" fill-rule="nonzero" fill-opacity="1" /></svg>
