<?xml version="1.0" encoding="utf-8"?>
<svg xmlns="http://www.w3.org/2000/svg" xmlns:xlink="http://www.w3.org/1999/xlink" width="600" height="400" viewBox="0 0 2400 1600">
<defs>
  <clipPath id="clip920">
    <rect x="0" y="0" width="2400" height="1600"/>
  </clipPath>
</defs>
<path clip-path="url(#clip920)" d="M0 1600 L2400 1600 L2400 0 L0 0  Z" fill="#282c34" fill-rule="evenodd" fill-opacity="1"/>
<defs>
  <clipPath id="clip921">
    <rect x="249" y="106" width="2104" height="1381"/>
  </clipPath>
</defs>
<path clip-path="url(#clip920)" d="M249.769 1486.45 L2352.76 1486.45 L2352.76 106.192 L249.769 106.192  Z" fill="#21252b" fill-rule="evenodd" fill-opacity="1"/>
<polyline clip-path="url(#clip921)" style="stroke:#adb2b7; stroke-linecap:round; stroke-linejoin:round; stroke-width:2; stroke-opacity:0.1; fill:none" points="292.616,1486.45 292.616,106.192 "/>
<polyline clip-path="url(#clip921)" style="stroke:#adb2b7; stroke-linecap:round; stroke-linejoin:round; stroke-width:2; stroke-opacity:0.1; fill:none" points="709.412,1486.45 709.412,106.192 "/>
<polyline clip-path="url(#clip921)" style="stroke:#adb2b7; stroke-linecap:round; stroke-linejoin:round; stroke-width:2; stroke-opacity:0.1; fill:none" points="1126.21,1486.45 1126.21,106.192 "/>
<polyline clip-path="url(#clip921)" style="stroke:#adb2b7; stroke-linecap:round; stroke-linejoin:round; stroke-width:2; stroke-opacity:0.1; fill:none" points="1543,1486.45 1543,106.192 "/>
<polyline clip-path="url(#clip921)" style="stroke:#adb2b7; stroke-linecap:round; stroke-linejoin:round; stroke-width:2; stroke-opacity:0.1; fill:none" points="1959.8,1486.45 1959.8,106.192 "/>
<polyline clip-path="url(#clip921)" style="stroke:#adb2b7; stroke-linecap:round; stroke-linejoin:round; stroke-width:2; stroke-opacity:0.1; fill:none" points="249.769,1418.95 2352.76,1418.95 "/>
<polyline clip-path="url(#clip921)" style="stroke:#adb2b7; stroke-linecap:round; stroke-linejoin:round; stroke-width:2; stroke-opacity:0.1; fill:none" points="249.769,1164.21 2352.76,1164.21 "/>
<polyline clip-path="url(#clip921)" style="stroke:#adb2b7; stroke-linecap:round; stroke-linejoin:round; stroke-width:2; stroke-opacity:0.1; fill:none" points="249.769,909.473 2352.76,909.473 "/>
<polyline clip-path="url(#clip921)" style="stroke:#adb2b7; stroke-linecap:round; stroke-linejoin:round; stroke-width:2; stroke-opacity:0.1; fill:none" points="249.769,654.734 2352.76,654.734 "/>
<polyline clip-path="url(#clip921)" style="stroke:#adb2b7; stroke-linecap:round; stroke-linejoin:round; stroke-width:2; stroke-opacity:0.1; fill:none" points="249.769,399.995 2352.76,399.995 "/>
<polyline clip-path="url(#clip921)" style="stroke:#adb2b7; stroke-linecap:round; stroke-linejoin:round; stroke-width:2; stroke-opacity:0.1; fill:none" points="249.769,145.256 2352.76,145.256 "/>
<polyline clip-path="url(#clip920)" style="stroke:#adb2b7; stroke-linecap:round; stroke-linejoin:round; stroke-width:4; stroke-opacity:1; fill:none" points="249.769,1486.45 2352.76,1486.45 "/>
<polyline clip-path="url(#clip920)" style="stroke:#adb2b7; stroke-linecap:round; stroke-linejoin:round; stroke-width:4; stroke-opacity:1; fill:none" points="292.616,1486.45 292.616,1467.55 "/>
<polyline clip-path="url(#clip920)" style="stroke:#adb2b7; stroke-linecap:round; stroke-linejoin:round; stroke-width:4; stroke-opacity:1; fill:none" points="709.412,1486.45 709.412,1467.55 "/>
<polyline clip-path="url(#clip920)" style="stroke:#adb2b7; stroke-linecap:round; stroke-linejoin:round; stroke-width:4; stroke-opacity:1; fill:none" points="1126.21,1486.45 1126.21,1467.55 "/>
<polyline clip-path="url(#clip920)" style="stroke:#adb2b7; stroke-linecap:round; stroke-linejoin:round; stroke-width:4; stroke-opacity:1; fill:none" points="1543,1486.45 1543,1467.55 "/>
<polyline clip-path="url(#clip920)" style="stroke:#adb2b7; stroke-linecap:round; stroke-linejoin:round; stroke-width:4; stroke-opacity:1; fill:none" points="1959.8,1486.45 1959.8,1467.55 "/>
<path clip-path="url(#clip920)" d="M292.616 1517.37 Q289.005 1517.37 287.176 1520.93 Q285.37 1524.47 285.37 1531.6 Q285.37 1538.71 287.176 1542.27 Q289.005 1545.82 292.616 1545.82 Q296.25 1545.82 298.055 1542.27 Q299.884 1538.71 299.884 1531.6 Q299.884 1524.47 298.055 1520.93 Q296.25 1517.37 292.616 1517.37 M292.616 1513.66 Q298.426 1513.66 301.481 1518.27 Q304.56 1522.85 304.56 1531.6 Q304.56 1540.33 301.481 1544.94 Q298.426 1549.52 292.616 1549.52 Q286.806 1549.52 283.727 1544.94 Q280.671 1540.33 280.671 1531.6 Q280.671 1522.85 283.727 1518.27 Q286.806 1513.66 292.616 1513.66 Z" fill="#9eb1be" fill-rule="nonzero" fill-opacity="1" /><path clip-path="url(#clip920)" d="M688.683 1544.91 L705.002 1544.91 L705.002 1548.85 L683.058 1548.85 L683.058 1544.91 Q685.72 1542.16 690.303 1537.53 Q694.91 1532.88 696.09 1531.53 Q698.336 1529.01 699.215 1527.27 Q700.118 1525.51 700.118 1523.82 Q700.118 1521.07 698.174 1519.33 Q696.252 1517.6 693.15 1517.6 Q690.951 1517.6 688.498 1518.36 Q686.067 1519.13 683.289 1520.68 L683.289 1515.95 Q686.113 1514.82 688.567 1514.24 Q691.021 1513.66 693.058 1513.66 Q698.428 1513.66 701.623 1516.35 Q704.817 1519.03 704.817 1523.52 Q704.817 1525.65 704.007 1527.57 Q703.22 1529.47 701.113 1532.07 Q700.535 1532.74 697.433 1535.95 Q694.331 1539.15 688.683 1544.91 Z" fill="#9eb1be" fill-rule="nonzero" fill-opacity="1" /><path clip-path="url(#clip920)" d="M714.863 1514.29 L733.22 1514.29 L733.22 1518.22 L719.146 1518.22 L719.146 1526.7 Q720.164 1526.35 721.183 1526.19 Q722.201 1526 723.22 1526 Q729.007 1526 732.386 1529.17 Q735.766 1532.34 735.766 1537.76 Q735.766 1543.34 732.294 1546.44 Q728.821 1549.52 722.502 1549.52 Q720.326 1549.52 718.058 1549.15 Q715.812 1548.78 713.405 1548.04 L713.405 1543.34 Q715.488 1544.47 717.71 1545.03 Q719.933 1545.58 722.409 1545.58 Q726.414 1545.58 728.752 1543.48 Q731.09 1541.37 731.09 1537.76 Q731.09 1534.15 728.752 1532.04 Q726.414 1529.94 722.409 1529.94 Q720.534 1529.94 718.66 1530.35 Q716.808 1530.77 714.863 1531.65 L714.863 1514.29 Z" fill="#9eb1be" fill-rule="nonzero" fill-opacity="1" /><path clip-path="url(#clip920)" d="M1100.91 1514.29 L1119.26 1514.29 L1119.26 1518.22 L1105.19 1518.22 L1105.19 1526.7 Q1106.21 1526.35 1107.23 1526.19 Q1108.25 1526 1109.26 1526 Q1115.05 1526 1118.43 1529.17 Q1121.81 1532.34 1121.81 1537.76 Q1121.81 1543.34 1118.34 1546.44 Q1114.87 1549.52 1108.55 1549.52 Q1106.37 1549.52 1104.1 1549.15 Q1101.86 1548.78 1099.45 1548.04 L1099.45 1543.34 Q1101.53 1544.47 1103.75 1545.03 Q1105.98 1545.58 1108.45 1545.58 Q1112.46 1545.58 1114.8 1543.48 Q1117.13 1541.37 1117.13 1537.76 Q1117.13 1534.15 1114.8 1532.04 Q1112.46 1529.94 1108.45 1529.94 Q1106.58 1529.94 1104.7 1530.35 Q1102.85 1530.77 1100.91 1531.65 L1100.91 1514.29 Z" fill="#9eb1be" fill-rule="nonzero" fill-opacity="1" /><path clip-path="url(#clip920)" d="M1141.02 1517.37 Q1137.41 1517.37 1135.58 1520.93 Q1133.78 1524.47 1133.78 1531.6 Q1133.78 1538.71 1135.58 1542.27 Q1137.41 1545.82 1141.02 1545.82 Q1144.66 1545.82 1146.46 1542.27 Q1148.29 1538.71 1148.29 1531.6 Q1148.29 1524.47 1146.46 1520.93 Q1144.66 1517.37 1141.02 1517.37 M1141.02 1513.66 Q1146.83 1513.66 1149.89 1518.27 Q1152.97 1522.85 1152.97 1531.6 Q1152.97 1540.33 1149.89 1544.94 Q1146.83 1549.52 1141.02 1549.52 Q1135.21 1549.52 1132.13 1544.94 Q1129.08 1540.33 1129.08 1531.6 Q1129.08 1522.85 1132.13 1518.27 Q1135.21 1513.66 1141.02 1513.66 Z" fill="#9eb1be" fill-rule="nonzero" fill-opacity="1" /><path clip-path="url(#clip920)" d="M1516.86 1514.29 L1539.08 1514.29 L1539.08 1516.28 L1526.53 1548.85 L1521.65 1548.85 L1533.46 1518.22 L1516.86 1518.22 L1516.86 1514.29 Z" fill="#9eb1be" fill-rule="nonzero" fill-opacity="1" /><path clip-path="url(#clip920)" d="M1548.25 1514.29 L1566.6 1514.29 L1566.6 1518.22 L1552.53 1518.22 L1552.53 1526.7 Q1553.55 1526.35 1554.57 1526.19 Q1555.59 1526 1556.6 1526 Q1562.39 1526 1565.77 1529.17 Q1569.15 1532.34 1569.15 1537.76 Q1569.15 1543.34 1565.68 1546.44 Q1562.21 1549.52 1555.89 1549.52 Q1553.71 1549.52 1551.44 1549.15 Q1549.2 1548.78 1546.79 1548.04 L1546.79 1543.34 Q1548.87 1544.47 1551.09 1545.03 Q1553.32 1545.58 1555.79 1545.58 Q1559.8 1545.58 1562.14 1543.48 Q1564.47 1541.37 1564.47 1537.76 Q1564.47 1534.15 1562.14 1532.04 Q1559.8 1529.94 1555.79 1529.94 Q1553.92 1529.94 1552.04 1530.35 Q1550.19 1530.77 1548.25 1531.65 L1548.25 1514.29 Z" fill="#9eb1be" fill-rule="nonzero" fill-opacity="1" /><path clip-path="url(#clip920)" d="M1919.41 1544.91 L1927.05 1544.91 L1927.05 1518.55 L1918.74 1520.21 L1918.74 1515.95 L1927 1514.29 L1931.68 1514.29 L1931.68 1544.91 L1939.31 1544.91 L1939.31 1548.85 L1919.41 1548.85 L1919.41 1544.91 Z" fill="#9eb1be" fill-rule="nonzero" fill-opacity="1" /><path clip-path="url(#clip920)" d="M1958.76 1517.37 Q1955.15 1517.37 1953.32 1520.93 Q1951.51 1524.47 1951.51 1531.6 Q1951.51 1538.71 1953.32 1542.27 Q1955.15 1545.82 1958.76 1545.82 Q1962.39 1545.82 1964.2 1542.27 Q1966.03 1538.71 1966.03 1531.6 Q1966.03 1524.47 1964.2 1520.93 Q1962.39 1517.37 1958.76 1517.37 M1958.76 1513.66 Q1964.57 1513.66 1967.62 1518.27 Q1970.7 1522.85 1970.7 1531.6 Q1970.7 1540.33 1967.62 1544.94 Q1964.57 1549.52 1958.76 1549.52 Q1952.95 1549.52 1949.87 1544.94 Q1946.81 1540.33 1946.81 1531.6 Q1946.81 1522.85 1949.87 1518.27 Q1952.95 1513.66 1958.76 1513.66 Z" fill="#9eb1be" fill-rule="nonzero" fill-opacity="1" /><path clip-path="url(#clip920)" d="M1988.92 1517.37 Q1985.31 1517.37 1983.48 1520.93 Q1981.68 1524.47 1981.68 1531.6 Q1981.68 1538.71 1983.48 1542.27 Q1985.31 1545.82 1988.92 1545.82 Q1992.55 1545.82 1994.36 1542.27 Q1996.19 1538.71 1996.19 1531.6 Q1996.19 1524.47 1994.36 1520.93 Q1992.55 1517.37 1988.92 1517.37 M1988.92 1513.66 Q1994.73 1513.66 1997.79 1518.27 Q2000.87 1522.85 2000.87 1531.6 Q2000.87 1540.33 1997.79 1544.94 Q1994.73 1549.52 1988.92 1549.52 Q1983.11 1549.52 1980.03 1544.94 Q1976.98 1540.33 1976.98 1531.6 Q1976.98 1522.85 1980.03 1518.27 Q1983.11 1513.66 1988.92 1513.66 Z" fill="#9eb1be" fill-rule="nonzero" fill-opacity="1" /><polyline clip-path="url(#clip920)" style="stroke:#adb2b7; stroke-linecap:round; stroke-linejoin:round; stroke-width:4; stroke-opacity:1; fill:none" points="249.769,1486.45 249.769,106.192 "/>
<polyline clip-path="url(#clip920)" style="stroke:#adb2b7; stroke-linecap:round; stroke-linejoin:round; stroke-width:4; stroke-opacity:1; fill:none" points="249.769,1418.95 268.667,1418.95 "/>
<polyline clip-path="url(#clip920)" style="stroke:#adb2b7; stroke-linecap:round; stroke-linejoin:round; stroke-width:4; stroke-opacity:1; fill:none" points="249.769,1164.21 268.667,1164.21 "/>
<polyline clip-path="url(#clip920)" style="stroke:#adb2b7; stroke-linecap:round; stroke-linejoin:round; stroke-width:4; stroke-opacity:1; fill:none" points="249.769,909.473 268.667,909.473 "/>
<polyline clip-path="url(#clip920)" style="stroke:#adb2b7; stroke-linecap:round; stroke-linejoin:round; stroke-width:4; stroke-opacity:1; fill:none" points="249.769,654.734 268.667,654.734 "/>
<polyline clip-path="url(#clip920)" style="stroke:#adb2b7; stroke-linecap:round; stroke-linejoin:round; stroke-width:4; stroke-opacity:1; fill:none" points="249.769,399.995 268.667,399.995 "/>
<polyline clip-path="url(#clip920)" style="stroke:#adb2b7; stroke-linecap:round; stroke-linejoin:round; stroke-width:4; stroke-opacity:1; fill:none" points="249.769,145.256 268.667,145.256 "/>
<path clip-path="url(#clip920)" d="M50.9921 1421.35 L63.4689 1421.35 L63.4689 1425.14 L50.9921 1425.14 L50.9921 1421.35 Z" fill="#9eb1be" fill-rule="nonzero" fill-opacity="1" /><path clip-path="url(#clip920)" d="M74.8809 1432.3 L91.2002 1432.3 L91.2002 1436.23 L69.2559 1436.23 L69.2559 1432.3 Q71.9179 1429.54 76.5012 1424.91 Q81.1077 1420.26 82.2883 1418.92 Q84.5336 1416.39 85.4132 1414.66 Q86.316 1412.9 86.316 1411.21 Q86.316 1408.45 84.3716 1406.72 Q82.4503 1404.98 79.3485 1404.98 Q77.1494 1404.98 74.6957 1405.74 Q72.2652 1406.51 69.4874 1408.06 L69.4874 1403.34 Q72.3115 1402.2 74.7651 1401.62 Q77.2188 1401.05 79.2559 1401.05 Q84.6262 1401.05 87.8206 1403.73 Q91.0151 1406.42 91.0151 1410.91 Q91.0151 1413.04 90.2049 1414.96 Q89.4178 1416.86 87.3114 1419.45 Q86.7327 1420.12 83.6308 1423.34 Q80.529 1426.53 74.8809 1432.3 Z" fill="#9eb1be" fill-rule="nonzero" fill-opacity="1" /><path clip-path="url(#clip920)" d="M101.061 1401.67 L119.418 1401.67 L119.418 1405.61 L105.344 1405.61 L105.344 1414.08 Q106.362 1413.73 107.381 1413.57 Q108.399 1413.38 109.418 1413.38 Q115.205 1413.38 118.584 1416.55 Q121.964 1419.73 121.964 1425.14 Q121.964 1430.72 118.492 1433.82 Q115.02 1436.9 108.7 1436.9 Q106.524 1436.9 104.256 1436.53 Q102.01 1436.16 99.603 1435.42 L99.603 1430.72 Q101.686 1431.86 103.909 1432.41 Q106.131 1432.97 108.608 1432.97 Q112.612 1432.97 114.95 1430.86 Q117.288 1428.75 117.288 1425.14 Q117.288 1421.53 114.95 1419.42 Q112.612 1417.32 108.608 1417.32 Q106.733 1417.32 104.858 1417.73 Q103.006 1418.15 101.061 1419.03 L101.061 1401.67 Z" fill="#9eb1be" fill-rule="nonzero" fill-opacity="1" /><path clip-path="url(#clip920)" d="M131.177 1430.35 L136.061 1430.35 L136.061 1436.23 L131.177 1436.23 L131.177 1430.35 Z" fill="#9eb1be" fill-rule="nonzero" fill-opacity="1" /><path clip-path="url(#clip920)" d="M156.246 1404.75 Q152.635 1404.75 150.806 1408.31 Q149.001 1411.86 149.001 1418.98 Q149.001 1426.09 150.806 1429.66 Q152.635 1433.2 156.246 1433.2 Q159.88 1433.2 161.686 1429.66 Q163.515 1426.09 163.515 1418.98 Q163.515 1411.86 161.686 1408.31 Q159.88 1404.75 156.246 1404.75 M156.246 1401.05 Q162.056 1401.05 165.112 1405.65 Q168.191 1410.23 168.191 1418.98 Q168.191 1427.71 165.112 1432.32 Q162.056 1436.9 156.246 1436.9 Q150.436 1436.9 147.357 1432.32 Q144.302 1427.71 144.302 1418.98 Q144.302 1410.23 147.357 1405.65 Q150.436 1401.05 156.246 1401.05 Z" fill="#9eb1be" fill-rule="nonzero" fill-opacity="1" /><path clip-path="url(#clip920)" d="M205.806 1421.02 Q203.792 1421.02 202.635 1422.73 Q201.501 1424.45 201.501 1427.5 Q201.501 1430.51 202.635 1432.25 Q203.792 1433.96 205.806 1433.96 Q207.774 1433.96 208.908 1432.25 Q210.065 1430.51 210.065 1427.5 Q210.065 1424.47 208.908 1422.76 Q207.774 1421.02 205.806 1421.02 M205.806 1418.08 Q209.463 1418.08 211.616 1420.63 Q213.769 1423.17 213.769 1427.5 Q213.769 1431.83 211.593 1434.38 Q209.44 1436.9 205.806 1436.9 Q202.102 1436.9 199.95 1434.38 Q197.797 1431.83 197.797 1427.5 Q197.797 1423.15 199.95 1420.63 Q202.126 1418.08 205.806 1418.08 M181.917 1403.98 Q179.927 1403.98 178.769 1405.72 Q177.635 1407.43 177.635 1410.44 Q177.635 1413.5 178.769 1415.21 Q179.903 1416.92 181.917 1416.92 Q183.931 1416.92 185.065 1415.21 Q186.223 1413.5 186.223 1410.44 Q186.223 1407.46 185.065 1405.72 Q183.908 1403.98 181.917 1403.98 M202.82 1401.05 L206.524 1401.05 L184.903 1436.9 L181.2 1436.9 L202.82 1401.05 M181.917 1401.05 Q185.575 1401.05 187.751 1403.59 Q189.927 1406.11 189.927 1410.44 Q189.927 1414.82 187.751 1417.34 Q185.598 1419.86 181.917 1419.86 Q178.237 1419.86 176.084 1417.34 Q173.954 1414.8 173.954 1410.44 Q173.954 1406.14 176.107 1403.59 Q178.26 1401.05 181.917 1401.05 Z" fill="#9eb1be" fill-rule="nonzero" fill-opacity="1" /><path clip-path="url(#clip920)" d="M50.9921 1166.61 L63.4689 1166.61 L63.4689 1170.4 L50.9921 1170.4 L50.9921 1166.61 Z" fill="#9eb1be" fill-rule="nonzero" fill-opacity="1" /><path clip-path="url(#clip920)" d="M74.8809 1177.56 L91.2002 1177.56 L91.2002 1181.49 L69.2559 1181.49 L69.2559 1177.56 Q71.9179 1174.8 76.5012 1170.17 Q81.1077 1165.52 82.2883 1164.18 Q84.5336 1161.65 85.4132 1159.92 Q86.316 1158.16 86.316 1156.47 Q86.316 1153.71 84.3716 1151.98 Q82.4503 1150.24 79.3485 1150.24 Q77.1494 1150.24 74.6957 1151.01 Q72.2652 1151.77 69.4874 1153.32 L69.4874 1148.6 Q72.3115 1147.46 74.7651 1146.89 Q77.2188 1146.31 79.2559 1146.31 Q84.6262 1146.31 87.8206 1148.99 Q91.0151 1151.68 91.0151 1156.17 Q91.0151 1158.3 90.2049 1160.22 Q89.4178 1162.12 87.3114 1164.71 Q86.7327 1165.38 83.6308 1168.6 Q80.529 1171.79 74.8809 1177.56 Z" fill="#9eb1be" fill-rule="nonzero" fill-opacity="1" /><path clip-path="url(#clip920)" d="M111.015 1150.01 Q107.404 1150.01 105.575 1153.57 Q103.77 1157.12 103.77 1164.25 Q103.77 1171.35 105.575 1174.92 Q107.404 1178.46 111.015 1178.46 Q114.649 1178.46 116.455 1174.92 Q118.283 1171.35 118.283 1164.25 Q118.283 1157.12 116.455 1153.57 Q114.649 1150.01 111.015 1150.01 M111.015 1146.31 Q116.825 1146.31 119.881 1150.91 Q122.959 1155.5 122.959 1164.25 Q122.959 1172.97 119.881 1177.58 Q116.825 1182.16 111.015 1182.16 Q105.205 1182.16 102.126 1177.58 Q99.0706 1172.97 99.0706 1164.25 Q99.0706 1155.5 102.126 1150.91 Q105.205 1146.31 111.015 1146.31 Z" fill="#9eb1be" fill-rule="nonzero" fill-opacity="1" /><path clip-path="url(#clip920)" d="M131.177 1175.61 L136.061 1175.61 L136.061 1181.49 L131.177 1181.49 L131.177 1175.61 Z" fill="#9eb1be" fill-rule="nonzero" fill-opacity="1" /><path clip-path="url(#clip920)" d="M156.246 1150.01 Q152.635 1150.01 150.806 1153.57 Q149.001 1157.12 149.001 1164.25 Q149.001 1171.35 150.806 1174.92 Q152.635 1178.46 156.246 1178.46 Q159.88 1178.46 161.686 1174.92 Q163.515 1171.35 163.515 1164.25 Q163.515 1157.12 161.686 1153.57 Q159.88 1150.01 156.246 1150.01 M156.246 1146.31 Q162.056 1146.31 165.112 1150.91 Q168.191 1155.5 168.191 1164.25 Q168.191 1172.97 165.112 1177.58 Q162.056 1182.16 156.246 1182.16 Q150.436 1182.16 147.357 1177.58 Q144.302 1172.97 144.302 1164.25 Q144.302 1155.5 147.357 1150.91 Q150.436 1146.31 156.246 1146.31 Z" fill="#9eb1be" fill-rule="nonzero" fill-opacity="1" /><path clip-path="url(#clip920)" d="M205.806 1166.28 Q203.792 1166.28 202.635 1168 Q201.501 1169.71 201.501 1172.76 Q201.501 1175.77 202.635 1177.51 Q203.792 1179.22 205.806 1179.22 Q207.774 1179.22 208.908 1177.51 Q210.065 1175.77 210.065 1172.76 Q210.065 1169.73 208.908 1168.02 Q207.774 1166.28 205.806 1166.28 M205.806 1163.34 Q209.463 1163.34 211.616 1165.89 Q213.769 1168.44 213.769 1172.76 Q213.769 1177.09 211.593 1179.64 Q209.44 1182.16 205.806 1182.16 Q202.102 1182.16 199.95 1179.64 Q197.797 1177.09 197.797 1172.76 Q197.797 1168.41 199.95 1165.89 Q202.126 1163.34 205.806 1163.34 M181.917 1149.25 Q179.927 1149.25 178.769 1150.98 Q177.635 1152.7 177.635 1155.7 Q177.635 1158.76 178.769 1160.47 Q179.903 1162.19 181.917 1162.19 Q183.931 1162.19 185.065 1160.47 Q186.223 1158.76 186.223 1155.7 Q186.223 1152.72 185.065 1150.98 Q183.908 1149.25 181.917 1149.25 M202.82 1146.31 L206.524 1146.31 L184.903 1182.16 L181.2 1182.16 L202.82 1146.31 M181.917 1146.31 Q185.575 1146.31 187.751 1148.85 Q189.927 1151.38 189.927 1155.7 Q189.927 1160.08 187.751 1162.6 Q185.598 1165.13 181.917 1165.13 Q178.237 1165.13 176.084 1162.6 Q173.954 1160.06 173.954 1155.7 Q173.954 1151.4 176.107 1148.85 Q178.26 1146.31 181.917 1146.31 Z" fill="#9eb1be" fill-rule="nonzero" fill-opacity="1" /><path clip-path="url(#clip920)" d="M50.9921 911.868 L63.4689 911.868 L63.4689 915.665 L50.9921 915.665 L50.9921 911.868 Z" fill="#9eb1be" fill-rule="nonzero" fill-opacity="1" /><path clip-path="url(#clip920)" d="M71.6633 922.817 L79.3022 922.817 L79.3022 896.452 L70.992 898.118 L70.992 893.859 L79.2559 892.193 L83.9318 892.193 L83.9318 922.817 L91.5706 922.817 L91.5706 926.753 L71.6633 926.753 L71.6633 922.817 Z" fill="#9eb1be" fill-rule="nonzero" fill-opacity="1" /><path clip-path="url(#clip920)" d="M101.061 892.193 L119.418 892.193 L119.418 896.128 L105.344 896.128 L105.344 904.6 Q106.362 904.253 107.381 904.091 Q108.399 903.905 109.418 903.905 Q115.205 903.905 118.584 907.077 Q121.964 910.248 121.964 915.665 Q121.964 921.243 118.492 924.345 Q115.02 927.424 108.7 927.424 Q106.524 927.424 104.256 927.053 Q102.01 926.683 99.603 925.942 L99.603 921.243 Q101.686 922.378 103.909 922.933 Q106.131 923.489 108.608 923.489 Q112.612 923.489 114.95 921.382 Q117.288 919.276 117.288 915.665 Q117.288 912.054 114.95 909.947 Q112.612 907.841 108.608 907.841 Q106.733 907.841 104.858 908.257 Q103.006 908.674 101.061 909.554 L101.061 892.193 Z" fill="#9eb1be" fill-rule="nonzero" fill-opacity="1" /><path clip-path="url(#clip920)" d="M131.177 920.873 L136.061 920.873 L136.061 926.753 L131.177 926.753 L131.177 920.873 Z" fill="#9eb1be" fill-rule="nonzero" fill-opacity="1" /><path clip-path="url(#clip920)" d="M156.246 895.271 Q152.635 895.271 150.806 898.836 Q149.001 902.378 149.001 909.507 Q149.001 916.614 150.806 920.178 Q152.635 923.72 156.246 923.72 Q159.88 923.72 161.686 920.178 Q163.515 916.614 163.515 909.507 Q163.515 902.378 161.686 898.836 Q159.88 895.271 156.246 895.271 M156.246 891.568 Q162.056 891.568 165.112 896.174 Q168.191 900.757 168.191 909.507 Q168.191 918.234 165.112 922.84 Q162.056 927.424 156.246 927.424 Q150.436 927.424 147.357 922.84 Q144.302 918.234 144.302 909.507 Q144.302 900.757 147.357 896.174 Q150.436 891.568 156.246 891.568 Z" fill="#9eb1be" fill-rule="nonzero" fill-opacity="1" /><path clip-path="url(#clip920)" d="M205.806 911.544 Q203.792 911.544 202.635 913.257 Q201.501 914.97 201.501 918.026 Q201.501 921.035 202.635 922.771 Q203.792 924.484 205.806 924.484 Q207.774 924.484 208.908 922.771 Q210.065 921.035 210.065 918.026 Q210.065 914.993 208.908 913.28 Q207.774 911.544 205.806 911.544 M205.806 908.604 Q209.463 908.604 211.616 911.151 Q213.769 913.697 213.769 918.026 Q213.769 922.354 211.593 924.901 Q209.44 927.424 205.806 927.424 Q202.102 927.424 199.95 924.901 Q197.797 922.354 197.797 918.026 Q197.797 913.674 199.95 911.151 Q202.126 908.604 205.806 908.604 M181.917 894.507 Q179.927 894.507 178.769 896.243 Q177.635 897.956 177.635 900.966 Q177.635 904.021 178.769 905.734 Q179.903 907.447 181.917 907.447 Q183.931 907.447 185.065 905.734 Q186.223 904.021 186.223 900.966 Q186.223 897.98 185.065 896.243 Q183.908 894.507 181.917 894.507 M202.82 891.568 L206.524 891.568 L184.903 927.424 L181.2 927.424 L202.82 891.568 M181.917 891.568 Q185.575 891.568 187.751 894.114 Q189.927 896.637 189.927 900.966 Q189.927 905.341 187.751 907.864 Q185.598 910.387 181.917 910.387 Q178.237 910.387 176.084 907.864 Q173.954 905.317 173.954 900.966 Q173.954 896.66 176.107 894.114 Q178.26 891.568 181.917 891.568 Z" fill="#9eb1be" fill-rule="nonzero" fill-opacity="1" /><path clip-path="url(#clip920)" d="M50.9921 657.129 L63.4689 657.129 L63.4689 660.926 L50.9921 660.926 L50.9921 657.129 Z" fill="#9eb1be" fill-rule="nonzero" fill-opacity="1" /><path clip-path="url(#clip920)" d="M71.6633 668.078 L79.3022 668.078 L79.3022 641.713 L70.992 643.38 L70.992 639.12 L79.2559 637.454 L83.9318 637.454 L83.9318 668.078 L91.5706 668.078 L91.5706 672.014 L71.6633 672.014 L71.6633 668.078 Z" fill="#9eb1be" fill-rule="nonzero" fill-opacity="1" /><path clip-path="url(#clip920)" d="M111.015 640.532 Q107.404 640.532 105.575 644.097 Q103.77 647.639 103.77 654.768 Q103.77 661.875 105.575 665.44 Q107.404 668.981 111.015 668.981 Q114.649 668.981 116.455 665.44 Q118.283 661.875 118.283 654.768 Q118.283 647.639 116.455 644.097 Q114.649 640.532 111.015 640.532 M111.015 636.829 Q116.825 636.829 119.881 641.435 Q122.959 646.018 122.959 654.768 Q122.959 663.495 119.881 668.102 Q116.825 672.685 111.015 672.685 Q105.205 672.685 102.126 668.102 Q99.0706 663.495 99.0706 654.768 Q99.0706 646.018 102.126 641.435 Q105.205 636.829 111.015 636.829 Z" fill="#9eb1be" fill-rule="nonzero" fill-opacity="1" /><path clip-path="url(#clip920)" d="M131.177 666.134 L136.061 666.134 L136.061 672.014 L131.177 672.014 L131.177 666.134 Z" fill="#9eb1be" fill-rule="nonzero" fill-opacity="1" /><path clip-path="url(#clip920)" d="M156.246 640.532 Q152.635 640.532 150.806 644.097 Q149.001 647.639 149.001 654.768 Q149.001 661.875 150.806 665.44 Q152.635 668.981 156.246 668.981 Q159.88 668.981 161.686 665.44 Q163.515 661.875 163.515 654.768 Q163.515 647.639 161.686 644.097 Q159.88 640.532 156.246 640.532 M156.246 636.829 Q162.056 636.829 165.112 641.435 Q168.191 646.018 168.191 654.768 Q168.191 663.495 165.112 668.102 Q162.056 672.685 156.246 672.685 Q150.436 672.685 147.357 668.102 Q144.302 663.495 144.302 654.768 Q144.302 646.018 147.357 641.435 Q150.436 636.829 156.246 636.829 Z" fill="#9eb1be" fill-rule="nonzero" fill-opacity="1" /><path clip-path="url(#clip920)" d="M205.806 656.805 Q203.792 656.805 202.635 658.518 Q201.501 660.231 201.501 663.287 Q201.501 666.296 202.635 668.032 Q203.792 669.745 205.806 669.745 Q207.774 669.745 208.908 668.032 Q210.065 666.296 210.065 663.287 Q210.065 660.254 208.908 658.542 Q207.774 656.805 205.806 656.805 M205.806 653.866 Q209.463 653.866 211.616 656.412 Q213.769 658.958 213.769 663.287 Q213.769 667.616 211.593 670.162 Q209.44 672.685 205.806 672.685 Q202.102 672.685 199.95 670.162 Q197.797 667.616 197.797 663.287 Q197.797 658.935 199.95 656.412 Q202.126 653.866 205.806 653.866 M181.917 639.768 Q179.927 639.768 178.769 641.505 Q177.635 643.218 177.635 646.227 Q177.635 649.282 178.769 650.995 Q179.903 652.708 181.917 652.708 Q183.931 652.708 185.065 650.995 Q186.223 649.282 186.223 646.227 Q186.223 643.241 185.065 641.505 Q183.908 639.768 181.917 639.768 M202.82 636.829 L206.524 636.829 L184.903 672.685 L181.2 672.685 L202.82 636.829 M181.917 636.829 Q185.575 636.829 187.751 639.375 Q189.927 641.898 189.927 646.227 Q189.927 650.602 187.751 653.125 Q185.598 655.648 181.917 655.648 Q178.237 655.648 176.084 653.125 Q173.954 650.579 173.954 646.227 Q173.954 641.921 176.107 639.375 Q178.26 636.829 181.917 636.829 Z" fill="#9eb1be" fill-rule="nonzero" fill-opacity="1" /><path clip-path="url(#clip920)" d="M81.154 402.391 L93.6308 402.391 L93.6308 406.187 L81.154 406.187 L81.154 402.391 Z" fill="#9eb1be" fill-rule="nonzero" fill-opacity="1" /><path clip-path="url(#clip920)" d="M101.061 382.715 L119.418 382.715 L119.418 386.65 L105.344 386.65 L105.344 395.122 Q106.362 394.775 107.381 394.613 Q108.399 394.428 109.418 394.428 Q115.205 394.428 118.584 397.599 Q121.964 400.77 121.964 406.187 Q121.964 411.766 118.492 414.867 Q115.02 417.946 108.7 417.946 Q106.524 417.946 104.256 417.576 Q102.01 417.205 99.603 416.465 L99.603 411.766 Q101.686 412.9 103.909 413.455 Q106.131 414.011 108.608 414.011 Q112.612 414.011 114.95 411.904 Q117.288 409.798 117.288 406.187 Q117.288 402.576 114.95 400.469 Q112.612 398.363 108.608 398.363 Q106.733 398.363 104.858 398.78 Q103.006 399.196 101.061 400.076 L101.061 382.715 Z" fill="#9eb1be" fill-rule="nonzero" fill-opacity="1" /><path clip-path="url(#clip920)" d="M131.177 411.395 L136.061 411.395 L136.061 417.275 L131.177 417.275 L131.177 411.395 Z" fill="#9eb1be" fill-rule="nonzero" fill-opacity="1" /><path clip-path="url(#clip920)" d="M156.246 385.794 Q152.635 385.794 150.806 389.358 Q149.001 392.9 149.001 400.03 Q149.001 407.136 150.806 410.701 Q152.635 414.242 156.246 414.242 Q159.88 414.242 161.686 410.701 Q163.515 407.136 163.515 400.03 Q163.515 392.9 161.686 389.358 Q159.88 385.794 156.246 385.794 M156.246 382.09 Q162.056 382.09 165.112 386.696 Q168.191 391.28 168.191 400.03 Q168.191 408.756 165.112 413.363 Q162.056 417.946 156.246 417.946 Q150.436 417.946 147.357 413.363 Q144.302 408.756 144.302 400.03 Q144.302 391.28 147.357 386.696 Q150.436 382.09 156.246 382.09 Z" fill="#9eb1be" fill-rule="nonzero" fill-opacity="1" /><path clip-path="url(#clip920)" d="M205.806 402.067 Q203.792 402.067 202.635 403.78 Q201.501 405.492 201.501 408.548 Q201.501 411.557 202.635 413.293 Q203.792 415.006 205.806 415.006 Q207.774 415.006 208.908 413.293 Q210.065 411.557 210.065 408.548 Q210.065 405.516 208.908 403.803 Q207.774 402.067 205.806 402.067 M205.806 399.127 Q209.463 399.127 211.616 401.673 Q213.769 404.219 213.769 408.548 Q213.769 412.877 211.593 415.423 Q209.44 417.946 205.806 417.946 Q202.102 417.946 199.95 415.423 Q197.797 412.877 197.797 408.548 Q197.797 404.196 199.95 401.673 Q202.126 399.127 205.806 399.127 M181.917 385.03 Q179.927 385.03 178.769 386.766 Q177.635 388.479 177.635 391.488 Q177.635 394.543 178.769 396.256 Q179.903 397.969 181.917 397.969 Q183.931 397.969 185.065 396.256 Q186.223 394.543 186.223 391.488 Q186.223 388.502 185.065 386.766 Q183.908 385.03 181.917 385.03 M202.82 382.09 L206.524 382.09 L184.903 417.946 L181.2 417.946 L202.82 382.09 M181.917 382.09 Q185.575 382.09 187.751 384.636 Q189.927 387.159 189.927 391.488 Q189.927 395.863 187.751 398.386 Q185.598 400.909 181.917 400.909 Q178.237 400.909 176.084 398.386 Q173.954 395.84 173.954 391.488 Q173.954 387.182 176.107 384.636 Q178.26 382.09 181.917 382.09 Z" fill="#9eb1be" fill-rule="nonzero" fill-opacity="1" /><path clip-path="url(#clip920)" d="M111.015 131.055 Q107.404 131.055 105.575 134.619 Q103.77 138.161 103.77 145.291 Q103.77 152.397 105.575 155.962 Q107.404 159.504 111.015 159.504 Q114.649 159.504 116.455 155.962 Q118.283 152.397 118.283 145.291 Q118.283 138.161 116.455 134.619 Q114.649 131.055 111.015 131.055 M111.015 127.351 Q116.825 127.351 119.881 131.957 Q122.959 136.541 122.959 145.291 Q122.959 154.017 119.881 158.624 Q116.825 163.207 111.015 163.207 Q105.205 163.207 102.126 158.624 Q99.0706 154.017 99.0706 145.291 Q99.0706 136.541 102.126 131.957 Q105.205 127.351 111.015 127.351 Z" fill="#9eb1be" fill-rule="nonzero" fill-opacity="1" /><path clip-path="url(#clip920)" d="M131.177 156.656 L136.061 156.656 L136.061 162.536 L131.177 162.536 L131.177 156.656 Z" fill="#9eb1be" fill-rule="nonzero" fill-opacity="1" /><path clip-path="url(#clip920)" d="M156.246 131.055 Q152.635 131.055 150.806 134.619 Q149.001 138.161 149.001 145.291 Q149.001 152.397 150.806 155.962 Q152.635 159.504 156.246 159.504 Q159.88 159.504 161.686 155.962 Q163.515 152.397 163.515 145.291 Q163.515 138.161 161.686 134.619 Q159.88 131.055 156.246 131.055 M156.246 127.351 Q162.056 127.351 165.112 131.957 Q168.191 136.541 168.191 145.291 Q168.191 154.017 165.112 158.624 Q162.056 163.207 156.246 163.207 Q150.436 163.207 147.357 158.624 Q144.302 154.017 144.302 145.291 Q144.302 136.541 147.357 131.957 Q150.436 127.351 156.246 127.351 Z" fill="#9eb1be" fill-rule="nonzero" fill-opacity="1" /><path clip-path="url(#clip920)" d="M205.806 147.328 Q203.792 147.328 202.635 149.041 Q201.501 150.754 201.501 153.809 Q201.501 156.818 202.635 158.555 Q203.792 160.267 205.806 160.267 Q207.774 160.267 208.908 158.555 Q210.065 156.818 210.065 153.809 Q210.065 150.777 208.908 149.064 Q207.774 147.328 205.806 147.328 M205.806 144.388 Q209.463 144.388 211.616 146.934 Q213.769 149.48 213.769 153.809 Q213.769 158.138 211.593 160.684 Q209.44 163.207 205.806 163.207 Q202.102 163.207 199.95 160.684 Q197.797 158.138 197.797 153.809 Q197.797 149.457 199.95 146.934 Q202.126 144.388 205.806 144.388 M181.917 130.291 Q179.927 130.291 178.769 132.027 Q177.635 133.74 177.635 136.749 Q177.635 139.805 178.769 141.518 Q179.903 143.231 181.917 143.231 Q183.931 143.231 185.065 141.518 Q186.223 139.805 186.223 136.749 Q186.223 133.763 185.065 132.027 Q183.908 130.291 181.917 130.291 M202.82 127.351 L206.524 127.351 L184.903 163.207 L181.2 163.207 L202.82 127.351 M181.917 127.351 Q185.575 127.351 187.751 129.897 Q189.927 132.42 189.927 136.749 Q189.927 141.124 187.751 143.647 Q185.598 146.17 181.917 146.17 Q178.237 146.17 176.084 143.647 Q173.954 141.101 173.954 136.749 Q173.954 132.444 176.107 129.897 Q178.26 127.351 181.917 127.351 Z" fill="#9eb1be" fill-rule="nonzero" fill-opacity="1" /><path clip-path="url(#clip920)" d="M249.769 8.64 L277.084 8.64 L277.084 13.559 L255.614 13.559 L255.614 26.3482 L276.187 26.3482 L276.187 31.2672 L255.614 31.2672 L255.614 46.921 L277.605 46.921 L277.605 51.84 L249.769 51.84 L249.769 8.64 Z" fill="#adb2b7" fill-rule="nonzero" fill-opacity="1" /><path clip-path="url(#clip920)" d="M290.162 35.6653 Q290.162 41.5391 292.564 44.8956 Q294.994 48.2231 299.219 48.2231 Q303.444 48.2231 305.874 44.8956 Q308.305 41.5391 308.305 35.6653 Q308.305 29.7915 305.874 26.464 Q303.444 23.1075 299.219 23.1075 Q294.994 23.1075 292.564 26.464 Q290.162 29.7915 290.162 35.6653 M308.305 46.9789 Q306.626 49.8724 304.051 51.2902 Q301.505 52.6791 297.917 52.6791 Q292.043 52.6791 288.339 47.9916 Q284.665 43.3042 284.665 35.6653 Q284.665 28.0265 288.339 23.339 Q292.043 18.6515 297.917 18.6515 Q301.505 18.6515 304.051 20.0693 Q306.626 21.4582 308.305 24.3517 L308.305 19.4328 L313.629 19.4328 L313.629 64.1663 L308.305 64.1663 L308.305 46.9789 Z" fill="#adb2b7" fill-rule="nonzero" fill-opacity="1" /><path clip-path="url(#clip920)" d="M324.045 39.0507 L324.045 19.4328 L329.369 19.4328 L329.369 38.8482 Q329.369 43.4488 331.163 45.7636 Q332.957 48.0495 336.545 48.0495 Q340.857 48.0495 343.345 45.3007 Q345.862 42.5519 345.862 37.8065 L345.862 19.4328 L351.186 19.4328 L351.186 51.84 L345.862 51.84 L345.862 46.8632 Q343.924 49.8145 341.348 51.2613 Q338.802 52.6791 335.417 52.6791 Q329.832 52.6791 326.939 49.2069 Q324.045 45.7347 324.045 39.0507 M337.442 18.6515 L337.442 18.6515 Z" fill="#adb2b7" fill-rule="nonzero" fill-opacity="1" /><path clip-path="url(#clip920)" d="M362.153 19.4328 L367.477 19.4328 L367.477 51.84 L362.153 51.84 L362.153 19.4328 M362.153 6.81709 L367.477 6.81709 L367.477 13.559 L362.153 13.559 L362.153 6.81709 Z" fill="#adb2b7" fill-rule="nonzero" fill-opacity="1" /><path clip-path="url(#clip920)" d="M383.883 10.2314 L383.883 19.4328 L394.849 19.4328 L394.849 23.5705 L383.883 23.5705 L383.883 41.163 Q383.883 45.1271 384.953 46.2555 Q386.053 47.384 389.381 47.384 L394.849 47.384 L394.849 51.84 L389.381 51.84 Q383.217 51.84 380.874 49.5541 Q378.53 47.2393 378.53 41.163 L378.53 23.5705 L374.624 23.5705 L374.624 19.4328 L378.53 19.4328 L378.53 10.2314 L383.883 10.2314 Z" fill="#adb2b7" fill-rule="nonzero" fill-opacity="1" /><path clip-path="url(#clip920)" d="M415.335 54.8492 Q413.078 60.6362 410.937 62.4013 Q408.796 64.1663 405.208 64.1663 L400.955 64.1663 L400.955 59.7103 L404.08 59.7103 Q406.279 59.7103 407.494 58.6687 Q408.709 57.627 410.185 53.7497 L411.14 51.3192 L398.032 19.4328 L403.674 19.4328 L413.802 44.7799 L423.929 19.4328 L429.571 19.4328 L415.335 54.8492 Z" fill="#adb2b7" fill-rule="nonzero" fill-opacity="1" /><path clip-path="url(#clip920)" d="M477.083 24.3517 L477.083 6.81709 L482.407 6.81709 L482.407 51.84 L477.083 51.84 L477.083 46.9789 Q475.404 49.8724 472.829 51.2902 Q470.283 52.6791 466.695 52.6791 Q460.821 52.6791 457.117 47.9916 Q453.443 43.3042 453.443 35.6653 Q453.443 28.0265 457.117 23.339 Q460.821 18.6515 466.695 18.6515 Q470.283 18.6515 472.829 20.0693 Q475.404 21.4582 477.083 24.3517 M458.94 35.6653 Q458.94 41.5391 461.342 44.8956 Q463.773 48.2231 467.997 48.2231 Q472.222 48.2231 474.652 44.8956 Q477.083 41.5391 477.083 35.6653 Q477.083 29.7915 474.652 26.464 Q472.222 23.1075 467.997 23.1075 Q463.773 23.1075 461.342 26.464 Q458.94 29.7915 458.94 35.6653 Z" fill="#adb2b7" fill-rule="nonzero" fill-opacity="1" /><path clip-path="url(#clip920)" d="M512.152 24.4096 Q511.255 23.8888 510.184 23.6573 Q509.143 23.3969 507.87 23.3969 Q503.356 23.3969 500.925 26.3482 Q498.523 29.2707 498.523 34.7683 L498.523 51.84 L493.171 51.84 L493.171 19.4328 L498.523 19.4328 L498.523 24.4675 Q500.202 21.5161 502.893 20.0983 Q505.584 18.6515 509.432 18.6515 Q509.982 18.6515 510.647 18.7383 Q511.313 18.7962 512.123 18.9409 L512.152 24.4096 Z" fill="#adb2b7" fill-rule="nonzero" fill-opacity="1" /><path clip-path="url(#clip920)" d="M532.464 35.5496 Q526.012 35.5496 523.523 37.0253 Q521.035 38.501 521.035 42.06 Q521.035 44.8956 522.887 46.5738 Q524.768 48.2231 527.979 48.2231 Q532.406 48.2231 535.068 45.0981 Q537.759 41.9442 537.759 36.7359 L537.759 35.5496 L532.464 35.5496 M543.083 33.3505 L543.083 51.84 L537.759 51.84 L537.759 46.921 Q535.936 49.8724 533.217 51.2902 Q530.497 52.6791 526.562 52.6791 Q521.585 52.6791 518.633 49.9014 Q515.711 47.0947 515.711 42.4072 Q515.711 36.9385 519.357 34.1607 Q523.031 31.3829 530.294 31.3829 L537.759 31.3829 L537.759 30.8621 Q537.759 27.1874 535.329 25.1908 Q532.927 23.1654 528.558 23.1654 Q525.78 23.1654 523.147 23.8309 Q520.514 24.4964 518.084 25.8274 L518.084 20.9085 Q521.006 19.78 523.755 19.2302 Q526.504 18.6515 529.108 18.6515 Q536.139 18.6515 539.611 22.2973 Q543.083 25.9431 543.083 33.3505 Z" fill="#adb2b7" fill-rule="nonzero" fill-opacity="1" /><path clip-path="url(#clip920)" d="M550.954 19.4328 L556.278 19.4328 L562.933 44.722 L569.559 19.4328 L575.838 19.4328 L582.493 44.722 L589.119 19.4328 L594.443 19.4328 L585.965 51.84 L579.686 51.84 L572.713 25.2776 L565.711 51.84 L559.432 51.84 L550.954 19.4328 Z" fill="#adb2b7" fill-rule="nonzero" fill-opacity="1" /><path clip-path="url(#clip920)" d="M623.841 24.3517 L623.841 6.81709 L629.165 6.81709 L629.165 51.84 L623.841 51.84 L623.841 46.9789 Q622.163 49.8724 619.588 51.2902 Q617.041 52.6791 613.453 52.6791 Q607.58 52.6791 603.876 47.9916 Q600.201 43.3042 600.201 35.6653 Q600.201 28.0265 603.876 23.339 Q607.58 18.6515 613.453 18.6515 Q617.041 18.6515 619.588 20.0693 Q622.163 21.4582 623.841 24.3517 M605.699 35.6653 Q605.699 41.5391 608.1 44.8956 Q610.531 48.2231 614.756 48.2231 Q618.98 48.2231 621.411 44.8956 Q623.841 41.5391 623.841 35.6653 Q623.841 29.7915 621.411 26.464 Q618.98 23.1075 614.756 23.1075 Q610.531 23.1075 608.1 26.464 Q605.699 29.7915 605.699 35.6653 Z" fill="#adb2b7" fill-rule="nonzero" fill-opacity="1" /><path clip-path="url(#clip920)" d="M652.689 23.1654 Q648.407 23.1654 645.919 26.5218 Q643.43 29.8494 643.43 35.6653 Q643.43 41.4813 645.89 44.8377 Q648.378 48.1653 652.689 48.1653 Q656.943 48.1653 659.431 44.8088 Q661.92 41.4523 661.92 35.6653 Q661.92 29.9072 659.431 26.5508 Q656.943 23.1654 652.689 23.1654 M652.689 18.6515 Q659.634 18.6515 663.598 23.1654 Q667.562 27.6792 667.562 35.6653 Q667.562 43.6225 663.598 48.1653 Q659.634 52.6791 652.689 52.6791 Q645.716 52.6791 641.752 48.1653 Q637.817 43.6225 637.817 35.6653 Q637.817 27.6792 641.752 23.1654 Q645.716 18.6515 652.689 18.6515 Z" fill="#adb2b7" fill-rule="nonzero" fill-opacity="1" /><path clip-path="url(#clip920)" d="M673.291 19.4328 L678.615 19.4328 L685.27 44.722 L691.896 19.4328 L698.175 19.4328 L704.83 44.722 L711.456 19.4328 L716.78 19.4328 L708.302 51.84 L702.024 51.84 L695.05 25.2776 L688.048 51.84 L681.769 51.84 L673.291 19.4328 Z" fill="#adb2b7" fill-rule="nonzero" fill-opacity="1" /><path clip-path="url(#clip920)" d="M751.792 32.2799 L751.792 51.84 L746.468 51.84 L746.468 32.4535 Q746.468 27.8529 744.674 25.567 Q742.88 23.2811 739.292 23.2811 Q734.981 23.2811 732.492 26.03 Q730.004 28.7788 730.004 33.5241 L730.004 51.84 L724.651 51.84 L724.651 19.4328 L730.004 19.4328 L730.004 24.4675 Q731.913 21.545 734.489 20.0983 Q737.093 18.6515 740.478 18.6515 Q746.063 18.6515 748.927 22.1237 Q751.792 25.567 751.792 32.2799 Z" fill="#adb2b7" fill-rule="nonzero" fill-opacity="1" /><path clip-path="url(#clip920)" d="M783.071 20.3876 L783.071 25.4223 Q780.814 24.2649 778.383 23.6862 Q775.953 23.1075 773.348 23.1075 Q769.384 23.1075 767.388 24.3228 Q765.42 25.5381 765.42 27.9686 Q765.42 29.8204 766.838 30.891 Q768.256 31.9327 772.538 32.8876 L774.361 33.2926 Q780.032 34.5079 782.405 36.7359 Q784.807 38.935 784.807 42.8991 Q784.807 47.4129 781.219 50.046 Q777.66 52.6791 771.41 52.6791 Q768.806 52.6791 765.97 52.1583 Q763.163 51.6664 760.038 50.6537 L760.038 45.156 Q762.99 46.6896 765.854 47.4708 Q768.719 48.2231 771.525 48.2231 Q775.287 48.2231 777.313 46.95 Q779.338 45.6479 779.338 43.3042 Q779.338 41.134 777.862 39.9766 Q776.416 38.8192 771.468 37.7486 L769.616 37.3146 Q764.668 36.273 762.469 34.1318 Q760.27 31.9616 760.27 28.2001 Q760.27 23.6283 763.51 21.1399 Q766.751 18.6515 772.712 18.6515 Q775.663 18.6515 778.267 19.0855 Q780.872 19.5196 783.071 20.3876 Z" fill="#adb2b7" fill-rule="nonzero" fill-opacity="1" /><path clip-path="url(#clip920)" d="M811.629 6.81709 L823.898 6.81709 L823.898 10.9548 L816.953 10.9548 L816.953 55.5147 L823.898 55.5147 L823.898 59.6525 L811.629 59.6525 L811.629 6.81709 Z" fill="#adb2b7" fill-rule="nonzero" fill-opacity="1" /><path clip-path="url(#clip920)" d="M872.74 32.8297 Q870.223 32.8297 868.776 34.9709 Q867.358 37.1121 867.358 40.9315 Q867.358 44.693 868.776 46.8632 Q870.223 49.0044 872.74 49.0044 Q875.2 49.0044 876.618 46.8632 Q878.064 44.693 878.064 40.9315 Q878.064 37.141 876.618 34.9998 Q875.2 32.8297 872.74 32.8297 M872.74 29.1549 Q877.312 29.1549 880.003 32.3378 Q882.694 35.5206 882.694 40.9315 Q882.694 46.3423 879.974 49.5252 Q877.283 52.6791 872.74 52.6791 Q868.111 52.6791 865.42 49.5252 Q862.729 46.3423 862.729 40.9315 Q862.729 35.4917 865.42 32.3378 Q868.14 29.1549 872.74 29.1549 M842.879 11.5335 Q840.391 11.5335 838.944 13.7036 Q837.526 15.8448 837.526 19.6064 Q837.526 23.4258 838.944 25.567 Q840.362 27.7082 842.879 27.7082 Q845.397 27.7082 846.814 25.567 Q848.261 23.4258 848.261 19.6064 Q848.261 15.8738 846.814 13.7036 Q845.368 11.5335 842.879 11.5335 M869.008 7.85875 L873.637 7.85875 L846.612 52.6791 L841.982 52.6791 L869.008 7.85875 M842.879 7.85875 Q847.451 7.85875 850.171 11.0416 Q852.891 14.1955 852.891 19.6064 Q852.891 25.0751 850.171 28.229 Q847.48 31.3829 842.879 31.3829 Q838.279 31.3829 835.588 28.229 Q832.926 25.0462 832.926 19.6064 Q832.926 14.2245 835.617 11.0416 Q838.308 7.85875 842.879 7.85875 Z" fill="#adb2b7" fill-rule="nonzero" fill-opacity="1" /><path clip-path="url(#clip920)" d="M903.99 6.81709 L903.99 59.6525 L891.722 59.6525 L891.722 55.5147 L898.637 55.5147 L898.637 10.9548 L891.722 10.9548 L891.722 6.81709 L903.99 6.81709 Z" fill="#adb2b7" fill-rule="nonzero" fill-opacity="1" /><path clip-path="url(#clip921)" d="M309.288 145.256 L325.959 145.256 L325.959 145.256 L342.631 145.256 L342.631 145.256 L359.303 145.256 L359.303 145.256 L375.975 145.256 L375.975 145.256 L392.647 145.256 L392.647 145.256 L409.319 145.256 L409.319 145.256 L425.99 145.256 L425.99 145.256 L442.662 145.256 L442.662 145.256 L459.334 145.256 L459.334 145.256 L476.006 145.256 L476.006 145.256 L492.678 145.256 L492.678 145.256 L509.35 145.256 L509.35 145.256 L526.022 145.256 L526.022 145.256 L542.693 145.256 L542.693 145.256 L559.365 145.256 L559.365 145.256 L576.037 145.256 L576.037 145.256 L592.709 145.256 L592.709 145.256 L609.381 145.256 L609.381 145.256 L626.053 145.256 L626.053 145.256 L642.724 145.256 L642.724 145.256 L659.396 145.256 L659.396 145.256 L676.068 145.256 L676.068 145.256 L692.74 145.256 L692.74 149.332 L709.412 149.332 L709.412 294.58 L726.084 294.58 L726.084 163.045 L742.756 163.045 L742.756 145.256 L759.427 145.256 L759.427 145.256 L776.099 145.256 L776.099 145.256 L792.771 145.256 L792.771 145.256 L809.443 145.256 L809.443 145.256 L826.115 145.256 L826.115 151.684 L842.787 151.684 L842.787 194.703 L859.459 194.703 L859.459 265.659 L876.13 265.659 L876.13 358.912 L892.802 358.912 L892.802 467.25 L909.474 467.25 L909.474 582.545 L926.146 582.545 L926.146 703.699 L942.818 703.699 L942.818 599.359 L959.49 599.359 L959.49 502.853 L976.161 502.853 L976.161 431.255 L992.833 431.255 L992.833 387.045 L1009.51 387.045 L1009.51 375.042 L1026.18 375.042 L1026.18 397.151 L1042.85 397.151 L1042.85 451.906 L1059.52 451.906 L1059.52 534.647 L1076.19 534.647 L1076.19 638.261 L1092.86 638.261 L1092.86 758.886 L1109.54 758.886 L1109.54 885.215 L1126.21 885.215 L1126.21 770.746 L1142.88 770.746 L1142.88 662.58 L1159.55 662.58 L1159.55 567.97 L1176.22 567.97 L1176.22 493.606 L1192.9 493.606 L1192.9 444.843 L1209.57 444.843 L1209.57 425.187 L1226.24 425.187 L1226.24 440.767 L1242.91 440.767 L1242.91 480.889 L1259.58 480.889 L1259.58 547.071 L1276.25 547.071 L1276.25 634.056 L1292.93 634.056 L1292.93 735.123 L1309.6 735.123 L1309.6 842.694 L1326.27 842.694 L1326.27 955.831 L1342.94 955.831 L1342.94 858.452 L1359.61 858.452 L1359.61 777.039 L1376.29 777.039 L1376.29 710.398 L1392.96 710.398 L1392.96 669.26 L1409.63 669.26 L1409.63 658.092 L1426.3 658.092 L1426.3 678.661 L1442.97 678.661 L1442.97 729.605 L1459.65 729.605 L1459.65 806.603 L1476.32 806.603 L1476.32 903.056 L1492.99 903.056 L1492.99 1006.65 L1509.66 1006.65 L1509.66 1124.67 L1526.33 1124.67 L1526.33 1017.75 L1543 1017.75 L1543 916.734 L1559.68 916.734 L1559.68 828.386 L1576.35 828.386 L1576.35 758.953 L1593.02 758.953 L1593.02 713.426 L1609.69 713.426 L1609.69 695.076 L1626.36 695.076 L1626.36 700.584 L1643.04 700.584 L1643.04 738.115 L1659.71 738.115 L1659.71 800.027 L1676.38 800.027 L1676.38 881.405 L1693.05 881.405 L1693.05 975.968 L1709.72 975.968 L1709.72 1076.63 L1726.39 1076.63 L1726.39 1182.59 L1743.07 1182.59 L1743.07 1091.44 L1759.74 1091.44 L1759.74 1007.1 L1776.41 1007.1 L1776.41 944.65 L1793.08 944.65 L1793.08 906.107 L1809.75 906.107 L1809.75 895.646 L1826.43 895.646 L1826.43 914.913 L1843.1 914.913 L1843.1 962.637 L1859.77 962.637 L1859.77 1034.78 L1876.44 1034.78 L1876.44 1125.19 L1893.11 1125.19 L1893.11 1230.61 L1909.78 1230.61 L1909.78 1341.17 L1926.46 1341.17 L1926.46 1241.03 L1943.13 1241.03 L1943.13 1146.44 L1959.8 1146.44 L1959.8 1063.72 L1976.47 1063.72 L1976.47 998.714 L1993.14 998.714 L1993.14 956.097 L2009.82 956.097 L2009.82 938.92 L2026.49 938.92 L2026.49 952.629 L2043.16 952.629 L2043.16 987.689 L2059.83 987.689 L2059.83 1045.53 L2076.5 1045.53 L2076.5 1121.56 L2093.18 1121.56 L2093.18 1209.92 L2109.85 1209.92 L2109.85 1303.98 L2126.52 1303.98 L2126.52 1403.09 L2143.19 1403.09 L2143.19 1317.89 L2159.86 1317.89 L2159.86 1246.8 L2176.53 1246.8 L2176.53 1188.58 L2193.21 1188.58 L2193.21 1152.65 L2209.88 1152.65 L2209.88 1142.9 L2226.55 1142.9 L2226.55 1160.86 L2243.22 1160.86 L2243.22 1205.33 L2259.89 1205.33 L2259.89 1272.58 L2276.57 1272.58 L2276.57 1356.87 L2293.24 1356.87 L2293.24 1447.38 L2293.24 145.256 L2293.24 145.256 L2276.57 145.256 L2276.57 145.256 L2259.89 145.256 L2259.89 145.256 L2243.22 145.256 L2243.22 145.256 L2226.55 145.256 L2226.55 145.256 L2209.88 145.256 L2209.88 145.256 L2193.21 145.256 L2193.21 145.256 L2176.53 145.256 L2176.53 145.256 L2159.86 145.256 L2159.86 145.256 L2143.19 145.256 L2143.19 145.256 L2126.52 145.256 L2126.52 145.256 L2109.85 145.256 L2109.85 145.256 L2093.18 145.256 L2093.18 145.256 L2076.5 145.256 L2076.5 145.256 L2059.83 145.256 L2059.83 145.256 L2043.16 145.256 L2043.16 145.256 L2026.49 145.256 L2026.49 145.256 L2009.82 145.256 L2009.82 145.256 L1993.14 145.256 L1993.14 145.256 L1976.47 145.256 L1976.47 145.256 L1959.8 145.256 L1959.8 145.256 L1943.13 145.256 L1943.13 145.256 L1926.46 145.256 L1926.46 145.256 L1909.78 145.256 L1909.78 145.256 L1893.11 145.256 L1893.11 145.256 L1876.44 145.256 L1876.44 145.256 L1859.77 145.256 L1859.77 145.256 L1843.1 145.256 L1843.1 145.256 L1826.43 145.256 L1826.43 145.256 L1809.75 145.256 L1809.75 145.256 L1793.08 145.256 L1793.08 145.256 L1776.41 145.256 L1776.41 145.256 L1759.74 145.256 L1759.74 145.256 L1743.07 145.256 L1743.07 145.256 L1726.39 145.256 L1726.39 145.256 L1709.72 145.256 L1709.72 145.256 L1693.05 145.256 L1693.05 145.256 L1676.38 145.256 L1676.38 145.256 L1659.71 145.256 L1659.71 145.256 L1643.04 145.256 L1643.04 145.256 L1626.36 145.256 L1626.36 145.256 L1609.69 145.256 L1609.69 145.256 L1593.02 145.256 L1593.02 145.256 L1576.35 145.256 L1576.35 145.256 L1559.68 145.256 L1559.68 145.256 L1543 145.256 L1543 145.256 L1526.33 145.256 L1526.33 145.256 L1509.66 145.256 L1509.66 145.256 L1492.99 145.256 L1492.99 145.256 L1476.32 145.256 L1476.32 145.256 L1459.65 145.256 L1459.65 145.256 L1442.97 145.256 L1442.97 145.256 L1426.3 145.256 L1426.3 145.256 L1409.63 145.256 L1409.63 145.256 L1392.96 145.256 L1392.96 145.256 L1376.29 145.256 L1376.29 145.256 L1359.61 145.256 L1359.61 145.256 L1342.94 145.256 L1342.94 145.256 L1326.27 145.256 L1326.27 145.256 L1309.6 145.256 L1309.6 145.256 L1292.93 145.256 L1292.93 145.256 L1276.25 145.256 L1276.25 145.256 L1259.58 145.256 L1259.58 145.256 L1242.91 145.256 L1242.91 145.256 L1226.24 145.256 L1226.24 145.256 L1209.57 145.256 L1209.57 145.256 L1192.9 145.256 L1192.9 145.256 L1176.22 145.256 L1176.22 145.256 L1159.55 145.256 L1159.55 145.256 L1142.88 145.256 L1142.88 145.256 L1126.21 145.256 L1126.21 145.256 L1109.54 145.256 L1109.54 145.256 L1092.86 145.256 L1092.86 145.256 L1076.19 145.256 L1076.19 145.256 L1059.52 145.256 L1059.52 145.256 L1042.85 145.256 L1042.85 145.256 L1026.18 145.256 L1026.18 145.256 L1009.51 145.256 L1009.51 145.256 L992.833 145.256 L992.833 145.256 L976.161 145.256 L976.161 145.256 L959.49 145.256 L959.49 145.256 L942.818 145.256 L942.818 145.256 L926.146 145.256 L926.146 145.256 L909.474 145.256 L909.474 145.256 L892.802 145.256 L892.802 145.256 L876.13 145.256 L876.13 145.256 L859.459 145.256 L859.459 145.256 L842.787 145.256 L842.787 145.256 L826.115 145.256 L826.115 145.256 L809.443 145.256 L809.443 145.256 L792.771 145.256 L792.771 145.256 L776.099 145.256 L776.099 145.256 L759.427 145.256 L759.427 145.256 L742.756 145.256 L742.756 145.256 L726.084 145.256 L726.084 145.256 L709.412 145.256 L709.412 145.256 L692.74 145.256 L692.74 145.256 L676.068 145.256 L676.068 145.256 L659.396 145.256 L659.396 145.256 L642.724 145.256 L642.724 145.256 L626.053 145.256 L626.053 145.256 L609.381 145.256 L609.381 145.256 L592.709 145.256 L592.709 145.256 L576.037 145.256 L576.037 145.256 L559.365 145.256 L559.365 145.256 L542.693 145.256 L542.693 145.256 L526.022 145.256 L526.022 145.256 L509.35 145.256 L509.35 145.256 L492.678 145.256 L492.678 145.256 L476.006 145.256 L476.006 145.256 L459.334 145.256 L459.334 145.256 L442.662 145.256 L442.662 145.256 L425.99 145.256 L425.99 145.256 L409.319 145.256 L409.319 145.256 L392.647 145.256 L392.647 145.256 L375.975 145.256 L375.975 145.256 L359.303 145.256 L359.303 145.256 L342.631 145.256 L342.631 145.256 L325.959 145.256 L325.959 145.256 L309.288 145.256  Z" fill="#bb0000" fill-rule="evenodd" fill-opacity="0.2"/>
<polyline clip-path="url(#clip921)" style="stroke:#bb0000; stroke-linecap:round; stroke-linejoin:round; stroke-width:4; stroke-opacity:1; fill:none" points="309.288,145.256 325.959,145.256 342.631,145.256 359.303,145.256 375.975,145.256 392.647,145.256 409.319,145.256 425.99,145.256 442.662,145.256 459.334,145.256 476.006,145.256 492.678,145.256 509.35,145.256 526.022,145.256 542.693,145.256 559.365,145.256 576.037,145.256 592.709,145.256 609.381,145.256 626.053,145.256 642.724,145.256 659.396,145.256 676.068,145.256 692.74,145.256 692.74,149.332 709.412,149.332 709.412,294.58 726.084,294.58 726.084,163.045 742.756,163.045 742.756,145.256 759.427,145.256 776.099,145.256 792.771,145.256 809.443,145.256 826.115,145.256 826.115,151.684 842.787,151.684 842.787,194.703 859.459,194.703 859.459,265.659 876.13,265.659 876.13,358.912 892.802,358.912 892.802,467.25 909.474,467.25 909.474,582.545 926.146,582.545 926.146,703.699 942.818,703.699 942.818,599.359 959.49,599.359 959.49,502.853 976.161,502.853 976.161,431.255 992.833,431.255 992.833,387.045 1009.51,387.045 1009.51,375.042 1026.18,375.042 1026.18,397.151 1042.85,397.151 1042.85,451.906 1059.52,451.906 1059.52,534.647 1076.19,534.647 1076.19,638.261 1092.86,638.261 1092.86,758.886 1109.54,758.886 1109.54,885.215 1126.21,885.215 1126.21,770.746 1142.88,770.746 1142.88,662.58 1159.55,662.58 1159.55,567.97 1176.22,567.97 1176.22,493.606 1192.9,493.606 1192.9,444.843 1209.57,444.843 1209.57,425.187 1226.24,425.187 1226.24,440.767 1242.91,440.767 1242.91,480.889 1259.58,480.889 1259.58,547.071 1276.25,547.071 1276.25,634.056 1292.93,634.056 1292.93,735.123 1309.6,735.123 1309.6,842.694 1326.27,842.694 1326.27,955.831 1342.94,955.831 1342.94,858.452 1359.61,858.452 1359.61,777.039 1376.29,777.039 1376.29,710.398 1392.96,710.398 1392.96,669.26 1409.63,669.26 1409.63,658.092 1426.3,658.092 1426.3,678.661 1442.97,678.661 1442.97,729.605 1459.65,729.605 1459.65,806.603 1476.32,806.603 1476.32,903.056 1492.99,903.056 1492.99,1006.65 1509.66,1006.65 1509.66,1124.67 1526.33,1124.67 1526.33,1017.75 1543,1017.75 1543,916.734 1559.68,916.734 1559.68,828.386 1576.35,828.386 1576.35,758.953 1593.02,758.953 1593.02,713.426 1609.69,713.426 1609.69,695.076 1626.36,695.076 1626.36,700.584 1643.04,700.584 1643.04,738.115 1659.71,738.115 1659.71,800.027 1676.38,800.027 1676.38,881.405 1693.05,881.405 1693.05,975.968 1709.72,975.968 1709.72,1076.63 1726.39,1076.63 1726.39,1182.59 1743.07,1182.59 1743.07,1091.44 1759.74,1091.44 1759.74,1007.1 1776.41,1007.1 1776.41,944.65 1793.08,944.65 1793.08,906.107 1809.75,906.107 1809.75,895.646 1826.43,895.646 1826.43,914.913 1843.1,914.913 1843.1,962.637 1859.77,962.637 1859.77,1034.78 1876.44,1034.78 1876.44,1125.19 1893.11,1125.19 1893.11,1230.61 1909.78,1230.61 1909.78,1341.17 1926.46,1341.17 1926.46,1241.03 1943.13,1241.03 1943.13,1146.44 1959.8,1146.44 1959.8,1063.72 1976.47,1063.72 1976.47,998.714 1993.14,998.714 1993.14,956.097 2009.82,956.097 2009.82,938.92 2026.49,938.92 2026.49,952.629 2043.16,952.629 2043.16,987.689 2059.83,987.689 2059.83,1045.53 2076.5,1045.53 2076.5,1121.56 2093.18,1121.56 2093.18,1209.92 2109.85,1209.92 2109.85,1303.98 2126.52,1303.98 2126.52,1403.09 2143.19,1403.09 2143.19,1317.89 2159.86,1317.89 2159.86,1246.8 2176.53,1246.8 2176.53,1188.58 2193.21,1188.58 2193.21,1152.65 2209.88,1152.65 2209.88,1142.9 2226.55,1142.9 2226.55,1160.86 2243.22,1160.86 2243.22,1205.33 2259.89,1205.33 2259.89,1272.58 2276.57,1272.58 2276.57,1356.87 2293.24,1356.87 2293.24,1447.38 "/>
</svg>
