<?xml version="1.0" encoding="utf-8"?>
<svg xmlns="http://www.w3.org/2000/svg" xmlns:xlink="http://www.w3.org/1999/xlink" width="600" height="400" viewBox="0 0 2400 1600">
<defs>
  <clipPath id="clip170">
    <rect x="0" y="0" width="2400" height="1600"/>
  </clipPath>
</defs>
<path clip-path="url(#clip170)" d="M0 1600 L2400 1600 L2400 0 L0 0  Z" fill="#282c34" fill-rule="evenodd" fill-opacity="1"/>
<defs>
  <clipPath id="clip171">
    <rect x="223" y="106" width="2130" height="1381"/>
  </clipPath>
</defs>
<path clip-path="url(#clip170)" d="M223.45 1486.45 L2352.76 1486.45 L2352.76 106.192 L223.45 106.192  Z" fill="#21252b" fill-rule="evenodd" fill-opacity="1"/>
<polyline clip-path="url(#clip171)" style="stroke:#adb2b7; stroke-linecap:round; stroke-linejoin:round; stroke-width:2; stroke-opacity:0.1; fill:none" points="393.783,1486.45 393.783,106.192 "/>
<polyline clip-path="url(#clip171)" style="stroke:#adb2b7; stroke-linecap:round; stroke-linejoin:round; stroke-width:2; stroke-opacity:0.1; fill:none" points="1054.2,1486.45 1054.2,106.192 "/>
<polyline clip-path="url(#clip171)" style="stroke:#adb2b7; stroke-linecap:round; stroke-linejoin:round; stroke-width:2; stroke-opacity:0.1; fill:none" points="1714.62,1486.45 1714.62,106.192 "/>
<polyline clip-path="url(#clip171)" style="stroke:#adb2b7; stroke-linecap:round; stroke-linejoin:round; stroke-width:2; stroke-opacity:0.1; fill:none" points="223.45,1366.55 2352.76,1366.55 "/>
<polyline clip-path="url(#clip171)" style="stroke:#adb2b7; stroke-linecap:round; stroke-linejoin:round; stroke-width:2; stroke-opacity:0.1; fill:none" points="223.45,1179.17 2352.76,1179.17 "/>
<polyline clip-path="url(#clip171)" style="stroke:#adb2b7; stroke-linecap:round; stroke-linejoin:round; stroke-width:2; stroke-opacity:0.1; fill:none" points="223.45,991.782 2352.76,991.782 "/>
<polyline clip-path="url(#clip171)" style="stroke:#adb2b7; stroke-linecap:round; stroke-linejoin:round; stroke-width:2; stroke-opacity:0.1; fill:none" points="223.45,804.398 2352.76,804.398 "/>
<polyline clip-path="url(#clip171)" style="stroke:#adb2b7; stroke-linecap:round; stroke-linejoin:round; stroke-width:2; stroke-opacity:0.1; fill:none" points="223.45,617.013 2352.76,617.013 "/>
<polyline clip-path="url(#clip171)" style="stroke:#adb2b7; stroke-linecap:round; stroke-linejoin:round; stroke-width:2; stroke-opacity:0.1; fill:none" points="223.45,429.629 2352.76,429.629 "/>
<polyline clip-path="url(#clip171)" style="stroke:#adb2b7; stroke-linecap:round; stroke-linejoin:round; stroke-width:2; stroke-opacity:0.1; fill:none" points="223.45,242.244 2352.76,242.244 "/>
<polyline clip-path="url(#clip170)" style="stroke:#adb2b7; stroke-linecap:round; stroke-linejoin:round; stroke-width:4; stroke-opacity:1; fill:none" points="223.45,1486.45 2352.76,1486.45 "/>
<polyline clip-path="url(#clip170)" style="stroke:#adb2b7; stroke-linecap:round; stroke-linejoin:round; stroke-width:4; stroke-opacity:1; fill:none" points="393.783,1486.45 393.783,1467.55 "/>
<polyline clip-path="url(#clip170)" style="stroke:#adb2b7; stroke-linecap:round; stroke-linejoin:round; stroke-width:4; stroke-opacity:1; fill:none" points="1054.2,1486.45 1054.2,1467.55 "/>
<polyline clip-path="url(#clip170)" style="stroke:#adb2b7; stroke-linecap:round; stroke-linejoin:round; stroke-width:4; stroke-opacity:1; fill:none" points="1714.62,1486.45 1714.62,1467.55 "/>
<path clip-path="url(#clip170)" d="M265.763 1544.91 L282.082 1544.91 L282.082 1548.85 L260.138 1548.85 L260.138 1544.91 Q262.8 1542.16 267.383 1537.53 Q271.99 1532.88 273.17 1531.53 Q275.416 1529.01 276.295 1527.27 Q277.198 1525.51 277.198 1523.82 Q277.198 1521.07 275.254 1519.33 Q273.332 1517.6 270.231 1517.6 Q268.032 1517.6 265.578 1518.36 Q263.147 1519.13 260.37 1520.68 L260.37 1515.95 Q263.194 1514.82 265.647 1514.24 Q268.101 1513.66 270.138 1513.66 Q275.508 1513.66 278.703 1516.35 Q281.897 1519.03 281.897 1523.52 Q281.897 1525.65 281.087 1527.57 Q280.3 1529.47 278.194 1532.07 Q277.615 1532.74 274.513 1535.95 Q271.411 1539.15 265.763 1544.91 Z" fill="#9eb1be" fill-rule="nonzero" fill-opacity="1" /><path clip-path="url(#clip170)" d="M301.897 1517.37 Q298.286 1517.37 296.457 1520.93 Q294.652 1524.47 294.652 1531.6 Q294.652 1538.71 296.457 1542.27 Q298.286 1545.82 301.897 1545.82 Q305.531 1545.82 307.337 1542.27 Q309.166 1538.71 309.166 1531.6 Q309.166 1524.47 307.337 1520.93 Q305.531 1517.37 301.897 1517.37 M301.897 1513.66 Q307.707 1513.66 310.763 1518.27 Q313.842 1522.85 313.842 1531.6 Q313.842 1540.33 310.763 1544.94 Q307.707 1549.52 301.897 1549.52 Q296.087 1549.52 293.008 1544.94 Q289.953 1540.33 289.953 1531.6 Q289.953 1522.85 293.008 1518.27 Q296.087 1513.66 301.897 1513.66 Z" fill="#9eb1be" fill-rule="nonzero" fill-opacity="1" /><path clip-path="url(#clip170)" d="M326.087 1544.91 L342.406 1544.91 L342.406 1548.85 L320.462 1548.85 L320.462 1544.91 Q323.124 1542.16 327.707 1537.53 Q332.314 1532.88 333.494 1531.53 Q335.74 1529.01 336.619 1527.27 Q337.522 1525.51 337.522 1523.82 Q337.522 1521.07 335.578 1519.33 Q333.656 1517.6 330.554 1517.6 Q328.355 1517.6 325.902 1518.36 Q323.471 1519.13 320.693 1520.68 L320.693 1515.95 Q323.517 1514.82 325.971 1514.24 Q328.425 1513.66 330.462 1513.66 Q335.832 1513.66 339.027 1516.35 Q342.221 1519.03 342.221 1523.52 Q342.221 1525.65 341.411 1527.57 Q340.624 1529.47 338.517 1532.07 Q337.939 1532.74 334.837 1535.95 Q331.735 1539.15 326.087 1544.91 Z" fill="#9eb1be" fill-rule="nonzero" fill-opacity="1" /><path clip-path="url(#clip170)" d="M362.221 1517.37 Q358.61 1517.37 356.781 1520.93 Q354.976 1524.47 354.976 1531.6 Q354.976 1538.71 356.781 1542.27 Q358.61 1545.82 362.221 1545.82 Q365.855 1545.82 367.661 1542.27 Q369.489 1538.71 369.489 1531.6 Q369.489 1524.47 367.661 1520.93 Q365.855 1517.37 362.221 1517.37 M362.221 1513.66 Q368.031 1513.66 371.087 1518.27 Q374.165 1522.85 374.165 1531.6 Q374.165 1540.33 371.087 1544.94 Q368.031 1549.52 362.221 1549.52 Q356.411 1549.52 353.332 1544.94 Q350.277 1540.33 350.277 1531.6 Q350.277 1522.85 353.332 1518.27 Q356.411 1513.66 362.221 1513.66 Z" fill="#9eb1be" fill-rule="nonzero" fill-opacity="1" /><path clip-path="url(#clip170)" d="M379.628 1533.96 L392.105 1533.96 L392.105 1537.76 L379.628 1537.76 L379.628 1533.96 Z" fill="#9eb1be" fill-rule="nonzero" fill-opacity="1" /><path clip-path="url(#clip170)" d="M409.489 1517.37 Q405.878 1517.37 404.049 1520.93 Q402.244 1524.47 402.244 1531.6 Q402.244 1538.71 404.049 1542.27 Q405.878 1545.82 409.489 1545.82 Q413.123 1545.82 414.929 1542.27 Q416.758 1538.71 416.758 1531.6 Q416.758 1524.47 414.929 1520.93 Q413.123 1517.37 409.489 1517.37 M409.489 1513.66 Q415.299 1513.66 418.355 1518.27 Q421.434 1522.85 421.434 1531.6 Q421.434 1540.33 418.355 1544.94 Q415.299 1549.52 409.489 1549.52 Q403.679 1549.52 400.6 1544.94 Q397.545 1540.33 397.545 1531.6 Q397.545 1522.85 400.6 1518.27 Q403.679 1513.66 409.489 1513.66 Z" fill="#9eb1be" fill-rule="nonzero" fill-opacity="1" /><path clip-path="url(#clip170)" d="M430.461 1544.91 L438.1 1544.91 L438.1 1518.55 L429.79 1520.21 L429.79 1515.95 L438.054 1514.29 L442.73 1514.29 L442.73 1544.91 L450.369 1544.91 L450.369 1548.85 L430.461 1548.85 L430.461 1544.91 Z" fill="#9eb1be" fill-rule="nonzero" fill-opacity="1" /><path clip-path="url(#clip170)" d="M457.058 1533.96 L469.535 1533.96 L469.535 1537.76 L457.058 1537.76 L457.058 1533.96 Z" fill="#9eb1be" fill-rule="nonzero" fill-opacity="1" /><path clip-path="url(#clip170)" d="M486.919 1517.37 Q483.308 1517.37 481.48 1520.93 Q479.674 1524.47 479.674 1531.6 Q479.674 1538.71 481.48 1542.27 Q483.308 1545.82 486.919 1545.82 Q490.554 1545.82 492.359 1542.27 Q494.188 1538.71 494.188 1531.6 Q494.188 1524.47 492.359 1520.93 Q490.554 1517.37 486.919 1517.37 M486.919 1513.66 Q492.729 1513.66 495.785 1518.27 Q498.864 1522.85 498.864 1531.6 Q498.864 1540.33 495.785 1544.94 Q492.729 1549.52 486.919 1549.52 Q481.109 1549.52 478.03 1544.94 Q474.975 1540.33 474.975 1531.6 Q474.975 1522.85 478.03 1518.27 Q481.109 1513.66 486.919 1513.66 Z" fill="#9eb1be" fill-rule="nonzero" fill-opacity="1" /><path clip-path="url(#clip170)" d="M511.109 1544.91 L527.428 1544.91 L527.428 1548.85 L505.484 1548.85 L505.484 1544.91 Q508.146 1542.16 512.729 1537.53 Q517.336 1532.88 518.516 1531.53 Q520.762 1529.01 521.641 1527.27 Q522.544 1525.51 522.544 1523.82 Q522.544 1521.07 520.6 1519.33 Q518.678 1517.6 515.577 1517.6 Q513.377 1517.6 510.924 1518.36 Q508.493 1519.13 505.715 1520.68 L505.715 1515.95 Q508.54 1514.82 510.993 1514.24 Q513.447 1513.66 515.484 1513.66 Q520.854 1513.66 524.049 1516.35 Q527.243 1519.03 527.243 1523.52 Q527.243 1525.65 526.433 1527.57 Q525.646 1529.47 523.539 1532.07 Q522.961 1532.74 519.859 1535.95 Q516.757 1539.15 511.109 1544.91 Z" fill="#9eb1be" fill-rule="nonzero" fill-opacity="1" /><path clip-path="url(#clip170)" d="M925.142 1544.91 L941.461 1544.91 L941.461 1548.85 L919.517 1548.85 L919.517 1544.91 Q922.179 1542.16 926.762 1537.53 Q931.369 1532.88 932.549 1531.53 Q934.795 1529.01 935.674 1527.27 Q936.577 1525.51 936.577 1523.82 Q936.577 1521.07 934.633 1519.33 Q932.711 1517.6 929.61 1517.6 Q927.411 1517.6 924.957 1518.36 Q922.526 1519.13 919.749 1520.68 L919.749 1515.95 Q922.573 1514.82 925.026 1514.24 Q927.48 1513.66 929.517 1513.66 Q934.887 1513.66 938.082 1516.35 Q941.276 1519.03 941.276 1523.52 Q941.276 1525.65 940.466 1527.57 Q939.679 1529.47 937.573 1532.07 Q936.994 1532.74 933.892 1535.95 Q930.79 1539.15 925.142 1544.91 Z" fill="#9eb1be" fill-rule="nonzero" fill-opacity="1" /><path clip-path="url(#clip170)" d="M961.276 1517.37 Q957.665 1517.37 955.836 1520.93 Q954.031 1524.47 954.031 1531.6 Q954.031 1538.71 955.836 1542.27 Q957.665 1545.82 961.276 1545.82 Q964.91 1545.82 966.716 1542.27 Q968.545 1538.71 968.545 1531.6 Q968.545 1524.47 966.716 1520.93 Q964.91 1517.37 961.276 1517.37 M961.276 1513.66 Q967.086 1513.66 970.142 1518.27 Q973.22 1522.85 973.22 1531.6 Q973.22 1540.33 970.142 1544.94 Q967.086 1549.52 961.276 1549.52 Q955.466 1549.52 952.387 1544.94 Q949.332 1540.33 949.332 1531.6 Q949.332 1522.85 952.387 1518.27 Q955.466 1513.66 961.276 1513.66 Z" fill="#9eb1be" fill-rule="nonzero" fill-opacity="1" /><path clip-path="url(#clip170)" d="M985.466 1544.91 L1001.79 1544.91 L1001.79 1548.85 L979.841 1548.85 L979.841 1544.91 Q982.503 1542.16 987.086 1537.53 Q991.693 1532.88 992.873 1531.53 Q995.119 1529.01 995.998 1527.27 Q996.901 1525.51 996.901 1523.82 Q996.901 1521.07 994.956 1519.33 Q993.035 1517.6 989.933 1517.6 Q987.734 1517.6 985.281 1518.36 Q982.85 1519.13 980.072 1520.68 L980.072 1515.95 Q982.896 1514.82 985.35 1514.24 Q987.804 1513.66 989.841 1513.66 Q995.211 1513.66 998.406 1516.35 Q1001.6 1519.03 1001.6 1523.52 Q1001.6 1525.65 1000.79 1527.57 Q1000 1529.47 997.896 1532.07 Q997.318 1532.74 994.216 1535.95 Q991.114 1539.15 985.466 1544.91 Z" fill="#9eb1be" fill-rule="nonzero" fill-opacity="1" /><path clip-path="url(#clip170)" d="M1021.6 1517.37 Q1017.99 1517.37 1016.16 1520.93 Q1014.35 1524.47 1014.35 1531.6 Q1014.35 1538.71 1016.16 1542.27 Q1017.99 1545.82 1021.6 1545.82 Q1025.23 1545.82 1027.04 1542.27 Q1028.87 1538.71 1028.87 1531.6 Q1028.87 1524.47 1027.04 1520.93 Q1025.23 1517.37 1021.6 1517.37 M1021.6 1513.66 Q1027.41 1513.66 1030.47 1518.27 Q1033.54 1522.85 1033.54 1531.6 Q1033.54 1540.33 1030.47 1544.94 Q1027.41 1549.52 1021.6 1549.52 Q1015.79 1549.52 1012.71 1544.94 Q1009.66 1540.33 1009.66 1531.6 Q1009.66 1522.85 1012.71 1518.27 Q1015.79 1513.66 1021.6 1513.66 Z" fill="#9eb1be" fill-rule="nonzero" fill-opacity="1" /><path clip-path="url(#clip170)" d="M1039.01 1533.96 L1051.48 1533.96 L1051.48 1537.76 L1039.01 1537.76 L1039.01 1533.96 Z" fill="#9eb1be" fill-rule="nonzero" fill-opacity="1" /><path clip-path="url(#clip170)" d="M1068.87 1517.37 Q1065.26 1517.37 1063.43 1520.93 Q1061.62 1524.47 1061.62 1531.6 Q1061.62 1538.71 1063.43 1542.27 Q1065.26 1545.82 1068.87 1545.82 Q1072.5 1545.82 1074.31 1542.27 Q1076.14 1538.71 1076.14 1531.6 Q1076.14 1524.47 1074.31 1520.93 Q1072.5 1517.37 1068.87 1517.37 M1068.87 1513.66 Q1074.68 1513.66 1077.73 1518.27 Q1080.81 1522.85 1080.81 1531.6 Q1080.81 1540.33 1077.73 1544.94 Q1074.68 1549.52 1068.87 1549.52 Q1063.06 1549.52 1059.98 1544.94 Q1056.92 1540.33 1056.92 1531.6 Q1056.92 1522.85 1059.98 1518.27 Q1063.06 1513.66 1068.87 1513.66 Z" fill="#9eb1be" fill-rule="nonzero" fill-opacity="1" /><path clip-path="url(#clip170)" d="M1089.84 1544.91 L1097.48 1544.91 L1097.48 1518.55 L1089.17 1520.21 L1089.17 1515.95 L1097.43 1514.29 L1102.11 1514.29 L1102.11 1544.91 L1109.75 1544.91 L1109.75 1548.85 L1089.84 1548.85 L1089.84 1544.91 Z" fill="#9eb1be" fill-rule="nonzero" fill-opacity="1" /><path clip-path="url(#clip170)" d="M1116.44 1533.96 L1128.91 1533.96 L1128.91 1537.76 L1116.44 1537.76 L1116.44 1533.96 Z" fill="#9eb1be" fill-rule="nonzero" fill-opacity="1" /><path clip-path="url(#clip170)" d="M1146.3 1517.37 Q1142.69 1517.37 1140.86 1520.93 Q1139.05 1524.47 1139.05 1531.6 Q1139.05 1538.71 1140.86 1542.27 Q1142.69 1545.82 1146.3 1545.82 Q1149.93 1545.82 1151.74 1542.27 Q1153.57 1538.71 1153.57 1531.6 Q1153.57 1524.47 1151.74 1520.93 Q1149.93 1517.37 1146.3 1517.37 M1146.3 1513.66 Q1152.11 1513.66 1155.16 1518.27 Q1158.24 1522.85 1158.24 1531.6 Q1158.24 1540.33 1155.16 1544.94 Q1152.11 1549.52 1146.3 1549.52 Q1140.49 1549.52 1137.41 1544.94 Q1134.35 1540.33 1134.35 1531.6 Q1134.35 1522.85 1137.41 1518.27 Q1140.49 1513.66 1146.3 1513.66 Z" fill="#9eb1be" fill-rule="nonzero" fill-opacity="1" /><path clip-path="url(#clip170)" d="M1179.31 1518.36 L1167.5 1536.81 L1179.31 1536.81 L1179.31 1518.36 M1178.08 1514.29 L1183.96 1514.29 L1183.96 1536.81 L1188.89 1536.81 L1188.89 1540.7 L1183.96 1540.7 L1183.96 1548.85 L1179.31 1548.85 L1179.31 1540.7 L1163.71 1540.7 L1163.71 1536.19 L1178.08 1514.29 Z" fill="#9eb1be" fill-rule="nonzero" fill-opacity="1" /><path clip-path="url(#clip170)" d="M1585.72 1544.91 L1602.04 1544.91 L1602.04 1548.85 L1580.1 1548.85 L1580.1 1544.91 Q1582.76 1542.16 1587.35 1537.53 Q1591.95 1532.88 1593.13 1531.53 Q1595.38 1529.01 1596.26 1527.27 Q1597.16 1525.51 1597.16 1523.82 Q1597.16 1521.07 1595.22 1519.33 Q1593.29 1517.6 1590.19 1517.6 Q1587.99 1517.6 1585.54 1518.36 Q1583.11 1519.13 1580.33 1520.68 L1580.33 1515.95 Q1583.16 1514.82 1585.61 1514.24 Q1588.06 1513.66 1590.1 1513.66 Q1595.47 1513.66 1598.66 1516.35 Q1601.86 1519.03 1601.86 1523.52 Q1601.86 1525.65 1601.05 1527.57 Q1600.26 1529.47 1598.16 1532.07 Q1597.58 1532.74 1594.47 1535.95 Q1591.37 1539.15 1585.72 1544.91 Z" fill="#9eb1be" fill-rule="nonzero" fill-opacity="1" /><path clip-path="url(#clip170)" d="M1621.86 1517.37 Q1618.25 1517.37 1616.42 1520.93 Q1614.61 1524.47 1614.61 1531.6 Q1614.61 1538.71 1616.42 1542.27 Q1618.25 1545.82 1621.86 1545.82 Q1625.49 1545.82 1627.3 1542.27 Q1629.13 1538.71 1629.13 1531.6 Q1629.13 1524.47 1627.3 1520.93 Q1625.49 1517.37 1621.86 1517.37 M1621.86 1513.66 Q1627.67 1513.66 1630.72 1518.27 Q1633.8 1522.85 1633.8 1531.6 Q1633.8 1540.33 1630.72 1544.94 Q1627.67 1549.52 1621.86 1549.52 Q1616.05 1549.52 1612.97 1544.94 Q1609.91 1540.33 1609.91 1531.6 Q1609.91 1522.85 1612.97 1518.27 Q1616.05 1513.66 1621.86 1513.66 Z" fill="#9eb1be" fill-rule="nonzero" fill-opacity="1" /><path clip-path="url(#clip170)" d="M1646.05 1544.91 L1662.37 1544.91 L1662.37 1548.85 L1640.42 1548.85 L1640.42 1544.91 Q1643.09 1542.16 1647.67 1537.53 Q1652.28 1532.88 1653.46 1531.53 Q1655.7 1529.01 1656.58 1527.27 Q1657.48 1525.51 1657.48 1523.82 Q1657.48 1521.07 1655.54 1519.33 Q1653.62 1517.6 1650.52 1517.6 Q1648.32 1517.6 1645.86 1518.36 Q1643.43 1519.13 1640.65 1520.68 L1640.65 1515.95 Q1643.48 1514.82 1645.93 1514.24 Q1648.39 1513.66 1650.42 1513.66 Q1655.79 1513.66 1658.99 1516.35 Q1662.18 1519.03 1662.18 1523.52 Q1662.18 1525.65 1661.37 1527.57 Q1660.59 1529.47 1658.48 1532.07 Q1657.9 1532.74 1654.8 1535.95 Q1651.7 1539.15 1646.05 1544.91 Z" fill="#9eb1be" fill-rule="nonzero" fill-opacity="1" /><path clip-path="url(#clip170)" d="M1682.18 1517.37 Q1678.57 1517.37 1676.74 1520.93 Q1674.94 1524.47 1674.94 1531.6 Q1674.94 1538.71 1676.74 1542.27 Q1678.57 1545.82 1682.18 1545.82 Q1685.82 1545.82 1687.62 1542.27 Q1689.45 1538.71 1689.45 1531.6 Q1689.45 1524.47 1687.62 1520.93 Q1685.82 1517.37 1682.18 1517.37 M1682.18 1513.66 Q1687.99 1513.66 1691.05 1518.27 Q1694.13 1522.85 1694.13 1531.6 Q1694.13 1540.33 1691.05 1544.94 Q1687.99 1549.52 1682.18 1549.52 Q1676.37 1549.52 1673.29 1544.94 Q1670.24 1540.33 1670.24 1531.6 Q1670.24 1522.85 1673.29 1518.27 Q1676.37 1513.66 1682.18 1513.66 Z" fill="#9eb1be" fill-rule="nonzero" fill-opacity="1" /><path clip-path="url(#clip170)" d="M1699.59 1533.96 L1712.07 1533.96 L1712.07 1537.76 L1699.59 1537.76 L1699.59 1533.96 Z" fill="#9eb1be" fill-rule="nonzero" fill-opacity="1" /><path clip-path="url(#clip170)" d="M1729.45 1517.37 Q1725.84 1517.37 1724.01 1520.93 Q1722.21 1524.47 1722.21 1531.6 Q1722.21 1538.71 1724.01 1542.27 Q1725.84 1545.82 1729.45 1545.82 Q1733.09 1545.82 1734.89 1542.27 Q1736.72 1538.71 1736.72 1531.6 Q1736.72 1524.47 1734.89 1520.93 Q1733.09 1517.37 1729.45 1517.37 M1729.45 1513.66 Q1735.26 1513.66 1738.32 1518.27 Q1741.4 1522.85 1741.4 1531.6 Q1741.4 1540.33 1738.32 1544.94 Q1735.26 1549.52 1729.45 1549.52 Q1723.64 1549.52 1720.56 1544.94 Q1717.51 1540.33 1717.51 1531.6 Q1717.51 1522.85 1720.56 1518.27 Q1723.64 1513.66 1729.45 1513.66 Z" fill="#9eb1be" fill-rule="nonzero" fill-opacity="1" /><path clip-path="url(#clip170)" d="M1750.42 1544.91 L1758.06 1544.91 L1758.06 1518.55 L1749.75 1520.21 L1749.75 1515.95 L1758.02 1514.29 L1762.69 1514.29 L1762.69 1544.91 L1770.33 1544.91 L1770.33 1548.85 L1750.42 1548.85 L1750.42 1544.91 Z" fill="#9eb1be" fill-rule="nonzero" fill-opacity="1" /><path clip-path="url(#clip170)" d="M1777.02 1533.96 L1789.5 1533.96 L1789.5 1537.76 L1777.02 1537.76 L1777.02 1533.96 Z" fill="#9eb1be" fill-rule="nonzero" fill-opacity="1" /><path clip-path="url(#clip170)" d="M1806.88 1517.37 Q1803.27 1517.37 1801.44 1520.93 Q1799.64 1524.47 1799.64 1531.6 Q1799.64 1538.71 1801.44 1542.27 Q1803.27 1545.82 1806.88 1545.82 Q1810.52 1545.82 1812.32 1542.27 Q1814.15 1538.71 1814.15 1531.6 Q1814.15 1524.47 1812.32 1520.93 Q1810.52 1517.37 1806.88 1517.37 M1806.88 1513.66 Q1812.69 1513.66 1815.75 1518.27 Q1818.83 1522.85 1818.83 1531.6 Q1818.83 1540.33 1815.75 1544.94 Q1812.69 1549.52 1806.88 1549.52 Q1801.07 1549.52 1797.99 1544.94 Q1794.94 1540.33 1794.94 1531.6 Q1794.94 1522.85 1797.99 1518.27 Q1801.07 1513.66 1806.88 1513.66 Z" fill="#9eb1be" fill-rule="nonzero" fill-opacity="1" /><path clip-path="url(#clip170)" d="M1837.62 1529.7 Q1834.47 1529.7 1832.62 1531.86 Q1830.79 1534.01 1830.79 1537.76 Q1830.79 1541.49 1832.62 1543.66 Q1834.47 1545.82 1837.62 1545.82 Q1840.77 1545.82 1842.6 1543.66 Q1844.45 1541.49 1844.45 1537.76 Q1844.45 1534.01 1842.6 1531.86 Q1840.77 1529.7 1837.62 1529.7 M1846.9 1515.05 L1846.9 1519.31 Q1845.14 1518.48 1843.34 1518.04 Q1841.56 1517.6 1839.8 1517.6 Q1835.17 1517.6 1832.71 1520.72 Q1830.28 1523.85 1829.94 1530.17 Q1831.3 1528.15 1833.36 1527.09 Q1835.42 1526 1837.9 1526 Q1843.11 1526 1846.12 1529.17 Q1849.15 1532.32 1849.15 1537.76 Q1849.15 1543.08 1846 1546.3 Q1842.85 1549.52 1837.62 1549.52 Q1831.63 1549.52 1828.45 1544.94 Q1825.28 1540.33 1825.28 1531.6 Q1825.28 1523.41 1829.17 1518.55 Q1833.06 1513.66 1839.61 1513.66 Q1841.37 1513.66 1843.15 1514.01 Q1844.96 1514.36 1846.9 1515.05 Z" fill="#9eb1be" fill-rule="nonzero" fill-opacity="1" /><polyline clip-path="url(#clip170)" style="stroke:#adb2b7; stroke-linecap:round; stroke-linejoin:round; stroke-width:4; stroke-opacity:1; fill:none" points="223.45,1486.45 223.45,106.192 "/>
<polyline clip-path="url(#clip170)" style="stroke:#adb2b7; stroke-linecap:round; stroke-linejoin:round; stroke-width:4; stroke-opacity:1; fill:none" points="223.45,1366.55 242.347,1366.55 "/>
<polyline clip-path="url(#clip170)" style="stroke:#adb2b7; stroke-linecap:round; stroke-linejoin:round; stroke-width:4; stroke-opacity:1; fill:none" points="223.45,1179.17 242.347,1179.17 "/>
<polyline clip-path="url(#clip170)" style="stroke:#adb2b7; stroke-linecap:round; stroke-linejoin:round; stroke-width:4; stroke-opacity:1; fill:none" points="223.45,991.782 242.347,991.782 "/>
<polyline clip-path="url(#clip170)" style="stroke:#adb2b7; stroke-linecap:round; stroke-linejoin:round; stroke-width:4; stroke-opacity:1; fill:none" points="223.45,804.398 242.347,804.398 "/>
<polyline clip-path="url(#clip170)" style="stroke:#adb2b7; stroke-linecap:round; stroke-linejoin:round; stroke-width:4; stroke-opacity:1; fill:none" points="223.45,617.013 242.347,617.013 "/>
<polyline clip-path="url(#clip170)" style="stroke:#adb2b7; stroke-linecap:round; stroke-linejoin:round; stroke-width:4; stroke-opacity:1; fill:none" points="223.45,429.629 242.347,429.629 "/>
<polyline clip-path="url(#clip170)" style="stroke:#adb2b7; stroke-linecap:round; stroke-linejoin:round; stroke-width:4; stroke-opacity:1; fill:none" points="223.45,242.244 242.347,242.244 "/>
<path clip-path="url(#clip170)" d="M50.9921 1367 L80.6679 1367 L80.6679 1370.94 L50.9921 1370.94 L50.9921 1367 Z" fill="#9eb1be" fill-rule="nonzero" fill-opacity="1" /><path clip-path="url(#clip170)" d="M100.76 1352.35 Q97.1493 1352.35 95.3206 1355.91 Q93.515 1359.46 93.515 1366.59 Q93.515 1373.69 95.3206 1377.26 Q97.1493 1380.8 100.76 1380.8 Q104.395 1380.8 106.2 1377.26 Q108.029 1373.69 108.029 1366.59 Q108.029 1359.46 106.2 1355.91 Q104.395 1352.35 100.76 1352.35 M100.76 1348.65 Q106.571 1348.65 109.626 1353.25 Q112.705 1357.84 112.705 1366.59 Q112.705 1375.31 109.626 1379.92 Q106.571 1384.5 100.76 1384.5 Q94.9502 1384.5 91.8715 1379.92 Q88.816 1375.31 88.816 1366.59 Q88.816 1357.84 91.8715 1353.25 Q94.9502 1348.65 100.76 1348.65 Z" fill="#9eb1be" fill-rule="nonzero" fill-opacity="1" /><path clip-path="url(#clip170)" d="M120.922 1377.95 L125.807 1377.95 L125.807 1383.83 L120.922 1383.83 L120.922 1377.95 Z" fill="#9eb1be" fill-rule="nonzero" fill-opacity="1" /><path clip-path="url(#clip170)" d="M145.992 1352.35 Q142.381 1352.35 140.552 1355.91 Q138.746 1359.46 138.746 1366.59 Q138.746 1373.69 140.552 1377.26 Q142.381 1380.8 145.992 1380.8 Q149.626 1380.8 151.431 1377.26 Q153.26 1373.69 153.26 1366.59 Q153.26 1359.46 151.431 1355.91 Q149.626 1352.35 145.992 1352.35 M145.992 1348.65 Q151.802 1348.65 154.857 1353.25 Q157.936 1357.84 157.936 1366.59 Q157.936 1375.31 154.857 1379.92 Q151.802 1384.5 145.992 1384.5 Q140.181 1384.5 137.103 1379.92 Q134.047 1375.31 134.047 1366.59 Q134.047 1357.84 137.103 1353.25 Q140.181 1348.65 145.992 1348.65 Z" fill="#9eb1be" fill-rule="nonzero" fill-opacity="1" /><path clip-path="url(#clip170)" d="M180.32 1365.2 Q183.677 1365.91 185.552 1368.18 Q187.45 1370.45 187.45 1373.79 Q187.45 1378.9 183.931 1381.7 Q180.413 1384.5 173.931 1384.5 Q171.755 1384.5 169.441 1384.06 Q167.149 1383.65 164.695 1382.79 L164.695 1378.28 Q166.64 1379.41 168.954 1379.99 Q171.269 1380.57 173.792 1380.57 Q178.191 1380.57 180.482 1378.83 Q182.797 1377.1 182.797 1373.79 Q182.797 1370.73 180.644 1369.02 Q178.515 1367.28 174.695 1367.28 L170.667 1367.28 L170.667 1363.44 L174.88 1363.44 Q178.329 1363.44 180.158 1362.07 Q181.987 1360.68 181.987 1358.09 Q181.987 1355.43 180.089 1354.02 Q178.214 1352.58 174.695 1352.58 Q172.774 1352.58 170.575 1353 Q168.376 1353.41 165.737 1354.29 L165.737 1350.13 Q168.399 1349.39 170.714 1349.02 Q173.052 1348.65 175.112 1348.65 Q180.436 1348.65 183.538 1351.08 Q186.64 1353.48 186.64 1357.6 Q186.64 1360.48 184.996 1362.47 Q183.353 1364.43 180.32 1365.2 Z" fill="#9eb1be" fill-rule="nonzero" fill-opacity="1" /><path clip-path="url(#clip170)" d="M51.9412 1179.62 L81.617 1179.62 L81.617 1183.55 L51.9412 1183.55 L51.9412 1179.62 Z" fill="#9eb1be" fill-rule="nonzero" fill-opacity="1" /><path clip-path="url(#clip170)" d="M101.709 1164.97 Q98.0984 1164.97 96.2697 1168.53 Q94.4641 1172.07 94.4641 1179.2 Q94.4641 1186.31 96.2697 1189.87 Q98.0984 1193.41 101.709 1193.41 Q105.344 1193.41 107.149 1189.87 Q108.978 1186.31 108.978 1179.2 Q108.978 1172.07 107.149 1168.53 Q105.344 1164.97 101.709 1164.97 M101.709 1161.26 Q107.52 1161.26 110.575 1165.87 Q113.654 1170.45 113.654 1179.2 Q113.654 1187.93 110.575 1192.53 Q107.52 1197.12 101.709 1197.12 Q95.8993 1197.12 92.8206 1192.53 Q89.7651 1187.93 89.7651 1179.2 Q89.7651 1170.45 92.8206 1165.87 Q95.8993 1161.26 101.709 1161.26 Z" fill="#9eb1be" fill-rule="nonzero" fill-opacity="1" /><path clip-path="url(#clip170)" d="M121.871 1190.57 L126.756 1190.57 L126.756 1196.45 L121.871 1196.45 L121.871 1190.57 Z" fill="#9eb1be" fill-rule="nonzero" fill-opacity="1" /><path clip-path="url(#clip170)" d="M146.941 1164.97 Q143.33 1164.97 141.501 1168.53 Q139.695 1172.07 139.695 1179.2 Q139.695 1186.31 141.501 1189.87 Q143.33 1193.41 146.941 1193.41 Q150.575 1193.41 152.38 1189.87 Q154.209 1186.31 154.209 1179.2 Q154.209 1172.07 152.38 1168.53 Q150.575 1164.97 146.941 1164.97 M146.941 1161.26 Q152.751 1161.26 155.806 1165.87 Q158.885 1170.45 158.885 1179.2 Q158.885 1187.93 155.806 1192.53 Q152.751 1197.12 146.941 1197.12 Q141.131 1197.12 138.052 1192.53 Q134.996 1187.93 134.996 1179.2 Q134.996 1170.45 138.052 1165.87 Q141.131 1161.26 146.941 1161.26 Z" fill="#9eb1be" fill-rule="nonzero" fill-opacity="1" /><path clip-path="url(#clip170)" d="M171.13 1192.51 L187.45 1192.51 L187.45 1196.45 L165.505 1196.45 L165.505 1192.51 Q168.167 1189.76 172.751 1185.13 Q177.357 1180.47 178.538 1179.13 Q180.783 1176.61 181.663 1174.87 Q182.565 1173.11 182.565 1171.42 Q182.565 1168.67 180.621 1166.93 Q178.7 1165.2 175.598 1165.2 Q173.399 1165.2 170.945 1165.96 Q168.515 1166.72 165.737 1168.28 L165.737 1163.55 Q168.561 1162.42 171.015 1161.84 Q173.468 1161.26 175.505 1161.26 Q180.876 1161.26 184.07 1163.95 Q187.265 1166.63 187.265 1171.12 Q187.265 1173.25 186.454 1175.17 Q185.667 1177.07 183.561 1179.66 Q182.982 1180.34 179.88 1183.55 Q176.778 1186.75 171.13 1192.51 Z" fill="#9eb1be" fill-rule="nonzero" fill-opacity="1" /><path clip-path="url(#clip170)" d="M51.5708 992.234 L81.2466 992.234 L81.2466 996.169 L51.5708 996.169 L51.5708 992.234 Z" fill="#9eb1be" fill-rule="nonzero" fill-opacity="1" /><path clip-path="url(#clip170)" d="M101.339 977.581 Q97.728 977.581 95.8993 981.146 Q94.0937 984.687 94.0937 991.817 Q94.0937 998.923 95.8993 1002.49 Q97.728 1006.03 101.339 1006.03 Q104.973 1006.03 106.779 1002.49 Q108.608 998.923 108.608 991.817 Q108.608 984.687 106.779 981.146 Q104.973 977.581 101.339 977.581 M101.339 973.877 Q107.149 973.877 110.205 978.484 Q113.283 983.067 113.283 991.817 Q113.283 1000.54 110.205 1005.15 Q107.149 1009.73 101.339 1009.73 Q95.5289 1009.73 92.4502 1005.15 Q89.3947 1000.54 89.3947 991.817 Q89.3947 983.067 92.4502 978.484 Q95.5289 973.877 101.339 973.877 Z" fill="#9eb1be" fill-rule="nonzero" fill-opacity="1" /><path clip-path="url(#clip170)" d="M121.501 1003.18 L126.385 1003.18 L126.385 1009.06 L121.501 1009.06 L121.501 1003.18 Z" fill="#9eb1be" fill-rule="nonzero" fill-opacity="1" /><path clip-path="url(#clip170)" d="M146.57 977.581 Q142.959 977.581 141.131 981.146 Q139.325 984.687 139.325 991.817 Q139.325 998.923 141.131 1002.49 Q142.959 1006.03 146.57 1006.03 Q150.205 1006.03 152.01 1002.49 Q153.839 998.923 153.839 991.817 Q153.839 984.687 152.01 981.146 Q150.205 977.581 146.57 977.581 M146.57 973.877 Q152.38 973.877 155.436 978.484 Q158.515 983.067 158.515 991.817 Q158.515 1000.54 155.436 1005.15 Q152.38 1009.73 146.57 1009.73 Q140.76 1009.73 137.681 1005.15 Q134.626 1000.54 134.626 991.817 Q134.626 983.067 137.681 978.484 Q140.76 973.877 146.57 973.877 Z" fill="#9eb1be" fill-rule="nonzero" fill-opacity="1" /><path clip-path="url(#clip170)" d="M167.542 1005.13 L175.181 1005.13 L175.181 978.762 L166.871 980.428 L166.871 976.169 L175.135 974.502 L179.811 974.502 L179.811 1005.13 L187.45 1005.13 L187.45 1009.06 L167.542 1009.06 L167.542 1005.13 Z" fill="#9eb1be" fill-rule="nonzero" fill-opacity="1" /><path clip-path="url(#clip170)" d="M100.112 790.196 Q96.5011 790.196 94.6724 793.761 Q92.8669 797.303 92.8669 804.432 Q92.8669 811.539 94.6724 815.104 Q96.5011 818.645 100.112 818.645 Q103.746 818.645 105.552 815.104 Q107.381 811.539 107.381 804.432 Q107.381 797.303 105.552 793.761 Q103.746 790.196 100.112 790.196 M100.112 786.493 Q105.922 786.493 108.978 791.099 Q112.057 795.682 112.057 804.432 Q112.057 813.159 108.978 817.766 Q105.922 822.349 100.112 822.349 Q94.3021 822.349 91.2234 817.766 Q88.1679 813.159 88.1679 804.432 Q88.1679 795.682 91.2234 791.099 Q94.3021 786.493 100.112 786.493 Z" fill="#9eb1be" fill-rule="nonzero" fill-opacity="1" /><path clip-path="url(#clip170)" d="M120.274 815.798 L125.158 815.798 L125.158 821.678 L120.274 821.678 L120.274 815.798 Z" fill="#9eb1be" fill-rule="nonzero" fill-opacity="1" /><path clip-path="url(#clip170)" d="M145.343 790.196 Q141.732 790.196 139.904 793.761 Q138.098 797.303 138.098 804.432 Q138.098 811.539 139.904 815.104 Q141.732 818.645 145.343 818.645 Q148.978 818.645 150.783 815.104 Q152.612 811.539 152.612 804.432 Q152.612 797.303 150.783 793.761 Q148.978 790.196 145.343 790.196 M145.343 786.493 Q151.154 786.493 154.209 791.099 Q157.288 795.682 157.288 804.432 Q157.288 813.159 154.209 817.766 Q151.154 822.349 145.343 822.349 Q139.533 822.349 136.455 817.766 Q133.399 813.159 133.399 804.432 Q133.399 795.682 136.455 791.099 Q139.533 786.493 145.343 786.493 Z" fill="#9eb1be" fill-rule="nonzero" fill-opacity="1" /><path clip-path="url(#clip170)" d="M175.505 790.196 Q171.894 790.196 170.066 793.761 Q168.26 797.303 168.26 804.432 Q168.26 811.539 170.066 815.104 Q171.894 818.645 175.505 818.645 Q179.14 818.645 180.945 815.104 Q182.774 811.539 182.774 804.432 Q182.774 797.303 180.945 793.761 Q179.14 790.196 175.505 790.196 M175.505 786.493 Q181.316 786.493 184.371 791.099 Q187.45 795.682 187.45 804.432 Q187.45 813.159 184.371 817.766 Q181.316 822.349 175.505 822.349 Q169.695 822.349 166.617 817.766 Q163.561 813.159 163.561 804.432 Q163.561 795.682 166.617 791.099 Q169.695 786.493 175.505 786.493 Z" fill="#9eb1be" fill-rule="nonzero" fill-opacity="1" /><path clip-path="url(#clip170)" d="M101.339 602.812 Q97.728 602.812 95.8993 606.377 Q94.0937 609.918 94.0937 617.048 Q94.0937 624.154 95.8993 627.719 Q97.728 631.261 101.339 631.261 Q104.973 631.261 106.779 627.719 Q108.608 624.154 108.608 617.048 Q108.608 609.918 106.779 606.377 Q104.973 602.812 101.339 602.812 M101.339 599.108 Q107.149 599.108 110.205 603.715 Q113.283 608.298 113.283 617.048 Q113.283 625.775 110.205 630.381 Q107.149 634.964 101.339 634.964 Q95.5289 634.964 92.4502 630.381 Q89.3947 625.775 89.3947 617.048 Q89.3947 608.298 92.4502 603.715 Q95.5289 599.108 101.339 599.108 Z" fill="#9eb1be" fill-rule="nonzero" fill-opacity="1" /><path clip-path="url(#clip170)" d="M121.501 628.414 L126.385 628.414 L126.385 634.293 L121.501 634.293 L121.501 628.414 Z" fill="#9eb1be" fill-rule="nonzero" fill-opacity="1" /><path clip-path="url(#clip170)" d="M146.57 602.812 Q142.959 602.812 141.131 606.377 Q139.325 609.918 139.325 617.048 Q139.325 624.154 141.131 627.719 Q142.959 631.261 146.57 631.261 Q150.205 631.261 152.01 627.719 Q153.839 624.154 153.839 617.048 Q153.839 609.918 152.01 606.377 Q150.205 602.812 146.57 602.812 M146.57 599.108 Q152.38 599.108 155.436 603.715 Q158.515 608.298 158.515 617.048 Q158.515 625.775 155.436 630.381 Q152.38 634.964 146.57 634.964 Q140.76 634.964 137.681 630.381 Q134.626 625.775 134.626 617.048 Q134.626 608.298 137.681 603.715 Q140.76 599.108 146.57 599.108 Z" fill="#9eb1be" fill-rule="nonzero" fill-opacity="1" /><path clip-path="url(#clip170)" d="M167.542 630.358 L175.181 630.358 L175.181 603.992 L166.871 605.659 L166.871 601.4 L175.135 599.733 L179.811 599.733 L179.811 630.358 L187.45 630.358 L187.45 634.293 L167.542 634.293 L167.542 630.358 Z" fill="#9eb1be" fill-rule="nonzero" fill-opacity="1" /><path clip-path="url(#clip170)" d="M101.709 415.427 Q98.0984 415.427 96.2697 418.992 Q94.4641 422.534 94.4641 429.663 Q94.4641 436.77 96.2697 440.335 Q98.0984 443.876 101.709 443.876 Q105.344 443.876 107.149 440.335 Q108.978 436.77 108.978 429.663 Q108.978 422.534 107.149 418.992 Q105.344 415.427 101.709 415.427 M101.709 411.724 Q107.52 411.724 110.575 416.33 Q113.654 420.913 113.654 429.663 Q113.654 438.39 110.575 442.997 Q107.52 447.58 101.709 447.58 Q95.8993 447.58 92.8206 442.997 Q89.7651 438.39 89.7651 429.663 Q89.7651 420.913 92.8206 416.33 Q95.8993 411.724 101.709 411.724 Z" fill="#9eb1be" fill-rule="nonzero" fill-opacity="1" /><path clip-path="url(#clip170)" d="M121.871 441.029 L126.756 441.029 L126.756 446.909 L121.871 446.909 L121.871 441.029 Z" fill="#9eb1be" fill-rule="nonzero" fill-opacity="1" /><path clip-path="url(#clip170)" d="M146.941 415.427 Q143.33 415.427 141.501 418.992 Q139.695 422.534 139.695 429.663 Q139.695 436.77 141.501 440.335 Q143.33 443.876 146.941 443.876 Q150.575 443.876 152.38 440.335 Q154.209 436.77 154.209 429.663 Q154.209 422.534 152.38 418.992 Q150.575 415.427 146.941 415.427 M146.941 411.724 Q152.751 411.724 155.806 416.33 Q158.885 420.913 158.885 429.663 Q158.885 438.39 155.806 442.997 Q152.751 447.58 146.941 447.58 Q141.131 447.58 138.052 442.997 Q134.996 438.39 134.996 429.663 Q134.996 420.913 138.052 416.33 Q141.131 411.724 146.941 411.724 Z" fill="#9eb1be" fill-rule="nonzero" fill-opacity="1" /><path clip-path="url(#clip170)" d="M171.13 442.973 L187.45 442.973 L187.45 446.909 L165.505 446.909 L165.505 442.973 Q168.167 440.219 172.751 435.589 Q177.357 430.936 178.538 429.594 Q180.783 427.071 181.663 425.335 Q182.565 423.575 182.565 421.886 Q182.565 419.131 180.621 417.395 Q178.7 415.659 175.598 415.659 Q173.399 415.659 170.945 416.423 Q168.515 417.186 165.737 418.737 L165.737 414.015 Q168.561 412.881 171.015 412.302 Q173.468 411.724 175.505 411.724 Q180.876 411.724 184.07 414.409 Q187.265 417.094 187.265 421.585 Q187.265 423.714 186.454 425.636 Q185.667 427.534 183.561 430.126 Q182.982 430.798 179.88 434.015 Q176.778 437.21 171.13 442.973 Z" fill="#9eb1be" fill-rule="nonzero" fill-opacity="1" /><path clip-path="url(#clip170)" d="M100.76 228.043 Q97.1493 228.043 95.3206 231.607 Q93.515 235.149 93.515 242.279 Q93.515 249.385 95.3206 252.95 Q97.1493 256.492 100.76 256.492 Q104.395 256.492 106.2 252.95 Q108.029 249.385 108.029 242.279 Q108.029 235.149 106.2 231.607 Q104.395 228.043 100.76 228.043 M100.76 224.339 Q106.571 224.339 109.626 228.945 Q112.705 233.529 112.705 242.279 Q112.705 251.005 109.626 255.612 Q106.571 260.195 100.76 260.195 Q94.9502 260.195 91.8715 255.612 Q88.816 251.005 88.816 242.279 Q88.816 233.529 91.8715 228.945 Q94.9502 224.339 100.76 224.339 Z" fill="#9eb1be" fill-rule="nonzero" fill-opacity="1" /><path clip-path="url(#clip170)" d="M120.922 253.644 L125.807 253.644 L125.807 259.524 L120.922 259.524 L120.922 253.644 Z" fill="#9eb1be" fill-rule="nonzero" fill-opacity="1" /><path clip-path="url(#clip170)" d="M145.992 228.043 Q142.381 228.043 140.552 231.607 Q138.746 235.149 138.746 242.279 Q138.746 249.385 140.552 252.95 Q142.381 256.492 145.992 256.492 Q149.626 256.492 151.431 252.95 Q153.26 249.385 153.26 242.279 Q153.26 235.149 151.431 231.607 Q149.626 228.043 145.992 228.043 M145.992 224.339 Q151.802 224.339 154.857 228.945 Q157.936 233.529 157.936 242.279 Q157.936 251.005 154.857 255.612 Q151.802 260.195 145.992 260.195 Q140.181 260.195 137.103 255.612 Q134.047 251.005 134.047 242.279 Q134.047 233.529 137.103 228.945 Q140.181 224.339 145.992 224.339 Z" fill="#9eb1be" fill-rule="nonzero" fill-opacity="1" /><path clip-path="url(#clip170)" d="M180.32 240.89 Q183.677 241.607 185.552 243.876 Q187.45 246.144 187.45 249.478 Q187.45 254.593 183.931 257.394 Q180.413 260.195 173.931 260.195 Q171.755 260.195 169.441 259.755 Q167.149 259.339 164.695 258.482 L164.695 253.968 Q166.64 255.103 168.954 255.681 Q171.269 256.26 173.792 256.26 Q178.191 256.26 180.482 254.524 Q182.797 252.788 182.797 249.478 Q182.797 246.422 180.644 244.709 Q178.515 242.973 174.695 242.973 L170.667 242.973 L170.667 239.131 L174.88 239.131 Q178.329 239.131 180.158 237.765 Q181.987 236.376 181.987 233.783 Q181.987 231.121 180.089 229.709 Q178.214 228.274 174.695 228.274 Q172.774 228.274 170.575 228.691 Q168.376 229.107 165.737 229.987 L165.737 225.82 Q168.399 225.08 170.714 224.709 Q173.052 224.339 175.112 224.339 Q180.436 224.339 183.538 226.77 Q186.64 229.177 186.64 233.297 Q186.64 236.168 184.996 238.158 Q183.353 240.126 180.32 240.89 Z" fill="#9eb1be" fill-rule="nonzero" fill-opacity="1" /><path clip-path="url(#clip170)" d="M223.45 8.64 L231.32 8.64 L250.475 44.7799 L250.475 8.64 L256.146 8.64 L256.146 51.84 L248.276 51.84 L229.121 15.7001 L229.121 51.84 L223.45 51.84 L223.45 8.64 Z" fill="#adb2b7" fill-rule="nonzero" fill-opacity="1" /><path clip-path="url(#clip170)" d="M280.105 23.1654 Q275.822 23.1654 273.334 26.5218 Q270.845 29.8494 270.845 35.6653 Q270.845 41.4813 273.305 44.8377 Q275.793 48.1653 280.105 48.1653 Q284.358 48.1653 286.846 44.8088 Q289.335 41.4523 289.335 35.6653 Q289.335 29.9072 286.846 26.5508 Q284.358 23.1654 280.105 23.1654 M280.105 18.6515 Q287.049 18.6515 291.013 23.1654 Q294.977 27.6792 294.977 35.6653 Q294.977 43.6225 291.013 48.1653 Q287.049 52.6791 280.105 52.6791 Q273.131 52.6791 269.167 48.1653 Q265.232 43.6225 265.232 35.6653 Q265.232 27.6792 269.167 23.1654 Q273.131 18.6515 280.105 18.6515 Z" fill="#adb2b7" fill-rule="nonzero" fill-opacity="1" /><path clip-path="url(#clip170)" d="M329.034 25.6538 Q331.03 22.0659 333.808 20.3587 Q336.586 18.6515 340.347 18.6515 Q345.411 18.6515 348.16 22.2105 Q350.909 25.7406 350.909 32.2799 L350.909 51.84 L345.556 51.84 L345.556 32.4535 Q345.556 27.795 343.906 25.5381 Q342.257 23.2811 338.872 23.2811 Q334.734 23.2811 332.332 26.03 Q329.931 28.7788 329.931 33.5241 L329.931 51.84 L324.578 51.84 L324.578 32.4535 Q324.578 27.7661 322.928 25.5381 Q321.279 23.2811 317.836 23.2811 Q313.756 23.2811 311.354 26.0589 Q308.953 28.8077 308.953 33.5241 L308.953 51.84 L303.6 51.84 L303.6 19.4328 L308.953 19.4328 L308.953 24.4675 Q310.776 21.4872 313.322 20.0693 Q315.868 18.6515 319.369 18.6515 Q322.899 18.6515 325.359 20.4455 Q327.847 22.2395 329.034 25.6538 Z" fill="#adb2b7" fill-rule="nonzero" fill-opacity="1" /><path clip-path="url(#clip170)" d="M361.528 19.4328 L366.852 19.4328 L366.852 51.84 L361.528 51.84 L361.528 19.4328 M361.528 6.81709 L366.852 6.81709 L366.852 13.559 L361.528 13.559 L361.528 6.81709 Z" fill="#adb2b7" fill-rule="nonzero" fill-opacity="1" /><path clip-path="url(#clip170)" d="M404.93 32.2799 L404.93 51.84 L399.606 51.84 L399.606 32.4535 Q399.606 27.8529 397.812 25.567 Q396.018 23.2811 392.43 23.2811 Q388.119 23.2811 385.631 26.03 Q383.142 28.7788 383.142 33.5241 L383.142 51.84 L377.789 51.84 L377.789 19.4328 L383.142 19.4328 L383.142 24.4675 Q385.052 21.545 387.627 20.0983 Q390.231 18.6515 393.617 18.6515 Q399.201 18.6515 402.066 22.1237 Q404.93 25.567 404.93 32.2799 Z" fill="#adb2b7" fill-rule="nonzero" fill-opacity="1" /><path clip-path="url(#clip170)" d="M430.277 35.5496 Q423.825 35.5496 421.336 37.0253 Q418.848 38.501 418.848 42.06 Q418.848 44.8956 420.7 46.5738 Q422.581 48.2231 425.792 48.2231 Q430.219 48.2231 432.881 45.0981 Q435.572 41.9442 435.572 36.7359 L435.572 35.5496 L430.277 35.5496 M440.896 33.3505 L440.896 51.84 L435.572 51.84 L435.572 46.921 Q433.75 49.8724 431.03 51.2902 Q428.31 52.6791 424.375 52.6791 Q419.398 52.6791 416.446 49.9014 Q413.524 47.0947 413.524 42.4072 Q413.524 36.9385 417.17 34.1607 Q420.845 31.3829 428.107 31.3829 L435.572 31.3829 L435.572 30.8621 Q435.572 27.1874 433.142 25.1908 Q430.74 23.1654 426.371 23.1654 Q423.593 23.1654 420.96 23.8309 Q418.327 24.4964 415.897 25.8274 L415.897 20.9085 Q418.819 19.78 421.568 19.2302 Q424.317 18.6515 426.921 18.6515 Q433.952 18.6515 437.424 22.2973 Q440.896 25.9431 440.896 33.3505 Z" fill="#adb2b7" fill-rule="nonzero" fill-opacity="1" /><path clip-path="url(#clip170)" d="M451.863 6.81709 L457.187 6.81709 L457.187 51.84 L451.863 51.84 L451.863 6.81709 Z" fill="#adb2b7" fill-rule="nonzero" fill-opacity="1" /><path clip-path="url(#clip170)" d="M505.942 24.4096 Q505.045 23.8888 503.975 23.6573 Q502.933 23.3969 501.66 23.3969 Q497.146 23.3969 494.716 26.3482 Q492.314 29.2707 492.314 34.7683 L492.314 51.84 L486.961 51.84 L486.961 19.4328 L492.314 19.4328 L492.314 24.4675 Q493.992 21.5161 496.683 20.0983 Q499.374 18.6515 503.223 18.6515 Q503.772 18.6515 504.438 18.7383 Q505.103 18.7962 505.913 18.9409 L505.942 24.4096 Z" fill="#adb2b7" fill-rule="nonzero" fill-opacity="1" /><path clip-path="url(#clip170)" d="M537.945 34.3054 L537.945 36.9095 L513.466 36.9095 Q513.813 42.4072 516.764 45.3007 Q519.744 48.1653 525.04 48.1653 Q528.107 48.1653 530.971 47.4129 Q533.865 46.6606 536.7 45.156 L536.7 50.1907 Q533.836 51.406 530.827 52.0425 Q527.817 52.6791 524.721 52.6791 Q516.967 52.6791 512.424 48.1653 Q507.91 43.6514 507.91 35.9547 Q507.91 27.9975 512.192 23.339 Q516.504 18.6515 523.795 18.6515 Q530.335 18.6515 534.125 22.876 Q537.945 27.0716 537.945 34.3054 M532.621 32.7429 Q532.563 28.3737 530.161 25.7695 Q527.788 23.1654 523.853 23.1654 Q519.397 23.1654 516.706 25.6827 Q514.044 28.2001 513.639 32.7718 L532.621 32.7429 Z" fill="#adb2b7" fill-rule="nonzero" fill-opacity="1" /><path clip-path="url(#clip170)" d="M551.949 10.2314 L551.949 19.4328 L562.916 19.4328 L562.916 23.5705 L551.949 23.5705 L551.949 41.163 Q551.949 45.1271 553.02 46.2555 Q554.119 47.384 557.447 47.384 L562.916 47.384 L562.916 51.84 L557.447 51.84 Q551.284 51.84 548.94 49.5541 Q546.596 47.2393 546.596 41.163 L546.596 23.5705 L542.69 23.5705 L542.69 19.4328 L546.596 19.4328 L546.596 10.2314 L551.949 10.2314 Z" fill="#adb2b7" fill-rule="nonzero" fill-opacity="1" /><path clip-path="url(#clip170)" d="M569.368 39.0507 L569.368 19.4328 L574.692 19.4328 L574.692 38.8482 Q574.692 43.4488 576.486 45.7636 Q578.28 48.0495 581.868 48.0495 Q586.179 48.0495 588.668 45.3007 Q591.185 42.5519 591.185 37.8065 L591.185 19.4328 L596.509 19.4328 L596.509 51.84 L591.185 51.84 L591.185 46.8632 Q589.246 49.8145 586.671 51.2613 Q584.125 52.6791 580.739 52.6791 Q575.155 52.6791 572.262 49.2069 Q569.368 45.7347 569.368 39.0507 M582.765 18.6515 L582.765 18.6515 Z" fill="#adb2b7" fill-rule="nonzero" fill-opacity="1" /><path clip-path="url(#clip170)" d="M626.254 24.4096 Q625.357 23.8888 624.287 23.6573 Q623.245 23.3969 621.972 23.3969 Q617.458 23.3969 615.027 26.3482 Q612.626 29.2707 612.626 34.7683 L612.626 51.84 L607.273 51.84 L607.273 19.4328 L612.626 19.4328 L612.626 24.4675 Q614.304 21.5161 616.995 20.0983 Q619.686 18.6515 623.534 18.6515 Q624.084 18.6515 624.75 18.7383 Q625.415 18.7962 626.225 18.9409 L626.254 24.4096 Z" fill="#adb2b7" fill-rule="nonzero" fill-opacity="1" /><path clip-path="url(#clip170)" d="M657.736 32.2799 L657.736 51.84 L652.412 51.84 L652.412 32.4535 Q652.412 27.8529 650.618 25.567 Q648.824 23.2811 645.236 23.2811 Q640.924 23.2811 638.436 26.03 Q635.948 28.7788 635.948 33.5241 L635.948 51.84 L630.595 51.84 L630.595 19.4328 L635.948 19.4328 L635.948 24.4675 Q637.857 21.545 640.432 20.0983 Q643.037 18.6515 646.422 18.6515 Q652.006 18.6515 654.871 22.1237 Q657.736 25.567 657.736 32.2799 Z" fill="#adb2b7" fill-rule="nonzero" fill-opacity="1" /><path clip-path="url(#clip170)" d="M689.014 20.3876 L689.014 25.4223 Q686.757 24.2649 684.327 23.6862 Q681.896 23.1075 679.292 23.1075 Q675.328 23.1075 673.332 24.3228 Q671.364 25.5381 671.364 27.9686 Q671.364 29.8204 672.782 30.891 Q674.2 31.9327 678.482 32.8876 L680.305 33.2926 Q685.976 34.5079 688.349 36.7359 Q690.75 38.935 690.75 42.8991 Q690.75 47.4129 687.163 50.046 Q683.604 52.6791 677.354 52.6791 Q674.749 52.6791 671.914 52.1583 Q669.107 51.6664 665.982 50.6537 L665.982 45.156 Q668.933 46.6896 671.798 47.4708 Q674.663 48.2231 677.469 48.2231 Q681.231 48.2231 683.256 46.95 Q685.282 45.6479 685.282 43.3042 Q685.282 41.134 683.806 39.9766 Q682.359 38.8192 677.411 37.7486 L675.56 37.3146 Q670.612 36.273 668.413 34.1318 Q666.214 31.9616 666.214 28.2001 Q666.214 23.6283 669.454 21.1399 Q672.695 18.6515 678.656 18.6515 Q681.607 18.6515 684.211 19.0855 Q686.815 19.5196 689.014 20.3876 Z" fill="#adb2b7" fill-rule="nonzero" fill-opacity="1" /><path clip-path="url(#clip170)" d="M741.329 35.6653 Q741.329 29.7915 738.898 26.464 Q736.497 23.1075 732.272 23.1075 Q728.048 23.1075 725.617 26.464 Q723.216 29.7915 723.216 35.6653 Q723.216 41.5391 725.617 44.8956 Q728.048 48.2231 732.272 48.2231 Q736.497 48.2231 738.898 44.8956 Q741.329 41.5391 741.329 35.6653 M723.216 24.3517 Q724.894 21.4582 727.44 20.0693 Q730.015 18.6515 733.574 18.6515 Q739.477 18.6515 743.152 23.339 Q746.855 28.0265 746.855 35.6653 Q746.855 43.3042 743.152 47.9916 Q739.477 52.6791 733.574 52.6791 Q730.015 52.6791 727.44 51.2902 Q724.894 49.8724 723.216 46.9789 L723.216 51.84 L717.863 51.84 L717.863 6.81709 L723.216 6.81709 L723.216 24.3517 Z" fill="#adb2b7" fill-rule="nonzero" fill-opacity="1" /><path clip-path="url(#clip170)" d="M769.164 54.8492 Q766.907 60.6362 764.766 62.4013 Q762.625 64.1663 759.037 64.1663 L754.784 64.1663 L754.784 59.7103 L757.909 59.7103 Q760.108 59.7103 761.323 58.6687 Q762.538 57.627 764.014 53.7497 L764.969 51.3192 L751.861 19.4328 L757.504 19.4328 L767.631 44.7799 L777.758 19.4328 L783.4 19.4328 L769.164 54.8492 Z" fill="#adb2b7" fill-rule="nonzero" fill-opacity="1" /><path clip-path="url(#clip170)" d="M836.525 32.2799 L836.525 51.84 L831.201 51.84 L831.201 32.4535 Q831.201 27.8529 829.407 25.567 Q827.613 23.2811 824.025 23.2811 Q819.714 23.2811 817.225 26.03 Q814.737 28.7788 814.737 33.5241 L814.737 51.84 L809.384 51.84 L809.384 6.81709 L814.737 6.81709 L814.737 24.4675 Q816.647 21.545 819.222 20.0983 Q821.826 18.6515 825.212 18.6515 Q830.796 18.6515 833.661 22.1237 Q836.525 25.567 836.525 32.2799 Z" fill="#adb2b7" fill-rule="nonzero" fill-opacity="1" /><path clip-path="url(#clip170)" d="M859.702 23.1654 Q855.42 23.1654 852.931 26.5218 Q850.443 29.8494 850.443 35.6653 Q850.443 41.4813 852.902 44.8377 Q855.391 48.1653 859.702 48.1653 Q863.956 48.1653 866.444 44.8088 Q868.932 41.4523 868.932 35.6653 Q868.932 29.9072 866.444 26.5508 Q863.956 23.1654 859.702 23.1654 M859.702 18.6515 Q866.647 18.6515 870.611 23.1654 Q874.575 27.6792 874.575 35.6653 Q874.575 43.6225 870.611 48.1653 Q866.647 52.6791 859.702 52.6791 Q852.729 52.6791 848.765 48.1653 Q844.83 43.6225 844.83 35.6653 Q844.83 27.6792 848.765 23.1654 Q852.729 18.6515 859.702 18.6515 Z" fill="#adb2b7" fill-rule="nonzero" fill-opacity="1" /><path clip-path="url(#clip170)" d="M882.85 39.0507 L882.85 19.4328 L888.174 19.4328 L888.174 38.8482 Q888.174 43.4488 889.968 45.7636 Q891.762 48.0495 895.35 48.0495 Q899.661 48.0495 902.15 45.3007 Q904.667 42.5519 904.667 37.8065 L904.667 19.4328 L909.991 19.4328 L909.991 51.84 L904.667 51.84 L904.667 46.8632 Q902.728 49.8145 900.153 51.2613 Q897.607 52.6791 894.222 52.6791 Q888.637 52.6791 885.744 49.2069 Q882.85 45.7347 882.85 39.0507 M896.247 18.6515 L896.247 18.6515 Z" fill="#adb2b7" fill-rule="nonzero" fill-opacity="1" /><path clip-path="url(#clip170)" d="M939.736 24.4096 Q938.839 23.8888 937.769 23.6573 Q936.727 23.3969 935.454 23.3969 Q930.94 23.3969 928.51 26.3482 Q926.108 29.2707 926.108 34.7683 L926.108 51.84 L920.755 51.84 L920.755 19.4328 L926.108 19.4328 L926.108 24.4675 Q927.786 21.5161 930.477 20.0983 Q933.168 18.6515 937.017 18.6515 Q937.566 18.6515 938.232 18.7383 Q938.897 18.7962 939.707 18.9409 L939.736 24.4096 Z" fill="#adb2b7" fill-rule="nonzero" fill-opacity="1" /><path clip-path="url(#clip170)" d="M294.427 463.241 L673.467 463.241 L673.467 152.201 L294.427 152.201  Z" fill="#282c34" fill-rule="evenodd" fill-opacity="1"/>
<polyline clip-path="url(#clip170)" style="stroke:#000000; stroke-linecap:round; stroke-linejoin:round; stroke-width:4; stroke-opacity:0; fill:none" points="294.427,463.241 673.467,463.241 673.467,152.201 294.427,152.201 294.427,463.241 "/>
<polyline clip-path="url(#clip170)" style="stroke:#fe4365; stroke-linecap:round; stroke-linejoin:round; stroke-width:4; stroke-opacity:1; fill:none" points="318.086,204.041 460.039,204.041 "/>
<path clip-path="url(#clip170)" d="M484.37 217.385 L492.008 217.385 L492.008 191.02 L483.698 192.687 L483.698 188.427 L491.962 186.761 L496.638 186.761 L496.638 217.385 L504.277 217.385 L504.277 221.321 L484.37 221.321 L484.37 217.385 Z" fill="#adb2b7" fill-rule="nonzero" fill-opacity="1" /><path clip-path="url(#clip170)" d="M526.568 190.835 L514.763 209.284 L526.568 209.284 L526.568 190.835 M525.342 186.761 L531.221 186.761 L531.221 209.284 L536.152 209.284 L536.152 213.173 L531.221 213.173 L531.221 221.321 L526.568 221.321 L526.568 213.173 L510.967 213.173 L510.967 208.659 L525.342 186.761 Z" fill="#adb2b7" fill-rule="nonzero" fill-opacity="1" /><path clip-path="url(#clip170)" d="M544.369 215.441 L549.253 215.441 L549.253 221.321 L544.369 221.321 L544.369 215.441 M544.369 196.807 L549.253 196.807 L549.253 202.686 L544.369 202.686 L544.369 196.807 Z" fill="#adb2b7" fill-rule="nonzero" fill-opacity="1" /><path clip-path="url(#clip170)" d="M569.855 189.839 Q566.244 189.839 564.415 193.404 Q562.61 196.946 562.61 204.075 Q562.61 211.182 564.415 214.747 Q566.244 218.288 569.855 218.288 Q573.489 218.288 575.295 214.747 Q577.124 211.182 577.124 204.075 Q577.124 196.946 575.295 193.404 Q573.489 189.839 569.855 189.839 M569.855 186.136 Q575.665 186.136 578.721 190.742 Q581.8 195.325 581.8 204.075 Q581.8 212.802 578.721 217.409 Q575.665 221.992 569.855 221.992 Q564.045 221.992 560.966 217.409 Q557.911 212.802 557.911 204.075 Q557.911 195.325 560.966 190.742 Q564.045 186.136 569.855 186.136 Z" fill="#adb2b7" fill-rule="nonzero" fill-opacity="1" /><path clip-path="url(#clip170)" d="M600.017 189.839 Q596.406 189.839 594.577 193.404 Q592.772 196.946 592.772 204.075 Q592.772 211.182 594.577 214.747 Q596.406 218.288 600.017 218.288 Q603.651 218.288 605.457 214.747 Q607.286 211.182 607.286 204.075 Q607.286 196.946 605.457 193.404 Q603.651 189.839 600.017 189.839 M600.017 186.136 Q605.827 186.136 608.883 190.742 Q611.961 195.325 611.961 204.075 Q611.961 212.802 608.883 217.409 Q605.827 221.992 600.017 221.992 Q594.207 221.992 591.128 217.409 Q588.073 212.802 588.073 204.075 Q588.073 195.325 591.128 190.742 Q594.207 186.136 600.017 186.136 Z" fill="#adb2b7" fill-rule="nonzero" fill-opacity="1" /><path clip-path="url(#clip170)" d="M636.915 191.599 L636.915 204.492 L649.808 204.492 L649.808 208.427 L636.915 208.427 L636.915 221.321 L633.026 221.321 L633.026 208.427 L620.133 208.427 L620.133 204.492 L633.026 204.492 L633.026 191.599 L636.915 191.599 Z" fill="#adb2b7" fill-rule="nonzero" fill-opacity="1" /><polyline clip-path="url(#clip170)" style="stroke:#eca25c; stroke-linecap:round; stroke-linejoin:round; stroke-width:4; stroke-opacity:1; fill:none" points="318.086,255.881 460.039,255.881 "/>
<path clip-path="url(#clip170)" d="M484.37 269.225 L492.008 269.225 L492.008 242.86 L483.698 244.527 L483.698 240.267 L491.962 238.601 L496.638 238.601 L496.638 269.225 L504.277 269.225 L504.277 273.161 L484.37 273.161 L484.37 269.225 Z" fill="#adb2b7" fill-rule="nonzero" fill-opacity="1" /><path clip-path="url(#clip170)" d="M513.768 238.601 L532.124 238.601 L532.124 242.536 L518.05 242.536 L518.05 251.008 Q519.068 250.661 520.087 250.499 Q521.105 250.314 522.124 250.314 Q527.911 250.314 531.291 253.485 Q534.67 256.656 534.67 262.073 Q534.67 267.651 531.198 270.753 Q527.726 273.832 521.406 273.832 Q519.23 273.832 516.962 273.462 Q514.717 273.091 512.309 272.35 L512.309 267.651 Q514.393 268.786 516.615 269.341 Q518.837 269.897 521.314 269.897 Q525.318 269.897 527.656 267.79 Q529.994 265.684 529.994 262.073 Q529.994 258.462 527.656 256.355 Q525.318 254.249 521.314 254.249 Q519.439 254.249 517.564 254.665 Q515.712 255.082 513.768 255.962 L513.768 238.601 Z" fill="#adb2b7" fill-rule="nonzero" fill-opacity="1" /><path clip-path="url(#clip170)" d="M544.369 267.281 L549.253 267.281 L549.253 273.161 L544.369 273.161 L544.369 267.281 M544.369 248.647 L549.253 248.647 L549.253 254.526 L544.369 254.526 L544.369 248.647 Z" fill="#adb2b7" fill-rule="nonzero" fill-opacity="1" /><path clip-path="url(#clip170)" d="M569.855 241.679 Q566.244 241.679 564.415 245.244 Q562.61 248.786 562.61 255.915 Q562.61 263.022 564.415 266.587 Q566.244 270.128 569.855 270.128 Q573.489 270.128 575.295 266.587 Q577.124 263.022 577.124 255.915 Q577.124 248.786 575.295 245.244 Q573.489 241.679 569.855 241.679 M569.855 237.976 Q575.665 237.976 578.721 242.582 Q581.8 247.165 581.8 255.915 Q581.8 264.642 578.721 269.249 Q575.665 273.832 569.855 273.832 Q564.045 273.832 560.966 269.249 Q557.911 264.642 557.911 255.915 Q557.911 247.165 560.966 242.582 Q564.045 237.976 569.855 237.976 Z" fill="#adb2b7" fill-rule="nonzero" fill-opacity="1" /><path clip-path="url(#clip170)" d="M600.017 241.679 Q596.406 241.679 594.577 245.244 Q592.772 248.786 592.772 255.915 Q592.772 263.022 594.577 266.587 Q596.406 270.128 600.017 270.128 Q603.651 270.128 605.457 266.587 Q607.286 263.022 607.286 255.915 Q607.286 248.786 605.457 245.244 Q603.651 241.679 600.017 241.679 M600.017 237.976 Q605.827 237.976 608.883 242.582 Q611.961 247.165 611.961 255.915 Q611.961 264.642 608.883 269.249 Q605.827 273.832 600.017 273.832 Q594.207 273.832 591.128 269.249 Q588.073 264.642 588.073 255.915 Q588.073 247.165 591.128 242.582 Q594.207 237.976 600.017 237.976 Z" fill="#adb2b7" fill-rule="nonzero" fill-opacity="1" /><path clip-path="url(#clip170)" d="M636.915 243.439 L636.915 256.332 L649.808 256.332 L649.808 260.267 L636.915 260.267 L636.915 273.161 L633.026 273.161 L633.026 260.267 L620.133 260.267 L620.133 256.332 L633.026 256.332 L633.026 243.439 L636.915 243.439 Z" fill="#adb2b7" fill-rule="nonzero" fill-opacity="1" /><polyline clip-path="url(#clip170)" style="stroke:#3f9778; stroke-linecap:round; stroke-linejoin:round; stroke-width:4; stroke-opacity:1; fill:none" points="318.086,307.721 460.039,307.721 "/>
<path clip-path="url(#clip170)" d="M484.37 321.065 L492.008 321.065 L492.008 294.7 L483.698 296.367 L483.698 292.107 L491.962 290.441 L496.638 290.441 L496.638 321.065 L504.277 321.065 L504.277 325.001 L484.37 325.001 L484.37 321.065 Z" fill="#adb2b7" fill-rule="nonzero" fill-opacity="1" /><path clip-path="url(#clip170)" d="M524.3 305.857 Q521.152 305.857 519.3 308.01 Q517.471 310.163 517.471 313.913 Q517.471 317.64 519.3 319.815 Q521.152 321.968 524.3 321.968 Q527.448 321.968 529.277 319.815 Q531.129 317.64 531.129 313.913 Q531.129 310.163 529.277 308.01 Q527.448 305.857 524.3 305.857 M533.582 291.205 L533.582 295.464 Q531.823 294.63 530.017 294.191 Q528.235 293.751 526.476 293.751 Q521.846 293.751 519.393 296.876 Q516.962 300.001 516.615 306.32 Q517.98 304.306 520.041 303.242 Q522.101 302.154 524.578 302.154 Q529.786 302.154 532.795 305.325 Q535.828 308.473 535.828 313.913 Q535.828 319.237 532.679 322.454 Q529.531 325.672 524.3 325.672 Q518.305 325.672 515.133 321.089 Q511.962 316.482 511.962 307.755 Q511.962 299.561 515.851 294.7 Q519.74 289.816 526.291 289.816 Q528.05 289.816 529.832 290.163 Q531.638 290.51 533.582 291.205 Z" fill="#adb2b7" fill-rule="nonzero" fill-opacity="1" /><path clip-path="url(#clip170)" d="M544.369 319.121 L549.253 319.121 L549.253 325.001 L544.369 325.001 L544.369 319.121 M544.369 300.487 L549.253 300.487 L549.253 306.366 L544.369 306.366 L544.369 300.487 Z" fill="#adb2b7" fill-rule="nonzero" fill-opacity="1" /><path clip-path="url(#clip170)" d="M569.855 293.519 Q566.244 293.519 564.415 297.084 Q562.61 300.626 562.61 307.755 Q562.61 314.862 564.415 318.427 Q566.244 321.968 569.855 321.968 Q573.489 321.968 575.295 318.427 Q577.124 314.862 577.124 307.755 Q577.124 300.626 575.295 297.084 Q573.489 293.519 569.855 293.519 M569.855 289.816 Q575.665 289.816 578.721 294.422 Q581.8 299.005 581.8 307.755 Q581.8 316.482 578.721 321.089 Q575.665 325.672 569.855 325.672 Q564.045 325.672 560.966 321.089 Q557.911 316.482 557.911 307.755 Q557.911 299.005 560.966 294.422 Q564.045 289.816 569.855 289.816 Z" fill="#adb2b7" fill-rule="nonzero" fill-opacity="1" /><path clip-path="url(#clip170)" d="M600.017 293.519 Q596.406 293.519 594.577 297.084 Q592.772 300.626 592.772 307.755 Q592.772 314.862 594.577 318.427 Q596.406 321.968 600.017 321.968 Q603.651 321.968 605.457 318.427 Q607.286 314.862 607.286 307.755 Q607.286 300.626 605.457 297.084 Q603.651 293.519 600.017 293.519 M600.017 289.816 Q605.827 289.816 608.883 294.422 Q611.961 299.005 611.961 307.755 Q611.961 316.482 608.883 321.089 Q605.827 325.672 600.017 325.672 Q594.207 325.672 591.128 321.089 Q588.073 316.482 588.073 307.755 Q588.073 299.005 591.128 294.422 Q594.207 289.816 600.017 289.816 Z" fill="#adb2b7" fill-rule="nonzero" fill-opacity="1" /><path clip-path="url(#clip170)" d="M636.915 295.279 L636.915 308.172 L649.808 308.172 L649.808 312.107 L636.915 312.107 L636.915 325.001 L633.026 325.001 L633.026 312.107 L620.133 312.107 L620.133 308.172 L633.026 308.172 L633.026 295.279 L636.915 295.279 Z" fill="#adb2b7" fill-rule="nonzero" fill-opacity="1" /><polyline clip-path="url(#clip170)" style="stroke:#005d7f; stroke-linecap:round; stroke-linejoin:round; stroke-width:4; stroke-opacity:1; fill:none" points="318.086,359.561 460.039,359.561 "/>
<path clip-path="url(#clip170)" d="M484.37 372.905 L492.008 372.905 L492.008 346.54 L483.698 348.207 L483.698 343.947 L491.962 342.281 L496.638 342.281 L496.638 372.905 L504.277 372.905 L504.277 376.841 L484.37 376.841 L484.37 372.905 Z" fill="#adb2b7" fill-rule="nonzero" fill-opacity="1" /><path clip-path="url(#clip170)" d="M512.541 342.281 L534.763 342.281 L534.763 344.271 L522.217 376.841 L517.332 376.841 L529.138 346.216 L512.541 346.216 L512.541 342.281 Z" fill="#adb2b7" fill-rule="nonzero" fill-opacity="1" /><path clip-path="url(#clip170)" d="M544.369 370.961 L549.253 370.961 L549.253 376.841 L544.369 376.841 L544.369 370.961 M544.369 352.327 L549.253 352.327 L549.253 358.206 L544.369 358.206 L544.369 352.327 Z" fill="#adb2b7" fill-rule="nonzero" fill-opacity="1" /><path clip-path="url(#clip170)" d="M569.855 345.359 Q566.244 345.359 564.415 348.924 Q562.61 352.466 562.61 359.595 Q562.61 366.702 564.415 370.267 Q566.244 373.808 569.855 373.808 Q573.489 373.808 575.295 370.267 Q577.124 366.702 577.124 359.595 Q577.124 352.466 575.295 348.924 Q573.489 345.359 569.855 345.359 M569.855 341.656 Q575.665 341.656 578.721 346.262 Q581.8 350.845 581.8 359.595 Q581.8 368.322 578.721 372.929 Q575.665 377.512 569.855 377.512 Q564.045 377.512 560.966 372.929 Q557.911 368.322 557.911 359.595 Q557.911 350.845 560.966 346.262 Q564.045 341.656 569.855 341.656 Z" fill="#adb2b7" fill-rule="nonzero" fill-opacity="1" /><path clip-path="url(#clip170)" d="M600.017 345.359 Q596.406 345.359 594.577 348.924 Q592.772 352.466 592.772 359.595 Q592.772 366.702 594.577 370.267 Q596.406 373.808 600.017 373.808 Q603.651 373.808 605.457 370.267 Q607.286 366.702 607.286 359.595 Q607.286 352.466 605.457 348.924 Q603.651 345.359 600.017 345.359 M600.017 341.656 Q605.827 341.656 608.883 346.262 Q611.961 350.845 611.961 359.595 Q611.961 368.322 608.883 372.929 Q605.827 377.512 600.017 377.512 Q594.207 377.512 591.128 372.929 Q588.073 368.322 588.073 359.595 Q588.073 350.845 591.128 346.262 Q594.207 341.656 600.017 341.656 Z" fill="#adb2b7" fill-rule="nonzero" fill-opacity="1" /><path clip-path="url(#clip170)" d="M636.915 347.119 L636.915 360.012 L649.808 360.012 L649.808 363.947 L636.915 363.947 L636.915 376.841 L633.026 376.841 L633.026 363.947 L620.133 363.947 L620.133 360.012 L633.026 360.012 L633.026 347.119 L636.915 347.119 Z" fill="#adb2b7" fill-rule="nonzero" fill-opacity="1" /><polyline clip-path="url(#clip170)" style="stroke:#00a8ff; stroke-linecap:round; stroke-linejoin:round; stroke-width:4; stroke-opacity:1; fill:none" points="318.086,411.401 460.039,411.401 "/>
<path clip-path="url(#clip170)" d="M484.37 424.745 L492.008 424.745 L492.008 398.38 L483.698 400.047 L483.698 395.787 L491.962 394.121 L496.638 394.121 L496.638 424.745 L504.277 424.745 L504.277 428.681 L484.37 428.681 L484.37 424.745 Z" fill="#adb2b7" fill-rule="nonzero" fill-opacity="1" /><path clip-path="url(#clip170)" d="M523.721 412.269 Q520.388 412.269 518.467 414.051 Q516.568 415.833 516.568 418.958 Q516.568 422.083 518.467 423.866 Q520.388 425.648 523.721 425.648 Q527.055 425.648 528.976 423.866 Q530.897 422.06 530.897 418.958 Q530.897 415.833 528.976 414.051 Q527.078 412.269 523.721 412.269 M519.045 410.278 Q516.036 409.537 514.346 407.477 Q512.68 405.417 512.68 402.454 Q512.68 398.31 515.619 395.903 Q518.582 393.496 523.721 393.496 Q528.883 393.496 531.823 395.903 Q534.763 398.31 534.763 402.454 Q534.763 405.417 533.073 407.477 Q531.406 409.537 528.42 410.278 Q531.8 411.065 533.675 413.357 Q535.573 415.648 535.573 418.958 Q535.573 423.982 532.494 426.667 Q529.439 429.352 523.721 429.352 Q518.004 429.352 514.925 426.667 Q511.869 423.982 511.869 418.958 Q511.869 415.648 513.768 413.357 Q515.666 411.065 519.045 410.278 M517.332 402.894 Q517.332 405.579 518.999 407.084 Q520.689 408.588 523.721 408.588 Q526.73 408.588 528.42 407.084 Q530.133 405.579 530.133 402.894 Q530.133 400.209 528.42 398.704 Q526.73 397.199 523.721 397.199 Q520.689 397.199 518.999 398.704 Q517.332 400.209 517.332 402.894 Z" fill="#adb2b7" fill-rule="nonzero" fill-opacity="1" /><path clip-path="url(#clip170)" d="M544.369 422.801 L549.253 422.801 L549.253 428.681 L544.369 428.681 L544.369 422.801 M544.369 404.167 L549.253 404.167 L549.253 410.046 L544.369 410.046 L544.369 404.167 Z" fill="#adb2b7" fill-rule="nonzero" fill-opacity="1" /><path clip-path="url(#clip170)" d="M569.855 397.199 Q566.244 397.199 564.415 400.764 Q562.61 404.306 562.61 411.435 Q562.61 418.542 564.415 422.107 Q566.244 425.648 569.855 425.648 Q573.489 425.648 575.295 422.107 Q577.124 418.542 577.124 411.435 Q577.124 404.306 575.295 400.764 Q573.489 397.199 569.855 397.199 M569.855 393.496 Q575.665 393.496 578.721 398.102 Q581.8 402.685 581.8 411.435 Q581.8 420.162 578.721 424.769 Q575.665 429.352 569.855 429.352 Q564.045 429.352 560.966 424.769 Q557.911 420.162 557.911 411.435 Q557.911 402.685 560.966 398.102 Q564.045 393.496 569.855 393.496 Z" fill="#adb2b7" fill-rule="nonzero" fill-opacity="1" /><path clip-path="url(#clip170)" d="M600.017 397.199 Q596.406 397.199 594.577 400.764 Q592.772 404.306 592.772 411.435 Q592.772 418.542 594.577 422.107 Q596.406 425.648 600.017 425.648 Q603.651 425.648 605.457 422.107 Q607.286 418.542 607.286 411.435 Q607.286 404.306 605.457 400.764 Q603.651 397.199 600.017 397.199 M600.017 393.496 Q605.827 393.496 608.883 398.102 Q611.961 402.685 611.961 411.435 Q611.961 420.162 608.883 424.769 Q605.827 429.352 600.017 429.352 Q594.207 429.352 591.128 424.769 Q588.073 420.162 588.073 411.435 Q588.073 402.685 591.128 398.102 Q594.207 393.496 600.017 393.496 Z" fill="#adb2b7" fill-rule="nonzero" fill-opacity="1" /><path clip-path="url(#clip170)" d="M636.915 398.959 L636.915 411.852 L649.808 411.852 L649.808 415.787 L636.915 415.787 L636.915 428.681 L633.026 428.681 L633.026 415.787 L620.133 415.787 L620.133 411.852 L633.026 411.852 L633.026 398.959 L636.915 398.959 Z" fill="#adb2b7" fill-rule="nonzero" fill-opacity="1" /><path clip-path="url(#clip170)" d="M1908 1462.4 L1916.6 1462.4 L1916.6 1432.74 L1907.25 1434.61 L1907.25 1429.82 L1916.54 1427.94 L1921.8 1427.94 L1921.8 1462.4 L1930.4 1462.4 L1930.4 1466.82 L1908 1466.82 L1908 1462.4 Z" fill="#000000" fill-rule="nonzero" fill-opacity="1" /><path clip-path="url(#clip170)" d="M1955.48 1432.53 L1942.19 1453.28 L1955.48 1453.28 L1955.48 1432.53 M1954.1 1427.94 L1960.71 1427.94 L1960.71 1453.28 L1966.26 1453.28 L1966.26 1457.66 L1960.71 1457.66 L1960.71 1466.82 L1955.48 1466.82 L1955.48 1457.66 L1937.92 1457.66 L1937.92 1452.58 L1954.1 1427.94 Z" fill="#000000" fill-rule="nonzero" fill-opacity="1" /><path clip-path="url(#clip170)" d="M1975.5 1460.21 L1981 1460.21 L1981 1466.82 L1975.5 1466.82 L1975.5 1460.21 M1975.5 1439.25 L1981 1439.25 L1981 1445.86 L1975.5 1445.86 L1975.5 1439.25 Z" fill="#000000" fill-rule="nonzero" fill-opacity="1" /><path clip-path="url(#clip170)" d="M2004.17 1431.41 Q2000.11 1431.41 1998.05 1435.42 Q1996.02 1439.4 1996.02 1447.42 Q1996.02 1455.42 1998.05 1459.43 Q2000.11 1463.41 2004.17 1463.41 Q2008.26 1463.41 2010.29 1459.43 Q2012.35 1455.42 2012.35 1447.42 Q2012.35 1439.4 2010.29 1435.42 Q2008.26 1431.41 2004.17 1431.41 M2004.17 1427.24 Q2010.71 1427.24 2014.15 1432.42 Q2017.61 1437.58 2017.61 1447.42 Q2017.61 1457.24 2014.15 1462.42 Q2010.71 1467.58 2004.17 1467.58 Q1997.64 1467.58 1994.17 1462.42 Q1990.74 1457.24 1990.74 1447.42 Q1990.74 1437.58 1994.17 1432.42 Q1997.64 1427.24 2004.17 1427.24 Z" fill="#000000" fill-rule="nonzero" fill-opacity="1" /><path clip-path="url(#clip170)" d="M2038.11 1431.41 Q2034.04 1431.41 2031.99 1435.42 Q2029.95 1439.4 2029.95 1447.42 Q2029.95 1455.42 2031.99 1459.43 Q2034.04 1463.41 2038.11 1463.41 Q2042.19 1463.41 2044.23 1459.43 Q2046.28 1455.42 2046.28 1447.42 Q2046.28 1439.4 2044.23 1435.42 Q2042.19 1431.41 2038.11 1431.41 M2038.11 1427.24 Q2044.64 1427.24 2048.08 1432.42 Q2051.54 1437.58 2051.54 1447.42 Q2051.54 1457.24 2048.08 1462.42 Q2044.64 1467.58 2038.11 1467.58 Q2031.57 1467.58 2028.11 1462.42 Q2024.67 1457.24 2024.67 1447.42 Q2024.67 1437.58 2028.11 1432.42 Q2031.57 1427.24 2038.11 1427.24 Z" fill="#000000" fill-rule="nonzero" fill-opacity="1" /><path clip-path="url(#clip170)" d="M2079.62 1433.39 L2079.62 1447.89 L2094.12 1447.89 L2094.12 1452.32 L2079.62 1452.32 L2079.62 1466.82 L2075.24 1466.82 L2075.24 1452.32 L2060.74 1452.32 L2060.74 1447.89 L2075.24 1447.89 L2075.24 1433.39 L2079.62 1433.39 Z" fill="#000000" fill-rule="nonzero" fill-opacity="1" /><path clip-path="url(#clip170)" d="M600.92 1190.47 L609.514 1190.47 L609.514 1160.81 L600.165 1162.68 L600.165 1157.89 L609.461 1156.02 L614.722 1156.02 L614.722 1190.47 L623.316 1190.47 L623.316 1194.9 L600.92 1194.9 L600.92 1190.47 Z" fill="#000000" fill-rule="nonzero" fill-opacity="1" /><path clip-path="url(#clip170)" d="M633.993 1156.02 L654.644 1156.02 L654.644 1160.44 L638.81 1160.44 L638.81 1169.97 Q639.956 1169.58 641.102 1169.4 Q642.248 1169.19 643.394 1169.19 Q649.904 1169.19 653.706 1172.76 Q657.508 1176.33 657.508 1182.42 Q657.508 1188.7 653.602 1192.19 Q649.696 1195.65 642.586 1195.65 Q640.138 1195.65 637.586 1195.23 Q635.06 1194.82 632.352 1193.98 L632.352 1188.7 Q634.696 1189.97 637.196 1190.6 Q639.696 1191.22 642.482 1191.22 Q646.987 1191.22 649.618 1188.85 Q652.248 1186.48 652.248 1182.42 Q652.248 1178.36 649.618 1175.99 Q646.987 1173.62 642.482 1173.62 Q640.373 1173.62 638.263 1174.09 Q636.18 1174.56 633.993 1175.55 L633.993 1156.02 Z" fill="#000000" fill-rule="nonzero" fill-opacity="1" /><path clip-path="url(#clip170)" d="M668.42 1188.28 L673.914 1188.28 L673.914 1194.9 L668.42 1194.9 L668.42 1188.28 M668.42 1167.32 L673.914 1167.32 L673.914 1173.93 L668.42 1173.93 L668.42 1167.32 Z" fill="#000000" fill-rule="nonzero" fill-opacity="1" /><path clip-path="url(#clip170)" d="M697.091 1159.48 Q693.029 1159.48 690.971 1163.49 Q688.94 1167.47 688.94 1175.5 Q688.94 1183.49 690.971 1187.5 Q693.029 1191.48 697.091 1191.48 Q701.18 1191.48 703.211 1187.5 Q705.268 1183.49 705.268 1175.5 Q705.268 1167.47 703.211 1163.49 Q701.18 1159.48 697.091 1159.48 M697.091 1155.31 Q703.628 1155.31 707.065 1160.5 Q710.529 1165.65 710.529 1175.5 Q710.529 1185.31 707.065 1190.5 Q703.628 1195.65 697.091 1195.65 Q690.555 1195.65 687.091 1190.5 Q683.654 1185.31 683.654 1175.5 Q683.654 1165.65 687.091 1160.5 Q690.555 1155.31 697.091 1155.31 Z" fill="#000000" fill-rule="nonzero" fill-opacity="1" /><path clip-path="url(#clip170)" d="M731.023 1159.48 Q726.961 1159.48 724.904 1163.49 Q722.872 1167.47 722.872 1175.5 Q722.872 1183.49 724.904 1187.5 Q726.961 1191.48 731.023 1191.48 Q735.112 1191.48 737.143 1187.5 Q739.2 1183.49 739.2 1175.5 Q739.2 1167.47 737.143 1163.49 Q735.112 1159.48 731.023 1159.48 M731.023 1155.31 Q737.56 1155.31 740.997 1160.5 Q744.461 1165.65 744.461 1175.5 Q744.461 1185.31 740.997 1190.5 Q737.56 1195.65 731.023 1195.65 Q724.487 1195.65 721.023 1190.5 Q717.586 1185.31 717.586 1175.5 Q717.586 1165.65 721.023 1160.5 Q724.487 1155.31 731.023 1155.31 Z" fill="#000000" fill-rule="nonzero" fill-opacity="1" /><path clip-path="url(#clip170)" d="M772.534 1161.46 L772.534 1175.96 L787.039 1175.96 L787.039 1180.39 L772.534 1180.39 L772.534 1194.9 L768.159 1194.9 L768.159 1180.39 L753.653 1180.39 L753.653 1175.96 L768.159 1175.96 L768.159 1161.46 L772.534 1161.46 Z" fill="#000000" fill-rule="nonzero" fill-opacity="1" /><path clip-path="url(#clip170)" d="M284.468 444.641 L293.062 444.641 L293.062 414.98 L283.713 416.855 L283.713 412.064 L293.01 410.189 L298.27 410.189 L298.27 444.641 L306.864 444.641 L306.864 449.069 L284.468 449.069 L284.468 444.641 Z" fill="#000000" fill-rule="nonzero" fill-opacity="1" /><path clip-path="url(#clip170)" d="M329.39 427.532 Q325.848 427.532 323.765 429.954 Q321.708 432.376 321.708 436.595 Q321.708 440.787 323.765 443.235 Q325.848 445.657 329.39 445.657 Q332.932 445.657 334.989 443.235 Q337.072 440.787 337.072 436.595 Q337.072 432.376 334.989 429.954 Q332.932 427.532 329.39 427.532 M339.833 411.048 L339.833 415.84 Q337.853 414.902 335.822 414.407 Q333.817 413.912 331.838 413.912 Q326.63 413.912 323.869 417.428 Q321.135 420.944 320.744 428.053 Q322.281 425.787 324.598 424.59 Q326.916 423.366 329.702 423.366 Q335.562 423.366 338.947 426.933 Q342.359 430.475 342.359 436.595 Q342.359 442.584 338.817 446.204 Q335.275 449.824 329.39 449.824 Q322.645 449.824 319.078 444.668 Q315.51 439.485 315.51 429.668 Q315.51 420.449 319.885 414.98 Q324.26 409.485 331.63 409.485 Q333.609 409.485 335.614 409.876 Q337.645 410.267 339.833 411.048 Z" fill="#000000" fill-rule="nonzero" fill-opacity="1" /><path clip-path="url(#clip170)" d="M351.968 442.454 L357.463 442.454 L357.463 449.069 L351.968 449.069 L351.968 442.454 M351.968 421.491 L357.463 421.491 L357.463 428.105 L351.968 428.105 L351.968 421.491 Z" fill="#000000" fill-rule="nonzero" fill-opacity="1" /><path clip-path="url(#clip170)" d="M380.64 413.652 Q376.577 413.652 374.52 417.662 Q372.489 421.647 372.489 429.668 Q372.489 437.662 374.52 441.673 Q376.577 445.657 380.64 445.657 Q384.728 445.657 386.759 441.673 Q388.817 437.662 388.817 429.668 Q388.817 421.647 386.759 417.662 Q384.728 413.652 380.64 413.652 M380.64 409.485 Q387.176 409.485 390.614 414.668 Q394.077 419.824 394.077 429.668 Q394.077 439.485 390.614 444.668 Q387.176 449.824 380.64 449.824 Q374.103 449.824 370.64 444.668 Q367.202 439.485 367.202 429.668 Q367.202 419.824 370.64 414.668 Q374.103 409.485 380.64 409.485 Z" fill="#000000" fill-rule="nonzero" fill-opacity="1" /><path clip-path="url(#clip170)" d="M414.572 413.652 Q410.509 413.652 408.452 417.662 Q406.421 421.647 406.421 429.668 Q406.421 437.662 408.452 441.673 Q410.509 445.657 414.572 445.657 Q418.66 445.657 420.692 441.673 Q422.749 437.662 422.749 429.668 Q422.749 421.647 420.692 417.662 Q418.66 413.652 414.572 413.652 M414.572 409.485 Q421.108 409.485 424.546 414.668 Q428.009 419.824 428.009 429.668 Q428.009 439.485 424.546 444.668 Q421.108 449.824 414.572 449.824 Q408.035 449.824 404.572 444.668 Q401.134 439.485 401.134 429.668 Q401.134 419.824 404.572 414.668 Q408.035 409.485 414.572 409.485 Z" fill="#000000" fill-rule="nonzero" fill-opacity="1" /><path clip-path="url(#clip170)" d="M456.082 415.631 L456.082 430.136 L470.587 430.136 L470.587 434.563 L456.082 434.563 L456.082 449.069 L451.707 449.069 L451.707 434.563 L437.202 434.563 L437.202 430.136 L451.707 430.136 L451.707 415.631 L456.082 415.631 Z" fill="#000000" fill-rule="nonzero" fill-opacity="1" /><path clip-path="url(#clip170)" d="M958.648 726.184 L967.241 726.184 L967.241 696.523 L957.893 698.398 L957.893 693.607 L967.189 691.732 L972.45 691.732 L972.45 726.184 L981.043 726.184 L981.043 730.612 L958.648 730.612 L958.648 726.184 Z" fill="#000000" fill-rule="nonzero" fill-opacity="1" /><path clip-path="url(#clip170)" d="M990.34 691.732 L1015.34 691.732 L1015.34 693.971 L1001.23 730.612 L995.731 730.612 L1009.01 696.159 L990.34 696.159 L990.34 691.732 Z" fill="#000000" fill-rule="nonzero" fill-opacity="1" /><path clip-path="url(#clip170)" d="M1026.15 723.997 L1031.64 723.997 L1031.64 730.612 L1026.15 730.612 L1026.15 723.997 M1026.15 703.034 L1031.64 703.034 L1031.64 709.648 L1026.15 709.648 L1026.15 703.034 Z" fill="#000000" fill-rule="nonzero" fill-opacity="1" /><path clip-path="url(#clip170)" d="M1054.82 695.195 Q1050.76 695.195 1048.7 699.205 Q1046.67 703.19 1046.67 711.211 Q1046.67 719.205 1048.7 723.216 Q1050.76 727.2 1054.82 727.2 Q1058.91 727.2 1060.94 723.216 Q1063 719.205 1063 711.211 Q1063 703.19 1060.94 699.205 Q1058.91 695.195 1054.82 695.195 M1054.82 691.028 Q1061.36 691.028 1064.79 696.211 Q1068.26 701.367 1068.26 711.211 Q1068.26 721.028 1064.79 726.211 Q1061.36 731.367 1054.82 731.367 Q1048.28 731.367 1044.82 726.211 Q1041.38 721.028 1041.38 711.211 Q1041.38 701.367 1044.82 696.211 Q1048.28 691.028 1054.82 691.028 Z" fill="#000000" fill-rule="nonzero" fill-opacity="1" /><path clip-path="url(#clip170)" d="M1088.75 695.195 Q1084.69 695.195 1082.63 699.205 Q1080.6 703.19 1080.6 711.211 Q1080.6 719.205 1082.63 723.216 Q1084.69 727.2 1088.75 727.2 Q1092.84 727.2 1094.87 723.216 Q1096.93 719.205 1096.93 711.211 Q1096.93 703.19 1094.87 699.205 Q1092.84 695.195 1088.75 695.195 M1088.75 691.028 Q1095.29 691.028 1098.73 696.211 Q1102.19 701.367 1102.19 711.211 Q1102.19 721.028 1098.73 726.211 Q1095.29 731.367 1088.75 731.367 Q1082.21 731.367 1078.75 726.211 Q1075.31 721.028 1075.31 711.211 Q1075.31 701.367 1078.75 696.211 Q1082.21 691.028 1088.75 691.028 Z" fill="#000000" fill-rule="nonzero" fill-opacity="1" /><path clip-path="url(#clip170)" d="M1130.26 697.174 L1130.26 711.679 L1144.77 711.679 L1144.77 716.106 L1130.26 716.106 L1130.26 730.612 L1125.89 730.612 L1125.89 716.106 L1111.38 716.106 L1111.38 711.679 L1125.89 711.679 L1125.89 697.174 L1130.26 697.174 Z" fill="#000000" fill-rule="nonzero" fill-opacity="1" /><path clip-path="url(#clip170)" d="M2293.25 160.269 L2301.84 160.269 L2301.84 130.608 L2292.49 132.483 L2292.49 127.691 L2301.79 125.816 L2307.05 125.816 L2307.05 160.269 L2315.64 160.269 L2315.64 164.696 L2293.25 164.696 L2293.25 160.269 Z" fill="#000000" fill-rule="nonzero" fill-opacity="1" /><path clip-path="url(#clip170)" d="M2337.52 146.233 Q2333.77 146.233 2331.61 148.238 Q2329.47 150.243 2329.47 153.759 Q2329.47 157.274 2331.61 159.279 Q2333.77 161.285 2337.52 161.285 Q2341.27 161.285 2343.43 159.279 Q2345.59 157.248 2345.59 153.759 Q2345.59 150.243 2343.43 148.238 Q2341.29 146.233 2337.52 146.233 M2332.26 143.993 Q2328.87 143.16 2326.97 140.842 Q2325.1 138.524 2325.1 135.191 Q2325.1 130.529 2328.4 127.821 Q2331.74 125.113 2337.52 125.113 Q2343.33 125.113 2346.63 127.821 Q2349.94 130.529 2349.94 135.191 Q2349.94 138.524 2348.04 140.842 Q2346.16 143.16 2342.8 143.993 Q2346.61 144.878 2348.72 147.456 Q2350.85 150.035 2350.85 153.759 Q2350.85 159.41 2347.39 162.43 Q2343.95 165.451 2337.52 165.451 Q2331.09 165.451 2327.62 162.43 Q2324.19 159.41 2324.19 153.759 Q2324.19 150.035 2326.32 147.456 Q2328.46 144.878 2332.26 143.993 M2330.33 135.686 Q2330.33 138.707 2332.21 140.399 Q2334.11 142.092 2337.52 142.092 Q2340.9 142.092 2342.8 140.399 Q2344.73 138.707 2344.73 135.686 Q2344.73 132.665 2342.8 130.972 Q2340.9 129.279 2337.52 129.279 Q2334.11 129.279 2332.21 130.972 Q2330.33 132.665 2330.33 135.686 Z" fill="#000000" fill-rule="nonzero" fill-opacity="1" /><path clip-path="url(#clip170)" d="M2360.75 158.081 L2366.24 158.081 L2366.24 164.696 L2360.75 164.696 L2360.75 158.081 M2360.75 137.118 L2366.24 137.118 L2366.24 143.733 L2360.75 143.733 L2360.75 137.118 Z" fill="#000000" fill-rule="nonzero" fill-opacity="1" /><path clip-path="url(#clip170)" d="M2389.42 129.279 Q2385.36 129.279 2383.3 133.29 Q2381.27 137.274 2381.27 145.295 Q2381.27 153.29 2383.3 157.3 Q2385.36 161.285 2389.42 161.285 Q2393.51 161.285 2395.54 157.3 Q2397.6 153.29 2397.6 145.295 Q2397.6 137.274 2395.54 133.29 Q2393.51 129.279 2389.42 129.279 M2389.42 125.113 Q2395.96 125.113 2399.39 130.295 Q2402.86 135.451 2402.86 145.295 Q2402.86 155.113 2399.39 160.295 Q2395.96 165.451 2389.42 165.451 Q2382.88 165.451 2379.42 160.295 Q2375.98 155.113 2375.98 145.295 Q2375.98 135.451 2379.42 130.295 Q2382.88 125.113 2389.42 125.113 Z" fill="#000000" fill-rule="nonzero" fill-opacity="1" /><path clip-path="url(#clip170)" d="M2423.35 129.279 Q2419.29 129.279 2417.23 133.29 Q2415.2 137.274 2415.2 145.295 Q2415.2 153.29 2417.23 157.3 Q2419.29 161.285 2423.35 161.285 Q2427.44 161.285 2429.47 157.3 Q2431.53 153.29 2431.53 145.295 Q2431.53 137.274 2429.47 133.29 Q2427.44 129.279 2423.35 129.279 M2423.35 125.113 Q2429.89 125.113 2433.33 130.295 Q2436.79 135.451 2436.79 145.295 Q2436.79 155.113 2433.33 160.295 Q2429.89 165.451 2423.35 165.451 Q2416.81 165.451 2413.35 160.295 Q2409.91 155.113 2409.91 145.295 Q2409.91 135.451 2413.35 130.295 Q2416.81 125.113 2423.35 125.113 Z" fill="#000000" fill-rule="nonzero" fill-opacity="1" /><path clip-path="url(#clip170)" d="M2464.86 131.259 L2464.86 145.764 L2479.37 145.764 L2479.37 150.191 L2464.86 150.191 L2464.86 164.696 L2460.49 164.696 L2460.49 150.191 L2445.98 150.191 L2445.98 145.764 L2460.49 145.764 L2460.49 131.259 L2464.86 131.259 Z" fill="#000000" fill-rule="nonzero" fill-opacity="1" /></svg>
