<?xml version="1.0" encoding="utf-8"?>
<svg xmlns="http://www.w3.org/2000/svg" xmlns:xlink="http://www.w3.org/1999/xlink" width="600" height="400" viewBox="0 0 2400 1600">
<defs>
  <clipPath id="clip800">
    <rect x="0" y="0" width="2400" height="1600"/>
  </clipPath>
</defs>
<path clip-path="url(#clip800)" d="M0 1600 L2400 1600 L2400 0 L0 0  Z" fill="#282c34" fill-rule="evenodd" fill-opacity="1"/>
<defs>
  <clipPath id="clip801">
    <rect x="229" y="106" width="2124" height="1381"/>
  </clipPath>
</defs>
<path clip-path="url(#clip800)" d="M229.445 1486.45 L2352.76 1486.45 L2352.76 106.192 L229.445 106.192  Z" fill="#21252b" fill-rule="evenodd" fill-opacity="1"/>
<polyline clip-path="url(#clip801)" style="stroke:#adb2b7; stroke-linecap:round; stroke-linejoin:round; stroke-width:2; stroke-opacity:0.1; fill:none" points="272.706,1486.45 272.706,106.192 "/>
<polyline clip-path="url(#clip801)" style="stroke:#adb2b7; stroke-linecap:round; stroke-linejoin:round; stroke-width:2; stroke-opacity:0.1; fill:none" points="693.53,1486.45 693.53,106.192 "/>
<polyline clip-path="url(#clip801)" style="stroke:#adb2b7; stroke-linecap:round; stroke-linejoin:round; stroke-width:2; stroke-opacity:0.1; fill:none" points="1114.35,1486.45 1114.35,106.192 "/>
<polyline clip-path="url(#clip801)" style="stroke:#adb2b7; stroke-linecap:round; stroke-linejoin:round; stroke-width:2; stroke-opacity:0.1; fill:none" points="1535.18,1486.45 1535.18,106.192 "/>
<polyline clip-path="url(#clip801)" style="stroke:#adb2b7; stroke-linecap:round; stroke-linejoin:round; stroke-width:2; stroke-opacity:0.1; fill:none" points="1956,1486.45 1956,106.192 "/>
<polyline clip-path="url(#clip801)" style="stroke:#adb2b7; stroke-linecap:round; stroke-linejoin:round; stroke-width:2; stroke-opacity:0.1; fill:none" points="229.445,1446.71 2352.76,1446.71 "/>
<polyline clip-path="url(#clip801)" style="stroke:#adb2b7; stroke-linecap:round; stroke-linejoin:round; stroke-width:2; stroke-opacity:0.1; fill:none" points="229.445,1209.62 2352.76,1209.62 "/>
<polyline clip-path="url(#clip801)" style="stroke:#adb2b7; stroke-linecap:round; stroke-linejoin:round; stroke-width:2; stroke-opacity:0.1; fill:none" points="229.445,972.54 2352.76,972.54 "/>
<polyline clip-path="url(#clip801)" style="stroke:#adb2b7; stroke-linecap:round; stroke-linejoin:round; stroke-width:2; stroke-opacity:0.1; fill:none" points="229.445,735.457 2352.76,735.457 "/>
<polyline clip-path="url(#clip801)" style="stroke:#adb2b7; stroke-linecap:round; stroke-linejoin:round; stroke-width:2; stroke-opacity:0.1; fill:none" points="229.445,498.375 2352.76,498.375 "/>
<polyline clip-path="url(#clip801)" style="stroke:#adb2b7; stroke-linecap:round; stroke-linejoin:round; stroke-width:2; stroke-opacity:0.1; fill:none" points="229.445,261.292 2352.76,261.292 "/>
<polyline clip-path="url(#clip800)" style="stroke:#adb2b7; stroke-linecap:round; stroke-linejoin:round; stroke-width:4; stroke-opacity:1; fill:none" points="229.445,1486.45 2352.76,1486.45 "/>
<polyline clip-path="url(#clip800)" style="stroke:#adb2b7; stroke-linecap:round; stroke-linejoin:round; stroke-width:4; stroke-opacity:1; fill:none" points="272.706,1486.45 272.706,1467.55 "/>
<polyline clip-path="url(#clip800)" style="stroke:#adb2b7; stroke-linecap:round; stroke-linejoin:round; stroke-width:4; stroke-opacity:1; fill:none" points="693.53,1486.45 693.53,1467.55 "/>
<polyline clip-path="url(#clip800)" style="stroke:#adb2b7; stroke-linecap:round; stroke-linejoin:round; stroke-width:4; stroke-opacity:1; fill:none" points="1114.35,1486.45 1114.35,1467.55 "/>
<polyline clip-path="url(#clip800)" style="stroke:#adb2b7; stroke-linecap:round; stroke-linejoin:round; stroke-width:4; stroke-opacity:1; fill:none" points="1535.18,1486.45 1535.18,1467.55 "/>
<polyline clip-path="url(#clip800)" style="stroke:#adb2b7; stroke-linecap:round; stroke-linejoin:round; stroke-width:4; stroke-opacity:1; fill:none" points="1956,1486.45 1956,1467.55 "/>
<path clip-path="url(#clip800)" d="M272.706 1517.37 Q269.095 1517.37 267.266 1520.93 Q265.46 1524.47 265.46 1531.6 Q265.46 1538.71 267.266 1542.27 Q269.095 1545.82 272.706 1545.82 Q276.34 1545.82 278.146 1542.27 Q279.974 1538.71 279.974 1531.6 Q279.974 1524.47 278.146 1520.93 Q276.34 1517.37 272.706 1517.37 M272.706 1513.66 Q278.516 1513.66 281.571 1518.27 Q284.65 1522.85 284.65 1531.6 Q284.65 1540.33 281.571 1544.94 Q278.516 1549.52 272.706 1549.52 Q266.896 1549.52 263.817 1544.94 Q260.761 1540.33 260.761 1531.6 Q260.761 1522.85 263.817 1518.27 Q266.896 1513.66 272.706 1513.66 Z" fill="#9eb1be" fill-rule="nonzero" fill-opacity="1" /><path clip-path="url(#clip800)" d="M672.801 1544.91 L689.12 1544.91 L689.12 1548.85 L667.176 1548.85 L667.176 1544.91 Q669.838 1542.16 674.421 1537.53 Q679.028 1532.88 680.208 1531.53 Q682.454 1529.01 683.333 1527.27 Q684.236 1525.51 684.236 1523.82 Q684.236 1521.07 682.292 1519.33 Q680.37 1517.6 677.269 1517.6 Q675.07 1517.6 672.616 1518.36 Q670.185 1519.13 667.408 1520.68 L667.408 1515.95 Q670.232 1514.82 672.685 1514.24 Q675.139 1513.66 677.176 1513.66 Q682.546 1513.66 685.741 1516.35 Q688.935 1519.03 688.935 1523.52 Q688.935 1525.65 688.125 1527.57 Q687.338 1529.47 685.231 1532.07 Q684.653 1532.74 681.551 1535.95 Q678.449 1539.15 672.801 1544.91 Z" fill="#9eb1be" fill-rule="nonzero" fill-opacity="1" /><path clip-path="url(#clip800)" d="M698.981 1514.29 L717.338 1514.29 L717.338 1518.22 L703.264 1518.22 L703.264 1526.7 Q704.282 1526.35 705.301 1526.19 Q706.319 1526 707.338 1526 Q713.125 1526 716.504 1529.17 Q719.884 1532.34 719.884 1537.76 Q719.884 1543.34 716.412 1546.44 Q712.94 1549.52 706.62 1549.52 Q704.444 1549.52 702.176 1549.15 Q699.93 1548.78 697.523 1548.04 L697.523 1543.34 Q699.606 1544.47 701.829 1545.03 Q704.051 1545.58 706.528 1545.58 Q710.532 1545.58 712.87 1543.48 Q715.208 1541.37 715.208 1537.76 Q715.208 1534.15 712.87 1532.04 Q710.532 1529.94 706.528 1529.94 Q704.653 1529.94 702.778 1530.35 Q700.926 1530.77 698.981 1531.65 L698.981 1514.29 Z" fill="#9eb1be" fill-rule="nonzero" fill-opacity="1" /><path clip-path="url(#clip800)" d="M1089.05 1514.29 L1107.41 1514.29 L1107.41 1518.22 L1093.34 1518.22 L1093.34 1526.7 Q1094.35 1526.35 1095.37 1526.19 Q1096.39 1526 1097.41 1526 Q1103.2 1526 1106.58 1529.17 Q1109.96 1532.34 1109.96 1537.76 Q1109.96 1543.34 1106.48 1546.44 Q1103.01 1549.52 1096.69 1549.52 Q1094.52 1549.52 1092.25 1549.15 Q1090 1548.78 1087.6 1548.04 L1087.6 1543.34 Q1089.68 1544.47 1091.9 1545.03 Q1094.12 1545.58 1096.6 1545.58 Q1100.6 1545.58 1102.94 1543.48 Q1105.28 1541.37 1105.28 1537.76 Q1105.28 1534.15 1102.94 1532.04 Q1100.6 1529.94 1096.6 1529.94 Q1094.72 1529.94 1092.85 1530.35 Q1091 1530.77 1089.05 1531.65 L1089.05 1514.29 Z" fill="#9eb1be" fill-rule="nonzero" fill-opacity="1" /><path clip-path="url(#clip800)" d="M1129.17 1517.37 Q1125.56 1517.37 1123.73 1520.93 Q1121.92 1524.47 1121.92 1531.6 Q1121.92 1538.71 1123.73 1542.27 Q1125.56 1545.82 1129.17 1545.82 Q1132.8 1545.82 1134.61 1542.27 Q1136.44 1538.71 1136.44 1531.6 Q1136.44 1524.47 1134.61 1520.93 Q1132.8 1517.37 1129.17 1517.37 M1129.17 1513.66 Q1134.98 1513.66 1138.03 1518.27 Q1141.11 1522.85 1141.11 1531.6 Q1141.11 1540.33 1138.03 1544.94 Q1134.98 1549.52 1129.17 1549.52 Q1123.36 1549.52 1120.28 1544.94 Q1117.22 1540.33 1117.22 1531.6 Q1117.22 1522.85 1120.28 1518.27 Q1123.36 1513.66 1129.17 1513.66 Z" fill="#9eb1be" fill-rule="nonzero" fill-opacity="1" /><path clip-path="url(#clip800)" d="M1509.03 1514.29 L1531.25 1514.29 L1531.25 1516.28 L1518.71 1548.85 L1513.82 1548.85 L1525.63 1518.22 L1509.03 1518.22 L1509.03 1514.29 Z" fill="#9eb1be" fill-rule="nonzero" fill-opacity="1" /><path clip-path="url(#clip800)" d="M1540.42 1514.29 L1558.78 1514.29 L1558.78 1518.22 L1544.7 1518.22 L1544.7 1526.7 Q1545.72 1526.35 1546.74 1526.19 Q1547.76 1526 1548.78 1526 Q1554.57 1526 1557.94 1529.17 Q1561.32 1532.34 1561.32 1537.76 Q1561.32 1543.34 1557.85 1546.44 Q1554.38 1549.52 1548.06 1549.52 Q1545.88 1549.52 1543.62 1549.15 Q1541.37 1548.78 1538.96 1548.04 L1538.96 1543.34 Q1541.05 1544.47 1543.27 1545.03 Q1545.49 1545.58 1547.97 1545.58 Q1551.97 1545.58 1554.31 1543.48 Q1556.65 1541.37 1556.65 1537.76 Q1556.65 1534.15 1554.31 1532.04 Q1551.97 1529.94 1547.97 1529.94 Q1546.09 1529.94 1544.22 1530.35 Q1542.37 1530.77 1540.42 1531.65 L1540.42 1514.29 Z" fill="#9eb1be" fill-rule="nonzero" fill-opacity="1" /><path clip-path="url(#clip800)" d="M1915.61 1544.91 L1923.25 1544.91 L1923.25 1518.55 L1914.94 1520.21 L1914.94 1515.95 L1923.2 1514.29 L1927.88 1514.29 L1927.88 1544.91 L1935.52 1544.91 L1935.52 1548.85 L1915.61 1548.85 L1915.61 1544.91 Z" fill="#9eb1be" fill-rule="nonzero" fill-opacity="1" /><path clip-path="url(#clip800)" d="M1954.96 1517.37 Q1951.35 1517.37 1949.52 1520.93 Q1947.72 1524.47 1947.72 1531.6 Q1947.72 1538.71 1949.52 1542.27 Q1951.35 1545.82 1954.96 1545.82 Q1958.6 1545.82 1960.4 1542.27 Q1962.23 1538.71 1962.23 1531.6 Q1962.23 1524.47 1960.4 1520.93 Q1958.6 1517.37 1954.96 1517.37 M1954.96 1513.66 Q1960.77 1513.66 1963.83 1518.27 Q1966.91 1522.85 1966.91 1531.6 Q1966.91 1540.33 1963.83 1544.94 Q1960.77 1549.52 1954.96 1549.52 Q1949.15 1549.52 1946.07 1544.94 Q1943.02 1540.33 1943.02 1531.6 Q1943.02 1522.85 1946.07 1518.27 Q1949.15 1513.66 1954.96 1513.66 Z" fill="#9eb1be" fill-rule="nonzero" fill-opacity="1" /><path clip-path="url(#clip800)" d="M1985.12 1517.37 Q1981.51 1517.37 1979.68 1520.93 Q1977.88 1524.47 1977.88 1531.6 Q1977.88 1538.71 1979.68 1542.27 Q1981.51 1545.82 1985.12 1545.82 Q1988.76 1545.82 1990.56 1542.27 Q1992.39 1538.71 1992.39 1531.6 Q1992.39 1524.47 1990.56 1520.93 Q1988.76 1517.37 1985.12 1517.37 M1985.12 1513.66 Q1990.93 1513.66 1993.99 1518.27 Q1997.07 1522.85 1997.07 1531.6 Q1997.07 1540.33 1993.99 1544.94 Q1990.93 1549.52 1985.12 1549.52 Q1979.31 1549.52 1976.23 1544.94 Q1973.18 1540.33 1973.18 1531.6 Q1973.18 1522.85 1976.23 1518.27 Q1979.31 1513.66 1985.12 1513.66 Z" fill="#9eb1be" fill-rule="nonzero" fill-opacity="1" /><polyline clip-path="url(#clip800)" style="stroke:#adb2b7; stroke-linecap:round; stroke-linejoin:round; stroke-width:4; stroke-opacity:1; fill:none" points="229.445,1486.45 229.445,106.192 "/>
<polyline clip-path="url(#clip800)" style="stroke:#adb2b7; stroke-linecap:round; stroke-linejoin:round; stroke-width:4; stroke-opacity:1; fill:none" points="229.445,1446.71 248.343,1446.71 "/>
<polyline clip-path="url(#clip800)" style="stroke:#adb2b7; stroke-linecap:round; stroke-linejoin:round; stroke-width:4; stroke-opacity:1; fill:none" points="229.445,1209.62 248.343,1209.62 "/>
<polyline clip-path="url(#clip800)" style="stroke:#adb2b7; stroke-linecap:round; stroke-linejoin:round; stroke-width:4; stroke-opacity:1; fill:none" points="229.445,972.54 248.343,972.54 "/>
<polyline clip-path="url(#clip800)" style="stroke:#adb2b7; stroke-linecap:round; stroke-linejoin:round; stroke-width:4; stroke-opacity:1; fill:none" points="229.445,735.457 248.343,735.457 "/>
<polyline clip-path="url(#clip800)" style="stroke:#adb2b7; stroke-linecap:round; stroke-linejoin:round; stroke-width:4; stroke-opacity:1; fill:none" points="229.445,498.375 248.343,498.375 "/>
<polyline clip-path="url(#clip800)" style="stroke:#adb2b7; stroke-linecap:round; stroke-linejoin:round; stroke-width:4; stroke-opacity:1; fill:none" points="229.445,261.292 248.343,261.292 "/>
<path clip-path="url(#clip800)" d="M91.0151 1447.57 Q87.6817 1447.57 85.7605 1449.36 Q83.8623 1451.14 83.8623 1454.26 Q83.8623 1457.39 85.7605 1459.17 Q87.6817 1460.95 91.0151 1460.95 Q94.3484 1460.95 96.2697 1459.17 Q98.1909 1457.37 98.1909 1454.26 Q98.1909 1451.14 96.2697 1449.36 Q94.3715 1447.57 91.0151 1447.57 M86.3392 1445.58 Q83.3299 1444.84 81.6401 1442.78 Q79.9735 1440.72 79.9735 1437.76 Q79.9735 1433.62 82.9133 1431.21 Q85.8762 1428.8 91.0151 1428.8 Q96.1771 1428.8 99.1169 1431.21 Q102.057 1433.62 102.057 1437.76 Q102.057 1440.72 100.367 1442.78 Q98.7002 1444.84 95.7141 1445.58 Q99.0937 1446.37 100.969 1448.66 Q102.867 1450.95 102.867 1454.26 Q102.867 1459.29 99.7882 1461.97 Q96.7326 1464.66 91.0151 1464.66 Q85.2975 1464.66 82.2188 1461.97 Q79.1633 1459.29 79.1633 1454.26 Q79.1633 1450.95 81.0614 1448.66 Q82.9595 1446.37 86.3392 1445.58 M84.6262 1438.2 Q84.6262 1440.88 86.2929 1442.39 Q87.9827 1443.89 91.0151 1443.89 Q94.0243 1443.89 95.7141 1442.39 Q97.4271 1440.88 97.4271 1438.2 Q97.4271 1435.51 95.7141 1434.01 Q94.0243 1432.5 91.0151 1432.5 Q87.9827 1432.5 86.2929 1434.01 Q84.6262 1435.51 84.6262 1438.2 Z" fill="#9eb1be" fill-rule="nonzero" fill-opacity="1" /><path clip-path="url(#clip800)" d="M121.177 1432.5 Q117.566 1432.5 115.737 1436.07 Q113.932 1439.61 113.932 1446.74 Q113.932 1453.85 115.737 1457.41 Q117.566 1460.95 121.177 1460.95 Q124.811 1460.95 126.617 1457.41 Q128.445 1453.85 128.445 1446.74 Q128.445 1439.61 126.617 1436.07 Q124.811 1432.5 121.177 1432.5 M121.177 1428.8 Q126.987 1428.8 130.043 1433.41 Q133.121 1437.99 133.121 1446.74 Q133.121 1455.47 130.043 1460.07 Q126.987 1464.66 121.177 1464.66 Q115.367 1464.66 112.288 1460.07 Q109.233 1455.47 109.233 1446.74 Q109.233 1437.99 112.288 1433.41 Q115.367 1428.8 121.177 1428.8 Z" fill="#9eb1be" fill-rule="nonzero" fill-opacity="1" /><path clip-path="url(#clip800)" d="M151.339 1432.5 Q147.728 1432.5 145.899 1436.07 Q144.093 1439.61 144.093 1446.74 Q144.093 1453.85 145.899 1457.41 Q147.728 1460.95 151.339 1460.95 Q154.973 1460.95 156.779 1457.41 Q158.607 1453.85 158.607 1446.74 Q158.607 1439.61 156.779 1436.07 Q154.973 1432.5 151.339 1432.5 M151.339 1428.8 Q157.149 1428.8 160.205 1433.41 Q163.283 1437.99 163.283 1446.74 Q163.283 1455.47 160.205 1460.07 Q157.149 1464.66 151.339 1464.66 Q145.529 1464.66 142.45 1460.07 Q139.394 1455.47 139.394 1446.74 Q139.394 1437.99 142.45 1433.41 Q145.529 1428.8 151.339 1428.8 Z" fill="#9eb1be" fill-rule="nonzero" fill-opacity="1" /><path clip-path="url(#clip800)" d="M181.501 1432.5 Q177.89 1432.5 176.061 1436.07 Q174.255 1439.61 174.255 1446.74 Q174.255 1453.85 176.061 1457.41 Q177.89 1460.95 181.501 1460.95 Q185.135 1460.95 186.94 1457.41 Q188.769 1453.85 188.769 1446.74 Q188.769 1439.61 186.94 1436.07 Q185.135 1432.5 181.501 1432.5 M181.501 1428.8 Q187.311 1428.8 190.366 1433.41 Q193.445 1437.99 193.445 1446.74 Q193.445 1455.47 190.366 1460.07 Q187.311 1464.66 181.501 1464.66 Q175.691 1464.66 172.612 1460.07 Q169.556 1455.47 169.556 1446.74 Q169.556 1437.99 172.612 1433.41 Q175.691 1428.8 181.501 1428.8 Z" fill="#9eb1be" fill-rule="nonzero" fill-opacity="1" /><path clip-path="url(#clip800)" d="M91.0151 1210.49 Q87.6817 1210.49 85.7605 1212.27 Q83.8623 1214.06 83.8623 1217.18 Q83.8623 1220.31 85.7605 1222.09 Q87.6817 1223.87 91.0151 1223.87 Q94.3484 1223.87 96.2697 1222.09 Q98.1909 1220.28 98.1909 1217.18 Q98.1909 1214.06 96.2697 1212.27 Q94.3715 1210.49 91.0151 1210.49 M86.3392 1208.5 Q83.3299 1207.76 81.6401 1205.7 Q79.9735 1203.64 79.9735 1200.68 Q79.9735 1196.53 82.9133 1194.13 Q85.8762 1191.72 91.0151 1191.72 Q96.1771 1191.72 99.1169 1194.13 Q102.057 1196.53 102.057 1200.68 Q102.057 1203.64 100.367 1205.7 Q98.7002 1207.76 95.7141 1208.5 Q99.0937 1209.29 100.969 1211.58 Q102.867 1213.87 102.867 1217.18 Q102.867 1222.2 99.7882 1224.89 Q96.7326 1227.57 91.0151 1227.57 Q85.2975 1227.57 82.2188 1224.89 Q79.1633 1222.2 79.1633 1217.18 Q79.1633 1213.87 81.0614 1211.58 Q82.9595 1209.29 86.3392 1208.5 M84.6262 1201.12 Q84.6262 1203.8 86.2929 1205.31 Q87.9827 1206.81 91.0151 1206.81 Q94.0243 1206.81 95.7141 1205.31 Q97.4271 1203.8 97.4271 1201.12 Q97.4271 1198.43 95.7141 1196.93 Q94.0243 1195.42 91.0151 1195.42 Q87.9827 1195.42 86.2929 1196.93 Q84.6262 1198.43 84.6262 1201.12 Z" fill="#9eb1be" fill-rule="nonzero" fill-opacity="1" /><path clip-path="url(#clip800)" d="M111.223 1192.34 L129.58 1192.34 L129.58 1196.28 L115.506 1196.28 L115.506 1204.75 Q116.524 1204.4 117.543 1204.24 Q118.561 1204.06 119.58 1204.06 Q125.367 1204.06 128.746 1207.23 Q132.126 1210.4 132.126 1215.82 Q132.126 1221.39 128.654 1224.5 Q125.182 1227.57 118.862 1227.57 Q116.686 1227.57 114.418 1227.2 Q112.172 1226.83 109.765 1226.09 L109.765 1221.39 Q111.848 1222.53 114.07 1223.08 Q116.293 1223.64 118.77 1223.64 Q122.774 1223.64 125.112 1221.53 Q127.45 1219.43 127.45 1215.82 Q127.45 1212.2 125.112 1210.1 Q122.774 1207.99 118.77 1207.99 Q116.895 1207.99 115.02 1208.41 Q113.168 1208.82 111.223 1209.7 L111.223 1192.34 Z" fill="#9eb1be" fill-rule="nonzero" fill-opacity="1" /><path clip-path="url(#clip800)" d="M151.339 1195.42 Q147.728 1195.42 145.899 1198.99 Q144.093 1202.53 144.093 1209.66 Q144.093 1216.76 145.899 1220.33 Q147.728 1223.87 151.339 1223.87 Q154.973 1223.87 156.779 1220.33 Q158.607 1216.76 158.607 1209.66 Q158.607 1202.53 156.779 1198.99 Q154.973 1195.42 151.339 1195.42 M151.339 1191.72 Q157.149 1191.72 160.205 1196.32 Q163.283 1200.91 163.283 1209.66 Q163.283 1218.38 160.205 1222.99 Q157.149 1227.57 151.339 1227.57 Q145.529 1227.57 142.45 1222.99 Q139.394 1218.38 139.394 1209.66 Q139.394 1200.91 142.45 1196.32 Q145.529 1191.72 151.339 1191.72 Z" fill="#9eb1be" fill-rule="nonzero" fill-opacity="1" /><path clip-path="url(#clip800)" d="M181.501 1195.42 Q177.89 1195.42 176.061 1198.99 Q174.255 1202.53 174.255 1209.66 Q174.255 1216.76 176.061 1220.33 Q177.89 1223.87 181.501 1223.87 Q185.135 1223.87 186.94 1220.33 Q188.769 1216.76 188.769 1209.66 Q188.769 1202.53 186.94 1198.99 Q185.135 1195.42 181.501 1195.42 M181.501 1191.72 Q187.311 1191.72 190.366 1196.32 Q193.445 1200.91 193.445 1209.66 Q193.445 1218.38 190.366 1222.99 Q187.311 1227.57 181.501 1227.57 Q175.691 1227.57 172.612 1222.99 Q169.556 1218.38 169.556 1209.66 Q169.556 1200.91 172.612 1196.32 Q175.691 1191.72 181.501 1191.72 Z" fill="#9eb1be" fill-rule="nonzero" fill-opacity="1" /><path clip-path="url(#clip800)" d="M81.154 989.103 L81.154 984.844 Q82.9133 985.677 84.7188 986.117 Q86.5243 986.556 88.2604 986.556 Q92.89 986.556 95.3206 983.455 Q97.7743 980.33 98.1215 973.987 Q96.7789 975.978 94.7187 977.043 Q92.6586 978.107 90.1586 978.107 Q84.9734 978.107 81.941 974.982 Q78.9318 971.834 78.9318 966.395 Q78.9318 961.071 82.0799 957.853 Q85.2281 954.635 90.4595 954.635 Q96.4548 954.635 99.603 959.242 Q102.774 963.825 102.774 972.575 Q102.774 980.746 98.8854 985.631 Q95.0197 990.492 88.4688 990.492 Q86.7095 990.492 84.904 990.144 Q83.0984 989.797 81.154 989.103 M90.4595 974.45 Q93.6076 974.45 95.4363 972.297 Q97.2882 970.145 97.2882 966.395 Q97.2882 962.668 95.4363 960.515 Q93.6076 958.339 90.4595 958.339 Q87.3114 958.339 85.4595 960.515 Q83.6308 962.668 83.6308 966.395 Q83.6308 970.145 85.4595 972.297 Q87.3114 974.45 90.4595 974.45 Z" fill="#9eb1be" fill-rule="nonzero" fill-opacity="1" /><path clip-path="url(#clip800)" d="M121.177 958.339 Q117.566 958.339 115.737 961.904 Q113.932 965.445 113.932 972.575 Q113.932 979.682 115.737 983.246 Q117.566 986.788 121.177 986.788 Q124.811 986.788 126.617 983.246 Q128.445 979.682 128.445 972.575 Q128.445 965.445 126.617 961.904 Q124.811 958.339 121.177 958.339 M121.177 954.635 Q126.987 954.635 130.043 959.242 Q133.121 963.825 133.121 972.575 Q133.121 981.302 130.043 985.908 Q126.987 990.492 121.177 990.492 Q115.367 990.492 112.288 985.908 Q109.233 981.302 109.233 972.575 Q109.233 963.825 112.288 959.242 Q115.367 954.635 121.177 954.635 Z" fill="#9eb1be" fill-rule="nonzero" fill-opacity="1" /><path clip-path="url(#clip800)" d="M151.339 958.339 Q147.728 958.339 145.899 961.904 Q144.093 965.445 144.093 972.575 Q144.093 979.682 145.899 983.246 Q147.728 986.788 151.339 986.788 Q154.973 986.788 156.779 983.246 Q158.607 979.682 158.607 972.575 Q158.607 965.445 156.779 961.904 Q154.973 958.339 151.339 958.339 M151.339 954.635 Q157.149 954.635 160.205 959.242 Q163.283 963.825 163.283 972.575 Q163.283 981.302 160.205 985.908 Q157.149 990.492 151.339 990.492 Q145.529 990.492 142.45 985.908 Q139.394 981.302 139.394 972.575 Q139.394 963.825 142.45 959.242 Q145.529 954.635 151.339 954.635 Z" fill="#9eb1be" fill-rule="nonzero" fill-opacity="1" /><path clip-path="url(#clip800)" d="M181.501 958.339 Q177.89 958.339 176.061 961.904 Q174.255 965.445 174.255 972.575 Q174.255 979.682 176.061 983.246 Q177.89 986.788 181.501 986.788 Q185.135 986.788 186.94 983.246 Q188.769 979.682 188.769 972.575 Q188.769 965.445 186.94 961.904 Q185.135 958.339 181.501 958.339 M181.501 954.635 Q187.311 954.635 190.366 959.242 Q193.445 963.825 193.445 972.575 Q193.445 981.302 190.366 985.908 Q187.311 990.492 181.501 990.492 Q175.691 990.492 172.612 985.908 Q169.556 981.302 169.556 972.575 Q169.556 963.825 172.612 959.242 Q175.691 954.635 181.501 954.635 Z" fill="#9eb1be" fill-rule="nonzero" fill-opacity="1" /><path clip-path="url(#clip800)" d="M81.154 752.02 L81.154 747.761 Q82.9133 748.594 84.7188 749.034 Q86.5243 749.474 88.2604 749.474 Q92.89 749.474 95.3206 746.372 Q97.7743 743.247 98.1215 736.904 Q96.7789 738.895 94.7187 739.96 Q92.6586 741.025 90.1586 741.025 Q84.9734 741.025 81.941 737.9 Q78.9318 734.751 78.9318 729.312 Q78.9318 723.988 82.0799 720.77 Q85.2281 717.552 90.4595 717.552 Q96.4548 717.552 99.603 722.159 Q102.774 726.742 102.774 735.492 Q102.774 743.663 98.8854 748.548 Q95.0197 753.409 88.4688 753.409 Q86.7095 753.409 84.904 753.062 Q83.0984 752.714 81.154 752.02 M90.4595 737.367 Q93.6076 737.367 95.4363 735.214 Q97.2882 733.062 97.2882 729.312 Q97.2882 725.585 95.4363 723.432 Q93.6076 721.256 90.4595 721.256 Q87.3114 721.256 85.4595 723.432 Q83.6308 725.585 83.6308 729.312 Q83.6308 733.062 85.4595 735.214 Q87.3114 737.367 90.4595 737.367 Z" fill="#9eb1be" fill-rule="nonzero" fill-opacity="1" /><path clip-path="url(#clip800)" d="M111.223 718.177 L129.58 718.177 L129.58 722.113 L115.506 722.113 L115.506 730.585 Q116.524 730.238 117.543 730.076 Q118.561 729.89 119.58 729.89 Q125.367 729.89 128.746 733.062 Q132.126 736.233 132.126 741.65 Q132.126 747.228 128.654 750.33 Q125.182 753.409 118.862 753.409 Q116.686 753.409 114.418 753.038 Q112.172 752.668 109.765 751.927 L109.765 747.228 Q111.848 748.362 114.07 748.918 Q116.293 749.474 118.77 749.474 Q122.774 749.474 125.112 747.367 Q127.45 745.261 127.45 741.65 Q127.45 738.038 125.112 735.932 Q122.774 733.825 118.77 733.825 Q116.895 733.825 115.02 734.242 Q113.168 734.659 111.223 735.538 L111.223 718.177 Z" fill="#9eb1be" fill-rule="nonzero" fill-opacity="1" /><path clip-path="url(#clip800)" d="M151.339 721.256 Q147.728 721.256 145.899 724.821 Q144.093 728.363 144.093 735.492 Q144.093 742.599 145.899 746.163 Q147.728 749.705 151.339 749.705 Q154.973 749.705 156.779 746.163 Q158.607 742.599 158.607 735.492 Q158.607 728.363 156.779 724.821 Q154.973 721.256 151.339 721.256 M151.339 717.552 Q157.149 717.552 160.205 722.159 Q163.283 726.742 163.283 735.492 Q163.283 744.219 160.205 748.825 Q157.149 753.409 151.339 753.409 Q145.529 753.409 142.45 748.825 Q139.394 744.219 139.394 735.492 Q139.394 726.742 142.45 722.159 Q145.529 717.552 151.339 717.552 Z" fill="#9eb1be" fill-rule="nonzero" fill-opacity="1" /><path clip-path="url(#clip800)" d="M181.501 721.256 Q177.89 721.256 176.061 724.821 Q174.255 728.363 174.255 735.492 Q174.255 742.599 176.061 746.163 Q177.89 749.705 181.501 749.705 Q185.135 749.705 186.94 746.163 Q188.769 742.599 188.769 735.492 Q188.769 728.363 186.94 724.821 Q185.135 721.256 181.501 721.256 M181.501 717.552 Q187.311 717.552 190.366 722.159 Q193.445 726.742 193.445 735.492 Q193.445 744.219 190.366 748.825 Q187.311 753.409 181.501 753.409 Q175.691 753.409 172.612 748.825 Q169.556 744.219 169.556 735.492 Q169.556 726.742 172.612 722.159 Q175.691 717.552 181.501 717.552 Z" fill="#9eb1be" fill-rule="nonzero" fill-opacity="1" /><path clip-path="url(#clip800)" d="M51.6634 511.719 L59.3023 511.719 L59.3023 485.354 L50.9921 487.02 L50.9921 482.761 L59.256 481.095 L63.9319 481.095 L63.9319 511.719 L71.5707 511.719 L71.5707 515.655 L51.6634 515.655 L51.6634 511.719 Z" fill="#9eb1be" fill-rule="nonzero" fill-opacity="1" /><path clip-path="url(#clip800)" d="M91.0151 484.173 Q87.404 484.173 85.5753 487.738 Q83.7697 491.28 83.7697 498.409 Q83.7697 505.516 85.5753 509.08 Q87.404 512.622 91.0151 512.622 Q94.6493 512.622 96.4548 509.08 Q98.2835 505.516 98.2835 498.409 Q98.2835 491.28 96.4548 487.738 Q94.6493 484.173 91.0151 484.173 M91.0151 480.47 Q96.8252 480.47 99.8808 485.076 Q102.959 489.659 102.959 498.409 Q102.959 507.136 99.8808 511.742 Q96.8252 516.326 91.0151 516.326 Q85.2049 516.326 82.1262 511.742 Q79.0707 507.136 79.0707 498.409 Q79.0707 489.659 82.1262 485.076 Q85.2049 480.47 91.0151 480.47 Z" fill="#9eb1be" fill-rule="nonzero" fill-opacity="1" /><path clip-path="url(#clip800)" d="M121.177 484.173 Q117.566 484.173 115.737 487.738 Q113.932 491.28 113.932 498.409 Q113.932 505.516 115.737 509.08 Q117.566 512.622 121.177 512.622 Q124.811 512.622 126.617 509.08 Q128.445 505.516 128.445 498.409 Q128.445 491.28 126.617 487.738 Q124.811 484.173 121.177 484.173 M121.177 480.47 Q126.987 480.47 130.043 485.076 Q133.121 489.659 133.121 498.409 Q133.121 507.136 130.043 511.742 Q126.987 516.326 121.177 516.326 Q115.367 516.326 112.288 511.742 Q109.233 507.136 109.233 498.409 Q109.233 489.659 112.288 485.076 Q115.367 480.47 121.177 480.47 Z" fill="#9eb1be" fill-rule="nonzero" fill-opacity="1" /><path clip-path="url(#clip800)" d="M151.339 484.173 Q147.728 484.173 145.899 487.738 Q144.093 491.28 144.093 498.409 Q144.093 505.516 145.899 509.08 Q147.728 512.622 151.339 512.622 Q154.973 512.622 156.779 509.08 Q158.607 505.516 158.607 498.409 Q158.607 491.28 156.779 487.738 Q154.973 484.173 151.339 484.173 M151.339 480.47 Q157.149 480.47 160.205 485.076 Q163.283 489.659 163.283 498.409 Q163.283 507.136 160.205 511.742 Q157.149 516.326 151.339 516.326 Q145.529 516.326 142.45 511.742 Q139.394 507.136 139.394 498.409 Q139.394 489.659 142.45 485.076 Q145.529 480.47 151.339 480.47 Z" fill="#9eb1be" fill-rule="nonzero" fill-opacity="1" /><path clip-path="url(#clip800)" d="M181.501 484.173 Q177.89 484.173 176.061 487.738 Q174.255 491.28 174.255 498.409 Q174.255 505.516 176.061 509.08 Q177.89 512.622 181.501 512.622 Q185.135 512.622 186.94 509.08 Q188.769 505.516 188.769 498.409 Q188.769 491.28 186.94 487.738 Q185.135 484.173 181.501 484.173 M181.501 480.47 Q187.311 480.47 190.366 485.076 Q193.445 489.659 193.445 498.409 Q193.445 507.136 190.366 511.742 Q187.311 516.326 181.501 516.326 Q175.691 516.326 172.612 511.742 Q169.556 507.136 169.556 498.409 Q169.556 489.659 172.612 485.076 Q175.691 480.47 181.501 480.47 Z" fill="#9eb1be" fill-rule="nonzero" fill-opacity="1" /><path clip-path="url(#clip800)" d="M51.6634 274.636 L59.3023 274.636 L59.3023 248.271 L50.9921 249.937 L50.9921 245.678 L59.256 244.012 L63.9319 244.012 L63.9319 274.636 L71.5707 274.636 L71.5707 278.572 L51.6634 278.572 L51.6634 274.636 Z" fill="#9eb1be" fill-rule="nonzero" fill-opacity="1" /><path clip-path="url(#clip800)" d="M91.0151 247.09 Q87.404 247.09 85.5753 250.655 Q83.7697 254.197 83.7697 261.326 Q83.7697 268.433 85.5753 271.998 Q87.404 275.539 91.0151 275.539 Q94.6493 275.539 96.4548 271.998 Q98.2835 268.433 98.2835 261.326 Q98.2835 254.197 96.4548 250.655 Q94.6493 247.09 91.0151 247.09 M91.0151 243.387 Q96.8252 243.387 99.8808 247.993 Q102.959 252.576 102.959 261.326 Q102.959 270.053 99.8808 274.66 Q96.8252 279.243 91.0151 279.243 Q85.2049 279.243 82.1262 274.66 Q79.0707 270.053 79.0707 261.326 Q79.0707 252.576 82.1262 247.993 Q85.2049 243.387 91.0151 243.387 Z" fill="#9eb1be" fill-rule="nonzero" fill-opacity="1" /><path clip-path="url(#clip800)" d="M111.223 244.012 L129.58 244.012 L129.58 247.947 L115.506 247.947 L115.506 256.419 Q116.524 256.072 117.543 255.91 Q118.561 255.724 119.58 255.724 Q125.367 255.724 128.746 258.896 Q132.126 262.067 132.126 267.484 Q132.126 273.062 128.654 276.164 Q125.182 279.243 118.862 279.243 Q116.686 279.243 114.418 278.873 Q112.172 278.502 109.765 277.761 L109.765 273.062 Q111.848 274.197 114.07 274.752 Q116.293 275.308 118.77 275.308 Q122.774 275.308 125.112 273.201 Q127.45 271.095 127.45 267.484 Q127.45 263.873 125.112 261.766 Q122.774 259.66 118.77 259.66 Q116.895 259.66 115.02 260.076 Q113.168 260.493 111.223 261.373 L111.223 244.012 Z" fill="#9eb1be" fill-rule="nonzero" fill-opacity="1" /><path clip-path="url(#clip800)" d="M151.339 247.09 Q147.728 247.09 145.899 250.655 Q144.093 254.197 144.093 261.326 Q144.093 268.433 145.899 271.998 Q147.728 275.539 151.339 275.539 Q154.973 275.539 156.779 271.998 Q158.607 268.433 158.607 261.326 Q158.607 254.197 156.779 250.655 Q154.973 247.09 151.339 247.09 M151.339 243.387 Q157.149 243.387 160.205 247.993 Q163.283 252.576 163.283 261.326 Q163.283 270.053 160.205 274.66 Q157.149 279.243 151.339 279.243 Q145.529 279.243 142.45 274.66 Q139.394 270.053 139.394 261.326 Q139.394 252.576 142.45 247.993 Q145.529 243.387 151.339 243.387 Z" fill="#9eb1be" fill-rule="nonzero" fill-opacity="1" /><path clip-path="url(#clip800)" d="M181.501 247.09 Q177.89 247.09 176.061 250.655 Q174.255 254.197 174.255 261.326 Q174.255 268.433 176.061 271.998 Q177.89 275.539 181.501 275.539 Q185.135 275.539 186.94 271.998 Q188.769 268.433 188.769 261.326 Q188.769 254.197 186.94 250.655 Q185.135 247.09 181.501 247.09 M181.501 243.387 Q187.311 243.387 190.366 247.993 Q193.445 252.576 193.445 261.326 Q193.445 270.053 190.366 274.66 Q187.311 279.243 181.501 279.243 Q175.691 279.243 172.612 274.66 Q169.556 270.053 169.556 261.326 Q169.556 252.576 172.612 247.993 Q175.691 243.387 181.501 243.387 Z" fill="#9eb1be" fill-rule="nonzero" fill-opacity="1" /><path clip-path="url(#clip800)" d="M229.445 8.64 L256.76 8.64 L256.76 13.559 L235.29 13.559 L235.29 26.3482 L255.863 26.3482 L255.863 31.2672 L235.29 31.2672 L235.29 46.921 L257.281 46.921 L257.281 51.84 L229.445 51.84 L229.445 8.64 Z" fill="#adb2b7" fill-rule="nonzero" fill-opacity="1" /><path clip-path="url(#clip800)" d="M269.838 35.6653 Q269.838 41.5391 272.24 44.8956 Q274.671 48.2231 278.895 48.2231 Q283.12 48.2231 285.55 44.8956 Q287.981 41.5391 287.981 35.6653 Q287.981 29.7915 285.55 26.464 Q283.12 23.1075 278.895 23.1075 Q274.671 23.1075 272.24 26.464 Q269.838 29.7915 269.838 35.6653 M287.981 46.9789 Q286.302 49.8724 283.727 51.2902 Q281.181 52.6791 277.593 52.6791 Q271.719 52.6791 268.015 47.9916 Q264.341 43.3042 264.341 35.6653 Q264.341 28.0265 268.015 23.339 Q271.719 18.6515 277.593 18.6515 Q281.181 18.6515 283.727 20.0693 Q286.302 21.4582 287.981 24.3517 L287.981 19.4328 L293.305 19.4328 L293.305 64.1663 L287.981 64.1663 L287.981 46.9789 Z" fill="#adb2b7" fill-rule="nonzero" fill-opacity="1" /><path clip-path="url(#clip800)" d="M303.721 39.0507 L303.721 19.4328 L309.045 19.4328 L309.045 38.8482 Q309.045 43.4488 310.839 45.7636 Q312.633 48.0495 316.221 48.0495 Q320.533 48.0495 323.021 45.3007 Q325.538 42.5519 325.538 37.8065 L325.538 19.4328 L330.862 19.4328 L330.862 51.84 L325.538 51.84 L325.538 46.8632 Q323.6 49.8145 321.024 51.2613 Q318.478 52.6791 315.093 52.6791 Q309.508 52.6791 306.615 49.2069 Q303.721 45.7347 303.721 39.0507 M317.118 18.6515 L317.118 18.6515 Z" fill="#adb2b7" fill-rule="nonzero" fill-opacity="1" /><path clip-path="url(#clip800)" d="M341.829 19.4328 L347.153 19.4328 L347.153 51.84 L341.829 51.84 L341.829 19.4328 M341.829 6.81709 L347.153 6.81709 L347.153 13.559 L341.829 13.559 L341.829 6.81709 Z" fill="#adb2b7" fill-rule="nonzero" fill-opacity="1" /><path clip-path="url(#clip800)" d="M363.559 10.2314 L363.559 19.4328 L374.525 19.4328 L374.525 23.5705 L363.559 23.5705 L363.559 41.163 Q363.559 45.1271 364.63 46.2555 Q365.729 47.384 369.057 47.384 L374.525 47.384 L374.525 51.84 L369.057 51.84 Q362.893 51.84 360.55 49.5541 Q358.206 47.2393 358.206 41.163 L358.206 23.5705 L354.3 23.5705 L354.3 19.4328 L358.206 19.4328 L358.206 10.2314 L363.559 10.2314 Z" fill="#adb2b7" fill-rule="nonzero" fill-opacity="1" /><path clip-path="url(#clip800)" d="M395.011 54.8492 Q392.754 60.6362 390.613 62.4013 Q388.472 64.1663 384.884 64.1663 L380.631 64.1663 L380.631 59.7103 L383.756 59.7103 Q385.955 59.7103 387.17 58.6687 Q388.385 57.627 389.861 53.7497 L390.816 51.3192 L377.708 19.4328 L383.35 19.4328 L393.478 44.7799 L403.605 19.4328 L409.247 19.4328 L395.011 54.8492 Z" fill="#adb2b7" fill-rule="nonzero" fill-opacity="1" /><polyline clip-path="url(#clip801)" style="stroke:#bbbb00; stroke-linecap:round; stroke-linejoin:round; stroke-width:4; stroke-opacity:1; fill:none" points="289.539,498.375 306.372,498.375 323.205,498.375 340.038,498.375 356.871,498.375 373.704,498.375 390.537,498.375 407.37,498.375 424.203,498.375 441.035,498.375 457.868,498.375 474.701,498.375 491.534,498.375 508.367,498.375 525.2,498.375 542.033,498.375 558.866,498.375 575.699,498.375 592.532,498.375 609.365,498.375 626.198,498.375 643.031,498.375 659.864,498.375 676.697,498.375 676.697,502.168 693.53,502.168 693.53,637.349 710.363,637.349 710.363,514.93 727.196,514.93 727.196,399.234 744.029,399.234 744.029,298.024 760.862,298.024 760.862,218.464 777.695,218.464 777.695,166.288 794.528,166.288 794.528,145.256 811.361,145.256 811.361,151.684 828.194,151.684 828.194,194.703 845.027,194.703 845.027,265.659 861.86,265.659 861.86,358.912 878.693,358.912 878.693,467.25 895.526,467.25 895.526,582.545 912.359,582.545 912.359,703.699 929.192,703.699 929.192,599.359 946.025,599.359 946.025,502.853 962.858,502.853 962.858,431.255 979.691,431.255 979.691,387.045 996.524,387.045 996.524,375.042 1013.36,375.042 1013.36,397.151 1030.19,397.151 1030.19,451.906 1047.02,451.906 1047.02,534.647 1063.86,534.647 1063.86,638.261 1080.69,638.261 1080.69,758.886 1097.52,758.886 1097.52,885.215 1114.35,885.215 1114.35,770.746 1131.19,770.746 1131.19,662.58 1148.02,662.58 1148.02,567.97 1164.85,567.97 1164.85,493.606 1181.69,493.606 1181.69,444.843 1198.52,444.843 1198.52,425.187 1215.35,425.187 1215.35,440.767 1232.19,440.767 1232.19,480.889 1249.02,480.889 1249.02,547.071 1265.85,547.071 1265.85,634.056 1282.68,634.056 1282.68,735.123 1299.52,735.123 1299.52,842.694 1316.35,842.694 1316.35,955.831 1333.18,955.831 1333.18,858.452 1350.02,858.452 1350.02,777.039 1366.85,777.039 1366.85,710.398 1383.68,710.398 1383.68,669.26 1400.51,669.26 1400.51,658.092 1417.35,658.092 1417.35,678.661 1434.18,678.661 1434.18,729.605 1451.01,729.605 1451.01,806.603 1467.85,806.603 1467.85,903.056 1484.68,903.056 1484.68,1006.65 1501.51,1006.65 1501.51,1124.67 1518.35,1124.67 1518.35,1017.75 1535.18,1017.75 1535.18,916.734 1552.01,916.734 1552.01,828.386 1568.84,828.386 1568.84,758.953 1585.68,758.953 1585.68,713.426 1602.51,713.426 1602.51,695.076 1619.34,695.076 1619.34,700.584 1636.18,700.584 1636.18,738.115 1653.01,738.115 1653.01,800.027 1669.84,800.027 1669.84,881.405 1686.68,881.405 1686.68,975.968 1703.51,975.968 1703.51,1076.63 1720.34,1076.63 1720.34,1182.59 1737.17,1182.59 1737.17,1091.44 1754.01,1091.44 1754.01,1007.1 1770.84,1007.1 1770.84,944.65 1787.67,944.65 1787.67,906.107 1804.51,906.107 1804.51,895.646 1821.34,895.646 1821.34,914.913 1838.17,914.913 1838.17,962.637 1855,962.637 1855,1034.78 1871.84,1034.78 1871.84,1125.19 1888.67,1125.19 1888.67,1230.61 1905.5,1230.61 1905.5,1341.17 1922.34,1341.17 1922.34,1241.03 1939.17,1241.03 1939.17,1146.44 1956,1146.44 1956,1063.72 1972.84,1063.72 1972.84,998.714 1989.67,998.714 1989.67,956.097 2006.5,956.097 2006.5,938.92 2023.33,938.92 2023.33,952.629 2040.17,952.629 2040.17,987.689 2057,987.689 2057,1045.53 2073.83,1045.53 2073.83,1121.56 2090.67,1121.56 2090.67,1209.92 2107.5,1209.92 2107.5,1303.98 2124.33,1303.98 2124.33,1403.09 2141.17,1403.09 2141.17,1317.89 2158,1317.89 2158,1246.8 2174.83,1246.8 2174.83,1188.58 2191.66,1188.58 2191.66,1152.65 2208.5,1152.65 2208.5,1142.9 2225.33,1142.9 2225.33,1160.86 2242.16,1160.86 2242.16,1205.33 2259,1205.33 2259,1272.58 2275.83,1272.58 2275.83,1356.87 2292.66,1356.87 2292.66,1447.38 "/>
</svg>
