<?xml version="1.0" encoding="utf-8"?>
<svg xmlns="http://www.w3.org/2000/svg" xmlns:xlink="http://www.w3.org/1999/xlink" width="600" height="400" viewBox="0 0 2400 1600">
<defs>
  <clipPath id="clip330">
    <rect x="0" y="0" width="2400" height="1600"/>
  </clipPath>
</defs>
<path clip-path="url(#clip330)" d="M0 1600 L2400 1600 L2400 0 L0 0  Z" fill="#282c34" fill-rule="evenodd" fill-opacity="1"/>
<defs>
  <clipPath id="clip331">
    <rect x="229" y="106" width="2124" height="1381"/>
  </clipPath>
</defs>
<path clip-path="url(#clip330)" d="M229.445 1486.45 L2352.76 1486.45 L2352.76 106.192 L229.445 106.192  Z" fill="#21252b" fill-rule="evenodd" fill-opacity="1"/>
<polyline clip-path="url(#clip331)" style="stroke:#adb2b7; stroke-linecap:round; stroke-linejoin:round; stroke-width:2; stroke-opacity:0.1; fill:none" points="286.753,1486.45 286.753,106.192 "/>
<polyline clip-path="url(#clip331)" style="stroke:#adb2b7; stroke-linecap:round; stroke-linejoin:round; stroke-width:2; stroke-opacity:0.1; fill:none" points="843.95,1486.45 843.95,106.192 "/>
<polyline clip-path="url(#clip331)" style="stroke:#adb2b7; stroke-linecap:round; stroke-linejoin:round; stroke-width:2; stroke-opacity:0.1; fill:none" points="1401.15,1486.45 1401.15,106.192 "/>
<polyline clip-path="url(#clip331)" style="stroke:#adb2b7; stroke-linecap:round; stroke-linejoin:round; stroke-width:2; stroke-opacity:0.1; fill:none" points="1958.34,1486.45 1958.34,106.192 "/>
<polyline clip-path="url(#clip331)" style="stroke:#adb2b7; stroke-linecap:round; stroke-linejoin:round; stroke-width:2; stroke-opacity:0.1; fill:none" points="229.445,1304.92 2352.76,1304.92 "/>
<polyline clip-path="url(#clip331)" style="stroke:#adb2b7; stroke-linecap:round; stroke-linejoin:round; stroke-width:2; stroke-opacity:0.1; fill:none" points="229.445,1022.27 2352.76,1022.27 "/>
<polyline clip-path="url(#clip331)" style="stroke:#adb2b7; stroke-linecap:round; stroke-linejoin:round; stroke-width:2; stroke-opacity:0.1; fill:none" points="229.445,739.615 2352.76,739.615 "/>
<polyline clip-path="url(#clip331)" style="stroke:#adb2b7; stroke-linecap:round; stroke-linejoin:round; stroke-width:2; stroke-opacity:0.1; fill:none" points="229.445,456.962 2352.76,456.962 "/>
<polyline clip-path="url(#clip331)" style="stroke:#adb2b7; stroke-linecap:round; stroke-linejoin:round; stroke-width:2; stroke-opacity:0.1; fill:none" points="229.445,174.308 2352.76,174.308 "/>
<polyline clip-path="url(#clip330)" style="stroke:#adb2b7; stroke-linecap:round; stroke-linejoin:round; stroke-width:4; stroke-opacity:1; fill:none" points="229.445,1486.45 2352.76,1486.45 "/>
<polyline clip-path="url(#clip330)" style="stroke:#adb2b7; stroke-linecap:round; stroke-linejoin:round; stroke-width:4; stroke-opacity:1; fill:none" points="286.753,1486.45 286.753,1467.55 "/>
<polyline clip-path="url(#clip330)" style="stroke:#adb2b7; stroke-linecap:round; stroke-linejoin:round; stroke-width:4; stroke-opacity:1; fill:none" points="843.95,1486.45 843.95,1467.55 "/>
<polyline clip-path="url(#clip330)" style="stroke:#adb2b7; stroke-linecap:round; stroke-linejoin:round; stroke-width:4; stroke-opacity:1; fill:none" points="1401.15,1486.45 1401.15,1467.55 "/>
<polyline clip-path="url(#clip330)" style="stroke:#adb2b7; stroke-linecap:round; stroke-linejoin:round; stroke-width:4; stroke-opacity:1; fill:none" points="1958.34,1486.45 1958.34,1467.55 "/>
<path clip-path="url(#clip330)" d="M286.753 1517.37 Q283.142 1517.37 281.313 1520.93 Q279.507 1524.47 279.507 1531.6 Q279.507 1538.71 281.313 1542.27 Q283.142 1545.82 286.753 1545.82 Q290.387 1545.82 292.193 1542.27 Q294.021 1538.71 294.021 1531.6 Q294.021 1524.47 292.193 1520.93 Q290.387 1517.37 286.753 1517.37 M286.753 1513.66 Q292.563 1513.66 295.618 1518.27 Q298.697 1522.85 298.697 1531.6 Q298.697 1540.33 295.618 1544.94 Q292.563 1549.52 286.753 1549.52 Q280.943 1549.52 277.864 1544.94 Q274.808 1540.33 274.808 1531.6 Q274.808 1522.85 277.864 1518.27 Q280.943 1513.66 286.753 1513.66 Z" fill="#9eb1be" fill-rule="nonzero" fill-opacity="1" /><path clip-path="url(#clip330)" d="M807.642 1544.91 L823.962 1544.91 L823.962 1548.85 L802.017 1548.85 L802.017 1544.91 Q804.679 1542.16 809.263 1537.53 Q813.869 1532.88 815.05 1531.53 Q817.295 1529.01 818.175 1527.27 Q819.077 1525.51 819.077 1523.82 Q819.077 1521.07 817.133 1519.33 Q815.212 1517.6 812.11 1517.6 Q809.911 1517.6 807.457 1518.36 Q805.026 1519.13 802.249 1520.68 L802.249 1515.95 Q805.073 1514.82 807.526 1514.24 Q809.98 1513.66 812.017 1513.66 Q817.387 1513.66 820.582 1516.35 Q823.776 1519.03 823.776 1523.52 Q823.776 1525.65 822.966 1527.57 Q822.179 1529.47 820.073 1532.07 Q819.494 1532.74 816.392 1535.95 Q813.29 1539.15 807.642 1544.91 Z" fill="#9eb1be" fill-rule="nonzero" fill-opacity="1" /><path clip-path="url(#clip330)" d="M843.776 1517.37 Q840.165 1517.37 838.336 1520.93 Q836.531 1524.47 836.531 1531.6 Q836.531 1538.71 838.336 1542.27 Q840.165 1545.82 843.776 1545.82 Q847.41 1545.82 849.216 1542.27 Q851.045 1538.71 851.045 1531.6 Q851.045 1524.47 849.216 1520.93 Q847.41 1517.37 843.776 1517.37 M843.776 1513.66 Q849.586 1513.66 852.642 1518.27 Q855.721 1522.85 855.721 1531.6 Q855.721 1540.33 852.642 1544.94 Q849.586 1549.52 843.776 1549.52 Q837.966 1549.52 834.887 1544.94 Q831.832 1540.33 831.832 1531.6 Q831.832 1522.85 834.887 1518.27 Q837.966 1513.66 843.776 1513.66 Z" fill="#9eb1be" fill-rule="nonzero" fill-opacity="1" /><path clip-path="url(#clip330)" d="M873.938 1517.37 Q870.327 1517.37 868.498 1520.93 Q866.693 1524.47 866.693 1531.6 Q866.693 1538.71 868.498 1542.27 Q870.327 1545.82 873.938 1545.82 Q877.572 1545.82 879.378 1542.27 Q881.207 1538.71 881.207 1531.6 Q881.207 1524.47 879.378 1520.93 Q877.572 1517.37 873.938 1517.37 M873.938 1513.66 Q879.748 1513.66 882.804 1518.27 Q885.882 1522.85 885.882 1531.6 Q885.882 1540.33 882.804 1544.94 Q879.748 1549.52 873.938 1549.52 Q868.128 1549.52 865.049 1544.94 Q861.994 1540.33 861.994 1531.6 Q861.994 1522.85 865.049 1518.27 Q868.128 1513.66 873.938 1513.66 Z" fill="#9eb1be" fill-rule="nonzero" fill-opacity="1" /><path clip-path="url(#clip330)" d="M1374.24 1518.36 L1362.43 1536.81 L1374.24 1536.81 L1374.24 1518.36 M1373.01 1514.29 L1378.89 1514.29 L1378.89 1536.81 L1383.82 1536.81 L1383.82 1540.7 L1378.89 1540.7 L1378.89 1548.85 L1374.24 1548.85 L1374.24 1540.7 L1358.64 1540.7 L1358.64 1536.19 L1373.01 1514.29 Z" fill="#9eb1be" fill-rule="nonzero" fill-opacity="1" /><path clip-path="url(#clip330)" d="M1401.55 1517.37 Q1397.94 1517.37 1396.11 1520.93 Q1394.31 1524.47 1394.31 1531.6 Q1394.31 1538.71 1396.11 1542.27 Q1397.94 1545.82 1401.55 1545.82 Q1405.19 1545.82 1406.99 1542.27 Q1408.82 1538.71 1408.82 1531.6 Q1408.82 1524.47 1406.99 1520.93 Q1405.19 1517.37 1401.55 1517.37 M1401.55 1513.66 Q1407.36 1513.66 1410.42 1518.27 Q1413.5 1522.85 1413.5 1531.6 Q1413.5 1540.33 1410.42 1544.94 Q1407.36 1549.52 1401.55 1549.52 Q1395.74 1549.52 1392.66 1544.94 Q1389.61 1540.33 1389.61 1531.6 Q1389.61 1522.85 1392.66 1518.27 Q1395.74 1513.66 1401.55 1513.66 Z" fill="#9eb1be" fill-rule="nonzero" fill-opacity="1" /><path clip-path="url(#clip330)" d="M1431.71 1517.37 Q1428.1 1517.37 1426.27 1520.93 Q1424.47 1524.47 1424.47 1531.6 Q1424.47 1538.71 1426.27 1542.27 Q1428.1 1545.82 1431.71 1545.82 Q1435.35 1545.82 1437.15 1542.27 Q1438.98 1538.71 1438.98 1531.6 Q1438.98 1524.47 1437.15 1520.93 Q1435.35 1517.37 1431.71 1517.37 M1431.71 1513.66 Q1437.52 1513.66 1440.58 1518.27 Q1443.66 1522.85 1443.66 1531.6 Q1443.66 1540.33 1440.58 1544.94 Q1437.52 1549.52 1431.71 1549.52 Q1425.9 1549.52 1422.83 1544.94 Q1419.77 1540.33 1419.77 1531.6 Q1419.77 1522.85 1422.83 1518.27 Q1425.9 1513.66 1431.71 1513.66 Z" fill="#9eb1be" fill-rule="nonzero" fill-opacity="1" /><path clip-path="url(#clip330)" d="M1928.67 1529.7 Q1925.52 1529.7 1923.67 1531.86 Q1921.84 1534.01 1921.84 1537.76 Q1921.84 1541.49 1923.67 1543.66 Q1925.52 1545.82 1928.67 1545.82 Q1931.82 1545.82 1933.65 1543.66 Q1935.5 1541.49 1935.5 1537.76 Q1935.5 1534.01 1933.65 1531.86 Q1931.82 1529.7 1928.67 1529.7 M1937.95 1515.05 L1937.95 1519.31 Q1936.19 1518.48 1934.39 1518.04 Q1932.6 1517.6 1930.84 1517.6 Q1926.21 1517.6 1923.76 1520.72 Q1921.33 1523.85 1920.98 1530.17 Q1922.35 1528.15 1924.41 1527.09 Q1926.47 1526 1928.95 1526 Q1934.15 1526 1937.16 1529.17 Q1940.2 1532.32 1940.2 1537.76 Q1940.2 1543.08 1937.05 1546.3 Q1933.9 1549.52 1928.67 1549.52 Q1922.67 1549.52 1919.5 1544.94 Q1916.33 1540.33 1916.33 1531.6 Q1916.33 1523.41 1920.22 1518.55 Q1924.11 1513.66 1930.66 1513.66 Q1932.42 1513.66 1934.2 1514.01 Q1936.01 1514.36 1937.95 1515.05 Z" fill="#9eb1be" fill-rule="nonzero" fill-opacity="1" /><path clip-path="url(#clip330)" d="M1958.25 1517.37 Q1954.64 1517.37 1952.81 1520.93 Q1951.01 1524.47 1951.01 1531.6 Q1951.01 1538.71 1952.81 1542.27 Q1954.64 1545.82 1958.25 1545.82 Q1961.89 1545.82 1963.69 1542.27 Q1965.52 1538.71 1965.52 1531.6 Q1965.52 1524.47 1963.69 1520.93 Q1961.89 1517.37 1958.25 1517.37 M1958.25 1513.66 Q1964.06 1513.66 1967.12 1518.27 Q1970.2 1522.85 1970.2 1531.6 Q1970.2 1540.33 1967.12 1544.94 Q1964.06 1549.52 1958.25 1549.52 Q1952.44 1549.52 1949.36 1544.94 Q1946.31 1540.33 1946.31 1531.6 Q1946.31 1522.85 1949.36 1518.27 Q1952.44 1513.66 1958.25 1513.66 Z" fill="#9eb1be" fill-rule="nonzero" fill-opacity="1" /><path clip-path="url(#clip330)" d="M1988.41 1517.37 Q1984.8 1517.37 1982.97 1520.93 Q1981.17 1524.47 1981.17 1531.6 Q1981.17 1538.71 1982.97 1542.27 Q1984.8 1545.82 1988.41 1545.82 Q1992.05 1545.82 1993.85 1542.27 Q1995.68 1538.71 1995.68 1531.6 Q1995.68 1524.47 1993.85 1520.93 Q1992.05 1517.37 1988.41 1517.37 M1988.41 1513.66 Q1994.22 1513.66 1997.28 1518.27 Q2000.36 1522.85 2000.36 1531.6 Q2000.36 1540.33 1997.28 1544.94 Q1994.22 1549.52 1988.41 1549.52 Q1982.6 1549.52 1979.52 1544.94 Q1976.47 1540.33 1976.47 1531.6 Q1976.47 1522.85 1979.52 1518.27 Q1982.6 1513.66 1988.41 1513.66 Z" fill="#9eb1be" fill-rule="nonzero" fill-opacity="1" /><polyline clip-path="url(#clip330)" style="stroke:#adb2b7; stroke-linecap:round; stroke-linejoin:round; stroke-width:4; stroke-opacity:1; fill:none" points="229.445,1486.45 229.445,106.192 "/>
<polyline clip-path="url(#clip330)" style="stroke:#adb2b7; stroke-linecap:round; stroke-linejoin:round; stroke-width:4; stroke-opacity:1; fill:none" points="229.445,1304.92 248.343,1304.92 "/>
<polyline clip-path="url(#clip330)" style="stroke:#adb2b7; stroke-linecap:round; stroke-linejoin:round; stroke-width:4; stroke-opacity:1; fill:none" points="229.445,1022.27 248.343,1022.27 "/>
<polyline clip-path="url(#clip330)" style="stroke:#adb2b7; stroke-linecap:round; stroke-linejoin:round; stroke-width:4; stroke-opacity:1; fill:none" points="229.445,739.615 248.343,739.615 "/>
<polyline clip-path="url(#clip330)" style="stroke:#adb2b7; stroke-linecap:round; stroke-linejoin:round; stroke-width:4; stroke-opacity:1; fill:none" points="229.445,456.962 248.343,456.962 "/>
<polyline clip-path="url(#clip330)" style="stroke:#adb2b7; stroke-linecap:round; stroke-linejoin:round; stroke-width:4; stroke-opacity:1; fill:none" points="229.445,174.308 248.343,174.308 "/>
<path clip-path="url(#clip330)" d="M51.6634 1318.27 L59.3023 1318.27 L59.3023 1291.9 L50.9921 1293.57 L50.9921 1289.31 L59.256 1287.64 L63.9319 1287.64 L63.9319 1318.27 L71.5707 1318.27 L71.5707 1322.2 L51.6634 1322.2 L51.6634 1318.27 Z" fill="#9eb1be" fill-rule="nonzero" fill-opacity="1" /><path clip-path="url(#clip330)" d="M91.0151 1290.72 Q87.404 1290.72 85.5753 1294.29 Q83.7697 1297.83 83.7697 1304.96 Q83.7697 1312.06 85.5753 1315.63 Q87.404 1319.17 91.0151 1319.17 Q94.6493 1319.17 96.4548 1315.63 Q98.2835 1312.06 98.2835 1304.96 Q98.2835 1297.83 96.4548 1294.29 Q94.6493 1290.72 91.0151 1290.72 M91.0151 1287.02 Q96.8252 1287.02 99.8808 1291.62 Q102.959 1296.21 102.959 1304.96 Q102.959 1313.68 99.8808 1318.29 Q96.8252 1322.87 91.0151 1322.87 Q85.2049 1322.87 82.1262 1318.29 Q79.0707 1313.68 79.0707 1304.96 Q79.0707 1296.21 82.1262 1291.62 Q85.2049 1287.02 91.0151 1287.02 Z" fill="#9eb1be" fill-rule="nonzero" fill-opacity="1" /><path clip-path="url(#clip330)" d="M121.177 1290.72 Q117.566 1290.72 115.737 1294.29 Q113.932 1297.83 113.932 1304.96 Q113.932 1312.06 115.737 1315.63 Q117.566 1319.17 121.177 1319.17 Q124.811 1319.17 126.617 1315.63 Q128.445 1312.06 128.445 1304.96 Q128.445 1297.83 126.617 1294.29 Q124.811 1290.72 121.177 1290.72 M121.177 1287.02 Q126.987 1287.02 130.043 1291.62 Q133.121 1296.21 133.121 1304.96 Q133.121 1313.68 130.043 1318.29 Q126.987 1322.87 121.177 1322.87 Q115.367 1322.87 112.288 1318.29 Q109.233 1313.68 109.233 1304.96 Q109.233 1296.21 112.288 1291.62 Q115.367 1287.02 121.177 1287.02 Z" fill="#9eb1be" fill-rule="nonzero" fill-opacity="1" /><path clip-path="url(#clip330)" d="M151.339 1290.72 Q147.728 1290.72 145.899 1294.29 Q144.093 1297.83 144.093 1304.96 Q144.093 1312.06 145.899 1315.63 Q147.728 1319.17 151.339 1319.17 Q154.973 1319.17 156.779 1315.63 Q158.607 1312.06 158.607 1304.96 Q158.607 1297.83 156.779 1294.29 Q154.973 1290.72 151.339 1290.72 M151.339 1287.02 Q157.149 1287.02 160.205 1291.62 Q163.283 1296.21 163.283 1304.96 Q163.283 1313.68 160.205 1318.29 Q157.149 1322.87 151.339 1322.87 Q145.529 1322.87 142.45 1318.29 Q139.394 1313.68 139.394 1304.96 Q139.394 1296.21 142.45 1291.62 Q145.529 1287.02 151.339 1287.02 Z" fill="#9eb1be" fill-rule="nonzero" fill-opacity="1" /><path clip-path="url(#clip330)" d="M181.501 1290.72 Q177.89 1290.72 176.061 1294.29 Q174.255 1297.83 174.255 1304.96 Q174.255 1312.06 176.061 1315.63 Q177.89 1319.17 181.501 1319.17 Q185.135 1319.17 186.94 1315.63 Q188.769 1312.06 188.769 1304.96 Q188.769 1297.83 186.94 1294.29 Q185.135 1290.72 181.501 1290.72 M181.501 1287.02 Q187.311 1287.02 190.366 1291.62 Q193.445 1296.21 193.445 1304.96 Q193.445 1313.68 190.366 1318.29 Q187.311 1322.87 181.501 1322.87 Q175.691 1322.87 172.612 1318.29 Q169.556 1313.68 169.556 1304.96 Q169.556 1296.21 172.612 1291.62 Q175.691 1287.02 181.501 1287.02 Z" fill="#9eb1be" fill-rule="nonzero" fill-opacity="1" /><path clip-path="url(#clip330)" d="M51.6634 1035.61 L59.3023 1035.61 L59.3023 1009.25 L50.9921 1010.92 L50.9921 1006.66 L59.256 1004.99 L63.9319 1004.99 L63.9319 1035.61 L71.5707 1035.61 L71.5707 1039.55 L51.6634 1039.55 L51.6634 1035.61 Z" fill="#9eb1be" fill-rule="nonzero" fill-opacity="1" /><path clip-path="url(#clip330)" d="M91.0151 1008.07 Q87.404 1008.07 85.5753 1011.63 Q83.7697 1015.17 83.7697 1022.3 Q83.7697 1029.41 85.5753 1032.98 Q87.404 1036.52 91.0151 1036.52 Q94.6493 1036.52 96.4548 1032.98 Q98.2835 1029.41 98.2835 1022.3 Q98.2835 1015.17 96.4548 1011.63 Q94.6493 1008.07 91.0151 1008.07 M91.0151 1004.36 Q96.8252 1004.36 99.8808 1008.97 Q102.959 1013.55 102.959 1022.3 Q102.959 1031.03 99.8808 1035.64 Q96.8252 1040.22 91.0151 1040.22 Q85.2049 1040.22 82.1262 1035.64 Q79.0707 1031.03 79.0707 1022.3 Q79.0707 1013.55 82.1262 1008.97 Q85.2049 1004.36 91.0151 1004.36 Z" fill="#9eb1be" fill-rule="nonzero" fill-opacity="1" /><path clip-path="url(#clip330)" d="M111.223 1004.99 L129.58 1004.99 L129.58 1008.92 L115.506 1008.92 L115.506 1017.4 Q116.524 1017.05 117.543 1016.89 Q118.561 1016.7 119.58 1016.7 Q125.367 1016.7 128.746 1019.87 Q132.126 1023.04 132.126 1028.46 Q132.126 1034.04 128.654 1037.14 Q125.182 1040.22 118.862 1040.22 Q116.686 1040.22 114.418 1039.85 Q112.172 1039.48 109.765 1038.74 L109.765 1034.04 Q111.848 1035.17 114.07 1035.73 Q116.293 1036.29 118.77 1036.29 Q122.774 1036.29 125.112 1034.18 Q127.45 1032.07 127.45 1028.46 Q127.45 1024.85 125.112 1022.74 Q122.774 1020.64 118.77 1020.64 Q116.895 1020.64 115.02 1021.05 Q113.168 1021.47 111.223 1022.35 L111.223 1004.99 Z" fill="#9eb1be" fill-rule="nonzero" fill-opacity="1" /><path clip-path="url(#clip330)" d="M151.339 1008.07 Q147.728 1008.07 145.899 1011.63 Q144.093 1015.17 144.093 1022.3 Q144.093 1029.41 145.899 1032.98 Q147.728 1036.52 151.339 1036.52 Q154.973 1036.52 156.779 1032.98 Q158.607 1029.41 158.607 1022.3 Q158.607 1015.17 156.779 1011.63 Q154.973 1008.07 151.339 1008.07 M151.339 1004.36 Q157.149 1004.36 160.205 1008.97 Q163.283 1013.55 163.283 1022.3 Q163.283 1031.03 160.205 1035.64 Q157.149 1040.22 151.339 1040.22 Q145.529 1040.22 142.45 1035.64 Q139.394 1031.03 139.394 1022.3 Q139.394 1013.55 142.45 1008.97 Q145.529 1004.36 151.339 1004.36 Z" fill="#9eb1be" fill-rule="nonzero" fill-opacity="1" /><path clip-path="url(#clip330)" d="M181.501 1008.07 Q177.89 1008.07 176.061 1011.63 Q174.255 1015.17 174.255 1022.3 Q174.255 1029.41 176.061 1032.98 Q177.89 1036.52 181.501 1036.52 Q185.135 1036.52 186.94 1032.98 Q188.769 1029.41 188.769 1022.3 Q188.769 1015.17 186.94 1011.63 Q185.135 1008.07 181.501 1008.07 M181.501 1004.36 Q187.311 1004.36 190.366 1008.97 Q193.445 1013.55 193.445 1022.3 Q193.445 1031.03 190.366 1035.64 Q187.311 1040.22 181.501 1040.22 Q175.691 1040.22 172.612 1035.64 Q169.556 1031.03 169.556 1022.3 Q169.556 1013.55 172.612 1008.97 Q175.691 1004.36 181.501 1004.36 Z" fill="#9eb1be" fill-rule="nonzero" fill-opacity="1" /><path clip-path="url(#clip330)" d="M51.6634 752.96 L59.3023 752.96 L59.3023 726.595 L50.9921 728.261 L50.9921 724.002 L59.256 722.335 L63.9319 722.335 L63.9319 752.96 L71.5707 752.96 L71.5707 756.895 L51.6634 756.895 L51.6634 752.96 Z" fill="#9eb1be" fill-rule="nonzero" fill-opacity="1" /><path clip-path="url(#clip330)" d="M81.8253 752.96 L89.4641 752.96 L89.4641 726.595 L81.154 728.261 L81.154 724.002 L89.4178 722.335 L94.0937 722.335 L94.0937 752.96 L101.733 752.96 L101.733 756.895 L81.8253 756.895 L81.8253 752.96 Z" fill="#9eb1be" fill-rule="nonzero" fill-opacity="1" /><path clip-path="url(#clip330)" d="M121.177 725.414 Q117.566 725.414 115.737 728.979 Q113.932 732.521 113.932 739.65 Q113.932 746.757 115.737 750.321 Q117.566 753.863 121.177 753.863 Q124.811 753.863 126.617 750.321 Q128.445 746.757 128.445 739.65 Q128.445 732.521 126.617 728.979 Q124.811 725.414 121.177 725.414 M121.177 721.71 Q126.987 721.71 130.043 726.317 Q133.121 730.9 133.121 739.65 Q133.121 748.377 130.043 752.983 Q126.987 757.567 121.177 757.567 Q115.367 757.567 112.288 752.983 Q109.233 748.377 109.233 739.65 Q109.233 730.9 112.288 726.317 Q115.367 721.71 121.177 721.71 Z" fill="#9eb1be" fill-rule="nonzero" fill-opacity="1" /><path clip-path="url(#clip330)" d="M151.339 725.414 Q147.728 725.414 145.899 728.979 Q144.093 732.521 144.093 739.65 Q144.093 746.757 145.899 750.321 Q147.728 753.863 151.339 753.863 Q154.973 753.863 156.779 750.321 Q158.607 746.757 158.607 739.65 Q158.607 732.521 156.779 728.979 Q154.973 725.414 151.339 725.414 M151.339 721.71 Q157.149 721.71 160.205 726.317 Q163.283 730.9 163.283 739.65 Q163.283 748.377 160.205 752.983 Q157.149 757.567 151.339 757.567 Q145.529 757.567 142.45 752.983 Q139.394 748.377 139.394 739.65 Q139.394 730.9 142.45 726.317 Q145.529 721.71 151.339 721.71 Z" fill="#9eb1be" fill-rule="nonzero" fill-opacity="1" /><path clip-path="url(#clip330)" d="M181.501 725.414 Q177.89 725.414 176.061 728.979 Q174.255 732.521 174.255 739.65 Q174.255 746.757 176.061 750.321 Q177.89 753.863 181.501 753.863 Q185.135 753.863 186.94 750.321 Q188.769 746.757 188.769 739.65 Q188.769 732.521 186.94 728.979 Q185.135 725.414 181.501 725.414 M181.501 721.71 Q187.311 721.71 190.366 726.317 Q193.445 730.9 193.445 739.65 Q193.445 748.377 190.366 752.983 Q187.311 757.567 181.501 757.567 Q175.691 757.567 172.612 752.983 Q169.556 748.377 169.556 739.65 Q169.556 730.9 172.612 726.317 Q175.691 721.71 181.501 721.71 Z" fill="#9eb1be" fill-rule="nonzero" fill-opacity="1" /><path clip-path="url(#clip330)" d="M51.6634 470.307 L59.3023 470.307 L59.3023 443.941 L50.9921 445.608 L50.9921 441.348 L59.256 439.682 L63.9319 439.682 L63.9319 470.307 L71.5707 470.307 L71.5707 474.242 L51.6634 474.242 L51.6634 470.307 Z" fill="#9eb1be" fill-rule="nonzero" fill-opacity="1" /><path clip-path="url(#clip330)" d="M81.8253 470.307 L89.4641 470.307 L89.4641 443.941 L81.154 445.608 L81.154 441.348 L89.4178 439.682 L94.0937 439.682 L94.0937 470.307 L101.733 470.307 L101.733 474.242 L81.8253 474.242 L81.8253 470.307 Z" fill="#9eb1be" fill-rule="nonzero" fill-opacity="1" /><path clip-path="url(#clip330)" d="M111.223 439.682 L129.58 439.682 L129.58 443.617 L115.506 443.617 L115.506 452.089 Q116.524 451.742 117.543 451.58 Q118.561 451.395 119.58 451.395 Q125.367 451.395 128.746 454.566 Q132.126 457.737 132.126 463.154 Q132.126 468.732 128.654 471.834 Q125.182 474.913 118.862 474.913 Q116.686 474.913 114.418 474.543 Q112.172 474.172 109.765 473.432 L109.765 468.732 Q111.848 469.867 114.07 470.422 Q116.293 470.978 118.77 470.978 Q122.774 470.978 125.112 468.871 Q127.45 466.765 127.45 463.154 Q127.45 459.543 125.112 457.436 Q122.774 455.33 118.77 455.33 Q116.895 455.33 115.02 455.746 Q113.168 456.163 111.223 457.043 L111.223 439.682 Z" fill="#9eb1be" fill-rule="nonzero" fill-opacity="1" /><path clip-path="url(#clip330)" d="M151.339 442.76 Q147.728 442.76 145.899 446.325 Q144.093 449.867 144.093 456.996 Q144.093 464.103 145.899 467.668 Q147.728 471.209 151.339 471.209 Q154.973 471.209 156.779 467.668 Q158.607 464.103 158.607 456.996 Q158.607 449.867 156.779 446.325 Q154.973 442.76 151.339 442.76 M151.339 439.057 Q157.149 439.057 160.205 443.663 Q163.283 448.246 163.283 456.996 Q163.283 465.723 160.205 470.33 Q157.149 474.913 151.339 474.913 Q145.529 474.913 142.45 470.33 Q139.394 465.723 139.394 456.996 Q139.394 448.246 142.45 443.663 Q145.529 439.057 151.339 439.057 Z" fill="#9eb1be" fill-rule="nonzero" fill-opacity="1" /><path clip-path="url(#clip330)" d="M181.501 442.76 Q177.89 442.76 176.061 446.325 Q174.255 449.867 174.255 456.996 Q174.255 464.103 176.061 467.668 Q177.89 471.209 181.501 471.209 Q185.135 471.209 186.94 467.668 Q188.769 464.103 188.769 456.996 Q188.769 449.867 186.94 446.325 Q185.135 442.76 181.501 442.76 M181.501 439.057 Q187.311 439.057 190.366 443.663 Q193.445 448.246 193.445 456.996 Q193.445 465.723 190.366 470.33 Q187.311 474.913 181.501 474.913 Q175.691 474.913 172.612 470.33 Q169.556 465.723 169.556 456.996 Q169.556 448.246 172.612 443.663 Q175.691 439.057 181.501 439.057 Z" fill="#9eb1be" fill-rule="nonzero" fill-opacity="1" /><path clip-path="url(#clip330)" d="M51.6634 187.653 L59.3023 187.653 L59.3023 161.287 L50.9921 162.954 L50.9921 158.695 L59.256 157.028 L63.9319 157.028 L63.9319 187.653 L71.5707 187.653 L71.5707 191.588 L51.6634 191.588 L51.6634 187.653 Z" fill="#9eb1be" fill-rule="nonzero" fill-opacity="1" /><path clip-path="url(#clip330)" d="M85.0429 187.653 L101.362 187.653 L101.362 191.588 L79.4179 191.588 L79.4179 187.653 Q82.0799 184.898 86.6632 180.269 Q91.2697 175.616 92.4502 174.273 Q94.6956 171.75 95.5752 170.014 Q96.478 168.255 96.478 166.565 Q96.478 163.81 94.5336 162.074 Q92.6123 160.338 89.5104 160.338 Q87.3114 160.338 84.8577 161.102 Q82.4271 161.866 79.6494 163.417 L79.6494 158.695 Q82.4734 157.56 84.9271 156.982 Q87.3808 156.403 89.4178 156.403 Q94.7882 156.403 97.9826 159.088 Q101.177 161.773 101.177 166.264 Q101.177 168.394 100.367 170.315 Q99.5798 172.213 97.4734 174.806 Q96.8947 175.477 93.7928 178.695 Q90.691 181.889 85.0429 187.653 Z" fill="#9eb1be" fill-rule="nonzero" fill-opacity="1" /><path clip-path="url(#clip330)" d="M121.177 160.107 Q117.566 160.107 115.737 163.671 Q113.932 167.213 113.932 174.343 Q113.932 181.449 115.737 185.014 Q117.566 188.556 121.177 188.556 Q124.811 188.556 126.617 185.014 Q128.445 181.449 128.445 174.343 Q128.445 167.213 126.617 163.671 Q124.811 160.107 121.177 160.107 M121.177 156.403 Q126.987 156.403 130.043 161.009 Q133.121 165.593 133.121 174.343 Q133.121 183.069 130.043 187.676 Q126.987 192.259 121.177 192.259 Q115.367 192.259 112.288 187.676 Q109.233 183.069 109.233 174.343 Q109.233 165.593 112.288 161.009 Q115.367 156.403 121.177 156.403 Z" fill="#9eb1be" fill-rule="nonzero" fill-opacity="1" /><path clip-path="url(#clip330)" d="M151.339 160.107 Q147.728 160.107 145.899 163.671 Q144.093 167.213 144.093 174.343 Q144.093 181.449 145.899 185.014 Q147.728 188.556 151.339 188.556 Q154.973 188.556 156.779 185.014 Q158.607 181.449 158.607 174.343 Q158.607 167.213 156.779 163.671 Q154.973 160.107 151.339 160.107 M151.339 156.403 Q157.149 156.403 160.205 161.009 Q163.283 165.593 163.283 174.343 Q163.283 183.069 160.205 187.676 Q157.149 192.259 151.339 192.259 Q145.529 192.259 142.45 187.676 Q139.394 183.069 139.394 174.343 Q139.394 165.593 142.45 161.009 Q145.529 156.403 151.339 156.403 Z" fill="#9eb1be" fill-rule="nonzero" fill-opacity="1" /><path clip-path="url(#clip330)" d="M181.501 160.107 Q177.89 160.107 176.061 163.671 Q174.255 167.213 174.255 174.343 Q174.255 181.449 176.061 185.014 Q177.89 188.556 181.501 188.556 Q185.135 188.556 186.94 185.014 Q188.769 181.449 188.769 174.343 Q188.769 167.213 186.94 163.671 Q185.135 160.107 181.501 160.107 M181.501 156.403 Q187.311 156.403 190.366 161.009 Q193.445 165.593 193.445 174.343 Q193.445 183.069 190.366 187.676 Q187.311 192.259 181.501 192.259 Q175.691 192.259 172.612 187.676 Q169.556 183.069 169.556 174.343 Q169.556 165.593 172.612 161.009 Q175.691 156.403 181.501 156.403 Z" fill="#9eb1be" fill-rule="nonzero" fill-opacity="1" /><path clip-path="url(#clip330)" d="M229.445 8.64 L256.76 8.64 L256.76 13.559 L235.29 13.559 L235.29 26.3482 L255.863 26.3482 L255.863 31.2672 L235.29 31.2672 L235.29 46.921 L257.281 46.921 L257.281 51.84 L229.445 51.84 L229.445 8.64 Z" fill="#adb2b7" fill-rule="nonzero" fill-opacity="1" /><path clip-path="url(#clip330)" d="M269.838 35.6653 Q269.838 41.5391 272.24 44.8956 Q274.671 48.2231 278.895 48.2231 Q283.12 48.2231 285.55 44.8956 Q287.981 41.5391 287.981 35.6653 Q287.981 29.7915 285.55 26.464 Q283.12 23.1075 278.895 23.1075 Q274.671 23.1075 272.24 26.464 Q269.838 29.7915 269.838 35.6653 M287.981 46.9789 Q286.302 49.8724 283.727 51.2902 Q281.181 52.6791 277.593 52.6791 Q271.719 52.6791 268.015 47.9916 Q264.341 43.3042 264.341 35.6653 Q264.341 28.0265 268.015 23.339 Q271.719 18.6515 277.593 18.6515 Q281.181 18.6515 283.727 20.0693 Q286.302 21.4582 287.981 24.3517 L287.981 19.4328 L293.305 19.4328 L293.305 64.1663 L287.981 64.1663 L287.981 46.9789 Z" fill="#adb2b7" fill-rule="nonzero" fill-opacity="1" /><path clip-path="url(#clip330)" d="M303.721 39.0507 L303.721 19.4328 L309.045 19.4328 L309.045 38.8482 Q309.045 43.4488 310.839 45.7636 Q312.633 48.0495 316.221 48.0495 Q320.533 48.0495 323.021 45.3007 Q325.538 42.5519 325.538 37.8065 L325.538 19.4328 L330.862 19.4328 L330.862 51.84 L325.538 51.84 L325.538 46.8632 Q323.6 49.8145 321.024 51.2613 Q318.478 52.6791 315.093 52.6791 Q309.508 52.6791 306.615 49.2069 Q303.721 45.7347 303.721 39.0507 M317.118 18.6515 L317.118 18.6515 Z" fill="#adb2b7" fill-rule="nonzero" fill-opacity="1" /><path clip-path="url(#clip330)" d="M341.829 19.4328 L347.153 19.4328 L347.153 51.84 L341.829 51.84 L341.829 19.4328 M341.829 6.81709 L347.153 6.81709 L347.153 13.559 L341.829 13.559 L341.829 6.81709 Z" fill="#adb2b7" fill-rule="nonzero" fill-opacity="1" /><path clip-path="url(#clip330)" d="M363.559 10.2314 L363.559 19.4328 L374.525 19.4328 L374.525 23.5705 L363.559 23.5705 L363.559 41.163 Q363.559 45.1271 364.63 46.2555 Q365.729 47.384 369.057 47.384 L374.525 47.384 L374.525 51.84 L369.057 51.84 Q362.893 51.84 360.55 49.5541 Q358.206 47.2393 358.206 41.163 L358.206 23.5705 L354.3 23.5705 L354.3 19.4328 L358.206 19.4328 L358.206 10.2314 L363.559 10.2314 Z" fill="#adb2b7" fill-rule="nonzero" fill-opacity="1" /><path clip-path="url(#clip330)" d="M395.011 54.8492 Q392.754 60.6362 390.613 62.4013 Q388.472 64.1663 384.884 64.1663 L380.631 64.1663 L380.631 59.7103 L383.756 59.7103 Q385.955 59.7103 387.17 58.6687 Q388.385 57.627 389.861 53.7497 L390.816 51.3192 L377.708 19.4328 L383.35 19.4328 L393.478 44.7799 L403.605 19.4328 L409.247 19.4328 L395.011 54.8492 Z" fill="#adb2b7" fill-rule="nonzero" fill-opacity="1" /><polyline clip-path="url(#clip331)" style="stroke:#bbbb00; stroke-linecap:round; stroke-linejoin:round; stroke-width:4; stroke-opacity:1; fill:none" points="289.539,1304.92 292.325,1304.92 295.111,1304.92 297.897,1304.92 300.683,1304.92 303.469,1304.92 306.255,1304.92 309.041,1304.92 311.827,1304.92 314.613,1304.92 317.399,1304.92 320.185,1304.92 322.971,1304.92 325.757,1304.92 328.543,1304.92 331.329,1304.92 334.115,1304.92 336.901,1304.92 339.687,1304.92 342.472,1304.92 345.258,1304.92 348.044,1304.92 350.83,1304.92 353.616,1304.92 353.616,1309.55 356.402,1309.55 356.402,1323.43 359.188,1323.43 359.188,1328.18 361.974,1328.18 361.974,1350.58 364.76,1350.58 367.546,1350.58 370.332,1350.58 373.118,1350.58 375.904,1350.58 378.69,1350.58 381.476,1350.58 381.476,1355.2 384.262,1355.2 384.262,1368.65 387.048,1368.65 387.048,1387.01 389.834,1387.01 389.834,1403.88 392.62,1403.88 392.62,1408.16 395.406,1408.16 395.406,1414.47 398.192,1414.47 398.192,1442.77 400.978,1442.77 403.764,1442.77 406.55,1442.77 406.55,1447.38 409.336,1447.38 409.336,1441.13 412.122,1441.13 412.122,1420.96 414.908,1420.96 414.908,1393.54 417.694,1393.54 417.694,1349.78 420.48,1349.78 420.48,1313.77 423.266,1313.77 423.266,1325.07 426.052,1325.07 426.052,1292.74 428.838,1292.74 428.838,1276.89 431.624,1276.89 431.624,1260.5 434.41,1260.5 434.41,1272.81 437.196,1272.81 437.196,1272.63 439.982,1272.63 439.982,1296.38 442.768,1296.38 442.768,1265.29 445.554,1265.29 445.554,1272.23 448.34,1272.23 448.34,1267 451.126,1267 451.126,1246.61 453.912,1246.61 453.912,1194.11 456.698,1194.11 456.698,1162.37 459.484,1162.37 459.484,1164.97 462.27,1164.97 462.27,1124.23 465.056,1124.23 465.056,1100.86 467.842,1100.86 467.842,1064.71 470.628,1064.71 470.628,1076.77 473.414,1076.77 473.414,1071.93 476.2,1071.93 476.2,1024.05 478.986,1024.05 478.986,1016.21 481.772,1016.21 481.772,1025.37 484.558,1025.37 484.558,1005.57 487.344,1005.57 487.344,1006.39 490.13,1006.39 490.13,995.713 492.916,995.713 492.916,1012.17 495.702,1012.17 495.702,1009.84 498.488,1009.84 498.488,979.265 501.274,979.265 501.274,972.176 504.06,972.176 504.06,966.104 506.846,966.104 506.846,963.181 509.632,963.181 509.632,960.095 512.418,960.095 512.418,929.486 515.204,929.486 515.204,922.026 517.99,922.026 517.99,936.461 520.776,936.461 520.776,921.582 523.562,921.582 523.562,908.825 526.348,908.825 526.348,944.43 529.134,944.43 529.134,945.277 531.919,945.277 531.919,932.458 534.705,932.458 534.705,947.111 537.491,947.111 537.491,968.703 540.277,968.703 543.063,968.703 543.063,973.328 545.849,973.328 545.849,966.238 548.635,966.238 548.635,1016.95 551.421,1016.95 551.421,1021.6 554.207,1021.6 554.207,1013.03 556.993,1013.03 556.993,1028.94 559.779,1028.94 559.779,1023.9 562.565,1023.9 562.565,976.051 565.351,976.051 565.351,934.049 568.137,934.049 568.137,926.76 570.923,926.76 570.923,947.489 573.709,947.489 573.709,960.387 576.495,960.387 576.495,943.509 579.281,943.509 579.281,949.03 582.067,949.03 582.067,918.954 584.853,918.954 584.853,965.912 587.639,965.912 587.639,932.127 590.425,932.127 590.425,918.346 593.211,918.346 593.211,948.041 595.997,948.041 595.997,946.674 598.783,946.674 598.783,932.481 601.569,932.481 601.569,958.865 604.355,958.865 604.355,943.18 607.141,943.18 607.141,950.96 609.927,950.96 609.927,914.106 612.713,914.106 612.713,889.643 615.499,889.643 615.499,907.464 618.285,907.464 618.285,870.215 621.071,870.215 621.071,858.102 623.857,858.102 623.857,858.953 626.643,858.953 626.643,864.123 629.429,864.123 629.429,827.115 632.215,827.115 632.215,836.675 635.001,836.675 635.001,817.246 637.787,817.246 637.787,872.305 640.573,872.305 640.573,873.794 643.359,873.794 643.359,865.15 646.145,865.15 646.145,900.378 648.931,900.378 651.717,900.378 651.717,905.178 654.503,905.178 654.503,872.207 657.289,872.207 657.289,888.047 660.075,888.047 660.075,907.37 662.861,907.37 665.647,907.37 668.433,907.37 671.219,907.37 674.005,907.37 676.791,907.37 679.577,907.37 679.577,912.44 682.363,912.44 682.363,887.153 685.149,887.153 685.149,870.637 687.935,870.637 687.935,862.797 690.721,862.797 690.721,881.78 693.507,881.78 693.507,932.403 696.293,932.403 699.079,932.403 701.865,932.403 701.865,937.502 704.651,937.502 704.651,961.522 707.437,961.522 710.223,961.522 710.223,966.134 713.009,966.134 713.009,920.307 715.795,920.307 715.795,893.048 718.581,893.048 718.581,908.939 721.366,908.939 721.366,916.294 724.152,916.294 724.152,919.229 726.938,919.229 726.938,952.731 729.724,952.731 729.724,965.843 732.51,965.843 732.51,970.586 735.296,970.586 735.296,975.053 738.082,975.053 738.082,977.619 740.868,977.619 740.868,1025.08 743.654,1025.08 746.44,1025.08 749.226,1025.08 752.012,1025.08 754.798,1025.08 757.584,1025.08 760.37,1025.08 763.156,1025.08 765.942,1025.08 765.942,1029.62 768.728,1029.62 768.728,1028.75 771.514,1028.75 771.514,1087.94 774.3,1087.94 777.086,1087.94 779.872,1087.94 779.872,1092.57 782.658,1092.57 782.658,1074.79 785.444,1074.79 785.444,1121.84 788.23,1121.84 791.016,1121.84 793.802,1121.84 796.588,1121.84 796.588,1126.84 799.374,1126.84 799.374,1143.84 802.16,1143.84 804.946,1143.84 807.732,1143.84 810.518,1143.84 813.304,1143.84 813.304,1148.44 816.09,1148.44 816.09,1099.5 818.876,1099.5 818.876,1103.82 821.662,1103.82 821.662,1128.39 824.448,1128.39 824.448,1113.86 827.234,1113.86 827.234,1078.75 830.02,1078.75 830.02,1064.17 832.806,1064.17 832.806,1069.39 835.592,1069.39 835.592,1096.42 838.378,1096.42 838.378,1089.28 841.164,1089.28 841.164,1106.49 843.95,1106.49 843.95,1145.25 846.736,1145.25 849.522,1145.25 852.308,1145.25 855.094,1145.25 855.094,1150.43 857.88,1150.43 857.88,1157.61 860.666,1157.61 860.666,1157.16 863.452,1157.16 863.452,1201.53 866.238,1201.53 866.238,1206.73 869.024,1206.73 869.024,1159.59 871.81,1159.59 871.81,1139.72 874.596,1139.72 874.596,1112.94 877.382,1112.94 877.382,1087.47 880.168,1087.47 880.168,1064.43 882.954,1064.43 882.954,1067.57 885.74,1067.57 885.74,1101.46 888.526,1101.46 888.526,1073.47 891.312,1073.47 891.312,1059.88 894.098,1059.88 894.098,1057.3 896.884,1057.3 896.884,1045.08 899.67,1045.08 899.67,1049.6 902.456,1049.6 902.456,1047.51 905.242,1047.51 905.242,1023.08 908.028,1023.08 908.028,1009.39 910.813,1009.39 910.813,964.516 913.599,964.516 913.599,931.889 916.385,931.889 916.385,900.045 919.171,900.045 919.171,902.089 921.957,902.089 921.957,934.949 924.743,934.949 924.743,887.843 927.529,887.843 927.529,907.751 930.315,907.751 930.315,898.602 933.101,898.602 933.101,915.644 935.887,915.644 935.887,916.946 938.673,916.946 938.673,905.237 941.459,905.237 941.459,893.112 944.245,893.112 944.245,889.281 947.031,889.281 947.031,864.967 949.817,864.967 949.817,899.764 952.603,899.764 952.603,917.79 955.389,917.79 955.389,945.387 958.175,945.387 960.961,945.387 963.747,945.387 963.747,950.198 966.533,950.198 966.533,960.401 969.319,960.401 969.319,964.276 972.105,964.276 972.105,969.053 974.891,969.053 974.891,974.075 977.677,974.075 977.677,941.665 980.463,941.665 980.463,936.843 983.249,936.843 983.249,962.289 986.035,962.289 986.035,947.079 988.821,947.079 988.821,934.533 991.607,934.533 991.607,951.076 994.393,951.076 994.393,951.161 997.179,951.161 997.179,981.893 999.965,981.893 1002.75,981.893 1005.54,981.893 1005.54,986.695 1008.32,986.695 1008.32,977.669 1011.11,977.669 1011.11,946.689 1013.89,946.689 1013.89,971.706 1016.68,971.706 1016.68,945.796 1019.47,945.796 1019.47,998.625 1022.25,998.625 1025.04,998.625 1027.82,998.625 1030.61,998.625 1030.61,1003.77 1033.4,1003.77 1033.4,1033 1036.18,1033 1036.18,1039.48 1038.97,1039.48 1038.97,1045.49 1041.75,1045.49 1041.75,1054.96 1044.54,1054.96 1047.33,1054.96 1047.33,1059.53 1050.11,1059.53 1050.11,1110.47 1052.9,1110.47 1055.68,1110.47 1058.47,1110.47 1061.26,1110.47 1064.04,1110.47 1066.83,1110.47 1066.83,1114.89 1069.61,1114.89 1069.61,1073.24 1072.4,1073.24 1072.4,1015.76 1075.19,1015.76 1075.19,982.914 1077.97,982.914 1077.97,1022.79 1080.76,1022.79 1080.76,1035.02 1083.54,1035.02 1083.54,1076.71 1086.33,1076.71 1086.33,1062.58 1089.12,1062.58 1089.12,1069.56 1091.9,1069.56 1091.9,1096.4 1094.69,1096.4 1097.47,1096.4 1100.26,1096.4 1100.26,1101.09 1103.05,1101.09 1103.05,1117.96 1105.83,1117.96 1108.62,1117.96 1111.4,1117.96 1114.19,1117.96 1116.98,1117.96 1119.76,1117.96 1122.55,1117.96 1125.33,1117.96 1128.12,1117.96 1130.91,1117.96 1133.69,1117.96 1136.48,1117.96 1136.48,1122.41 1139.26,1122.41 1139.26,1117.37 1142.05,1117.37 1142.05,1110.18 1144.84,1110.18 1144.84,1119.6 1147.62,1119.6 1147.62,1144.96 1150.41,1144.96 1150.41,1149.74 1153.19,1149.74 1153.19,1145.14 1155.98,1145.14 1155.98,1152.52 1158.77,1152.52 1158.77,1151.47 1161.55,1151.47 1161.55,1147.03 1164.34,1147.03 1164.34,1176.63 1167.12,1176.63 1167.12,1181.09 1169.91,1181.09 1169.91,1205.66 1172.7,1205.66 1172.7,1210.48 1175.48,1210.48 1175.48,1207.24 1178.27,1207.24 1178.27,1211.62 1181.05,1211.62 1181.05,1204.52 1183.84,1204.52 1183.84,1212.84 1186.63,1212.84 1186.63,1213.49 1189.41,1213.49 1189.41,1203.14 1192.2,1203.14 1192.2,1243.79 1194.98,1243.79 1194.98,1248.56 1197.77,1248.56 1197.77,1201.03 1200.56,1201.03 1200.56,1169.99 1203.34,1169.99 1203.34,1124.1 1206.13,1124.1 1206.13,1093.81 1208.91,1093.81 1208.91,1098.23 1211.7,1098.23 1211.7,1108.61 1214.49,1108.61 1214.49,1108.65 1217.27,1108.65 1217.27,1105.99 1220.06,1105.99 1220.06,1092.6 1222.84,1092.6 1222.84,1118.77 1225.63,1118.77 1225.63,1108.5 1228.42,1108.5 1228.42,1114.91 1231.2,1114.91 1231.2,1131.12 1233.99,1131.12 1233.99,1168.58 1236.77,1168.58 1236.77,1172.34 1239.56,1172.34 1239.56,1144.88 1242.35,1144.88 1242.35,1128.86 1245.13,1128.86 1245.13,1138.91 1247.92,1138.91 1247.92,1145.67 1250.7,1145.67 1250.7,1117.61 1253.49,1117.61 1253.49,1107.65 1256.28,1107.65 1256.28,1095.74 1259.06,1095.74 1259.06,1073.75 1261.85,1073.75 1261.85,1056.61 1264.63,1056.61 1264.63,1043.34 1267.42,1043.34 1267.42,1055.22 1270.21,1055.22 1270.21,1036.91 1272.99,1036.91 1272.99,1093.58 1275.78,1093.58 1275.78,1114.84 1278.56,1114.84 1281.35,1114.84 1284.14,1114.84 1286.92,1114.84 1286.92,1119.51 1289.71,1119.51 1289.71,1104.03 1292.49,1104.03 1292.49,1087.41 1295.28,1087.41 1295.28,1138.54 1298.07,1138.54 1300.85,1138.54 1303.64,1138.54 1306.42,1138.54 1306.42,1143.17 1309.21,1143.17 1309.21,1154.24 1312,1154.24 1312,1140.55 1314.78,1140.55 1314.78,1145.84 1317.57,1145.84 1317.57,1101.91 1320.35,1101.91 1320.35,1103.84 1323.14,1103.84 1323.14,1110.9 1325.93,1110.9 1325.93,1123.8 1328.71,1123.8 1328.71,1160.3 1331.5,1160.3 1331.5,1164.48 1334.28,1164.48 1334.28,1136.65 1337.07,1136.65 1337.07,1139.29 1339.86,1139.29 1339.86,1217.32 1342.64,1217.32 1345.43,1217.32 1345.43,1221.96 1348.21,1221.96 1348.21,1195.01 1351,1195.01 1351,1175.76 1353.79,1175.76 1353.79,1189.47 1356.57,1189.47 1356.57,1174.58 1359.36,1174.58 1359.36,1175.96 1362.14,1175.96 1362.14,1140.16 1364.93,1140.16 1364.93,1119.14 1367.72,1119.14 1367.72,1082.38 1370.5,1082.38 1370.5,1079.32 1373.29,1079.32 1373.29,1085.97 1376.07,1085.97 1376.07,1060.8 1378.86,1060.8 1378.86,1043.01 1381.65,1043.01 1381.65,1039.97 1384.43,1039.97 1384.43,1032.5 1387.22,1032.5 1387.22,971.572 1390,971.572 1390,952.42 1392.79,952.42 1392.79,925.099 1395.57,925.099 1395.57,954.068 1398.36,954.068 1398.36,939.055 1401.15,939.055 1401.15,931.371 1403.93,931.371 1403.93,934.909 1406.72,934.909 1406.72,949.362 1409.5,949.362 1409.5,910.157 1412.29,910.157 1412.29,884.651 1415.08,884.651 1415.08,904.902 1417.86,904.902 1417.86,886.36 1420.65,886.36 1420.65,837.46 1423.43,837.46 1423.43,850.168 1426.22,850.168 1426.22,872.316 1429.01,872.316 1429.01,833.151 1431.79,833.151 1431.79,838.191 1434.58,838.191 1434.58,861.917 1437.36,861.917 1437.36,865.269 1440.15,865.269 1440.15,882.408 1442.94,882.408 1442.94,882.184 1445.72,882.184 1445.72,931.255 1448.51,931.255 1448.51,935.864 1451.29,935.864 1451.29,913.81 1454.08,913.81 1454.08,887 1456.87,887 1456.87,906.305 1459.65,906.305 1459.65,859.221 1462.44,859.221 1462.44,836.138 1465.22,836.138 1465.22,833.994 1468.01,833.994 1468.01,847.738 1470.8,847.738 1470.8,848.237 1473.58,848.237 1473.58,852.83 1476.37,852.83 1476.37,868.422 1479.15,868.422 1479.15,836.451 1481.94,836.451 1481.94,889.13 1484.73,889.13 1484.73,898.691 1487.51,898.691 1487.51,921.083 1490.3,921.083 1493.08,921.083 1493.08,926.259 1495.87,926.259 1495.87,887.813 1498.66,887.813 1498.66,850.288 1501.44,850.288 1501.44,833.86 1504.23,833.86 1504.23,845.842 1507.01,845.842 1507.01,835.543 1509.8,835.543 1509.8,874.907 1512.59,874.907 1512.59,886.737 1515.37,886.737 1515.37,871.545 1518.16,871.545 1518.16,880.891 1520.94,880.891 1520.94,893.763 1523.73,893.763 1523.73,907.997 1526.52,907.997 1526.52,901.915 1529.3,901.915 1529.3,919.965 1532.09,919.965 1532.09,924.695 1534.87,924.695 1534.87,940.832 1537.66,940.832 1537.66,945.557 1540.45,945.557 1540.45,913.49 1543.23,913.49 1543.23,910.631 1546.02,910.631 1546.02,900.254 1548.8,900.254 1548.8,928.358 1551.59,928.358 1551.59,979.463 1554.38,979.463 1554.38,968.238 1557.16,968.238 1557.16,960.208 1559.95,960.208 1559.95,980.357 1562.73,980.357 1562.73,956.65 1565.52,956.65 1565.52,964.332 1568.31,964.332 1568.31,927.035 1571.09,927.035 1571.09,936.208 1573.88,936.208 1573.88,894.684 1576.66,894.684 1576.66,876.884 1579.45,876.884 1579.45,895.847 1582.24,895.847 1582.24,871.732 1585.02,871.732 1585.02,885.575 1587.81,885.575 1587.81,879.681 1590.59,879.681 1590.59,877.77 1593.38,877.77 1593.38,879.41 1596.17,879.41 1596.17,860.033 1598.95,860.033 1598.95,874.451 1601.74,874.451 1601.74,852.557 1604.52,852.557 1604.52,871.666 1607.31,871.666 1607.31,866.835 1610.1,866.835 1610.1,851.085 1612.88,851.085 1612.88,869.071 1615.67,869.071 1615.67,872.976 1618.45,872.976 1618.45,868.566 1621.24,868.566 1621.24,846.23 1624.03,846.23 1624.03,808.136 1626.81,808.136 1626.81,803.93 1629.6,803.93 1629.6,819.724 1632.38,819.724 1632.38,777.231 1635.17,777.231 1635.17,776.111 1637.96,776.111 1637.96,765.57 1640.74,765.57 1640.74,749.978 1643.53,749.978 1643.53,754.543 1646.31,754.543 1646.31,750.209 1649.1,750.209 1649.1,728.335 1651.89,728.335 1651.89,729.669 1654.67,729.669 1654.67,730.192 1657.46,730.192 1657.46,724.708 1660.24,724.708 1660.24,701.591 1663.03,701.591 1663.03,694.323 1665.82,694.323 1665.82,683.642 1668.6,683.642 1668.6,710.901 1671.39,710.901 1671.39,701.023 1674.17,701.023 1674.17,697.435 1676.96,697.435 1676.96,723.928 1679.75,723.928 1679.75,728.915 1682.53,728.915 1682.53,712.079 1685.32,712.079 1685.32,703.795 1688.1,703.795 1688.1,732.291 1690.89,732.291 1690.89,737.001 1693.68,737.001 1693.68,741.709 1696.46,741.709 1696.46,755.98 1699.25,755.98 1699.25,785.768 1702.03,785.768 1704.82,785.768 1707.61,785.768 1710.39,785.768 1710.39,790.649 1713.18,790.649 1713.18,758.252 1715.96,758.252 1715.96,748.146 1718.75,748.146 1718.75,744.09 1721.54,744.09 1721.54,734.777 1724.32,734.777 1724.32,758.332 1727.11,758.332 1727.11,729.386 1729.89,729.386 1729.89,713.125 1732.68,713.125 1732.68,724.585 1735.47,724.585 1735.47,754.254 1738.25,754.254 1738.25,707.272 1741.04,707.272 1741.04,688.763 1743.82,688.763 1743.82,673.733 1746.61,673.733 1746.61,664.093 1749.4,664.093 1749.4,702.278 1752.18,702.278 1752.18,674.022 1754.97,674.022 1754.97,633.634 1757.75,633.634 1757.75,672.573 1760.54,672.573 1760.54,687.451 1763.32,687.451 1763.32,683.188 1766.11,683.188 1766.11,663.135 1768.9,663.135 1768.9,679.204 1771.68,679.204 1771.68,658.851 1774.47,658.851 1774.47,661.461 1777.25,661.461 1777.25,638.014 1780.04,638.014 1780.04,646.443 1782.83,646.443 1782.83,642.729 1785.61,642.729 1785.61,622.821 1788.4,622.821 1788.4,595.383 1791.18,595.383 1791.18,601.176 1793.97,601.176 1793.97,608.639 1796.76,608.639 1796.76,628.29 1799.54,628.29 1799.54,619.28 1802.33,619.28 1802.33,604.198 1805.11,604.198 1805.11,585.504 1807.9,585.504 1807.9,573.254 1810.69,573.254 1810.69,582.41 1813.47,582.41 1813.47,556.197 1816.26,556.197 1816.26,549.69 1819.04,549.69 1819.04,571.193 1821.83,571.193 1821.83,572.496 1824.62,572.496 1824.62,586.243 1827.4,586.243 1827.4,614.687 1830.19,614.687 1832.97,614.687 1835.76,614.687 1835.76,619.362 1838.55,619.362 1838.55,573.651 1841.33,573.651 1841.33,568.605 1844.12,568.605 1844.12,523.526 1846.9,523.526 1846.9,553.108 1849.69,553.108 1849.69,559.715 1852.48,559.715 1852.48,555.98 1855.26,555.98 1855.26,514.621 1858.05,514.621 1858.05,547.242 1860.83,547.242 1860.83,552.307 1863.62,552.307 1863.62,567.906 1866.41,567.906 1866.41,584.147 1869.19,584.147 1869.19,570.506 1871.98,570.506 1871.98,551.848 1874.76,551.848 1874.76,528.502 1877.55,528.502 1877.55,508.439 1880.34,508.439 1880.34,514.937 1883.12,514.937 1883.12,507.161 1885.91,507.161 1885.91,496.541 1888.69,496.541 1888.69,531.195 1891.48,531.195 1891.48,545.189 1894.27,545.189 1897.05,545.189 1897.05,550.873 1899.84,550.873 1899.84,574.33 1902.62,574.33 1902.62,579.798 1905.41,579.798 1905.41,544.166 1908.2,544.166 1908.2,533.917 1910.98,533.917 1910.98,545.743 1913.77,545.743 1913.77,565.473 1916.55,565.473 1916.55,580.229 1919.34,580.229 1922.13,580.229 1922.13,585.567 1924.91,585.567 1924.91,563.643 1927.7,563.643 1927.7,591.851 1930.48,591.851 1930.48,639.262 1933.27,639.262 1933.27,644.147 1936.06,644.147 1936.06,630.412 1938.84,630.412 1938.84,642.867 1941.63,642.867 1941.63,635.283 1944.41,635.283 1944.41,602.205 1947.2,602.205 1947.2,568.412 1949.99,568.412 1949.99,568.607 1952.77,568.607 1952.77,540.907 1955.56,540.907 1955.56,529.051 1958.34,529.051 1958.34,507.916 1961.13,507.916 1961.13,482.942 1963.92,482.942 1963.92,473.558 1966.7,473.558 1966.7,462.719 1969.49,462.719 1969.49,471.7 1972.27,471.7 1972.27,477.674 1975.06,477.674 1975.06,433.53 1977.85,433.53 1977.85,450.522 1980.63,450.522 1980.63,435.031 1983.42,435.031 1983.42,394.054 1986.2,394.054 1986.2,371.614 1988.99,371.614 1988.99,379.963 1991.78,379.963 1991.78,347.067 1994.56,347.067 1994.56,383.086 1997.35,383.086 1997.35,420.682 2000.13,420.682 2000.13,449.774 2002.92,449.774 2002.92,476.547 2005.71,476.547 2008.49,476.547 2008.49,481.635 2011.28,481.635 2011.28,479.307 2014.06,479.307 2014.06,434.76 2016.85,434.76 2016.85,398.416 2019.64,398.416 2019.64,370.393 2022.42,370.393 2022.42,346.907 2025.21,346.907 2025.21,345.208 2027.99,345.208 2027.99,357.08 2030.78,357.08 2030.78,396.319 2033.57,396.319 2033.57,410.771 2036.35,410.771 2036.35,400.226 2039.14,400.226 2039.14,422.682 2041.92,422.682 2041.92,427.908 2044.71,427.908 2044.71,461.588 2047.5,461.588 2050.28,461.588 2050.28,466.659 2053.07,466.659 2053.07,547.87 2055.85,547.87 2055.85,572.968 2058.64,572.968 2061.43,572.968 2061.43,577.979 2064.21,577.979 2064.21,573.312 2067,573.312 2067,573.057 2069.78,573.057 2069.78,549.951 2072.57,549.951 2072.57,510.525 2075.36,510.525 2075.36,527.264 2078.14,527.264 2078.14,547.46 2080.93,547.46 2080.93,561.015 2083.71,561.015 2083.71,566.181 2086.5,566.181 2086.5,538.306 2089.29,538.306 2089.29,533.21 2092.07,533.21 2092.07,522.987 2094.86,522.987 2094.86,439.939 2097.64,439.939 2097.64,394.405 2100.43,394.405 2100.43,421.457 2103.22,421.457 2103.22,407.241 2106,407.241 2106,387.542 2108.79,387.542 2108.79,360.828 2111.57,360.828 2111.57,363.131 2114.36,363.131 2114.36,345.041 2117.15,345.041 2117.15,327.606 2119.93,327.606 2119.93,359.473 2122.72,359.473 2122.72,345.211 2125.5,345.211 2125.5,337.097 2128.29,337.097 2128.29,314.099 2131.08,314.099 2131.08,310.404 2133.86,310.404 2133.86,330.247 2136.65,330.247 2136.65,326.692 2139.43,326.692 2139.43,312.313 2142.22,312.313 2142.22,310.413 2145,310.413 2145,315.913 2147.79,315.913 2147.79,305.826 2150.58,305.826 2150.58,336.774 2153.36,336.774 2153.36,302.905 2156.15,302.905 2156.15,325.802 2158.93,325.802 2158.93,380.46 2161.72,380.46 2161.72,385.674 2164.51,385.674 2164.51,362.492 2167.29,362.492 2167.29,325.949 2170.08,325.949 2170.08,283.482 2172.86,283.482 2172.86,290.742 2175.65,290.742 2175.65,277.096 2178.44,277.096 2178.44,318.87 2181.22,318.87 2181.22,328.175 2184.01,328.175 2184.01,292.149 2186.79,292.149 2186.79,271.016 2189.58,271.016 2189.58,288.487 2192.37,288.487 2192.37,348.919 2195.15,348.919 2195.15,270.39 2197.94,270.39 2197.94,250.991 2200.72,250.991 2200.72,251.621 2203.51,251.621 2203.51,222.849 2206.3,222.849 2206.3,238.51 2209.08,238.51 2209.08,256.963 2211.87,256.963 2211.87,229.007 2214.65,229.007 2214.65,212.943 2217.44,212.943 2217.44,208.029 2220.23,208.029 2220.23,209.255 2223.01,209.255 2223.01,203.672 2225.8,203.672 2225.8,193.117 2228.58,193.117 2228.58,163.535 2231.37,163.535 2231.37,198.916 2234.16,198.916 2234.16,186.441 2236.94,186.441 2236.94,149.75 2239.73,149.75 2239.73,145.256 2242.51,145.256 2242.51,162.959 2245.3,162.959 2245.3,185.052 2248.09,185.052 2248.09,256.183 2250.87,256.183 2250.87,261.718 2253.66,261.718 2253.66,224.936 2256.44,224.936 2256.44,284.671 2259.23,284.671 2259.23,255.851 2262.02,255.851 2262.02,262.582 2264.8,262.582 2264.8,243.244 2267.59,243.244 2267.59,223.319 2270.37,223.319 2270.37,238.106 2273.16,238.106 2273.16,303.823 2275.95,303.823 2278.73,303.823 2278.73,308.914 2281.52,308.914 2281.52,309.217 2284.3,309.217 2284.3,306.675 2287.09,306.675 2287.09,281.084 2289.88,281.084 2289.88,279.819 2292.66,279.819 2292.66,195.967 "/>
</svg>
