<?xml version="1.0" encoding="utf-8"?>
<svg xmlns="http://www.w3.org/2000/svg" xmlns:xlink="http://www.w3.org/1999/xlink" width="600" height="400" viewBox="0 0 2400 1600">
<defs>
  <clipPath id="clip740">
    <rect x="0" y="0" width="2400" height="1600"/>
  </clipPath>
</defs>
<path clip-path="url(#clip740)" d="M0 1600 L2400 1600 L2400 0 L0 0  Z" fill="#282c34" fill-rule="evenodd" fill-opacity="1"/>
<defs>
  <clipPath id="clip741">
    <rect x="229" y="123" width="2124" height="1364"/>
  </clipPath>
</defs>
<path clip-path="url(#clip740)" d="M229.445 1486.45 L2352.76 1486.45 L2352.76 123.472 L229.445 123.472  Z" fill="#21252b" fill-rule="evenodd" fill-opacity="1"/>
<polyline clip-path="url(#clip741)" style="stroke:#adb2b7; stroke-linecap:round; stroke-linejoin:round; stroke-width:2; stroke-opacity:0.1; fill:none" points="289.539,1486.45 289.539,123.472 "/>
<polyline clip-path="url(#clip741)" style="stroke:#adb2b7; stroke-linecap:round; stroke-linejoin:round; stroke-width:2; stroke-opacity:0.1; fill:none" points="693.53,1486.45 693.53,123.472 "/>
<polyline clip-path="url(#clip741)" style="stroke:#adb2b7; stroke-linecap:round; stroke-linejoin:round; stroke-width:2; stroke-opacity:0.1; fill:none" points="1097.52,1486.45 1097.52,123.472 "/>
<polyline clip-path="url(#clip741)" style="stroke:#adb2b7; stroke-linecap:round; stroke-linejoin:round; stroke-width:2; stroke-opacity:0.1; fill:none" points="1501.51,1486.45 1501.51,123.472 "/>
<polyline clip-path="url(#clip741)" style="stroke:#adb2b7; stroke-linecap:round; stroke-linejoin:round; stroke-width:2; stroke-opacity:0.1; fill:none" points="1905.5,1486.45 1905.5,123.472 "/>
<polyline clip-path="url(#clip741)" style="stroke:#adb2b7; stroke-linecap:round; stroke-linejoin:round; stroke-width:2; stroke-opacity:0.1; fill:none" points="2309.5,1486.45 2309.5,123.472 "/>
<polyline clip-path="url(#clip741)" style="stroke:#adb2b7; stroke-linecap:round; stroke-linejoin:round; stroke-width:2; stroke-opacity:0.1; fill:none" points="229.445,1486.45 2352.76,1486.45 "/>
<polyline clip-path="url(#clip741)" style="stroke:#adb2b7; stroke-linecap:round; stroke-linejoin:round; stroke-width:2; stroke-opacity:0.1; fill:none" points="229.445,1169.32 2352.76,1169.32 "/>
<polyline clip-path="url(#clip741)" style="stroke:#adb2b7; stroke-linecap:round; stroke-linejoin:round; stroke-width:2; stroke-opacity:0.1; fill:none" points="229.445,852.194 2352.76,852.194 "/>
<polyline clip-path="url(#clip741)" style="stroke:#adb2b7; stroke-linecap:round; stroke-linejoin:round; stroke-width:2; stroke-opacity:0.1; fill:none" points="229.445,535.067 2352.76,535.067 "/>
<polyline clip-path="url(#clip741)" style="stroke:#adb2b7; stroke-linecap:round; stroke-linejoin:round; stroke-width:2; stroke-opacity:0.1; fill:none" points="229.445,217.94 2352.76,217.94 "/>
<polyline clip-path="url(#clip740)" style="stroke:#adb2b7; stroke-linecap:round; stroke-linejoin:round; stroke-width:4; stroke-opacity:1; fill:none" points="229.445,1486.45 2352.76,1486.45 "/>
<polyline clip-path="url(#clip740)" style="stroke:#adb2b7; stroke-linecap:round; stroke-linejoin:round; stroke-width:4; stroke-opacity:1; fill:none" points="289.539,1486.45 289.539,1467.55 "/>
<polyline clip-path="url(#clip740)" style="stroke:#adb2b7; stroke-linecap:round; stroke-linejoin:round; stroke-width:4; stroke-opacity:1; fill:none" points="693.53,1486.45 693.53,1467.55 "/>
<polyline clip-path="url(#clip740)" style="stroke:#adb2b7; stroke-linecap:round; stroke-linejoin:round; stroke-width:4; stroke-opacity:1; fill:none" points="1097.52,1486.45 1097.52,1467.55 "/>
<polyline clip-path="url(#clip740)" style="stroke:#adb2b7; stroke-linecap:round; stroke-linejoin:round; stroke-width:4; stroke-opacity:1; fill:none" points="1501.51,1486.45 1501.51,1467.55 "/>
<polyline clip-path="url(#clip740)" style="stroke:#adb2b7; stroke-linecap:round; stroke-linejoin:round; stroke-width:4; stroke-opacity:1; fill:none" points="1905.5,1486.45 1905.5,1467.55 "/>
<polyline clip-path="url(#clip740)" style="stroke:#adb2b7; stroke-linecap:round; stroke-linejoin:round; stroke-width:4; stroke-opacity:1; fill:none" points="2309.5,1486.45 2309.5,1467.55 "/>
<path clip-path="url(#clip740)" d="M161.333 1544.91 L177.653 1544.91 L177.653 1548.85 L155.708 1548.85 L155.708 1544.91 Q158.37 1542.16 162.954 1537.53 Q167.56 1532.88 168.741 1531.53 Q170.986 1529.01 171.866 1527.27 Q172.769 1525.51 172.769 1523.82 Q172.769 1521.07 170.824 1519.33 Q168.903 1517.6 165.801 1517.6 Q163.602 1517.6 161.148 1518.36 Q158.718 1519.13 155.94 1520.68 L155.94 1515.95 Q158.764 1514.82 161.218 1514.24 Q163.671 1513.66 165.708 1513.66 Q171.079 1513.66 174.273 1516.35 Q177.468 1519.03 177.468 1523.52 Q177.468 1525.65 176.657 1527.57 Q175.87 1529.47 173.764 1532.07 Q173.185 1532.74 170.083 1535.95 Q166.982 1539.15 161.333 1544.91 Z" fill="#9eb1be" fill-rule="nonzero" fill-opacity="1" /><path clip-path="url(#clip740)" d="M197.468 1517.37 Q193.856 1517.37 192.028 1520.93 Q190.222 1524.47 190.222 1531.6 Q190.222 1538.71 192.028 1542.27 Q193.856 1545.82 197.468 1545.82 Q201.102 1545.82 202.907 1542.27 Q204.736 1538.71 204.736 1531.6 Q204.736 1524.47 202.907 1520.93 Q201.102 1517.37 197.468 1517.37 M197.468 1513.66 Q203.278 1513.66 206.333 1518.27 Q209.412 1522.85 209.412 1531.6 Q209.412 1540.33 206.333 1544.94 Q203.278 1549.52 197.468 1549.52 Q191.657 1549.52 188.579 1544.94 Q185.523 1540.33 185.523 1531.6 Q185.523 1522.85 188.579 1518.27 Q191.657 1513.66 197.468 1513.66 Z" fill="#9eb1be" fill-rule="nonzero" fill-opacity="1" /><path clip-path="url(#clip740)" d="M221.657 1544.91 L237.977 1544.91 L237.977 1548.85 L216.032 1548.85 L216.032 1544.91 Q218.694 1542.16 223.278 1537.53 Q227.884 1532.88 229.065 1531.53 Q231.31 1529.01 232.19 1527.27 Q233.092 1525.51 233.092 1523.82 Q233.092 1521.07 231.148 1519.33 Q229.227 1517.6 226.125 1517.6 Q223.926 1517.6 221.472 1518.36 Q219.041 1519.13 216.264 1520.68 L216.264 1515.95 Q219.088 1514.82 221.541 1514.24 Q223.995 1513.66 226.032 1513.66 Q231.403 1513.66 234.597 1516.35 Q237.791 1519.03 237.791 1523.52 Q237.791 1525.65 236.981 1527.57 Q236.194 1529.47 234.088 1532.07 Q233.509 1532.74 230.407 1535.95 Q227.305 1539.15 221.657 1544.91 Z" fill="#9eb1be" fill-rule="nonzero" fill-opacity="1" /><path clip-path="url(#clip740)" d="M257.791 1517.37 Q254.18 1517.37 252.351 1520.93 Q250.546 1524.47 250.546 1531.6 Q250.546 1538.71 252.351 1542.27 Q254.18 1545.82 257.791 1545.82 Q261.425 1545.82 263.231 1542.27 Q265.06 1538.71 265.06 1531.6 Q265.06 1524.47 263.231 1520.93 Q261.425 1517.37 257.791 1517.37 M257.791 1513.66 Q263.601 1513.66 266.657 1518.27 Q269.736 1522.85 269.736 1531.6 Q269.736 1540.33 266.657 1544.94 Q263.601 1549.52 257.791 1549.52 Q251.981 1549.52 248.902 1544.94 Q245.847 1540.33 245.847 1531.6 Q245.847 1522.85 248.902 1518.27 Q251.981 1513.66 257.791 1513.66 Z" fill="#9eb1be" fill-rule="nonzero" fill-opacity="1" /><path clip-path="url(#clip740)" d="M275.199 1533.96 L287.675 1533.96 L287.675 1537.76 L275.199 1537.76 L275.199 1533.96 Z" fill="#9eb1be" fill-rule="nonzero" fill-opacity="1" /><path clip-path="url(#clip740)" d="M305.06 1517.37 Q301.448 1517.37 299.62 1520.93 Q297.814 1524.47 297.814 1531.6 Q297.814 1538.71 299.62 1542.27 Q301.448 1545.82 305.06 1545.82 Q308.694 1545.82 310.499 1542.27 Q312.328 1538.71 312.328 1531.6 Q312.328 1524.47 310.499 1520.93 Q308.694 1517.37 305.06 1517.37 M305.06 1513.66 Q310.87 1513.66 313.925 1518.27 Q317.004 1522.85 317.004 1531.6 Q317.004 1540.33 313.925 1544.94 Q310.87 1549.52 305.06 1549.52 Q299.249 1549.52 296.171 1544.94 Q293.115 1540.33 293.115 1531.6 Q293.115 1522.85 296.171 1518.27 Q299.249 1513.66 305.06 1513.66 Z" fill="#9eb1be" fill-rule="nonzero" fill-opacity="1" /><path clip-path="url(#clip740)" d="M326.032 1544.91 L333.67 1544.91 L333.67 1518.55 L325.36 1520.21 L325.36 1515.95 L333.624 1514.29 L338.3 1514.29 L338.3 1544.91 L345.939 1544.91 L345.939 1548.85 L326.032 1548.85 L326.032 1544.91 Z" fill="#9eb1be" fill-rule="nonzero" fill-opacity="1" /><path clip-path="url(#clip740)" d="M352.629 1533.96 L365.105 1533.96 L365.105 1537.76 L352.629 1537.76 L352.629 1533.96 Z" fill="#9eb1be" fill-rule="nonzero" fill-opacity="1" /><path clip-path="url(#clip740)" d="M382.49 1517.37 Q378.879 1517.37 377.05 1520.93 Q375.244 1524.47 375.244 1531.6 Q375.244 1538.71 377.05 1542.27 Q378.879 1545.82 382.49 1545.82 Q386.124 1545.82 387.929 1542.27 Q389.758 1538.71 389.758 1531.6 Q389.758 1524.47 387.929 1520.93 Q386.124 1517.37 382.49 1517.37 M382.49 1513.66 Q388.3 1513.66 391.355 1518.27 Q394.434 1522.85 394.434 1531.6 Q394.434 1540.33 391.355 1544.94 Q388.3 1549.52 382.49 1549.52 Q376.68 1549.52 373.601 1544.94 Q370.545 1540.33 370.545 1531.6 Q370.545 1522.85 373.601 1518.27 Q376.68 1513.66 382.49 1513.66 Z" fill="#9eb1be" fill-rule="nonzero" fill-opacity="1" /><path clip-path="url(#clip740)" d="M403.462 1544.91 L411.101 1544.91 L411.101 1518.55 L402.79 1520.21 L402.79 1515.95 L411.054 1514.29 L415.73 1514.29 L415.73 1544.91 L423.369 1544.91 L423.369 1548.85 L403.462 1548.85 L403.462 1544.91 Z" fill="#9eb1be" fill-rule="nonzero" fill-opacity="1" /><path clip-path="url(#clip740)" d="M565.51 1544.91 L581.829 1544.91 L581.829 1548.85 L559.885 1548.85 L559.885 1544.91 Q562.547 1542.16 567.13 1537.53 Q571.737 1532.88 572.917 1531.53 Q575.163 1529.01 576.042 1527.27 Q576.945 1525.51 576.945 1523.82 Q576.945 1521.07 575.001 1519.33 Q573.079 1517.6 569.977 1517.6 Q567.778 1517.6 565.325 1518.36 Q562.894 1519.13 560.116 1520.68 L560.116 1515.95 Q562.94 1514.82 565.394 1514.24 Q567.848 1513.66 569.885 1513.66 Q575.255 1513.66 578.45 1516.35 Q581.644 1519.03 581.644 1523.52 Q581.644 1525.65 580.834 1527.57 Q580.047 1529.47 577.94 1532.07 Q577.362 1532.74 574.26 1535.95 Q571.158 1539.15 565.51 1544.91 Z" fill="#9eb1be" fill-rule="nonzero" fill-opacity="1" /><path clip-path="url(#clip740)" d="M601.644 1517.37 Q598.033 1517.37 596.204 1520.93 Q594.399 1524.47 594.399 1531.6 Q594.399 1538.71 596.204 1542.27 Q598.033 1545.82 601.644 1545.82 Q605.278 1545.82 607.084 1542.27 Q608.912 1538.71 608.912 1531.6 Q608.912 1524.47 607.084 1520.93 Q605.278 1517.37 601.644 1517.37 M601.644 1513.66 Q607.454 1513.66 610.51 1518.27 Q613.588 1522.85 613.588 1531.6 Q613.588 1540.33 610.51 1544.94 Q607.454 1549.52 601.644 1549.52 Q595.834 1549.52 592.755 1544.94 Q589.7 1540.33 589.7 1531.6 Q589.7 1522.85 592.755 1518.27 Q595.834 1513.66 601.644 1513.66 Z" fill="#9eb1be" fill-rule="nonzero" fill-opacity="1" /><path clip-path="url(#clip740)" d="M625.834 1544.91 L642.153 1544.91 L642.153 1548.85 L620.209 1548.85 L620.209 1544.91 Q622.871 1542.16 627.454 1537.53 Q632.06 1532.88 633.241 1531.53 Q635.486 1529.01 636.366 1527.27 Q637.269 1525.51 637.269 1523.82 Q637.269 1521.07 635.324 1519.33 Q633.403 1517.6 630.301 1517.6 Q628.102 1517.6 625.648 1518.36 Q623.218 1519.13 620.44 1520.68 L620.44 1515.95 Q623.264 1514.82 625.718 1514.24 Q628.172 1513.66 630.209 1513.66 Q635.579 1513.66 638.773 1516.35 Q641.968 1519.03 641.968 1523.52 Q641.968 1525.65 641.158 1527.57 Q640.371 1529.47 638.264 1532.07 Q637.685 1532.74 634.584 1535.95 Q631.482 1539.15 625.834 1544.91 Z" fill="#9eb1be" fill-rule="nonzero" fill-opacity="1" /><path clip-path="url(#clip740)" d="M661.968 1517.37 Q658.357 1517.37 656.528 1520.93 Q654.722 1524.47 654.722 1531.6 Q654.722 1538.71 656.528 1542.27 Q658.357 1545.82 661.968 1545.82 Q665.602 1545.82 667.408 1542.27 Q669.236 1538.71 669.236 1531.6 Q669.236 1524.47 667.408 1520.93 Q665.602 1517.37 661.968 1517.37 M661.968 1513.66 Q667.778 1513.66 670.833 1518.27 Q673.912 1522.85 673.912 1531.6 Q673.912 1540.33 670.833 1544.94 Q667.778 1549.52 661.968 1549.52 Q656.158 1549.52 653.079 1544.94 Q650.023 1540.33 650.023 1531.6 Q650.023 1522.85 653.079 1518.27 Q656.158 1513.66 661.968 1513.66 Z" fill="#9eb1be" fill-rule="nonzero" fill-opacity="1" /><path clip-path="url(#clip740)" d="M679.375 1533.96 L691.852 1533.96 L691.852 1537.76 L679.375 1537.76 L679.375 1533.96 Z" fill="#9eb1be" fill-rule="nonzero" fill-opacity="1" /><path clip-path="url(#clip740)" d="M709.236 1517.37 Q705.625 1517.37 703.796 1520.93 Q701.991 1524.47 701.991 1531.6 Q701.991 1538.71 703.796 1542.27 Q705.625 1545.82 709.236 1545.82 Q712.87 1545.82 714.676 1542.27 Q716.504 1538.71 716.504 1531.6 Q716.504 1524.47 714.676 1520.93 Q712.87 1517.37 709.236 1517.37 M709.236 1513.66 Q715.046 1513.66 718.102 1518.27 Q721.18 1522.85 721.18 1531.6 Q721.18 1540.33 718.102 1544.94 Q715.046 1549.52 709.236 1549.52 Q703.426 1549.52 700.347 1544.94 Q697.292 1540.33 697.292 1531.6 Q697.292 1522.85 700.347 1518.27 Q703.426 1513.66 709.236 1513.66 Z" fill="#9eb1be" fill-rule="nonzero" fill-opacity="1" /><path clip-path="url(#clip740)" d="M730.208 1544.91 L737.847 1544.91 L737.847 1518.55 L729.537 1520.21 L729.537 1515.95 L737.801 1514.29 L742.477 1514.29 L742.477 1544.91 L750.115 1544.91 L750.115 1548.85 L730.208 1548.85 L730.208 1544.91 Z" fill="#9eb1be" fill-rule="nonzero" fill-opacity="1" /><path clip-path="url(#clip740)" d="M756.805 1533.96 L769.282 1533.96 L769.282 1537.76 L756.805 1537.76 L756.805 1533.96 Z" fill="#9eb1be" fill-rule="nonzero" fill-opacity="1" /><path clip-path="url(#clip740)" d="M786.666 1517.37 Q783.055 1517.37 781.226 1520.93 Q779.421 1524.47 779.421 1531.6 Q779.421 1538.71 781.226 1542.27 Q783.055 1545.82 786.666 1545.82 Q790.3 1545.82 792.106 1542.27 Q793.935 1538.71 793.935 1531.6 Q793.935 1524.47 792.106 1520.93 Q790.3 1517.37 786.666 1517.37 M786.666 1513.66 Q792.476 1513.66 795.532 1518.27 Q798.611 1522.85 798.611 1531.6 Q798.611 1540.33 795.532 1544.94 Q792.476 1549.52 786.666 1549.52 Q780.856 1549.52 777.777 1544.94 Q774.722 1540.33 774.722 1531.6 Q774.722 1522.85 777.777 1518.27 Q780.856 1513.66 786.666 1513.66 Z" fill="#9eb1be" fill-rule="nonzero" fill-opacity="1" /><path clip-path="url(#clip740)" d="M810.856 1544.91 L827.175 1544.91 L827.175 1548.85 L805.231 1548.85 L805.231 1544.91 Q807.893 1542.16 812.476 1537.53 Q817.083 1532.88 818.263 1531.53 Q820.509 1529.01 821.388 1527.27 Q822.291 1525.51 822.291 1523.82 Q822.291 1521.07 820.347 1519.33 Q818.425 1517.6 815.323 1517.6 Q813.124 1517.6 810.671 1518.36 Q808.24 1519.13 805.462 1520.68 L805.462 1515.95 Q808.286 1514.82 810.74 1514.24 Q813.194 1513.66 815.231 1513.66 Q820.601 1513.66 823.796 1516.35 Q826.99 1519.03 826.99 1523.52 Q826.99 1525.65 826.18 1527.57 Q825.393 1529.47 823.286 1532.07 Q822.708 1532.74 819.606 1535.95 Q816.504 1539.15 810.856 1544.91 Z" fill="#9eb1be" fill-rule="nonzero" fill-opacity="1" /><path clip-path="url(#clip740)" d="M969.027 1544.91 L985.346 1544.91 L985.346 1548.85 L963.402 1548.85 L963.402 1544.91 Q966.064 1542.16 970.647 1537.53 Q975.253 1532.88 976.434 1531.53 Q978.679 1529.01 979.559 1527.27 Q980.462 1525.51 980.462 1523.82 Q980.462 1521.07 978.517 1519.33 Q976.596 1517.6 973.494 1517.6 Q971.295 1517.6 968.841 1518.36 Q966.411 1519.13 963.633 1520.68 L963.633 1515.95 Q966.457 1514.82 968.911 1514.24 Q971.365 1513.66 973.402 1513.66 Q978.772 1513.66 981.966 1516.35 Q985.161 1519.03 985.161 1523.52 Q985.161 1525.65 984.351 1527.57 Q983.564 1529.47 981.457 1532.07 Q980.878 1532.74 977.777 1535.95 Q974.675 1539.15 969.027 1544.91 Z" fill="#9eb1be" fill-rule="nonzero" fill-opacity="1" /><path clip-path="url(#clip740)" d="M1005.16 1517.37 Q1001.55 1517.37 999.721 1520.93 Q997.915 1524.47 997.915 1531.6 Q997.915 1538.71 999.721 1542.27 Q1001.55 1545.82 1005.16 1545.82 Q1008.79 1545.82 1010.6 1542.27 Q1012.43 1538.71 1012.43 1531.6 Q1012.43 1524.47 1010.6 1520.93 Q1008.79 1517.37 1005.16 1517.37 M1005.16 1513.66 Q1010.97 1513.66 1014.03 1518.27 Q1017.11 1522.85 1017.11 1531.6 Q1017.11 1540.33 1014.03 1544.94 Q1010.97 1549.52 1005.16 1549.52 Q999.351 1549.52 996.272 1544.94 Q993.216 1540.33 993.216 1531.6 Q993.216 1522.85 996.272 1518.27 Q999.351 1513.66 1005.16 1513.66 Z" fill="#9eb1be" fill-rule="nonzero" fill-opacity="1" /><path clip-path="url(#clip740)" d="M1029.35 1544.91 L1045.67 1544.91 L1045.67 1548.85 L1023.73 1548.85 L1023.73 1544.91 Q1026.39 1542.16 1030.97 1537.53 Q1035.58 1532.88 1036.76 1531.53 Q1039 1529.01 1039.88 1527.27 Q1040.79 1525.51 1040.79 1523.82 Q1040.79 1521.07 1038.84 1519.33 Q1036.92 1517.6 1033.82 1517.6 Q1031.62 1517.6 1029.17 1518.36 Q1026.73 1519.13 1023.96 1520.68 L1023.96 1515.95 Q1026.78 1514.82 1029.23 1514.24 Q1031.69 1513.66 1033.73 1513.66 Q1039.1 1513.66 1042.29 1516.35 Q1045.48 1519.03 1045.48 1523.52 Q1045.48 1525.65 1044.67 1527.57 Q1043.89 1529.47 1041.78 1532.07 Q1041.2 1532.74 1038.1 1535.95 Q1035 1539.15 1029.35 1544.91 Z" fill="#9eb1be" fill-rule="nonzero" fill-opacity="1" /><path clip-path="url(#clip740)" d="M1065.48 1517.37 Q1061.87 1517.37 1060.04 1520.93 Q1058.24 1524.47 1058.24 1531.6 Q1058.24 1538.71 1060.04 1542.27 Q1061.87 1545.82 1065.48 1545.82 Q1069.12 1545.82 1070.92 1542.27 Q1072.75 1538.71 1072.75 1531.6 Q1072.75 1524.47 1070.92 1520.93 Q1069.12 1517.37 1065.48 1517.37 M1065.48 1513.66 Q1071.29 1513.66 1074.35 1518.27 Q1077.43 1522.85 1077.43 1531.6 Q1077.43 1540.33 1074.35 1544.94 Q1071.29 1549.52 1065.48 1549.52 Q1059.67 1549.52 1056.6 1544.94 Q1053.54 1540.33 1053.54 1531.6 Q1053.54 1522.85 1056.6 1518.27 Q1059.67 1513.66 1065.48 1513.66 Z" fill="#9eb1be" fill-rule="nonzero" fill-opacity="1" /><path clip-path="url(#clip740)" d="M1082.89 1533.96 L1095.37 1533.96 L1095.37 1537.76 L1082.89 1537.76 L1082.89 1533.96 Z" fill="#9eb1be" fill-rule="nonzero" fill-opacity="1" /><path clip-path="url(#clip740)" d="M1112.75 1517.37 Q1109.14 1517.37 1107.31 1520.93 Q1105.51 1524.47 1105.51 1531.6 Q1105.51 1538.71 1107.31 1542.27 Q1109.14 1545.82 1112.75 1545.82 Q1116.39 1545.82 1118.19 1542.27 Q1120.02 1538.71 1120.02 1531.6 Q1120.02 1524.47 1118.19 1520.93 Q1116.39 1517.37 1112.75 1517.37 M1112.75 1513.66 Q1118.56 1513.66 1121.62 1518.27 Q1124.7 1522.85 1124.7 1531.6 Q1124.7 1540.33 1121.62 1544.94 Q1118.56 1549.52 1112.75 1549.52 Q1106.94 1549.52 1103.86 1544.94 Q1100.81 1540.33 1100.81 1531.6 Q1100.81 1522.85 1103.86 1518.27 Q1106.94 1513.66 1112.75 1513.66 Z" fill="#9eb1be" fill-rule="nonzero" fill-opacity="1" /><path clip-path="url(#clip740)" d="M1133.72 1544.91 L1141.36 1544.91 L1141.36 1518.55 L1133.05 1520.21 L1133.05 1515.95 L1141.32 1514.29 L1145.99 1514.29 L1145.99 1544.91 L1153.63 1544.91 L1153.63 1548.85 L1133.72 1548.85 L1133.72 1544.91 Z" fill="#9eb1be" fill-rule="nonzero" fill-opacity="1" /><path clip-path="url(#clip740)" d="M1160.32 1533.96 L1172.8 1533.96 L1172.8 1537.76 L1160.32 1537.76 L1160.32 1533.96 Z" fill="#9eb1be" fill-rule="nonzero" fill-opacity="1" /><path clip-path="url(#clip740)" d="M1190.18 1517.37 Q1186.57 1517.37 1184.74 1520.93 Q1182.94 1524.47 1182.94 1531.6 Q1182.94 1538.71 1184.74 1542.27 Q1186.57 1545.82 1190.18 1545.82 Q1193.82 1545.82 1195.62 1542.27 Q1197.45 1538.71 1197.45 1531.6 Q1197.45 1524.47 1195.62 1520.93 Q1193.82 1517.37 1190.18 1517.37 M1190.18 1513.66 Q1195.99 1513.66 1199.05 1518.27 Q1202.13 1522.85 1202.13 1531.6 Q1202.13 1540.33 1199.05 1544.94 Q1195.99 1549.52 1190.18 1549.52 Q1184.37 1549.52 1181.29 1544.94 Q1178.24 1540.33 1178.24 1531.6 Q1178.24 1522.85 1181.29 1518.27 Q1184.37 1513.66 1190.18 1513.66 Z" fill="#9eb1be" fill-rule="nonzero" fill-opacity="1" /><path clip-path="url(#clip740)" d="M1224.51 1530.21 Q1227.87 1530.93 1229.74 1533.2 Q1231.64 1535.47 1231.64 1538.8 Q1231.64 1543.92 1228.12 1546.72 Q1224.6 1549.52 1218.12 1549.52 Q1215.95 1549.52 1213.63 1549.08 Q1211.34 1548.66 1208.89 1547.81 L1208.89 1543.29 Q1210.83 1544.43 1213.15 1545.01 Q1215.46 1545.58 1217.98 1545.58 Q1222.38 1545.58 1224.67 1543.85 Q1226.99 1542.11 1226.99 1538.8 Q1226.99 1535.75 1224.84 1534.03 Q1222.71 1532.3 1218.89 1532.3 L1214.86 1532.3 L1214.86 1528.45 L1219.07 1528.45 Q1222.52 1528.45 1224.35 1527.09 Q1226.18 1525.7 1226.18 1523.11 Q1226.18 1520.45 1224.28 1519.03 Q1222.4 1517.6 1218.89 1517.6 Q1216.97 1517.6 1214.77 1518.01 Q1212.57 1518.43 1209.93 1519.31 L1209.93 1515.14 Q1212.59 1514.4 1214.9 1514.03 Q1217.24 1513.66 1219.3 1513.66 Q1224.63 1513.66 1227.73 1516.09 Q1230.83 1518.5 1230.83 1522.62 Q1230.83 1525.49 1229.19 1527.48 Q1227.54 1529.45 1224.51 1530.21 Z" fill="#9eb1be" fill-rule="nonzero" fill-opacity="1" /><path clip-path="url(#clip740)" d="M1372.45 1544.91 L1388.77 1544.91 L1388.77 1548.85 L1366.83 1548.85 L1366.83 1544.91 Q1369.49 1542.16 1374.07 1537.53 Q1378.68 1532.88 1379.86 1531.53 Q1382.1 1529.01 1382.98 1527.27 Q1383.89 1525.51 1383.89 1523.82 Q1383.89 1521.07 1381.94 1519.33 Q1380.02 1517.6 1376.92 1517.6 Q1374.72 1517.6 1372.27 1518.36 Q1369.84 1519.13 1367.06 1520.68 L1367.06 1515.95 Q1369.88 1514.82 1372.34 1514.24 Q1374.79 1513.66 1376.83 1513.66 Q1382.2 1513.66 1385.39 1516.35 Q1388.58 1519.03 1388.58 1523.52 Q1388.58 1525.65 1387.77 1527.57 Q1386.99 1529.47 1384.88 1532.07 Q1384.3 1532.74 1381.2 1535.95 Q1378.1 1539.15 1372.45 1544.91 Z" fill="#9eb1be" fill-rule="nonzero" fill-opacity="1" /><path clip-path="url(#clip740)" d="M1408.58 1517.37 Q1404.97 1517.37 1403.15 1520.93 Q1401.34 1524.47 1401.34 1531.6 Q1401.34 1538.71 1403.15 1542.27 Q1404.97 1545.82 1408.58 1545.82 Q1412.22 1545.82 1414.02 1542.27 Q1415.85 1538.71 1415.85 1531.6 Q1415.85 1524.47 1414.02 1520.93 Q1412.22 1517.37 1408.58 1517.37 M1408.58 1513.66 Q1414.4 1513.66 1417.45 1518.27 Q1420.53 1522.85 1420.53 1531.6 Q1420.53 1540.33 1417.45 1544.94 Q1414.4 1549.52 1408.58 1549.52 Q1402.77 1549.52 1399.7 1544.94 Q1396.64 1540.33 1396.64 1531.6 Q1396.64 1522.85 1399.7 1518.27 Q1402.77 1513.66 1408.58 1513.66 Z" fill="#9eb1be" fill-rule="nonzero" fill-opacity="1" /><path clip-path="url(#clip740)" d="M1432.77 1544.91 L1449.09 1544.91 L1449.09 1548.85 L1427.15 1548.85 L1427.15 1544.91 Q1429.81 1542.16 1434.39 1537.53 Q1439 1532.88 1440.18 1531.53 Q1442.43 1529.01 1443.31 1527.27 Q1444.21 1525.51 1444.21 1523.82 Q1444.21 1521.07 1442.27 1519.33 Q1440.34 1517.6 1437.24 1517.6 Q1435.04 1517.6 1432.59 1518.36 Q1430.16 1519.13 1427.38 1520.68 L1427.38 1515.95 Q1430.21 1514.82 1432.66 1514.24 Q1435.11 1513.66 1437.15 1513.66 Q1442.52 1513.66 1445.71 1516.35 Q1448.91 1519.03 1448.91 1523.52 Q1448.91 1525.65 1448.1 1527.57 Q1447.31 1529.47 1445.21 1532.07 Q1444.63 1532.74 1441.52 1535.95 Q1438.42 1539.15 1432.77 1544.91 Z" fill="#9eb1be" fill-rule="nonzero" fill-opacity="1" /><path clip-path="url(#clip740)" d="M1468.91 1517.37 Q1465.3 1517.37 1463.47 1520.93 Q1461.66 1524.47 1461.66 1531.6 Q1461.66 1538.71 1463.47 1542.27 Q1465.3 1545.82 1468.91 1545.82 Q1472.54 1545.82 1474.35 1542.27 Q1476.18 1538.71 1476.18 1531.6 Q1476.18 1524.47 1474.35 1520.93 Q1472.54 1517.37 1468.91 1517.37 M1468.91 1513.66 Q1474.72 1513.66 1477.77 1518.27 Q1480.85 1522.85 1480.85 1531.6 Q1480.85 1540.33 1477.77 1544.94 Q1474.72 1549.52 1468.91 1549.52 Q1463.1 1549.52 1460.02 1544.94 Q1456.96 1540.33 1456.96 1531.6 Q1456.96 1522.85 1460.02 1518.27 Q1463.1 1513.66 1468.91 1513.66 Z" fill="#9eb1be" fill-rule="nonzero" fill-opacity="1" /><path clip-path="url(#clip740)" d="M1486.32 1533.96 L1498.79 1533.96 L1498.79 1537.76 L1486.32 1537.76 L1486.32 1533.96 Z" fill="#9eb1be" fill-rule="nonzero" fill-opacity="1" /><path clip-path="url(#clip740)" d="M1516.18 1517.37 Q1512.57 1517.37 1510.74 1520.93 Q1508.93 1524.47 1508.93 1531.6 Q1508.93 1538.71 1510.74 1542.27 Q1512.57 1545.82 1516.18 1545.82 Q1519.81 1545.82 1521.62 1542.27 Q1523.45 1538.71 1523.45 1531.6 Q1523.45 1524.47 1521.62 1520.93 Q1519.81 1517.37 1516.18 1517.37 M1516.18 1513.66 Q1521.99 1513.66 1525.04 1518.27 Q1528.12 1522.85 1528.12 1531.6 Q1528.12 1540.33 1525.04 1544.94 Q1521.99 1549.52 1516.18 1549.52 Q1510.37 1549.52 1507.29 1544.94 Q1504.23 1540.33 1504.23 1531.6 Q1504.23 1522.85 1507.29 1518.27 Q1510.37 1513.66 1516.18 1513.66 Z" fill="#9eb1be" fill-rule="nonzero" fill-opacity="1" /><path clip-path="url(#clip740)" d="M1537.15 1544.91 L1544.79 1544.91 L1544.79 1518.55 L1536.48 1520.21 L1536.48 1515.95 L1544.74 1514.29 L1549.42 1514.29 L1549.42 1544.91 L1557.06 1544.91 L1557.06 1548.85 L1537.15 1548.85 L1537.15 1544.91 Z" fill="#9eb1be" fill-rule="nonzero" fill-opacity="1" /><path clip-path="url(#clip740)" d="M1563.75 1533.96 L1576.22 1533.96 L1576.22 1537.76 L1563.75 1537.76 L1563.75 1533.96 Z" fill="#9eb1be" fill-rule="nonzero" fill-opacity="1" /><path clip-path="url(#clip740)" d="M1593.61 1517.37 Q1590 1517.37 1588.17 1520.93 Q1586.36 1524.47 1586.36 1531.6 Q1586.36 1538.71 1588.17 1542.27 Q1590 1545.82 1593.61 1545.82 Q1597.24 1545.82 1599.05 1542.27 Q1600.88 1538.71 1600.88 1531.6 Q1600.88 1524.47 1599.05 1520.93 Q1597.24 1517.37 1593.61 1517.37 M1593.61 1513.66 Q1599.42 1513.66 1602.47 1518.27 Q1605.55 1522.85 1605.55 1531.6 Q1605.55 1540.33 1602.47 1544.94 Q1599.42 1549.52 1593.61 1549.52 Q1587.8 1549.52 1584.72 1544.94 Q1581.66 1540.33 1581.66 1531.6 Q1581.66 1522.85 1584.72 1518.27 Q1587.8 1513.66 1593.61 1513.66 Z" fill="#9eb1be" fill-rule="nonzero" fill-opacity="1" /><path clip-path="url(#clip740)" d="M1626.62 1518.36 L1614.81 1536.81 L1626.62 1536.81 L1626.62 1518.36 M1625.39 1514.29 L1631.27 1514.29 L1631.27 1536.81 L1636.2 1536.81 L1636.2 1540.7 L1631.27 1540.7 L1631.27 1548.85 L1626.62 1548.85 L1626.62 1540.7 L1611.01 1540.7 L1611.01 1536.19 L1625.39 1514.29 Z" fill="#9eb1be" fill-rule="nonzero" fill-opacity="1" /><path clip-path="url(#clip740)" d="M1777.18 1544.91 L1793.5 1544.91 L1793.5 1548.85 L1771.56 1548.85 L1771.56 1544.91 Q1774.22 1542.16 1778.8 1537.53 Q1783.41 1532.88 1784.59 1531.53 Q1786.84 1529.01 1787.72 1527.27 Q1788.62 1525.51 1788.62 1523.82 Q1788.62 1521.07 1786.67 1519.33 Q1784.75 1517.6 1781.65 1517.6 Q1779.45 1517.6 1777 1518.36 Q1774.57 1519.13 1771.79 1520.68 L1771.79 1515.95 Q1774.61 1514.82 1777.07 1514.24 Q1779.52 1513.66 1781.56 1513.66 Q1786.93 1513.66 1790.12 1516.35 Q1793.32 1519.03 1793.32 1523.52 Q1793.32 1525.65 1792.51 1527.57 Q1791.72 1529.47 1789.61 1532.07 Q1789.03 1532.74 1785.93 1535.95 Q1782.83 1539.15 1777.18 1544.91 Z" fill="#9eb1be" fill-rule="nonzero" fill-opacity="1" /><path clip-path="url(#clip740)" d="M1813.32 1517.37 Q1809.71 1517.37 1807.88 1520.93 Q1806.07 1524.47 1806.07 1531.6 Q1806.07 1538.71 1807.88 1542.27 Q1809.71 1545.82 1813.32 1545.82 Q1816.95 1545.82 1818.76 1542.27 Q1820.59 1538.71 1820.59 1531.6 Q1820.59 1524.47 1818.76 1520.93 Q1816.95 1517.37 1813.32 1517.37 M1813.32 1513.66 Q1819.13 1513.66 1822.18 1518.27 Q1825.26 1522.85 1825.26 1531.6 Q1825.26 1540.33 1822.18 1544.94 Q1819.13 1549.52 1813.32 1549.52 Q1807.51 1549.52 1804.43 1544.94 Q1801.37 1540.33 1801.37 1531.6 Q1801.37 1522.85 1804.43 1518.27 Q1807.51 1513.66 1813.32 1513.66 Z" fill="#9eb1be" fill-rule="nonzero" fill-opacity="1" /><path clip-path="url(#clip740)" d="M1837.51 1544.91 L1853.83 1544.91 L1853.83 1548.85 L1831.88 1548.85 L1831.88 1544.91 Q1834.54 1542.16 1839.13 1537.53 Q1843.73 1532.88 1844.91 1531.53 Q1847.16 1529.01 1848.04 1527.27 Q1848.94 1525.51 1848.94 1523.82 Q1848.94 1521.07 1847 1519.33 Q1845.08 1517.6 1841.97 1517.6 Q1839.78 1517.6 1837.32 1518.36 Q1834.89 1519.13 1832.11 1520.68 L1832.11 1515.95 Q1834.94 1514.82 1837.39 1514.24 Q1839.84 1513.66 1841.88 1513.66 Q1847.25 1513.66 1850.45 1516.35 Q1853.64 1519.03 1853.64 1523.52 Q1853.64 1525.65 1852.83 1527.57 Q1852.04 1529.47 1849.94 1532.07 Q1849.36 1532.74 1846.26 1535.95 Q1843.15 1539.15 1837.51 1544.91 Z" fill="#9eb1be" fill-rule="nonzero" fill-opacity="1" /><path clip-path="url(#clip740)" d="M1873.64 1517.37 Q1870.03 1517.37 1868.2 1520.93 Q1866.4 1524.47 1866.4 1531.6 Q1866.4 1538.71 1868.2 1542.27 Q1870.03 1545.82 1873.64 1545.82 Q1877.27 1545.82 1879.08 1542.27 Q1880.91 1538.71 1880.91 1531.6 Q1880.91 1524.47 1879.08 1520.93 Q1877.27 1517.37 1873.64 1517.37 M1873.64 1513.66 Q1879.45 1513.66 1882.51 1518.27 Q1885.59 1522.85 1885.59 1531.6 Q1885.59 1540.33 1882.51 1544.94 Q1879.45 1549.52 1873.64 1549.52 Q1867.83 1549.52 1864.75 1544.94 Q1861.7 1540.33 1861.7 1531.6 Q1861.7 1522.85 1864.75 1518.27 Q1867.83 1513.66 1873.64 1513.66 Z" fill="#9eb1be" fill-rule="nonzero" fill-opacity="1" /><path clip-path="url(#clip740)" d="M1891.05 1533.96 L1903.52 1533.96 L1903.52 1537.76 L1891.05 1537.76 L1891.05 1533.96 Z" fill="#9eb1be" fill-rule="nonzero" fill-opacity="1" /><path clip-path="url(#clip740)" d="M1920.91 1517.37 Q1917.3 1517.37 1915.47 1520.93 Q1913.66 1524.47 1913.66 1531.6 Q1913.66 1538.71 1915.47 1542.27 Q1917.3 1545.82 1920.91 1545.82 Q1924.54 1545.82 1926.35 1542.27 Q1928.18 1538.71 1928.18 1531.6 Q1928.18 1524.47 1926.35 1520.93 Q1924.54 1517.37 1920.91 1517.37 M1920.91 1513.66 Q1926.72 1513.66 1929.77 1518.27 Q1932.85 1522.85 1932.85 1531.6 Q1932.85 1540.33 1929.77 1544.94 Q1926.72 1549.52 1920.91 1549.52 Q1915.1 1549.52 1912.02 1544.94 Q1908.96 1540.33 1908.96 1531.6 Q1908.96 1522.85 1912.02 1518.27 Q1915.1 1513.66 1920.91 1513.66 Z" fill="#9eb1be" fill-rule="nonzero" fill-opacity="1" /><path clip-path="url(#clip740)" d="M1941.88 1544.91 L1949.52 1544.91 L1949.52 1518.55 L1941.21 1520.21 L1941.21 1515.95 L1949.47 1514.29 L1954.15 1514.29 L1954.15 1544.91 L1961.79 1544.91 L1961.79 1548.85 L1941.88 1548.85 L1941.88 1544.91 Z" fill="#9eb1be" fill-rule="nonzero" fill-opacity="1" /><path clip-path="url(#clip740)" d="M1968.48 1533.96 L1980.95 1533.96 L1980.95 1537.76 L1968.48 1537.76 L1968.48 1533.96 Z" fill="#9eb1be" fill-rule="nonzero" fill-opacity="1" /><path clip-path="url(#clip740)" d="M1998.34 1517.37 Q1994.73 1517.37 1992.9 1520.93 Q1991.09 1524.47 1991.09 1531.6 Q1991.09 1538.71 1992.9 1542.27 Q1994.73 1545.82 1998.34 1545.82 Q2001.97 1545.82 2003.78 1542.27 Q2005.61 1538.71 2005.61 1531.6 Q2005.61 1524.47 2003.78 1520.93 Q2001.97 1517.37 1998.34 1517.37 M1998.34 1513.66 Q2004.15 1513.66 2007.2 1518.27 Q2010.28 1522.85 2010.28 1531.6 Q2010.28 1540.33 2007.2 1544.94 Q2004.15 1549.52 1998.34 1549.52 Q1992.53 1549.52 1989.45 1544.94 Q1986.39 1540.33 1986.39 1531.6 Q1986.39 1522.85 1989.45 1518.27 Q1992.53 1513.66 1998.34 1513.66 Z" fill="#9eb1be" fill-rule="nonzero" fill-opacity="1" /><path clip-path="url(#clip740)" d="M2018.55 1514.29 L2036.9 1514.29 L2036.9 1518.22 L2022.83 1518.22 L2022.83 1526.7 Q2023.85 1526.35 2024.87 1526.19 Q2025.89 1526 2026.9 1526 Q2032.69 1526 2036.07 1529.17 Q2039.45 1532.34 2039.45 1537.76 Q2039.45 1543.34 2035.98 1546.44 Q2032.51 1549.52 2026.19 1549.52 Q2024.01 1549.52 2021.74 1549.15 Q2019.5 1548.78 2017.09 1548.04 L2017.09 1543.34 Q2019.17 1544.47 2021.39 1545.03 Q2023.62 1545.58 2026.09 1545.58 Q2030.1 1545.58 2032.44 1543.48 Q2034.77 1541.37 2034.77 1537.76 Q2034.77 1534.15 2032.44 1532.04 Q2030.1 1529.94 2026.09 1529.94 Q2024.22 1529.94 2022.34 1530.35 Q2020.49 1530.77 2018.55 1531.65 L2018.55 1514.29 Z" fill="#9eb1be" fill-rule="nonzero" fill-opacity="1" /><path clip-path="url(#clip740)" d="M2180.6 1544.91 L2196.91 1544.91 L2196.91 1548.85 L2174.97 1548.85 L2174.97 1544.91 Q2177.63 1542.16 2182.22 1537.53 Q2186.82 1532.88 2188 1531.53 Q2190.25 1529.01 2191.13 1527.27 Q2192.03 1525.51 2192.03 1523.82 Q2192.03 1521.07 2190.09 1519.33 Q2188.16 1517.6 2185.06 1517.6 Q2182.86 1517.6 2180.41 1518.36 Q2177.98 1519.13 2175.2 1520.68 L2175.2 1515.95 Q2178.03 1514.82 2180.48 1514.24 Q2182.93 1513.66 2184.97 1513.66 Q2190.34 1513.66 2193.54 1516.35 Q2196.73 1519.03 2196.73 1523.52 Q2196.73 1525.65 2195.92 1527.57 Q2195.13 1529.47 2193.03 1532.07 Q2192.45 1532.74 2189.35 1535.95 Q2186.24 1539.15 2180.6 1544.91 Z" fill="#9eb1be" fill-rule="nonzero" fill-opacity="1" /><path clip-path="url(#clip740)" d="M2216.73 1517.37 Q2213.12 1517.37 2211.29 1520.93 Q2209.48 1524.47 2209.48 1531.6 Q2209.48 1538.71 2211.29 1542.27 Q2213.12 1545.82 2216.73 1545.82 Q2220.36 1545.82 2222.17 1542.27 Q2224 1538.71 2224 1531.6 Q2224 1524.47 2222.17 1520.93 Q2220.36 1517.37 2216.73 1517.37 M2216.73 1513.66 Q2222.54 1513.66 2225.6 1518.27 Q2228.67 1522.85 2228.67 1531.6 Q2228.67 1540.33 2225.6 1544.94 Q2222.54 1549.52 2216.73 1549.52 Q2210.92 1549.52 2207.84 1544.94 Q2204.79 1540.33 2204.79 1531.6 Q2204.79 1522.85 2207.84 1518.27 Q2210.92 1513.66 2216.73 1513.66 Z" fill="#9eb1be" fill-rule="nonzero" fill-opacity="1" /><path clip-path="url(#clip740)" d="M2240.92 1544.91 L2257.24 1544.91 L2257.24 1548.85 L2235.29 1548.85 L2235.29 1544.91 Q2237.96 1542.16 2242.54 1537.53 Q2247.15 1532.88 2248.33 1531.53 Q2250.57 1529.01 2251.45 1527.27 Q2252.35 1525.51 2252.35 1523.82 Q2252.35 1521.07 2250.41 1519.33 Q2248.49 1517.6 2245.39 1517.6 Q2243.19 1517.6 2240.73 1518.36 Q2238.3 1519.13 2235.53 1520.68 L2235.53 1515.95 Q2238.35 1514.82 2240.8 1514.24 Q2243.26 1513.66 2245.29 1513.66 Q2250.66 1513.66 2253.86 1516.35 Q2257.05 1519.03 2257.05 1523.52 Q2257.05 1525.65 2256.24 1527.57 Q2255.46 1529.47 2253.35 1532.07 Q2252.77 1532.74 2249.67 1535.95 Q2246.57 1539.15 2240.92 1544.91 Z" fill="#9eb1be" fill-rule="nonzero" fill-opacity="1" /><path clip-path="url(#clip740)" d="M2277.05 1517.37 Q2273.44 1517.37 2271.61 1520.93 Q2269.81 1524.47 2269.81 1531.6 Q2269.81 1538.71 2271.61 1542.27 Q2273.44 1545.82 2277.05 1545.82 Q2280.69 1545.82 2282.49 1542.27 Q2284.32 1538.71 2284.32 1531.6 Q2284.32 1524.47 2282.49 1520.93 Q2280.69 1517.37 2277.05 1517.37 M2277.05 1513.66 Q2282.86 1513.66 2285.92 1518.27 Q2289 1522.85 2289 1531.6 Q2289 1540.33 2285.92 1544.94 Q2282.86 1549.52 2277.05 1549.52 Q2271.24 1549.52 2268.16 1544.94 Q2265.11 1540.33 2265.11 1531.6 Q2265.11 1522.85 2268.16 1518.27 Q2271.24 1513.66 2277.05 1513.66 Z" fill="#9eb1be" fill-rule="nonzero" fill-opacity="1" /><path clip-path="url(#clip740)" d="M2294.46 1533.96 L2306.94 1533.96 L2306.94 1537.76 L2294.46 1537.76 L2294.46 1533.96 Z" fill="#9eb1be" fill-rule="nonzero" fill-opacity="1" /><path clip-path="url(#clip740)" d="M2324.32 1517.37 Q2320.71 1517.37 2318.88 1520.93 Q2317.08 1524.47 2317.08 1531.6 Q2317.08 1538.71 2318.88 1542.27 Q2320.71 1545.82 2324.32 1545.82 Q2327.96 1545.82 2329.76 1542.27 Q2331.59 1538.71 2331.59 1531.6 Q2331.59 1524.47 2329.76 1520.93 Q2327.96 1517.37 2324.32 1517.37 M2324.32 1513.66 Q2330.13 1513.66 2333.19 1518.27 Q2336.27 1522.85 2336.27 1531.6 Q2336.27 1540.33 2333.19 1544.94 Q2330.13 1549.52 2324.32 1549.52 Q2318.51 1549.52 2315.43 1544.94 Q2312.38 1540.33 2312.38 1531.6 Q2312.38 1522.85 2315.43 1518.27 Q2318.51 1513.66 2324.32 1513.66 Z" fill="#9eb1be" fill-rule="nonzero" fill-opacity="1" /><path clip-path="url(#clip740)" d="M2345.29 1544.91 L2352.93 1544.91 L2352.93 1518.55 L2344.62 1520.21 L2344.62 1515.95 L2352.89 1514.29 L2357.56 1514.29 L2357.56 1544.91 L2365.2 1544.91 L2365.2 1548.85 L2345.29 1548.85 L2345.29 1544.91 Z" fill="#9eb1be" fill-rule="nonzero" fill-opacity="1" /><path clip-path="url(#clip740)" d="M2371.89 1533.96 L2384.37 1533.96 L2384.37 1537.76 L2371.89 1537.76 L2371.89 1533.96 Z" fill="#9eb1be" fill-rule="nonzero" fill-opacity="1" /><path clip-path="url(#clip740)" d="M2401.75 1517.37 Q2398.14 1517.37 2396.31 1520.93 Q2394.51 1524.47 2394.51 1531.6 Q2394.51 1538.71 2396.31 1542.27 Q2398.14 1545.82 2401.75 1545.82 Q2405.39 1545.82 2407.19 1542.27 Q2409.02 1538.71 2409.02 1531.6 Q2409.02 1524.47 2407.19 1520.93 Q2405.39 1517.37 2401.75 1517.37 M2401.75 1513.66 Q2407.56 1513.66 2410.62 1518.27 Q2413.7 1522.85 2413.7 1531.6 Q2413.7 1540.33 2410.62 1544.94 Q2407.56 1549.52 2401.75 1549.52 Q2395.94 1549.52 2392.86 1544.94 Q2389.81 1540.33 2389.81 1531.6 Q2389.81 1522.85 2392.86 1518.27 Q2395.94 1513.66 2401.75 1513.66 Z" fill="#9eb1be" fill-rule="nonzero" fill-opacity="1" /><path clip-path="url(#clip740)" d="M2432.49 1529.7 Q2429.34 1529.7 2427.49 1531.86 Q2425.66 1534.01 2425.66 1537.76 Q2425.66 1541.49 2427.49 1543.66 Q2429.34 1545.82 2432.49 1545.82 Q2435.64 1545.82 2437.47 1543.66 Q2439.32 1541.49 2439.32 1537.76 Q2439.32 1534.01 2437.47 1531.86 Q2435.64 1529.7 2432.49 1529.7 M2441.77 1515.05 L2441.77 1519.31 Q2440.02 1518.48 2438.21 1518.04 Q2436.43 1517.6 2434.67 1517.6 Q2430.04 1517.6 2427.58 1520.72 Q2425.15 1523.85 2424.81 1530.17 Q2426.17 1528.15 2428.23 1527.09 Q2430.29 1526 2432.77 1526 Q2437.98 1526 2440.99 1529.17 Q2444.02 1532.32 2444.02 1537.76 Q2444.02 1543.08 2440.87 1546.3 Q2437.72 1549.52 2432.49 1549.52 Q2426.5 1549.52 2423.33 1544.94 Q2420.15 1540.33 2420.15 1531.6 Q2420.15 1523.41 2424.04 1518.55 Q2427.93 1513.66 2434.48 1513.66 Q2436.24 1513.66 2438.02 1514.01 Q2439.83 1514.36 2441.77 1515.05 Z" fill="#9eb1be" fill-rule="nonzero" fill-opacity="1" /><polyline clip-path="url(#clip740)" style="stroke:#adb2b7; stroke-linecap:round; stroke-linejoin:round; stroke-width:4; stroke-opacity:1; fill:none" points="229.445,1486.45 229.445,123.472 "/>
<polyline clip-path="url(#clip740)" style="stroke:#adb2b7; stroke-linecap:round; stroke-linejoin:round; stroke-width:4; stroke-opacity:1; fill:none" points="229.445,1486.45 248.343,1486.45 "/>
<polyline clip-path="url(#clip740)" style="stroke:#adb2b7; stroke-linecap:round; stroke-linejoin:round; stroke-width:4; stroke-opacity:1; fill:none" points="229.445,1169.32 248.343,1169.32 "/>
<polyline clip-path="url(#clip740)" style="stroke:#adb2b7; stroke-linecap:round; stroke-linejoin:round; stroke-width:4; stroke-opacity:1; fill:none" points="229.445,852.194 248.343,852.194 "/>
<polyline clip-path="url(#clip740)" style="stroke:#adb2b7; stroke-linecap:round; stroke-linejoin:round; stroke-width:4; stroke-opacity:1; fill:none" points="229.445,535.067 248.343,535.067 "/>
<polyline clip-path="url(#clip740)" style="stroke:#adb2b7; stroke-linecap:round; stroke-linejoin:round; stroke-width:4; stroke-opacity:1; fill:none" points="229.445,217.94 248.343,217.94 "/>
<path clip-path="url(#clip740)" d="M181.501 1472.25 Q177.89 1472.25 176.061 1475.81 Q174.255 1479.35 174.255 1486.48 Q174.255 1493.59 176.061 1497.15 Q177.89 1500.7 181.501 1500.7 Q185.135 1500.7 186.94 1497.15 Q188.769 1493.59 188.769 1486.48 Q188.769 1479.35 186.94 1475.81 Q185.135 1472.25 181.501 1472.25 M181.501 1468.54 Q187.311 1468.54 190.366 1473.15 Q193.445 1477.73 193.445 1486.48 Q193.445 1495.21 190.366 1499.82 Q187.311 1504.4 181.501 1504.4 Q175.691 1504.4 172.612 1499.82 Q169.556 1495.21 169.556 1486.48 Q169.556 1477.73 172.612 1473.15 Q175.691 1468.54 181.501 1468.54 Z" fill="#9eb1be" fill-rule="nonzero" fill-opacity="1" /><path clip-path="url(#clip740)" d="M85.0429 1182.67 L101.362 1182.67 L101.362 1186.6 L79.4179 1186.6 L79.4179 1182.67 Q82.0799 1179.91 86.6632 1175.28 Q91.2697 1170.63 92.4502 1169.29 Q94.6956 1166.76 95.5752 1165.03 Q96.478 1163.27 96.478 1161.58 Q96.478 1158.82 94.5336 1157.09 Q92.6123 1155.35 89.5104 1155.35 Q87.3114 1155.35 84.8577 1156.11 Q82.4271 1156.88 79.6494 1158.43 L79.6494 1153.71 Q82.4734 1152.57 84.9271 1151.99 Q87.3808 1151.42 89.4178 1151.42 Q94.7882 1151.42 97.9826 1154.1 Q101.177 1156.79 101.177 1161.28 Q101.177 1163.41 100.367 1165.33 Q99.5798 1167.23 97.4734 1169.82 Q96.8947 1170.49 93.7928 1173.71 Q90.691 1176.9 85.0429 1182.67 Z" fill="#9eb1be" fill-rule="nonzero" fill-opacity="1" /><path clip-path="url(#clip740)" d="M111.223 1152.04 L129.58 1152.04 L129.58 1155.98 L115.506 1155.98 L115.506 1164.45 Q116.524 1164.1 117.543 1163.94 Q118.561 1163.75 119.58 1163.75 Q125.367 1163.75 128.746 1166.93 Q132.126 1170.1 132.126 1175.51 Q132.126 1181.09 128.654 1184.19 Q125.182 1187.27 118.862 1187.27 Q116.686 1187.27 114.418 1186.9 Q112.172 1186.53 109.765 1185.79 L109.765 1181.09 Q111.848 1182.23 114.07 1182.78 Q116.293 1183.34 118.77 1183.34 Q122.774 1183.34 125.112 1181.23 Q127.45 1179.12 127.45 1175.51 Q127.45 1171.9 125.112 1169.8 Q122.774 1167.69 118.77 1167.69 Q116.895 1167.69 115.02 1168.11 Q113.168 1168.52 111.223 1169.4 L111.223 1152.04 Z" fill="#9eb1be" fill-rule="nonzero" fill-opacity="1" /><path clip-path="url(#clip740)" d="M151.339 1155.12 Q147.728 1155.12 145.899 1158.68 Q144.093 1162.23 144.093 1169.36 Q144.093 1176.46 145.899 1180.03 Q147.728 1183.57 151.339 1183.57 Q154.973 1183.57 156.779 1180.03 Q158.607 1176.46 158.607 1169.36 Q158.607 1162.23 156.779 1158.68 Q154.973 1155.12 151.339 1155.12 M151.339 1151.42 Q157.149 1151.42 160.205 1156.02 Q163.283 1160.61 163.283 1169.36 Q163.283 1178.08 160.205 1182.69 Q157.149 1187.27 151.339 1187.27 Q145.529 1187.27 142.45 1182.69 Q139.394 1178.08 139.394 1169.36 Q139.394 1160.61 142.45 1156.02 Q145.529 1151.42 151.339 1151.42 Z" fill="#9eb1be" fill-rule="nonzero" fill-opacity="1" /><path clip-path="url(#clip740)" d="M181.501 1155.12 Q177.89 1155.12 176.061 1158.68 Q174.255 1162.23 174.255 1169.36 Q174.255 1176.46 176.061 1180.03 Q177.89 1183.57 181.501 1183.57 Q185.135 1183.57 186.94 1180.03 Q188.769 1176.46 188.769 1169.36 Q188.769 1162.23 186.94 1158.68 Q185.135 1155.12 181.501 1155.12 M181.501 1151.42 Q187.311 1151.42 190.366 1156.02 Q193.445 1160.61 193.445 1169.36 Q193.445 1178.08 190.366 1182.69 Q187.311 1187.27 181.501 1187.27 Q175.691 1187.27 172.612 1182.69 Q169.556 1178.08 169.556 1169.36 Q169.556 1160.61 172.612 1156.02 Q175.691 1151.42 181.501 1151.42 Z" fill="#9eb1be" fill-rule="nonzero" fill-opacity="1" /><path clip-path="url(#clip740)" d="M81.0614 834.914 L99.4178 834.914 L99.4178 838.849 L85.3438 838.849 L85.3438 847.321 Q86.3623 846.974 87.3808 846.812 Q88.3993 846.627 89.4178 846.627 Q95.2049 846.627 98.5845 849.798 Q101.964 852.969 101.964 858.386 Q101.964 863.965 98.4919 867.066 Q95.0197 870.145 88.7003 870.145 Q86.5243 870.145 84.2558 869.775 Q82.0105 869.404 79.6031 868.664 L79.6031 863.965 Q81.6864 865.099 83.9086 865.654 Q86.1308 866.21 88.6077 866.21 Q92.6123 866.21 94.9502 864.104 Q97.2882 861.997 97.2882 858.386 Q97.2882 854.775 94.9502 852.668 Q92.6123 850.562 88.6077 850.562 Q86.7327 850.562 84.8577 850.979 Q83.0058 851.395 81.0614 852.275 L81.0614 834.914 Z" fill="#9eb1be" fill-rule="nonzero" fill-opacity="1" /><path clip-path="url(#clip740)" d="M121.177 837.993 Q117.566 837.993 115.737 841.557 Q113.932 845.099 113.932 852.229 Q113.932 859.335 115.737 862.9 Q117.566 866.441 121.177 866.441 Q124.811 866.441 126.617 862.9 Q128.445 859.335 128.445 852.229 Q128.445 845.099 126.617 841.557 Q124.811 837.993 121.177 837.993 M121.177 834.289 Q126.987 834.289 130.043 838.895 Q133.121 843.479 133.121 852.229 Q133.121 860.955 130.043 865.562 Q126.987 870.145 121.177 870.145 Q115.367 870.145 112.288 865.562 Q109.233 860.955 109.233 852.229 Q109.233 843.479 112.288 838.895 Q115.367 834.289 121.177 834.289 Z" fill="#9eb1be" fill-rule="nonzero" fill-opacity="1" /><path clip-path="url(#clip740)" d="M151.339 837.993 Q147.728 837.993 145.899 841.557 Q144.093 845.099 144.093 852.229 Q144.093 859.335 145.899 862.9 Q147.728 866.441 151.339 866.441 Q154.973 866.441 156.779 862.9 Q158.607 859.335 158.607 852.229 Q158.607 845.099 156.779 841.557 Q154.973 837.993 151.339 837.993 M151.339 834.289 Q157.149 834.289 160.205 838.895 Q163.283 843.479 163.283 852.229 Q163.283 860.955 160.205 865.562 Q157.149 870.145 151.339 870.145 Q145.529 870.145 142.45 865.562 Q139.394 860.955 139.394 852.229 Q139.394 843.479 142.45 838.895 Q145.529 834.289 151.339 834.289 Z" fill="#9eb1be" fill-rule="nonzero" fill-opacity="1" /><path clip-path="url(#clip740)" d="M181.501 837.993 Q177.89 837.993 176.061 841.557 Q174.255 845.099 174.255 852.229 Q174.255 859.335 176.061 862.9 Q177.89 866.441 181.501 866.441 Q185.135 866.441 186.94 862.9 Q188.769 859.335 188.769 852.229 Q188.769 845.099 186.94 841.557 Q185.135 837.993 181.501 837.993 M181.501 834.289 Q187.311 834.289 190.366 838.895 Q193.445 843.479 193.445 852.229 Q193.445 860.955 190.366 865.562 Q187.311 870.145 181.501 870.145 Q175.691 870.145 172.612 865.562 Q169.556 860.955 169.556 852.229 Q169.556 843.479 172.612 838.895 Q175.691 834.289 181.501 834.289 Z" fill="#9eb1be" fill-rule="nonzero" fill-opacity="1" /><path clip-path="url(#clip740)" d="M79.8346 517.787 L102.057 517.787 L102.057 519.778 L89.5104 552.347 L84.6262 552.347 L96.4317 521.722 L79.8346 521.722 L79.8346 517.787 Z" fill="#9eb1be" fill-rule="nonzero" fill-opacity="1" /><path clip-path="url(#clip740)" d="M111.223 517.787 L129.58 517.787 L129.58 521.722 L115.506 521.722 L115.506 530.194 Q116.524 529.847 117.543 529.685 Q118.561 529.5 119.58 529.5 Q125.367 529.5 128.746 532.671 Q132.126 535.842 132.126 541.259 Q132.126 546.838 128.654 549.939 Q125.182 553.018 118.862 553.018 Q116.686 553.018 114.418 552.648 Q112.172 552.277 109.765 551.537 L109.765 546.838 Q111.848 547.972 114.07 548.527 Q116.293 549.083 118.77 549.083 Q122.774 549.083 125.112 546.977 Q127.45 544.87 127.45 541.259 Q127.45 537.648 125.112 535.541 Q122.774 533.435 118.77 533.435 Q116.895 533.435 115.02 533.852 Q113.168 534.268 111.223 535.148 L111.223 517.787 Z" fill="#9eb1be" fill-rule="nonzero" fill-opacity="1" /><path clip-path="url(#clip740)" d="M151.339 520.866 Q147.728 520.866 145.899 524.43 Q144.093 527.972 144.093 535.102 Q144.093 542.208 145.899 545.773 Q147.728 549.314 151.339 549.314 Q154.973 549.314 156.779 545.773 Q158.607 542.208 158.607 535.102 Q158.607 527.972 156.779 524.43 Q154.973 520.866 151.339 520.866 M151.339 517.162 Q157.149 517.162 160.205 521.768 Q163.283 526.352 163.283 535.102 Q163.283 543.828 160.205 548.435 Q157.149 553.018 151.339 553.018 Q145.529 553.018 142.45 548.435 Q139.394 543.828 139.394 535.102 Q139.394 526.352 142.45 521.768 Q145.529 517.162 151.339 517.162 Z" fill="#9eb1be" fill-rule="nonzero" fill-opacity="1" /><path clip-path="url(#clip740)" d="M181.501 520.866 Q177.89 520.866 176.061 524.43 Q174.255 527.972 174.255 535.102 Q174.255 542.208 176.061 545.773 Q177.89 549.314 181.501 549.314 Q185.135 549.314 186.94 545.773 Q188.769 542.208 188.769 535.102 Q188.769 527.972 186.94 524.43 Q185.135 520.866 181.501 520.866 M181.501 517.162 Q187.311 517.162 190.366 521.768 Q193.445 526.352 193.445 535.102 Q193.445 543.828 190.366 548.435 Q187.311 553.018 181.501 553.018 Q175.691 553.018 172.612 548.435 Q169.556 543.828 169.556 535.102 Q169.556 526.352 172.612 521.768 Q175.691 517.162 181.501 517.162 Z" fill="#9eb1be" fill-rule="nonzero" fill-opacity="1" /><path clip-path="url(#clip740)" d="M51.6634 231.285 L59.3023 231.285 L59.3023 204.919 L50.9921 206.586 L50.9921 202.327 L59.256 200.66 L63.9319 200.66 L63.9319 231.285 L71.5707 231.285 L71.5707 235.22 L51.6634 235.22 L51.6634 231.285 Z" fill="#9eb1be" fill-rule="nonzero" fill-opacity="1" /><path clip-path="url(#clip740)" d="M91.0151 203.739 Q87.404 203.739 85.5753 207.303 Q83.7697 210.845 83.7697 217.975 Q83.7697 225.081 85.5753 228.646 Q87.404 232.187 91.0151 232.187 Q94.6493 232.187 96.4548 228.646 Q98.2835 225.081 98.2835 217.975 Q98.2835 210.845 96.4548 207.303 Q94.6493 203.739 91.0151 203.739 M91.0151 200.035 Q96.8252 200.035 99.8808 204.641 Q102.959 209.225 102.959 217.975 Q102.959 226.701 99.8808 231.308 Q96.8252 235.891 91.0151 235.891 Q85.2049 235.891 82.1262 231.308 Q79.0707 226.701 79.0707 217.975 Q79.0707 209.225 82.1262 204.641 Q85.2049 200.035 91.0151 200.035 Z" fill="#9eb1be" fill-rule="nonzero" fill-opacity="1" /><path clip-path="url(#clip740)" d="M121.177 203.739 Q117.566 203.739 115.737 207.303 Q113.932 210.845 113.932 217.975 Q113.932 225.081 115.737 228.646 Q117.566 232.187 121.177 232.187 Q124.811 232.187 126.617 228.646 Q128.445 225.081 128.445 217.975 Q128.445 210.845 126.617 207.303 Q124.811 203.739 121.177 203.739 M121.177 200.035 Q126.987 200.035 130.043 204.641 Q133.121 209.225 133.121 217.975 Q133.121 226.701 130.043 231.308 Q126.987 235.891 121.177 235.891 Q115.367 235.891 112.288 231.308 Q109.233 226.701 109.233 217.975 Q109.233 209.225 112.288 204.641 Q115.367 200.035 121.177 200.035 Z" fill="#9eb1be" fill-rule="nonzero" fill-opacity="1" /><path clip-path="url(#clip740)" d="M151.339 203.739 Q147.728 203.739 145.899 207.303 Q144.093 210.845 144.093 217.975 Q144.093 225.081 145.899 228.646 Q147.728 232.187 151.339 232.187 Q154.973 232.187 156.779 228.646 Q158.607 225.081 158.607 217.975 Q158.607 210.845 156.779 207.303 Q154.973 203.739 151.339 203.739 M151.339 200.035 Q157.149 200.035 160.205 204.641 Q163.283 209.225 163.283 217.975 Q163.283 226.701 160.205 231.308 Q157.149 235.891 151.339 235.891 Q145.529 235.891 142.45 231.308 Q139.394 226.701 139.394 217.975 Q139.394 209.225 142.45 204.641 Q145.529 200.035 151.339 200.035 Z" fill="#9eb1be" fill-rule="nonzero" fill-opacity="1" /><path clip-path="url(#clip740)" d="M181.501 203.739 Q177.89 203.739 176.061 207.303 Q174.255 210.845 174.255 217.975 Q174.255 225.081 176.061 228.646 Q177.89 232.187 181.501 232.187 Q185.135 232.187 186.94 228.646 Q188.769 225.081 188.769 217.975 Q188.769 210.845 186.94 207.303 Q185.135 203.739 181.501 203.739 M181.501 200.035 Q187.311 200.035 190.366 204.641 Q193.445 209.225 193.445 217.975 Q193.445 226.701 190.366 231.308 Q187.311 235.891 181.501 235.891 Q175.691 235.891 172.612 231.308 Q169.556 226.701 169.556 217.975 Q169.556 209.225 172.612 204.641 Q175.691 200.035 181.501 200.035 Z" fill="#9eb1be" fill-rule="nonzero" fill-opacity="1" /><path clip-path="url(#clip740)" d="M1140.12 43.6931 L1140.12 65.8515 L1153.25 65.8515 Q1159.85 65.8515 1163.01 63.1374 Q1166.21 60.3828 1166.21 54.752 Q1166.21 49.0808 1163.01 46.4072 Q1159.85 43.6931 1153.25 43.6931 L1140.12 43.6931 M1140.12 18.8205 L1140.12 37.0496 L1152.24 37.0496 Q1158.23 37.0496 1161.15 34.8216 Q1164.1 32.5531 1164.1 27.935 Q1164.1 23.3575 1161.15 21.089 Q1158.23 18.8205 1152.24 18.8205 L1140.12 18.8205 M1131.94 12.096 L1152.84 12.096 Q1162.2 12.096 1167.26 15.9849 Q1172.33 19.8737 1172.33 27.0438 Q1172.33 32.5936 1169.74 35.8748 Q1167.14 39.156 1162.12 39.9662 Q1168.16 41.2625 1171.48 45.3944 Q1174.84 49.4858 1174.84 55.6432 Q1174.84 63.745 1169.33 68.1605 Q1163.82 72.576 1153.65 72.576 L1131.94 72.576 L1131.94 12.096 Z" fill="#adb2b7" fill-rule="nonzero" fill-opacity="1" /><path clip-path="url(#clip740)" d="M1209.15 49.7694 Q1200.12 49.7694 1196.63 51.8354 Q1193.15 53.9013 1193.15 58.8839 Q1193.15 62.8538 1195.74 65.2034 Q1198.38 67.5124 1202.87 67.5124 Q1209.07 67.5124 1212.8 63.1374 Q1216.56 58.7219 1216.56 51.4303 L1216.56 49.7694 L1209.15 49.7694 M1224.02 46.6907 L1224.02 72.576 L1216.56 72.576 L1216.56 65.6895 Q1214.01 69.8214 1210.2 71.8063 Q1206.4 73.7508 1200.89 73.7508 Q1193.92 73.7508 1189.79 69.8619 Q1185.7 65.9325 1185.7 59.3701 Q1185.7 51.7138 1190.8 47.825 Q1195.94 43.9361 1206.11 43.9361 L1216.56 43.9361 L1216.56 43.2069 Q1216.56 38.0623 1213.16 35.2672 Q1209.8 32.4315 1203.68 32.4315 Q1199.79 32.4315 1196.11 33.3632 Q1192.42 34.295 1189.02 36.1584 L1189.02 29.2718 Q1193.11 27.692 1196.96 26.9223 Q1200.81 26.1121 1204.45 26.1121 Q1214.3 26.1121 1219.16 31.2163 Q1224.02 36.3204 1224.02 46.6907 Z" fill="#adb2b7" fill-rule="nonzero" fill-opacity="1" /><path clip-path="url(#clip740)" d="M1239.37 9.54393 L1246.82 9.54393 L1246.82 72.576 L1239.37 72.576 L1239.37 9.54393 Z" fill="#adb2b7" fill-rule="nonzero" fill-opacity="1" /><path clip-path="url(#clip740)" d="M1283.04 49.7694 Q1274.01 49.7694 1270.52 51.8354 Q1267.04 53.9013 1267.04 58.8839 Q1267.04 62.8538 1269.63 65.2034 Q1272.26 67.5124 1276.76 67.5124 Q1282.96 67.5124 1286.69 63.1374 Q1290.45 58.7219 1290.45 51.4303 L1290.45 49.7694 L1283.04 49.7694 M1297.91 46.6907 L1297.91 72.576 L1290.45 72.576 L1290.45 65.6895 Q1287.9 69.8214 1284.09 71.8063 Q1280.28 73.7508 1274.78 73.7508 Q1267.81 73.7508 1263.68 69.8619 Q1259.58 65.9325 1259.58 59.3701 Q1259.58 51.7138 1264.69 47.825 Q1269.83 43.9361 1280 43.9361 L1290.45 43.9361 L1290.45 43.2069 Q1290.45 38.0623 1287.05 35.2672 Q1283.69 32.4315 1277.57 32.4315 Q1273.68 32.4315 1270 33.3632 Q1266.31 34.295 1262.91 36.1584 L1262.91 29.2718 Q1267 27.692 1270.85 26.9223 Q1274.69 26.1121 1278.34 26.1121 Q1288.18 26.1121 1293.04 31.2163 Q1297.91 36.3204 1297.91 46.6907 Z" fill="#adb2b7" fill-rule="nonzero" fill-opacity="1" /><path clip-path="url(#clip740)" d="M1350.97 45.1919 L1350.97 72.576 L1343.52 72.576 L1343.52 45.4349 Q1343.52 38.994 1341.01 35.7938 Q1338.5 32.5936 1333.47 32.5936 Q1327.44 32.5936 1323.95 36.4419 Q1320.47 40.2903 1320.47 46.9338 L1320.47 72.576 L1312.98 72.576 L1312.98 27.2059 L1320.47 27.2059 L1320.47 34.2544 Q1323.14 30.163 1326.75 28.1376 Q1330.39 26.1121 1335.13 26.1121 Q1342.95 26.1121 1346.96 30.9732 Q1350.97 35.7938 1350.97 45.1919 Z" fill="#adb2b7" fill-rule="nonzero" fill-opacity="1" /><path clip-path="url(#clip740)" d="M1398.49 28.9478 L1398.49 35.9153 Q1395.33 34.1734 1392.13 33.3227 Q1388.97 32.4315 1385.73 32.4315 Q1378.48 32.4315 1374.47 37.0496 Q1370.46 41.6271 1370.46 49.9314 Q1370.46 58.2358 1374.47 62.8538 Q1378.48 67.4314 1385.73 67.4314 Q1388.97 67.4314 1392.13 66.5807 Q1395.33 65.6895 1398.49 63.9476 L1398.49 70.8341 Q1395.37 72.2924 1392.01 73.0216 Q1388.69 73.7508 1384.92 73.7508 Q1374.67 73.7508 1368.63 67.3098 Q1362.6 60.8689 1362.6 49.9314 Q1362.6 38.832 1368.68 32.472 Q1374.79 26.1121 1385.41 26.1121 Q1388.85 26.1121 1392.13 26.8413 Q1395.41 27.5299 1398.49 28.9478 Z" fill="#adb2b7" fill-rule="nonzero" fill-opacity="1" /><path clip-path="url(#clip740)" d="M1450.26 48.0275 L1450.26 51.6733 L1415.99 51.6733 Q1416.48 59.3701 1420.61 63.421 Q1424.78 67.4314 1432.19 67.4314 Q1436.49 67.4314 1440.5 66.3781 Q1444.55 65.3249 1448.52 63.2184 L1448.52 70.267 Q1444.51 71.9684 1440.3 72.8596 Q1436.08 73.7508 1431.75 73.7508 Q1420.89 73.7508 1414.53 67.4314 Q1408.21 61.1119 1408.21 50.3365 Q1408.21 39.1965 1414.21 32.6746 Q1420.24 26.1121 1430.45 26.1121 Q1439.61 26.1121 1444.91 32.0264 Q1450.26 37.9003 1450.26 48.0275 M1442.81 45.84 Q1442.73 39.7232 1439.36 36.0774 Q1436.04 32.4315 1430.53 32.4315 Q1424.29 32.4315 1420.53 35.9558 Q1416.8 39.4801 1416.23 45.8805 L1442.81 45.84 Z" fill="#adb2b7" fill-rule="nonzero" fill-opacity="1" /><polyline clip-path="url(#clip741)" style="stroke:#0088dd; stroke-linecap:round; stroke-linejoin:round; stroke-width:4; stroke-opacity:1; fill:none" points="289.539,217.94 306.372,217.94 323.205,217.94 340.038,217.94 356.871,217.94 373.704,217.94 390.537,217.94 407.37,217.94 424.203,217.94 441.035,217.94 457.868,217.94 474.701,217.94 491.534,217.94 508.367,217.94 525.2,217.94 542.033,217.94 558.866,217.94 575.699,217.94 592.532,217.94 609.365,217.94 626.198,217.94 643.031,217.94 659.864,217.94 676.697,217.94 676.697,218.955 693.53,218.955 693.53,255.119 710.363,255.119 710.363,222.369 727.196,222.369 727.196,191.417 744.029,191.417 744.029,164.341 760.862,164.341 760.862,143.057 777.695,143.057 777.695,129.099 794.528,129.099 794.528,123.472 811.361,123.472 811.361,125.192 828.194,125.192 828.194,136.7 845.027,136.7 845.027,155.683 861.86,155.683 861.86,180.63 878.693,180.63 878.693,209.613 895.526,209.613 895.526,240.457 912.359,240.457 912.359,272.869 929.192,272.869 929.192,244.956 946.025,244.956 946.025,219.138 962.858,219.138 962.858,199.984 979.691,199.984 979.691,188.157 996.524,188.157 996.524,184.945 1013.36,184.945 1013.36,190.86 1030.19,190.86 1030.19,205.508 1047.02,205.508 1047.02,227.644 1063.86,227.644 1063.86,255.363 1080.69,255.363 1080.69,287.633 1097.52,287.633 1097.52,321.429 1114.35,321.429 1114.35,290.806 1131.19,290.806 1131.19,261.869 1148.02,261.869 1148.02,236.558 1164.85,236.558 1164.85,216.664 1181.69,216.664 1181.69,203.619 1198.52,203.619 1198.52,198.36 1215.35,198.36 1215.35,202.528 1232.19,202.528 1232.19,213.262 1249.02,213.262 1249.02,230.967 1265.85,230.967 1265.85,254.238 1282.68,254.238 1282.68,281.276 1299.52,281.276 1299.52,310.054 1316.35,310.054 1316.35,340.32 1333.18,340.32 1333.18,314.269 1350.02,314.269 1350.02,292.489 1366.85,292.489 1366.85,274.661 1383.68,274.661 1383.68,263.656 1400.51,263.656 1400.51,260.668 1417.35,260.668 1417.35,266.171 1434.18,266.171 1434.18,279.8 1451.01,279.8 1451.01,300.398 1467.85,300.398 1467.85,326.202 1484.68,326.202 1484.68,353.916 1501.51,353.916 1501.51,385.49 1518.35,385.49 1518.35,356.886 1535.18,356.886 1535.18,329.861 1552.01,329.861 1552.01,306.226 1568.84,306.226 1568.84,287.651 1585.68,287.651 1585.68,275.471 1602.51,275.471 1602.51,270.562 1619.34,270.562 1619.34,272.036 1636.18,272.036 1636.18,282.076 1653.01,282.076 1653.01,298.639 1669.84,298.639 1669.84,320.41 1686.68,320.41 1686.68,345.708 1703.51,345.708 1703.51,372.637 1720.34,372.637 1720.34,400.984 1737.17,400.984 1737.17,376.599 1754.01,376.599 1754.01,354.037 1770.84,354.037 1770.84,337.329 1787.67,337.329 1787.67,327.018 1804.51,327.018 1804.51,324.22 1821.34,324.22 1821.34,329.374 1838.17,329.374 1838.17,342.141 1855,342.141 1855,361.442 1871.84,361.442 1871.84,385.627 1888.67,385.627 1888.67,413.831 1905.5,413.831 1905.5,443.408 1922.34,443.408 1922.34,416.619 1939.17,416.619 1939.17,391.312 1956,391.312 1956,369.183 1972.84,369.183 1972.84,351.793 1989.67,351.793 1989.67,340.392 2006.5,340.392 2006.5,335.796 2023.33,335.796 2023.33,339.464 2040.17,339.464 2040.17,348.843 2057,348.843 2057,364.317 2073.83,364.317 2073.83,384.657 2090.67,384.657 2090.67,408.294 2107.5,408.294 2107.5,433.46 2124.33,433.46 2124.33,459.973 2141.17,459.973 2141.17,437.179 2158,437.179 2158,418.162 2174.83,418.162 2174.83,402.586 2191.66,402.586 2191.66,392.975 2208.5,392.975 2208.5,390.367 2225.33,390.367 2225.33,395.17 2242.16,395.17 2242.16,407.068 2259,407.068 2259,425.059 2275.83,425.059 2275.83,447.609 2292.66,447.609 2292.66,471.823 "/>
</svg>
