<?xml version="1.0" encoding="utf-8"?>
<svg xmlns="http://www.w3.org/2000/svg" xmlns:xlink="http://www.w3.org/1999/xlink" width="600" height="400" viewBox="0 0 2400 1600">
<defs>
  <clipPath id="clip080">
    <rect x="0" y="0" width="2400" height="1600"/>
  </clipPath>
</defs>
<path clip-path="url(#clip080)" d="M0 1600 L2400 1600 L2400 0 L0 0  Z" fill="#282c34" fill-rule="evenodd" fill-opacity="1"/>
<defs>
  <clipPath id="clip081">
    <rect x="229" y="123" width="2124" height="1364"/>
  </clipPath>
</defs>
<path clip-path="url(#clip080)" d="M229.445 1486.45 L2352.76 1486.45 L2352.76 123.472 L229.445 123.472  Z" fill="#21252b" fill-rule="evenodd" fill-opacity="1"/>
<polyline clip-path="url(#clip081)" style="stroke:#adb2b7; stroke-linecap:round; stroke-linejoin:round; stroke-width:2; stroke-opacity:0.1; fill:none" points="289.539,1486.45 289.539,123.472 "/>
<polyline clip-path="url(#clip081)" style="stroke:#adb2b7; stroke-linecap:round; stroke-linejoin:round; stroke-width:2; stroke-opacity:0.1; fill:none" points="734.677,1486.45 734.677,123.472 "/>
<polyline clip-path="url(#clip081)" style="stroke:#adb2b7; stroke-linecap:round; stroke-linejoin:round; stroke-width:2; stroke-opacity:0.1; fill:none" points="1179.82,1486.45 1179.82,123.472 "/>
<polyline clip-path="url(#clip081)" style="stroke:#adb2b7; stroke-linecap:round; stroke-linejoin:round; stroke-width:2; stroke-opacity:0.1; fill:none" points="1624.95,1486.45 1624.95,123.472 "/>
<polyline clip-path="url(#clip081)" style="stroke:#adb2b7; stroke-linecap:round; stroke-linejoin:round; stroke-width:2; stroke-opacity:0.1; fill:none" points="2070.09,1486.45 2070.09,123.472 "/>
<polyline clip-path="url(#clip081)" style="stroke:#adb2b7; stroke-linecap:round; stroke-linejoin:round; stroke-width:2; stroke-opacity:0.1; fill:none" points="229.445,1257.38 2352.76,1257.38 "/>
<polyline clip-path="url(#clip081)" style="stroke:#adb2b7; stroke-linecap:round; stroke-linejoin:round; stroke-width:2; stroke-opacity:0.1; fill:none" points="229.445,971.641 2352.76,971.641 "/>
<polyline clip-path="url(#clip081)" style="stroke:#adb2b7; stroke-linecap:round; stroke-linejoin:round; stroke-width:2; stroke-opacity:0.1; fill:none" points="229.445,685.902 2352.76,685.902 "/>
<polyline clip-path="url(#clip081)" style="stroke:#adb2b7; stroke-linecap:round; stroke-linejoin:round; stroke-width:2; stroke-opacity:0.1; fill:none" points="229.445,400.163 2352.76,400.163 "/>
<polyline clip-path="url(#clip080)" style="stroke:#adb2b7; stroke-linecap:round; stroke-linejoin:round; stroke-width:4; stroke-opacity:1; fill:none" points="229.445,1486.45 2352.76,1486.45 "/>
<polyline clip-path="url(#clip080)" style="stroke:#adb2b7; stroke-linecap:round; stroke-linejoin:round; stroke-width:4; stroke-opacity:1; fill:none" points="289.539,1486.45 289.539,1467.55 "/>
<polyline clip-path="url(#clip080)" style="stroke:#adb2b7; stroke-linecap:round; stroke-linejoin:round; stroke-width:4; stroke-opacity:1; fill:none" points="734.677,1486.45 734.677,1467.55 "/>
<polyline clip-path="url(#clip080)" style="stroke:#adb2b7; stroke-linecap:round; stroke-linejoin:round; stroke-width:4; stroke-opacity:1; fill:none" points="1179.82,1486.45 1179.82,1467.55 "/>
<polyline clip-path="url(#clip080)" style="stroke:#adb2b7; stroke-linecap:round; stroke-linejoin:round; stroke-width:4; stroke-opacity:1; fill:none" points="1624.95,1486.45 1624.95,1467.55 "/>
<polyline clip-path="url(#clip080)" style="stroke:#adb2b7; stroke-linecap:round; stroke-linejoin:round; stroke-width:4; stroke-opacity:1; fill:none" points="2070.09,1486.45 2070.09,1467.55 "/>
<path clip-path="url(#clip080)" d="M161.333 1544.91 L177.653 1544.91 L177.653 1548.85 L155.708 1548.85 L155.708 1544.91 Q158.37 1542.16 162.954 1537.53 Q167.56 1532.88 168.741 1531.53 Q170.986 1529.01 171.866 1527.27 Q172.769 1525.51 172.769 1523.82 Q172.769 1521.07 170.824 1519.33 Q168.903 1517.6 165.801 1517.6 Q163.602 1517.6 161.148 1518.36 Q158.718 1519.13 155.94 1520.68 L155.94 1515.95 Q158.764 1514.82 161.218 1514.24 Q163.671 1513.66 165.708 1513.66 Q171.079 1513.66 174.273 1516.35 Q177.468 1519.03 177.468 1523.52 Q177.468 1525.65 176.657 1527.57 Q175.87 1529.47 173.764 1532.07 Q173.185 1532.74 170.083 1535.95 Q166.982 1539.15 161.333 1544.91 Z" fill="#9eb1be" fill-rule="nonzero" fill-opacity="1" /><path clip-path="url(#clip080)" d="M197.468 1517.37 Q193.856 1517.37 192.028 1520.93 Q190.222 1524.47 190.222 1531.6 Q190.222 1538.71 192.028 1542.27 Q193.856 1545.82 197.468 1545.82 Q201.102 1545.82 202.907 1542.27 Q204.736 1538.71 204.736 1531.6 Q204.736 1524.47 202.907 1520.93 Q201.102 1517.37 197.468 1517.37 M197.468 1513.66 Q203.278 1513.66 206.333 1518.27 Q209.412 1522.85 209.412 1531.6 Q209.412 1540.33 206.333 1544.94 Q203.278 1549.52 197.468 1549.52 Q191.657 1549.52 188.579 1544.94 Q185.523 1540.33 185.523 1531.6 Q185.523 1522.85 188.579 1518.27 Q191.657 1513.66 197.468 1513.66 Z" fill="#9eb1be" fill-rule="nonzero" fill-opacity="1" /><path clip-path="url(#clip080)" d="M221.657 1544.91 L237.977 1544.91 L237.977 1548.85 L216.032 1548.85 L216.032 1544.91 Q218.694 1542.16 223.278 1537.53 Q227.884 1532.88 229.065 1531.53 Q231.31 1529.01 232.19 1527.27 Q233.092 1525.51 233.092 1523.82 Q233.092 1521.07 231.148 1519.33 Q229.227 1517.6 226.125 1517.6 Q223.926 1517.6 221.472 1518.36 Q219.041 1519.13 216.264 1520.68 L216.264 1515.95 Q219.088 1514.82 221.541 1514.24 Q223.995 1513.66 226.032 1513.66 Q231.403 1513.66 234.597 1516.35 Q237.791 1519.03 237.791 1523.52 Q237.791 1525.65 236.981 1527.57 Q236.194 1529.47 234.088 1532.07 Q233.509 1532.74 230.407 1535.95 Q227.305 1539.15 221.657 1544.91 Z" fill="#9eb1be" fill-rule="nonzero" fill-opacity="1" /><path clip-path="url(#clip080)" d="M257.791 1517.37 Q254.18 1517.37 252.351 1520.93 Q250.546 1524.47 250.546 1531.6 Q250.546 1538.71 252.351 1542.27 Q254.18 1545.82 257.791 1545.82 Q261.425 1545.82 263.231 1542.27 Q265.06 1538.71 265.06 1531.6 Q265.06 1524.47 263.231 1520.93 Q261.425 1517.37 257.791 1517.37 M257.791 1513.66 Q263.601 1513.66 266.657 1518.27 Q269.736 1522.85 269.736 1531.6 Q269.736 1540.33 266.657 1544.94 Q263.601 1549.52 257.791 1549.52 Q251.981 1549.52 248.902 1544.94 Q245.847 1540.33 245.847 1531.6 Q245.847 1522.85 248.902 1518.27 Q251.981 1513.66 257.791 1513.66 Z" fill="#9eb1be" fill-rule="nonzero" fill-opacity="1" /><path clip-path="url(#clip080)" d="M275.199 1533.96 L287.675 1533.96 L287.675 1537.76 L275.199 1537.76 L275.199 1533.96 Z" fill="#9eb1be" fill-rule="nonzero" fill-opacity="1" /><path clip-path="url(#clip080)" d="M305.06 1517.37 Q301.448 1517.37 299.62 1520.93 Q297.814 1524.47 297.814 1531.6 Q297.814 1538.71 299.62 1542.27 Q301.448 1545.82 305.06 1545.82 Q308.694 1545.82 310.499 1542.27 Q312.328 1538.71 312.328 1531.6 Q312.328 1524.47 310.499 1520.93 Q308.694 1517.37 305.06 1517.37 M305.06 1513.66 Q310.87 1513.66 313.925 1518.27 Q317.004 1522.85 317.004 1531.6 Q317.004 1540.33 313.925 1544.94 Q310.87 1549.52 305.06 1549.52 Q299.249 1549.52 296.171 1544.94 Q293.115 1540.33 293.115 1531.6 Q293.115 1522.85 296.171 1518.27 Q299.249 1513.66 305.06 1513.66 Z" fill="#9eb1be" fill-rule="nonzero" fill-opacity="1" /><path clip-path="url(#clip080)" d="M326.032 1544.91 L333.67 1544.91 L333.67 1518.55 L325.36 1520.21 L325.36 1515.95 L333.624 1514.29 L338.3 1514.29 L338.3 1544.91 L345.939 1544.91 L345.939 1548.85 L326.032 1548.85 L326.032 1544.91 Z" fill="#9eb1be" fill-rule="nonzero" fill-opacity="1" /><path clip-path="url(#clip080)" d="M352.629 1533.96 L365.105 1533.96 L365.105 1537.76 L352.629 1537.76 L352.629 1533.96 Z" fill="#9eb1be" fill-rule="nonzero" fill-opacity="1" /><path clip-path="url(#clip080)" d="M382.49 1517.37 Q378.879 1517.37 377.05 1520.93 Q375.244 1524.47 375.244 1531.6 Q375.244 1538.71 377.05 1542.27 Q378.879 1545.82 382.49 1545.82 Q386.124 1545.82 387.929 1542.27 Q389.758 1538.71 389.758 1531.6 Q389.758 1524.47 387.929 1520.93 Q386.124 1517.37 382.49 1517.37 M382.49 1513.66 Q388.3 1513.66 391.355 1518.27 Q394.434 1522.85 394.434 1531.6 Q394.434 1540.33 391.355 1544.94 Q388.3 1549.52 382.49 1549.52 Q376.68 1549.52 373.601 1544.94 Q370.545 1540.33 370.545 1531.6 Q370.545 1522.85 373.601 1518.27 Q376.68 1513.66 382.49 1513.66 Z" fill="#9eb1be" fill-rule="nonzero" fill-opacity="1" /><path clip-path="url(#clip080)" d="M403.462 1544.91 L411.101 1544.91 L411.101 1518.55 L402.79 1520.21 L402.79 1515.95 L411.054 1514.29 L415.73 1514.29 L415.73 1544.91 L423.369 1544.91 L423.369 1548.85 L403.462 1548.85 L403.462 1544.91 Z" fill="#9eb1be" fill-rule="nonzero" fill-opacity="1" /><path clip-path="url(#clip080)" d="M606.183 1544.91 L622.502 1544.91 L622.502 1548.85 L600.558 1548.85 L600.558 1544.91 Q603.22 1542.16 607.803 1537.53 Q612.409 1532.88 613.59 1531.53 Q615.835 1529.01 616.715 1527.27 Q617.618 1525.51 617.618 1523.82 Q617.618 1521.07 615.673 1519.33 Q613.752 1517.6 610.65 1517.6 Q608.451 1517.6 605.997 1518.36 Q603.567 1519.13 600.789 1520.68 L600.789 1515.95 Q603.613 1514.82 606.067 1514.24 Q608.521 1513.66 610.558 1513.66 Q615.928 1513.66 619.122 1516.35 Q622.317 1519.03 622.317 1523.52 Q622.317 1525.65 621.507 1527.57 Q620.72 1529.47 618.613 1532.07 Q618.034 1532.74 614.933 1535.95 Q611.831 1539.15 606.183 1544.91 Z" fill="#9eb1be" fill-rule="nonzero" fill-opacity="1" /><path clip-path="url(#clip080)" d="M642.317 1517.37 Q638.706 1517.37 636.877 1520.93 Q635.071 1524.47 635.071 1531.6 Q635.071 1538.71 636.877 1542.27 Q638.706 1545.82 642.317 1545.82 Q645.951 1545.82 647.756 1542.27 Q649.585 1538.71 649.585 1531.6 Q649.585 1524.47 647.756 1520.93 Q645.951 1517.37 642.317 1517.37 M642.317 1513.66 Q648.127 1513.66 651.182 1518.27 Q654.261 1522.85 654.261 1531.6 Q654.261 1540.33 651.182 1544.94 Q648.127 1549.52 642.317 1549.52 Q636.507 1549.52 633.428 1544.94 Q630.372 1540.33 630.372 1531.6 Q630.372 1522.85 633.428 1518.27 Q636.507 1513.66 642.317 1513.66 Z" fill="#9eb1be" fill-rule="nonzero" fill-opacity="1" /><path clip-path="url(#clip080)" d="M666.506 1544.91 L682.826 1544.91 L682.826 1548.85 L660.881 1548.85 L660.881 1544.91 Q663.543 1542.16 668.127 1537.53 Q672.733 1532.88 673.914 1531.53 Q676.159 1529.01 677.039 1527.27 Q677.942 1525.51 677.942 1523.82 Q677.942 1521.07 675.997 1519.33 Q674.076 1517.6 670.974 1517.6 Q668.775 1517.6 666.321 1518.36 Q663.891 1519.13 661.113 1520.68 L661.113 1515.95 Q663.937 1514.82 666.391 1514.24 Q668.844 1513.66 670.881 1513.66 Q676.252 1513.66 679.446 1516.35 Q682.641 1519.03 682.641 1523.52 Q682.641 1525.65 681.83 1527.57 Q681.043 1529.47 678.937 1532.07 Q678.358 1532.74 675.256 1535.95 Q672.154 1539.15 666.506 1544.91 Z" fill="#9eb1be" fill-rule="nonzero" fill-opacity="1" /><path clip-path="url(#clip080)" d="M702.64 1517.37 Q699.029 1517.37 697.201 1520.93 Q695.395 1524.47 695.395 1531.6 Q695.395 1538.71 697.201 1542.27 Q699.029 1545.82 702.64 1545.82 Q706.275 1545.82 708.08 1542.27 Q709.909 1538.71 709.909 1531.6 Q709.909 1524.47 708.08 1520.93 Q706.275 1517.37 702.64 1517.37 M702.64 1513.66 Q708.451 1513.66 711.506 1518.27 Q714.585 1522.85 714.585 1531.6 Q714.585 1540.33 711.506 1544.94 Q708.451 1549.52 702.64 1549.52 Q696.83 1549.52 693.752 1544.94 Q690.696 1540.33 690.696 1531.6 Q690.696 1522.85 693.752 1518.27 Q696.83 1513.66 702.64 1513.66 Z" fill="#9eb1be" fill-rule="nonzero" fill-opacity="1" /><path clip-path="url(#clip080)" d="M720.048 1533.96 L732.525 1533.96 L732.525 1537.76 L720.048 1537.76 L720.048 1533.96 Z" fill="#9eb1be" fill-rule="nonzero" fill-opacity="1" /><path clip-path="url(#clip080)" d="M749.909 1517.37 Q746.298 1517.37 744.469 1520.93 Q742.663 1524.47 742.663 1531.6 Q742.663 1538.71 744.469 1542.27 Q746.298 1545.82 749.909 1545.82 Q753.543 1545.82 755.348 1542.27 Q757.177 1538.71 757.177 1531.6 Q757.177 1524.47 755.348 1520.93 Q753.543 1517.37 749.909 1517.37 M749.909 1513.66 Q755.719 1513.66 758.774 1518.27 Q761.853 1522.85 761.853 1531.6 Q761.853 1540.33 758.774 1544.94 Q755.719 1549.52 749.909 1549.52 Q744.099 1549.52 741.02 1544.94 Q737.964 1540.33 737.964 1531.6 Q737.964 1522.85 741.02 1518.27 Q744.099 1513.66 749.909 1513.66 Z" fill="#9eb1be" fill-rule="nonzero" fill-opacity="1" /><path clip-path="url(#clip080)" d="M770.881 1544.91 L778.52 1544.91 L778.52 1518.55 L770.21 1520.21 L770.21 1515.95 L778.473 1514.29 L783.149 1514.29 L783.149 1544.91 L790.788 1544.91 L790.788 1548.85 L770.881 1548.85 L770.881 1544.91 Z" fill="#9eb1be" fill-rule="nonzero" fill-opacity="1" /><path clip-path="url(#clip080)" d="M797.478 1533.96 L809.955 1533.96 L809.955 1537.76 L797.478 1537.76 L797.478 1533.96 Z" fill="#9eb1be" fill-rule="nonzero" fill-opacity="1" /><path clip-path="url(#clip080)" d="M827.339 1517.37 Q823.728 1517.37 821.899 1520.93 Q820.094 1524.47 820.094 1531.6 Q820.094 1538.71 821.899 1542.27 Q823.728 1545.82 827.339 1545.82 Q830.973 1545.82 832.779 1542.27 Q834.607 1538.71 834.607 1531.6 Q834.607 1524.47 832.779 1520.93 Q830.973 1517.37 827.339 1517.37 M827.339 1513.66 Q833.149 1513.66 836.205 1518.27 Q839.283 1522.85 839.283 1531.6 Q839.283 1540.33 836.205 1544.94 Q833.149 1549.52 827.339 1549.52 Q821.529 1549.52 818.45 1544.94 Q815.394 1540.33 815.394 1531.6 Q815.394 1522.85 818.45 1518.27 Q821.529 1513.66 827.339 1513.66 Z" fill="#9eb1be" fill-rule="nonzero" fill-opacity="1" /><path clip-path="url(#clip080)" d="M861.667 1530.21 Q865.024 1530.93 866.899 1533.2 Q868.797 1535.47 868.797 1538.8 Q868.797 1543.92 865.278 1546.72 Q861.76 1549.52 855.279 1549.52 Q853.103 1549.52 850.788 1549.08 Q848.496 1548.66 846.042 1547.81 L846.042 1543.29 Q847.987 1544.43 850.302 1545.01 Q852.616 1545.58 855.14 1545.58 Q859.538 1545.58 861.829 1543.85 Q864.144 1542.11 864.144 1538.8 Q864.144 1535.75 861.991 1534.03 Q859.862 1532.3 856.042 1532.3 L852.015 1532.3 L852.015 1528.45 L856.228 1528.45 Q859.677 1528.45 861.505 1527.09 Q863.334 1525.7 863.334 1523.11 Q863.334 1520.45 861.436 1519.03 Q859.561 1517.6 856.042 1517.6 Q854.121 1517.6 851.922 1518.01 Q849.723 1518.43 847.084 1519.31 L847.084 1515.14 Q849.746 1514.4 852.061 1514.03 Q854.399 1513.66 856.459 1513.66 Q861.783 1513.66 864.885 1516.09 Q867.987 1518.5 867.987 1522.62 Q867.987 1525.49 866.343 1527.48 Q864.7 1529.45 861.667 1530.21 Z" fill="#9eb1be" fill-rule="nonzero" fill-opacity="1" /><path clip-path="url(#clip080)" d="M1051.49 1544.91 L1067.81 1544.91 L1067.81 1548.85 L1045.87 1548.85 L1045.87 1544.91 Q1048.53 1542.16 1053.12 1537.53 Q1057.72 1532.88 1058.9 1531.53 Q1061.15 1529.01 1062.03 1527.27 Q1062.93 1525.51 1062.93 1523.82 Q1062.93 1521.07 1060.99 1519.33 Q1059.06 1517.6 1055.96 1517.6 Q1053.76 1517.6 1051.31 1518.36 Q1048.88 1519.13 1046.1 1520.68 L1046.1 1515.95 Q1048.93 1514.82 1051.38 1514.24 Q1053.83 1513.66 1055.87 1513.66 Q1061.24 1513.66 1064.43 1516.35 Q1067.63 1519.03 1067.63 1523.52 Q1067.63 1525.65 1066.82 1527.57 Q1066.03 1529.47 1063.93 1532.07 Q1063.35 1532.74 1060.24 1535.95 Q1057.14 1539.15 1051.49 1544.91 Z" fill="#9eb1be" fill-rule="nonzero" fill-opacity="1" /><path clip-path="url(#clip080)" d="M1087.63 1517.37 Q1084.02 1517.37 1082.19 1520.93 Q1080.38 1524.47 1080.38 1531.6 Q1080.38 1538.71 1082.19 1542.27 Q1084.02 1545.82 1087.63 1545.82 Q1091.26 1545.82 1093.07 1542.27 Q1094.9 1538.71 1094.9 1531.6 Q1094.9 1524.47 1093.07 1520.93 Q1091.26 1517.37 1087.63 1517.37 M1087.63 1513.66 Q1093.44 1513.66 1096.49 1518.27 Q1099.57 1522.85 1099.57 1531.6 Q1099.57 1540.33 1096.49 1544.94 Q1093.44 1549.52 1087.63 1549.52 Q1081.82 1549.52 1078.74 1544.94 Q1075.68 1540.33 1075.68 1531.6 Q1075.68 1522.85 1078.74 1518.27 Q1081.82 1513.66 1087.63 1513.66 Z" fill="#9eb1be" fill-rule="nonzero" fill-opacity="1" /><path clip-path="url(#clip080)" d="M1111.82 1544.91 L1128.14 1544.91 L1128.14 1548.85 L1106.19 1548.85 L1106.19 1544.91 Q1108.86 1542.16 1113.44 1537.53 Q1118.05 1532.88 1119.23 1531.53 Q1121.47 1529.01 1122.35 1527.27 Q1123.25 1525.51 1123.25 1523.82 Q1123.25 1521.07 1121.31 1519.33 Q1119.39 1517.6 1116.29 1517.6 Q1114.09 1517.6 1111.63 1518.36 Q1109.2 1519.13 1106.43 1520.68 L1106.43 1515.95 Q1109.25 1514.82 1111.7 1514.24 Q1114.16 1513.66 1116.19 1513.66 Q1121.56 1513.66 1124.76 1516.35 Q1127.95 1519.03 1127.95 1523.52 Q1127.95 1525.65 1127.14 1527.57 Q1126.36 1529.47 1124.25 1532.07 Q1123.67 1532.74 1120.57 1535.95 Q1117.47 1539.15 1111.82 1544.91 Z" fill="#9eb1be" fill-rule="nonzero" fill-opacity="1" /><path clip-path="url(#clip080)" d="M1147.95 1517.37 Q1144.34 1517.37 1142.51 1520.93 Q1140.71 1524.47 1140.71 1531.6 Q1140.71 1538.71 1142.51 1542.27 Q1144.34 1545.82 1147.95 1545.82 Q1151.59 1545.82 1153.39 1542.27 Q1155.22 1538.71 1155.22 1531.6 Q1155.22 1524.47 1153.39 1520.93 Q1151.59 1517.37 1147.95 1517.37 M1147.95 1513.66 Q1153.76 1513.66 1156.82 1518.27 Q1159.9 1522.85 1159.9 1531.6 Q1159.9 1540.33 1156.82 1544.94 Q1153.76 1549.52 1147.95 1549.52 Q1142.14 1549.52 1139.06 1544.94 Q1136.01 1540.33 1136.01 1531.6 Q1136.01 1522.85 1139.06 1518.27 Q1142.14 1513.66 1147.95 1513.66 Z" fill="#9eb1be" fill-rule="nonzero" fill-opacity="1" /><path clip-path="url(#clip080)" d="M1165.36 1533.96 L1177.84 1533.96 L1177.84 1537.76 L1165.36 1537.76 L1165.36 1533.96 Z" fill="#9eb1be" fill-rule="nonzero" fill-opacity="1" /><path clip-path="url(#clip080)" d="M1195.22 1517.37 Q1191.61 1517.37 1189.78 1520.93 Q1187.98 1524.47 1187.98 1531.6 Q1187.98 1538.71 1189.78 1542.27 Q1191.61 1545.82 1195.22 1545.82 Q1198.86 1545.82 1200.66 1542.27 Q1202.49 1538.71 1202.49 1531.6 Q1202.49 1524.47 1200.66 1520.93 Q1198.86 1517.37 1195.22 1517.37 M1195.22 1513.66 Q1201.03 1513.66 1204.09 1518.27 Q1207.17 1522.85 1207.17 1531.6 Q1207.17 1540.33 1204.09 1544.94 Q1201.03 1549.52 1195.22 1549.52 Q1189.41 1549.52 1186.33 1544.94 Q1183.28 1540.33 1183.28 1531.6 Q1183.28 1522.85 1186.33 1518.27 Q1189.41 1513.66 1195.22 1513.66 Z" fill="#9eb1be" fill-rule="nonzero" fill-opacity="1" /><path clip-path="url(#clip080)" d="M1216.19 1544.91 L1223.83 1544.91 L1223.83 1518.55 L1215.52 1520.21 L1215.52 1515.95 L1223.79 1514.29 L1228.46 1514.29 L1228.46 1544.91 L1236.1 1544.91 L1236.1 1548.85 L1216.19 1548.85 L1216.19 1544.91 Z" fill="#9eb1be" fill-rule="nonzero" fill-opacity="1" /><path clip-path="url(#clip080)" d="M1242.79 1533.96 L1255.27 1533.96 L1255.27 1537.76 L1242.79 1537.76 L1242.79 1533.96 Z" fill="#9eb1be" fill-rule="nonzero" fill-opacity="1" /><path clip-path="url(#clip080)" d="M1272.65 1517.37 Q1269.04 1517.37 1267.21 1520.93 Q1265.41 1524.47 1265.41 1531.6 Q1265.41 1538.71 1267.21 1542.27 Q1269.04 1545.82 1272.65 1545.82 Q1276.29 1545.82 1278.09 1542.27 Q1279.92 1538.71 1279.92 1531.6 Q1279.92 1524.47 1278.09 1520.93 Q1276.29 1517.37 1272.65 1517.37 M1272.65 1513.66 Q1278.46 1513.66 1281.52 1518.27 Q1284.6 1522.85 1284.6 1531.6 Q1284.6 1540.33 1281.52 1544.94 Q1278.46 1549.52 1272.65 1549.52 Q1266.84 1549.52 1263.76 1544.94 Q1260.71 1540.33 1260.71 1531.6 Q1260.71 1522.85 1263.76 1518.27 Q1266.84 1513.66 1272.65 1513.66 Z" fill="#9eb1be" fill-rule="nonzero" fill-opacity="1" /><path clip-path="url(#clip080)" d="M1292.86 1514.29 L1311.22 1514.29 L1311.22 1518.22 L1297.14 1518.22 L1297.14 1526.7 Q1298.16 1526.35 1299.18 1526.19 Q1300.2 1526 1301.22 1526 Q1307 1526 1310.38 1529.17 Q1313.76 1532.34 1313.76 1537.76 Q1313.76 1543.34 1310.29 1546.44 Q1306.82 1549.52 1300.5 1549.52 Q1298.32 1549.52 1296.05 1549.15 Q1293.81 1548.78 1291.4 1548.04 L1291.4 1543.34 Q1293.48 1544.47 1295.71 1545.03 Q1297.93 1545.58 1300.41 1545.58 Q1304.41 1545.58 1306.75 1543.48 Q1309.09 1541.37 1309.09 1537.76 Q1309.09 1534.15 1306.75 1532.04 Q1304.41 1529.94 1300.41 1529.94 Q1298.53 1529.94 1296.66 1530.35 Q1294.8 1530.77 1292.86 1531.65 L1292.86 1514.29 Z" fill="#9eb1be" fill-rule="nonzero" fill-opacity="1" /><path clip-path="url(#clip080)" d="M1496.59 1544.91 L1512.91 1544.91 L1512.91 1548.85 L1490.96 1548.85 L1490.96 1544.91 Q1493.62 1542.16 1498.21 1537.53 Q1502.81 1532.88 1503.99 1531.53 Q1506.24 1529.01 1507.12 1527.27 Q1508.02 1525.51 1508.02 1523.82 Q1508.02 1521.07 1506.08 1519.33 Q1504.16 1517.6 1501.05 1517.6 Q1498.86 1517.6 1496.4 1518.36 Q1493.97 1519.13 1491.19 1520.68 L1491.19 1515.95 Q1494.02 1514.82 1496.47 1514.24 Q1498.92 1513.66 1500.96 1513.66 Q1506.33 1513.66 1509.53 1516.35 Q1512.72 1519.03 1512.72 1523.52 Q1512.72 1525.65 1511.91 1527.57 Q1511.12 1529.47 1509.02 1532.07 Q1508.44 1532.74 1505.34 1535.95 Q1502.24 1539.15 1496.59 1544.91 Z" fill="#9eb1be" fill-rule="nonzero" fill-opacity="1" /><path clip-path="url(#clip080)" d="M1532.72 1517.37 Q1529.11 1517.37 1527.28 1520.93 Q1525.48 1524.47 1525.48 1531.6 Q1525.48 1538.71 1527.28 1542.27 Q1529.11 1545.82 1532.72 1545.82 Q1536.36 1545.82 1538.16 1542.27 Q1539.99 1538.71 1539.99 1531.6 Q1539.99 1524.47 1538.16 1520.93 Q1536.36 1517.37 1532.72 1517.37 M1532.72 1513.66 Q1538.53 1513.66 1541.59 1518.27 Q1544.67 1522.85 1544.67 1531.6 Q1544.67 1540.33 1541.59 1544.94 Q1538.53 1549.52 1532.72 1549.52 Q1526.91 1549.52 1523.83 1544.94 Q1520.78 1540.33 1520.78 1531.6 Q1520.78 1522.85 1523.83 1518.27 Q1526.91 1513.66 1532.72 1513.66 Z" fill="#9eb1be" fill-rule="nonzero" fill-opacity="1" /><path clip-path="url(#clip080)" d="M1556.91 1544.91 L1573.23 1544.91 L1573.23 1548.85 L1551.29 1548.85 L1551.29 1544.91 Q1553.95 1542.16 1558.53 1537.53 Q1563.14 1532.88 1564.32 1531.53 Q1566.56 1529.01 1567.44 1527.27 Q1568.35 1525.51 1568.35 1523.82 Q1568.35 1521.07 1566.4 1519.33 Q1564.48 1517.6 1561.38 1517.6 Q1559.18 1517.6 1556.73 1518.36 Q1554.3 1519.13 1551.52 1520.68 L1551.52 1515.95 Q1554.34 1514.82 1556.8 1514.24 Q1559.25 1513.66 1561.29 1513.66 Q1566.66 1513.66 1569.85 1516.35 Q1573.04 1519.03 1573.04 1523.52 Q1573.04 1525.65 1572.23 1527.57 Q1571.45 1529.47 1569.34 1532.07 Q1568.76 1532.74 1565.66 1535.95 Q1562.56 1539.15 1556.91 1544.91 Z" fill="#9eb1be" fill-rule="nonzero" fill-opacity="1" /><path clip-path="url(#clip080)" d="M1593.04 1517.37 Q1589.43 1517.37 1587.61 1520.93 Q1585.8 1524.47 1585.8 1531.6 Q1585.8 1538.71 1587.61 1542.27 Q1589.43 1545.82 1593.04 1545.82 Q1596.68 1545.82 1598.48 1542.27 Q1600.31 1538.71 1600.31 1531.6 Q1600.31 1524.47 1598.48 1520.93 Q1596.68 1517.37 1593.04 1517.37 M1593.04 1513.66 Q1598.85 1513.66 1601.91 1518.27 Q1604.99 1522.85 1604.99 1531.6 Q1604.99 1540.33 1601.91 1544.94 Q1598.85 1549.52 1593.04 1549.52 Q1587.23 1549.52 1584.16 1544.94 Q1581.1 1540.33 1581.1 1531.6 Q1581.1 1522.85 1584.16 1518.27 Q1587.23 1513.66 1593.04 1513.66 Z" fill="#9eb1be" fill-rule="nonzero" fill-opacity="1" /><path clip-path="url(#clip080)" d="M1610.45 1533.96 L1622.93 1533.96 L1622.93 1537.76 L1610.45 1537.76 L1610.45 1533.96 Z" fill="#9eb1be" fill-rule="nonzero" fill-opacity="1" /><path clip-path="url(#clip080)" d="M1640.31 1517.37 Q1636.7 1517.37 1634.87 1520.93 Q1633.07 1524.47 1633.07 1531.6 Q1633.07 1538.71 1634.87 1542.27 Q1636.7 1545.82 1640.31 1545.82 Q1643.95 1545.82 1645.75 1542.27 Q1647.58 1538.71 1647.58 1531.6 Q1647.58 1524.47 1645.75 1520.93 Q1643.95 1517.37 1640.31 1517.37 M1640.31 1513.66 Q1646.12 1513.66 1649.18 1518.27 Q1652.26 1522.85 1652.26 1531.6 Q1652.26 1540.33 1649.18 1544.94 Q1646.12 1549.52 1640.31 1549.52 Q1634.5 1549.52 1631.42 1544.94 Q1628.37 1540.33 1628.37 1531.6 Q1628.37 1522.85 1631.42 1518.27 Q1634.5 1513.66 1640.31 1513.66 Z" fill="#9eb1be" fill-rule="nonzero" fill-opacity="1" /><path clip-path="url(#clip080)" d="M1661.29 1544.91 L1668.92 1544.91 L1668.92 1518.55 L1660.61 1520.21 L1660.61 1515.95 L1668.88 1514.29 L1673.55 1514.29 L1673.55 1544.91 L1681.19 1544.91 L1681.19 1548.85 L1661.29 1548.85 L1661.29 1544.91 Z" fill="#9eb1be" fill-rule="nonzero" fill-opacity="1" /><path clip-path="url(#clip080)" d="M1687.88 1533.96 L1700.36 1533.96 L1700.36 1537.76 L1687.88 1537.76 L1687.88 1533.96 Z" fill="#9eb1be" fill-rule="nonzero" fill-opacity="1" /><path clip-path="url(#clip080)" d="M1717.74 1517.37 Q1714.13 1517.37 1712.3 1520.93 Q1710.5 1524.47 1710.5 1531.6 Q1710.5 1538.71 1712.3 1542.27 Q1714.13 1545.82 1717.74 1545.82 Q1721.38 1545.82 1723.18 1542.27 Q1725.01 1538.71 1725.01 1531.6 Q1725.01 1524.47 1723.18 1520.93 Q1721.38 1517.37 1717.74 1517.37 M1717.74 1513.66 Q1723.55 1513.66 1726.61 1518.27 Q1729.69 1522.85 1729.69 1531.6 Q1729.69 1540.33 1726.61 1544.94 Q1723.55 1549.52 1717.74 1549.52 Q1711.93 1549.52 1708.85 1544.94 Q1705.8 1540.33 1705.8 1531.6 Q1705.8 1522.85 1708.85 1518.27 Q1711.93 1513.66 1717.74 1513.66 Z" fill="#9eb1be" fill-rule="nonzero" fill-opacity="1" /><path clip-path="url(#clip080)" d="M1736.72 1514.29 L1758.95 1514.29 L1758.95 1516.28 L1746.4 1548.85 L1741.52 1548.85 L1753.32 1518.22 L1736.72 1518.22 L1736.72 1514.29 Z" fill="#9eb1be" fill-rule="nonzero" fill-opacity="1" /><path clip-path="url(#clip080)" d="M1941.37 1544.91 L1957.69 1544.91 L1957.69 1548.85 L1935.74 1548.85 L1935.74 1544.91 Q1938.4 1542.16 1942.99 1537.53 Q1947.59 1532.88 1948.77 1531.53 Q1951.02 1529.01 1951.9 1527.27 Q1952.8 1525.51 1952.8 1523.82 Q1952.8 1521.07 1950.86 1519.33 Q1948.94 1517.6 1945.83 1517.6 Q1943.64 1517.6 1941.18 1518.36 Q1938.75 1519.13 1935.97 1520.68 L1935.97 1515.95 Q1938.8 1514.82 1941.25 1514.24 Q1943.7 1513.66 1945.74 1513.66 Q1951.11 1513.66 1954.31 1516.35 Q1957.5 1519.03 1957.5 1523.52 Q1957.5 1525.65 1956.69 1527.57 Q1955.9 1529.47 1953.8 1532.07 Q1953.22 1532.74 1950.12 1535.95 Q1947.01 1539.15 1941.37 1544.91 Z" fill="#9eb1be" fill-rule="nonzero" fill-opacity="1" /><path clip-path="url(#clip080)" d="M1977.5 1517.37 Q1973.89 1517.37 1972.06 1520.93 Q1970.26 1524.47 1970.26 1531.6 Q1970.26 1538.71 1972.06 1542.27 Q1973.89 1545.82 1977.5 1545.82 Q1981.14 1545.82 1982.94 1542.27 Q1984.77 1538.71 1984.77 1531.6 Q1984.77 1524.47 1982.94 1520.93 Q1981.14 1517.37 1977.5 1517.37 M1977.5 1513.66 Q1983.31 1513.66 1986.37 1518.27 Q1989.45 1522.85 1989.45 1531.6 Q1989.45 1540.33 1986.37 1544.94 Q1983.31 1549.52 1977.5 1549.52 Q1971.69 1549.52 1968.61 1544.94 Q1965.56 1540.33 1965.56 1531.6 Q1965.56 1522.85 1968.61 1518.27 Q1971.69 1513.66 1977.5 1513.66 Z" fill="#9eb1be" fill-rule="nonzero" fill-opacity="1" /><path clip-path="url(#clip080)" d="M2001.69 1544.91 L2018.01 1544.91 L2018.01 1548.85 L1996.07 1548.85 L1996.07 1544.91 Q1998.73 1542.16 2003.31 1537.53 Q2007.92 1532.88 2009.1 1531.53 Q2011.34 1529.01 2012.22 1527.27 Q2013.13 1525.51 2013.13 1523.82 Q2013.13 1521.07 2011.18 1519.33 Q2009.26 1517.6 2006.16 1517.6 Q2003.96 1517.6 2001.51 1518.36 Q1999.07 1519.13 1996.3 1520.68 L1996.3 1515.95 Q1999.12 1514.82 2001.57 1514.24 Q2004.03 1513.66 2006.07 1513.66 Q2011.44 1513.66 2014.63 1516.35 Q2017.82 1519.03 2017.82 1523.52 Q2017.82 1525.65 2017.01 1527.57 Q2016.23 1529.47 2014.12 1532.07 Q2013.54 1532.74 2010.44 1535.95 Q2007.34 1539.15 2001.69 1544.91 Z" fill="#9eb1be" fill-rule="nonzero" fill-opacity="1" /><path clip-path="url(#clip080)" d="M2037.82 1517.37 Q2034.21 1517.37 2032.38 1520.93 Q2030.58 1524.47 2030.58 1531.6 Q2030.58 1538.71 2032.38 1542.27 Q2034.21 1545.82 2037.82 1545.82 Q2041.46 1545.82 2043.26 1542.27 Q2045.09 1538.71 2045.09 1531.6 Q2045.09 1524.47 2043.26 1520.93 Q2041.46 1517.37 2037.82 1517.37 M2037.82 1513.66 Q2043.63 1513.66 2046.69 1518.27 Q2049.77 1522.85 2049.77 1531.6 Q2049.77 1540.33 2046.69 1544.94 Q2043.63 1549.52 2037.82 1549.52 Q2032.01 1549.52 2028.94 1544.94 Q2025.88 1540.33 2025.88 1531.6 Q2025.88 1522.85 2028.94 1518.27 Q2032.01 1513.66 2037.82 1513.66 Z" fill="#9eb1be" fill-rule="nonzero" fill-opacity="1" /><path clip-path="url(#clip080)" d="M2055.23 1533.96 L2067.71 1533.96 L2067.71 1537.76 L2055.23 1537.76 L2055.23 1533.96 Z" fill="#9eb1be" fill-rule="nonzero" fill-opacity="1" /><path clip-path="url(#clip080)" d="M2085.09 1517.37 Q2081.48 1517.37 2079.65 1520.93 Q2077.85 1524.47 2077.85 1531.6 Q2077.85 1538.71 2079.65 1542.27 Q2081.48 1545.82 2085.09 1545.82 Q2088.73 1545.82 2090.53 1542.27 Q2092.36 1538.71 2092.36 1531.6 Q2092.36 1524.47 2090.53 1520.93 Q2088.73 1517.37 2085.09 1517.37 M2085.09 1513.66 Q2090.9 1513.66 2093.96 1518.27 Q2097.04 1522.85 2097.04 1531.6 Q2097.04 1540.33 2093.96 1544.94 Q2090.9 1549.52 2085.09 1549.52 Q2079.28 1549.52 2076.2 1544.94 Q2073.15 1540.33 2073.15 1531.6 Q2073.15 1522.85 2076.2 1518.27 Q2079.28 1513.66 2085.09 1513.66 Z" fill="#9eb1be" fill-rule="nonzero" fill-opacity="1" /><path clip-path="url(#clip080)" d="M2106.06 1544.91 L2113.7 1544.91 L2113.7 1518.55 L2105.39 1520.21 L2105.39 1515.95 L2113.66 1514.29 L2118.33 1514.29 L2118.33 1544.91 L2125.97 1544.91 L2125.97 1548.85 L2106.06 1548.85 L2106.06 1544.91 Z" fill="#9eb1be" fill-rule="nonzero" fill-opacity="1" /><path clip-path="url(#clip080)" d="M2132.66 1533.96 L2145.14 1533.96 L2145.14 1537.76 L2132.66 1537.76 L2132.66 1533.96 Z" fill="#9eb1be" fill-rule="nonzero" fill-opacity="1" /><path clip-path="url(#clip080)" d="M2162.52 1517.37 Q2158.91 1517.37 2157.08 1520.93 Q2155.28 1524.47 2155.28 1531.6 Q2155.28 1538.71 2157.08 1542.27 Q2158.91 1545.82 2162.52 1545.82 Q2166.16 1545.82 2167.96 1542.27 Q2169.79 1538.71 2169.79 1531.6 Q2169.79 1524.47 2167.96 1520.93 Q2166.16 1517.37 2162.52 1517.37 M2162.52 1513.66 Q2168.33 1513.66 2171.39 1518.27 Q2174.47 1522.85 2174.47 1531.6 Q2174.47 1540.33 2171.39 1544.94 Q2168.33 1549.52 2162.52 1549.52 Q2156.71 1549.52 2153.63 1544.94 Q2150.58 1540.33 2150.58 1531.6 Q2150.58 1522.85 2153.63 1518.27 Q2156.71 1513.66 2162.52 1513.66 Z" fill="#9eb1be" fill-rule="nonzero" fill-opacity="1" /><path clip-path="url(#clip080)" d="M2182.82 1548.13 L2182.82 1543.87 Q2184.58 1544.7 2186.39 1545.14 Q2188.19 1545.58 2189.93 1545.58 Q2194.56 1545.58 2196.99 1542.48 Q2199.44 1539.36 2199.79 1533.01 Q2198.45 1535.01 2196.39 1536.07 Q2194.33 1537.13 2191.83 1537.13 Q2186.64 1537.13 2183.61 1534.01 Q2180.6 1530.86 2180.6 1525.42 Q2180.6 1520.1 2183.75 1516.88 Q2186.9 1513.66 2192.13 1513.66 Q2198.12 1513.66 2201.27 1518.27 Q2204.44 1522.85 2204.44 1531.6 Q2204.44 1539.77 2200.56 1544.66 Q2196.69 1549.52 2190.14 1549.52 Q2188.38 1549.52 2186.57 1549.17 Q2184.77 1548.82 2182.82 1548.13 M2192.13 1533.48 Q2195.28 1533.48 2197.11 1531.32 Q2198.96 1529.17 2198.96 1525.42 Q2198.96 1521.7 2197.11 1519.54 Q2195.28 1517.37 2192.13 1517.37 Q2188.98 1517.37 2187.13 1519.54 Q2185.3 1521.7 2185.3 1525.42 Q2185.3 1529.17 2187.13 1531.32 Q2188.98 1533.48 2192.13 1533.48 Z" fill="#9eb1be" fill-rule="nonzero" fill-opacity="1" /><polyline clip-path="url(#clip080)" style="stroke:#adb2b7; stroke-linecap:round; stroke-linejoin:round; stroke-width:4; stroke-opacity:1; fill:none" points="229.445,1486.45 229.445,123.472 "/>
<polyline clip-path="url(#clip080)" style="stroke:#adb2b7; stroke-linecap:round; stroke-linejoin:round; stroke-width:4; stroke-opacity:1; fill:none" points="229.445,1257.38 248.343,1257.38 "/>
<polyline clip-path="url(#clip080)" style="stroke:#adb2b7; stroke-linecap:round; stroke-linejoin:round; stroke-width:4; stroke-opacity:1; fill:none" points="229.445,971.641 248.343,971.641 "/>
<polyline clip-path="url(#clip080)" style="stroke:#adb2b7; stroke-linecap:round; stroke-linejoin:round; stroke-width:4; stroke-opacity:1; fill:none" points="229.445,685.902 248.343,685.902 "/>
<polyline clip-path="url(#clip080)" style="stroke:#adb2b7; stroke-linecap:round; stroke-linejoin:round; stroke-width:4; stroke-opacity:1; fill:none" points="229.445,400.163 248.343,400.163 "/>
<path clip-path="url(#clip080)" d="M51.6634 1270.73 L59.3023 1270.73 L59.3023 1244.36 L50.9921 1246.03 L50.9921 1241.77 L59.256 1240.1 L63.9319 1240.1 L63.9319 1270.73 L71.5707 1270.73 L71.5707 1274.66 L51.6634 1274.66 L51.6634 1270.73 Z" fill="#9eb1be" fill-rule="nonzero" fill-opacity="1" /><path clip-path="url(#clip080)" d="M91.0151 1243.18 Q87.404 1243.18 85.5753 1246.74 Q83.7697 1250.29 83.7697 1257.42 Q83.7697 1264.52 85.5753 1268.09 Q87.404 1271.63 91.0151 1271.63 Q94.6493 1271.63 96.4548 1268.09 Q98.2835 1264.52 98.2835 1257.42 Q98.2835 1250.29 96.4548 1246.74 Q94.6493 1243.18 91.0151 1243.18 M91.0151 1239.48 Q96.8252 1239.48 99.8808 1244.08 Q102.959 1248.67 102.959 1257.42 Q102.959 1266.14 99.8808 1270.75 Q96.8252 1275.33 91.0151 1275.33 Q85.2049 1275.33 82.1262 1270.75 Q79.0707 1266.14 79.0707 1257.42 Q79.0707 1248.67 82.1262 1244.08 Q85.2049 1239.48 91.0151 1239.48 Z" fill="#9eb1be" fill-rule="nonzero" fill-opacity="1" /><path clip-path="url(#clip080)" d="M115.205 1270.73 L131.524 1270.73 L131.524 1274.66 L109.58 1274.66 L109.58 1270.73 Q112.242 1267.97 116.825 1263.34 Q121.432 1258.69 122.612 1257.35 Q124.857 1254.82 125.737 1253.09 Q126.64 1251.33 126.64 1249.64 Q126.64 1246.88 124.695 1245.15 Q122.774 1243.41 119.672 1243.41 Q117.473 1243.41 115.02 1244.17 Q112.589 1244.94 109.811 1246.49 L109.811 1241.77 Q112.635 1240.63 115.089 1240.05 Q117.543 1239.48 119.58 1239.48 Q124.95 1239.48 128.144 1242.16 Q131.339 1244.85 131.339 1249.34 Q131.339 1251.47 130.529 1253.39 Q129.742 1255.29 127.635 1257.88 Q127.057 1258.55 123.955 1261.77 Q120.853 1264.96 115.205 1270.73 Z" fill="#9eb1be" fill-rule="nonzero" fill-opacity="1" /><path clip-path="url(#clip080)" d="M151.339 1243.18 Q147.728 1243.18 145.899 1246.74 Q144.093 1250.29 144.093 1257.42 Q144.093 1264.52 145.899 1268.09 Q147.728 1271.63 151.339 1271.63 Q154.973 1271.63 156.779 1268.09 Q158.607 1264.52 158.607 1257.42 Q158.607 1250.29 156.779 1246.74 Q154.973 1243.18 151.339 1243.18 M151.339 1239.48 Q157.149 1239.48 160.205 1244.08 Q163.283 1248.67 163.283 1257.42 Q163.283 1266.14 160.205 1270.75 Q157.149 1275.33 151.339 1275.33 Q145.529 1275.33 142.45 1270.75 Q139.394 1266.14 139.394 1257.42 Q139.394 1248.67 142.45 1244.08 Q145.529 1239.48 151.339 1239.48 Z" fill="#9eb1be" fill-rule="nonzero" fill-opacity="1" /><path clip-path="url(#clip080)" d="M181.501 1243.18 Q177.89 1243.18 176.061 1246.74 Q174.255 1250.29 174.255 1257.42 Q174.255 1264.52 176.061 1268.09 Q177.89 1271.63 181.501 1271.63 Q185.135 1271.63 186.94 1268.09 Q188.769 1264.52 188.769 1257.42 Q188.769 1250.29 186.94 1246.74 Q185.135 1243.18 181.501 1243.18 M181.501 1239.48 Q187.311 1239.48 190.366 1244.08 Q193.445 1248.67 193.445 1257.42 Q193.445 1266.14 190.366 1270.75 Q187.311 1275.33 181.501 1275.33 Q175.691 1275.33 172.612 1270.75 Q169.556 1266.14 169.556 1257.42 Q169.556 1248.67 172.612 1244.08 Q175.691 1239.48 181.501 1239.48 Z" fill="#9eb1be" fill-rule="nonzero" fill-opacity="1" /><path clip-path="url(#clip080)" d="M51.6634 984.986 L59.3023 984.986 L59.3023 958.62 L50.9921 960.287 L50.9921 956.028 L59.256 954.361 L63.9319 954.361 L63.9319 984.986 L71.5707 984.986 L71.5707 988.921 L51.6634 988.921 L51.6634 984.986 Z" fill="#9eb1be" fill-rule="nonzero" fill-opacity="1" /><path clip-path="url(#clip080)" d="M91.0151 957.44 Q87.404 957.44 85.5753 961.005 Q83.7697 964.546 83.7697 971.676 Q83.7697 978.782 85.5753 982.347 Q87.404 985.889 91.0151 985.889 Q94.6493 985.889 96.4548 982.347 Q98.2835 978.782 98.2835 971.676 Q98.2835 964.546 96.4548 961.005 Q94.6493 957.44 91.0151 957.44 M91.0151 953.736 Q96.8252 953.736 99.8808 958.343 Q102.959 962.926 102.959 971.676 Q102.959 980.403 99.8808 985.009 Q96.8252 989.592 91.0151 989.592 Q85.2049 989.592 82.1262 985.009 Q79.0707 980.403 79.0707 971.676 Q79.0707 962.926 82.1262 958.343 Q85.2049 953.736 91.0151 953.736 Z" fill="#9eb1be" fill-rule="nonzero" fill-opacity="1" /><path clip-path="url(#clip080)" d="M111.223 954.361 L129.58 954.361 L129.58 958.296 L115.506 958.296 L115.506 966.769 Q116.524 966.421 117.543 966.259 Q118.561 966.074 119.58 966.074 Q125.367 966.074 128.746 969.245 Q132.126 972.417 132.126 977.833 Q132.126 983.412 128.654 986.514 Q125.182 989.592 118.862 989.592 Q116.686 989.592 114.418 989.222 Q112.172 988.852 109.765 988.111 L109.765 983.412 Q111.848 984.546 114.07 985.102 Q116.293 985.657 118.77 985.657 Q122.774 985.657 125.112 983.551 Q127.45 981.444 127.45 977.833 Q127.45 974.222 125.112 972.116 Q122.774 970.009 118.77 970.009 Q116.895 970.009 115.02 970.426 Q113.168 970.843 111.223 971.722 L111.223 954.361 Z" fill="#9eb1be" fill-rule="nonzero" fill-opacity="1" /><path clip-path="url(#clip080)" d="M151.339 957.44 Q147.728 957.44 145.899 961.005 Q144.093 964.546 144.093 971.676 Q144.093 978.782 145.899 982.347 Q147.728 985.889 151.339 985.889 Q154.973 985.889 156.779 982.347 Q158.607 978.782 158.607 971.676 Q158.607 964.546 156.779 961.005 Q154.973 957.44 151.339 957.44 M151.339 953.736 Q157.149 953.736 160.205 958.343 Q163.283 962.926 163.283 971.676 Q163.283 980.403 160.205 985.009 Q157.149 989.592 151.339 989.592 Q145.529 989.592 142.45 985.009 Q139.394 980.403 139.394 971.676 Q139.394 962.926 142.45 958.343 Q145.529 953.736 151.339 953.736 Z" fill="#9eb1be" fill-rule="nonzero" fill-opacity="1" /><path clip-path="url(#clip080)" d="M181.501 957.44 Q177.89 957.44 176.061 961.005 Q174.255 964.546 174.255 971.676 Q174.255 978.782 176.061 982.347 Q177.89 985.889 181.501 985.889 Q185.135 985.889 186.94 982.347 Q188.769 978.782 188.769 971.676 Q188.769 964.546 186.94 961.005 Q185.135 957.44 181.501 957.44 M181.501 953.736 Q187.311 953.736 190.366 958.343 Q193.445 962.926 193.445 971.676 Q193.445 980.403 190.366 985.009 Q187.311 989.592 181.501 989.592 Q175.691 989.592 172.612 985.009 Q169.556 980.403 169.556 971.676 Q169.556 962.926 172.612 958.343 Q175.691 953.736 181.501 953.736 Z" fill="#9eb1be" fill-rule="nonzero" fill-opacity="1" /><path clip-path="url(#clip080)" d="M51.6634 699.247 L59.3023 699.247 L59.3023 672.881 L50.9921 674.548 L50.9921 670.289 L59.256 668.622 L63.9319 668.622 L63.9319 699.247 L71.5707 699.247 L71.5707 703.182 L51.6634 703.182 L51.6634 699.247 Z" fill="#9eb1be" fill-rule="nonzero" fill-opacity="1" /><path clip-path="url(#clip080)" d="M91.0151 671.701 Q87.404 671.701 85.5753 675.266 Q83.7697 678.807 83.7697 685.937 Q83.7697 693.043 85.5753 696.608 Q87.404 700.15 91.0151 700.15 Q94.6493 700.15 96.4548 696.608 Q98.2835 693.043 98.2835 685.937 Q98.2835 678.807 96.4548 675.266 Q94.6493 671.701 91.0151 671.701 M91.0151 667.997 Q96.8252 667.997 99.8808 672.603 Q102.959 677.187 102.959 685.937 Q102.959 694.664 99.8808 699.27 Q96.8252 703.853 91.0151 703.853 Q85.2049 703.853 82.1262 699.27 Q79.0707 694.664 79.0707 685.937 Q79.0707 677.187 82.1262 672.603 Q85.2049 667.997 91.0151 667.997 Z" fill="#9eb1be" fill-rule="nonzero" fill-opacity="1" /><path clip-path="url(#clip080)" d="M121.177 686.77 Q117.844 686.77 115.922 688.552 Q114.024 690.335 114.024 693.46 Q114.024 696.585 115.922 698.367 Q117.844 700.15 121.177 700.15 Q124.51 700.15 126.432 698.367 Q128.353 696.562 128.353 693.46 Q128.353 690.335 126.432 688.552 Q124.533 686.77 121.177 686.77 M116.501 684.779 Q113.492 684.039 111.802 681.978 Q110.135 679.918 110.135 676.955 Q110.135 672.812 113.075 670.404 Q116.038 667.997 121.177 667.997 Q126.339 667.997 129.279 670.404 Q132.219 672.812 132.219 676.955 Q132.219 679.918 130.529 681.978 Q128.862 684.039 125.876 684.779 Q129.256 685.566 131.131 687.858 Q133.029 690.15 133.029 693.46 Q133.029 698.483 129.95 701.168 Q126.894 703.853 121.177 703.853 Q115.459 703.853 112.381 701.168 Q109.325 698.483 109.325 693.46 Q109.325 690.15 111.223 687.858 Q113.121 685.566 116.501 684.779 M114.788 677.395 Q114.788 680.08 116.455 681.585 Q118.145 683.09 121.177 683.09 Q124.186 683.09 125.876 681.585 Q127.589 680.08 127.589 677.395 Q127.589 674.71 125.876 673.205 Q124.186 671.701 121.177 671.701 Q118.145 671.701 116.455 673.205 Q114.788 674.71 114.788 677.395 Z" fill="#9eb1be" fill-rule="nonzero" fill-opacity="1" /><path clip-path="url(#clip080)" d="M151.339 671.701 Q147.728 671.701 145.899 675.266 Q144.093 678.807 144.093 685.937 Q144.093 693.043 145.899 696.608 Q147.728 700.15 151.339 700.15 Q154.973 700.15 156.779 696.608 Q158.607 693.043 158.607 685.937 Q158.607 678.807 156.779 675.266 Q154.973 671.701 151.339 671.701 M151.339 667.997 Q157.149 667.997 160.205 672.603 Q163.283 677.187 163.283 685.937 Q163.283 694.664 160.205 699.27 Q157.149 703.853 151.339 703.853 Q145.529 703.853 142.45 699.27 Q139.394 694.664 139.394 685.937 Q139.394 677.187 142.45 672.603 Q145.529 667.997 151.339 667.997 Z" fill="#9eb1be" fill-rule="nonzero" fill-opacity="1" /><path clip-path="url(#clip080)" d="M181.501 671.701 Q177.89 671.701 176.061 675.266 Q174.255 678.807 174.255 685.937 Q174.255 693.043 176.061 696.608 Q177.89 700.15 181.501 700.15 Q185.135 700.15 186.94 696.608 Q188.769 693.043 188.769 685.937 Q188.769 678.807 186.94 675.266 Q185.135 671.701 181.501 671.701 M181.501 667.997 Q187.311 667.997 190.366 672.603 Q193.445 677.187 193.445 685.937 Q193.445 694.664 190.366 699.27 Q187.311 703.853 181.501 703.853 Q175.691 703.853 172.612 699.27 Q169.556 694.664 169.556 685.937 Q169.556 677.187 172.612 672.603 Q175.691 667.997 181.501 667.997 Z" fill="#9eb1be" fill-rule="nonzero" fill-opacity="1" /><path clip-path="url(#clip080)" d="M51.6634 413.508 L59.3023 413.508 L59.3023 387.142 L50.9921 388.809 L50.9921 384.55 L59.256 382.883 L63.9319 382.883 L63.9319 413.508 L71.5707 413.508 L71.5707 417.443 L51.6634 417.443 L51.6634 413.508 Z" fill="#9eb1be" fill-rule="nonzero" fill-opacity="1" /><path clip-path="url(#clip080)" d="M81.8253 413.508 L89.4641 413.508 L89.4641 387.142 L81.154 388.809 L81.154 384.55 L89.4178 382.883 L94.0937 382.883 L94.0937 413.508 L101.733 413.508 L101.733 417.443 L81.8253 417.443 L81.8253 413.508 Z" fill="#9eb1be" fill-rule="nonzero" fill-opacity="1" /><path clip-path="url(#clip080)" d="M111.987 413.508 L119.626 413.508 L119.626 387.142 L111.316 388.809 L111.316 384.55 L119.58 382.883 L124.256 382.883 L124.256 413.508 L131.894 413.508 L131.894 417.443 L111.987 417.443 L111.987 413.508 Z" fill="#9eb1be" fill-rule="nonzero" fill-opacity="1" /><path clip-path="url(#clip080)" d="M151.339 385.962 Q147.728 385.962 145.899 389.526 Q144.093 393.068 144.093 400.198 Q144.093 407.304 145.899 410.869 Q147.728 414.41 151.339 414.41 Q154.973 414.41 156.779 410.869 Q158.607 407.304 158.607 400.198 Q158.607 393.068 156.779 389.526 Q154.973 385.962 151.339 385.962 M151.339 382.258 Q157.149 382.258 160.205 386.864 Q163.283 391.448 163.283 400.198 Q163.283 408.924 160.205 413.531 Q157.149 418.114 151.339 418.114 Q145.529 418.114 142.45 413.531 Q139.394 408.924 139.394 400.198 Q139.394 391.448 142.45 386.864 Q145.529 382.258 151.339 382.258 Z" fill="#9eb1be" fill-rule="nonzero" fill-opacity="1" /><path clip-path="url(#clip080)" d="M181.501 385.962 Q177.89 385.962 176.061 389.526 Q174.255 393.068 174.255 400.198 Q174.255 407.304 176.061 410.869 Q177.89 414.41 181.501 414.41 Q185.135 414.41 186.94 410.869 Q188.769 407.304 188.769 400.198 Q188.769 393.068 186.94 389.526 Q185.135 385.962 181.501 385.962 M181.501 382.258 Q187.311 382.258 190.366 386.864 Q193.445 391.448 193.445 400.198 Q193.445 408.924 190.366 413.531 Q187.311 418.114 181.501 418.114 Q175.691 418.114 172.612 413.531 Q169.556 408.924 169.556 400.198 Q169.556 391.448 172.612 386.864 Q175.691 382.258 181.501 382.258 Z" fill="#9eb1be" fill-rule="nonzero" fill-opacity="1" /><path clip-path="url(#clip080)" d="M1152.64 20.1573 L1141.54 50.2555 L1163.78 50.2555 L1152.64 20.1573 M1148.02 12.096 L1157.3 12.096 L1180.35 72.576 L1171.84 72.576 L1166.33 57.061 L1139.07 57.061 L1133.56 72.576 L1124.93 72.576 L1148.02 12.096 Z" fill="#adb2b7" fill-rule="nonzero" fill-opacity="1" /><path clip-path="url(#clip080)" d="M1220.05 28.9478 L1220.05 35.9153 Q1216.89 34.1734 1213.69 33.3227 Q1210.53 32.4315 1207.29 32.4315 Q1200.04 32.4315 1196.03 37.0496 Q1192.02 41.6271 1192.02 49.9314 Q1192.02 58.2358 1196.03 62.8538 Q1200.04 67.4314 1207.29 67.4314 Q1210.53 67.4314 1213.69 66.5807 Q1216.89 65.6895 1220.05 63.9476 L1220.05 70.8341 Q1216.93 72.2924 1213.57 73.0216 Q1210.24 73.7508 1206.48 73.7508 Q1196.23 73.7508 1190.19 67.3098 Q1184.16 60.8689 1184.16 49.9314 Q1184.16 38.832 1190.23 32.472 Q1196.35 26.1121 1206.96 26.1121 Q1210.41 26.1121 1213.69 26.8413 Q1216.97 27.5299 1220.05 28.9478 Z" fill="#adb2b7" fill-rule="nonzero" fill-opacity="1" /><path clip-path="url(#clip080)" d="M1265.66 28.9478 L1265.66 35.9153 Q1262.5 34.1734 1259.3 33.3227 Q1256.14 32.4315 1252.9 32.4315 Q1245.65 32.4315 1241.64 37.0496 Q1237.63 41.6271 1237.63 49.9314 Q1237.63 58.2358 1241.64 62.8538 Q1245.65 67.4314 1252.9 67.4314 Q1256.14 67.4314 1259.3 66.5807 Q1262.5 65.6895 1265.66 63.9476 L1265.66 70.8341 Q1262.54 72.2924 1259.18 73.0216 Q1255.86 73.7508 1252.09 73.7508 Q1241.84 73.7508 1235.81 67.3098 Q1229.77 60.8689 1229.77 49.9314 Q1229.77 38.832 1235.85 32.472 Q1241.96 26.1121 1252.58 26.1121 Q1256.02 26.1121 1259.3 26.8413 Q1262.58 27.5299 1265.66 28.9478 Z" fill="#adb2b7" fill-rule="nonzero" fill-opacity="1" /><path clip-path="url(#clip080)" d="M1296.2 32.4315 Q1290.21 32.4315 1286.73 37.1306 Q1283.24 41.7891 1283.24 49.9314 Q1283.24 58.0738 1286.69 62.7728 Q1290.17 67.4314 1296.2 67.4314 Q1302.16 67.4314 1305.64 62.7323 Q1309.13 58.0333 1309.13 49.9314 Q1309.13 41.8701 1305.64 37.1711 Q1302.16 32.4315 1296.2 32.4315 M1296.2 26.1121 Q1305.93 26.1121 1311.48 32.4315 Q1317.03 38.7509 1317.03 49.9314 Q1317.03 61.0714 1311.48 67.4314 Q1305.93 73.7508 1296.2 73.7508 Q1286.44 73.7508 1280.89 67.4314 Q1275.38 61.0714 1275.38 49.9314 Q1275.38 38.7509 1280.89 32.4315 Q1286.44 26.1121 1296.2 26.1121 Z" fill="#adb2b7" fill-rule="nonzero" fill-opacity="1" /><path clip-path="url(#clip080)" d="M1328.61 54.671 L1328.61 27.2059 L1336.07 27.2059 L1336.07 54.3874 Q1336.07 60.8284 1338.58 64.0691 Q1341.09 67.2693 1346.11 67.2693 Q1352.15 67.2693 1355.63 63.421 Q1359.16 59.5726 1359.16 52.9291 L1359.16 27.2059 L1366.61 27.2059 L1366.61 72.576 L1359.16 72.576 L1359.16 65.6084 Q1356.44 69.7404 1352.84 71.7658 Q1349.27 73.7508 1344.53 73.7508 Q1336.71 73.7508 1332.66 68.8897 Q1328.61 64.0286 1328.61 54.671 M1347.37 26.1121 L1347.37 26.1121 Z" fill="#adb2b7" fill-rule="nonzero" fill-opacity="1" /><path clip-path="url(#clip080)" d="M1419.68 45.1919 L1419.68 72.576 L1412.22 72.576 L1412.22 45.4349 Q1412.22 38.994 1409.71 35.7938 Q1407.2 32.5936 1402.18 32.5936 Q1396.14 32.5936 1392.66 36.4419 Q1389.17 40.2903 1389.17 46.9338 L1389.17 72.576 L1381.68 72.576 L1381.68 27.2059 L1389.17 27.2059 L1389.17 34.2544 Q1391.85 30.163 1395.45 28.1376 Q1399.1 26.1121 1403.84 26.1121 Q1411.66 26.1121 1415.67 30.9732 Q1419.68 35.7938 1419.68 45.1919 Z" fill="#adb2b7" fill-rule="nonzero" fill-opacity="1" /><path clip-path="url(#clip080)" d="M1441.92 14.324 L1441.92 27.2059 L1457.27 27.2059 L1457.27 32.9987 L1441.92 32.9987 L1441.92 57.6282 Q1441.92 63.1779 1443.41 64.7578 Q1444.95 66.3376 1449.61 66.3376 L1457.27 66.3376 L1457.27 72.576 L1449.61 72.576 Q1440.98 72.576 1437.7 69.3758 Q1434.42 66.1351 1434.42 57.6282 L1434.42 32.9987 L1428.95 32.9987 L1428.95 27.2059 L1434.42 27.2059 L1434.42 14.324 L1441.92 14.324 Z" fill="#adb2b7" fill-rule="nonzero" fill-opacity="1" /><polyline clip-path="url(#clip081)" style="stroke:#0088dd; stroke-linecap:round; stroke-linejoin:round; stroke-width:4; stroke-opacity:1; fill:none" points="289.539,1447.87 512.108,1447.87 512.108,1305 734.677,1305 734.677,1162.13 957.247,1162.13 957.247,1019.26 1179.82,1019.26 1179.82,876.395 1402.39,876.395 1402.39,733.525 1624.95,733.525 1624.95,590.656 1847.52,590.656 1847.52,447.786 2070.09,447.786 2070.09,304.916 2292.66,304.916 2292.66,162.047 "/>
<polyline clip-path="url(#clip081)" style="stroke:#bbbb00; stroke-linecap:round; stroke-linejoin:round; stroke-width:4; stroke-opacity:1; fill:none" points="289.539,1333.58 512.108,1333.58 512.108,1419.3 734.677,1419.3 734.677,1047.84 957.247,1047.84 957.247,1133.56 1179.82,1133.56 1179.82,762.099 1402.39,762.099 1402.39,847.821 1624.95,847.821 1624.95,476.36 1847.52,476.36 1847.52,562.082 2070.09,562.082 2070.09,190.621 2292.66,190.621 2292.66,276.343 "/>
<path clip-path="url(#clip080)" d="M300.222 324.425 L825.977 324.425 L825.977 168.905 L300.222 168.905  Z" fill="#282c34" fill-rule="evenodd" fill-opacity="1"/>
<polyline clip-path="url(#clip080)" style="stroke:#9eb1be; stroke-linecap:round; stroke-linejoin:round; stroke-width:4; stroke-opacity:1; fill:none" points="300.222,324.425 825.977,324.425 825.977,168.905 300.222,168.905 300.222,324.425 "/>
<polyline clip-path="url(#clip080)" style="stroke:#0088dd; stroke-linecap:round; stroke-linejoin:round; stroke-width:4; stroke-opacity:1; fill:none" points="323.814,220.745 465.368,220.745 "/>
<path clip-path="url(#clip080)" d="M516.831 206.127 L516.831 211.057 Q514.47 208.858 511.785 207.77 Q509.123 206.682 506.114 206.682 Q500.188 206.682 497.039 210.316 Q493.891 213.928 493.891 220.779 Q493.891 227.608 497.039 231.242 Q500.188 234.853 506.114 234.853 Q509.123 234.853 511.785 233.765 Q514.47 232.677 516.831 230.478 L516.831 235.363 Q514.377 237.029 511.623 237.863 Q508.891 238.696 505.836 238.696 Q497.989 238.696 493.475 233.904 Q488.961 229.09 488.961 220.779 Q488.961 212.446 493.475 207.654 Q497.989 202.84 505.836 202.84 Q508.938 202.84 511.669 203.673 Q514.424 204.483 516.831 206.127 Z" fill="#adb2b7" fill-rule="nonzero" fill-opacity="1" /><path clip-path="url(#clip080)" d="M535.65 224.992 Q530.488 224.992 528.498 226.173 Q526.507 227.353 526.507 230.201 Q526.507 232.469 527.988 233.812 Q529.493 235.131 532.062 235.131 Q535.604 235.131 537.734 232.631 Q539.886 230.108 539.886 225.941 L539.886 224.992 L535.65 224.992 M544.146 223.233 L544.146 238.025 L539.886 238.025 L539.886 234.089 Q538.428 236.451 536.252 237.585 Q534.076 238.696 530.928 238.696 Q526.947 238.696 524.586 236.474 Q522.248 234.228 522.248 230.478 Q522.248 226.103 525.164 223.881 Q528.104 221.659 533.914 221.659 L539.886 221.659 L539.886 221.242 Q539.886 218.303 537.942 216.705 Q536.021 215.085 532.525 215.085 Q530.303 215.085 528.197 215.617 Q526.09 216.15 524.146 217.215 L524.146 213.279 Q526.484 212.377 528.683 211.937 Q530.882 211.474 532.965 211.474 Q538.59 211.474 541.368 214.391 Q544.146 217.307 544.146 223.233 Z" fill="#adb2b7" fill-rule="nonzero" fill-opacity="1" /><path clip-path="url(#clip080)" d="M569.447 212.863 L569.447 216.891 Q567.641 215.965 565.697 215.502 Q563.752 215.039 561.669 215.039 Q558.498 215.039 556.9 216.011 Q555.326 216.983 555.326 218.928 Q555.326 220.409 556.46 221.265 Q557.595 222.099 561.021 222.863 L562.479 223.187 Q567.016 224.159 568.914 225.941 Q570.835 227.701 570.835 230.872 Q570.835 234.483 567.965 236.589 Q565.118 238.696 560.118 238.696 Q558.035 238.696 555.766 238.279 Q553.521 237.886 551.021 237.076 L551.021 232.677 Q553.382 233.904 555.673 234.529 Q557.965 235.131 560.21 235.131 Q563.22 235.131 564.84 234.113 Q566.46 233.071 566.46 231.196 Q566.46 229.46 565.28 228.534 Q564.122 227.608 560.164 226.752 L558.683 226.404 Q554.724 225.571 552.965 223.858 Q551.206 222.122 551.206 219.113 Q551.206 215.455 553.798 213.465 Q556.391 211.474 561.16 211.474 Q563.521 211.474 565.604 211.821 Q567.687 212.168 569.447 212.863 Z" fill="#adb2b7" fill-rule="nonzero" fill-opacity="1" /><path clip-path="url(#clip080)" d="M599.169 222.377 L599.169 238.025 L594.909 238.025 L594.909 222.515 Q594.909 218.835 593.474 217.006 Q592.039 215.178 589.169 215.178 Q585.72 215.178 583.729 217.377 Q581.738 219.576 581.738 223.372 L581.738 238.025 L577.456 238.025 L577.456 202.006 L581.738 202.006 L581.738 216.127 Q583.266 213.789 585.326 212.631 Q587.409 211.474 590.118 211.474 Q594.585 211.474 596.877 214.252 Q599.169 217.006 599.169 222.377 Z" fill="#adb2b7" fill-rule="nonzero" fill-opacity="1" /><path clip-path="url(#clip080)" d="M641.344 225.085 Q641.344 220.386 639.4 217.724 Q637.479 215.039 634.099 215.039 Q630.719 215.039 628.775 217.724 Q626.854 220.386 626.854 225.085 Q626.854 229.784 628.775 232.469 Q630.719 235.131 634.099 235.131 Q637.479 235.131 639.4 232.469 Q641.344 229.784 641.344 225.085 M626.854 216.034 Q628.196 213.719 630.233 212.608 Q632.293 211.474 635.141 211.474 Q639.863 211.474 642.803 215.224 Q645.766 218.974 645.766 225.085 Q645.766 231.196 642.803 234.946 Q639.863 238.696 635.141 238.696 Q632.293 238.696 630.233 237.585 Q628.196 236.451 626.854 234.136 L626.854 238.025 L622.571 238.025 L622.571 202.006 L626.854 202.006 L626.854 216.034 Z" fill="#adb2b7" fill-rule="nonzero" fill-opacity="1" /><path clip-path="url(#clip080)" d="M664.608 224.992 Q659.446 224.992 657.455 226.173 Q655.465 227.353 655.465 230.201 Q655.465 232.469 656.946 233.812 Q658.451 235.131 661.02 235.131 Q664.562 235.131 666.691 232.631 Q668.844 230.108 668.844 225.941 L668.844 224.992 L664.608 224.992 M673.103 223.233 L673.103 238.025 L668.844 238.025 L668.844 234.089 Q667.386 236.451 665.21 237.585 Q663.034 238.696 659.886 238.696 Q655.904 238.696 653.543 236.474 Q651.205 234.228 651.205 230.478 Q651.205 226.103 654.122 223.881 Q657.062 221.659 662.872 221.659 L668.844 221.659 L668.844 221.242 Q668.844 218.303 666.9 216.705 Q664.978 215.085 661.483 215.085 Q659.261 215.085 657.154 215.617 Q655.048 216.15 653.103 217.215 L653.103 213.279 Q655.441 212.377 657.64 211.937 Q659.84 211.474 661.923 211.474 Q667.548 211.474 670.326 214.391 Q673.103 217.307 673.103 223.233 Z" fill="#adb2b7" fill-rule="nonzero" fill-opacity="1" /><path clip-path="url(#clip080)" d="M681.876 202.006 L686.136 202.006 L686.136 238.025 L681.876 238.025 L681.876 202.006 Z" fill="#adb2b7" fill-rule="nonzero" fill-opacity="1" /><path clip-path="url(#clip080)" d="M706.83 224.992 Q701.668 224.992 699.677 226.173 Q697.687 227.353 697.687 230.201 Q697.687 232.469 699.168 233.812 Q700.673 235.131 703.242 235.131 Q706.784 235.131 708.913 232.631 Q711.066 230.108 711.066 225.941 L711.066 224.992 L706.83 224.992 M715.325 223.233 L715.325 238.025 L711.066 238.025 L711.066 234.089 Q709.608 236.451 707.432 237.585 Q705.256 238.696 702.108 238.696 Q698.126 238.696 695.765 236.474 Q693.427 234.228 693.427 230.478 Q693.427 226.103 696.344 223.881 Q699.284 221.659 705.094 221.659 L711.066 221.659 L711.066 221.242 Q711.066 218.303 709.122 216.705 Q707.2 215.085 703.705 215.085 Q701.483 215.085 699.376 215.617 Q697.27 216.15 695.325 217.215 L695.325 213.279 Q697.663 212.377 699.862 211.937 Q702.062 211.474 704.145 211.474 Q709.77 211.474 712.548 214.391 Q715.325 217.307 715.325 223.233 Z" fill="#adb2b7" fill-rule="nonzero" fill-opacity="1" /><path clip-path="url(#clip080)" d="M745.649 222.377 L745.649 238.025 L741.39 238.025 L741.39 222.515 Q741.39 218.835 739.955 217.006 Q738.52 215.178 735.649 215.178 Q732.2 215.178 730.21 217.377 Q728.219 219.576 728.219 223.372 L728.219 238.025 L723.936 238.025 L723.936 212.099 L728.219 212.099 L728.219 216.127 Q729.747 213.789 731.807 212.631 Q733.89 211.474 736.598 211.474 Q741.066 211.474 743.358 214.252 Q745.649 217.006 745.649 222.377 Z" fill="#adb2b7" fill-rule="nonzero" fill-opacity="1" /><path clip-path="url(#clip080)" d="M772.802 213.094 L772.802 217.076 Q770.996 216.08 769.168 215.594 Q767.362 215.085 765.51 215.085 Q761.367 215.085 759.075 217.724 Q756.783 220.34 756.783 225.085 Q756.783 229.83 759.075 232.469 Q761.367 235.085 765.51 235.085 Q767.362 235.085 769.168 234.599 Q770.996 234.089 772.802 233.094 L772.802 237.029 Q771.02 237.863 769.098 238.279 Q767.2 238.696 765.047 238.696 Q759.191 238.696 755.742 235.015 Q752.293 231.335 752.293 225.085 Q752.293 218.742 755.765 215.108 Q759.26 211.474 765.325 211.474 Q767.293 211.474 769.168 211.891 Q771.043 212.284 772.802 213.094 Z" fill="#adb2b7" fill-rule="nonzero" fill-opacity="1" /><path clip-path="url(#clip080)" d="M802.385 223.997 L802.385 226.08 L782.802 226.08 Q783.08 230.478 785.441 232.793 Q787.825 235.085 792.061 235.085 Q794.515 235.085 796.806 234.483 Q799.121 233.881 801.39 232.677 L801.39 236.705 Q799.098 237.677 796.691 238.187 Q794.283 238.696 791.806 238.696 Q785.603 238.696 781.969 235.085 Q778.357 231.474 778.357 225.316 Q778.357 218.951 781.783 215.224 Q785.232 211.474 791.066 211.474 Q796.297 211.474 799.33 214.853 Q802.385 218.21 802.385 223.997 M798.126 222.747 Q798.08 219.252 796.158 217.168 Q794.26 215.085 791.112 215.085 Q787.547 215.085 785.394 217.099 Q783.265 219.113 782.941 222.77 L798.126 222.747 Z" fill="#adb2b7" fill-rule="nonzero" fill-opacity="1" /><polyline clip-path="url(#clip080)" style="stroke:#bbbb00; stroke-linecap:round; stroke-linejoin:round; stroke-width:4; stroke-opacity:1; fill:none" points="323.814,272.585 465.368,272.585 "/>
<path clip-path="url(#clip080)" d="M488.961 255.305 L510.813 255.305 L510.813 259.24 L493.637 259.24 L493.637 269.471 L510.095 269.471 L510.095 273.406 L493.637 273.406 L493.637 285.929 L511.229 285.929 L511.229 289.865 L488.961 289.865 L488.961 255.305 Z" fill="#adb2b7" fill-rule="nonzero" fill-opacity="1" /><path clip-path="url(#clip080)" d="M521.275 276.925 Q521.275 281.624 523.197 284.309 Q525.141 286.971 528.521 286.971 Q531.9 286.971 533.845 284.309 Q535.789 281.624 535.789 276.925 Q535.789 272.226 533.845 269.564 Q531.9 266.879 528.521 266.879 Q525.141 266.879 523.197 269.564 Q521.275 272.226 521.275 276.925 M535.789 285.976 Q534.447 288.291 532.387 289.425 Q530.35 290.536 527.479 290.536 Q522.78 290.536 519.817 286.786 Q516.877 283.036 516.877 276.925 Q516.877 270.814 519.817 267.064 Q522.78 263.314 527.479 263.314 Q530.35 263.314 532.387 264.448 Q534.447 265.559 535.789 267.874 L535.789 263.939 L540.049 263.939 L540.049 299.726 L535.789 299.726 L535.789 285.976 Z" fill="#adb2b7" fill-rule="nonzero" fill-opacity="1" /><path clip-path="url(#clip080)" d="M548.382 279.633 L548.382 263.939 L552.641 263.939 L552.641 279.471 Q552.641 283.152 554.076 285.004 Q555.511 286.832 558.382 286.832 Q561.831 286.832 563.822 284.633 Q565.835 282.434 565.835 278.638 L565.835 263.939 L570.095 263.939 L570.095 289.865 L565.835 289.865 L565.835 285.883 Q564.285 288.244 562.224 289.402 Q560.187 290.536 557.479 290.536 Q553.011 290.536 550.697 287.758 Q548.382 284.98 548.382 279.633 M559.099 263.314 L559.099 263.314 Z" fill="#adb2b7" fill-rule="nonzero" fill-opacity="1" /><path clip-path="url(#clip080)" d="M578.868 263.939 L583.127 263.939 L583.127 289.865 L578.868 289.865 L578.868 263.939 M578.868 253.846 L583.127 253.846 L583.127 259.24 L578.868 259.24 L578.868 253.846 Z" fill="#adb2b7" fill-rule="nonzero" fill-opacity="1" /><path clip-path="url(#clip080)" d="M596.252 256.578 L596.252 263.939 L605.025 263.939 L605.025 267.249 L596.252 267.249 L596.252 281.323 Q596.252 284.494 597.108 285.397 Q597.988 286.3 600.65 286.3 L605.025 286.3 L605.025 289.865 L600.65 289.865 Q595.72 289.865 593.845 288.036 Q591.97 286.184 591.97 281.323 L591.97 267.249 L588.845 267.249 L588.845 263.939 L591.97 263.939 L591.97 256.578 L596.252 256.578 Z" fill="#adb2b7" fill-rule="nonzero" fill-opacity="1" /><path clip-path="url(#clip080)" d="M621.414 292.272 Q619.608 296.902 617.895 298.314 Q616.182 299.726 613.312 299.726 L609.909 299.726 L609.909 296.161 L612.409 296.161 Q614.168 296.161 615.141 295.328 Q616.113 294.494 617.293 291.392 L618.057 289.448 L607.571 263.939 L612.085 263.939 L620.187 284.217 L628.289 263.939 L632.803 263.939 L621.414 292.272 Z" fill="#adb2b7" fill-rule="nonzero" fill-opacity="1" /></svg>
