<?xml version="1.0" encoding="utf-8"?>
<svg xmlns="http://www.w3.org/2000/svg" xmlns:xlink="http://www.w3.org/1999/xlink" width="600" height="400" viewBox="0 0 2400 1600">
<defs>
  <clipPath id="clip260">
    <rect x="0" y="0" width="2400" height="1600"/>
  </clipPath>
</defs>
<path clip-path="url(#clip260)" d="M0 1600 L2400 1600 L2400 0 L0 0  Z" fill="#282c34" fill-rule="evenodd" fill-opacity="1"/>
<defs>
  <clipPath id="clip261">
    <rect x="223" y="106" width="2130" height="1381"/>
  </clipPath>
</defs>
<path clip-path="url(#clip260)" d="M223.45 1486.45 L2352.76 1486.45 L2352.76 106.192 L223.45 106.192  Z" fill="#21252b" fill-rule="evenodd" fill-opacity="1"/>
<polyline clip-path="url(#clip261)" style="stroke:#adb2b7; stroke-linecap:round; stroke-linejoin:round; stroke-width:2; stroke-opacity:0.1; fill:none" points="283.713,1486.45 283.713,106.192 "/>
<polyline clip-path="url(#clip261)" style="stroke:#adb2b7; stroke-linecap:round; stroke-linejoin:round; stroke-width:2; stroke-opacity:0.1; fill:none" points="785.908,1486.45 785.908,106.192 "/>
<polyline clip-path="url(#clip261)" style="stroke:#adb2b7; stroke-linecap:round; stroke-linejoin:round; stroke-width:2; stroke-opacity:0.1; fill:none" points="1288.1,1486.45 1288.1,106.192 "/>
<polyline clip-path="url(#clip261)" style="stroke:#adb2b7; stroke-linecap:round; stroke-linejoin:round; stroke-width:2; stroke-opacity:0.1; fill:none" points="1790.3,1486.45 1790.3,106.192 "/>
<polyline clip-path="url(#clip261)" style="stroke:#adb2b7; stroke-linecap:round; stroke-linejoin:round; stroke-width:2; stroke-opacity:0.1; fill:none" points="2292.49,1486.45 2292.49,106.192 "/>
<polyline clip-path="url(#clip261)" style="stroke:#adb2b7; stroke-linecap:round; stroke-linejoin:round; stroke-width:2; stroke-opacity:0.1; fill:none" points="223.45,1366.55 2352.76,1366.55 "/>
<polyline clip-path="url(#clip261)" style="stroke:#adb2b7; stroke-linecap:round; stroke-linejoin:round; stroke-width:2; stroke-opacity:0.1; fill:none" points="223.45,1179.17 2352.76,1179.17 "/>
<polyline clip-path="url(#clip261)" style="stroke:#adb2b7; stroke-linecap:round; stroke-linejoin:round; stroke-width:2; stroke-opacity:0.1; fill:none" points="223.45,991.782 2352.76,991.782 "/>
<polyline clip-path="url(#clip261)" style="stroke:#adb2b7; stroke-linecap:round; stroke-linejoin:round; stroke-width:2; stroke-opacity:0.1; fill:none" points="223.45,804.398 2352.76,804.398 "/>
<polyline clip-path="url(#clip261)" style="stroke:#adb2b7; stroke-linecap:round; stroke-linejoin:round; stroke-width:2; stroke-opacity:0.1; fill:none" points="223.45,617.013 2352.76,617.013 "/>
<polyline clip-path="url(#clip261)" style="stroke:#adb2b7; stroke-linecap:round; stroke-linejoin:round; stroke-width:2; stroke-opacity:0.1; fill:none" points="223.45,429.629 2352.76,429.629 "/>
<polyline clip-path="url(#clip261)" style="stroke:#adb2b7; stroke-linecap:round; stroke-linejoin:round; stroke-width:2; stroke-opacity:0.1; fill:none" points="223.45,242.244 2352.76,242.244 "/>
<polyline clip-path="url(#clip260)" style="stroke:#adb2b7; stroke-linecap:round; stroke-linejoin:round; stroke-width:4; stroke-opacity:1; fill:none" points="223.45,1486.45 2352.76,1486.45 "/>
<polyline clip-path="url(#clip260)" style="stroke:#adb2b7; stroke-linecap:round; stroke-linejoin:round; stroke-width:4; stroke-opacity:1; fill:none" points="283.713,1486.45 283.713,1467.55 "/>
<polyline clip-path="url(#clip260)" style="stroke:#adb2b7; stroke-linecap:round; stroke-linejoin:round; stroke-width:4; stroke-opacity:1; fill:none" points="785.908,1486.45 785.908,1467.55 "/>
<polyline clip-path="url(#clip260)" style="stroke:#adb2b7; stroke-linecap:round; stroke-linejoin:round; stroke-width:4; stroke-opacity:1; fill:none" points="1288.1,1486.45 1288.1,1467.55 "/>
<polyline clip-path="url(#clip260)" style="stroke:#adb2b7; stroke-linecap:round; stroke-linejoin:round; stroke-width:4; stroke-opacity:1; fill:none" points="1790.3,1486.45 1790.3,1467.55 "/>
<polyline clip-path="url(#clip260)" style="stroke:#adb2b7; stroke-linecap:round; stroke-linejoin:round; stroke-width:4; stroke-opacity:1; fill:none" points="2292.49,1486.45 2292.49,1467.55 "/>
<path clip-path="url(#clip260)" d="M235.785 1544.91 L243.424 1544.91 L243.424 1518.55 L235.114 1520.21 L235.114 1515.95 L243.378 1514.29 L248.054 1514.29 L248.054 1544.91 L255.692 1544.91 L255.692 1548.85 L235.785 1548.85 L235.785 1544.91 Z" fill="#9eb1be" fill-rule="nonzero" fill-opacity="1" /><path clip-path="url(#clip260)" d="M265.137 1542.97 L270.021 1542.97 L270.021 1548.85 L265.137 1548.85 L265.137 1542.97 Z" fill="#9eb1be" fill-rule="nonzero" fill-opacity="1" /><path clip-path="url(#clip260)" d="M290.206 1517.37 Q286.595 1517.37 284.766 1520.93 Q282.961 1524.47 282.961 1531.6 Q282.961 1538.71 284.766 1542.27 Q286.595 1545.82 290.206 1545.82 Q293.84 1545.82 295.646 1542.27 Q297.475 1538.71 297.475 1531.6 Q297.475 1524.47 295.646 1520.93 Q293.84 1517.37 290.206 1517.37 M290.206 1513.66 Q296.016 1513.66 299.072 1518.27 Q302.151 1522.85 302.151 1531.6 Q302.151 1540.33 299.072 1544.94 Q296.016 1549.52 290.206 1549.52 Q284.396 1549.52 281.317 1544.94 Q278.262 1540.33 278.262 1531.6 Q278.262 1522.85 281.317 1518.27 Q284.396 1513.66 290.206 1513.66 Z" fill="#9eb1be" fill-rule="nonzero" fill-opacity="1" /><path clip-path="url(#clip260)" d="M320.368 1517.37 Q316.757 1517.37 314.928 1520.93 Q313.123 1524.47 313.123 1531.6 Q313.123 1538.71 314.928 1542.27 Q316.757 1545.82 320.368 1545.82 Q324.002 1545.82 325.808 1542.27 Q327.636 1538.71 327.636 1531.6 Q327.636 1524.47 325.808 1520.93 Q324.002 1517.37 320.368 1517.37 M320.368 1513.66 Q326.178 1513.66 329.234 1518.27 Q332.312 1522.85 332.312 1531.6 Q332.312 1540.33 329.234 1544.94 Q326.178 1549.52 320.368 1549.52 Q314.558 1549.52 311.479 1544.94 Q308.424 1540.33 308.424 1531.6 Q308.424 1522.85 311.479 1518.27 Q314.558 1513.66 320.368 1513.66 Z" fill="#9eb1be" fill-rule="nonzero" fill-opacity="1" /><path clip-path="url(#clip260)" d="M738.478 1544.91 L746.117 1544.91 L746.117 1518.55 L737.806 1520.21 L737.806 1515.95 L746.07 1514.29 L750.746 1514.29 L750.746 1544.91 L758.385 1544.91 L758.385 1548.85 L738.478 1548.85 L738.478 1544.91 Z" fill="#9eb1be" fill-rule="nonzero" fill-opacity="1" /><path clip-path="url(#clip260)" d="M767.829 1542.97 L772.714 1542.97 L772.714 1548.85 L767.829 1548.85 L767.829 1542.97 Z" fill="#9eb1be" fill-rule="nonzero" fill-opacity="1" /><path clip-path="url(#clip260)" d="M786.926 1544.91 L803.246 1544.91 L803.246 1548.85 L781.302 1548.85 L781.302 1544.91 Q783.964 1542.16 788.547 1537.53 Q793.153 1532.88 794.334 1531.53 Q796.579 1529.01 797.459 1527.27 Q798.362 1525.51 798.362 1523.82 Q798.362 1521.07 796.417 1519.33 Q794.496 1517.6 791.394 1517.6 Q789.195 1517.6 786.741 1518.36 Q784.311 1519.13 781.533 1520.68 L781.533 1515.95 Q784.357 1514.82 786.811 1514.24 Q789.264 1513.66 791.301 1513.66 Q796.672 1513.66 799.866 1516.35 Q803.061 1519.03 803.061 1523.52 Q803.061 1525.65 802.25 1527.57 Q801.463 1529.47 799.357 1532.07 Q798.778 1532.74 795.676 1535.95 Q792.575 1539.15 786.926 1544.91 Z" fill="#9eb1be" fill-rule="nonzero" fill-opacity="1" /><path clip-path="url(#clip260)" d="M813.107 1514.29 L831.463 1514.29 L831.463 1518.22 L817.389 1518.22 L817.389 1526.7 Q818.408 1526.35 819.426 1526.19 Q820.445 1526 821.463 1526 Q827.25 1526 830.63 1529.17 Q834.01 1532.34 834.01 1537.76 Q834.01 1543.34 830.537 1546.44 Q827.065 1549.52 820.746 1549.52 Q818.57 1549.52 816.301 1549.15 Q814.056 1548.78 811.649 1548.04 L811.649 1543.34 Q813.732 1544.47 815.954 1545.03 Q818.176 1545.58 820.653 1545.58 Q824.658 1545.58 826.996 1543.48 Q829.334 1541.37 829.334 1537.76 Q829.334 1534.15 826.996 1532.04 Q824.658 1529.94 820.653 1529.94 Q818.778 1529.94 816.903 1530.35 Q815.051 1530.77 813.107 1531.65 L813.107 1514.29 Z" fill="#9eb1be" fill-rule="nonzero" fill-opacity="1" /><path clip-path="url(#clip260)" d="M1240.17 1544.91 L1247.81 1544.91 L1247.81 1518.55 L1239.5 1520.21 L1239.5 1515.95 L1247.77 1514.29 L1252.44 1514.29 L1252.44 1544.91 L1260.08 1544.91 L1260.08 1548.85 L1240.17 1548.85 L1240.17 1544.91 Z" fill="#9eb1be" fill-rule="nonzero" fill-opacity="1" /><path clip-path="url(#clip260)" d="M1269.53 1542.97 L1274.41 1542.97 L1274.41 1548.85 L1269.53 1548.85 L1269.53 1542.97 Z" fill="#9eb1be" fill-rule="nonzero" fill-opacity="1" /><path clip-path="url(#clip260)" d="M1284.64 1514.29 L1303 1514.29 L1303 1518.22 L1288.92 1518.22 L1288.92 1526.7 Q1289.94 1526.35 1290.96 1526.19 Q1291.98 1526 1293 1526 Q1298.79 1526 1302.17 1529.17 Q1305.54 1532.34 1305.54 1537.76 Q1305.54 1543.34 1302.07 1546.44 Q1298.6 1549.52 1292.28 1549.52 Q1290.11 1549.52 1287.84 1549.15 Q1285.59 1548.78 1283.18 1548.04 L1283.18 1543.34 Q1285.27 1544.47 1287.49 1545.03 Q1289.71 1545.58 1292.19 1545.58 Q1296.19 1545.58 1298.53 1543.48 Q1300.87 1541.37 1300.87 1537.76 Q1300.87 1534.15 1298.53 1532.04 Q1296.19 1529.94 1292.19 1529.94 Q1290.31 1529.94 1288.44 1530.35 Q1286.59 1530.77 1284.64 1531.65 L1284.64 1514.29 Z" fill="#9eb1be" fill-rule="nonzero" fill-opacity="1" /><path clip-path="url(#clip260)" d="M1324.76 1517.37 Q1321.15 1517.37 1319.32 1520.93 Q1317.51 1524.47 1317.51 1531.6 Q1317.51 1538.71 1319.32 1542.27 Q1321.15 1545.82 1324.76 1545.82 Q1328.39 1545.82 1330.2 1542.27 Q1332.03 1538.71 1332.03 1531.6 Q1332.03 1524.47 1330.2 1520.93 Q1328.39 1517.37 1324.76 1517.37 M1324.76 1513.66 Q1330.57 1513.66 1333.62 1518.27 Q1336.7 1522.85 1336.7 1531.6 Q1336.7 1540.33 1333.62 1544.94 Q1330.57 1549.52 1324.76 1549.52 Q1318.95 1549.52 1315.87 1544.94 Q1312.81 1540.33 1312.81 1531.6 Q1312.81 1522.85 1315.87 1518.27 Q1318.95 1513.66 1324.76 1513.66 Z" fill="#9eb1be" fill-rule="nonzero" fill-opacity="1" /><path clip-path="url(#clip260)" d="M1742.87 1544.91 L1750.51 1544.91 L1750.51 1518.55 L1742.2 1520.21 L1742.2 1515.95 L1750.46 1514.29 L1755.14 1514.29 L1755.14 1544.91 L1762.77 1544.91 L1762.77 1548.85 L1742.87 1548.85 L1742.87 1544.91 Z" fill="#9eb1be" fill-rule="nonzero" fill-opacity="1" /><path clip-path="url(#clip260)" d="M1772.22 1542.97 L1777.1 1542.97 L1777.1 1548.85 L1772.22 1548.85 L1772.22 1542.97 Z" fill="#9eb1be" fill-rule="nonzero" fill-opacity="1" /><path clip-path="url(#clip260)" d="M1786.11 1514.29 L1808.33 1514.29 L1808.33 1516.28 L1795.78 1548.85 L1790.9 1548.85 L1802.71 1518.22 L1786.11 1518.22 L1786.11 1514.29 Z" fill="#9eb1be" fill-rule="nonzero" fill-opacity="1" /><path clip-path="url(#clip260)" d="M1817.5 1514.29 L1835.85 1514.29 L1835.85 1518.22 L1821.78 1518.22 L1821.78 1526.7 Q1822.8 1526.35 1823.82 1526.19 Q1824.83 1526 1825.85 1526 Q1831.64 1526 1835.02 1529.17 Q1838.4 1532.34 1838.4 1537.76 Q1838.4 1543.34 1834.93 1546.44 Q1831.45 1549.52 1825.14 1549.52 Q1822.96 1549.52 1820.69 1549.15 Q1818.45 1548.78 1816.04 1548.04 L1816.04 1543.34 Q1818.12 1544.47 1820.34 1545.03 Q1822.57 1545.58 1825.04 1545.58 Q1829.05 1545.58 1831.39 1543.48 Q1833.72 1541.37 1833.72 1537.76 Q1833.72 1534.15 1831.39 1532.04 Q1829.05 1529.94 1825.04 1529.94 Q1823.17 1529.94 1821.29 1530.35 Q1819.44 1530.77 1817.5 1531.65 L1817.5 1514.29 Z" fill="#9eb1be" fill-rule="nonzero" fill-opacity="1" /><path clip-path="url(#clip260)" d="M2248.65 1544.91 L2264.97 1544.91 L2264.97 1548.85 L2243.03 1548.85 L2243.03 1544.91 Q2245.69 1542.16 2250.27 1537.53 Q2254.88 1532.88 2256.06 1531.53 Q2258.3 1529.01 2259.18 1527.27 Q2260.09 1525.51 2260.09 1523.82 Q2260.09 1521.07 2258.14 1519.33 Q2256.22 1517.6 2253.12 1517.6 Q2250.92 1517.6 2248.46 1518.36 Q2246.03 1519.13 2243.26 1520.68 L2243.26 1515.95 Q2246.08 1514.82 2248.53 1514.24 Q2250.99 1513.66 2253.03 1513.66 Q2258.4 1513.66 2261.59 1516.35 Q2264.78 1519.03 2264.78 1523.52 Q2264.78 1525.65 2263.97 1527.57 Q2263.19 1529.47 2261.08 1532.07 Q2260.5 1532.74 2257.4 1535.95 Q2254.3 1539.15 2248.65 1544.91 Z" fill="#9eb1be" fill-rule="nonzero" fill-opacity="1" /><path clip-path="url(#clip260)" d="M2274.78 1542.97 L2279.67 1542.97 L2279.67 1548.85 L2274.78 1548.85 L2274.78 1542.97 Z" fill="#9eb1be" fill-rule="nonzero" fill-opacity="1" /><path clip-path="url(#clip260)" d="M2299.85 1517.37 Q2296.24 1517.37 2294.41 1520.93 Q2292.61 1524.47 2292.61 1531.6 Q2292.61 1538.71 2294.41 1542.27 Q2296.24 1545.82 2299.85 1545.82 Q2303.49 1545.82 2305.29 1542.27 Q2307.12 1538.71 2307.12 1531.6 Q2307.12 1524.47 2305.29 1520.93 Q2303.49 1517.37 2299.85 1517.37 M2299.85 1513.66 Q2305.66 1513.66 2308.72 1518.27 Q2311.8 1522.85 2311.8 1531.6 Q2311.8 1540.33 2308.72 1544.94 Q2305.66 1549.52 2299.85 1549.52 Q2294.04 1549.52 2290.96 1544.94 Q2287.91 1540.33 2287.91 1531.6 Q2287.91 1522.85 2290.96 1518.27 Q2294.04 1513.66 2299.85 1513.66 Z" fill="#9eb1be" fill-rule="nonzero" fill-opacity="1" /><path clip-path="url(#clip260)" d="M2330.02 1517.37 Q2326.4 1517.37 2324.58 1520.93 Q2322.77 1524.47 2322.77 1531.6 Q2322.77 1538.71 2324.58 1542.27 Q2326.4 1545.82 2330.02 1545.82 Q2333.65 1545.82 2335.46 1542.27 Q2337.28 1538.71 2337.28 1531.6 Q2337.28 1524.47 2335.46 1520.93 Q2333.65 1517.37 2330.02 1517.37 M2330.02 1513.66 Q2335.83 1513.66 2338.88 1518.27 Q2341.96 1522.85 2341.96 1531.6 Q2341.96 1540.33 2338.88 1544.94 Q2335.83 1549.52 2330.02 1549.52 Q2324.21 1549.52 2321.13 1544.94 Q2318.07 1540.33 2318.07 1531.6 Q2318.07 1522.85 2321.13 1518.27 Q2324.21 1513.66 2330.02 1513.66 Z" fill="#9eb1be" fill-rule="nonzero" fill-opacity="1" /><polyline clip-path="url(#clip260)" style="stroke:#adb2b7; stroke-linecap:round; stroke-linejoin:round; stroke-width:4; stroke-opacity:1; fill:none" points="223.45,1486.45 223.45,106.192 "/>
<polyline clip-path="url(#clip260)" style="stroke:#adb2b7; stroke-linecap:round; stroke-linejoin:round; stroke-width:4; stroke-opacity:1; fill:none" points="223.45,1366.55 242.347,1366.55 "/>
<polyline clip-path="url(#clip260)" style="stroke:#adb2b7; stroke-linecap:round; stroke-linejoin:round; stroke-width:4; stroke-opacity:1; fill:none" points="223.45,1179.17 242.347,1179.17 "/>
<polyline clip-path="url(#clip260)" style="stroke:#adb2b7; stroke-linecap:round; stroke-linejoin:round; stroke-width:4; stroke-opacity:1; fill:none" points="223.45,991.782 242.347,991.782 "/>
<polyline clip-path="url(#clip260)" style="stroke:#adb2b7; stroke-linecap:round; stroke-linejoin:round; stroke-width:4; stroke-opacity:1; fill:none" points="223.45,804.398 242.347,804.398 "/>
<polyline clip-path="url(#clip260)" style="stroke:#adb2b7; stroke-linecap:round; stroke-linejoin:round; stroke-width:4; stroke-opacity:1; fill:none" points="223.45,617.013 242.347,617.013 "/>
<polyline clip-path="url(#clip260)" style="stroke:#adb2b7; stroke-linecap:round; stroke-linejoin:round; stroke-width:4; stroke-opacity:1; fill:none" points="223.45,429.629 242.347,429.629 "/>
<polyline clip-path="url(#clip260)" style="stroke:#adb2b7; stroke-linecap:round; stroke-linejoin:round; stroke-width:4; stroke-opacity:1; fill:none" points="223.45,242.244 242.347,242.244 "/>
<path clip-path="url(#clip260)" d="M50.9921 1367 L80.6679 1367 L80.6679 1370.94 L50.9921 1370.94 L50.9921 1367 Z" fill="#9eb1be" fill-rule="nonzero" fill-opacity="1" /><path clip-path="url(#clip260)" d="M100.76 1352.35 Q97.1493 1352.35 95.3206 1355.91 Q93.515 1359.46 93.515 1366.59 Q93.515 1373.69 95.3206 1377.26 Q97.1493 1380.8 100.76 1380.8 Q104.395 1380.8 106.2 1377.26 Q108.029 1373.69 108.029 1366.59 Q108.029 1359.46 106.2 1355.91 Q104.395 1352.35 100.76 1352.35 M100.76 1348.65 Q106.571 1348.65 109.626 1353.25 Q112.705 1357.84 112.705 1366.59 Q112.705 1375.31 109.626 1379.92 Q106.571 1384.5 100.76 1384.5 Q94.9502 1384.5 91.8715 1379.92 Q88.816 1375.31 88.816 1366.59 Q88.816 1357.84 91.8715 1353.25 Q94.9502 1348.65 100.76 1348.65 Z" fill="#9eb1be" fill-rule="nonzero" fill-opacity="1" /><path clip-path="url(#clip260)" d="M120.922 1377.95 L125.807 1377.95 L125.807 1383.83 L120.922 1383.83 L120.922 1377.95 Z" fill="#9eb1be" fill-rule="nonzero" fill-opacity="1" /><path clip-path="url(#clip260)" d="M145.992 1352.35 Q142.381 1352.35 140.552 1355.91 Q138.746 1359.46 138.746 1366.59 Q138.746 1373.69 140.552 1377.26 Q142.381 1380.8 145.992 1380.8 Q149.626 1380.8 151.431 1377.26 Q153.26 1373.69 153.26 1366.59 Q153.26 1359.46 151.431 1355.91 Q149.626 1352.35 145.992 1352.35 M145.992 1348.65 Q151.802 1348.65 154.857 1353.25 Q157.936 1357.84 157.936 1366.59 Q157.936 1375.31 154.857 1379.92 Q151.802 1384.5 145.992 1384.5 Q140.181 1384.5 137.103 1379.92 Q134.047 1375.31 134.047 1366.59 Q134.047 1357.84 137.103 1353.25 Q140.181 1348.65 145.992 1348.65 Z" fill="#9eb1be" fill-rule="nonzero" fill-opacity="1" /><path clip-path="url(#clip260)" d="M180.32 1365.2 Q183.677 1365.91 185.552 1368.18 Q187.45 1370.45 187.45 1373.79 Q187.45 1378.9 183.931 1381.7 Q180.413 1384.5 173.931 1384.5 Q171.755 1384.5 169.441 1384.06 Q167.149 1383.65 164.695 1382.79 L164.695 1378.28 Q166.64 1379.41 168.954 1379.99 Q171.269 1380.57 173.792 1380.57 Q178.191 1380.57 180.482 1378.83 Q182.797 1377.1 182.797 1373.79 Q182.797 1370.73 180.644 1369.02 Q178.515 1367.28 174.695 1367.28 L170.667 1367.28 L170.667 1363.44 L174.88 1363.44 Q178.329 1363.44 180.158 1362.07 Q181.987 1360.68 181.987 1358.09 Q181.987 1355.43 180.089 1354.02 Q178.214 1352.58 174.695 1352.58 Q172.774 1352.58 170.575 1353 Q168.376 1353.41 165.737 1354.29 L165.737 1350.13 Q168.399 1349.39 170.714 1349.02 Q173.052 1348.65 175.112 1348.65 Q180.436 1348.65 183.538 1351.08 Q186.64 1353.48 186.64 1357.6 Q186.64 1360.48 184.996 1362.47 Q183.353 1364.43 180.32 1365.2 Z" fill="#9eb1be" fill-rule="nonzero" fill-opacity="1" /><path clip-path="url(#clip260)" d="M51.9412 1179.62 L81.617 1179.62 L81.617 1183.55 L51.9412 1183.55 L51.9412 1179.62 Z" fill="#9eb1be" fill-rule="nonzero" fill-opacity="1" /><path clip-path="url(#clip260)" d="M101.709 1164.97 Q98.0984 1164.97 96.2697 1168.53 Q94.4641 1172.07 94.4641 1179.2 Q94.4641 1186.31 96.2697 1189.87 Q98.0984 1193.41 101.709 1193.41 Q105.344 1193.41 107.149 1189.87 Q108.978 1186.31 108.978 1179.2 Q108.978 1172.07 107.149 1168.53 Q105.344 1164.97 101.709 1164.97 M101.709 1161.26 Q107.52 1161.26 110.575 1165.87 Q113.654 1170.45 113.654 1179.2 Q113.654 1187.93 110.575 1192.53 Q107.52 1197.12 101.709 1197.12 Q95.8993 1197.12 92.8206 1192.53 Q89.7651 1187.93 89.7651 1179.2 Q89.7651 1170.45 92.8206 1165.87 Q95.8993 1161.26 101.709 1161.26 Z" fill="#9eb1be" fill-rule="nonzero" fill-opacity="1" /><path clip-path="url(#clip260)" d="M121.871 1190.57 L126.756 1190.57 L126.756 1196.45 L121.871 1196.45 L121.871 1190.57 Z" fill="#9eb1be" fill-rule="nonzero" fill-opacity="1" /><path clip-path="url(#clip260)" d="M146.941 1164.97 Q143.33 1164.97 141.501 1168.53 Q139.695 1172.07 139.695 1179.2 Q139.695 1186.31 141.501 1189.87 Q143.33 1193.41 146.941 1193.41 Q150.575 1193.41 152.38 1189.87 Q154.209 1186.31 154.209 1179.2 Q154.209 1172.07 152.38 1168.53 Q150.575 1164.97 146.941 1164.97 M146.941 1161.26 Q152.751 1161.26 155.806 1165.87 Q158.885 1170.45 158.885 1179.2 Q158.885 1187.93 155.806 1192.53 Q152.751 1197.12 146.941 1197.12 Q141.131 1197.12 138.052 1192.53 Q134.996 1187.93 134.996 1179.2 Q134.996 1170.45 138.052 1165.87 Q141.131 1161.26 146.941 1161.26 Z" fill="#9eb1be" fill-rule="nonzero" fill-opacity="1" /><path clip-path="url(#clip260)" d="M171.13 1192.51 L187.45 1192.51 L187.45 1196.45 L165.505 1196.45 L165.505 1192.51 Q168.167 1189.76 172.751 1185.13 Q177.357 1180.47 178.538 1179.13 Q180.783 1176.61 181.663 1174.87 Q182.565 1173.11 182.565 1171.42 Q182.565 1168.67 180.621 1166.93 Q178.7 1165.2 175.598 1165.2 Q173.399 1165.2 170.945 1165.96 Q168.515 1166.72 165.737 1168.28 L165.737 1163.55 Q168.561 1162.42 171.015 1161.84 Q173.468 1161.26 175.505 1161.26 Q180.876 1161.26 184.07 1163.95 Q187.265 1166.63 187.265 1171.12 Q187.265 1173.25 186.454 1175.17 Q185.667 1177.07 183.561 1179.66 Q182.982 1180.34 179.88 1183.55 Q176.778 1186.75 171.13 1192.51 Z" fill="#9eb1be" fill-rule="nonzero" fill-opacity="1" /><path clip-path="url(#clip260)" d="M51.5708 992.234 L81.2466 992.234 L81.2466 996.169 L51.5708 996.169 L51.5708 992.234 Z" fill="#9eb1be" fill-rule="nonzero" fill-opacity="1" /><path clip-path="url(#clip260)" d="M101.339 977.581 Q97.728 977.581 95.8993 981.146 Q94.0937 984.687 94.0937 991.817 Q94.0937 998.923 95.8993 1002.49 Q97.728 1006.03 101.339 1006.03 Q104.973 1006.03 106.779 1002.49 Q108.608 998.923 108.608 991.817 Q108.608 984.687 106.779 981.146 Q104.973 977.581 101.339 977.581 M101.339 973.877 Q107.149 973.877 110.205 978.484 Q113.283 983.067 113.283 991.817 Q113.283 1000.54 110.205 1005.15 Q107.149 1009.73 101.339 1009.73 Q95.5289 1009.73 92.4502 1005.15 Q89.3947 1000.54 89.3947 991.817 Q89.3947 983.067 92.4502 978.484 Q95.5289 973.877 101.339 973.877 Z" fill="#9eb1be" fill-rule="nonzero" fill-opacity="1" /><path clip-path="url(#clip260)" d="M121.501 1003.18 L126.385 1003.18 L126.385 1009.06 L121.501 1009.06 L121.501 1003.18 Z" fill="#9eb1be" fill-rule="nonzero" fill-opacity="1" /><path clip-path="url(#clip260)" d="M146.57 977.581 Q142.959 977.581 141.131 981.146 Q139.325 984.687 139.325 991.817 Q139.325 998.923 141.131 1002.49 Q142.959 1006.03 146.57 1006.03 Q150.205 1006.03 152.01 1002.49 Q153.839 998.923 153.839 991.817 Q153.839 984.687 152.01 981.146 Q150.205 977.581 146.57 977.581 M146.57 973.877 Q152.38 973.877 155.436 978.484 Q158.515 983.067 158.515 991.817 Q158.515 1000.54 155.436 1005.15 Q152.38 1009.73 146.57 1009.73 Q140.76 1009.73 137.681 1005.15 Q134.626 1000.54 134.626 991.817 Q134.626 983.067 137.681 978.484 Q140.76 973.877 146.57 973.877 Z" fill="#9eb1be" fill-rule="nonzero" fill-opacity="1" /><path clip-path="url(#clip260)" d="M167.542 1005.13 L175.181 1005.13 L175.181 978.762 L166.871 980.428 L166.871 976.169 L175.135 974.502 L179.811 974.502 L179.811 1005.13 L187.45 1005.13 L187.45 1009.06 L167.542 1009.06 L167.542 1005.13 Z" fill="#9eb1be" fill-rule="nonzero" fill-opacity="1" /><path clip-path="url(#clip260)" d="M100.112 790.196 Q96.5011 790.196 94.6724 793.761 Q92.8669 797.303 92.8669 804.432 Q92.8669 811.539 94.6724 815.104 Q96.5011 818.645 100.112 818.645 Q103.746 818.645 105.552 815.104 Q107.381 811.539 107.381 804.432 Q107.381 797.303 105.552 793.761 Q103.746 790.196 100.112 790.196 M100.112 786.493 Q105.922 786.493 108.978 791.099 Q112.057 795.682 112.057 804.432 Q112.057 813.159 108.978 817.766 Q105.922 822.349 100.112 822.349 Q94.3021 822.349 91.2234 817.766 Q88.1679 813.159 88.1679 804.432 Q88.1679 795.682 91.2234 791.099 Q94.3021 786.493 100.112 786.493 Z" fill="#9eb1be" fill-rule="nonzero" fill-opacity="1" /><path clip-path="url(#clip260)" d="M120.274 815.798 L125.158 815.798 L125.158 821.678 L120.274 821.678 L120.274 815.798 Z" fill="#9eb1be" fill-rule="nonzero" fill-opacity="1" /><path clip-path="url(#clip260)" d="M145.343 790.196 Q141.732 790.196 139.904 793.761 Q138.098 797.303 138.098 804.432 Q138.098 811.539 139.904 815.104 Q141.732 818.645 145.343 818.645 Q148.978 818.645 150.783 815.104 Q152.612 811.539 152.612 804.432 Q152.612 797.303 150.783 793.761 Q148.978 790.196 145.343 790.196 M145.343 786.493 Q151.154 786.493 154.209 791.099 Q157.288 795.682 157.288 804.432 Q157.288 813.159 154.209 817.766 Q151.154 822.349 145.343 822.349 Q139.533 822.349 136.455 817.766 Q133.399 813.159 133.399 804.432 Q133.399 795.682 136.455 791.099 Q139.533 786.493 145.343 786.493 Z" fill="#9eb1be" fill-rule="nonzero" fill-opacity="1" /><path clip-path="url(#clip260)" d="M175.505 790.196 Q171.894 790.196 170.066 793.761 Q168.26 797.303 168.26 804.432 Q168.26 811.539 170.066 815.104 Q171.894 818.645 175.505 818.645 Q179.14 818.645 180.945 815.104 Q182.774 811.539 182.774 804.432 Q182.774 797.303 180.945 793.761 Q179.14 790.196 175.505 790.196 M175.505 786.493 Q181.316 786.493 184.371 791.099 Q187.45 795.682 187.45 804.432 Q187.45 813.159 184.371 817.766 Q181.316 822.349 175.505 822.349 Q169.695 822.349 166.617 817.766 Q163.561 813.159 163.561 804.432 Q163.561 795.682 166.617 791.099 Q169.695 786.493 175.505 786.493 Z" fill="#9eb1be" fill-rule="nonzero" fill-opacity="1" /><path clip-path="url(#clip260)" d="M101.339 602.812 Q97.728 602.812 95.8993 606.377 Q94.0937 609.918 94.0937 617.048 Q94.0937 624.154 95.8993 627.719 Q97.728 631.261 101.339 631.261 Q104.973 631.261 106.779 627.719 Q108.608 624.154 108.608 617.048 Q108.608 609.918 106.779 606.377 Q104.973 602.812 101.339 602.812 M101.339 599.108 Q107.149 599.108 110.205 603.715 Q113.283 608.298 113.283 617.048 Q113.283 625.775 110.205 630.381 Q107.149 634.964 101.339 634.964 Q95.5289 634.964 92.4502 630.381 Q89.3947 625.775 89.3947 617.048 Q89.3947 608.298 92.4502 603.715 Q95.5289 599.108 101.339 599.108 Z" fill="#9eb1be" fill-rule="nonzero" fill-opacity="1" /><path clip-path="url(#clip260)" d="M121.501 628.414 L126.385 628.414 L126.385 634.293 L121.501 634.293 L121.501 628.414 Z" fill="#9eb1be" fill-rule="nonzero" fill-opacity="1" /><path clip-path="url(#clip260)" d="M146.57 602.812 Q142.959 602.812 141.131 606.377 Q139.325 609.918 139.325 617.048 Q139.325 624.154 141.131 627.719 Q142.959 631.261 146.57 631.261 Q150.205 631.261 152.01 627.719 Q153.839 624.154 153.839 617.048 Q153.839 609.918 152.01 606.377 Q150.205 602.812 146.57 602.812 M146.57 599.108 Q152.38 599.108 155.436 603.715 Q158.515 608.298 158.515 617.048 Q158.515 625.775 155.436 630.381 Q152.38 634.964 146.57 634.964 Q140.76 634.964 137.681 630.381 Q134.626 625.775 134.626 617.048 Q134.626 608.298 137.681 603.715 Q140.76 599.108 146.57 599.108 Z" fill="#9eb1be" fill-rule="nonzero" fill-opacity="1" /><path clip-path="url(#clip260)" d="M167.542 630.358 L175.181 630.358 L175.181 603.992 L166.871 605.659 L166.871 601.4 L175.135 599.733 L179.811 599.733 L179.811 630.358 L187.45 630.358 L187.45 634.293 L167.542 634.293 L167.542 630.358 Z" fill="#9eb1be" fill-rule="nonzero" fill-opacity="1" /><path clip-path="url(#clip260)" d="M101.709 415.427 Q98.0984 415.427 96.2697 418.992 Q94.4641 422.534 94.4641 429.663 Q94.4641 436.77 96.2697 440.335 Q98.0984 443.876 101.709 443.876 Q105.344 443.876 107.149 440.335 Q108.978 436.77 108.978 429.663 Q108.978 422.534 107.149 418.992 Q105.344 415.427 101.709 415.427 M101.709 411.724 Q107.52 411.724 110.575 416.33 Q113.654 420.913 113.654 429.663 Q113.654 438.39 110.575 442.997 Q107.52 447.58 101.709 447.58 Q95.8993 447.58 92.8206 442.997 Q89.7651 438.39 89.7651 429.663 Q89.7651 420.913 92.8206 416.33 Q95.8993 411.724 101.709 411.724 Z" fill="#9eb1be" fill-rule="nonzero" fill-opacity="1" /><path clip-path="url(#clip260)" d="M121.871 441.029 L126.756 441.029 L126.756 446.909 L121.871 446.909 L121.871 441.029 Z" fill="#9eb1be" fill-rule="nonzero" fill-opacity="1" /><path clip-path="url(#clip260)" d="M146.941 415.427 Q143.33 415.427 141.501 418.992 Q139.695 422.534 139.695 429.663 Q139.695 436.77 141.501 440.335 Q143.33 443.876 146.941 443.876 Q150.575 443.876 152.38 440.335 Q154.209 436.77 154.209 429.663 Q154.209 422.534 152.38 418.992 Q150.575 415.427 146.941 415.427 M146.941 411.724 Q152.751 411.724 155.806 416.33 Q158.885 420.913 158.885 429.663 Q158.885 438.39 155.806 442.997 Q152.751 447.58 146.941 447.58 Q141.131 447.58 138.052 442.997 Q134.996 438.39 134.996 429.663 Q134.996 420.913 138.052 416.33 Q141.131 411.724 146.941 411.724 Z" fill="#9eb1be" fill-rule="nonzero" fill-opacity="1" /><path clip-path="url(#clip260)" d="M171.13 442.973 L187.45 442.973 L187.45 446.909 L165.505 446.909 L165.505 442.973 Q168.167 440.219 172.751 435.589 Q177.357 430.936 178.538 429.594 Q180.783 427.071 181.663 425.335 Q182.565 423.575 182.565 421.886 Q182.565 419.131 180.621 417.395 Q178.7 415.659 175.598 415.659 Q173.399 415.659 170.945 416.423 Q168.515 417.186 165.737 418.737 L165.737 414.015 Q168.561 412.881 171.015 412.302 Q173.468 411.724 175.505 411.724 Q180.876 411.724 184.07 414.409 Q187.265 417.094 187.265 421.585 Q187.265 423.714 186.454 425.636 Q185.667 427.534 183.561 430.126 Q182.982 430.798 179.88 434.015 Q176.778 437.21 171.13 442.973 Z" fill="#9eb1be" fill-rule="nonzero" fill-opacity="1" /><path clip-path="url(#clip260)" d="M100.76 228.043 Q97.1493 228.043 95.3206 231.607 Q93.515 235.149 93.515 242.279 Q93.515 249.385 95.3206 252.95 Q97.1493 256.492 100.76 256.492 Q104.395 256.492 106.2 252.95 Q108.029 249.385 108.029 242.279 Q108.029 235.149 106.2 231.607 Q104.395 228.043 100.76 228.043 M100.76 224.339 Q106.571 224.339 109.626 228.945 Q112.705 233.529 112.705 242.279 Q112.705 251.005 109.626 255.612 Q106.571 260.195 100.76 260.195 Q94.9502 260.195 91.8715 255.612 Q88.816 251.005 88.816 242.279 Q88.816 233.529 91.8715 228.945 Q94.9502 224.339 100.76 224.339 Z" fill="#9eb1be" fill-rule="nonzero" fill-opacity="1" /><path clip-path="url(#clip260)" d="M120.922 253.644 L125.807 253.644 L125.807 259.524 L120.922 259.524 L120.922 253.644 Z" fill="#9eb1be" fill-rule="nonzero" fill-opacity="1" /><path clip-path="url(#clip260)" d="M145.992 228.043 Q142.381 228.043 140.552 231.607 Q138.746 235.149 138.746 242.279 Q138.746 249.385 140.552 252.95 Q142.381 256.492 145.992 256.492 Q149.626 256.492 151.431 252.95 Q153.26 249.385 153.26 242.279 Q153.26 235.149 151.431 231.607 Q149.626 228.043 145.992 228.043 M145.992 224.339 Q151.802 224.339 154.857 228.945 Q157.936 233.529 157.936 242.279 Q157.936 251.005 154.857 255.612 Q151.802 260.195 145.992 260.195 Q140.181 260.195 137.103 255.612 Q134.047 251.005 134.047 242.279 Q134.047 233.529 137.103 228.945 Q140.181 224.339 145.992 224.339 Z" fill="#9eb1be" fill-rule="nonzero" fill-opacity="1" /><path clip-path="url(#clip260)" d="M180.32 240.89 Q183.677 241.607 185.552 243.876 Q187.45 246.144 187.45 249.478 Q187.45 254.593 183.931 257.394 Q180.413 260.195 173.931 260.195 Q171.755 260.195 169.441 259.755 Q167.149 259.339 164.695 258.482 L164.695 253.968 Q166.64 255.103 168.954 255.681 Q171.269 256.26 173.792 256.26 Q178.191 256.26 180.482 254.524 Q182.797 252.788 182.797 249.478 Q182.797 246.422 180.644 244.709 Q178.515 242.973 174.695 242.973 L170.667 242.973 L170.667 239.131 L174.88 239.131 Q178.329 239.131 180.158 237.765 Q181.987 236.376 181.987 233.783 Q181.987 231.121 180.089 229.709 Q178.214 228.274 174.695 228.274 Q172.774 228.274 170.575 228.691 Q168.376 229.107 165.737 229.987 L165.737 225.82 Q168.399 225.08 170.714 224.709 Q173.052 224.339 175.112 224.339 Q180.436 224.339 183.538 226.77 Q186.64 229.177 186.64 233.297 Q186.64 236.168 184.996 238.158 Q183.353 240.126 180.32 240.89 Z" fill="#9eb1be" fill-rule="nonzero" fill-opacity="1" /><path clip-path="url(#clip260)" d="M223.45 8.64 L231.32 8.64 L250.475 44.7799 L250.475 8.64 L256.146 8.64 L256.146 51.84 L248.276 51.84 L229.121 15.7001 L229.121 51.84 L223.45 51.84 L223.45 8.64 Z" fill="#adb2b7" fill-rule="nonzero" fill-opacity="1" /><path clip-path="url(#clip260)" d="M280.105 23.1654 Q275.822 23.1654 273.334 26.5218 Q270.845 29.8494 270.845 35.6653 Q270.845 41.4813 273.305 44.8377 Q275.793 48.1653 280.105 48.1653 Q284.358 48.1653 286.846 44.8088 Q289.335 41.4523 289.335 35.6653 Q289.335 29.9072 286.846 26.5508 Q284.358 23.1654 280.105 23.1654 M280.105 18.6515 Q287.049 18.6515 291.013 23.1654 Q294.977 27.6792 294.977 35.6653 Q294.977 43.6225 291.013 48.1653 Q287.049 52.6791 280.105 52.6791 Q273.131 52.6791 269.167 48.1653 Q265.232 43.6225 265.232 35.6653 Q265.232 27.6792 269.167 23.1654 Q273.131 18.6515 280.105 18.6515 Z" fill="#adb2b7" fill-rule="nonzero" fill-opacity="1" /><path clip-path="url(#clip260)" d="M329.034 25.6538 Q331.03 22.0659 333.808 20.3587 Q336.586 18.6515 340.347 18.6515 Q345.411 18.6515 348.16 22.2105 Q350.909 25.7406 350.909 32.2799 L350.909 51.84 L345.556 51.84 L345.556 32.4535 Q345.556 27.795 343.906 25.5381 Q342.257 23.2811 338.872 23.2811 Q334.734 23.2811 332.332 26.03 Q329.931 28.7788 329.931 33.5241 L329.931 51.84 L324.578 51.84 L324.578 32.4535 Q324.578 27.7661 322.928 25.5381 Q321.279 23.2811 317.836 23.2811 Q313.756 23.2811 311.354 26.0589 Q308.953 28.8077 308.953 33.5241 L308.953 51.84 L303.6 51.84 L303.6 19.4328 L308.953 19.4328 L308.953 24.4675 Q310.776 21.4872 313.322 20.0693 Q315.868 18.6515 319.369 18.6515 Q322.899 18.6515 325.359 20.4455 Q327.847 22.2395 329.034 25.6538 Z" fill="#adb2b7" fill-rule="nonzero" fill-opacity="1" /><path clip-path="url(#clip260)" d="M361.528 19.4328 L366.852 19.4328 L366.852 51.84 L361.528 51.84 L361.528 19.4328 M361.528 6.81709 L366.852 6.81709 L366.852 13.559 L361.528 13.559 L361.528 6.81709 Z" fill="#adb2b7" fill-rule="nonzero" fill-opacity="1" /><path clip-path="url(#clip260)" d="M404.93 32.2799 L404.93 51.84 L399.606 51.84 L399.606 32.4535 Q399.606 27.8529 397.812 25.567 Q396.018 23.2811 392.43 23.2811 Q388.119 23.2811 385.631 26.03 Q383.142 28.7788 383.142 33.5241 L383.142 51.84 L377.789 51.84 L377.789 19.4328 L383.142 19.4328 L383.142 24.4675 Q385.052 21.545 387.627 20.0983 Q390.231 18.6515 393.617 18.6515 Q399.201 18.6515 402.066 22.1237 Q404.93 25.567 404.93 32.2799 Z" fill="#adb2b7" fill-rule="nonzero" fill-opacity="1" /><path clip-path="url(#clip260)" d="M430.277 35.5496 Q423.825 35.5496 421.336 37.0253 Q418.848 38.501 418.848 42.06 Q418.848 44.8956 420.7 46.5738 Q422.581 48.2231 425.792 48.2231 Q430.219 48.2231 432.881 45.0981 Q435.572 41.9442 435.572 36.7359 L435.572 35.5496 L430.277 35.5496 M440.896 33.3505 L440.896 51.84 L435.572 51.84 L435.572 46.921 Q433.75 49.8724 431.03 51.2902 Q428.31 52.6791 424.375 52.6791 Q419.398 52.6791 416.446 49.9014 Q413.524 47.0947 413.524 42.4072 Q413.524 36.9385 417.17 34.1607 Q420.845 31.3829 428.107 31.3829 L435.572 31.3829 L435.572 30.8621 Q435.572 27.1874 433.142 25.1908 Q430.74 23.1654 426.371 23.1654 Q423.593 23.1654 420.96 23.8309 Q418.327 24.4964 415.897 25.8274 L415.897 20.9085 Q418.819 19.78 421.568 19.2302 Q424.317 18.6515 426.921 18.6515 Q433.952 18.6515 437.424 22.2973 Q440.896 25.9431 440.896 33.3505 Z" fill="#adb2b7" fill-rule="nonzero" fill-opacity="1" /><path clip-path="url(#clip260)" d="M451.863 6.81709 L457.187 6.81709 L457.187 51.84 L451.863 51.84 L451.863 6.81709 Z" fill="#adb2b7" fill-rule="nonzero" fill-opacity="1" /><path clip-path="url(#clip260)" d="M505.942 24.4096 Q505.045 23.8888 503.975 23.6573 Q502.933 23.3969 501.66 23.3969 Q497.146 23.3969 494.716 26.3482 Q492.314 29.2707 492.314 34.7683 L492.314 51.84 L486.961 51.84 L486.961 19.4328 L492.314 19.4328 L492.314 24.4675 Q493.992 21.5161 496.683 20.0983 Q499.374 18.6515 503.223 18.6515 Q503.772 18.6515 504.438 18.7383 Q505.103 18.7962 505.913 18.9409 L505.942 24.4096 Z" fill="#adb2b7" fill-rule="nonzero" fill-opacity="1" /><path clip-path="url(#clip260)" d="M537.945 34.3054 L537.945 36.9095 L513.466 36.9095 Q513.813 42.4072 516.764 45.3007 Q519.744 48.1653 525.04 48.1653 Q528.107 48.1653 530.971 47.4129 Q533.865 46.6606 536.7 45.156 L536.7 50.1907 Q533.836 51.406 530.827 52.0425 Q527.817 52.6791 524.721 52.6791 Q516.967 52.6791 512.424 48.1653 Q507.91 43.6514 507.91 35.9547 Q507.91 27.9975 512.192 23.339 Q516.504 18.6515 523.795 18.6515 Q530.335 18.6515 534.125 22.876 Q537.945 27.0716 537.945 34.3054 M532.621 32.7429 Q532.563 28.3737 530.161 25.7695 Q527.788 23.1654 523.853 23.1654 Q519.397 23.1654 516.706 25.6827 Q514.044 28.2001 513.639 32.7718 L532.621 32.7429 Z" fill="#adb2b7" fill-rule="nonzero" fill-opacity="1" /><path clip-path="url(#clip260)" d="M551.949 10.2314 L551.949 19.4328 L562.916 19.4328 L562.916 23.5705 L551.949 23.5705 L551.949 41.163 Q551.949 45.1271 553.02 46.2555 Q554.119 47.384 557.447 47.384 L562.916 47.384 L562.916 51.84 L557.447 51.84 Q551.284 51.84 548.94 49.5541 Q546.596 47.2393 546.596 41.163 L546.596 23.5705 L542.69 23.5705 L542.69 19.4328 L546.596 19.4328 L546.596 10.2314 L551.949 10.2314 Z" fill="#adb2b7" fill-rule="nonzero" fill-opacity="1" /><path clip-path="url(#clip260)" d="M569.368 39.0507 L569.368 19.4328 L574.692 19.4328 L574.692 38.8482 Q574.692 43.4488 576.486 45.7636 Q578.28 48.0495 581.868 48.0495 Q586.179 48.0495 588.668 45.3007 Q591.185 42.5519 591.185 37.8065 L591.185 19.4328 L596.509 19.4328 L596.509 51.84 L591.185 51.84 L591.185 46.8632 Q589.246 49.8145 586.671 51.2613 Q584.125 52.6791 580.739 52.6791 Q575.155 52.6791 572.262 49.2069 Q569.368 45.7347 569.368 39.0507 M582.765 18.6515 L582.765 18.6515 Z" fill="#adb2b7" fill-rule="nonzero" fill-opacity="1" /><path clip-path="url(#clip260)" d="M626.254 24.4096 Q625.357 23.8888 624.287 23.6573 Q623.245 23.3969 621.972 23.3969 Q617.458 23.3969 615.027 26.3482 Q612.626 29.2707 612.626 34.7683 L612.626 51.84 L607.273 51.84 L607.273 19.4328 L612.626 19.4328 L612.626 24.4675 Q614.304 21.5161 616.995 20.0983 Q619.686 18.6515 623.534 18.6515 Q624.084 18.6515 624.75 18.7383 Q625.415 18.7962 626.225 18.9409 L626.254 24.4096 Z" fill="#adb2b7" fill-rule="nonzero" fill-opacity="1" /><path clip-path="url(#clip260)" d="M657.736 32.2799 L657.736 51.84 L652.412 51.84 L652.412 32.4535 Q652.412 27.8529 650.618 25.567 Q648.824 23.2811 645.236 23.2811 Q640.924 23.2811 638.436 26.03 Q635.948 28.7788 635.948 33.5241 L635.948 51.84 L630.595 51.84 L630.595 19.4328 L635.948 19.4328 L635.948 24.4675 Q637.857 21.545 640.432 20.0983 Q643.037 18.6515 646.422 18.6515 Q652.006 18.6515 654.871 22.1237 Q657.736 25.567 657.736 32.2799 Z" fill="#adb2b7" fill-rule="nonzero" fill-opacity="1" /><path clip-path="url(#clip260)" d="M689.014 20.3876 L689.014 25.4223 Q686.757 24.2649 684.327 23.6862 Q681.896 23.1075 679.292 23.1075 Q675.328 23.1075 673.332 24.3228 Q671.364 25.5381 671.364 27.9686 Q671.364 29.8204 672.782 30.891 Q674.2 31.9327 678.482 32.8876 L680.305 33.2926 Q685.976 34.5079 688.349 36.7359 Q690.75 38.935 690.75 42.8991 Q690.75 47.4129 687.163 50.046 Q683.604 52.6791 677.354 52.6791 Q674.749 52.6791 671.914 52.1583 Q669.107 51.6664 665.982 50.6537 L665.982 45.156 Q668.933 46.6896 671.798 47.4708 Q674.663 48.2231 677.469 48.2231 Q681.231 48.2231 683.256 46.95 Q685.282 45.6479 685.282 43.3042 Q685.282 41.134 683.806 39.9766 Q682.359 38.8192 677.411 37.7486 L675.56 37.3146 Q670.612 36.273 668.413 34.1318 Q666.214 31.9616 666.214 28.2001 Q666.214 23.6283 669.454 21.1399 Q672.695 18.6515 678.656 18.6515 Q681.607 18.6515 684.211 19.0855 Q686.815 19.5196 689.014 20.3876 Z" fill="#adb2b7" fill-rule="nonzero" fill-opacity="1" /><path clip-path="url(#clip260)" d="M741.329 35.6653 Q741.329 29.7915 738.898 26.464 Q736.497 23.1075 732.272 23.1075 Q728.048 23.1075 725.617 26.464 Q723.216 29.7915 723.216 35.6653 Q723.216 41.5391 725.617 44.8956 Q728.048 48.2231 732.272 48.2231 Q736.497 48.2231 738.898 44.8956 Q741.329 41.5391 741.329 35.6653 M723.216 24.3517 Q724.894 21.4582 727.44 20.0693 Q730.015 18.6515 733.574 18.6515 Q739.477 18.6515 743.152 23.339 Q746.855 28.0265 746.855 35.6653 Q746.855 43.3042 743.152 47.9916 Q739.477 52.6791 733.574 52.6791 Q730.015 52.6791 727.44 51.2902 Q724.894 49.8724 723.216 46.9789 L723.216 51.84 L717.863 51.84 L717.863 6.81709 L723.216 6.81709 L723.216 24.3517 Z" fill="#adb2b7" fill-rule="nonzero" fill-opacity="1" /><path clip-path="url(#clip260)" d="M769.164 54.8492 Q766.907 60.6362 764.766 62.4013 Q762.625 64.1663 759.037 64.1663 L754.784 64.1663 L754.784 59.7103 L757.909 59.7103 Q760.108 59.7103 761.323 58.6687 Q762.538 57.627 764.014 53.7497 L764.969 51.3192 L751.861 19.4328 L757.504 19.4328 L767.631 44.7799 L777.758 19.4328 L783.4 19.4328 L769.164 54.8492 Z" fill="#adb2b7" fill-rule="nonzero" fill-opacity="1" /><path clip-path="url(#clip260)" d="M806.491 19.4328 L811.815 19.4328 L818.47 44.722 L825.096 19.4328 L831.375 19.4328 L838.03 44.722 L844.656 19.4328 L849.98 19.4328 L841.502 51.84 L835.223 51.84 L828.25 25.2776 L821.247 51.84 L814.969 51.84 L806.491 19.4328 Z" fill="#adb2b7" fill-rule="nonzero" fill-opacity="1" /><path clip-path="url(#clip260)" d="M885.773 34.3054 L885.773 36.9095 L861.294 36.9095 Q861.641 42.4072 864.592 45.3007 Q867.572 48.1653 872.868 48.1653 Q875.935 48.1653 878.799 47.4129 Q881.693 46.6606 884.528 45.156 L884.528 50.1907 Q881.664 51.406 878.655 52.0425 Q875.645 52.6791 872.549 52.6791 Q864.795 52.6791 860.252 48.1653 Q855.738 43.6514 855.738 35.9547 Q855.738 27.9975 860.02 23.339 Q864.332 18.6515 871.623 18.6515 Q878.163 18.6515 881.953 22.876 Q885.773 27.0716 885.773 34.3054 M880.449 32.7429 Q880.391 28.3737 877.989 25.7695 Q875.616 23.1654 871.681 23.1654 Q867.225 23.1654 864.534 25.6827 Q861.872 28.2001 861.467 32.7718 L880.449 32.7429 Z" fill="#adb2b7" fill-rule="nonzero" fill-opacity="1" /><path clip-path="url(#clip260)" d="M922.231 34.3054 L922.231 36.9095 L897.752 36.9095 Q898.099 42.4072 901.05 45.3007 Q904.031 48.1653 909.326 48.1653 Q912.393 48.1653 915.257 47.4129 Q918.151 46.6606 920.986 45.156 L920.986 50.1907 Q918.122 51.406 915.113 52.0425 Q912.103 52.6791 909.007 52.6791 Q901.253 52.6791 896.71 48.1653 Q892.196 43.6514 892.196 35.9547 Q892.196 27.9975 896.479 23.339 Q900.79 18.6515 908.081 18.6515 Q914.621 18.6515 918.411 22.876 Q922.231 27.0716 922.231 34.3054 M916.907 32.7429 Q916.849 28.3737 914.447 25.7695 Q912.075 23.1654 908.139 23.1654 Q903.683 23.1654 900.992 25.6827 Q898.33 28.2001 897.925 32.7718 L916.907 32.7429 Z" fill="#adb2b7" fill-rule="nonzero" fill-opacity="1" /><path clip-path="url(#clip260)" d="M930.767 6.81709 L936.12 6.81709 L936.12 33.4084 L952.005 19.4328 L958.805 19.4328 L941.617 34.5947 L959.528 51.84 L952.584 51.84 L936.12 36.0125 L936.12 51.84 L930.767 51.84 L930.767 6.81709 Z" fill="#adb2b7" fill-rule="nonzero" fill-opacity="1" /><path clip-path="url(#clip260)" d="M986.611 24.3517 L986.611 6.81709 L991.935 6.81709 L991.935 51.84 L986.611 51.84 L986.611 46.9789 Q984.933 49.8724 982.358 51.2902 Q979.811 52.6791 976.223 52.6791 Q970.35 52.6791 966.646 47.9916 Q962.971 43.3042 962.971 35.6653 Q962.971 28.0265 966.646 23.339 Q970.35 18.6515 976.223 18.6515 Q979.811 18.6515 982.358 20.0693 Q984.933 21.4582 986.611 24.3517 M968.469 35.6653 Q968.469 41.5391 970.87 44.8956 Q973.301 48.2231 977.526 48.2231 Q981.75 48.2231 984.181 44.8956 Q986.611 41.5391 986.611 35.6653 Q986.611 29.7915 984.181 26.464 Q981.75 23.1075 977.526 23.1075 Q973.301 23.1075 970.87 26.464 Q968.469 29.7915 968.469 35.6653 Z" fill="#adb2b7" fill-rule="nonzero" fill-opacity="1" /><path clip-path="url(#clip260)" d="M1017.63 35.5496 Q1011.18 35.5496 1008.69 37.0253 Q1006.2 38.501 1006.2 42.06 Q1006.2 44.8956 1008.05 46.5738 Q1009.93 48.2231 1013.14 48.2231 Q1017.57 48.2231 1020.23 45.0981 Q1022.92 41.9442 1022.92 36.7359 L1022.92 35.5496 L1017.63 35.5496 M1028.25 33.3505 L1028.25 51.84 L1022.92 51.84 L1022.92 46.921 Q1021.1 49.8724 1018.38 51.2902 Q1015.66 52.6791 1011.73 52.6791 Q1006.75 52.6791 1003.8 49.9014 Q1000.88 47.0947 1000.88 42.4072 Q1000.88 36.9385 1004.52 34.1607 Q1008.2 31.3829 1015.46 31.3829 L1022.92 31.3829 L1022.92 30.8621 Q1022.92 27.1874 1020.49 25.1908 Q1018.09 23.1654 1013.72 23.1654 Q1010.95 23.1654 1008.31 23.8309 Q1005.68 24.4964 1003.25 25.8274 L1003.25 20.9085 Q1006.17 19.78 1008.92 19.2302 Q1011.67 18.6515 1014.27 18.6515 Q1021.3 18.6515 1024.78 22.2973 Q1028.25 25.9431 1028.25 33.3505 Z" fill="#adb2b7" fill-rule="nonzero" fill-opacity="1" /><path clip-path="url(#clip260)" d="M1052.7 54.8492 Q1050.44 60.6362 1048.3 62.4013 Q1046.16 64.1663 1042.57 64.1663 L1038.32 64.1663 L1038.32 59.7103 L1041.44 59.7103 Q1043.64 59.7103 1044.86 58.6687 Q1046.07 57.627 1047.55 53.7497 L1048.5 51.3192 L1035.4 19.4328 L1041.04 19.4328 L1051.17 44.7799 L1061.29 19.4328 L1066.93 19.4328 L1052.7 54.8492 Z" fill="#adb2b7" fill-rule="nonzero" fill-opacity="1" /><path clip-path="url(#clip260)" d="M294.427 1440.44 L604.834 1440.44 L604.834 1129.4 L294.427 1129.4  Z" fill="#282c34" fill-rule="evenodd" fill-opacity="1"/>
<polyline clip-path="url(#clip260)" style="stroke:#000000; stroke-linecap:round; stroke-linejoin:round; stroke-width:4; stroke-opacity:0; fill:none" points="294.427,1440.44 604.834,1440.44 604.834,1129.4 294.427,1129.4 294.427,1440.44 "/>
<polyline clip-path="url(#clip260)" style="stroke:#fe4365; stroke-linecap:round; stroke-linejoin:round; stroke-width:4; stroke-opacity:1; fill:none" points="318.086,1181.24 460.039,1181.24 "/>
<path clip-path="url(#clip260)" d="M483.698 1163.96 L490.666 1163.96 L499.485 1187.48 L508.351 1163.96 L515.318 1163.96 L515.318 1198.52 L510.758 1198.52 L510.758 1168.17 L501.846 1191.88 L497.147 1191.88 L488.235 1168.17 L488.235 1198.52 L483.698 1198.52 L483.698 1163.96 Z" fill="#adb2b7" fill-rule="nonzero" fill-opacity="1" /><path clip-path="url(#clip260)" d="M534.462 1175.58 Q531.036 1175.58 529.045 1178.26 Q527.055 1180.93 527.055 1185.58 Q527.055 1190.23 529.022 1192.92 Q531.013 1195.58 534.462 1195.58 Q537.865 1195.58 539.855 1192.89 Q541.846 1190.21 541.846 1185.58 Q541.846 1180.97 539.855 1178.29 Q537.865 1175.58 534.462 1175.58 M534.462 1171.97 Q540.017 1171.97 543.189 1175.58 Q546.36 1179.19 546.36 1185.58 Q546.36 1191.95 543.189 1195.58 Q540.017 1199.19 534.462 1199.19 Q528.883 1199.19 525.712 1195.58 Q522.564 1191.95 522.564 1185.58 Q522.564 1179.19 525.712 1175.58 Q528.883 1171.97 534.462 1171.97 Z" fill="#adb2b7" fill-rule="nonzero" fill-opacity="1" /><path clip-path="url(#clip260)" d="M574.971 1182.87 L574.971 1198.52 L570.712 1198.52 L570.712 1183.01 Q570.712 1179.33 569.277 1177.5 Q567.841 1175.67 564.971 1175.67 Q561.522 1175.67 559.531 1177.87 Q557.54 1180.07 557.54 1183.87 L557.54 1198.52 L553.258 1198.52 L553.258 1172.59 L557.54 1172.59 L557.54 1176.62 Q559.068 1174.28 561.128 1173.13 Q563.212 1171.97 565.92 1171.97 Q570.388 1171.97 572.679 1174.75 Q574.971 1177.5 574.971 1182.87 Z" fill="#adb2b7" fill-rule="nonzero" fill-opacity="1" /><polyline clip-path="url(#clip260)" style="stroke:#eca25c; stroke-linecap:round; stroke-linejoin:round; stroke-width:4; stroke-opacity:1; fill:none" points="318.086,1233.08 460.039,1233.08 "/>
<path clip-path="url(#clip260)" d="M483.698 1215.8 L512.934 1215.8 L512.934 1219.73 L500.666 1219.73 L500.666 1250.36 L495.967 1250.36 L495.967 1219.73 L483.698 1219.73 L483.698 1215.8 Z" fill="#adb2b7" fill-rule="nonzero" fill-opacity="1" /><path clip-path="url(#clip260)" d="M509.624 1240.13 L509.624 1224.43 L513.883 1224.43 L513.883 1239.97 Q513.883 1243.65 515.318 1245.5 Q516.754 1247.33 519.624 1247.33 Q523.073 1247.33 525.064 1245.13 Q527.078 1242.93 527.078 1239.13 L527.078 1224.43 L531.337 1224.43 L531.337 1250.36 L527.078 1250.36 L527.078 1246.38 Q525.527 1248.74 523.467 1249.9 Q521.43 1251.03 518.721 1251.03 Q514.254 1251.03 511.939 1248.25 Q509.624 1245.48 509.624 1240.13 M520.342 1223.81 L520.342 1223.81 Z" fill="#adb2b7" fill-rule="nonzero" fill-opacity="1" /><path clip-path="url(#clip260)" d="M562.286 1236.33 L562.286 1238.41 L542.703 1238.41 Q542.98 1242.81 545.341 1245.13 Q547.726 1247.42 551.962 1247.42 Q554.415 1247.42 556.707 1246.82 Q559.022 1246.22 561.29 1245.01 L561.29 1249.04 Q558.999 1250.01 556.591 1250.52 Q554.184 1251.03 551.707 1251.03 Q545.503 1251.03 541.869 1247.42 Q538.258 1243.81 538.258 1237.65 Q538.258 1231.29 541.684 1227.56 Q545.133 1223.81 550.966 1223.81 Q556.198 1223.81 559.23 1227.19 Q562.286 1230.54 562.286 1236.33 M558.027 1235.08 Q557.98 1231.59 556.059 1229.5 Q554.161 1227.42 551.013 1227.42 Q547.448 1227.42 545.295 1229.43 Q543.166 1231.45 542.841 1235.1 L558.027 1235.08 Z" fill="#adb2b7" fill-rule="nonzero" fill-opacity="1" /><polyline clip-path="url(#clip260)" style="stroke:#3f9778; stroke-linecap:round; stroke-linejoin:round; stroke-width:4; stroke-opacity:1; fill:none" points="318.086,1284.92 460.039,1284.92 "/>
<path clip-path="url(#clip260)" d="M483.698 1267.64 L488.42 1267.64 L495.689 1296.85 L502.934 1267.64 L508.189 1267.64 L515.457 1296.85 L522.703 1267.64 L527.448 1267.64 L518.768 1302.2 L512.888 1302.2 L505.596 1272.2 L498.235 1302.2 L492.356 1302.2 L483.698 1267.64 Z" fill="#adb2b7" fill-rule="nonzero" fill-opacity="1" /><path clip-path="url(#clip260)" d="M552.865 1288.17 L552.865 1290.25 L533.281 1290.25 Q533.559 1294.65 535.92 1296.97 Q538.304 1299.26 542.541 1299.26 Q544.994 1299.26 547.286 1298.66 Q549.601 1298.06 551.869 1296.85 L551.869 1300.88 Q549.578 1301.85 547.17 1302.36 Q544.763 1302.87 542.286 1302.87 Q536.082 1302.87 532.448 1299.26 Q528.837 1295.65 528.837 1289.49 Q528.837 1283.13 532.263 1279.4 Q535.712 1275.65 541.545 1275.65 Q546.777 1275.65 549.809 1279.03 Q552.865 1282.38 552.865 1288.17 M548.605 1286.92 Q548.559 1283.43 546.638 1281.34 Q544.74 1279.26 541.591 1279.26 Q538.027 1279.26 535.874 1281.27 Q533.744 1283.29 533.42 1286.94 L548.605 1286.92 Z" fill="#adb2b7" fill-rule="nonzero" fill-opacity="1" /><path clip-path="url(#clip260)" d="M576.915 1280.21 L576.915 1266.18 L581.175 1266.18 L581.175 1302.2 L576.915 1302.2 L576.915 1298.31 Q575.573 1300.63 573.513 1301.76 Q571.476 1302.87 568.605 1302.87 Q563.906 1302.87 560.943 1299.12 Q558.003 1295.37 558.003 1289.26 Q558.003 1283.15 560.943 1279.4 Q563.906 1275.65 568.605 1275.65 Q571.476 1275.65 573.513 1276.78 Q575.573 1277.89 576.915 1280.21 M562.402 1289.26 Q562.402 1293.96 564.323 1296.64 Q566.267 1299.31 569.647 1299.31 Q573.026 1299.31 574.971 1296.64 Q576.915 1293.96 576.915 1289.26 Q576.915 1284.56 574.971 1281.9 Q573.026 1279.21 569.647 1279.21 Q566.267 1279.21 564.323 1281.9 Q562.402 1284.56 562.402 1289.26 Z" fill="#adb2b7" fill-rule="nonzero" fill-opacity="1" /><polyline clip-path="url(#clip260)" style="stroke:#005d7f; stroke-linecap:round; stroke-linejoin:round; stroke-width:4; stroke-opacity:1; fill:none" points="318.086,1336.76 460.039,1336.76 "/>
<path clip-path="url(#clip260)" d="M483.698 1319.48 L512.934 1319.48 L512.934 1323.41 L500.666 1323.41 L500.666 1354.04 L495.967 1354.04 L495.967 1323.41 L483.698 1323.41 L483.698 1319.48 Z" fill="#adb2b7" fill-rule="nonzero" fill-opacity="1" /><path clip-path="url(#clip260)" d="M538.814 1338.39 L538.814 1354.04 L534.554 1354.04 L534.554 1338.53 Q534.554 1334.85 533.119 1333.02 Q531.684 1331.19 528.814 1331.19 Q525.365 1331.19 523.374 1333.39 Q521.383 1335.59 521.383 1339.39 L521.383 1354.04 L517.101 1354.04 L517.101 1318.02 L521.383 1318.02 L521.383 1332.14 Q522.911 1329.8 524.971 1328.65 Q527.055 1327.49 529.763 1327.49 Q534.23 1327.49 536.522 1330.27 Q538.814 1333.02 538.814 1338.39 Z" fill="#adb2b7" fill-rule="nonzero" fill-opacity="1" /><path clip-path="url(#clip260)" d="M546.869 1343.81 L546.869 1328.11 L551.128 1328.11 L551.128 1343.65 Q551.128 1347.33 552.564 1349.18 Q553.999 1351.01 556.869 1351.01 Q560.318 1351.01 562.309 1348.81 Q564.323 1346.61 564.323 1342.81 L564.323 1328.11 L568.582 1328.11 L568.582 1354.04 L564.323 1354.04 L564.323 1350.06 Q562.772 1352.42 560.712 1353.58 Q558.675 1354.71 555.966 1354.71 Q551.499 1354.71 549.184 1351.93 Q546.869 1349.16 546.869 1343.81 M557.587 1327.49 L557.587 1327.49 Z" fill="#adb2b7" fill-rule="nonzero" fill-opacity="1" /><polyline clip-path="url(#clip260)" style="stroke:#00a8ff; stroke-linecap:round; stroke-linejoin:round; stroke-width:4; stroke-opacity:1; fill:none" points="318.086,1388.6 460.039,1388.6 "/>
<path clip-path="url(#clip260)" d="M483.698 1371.32 L503.559 1371.32 L503.559 1375.25 L488.374 1375.25 L488.374 1385.44 L502.078 1385.44 L502.078 1389.37 L488.374 1389.37 L488.374 1405.88 L483.698 1405.88 L483.698 1371.32 Z" fill="#adb2b7" fill-rule="nonzero" fill-opacity="1" /><path clip-path="url(#clip260)" d="M522.355 1383.94 Q521.638 1383.52 520.781 1383.33 Q519.948 1383.12 518.93 1383.12 Q515.318 1383.12 513.374 1385.49 Q511.453 1387.82 511.453 1392.22 L511.453 1405.88 L507.17 1405.88 L507.17 1379.95 L511.453 1379.95 L511.453 1383.98 Q512.795 1381.62 514.948 1380.49 Q517.101 1379.33 520.18 1379.33 Q520.619 1379.33 521.152 1379.4 Q521.684 1379.44 522.332 1379.56 L522.355 1383.94 Z" fill="#adb2b7" fill-rule="nonzero" fill-opacity="1" /><path clip-path="url(#clip260)" d="M526.823 1379.95 L531.082 1379.95 L531.082 1405.88 L526.823 1405.88 L526.823 1379.95 M526.823 1369.86 L531.082 1369.86 L531.082 1375.25 L526.823 1375.25 L526.823 1369.86 Z" fill="#adb2b7" fill-rule="nonzero" fill-opacity="1" /><path clip-path="url(#clip260)" d="M2292.49 1430.1 L2299.46 1430.1 L2308.28 1453.62 L2317.15 1430.1 L2324.11 1430.1 L2324.11 1464.66 L2319.55 1464.66 L2319.55 1434.32 L2310.64 1458.02 L2305.94 1458.02 L2297.03 1434.32 L2297.03 1464.66 L2292.49 1464.66 L2292.49 1430.1 Z" fill="#000000" fill-rule="nonzero" fill-opacity="1" /><path clip-path="url(#clip260)" d="M2343.26 1441.72 Q2339.83 1441.72 2337.84 1444.41 Q2335.85 1447.07 2335.85 1451.72 Q2335.85 1456.38 2337.82 1459.06 Q2339.81 1461.72 2343.26 1461.72 Q2346.66 1461.72 2348.65 1459.04 Q2350.64 1456.35 2350.64 1451.72 Q2350.64 1447.12 2348.65 1444.43 Q2346.66 1441.72 2343.26 1441.72 M2343.26 1438.11 Q2348.81 1438.11 2351.98 1441.72 Q2355.15 1445.34 2355.15 1451.72 Q2355.15 1458.09 2351.98 1461.72 Q2348.81 1465.34 2343.26 1465.34 Q2337.68 1465.34 2334.51 1461.72 Q2331.36 1458.09 2331.36 1451.72 Q2331.36 1445.34 2334.51 1441.72 Q2337.68 1438.11 2343.26 1438.11 Z" fill="#000000" fill-rule="nonzero" fill-opacity="1" /><path clip-path="url(#clip260)" d="M2383.77 1449.02 L2383.77 1464.66 L2379.51 1464.66 L2379.51 1449.15 Q2379.51 1445.47 2378.07 1443.65 Q2376.64 1441.82 2373.77 1441.82 Q2370.32 1441.82 2368.33 1444.02 Q2366.33 1446.22 2366.33 1450.01 L2366.33 1464.66 L2362.05 1464.66 L2362.05 1438.74 L2366.33 1438.74 L2366.33 1442.77 Q2367.86 1440.43 2369.92 1439.27 Q2372.01 1438.11 2374.71 1438.11 Q2379.18 1438.11 2381.47 1440.89 Q2383.77 1443.65 2383.77 1449.02 Z" fill="#000000" fill-rule="nonzero" fill-opacity="1" /><path clip-path="url(#clip260)" d="M2292.49 127.976 L2321.73 127.976 L2321.73 131.911 L2309.46 131.911 L2309.46 162.536 L2304.76 162.536 L2304.76 131.911 L2292.49 131.911 L2292.49 127.976 Z" fill="#000000" fill-rule="nonzero" fill-opacity="1" /><path clip-path="url(#clip260)" d="M2318.42 152.305 L2318.42 136.61 L2322.68 136.61 L2322.68 152.143 Q2322.68 155.823 2324.11 157.675 Q2325.55 159.504 2328.42 159.504 Q2331.87 159.504 2333.86 157.305 Q2335.87 155.105 2335.87 151.309 L2335.87 136.61 L2340.13 136.61 L2340.13 162.536 L2335.87 162.536 L2335.87 158.555 Q2334.32 160.916 2332.26 162.073 Q2330.22 163.207 2327.52 163.207 Q2323.05 163.207 2320.73 160.429 Q2318.42 157.652 2318.42 152.305 M2329.14 135.985 L2329.14 135.985 Z" fill="#000000" fill-rule="nonzero" fill-opacity="1" /><path clip-path="url(#clip260)" d="M2371.08 148.508 L2371.08 150.592 L2351.5 150.592 Q2351.77 154.99 2354.14 157.305 Q2356.52 159.596 2360.76 159.596 Q2363.21 159.596 2365.5 158.994 Q2367.82 158.392 2370.08 157.189 L2370.08 161.217 Q2367.79 162.189 2365.39 162.698 Q2362.98 163.207 2360.5 163.207 Q2354.3 163.207 2350.66 159.596 Q2347.05 155.985 2347.05 149.828 Q2347.05 143.462 2350.48 139.735 Q2353.93 135.985 2359.76 135.985 Q2364.99 135.985 2368.02 139.365 Q2371.08 142.721 2371.08 148.508 M2366.82 147.258 Q2366.77 143.763 2364.85 141.68 Q2362.96 139.596 2359.81 139.596 Q2356.24 139.596 2354.09 141.61 Q2351.96 143.624 2351.64 147.281 L2366.82 147.258 Z" fill="#000000" fill-rule="nonzero" fill-opacity="1" /><path clip-path="url(#clip260)" d="M2292.49 412.349 L2297.21 412.349 L2304.48 441.561 L2311.73 412.349 L2316.98 412.349 L2324.25 441.561 L2331.5 412.349 L2336.24 412.349 L2327.56 446.909 L2321.68 446.909 L2314.39 416.909 L2307.03 446.909 L2301.15 446.909 L2292.49 412.349 Z" fill="#000000" fill-rule="nonzero" fill-opacity="1" /><path clip-path="url(#clip260)" d="M2361.66 432.881 L2361.66 434.964 L2342.08 434.964 Q2342.35 439.362 2344.71 441.677 Q2347.1 443.969 2351.33 443.969 Q2353.79 443.969 2356.08 443.367 Q2358.39 442.765 2360.66 441.561 L2360.66 445.589 Q2358.37 446.561 2355.96 447.071 Q2353.56 447.58 2351.08 447.58 Q2344.88 447.58 2341.24 443.969 Q2337.63 440.358 2337.63 434.2 Q2337.63 427.835 2341.06 424.108 Q2344.51 420.358 2350.34 420.358 Q2355.57 420.358 2358.6 423.737 Q2361.66 427.094 2361.66 432.881 M2357.4 431.631 Q2357.35 428.136 2355.43 426.052 Q2353.53 423.969 2350.39 423.969 Q2346.82 423.969 2344.67 425.983 Q2342.54 427.997 2342.21 431.654 L2357.4 431.631 Z" fill="#000000" fill-rule="nonzero" fill-opacity="1" /><path clip-path="url(#clip260)" d="M2385.71 424.918 L2385.71 410.89 L2389.97 410.89 L2389.97 446.909 L2385.71 446.909 L2385.71 443.02 Q2384.37 445.334 2382.31 446.469 Q2380.27 447.58 2377.4 447.58 Q2372.7 447.58 2369.74 443.83 Q2366.8 440.08 2366.8 433.969 Q2366.8 427.858 2369.74 424.108 Q2372.7 420.358 2377.4 420.358 Q2380.27 420.358 2382.31 421.492 Q2384.37 422.603 2385.71 424.918 M2371.2 433.969 Q2371.2 438.668 2373.12 441.353 Q2375.06 444.015 2378.44 444.015 Q2381.82 444.015 2383.77 441.353 Q2385.71 438.668 2385.71 433.969 Q2385.71 429.27 2383.77 426.608 Q2381.82 423.923 2378.44 423.923 Q2375.06 423.923 2373.12 426.608 Q2371.2 429.27 2371.2 433.969 Z" fill="#000000" fill-rule="nonzero" fill-opacity="1" /><path clip-path="url(#clip260)" d="M2292.49 1158.18 L2321.73 1158.18 L2321.73 1162.11 L2309.46 1162.11 L2309.46 1192.74 L2304.76 1192.74 L2304.76 1162.11 L2292.49 1162.11 L2292.49 1158.18 Z" fill="#000000" fill-rule="nonzero" fill-opacity="1" /><path clip-path="url(#clip260)" d="M2347.61 1177.09 L2347.61 1192.74 L2343.35 1192.74 L2343.35 1177.23 Q2343.35 1173.55 2341.91 1171.72 Q2340.48 1169.89 2337.61 1169.89 Q2334.16 1169.89 2332.17 1172.09 Q2330.18 1174.29 2330.18 1178.08 L2330.18 1192.74 L2325.9 1192.74 L2325.9 1156.72 L2330.18 1156.72 L2330.18 1170.84 Q2331.71 1168.5 2333.77 1167.34 Q2335.85 1166.19 2338.56 1166.19 Q2343.02 1166.19 2345.32 1168.96 Q2347.61 1171.72 2347.61 1177.09 Z" fill="#000000" fill-rule="nonzero" fill-opacity="1" /><path clip-path="url(#clip260)" d="M2355.66 1182.5 L2355.66 1166.81 L2359.92 1166.81 L2359.92 1182.34 Q2359.92 1186.02 2361.36 1187.88 Q2362.79 1189.7 2365.66 1189.7 Q2369.11 1189.7 2371.1 1187.5 Q2373.12 1185.31 2373.12 1181.51 L2373.12 1166.81 L2377.38 1166.81 L2377.38 1192.74 L2373.12 1192.74 L2373.12 1188.75 Q2371.57 1191.12 2369.51 1192.27 Q2367.47 1193.41 2364.76 1193.41 Q2360.29 1193.41 2357.98 1190.63 Q2355.66 1187.85 2355.66 1182.5 M2366.38 1166.19 L2366.38 1166.19 Z" fill="#000000" fill-rule="nonzero" fill-opacity="1" /><path clip-path="url(#clip260)" d="M2292.49 693.892 L2312.35 693.892 L2312.35 697.827 L2297.17 697.827 L2297.17 708.012 L2310.87 708.012 L2310.87 711.947 L2297.17 711.947 L2297.17 728.452 L2292.49 728.452 L2292.49 693.892 Z" fill="#000000" fill-rule="nonzero" fill-opacity="1" /><path clip-path="url(#clip260)" d="M2331.15 706.507 Q2330.43 706.091 2329.58 705.905 Q2328.74 705.697 2327.72 705.697 Q2324.11 705.697 2322.17 708.058 Q2320.25 710.396 2320.25 714.794 L2320.25 728.452 L2315.96 728.452 L2315.96 702.526 L2320.25 702.526 L2320.25 706.554 Q2321.59 704.192 2323.74 703.058 Q2325.9 701.901 2328.97 701.901 Q2329.41 701.901 2329.95 701.97 Q2330.48 702.017 2331.13 702.132 L2331.15 706.507 Z" fill="#000000" fill-rule="nonzero" fill-opacity="1" /><path clip-path="url(#clip260)" d="M2335.62 702.526 L2339.88 702.526 L2339.88 728.452 L2335.62 728.452 L2335.62 702.526 M2335.62 692.433 L2339.88 692.433 L2339.88 697.827 L2335.62 697.827 L2335.62 692.433 Z" fill="#000000" fill-rule="nonzero" fill-opacity="1" /></svg>
