<?xml version="1.0" encoding="utf-8"?>
<svg xmlns="http://www.w3.org/2000/svg" xmlns:xlink="http://www.w3.org/1999/xlink" width="600" height="400" viewBox="0 0 2400 1600">
<defs>
  <clipPath id="clip220">
    <rect x="0" y="0" width="2400" height="1600"/>
  </clipPath>
</defs>
<path clip-path="url(#clip220)" d="M0 1600 L2400 1600 L2400 0 L0 0  Z" fill="#282c34" fill-rule="evenodd" fill-opacity="1"/>
<defs>
  <clipPath id="clip221">
    <rect x="186" y="106" width="2167" height="1381"/>
  </clipPath>
</defs>
<path clip-path="url(#clip220)" d="M186.274 1486.45 L2352.76 1486.45 L2352.76 106.192 L186.274 106.192  Z" fill="#21252b" fill-rule="evenodd" fill-opacity="1"/>
<polyline clip-path="url(#clip221)" style="stroke:#adb2b7; stroke-linecap:round; stroke-linejoin:round; stroke-width:2; stroke-opacity:0.1; fill:none" points="483.418,1486.45 483.418,106.192 "/>
<polyline clip-path="url(#clip221)" style="stroke:#adb2b7; stroke-linecap:round; stroke-linejoin:round; stroke-width:2; stroke-opacity:0.1; fill:none" points="876.467,1486.45 876.467,106.192 "/>
<polyline clip-path="url(#clip221)" style="stroke:#adb2b7; stroke-linecap:round; stroke-linejoin:round; stroke-width:2; stroke-opacity:0.1; fill:none" points="1269.51,1486.45 1269.51,106.192 "/>
<polyline clip-path="url(#clip221)" style="stroke:#adb2b7; stroke-linecap:round; stroke-linejoin:round; stroke-width:2; stroke-opacity:0.1; fill:none" points="1662.56,1486.45 1662.56,106.192 "/>
<polyline clip-path="url(#clip221)" style="stroke:#adb2b7; stroke-linecap:round; stroke-linejoin:round; stroke-width:2; stroke-opacity:0.1; fill:none" points="2055.61,1486.45 2055.61,106.192 "/>
<polyline clip-path="url(#clip221)" style="stroke:#adb2b7; stroke-linecap:round; stroke-linejoin:round; stroke-width:2; stroke-opacity:0.1; fill:none" points="186.274,1343.28 2352.76,1343.28 "/>
<polyline clip-path="url(#clip221)" style="stroke:#adb2b7; stroke-linecap:round; stroke-linejoin:round; stroke-width:2; stroke-opacity:0.1; fill:none" points="186.274,1090.02 2352.76,1090.02 "/>
<polyline clip-path="url(#clip221)" style="stroke:#adb2b7; stroke-linecap:round; stroke-linejoin:round; stroke-width:2; stroke-opacity:0.1; fill:none" points="186.274,836.752 2352.76,836.752 "/>
<polyline clip-path="url(#clip221)" style="stroke:#adb2b7; stroke-linecap:round; stroke-linejoin:round; stroke-width:2; stroke-opacity:0.1; fill:none" points="186.274,583.488 2352.76,583.488 "/>
<polyline clip-path="url(#clip221)" style="stroke:#adb2b7; stroke-linecap:round; stroke-linejoin:round; stroke-width:2; stroke-opacity:0.1; fill:none" points="186.274,330.224 2352.76,330.224 "/>
<polyline clip-path="url(#clip220)" style="stroke:#adb2b7; stroke-linecap:round; stroke-linejoin:round; stroke-width:4; stroke-opacity:1; fill:none" points="186.274,1486.45 2352.76,1486.45 "/>
<polyline clip-path="url(#clip220)" style="stroke:#adb2b7; stroke-linecap:round; stroke-linejoin:round; stroke-width:4; stroke-opacity:1; fill:none" points="483.418,1486.45 483.418,1467.55 "/>
<polyline clip-path="url(#clip220)" style="stroke:#adb2b7; stroke-linecap:round; stroke-linejoin:round; stroke-width:4; stroke-opacity:1; fill:none" points="876.467,1486.45 876.467,1467.55 "/>
<polyline clip-path="url(#clip220)" style="stroke:#adb2b7; stroke-linecap:round; stroke-linejoin:round; stroke-width:4; stroke-opacity:1; fill:none" points="1269.51,1486.45 1269.51,1467.55 "/>
<polyline clip-path="url(#clip220)" style="stroke:#adb2b7; stroke-linecap:round; stroke-linejoin:round; stroke-width:4; stroke-opacity:1; fill:none" points="1662.56,1486.45 1662.56,1467.55 "/>
<polyline clip-path="url(#clip220)" style="stroke:#adb2b7; stroke-linecap:round; stroke-linejoin:round; stroke-width:4; stroke-opacity:1; fill:none" points="2055.61,1486.45 2055.61,1467.55 "/>
<path clip-path="url(#clip220)" d="M455.155 1544.91 L471.474 1544.91 L471.474 1548.85 L449.53 1548.85 L449.53 1544.91 Q452.192 1542.16 456.775 1537.53 Q461.382 1532.88 462.562 1531.53 Q464.807 1529.01 465.687 1527.27 Q466.59 1525.51 466.59 1523.82 Q466.59 1521.07 464.645 1519.33 Q462.724 1517.6 459.622 1517.6 Q457.423 1517.6 454.97 1518.36 Q452.539 1519.13 449.761 1520.68 L449.761 1515.95 Q452.585 1514.82 455.039 1514.24 Q457.493 1513.66 459.53 1513.66 Q464.9 1513.66 468.094 1516.35 Q471.289 1519.03 471.289 1523.52 Q471.289 1525.65 470.479 1527.57 Q469.692 1529.47 467.585 1532.07 Q467.007 1532.74 463.905 1535.95 Q460.803 1539.15 455.155 1544.91 Z" fill="#9eb1be" fill-rule="nonzero" fill-opacity="1" /><path clip-path="url(#clip220)" d="M481.289 1542.97 L486.173 1542.97 L486.173 1548.85 L481.289 1548.85 L481.289 1542.97 Z" fill="#9eb1be" fill-rule="nonzero" fill-opacity="1" /><path clip-path="url(#clip220)" d="M496.405 1514.29 L514.761 1514.29 L514.761 1518.22 L500.687 1518.22 L500.687 1526.7 Q501.705 1526.35 502.724 1526.19 Q503.742 1526 504.761 1526 Q510.548 1526 513.928 1529.17 Q517.307 1532.34 517.307 1537.76 Q517.307 1543.34 513.835 1546.44 Q510.363 1549.52 504.043 1549.52 Q501.867 1549.52 499.599 1549.15 Q497.354 1548.78 494.946 1548.04 L494.946 1543.34 Q497.03 1544.47 499.252 1545.03 Q501.474 1545.58 503.951 1545.58 Q507.955 1545.58 510.293 1543.48 Q512.631 1541.37 512.631 1537.76 Q512.631 1534.15 510.293 1532.04 Q507.955 1529.94 503.951 1529.94 Q502.076 1529.94 500.201 1530.35 Q498.349 1530.77 496.405 1531.65 L496.405 1514.29 Z" fill="#9eb1be" fill-rule="nonzero" fill-opacity="1" /><path clip-path="url(#clip220)" d="M843.631 1514.29 L861.988 1514.29 L861.988 1518.22 L847.914 1518.22 L847.914 1526.7 Q848.932 1526.35 849.951 1526.19 Q850.969 1526 851.988 1526 Q857.775 1526 861.154 1529.17 Q864.534 1532.34 864.534 1537.76 Q864.534 1543.34 861.062 1546.44 Q857.589 1549.52 851.27 1549.52 Q849.094 1549.52 846.826 1549.15 Q844.58 1548.78 842.173 1548.04 L842.173 1543.34 Q844.256 1544.47 846.478 1545.03 Q848.701 1545.58 851.177 1545.58 Q855.182 1545.58 857.52 1543.48 Q859.858 1541.37 859.858 1537.76 Q859.858 1534.15 857.52 1532.04 Q855.182 1529.94 851.177 1529.94 Q849.303 1529.94 847.428 1530.35 Q845.576 1530.77 843.631 1531.65 L843.631 1514.29 Z" fill="#9eb1be" fill-rule="nonzero" fill-opacity="1" /><path clip-path="url(#clip220)" d="M873.747 1542.97 L878.631 1542.97 L878.631 1548.85 L873.747 1548.85 L873.747 1542.97 Z" fill="#9eb1be" fill-rule="nonzero" fill-opacity="1" /><path clip-path="url(#clip220)" d="M898.816 1517.37 Q895.205 1517.37 893.376 1520.93 Q891.571 1524.47 891.571 1531.6 Q891.571 1538.71 893.376 1542.27 Q895.205 1545.82 898.816 1545.82 Q902.45 1545.82 904.256 1542.27 Q906.085 1538.71 906.085 1531.6 Q906.085 1524.47 904.256 1520.93 Q902.45 1517.37 898.816 1517.37 M898.816 1513.66 Q904.626 1513.66 907.682 1518.27 Q910.761 1522.85 910.761 1531.6 Q910.761 1540.33 907.682 1544.94 Q904.626 1549.52 898.816 1549.52 Q893.006 1549.52 889.927 1544.94 Q886.872 1540.33 886.872 1531.6 Q886.872 1522.85 889.927 1518.27 Q893.006 1513.66 898.816 1513.66 Z" fill="#9eb1be" fill-rule="nonzero" fill-opacity="1" /><path clip-path="url(#clip220)" d="M1235.83 1514.29 L1258.06 1514.29 L1258.06 1516.28 L1245.51 1548.85 L1240.63 1548.85 L1252.43 1518.22 L1235.83 1518.22 L1235.83 1514.29 Z" fill="#9eb1be" fill-rule="nonzero" fill-opacity="1" /><path clip-path="url(#clip220)" d="M1267.18 1542.97 L1272.06 1542.97 L1272.06 1548.85 L1267.18 1548.85 L1267.18 1542.97 Z" fill="#9eb1be" fill-rule="nonzero" fill-opacity="1" /><path clip-path="url(#clip220)" d="M1282.29 1514.29 L1300.65 1514.29 L1300.65 1518.22 L1286.58 1518.22 L1286.58 1526.7 Q1287.59 1526.35 1288.61 1526.19 Q1289.63 1526 1290.65 1526 Q1296.44 1526 1299.82 1529.17 Q1303.2 1532.34 1303.2 1537.76 Q1303.2 1543.34 1299.72 1546.44 Q1296.25 1549.52 1289.93 1549.52 Q1287.76 1549.52 1285.49 1549.15 Q1283.24 1548.78 1280.83 1548.04 L1280.83 1543.34 Q1282.92 1544.47 1285.14 1545.03 Q1287.36 1545.58 1289.84 1545.58 Q1293.84 1545.58 1296.18 1543.48 Q1298.52 1541.37 1298.52 1537.76 Q1298.52 1534.15 1296.18 1532.04 Q1293.84 1529.94 1289.84 1529.94 Q1287.96 1529.94 1286.09 1530.35 Q1284.24 1530.77 1282.29 1531.65 L1282.29 1514.29 Z" fill="#9eb1be" fill-rule="nonzero" fill-opacity="1" /><path clip-path="url(#clip220)" d="M1614.64 1544.91 L1622.27 1544.91 L1622.27 1518.55 L1613.96 1520.21 L1613.96 1515.95 L1622.23 1514.29 L1626.9 1514.29 L1626.9 1544.91 L1634.54 1544.91 L1634.54 1548.85 L1614.64 1548.85 L1614.64 1544.91 Z" fill="#9eb1be" fill-rule="nonzero" fill-opacity="1" /><path clip-path="url(#clip220)" d="M1653.99 1517.37 Q1650.38 1517.37 1648.55 1520.93 Q1646.74 1524.47 1646.74 1531.6 Q1646.74 1538.71 1648.55 1542.27 Q1650.38 1545.82 1653.99 1545.82 Q1657.62 1545.82 1659.43 1542.27 Q1661.26 1538.71 1661.26 1531.6 Q1661.26 1524.47 1659.43 1520.93 Q1657.62 1517.37 1653.99 1517.37 M1653.99 1513.66 Q1659.8 1513.66 1662.85 1518.27 Q1665.93 1522.85 1665.93 1531.6 Q1665.93 1540.33 1662.85 1544.94 Q1659.8 1549.52 1653.99 1549.52 Q1648.18 1549.52 1645.1 1544.94 Q1642.04 1540.33 1642.04 1531.6 Q1642.04 1522.85 1645.1 1518.27 Q1648.18 1513.66 1653.99 1513.66 Z" fill="#9eb1be" fill-rule="nonzero" fill-opacity="1" /><path clip-path="url(#clip220)" d="M1674.15 1542.97 L1679.03 1542.97 L1679.03 1548.85 L1674.15 1548.85 L1674.15 1542.97 Z" fill="#9eb1be" fill-rule="nonzero" fill-opacity="1" /><path clip-path="url(#clip220)" d="M1699.22 1517.37 Q1695.61 1517.37 1693.78 1520.93 Q1691.97 1524.47 1691.97 1531.6 Q1691.97 1538.71 1693.78 1542.27 Q1695.61 1545.82 1699.22 1545.82 Q1702.85 1545.82 1704.66 1542.27 Q1706.49 1538.71 1706.49 1531.6 Q1706.49 1524.47 1704.66 1520.93 Q1702.85 1517.37 1699.22 1517.37 M1699.22 1513.66 Q1705.03 1513.66 1708.08 1518.27 Q1711.16 1522.85 1711.16 1531.6 Q1711.16 1540.33 1708.08 1544.94 Q1705.03 1549.52 1699.22 1549.52 Q1693.41 1549.52 1690.33 1544.94 Q1687.27 1540.33 1687.27 1531.6 Q1687.27 1522.85 1690.33 1518.27 Q1693.41 1513.66 1699.22 1513.66 Z" fill="#9eb1be" fill-rule="nonzero" fill-opacity="1" /><path clip-path="url(#clip220)" d="M2008.18 1544.91 L2015.82 1544.91 L2015.82 1518.55 L2007.51 1520.21 L2007.51 1515.95 L2015.77 1514.29 L2020.45 1514.29 L2020.45 1544.91 L2028.09 1544.91 L2028.09 1548.85 L2008.18 1548.85 L2008.18 1544.91 Z" fill="#9eb1be" fill-rule="nonzero" fill-opacity="1" /><path clip-path="url(#clip220)" d="M2041.56 1544.91 L2057.88 1544.91 L2057.88 1548.85 L2035.94 1548.85 L2035.94 1544.91 Q2038.6 1542.16 2043.18 1537.53 Q2047.79 1532.88 2048.97 1531.53 Q2051.21 1529.01 2052.09 1527.27 Q2053 1525.51 2053 1523.82 Q2053 1521.07 2051.05 1519.33 Q2049.13 1517.6 2046.03 1517.6 Q2043.83 1517.6 2041.38 1518.36 Q2038.94 1519.13 2036.17 1520.68 L2036.17 1515.95 Q2038.99 1514.82 2041.44 1514.24 Q2043.9 1513.66 2045.94 1513.66 Q2051.31 1513.66 2054.5 1516.35 Q2057.69 1519.03 2057.69 1523.52 Q2057.69 1525.65 2056.88 1527.57 Q2056.1 1529.47 2053.99 1532.07 Q2053.41 1532.74 2050.31 1535.95 Q2047.21 1539.15 2041.56 1544.91 Z" fill="#9eb1be" fill-rule="nonzero" fill-opacity="1" /><path clip-path="url(#clip220)" d="M2067.69 1542.97 L2072.58 1542.97 L2072.58 1548.85 L2067.69 1548.85 L2067.69 1542.97 Z" fill="#9eb1be" fill-rule="nonzero" fill-opacity="1" /><path clip-path="url(#clip220)" d="M2082.81 1514.29 L2101.17 1514.29 L2101.17 1518.22 L2087.09 1518.22 L2087.09 1526.7 Q2088.11 1526.35 2089.13 1526.19 Q2090.15 1526 2091.17 1526 Q2096.95 1526 2100.33 1529.17 Q2103.71 1532.34 2103.71 1537.76 Q2103.71 1543.34 2100.24 1546.44 Q2096.77 1549.52 2090.45 1549.52 Q2088.27 1549.52 2086 1549.15 Q2083.76 1548.78 2081.35 1548.04 L2081.35 1543.34 Q2083.44 1544.47 2085.66 1545.03 Q2087.88 1545.58 2090.36 1545.58 Q2094.36 1545.58 2096.7 1543.48 Q2099.04 1541.37 2099.04 1537.76 Q2099.04 1534.15 2096.7 1532.04 Q2094.36 1529.94 2090.36 1529.94 Q2088.48 1529.94 2086.61 1530.35 Q2084.75 1530.77 2082.81 1531.65 L2082.81 1514.29 Z" fill="#9eb1be" fill-rule="nonzero" fill-opacity="1" /><polyline clip-path="url(#clip220)" style="stroke:#adb2b7; stroke-linecap:round; stroke-linejoin:round; stroke-width:4; stroke-opacity:1; fill:none" points="186.274,1486.45 186.274,106.192 "/>
<polyline clip-path="url(#clip220)" style="stroke:#adb2b7; stroke-linecap:round; stroke-linejoin:round; stroke-width:4; stroke-opacity:1; fill:none" points="186.274,1343.28 205.172,1343.28 "/>
<polyline clip-path="url(#clip220)" style="stroke:#adb2b7; stroke-linecap:round; stroke-linejoin:round; stroke-width:4; stroke-opacity:1; fill:none" points="186.274,1090.02 205.172,1090.02 "/>
<polyline clip-path="url(#clip220)" style="stroke:#adb2b7; stroke-linecap:round; stroke-linejoin:round; stroke-width:4; stroke-opacity:1; fill:none" points="186.274,836.752 205.172,836.752 "/>
<polyline clip-path="url(#clip220)" style="stroke:#adb2b7; stroke-linecap:round; stroke-linejoin:round; stroke-width:4; stroke-opacity:1; fill:none" points="186.274,583.488 205.172,583.488 "/>
<polyline clip-path="url(#clip220)" style="stroke:#adb2b7; stroke-linecap:round; stroke-linejoin:round; stroke-width:4; stroke-opacity:1; fill:none" points="186.274,330.224 205.172,330.224 "/>
<path clip-path="url(#clip220)" d="M62.9365 1329.08 Q59.3254 1329.08 57.4967 1332.64 Q55.6912 1336.19 55.6912 1343.32 Q55.6912 1350.42 57.4967 1353.99 Q59.3254 1357.53 62.9365 1357.53 Q66.5707 1357.53 68.3763 1353.99 Q70.205 1350.42 70.205 1343.32 Q70.205 1336.19 68.3763 1332.64 Q66.5707 1329.08 62.9365 1329.08 M62.9365 1325.38 Q68.7467 1325.38 71.8022 1329.98 Q74.8809 1334.57 74.8809 1343.32 Q74.8809 1352.04 71.8022 1356.65 Q68.7467 1361.23 62.9365 1361.23 Q57.1264 1361.23 54.0477 1356.65 Q50.9921 1352.04 50.9921 1343.32 Q50.9921 1334.57 54.0477 1329.98 Q57.1264 1325.38 62.9365 1325.38 Z" fill="#9eb1be" fill-rule="nonzero" fill-opacity="1" /><path clip-path="url(#clip220)" d="M83.0984 1354.68 L87.9827 1354.68 L87.9827 1360.56 L83.0984 1360.56 L83.0984 1354.68 Z" fill="#9eb1be" fill-rule="nonzero" fill-opacity="1" /><path clip-path="url(#clip220)" d="M108.168 1329.08 Q104.557 1329.08 102.728 1332.64 Q100.922 1336.19 100.922 1343.32 Q100.922 1350.42 102.728 1353.99 Q104.557 1357.53 108.168 1357.53 Q111.802 1357.53 113.608 1353.99 Q115.436 1350.42 115.436 1343.32 Q115.436 1336.19 113.608 1332.64 Q111.802 1329.08 108.168 1329.08 M108.168 1325.38 Q113.978 1325.38 117.033 1329.98 Q120.112 1334.57 120.112 1343.32 Q120.112 1352.04 117.033 1356.65 Q113.978 1361.23 108.168 1361.23 Q102.358 1361.23 99.2789 1356.65 Q96.2234 1352.04 96.2234 1343.32 Q96.2234 1334.57 99.2789 1329.98 Q102.358 1325.38 108.168 1325.38 Z" fill="#9eb1be" fill-rule="nonzero" fill-opacity="1" /><path clip-path="url(#clip220)" d="M138.33 1329.08 Q134.719 1329.08 132.89 1332.64 Q131.084 1336.19 131.084 1343.32 Q131.084 1350.42 132.89 1353.99 Q134.719 1357.53 138.33 1357.53 Q141.964 1357.53 143.769 1353.99 Q145.598 1350.42 145.598 1343.32 Q145.598 1336.19 143.769 1332.64 Q141.964 1329.08 138.33 1329.08 M138.33 1325.38 Q144.14 1325.38 147.195 1329.98 Q150.274 1334.57 150.274 1343.32 Q150.274 1352.04 147.195 1356.65 Q144.14 1361.23 138.33 1361.23 Q132.519 1361.23 129.441 1356.65 Q126.385 1352.04 126.385 1343.32 Q126.385 1334.57 129.441 1329.98 Q132.519 1325.38 138.33 1325.38 Z" fill="#9eb1be" fill-rule="nonzero" fill-opacity="1" /><path clip-path="url(#clip220)" d="M63.9319 1075.81 Q60.3208 1075.81 58.4921 1079.38 Q56.6865 1082.92 56.6865 1090.05 Q56.6865 1097.16 58.4921 1100.72 Q60.3208 1104.26 63.9319 1104.26 Q67.5661 1104.26 69.3717 1100.72 Q71.2004 1097.16 71.2004 1090.05 Q71.2004 1082.92 69.3717 1079.38 Q67.5661 1075.81 63.9319 1075.81 M63.9319 1072.11 Q69.742 1072.11 72.7976 1076.72 Q75.8763 1081.3 75.8763 1090.05 Q75.8763 1098.78 72.7976 1103.38 Q69.742 1107.97 63.9319 1107.97 Q58.1217 1107.97 55.043 1103.38 Q51.9875 1098.78 51.9875 1090.05 Q51.9875 1081.3 55.043 1076.72 Q58.1217 1072.11 63.9319 1072.11 Z" fill="#9eb1be" fill-rule="nonzero" fill-opacity="1" /><path clip-path="url(#clip220)" d="M84.0938 1101.42 L88.978 1101.42 L88.978 1107.3 L84.0938 1107.3 L84.0938 1101.42 Z" fill="#9eb1be" fill-rule="nonzero" fill-opacity="1" /><path clip-path="url(#clip220)" d="M109.163 1075.81 Q105.552 1075.81 103.723 1079.38 Q101.918 1082.92 101.918 1090.05 Q101.918 1097.16 103.723 1100.72 Q105.552 1104.26 109.163 1104.26 Q112.797 1104.26 114.603 1100.72 Q116.432 1097.16 116.432 1090.05 Q116.432 1082.92 114.603 1079.38 Q112.797 1075.81 109.163 1075.81 M109.163 1072.11 Q114.973 1072.11 118.029 1076.72 Q121.107 1081.3 121.107 1090.05 Q121.107 1098.78 118.029 1103.38 Q114.973 1107.97 109.163 1107.97 Q103.353 1107.97 100.274 1103.38 Q97.2187 1098.78 97.2187 1090.05 Q97.2187 1081.3 100.274 1076.72 Q103.353 1072.11 109.163 1072.11 Z" fill="#9eb1be" fill-rule="nonzero" fill-opacity="1" /><path clip-path="url(#clip220)" d="M129.371 1072.74 L147.728 1072.74 L147.728 1076.67 L133.654 1076.67 L133.654 1085.14 Q134.672 1084.8 135.691 1084.63 Q136.709 1084.45 137.728 1084.45 Q143.515 1084.45 146.894 1087.62 Q150.274 1090.79 150.274 1096.21 Q150.274 1101.79 146.802 1104.89 Q143.33 1107.97 137.01 1107.97 Q134.834 1107.97 132.566 1107.6 Q130.32 1107.23 127.913 1106.49 L127.913 1101.79 Q129.996 1102.92 132.219 1103.48 Q134.441 1104.03 136.918 1104.03 Q140.922 1104.03 143.26 1101.93 Q145.598 1099.82 145.598 1096.21 Q145.598 1092.6 143.26 1090.49 Q140.922 1088.38 136.918 1088.38 Q135.043 1088.38 133.168 1088.8 Q131.316 1089.22 129.371 1090.1 L129.371 1072.74 Z" fill="#9eb1be" fill-rule="nonzero" fill-opacity="1" /><path clip-path="url(#clip220)" d="M62.9365 822.551 Q59.3254 822.551 57.4967 826.116 Q55.6912 829.657 55.6912 836.787 Q55.6912 843.893 57.4967 847.458 Q59.3254 851 62.9365 851 Q66.5707 851 68.3763 847.458 Q70.205 843.893 70.205 836.787 Q70.205 829.657 68.3763 826.116 Q66.5707 822.551 62.9365 822.551 M62.9365 818.847 Q68.7467 818.847 71.8022 823.453 Q74.8809 828.037 74.8809 836.787 Q74.8809 845.514 71.8022 850.12 Q68.7467 854.703 62.9365 854.703 Q57.1264 854.703 54.0477 850.12 Q50.9921 845.514 50.9921 836.787 Q50.9921 828.037 54.0477 823.453 Q57.1264 818.847 62.9365 818.847 Z" fill="#9eb1be" fill-rule="nonzero" fill-opacity="1" /><path clip-path="url(#clip220)" d="M83.0984 848.152 L87.9827 848.152 L87.9827 854.032 L83.0984 854.032 L83.0984 848.152 Z" fill="#9eb1be" fill-rule="nonzero" fill-opacity="1" /><path clip-path="url(#clip220)" d="M98.978 850.097 L106.617 850.097 L106.617 823.731 L98.3067 825.398 L98.3067 821.139 L106.571 819.472 L111.246 819.472 L111.246 850.097 L118.885 850.097 L118.885 854.032 L98.978 854.032 L98.978 850.097 Z" fill="#9eb1be" fill-rule="nonzero" fill-opacity="1" /><path clip-path="url(#clip220)" d="M138.33 822.551 Q134.719 822.551 132.89 826.116 Q131.084 829.657 131.084 836.787 Q131.084 843.893 132.89 847.458 Q134.719 851 138.33 851 Q141.964 851 143.769 847.458 Q145.598 843.893 145.598 836.787 Q145.598 829.657 143.769 826.116 Q141.964 822.551 138.33 822.551 M138.33 818.847 Q144.14 818.847 147.195 823.453 Q150.274 828.037 150.274 836.787 Q150.274 845.514 147.195 850.12 Q144.14 854.703 138.33 854.703 Q132.519 854.703 129.441 850.12 Q126.385 845.514 126.385 836.787 Q126.385 828.037 129.441 823.453 Q132.519 818.847 138.33 818.847 Z" fill="#9eb1be" fill-rule="nonzero" fill-opacity="1" /><path clip-path="url(#clip220)" d="M63.9319 569.286 Q60.3208 569.286 58.4921 572.851 Q56.6865 576.393 56.6865 583.522 Q56.6865 590.629 58.4921 594.194 Q60.3208 597.735 63.9319 597.735 Q67.5661 597.735 69.3717 594.194 Q71.2004 590.629 71.2004 583.522 Q71.2004 576.393 69.3717 572.851 Q67.5661 569.286 63.9319 569.286 M63.9319 565.583 Q69.742 565.583 72.7976 570.189 Q75.8763 574.773 75.8763 583.522 Q75.8763 592.249 72.7976 596.856 Q69.742 601.439 63.9319 601.439 Q58.1217 601.439 55.043 596.856 Q51.9875 592.249 51.9875 583.522 Q51.9875 574.773 55.043 570.189 Q58.1217 565.583 63.9319 565.583 Z" fill="#9eb1be" fill-rule="nonzero" fill-opacity="1" /><path clip-path="url(#clip220)" d="M84.0938 594.888 L88.978 594.888 L88.978 600.768 L84.0938 600.768 L84.0938 594.888 Z" fill="#9eb1be" fill-rule="nonzero" fill-opacity="1" /><path clip-path="url(#clip220)" d="M99.9733 596.833 L107.612 596.833 L107.612 570.467 L99.3021 572.134 L99.3021 567.874 L107.566 566.208 L112.242 566.208 L112.242 596.833 L119.881 596.833 L119.881 600.768 L99.9733 600.768 L99.9733 596.833 Z" fill="#9eb1be" fill-rule="nonzero" fill-opacity="1" /><path clip-path="url(#clip220)" d="M129.371 566.208 L147.728 566.208 L147.728 570.143 L133.654 570.143 L133.654 578.615 Q134.672 578.268 135.691 578.106 Q136.709 577.921 137.728 577.921 Q143.515 577.921 146.894 581.092 Q150.274 584.263 150.274 589.68 Q150.274 595.259 146.802 598.36 Q143.33 601.439 137.01 601.439 Q134.834 601.439 132.566 601.069 Q130.32 600.698 127.913 599.958 L127.913 595.259 Q129.996 596.393 132.219 596.948 Q134.441 597.504 136.918 597.504 Q140.922 597.504 143.26 595.397 Q145.598 593.291 145.598 589.68 Q145.598 586.069 143.26 583.962 Q140.922 581.856 136.918 581.856 Q135.043 581.856 133.168 582.272 Q131.316 582.689 129.371 583.569 L129.371 566.208 Z" fill="#9eb1be" fill-rule="nonzero" fill-opacity="1" /><path clip-path="url(#clip220)" d="M62.9365 316.022 Q59.3254 316.022 57.4967 319.587 Q55.6912 323.129 55.6912 330.258 Q55.6912 337.365 57.4967 340.929 Q59.3254 344.471 62.9365 344.471 Q66.5707 344.471 68.3763 340.929 Q70.205 337.365 70.205 330.258 Q70.205 323.129 68.3763 319.587 Q66.5707 316.022 62.9365 316.022 M62.9365 312.319 Q68.7467 312.319 71.8022 316.925 Q74.8809 321.508 74.8809 330.258 Q74.8809 338.985 71.8022 343.592 Q68.7467 348.175 62.9365 348.175 Q57.1264 348.175 54.0477 343.592 Q50.9921 338.985 50.9921 330.258 Q50.9921 321.508 54.0477 316.925 Q57.1264 312.319 62.9365 312.319 Z" fill="#9eb1be" fill-rule="nonzero" fill-opacity="1" /><path clip-path="url(#clip220)" d="M83.0984 341.624 L87.9827 341.624 L87.9827 347.504 L83.0984 347.504 L83.0984 341.624 Z" fill="#9eb1be" fill-rule="nonzero" fill-opacity="1" /><path clip-path="url(#clip220)" d="M102.196 343.568 L118.515 343.568 L118.515 347.504 L96.5706 347.504 L96.5706 343.568 Q99.2326 340.814 103.816 336.184 Q108.422 331.531 109.603 330.189 Q111.848 327.666 112.728 325.93 Q113.631 324.17 113.631 322.481 Q113.631 319.726 111.686 317.99 Q109.765 316.254 106.663 316.254 Q104.464 316.254 102.01 317.018 Q99.5798 317.781 96.8021 319.332 L96.8021 314.61 Q99.6261 313.476 102.08 312.897 Q104.534 312.319 106.571 312.319 Q111.941 312.319 115.135 315.004 Q118.33 317.689 118.33 322.18 Q118.33 324.309 117.52 326.23 Q116.733 328.129 114.626 330.721 Q114.047 331.392 110.946 334.61 Q107.844 337.804 102.196 343.568 Z" fill="#9eb1be" fill-rule="nonzero" fill-opacity="1" /><path clip-path="url(#clip220)" d="M138.33 316.022 Q134.719 316.022 132.89 319.587 Q131.084 323.129 131.084 330.258 Q131.084 337.365 132.89 340.929 Q134.719 344.471 138.33 344.471 Q141.964 344.471 143.769 340.929 Q145.598 337.365 145.598 330.258 Q145.598 323.129 143.769 319.587 Q141.964 316.022 138.33 316.022 M138.33 312.319 Q144.14 312.319 147.195 316.925 Q150.274 321.508 150.274 330.258 Q150.274 338.985 147.195 343.592 Q144.14 348.175 138.33 348.175 Q132.519 348.175 129.441 343.592 Q126.385 338.985 126.385 330.258 Q126.385 321.508 129.441 316.925 Q132.519 312.319 138.33 312.319 Z" fill="#9eb1be" fill-rule="nonzero" fill-opacity="1" /><path clip-path="url(#clip220)" d="M206.76 31.5855 Q208.641 32.222 210.406 34.3054 Q212.2 36.3887 213.994 40.0345 L219.925 51.84 L213.647 51.84 L208.12 40.7579 Q205.979 36.4176 203.953 34.9998 Q201.957 33.582 198.485 33.582 L192.119 33.582 L192.119 51.84 L186.274 51.84 L186.274 8.64 L199.468 8.64 Q206.876 8.64 210.522 11.736 Q214.167 14.8321 214.167 21.0821 Q214.167 25.1619 212.258 27.8529 Q210.377 30.5438 206.76 31.5855 M192.119 13.4432 L192.119 28.7788 L199.468 28.7788 Q203.693 28.7788 205.834 26.8401 Q208.004 24.8726 208.004 21.0821 Q208.004 17.2916 205.834 15.3819 Q203.693 13.4432 199.468 13.4432 L192.119 13.4432 Z" fill="#adb2b7" fill-rule="nonzero" fill-opacity="1" /><path clip-path="url(#clip220)" d="M252.275 34.3054 L252.275 36.9095 L227.796 36.9095 Q228.143 42.4072 231.094 45.3007 Q234.075 48.1653 239.37 48.1653 Q242.437 48.1653 245.301 47.4129 Q248.195 46.6606 251.031 45.156 L251.031 50.1907 Q248.166 51.406 245.157 52.0425 Q242.148 52.6791 239.051 52.6791 Q231.297 52.6791 226.754 48.1653 Q222.24 43.6514 222.24 35.9547 Q222.24 27.9975 226.523 23.339 Q230.834 18.6515 238.126 18.6515 Q244.665 18.6515 248.455 22.876 Q252.275 27.0716 252.275 34.3054 M246.951 32.7429 Q246.893 28.3737 244.491 25.7695 Q242.119 23.1654 238.183 23.1654 Q233.727 23.1654 231.036 25.6827 Q228.374 28.2001 227.969 32.7718 L246.951 32.7429 Z" fill="#adb2b7" fill-rule="nonzero" fill-opacity="1" /><path clip-path="url(#clip220)" d="M275.741 35.5496 Q269.289 35.5496 266.8 37.0253 Q264.312 38.501 264.312 42.06 Q264.312 44.8956 266.164 46.5738 Q268.044 48.2231 271.256 48.2231 Q275.683 48.2231 278.345 45.0981 Q281.036 41.9442 281.036 36.7359 L281.036 35.5496 L275.741 35.5496 M286.36 33.3505 L286.36 51.84 L281.036 51.84 L281.036 46.921 Q279.213 49.8724 276.493 51.2902 Q273.774 52.6791 269.838 52.6791 Q264.862 52.6791 261.91 49.9014 Q258.988 47.0947 258.988 42.4072 Q258.988 36.9385 262.634 34.1607 Q266.308 31.3829 273.571 31.3829 L281.036 31.3829 L281.036 30.8621 Q281.036 27.1874 278.606 25.1908 Q276.204 23.1654 271.835 23.1654 Q269.057 23.1654 266.424 23.8309 Q263.791 24.4964 261.36 25.8274 L261.36 20.9085 Q264.283 19.78 267.032 19.2302 Q269.78 18.6515 272.385 18.6515 Q279.416 18.6515 282.888 22.2973 Q286.36 25.9431 286.36 33.3505 Z" fill="#adb2b7" fill-rule="nonzero" fill-opacity="1" /><path clip-path="url(#clip220)" d="M297.327 6.81709 L302.651 6.81709 L302.651 51.84 L297.327 51.84 L297.327 6.81709 Z" fill="#adb2b7" fill-rule="nonzero" fill-opacity="1" /><path clip-path="url(#clip220)" d="M313.791 19.4328 L319.115 19.4328 L319.115 51.84 L313.791 51.84 L313.791 19.4328 M313.791 6.81709 L319.115 6.81709 L319.115 13.559 L313.791 13.559 L313.791 6.81709 Z" fill="#adb2b7" fill-rule="nonzero" fill-opacity="1" /><path clip-path="url(#clip220)" d="M327.94 19.4328 L353.229 19.4328 L353.229 24.2939 L333.206 47.5866 L353.229 47.5866 L353.229 51.84 L327.217 51.84 L327.217 46.9789 L347.24 23.6862 L327.94 23.6862 L327.94 19.4328 Z" fill="#adb2b7" fill-rule="nonzero" fill-opacity="1" /><path clip-path="url(#clip220)" d="M389.08 34.3054 L389.08 36.9095 L364.601 36.9095 Q364.948 42.4072 367.899 45.3007 Q370.879 48.1653 376.175 48.1653 Q379.242 48.1653 382.106 47.4129 Q385 46.6606 387.835 45.156 L387.835 50.1907 Q384.971 51.406 381.962 52.0425 Q378.952 52.6791 375.856 52.6791 Q368.102 52.6791 363.559 48.1653 Q359.045 43.6514 359.045 35.9547 Q359.045 27.9975 363.327 23.339 Q367.639 18.6515 374.93 18.6515 Q381.47 18.6515 385.26 22.876 Q389.08 27.0716 389.08 34.3054 M383.756 32.7429 Q383.698 28.3737 381.296 25.7695 Q378.923 23.1654 374.988 23.1654 Q370.532 23.1654 367.841 25.6827 Q365.179 28.2001 364.774 32.7718 L383.756 32.7429 Z" fill="#adb2b7" fill-rule="nonzero" fill-opacity="1" /><path clip-path="url(#clip220)" d="M419.143 24.3517 L419.143 6.81709 L424.467 6.81709 L424.467 51.84 L419.143 51.84 L419.143 46.9789 Q417.465 49.8724 414.89 51.2902 Q412.343 52.6791 408.755 52.6791 Q402.882 52.6791 399.178 47.9916 Q395.503 43.3042 395.503 35.6653 Q395.503 28.0265 399.178 23.339 Q402.882 18.6515 408.755 18.6515 Q412.343 18.6515 414.89 20.0693 Q417.465 21.4582 419.143 24.3517 M401.001 35.6653 Q401.001 41.5391 403.402 44.8956 Q405.833 48.2231 410.058 48.2231 Q414.282 48.2231 416.713 44.8956 Q419.143 41.5391 419.143 35.6653 Q419.143 29.7915 416.713 26.464 Q414.282 23.1075 410.058 23.1075 Q405.833 23.1075 403.402 26.464 Q401.001 29.7915 401.001 35.6653 Z" fill="#adb2b7" fill-rule="nonzero" fill-opacity="1" /><path clip-path="url(#clip220)" d="M473.049 24.4096 Q472.152 23.8888 471.082 23.6573 Q470.04 23.3969 468.767 23.3969 Q464.253 23.3969 461.822 26.3482 Q459.421 29.2707 459.421 34.7683 L459.421 51.84 L454.068 51.84 L454.068 19.4328 L459.421 19.4328 L459.421 24.4675 Q461.099 21.5161 463.79 20.0983 Q466.481 18.6515 470.329 18.6515 Q470.879 18.6515 471.544 18.7383 Q472.21 18.7962 473.02 18.9409 L473.049 24.4096 Z" fill="#adb2b7" fill-rule="nonzero" fill-opacity="1" /><path clip-path="url(#clip220)" d="M505.051 34.3054 L505.051 36.9095 L480.572 36.9095 Q480.919 42.4072 483.871 45.3007 Q486.851 48.1653 492.146 48.1653 Q495.213 48.1653 498.078 47.4129 Q500.971 46.6606 503.807 45.156 L503.807 50.1907 Q500.942 51.406 497.933 52.0425 Q494.924 52.6791 491.828 52.6791 Q484.073 52.6791 479.531 48.1653 Q475.017 43.6514 475.017 35.9547 Q475.017 27.9975 479.299 23.339 Q483.61 18.6515 490.902 18.6515 Q497.441 18.6515 501.232 22.876 Q505.051 27.0716 505.051 34.3054 M499.727 32.7429 Q499.669 28.3737 497.268 25.7695 Q494.895 23.1654 490.96 23.1654 Q486.504 23.1654 483.813 25.6827 Q481.151 28.2001 480.746 32.7718 L499.727 32.7429 Z" fill="#adb2b7" fill-rule="nonzero" fill-opacity="1" /><path clip-path="url(#clip220)" d="M519.056 10.2314 L519.056 19.4328 L530.022 19.4328 L530.022 23.5705 L519.056 23.5705 L519.056 41.163 Q519.056 45.1271 520.126 46.2555 Q521.226 47.384 524.553 47.384 L530.022 47.384 L530.022 51.84 L524.553 51.84 Q518.39 51.84 516.047 49.5541 Q513.703 47.2393 513.703 41.163 L513.703 23.5705 L509.797 23.5705 L509.797 19.4328 L513.703 19.4328 L513.703 10.2314 L519.056 10.2314 Z" fill="#adb2b7" fill-rule="nonzero" fill-opacity="1" /><path clip-path="url(#clip220)" d="M536.475 39.0507 L536.475 19.4328 L541.799 19.4328 L541.799 38.8482 Q541.799 43.4488 543.593 45.7636 Q545.387 48.0495 548.975 48.0495 Q553.286 48.0495 555.774 45.3007 Q558.292 42.5519 558.292 37.8065 L558.292 19.4328 L563.616 19.4328 L563.616 51.84 L558.292 51.84 L558.292 46.8632 Q556.353 49.8145 553.778 51.2613 Q551.232 52.6791 547.846 52.6791 Q542.262 52.6791 539.368 49.2069 Q536.475 45.7347 536.475 39.0507 M549.872 18.6515 L549.872 18.6515 Z" fill="#adb2b7" fill-rule="nonzero" fill-opacity="1" /><path clip-path="url(#clip220)" d="M593.361 24.4096 Q592.464 23.8888 591.393 23.6573 Q590.352 23.3969 589.079 23.3969 Q584.565 23.3969 582.134 26.3482 Q579.733 29.2707 579.733 34.7683 L579.733 51.84 L574.38 51.84 L574.38 19.4328 L579.733 19.4328 L579.733 24.4675 Q581.411 21.5161 584.102 20.0983 Q586.793 18.6515 590.641 18.6515 Q591.191 18.6515 591.856 18.7383 Q592.522 18.7962 593.332 18.9409 L593.361 24.4096 Z" fill="#adb2b7" fill-rule="nonzero" fill-opacity="1" /><path clip-path="url(#clip220)" d="M624.842 32.2799 L624.842 51.84 L619.518 51.84 L619.518 32.4535 Q619.518 27.8529 617.724 25.567 Q615.93 23.2811 612.342 23.2811 Q608.031 23.2811 605.543 26.03 Q603.054 28.7788 603.054 33.5241 L603.054 51.84 L597.701 51.84 L597.701 19.4328 L603.054 19.4328 L603.054 24.4675 Q604.964 21.545 607.539 20.0983 Q610.143 18.6515 613.529 18.6515 Q619.113 18.6515 621.978 22.1237 Q624.842 25.567 624.842 32.2799 Z" fill="#adb2b7" fill-rule="nonzero" fill-opacity="1" /><path clip-path="url(#clip220)" d="M656.121 20.3876 L656.121 25.4223 Q653.864 24.2649 651.434 23.6862 Q649.003 23.1075 646.399 23.1075 Q642.435 23.1075 640.438 24.3228 Q638.471 25.5381 638.471 27.9686 Q638.471 29.8204 639.888 30.891 Q641.306 31.9327 645.589 32.8876 L647.412 33.2926 Q653.083 34.5079 655.456 36.7359 Q657.857 38.935 657.857 42.8991 Q657.857 47.4129 654.269 50.046 Q650.71 52.6791 644.46 52.6791 Q641.856 52.6791 639.02 52.1583 Q636.214 51.6664 633.089 50.6537 L633.089 45.156 Q636.04 46.6896 638.905 47.4708 Q641.769 48.2231 644.576 48.2231 Q648.337 48.2231 650.363 46.95 Q652.388 45.6479 652.388 43.3042 Q652.388 41.134 650.913 39.9766 Q649.466 38.8192 644.518 37.7486 L642.666 37.3146 Q637.718 36.273 635.519 34.1318 Q633.32 31.9616 633.32 28.2001 Q633.32 23.6283 636.561 21.1399 Q639.802 18.6515 645.762 18.6515 Q648.714 18.6515 651.318 19.0855 Q653.922 19.5196 656.121 20.3876 Z" fill="#adb2b7" fill-rule="nonzero" fill-opacity="1" /><path clip-path="url(#clip220)" d="M708.436 35.6653 Q708.436 29.7915 706.005 26.464 Q703.603 23.1075 699.379 23.1075 Q695.154 23.1075 692.724 26.464 Q690.322 29.7915 690.322 35.6653 Q690.322 41.5391 692.724 44.8956 Q695.154 48.2231 699.379 48.2231 Q703.603 48.2231 706.005 44.8956 Q708.436 41.5391 708.436 35.6653 M690.322 24.3517 Q692 21.4582 694.547 20.0693 Q697.122 18.6515 700.681 18.6515 Q706.584 18.6515 710.258 23.339 Q713.962 28.0265 713.962 35.6653 Q713.962 43.3042 710.258 47.9916 Q706.584 52.6791 700.681 52.6791 Q697.122 52.6791 694.547 51.2902 Q692 49.8724 690.322 46.9789 L690.322 51.84 L684.969 51.84 L684.969 6.81709 L690.322 6.81709 L690.322 24.3517 Z" fill="#adb2b7" fill-rule="nonzero" fill-opacity="1" /><path clip-path="url(#clip220)" d="M736.271 54.8492 Q734.014 60.6362 731.873 62.4013 Q729.732 64.1663 726.144 64.1663 L721.89 64.1663 L721.89 59.7103 L725.015 59.7103 Q727.214 59.7103 728.43 58.6687 Q729.645 57.627 731.121 53.7497 L732.075 51.3192 L718.968 19.4328 L724.61 19.4328 L734.737 44.7799 L744.865 19.4328 L750.507 19.4328 L736.271 54.8492 Z" fill="#adb2b7" fill-rule="nonzero" fill-opacity="1" /><path clip-path="url(#clip220)" d="M773.597 19.4328 L778.921 19.4328 L785.576 44.722 L792.202 19.4328 L798.481 19.4328 L805.136 44.722 L811.763 19.4328 L817.087 19.4328 L808.609 51.84 L802.33 51.84 L795.356 25.2776 L788.354 51.84 L782.075 51.84 L773.597 19.4328 Z" fill="#adb2b7" fill-rule="nonzero" fill-opacity="1" /><path clip-path="url(#clip220)" d="M852.879 34.3054 L852.879 36.9095 L828.4 36.9095 Q828.747 42.4072 831.699 45.3007 Q834.679 48.1653 839.974 48.1653 Q843.041 48.1653 845.906 47.4129 Q848.799 46.6606 851.635 45.156 L851.635 50.1907 Q848.77 51.406 845.761 52.0425 Q842.752 52.6791 839.656 52.6791 Q831.901 52.6791 827.359 48.1653 Q822.845 43.6514 822.845 35.9547 Q822.845 27.9975 827.127 23.339 Q831.438 18.6515 838.73 18.6515 Q845.269 18.6515 849.06 22.876 Q852.879 27.0716 852.879 34.3054 M847.555 32.7429 Q847.497 28.3737 845.096 25.7695 Q842.723 23.1654 838.788 23.1654 Q834.332 23.1654 831.641 25.6827 Q828.979 28.2001 828.574 32.7718 L847.555 32.7429 Z" fill="#adb2b7" fill-rule="nonzero" fill-opacity="1" /><path clip-path="url(#clip220)" d="M889.337 34.3054 L889.337 36.9095 L864.858 36.9095 Q865.206 42.4072 868.157 45.3007 Q871.137 48.1653 876.432 48.1653 Q879.499 48.1653 882.364 47.4129 Q885.258 46.6606 888.093 45.156 L888.093 50.1907 Q885.229 51.406 882.219 52.0425 Q879.21 52.6791 876.114 52.6791 Q868.359 52.6791 863.817 48.1653 Q859.303 43.6514 859.303 35.9547 Q859.303 27.9975 863.585 23.339 Q867.897 18.6515 875.188 18.6515 Q881.727 18.6515 885.518 22.876 Q889.337 27.0716 889.337 34.3054 M884.013 32.7429 Q883.955 28.3737 881.554 25.7695 Q879.181 23.1654 875.246 23.1654 Q870.79 23.1654 868.099 25.6827 Q865.437 28.2001 865.032 32.7718 L884.013 32.7429 Z" fill="#adb2b7" fill-rule="nonzero" fill-opacity="1" /><path clip-path="url(#clip220)" d="M897.873 6.81709 L903.226 6.81709 L903.226 33.4084 L919.112 19.4328 L925.911 19.4328 L908.724 34.5947 L926.635 51.84 L919.69 51.84 L903.226 36.0125 L903.226 51.84 L897.873 51.84 L897.873 6.81709 Z" fill="#adb2b7" fill-rule="nonzero" fill-opacity="1" /><path clip-path="url(#clip220)" d="M953.718 24.3517 L953.718 6.81709 L959.042 6.81709 L959.042 51.84 L953.718 51.84 L953.718 46.9789 Q952.04 49.8724 949.464 51.2902 Q946.918 52.6791 943.33 52.6791 Q937.456 52.6791 933.753 47.9916 Q930.078 43.3042 930.078 35.6653 Q930.078 28.0265 933.753 23.339 Q937.456 18.6515 943.33 18.6515 Q946.918 18.6515 949.464 20.0693 Q952.04 21.4582 953.718 24.3517 M935.576 35.6653 Q935.576 41.5391 937.977 44.8956 Q940.408 48.2231 944.632 48.2231 Q948.857 48.2231 951.287 44.8956 Q953.718 41.5391 953.718 35.6653 Q953.718 29.7915 951.287 26.464 Q948.857 23.1075 944.632 23.1075 Q940.408 23.1075 937.977 26.464 Q935.576 29.7915 935.576 35.6653 Z" fill="#adb2b7" fill-rule="nonzero" fill-opacity="1" /><path clip-path="url(#clip220)" d="M984.736 35.5496 Q978.284 35.5496 975.795 37.0253 Q973.307 38.501 973.307 42.06 Q973.307 44.8956 975.159 46.5738 Q977.039 48.2231 980.251 48.2231 Q984.678 48.2231 987.34 45.0981 Q990.031 41.9442 990.031 36.7359 L990.031 35.5496 L984.736 35.5496 M995.355 33.3505 L995.355 51.84 L990.031 51.84 L990.031 46.921 Q988.208 49.8724 985.488 51.2902 Q982.769 52.6791 978.833 52.6791 Q973.857 52.6791 970.905 49.9014 Q967.983 47.0947 967.983 42.4072 Q967.983 36.9385 971.629 34.1607 Q975.303 31.3829 982.566 31.3829 L990.031 31.3829 L990.031 30.8621 Q990.031 27.1874 987.601 25.1908 Q985.199 23.1654 980.83 23.1654 Q978.052 23.1654 975.419 23.8309 Q972.786 24.4964 970.355 25.8274 L970.355 20.9085 Q973.278 19.78 976.027 19.2302 Q978.776 18.6515 981.38 18.6515 Q988.411 18.6515 991.883 22.2973 Q995.355 25.9431 995.355 33.3505 Z" fill="#adb2b7" fill-rule="nonzero" fill-opacity="1" /><path clip-path="url(#clip220)" d="M1019.81 54.8492 Q1017.55 60.6362 1015.41 62.4013 Q1013.27 64.1663 1009.68 64.1663 L1005.42 64.1663 L1005.42 59.7103 L1008.55 59.7103 Q1010.75 59.7103 1011.96 58.6687 Q1013.18 57.627 1014.65 53.7497 L1015.61 51.3192 L1002.5 19.4328 L1008.14 19.4328 L1018.27 44.7799 L1028.4 19.4328 L1034.04 19.4328 L1019.81 54.8492 Z" fill="#adb2b7" fill-rule="nonzero" fill-opacity="1" /><polyline clip-path="url(#clip221)" style="stroke:#fe4365; stroke-linecap:round; stroke-linejoin:round; stroke-width:4; stroke-opacity:1; fill:none" points="247.59,1411.46 404.809,1160.34 562.028,931.677 719.247,740.229 876.467,598.033 1033.69,513.605 1190.91,491.352 1348.12,531.273 1505.34,378.945 1662.56,254.357 1819.78,172.406 1977,145.256 2134.22,181.506 "/>
<polyline clip-path="url(#clip221)" style="stroke:#eca25c; stroke-linecap:round; stroke-linejoin:round; stroke-width:4; stroke-opacity:1; fill:none" points="247.59,1447.38 404.809,1199.11 562.028,973.035 719.247,783.738 876.467,643.119 1033.69,559.591 1190.91,537.512 1348.12,576.882 1505.34,426.048 1662.56,302.626 1819.78,221.334 1977,194.191 2134.22,229.696 "/>
<polyline clip-path="url(#clip221)" style="stroke:#3f9778; stroke-linecap:round; stroke-linejoin:round; stroke-width:4; stroke-opacity:1; fill:none" points="247.59,1445.83 404.809,1200.34 562.028,976.796 719.247,789.603 876.467,650.525 1033.69,567.88 1190.91,545.973 1348.12,584.805 1505.34,435.799 1662.56,313.884 1819.78,233.608 1977,206.849 2134.22,242.007 "/>
<polyline clip-path="url(#clip221)" style="stroke:#005d7f; stroke-linecap:round; stroke-linejoin:round; stroke-width:4; stroke-opacity:1; fill:none" points="247.59,1444.7 404.809,1201.94 562.028,980.863 719.247,795.727 876.467,658.157 1033.69,576.376 1190.91,554.639 1348.12,592.947 1505.34,445.368 1662.56,324.565 1819.78,244.917 1977,218.167 2134.22,252.614 2291.44,287.062 "/>
<path clip-path="url(#clip220)" d="M258.49 1440.44 L560.022 1440.44 L560.022 1181.24 L258.49 1181.24  Z" fill="#282c34" fill-rule="evenodd" fill-opacity="1"/>
<polyline clip-path="url(#clip220)" style="stroke:#000000; stroke-linecap:round; stroke-linejoin:round; stroke-width:4; stroke-opacity:0; fill:none" points="258.49,1440.44 560.022,1440.44 560.022,1181.24 258.49,1181.24 258.49,1440.44 "/>
<polyline clip-path="url(#clip220)" style="stroke:#fe4365; stroke-linecap:round; stroke-linejoin:round; stroke-width:4; stroke-opacity:1; fill:none" points="282.562,1233.08 426.994,1233.08 "/>
<path clip-path="url(#clip220)" d="M451.066 1215.8 L480.302 1215.8 L480.302 1219.73 L468.034 1219.73 L468.034 1250.36 L463.335 1250.36 L463.335 1219.73 L451.066 1219.73 L451.066 1215.8 Z" fill="#adb2b7" fill-rule="nonzero" fill-opacity="1" /><path clip-path="url(#clip220)" d="M506.182 1234.71 L506.182 1250.36 L501.922 1250.36 L501.922 1234.85 Q501.922 1231.17 500.487 1229.34 Q499.052 1227.51 496.182 1227.51 Q492.733 1227.51 490.742 1229.71 Q488.751 1231.91 488.751 1235.71 L488.751 1250.36 L484.469 1250.36 L484.469 1214.34 L488.751 1214.34 L488.751 1228.46 Q490.279 1226.12 492.339 1224.97 Q494.422 1223.81 497.131 1223.81 Q501.598 1223.81 503.89 1226.59 Q506.182 1229.34 506.182 1234.71 Z" fill="#adb2b7" fill-rule="nonzero" fill-opacity="1" /><path clip-path="url(#clip220)" d="M514.237 1240.13 L514.237 1224.43 L518.496 1224.43 L518.496 1239.97 Q518.496 1243.65 519.932 1245.5 Q521.367 1247.33 524.237 1247.33 Q527.686 1247.33 529.677 1245.13 Q531.691 1242.93 531.691 1239.13 L531.691 1224.43 L535.95 1224.43 L535.95 1250.36 L531.691 1250.36 L531.691 1246.38 Q530.14 1248.74 528.08 1249.9 Q526.043 1251.03 523.334 1251.03 Q518.867 1251.03 516.552 1248.25 Q514.237 1245.48 514.237 1240.13 M524.955 1223.81 L524.955 1223.81 Z" fill="#adb2b7" fill-rule="nonzero" fill-opacity="1" /><polyline clip-path="url(#clip220)" style="stroke:#eca25c; stroke-linecap:round; stroke-linejoin:round; stroke-width:4; stroke-opacity:1; fill:none" points="282.562,1284.92 426.994,1284.92 "/>
<path clip-path="url(#clip220)" d="M451.066 1267.64 L470.927 1267.64 L470.927 1271.57 L455.742 1271.57 L455.742 1281.76 L469.446 1281.76 L469.446 1285.69 L455.742 1285.69 L455.742 1302.2 L451.066 1302.2 L451.066 1267.64 Z" fill="#adb2b7" fill-rule="nonzero" fill-opacity="1" /><path clip-path="url(#clip220)" d="M489.723 1280.26 Q489.006 1279.84 488.149 1279.65 Q487.316 1279.44 486.298 1279.44 Q482.686 1279.44 480.742 1281.81 Q478.821 1284.14 478.821 1288.54 L478.821 1302.2 L474.538 1302.2 L474.538 1276.27 L478.821 1276.27 L478.821 1280.3 Q480.163 1277.94 482.316 1276.81 Q484.469 1275.65 487.548 1275.65 Q487.987 1275.65 488.52 1275.72 Q489.052 1275.76 489.7 1275.88 L489.723 1280.26 Z" fill="#adb2b7" fill-rule="nonzero" fill-opacity="1" /><path clip-path="url(#clip220)" d="M494.191 1276.27 L498.45 1276.27 L498.45 1302.2 L494.191 1302.2 L494.191 1276.27 M494.191 1266.18 L498.45 1266.18 L498.45 1271.57 L494.191 1271.57 L494.191 1266.18 Z" fill="#adb2b7" fill-rule="nonzero" fill-opacity="1" /><polyline clip-path="url(#clip220)" style="stroke:#3f9778; stroke-linecap:round; stroke-linejoin:round; stroke-width:4; stroke-opacity:1; fill:none" points="282.562,1336.76 426.994,1336.76 "/>
<path clip-path="url(#clip220)" d="M473.311 1320.61 L473.311 1325.17 Q470.649 1323.9 468.288 1323.28 Q465.927 1322.65 463.728 1322.65 Q459.909 1322.65 457.825 1324.13 Q455.765 1325.61 455.765 1328.35 Q455.765 1330.64 457.131 1331.82 Q458.52 1332.97 462.362 1333.69 L465.187 1334.27 Q470.418 1335.27 472.895 1337.79 Q475.395 1340.29 475.395 1344.5 Q475.395 1349.53 472.015 1352.12 Q468.659 1354.71 462.154 1354.71 Q459.7 1354.71 456.923 1354.16 Q454.168 1353.6 451.205 1352.51 L451.205 1347.7 Q454.052 1349.29 456.784 1350.1 Q459.515 1350.91 462.154 1350.91 Q466.159 1350.91 468.335 1349.34 Q470.511 1347.77 470.511 1344.85 Q470.511 1342.3 468.937 1340.87 Q467.386 1339.43 463.821 1338.72 L460.974 1338.16 Q455.742 1337.12 453.404 1334.9 Q451.066 1332.67 451.066 1328.72 Q451.066 1324.13 454.284 1321.49 Q457.525 1318.85 463.196 1318.85 Q465.626 1318.85 468.149 1319.29 Q470.673 1319.73 473.311 1320.61 Z" fill="#adb2b7" fill-rule="nonzero" fill-opacity="1" /><path clip-path="url(#clip220)" d="M494.284 1341.01 Q489.122 1341.01 487.131 1342.19 Q485.14 1343.37 485.14 1346.22 Q485.14 1348.48 486.622 1349.83 Q488.126 1351.15 490.696 1351.15 Q494.237 1351.15 496.367 1348.65 Q498.52 1346.12 498.52 1341.96 L498.52 1341.01 L494.284 1341.01 M502.779 1339.25 L502.779 1354.04 L498.52 1354.04 L498.52 1350.1 Q497.061 1352.47 494.885 1353.6 Q492.71 1354.71 489.561 1354.71 Q485.58 1354.71 483.219 1352.49 Q480.881 1350.24 480.881 1346.49 Q480.881 1342.12 483.798 1339.9 Q486.737 1337.67 492.547 1337.67 L498.52 1337.67 L498.52 1337.26 Q498.52 1334.32 496.575 1332.72 Q494.654 1331.1 491.159 1331.1 Q488.936 1331.1 486.83 1331.63 Q484.723 1332.16 482.779 1333.23 L482.779 1329.29 Q485.117 1328.39 487.316 1327.95 Q489.515 1327.49 491.598 1327.49 Q497.223 1327.49 500.001 1330.41 Q502.779 1333.32 502.779 1339.25 Z" fill="#adb2b7" fill-rule="nonzero" fill-opacity="1" /><path clip-path="url(#clip220)" d="M515.765 1320.75 L515.765 1328.11 L524.538 1328.11 L524.538 1331.42 L515.765 1331.42 L515.765 1345.5 Q515.765 1348.67 516.621 1349.57 Q517.501 1350.47 520.163 1350.47 L524.538 1350.47 L524.538 1354.04 L520.163 1354.04 Q515.233 1354.04 513.358 1352.21 Q511.483 1350.36 511.483 1345.5 L511.483 1331.42 L508.358 1331.42 L508.358 1328.11 L511.483 1328.11 L511.483 1320.75 L515.765 1320.75 Z" fill="#adb2b7" fill-rule="nonzero" fill-opacity="1" /><polyline clip-path="url(#clip220)" style="stroke:#005d7f; stroke-linecap:round; stroke-linejoin:round; stroke-width:4; stroke-opacity:1; fill:none" points="282.562,1388.6 426.994,1388.6 "/>
<path clip-path="url(#clip220)" d="M473.311 1372.45 L473.311 1377.01 Q470.649 1375.74 468.288 1375.12 Q465.927 1374.49 463.728 1374.49 Q459.909 1374.49 457.825 1375.97 Q455.765 1377.45 455.765 1380.19 Q455.765 1382.48 457.131 1383.66 Q458.52 1384.81 462.362 1385.53 L465.187 1386.11 Q470.418 1387.11 472.895 1389.63 Q475.395 1392.13 475.395 1396.34 Q475.395 1401.37 472.015 1403.96 Q468.659 1406.55 462.154 1406.55 Q459.7 1406.55 456.923 1406 Q454.168 1405.44 451.205 1404.35 L451.205 1399.54 Q454.052 1401.13 456.784 1401.94 Q459.515 1402.75 462.154 1402.75 Q466.159 1402.75 468.335 1401.18 Q470.511 1399.61 470.511 1396.69 Q470.511 1394.14 468.937 1392.71 Q467.386 1391.27 463.821 1390.56 L460.974 1390 Q455.742 1388.96 453.404 1386.74 Q451.066 1384.51 451.066 1380.56 Q451.066 1375.97 454.284 1373.33 Q457.525 1370.69 463.196 1370.69 Q465.626 1370.69 468.149 1371.13 Q470.673 1371.57 473.311 1372.45 Z" fill="#adb2b7" fill-rule="nonzero" fill-opacity="1" /><path clip-path="url(#clip220)" d="M482.061 1395.65 L482.061 1379.95 L486.321 1379.95 L486.321 1395.49 Q486.321 1399.17 487.756 1401.02 Q489.191 1402.85 492.061 1402.85 Q495.51 1402.85 497.501 1400.65 Q499.515 1398.45 499.515 1394.65 L499.515 1379.95 L503.774 1379.95 L503.774 1405.88 L499.515 1405.88 L499.515 1401.9 Q497.964 1404.26 495.904 1405.42 Q493.867 1406.55 491.159 1406.55 Q486.691 1406.55 484.376 1403.77 Q482.061 1401 482.061 1395.65 M492.779 1379.33 L492.779 1379.33 Z" fill="#adb2b7" fill-rule="nonzero" fill-opacity="1" /><path clip-path="url(#clip220)" d="M534.098 1390.23 L534.098 1405.88 L529.839 1405.88 L529.839 1390.37 Q529.839 1386.69 528.404 1384.86 Q526.969 1383.03 524.098 1383.03 Q520.649 1383.03 518.658 1385.23 Q516.668 1387.43 516.668 1391.23 L516.668 1405.88 L512.385 1405.88 L512.385 1379.95 L516.668 1379.95 L516.668 1383.98 Q518.196 1381.64 520.256 1380.49 Q522.339 1379.33 525.047 1379.33 Q529.515 1379.33 531.807 1382.11 Q534.098 1384.86 534.098 1390.23 Z" fill="#adb2b7" fill-rule="nonzero" fill-opacity="1" /><path clip-path="url(#clip220)" d="M2291.44 164.226 L2320.68 164.226 L2320.68 168.162 L2308.41 168.162 L2308.41 198.786 L2303.71 198.786 L2303.71 168.162 L2291.44 168.162 L2291.44 164.226 Z" fill="#000000" fill-rule="nonzero" fill-opacity="1" /><path clip-path="url(#clip220)" d="M2346.56 183.138 L2346.56 198.786 L2342.3 198.786 L2342.3 183.277 Q2342.3 179.597 2340.86 177.768 Q2339.43 175.939 2336.56 175.939 Q2333.11 175.939 2331.12 178.138 Q2329.13 180.337 2329.13 184.134 L2329.13 198.786 L2324.84 198.786 L2324.84 162.768 L2329.13 162.768 L2329.13 176.888 Q2330.65 174.55 2332.71 173.393 Q2334.8 172.236 2337.5 172.236 Q2341.97 172.236 2344.26 175.013 Q2346.56 177.768 2346.56 183.138 Z" fill="#000000" fill-rule="nonzero" fill-opacity="1" /><path clip-path="url(#clip220)" d="M2354.61 188.555 L2354.61 172.861 L2358.87 172.861 L2358.87 188.393 Q2358.87 192.074 2360.31 193.925 Q2361.74 195.754 2364.61 195.754 Q2368.06 195.754 2370.05 193.555 Q2372.06 191.356 2372.06 187.56 L2372.06 172.861 L2376.32 172.861 L2376.32 198.786 L2372.06 198.786 L2372.06 194.805 Q2370.51 197.166 2368.45 198.323 Q2366.42 199.458 2363.71 199.458 Q2359.24 199.458 2356.93 196.68 Q2354.61 193.902 2354.61 188.555 M2365.33 172.236 L2365.33 172.236 Z" fill="#000000" fill-rule="nonzero" fill-opacity="1" /><path clip-path="url(#clip220)" d="M2291.44 212.416 L2311.3 212.416 L2311.3 216.351 L2296.12 216.351 L2296.12 226.536 L2309.82 226.536 L2309.82 230.471 L2296.12 230.471 L2296.12 246.976 L2291.44 246.976 L2291.44 212.416 Z" fill="#000000" fill-rule="nonzero" fill-opacity="1" /><path clip-path="url(#clip220)" d="M2330.1 225.032 Q2329.38 224.615 2328.52 224.43 Q2327.69 224.221 2326.67 224.221 Q2323.06 224.221 2321.12 226.583 Q2319.19 228.921 2319.19 233.319 L2319.19 246.976 L2314.91 246.976 L2314.91 221.05 L2319.19 221.05 L2319.19 225.078 Q2320.54 222.717 2322.69 221.583 Q2324.84 220.425 2327.92 220.425 Q2328.36 220.425 2328.89 220.495 Q2329.43 220.541 2330.07 220.657 L2330.1 225.032 Z" fill="#000000" fill-rule="nonzero" fill-opacity="1" /><path clip-path="url(#clip220)" d="M2334.57 221.05 L2338.82 221.05 L2338.82 246.976 L2334.57 246.976 L2334.57 221.05 M2334.57 210.958 L2338.82 210.958 L2338.82 216.351 L2334.57 216.351 L2334.57 210.958 Z" fill="#000000" fill-rule="nonzero" fill-opacity="1" /><path clip-path="url(#clip220)" d="M2313.69 225.862 L2313.69 230.422 Q2311.02 229.149 2308.66 228.524 Q2306.3 227.899 2304.1 227.899 Q2300.28 227.899 2298.2 229.38 Q2296.14 230.862 2296.14 233.593 Q2296.14 235.885 2297.51 237.065 Q2298.89 238.223 2302.74 238.94 L2305.56 239.519 Q2310.79 240.514 2313.27 243.037 Q2315.77 245.537 2315.77 249.75 Q2315.77 254.773 2312.39 257.366 Q2309.03 259.959 2302.53 259.959 Q2300.07 259.959 2297.3 259.403 Q2294.54 258.847 2291.58 257.76 L2291.58 252.945 Q2294.43 254.542 2297.16 255.352 Q2299.89 256.162 2302.53 256.162 Q2306.53 256.162 2308.71 254.588 Q2310.88 253.014 2310.88 250.098 Q2310.88 247.551 2309.31 246.116 Q2307.76 244.681 2304.19 243.963 L2301.35 243.408 Q2296.12 242.366 2293.78 240.144 Q2291.44 237.922 2291.44 233.963 Q2291.44 229.38 2294.66 226.741 Q2297.9 224.102 2303.57 224.102 Q2306 224.102 2308.52 224.542 Q2311.05 224.982 2313.69 225.862 Z" fill="#000000" fill-rule="nonzero" fill-opacity="1" /><path clip-path="url(#clip220)" d="M2334.66 246.255 Q2329.5 246.255 2327.51 247.435 Q2325.51 248.616 2325.51 251.463 Q2325.51 253.732 2327 255.074 Q2328.5 256.394 2331.07 256.394 Q2334.61 256.394 2336.74 253.894 Q2338.89 251.371 2338.89 247.204 L2338.89 246.255 L2334.66 246.255 M2343.15 244.496 L2343.15 259.287 L2338.89 259.287 L2338.89 255.352 Q2337.44 257.713 2335.26 258.847 Q2333.08 259.959 2329.94 259.959 Q2325.95 259.959 2323.59 257.736 Q2321.26 255.491 2321.26 251.741 Q2321.26 247.366 2324.17 245.144 Q2327.11 242.922 2332.92 242.922 L2338.89 242.922 L2338.89 242.505 Q2338.89 239.565 2336.95 237.968 Q2335.03 236.348 2331.53 236.348 Q2329.31 236.348 2327.2 236.88 Q2325.1 237.412 2323.15 238.477 L2323.15 234.542 Q2325.49 233.639 2327.69 233.199 Q2329.89 232.737 2331.97 232.737 Q2337.6 232.737 2340.38 235.653 Q2343.15 238.57 2343.15 244.496 Z" fill="#000000" fill-rule="nonzero" fill-opacity="1" /><path clip-path="url(#clip220)" d="M2356.14 226 L2356.14 233.362 L2364.91 233.362 L2364.91 236.672 L2356.14 236.672 L2356.14 250.746 Q2356.14 253.917 2357 254.82 Q2357.88 255.722 2360.54 255.722 L2364.91 255.722 L2364.91 259.287 L2360.54 259.287 Q2355.61 259.287 2353.73 257.459 Q2351.86 255.607 2351.86 250.746 L2351.86 236.672 L2348.73 236.672 L2348.73 233.362 L2351.86 233.362 L2351.86 226 L2356.14 226 Z" fill="#000000" fill-rule="nonzero" fill-opacity="1" /><path clip-path="url(#clip220)" d="M2470.9 270.916 L2470.9 275.476 Q2468.24 274.203 2465.88 273.578 Q2463.52 272.953 2461.32 272.953 Q2457.5 272.953 2455.42 274.435 Q2453.36 275.916 2453.36 278.648 Q2453.36 280.939 2454.72 282.12 Q2456.11 283.277 2459.96 283.995 L2462.78 284.573 Q2468.01 285.569 2470.49 288.092 Q2472.99 290.592 2472.99 294.805 Q2472.99 299.828 2469.61 302.421 Q2466.25 305.013 2459.75 305.013 Q2457.29 305.013 2454.52 304.458 Q2451.76 303.902 2448.8 302.814 L2448.8 297.999 Q2451.65 299.596 2454.38 300.407 Q2457.11 301.217 2459.75 301.217 Q2463.75 301.217 2465.93 299.643 Q2468.1 298.069 2468.1 295.152 Q2468.1 292.606 2466.53 291.171 Q2464.98 289.735 2461.41 289.018 L2458.57 288.462 Q2453.34 287.421 2451 285.198 Q2448.66 282.976 2448.66 279.018 Q2448.66 274.435 2451.88 271.796 Q2455.12 269.157 2460.79 269.157 Q2463.22 269.157 2465.74 269.597 Q2468.27 270.036 2470.9 270.916 Z" fill="#000000" fill-rule="nonzero" fill-opacity="1" /><path clip-path="url(#clip220)" d="M2479.65 294.11 L2479.65 278.416 L2483.91 278.416 L2483.91 293.948 Q2483.91 297.629 2485.35 299.481 Q2486.78 301.309 2489.65 301.309 Q2493.1 301.309 2495.09 299.11 Q2497.11 296.911 2497.11 293.115 L2497.11 278.416 L2501.37 278.416 L2501.37 304.342 L2497.11 304.342 L2497.11 300.36 Q2495.56 302.721 2493.5 303.879 Q2491.46 305.013 2488.75 305.013 Q2484.28 305.013 2481.97 302.235 Q2479.65 299.458 2479.65 294.11 M2490.37 277.791 L2490.37 277.791 Z" fill="#000000" fill-rule="nonzero" fill-opacity="1" /><path clip-path="url(#clip220)" d="M2531.69 288.694 L2531.69 304.342 L2527.43 304.342 L2527.43 288.833 Q2527.43 285.152 2526 283.323 Q2524.56 281.495 2521.69 281.495 Q2518.24 281.495 2516.25 283.694 Q2514.26 285.893 2514.26 289.689 L2514.26 304.342 L2509.98 304.342 L2509.98 278.416 L2514.26 278.416 L2514.26 282.444 Q2515.79 280.106 2517.85 278.948 Q2519.93 277.791 2522.64 277.791 Q2527.11 277.791 2529.4 280.569 Q2531.69 283.323 2531.69 288.694 Z" fill="#000000" fill-rule="nonzero" fill-opacity="1" /></svg>
