<?xml version="1.0" encoding="utf-8"?>
<svg xmlns="http://www.w3.org/2000/svg" xmlns:xlink="http://www.w3.org/1999/xlink" width="600" height="400" viewBox="0 0 2400 1600">
<defs>
  <clipPath id="clip300">
    <rect x="0" y="0" width="2400" height="1600"/>
  </clipPath>
</defs>
<path clip-path="url(#clip300)" d="M0 1600 L2400 1600 L2400 0 L0 0  Z" fill="#282c34" fill-rule="evenodd" fill-opacity="1"/>
<defs>
  <clipPath id="clip301">
    <rect x="229" y="123" width="2124" height="1364"/>
  </clipPath>
</defs>
<path clip-path="url(#clip300)" d="M229.445 1486.45 L2352.76 1486.45 L2352.76 123.472 L229.445 123.472  Z" fill="#21252b" fill-rule="evenodd" fill-opacity="1"/>
<polyline clip-path="url(#clip301)" style="stroke:#adb2b7; stroke-linecap:round; stroke-linejoin:round; stroke-width:2; stroke-opacity:0.1; fill:none" points="289.539,1486.45 289.539,123.472 "/>
<polyline clip-path="url(#clip301)" style="stroke:#adb2b7; stroke-linecap:round; stroke-linejoin:round; stroke-width:2; stroke-opacity:0.1; fill:none" points="824.448,1486.45 824.448,123.472 "/>
<polyline clip-path="url(#clip301)" style="stroke:#adb2b7; stroke-linecap:round; stroke-linejoin:round; stroke-width:2; stroke-opacity:0.1; fill:none" points="1359.36,1486.45 1359.36,123.472 "/>
<polyline clip-path="url(#clip301)" style="stroke:#adb2b7; stroke-linecap:round; stroke-linejoin:round; stroke-width:2; stroke-opacity:0.1; fill:none" points="1894.27,1486.45 1894.27,123.472 "/>
<polyline clip-path="url(#clip301)" style="stroke:#adb2b7; stroke-linecap:round; stroke-linejoin:round; stroke-width:2; stroke-opacity:0.1; fill:none" points="229.445,1307.2 2352.76,1307.2 "/>
<polyline clip-path="url(#clip301)" style="stroke:#adb2b7; stroke-linecap:round; stroke-linejoin:round; stroke-width:2; stroke-opacity:0.1; fill:none" points="229.445,1028.08 2352.76,1028.08 "/>
<polyline clip-path="url(#clip301)" style="stroke:#adb2b7; stroke-linecap:round; stroke-linejoin:round; stroke-width:2; stroke-opacity:0.1; fill:none" points="229.445,748.965 2352.76,748.965 "/>
<polyline clip-path="url(#clip301)" style="stroke:#adb2b7; stroke-linecap:round; stroke-linejoin:round; stroke-width:2; stroke-opacity:0.1; fill:none" points="229.445,469.85 2352.76,469.85 "/>
<polyline clip-path="url(#clip301)" style="stroke:#adb2b7; stroke-linecap:round; stroke-linejoin:round; stroke-width:2; stroke-opacity:0.1; fill:none" points="229.445,190.735 2352.76,190.735 "/>
<polyline clip-path="url(#clip300)" style="stroke:#adb2b7; stroke-linecap:round; stroke-linejoin:round; stroke-width:4; stroke-opacity:1; fill:none" points="229.445,1486.45 2352.76,1486.45 "/>
<polyline clip-path="url(#clip300)" style="stroke:#adb2b7; stroke-linecap:round; stroke-linejoin:round; stroke-width:4; stroke-opacity:1; fill:none" points="289.539,1486.45 289.539,1467.55 "/>
<polyline clip-path="url(#clip300)" style="stroke:#adb2b7; stroke-linecap:round; stroke-linejoin:round; stroke-width:4; stroke-opacity:1; fill:none" points="824.448,1486.45 824.448,1467.55 "/>
<polyline clip-path="url(#clip300)" style="stroke:#adb2b7; stroke-linecap:round; stroke-linejoin:round; stroke-width:4; stroke-opacity:1; fill:none" points="1359.36,1486.45 1359.36,1467.55 "/>
<polyline clip-path="url(#clip300)" style="stroke:#adb2b7; stroke-linecap:round; stroke-linejoin:round; stroke-width:4; stroke-opacity:1; fill:none" points="1894.27,1486.45 1894.27,1467.55 "/>
<path clip-path="url(#clip300)" d="M161.333 1544.91 L177.653 1544.91 L177.653 1548.85 L155.708 1548.85 L155.708 1544.91 Q158.37 1542.16 162.954 1537.53 Q167.56 1532.88 168.741 1531.53 Q170.986 1529.01 171.866 1527.27 Q172.769 1525.51 172.769 1523.82 Q172.769 1521.07 170.824 1519.33 Q168.903 1517.6 165.801 1517.6 Q163.602 1517.6 161.148 1518.36 Q158.718 1519.13 155.94 1520.68 L155.94 1515.95 Q158.764 1514.82 161.218 1514.24 Q163.671 1513.66 165.708 1513.66 Q171.079 1513.66 174.273 1516.35 Q177.468 1519.03 177.468 1523.52 Q177.468 1525.65 176.657 1527.57 Q175.87 1529.47 173.764 1532.07 Q173.185 1532.74 170.083 1535.95 Q166.982 1539.15 161.333 1544.91 Z" fill="#9eb1be" fill-rule="nonzero" fill-opacity="1" /><path clip-path="url(#clip300)" d="M197.468 1517.37 Q193.856 1517.37 192.028 1520.93 Q190.222 1524.47 190.222 1531.6 Q190.222 1538.71 192.028 1542.27 Q193.856 1545.82 197.468 1545.82 Q201.102 1545.82 202.907 1542.27 Q204.736 1538.71 204.736 1531.6 Q204.736 1524.47 202.907 1520.93 Q201.102 1517.37 197.468 1517.37 M197.468 1513.66 Q203.278 1513.66 206.333 1518.27 Q209.412 1522.85 209.412 1531.6 Q209.412 1540.33 206.333 1544.94 Q203.278 1549.52 197.468 1549.52 Q191.657 1549.52 188.579 1544.94 Q185.523 1540.33 185.523 1531.6 Q185.523 1522.85 188.579 1518.27 Q191.657 1513.66 197.468 1513.66 Z" fill="#9eb1be" fill-rule="nonzero" fill-opacity="1" /><path clip-path="url(#clip300)" d="M221.657 1544.91 L237.977 1544.91 L237.977 1548.85 L216.032 1548.85 L216.032 1544.91 Q218.694 1542.16 223.278 1537.53 Q227.884 1532.88 229.065 1531.53 Q231.31 1529.01 232.19 1527.27 Q233.092 1525.51 233.092 1523.82 Q233.092 1521.07 231.148 1519.33 Q229.227 1517.6 226.125 1517.6 Q223.926 1517.6 221.472 1518.36 Q219.041 1519.13 216.264 1520.68 L216.264 1515.95 Q219.088 1514.82 221.541 1514.24 Q223.995 1513.66 226.032 1513.66 Q231.403 1513.66 234.597 1516.35 Q237.791 1519.03 237.791 1523.52 Q237.791 1525.65 236.981 1527.57 Q236.194 1529.47 234.088 1532.07 Q233.509 1532.74 230.407 1535.95 Q227.305 1539.15 221.657 1544.91 Z" fill="#9eb1be" fill-rule="nonzero" fill-opacity="1" /><path clip-path="url(#clip300)" d="M260.638 1518.36 L248.833 1536.81 L260.638 1536.81 L260.638 1518.36 M259.412 1514.29 L265.291 1514.29 L265.291 1536.81 L270.222 1536.81 L270.222 1540.7 L265.291 1540.7 L265.291 1548.85 L260.638 1548.85 L260.638 1540.7 L245.037 1540.7 L245.037 1536.19 L259.412 1514.29 Z" fill="#9eb1be" fill-rule="nonzero" fill-opacity="1" /><path clip-path="url(#clip300)" d="M275.199 1533.96 L287.675 1533.96 L287.675 1537.76 L275.199 1537.76 L275.199 1533.96 Z" fill="#9eb1be" fill-rule="nonzero" fill-opacity="1" /><path clip-path="url(#clip300)" d="M305.06 1517.37 Q301.448 1517.37 299.62 1520.93 Q297.814 1524.47 297.814 1531.6 Q297.814 1538.71 299.62 1542.27 Q301.448 1545.82 305.06 1545.82 Q308.694 1545.82 310.499 1542.27 Q312.328 1538.71 312.328 1531.6 Q312.328 1524.47 310.499 1520.93 Q308.694 1517.37 305.06 1517.37 M305.06 1513.66 Q310.87 1513.66 313.925 1518.27 Q317.004 1522.85 317.004 1531.6 Q317.004 1540.33 313.925 1544.94 Q310.87 1549.52 305.06 1549.52 Q299.249 1549.52 296.171 1544.94 Q293.115 1540.33 293.115 1531.6 Q293.115 1522.85 296.171 1518.27 Q299.249 1513.66 305.06 1513.66 Z" fill="#9eb1be" fill-rule="nonzero" fill-opacity="1" /><path clip-path="url(#clip300)" d="M326.032 1544.91 L333.67 1544.91 L333.67 1518.55 L325.36 1520.21 L325.36 1515.95 L333.624 1514.29 L338.3 1514.29 L338.3 1544.91 L345.939 1544.91 L345.939 1548.85 L326.032 1548.85 L326.032 1544.91 Z" fill="#9eb1be" fill-rule="nonzero" fill-opacity="1" /><path clip-path="url(#clip300)" d="M352.629 1533.96 L365.105 1533.96 L365.105 1537.76 L352.629 1537.76 L352.629 1533.96 Z" fill="#9eb1be" fill-rule="nonzero" fill-opacity="1" /><path clip-path="url(#clip300)" d="M382.49 1517.37 Q378.879 1517.37 377.05 1520.93 Q375.244 1524.47 375.244 1531.6 Q375.244 1538.71 377.05 1542.27 Q378.879 1545.82 382.49 1545.82 Q386.124 1545.82 387.929 1542.27 Q389.758 1538.71 389.758 1531.6 Q389.758 1524.47 387.929 1520.93 Q386.124 1517.37 382.49 1517.37 M382.49 1513.66 Q388.3 1513.66 391.355 1518.27 Q394.434 1522.85 394.434 1531.6 Q394.434 1540.33 391.355 1544.94 Q388.3 1549.52 382.49 1549.52 Q376.68 1549.52 373.601 1544.94 Q370.545 1540.33 370.545 1531.6 Q370.545 1522.85 373.601 1518.27 Q376.68 1513.66 382.49 1513.66 Z" fill="#9eb1be" fill-rule="nonzero" fill-opacity="1" /><path clip-path="url(#clip300)" d="M403.462 1544.91 L411.101 1544.91 L411.101 1518.55 L402.79 1520.21 L402.79 1515.95 L411.054 1514.29 L415.73 1514.29 L415.73 1544.91 L423.369 1544.91 L423.369 1548.85 L403.462 1548.85 L403.462 1544.91 Z" fill="#9eb1be" fill-rule="nonzero" fill-opacity="1" /><path clip-path="url(#clip300)" d="M695.722 1544.91 L712.041 1544.91 L712.041 1548.85 L690.097 1548.85 L690.097 1544.91 Q692.759 1542.16 697.342 1537.53 Q701.949 1532.88 703.129 1531.53 Q705.375 1529.01 706.254 1527.27 Q707.157 1525.51 707.157 1523.82 Q707.157 1521.07 705.212 1519.33 Q703.291 1517.6 700.189 1517.6 Q697.99 1517.6 695.537 1518.36 Q693.106 1519.13 690.328 1520.68 L690.328 1515.95 Q693.152 1514.82 695.606 1514.24 Q698.06 1513.66 700.097 1513.66 Q705.467 1513.66 708.662 1516.35 Q711.856 1519.03 711.856 1523.52 Q711.856 1525.65 711.046 1527.57 Q710.259 1529.47 708.152 1532.07 Q707.574 1532.74 704.472 1535.95 Q701.37 1539.15 695.722 1544.91 Z" fill="#9eb1be" fill-rule="nonzero" fill-opacity="1" /><path clip-path="url(#clip300)" d="M731.856 1517.37 Q728.245 1517.37 726.416 1520.93 Q724.611 1524.47 724.611 1531.6 Q724.611 1538.71 726.416 1542.27 Q728.245 1545.82 731.856 1545.82 Q735.49 1545.82 737.296 1542.27 Q739.124 1538.71 739.124 1531.6 Q739.124 1524.47 737.296 1520.93 Q735.49 1517.37 731.856 1517.37 M731.856 1513.66 Q737.666 1513.66 740.722 1518.27 Q743.8 1522.85 743.8 1531.6 Q743.8 1540.33 740.722 1544.94 Q737.666 1549.52 731.856 1549.52 Q726.046 1549.52 722.967 1544.94 Q719.911 1540.33 719.911 1531.6 Q719.911 1522.85 722.967 1518.27 Q726.046 1513.66 731.856 1513.66 Z" fill="#9eb1be" fill-rule="nonzero" fill-opacity="1" /><path clip-path="url(#clip300)" d="M756.046 1544.91 L772.365 1544.91 L772.365 1548.85 L750.421 1548.85 L750.421 1544.91 Q753.083 1542.16 757.666 1537.53 Q762.272 1532.88 763.453 1531.53 Q765.698 1529.01 766.578 1527.27 Q767.481 1525.51 767.481 1523.82 Q767.481 1521.07 765.536 1519.33 Q763.615 1517.6 760.513 1517.6 Q758.314 1517.6 755.86 1518.36 Q753.43 1519.13 750.652 1520.68 L750.652 1515.95 Q753.476 1514.82 755.93 1514.24 Q758.383 1513.66 760.421 1513.66 Q765.791 1513.66 768.985 1516.35 Q772.18 1519.03 772.18 1523.52 Q772.18 1525.65 771.37 1527.57 Q770.582 1529.47 768.476 1532.07 Q767.897 1532.74 764.795 1535.95 Q761.694 1539.15 756.046 1544.91 Z" fill="#9eb1be" fill-rule="nonzero" fill-opacity="1" /><path clip-path="url(#clip300)" d="M795.027 1518.36 L783.221 1536.81 L795.027 1536.81 L795.027 1518.36 M793.8 1514.29 L799.68 1514.29 L799.68 1536.81 L804.61 1536.81 L804.61 1540.7 L799.68 1540.7 L799.68 1548.85 L795.027 1548.85 L795.027 1540.7 L779.425 1540.7 L779.425 1536.19 L793.8 1514.29 Z" fill="#9eb1be" fill-rule="nonzero" fill-opacity="1" /><path clip-path="url(#clip300)" d="M809.587 1533.96 L822.064 1533.96 L822.064 1537.76 L809.587 1537.76 L809.587 1533.96 Z" fill="#9eb1be" fill-rule="nonzero" fill-opacity="1" /><path clip-path="url(#clip300)" d="M839.448 1517.37 Q835.837 1517.37 834.008 1520.93 Q832.203 1524.47 832.203 1531.6 Q832.203 1538.71 834.008 1542.27 Q835.837 1545.82 839.448 1545.82 Q843.082 1545.82 844.888 1542.27 Q846.716 1538.71 846.716 1531.6 Q846.716 1524.47 844.888 1520.93 Q843.082 1517.37 839.448 1517.37 M839.448 1513.66 Q845.258 1513.66 848.314 1518.27 Q851.392 1522.85 851.392 1531.6 Q851.392 1540.33 848.314 1544.94 Q845.258 1549.52 839.448 1549.52 Q833.638 1549.52 830.559 1544.94 Q827.503 1540.33 827.503 1531.6 Q827.503 1522.85 830.559 1518.27 Q833.638 1513.66 839.448 1513.66 Z" fill="#9eb1be" fill-rule="nonzero" fill-opacity="1" /><path clip-path="url(#clip300)" d="M860.42 1544.91 L868.059 1544.91 L868.059 1518.55 L859.749 1520.21 L859.749 1515.95 L868.013 1514.29 L872.688 1514.29 L872.688 1544.91 L880.327 1544.91 L880.327 1548.85 L860.42 1548.85 L860.42 1544.91 Z" fill="#9eb1be" fill-rule="nonzero" fill-opacity="1" /><path clip-path="url(#clip300)" d="M887.017 1533.96 L899.494 1533.96 L899.494 1537.76 L887.017 1537.76 L887.017 1533.96 Z" fill="#9eb1be" fill-rule="nonzero" fill-opacity="1" /><path clip-path="url(#clip300)" d="M916.878 1517.37 Q913.267 1517.37 911.438 1520.93 Q909.633 1524.47 909.633 1531.6 Q909.633 1538.71 911.438 1542.27 Q913.267 1545.82 916.878 1545.82 Q920.512 1545.82 922.318 1542.27 Q924.146 1538.71 924.146 1531.6 Q924.146 1524.47 922.318 1520.93 Q920.512 1517.37 916.878 1517.37 M916.878 1513.66 Q922.688 1513.66 925.744 1518.27 Q928.822 1522.85 928.822 1531.6 Q928.822 1540.33 925.744 1544.94 Q922.688 1549.52 916.878 1549.52 Q911.068 1549.52 907.989 1544.94 Q904.934 1540.33 904.934 1531.6 Q904.934 1522.85 907.989 1518.27 Q911.068 1513.66 916.878 1513.66 Z" fill="#9eb1be" fill-rule="nonzero" fill-opacity="1" /><path clip-path="url(#clip300)" d="M937.179 1548.13 L937.179 1543.87 Q938.938 1544.7 940.744 1545.14 Q942.549 1545.58 944.285 1545.58 Q948.915 1545.58 951.345 1542.48 Q953.799 1539.36 954.146 1533.01 Q952.804 1535.01 950.744 1536.07 Q948.683 1537.13 946.183 1537.13 Q940.998 1537.13 937.966 1534.01 Q934.957 1530.86 934.957 1525.42 Q934.957 1520.1 938.105 1516.88 Q941.253 1513.66 946.484 1513.66 Q952.48 1513.66 955.628 1518.27 Q958.799 1522.85 958.799 1531.6 Q958.799 1539.77 954.91 1544.66 Q951.044 1549.52 944.494 1549.52 Q942.734 1549.52 940.929 1549.17 Q939.123 1548.82 937.179 1548.13 M946.484 1533.48 Q949.632 1533.48 951.461 1531.32 Q953.313 1529.17 953.313 1525.42 Q953.313 1521.7 951.461 1519.54 Q949.632 1517.37 946.484 1517.37 Q943.336 1517.37 941.484 1519.54 Q939.656 1521.7 939.656 1525.42 Q939.656 1529.17 941.484 1531.32 Q943.336 1533.48 946.484 1533.48 Z" fill="#9eb1be" fill-rule="nonzero" fill-opacity="1" /><path clip-path="url(#clip300)" d="M1230.99 1544.91 L1247.31 1544.91 L1247.31 1548.85 L1225.36 1548.85 L1225.36 1544.91 Q1228.03 1542.16 1232.61 1537.53 Q1237.22 1532.88 1238.4 1531.53 Q1240.64 1529.01 1241.52 1527.27 Q1242.42 1525.51 1242.42 1523.82 Q1242.42 1521.07 1240.48 1519.33 Q1238.56 1517.6 1235.46 1517.6 Q1233.26 1517.6 1230.8 1518.36 Q1228.37 1519.13 1225.6 1520.68 L1225.6 1515.95 Q1228.42 1514.82 1230.87 1514.24 Q1233.33 1513.66 1235.36 1513.66 Q1240.74 1513.66 1243.93 1516.35 Q1247.12 1519.03 1247.12 1523.52 Q1247.12 1525.65 1246.31 1527.57 Q1245.53 1529.47 1243.42 1532.07 Q1242.84 1532.74 1239.74 1535.95 Q1236.64 1539.15 1230.99 1544.91 Z" fill="#9eb1be" fill-rule="nonzero" fill-opacity="1" /><path clip-path="url(#clip300)" d="M1267.12 1517.37 Q1263.51 1517.37 1261.68 1520.93 Q1259.88 1524.47 1259.88 1531.6 Q1259.88 1538.71 1261.68 1542.27 Q1263.51 1545.82 1267.12 1545.82 Q1270.76 1545.82 1272.56 1542.27 Q1274.39 1538.71 1274.39 1531.6 Q1274.39 1524.47 1272.56 1520.93 Q1270.76 1517.37 1267.12 1517.37 M1267.12 1513.66 Q1272.93 1513.66 1275.99 1518.27 Q1279.07 1522.85 1279.07 1531.6 Q1279.07 1540.33 1275.99 1544.94 Q1272.93 1549.52 1267.12 1549.52 Q1261.31 1549.52 1258.23 1544.94 Q1255.18 1540.33 1255.18 1531.6 Q1255.18 1522.85 1258.23 1518.27 Q1261.31 1513.66 1267.12 1513.66 Z" fill="#9eb1be" fill-rule="nonzero" fill-opacity="1" /><path clip-path="url(#clip300)" d="M1291.31 1544.91 L1307.63 1544.91 L1307.63 1548.85 L1285.69 1548.85 L1285.69 1544.91 Q1288.35 1542.16 1292.93 1537.53 Q1297.54 1532.88 1298.72 1531.53 Q1300.97 1529.01 1301.85 1527.27 Q1302.75 1525.51 1302.75 1523.82 Q1302.75 1521.07 1300.8 1519.33 Q1298.88 1517.6 1295.78 1517.6 Q1293.58 1517.6 1291.13 1518.36 Q1288.7 1519.13 1285.92 1520.68 L1285.92 1515.95 Q1288.74 1514.82 1291.2 1514.24 Q1293.65 1513.66 1295.69 1513.66 Q1301.06 1513.66 1304.25 1516.35 Q1307.45 1519.03 1307.45 1523.52 Q1307.45 1525.65 1306.64 1527.57 Q1305.85 1529.47 1303.74 1532.07 Q1303.17 1532.74 1300.06 1535.95 Q1296.96 1539.15 1291.31 1544.91 Z" fill="#9eb1be" fill-rule="nonzero" fill-opacity="1" /><path clip-path="url(#clip300)" d="M1330.29 1518.36 L1318.49 1536.81 L1330.29 1536.81 L1330.29 1518.36 M1329.07 1514.29 L1334.95 1514.29 L1334.95 1536.81 L1339.88 1536.81 L1339.88 1540.7 L1334.95 1540.7 L1334.95 1548.85 L1330.29 1548.85 L1330.29 1540.7 L1314.69 1540.7 L1314.69 1536.19 L1329.07 1514.29 Z" fill="#9eb1be" fill-rule="nonzero" fill-opacity="1" /><path clip-path="url(#clip300)" d="M1344.85 1533.96 L1357.33 1533.96 L1357.33 1537.76 L1344.85 1537.76 L1344.85 1533.96 Z" fill="#9eb1be" fill-rule="nonzero" fill-opacity="1" /><path clip-path="url(#clip300)" d="M1374.72 1517.37 Q1371.1 1517.37 1369.28 1520.93 Q1367.47 1524.47 1367.47 1531.6 Q1367.47 1538.71 1369.28 1542.27 Q1371.1 1545.82 1374.72 1545.82 Q1378.35 1545.82 1380.16 1542.27 Q1381.98 1538.71 1381.98 1531.6 Q1381.98 1524.47 1380.16 1520.93 Q1378.35 1517.37 1374.72 1517.37 M1374.72 1513.66 Q1380.53 1513.66 1383.58 1518.27 Q1386.66 1522.85 1386.66 1531.6 Q1386.66 1540.33 1383.58 1544.94 Q1380.53 1549.52 1374.72 1549.52 Q1368.91 1549.52 1365.83 1544.94 Q1362.77 1540.33 1362.77 1531.6 Q1362.77 1522.85 1365.83 1518.27 Q1368.91 1513.66 1374.72 1513.66 Z" fill="#9eb1be" fill-rule="nonzero" fill-opacity="1" /><path clip-path="url(#clip300)" d="M1395.69 1544.91 L1403.33 1544.91 L1403.33 1518.55 L1395.02 1520.21 L1395.02 1515.95 L1403.28 1514.29 L1407.96 1514.29 L1407.96 1544.91 L1415.6 1544.91 L1415.6 1548.85 L1395.69 1548.85 L1395.69 1544.91 Z" fill="#9eb1be" fill-rule="nonzero" fill-opacity="1" /><path clip-path="url(#clip300)" d="M1422.29 1533.96 L1434.76 1533.96 L1434.76 1537.76 L1422.29 1537.76 L1422.29 1533.96 Z" fill="#9eb1be" fill-rule="nonzero" fill-opacity="1" /><path clip-path="url(#clip300)" d="M1442.96 1544.91 L1450.6 1544.91 L1450.6 1518.55 L1442.28 1520.21 L1442.28 1515.95 L1450.55 1514.29 L1455.22 1514.29 L1455.22 1544.91 L1462.86 1544.91 L1462.86 1548.85 L1442.96 1548.85 L1442.96 1544.91 Z" fill="#9eb1be" fill-rule="nonzero" fill-opacity="1" /><path clip-path="url(#clip300)" d="M1471.13 1514.29 L1493.35 1514.29 L1493.35 1516.28 L1480.8 1548.85 L1475.92 1548.85 L1487.72 1518.22 L1471.13 1518.22 L1471.13 1514.29 Z" fill="#9eb1be" fill-rule="nonzero" fill-opacity="1" /><path clip-path="url(#clip300)" d="M1765.95 1544.91 L1782.26 1544.91 L1782.26 1548.85 L1760.32 1548.85 L1760.32 1544.91 Q1762.98 1542.16 1767.57 1537.53 Q1772.17 1532.88 1773.35 1531.53 Q1775.6 1529.01 1776.48 1527.27 Q1777.38 1525.51 1777.38 1523.82 Q1777.38 1521.07 1775.44 1519.33 Q1773.51 1517.6 1770.41 1517.6 Q1768.21 1517.6 1765.76 1518.36 Q1763.33 1519.13 1760.55 1520.68 L1760.55 1515.95 Q1763.38 1514.82 1765.83 1514.24 Q1768.28 1513.66 1770.32 1513.66 Q1775.69 1513.66 1778.88 1516.35 Q1782.08 1519.03 1782.08 1523.52 Q1782.08 1525.65 1781.27 1527.57 Q1780.48 1529.47 1778.38 1532.07 Q1777.8 1532.74 1774.7 1535.95 Q1771.59 1539.15 1765.95 1544.91 Z" fill="#9eb1be" fill-rule="nonzero" fill-opacity="1" /><path clip-path="url(#clip300)" d="M1802.08 1517.37 Q1798.47 1517.37 1796.64 1520.93 Q1794.83 1524.47 1794.83 1531.6 Q1794.83 1538.71 1796.64 1542.27 Q1798.47 1545.82 1802.08 1545.82 Q1805.71 1545.82 1807.52 1542.27 Q1809.35 1538.71 1809.35 1531.6 Q1809.35 1524.47 1807.52 1520.93 Q1805.71 1517.37 1802.08 1517.37 M1802.08 1513.66 Q1807.89 1513.66 1810.94 1518.27 Q1814.02 1522.85 1814.02 1531.6 Q1814.02 1540.33 1810.94 1544.94 Q1807.89 1549.52 1802.08 1549.52 Q1796.27 1549.52 1793.19 1544.94 Q1790.13 1540.33 1790.13 1531.6 Q1790.13 1522.85 1793.19 1518.27 Q1796.27 1513.66 1802.08 1513.66 Z" fill="#9eb1be" fill-rule="nonzero" fill-opacity="1" /><path clip-path="url(#clip300)" d="M1826.27 1544.91 L1842.59 1544.91 L1842.59 1548.85 L1820.64 1548.85 L1820.64 1544.91 Q1823.31 1542.16 1827.89 1537.53 Q1832.5 1532.88 1833.68 1531.53 Q1835.92 1529.01 1836.8 1527.27 Q1837.7 1525.51 1837.7 1523.82 Q1837.7 1521.07 1835.76 1519.33 Q1833.84 1517.6 1830.74 1517.6 Q1828.54 1517.6 1826.08 1518.36 Q1823.65 1519.13 1820.88 1520.68 L1820.88 1515.95 Q1823.7 1514.82 1826.15 1514.24 Q1828.61 1513.66 1830.64 1513.66 Q1836.01 1513.66 1839.21 1516.35 Q1842.4 1519.03 1842.4 1523.52 Q1842.4 1525.65 1841.59 1527.57 Q1840.81 1529.47 1838.7 1532.07 Q1838.12 1532.74 1835.02 1535.95 Q1831.92 1539.15 1826.27 1544.91 Z" fill="#9eb1be" fill-rule="nonzero" fill-opacity="1" /><path clip-path="url(#clip300)" d="M1865.25 1518.36 L1853.44 1536.81 L1865.25 1536.81 L1865.25 1518.36 M1864.02 1514.29 L1869.9 1514.29 L1869.9 1536.81 L1874.83 1536.81 L1874.83 1540.7 L1869.9 1540.7 L1869.9 1548.85 L1865.25 1548.85 L1865.25 1540.7 L1849.65 1540.7 L1849.65 1536.19 L1864.02 1514.29 Z" fill="#9eb1be" fill-rule="nonzero" fill-opacity="1" /><path clip-path="url(#clip300)" d="M1879.81 1533.96 L1892.29 1533.96 L1892.29 1537.76 L1879.81 1537.76 L1879.81 1533.96 Z" fill="#9eb1be" fill-rule="nonzero" fill-opacity="1" /><path clip-path="url(#clip300)" d="M1909.67 1517.37 Q1906.06 1517.37 1904.23 1520.93 Q1902.43 1524.47 1902.43 1531.6 Q1902.43 1538.71 1904.23 1542.27 Q1906.06 1545.82 1909.67 1545.82 Q1913.31 1545.82 1915.11 1542.27 Q1916.94 1538.71 1916.94 1531.6 Q1916.94 1524.47 1915.11 1520.93 Q1913.31 1517.37 1909.67 1517.37 M1909.67 1513.66 Q1915.48 1513.66 1918.54 1518.27 Q1921.62 1522.85 1921.62 1531.6 Q1921.62 1540.33 1918.54 1544.94 Q1915.48 1549.52 1909.67 1549.52 Q1903.86 1549.52 1900.78 1544.94 Q1897.73 1540.33 1897.73 1531.6 Q1897.73 1522.85 1900.78 1518.27 Q1903.86 1513.66 1909.67 1513.66 Z" fill="#9eb1be" fill-rule="nonzero" fill-opacity="1" /><path clip-path="url(#clip300)" d="M1930.64 1544.91 L1938.28 1544.91 L1938.28 1518.55 L1929.97 1520.21 L1929.97 1515.95 L1938.24 1514.29 L1942.91 1514.29 L1942.91 1544.91 L1950.55 1544.91 L1950.55 1548.85 L1930.64 1548.85 L1930.64 1544.91 Z" fill="#9eb1be" fill-rule="nonzero" fill-opacity="1" /><path clip-path="url(#clip300)" d="M1957.24 1533.96 L1969.72 1533.96 L1969.72 1537.76 L1957.24 1537.76 L1957.24 1533.96 Z" fill="#9eb1be" fill-rule="nonzero" fill-opacity="1" /><path clip-path="url(#clip300)" d="M1981.13 1544.91 L1997.45 1544.91 L1997.45 1548.85 L1975.5 1548.85 L1975.5 1544.91 Q1978.17 1542.16 1982.75 1537.53 Q1987.36 1532.88 1988.54 1531.53 Q1990.78 1529.01 1991.66 1527.27 Q1992.56 1525.51 1992.56 1523.82 Q1992.56 1521.07 1990.62 1519.33 Q1988.7 1517.6 1985.6 1517.6 Q1983.4 1517.6 1980.94 1518.36 Q1978.51 1519.13 1975.74 1520.68 L1975.74 1515.95 Q1978.56 1514.82 1981.01 1514.24 Q1983.47 1513.66 1985.5 1513.66 Q1990.87 1513.66 1994.07 1516.35 Q1997.26 1519.03 1997.26 1523.52 Q1997.26 1525.65 1996.45 1527.57 Q1995.67 1529.47 1993.56 1532.07 Q1992.98 1532.74 1989.88 1535.95 Q1986.78 1539.15 1981.13 1544.91 Z" fill="#9eb1be" fill-rule="nonzero" fill-opacity="1" /><path clip-path="url(#clip300)" d="M2007.31 1514.29 L2025.67 1514.29 L2025.67 1518.22 L2011.59 1518.22 L2011.59 1526.7 Q2012.61 1526.35 2013.63 1526.19 Q2014.65 1526 2015.67 1526 Q2021.45 1526 2024.83 1529.17 Q2028.21 1532.34 2028.21 1537.76 Q2028.21 1543.34 2024.74 1546.44 Q2021.27 1549.52 2014.95 1549.52 Q2012.77 1549.52 2010.5 1549.15 Q2008.26 1548.78 2005.85 1548.04 L2005.85 1543.34 Q2007.93 1544.47 2010.16 1545.03 Q2012.38 1545.58 2014.86 1545.58 Q2018.86 1545.58 2021.2 1543.48 Q2023.54 1541.37 2023.54 1537.76 Q2023.54 1534.15 2021.2 1532.04 Q2018.86 1529.94 2014.86 1529.94 Q2012.98 1529.94 2011.11 1530.35 Q2009.25 1530.77 2007.31 1531.65 L2007.31 1514.29 Z" fill="#9eb1be" fill-rule="nonzero" fill-opacity="1" /><polyline clip-path="url(#clip300)" style="stroke:#adb2b7; stroke-linecap:round; stroke-linejoin:round; stroke-width:4; stroke-opacity:1; fill:none" points="229.445,1486.45 229.445,123.472 "/>
<polyline clip-path="url(#clip300)" style="stroke:#adb2b7; stroke-linecap:round; stroke-linejoin:round; stroke-width:4; stroke-opacity:1; fill:none" points="229.445,1307.2 248.343,1307.2 "/>
<polyline clip-path="url(#clip300)" style="stroke:#adb2b7; stroke-linecap:round; stroke-linejoin:round; stroke-width:4; stroke-opacity:1; fill:none" points="229.445,1028.08 248.343,1028.08 "/>
<polyline clip-path="url(#clip300)" style="stroke:#adb2b7; stroke-linecap:round; stroke-linejoin:round; stroke-width:4; stroke-opacity:1; fill:none" points="229.445,748.965 248.343,748.965 "/>
<polyline clip-path="url(#clip300)" style="stroke:#adb2b7; stroke-linecap:round; stroke-linejoin:round; stroke-width:4; stroke-opacity:1; fill:none" points="229.445,469.85 248.343,469.85 "/>
<polyline clip-path="url(#clip300)" style="stroke:#adb2b7; stroke-linecap:round; stroke-linejoin:round; stroke-width:4; stroke-opacity:1; fill:none" points="229.445,190.735 248.343,190.735 "/>
<path clip-path="url(#clip300)" d="M51.6634 1320.54 L59.3023 1320.54 L59.3023 1294.17 L50.9921 1295.84 L50.9921 1291.58 L59.256 1289.92 L63.9319 1289.92 L63.9319 1320.54 L71.5707 1320.54 L71.5707 1324.48 L51.6634 1324.48 L51.6634 1320.54 Z" fill="#9eb1be" fill-rule="nonzero" fill-opacity="1" /><path clip-path="url(#clip300)" d="M91.0151 1292.99 Q87.404 1292.99 85.5753 1296.56 Q83.7697 1300.1 83.7697 1307.23 Q83.7697 1314.34 85.5753 1317.9 Q87.404 1321.44 91.0151 1321.44 Q94.6493 1321.44 96.4548 1317.9 Q98.2835 1314.34 98.2835 1307.23 Q98.2835 1300.1 96.4548 1296.56 Q94.6493 1292.99 91.0151 1292.99 M91.0151 1289.29 Q96.8252 1289.29 99.8808 1293.9 Q102.959 1298.48 102.959 1307.23 Q102.959 1315.96 99.8808 1320.56 Q96.8252 1325.15 91.0151 1325.15 Q85.2049 1325.15 82.1262 1320.56 Q79.0707 1315.96 79.0707 1307.23 Q79.0707 1298.48 82.1262 1293.9 Q85.2049 1289.29 91.0151 1289.29 Z" fill="#9eb1be" fill-rule="nonzero" fill-opacity="1" /><path clip-path="url(#clip300)" d="M121.177 1292.99 Q117.566 1292.99 115.737 1296.56 Q113.932 1300.1 113.932 1307.23 Q113.932 1314.34 115.737 1317.9 Q117.566 1321.44 121.177 1321.44 Q124.811 1321.44 126.617 1317.9 Q128.445 1314.34 128.445 1307.23 Q128.445 1300.1 126.617 1296.56 Q124.811 1292.99 121.177 1292.99 M121.177 1289.29 Q126.987 1289.29 130.043 1293.9 Q133.121 1298.48 133.121 1307.23 Q133.121 1315.96 130.043 1320.56 Q126.987 1325.15 121.177 1325.15 Q115.367 1325.15 112.288 1320.56 Q109.233 1315.96 109.233 1307.23 Q109.233 1298.48 112.288 1293.9 Q115.367 1289.29 121.177 1289.29 Z" fill="#9eb1be" fill-rule="nonzero" fill-opacity="1" /><path clip-path="url(#clip300)" d="M151.339 1292.99 Q147.728 1292.99 145.899 1296.56 Q144.093 1300.1 144.093 1307.23 Q144.093 1314.34 145.899 1317.9 Q147.728 1321.44 151.339 1321.44 Q154.973 1321.44 156.779 1317.9 Q158.607 1314.34 158.607 1307.23 Q158.607 1300.1 156.779 1296.56 Q154.973 1292.99 151.339 1292.99 M151.339 1289.29 Q157.149 1289.29 160.205 1293.9 Q163.283 1298.48 163.283 1307.23 Q163.283 1315.96 160.205 1320.56 Q157.149 1325.15 151.339 1325.15 Q145.529 1325.15 142.45 1320.56 Q139.394 1315.96 139.394 1307.23 Q139.394 1298.48 142.45 1293.9 Q145.529 1289.29 151.339 1289.29 Z" fill="#9eb1be" fill-rule="nonzero" fill-opacity="1" /><path clip-path="url(#clip300)" d="M181.501 1292.99 Q177.89 1292.99 176.061 1296.56 Q174.255 1300.1 174.255 1307.23 Q174.255 1314.34 176.061 1317.9 Q177.89 1321.44 181.501 1321.44 Q185.135 1321.44 186.94 1317.9 Q188.769 1314.34 188.769 1307.23 Q188.769 1300.1 186.94 1296.56 Q185.135 1292.99 181.501 1292.99 M181.501 1289.29 Q187.311 1289.29 190.366 1293.9 Q193.445 1298.48 193.445 1307.23 Q193.445 1315.96 190.366 1320.56 Q187.311 1325.15 181.501 1325.15 Q175.691 1325.15 172.612 1320.56 Q169.556 1315.96 169.556 1307.23 Q169.556 1298.48 172.612 1293.9 Q175.691 1289.29 181.501 1289.29 Z" fill="#9eb1be" fill-rule="nonzero" fill-opacity="1" /><path clip-path="url(#clip300)" d="M51.6634 1041.43 L59.3023 1041.43 L59.3023 1015.06 L50.9921 1016.73 L50.9921 1012.47 L59.256 1010.8 L63.9319 1010.8 L63.9319 1041.43 L71.5707 1041.43 L71.5707 1045.36 L51.6634 1045.36 L51.6634 1041.43 Z" fill="#9eb1be" fill-rule="nonzero" fill-opacity="1" /><path clip-path="url(#clip300)" d="M91.0151 1013.88 Q87.404 1013.88 85.5753 1017.44 Q83.7697 1020.99 83.7697 1028.12 Q83.7697 1035.22 85.5753 1038.79 Q87.404 1042.33 91.0151 1042.33 Q94.6493 1042.33 96.4548 1038.79 Q98.2835 1035.22 98.2835 1028.12 Q98.2835 1020.99 96.4548 1017.44 Q94.6493 1013.88 91.0151 1013.88 M91.0151 1010.18 Q96.8252 1010.18 99.8808 1014.78 Q102.959 1019.37 102.959 1028.12 Q102.959 1036.84 99.8808 1041.45 Q96.8252 1046.03 91.0151 1046.03 Q85.2049 1046.03 82.1262 1041.45 Q79.0707 1036.84 79.0707 1028.12 Q79.0707 1019.37 82.1262 1014.78 Q85.2049 1010.18 91.0151 1010.18 Z" fill="#9eb1be" fill-rule="nonzero" fill-opacity="1" /><path clip-path="url(#clip300)" d="M111.223 1010.8 L129.58 1010.8 L129.58 1014.74 L115.506 1014.74 L115.506 1023.21 Q116.524 1022.86 117.543 1022.7 Q118.561 1022.51 119.58 1022.51 Q125.367 1022.51 128.746 1025.68 Q132.126 1028.86 132.126 1034.27 Q132.126 1039.85 128.654 1042.95 Q125.182 1046.03 118.862 1046.03 Q116.686 1046.03 114.418 1045.66 Q112.172 1045.29 109.765 1044.55 L109.765 1039.85 Q111.848 1040.99 114.07 1041.54 Q116.293 1042.1 118.77 1042.1 Q122.774 1042.1 125.112 1039.99 Q127.45 1037.88 127.45 1034.27 Q127.45 1030.66 125.112 1028.55 Q122.774 1026.45 118.77 1026.45 Q116.895 1026.45 115.02 1026.87 Q113.168 1027.28 111.223 1028.16 L111.223 1010.8 Z" fill="#9eb1be" fill-rule="nonzero" fill-opacity="1" /><path clip-path="url(#clip300)" d="M151.339 1013.88 Q147.728 1013.88 145.899 1017.44 Q144.093 1020.99 144.093 1028.12 Q144.093 1035.22 145.899 1038.79 Q147.728 1042.33 151.339 1042.33 Q154.973 1042.33 156.779 1038.79 Q158.607 1035.22 158.607 1028.12 Q158.607 1020.99 156.779 1017.44 Q154.973 1013.88 151.339 1013.88 M151.339 1010.18 Q157.149 1010.18 160.205 1014.78 Q163.283 1019.37 163.283 1028.12 Q163.283 1036.84 160.205 1041.45 Q157.149 1046.03 151.339 1046.03 Q145.529 1046.03 142.45 1041.45 Q139.394 1036.84 139.394 1028.12 Q139.394 1019.37 142.45 1014.78 Q145.529 1010.18 151.339 1010.18 Z" fill="#9eb1be" fill-rule="nonzero" fill-opacity="1" /><path clip-path="url(#clip300)" d="M181.501 1013.88 Q177.89 1013.88 176.061 1017.44 Q174.255 1020.99 174.255 1028.12 Q174.255 1035.22 176.061 1038.79 Q177.89 1042.33 181.501 1042.33 Q185.135 1042.33 186.94 1038.79 Q188.769 1035.22 188.769 1028.12 Q188.769 1020.99 186.94 1017.44 Q185.135 1013.88 181.501 1013.88 M181.501 1010.18 Q187.311 1010.18 190.366 1014.78 Q193.445 1019.37 193.445 1028.12 Q193.445 1036.84 190.366 1041.45 Q187.311 1046.03 181.501 1046.03 Q175.691 1046.03 172.612 1041.45 Q169.556 1036.84 169.556 1028.12 Q169.556 1019.37 172.612 1014.78 Q175.691 1010.18 181.501 1010.18 Z" fill="#9eb1be" fill-rule="nonzero" fill-opacity="1" /><path clip-path="url(#clip300)" d="M51.6634 762.31 L59.3023 762.31 L59.3023 735.945 L50.9921 737.611 L50.9921 733.352 L59.256 731.685 L63.9319 731.685 L63.9319 762.31 L71.5707 762.31 L71.5707 766.245 L51.6634 766.245 L51.6634 762.31 Z" fill="#9eb1be" fill-rule="nonzero" fill-opacity="1" /><path clip-path="url(#clip300)" d="M81.8253 762.31 L89.4641 762.31 L89.4641 735.945 L81.154 737.611 L81.154 733.352 L89.4178 731.685 L94.0937 731.685 L94.0937 762.31 L101.733 762.31 L101.733 766.245 L81.8253 766.245 L81.8253 762.31 Z" fill="#9eb1be" fill-rule="nonzero" fill-opacity="1" /><path clip-path="url(#clip300)" d="M121.177 734.764 Q117.566 734.764 115.737 738.329 Q113.932 741.87 113.932 749 Q113.932 756.106 115.737 759.671 Q117.566 763.213 121.177 763.213 Q124.811 763.213 126.617 759.671 Q128.445 756.106 128.445 749 Q128.445 741.87 126.617 738.329 Q124.811 734.764 121.177 734.764 M121.177 731.06 Q126.987 731.06 130.043 735.667 Q133.121 740.25 133.121 749 Q133.121 757.727 130.043 762.333 Q126.987 766.917 121.177 766.917 Q115.367 766.917 112.288 762.333 Q109.233 757.727 109.233 749 Q109.233 740.25 112.288 735.667 Q115.367 731.06 121.177 731.06 Z" fill="#9eb1be" fill-rule="nonzero" fill-opacity="1" /><path clip-path="url(#clip300)" d="M151.339 734.764 Q147.728 734.764 145.899 738.329 Q144.093 741.87 144.093 749 Q144.093 756.106 145.899 759.671 Q147.728 763.213 151.339 763.213 Q154.973 763.213 156.779 759.671 Q158.607 756.106 158.607 749 Q158.607 741.87 156.779 738.329 Q154.973 734.764 151.339 734.764 M151.339 731.06 Q157.149 731.06 160.205 735.667 Q163.283 740.25 163.283 749 Q163.283 757.727 160.205 762.333 Q157.149 766.917 151.339 766.917 Q145.529 766.917 142.45 762.333 Q139.394 757.727 139.394 749 Q139.394 740.25 142.45 735.667 Q145.529 731.06 151.339 731.06 Z" fill="#9eb1be" fill-rule="nonzero" fill-opacity="1" /><path clip-path="url(#clip300)" d="M181.501 734.764 Q177.89 734.764 176.061 738.329 Q174.255 741.87 174.255 749 Q174.255 756.106 176.061 759.671 Q177.89 763.213 181.501 763.213 Q185.135 763.213 186.94 759.671 Q188.769 756.106 188.769 749 Q188.769 741.87 186.94 738.329 Q185.135 734.764 181.501 734.764 M181.501 731.06 Q187.311 731.06 190.366 735.667 Q193.445 740.25 193.445 749 Q193.445 757.727 190.366 762.333 Q187.311 766.917 181.501 766.917 Q175.691 766.917 172.612 762.333 Q169.556 757.727 169.556 749 Q169.556 740.25 172.612 735.667 Q175.691 731.06 181.501 731.06 Z" fill="#9eb1be" fill-rule="nonzero" fill-opacity="1" /><path clip-path="url(#clip300)" d="M51.6634 483.195 L59.3023 483.195 L59.3023 456.829 L50.9921 458.496 L50.9921 454.237 L59.256 452.57 L63.9319 452.57 L63.9319 483.195 L71.5707 483.195 L71.5707 487.13 L51.6634 487.13 L51.6634 483.195 Z" fill="#9eb1be" fill-rule="nonzero" fill-opacity="1" /><path clip-path="url(#clip300)" d="M81.8253 483.195 L89.4641 483.195 L89.4641 456.829 L81.154 458.496 L81.154 454.237 L89.4178 452.57 L94.0937 452.57 L94.0937 483.195 L101.733 483.195 L101.733 487.13 L81.8253 487.13 L81.8253 483.195 Z" fill="#9eb1be" fill-rule="nonzero" fill-opacity="1" /><path clip-path="url(#clip300)" d="M111.223 452.57 L129.58 452.57 L129.58 456.505 L115.506 456.505 L115.506 464.978 Q116.524 464.63 117.543 464.468 Q118.561 464.283 119.58 464.283 Q125.367 464.283 128.746 467.454 Q132.126 470.626 132.126 476.042 Q132.126 481.621 128.654 484.723 Q125.182 487.802 118.862 487.802 Q116.686 487.802 114.418 487.431 Q112.172 487.061 109.765 486.32 L109.765 481.621 Q111.848 482.755 114.07 483.311 Q116.293 483.866 118.77 483.866 Q122.774 483.866 125.112 481.76 Q127.45 479.653 127.45 476.042 Q127.45 472.431 125.112 470.325 Q122.774 468.218 118.77 468.218 Q116.895 468.218 115.02 468.635 Q113.168 469.052 111.223 469.931 L111.223 452.57 Z" fill="#9eb1be" fill-rule="nonzero" fill-opacity="1" /><path clip-path="url(#clip300)" d="M151.339 455.649 Q147.728 455.649 145.899 459.214 Q144.093 462.755 144.093 469.885 Q144.093 476.991 145.899 480.556 Q147.728 484.098 151.339 484.098 Q154.973 484.098 156.779 480.556 Q158.607 476.991 158.607 469.885 Q158.607 462.755 156.779 459.214 Q154.973 455.649 151.339 455.649 M151.339 451.945 Q157.149 451.945 160.205 456.552 Q163.283 461.135 163.283 469.885 Q163.283 478.612 160.205 483.218 Q157.149 487.802 151.339 487.802 Q145.529 487.802 142.45 483.218 Q139.394 478.612 139.394 469.885 Q139.394 461.135 142.45 456.552 Q145.529 451.945 151.339 451.945 Z" fill="#9eb1be" fill-rule="nonzero" fill-opacity="1" /><path clip-path="url(#clip300)" d="M181.501 455.649 Q177.89 455.649 176.061 459.214 Q174.255 462.755 174.255 469.885 Q174.255 476.991 176.061 480.556 Q177.89 484.098 181.501 484.098 Q185.135 484.098 186.94 480.556 Q188.769 476.991 188.769 469.885 Q188.769 462.755 186.94 459.214 Q185.135 455.649 181.501 455.649 M181.501 451.945 Q187.311 451.945 190.366 456.552 Q193.445 461.135 193.445 469.885 Q193.445 478.612 190.366 483.218 Q187.311 487.802 181.501 487.802 Q175.691 487.802 172.612 483.218 Q169.556 478.612 169.556 469.885 Q169.556 461.135 172.612 456.552 Q175.691 451.945 181.501 451.945 Z" fill="#9eb1be" fill-rule="nonzero" fill-opacity="1" /><path clip-path="url(#clip300)" d="M51.6634 204.08 L59.3023 204.08 L59.3023 177.714 L50.9921 179.381 L50.9921 175.122 L59.256 173.455 L63.9319 173.455 L63.9319 204.08 L71.5707 204.08 L71.5707 208.015 L51.6634 208.015 L51.6634 204.08 Z" fill="#9eb1be" fill-rule="nonzero" fill-opacity="1" /><path clip-path="url(#clip300)" d="M85.0429 204.08 L101.362 204.08 L101.362 208.015 L79.4179 208.015 L79.4179 204.08 Q82.0799 201.325 86.6632 196.696 Q91.2697 192.043 92.4502 190.7 Q94.6956 188.177 95.5752 186.441 Q96.478 184.682 96.478 182.992 Q96.478 180.238 94.5336 178.501 Q92.6123 176.765 89.5104 176.765 Q87.3114 176.765 84.8577 177.529 Q82.4271 178.293 79.6494 179.844 L79.6494 175.122 Q82.4734 173.988 84.9271 173.409 Q87.3808 172.83 89.4178 172.83 Q94.7882 172.83 97.9826 175.515 Q101.177 178.201 101.177 182.691 Q101.177 184.821 100.367 186.742 Q99.5798 188.64 97.4734 191.233 Q96.8947 191.904 93.7928 195.122 Q90.691 198.316 85.0429 204.08 Z" fill="#9eb1be" fill-rule="nonzero" fill-opacity="1" /><path clip-path="url(#clip300)" d="M121.177 176.534 Q117.566 176.534 115.737 180.099 Q113.932 183.64 113.932 190.77 Q113.932 197.876 115.737 201.441 Q117.566 204.983 121.177 204.983 Q124.811 204.983 126.617 201.441 Q128.445 197.876 128.445 190.77 Q128.445 183.64 126.617 180.099 Q124.811 176.534 121.177 176.534 M121.177 172.83 Q126.987 172.83 130.043 177.437 Q133.121 182.02 133.121 190.77 Q133.121 199.497 130.043 204.103 Q126.987 208.686 121.177 208.686 Q115.367 208.686 112.288 204.103 Q109.233 199.497 109.233 190.77 Q109.233 182.02 112.288 177.437 Q115.367 172.83 121.177 172.83 Z" fill="#9eb1be" fill-rule="nonzero" fill-opacity="1" /><path clip-path="url(#clip300)" d="M151.339 176.534 Q147.728 176.534 145.899 180.099 Q144.093 183.64 144.093 190.77 Q144.093 197.876 145.899 201.441 Q147.728 204.983 151.339 204.983 Q154.973 204.983 156.779 201.441 Q158.607 197.876 158.607 190.77 Q158.607 183.64 156.779 180.099 Q154.973 176.534 151.339 176.534 M151.339 172.83 Q157.149 172.83 160.205 177.437 Q163.283 182.02 163.283 190.77 Q163.283 199.497 160.205 204.103 Q157.149 208.686 151.339 208.686 Q145.529 208.686 142.45 204.103 Q139.394 199.497 139.394 190.77 Q139.394 182.02 142.45 177.437 Q145.529 172.83 151.339 172.83 Z" fill="#9eb1be" fill-rule="nonzero" fill-opacity="1" /><path clip-path="url(#clip300)" d="M181.501 176.534 Q177.89 176.534 176.061 180.099 Q174.255 183.64 174.255 190.77 Q174.255 197.876 176.061 201.441 Q177.89 204.983 181.501 204.983 Q185.135 204.983 186.94 201.441 Q188.769 197.876 188.769 190.77 Q188.769 183.64 186.94 180.099 Q185.135 176.534 181.501 176.534 M181.501 172.83 Q187.311 172.83 190.366 177.437 Q193.445 182.02 193.445 190.77 Q193.445 199.497 190.366 204.103 Q187.311 208.686 181.501 208.686 Q175.691 208.686 172.612 204.103 Q169.556 199.497 169.556 190.77 Q169.556 182.02 172.612 177.437 Q175.691 172.83 181.501 172.83 Z" fill="#9eb1be" fill-rule="nonzero" fill-opacity="1" /><path clip-path="url(#clip300)" d="M1165.24 12.096 L1203.48 12.096 L1203.48 18.9825 L1173.42 18.9825 L1173.42 36.8875 L1202.22 36.8875 L1202.22 43.7741 L1173.42 43.7741 L1173.42 65.6895 L1204.21 65.6895 L1204.21 72.576 L1165.24 72.576 L1165.24 12.096 Z" fill="#adb2b7" fill-rule="nonzero" fill-opacity="1" /><path clip-path="url(#clip300)" d="M1221.79 49.9314 Q1221.79 58.1548 1225.15 62.8538 Q1228.55 67.5124 1234.47 67.5124 Q1240.38 67.5124 1243.79 62.8538 Q1247.19 58.1548 1247.19 49.9314 Q1247.19 41.7081 1243.79 37.0496 Q1240.38 32.3505 1234.47 32.3505 Q1228.55 32.3505 1225.15 37.0496 Q1221.79 41.7081 1221.79 49.9314 M1247.19 65.7705 Q1244.84 69.8214 1241.23 71.8063 Q1237.67 73.7508 1232.65 73.7508 Q1224.42 73.7508 1219.24 67.1883 Q1214.09 60.6258 1214.09 49.9314 Q1214.09 39.2371 1219.24 32.6746 Q1224.42 26.1121 1232.65 26.1121 Q1237.67 26.1121 1241.23 28.0971 Q1244.84 30.0415 1247.19 34.0924 L1247.19 27.2059 L1254.64 27.2059 L1254.64 89.8329 L1247.19 89.8329 L1247.19 65.7705 Z" fill="#adb2b7" fill-rule="nonzero" fill-opacity="1" /><path clip-path="url(#clip300)" d="M1269.23 54.671 L1269.23 27.2059 L1276.68 27.2059 L1276.68 54.3874 Q1276.68 60.8284 1279.19 64.0691 Q1281.7 67.2693 1286.73 67.2693 Q1292.76 67.2693 1296.25 63.421 Q1299.77 59.5726 1299.77 52.9291 L1299.77 27.2059 L1307.22 27.2059 L1307.22 72.576 L1299.77 72.576 L1299.77 65.6084 Q1297.06 69.7404 1293.45 71.7658 Q1289.89 73.7508 1285.15 73.7508 Q1277.33 73.7508 1273.28 68.8897 Q1269.23 64.0286 1269.23 54.671 M1287.98 26.1121 L1287.98 26.1121 Z" fill="#adb2b7" fill-rule="nonzero" fill-opacity="1" /><path clip-path="url(#clip300)" d="M1322.58 27.2059 L1330.03 27.2059 L1330.03 72.576 L1322.58 72.576 L1322.58 27.2059 M1322.58 9.54393 L1330.03 9.54393 L1330.03 18.9825 L1322.58 18.9825 L1322.58 9.54393 Z" fill="#adb2b7" fill-rule="nonzero" fill-opacity="1" /><path clip-path="url(#clip300)" d="M1353 14.324 L1353 27.2059 L1368.35 27.2059 L1368.35 32.9987 L1353 32.9987 L1353 57.6282 Q1353 63.1779 1354.5 64.7578 Q1356.04 66.3376 1360.7 66.3376 L1368.35 66.3376 L1368.35 72.576 L1360.7 72.576 Q1352.07 72.576 1348.79 69.3758 Q1345.5 66.1351 1345.5 57.6282 L1345.5 32.9987 L1340.04 32.9987 L1340.04 27.2059 L1345.5 27.2059 L1345.5 14.324 L1353 14.324 Z" fill="#adb2b7" fill-rule="nonzero" fill-opacity="1" /><path clip-path="url(#clip300)" d="M1397.03 76.7889 Q1393.87 84.8907 1390.87 87.3618 Q1387.88 89.8329 1382.85 89.8329 L1376.9 89.8329 L1376.9 83.5945 L1381.27 83.5945 Q1384.35 83.5945 1386.05 82.1361 Q1387.76 80.6778 1389.82 75.2496 L1391.16 71.8468 L1372.81 27.2059 L1380.71 27.2059 L1394.88 62.6918 L1409.06 27.2059 L1416.96 27.2059 L1397.03 76.7889 Z" fill="#adb2b7" fill-rule="nonzero" fill-opacity="1" /><polyline clip-path="url(#clip301)" style="stroke:#bbbb00; stroke-linecap:round; stroke-linejoin:round; stroke-width:4; stroke-opacity:1; fill:none" points="289.539,1307.2 292.325,1307.2 295.111,1307.2 297.897,1307.2 300.683,1307.2 303.469,1307.2 306.255,1307.2 309.041,1307.2 311.827,1307.2 314.613,1307.2 317.399,1307.2 320.185,1307.2 322.971,1307.2 325.757,1307.2 328.543,1307.2 331.329,1307.2 334.115,1307.2 336.901,1307.2 339.687,1307.2 342.472,1307.2 345.258,1307.2 348.044,1307.2 350.83,1307.2 353.616,1307.2 353.616,1311.77 356.402,1311.77 356.402,1325.47 359.188,1325.47 359.188,1330.17 361.974,1330.17 361.974,1352.28 364.76,1352.28 367.546,1352.28 370.332,1352.28 373.118,1352.28 375.904,1352.28 378.69,1352.28 381.476,1352.28 381.476,1356.85 384.262,1356.85 384.262,1370.12 387.048,1370.12 387.048,1388.25 389.834,1388.25 389.834,1404.91 392.62,1404.91 392.62,1409.14 395.406,1409.14 395.406,1415.37 398.192,1415.37 398.192,1443.32 400.978,1443.32 403.764,1443.32 406.55,1443.32 406.55,1447.87 409.336,1447.87 409.336,1441.69 412.122,1441.69 412.122,1421.78 414.908,1421.78 414.908,1394.7 417.694,1394.7 417.694,1351.49 420.48,1351.49 420.48,1315.93 423.266,1315.93 423.266,1327.09 426.052,1327.09 426.052,1295.16 428.838,1295.16 428.838,1279.52 431.624,1279.52 431.624,1263.33 434.41,1263.33 434.41,1275.48 437.196,1275.48 437.196,1275.31 439.982,1275.31 439.982,1298.76 442.768,1298.76 442.768,1268.06 445.554,1268.06 445.554,1274.91 448.34,1274.91 448.34,1269.75 451.126,1269.75 451.126,1249.61 453.912,1249.61 453.912,1197.77 456.698,1197.77 456.698,1166.42 459.484,1166.42 459.484,1168.99 462.27,1168.99 462.27,1128.76 465.056,1128.76 465.056,1105.69 467.842,1105.69 467.842,1069.99 470.628,1069.99 470.628,1081.89 473.414,1081.89 473.414,1077.12 476.2,1077.12 476.2,1029.84 478.986,1029.84 478.986,1022.1 481.772,1022.1 481.772,1031.15 484.558,1031.15 484.558,1011.59 487.344,1011.59 487.344,1012.4 490.13,1012.4 490.13,1001.86 492.916,1001.86 492.916,1018.11 495.702,1018.11 495.702,1015.81 498.488,1015.81 498.488,985.615 501.274,985.615 501.274,978.615 504.06,978.615 504.06,972.618 506.846,972.618 506.846,969.732 509.632,969.732 509.632,966.685 512.418,966.685 512.418,936.459 515.204,936.459 515.204,929.092 517.99,929.092 517.99,943.347 520.776,943.347 520.776,928.653 523.562,928.653 523.562,916.057 526.348,916.057 526.348,951.216 529.134,951.216 529.134,952.052 531.919,952.052 531.919,939.394 534.705,939.394 534.705,953.863 537.491,953.863 537.491,975.185 540.277,975.185 543.063,975.185 543.063,979.752 545.849,979.752 545.849,972.751 548.635,972.751 548.635,1022.83 551.421,1022.83 551.421,1027.42 554.207,1027.42 554.207,1018.95 556.993,1018.95 556.993,1034.66 559.779,1034.66 559.779,1029.69 562.565,1029.69 562.565,982.441 565.351,982.441 565.351,940.965 568.137,940.965 568.137,933.767 570.923,933.767 570.923,954.236 573.709,954.236 573.709,966.973 576.495,966.973 576.495,950.306 579.281,950.306 579.281,955.758 582.067,955.758 582.067,926.058 584.853,926.058 584.853,972.429 587.639,972.429 587.639,939.067 590.425,939.067 590.425,925.458 593.211,925.458 593.211,954.782 595.997,954.782 595.997,953.432 598.783,953.432 598.783,939.417 601.569,939.417 601.569,965.47 604.355,965.47 604.355,949.982 607.141,949.982 607.141,957.664 609.927,957.664 609.927,921.271 612.713,921.271 612.713,897.115 615.499,897.115 615.499,914.712 618.285,914.712 618.285,877.93 621.071,877.93 621.071,865.969 623.857,865.969 623.857,866.809 626.643,866.809 626.643,871.914 629.429,871.914 629.429,835.369 632.215,835.369 632.215,844.81 635.001,844.81 635.001,825.624 637.787,825.624 637.787,879.994 640.573,879.994 640.573,881.464 643.359,881.464 643.359,872.928 646.145,872.928 646.145,907.715 648.931,907.715 651.717,907.715 651.717,912.455 654.503,912.455 654.503,879.897 657.289,879.897 657.289,895.538 660.075,895.538 660.075,914.62 662.861,914.62 665.647,914.62 668.433,914.62 671.219,914.62 674.005,914.62 676.791,914.62 679.577,914.62 679.577,919.627 682.363,919.627 682.363,894.656 685.149,894.656 685.149,878.347 687.935,878.347 687.935,870.605 690.721,870.605 690.721,889.35 693.507,889.35 693.507,939.339 696.293,939.339 699.079,939.339 701.865,939.339 701.865,944.374 704.651,944.374 704.651,968.093 707.437,968.093 710.223,968.093 710.223,972.648 713.009,972.648 713.009,927.394 715.795,927.394 715.795,900.477 718.581,900.477 718.581,916.169 721.366,916.169 721.366,923.432 724.152,923.432 724.152,926.33 726.938,926.33 726.938,959.413 729.724,959.413 729.724,972.361 732.51,972.361 732.51,977.044 735.296,977.044 735.296,981.456 738.082,981.456 738.082,983.989 740.868,983.989 740.868,1030.85 743.654,1030.85 746.44,1030.85 749.226,1030.85 752.012,1030.85 754.798,1030.85 757.584,1030.85 760.37,1030.85 763.156,1030.85 765.942,1030.85 765.942,1035.34 768.728,1035.34 768.728,1034.48 771.514,1034.48 771.514,1092.93 774.3,1092.93 777.086,1092.93 779.872,1092.93 779.872,1097.5 782.658,1097.5 782.658,1079.95 785.444,1079.95 785.444,1126.4 788.23,1126.4 791.016,1126.4 793.802,1126.4 796.588,1126.4 796.588,1131.34 799.374,1131.34 799.374,1148.13 802.16,1148.13 804.946,1148.13 807.732,1148.13 810.518,1148.13 813.304,1148.13 813.304,1152.67 816.09,1152.67 816.09,1104.35 818.876,1104.35 818.876,1108.61 821.662,1108.61 821.662,1132.87 824.448,1132.87 824.448,1118.52 827.234,1118.52 827.234,1083.85 830.02,1083.85 830.02,1069.45 832.806,1069.45 832.806,1074.61 835.592,1074.61 835.592,1101.3 838.378,1101.3 838.378,1094.25 841.164,1094.25 841.164,1111.25 843.95,1111.25 843.95,1149.53 846.736,1149.53 849.522,1149.53 852.308,1149.53 855.094,1149.53 855.094,1154.63 857.88,1154.63 857.88,1161.73 860.666,1161.73 860.666,1161.28 863.452,1161.28 863.452,1205.1 866.238,1205.1 866.238,1210.23 869.024,1210.23 869.024,1163.68 871.81,1163.68 871.81,1144.07 874.596,1144.07 874.596,1117.62 877.382,1117.62 877.382,1092.46 880.168,1092.46 880.168,1069.72 882.954,1069.72 882.954,1072.81 885.74,1072.81 885.74,1106.28 888.526,1106.28 888.526,1078.64 891.312,1078.64 891.312,1065.22 894.098,1065.22 894.098,1062.67 896.884,1062.67 896.884,1050.61 899.67,1050.61 899.67,1055.07 902.456,1055.07 902.456,1053.01 905.242,1053.01 905.242,1028.88 908.028,1028.88 908.028,1015.36 910.813,1015.36 910.813,971.05 913.599,971.05 913.599,938.832 916.385,938.832 916.385,907.387 919.171,907.387 919.171,909.405 921.957,909.405 921.957,941.853 924.743,941.853 924.743,895.337 927.529,895.337 927.529,914.996 930.315,914.996 930.315,905.962 933.101,905.962 933.101,922.791 935.887,922.791 935.887,924.076 938.673,924.076 938.673,912.513 941.459,912.513 941.459,900.54 944.245,900.54 944.245,896.758 947.031,896.758 947.031,872.747 949.817,872.747 949.817,907.109 952.603,907.109 952.603,924.909 955.389,924.909 955.389,952.161 958.175,952.161 960.961,952.161 963.747,952.161 963.747,956.912 966.533,956.912 966.533,966.987 969.319,966.987 969.319,970.813 972.105,970.813 972.105,975.53 974.891,975.53 974.891,980.49 977.677,980.49 977.677,948.486 980.463,948.486 980.463,943.724 983.249,943.724 983.249,968.851 986.035,968.851 986.035,953.832 988.821,953.832 988.821,941.443 991.607,941.443 991.607,957.778 994.393,957.778 994.393,957.863 997.179,957.863 997.179,988.21 999.965,988.21 1002.75,988.21 1005.54,988.21 1005.54,992.951 1008.32,992.951 1008.32,984.039 1011.11,984.039 1011.11,953.446 1013.89,953.446 1013.89,978.15 1016.68,978.15 1016.68,952.565 1019.47,952.565 1019.47,1004.73 1022.25,1004.73 1025.04,1004.73 1027.82,1004.73 1030.61,1004.73 1030.61,1009.81 1033.4,1009.81 1033.4,1038.67 1036.18,1038.67 1036.18,1045.07 1038.97,1045.07 1038.97,1051.01 1041.75,1051.01 1041.75,1060.36 1044.54,1060.36 1047.33,1060.36 1047.33,1064.88 1050.11,1064.88 1050.11,1115.18 1052.9,1115.18 1055.68,1115.18 1058.47,1115.18 1061.26,1115.18 1064.04,1115.18 1066.83,1115.18 1066.83,1119.54 1069.61,1119.54 1069.61,1078.42 1072.4,1078.42 1072.4,1021.65 1075.19,1021.65 1075.19,989.218 1077.97,989.218 1077.97,1028.6 1080.76,1028.6 1080.76,1040.67 1083.54,1040.67 1083.54,1081.83 1086.33,1081.83 1086.33,1067.89 1089.12,1067.89 1089.12,1074.78 1091.9,1074.78 1091.9,1101.28 1094.69,1101.28 1097.47,1101.28 1100.26,1101.28 1100.26,1105.92 1103.05,1105.92 1103.05,1122.57 1105.83,1122.57 1108.62,1122.57 1111.4,1122.57 1114.19,1122.57 1116.98,1122.57 1119.76,1122.57 1122.55,1122.57 1125.33,1122.57 1128.12,1122.57 1130.91,1122.57 1133.69,1122.57 1136.48,1122.57 1136.48,1126.97 1139.26,1126.97 1139.26,1121.99 1142.05,1121.99 1142.05,1114.89 1144.84,1114.89 1144.84,1124.19 1147.62,1124.19 1147.62,1149.24 1150.41,1149.24 1150.41,1153.95 1153.19,1153.95 1153.19,1149.41 1155.98,1149.41 1155.98,1156.7 1158.77,1156.7 1158.77,1155.66 1161.55,1155.66 1161.55,1151.28 1164.34,1151.28 1164.34,1180.51 1167.12,1180.51 1167.12,1184.91 1169.91,1184.91 1169.91,1209.18 1172.7,1209.18 1172.7,1213.94 1175.48,1213.94 1175.48,1210.73 1178.27,1210.73 1178.27,1215.06 1181.05,1215.06 1181.05,1208.05 1183.84,1208.05 1183.84,1216.26 1186.63,1216.26 1186.63,1216.91 1189.41,1216.91 1189.41,1206.69 1192.2,1206.69 1192.2,1246.83 1194.98,1246.83 1194.98,1251.54 1197.77,1251.54 1197.77,1204.6 1200.56,1204.6 1200.56,1173.95 1203.34,1173.95 1203.34,1128.64 1206.13,1128.64 1206.13,1098.73 1208.91,1098.73 1208.91,1103.09 1211.7,1103.09 1211.7,1113.34 1214.49,1113.34 1214.49,1113.38 1217.27,1113.38 1217.27,1110.75 1220.06,1110.75 1220.06,1097.53 1222.84,1097.53 1222.84,1123.37 1225.63,1123.37 1225.63,1113.23 1228.42,1113.23 1228.42,1119.56 1231.2,1119.56 1231.2,1135.57 1233.99,1135.57 1233.99,1172.56 1236.77,1172.56 1236.77,1176.27 1239.56,1176.27 1239.56,1149.15 1242.35,1149.15 1242.35,1133.34 1245.13,1133.34 1245.13,1143.26 1247.92,1143.26 1247.92,1149.94 1250.7,1149.94 1250.7,1122.23 1253.49,1122.23 1253.49,1112.39 1256.28,1112.39 1256.28,1100.63 1259.06,1100.63 1259.06,1078.91 1261.85,1078.91 1261.85,1061.99 1264.63,1061.99 1264.63,1048.89 1267.42,1048.89 1267.42,1060.62 1270.21,1060.62 1270.21,1042.53 1272.99,1042.53 1272.99,1098.5 1275.78,1098.5 1275.78,1119.49 1278.56,1119.49 1281.35,1119.49 1284.14,1119.49 1286.92,1119.49 1286.92,1124.1 1289.71,1124.1 1289.71,1108.82 1292.49,1108.82 1292.49,1092.41 1295.28,1092.41 1295.28,1142.9 1298.07,1142.9 1300.85,1142.9 1303.64,1142.9 1306.42,1142.9 1306.42,1147.47 1309.21,1147.47 1309.21,1158.4 1312,1158.4 1312,1144.88 1314.78,1144.88 1314.78,1150.11 1317.57,1150.11 1317.57,1106.72 1320.35,1106.72 1320.35,1108.63 1323.14,1108.63 1323.14,1115.6 1325.93,1115.6 1325.93,1128.34 1328.71,1128.34 1328.71,1164.39 1331.5,1164.39 1331.5,1168.51 1334.28,1168.51 1334.28,1141.03 1337.07,1141.03 1337.07,1143.64 1339.86,1143.64 1339.86,1220.69 1342.64,1220.69 1345.43,1220.69 1345.43,1225.27 1348.21,1225.27 1348.21,1198.66 1351,1198.66 1351,1179.65 1353.79,1179.65 1353.79,1193.19 1356.57,1193.19 1356.57,1178.49 1359.36,1178.49 1359.36,1179.85 1362.14,1179.85 1362.14,1144.5 1364.93,1144.5 1364.93,1123.74 1367.72,1123.74 1367.72,1087.44 1370.5,1087.44 1370.5,1084.42 1373.29,1084.42 1373.29,1090.98 1376.07,1090.98 1376.07,1066.13 1378.86,1066.13 1378.86,1048.56 1381.65,1048.56 1381.65,1045.56 1384.43,1045.56 1384.43,1038.18 1387.22,1038.18 1387.22,978.018 1390,978.018 1390,959.106 1392.79,959.106 1392.79,932.127 1395.57,932.127 1395.57,960.733 1398.36,960.733 1398.36,945.908 1401.15,945.908 1401.15,938.321 1403.93,938.321 1403.93,941.814 1406.72,941.814 1406.72,956.086 1409.5,956.086 1409.5,917.372 1412.29,917.372 1412.29,892.185 1415.08,892.185 1415.08,912.182 1417.86,912.182 1417.86,893.872 1420.65,893.872 1420.65,845.585 1423.43,845.585 1423.43,858.134 1426.22,858.134 1426.22,880.004 1429.01,880.004 1429.01,841.33 1431.79,841.33 1431.79,846.307 1434.58,846.307 1434.58,869.736 1437.36,869.736 1437.36,873.046 1440.15,873.046 1440.15,889.97 1442.94,889.97 1442.94,889.749 1445.72,889.749 1445.72,938.206 1448.51,938.206 1448.51,942.757 1451.29,942.757 1451.29,920.979 1454.08,920.979 1454.08,894.505 1456.87,894.505 1456.87,913.568 1459.65,913.568 1459.65,867.074 1462.44,867.074 1462.44,844.279 1465.22,844.279 1465.22,842.162 1468.01,842.162 1468.01,855.734 1470.8,855.734 1470.8,856.227 1473.58,856.227 1473.58,860.762 1476.37,860.762 1476.37,876.16 1479.15,876.16 1479.15,844.589 1481.94,844.589 1481.94,896.608 1484.73,896.608 1484.73,906.049 1487.51,906.049 1487.51,928.161 1490.3,928.161 1493.08,928.161 1493.08,933.272 1495.87,933.272 1495.87,895.307 1498.66,895.307 1498.66,858.252 1501.44,858.252 1501.44,842.03 1504.23,842.03 1504.23,853.862 1507.01,853.862 1507.01,843.692 1509.8,843.692 1509.8,882.564 1512.59,882.564 1512.59,894.245 1515.37,894.245 1515.37,879.243 1518.16,879.243 1518.16,888.473 1520.94,888.473 1520.94,901.184 1523.73,901.184 1523.73,915.238 1526.52,915.238 1526.52,909.233 1529.3,909.233 1529.3,927.057 1532.09,927.057 1532.09,931.728 1534.87,931.728 1534.87,947.663 1537.66,947.663 1537.66,952.329 1540.45,952.329 1540.45,920.663 1543.23,920.663 1543.23,917.84 1546.02,917.84 1546.02,907.593 1548.8,907.593 1548.8,935.345 1551.59,935.345 1551.59,985.81 1554.38,985.81 1554.38,974.726 1557.16,974.726 1557.16,966.796 1559.95,966.796 1559.95,986.693 1562.73,986.693 1562.73,963.283 1565.52,963.283 1565.52,970.869 1568.31,970.869 1568.31,934.038 1571.09,934.038 1571.09,943.097 1573.88,943.097 1573.88,902.092 1576.66,902.092 1576.66,884.515 1579.45,884.515 1579.45,903.241 1582.24,903.241 1582.24,879.427 1585.02,879.427 1585.02,893.097 1587.81,893.097 1587.81,887.277 1590.59,887.277 1590.59,885.391 1593.38,885.391 1593.38,887.01 1596.17,887.01 1596.17,867.876 1598.95,867.876 1598.95,882.113 1601.74,882.113 1601.74,860.493 1604.52,860.493 1604.52,879.363 1607.31,879.363 1607.31,874.592 1610.1,874.592 1610.1,859.039 1612.88,859.039 1612.88,876.8 1615.67,876.8 1615.67,880.657 1618.45,880.657 1618.45,876.302 1621.24,876.302 1621.24,854.245 1624.03,854.245 1624.03,816.629 1626.81,816.629 1626.81,812.474 1629.6,812.474 1629.6,828.071 1632.38,828.071 1632.38,786.11 1635.17,786.11 1635.17,785.004 1637.96,785.004 1637.96,774.595 1640.74,774.595 1640.74,759.198 1643.53,759.198 1643.53,763.706 1646.31,763.706 1646.31,759.427 1649.1,759.427 1649.1,737.826 1651.89,737.826 1651.89,739.144 1654.67,739.144 1654.67,739.66 1657.46,739.66 1657.46,734.245 1660.24,734.245 1660.24,711.417 1663.03,711.417 1663.03,704.24 1665.82,704.24 1665.82,693.693 1668.6,693.693 1668.6,720.611 1671.39,720.611 1671.39,710.856 1674.17,710.856 1674.17,707.313 1676.96,707.313 1676.96,733.474 1679.75,733.474 1679.75,738.399 1682.53,738.399 1682.53,721.774 1685.32,721.774 1685.32,713.593 1688.1,713.593 1688.1,741.733 1690.89,741.733 1690.89,746.384 1693.68,746.384 1693.68,751.033 1696.46,751.033 1696.46,765.125 1699.25,765.125 1699.25,794.54 1702.03,794.54 1704.82,794.54 1707.61,794.54 1710.39,794.54 1710.39,799.36 1713.18,799.36 1713.18,767.369 1715.96,767.369 1715.96,757.389 1718.75,757.389 1718.75,753.384 1721.54,753.384 1721.54,744.188 1724.32,744.188 1724.32,767.448 1727.11,767.448 1727.11,738.864 1729.89,738.864 1729.89,722.806 1732.68,722.806 1732.68,734.123 1735.47,734.123 1735.47,763.421 1738.25,763.421 1738.25,717.026 1741.04,717.026 1741.04,698.75 1743.82,698.75 1743.82,683.908 1746.61,683.908 1746.61,674.389 1749.4,674.389 1749.4,712.095 1752.18,712.095 1752.18,684.193 1754.97,684.193 1754.97,644.311 1757.75,644.311 1757.75,682.762 1760.54,682.762 1760.54,697.454 1763.32,697.454 1763.32,693.244 1766.11,693.244 1766.11,673.443 1768.9,673.443 1768.9,689.31 1771.68,689.31 1771.68,669.212 1774.47,669.212 1774.47,671.79 1777.25,671.79 1777.25,648.635 1780.04,648.635 1780.04,656.959 1782.83,656.959 1782.83,653.292 1785.61,653.292 1785.61,633.633 1788.4,633.633 1788.4,606.539 1791.18,606.539 1791.18,612.259 1793.97,612.259 1793.97,619.629 1796.76,619.629 1796.76,639.033 1799.54,639.033 1799.54,630.137 1802.33,630.137 1802.33,615.243 1805.11,615.243 1805.11,596.783 1807.9,596.783 1807.9,584.687 1810.69,584.687 1810.69,593.728 1813.47,593.728 1813.47,567.843 1816.26,567.843 1816.26,561.418 1819.04,561.418 1819.04,582.652 1821.83,582.652 1821.83,583.939 1824.62,583.939 1824.62,597.513 1827.4,597.513 1827.4,625.601 1830.19,625.601 1832.97,625.601 1835.76,625.601 1835.76,630.217 1838.55,630.217 1838.55,585.079 1841.33,585.079 1841.33,580.096 1844.12,580.096 1844.12,535.581 1846.9,535.581 1846.9,564.793 1849.69,564.793 1849.69,571.317 1852.48,571.317 1852.48,567.629 1855.26,567.629 1855.26,526.788 1858.05,526.788 1858.05,559 1860.83,559 1860.83,564.002 1863.62,564.002 1863.62,579.406 1866.41,579.406 1866.41,595.443 1869.19,595.443 1869.19,581.973 1871.98,581.973 1871.98,563.549 1874.76,563.549 1874.76,540.495 1877.55,540.495 1877.55,520.683 1880.34,520.683 1880.34,527.1 1883.12,527.1 1883.12,519.421 1885.91,519.421 1885.91,508.935 1888.69,508.935 1888.69,543.155 1891.48,543.155 1891.48,556.973 1894.27,556.973 1897.05,556.973 1897.05,562.585 1899.84,562.585 1899.84,585.749 1902.62,585.749 1902.62,591.149 1905.41,591.149 1905.41,555.963 1908.2,555.963 1908.2,545.842 1910.98,545.842 1910.98,557.52 1913.77,557.52 1913.77,577.003 1916.55,577.003 1916.55,591.574 1919.34,591.574 1922.13,591.574 1922.13,596.845 1924.91,596.845 1924.91,575.196 1927.7,575.196 1927.7,603.05 1930.48,603.05 1930.48,649.868 1933.27,649.868 1933.27,654.692 1936.06,654.692 1936.06,641.129 1938.84,641.129 1938.84,653.428 1941.63,653.428 1941.63,645.939 1944.41,645.939 1944.41,613.275 1947.2,613.275 1947.2,579.905 1949.99,579.905 1949.99,580.097 1952.77,580.097 1952.77,552.744 1955.56,552.744 1955.56,541.037 1958.34,541.037 1958.34,520.167 1961.13,520.167 1961.13,495.506 1963.92,495.506 1963.92,486.239 1966.7,486.239 1966.7,475.535 1969.49,475.535 1969.49,484.404 1972.27,484.404 1972.27,490.303 1975.06,490.303 1975.06,446.712 1977.85,446.712 1977.85,463.491 1980.63,463.491 1980.63,448.194 1983.42,448.194 1983.42,407.73 1986.2,407.73 1986.2,385.572 1988.99,385.572 1988.99,393.816 1991.78,393.816 1991.78,361.331 1994.56,361.331 1994.56,396.9 1997.35,396.9 1997.35,434.025 2000.13,434.025 2000.13,462.753 2002.92,462.753 2002.92,489.19 2005.71,489.19 2008.49,489.19 2008.49,494.214 2011.28,494.214 2011.28,491.915 2014.06,491.915 2014.06,447.927 2016.85,447.927 2016.85,412.037 2019.64,412.037 2019.64,384.366 2022.42,384.366 2022.42,361.173 2025.21,361.173 2025.21,359.496 2027.99,359.496 2027.99,371.219 2030.78,371.219 2030.78,409.967 2033.57,409.967 2033.57,424.238 2036.35,424.238 2036.35,413.825 2039.14,413.825 2039.14,435.999 2041.92,435.999 2041.92,441.161 2044.71,441.161 2044.71,474.419 2047.5,474.419 2050.28,474.419 2050.28,479.427 2053.07,479.427 2053.07,559.621 2055.85,559.621 2055.85,584.405 2058.64,584.405 2061.43,584.405 2061.43,589.352 2064.21,589.352 2064.21,584.744 2067,584.744 2067,584.492 2069.78,584.492 2069.78,561.676 2072.57,561.676 2072.57,522.743 2075.36,522.743 2075.36,539.272 2078.14,539.272 2078.14,559.216 2080.93,559.216 2080.93,572.601 2083.71,572.601 2083.71,577.702 2086.5,577.702 2086.5,550.176 2089.29,550.176 2089.29,545.144 2092.07,545.144 2092.07,535.049 2094.86,535.049 2094.86,453.041 2097.64,453.041 2097.64,408.077 2100.43,408.077 2100.43,434.79 2103.22,434.79 2103.22,420.752 2106,420.752 2106,401.299 2108.79,401.299 2108.79,374.92 2111.57,374.92 2111.57,377.194 2114.36,377.194 2114.36,359.331 2117.15,359.331 2117.15,342.114 2119.93,342.114 2119.93,373.582 2122.72,373.582 2122.72,359.499 2125.5,359.499 2125.5,351.486 2128.29,351.486 2128.29,328.776 2131.08,328.776 2131.08,325.128 2133.86,325.128 2133.86,344.722 2136.65,344.722 2136.65,341.212 2139.43,341.212 2139.43,327.013 2142.22,327.013 2142.22,325.136 2145,325.136 2145,330.568 2147.79,330.568 2147.79,320.607 2150.58,320.607 2150.58,351.167 2153.36,351.167 2153.36,317.722 2156.15,317.722 2156.15,340.333 2158.93,340.333 2158.93,394.306 2161.72,394.306 2161.72,399.455 2164.51,399.455 2164.51,376.563 2167.29,376.563 2167.29,340.478 2170.08,340.478 2170.08,298.543 2172.86,298.543 2172.86,305.711 2175.65,305.711 2175.65,292.236 2178.44,292.236 2178.44,333.487 2181.22,333.487 2181.22,342.676 2184.01,342.676 2184.01,307.101 2186.79,307.101 2186.79,286.233 2189.58,286.233 2189.58,303.485 2192.37,303.485 2192.37,363.16 2195.15,363.16 2195.15,285.614 2197.94,285.614 2197.94,266.458 2200.72,266.458 2200.72,267.081 2203.51,267.081 2203.51,238.668 2206.3,238.668 2206.3,254.133 2209.08,254.133 2209.08,272.355 2211.87,272.355 2211.87,244.749 2214.65,244.749 2214.65,228.887 2217.44,228.887 2217.44,224.034 2220.23,224.034 2220.23,225.245 2223.01,225.245 2223.01,219.731 2225.8,219.731 2225.8,209.309 2228.58,209.309 2228.58,180.098 2231.37,180.098 2231.37,215.035 2234.16,215.035 2234.16,202.716 2236.94,202.716 2236.94,166.485 2239.73,166.485 2239.73,162.047 2242.51,162.047 2242.51,179.528 2245.3,179.528 2245.3,201.345 2248.09,201.345 2248.09,271.585 2250.87,271.585 2250.87,277.051 2253.66,277.051 2253.66,240.73 2256.44,240.73 2256.44,299.717 2259.23,299.717 2259.23,271.257 2262.02,271.257 2262.02,277.904 2264.8,277.904 2264.8,258.808 2267.59,258.808 2267.59,239.133 2270.37,239.133 2270.37,253.734 2273.16,253.734 2273.16,318.629 2275.95,318.629 2278.73,318.629 2278.73,323.656 2281.52,323.656 2281.52,323.955 2284.3,323.955 2284.3,321.445 2287.09,321.445 2287.09,296.174 2289.88,296.174 2289.88,294.925 2292.66,294.925 2292.66,212.123 "/>
</svg>
