<?xml version="1.0" encoding="utf-8"?>
<svg xmlns="http://www.w3.org/2000/svg" xmlns:xlink="http://www.w3.org/1999/xlink" width="600" height="400" viewBox="0 0 2400 1600">
<defs>
  <clipPath id="clip200">
    <rect x="0" y="0" width="2400" height="1600"/>
  </clipPath>
</defs>
<path clip-path="url(#clip200)" d="M0 1600 L2400 1600 L2400 0 L0 0  Z" fill="#282c34" fill-rule="evenodd" fill-opacity="1"/>
<defs>
  <clipPath id="clip201">
    <rect x="162" y="106" width="1755" height="1377"/>
  </clipPath>
</defs>
<path clip-path="url(#clip200)" d="M162.408 1482.13 L1916.41 1482.13 L1916.41 106.192 L162.408 106.192  Z" fill="#21252b" fill-rule="evenodd" fill-opacity="1"/>
<polyline clip-path="url(#clip201)" style="stroke:#adb2b7; stroke-linecap:round; stroke-linejoin:round; stroke-width:2; stroke-opacity:0.1; fill:none" points="162.408,1482.13 162.408,106.192 "/>
<polyline clip-path="url(#clip201)" style="stroke:#adb2b7; stroke-linecap:round; stroke-linejoin:round; stroke-width:2; stroke-opacity:0.1; fill:none" points="162.408,1482.13 162.408,106.192 "/>
<polyline clip-path="url(#clip201)" style="stroke:#adb2b7; stroke-linecap:round; stroke-linejoin:round; stroke-width:2; stroke-opacity:0.1; fill:none" points="162.408,1362.61 1916.41,1362.61 "/>
<polyline clip-path="url(#clip201)" style="stroke:#adb2b7; stroke-linecap:round; stroke-linejoin:round; stroke-width:2; stroke-opacity:0.1; fill:none" points="162.408,1175.81 1916.41,1175.81 "/>
<polyline clip-path="url(#clip201)" style="stroke:#adb2b7; stroke-linecap:round; stroke-linejoin:round; stroke-width:2; stroke-opacity:0.1; fill:none" points="162.408,989.011 1916.41,989.011 "/>
<polyline clip-path="url(#clip201)" style="stroke:#adb2b7; stroke-linecap:round; stroke-linejoin:round; stroke-width:2; stroke-opacity:0.1; fill:none" points="162.408,802.212 1916.41,802.212 "/>
<polyline clip-path="url(#clip201)" style="stroke:#adb2b7; stroke-linecap:round; stroke-linejoin:round; stroke-width:2; stroke-opacity:0.1; fill:none" points="162.408,615.414 1916.41,615.414 "/>
<polyline clip-path="url(#clip201)" style="stroke:#adb2b7; stroke-linecap:round; stroke-linejoin:round; stroke-width:2; stroke-opacity:0.1; fill:none" points="162.408,428.616 1916.41,428.616 "/>
<polyline clip-path="url(#clip201)" style="stroke:#adb2b7; stroke-linecap:round; stroke-linejoin:round; stroke-width:2; stroke-opacity:0.1; fill:none" points="162.408,241.818 1916.41,241.818 "/>
<polyline clip-path="url(#clip200)" style="stroke:#adb2b7; stroke-linecap:round; stroke-linejoin:round; stroke-width:4; stroke-opacity:1; fill:none" points="162.408,1482.13 1916.41,1482.13 "/>
<polyline clip-path="url(#clip200)" style="stroke:#adb2b7; stroke-linecap:round; stroke-linejoin:round; stroke-width:4; stroke-opacity:1; fill:none" points="162.408,1482.13 162.408,1463.23 "/>
<polyline clip-path="url(#clip200)" style="stroke:#adb2b7; stroke-linecap:round; stroke-linejoin:round; stroke-width:4; stroke-opacity:1; fill:none" points="162.408,1482.13 162.408,1463.23 "/>
<path clip-path="url(#clip200)" d="M19.4534 1545.5 L37.8127 1545.5 L37.8127 1549.93 L13.1253 1549.93 L13.1253 1545.5 Q16.1201 1542.4 21.2763 1537.19 Q26.4586 1531.96 27.7867 1530.45 Q30.3127 1527.61 31.3023 1525.66 Q32.3179 1523.68 32.3179 1521.78 Q32.3179 1518.68 30.1305 1516.72 Q27.969 1514.77 24.4794 1514.77 Q22.0055 1514.77 19.2451 1515.63 Q16.5107 1516.49 13.3857 1518.24 L13.3857 1512.92 Q16.5628 1511.65 19.3232 1511 Q22.0836 1510.34 24.3753 1510.34 Q30.4169 1510.34 34.0106 1513.37 Q37.6044 1516.39 37.6044 1521.44 Q37.6044 1523.83 36.6929 1526 Q35.8075 1528.13 33.4377 1531.05 Q32.7867 1531.8 29.2971 1535.42 Q25.8076 1539.02 19.4534 1545.5 Z" fill="#9eb1be" fill-rule="nonzero" fill-opacity="1" /><path clip-path="url(#clip200)" d="M60.1042 1514.51 Q56.0418 1514.51 53.9845 1518.52 Q51.9533 1522.51 51.9533 1530.53 Q51.9533 1538.52 53.9845 1542.53 Q56.0418 1546.52 60.1042 1546.52 Q64.1928 1546.52 66.224 1542.53 Q68.2813 1538.52 68.2813 1530.53 Q68.2813 1522.51 66.224 1518.52 Q64.1928 1514.51 60.1042 1514.51 M60.1042 1510.34 Q66.6407 1510.34 70.0782 1515.53 Q73.5417 1520.68 73.5417 1530.53 Q73.5417 1540.34 70.0782 1545.53 Q66.6407 1550.68 60.1042 1550.68 Q53.5678 1550.68 50.1043 1545.53 Q46.6668 1540.34 46.6668 1530.53 Q46.6668 1520.68 50.1043 1515.53 Q53.5678 1510.34 60.1042 1510.34 Z" fill="#9eb1be" fill-rule="nonzero" fill-opacity="1" /><path clip-path="url(#clip200)" d="M87.3176 1545.5 L105.677 1545.5 L105.677 1549.93 L80.9896 1549.93 L80.9896 1545.5 Q83.9843 1542.4 89.1406 1537.19 Q94.3228 1531.96 95.6509 1530.45 Q98.177 1527.61 99.1665 1525.66 Q100.182 1523.68 100.182 1521.78 Q100.182 1518.68 97.9947 1516.72 Q95.8332 1514.77 92.3437 1514.77 Q89.8697 1514.77 87.1093 1515.63 Q84.375 1516.49 81.25 1518.24 L81.25 1512.92 Q84.427 1511.65 87.1874 1511 Q89.9478 1510.34 92.2395 1510.34 Q98.2811 1510.34 101.875 1513.37 Q105.469 1516.39 105.469 1521.44 Q105.469 1523.83 104.557 1526 Q103.672 1528.13 101.302 1531.05 Q100.651 1531.8 97.1613 1535.42 Q93.6718 1539.02 87.3176 1545.5 Z" fill="#9eb1be" fill-rule="nonzero" fill-opacity="1" /><path clip-path="url(#clip200)" d="M127.968 1514.51 Q123.906 1514.51 121.849 1518.52 Q119.817 1522.51 119.817 1530.53 Q119.817 1538.52 121.849 1542.53 Q123.906 1546.52 127.968 1546.52 Q132.057 1546.52 134.088 1542.53 Q136.146 1538.52 136.146 1530.53 Q136.146 1522.51 134.088 1518.52 Q132.057 1514.51 127.968 1514.51 M127.968 1510.34 Q134.505 1510.34 137.942 1515.53 Q141.406 1520.68 141.406 1530.53 Q141.406 1540.34 137.942 1545.53 Q134.505 1550.68 127.968 1550.68 Q121.432 1550.68 117.969 1545.53 Q114.531 1540.34 114.531 1530.53 Q114.531 1520.68 117.969 1515.53 Q121.432 1510.34 127.968 1510.34 Z" fill="#9eb1be" fill-rule="nonzero" fill-opacity="1" /><path clip-path="url(#clip200)" d="M158.489 1511.05 L162.916 1511.05 L149.375 1554.88 L144.948 1554.88 L158.489 1511.05 Z" fill="#9eb1be" fill-rule="nonzero" fill-opacity="1" /><path clip-path="url(#clip200)" d="M179.869 1514.51 Q175.807 1514.51 173.749 1518.52 Q171.718 1522.51 171.718 1530.53 Q171.718 1538.52 173.749 1542.53 Q175.807 1546.52 179.869 1546.52 Q183.958 1546.52 185.989 1542.53 Q188.046 1538.52 188.046 1530.53 Q188.046 1522.51 185.989 1518.52 Q183.958 1514.51 179.869 1514.51 M179.869 1510.34 Q186.406 1510.34 189.843 1515.53 Q193.307 1520.68 193.307 1530.53 Q193.307 1540.34 189.843 1545.53 Q186.406 1550.68 179.869 1550.68 Q173.333 1550.68 169.869 1545.53 Q166.432 1540.34 166.432 1530.53 Q166.432 1520.68 169.869 1515.53 Q173.333 1510.34 179.869 1510.34 Z" fill="#9eb1be" fill-rule="nonzero" fill-opacity="1" /><path clip-path="url(#clip200)" d="M203.463 1545.5 L212.057 1545.5 L212.057 1515.84 L202.708 1517.71 L202.708 1512.92 L212.004 1511.05 L217.265 1511.05 L217.265 1545.5 L225.859 1545.5 L225.859 1549.93 L203.463 1549.93 L203.463 1545.5 Z" fill="#9eb1be" fill-rule="nonzero" fill-opacity="1" /><path clip-path="url(#clip200)" d="M244.322 1511.05 L248.749 1511.05 L235.207 1554.88 L230.78 1554.88 L244.322 1511.05 Z" fill="#9eb1be" fill-rule="nonzero" fill-opacity="1" /><path clip-path="url(#clip200)" d="M265.702 1514.51 Q261.64 1514.51 259.582 1518.52 Q257.551 1522.51 257.551 1530.53 Q257.551 1538.52 259.582 1542.53 Q261.64 1546.52 265.702 1546.52 Q269.791 1546.52 271.822 1542.53 Q273.879 1538.52 273.879 1530.53 Q273.879 1522.51 271.822 1518.52 Q269.791 1514.51 265.702 1514.51 M265.702 1510.34 Q272.239 1510.34 275.676 1515.53 Q279.14 1520.68 279.14 1530.53 Q279.14 1540.34 275.676 1545.53 Q272.239 1550.68 265.702 1550.68 Q259.166 1550.68 255.702 1545.53 Q252.265 1540.34 252.265 1530.53 Q252.265 1520.68 255.702 1515.53 Q259.166 1510.34 265.702 1510.34 Z" fill="#9eb1be" fill-rule="nonzero" fill-opacity="1" /><path clip-path="url(#clip200)" d="M289.296 1545.5 L297.889 1545.5 L297.889 1515.84 L288.541 1517.71 L288.541 1512.92 L297.837 1511.05 L303.098 1511.05 L303.098 1545.5 L311.691 1545.5 L311.691 1549.93 L289.296 1549.93 L289.296 1545.5 Z" fill="#9eb1be" fill-rule="nonzero" fill-opacity="1" /><path clip-path="url(#clip200)" d="M19.2711 1545.5 L37.6304 1545.5 L37.6304 1549.93 L12.943 1549.93 L12.943 1545.5 Q15.9378 1542.4 21.094 1537.19 Q26.2763 1531.96 27.6044 1530.45 Q30.1305 1527.61 31.12 1525.66 Q32.1356 1523.68 32.1356 1521.78 Q32.1356 1518.68 29.9482 1516.72 Q27.7867 1514.77 24.2971 1514.77 Q21.8232 1514.77 19.0628 1515.63 Q16.3284 1516.49 13.2035 1518.24 L13.2035 1512.92 Q16.3805 1511.65 19.1409 1511 Q21.9013 1510.34 24.193 1510.34 Q30.2346 1510.34 33.8283 1513.37 Q37.4221 1516.39 37.4221 1521.44 Q37.4221 1523.83 36.5106 1526 Q35.6252 1528.13 33.2554 1531.05 Q32.6044 1531.8 29.1148 1535.42 Q25.6253 1539.02 19.2711 1545.5 Z" fill="#9eb1be" fill-rule="nonzero" fill-opacity="1" /><path clip-path="url(#clip200)" d="M59.922 1514.51 Q55.8595 1514.51 53.8022 1518.52 Q51.771 1522.51 51.771 1530.53 Q51.771 1538.52 53.8022 1542.53 Q55.8595 1546.52 59.922 1546.52 Q64.0105 1546.52 66.0417 1542.53 Q68.099 1538.52 68.099 1530.53 Q68.099 1522.51 66.0417 1518.52 Q64.0105 1514.51 59.922 1514.51 M59.922 1510.34 Q66.4584 1510.34 69.8959 1515.53 Q73.3594 1520.68 73.3594 1530.53 Q73.3594 1540.34 69.8959 1545.53 Q66.4584 1550.68 59.922 1550.68 Q53.3855 1550.68 49.922 1545.53 Q46.4845 1540.34 46.4845 1530.53 Q46.4845 1520.68 49.922 1515.53 Q53.3855 1510.34 59.922 1510.34 Z" fill="#9eb1be" fill-rule="nonzero" fill-opacity="1" /><path clip-path="url(#clip200)" d="M87.1354 1545.5 L105.495 1545.5 L105.495 1549.93 L80.8073 1549.93 L80.8073 1545.5 Q83.802 1542.4 88.9583 1537.19 Q94.1405 1531.96 95.4686 1530.45 Q97.9947 1527.61 98.9842 1525.66 Q99.9999 1523.68 99.9999 1521.78 Q99.9999 1518.68 97.8124 1516.72 Q95.6509 1514.77 92.1614 1514.77 Q89.6874 1514.77 86.927 1515.63 Q84.1927 1516.49 81.0677 1518.24 L81.0677 1512.92 Q84.2447 1511.65 87.0051 1511 Q89.7655 1510.34 92.0572 1510.34 Q98.0988 1510.34 101.693 1513.37 Q105.286 1516.39 105.286 1521.44 Q105.286 1523.83 104.375 1526 Q103.489 1528.13 101.12 1531.05 Q100.469 1531.8 96.9791 1535.42 Q93.4895 1539.02 87.1354 1545.5 Z" fill="#9eb1be" fill-rule="nonzero" fill-opacity="1" /><path clip-path="url(#clip200)" d="M127.786 1514.51 Q123.724 1514.51 121.666 1518.52 Q119.635 1522.51 119.635 1530.53 Q119.635 1538.52 121.666 1542.53 Q123.724 1546.52 127.786 1546.52 Q131.875 1546.52 133.906 1542.53 Q135.963 1538.52 135.963 1530.53 Q135.963 1522.51 133.906 1518.52 Q131.875 1514.51 127.786 1514.51 M127.786 1510.34 Q134.323 1510.34 137.76 1515.53 Q141.224 1520.68 141.224 1530.53 Q141.224 1540.34 137.76 1545.53 Q134.323 1550.68 127.786 1550.68 Q121.25 1550.68 117.786 1545.53 Q114.349 1540.34 114.349 1530.53 Q114.349 1520.68 117.786 1515.53 Q121.25 1510.34 127.786 1510.34 Z" fill="#9eb1be" fill-rule="nonzero" fill-opacity="1" /><path clip-path="url(#clip200)" d="M158.307 1511.05 L162.734 1511.05 L149.192 1554.88 L144.765 1554.88 L158.307 1511.05 Z" fill="#9eb1be" fill-rule="nonzero" fill-opacity="1" /><path clip-path="url(#clip200)" d="M179.687 1514.51 Q175.624 1514.51 173.567 1518.52 Q171.536 1522.51 171.536 1530.53 Q171.536 1538.52 173.567 1542.53 Q175.624 1546.52 179.687 1546.52 Q183.775 1546.52 185.807 1542.53 Q187.864 1538.52 187.864 1530.53 Q187.864 1522.51 185.807 1518.52 Q183.775 1514.51 179.687 1514.51 M179.687 1510.34 Q186.223 1510.34 189.661 1515.53 Q193.124 1520.68 193.124 1530.53 Q193.124 1540.34 189.661 1545.53 Q186.223 1550.68 179.687 1550.68 Q173.151 1550.68 169.687 1545.53 Q166.25 1540.34 166.25 1530.53 Q166.25 1520.68 169.687 1515.53 Q173.151 1510.34 179.687 1510.34 Z" fill="#9eb1be" fill-rule="nonzero" fill-opacity="1" /><path clip-path="url(#clip200)" d="M203.281 1545.5 L211.874 1545.5 L211.874 1515.84 L202.525 1517.71 L202.525 1512.92 L211.822 1511.05 L217.083 1511.05 L217.083 1545.5 L225.676 1545.5 L225.676 1549.93 L203.281 1549.93 L203.281 1545.5 Z" fill="#9eb1be" fill-rule="nonzero" fill-opacity="1" /><path clip-path="url(#clip200)" d="M244.14 1511.05 L248.567 1511.05 L235.025 1554.88 L230.598 1554.88 L244.14 1511.05 Z" fill="#9eb1be" fill-rule="nonzero" fill-opacity="1" /><path clip-path="url(#clip200)" d="M265.52 1514.51 Q261.457 1514.51 259.4 1518.52 Q257.369 1522.51 257.369 1530.53 Q257.369 1538.52 259.4 1542.53 Q261.457 1546.52 265.52 1546.52 Q269.608 1546.52 271.64 1542.53 Q273.697 1538.52 273.697 1530.53 Q273.697 1522.51 271.64 1518.52 Q269.608 1514.51 265.52 1514.51 M265.52 1510.34 Q272.056 1510.34 275.494 1515.53 Q278.957 1520.68 278.957 1530.53 Q278.957 1540.34 275.494 1545.53 Q272.056 1550.68 265.52 1550.68 Q258.983 1550.68 255.52 1545.53 Q252.082 1540.34 252.082 1530.53 Q252.082 1520.68 255.52 1515.53 Q258.983 1510.34 265.52 1510.34 Z" fill="#9eb1be" fill-rule="nonzero" fill-opacity="1" /><path clip-path="url(#clip200)" d="M286.874 1511.05 L311.874 1511.05 L311.874 1513.29 L297.759 1549.93 L292.264 1549.93 L305.546 1515.47 L286.874 1515.47 L286.874 1511.05 Z" fill="#9eb1be" fill-rule="nonzero" fill-opacity="1" /><polyline clip-path="url(#clip200)" style="stroke:#adb2b7; stroke-linecap:round; stroke-linejoin:round; stroke-width:4; stroke-opacity:1; fill:none" points="162.408,1482.13 162.408,106.192 "/>
<polyline clip-path="url(#clip200)" style="stroke:#adb2b7; stroke-linecap:round; stroke-linejoin:round; stroke-width:4; stroke-opacity:1; fill:none" points="162.408,1362.61 177.541,1362.61 "/>
<polyline clip-path="url(#clip200)" style="stroke:#adb2b7; stroke-linecap:round; stroke-linejoin:round; stroke-width:4; stroke-opacity:1; fill:none" points="162.408,1175.81 177.541,1175.81 "/>
<polyline clip-path="url(#clip200)" style="stroke:#adb2b7; stroke-linecap:round; stroke-linejoin:round; stroke-width:4; stroke-opacity:1; fill:none" points="162.408,989.011 177.541,989.011 "/>
<polyline clip-path="url(#clip200)" style="stroke:#adb2b7; stroke-linecap:round; stroke-linejoin:round; stroke-width:4; stroke-opacity:1; fill:none" points="162.408,802.212 177.541,802.212 "/>
<polyline clip-path="url(#clip200)" style="stroke:#adb2b7; stroke-linecap:round; stroke-linejoin:round; stroke-width:4; stroke-opacity:1; fill:none" points="162.408,615.414 177.541,615.414 "/>
<polyline clip-path="url(#clip200)" style="stroke:#adb2b7; stroke-linecap:round; stroke-linejoin:round; stroke-width:4; stroke-opacity:1; fill:none" points="162.408,428.616 177.541,428.616 "/>
<polyline clip-path="url(#clip200)" style="stroke:#adb2b7; stroke-linecap:round; stroke-linejoin:round; stroke-width:4; stroke-opacity:1; fill:none" points="162.408,241.818 177.541,241.818 "/>
<path clip-path="url(#clip200)" d="M51.7473 1377.62 L60.341 1377.62 L60.341 1347.96 L50.9921 1349.83 L50.9921 1345.04 L60.289 1343.17 L65.5493 1343.17 L65.5493 1377.62 L74.143 1377.62 L74.143 1382.05 L51.7473 1382.05 L51.7473 1377.62 Z" fill="#9eb1be" fill-rule="nonzero" fill-opacity="1" /><path clip-path="url(#clip200)" d="M84.768 1375.43 L90.2627 1375.43 L90.2627 1382.05 L84.768 1382.05 L84.768 1375.43 Z" fill="#9eb1be" fill-rule="nonzero" fill-opacity="1" /><path clip-path="url(#clip200)" d="M112.971 1346.63 Q108.908 1346.63 106.851 1350.64 Q104.82 1354.62 104.82 1362.65 Q104.82 1370.64 106.851 1374.65 Q108.908 1378.64 112.971 1378.64 Q117.059 1378.64 119.091 1374.65 Q121.148 1370.64 121.148 1362.65 Q121.148 1354.62 119.091 1350.64 Q117.059 1346.63 112.971 1346.63 M112.971 1342.46 Q119.507 1342.46 122.945 1347.65 Q126.408 1352.8 126.408 1362.65 Q126.408 1372.46 122.945 1377.65 Q119.507 1382.8 112.971 1382.8 Q106.435 1382.8 102.971 1377.65 Q99.5335 1372.46 99.5335 1362.65 Q99.5335 1352.8 102.971 1347.65 Q106.435 1342.46 112.971 1342.46 Z" fill="#9eb1be" fill-rule="nonzero" fill-opacity="1" /><path clip-path="url(#clip200)" d="M51.7473 1190.82 L60.341 1190.82 L60.341 1161.16 L50.9921 1163.04 L50.9921 1158.24 L60.289 1156.37 L65.5493 1156.37 L65.5493 1190.82 L74.143 1190.82 L74.143 1195.25 L51.7473 1195.25 L51.7473 1190.82 Z" fill="#9eb1be" fill-rule="nonzero" fill-opacity="1" /><path clip-path="url(#clip200)" d="M84.768 1188.63 L90.2627 1188.63 L90.2627 1195.25 L84.768 1195.25 L84.768 1188.63 Z" fill="#9eb1be" fill-rule="nonzero" fill-opacity="1" /><path clip-path="url(#clip200)" d="M112.971 1159.83 Q108.908 1159.83 106.851 1163.84 Q104.82 1167.83 104.82 1175.85 Q104.82 1183.84 106.851 1187.85 Q108.908 1191.84 112.971 1191.84 Q117.059 1191.84 119.091 1187.85 Q121.148 1183.84 121.148 1175.85 Q121.148 1167.83 119.091 1163.84 Q117.059 1159.83 112.971 1159.83 M112.971 1155.67 Q119.507 1155.67 122.945 1160.85 Q126.408 1166 126.408 1175.85 Q126.408 1185.67 122.945 1190.85 Q119.507 1196 112.971 1196 Q106.435 1196 102.971 1190.85 Q99.5335 1185.67 99.5335 1175.85 Q99.5335 1166 102.971 1160.85 Q106.435 1155.67 112.971 1155.67 Z" fill="#9eb1be" fill-rule="nonzero" fill-opacity="1" /><path clip-path="url(#clip200)" d="M51.7473 1004.02 L60.341 1004.02 L60.341 974.362 L50.9921 976.237 L50.9921 971.446 L60.289 969.571 L65.5493 969.571 L65.5493 1004.02 L74.143 1004.02 L74.143 1008.45 L51.7473 1008.45 L51.7473 1004.02 Z" fill="#9eb1be" fill-rule="nonzero" fill-opacity="1" /><path clip-path="url(#clip200)" d="M84.768 1001.84 L90.2627 1001.84 L90.2627 1008.45 L84.768 1008.45 L84.768 1001.84 Z" fill="#9eb1be" fill-rule="nonzero" fill-opacity="1" /><path clip-path="url(#clip200)" d="M112.971 973.034 Q108.908 973.034 106.851 977.044 Q104.82 981.029 104.82 989.05 Q104.82 997.044 106.851 1001.05 Q108.908 1005.04 112.971 1005.04 Q117.059 1005.04 119.091 1001.05 Q121.148 997.044 121.148 989.05 Q121.148 981.029 119.091 977.044 Q117.059 973.034 112.971 973.034 M112.971 968.867 Q119.507 968.867 122.945 974.05 Q126.408 979.206 126.408 989.05 Q126.408 998.867 122.945 1004.05 Q119.507 1009.21 112.971 1009.21 Q106.435 1009.21 102.971 1004.05 Q99.5335 998.867 99.5335 989.05 Q99.5335 979.206 102.971 974.05 Q106.435 968.867 112.971 968.867 Z" fill="#9eb1be" fill-rule="nonzero" fill-opacity="1" /><path clip-path="url(#clip200)" d="M51.7473 817.225 L60.341 817.225 L60.341 787.564 L50.9921 789.439 L50.9921 784.647 L60.289 782.772 L65.5493 782.772 L65.5493 817.225 L74.143 817.225 L74.143 821.652 L51.7473 821.652 L51.7473 817.225 Z" fill="#9eb1be" fill-rule="nonzero" fill-opacity="1" /><path clip-path="url(#clip200)" d="M84.768 815.038 L90.2627 815.038 L90.2627 821.652 L84.768 821.652 L84.768 815.038 Z" fill="#9eb1be" fill-rule="nonzero" fill-opacity="1" /><path clip-path="url(#clip200)" d="M112.971 786.236 Q108.908 786.236 106.851 790.246 Q104.82 794.231 104.82 802.251 Q104.82 810.246 106.851 814.257 Q108.908 818.241 112.971 818.241 Q117.059 818.241 119.091 814.257 Q121.148 810.246 121.148 802.251 Q121.148 794.231 119.091 790.246 Q117.059 786.236 112.971 786.236 M112.971 782.069 Q119.507 782.069 122.945 787.252 Q126.408 792.408 126.408 802.251 Q126.408 812.069 122.945 817.251 Q119.507 822.408 112.971 822.408 Q106.435 822.408 102.971 817.251 Q99.5335 812.069 99.5335 802.251 Q99.5335 792.408 102.971 787.252 Q106.435 782.069 112.971 782.069 Z" fill="#9eb1be" fill-rule="nonzero" fill-opacity="1" /><path clip-path="url(#clip200)" d="M51.7473 630.427 L60.341 630.427 L60.341 600.766 L50.9921 602.641 L50.9921 597.849 L60.289 595.974 L65.5493 595.974 L65.5493 630.427 L74.143 630.427 L74.143 634.854 L51.7473 634.854 L51.7473 630.427 Z" fill="#9eb1be" fill-rule="nonzero" fill-opacity="1" /><path clip-path="url(#clip200)" d="M84.768 628.24 L90.2627 628.24 L90.2627 634.854 L84.768 634.854 L84.768 628.24 Z" fill="#9eb1be" fill-rule="nonzero" fill-opacity="1" /><path clip-path="url(#clip200)" d="M112.971 599.438 Q108.908 599.438 106.851 603.448 Q104.82 607.433 104.82 615.453 Q104.82 623.448 106.851 627.459 Q108.908 631.443 112.971 631.443 Q117.059 631.443 119.091 627.459 Q121.148 623.448 121.148 615.453 Q121.148 607.433 119.091 603.448 Q117.059 599.438 112.971 599.438 M112.971 595.271 Q119.507 595.271 122.945 600.453 Q126.408 605.61 126.408 615.453 Q126.408 625.271 122.945 630.453 Q119.507 635.61 112.971 635.61 Q106.435 635.61 102.971 630.453 Q99.5335 625.271 99.5335 615.453 Q99.5335 605.61 102.971 600.453 Q106.435 595.271 112.971 595.271 Z" fill="#9eb1be" fill-rule="nonzero" fill-opacity="1" /><path clip-path="url(#clip200)" d="M51.7473 443.629 L60.341 443.629 L60.341 413.968 L50.9921 415.843 L50.9921 411.051 L60.289 409.176 L65.5493 409.176 L65.5493 443.629 L74.143 443.629 L74.143 448.056 L51.7473 448.056 L51.7473 443.629 Z" fill="#9eb1be" fill-rule="nonzero" fill-opacity="1" /><path clip-path="url(#clip200)" d="M84.768 441.442 L90.2627 441.442 L90.2627 448.056 L84.768 448.056 L84.768 441.442 Z" fill="#9eb1be" fill-rule="nonzero" fill-opacity="1" /><path clip-path="url(#clip200)" d="M112.971 412.64 Q108.908 412.64 106.851 416.65 Q104.82 420.635 104.82 428.655 Q104.82 436.65 106.851 440.66 Q108.908 444.645 112.971 444.645 Q117.059 444.645 119.091 440.66 Q121.148 436.65 121.148 428.655 Q121.148 420.635 119.091 416.65 Q117.059 412.64 112.971 412.64 M112.971 408.473 Q119.507 408.473 122.945 413.655 Q126.408 418.812 126.408 428.655 Q126.408 438.473 122.945 443.655 Q119.507 448.811 112.971 448.811 Q106.435 448.811 102.971 443.655 Q99.5335 438.473 99.5335 428.655 Q99.5335 418.812 102.971 413.655 Q106.435 408.473 112.971 408.473 Z" fill="#9eb1be" fill-rule="nonzero" fill-opacity="1" /><path clip-path="url(#clip200)" d="M51.7473 256.831 L60.341 256.831 L60.341 227.17 L50.9921 229.045 L50.9921 224.253 L60.289 222.378 L65.5493 222.378 L65.5493 256.831 L74.143 256.831 L74.143 261.258 L51.7473 261.258 L51.7473 256.831 Z" fill="#9eb1be" fill-rule="nonzero" fill-opacity="1" /><path clip-path="url(#clip200)" d="M84.768 254.644 L90.2627 254.644 L90.2627 261.258 L84.768 261.258 L84.768 254.644 Z" fill="#9eb1be" fill-rule="nonzero" fill-opacity="1" /><path clip-path="url(#clip200)" d="M112.971 225.842 Q108.908 225.842 106.851 229.852 Q104.82 233.836 104.82 241.857 Q104.82 249.852 106.851 253.862 Q108.908 257.847 112.971 257.847 Q117.059 257.847 119.091 253.862 Q121.148 249.852 121.148 241.857 Q121.148 233.836 119.091 229.852 Q117.059 225.842 112.971 225.842 M112.971 221.675 Q119.507 221.675 122.945 226.857 Q126.408 232.014 126.408 241.857 Q126.408 251.675 122.945 256.857 Q119.507 262.013 112.971 262.013 Q106.435 262.013 102.971 256.857 Q99.5335 251.675 99.5335 241.857 Q99.5335 232.014 102.971 226.857 Q106.435 221.675 112.971 221.675 Z" fill="#9eb1be" fill-rule="nonzero" fill-opacity="1" /><path clip-path="url(#clip200)" d="M162.408 8.64 L170.279 8.64 L189.434 44.7799 L189.434 8.64 L195.105 8.64 L195.105 51.84 L187.235 51.84 L168.08 15.7001 L168.08 51.84 L162.408 51.84 L162.408 8.64 Z" fill="#adb2b7" fill-rule="nonzero" fill-opacity="1" /><path clip-path="url(#clip200)" d="M234.225 34.3054 L234.225 36.9095 L209.746 36.9095 Q210.093 42.4072 213.045 45.3007 Q216.025 48.1653 221.32 48.1653 Q224.387 48.1653 227.252 47.4129 Q230.145 46.6606 232.981 45.156 L232.981 50.1907 Q230.116 51.406 227.107 52.0425 Q224.098 52.6791 221.002 52.6791 Q213.247 52.6791 208.704 48.1653 Q204.191 43.6514 204.191 35.9547 Q204.191 27.9975 208.473 23.339 Q212.784 18.6515 220.076 18.6515 Q226.615 18.6515 230.406 22.876 Q234.225 27.0716 234.225 34.3054 M228.901 32.7429 Q228.843 28.3737 226.442 25.7695 Q224.069 23.1654 220.134 23.1654 Q215.678 23.1654 212.987 25.6827 Q210.325 28.2001 209.92 32.7718 L228.901 32.7429 Z" fill="#adb2b7" fill-rule="nonzero" fill-opacity="1" /><path clip-path="url(#clip200)" d="M248.23 10.2314 L248.23 19.4328 L259.196 19.4328 L259.196 23.5705 L248.23 23.5705 L248.23 41.163 Q248.23 45.1271 249.3 46.2555 Q250.4 47.384 253.727 47.384 L259.196 47.384 L259.196 51.84 L253.727 51.84 Q247.564 51.84 245.22 49.5541 Q242.877 47.2393 242.877 41.163 L242.877 23.5705 L238.97 23.5705 L238.97 19.4328 L242.877 19.4328 L242.877 10.2314 L248.23 10.2314 Z" fill="#adb2b7" fill-rule="nonzero" fill-opacity="1" /><path clip-path="url(#clip200)" d="M308.357 20.677 L308.357 25.6538 Q306.1 24.4096 303.814 23.802 Q301.557 23.1654 299.242 23.1654 Q294.063 23.1654 291.198 26.464 Q288.334 29.7336 288.334 35.6653 Q288.334 41.597 291.198 44.8956 Q294.063 48.1653 299.242 48.1653 Q301.557 48.1653 303.814 47.5576 Q306.1 46.921 308.357 45.6768 L308.357 50.5958 Q306.129 51.6375 303.727 52.1583 Q301.354 52.6791 298.663 52.6791 Q291.343 52.6791 287.032 48.0784 Q282.72 43.4778 282.72 35.6653 Q282.72 27.7371 287.06 23.1943 Q291.43 18.6515 299.011 18.6515 Q301.47 18.6515 303.814 19.1724 Q306.158 19.6642 308.357 20.677 Z" fill="#adb2b7" fill-rule="nonzero" fill-opacity="1" /><path clip-path="url(#clip200)" d="M317.066 39.0507 L317.066 19.4328 L322.39 19.4328 L322.39 38.8482 Q322.39 43.4488 324.184 45.7636 Q325.978 48.0495 329.566 48.0495 Q333.877 48.0495 336.366 45.3007 Q338.883 42.5519 338.883 37.8065 L338.883 19.4328 L344.207 19.4328 L344.207 51.84 L338.883 51.84 L338.883 46.8632 Q336.944 49.8145 334.369 51.2613 Q331.823 52.6791 328.438 52.6791 Q322.853 52.6791 319.96 49.2069 Q317.066 45.7347 317.066 39.0507 M330.463 18.6515 L330.463 18.6515 Z" fill="#adb2b7" fill-rule="nonzero" fill-opacity="1" /><path clip-path="url(#clip200)" d="M380.405 25.6538 Q382.401 22.0659 385.179 20.3587 Q387.957 18.6515 391.719 18.6515 Q396.782 18.6515 399.531 22.2105 Q402.28 25.7406 402.28 32.2799 L402.28 51.84 L396.927 51.84 L396.927 32.4535 Q396.927 27.795 395.278 25.5381 Q393.628 23.2811 390.243 23.2811 Q386.105 23.2811 383.703 26.03 Q381.302 28.7788 381.302 33.5241 L381.302 51.84 L375.949 51.84 L375.949 32.4535 Q375.949 27.7661 374.3 25.5381 Q372.65 23.2811 369.207 23.2811 Q365.127 23.2811 362.726 26.0589 Q360.324 28.8077 360.324 33.5241 L360.324 51.84 L354.971 51.84 L354.971 19.4328 L360.324 19.4328 L360.324 24.4675 Q362.147 21.4872 364.693 20.0693 Q367.239 18.6515 370.741 18.6515 Q374.271 18.6515 376.73 20.4455 Q379.219 22.2395 380.405 25.6538 Z" fill="#adb2b7" fill-rule="nonzero" fill-opacity="1" /><path clip-path="url(#clip200)" d="M412.349 39.0507 L412.349 19.4328 L417.673 19.4328 L417.673 38.8482 Q417.673 43.4488 419.467 45.7636 Q421.261 48.0495 424.849 48.0495 Q429.16 48.0495 431.649 45.3007 Q434.166 42.5519 434.166 37.8065 L434.166 19.4328 L439.49 19.4328 L439.49 51.84 L434.166 51.84 L434.166 46.8632 Q432.228 49.8145 429.652 51.2613 Q427.106 52.6791 423.721 52.6791 Q418.136 52.6791 415.243 49.2069 Q412.349 45.7347 412.349 39.0507 M425.746 18.6515 L425.746 18.6515 Z" fill="#adb2b7" fill-rule="nonzero" fill-opacity="1" /><path clip-path="url(#clip200)" d="M450.457 6.81709 L455.781 6.81709 L455.781 51.84 L450.457 51.84 L450.457 6.81709 Z" fill="#adb2b7" fill-rule="nonzero" fill-opacity="1" /><path clip-path="url(#clip200)" d="M481.649 35.5496 Q475.196 35.5496 472.708 37.0253 Q470.219 38.501 470.219 42.06 Q470.219 44.8956 472.071 46.5738 Q473.952 48.2231 477.164 48.2231 Q481.591 48.2231 484.253 45.0981 Q486.944 41.9442 486.944 36.7359 L486.944 35.5496 L481.649 35.5496 M492.268 33.3505 L492.268 51.84 L486.944 51.84 L486.944 46.921 Q485.121 49.8724 482.401 51.2902 Q479.681 52.6791 475.746 52.6791 Q470.769 52.6791 467.818 49.9014 Q464.895 47.0947 464.895 42.4072 Q464.895 36.9385 468.541 34.1607 Q472.216 31.3829 479.478 31.3829 L486.944 31.3829 L486.944 30.8621 Q486.944 27.1874 484.513 25.1908 Q482.112 23.1654 477.742 23.1654 Q474.965 23.1654 472.331 23.8309 Q469.698 24.4964 467.268 25.8274 L467.268 20.9085 Q470.19 19.78 472.939 19.2302 Q475.688 18.6515 478.292 18.6515 Q485.323 18.6515 488.796 22.2973 Q492.268 25.9431 492.268 33.3505 Z" fill="#adb2b7" fill-rule="nonzero" fill-opacity="1" /><path clip-path="url(#clip200)" d="M508.5 10.2314 L508.5 19.4328 L519.467 19.4328 L519.467 23.5705 L508.5 23.5705 L508.5 41.163 Q508.5 45.1271 509.571 46.2555 Q510.67 47.384 513.998 47.384 L519.467 47.384 L519.467 51.84 L513.998 51.84 Q507.835 51.84 505.491 49.5541 Q503.147 47.2393 503.147 41.163 L503.147 23.5705 L499.241 23.5705 L499.241 19.4328 L503.147 19.4328 L503.147 10.2314 L508.5 10.2314 Z" fill="#adb2b7" fill-rule="nonzero" fill-opacity="1" /><path clip-path="url(#clip200)" d="M526.469 19.4328 L531.793 19.4328 L531.793 51.84 L526.469 51.84 L526.469 19.4328 M526.469 6.81709 L531.793 6.81709 L531.793 13.559 L526.469 13.559 L526.469 6.81709 Z" fill="#adb2b7" fill-rule="nonzero" fill-opacity="1" /><path clip-path="url(#clip200)" d="M539.114 19.4328 L544.756 19.4328 L554.883 46.6317 L565.01 19.4328 L570.653 19.4328 L558.5 51.84 L551.266 51.84 L539.114 19.4328 Z" fill="#adb2b7" fill-rule="nonzero" fill-opacity="1" /><path clip-path="url(#clip200)" d="M605.722 34.3054 L605.722 36.9095 L581.243 36.9095 Q581.59 42.4072 584.542 45.3007 Q587.522 48.1653 592.817 48.1653 Q595.884 48.1653 598.749 47.4129 Q601.642 46.6606 604.478 45.156 L604.478 50.1907 Q601.613 51.406 598.604 52.0425 Q595.595 52.6791 592.499 52.6791 Q584.744 52.6791 580.201 48.1653 Q575.687 43.6514 575.687 35.9547 Q575.687 27.9975 579.97 23.339 Q584.281 18.6515 591.573 18.6515 Q598.112 18.6515 601.903 22.876 Q605.722 27.0716 605.722 34.3054 M600.398 32.7429 Q600.34 28.3737 597.938 25.7695 Q595.566 23.1654 591.631 23.1654 Q587.175 23.1654 584.484 25.6827 Q581.822 28.2001 581.417 32.7718 L600.398 32.7429 Z" fill="#adb2b7" fill-rule="nonzero" fill-opacity="1" /><path clip-path="url(#clip200)" d="M652.076 24.4096 Q651.179 23.8888 650.108 23.6573 Q649.067 23.3969 647.794 23.3969 Q643.28 23.3969 640.849 26.3482 Q638.448 29.2707 638.448 34.7683 L638.448 51.84 L633.095 51.84 L633.095 19.4328 L638.448 19.4328 L638.448 24.4675 Q640.126 21.5161 642.817 20.0983 Q645.508 18.6515 649.356 18.6515 Q649.906 18.6515 650.571 18.7383 Q651.237 18.7962 652.047 18.9409 L652.076 24.4096 Z" fill="#adb2b7" fill-rule="nonzero" fill-opacity="1" /><path clip-path="url(#clip200)" d="M684.078 34.3054 L684.078 36.9095 L659.599 36.9095 Q659.946 42.4072 662.898 45.3007 Q665.878 48.1653 671.173 48.1653 Q674.24 48.1653 677.105 47.4129 Q679.998 46.6606 682.834 45.156 L682.834 50.1907 Q679.969 51.406 676.96 52.0425 Q673.951 52.6791 670.855 52.6791 Q663.1 52.6791 658.557 48.1653 Q654.043 43.6514 654.043 35.9547 Q654.043 27.9975 658.326 23.339 Q662.637 18.6515 669.929 18.6515 Q676.468 18.6515 680.259 22.876 Q684.078 27.0716 684.078 34.3054 M678.754 32.7429 Q678.696 28.3737 676.295 25.7695 Q673.922 23.1654 669.987 23.1654 Q665.531 23.1654 662.84 25.6827 Q660.178 28.2001 659.773 32.7718 L678.754 32.7429 Z" fill="#adb2b7" fill-rule="nonzero" fill-opacity="1" /><path clip-path="url(#clip200)" d="M698.083 10.2314 L698.083 19.4328 L709.049 19.4328 L709.049 23.5705 L698.083 23.5705 L698.083 41.163 Q698.083 45.1271 699.153 46.2555 Q700.253 47.384 703.58 47.384 L709.049 47.384 L709.049 51.84 L703.58 51.84 Q697.417 51.84 695.073 49.5541 Q692.73 47.2393 692.73 41.163 L692.73 23.5705 L688.823 23.5705 L688.823 19.4328 L692.73 19.4328 L692.73 10.2314 L698.083 10.2314 Z" fill="#adb2b7" fill-rule="nonzero" fill-opacity="1" /><path clip-path="url(#clip200)" d="M715.501 39.0507 L715.501 19.4328 L720.826 19.4328 L720.826 38.8482 Q720.826 43.4488 722.62 45.7636 Q724.413 48.0495 728.001 48.0495 Q732.313 48.0495 734.801 45.3007 Q737.319 42.5519 737.319 37.8065 L737.319 19.4328 L742.643 19.4328 L742.643 51.84 L737.319 51.84 L737.319 46.8632 Q735.38 49.8145 732.805 51.2613 Q730.258 52.6791 726.873 52.6791 Q721.288 52.6791 718.395 49.2069 Q715.501 45.7347 715.501 39.0507 M728.898 18.6515 L728.898 18.6515 Z" fill="#adb2b7" fill-rule="nonzero" fill-opacity="1" /><path clip-path="url(#clip200)" d="M772.388 24.4096 Q771.491 23.8888 770.42 23.6573 Q769.379 23.3969 768.105 23.3969 Q763.592 23.3969 761.161 26.3482 Q758.759 29.2707 758.759 34.7683 L758.759 51.84 L753.406 51.84 L753.406 19.4328 L758.759 19.4328 L758.759 24.4675 Q760.438 21.5161 763.129 20.0983 Q765.82 18.6515 769.668 18.6515 Q770.218 18.6515 770.883 18.7383 Q771.549 18.7962 772.359 18.9409 L772.388 24.4096 Z" fill="#adb2b7" fill-rule="nonzero" fill-opacity="1" /><path clip-path="url(#clip200)" d="M803.869 32.2799 L803.869 51.84 L798.545 51.84 L798.545 32.4535 Q798.545 27.8529 796.751 25.567 Q794.957 23.2811 791.369 23.2811 Q787.058 23.2811 784.569 26.03 Q782.081 28.7788 782.081 33.5241 L782.081 51.84 L776.728 51.84 L776.728 19.4328 L782.081 19.4328 L782.081 24.4675 Q783.991 21.545 786.566 20.0983 Q789.17 18.6515 792.555 18.6515 Q798.14 18.6515 801.005 22.1237 Q803.869 25.567 803.869 32.2799 Z" fill="#adb2b7" fill-rule="nonzero" fill-opacity="1" /><path clip-path="url(#clip200)" d="M835.148 20.3876 L835.148 25.4223 Q832.891 24.2649 830.46 23.6862 Q828.03 23.1075 825.426 23.1075 Q821.462 23.1075 819.465 24.3228 Q817.497 25.5381 817.497 27.9686 Q817.497 29.8204 818.915 30.891 Q820.333 31.9327 824.615 32.8876 L826.438 33.2926 Q832.11 34.5079 834.482 36.7359 Q836.884 38.935 836.884 42.8991 Q836.884 47.4129 833.296 50.046 Q829.737 52.6791 823.487 52.6791 Q820.883 52.6791 818.047 52.1583 Q815.241 51.6664 812.116 50.6537 L812.116 45.156 Q815.067 46.6896 817.931 47.4708 Q820.796 48.2231 823.603 48.2231 Q827.364 48.2231 829.39 46.95 Q831.415 45.6479 831.415 43.3042 Q831.415 41.134 829.94 39.9766 Q828.493 38.8192 823.545 37.7486 L821.693 37.3146 Q816.745 36.273 814.546 34.1318 Q812.347 31.9616 812.347 28.2001 Q812.347 23.6283 815.588 21.1399 Q818.828 18.6515 824.789 18.6515 Q827.74 18.6515 830.345 19.0855 Q832.949 19.5196 835.148 20.3876 Z" fill="#adb2b7" fill-rule="nonzero" fill-opacity="1" /><path clip-path="url(#clip200)" d="M887.462 35.6653 Q887.462 29.7915 885.032 26.464 Q882.63 23.1075 878.406 23.1075 Q874.181 23.1075 871.751 26.464 Q869.349 29.7915 869.349 35.6653 Q869.349 41.5391 871.751 44.8956 Q874.181 48.2231 878.406 48.2231 Q882.63 48.2231 885.032 44.8956 Q887.462 41.5391 887.462 35.6653 M869.349 24.3517 Q871.027 21.4582 873.574 20.0693 Q876.149 18.6515 879.708 18.6515 Q885.611 18.6515 889.285 23.339 Q892.989 28.0265 892.989 35.6653 Q892.989 43.3042 889.285 47.9916 Q885.611 52.6791 879.708 52.6791 Q876.149 52.6791 873.574 51.2902 Q871.027 49.8724 869.349 46.9789 L869.349 51.84 L863.996 51.84 L863.996 6.81709 L869.349 6.81709 L869.349 24.3517 Z" fill="#adb2b7" fill-rule="nonzero" fill-opacity="1" /><path clip-path="url(#clip200)" d="M915.298 54.8492 Q913.041 60.6362 910.9 62.4013 Q908.759 64.1663 905.171 64.1663 L900.917 64.1663 L900.917 59.7103 L904.042 59.7103 Q906.241 59.7103 907.456 58.6687 Q908.672 57.627 910.147 53.7497 L911.102 51.3192 L897.995 19.4328 L903.637 19.4328 L913.764 44.7799 L923.892 19.4328 L929.534 19.4328 L915.298 54.8492 Z" fill="#adb2b7" fill-rule="nonzero" fill-opacity="1" /><path clip-path="url(#clip200)" d="M982.659 32.2799 L982.659 51.84 L977.335 51.84 L977.335 32.4535 Q977.335 27.8529 975.541 25.567 Q973.747 23.2811 970.159 23.2811 Q965.847 23.2811 963.359 26.03 Q960.871 28.7788 960.871 33.5241 L960.871 51.84 L955.518 51.84 L955.518 6.81709 L960.871 6.81709 L960.871 24.4675 Q962.78 21.545 965.355 20.0983 Q967.96 18.6515 971.345 18.6515 Q976.929 18.6515 979.794 22.1237 Q982.659 25.567 982.659 32.2799 Z" fill="#adb2b7" fill-rule="nonzero" fill-opacity="1" /><path clip-path="url(#clip200)" d="M1005.84 23.1654 Q1001.55 23.1654 999.065 26.5218 Q996.576 29.8494 996.576 35.6653 Q996.576 41.4813 999.036 44.8377 Q1001.52 48.1653 1005.84 48.1653 Q1010.09 48.1653 1012.58 44.8088 Q1015.07 41.4523 1015.07 35.6653 Q1015.07 29.9072 1012.58 26.5508 Q1010.09 23.1654 1005.84 23.1654 M1005.84 18.6515 Q1012.78 18.6515 1016.74 23.1654 Q1020.71 27.6792 1020.71 35.6653 Q1020.71 43.6225 1016.74 48.1653 Q1012.78 52.6791 1005.84 52.6791 Q998.862 52.6791 994.898 48.1653 Q990.963 43.6225 990.963 35.6653 Q990.963 27.6792 994.898 23.1654 Q998.862 18.6515 1005.84 18.6515 Z" fill="#adb2b7" fill-rule="nonzero" fill-opacity="1" /><path clip-path="url(#clip200)" d="M1028.98 39.0507 L1028.98 19.4328 L1034.31 19.4328 L1034.31 38.8482 Q1034.31 43.4488 1036.1 45.7636 Q1037.9 48.0495 1041.48 48.0495 Q1045.79 48.0495 1048.28 45.3007 Q1050.8 42.5519 1050.8 37.8065 L1050.8 19.4328 L1056.12 19.4328 L1056.12 51.84 L1050.8 51.84 L1050.8 46.8632 Q1048.86 49.8145 1046.29 51.2613 Q1043.74 52.6791 1040.36 52.6791 Q1034.77 52.6791 1031.88 49.2069 Q1028.98 45.7347 1028.98 39.0507 M1042.38 18.6515 L1042.38 18.6515 Z" fill="#adb2b7" fill-rule="nonzero" fill-opacity="1" /><path clip-path="url(#clip200)" d="M1085.87 24.4096 Q1084.97 23.8888 1083.9 23.6573 Q1082.86 23.3969 1081.59 23.3969 Q1077.07 23.3969 1074.64 26.3482 Q1072.24 29.2707 1072.24 34.7683 L1072.24 51.84 L1066.89 51.84 L1066.89 19.4328 L1072.24 19.4328 L1072.24 24.4675 Q1073.92 21.5161 1076.61 20.0983 Q1079.3 18.6515 1083.15 18.6515 Q1083.7 18.6515 1084.37 18.7383 Q1085.03 18.7962 1085.84 18.9409 L1085.87 24.4096 Z" fill="#adb2b7" fill-rule="nonzero" fill-opacity="1" /><path clip-path="url(#clip200)" d="M1989.43 501.977 L2352.76 501.977 L2352.76 152.057 L1989.43 152.057  Z" fill="#000000" fill-rule="evenodd" fill-opacity="0"/>
<polyline clip-path="url(#clip200)" style="stroke:#000000; stroke-linecap:round; stroke-linejoin:round; stroke-width:4; stroke-opacity:0; fill:none" points="1989.43,501.977 2352.76,501.977 2352.76,152.057 1989.43,152.057 1989.43,501.977 "/>
<polyline clip-path="url(#clip200)" style="stroke:#fe4365; stroke-linecap:round; stroke-linejoin:round; stroke-width:2.25; stroke-opacity:1; fill:none" points="2013.76,210.377 2159.79,210.377 "/>
<path clip-path="url(#clip200)" d="M2184.88 225.39 L2193.47 225.39 L2193.47 195.728 L2184.12 197.603 L2184.12 192.812 L2193.42 190.937 L2198.68 190.937 L2198.68 225.39 L2207.27 225.39 L2207.27 229.817 L2184.88 229.817 L2184.88 225.39 Z" fill="#adb2b7" fill-rule="nonzero" fill-opacity="1" /><path clip-path="url(#clip200)" d="M2232.35 195.52 L2219.07 216.275 L2232.35 216.275 L2232.35 195.52 M2230.97 190.937 L2237.59 190.937 L2237.59 216.275 L2243.13 216.275 L2243.13 220.65 L2237.59 220.65 L2237.59 229.817 L2232.35 229.817 L2232.35 220.65 L2214.8 220.65 L2214.8 215.572 L2230.97 190.937 Z" fill="#adb2b7" fill-rule="nonzero" fill-opacity="1" /><path clip-path="url(#clip200)" d="M2252.38 223.202 L2257.87 223.202 L2257.87 229.817 L2252.38 229.817 L2252.38 223.202 M2252.38 202.239 L2257.87 202.239 L2257.87 208.853 L2252.38 208.853 L2252.38 202.239 Z" fill="#adb2b7" fill-rule="nonzero" fill-opacity="1" /><path clip-path="url(#clip200)" d="M2281.05 194.4 Q2276.99 194.4 2274.93 198.411 Q2272.9 202.395 2272.9 210.416 Q2272.9 218.41 2274.93 222.421 Q2276.99 226.405 2281.05 226.405 Q2285.14 226.405 2287.17 222.421 Q2289.23 218.41 2289.23 210.416 Q2289.23 202.395 2287.17 198.411 Q2285.14 194.4 2281.05 194.4 M2281.05 190.234 Q2287.59 190.234 2291.02 195.416 Q2294.49 200.572 2294.49 210.416 Q2294.49 220.233 2291.02 225.416 Q2287.59 230.572 2281.05 230.572 Q2274.51 230.572 2271.05 225.416 Q2267.61 220.233 2267.61 210.416 Q2267.61 200.572 2271.05 195.416 Q2274.51 190.234 2281.05 190.234 Z" fill="#adb2b7" fill-rule="nonzero" fill-opacity="1" /><path clip-path="url(#clip200)" d="M2314.98 194.4 Q2310.92 194.4 2308.86 198.411 Q2306.83 202.395 2306.83 210.416 Q2306.83 218.41 2308.86 222.421 Q2310.92 226.405 2314.98 226.405 Q2319.07 226.405 2321.1 222.421 Q2323.16 218.41 2323.16 210.416 Q2323.16 202.395 2321.1 198.411 Q2319.07 194.4 2314.98 194.4 M2314.98 190.234 Q2321.52 190.234 2324.96 195.416 Q2328.42 200.572 2328.42 210.416 Q2328.42 220.233 2324.96 225.416 Q2321.52 230.572 2314.98 230.572 Q2308.44 230.572 2304.98 225.416 Q2301.54 220.233 2301.54 210.416 Q2301.54 200.572 2304.98 195.416 Q2308.44 190.234 2314.98 190.234 Z" fill="#adb2b7" fill-rule="nonzero" fill-opacity="1" /><polyline clip-path="url(#clip200)" style="stroke:#eca25c; stroke-linecap:round; stroke-linejoin:round; stroke-width:2.25; stroke-opacity:1; fill:none" points="2013.76,268.697 2159.79,268.697 "/>
<path clip-path="url(#clip200)" d="M2184.88 283.71 L2193.47 283.71 L2193.47 254.048 L2184.12 255.923 L2184.12 251.132 L2193.42 249.257 L2198.68 249.257 L2198.68 283.71 L2207.27 283.71 L2207.27 288.137 L2184.88 288.137 L2184.88 283.71 Z" fill="#adb2b7" fill-rule="nonzero" fill-opacity="1" /><path clip-path="url(#clip200)" d="M2217.95 249.257 L2238.6 249.257 L2238.6 253.684 L2222.77 253.684 L2222.77 263.215 Q2223.91 262.824 2225.06 262.642 Q2226.21 262.434 2227.35 262.434 Q2233.86 262.434 2237.66 266.001 Q2241.47 269.569 2241.47 275.663 Q2241.47 281.939 2237.56 285.428 Q2233.65 288.892 2226.54 288.892 Q2224.1 288.892 2221.54 288.475 Q2219.02 288.059 2216.31 287.225 L2216.31 281.939 Q2218.65 283.215 2221.15 283.84 Q2223.65 284.465 2226.44 284.465 Q2230.95 284.465 2233.58 282.095 Q2236.21 279.725 2236.21 275.663 Q2236.21 271.6 2233.58 269.231 Q2230.95 266.861 2226.44 266.861 Q2224.33 266.861 2222.22 267.329 Q2220.14 267.798 2217.95 268.788 L2217.95 249.257 Z" fill="#adb2b7" fill-rule="nonzero" fill-opacity="1" /><path clip-path="url(#clip200)" d="M2252.38 281.522 L2257.87 281.522 L2257.87 288.137 L2252.38 288.137 L2252.38 281.522 M2252.38 260.559 L2257.87 260.559 L2257.87 267.173 L2252.38 267.173 L2252.38 260.559 Z" fill="#adb2b7" fill-rule="nonzero" fill-opacity="1" /><path clip-path="url(#clip200)" d="M2281.05 252.72 Q2276.99 252.72 2274.93 256.731 Q2272.9 260.715 2272.9 268.736 Q2272.9 276.73 2274.93 280.741 Q2276.99 284.725 2281.05 284.725 Q2285.14 284.725 2287.17 280.741 Q2289.23 276.73 2289.23 268.736 Q2289.23 260.715 2287.17 256.731 Q2285.14 252.72 2281.05 252.72 M2281.05 248.554 Q2287.59 248.554 2291.02 253.736 Q2294.49 258.892 2294.49 268.736 Q2294.49 278.553 2291.02 283.736 Q2287.59 288.892 2281.05 288.892 Q2274.51 288.892 2271.05 283.736 Q2267.61 278.553 2267.61 268.736 Q2267.61 258.892 2271.05 253.736 Q2274.51 248.554 2281.05 248.554 Z" fill="#adb2b7" fill-rule="nonzero" fill-opacity="1" /><path clip-path="url(#clip200)" d="M2314.98 252.72 Q2310.92 252.72 2308.86 256.731 Q2306.83 260.715 2306.83 268.736 Q2306.83 276.73 2308.86 280.741 Q2310.92 284.725 2314.98 284.725 Q2319.07 284.725 2321.1 280.741 Q2323.16 276.73 2323.16 268.736 Q2323.16 260.715 2321.1 256.731 Q2319.07 252.72 2314.98 252.72 M2314.98 248.554 Q2321.52 248.554 2324.96 253.736 Q2328.42 258.892 2328.42 268.736 Q2328.42 278.553 2324.96 283.736 Q2321.52 288.892 2314.98 288.892 Q2308.44 288.892 2304.98 283.736 Q2301.54 278.553 2301.54 268.736 Q2301.54 258.892 2304.98 253.736 Q2308.44 248.554 2314.98 248.554 Z" fill="#adb2b7" fill-rule="nonzero" fill-opacity="1" /><polyline clip-path="url(#clip200)" style="stroke:#3f9778; stroke-linecap:round; stroke-linejoin:round; stroke-width:2.25; stroke-opacity:1; fill:none" points="2013.76,327.017 2159.79,327.017 "/>
<path clip-path="url(#clip200)" d="M2184.88 342.03 L2193.47 342.03 L2193.47 312.368 L2184.12 314.243 L2184.12 309.452 L2193.42 307.577 L2198.68 307.577 L2198.68 342.03 L2207.27 342.03 L2207.27 346.457 L2184.88 346.457 L2184.88 342.03 Z" fill="#adb2b7" fill-rule="nonzero" fill-opacity="1" /><path clip-path="url(#clip200)" d="M2229.8 324.92 Q2226.26 324.92 2224.17 327.342 Q2222.12 329.764 2222.12 333.983 Q2222.12 338.175 2224.17 340.623 Q2226.26 343.045 2229.8 343.045 Q2233.34 343.045 2235.4 340.623 Q2237.48 338.175 2237.48 333.983 Q2237.48 329.764 2235.4 327.342 Q2233.34 324.92 2229.8 324.92 M2240.24 308.436 L2240.24 313.228 Q2238.26 312.29 2236.23 311.795 Q2234.23 311.301 2232.25 311.301 Q2227.04 311.301 2224.28 314.816 Q2221.54 318.332 2221.15 325.441 Q2222.69 323.176 2225.01 321.978 Q2227.33 320.754 2230.11 320.754 Q2235.97 320.754 2239.36 324.321 Q2242.77 327.863 2242.77 333.983 Q2242.77 339.972 2239.23 343.592 Q2235.68 347.212 2229.8 347.212 Q2223.05 347.212 2219.49 342.056 Q2215.92 336.873 2215.92 327.056 Q2215.92 317.837 2220.29 312.368 Q2224.67 306.874 2232.04 306.874 Q2234.02 306.874 2236.02 307.264 Q2238.05 307.655 2240.24 308.436 Z" fill="#adb2b7" fill-rule="nonzero" fill-opacity="1" /><path clip-path="url(#clip200)" d="M2252.38 339.842 L2257.87 339.842 L2257.87 346.457 L2252.38 346.457 L2252.38 339.842 M2252.38 318.879 L2257.87 318.879 L2257.87 325.493 L2252.38 325.493 L2252.38 318.879 Z" fill="#adb2b7" fill-rule="nonzero" fill-opacity="1" /><path clip-path="url(#clip200)" d="M2281.05 311.04 Q2276.99 311.04 2274.93 315.051 Q2272.9 319.035 2272.9 327.056 Q2272.9 335.05 2274.93 339.061 Q2276.99 343.045 2281.05 343.045 Q2285.14 343.045 2287.17 339.061 Q2289.23 335.05 2289.23 327.056 Q2289.23 319.035 2287.17 315.051 Q2285.14 311.04 2281.05 311.04 M2281.05 306.874 Q2287.59 306.874 2291.02 312.056 Q2294.49 317.212 2294.49 327.056 Q2294.49 336.873 2291.02 342.056 Q2287.59 347.212 2281.05 347.212 Q2274.51 347.212 2271.05 342.056 Q2267.61 336.873 2267.61 327.056 Q2267.61 317.212 2271.05 312.056 Q2274.51 306.874 2281.05 306.874 Z" fill="#adb2b7" fill-rule="nonzero" fill-opacity="1" /><path clip-path="url(#clip200)" d="M2314.98 311.04 Q2310.92 311.04 2308.86 315.051 Q2306.83 319.035 2306.83 327.056 Q2306.83 335.05 2308.86 339.061 Q2310.92 343.045 2314.98 343.045 Q2319.07 343.045 2321.1 339.061 Q2323.16 335.05 2323.16 327.056 Q2323.16 319.035 2321.1 315.051 Q2319.07 311.04 2314.98 311.04 M2314.98 306.874 Q2321.52 306.874 2324.96 312.056 Q2328.42 317.212 2328.42 327.056 Q2328.42 336.873 2324.96 342.056 Q2321.52 347.212 2314.98 347.212 Q2308.44 347.212 2304.98 342.056 Q2301.54 336.873 2301.54 327.056 Q2301.54 317.212 2304.98 312.056 Q2308.44 306.874 2314.98 306.874 Z" fill="#adb2b7" fill-rule="nonzero" fill-opacity="1" /><polyline clip-path="url(#clip200)" style="stroke:#005d7f; stroke-linecap:round; stroke-linejoin:round; stroke-width:2.25; stroke-opacity:1; fill:none" points="2013.76,385.337 2159.79,385.337 "/>
<path clip-path="url(#clip200)" d="M2184.88 400.35 L2193.47 400.35 L2193.47 370.688 L2184.12 372.563 L2184.12 367.772 L2193.42 365.897 L2198.68 365.897 L2198.68 400.35 L2207.27 400.35 L2207.27 404.777 L2184.88 404.777 L2184.88 400.35 Z" fill="#adb2b7" fill-rule="nonzero" fill-opacity="1" /><path clip-path="url(#clip200)" d="M2216.57 365.897 L2241.57 365.897 L2241.57 368.136 L2227.46 404.777 L2221.96 404.777 L2235.24 370.324 L2216.57 370.324 L2216.57 365.897 Z" fill="#adb2b7" fill-rule="nonzero" fill-opacity="1" /><path clip-path="url(#clip200)" d="M2252.38 398.162 L2257.87 398.162 L2257.87 404.777 L2252.38 404.777 L2252.38 398.162 M2252.38 377.199 L2257.87 377.199 L2257.87 383.813 L2252.38 383.813 L2252.38 377.199 Z" fill="#adb2b7" fill-rule="nonzero" fill-opacity="1" /><path clip-path="url(#clip200)" d="M2281.05 369.36 Q2276.99 369.36 2274.93 373.371 Q2272.9 377.355 2272.9 385.376 Q2272.9 393.37 2274.93 397.381 Q2276.99 401.365 2281.05 401.365 Q2285.14 401.365 2287.17 397.381 Q2289.23 393.37 2289.23 385.376 Q2289.23 377.355 2287.17 373.371 Q2285.14 369.36 2281.05 369.36 M2281.05 365.194 Q2287.59 365.194 2291.02 370.376 Q2294.49 375.532 2294.49 385.376 Q2294.49 395.193 2291.02 400.376 Q2287.59 405.532 2281.05 405.532 Q2274.51 405.532 2271.05 400.376 Q2267.61 395.193 2267.61 385.376 Q2267.61 375.532 2271.05 370.376 Q2274.51 365.194 2281.05 365.194 Z" fill="#adb2b7" fill-rule="nonzero" fill-opacity="1" /><path clip-path="url(#clip200)" d="M2314.98 369.36 Q2310.92 369.36 2308.86 373.371 Q2306.83 377.355 2306.83 385.376 Q2306.83 393.37 2308.86 397.381 Q2310.92 401.365 2314.98 401.365 Q2319.07 401.365 2321.1 397.381 Q2323.16 393.37 2323.16 385.376 Q2323.16 377.355 2321.1 373.371 Q2319.07 369.36 2314.98 369.36 M2314.98 365.194 Q2321.52 365.194 2324.96 370.376 Q2328.42 375.532 2328.42 385.376 Q2328.42 395.193 2324.96 400.376 Q2321.52 405.532 2314.98 405.532 Q2308.44 405.532 2304.98 400.376 Q2301.54 395.193 2301.54 385.376 Q2301.54 375.532 2304.98 370.376 Q2308.44 365.194 2314.98 365.194 Z" fill="#adb2b7" fill-rule="nonzero" fill-opacity="1" /><polyline clip-path="url(#clip200)" style="stroke:#00a8ff; stroke-linecap:round; stroke-linejoin:round; stroke-width:2.25; stroke-opacity:1; fill:none" points="2013.76,443.657 2159.79,443.657 "/>
<path clip-path="url(#clip200)" d="M2184.88 458.67 L2193.47 458.67 L2193.47 429.008 L2184.12 430.883 L2184.12 426.092 L2193.42 424.217 L2198.68 424.217 L2198.68 458.67 L2207.27 458.67 L2207.27 463.097 L2184.88 463.097 L2184.88 458.67 Z" fill="#adb2b7" fill-rule="nonzero" fill-opacity="1" /><path clip-path="url(#clip200)" d="M2229.15 444.633 Q2225.4 444.633 2223.24 446.638 Q2221.1 448.644 2221.1 452.159 Q2221.1 455.675 2223.24 457.68 Q2225.4 459.685 2229.15 459.685 Q2232.9 459.685 2235.06 457.68 Q2237.22 455.649 2237.22 452.159 Q2237.22 448.644 2235.06 446.638 Q2232.92 444.633 2229.15 444.633 M2223.89 442.394 Q2220.5 441.56 2218.6 439.243 Q2216.73 436.925 2216.73 433.592 Q2216.73 428.93 2220.03 426.222 Q2223.37 423.514 2229.15 423.514 Q2234.96 423.514 2238.26 426.222 Q2241.57 428.93 2241.57 433.592 Q2241.57 436.925 2239.67 439.243 Q2237.79 441.56 2234.43 442.394 Q2238.24 443.279 2240.35 445.857 Q2242.48 448.435 2242.48 452.159 Q2242.48 457.81 2239.02 460.831 Q2235.58 463.852 2229.15 463.852 Q2222.72 463.852 2219.25 460.831 Q2215.82 457.81 2215.82 452.159 Q2215.82 448.435 2217.95 445.857 Q2220.09 443.279 2223.89 442.394 M2221.96 434.086 Q2221.96 437.107 2223.84 438.8 Q2225.74 440.493 2229.15 440.493 Q2232.53 440.493 2234.43 438.8 Q2236.36 437.107 2236.36 434.086 Q2236.36 431.066 2234.43 429.373 Q2232.53 427.68 2229.15 427.68 Q2225.74 427.68 2223.84 429.373 Q2221.96 431.066 2221.96 434.086 Z" fill="#adb2b7" fill-rule="nonzero" fill-opacity="1" /><path clip-path="url(#clip200)" d="M2252.38 456.482 L2257.87 456.482 L2257.87 463.097 L2252.38 463.097 L2252.38 456.482 M2252.38 435.519 L2257.87 435.519 L2257.87 442.133 L2252.38 442.133 L2252.38 435.519 Z" fill="#adb2b7" fill-rule="nonzero" fill-opacity="1" /><path clip-path="url(#clip200)" d="M2281.05 427.68 Q2276.99 427.68 2274.93 431.691 Q2272.9 435.675 2272.9 443.696 Q2272.9 451.69 2274.93 455.701 Q2276.99 459.685 2281.05 459.685 Q2285.14 459.685 2287.17 455.701 Q2289.23 451.69 2289.23 443.696 Q2289.23 435.675 2287.17 431.691 Q2285.14 427.68 2281.05 427.68 M2281.05 423.514 Q2287.59 423.514 2291.02 428.696 Q2294.49 433.852 2294.49 443.696 Q2294.49 453.513 2291.02 458.696 Q2287.59 463.852 2281.05 463.852 Q2274.51 463.852 2271.05 458.696 Q2267.61 453.513 2267.61 443.696 Q2267.61 433.852 2271.05 428.696 Q2274.51 423.514 2281.05 423.514 Z" fill="#adb2b7" fill-rule="nonzero" fill-opacity="1" /><path clip-path="url(#clip200)" d="M2314.98 427.68 Q2310.92 427.68 2308.86 431.691 Q2306.83 435.675 2306.83 443.696 Q2306.83 451.69 2308.86 455.701 Q2310.92 459.685 2314.98 459.685 Q2319.07 459.685 2321.1 455.701 Q2323.16 451.69 2323.16 443.696 Q2323.16 435.675 2321.1 431.691 Q2319.07 427.68 2314.98 427.68 M2314.98 423.514 Q2321.52 423.514 2324.96 428.696 Q2328.42 433.852 2328.42 443.696 Q2328.42 453.513 2324.96 458.696 Q2321.52 463.852 2314.98 463.852 Q2308.44 463.852 2304.98 458.696 Q2301.54 453.513 2301.54 443.696 Q2301.54 433.852 2304.98 428.696 Q2308.44 423.514 2314.98 423.514 Z" fill="#adb2b7" fill-rule="nonzero" fill-opacity="1" /><path clip-path="url(#clip200)" d="M163.08 1456.53 L170.719 1456.53 L170.719 1430.17 L162.408 1431.83 L162.408 1427.57 L170.672 1425.91 L175.348 1425.91 L175.348 1456.53 L182.987 1456.53 L182.987 1460.47 L163.08 1460.47 L163.08 1456.53 Z" fill="#000000" fill-rule="nonzero" fill-opacity="1" /><path clip-path="url(#clip200)" d="M205.279 1429.98 L193.473 1448.43 L205.279 1448.43 L205.279 1429.98 M204.052 1425.91 L209.931 1425.91 L209.931 1448.43 L214.862 1448.43 L214.862 1452.32 L209.931 1452.32 L209.931 1460.47 L205.279 1460.47 L205.279 1452.32 L189.677 1452.32 L189.677 1447.8 L204.052 1425.91 Z" fill="#000000" fill-rule="nonzero" fill-opacity="1" /><path clip-path="url(#clip200)" d="M223.079 1454.59 L227.964 1454.59 L227.964 1460.47 L223.079 1460.47 L223.079 1454.59 M223.079 1435.95 L227.964 1435.95 L227.964 1441.83 L223.079 1441.83 L223.079 1435.95 Z" fill="#000000" fill-rule="nonzero" fill-opacity="1" /><path clip-path="url(#clip200)" d="M248.565 1428.98 Q244.954 1428.98 243.126 1432.55 Q241.32 1436.09 241.32 1443.22 Q241.32 1450.33 243.126 1453.89 Q244.954 1457.43 248.565 1457.43 Q252.2 1457.43 254.005 1453.89 Q255.834 1450.33 255.834 1443.22 Q255.834 1436.09 254.005 1432.55 Q252.2 1428.98 248.565 1428.98 M248.565 1425.28 Q254.375 1425.28 257.431 1429.89 Q260.51 1434.47 260.51 1443.22 Q260.51 1451.95 257.431 1456.55 Q254.375 1461.14 248.565 1461.14 Q242.755 1461.14 239.676 1456.55 Q236.621 1451.95 236.621 1443.22 Q236.621 1434.47 239.676 1429.89 Q242.755 1425.28 248.565 1425.28 Z" fill="#000000" fill-rule="nonzero" fill-opacity="1" /><path clip-path="url(#clip200)" d="M278.727 1428.98 Q275.116 1428.98 273.287 1432.55 Q271.482 1436.09 271.482 1443.22 Q271.482 1450.33 273.287 1453.89 Q275.116 1457.43 278.727 1457.43 Q282.361 1457.43 284.167 1453.89 Q285.996 1450.33 285.996 1443.22 Q285.996 1436.09 284.167 1432.55 Q282.361 1428.98 278.727 1428.98 M278.727 1425.28 Q284.537 1425.28 287.593 1429.89 Q290.672 1434.47 290.672 1443.22 Q290.672 1451.95 287.593 1456.55 Q284.537 1461.14 278.727 1461.14 Q272.917 1461.14 269.838 1456.55 Q266.783 1451.95 266.783 1443.22 Q266.783 1434.47 269.838 1429.89 Q272.917 1425.28 278.727 1425.28 Z" fill="#000000" fill-rule="nonzero" fill-opacity="1" /><path clip-path="url(#clip200)" d="M163.08 1185.45 L170.719 1185.45 L170.719 1159.09 L162.408 1160.76 L162.408 1156.5 L170.672 1154.83 L175.348 1154.83 L175.348 1185.45 L182.987 1185.45 L182.987 1189.39 L163.08 1189.39 L163.08 1185.45 Z" fill="#000000" fill-rule="nonzero" fill-opacity="1" /><path clip-path="url(#clip200)" d="M192.478 1154.83 L210.834 1154.83 L210.834 1158.76 L196.76 1158.76 L196.76 1167.24 Q197.779 1166.89 198.797 1166.73 Q199.816 1166.54 200.834 1166.54 Q206.621 1166.54 210.001 1169.71 Q213.38 1172.89 213.38 1178.3 Q213.38 1183.88 209.908 1186.98 Q206.436 1190.06 200.117 1190.06 Q197.941 1190.06 195.672 1189.69 Q193.427 1189.32 191.019 1188.58 L191.019 1183.88 Q193.103 1185.01 195.325 1185.57 Q197.547 1186.13 200.024 1186.13 Q204.029 1186.13 206.366 1184.02 Q208.704 1181.91 208.704 1178.3 Q208.704 1174.69 206.366 1172.58 Q204.029 1170.48 200.024 1170.48 Q198.149 1170.48 196.274 1170.89 Q194.422 1171.31 192.478 1172.19 L192.478 1154.83 Z" fill="#000000" fill-rule="nonzero" fill-opacity="1" /><path clip-path="url(#clip200)" d="M223.079 1183.51 L227.964 1183.51 L227.964 1189.39 L223.079 1189.39 L223.079 1183.51 M223.079 1164.88 L227.964 1164.88 L227.964 1170.76 L223.079 1170.76 L223.079 1164.88 Z" fill="#000000" fill-rule="nonzero" fill-opacity="1" /><path clip-path="url(#clip200)" d="M248.565 1157.91 Q244.954 1157.91 243.126 1161.47 Q241.32 1165.01 241.32 1172.14 Q241.32 1179.25 243.126 1182.82 Q244.954 1186.36 248.565 1186.36 Q252.2 1186.36 254.005 1182.82 Q255.834 1179.25 255.834 1172.14 Q255.834 1165.01 254.005 1161.47 Q252.2 1157.91 248.565 1157.91 M248.565 1154.2 Q254.375 1154.2 257.431 1158.81 Q260.51 1163.39 260.51 1172.14 Q260.51 1180.87 257.431 1185.48 Q254.375 1190.06 248.565 1190.06 Q242.755 1190.06 239.676 1185.48 Q236.621 1180.87 236.621 1172.14 Q236.621 1163.39 239.676 1158.81 Q242.755 1154.2 248.565 1154.2 Z" fill="#000000" fill-rule="nonzero" fill-opacity="1" /><path clip-path="url(#clip200)" d="M278.727 1157.91 Q275.116 1157.91 273.287 1161.47 Q271.482 1165.01 271.482 1172.14 Q271.482 1179.25 273.287 1182.82 Q275.116 1186.36 278.727 1186.36 Q282.361 1186.36 284.167 1182.82 Q285.996 1179.25 285.996 1172.14 Q285.996 1165.01 284.167 1161.47 Q282.361 1157.91 278.727 1157.91 M278.727 1154.2 Q284.537 1154.2 287.593 1158.81 Q290.672 1163.39 290.672 1172.14 Q290.672 1180.87 287.593 1185.48 Q284.537 1190.06 278.727 1190.06 Q272.917 1190.06 269.838 1185.48 Q266.783 1180.87 266.783 1172.14 Q266.783 1163.39 269.838 1158.81 Q272.917 1154.2 278.727 1154.2 Z" fill="#000000" fill-rule="nonzero" fill-opacity="1" /><path clip-path="url(#clip200)" d="M163.08 441.961 L170.719 441.961 L170.719 415.595 L162.408 417.262 L162.408 413.003 L170.672 411.336 L175.348 411.336 L175.348 441.961 L182.987 441.961 L182.987 445.896 L163.08 445.896 L163.08 441.961 Z" fill="#000000" fill-rule="nonzero" fill-opacity="1" /><path clip-path="url(#clip200)" d="M203.01 426.753 Q199.862 426.753 198.01 428.906 Q196.181 431.058 196.181 434.808 Q196.181 438.535 198.01 440.711 Q199.862 442.864 203.01 442.864 Q206.158 442.864 207.987 440.711 Q209.839 438.535 209.839 434.808 Q209.839 431.058 207.987 428.906 Q206.158 426.753 203.01 426.753 M212.292 412.1 L212.292 416.359 Q210.533 415.526 208.728 415.086 Q206.945 414.646 205.186 414.646 Q200.556 414.646 198.103 417.771 Q195.672 420.896 195.325 427.216 Q196.691 425.202 198.751 424.137 Q200.811 423.049 203.288 423.049 Q208.496 423.049 211.505 426.22 Q214.538 429.369 214.538 434.808 Q214.538 440.132 211.39 443.35 Q208.241 446.568 203.01 446.568 Q197.015 446.568 193.843 441.984 Q190.672 437.378 190.672 428.651 Q190.672 420.457 194.561 415.595 Q198.45 410.711 205.001 410.711 Q206.76 410.711 208.542 411.058 Q210.348 411.406 212.292 412.1 Z" fill="#000000" fill-rule="nonzero" fill-opacity="1" /><path clip-path="url(#clip200)" d="M223.079 440.017 L227.964 440.017 L227.964 445.896 L223.079 445.896 L223.079 440.017 M223.079 421.382 L227.964 421.382 L227.964 427.262 L223.079 427.262 L223.079 421.382 Z" fill="#000000" fill-rule="nonzero" fill-opacity="1" /><path clip-path="url(#clip200)" d="M248.565 414.415 Q244.954 414.415 243.126 417.98 Q241.32 421.521 241.32 428.651 Q241.32 435.757 243.126 439.322 Q244.954 442.864 248.565 442.864 Q252.2 442.864 254.005 439.322 Q255.834 435.757 255.834 428.651 Q255.834 421.521 254.005 417.98 Q252.2 414.415 248.565 414.415 M248.565 410.711 Q254.375 410.711 257.431 415.318 Q260.51 419.901 260.51 428.651 Q260.51 437.378 257.431 441.984 Q254.375 446.568 248.565 446.568 Q242.755 446.568 239.676 441.984 Q236.621 437.378 236.621 428.651 Q236.621 419.901 239.676 415.318 Q242.755 410.711 248.565 410.711 Z" fill="#000000" fill-rule="nonzero" fill-opacity="1" /><path clip-path="url(#clip200)" d="M278.727 414.415 Q275.116 414.415 273.287 417.98 Q271.482 421.521 271.482 428.651 Q271.482 435.757 273.287 439.322 Q275.116 442.864 278.727 442.864 Q282.361 442.864 284.167 439.322 Q285.996 435.757 285.996 428.651 Q285.996 421.521 284.167 417.98 Q282.361 414.415 278.727 414.415 M278.727 410.711 Q284.537 410.711 287.593 415.318 Q290.672 419.901 290.672 428.651 Q290.672 437.378 287.593 441.984 Q284.537 446.568 278.727 446.568 Q272.917 446.568 269.838 441.984 Q266.783 437.378 266.783 428.651 Q266.783 419.901 269.838 415.318 Q272.917 410.711 278.727 410.711 Z" fill="#000000" fill-rule="nonzero" fill-opacity="1" /><path clip-path="url(#clip200)" d="M163.08 722.623 L170.719 722.623 L170.719 696.257 L162.408 697.924 L162.408 693.665 L170.672 691.998 L175.348 691.998 L175.348 722.623 L182.987 722.623 L182.987 726.558 L163.08 726.558 L163.08 722.623 Z" fill="#000000" fill-rule="nonzero" fill-opacity="1" /><path clip-path="url(#clip200)" d="M191.251 691.998 L213.473 691.998 L213.473 693.989 L200.927 726.558 L196.042 726.558 L207.848 695.933 L191.251 695.933 L191.251 691.998 Z" fill="#000000" fill-rule="nonzero" fill-opacity="1" /><path clip-path="url(#clip200)" d="M223.079 720.678 L227.964 720.678 L227.964 726.558 L223.079 726.558 L223.079 720.678 M223.079 702.044 L227.964 702.044 L227.964 707.924 L223.079 707.924 L223.079 702.044 Z" fill="#000000" fill-rule="nonzero" fill-opacity="1" /><path clip-path="url(#clip200)" d="M248.565 695.077 Q244.954 695.077 243.126 698.642 Q241.32 702.183 241.32 709.313 Q241.32 716.419 243.126 719.984 Q244.954 723.526 248.565 723.526 Q252.2 723.526 254.005 719.984 Q255.834 716.419 255.834 709.313 Q255.834 702.183 254.005 698.642 Q252.2 695.077 248.565 695.077 M248.565 691.373 Q254.375 691.373 257.431 695.98 Q260.51 700.563 260.51 709.313 Q260.51 718.04 257.431 722.646 Q254.375 727.229 248.565 727.229 Q242.755 727.229 239.676 722.646 Q236.621 718.04 236.621 709.313 Q236.621 700.563 239.676 695.98 Q242.755 691.373 248.565 691.373 Z" fill="#000000" fill-rule="nonzero" fill-opacity="1" /><path clip-path="url(#clip200)" d="M278.727 695.077 Q275.116 695.077 273.287 698.642 Q271.482 702.183 271.482 709.313 Q271.482 716.419 273.287 719.984 Q275.116 723.526 278.727 723.526 Q282.361 723.526 284.167 719.984 Q285.996 716.419 285.996 709.313 Q285.996 702.183 284.167 698.642 Q282.361 695.077 278.727 695.077 M278.727 691.373 Q284.537 691.373 287.593 695.98 Q290.672 700.563 290.672 709.313 Q290.672 718.04 287.593 722.646 Q284.537 727.229 278.727 727.229 Q272.917 727.229 269.838 722.646 Q266.783 718.04 266.783 709.313 Q266.783 700.563 269.838 695.98 Q272.917 691.373 278.727 691.373 Z" fill="#000000" fill-rule="nonzero" fill-opacity="1" /><path clip-path="url(#clip200)" d="M163.08 158.479 L170.719 158.479 L170.719 132.113 L162.408 133.78 L162.408 129.52 L170.672 127.854 L175.348 127.854 L175.348 158.479 L182.987 158.479 L182.987 162.414 L163.08 162.414 L163.08 158.479 Z" fill="#000000" fill-rule="nonzero" fill-opacity="1" /><path clip-path="url(#clip200)" d="M202.431 146.002 Q199.098 146.002 197.177 147.784 Q195.279 149.567 195.279 152.692 Q195.279 155.817 197.177 157.599 Q199.098 159.381 202.431 159.381 Q205.765 159.381 207.686 157.599 Q209.607 155.793 209.607 152.692 Q209.607 149.567 207.686 147.784 Q205.788 146.002 202.431 146.002 M197.755 144.011 Q194.746 143.27 193.056 141.21 Q191.39 139.15 191.39 136.187 Q191.39 132.043 194.33 129.636 Q197.292 127.229 202.431 127.229 Q207.593 127.229 210.533 129.636 Q213.473 132.043 213.473 136.187 Q213.473 139.15 211.783 141.21 Q210.116 143.27 207.13 144.011 Q210.51 144.798 212.385 147.09 Q214.283 149.381 214.283 152.692 Q214.283 157.715 211.204 160.4 Q208.149 163.085 202.431 163.085 Q196.714 163.085 193.635 160.4 Q190.58 157.715 190.58 152.692 Q190.58 149.381 192.478 147.09 Q194.376 144.798 197.755 144.011 M196.042 136.627 Q196.042 139.312 197.709 140.817 Q199.399 142.321 202.431 142.321 Q205.441 142.321 207.13 140.817 Q208.843 139.312 208.843 136.627 Q208.843 133.942 207.13 132.437 Q205.441 130.932 202.431 130.932 Q199.399 130.932 197.709 132.437 Q196.042 133.942 196.042 136.627 Z" fill="#000000" fill-rule="nonzero" fill-opacity="1" /><path clip-path="url(#clip200)" d="M223.079 156.534 L227.964 156.534 L227.964 162.414 L223.079 162.414 L223.079 156.534 M223.079 137.9 L227.964 137.9 L227.964 143.78 L223.079 143.78 L223.079 137.9 Z" fill="#000000" fill-rule="nonzero" fill-opacity="1" /><path clip-path="url(#clip200)" d="M248.565 130.932 Q244.954 130.932 243.126 134.497 Q241.32 138.039 241.32 145.168 Q241.32 152.275 243.126 155.84 Q244.954 159.381 248.565 159.381 Q252.2 159.381 254.005 155.84 Q255.834 152.275 255.834 145.168 Q255.834 138.039 254.005 134.497 Q252.2 130.932 248.565 130.932 M248.565 127.229 Q254.375 127.229 257.431 131.835 Q260.51 136.418 260.51 145.168 Q260.51 153.895 257.431 158.502 Q254.375 163.085 248.565 163.085 Q242.755 163.085 239.676 158.502 Q236.621 153.895 236.621 145.168 Q236.621 136.418 239.676 131.835 Q242.755 127.229 248.565 127.229 Z" fill="#000000" fill-rule="nonzero" fill-opacity="1" /><path clip-path="url(#clip200)" d="M278.727 130.932 Q275.116 130.932 273.287 134.497 Q271.482 138.039 271.482 145.168 Q271.482 152.275 273.287 155.84 Q275.116 159.381 278.727 159.381 Q282.361 159.381 284.167 155.84 Q285.996 152.275 285.996 145.168 Q285.996 138.039 284.167 134.497 Q282.361 130.932 278.727 130.932 M278.727 127.229 Q284.537 127.229 287.593 131.835 Q290.672 136.418 290.672 145.168 Q290.672 153.895 287.593 158.502 Q284.537 163.085 278.727 163.085 Q272.917 163.085 269.838 158.502 Q266.783 153.895 266.783 145.168 Q266.783 136.418 269.838 131.835 Q272.917 127.229 278.727 127.229 Z" fill="#000000" fill-rule="nonzero" fill-opacity="1" /></svg>
