<?xml version="1.0" encoding="utf-8"?>
<svg xmlns="http://www.w3.org/2000/svg" xmlns:xlink="http://www.w3.org/1999/xlink" width="600" height="400" viewBox="0 0 2400 1600">
<defs>
  <clipPath id="clip050">
    <rect x="0" y="0" width="2400" height="1600"/>
  </clipPath>
</defs>
<path clip-path="url(#clip050)" d="M0 1600 L2400 1600 L2400 0 L0 0  Z" fill="#282c34" fill-rule="evenodd" fill-opacity="1"/>
<defs>
  <clipPath id="clip051">
    <rect x="219" y="106" width="2134" height="1381"/>
  </clipPath>
</defs>
<path clip-path="url(#clip050)" d="M219.607 1486.45 L2352.76 1486.45 L2352.76 106.192 L219.607 106.192  Z" fill="#21252b" fill-rule="evenodd" fill-opacity="1"/>
<polyline clip-path="url(#clip051)" style="stroke:#adb2b7; stroke-linecap:round; stroke-linejoin:round; stroke-width:2; stroke-opacity:0.1; fill:none" points="503.58,1486.45 503.58,106.192 "/>
<polyline clip-path="url(#clip051)" style="stroke:#adb2b7; stroke-linecap:round; stroke-linejoin:round; stroke-width:2; stroke-opacity:0.1; fill:none" points="950.781,1486.45 950.781,106.192 "/>
<polyline clip-path="url(#clip051)" style="stroke:#adb2b7; stroke-linecap:round; stroke-linejoin:round; stroke-width:2; stroke-opacity:0.1; fill:none" points="1397.98,1486.45 1397.98,106.192 "/>
<polyline clip-path="url(#clip051)" style="stroke:#adb2b7; stroke-linecap:round; stroke-linejoin:round; stroke-width:2; stroke-opacity:0.1; fill:none" points="1845.18,1486.45 1845.18,106.192 "/>
<polyline clip-path="url(#clip051)" style="stroke:#adb2b7; stroke-linecap:round; stroke-linejoin:round; stroke-width:2; stroke-opacity:0.1; fill:none" points="2292.38,1486.45 2292.38,106.192 "/>
<polyline clip-path="url(#clip051)" style="stroke:#adb2b7; stroke-linecap:round; stroke-linejoin:round; stroke-width:2; stroke-opacity:0.1; fill:none" points="219.607,1316.59 2352.76,1316.59 "/>
<polyline clip-path="url(#clip051)" style="stroke:#adb2b7; stroke-linecap:round; stroke-linejoin:round; stroke-width:2; stroke-opacity:0.1; fill:none" points="219.607,1023.76 2352.76,1023.76 "/>
<polyline clip-path="url(#clip051)" style="stroke:#adb2b7; stroke-linecap:round; stroke-linejoin:round; stroke-width:2; stroke-opacity:0.1; fill:none" points="219.607,730.924 2352.76,730.924 "/>
<polyline clip-path="url(#clip051)" style="stroke:#adb2b7; stroke-linecap:round; stroke-linejoin:round; stroke-width:2; stroke-opacity:0.1; fill:none" points="219.607,438.09 2352.76,438.09 "/>
<polyline clip-path="url(#clip051)" style="stroke:#adb2b7; stroke-linecap:round; stroke-linejoin:round; stroke-width:2; stroke-opacity:0.1; fill:none" points="219.607,145.256 2352.76,145.256 "/>
<polyline clip-path="url(#clip050)" style="stroke:#adb2b7; stroke-linecap:round; stroke-linejoin:round; stroke-width:4; stroke-opacity:1; fill:none" points="219.607,1486.45 2352.76,1486.45 "/>
<polyline clip-path="url(#clip050)" style="stroke:#adb2b7; stroke-linecap:round; stroke-linejoin:round; stroke-width:4; stroke-opacity:1; fill:none" points="503.58,1486.45 503.58,1467.55 "/>
<polyline clip-path="url(#clip050)" style="stroke:#adb2b7; stroke-linecap:round; stroke-linejoin:round; stroke-width:4; stroke-opacity:1; fill:none" points="950.781,1486.45 950.781,1467.55 "/>
<polyline clip-path="url(#clip050)" style="stroke:#adb2b7; stroke-linecap:round; stroke-linejoin:round; stroke-width:4; stroke-opacity:1; fill:none" points="1397.98,1486.45 1397.98,1467.55 "/>
<polyline clip-path="url(#clip050)" style="stroke:#adb2b7; stroke-linecap:round; stroke-linejoin:round; stroke-width:4; stroke-opacity:1; fill:none" points="1845.18,1486.45 1845.18,1467.55 "/>
<polyline clip-path="url(#clip050)" style="stroke:#adb2b7; stroke-linecap:round; stroke-linejoin:round; stroke-width:4; stroke-opacity:1; fill:none" points="2292.38,1486.45 2292.38,1467.55 "/>
<path clip-path="url(#clip050)" d="M498.233 1544.91 L514.552 1544.91 L514.552 1548.85 L492.608 1548.85 L492.608 1544.91 Q495.27 1542.16 499.853 1537.53 Q504.459 1532.88 505.64 1531.53 Q507.885 1529.01 508.765 1527.27 Q509.668 1525.51 509.668 1523.82 Q509.668 1521.07 507.723 1519.33 Q505.802 1517.6 502.7 1517.6 Q500.501 1517.6 498.047 1518.36 Q495.617 1519.13 492.839 1520.68 L492.839 1515.95 Q495.663 1514.82 498.117 1514.24 Q500.571 1513.66 502.608 1513.66 Q507.978 1513.66 511.172 1516.35 Q514.367 1519.03 514.367 1523.52 Q514.367 1525.65 513.557 1527.57 Q512.77 1529.47 510.663 1532.07 Q510.084 1532.74 506.983 1535.95 Q503.881 1539.15 498.233 1544.91 Z" fill="#9eb1be" fill-rule="nonzero" fill-opacity="1" /><path clip-path="url(#clip050)" d="M953.79 1518.36 L941.985 1536.81 L953.79 1536.81 L953.79 1518.36 M952.563 1514.29 L958.443 1514.29 L958.443 1536.81 L963.373 1536.81 L963.373 1540.7 L958.443 1540.7 L958.443 1548.85 L953.79 1548.85 L953.79 1540.7 L938.188 1540.7 L938.188 1536.19 L952.563 1514.29 Z" fill="#9eb1be" fill-rule="nonzero" fill-opacity="1" /><path clip-path="url(#clip050)" d="M1398.39 1529.7 Q1395.24 1529.7 1393.39 1531.86 Q1391.56 1534.01 1391.56 1537.76 Q1391.56 1541.49 1393.39 1543.66 Q1395.24 1545.82 1398.39 1545.82 Q1401.54 1545.82 1403.36 1543.66 Q1405.22 1541.49 1405.22 1537.76 Q1405.22 1534.01 1403.36 1531.86 Q1401.54 1529.7 1398.39 1529.7 M1407.67 1515.05 L1407.67 1519.31 Q1405.91 1518.48 1404.1 1518.04 Q1402.32 1517.6 1400.56 1517.6 Q1395.93 1517.6 1393.48 1520.72 Q1391.05 1523.85 1390.7 1530.17 Q1392.07 1528.15 1394.13 1527.09 Q1396.19 1526 1398.66 1526 Q1403.87 1526 1406.88 1529.17 Q1409.91 1532.32 1409.91 1537.76 Q1409.91 1543.08 1406.77 1546.3 Q1403.62 1549.52 1398.39 1549.52 Q1392.39 1549.52 1389.22 1544.94 Q1386.05 1540.33 1386.05 1531.6 Q1386.05 1523.41 1389.94 1518.55 Q1393.83 1513.66 1400.38 1513.66 Q1402.14 1513.66 1403.92 1514.01 Q1405.72 1514.36 1407.67 1515.05 Z" fill="#9eb1be" fill-rule="nonzero" fill-opacity="1" /><path clip-path="url(#clip050)" d="M1845.18 1532.44 Q1841.85 1532.44 1839.93 1534.22 Q1838.03 1536 1838.03 1539.13 Q1838.03 1542.25 1839.93 1544.03 Q1841.85 1545.82 1845.18 1545.82 Q1848.52 1545.82 1850.44 1544.03 Q1852.36 1542.23 1852.36 1539.13 Q1852.36 1536 1850.44 1534.22 Q1848.54 1532.44 1845.18 1532.44 M1840.51 1530.45 Q1837.5 1529.7 1835.81 1527.64 Q1834.14 1525.58 1834.14 1522.62 Q1834.14 1518.48 1837.08 1516.07 Q1840.04 1513.66 1845.18 1513.66 Q1850.34 1513.66 1853.28 1516.07 Q1856.22 1518.48 1856.22 1522.62 Q1856.22 1525.58 1854.53 1527.64 Q1852.87 1529.7 1849.88 1530.45 Q1853.26 1531.23 1855.14 1533.52 Q1857.03 1535.82 1857.03 1539.13 Q1857.03 1544.15 1853.96 1546.83 Q1850.9 1549.52 1845.18 1549.52 Q1839.47 1549.52 1836.39 1546.83 Q1833.33 1544.15 1833.33 1539.13 Q1833.33 1535.82 1835.23 1533.52 Q1837.13 1531.23 1840.51 1530.45 M1838.79 1523.06 Q1838.79 1525.75 1840.46 1527.25 Q1842.15 1528.76 1845.18 1528.76 Q1848.19 1528.76 1849.88 1527.25 Q1851.59 1525.75 1851.59 1523.06 Q1851.59 1520.38 1849.88 1518.87 Q1848.19 1517.37 1845.18 1517.37 Q1842.15 1517.37 1840.46 1518.87 Q1838.79 1520.38 1838.79 1523.06 Z" fill="#9eb1be" fill-rule="nonzero" fill-opacity="1" /><path clip-path="url(#clip050)" d="M2267.07 1544.91 L2274.71 1544.91 L2274.71 1518.55 L2266.4 1520.21 L2266.4 1515.95 L2274.66 1514.29 L2279.34 1514.29 L2279.34 1544.91 L2286.98 1544.91 L2286.98 1548.85 L2267.07 1548.85 L2267.07 1544.91 Z" fill="#9eb1be" fill-rule="nonzero" fill-opacity="1" /><path clip-path="url(#clip050)" d="M2306.42 1517.37 Q2302.81 1517.37 2300.98 1520.93 Q2299.18 1524.47 2299.18 1531.6 Q2299.18 1538.71 2300.98 1542.27 Q2302.81 1545.82 2306.42 1545.82 Q2310.06 1545.82 2311.86 1542.27 Q2313.69 1538.71 2313.69 1531.6 Q2313.69 1524.47 2311.86 1520.93 Q2310.06 1517.37 2306.42 1517.37 M2306.42 1513.66 Q2312.23 1513.66 2315.29 1518.27 Q2318.37 1522.85 2318.37 1531.6 Q2318.37 1540.33 2315.29 1544.94 Q2312.23 1549.52 2306.42 1549.52 Q2300.61 1549.52 2297.53 1544.94 Q2294.48 1540.33 2294.48 1531.6 Q2294.48 1522.85 2297.53 1518.27 Q2300.61 1513.66 2306.42 1513.66 Z" fill="#9eb1be" fill-rule="nonzero" fill-opacity="1" /><polyline clip-path="url(#clip050)" style="stroke:#adb2b7; stroke-linecap:round; stroke-linejoin:round; stroke-width:4; stroke-opacity:1; fill:none" points="219.607,1486.45 219.607,106.192 "/>
<polyline clip-path="url(#clip050)" style="stroke:#adb2b7; stroke-linecap:round; stroke-linejoin:round; stroke-width:4; stroke-opacity:1; fill:none" points="219.607,1316.59 238.505,1316.59 "/>
<polyline clip-path="url(#clip050)" style="stroke:#adb2b7; stroke-linecap:round; stroke-linejoin:round; stroke-width:4; stroke-opacity:1; fill:none" points="219.607,1023.76 238.505,1023.76 "/>
<polyline clip-path="url(#clip050)" style="stroke:#adb2b7; stroke-linecap:round; stroke-linejoin:round; stroke-width:4; stroke-opacity:1; fill:none" points="219.607,730.924 238.505,730.924 "/>
<polyline clip-path="url(#clip050)" style="stroke:#adb2b7; stroke-linecap:round; stroke-linejoin:round; stroke-width:4; stroke-opacity:1; fill:none" points="219.607,438.09 238.505,438.09 "/>
<polyline clip-path="url(#clip050)" style="stroke:#adb2b7; stroke-linecap:round; stroke-linejoin:round; stroke-width:4; stroke-opacity:1; fill:none" points="219.607,145.256 238.505,145.256 "/>
<path clip-path="url(#clip050)" d="M50.9921 1318.99 L63.4689 1318.99 L63.4689 1322.78 L50.9921 1322.78 L50.9921 1318.99 Z" fill="#9eb1be" fill-rule="nonzero" fill-opacity="1" /><path clip-path="url(#clip050)" d="M80.8531 1302.39 Q77.242 1302.39 75.4133 1305.96 Q73.6077 1309.5 73.6077 1316.63 Q73.6077 1323.73 75.4133 1327.3 Q77.242 1330.84 80.8531 1330.84 Q84.4873 1330.84 86.2929 1327.3 Q88.1216 1323.73 88.1216 1316.63 Q88.1216 1309.5 86.2929 1305.96 Q84.4873 1302.39 80.8531 1302.39 M80.8531 1298.69 Q86.6632 1298.69 89.7188 1303.29 Q92.7975 1307.88 92.7975 1316.63 Q92.7975 1325.35 89.7188 1329.96 Q86.6632 1334.54 80.8531 1334.54 Q75.0429 1334.54 71.9642 1329.96 Q68.9087 1325.35 68.9087 1316.63 Q68.9087 1307.88 71.9642 1303.29 Q75.0429 1298.69 80.8531 1298.69 Z" fill="#9eb1be" fill-rule="nonzero" fill-opacity="1" /><path clip-path="url(#clip050)" d="M101.015 1327.99 L105.899 1327.99 L105.899 1333.87 L101.015 1333.87 L101.015 1327.99 Z" fill="#9eb1be" fill-rule="nonzero" fill-opacity="1" /><path clip-path="url(#clip050)" d="M126.084 1317.46 Q122.751 1317.46 120.83 1319.24 Q118.932 1321.03 118.932 1324.15 Q118.932 1327.28 120.83 1329.06 Q122.751 1330.84 126.084 1330.84 Q129.418 1330.84 131.339 1329.06 Q133.26 1327.25 133.26 1324.15 Q133.26 1321.03 131.339 1319.24 Q129.441 1317.46 126.084 1317.46 M121.408 1315.47 Q118.399 1314.73 116.709 1312.67 Q115.043 1310.61 115.043 1307.65 Q115.043 1303.5 117.983 1301.09 Q120.945 1298.69 126.084 1298.69 Q131.246 1298.69 134.186 1301.09 Q137.126 1303.5 137.126 1307.65 Q137.126 1310.61 135.436 1312.67 Q133.769 1314.73 130.783 1315.47 Q134.163 1316.26 136.038 1318.55 Q137.936 1320.84 137.936 1324.15 Q137.936 1329.17 134.857 1331.86 Q131.802 1334.54 126.084 1334.54 Q120.367 1334.54 117.288 1331.86 Q114.233 1329.17 114.233 1324.15 Q114.233 1320.84 116.131 1318.55 Q118.029 1316.26 121.408 1315.47 M119.695 1308.09 Q119.695 1310.77 121.362 1312.28 Q123.052 1313.78 126.084 1313.78 Q129.094 1313.78 130.783 1312.28 Q132.496 1310.77 132.496 1308.09 Q132.496 1305.4 130.783 1303.9 Q129.094 1302.39 126.084 1302.39 Q123.052 1302.39 121.362 1303.9 Q119.695 1305.4 119.695 1308.09 Z" fill="#9eb1be" fill-rule="nonzero" fill-opacity="1" /><path clip-path="url(#clip050)" d="M175.644 1318.66 Q173.63 1318.66 172.473 1320.38 Q171.339 1322.09 171.339 1325.15 Q171.339 1328.15 172.473 1329.89 Q173.63 1331.6 175.644 1331.6 Q177.612 1331.6 178.746 1329.89 Q179.903 1328.15 179.903 1325.15 Q179.903 1322.11 178.746 1320.4 Q177.612 1318.66 175.644 1318.66 M175.644 1315.72 Q179.302 1315.72 181.454 1318.27 Q183.607 1320.82 183.607 1325.15 Q183.607 1329.47 181.431 1332.02 Q179.278 1334.54 175.644 1334.54 Q171.941 1334.54 169.788 1332.02 Q167.635 1329.47 167.635 1325.15 Q167.635 1320.79 169.788 1318.27 Q171.964 1315.72 175.644 1315.72 M151.755 1301.63 Q149.765 1301.63 148.607 1303.36 Q147.473 1305.08 147.473 1308.09 Q147.473 1311.14 148.607 1312.85 Q149.742 1314.57 151.755 1314.57 Q153.769 1314.57 154.904 1312.85 Q156.061 1311.14 156.061 1308.09 Q156.061 1305.1 154.904 1303.36 Q153.746 1301.63 151.755 1301.63 M172.658 1298.69 L176.362 1298.69 L154.742 1334.54 L151.038 1334.54 L172.658 1298.69 M151.755 1298.69 Q155.413 1298.69 157.589 1301.23 Q159.765 1303.76 159.765 1308.09 Q159.765 1312.46 157.589 1314.98 Q155.436 1317.51 151.755 1317.51 Q148.075 1317.51 145.922 1314.98 Q143.793 1312.44 143.793 1308.09 Q143.793 1303.78 145.945 1301.23 Q148.098 1298.69 151.755 1298.69 Z" fill="#9eb1be" fill-rule="nonzero" fill-opacity="1" /><path clip-path="url(#clip050)" d="M50.9921 1026.15 L63.4689 1026.15 L63.4689 1029.95 L50.9921 1029.95 L50.9921 1026.15 Z" fill="#9eb1be" fill-rule="nonzero" fill-opacity="1" /><path clip-path="url(#clip050)" d="M80.8531 1009.56 Q77.242 1009.56 75.4133 1013.12 Q73.6077 1016.66 73.6077 1023.79 Q73.6077 1030.9 75.4133 1034.46 Q77.242 1038.01 80.8531 1038.01 Q84.4873 1038.01 86.2929 1034.46 Q88.1216 1030.9 88.1216 1023.79 Q88.1216 1016.66 86.2929 1013.12 Q84.4873 1009.56 80.8531 1009.56 M80.8531 1005.85 Q86.6632 1005.85 89.7188 1010.46 Q92.7975 1015.04 92.7975 1023.79 Q92.7975 1032.52 89.7188 1037.13 Q86.6632 1041.71 80.8531 1041.71 Q75.0429 1041.71 71.9642 1037.13 Q68.9087 1032.52 68.9087 1023.79 Q68.9087 1015.04 71.9642 1010.46 Q75.0429 1005.85 80.8531 1005.85 Z" fill="#9eb1be" fill-rule="nonzero" fill-opacity="1" /><path clip-path="url(#clip050)" d="M101.015 1035.16 L105.899 1035.16 L105.899 1041.04 L101.015 1041.04 L101.015 1035.16 Z" fill="#9eb1be" fill-rule="nonzero" fill-opacity="1" /><path clip-path="url(#clip050)" d="M126.663 1021.89 Q123.515 1021.89 121.663 1024.05 Q119.834 1026.2 119.834 1029.95 Q119.834 1033.68 121.663 1035.85 Q123.515 1038.01 126.663 1038.01 Q129.811 1038.01 131.64 1035.85 Q133.492 1033.68 133.492 1029.95 Q133.492 1026.2 131.64 1024.05 Q129.811 1021.89 126.663 1021.89 M135.945 1007.24 L135.945 1011.5 Q134.186 1010.67 132.381 1010.23 Q130.598 1009.79 128.839 1009.79 Q124.209 1009.79 121.756 1012.91 Q119.325 1016.04 118.978 1022.36 Q120.344 1020.34 122.404 1019.28 Q124.464 1018.19 126.941 1018.19 Q132.149 1018.19 135.158 1021.36 Q138.191 1024.51 138.191 1029.95 Q138.191 1035.27 135.043 1038.49 Q131.894 1041.71 126.663 1041.71 Q120.668 1041.71 117.496 1037.13 Q114.325 1032.52 114.325 1023.79 Q114.325 1015.6 118.214 1010.74 Q122.103 1005.85 128.654 1005.85 Q130.413 1005.85 132.195 1006.2 Q134.001 1006.55 135.945 1007.24 Z" fill="#9eb1be" fill-rule="nonzero" fill-opacity="1" /><path clip-path="url(#clip050)" d="M175.644 1025.83 Q173.63 1025.83 172.473 1027.54 Q171.339 1029.26 171.339 1032.31 Q171.339 1035.32 172.473 1037.06 Q173.63 1038.77 175.644 1038.77 Q177.612 1038.77 178.746 1037.06 Q179.903 1035.32 179.903 1032.31 Q179.903 1029.28 178.746 1027.57 Q177.612 1025.83 175.644 1025.83 M175.644 1022.89 Q179.302 1022.89 181.454 1025.44 Q183.607 1027.98 183.607 1032.31 Q183.607 1036.64 181.431 1039.19 Q179.278 1041.71 175.644 1041.71 Q171.941 1041.71 169.788 1039.19 Q167.635 1036.64 167.635 1032.31 Q167.635 1027.96 169.788 1025.44 Q171.964 1022.89 175.644 1022.89 M151.755 1008.79 Q149.765 1008.79 148.607 1010.53 Q147.473 1012.24 147.473 1015.25 Q147.473 1018.31 148.607 1020.02 Q149.742 1021.73 151.755 1021.73 Q153.769 1021.73 154.904 1020.02 Q156.061 1018.31 156.061 1015.25 Q156.061 1012.27 154.904 1010.53 Q153.746 1008.79 151.755 1008.79 M172.658 1005.85 L176.362 1005.85 L154.742 1041.71 L151.038 1041.71 L172.658 1005.85 M151.755 1005.85 Q155.413 1005.85 157.589 1008.4 Q159.765 1010.92 159.765 1015.25 Q159.765 1019.63 157.589 1022.15 Q155.436 1024.67 151.755 1024.67 Q148.075 1024.67 145.922 1022.15 Q143.793 1019.6 143.793 1015.25 Q143.793 1010.95 145.945 1008.4 Q148.098 1005.85 151.755 1005.85 Z" fill="#9eb1be" fill-rule="nonzero" fill-opacity="1" /><path clip-path="url(#clip050)" d="M50.9921 733.32 L63.4689 733.32 L63.4689 737.116 L50.9921 737.116 L50.9921 733.32 Z" fill="#9eb1be" fill-rule="nonzero" fill-opacity="1" /><path clip-path="url(#clip050)" d="M80.8531 716.723 Q77.242 716.723 75.4133 720.288 Q73.6077 723.829 73.6077 730.959 Q73.6077 738.065 75.4133 741.63 Q77.242 745.172 80.8531 745.172 Q84.4873 745.172 86.2929 741.63 Q88.1216 738.065 88.1216 730.959 Q88.1216 723.829 86.2929 720.288 Q84.4873 716.723 80.8531 716.723 M80.8531 713.019 Q86.6632 713.019 89.7188 717.626 Q92.7975 722.209 92.7975 730.959 Q92.7975 739.686 89.7188 744.292 Q86.6632 748.876 80.8531 748.876 Q75.0429 748.876 71.9642 744.292 Q68.9087 739.686 68.9087 730.959 Q68.9087 722.209 71.9642 717.626 Q75.0429 713.019 80.8531 713.019 Z" fill="#9eb1be" fill-rule="nonzero" fill-opacity="1" /><path clip-path="url(#clip050)" d="M101.015 742.325 L105.899 742.325 L105.899 748.204 L101.015 748.204 L101.015 742.325 Z" fill="#9eb1be" fill-rule="nonzero" fill-opacity="1" /><path clip-path="url(#clip050)" d="M128.932 717.718 L117.126 736.167 L128.932 736.167 L128.932 717.718 M127.705 713.644 L133.584 713.644 L133.584 736.167 L138.515 736.167 L138.515 740.056 L133.584 740.056 L133.584 748.204 L128.932 748.204 L128.932 740.056 L113.33 740.056 L113.33 735.542 L127.705 713.644 Z" fill="#9eb1be" fill-rule="nonzero" fill-opacity="1" /><path clip-path="url(#clip050)" d="M175.644 732.996 Q173.63 732.996 172.473 734.709 Q171.339 736.422 171.339 739.477 Q171.339 742.487 172.473 744.223 Q173.63 745.936 175.644 745.936 Q177.612 745.936 178.746 744.223 Q179.903 742.487 179.903 739.477 Q179.903 736.445 178.746 734.732 Q177.612 732.996 175.644 732.996 M175.644 730.056 Q179.302 730.056 181.454 732.602 Q183.607 735.149 183.607 739.477 Q183.607 743.806 181.431 746.352 Q179.278 748.876 175.644 748.876 Q171.941 748.876 169.788 746.352 Q167.635 743.806 167.635 739.477 Q167.635 735.126 169.788 732.602 Q171.964 730.056 175.644 730.056 M151.755 715.959 Q149.765 715.959 148.607 717.695 Q147.473 719.408 147.473 722.417 Q147.473 725.473 148.607 727.186 Q149.742 728.899 151.755 728.899 Q153.769 728.899 154.904 727.186 Q156.061 725.473 156.061 722.417 Q156.061 719.431 154.904 717.695 Q153.746 715.959 151.755 715.959 M172.658 713.019 L176.362 713.019 L154.742 748.876 L151.038 748.876 L172.658 713.019 M151.755 713.019 Q155.413 713.019 157.589 715.566 Q159.765 718.089 159.765 722.417 Q159.765 726.792 157.589 729.315 Q155.436 731.839 151.755 731.839 Q148.075 731.839 145.922 729.315 Q143.793 726.769 143.793 722.417 Q143.793 718.112 145.945 715.566 Q148.098 713.019 151.755 713.019 Z" fill="#9eb1be" fill-rule="nonzero" fill-opacity="1" /><path clip-path="url(#clip050)" d="M50.9921 440.486 L63.4689 440.486 L63.4689 444.282 L50.9921 444.282 L50.9921 440.486 Z" fill="#9eb1be" fill-rule="nonzero" fill-opacity="1" /><path clip-path="url(#clip050)" d="M80.8531 423.889 Q77.242 423.889 75.4133 427.454 Q73.6077 430.995 73.6077 438.125 Q73.6077 445.231 75.4133 448.796 Q77.242 452.338 80.8531 452.338 Q84.4873 452.338 86.2929 448.796 Q88.1216 445.231 88.1216 438.125 Q88.1216 430.995 86.2929 427.454 Q84.4873 423.889 80.8531 423.889 M80.8531 420.185 Q86.6632 420.185 89.7188 424.792 Q92.7975 429.375 92.7975 438.125 Q92.7975 446.852 89.7188 451.458 Q86.6632 456.041 80.8531 456.041 Q75.0429 456.041 71.9642 451.458 Q68.9087 446.852 68.9087 438.125 Q68.9087 429.375 71.9642 424.792 Q75.0429 420.185 80.8531 420.185 Z" fill="#9eb1be" fill-rule="nonzero" fill-opacity="1" /><path clip-path="url(#clip050)" d="M101.015 449.491 L105.899 449.491 L105.899 455.37 L101.015 455.37 L101.015 449.491 Z" fill="#9eb1be" fill-rule="nonzero" fill-opacity="1" /><path clip-path="url(#clip050)" d="M120.112 451.435 L136.431 451.435 L136.431 455.37 L114.487 455.37 L114.487 451.435 Q117.149 448.68 121.732 444.051 Q126.339 439.398 127.519 438.055 Q129.765 435.532 130.644 433.796 Q131.547 432.037 131.547 430.347 Q131.547 427.592 129.603 425.856 Q127.682 424.12 124.58 424.12 Q122.381 424.12 119.927 424.884 Q117.496 425.648 114.719 427.199 L114.719 422.477 Q117.543 421.343 119.996 420.764 Q122.45 420.185 124.487 420.185 Q129.857 420.185 133.052 422.87 Q136.246 425.555 136.246 430.046 Q136.246 432.176 135.436 434.097 Q134.649 435.995 132.543 438.588 Q131.964 439.259 128.862 442.477 Q125.76 445.671 120.112 451.435 Z" fill="#9eb1be" fill-rule="nonzero" fill-opacity="1" /><path clip-path="url(#clip050)" d="M175.644 440.162 Q173.63 440.162 172.473 441.875 Q171.339 443.588 171.339 446.643 Q171.339 449.653 172.473 451.389 Q173.63 453.102 175.644 453.102 Q177.612 453.102 178.746 451.389 Q179.903 449.653 179.903 446.643 Q179.903 443.611 178.746 441.898 Q177.612 440.162 175.644 440.162 M175.644 437.222 Q179.302 437.222 181.454 439.768 Q183.607 442.315 183.607 446.643 Q183.607 450.972 181.431 453.518 Q179.278 456.041 175.644 456.041 Q171.941 456.041 169.788 453.518 Q167.635 450.972 167.635 446.643 Q167.635 442.291 169.788 439.768 Q171.964 437.222 175.644 437.222 M151.755 423.125 Q149.765 423.125 148.607 424.861 Q147.473 426.574 147.473 429.583 Q147.473 432.639 148.607 434.352 Q149.742 436.065 151.755 436.065 Q153.769 436.065 154.904 434.352 Q156.061 432.639 156.061 429.583 Q156.061 426.597 154.904 424.861 Q153.746 423.125 151.755 423.125 M172.658 420.185 L176.362 420.185 L154.742 456.041 L151.038 456.041 L172.658 420.185 M151.755 420.185 Q155.413 420.185 157.589 422.731 Q159.765 425.255 159.765 429.583 Q159.765 433.958 157.589 436.481 Q155.436 439.004 151.755 439.004 Q148.075 439.004 145.922 436.481 Q143.793 433.935 143.793 429.583 Q143.793 425.278 145.945 422.731 Q148.098 420.185 151.755 420.185 Z" fill="#9eb1be" fill-rule="nonzero" fill-opacity="1" /><path clip-path="url(#clip050)" d="M80.8531 131.055 Q77.242 131.055 75.4133 134.619 Q73.6077 138.161 73.6077 145.291 Q73.6077 152.397 75.4133 155.962 Q77.242 159.504 80.8531 159.504 Q84.4873 159.504 86.2929 155.962 Q88.1216 152.397 88.1216 145.291 Q88.1216 138.161 86.2929 134.619 Q84.4873 131.055 80.8531 131.055 M80.8531 127.351 Q86.6632 127.351 89.7188 131.957 Q92.7975 136.541 92.7975 145.291 Q92.7975 154.017 89.7188 158.624 Q86.6632 163.207 80.8531 163.207 Q75.0429 163.207 71.9642 158.624 Q68.9087 154.017 68.9087 145.291 Q68.9087 136.541 71.9642 131.957 Q75.0429 127.351 80.8531 127.351 Z" fill="#9eb1be" fill-rule="nonzero" fill-opacity="1" /><path clip-path="url(#clip050)" d="M101.015 156.656 L105.899 156.656 L105.899 162.536 L101.015 162.536 L101.015 156.656 Z" fill="#9eb1be" fill-rule="nonzero" fill-opacity="1" /><path clip-path="url(#clip050)" d="M126.084 131.055 Q122.473 131.055 120.645 134.619 Q118.839 138.161 118.839 145.291 Q118.839 152.397 120.645 155.962 Q122.473 159.504 126.084 159.504 Q129.719 159.504 131.524 155.962 Q133.353 152.397 133.353 145.291 Q133.353 138.161 131.524 134.619 Q129.719 131.055 126.084 131.055 M126.084 127.351 Q131.894 127.351 134.95 131.957 Q138.029 136.541 138.029 145.291 Q138.029 154.017 134.95 158.624 Q131.894 163.207 126.084 163.207 Q120.274 163.207 117.195 158.624 Q114.14 154.017 114.14 145.291 Q114.14 136.541 117.195 131.957 Q120.274 127.351 126.084 127.351 Z" fill="#9eb1be" fill-rule="nonzero" fill-opacity="1" /><path clip-path="url(#clip050)" d="M175.644 147.328 Q173.63 147.328 172.473 149.041 Q171.339 150.754 171.339 153.809 Q171.339 156.818 172.473 158.555 Q173.63 160.267 175.644 160.267 Q177.612 160.267 178.746 158.555 Q179.903 156.818 179.903 153.809 Q179.903 150.777 178.746 149.064 Q177.612 147.328 175.644 147.328 M175.644 144.388 Q179.302 144.388 181.454 146.934 Q183.607 149.48 183.607 153.809 Q183.607 158.138 181.431 160.684 Q179.278 163.207 175.644 163.207 Q171.941 163.207 169.788 160.684 Q167.635 158.138 167.635 153.809 Q167.635 149.457 169.788 146.934 Q171.964 144.388 175.644 144.388 M151.755 130.291 Q149.765 130.291 148.607 132.027 Q147.473 133.74 147.473 136.749 Q147.473 139.805 148.607 141.518 Q149.742 143.231 151.755 143.231 Q153.769 143.231 154.904 141.518 Q156.061 139.805 156.061 136.749 Q156.061 133.763 154.904 132.027 Q153.746 130.291 151.755 130.291 M172.658 127.351 L176.362 127.351 L154.742 163.207 L151.038 163.207 L172.658 127.351 M151.755 127.351 Q155.413 127.351 157.589 129.897 Q159.765 132.42 159.765 136.749 Q159.765 141.124 157.589 143.647 Q155.436 146.17 151.755 146.17 Q148.075 146.17 145.922 143.647 Q143.793 141.101 143.793 136.749 Q143.793 132.444 145.945 129.897 Q148.098 127.351 151.755 127.351 Z" fill="#9eb1be" fill-rule="nonzero" fill-opacity="1" /><path clip-path="url(#clip050)" d="M219.607 8.64 L246.922 8.64 L246.922 13.559 L225.452 13.559 L225.452 26.3482 L246.025 26.3482 L246.025 31.2672 L225.452 31.2672 L225.452 46.921 L247.443 46.921 L247.443 51.84 L219.607 51.84 L219.607 8.64 Z" fill="#adb2b7" fill-rule="nonzero" fill-opacity="1" /><path clip-path="url(#clip050)" d="M260 35.6653 Q260 41.5391 262.402 44.8956 Q264.833 48.2231 269.057 48.2231 Q273.282 48.2231 275.712 44.8956 Q278.143 41.5391 278.143 35.6653 Q278.143 29.7915 275.712 26.464 Q273.282 23.1075 269.057 23.1075 Q264.833 23.1075 262.402 26.464 Q260 29.7915 260 35.6653 M278.143 46.9789 Q276.464 49.8724 273.889 51.2902 Q271.343 52.6791 267.755 52.6791 Q261.881 52.6791 258.178 47.9916 Q254.503 43.3042 254.503 35.6653 Q254.503 28.0265 258.178 23.339 Q261.881 18.6515 267.755 18.6515 Q271.343 18.6515 273.889 20.0693 Q276.464 21.4582 278.143 24.3517 L278.143 19.4328 L283.467 19.4328 L283.467 64.1663 L278.143 64.1663 L278.143 46.9789 Z" fill="#adb2b7" fill-rule="nonzero" fill-opacity="1" /><path clip-path="url(#clip050)" d="M293.883 39.0507 L293.883 19.4328 L299.207 19.4328 L299.207 38.8482 Q299.207 43.4488 301.001 45.7636 Q302.795 48.0495 306.383 48.0495 Q310.695 48.0495 313.183 45.3007 Q315.7 42.5519 315.7 37.8065 L315.7 19.4328 L321.024 19.4328 L321.024 51.84 L315.7 51.84 L315.7 46.8632 Q313.762 49.8145 311.187 51.2613 Q308.64 52.6791 305.255 52.6791 Q299.67 52.6791 296.777 49.2069 Q293.883 45.7347 293.883 39.0507 M307.28 18.6515 L307.28 18.6515 Z" fill="#adb2b7" fill-rule="nonzero" fill-opacity="1" /><path clip-path="url(#clip050)" d="M331.991 19.4328 L337.315 19.4328 L337.315 51.84 L331.991 51.84 L331.991 19.4328 M331.991 6.81709 L337.315 6.81709 L337.315 13.559 L331.991 13.559 L331.991 6.81709 Z" fill="#adb2b7" fill-rule="nonzero" fill-opacity="1" /><path clip-path="url(#clip050)" d="M353.721 10.2314 L353.721 19.4328 L364.687 19.4328 L364.687 23.5705 L353.721 23.5705 L353.721 41.163 Q353.721 45.1271 354.792 46.2555 Q355.891 47.384 359.219 47.384 L364.687 47.384 L364.687 51.84 L359.219 51.84 Q353.056 51.84 350.712 49.5541 Q348.368 47.2393 348.368 41.163 L348.368 23.5705 L344.462 23.5705 L344.462 19.4328 L348.368 19.4328 L348.368 10.2314 L353.721 10.2314 Z" fill="#adb2b7" fill-rule="nonzero" fill-opacity="1" /><path clip-path="url(#clip050)" d="M385.173 54.8492 Q382.916 60.6362 380.775 62.4013 Q378.634 64.1663 375.046 64.1663 L370.793 64.1663 L370.793 59.7103 L373.918 59.7103 Q376.117 59.7103 377.332 58.6687 Q378.547 57.627 380.023 53.7497 L380.978 51.3192 L367.87 19.4328 L373.513 19.4328 L383.64 44.7799 L393.767 19.4328 L399.409 19.4328 L385.173 54.8492 Z" fill="#adb2b7" fill-rule="nonzero" fill-opacity="1" /><path clip-path="url(#clip050)" d="M446.921 24.3517 L446.921 6.81709 L452.245 6.81709 L452.245 51.84 L446.921 51.84 L446.921 46.9789 Q445.243 49.8724 442.667 51.2902 Q440.121 52.6791 436.533 52.6791 Q430.659 52.6791 426.956 47.9916 Q423.281 43.3042 423.281 35.6653 Q423.281 28.0265 426.956 23.339 Q430.659 18.6515 436.533 18.6515 Q440.121 18.6515 442.667 20.0693 Q445.243 21.4582 446.921 24.3517 M428.778 35.6653 Q428.778 41.5391 431.18 44.8956 Q433.611 48.2231 437.835 48.2231 Q442.06 48.2231 444.49 44.8956 Q446.921 41.5391 446.921 35.6653 Q446.921 29.7915 444.49 26.464 Q442.06 23.1075 437.835 23.1075 Q433.611 23.1075 431.18 26.464 Q428.778 29.7915 428.778 35.6653 Z" fill="#adb2b7" fill-rule="nonzero" fill-opacity="1" /><path clip-path="url(#clip050)" d="M481.99 24.4096 Q481.093 23.8888 480.022 23.6573 Q478.981 23.3969 477.708 23.3969 Q473.194 23.3969 470.763 26.3482 Q468.362 29.2707 468.362 34.7683 L468.362 51.84 L463.009 51.84 L463.009 19.4328 L468.362 19.4328 L468.362 24.4675 Q470.04 21.5161 472.731 20.0983 Q475.422 18.6515 479.27 18.6515 Q479.82 18.6515 480.485 18.7383 Q481.151 18.7962 481.961 18.9409 L481.99 24.4096 Z" fill="#adb2b7" fill-rule="nonzero" fill-opacity="1" /><path clip-path="url(#clip050)" d="M502.302 35.5496 Q495.85 35.5496 493.361 37.0253 Q490.873 38.501 490.873 42.06 Q490.873 44.8956 492.725 46.5738 Q494.606 48.2231 497.817 48.2231 Q502.245 48.2231 504.907 45.0981 Q507.598 41.9442 507.598 36.7359 L507.598 35.5496 L502.302 35.5496 M512.922 33.3505 L512.922 51.84 L507.598 51.84 L507.598 46.921 Q505.775 49.8724 503.055 51.2902 Q500.335 52.6791 496.4 52.6791 Q491.423 52.6791 488.471 49.9014 Q485.549 47.0947 485.549 42.4072 Q485.549 36.9385 489.195 34.1607 Q492.87 31.3829 500.132 31.3829 L507.598 31.3829 L507.598 30.8621 Q507.598 27.1874 505.167 25.1908 Q502.765 23.1654 498.396 23.1654 Q495.618 23.1654 492.985 23.8309 Q490.352 24.4964 487.922 25.8274 L487.922 20.9085 Q490.844 19.78 493.593 19.2302 Q496.342 18.6515 498.946 18.6515 Q505.977 18.6515 509.449 22.2973 Q512.922 25.9431 512.922 33.3505 Z" fill="#adb2b7" fill-rule="nonzero" fill-opacity="1" /><path clip-path="url(#clip050)" d="M520.792 19.4328 L526.116 19.4328 L532.771 44.722 L539.397 19.4328 L545.676 19.4328 L552.331 44.722 L558.957 19.4328 L564.281 19.4328 L555.803 51.84 L549.524 51.84 L542.551 25.2776 L535.549 51.84 L529.27 51.84 L520.792 19.4328 Z" fill="#adb2b7" fill-rule="nonzero" fill-opacity="1" /><path clip-path="url(#clip050)" d="M593.679 24.3517 L593.679 6.81709 L599.003 6.81709 L599.003 51.84 L593.679 51.84 L593.679 46.9789 Q592.001 49.8724 589.426 51.2902 Q586.879 52.6791 583.292 52.6791 Q577.418 52.6791 573.714 47.9916 Q570.039 43.3042 570.039 35.6653 Q570.039 28.0265 573.714 23.339 Q577.418 18.6515 583.292 18.6515 Q586.879 18.6515 589.426 20.0693 Q592.001 21.4582 593.679 24.3517 M575.537 35.6653 Q575.537 41.5391 577.939 44.8956 Q580.369 48.2231 584.594 48.2231 Q588.818 48.2231 591.249 44.8956 Q593.679 41.5391 593.679 35.6653 Q593.679 29.7915 591.249 26.464 Q588.818 23.1075 584.594 23.1075 Q580.369 23.1075 577.939 26.464 Q575.537 29.7915 575.537 35.6653 Z" fill="#adb2b7" fill-rule="nonzero" fill-opacity="1" /><path clip-path="url(#clip050)" d="M622.527 23.1654 Q618.245 23.1654 615.757 26.5218 Q613.268 29.8494 613.268 35.6653 Q613.268 41.4813 615.728 44.8377 Q618.216 48.1653 622.527 48.1653 Q626.781 48.1653 629.269 44.8088 Q631.758 41.4523 631.758 35.6653 Q631.758 29.9072 629.269 26.5508 Q626.781 23.1654 622.527 23.1654 M622.527 18.6515 Q629.472 18.6515 633.436 23.1654 Q637.4 27.6792 637.4 35.6653 Q637.4 43.6225 633.436 48.1653 Q629.472 52.6791 622.527 52.6791 Q615.554 52.6791 611.59 48.1653 Q607.655 43.6225 607.655 35.6653 Q607.655 27.6792 611.59 23.1654 Q615.554 18.6515 622.527 18.6515 Z" fill="#adb2b7" fill-rule="nonzero" fill-opacity="1" /><path clip-path="url(#clip050)" d="M643.129 19.4328 L648.453 19.4328 L655.108 44.722 L661.734 19.4328 L668.013 19.4328 L674.668 44.722 L681.294 19.4328 L686.619 19.4328 L678.141 51.84 L671.862 51.84 L664.888 25.2776 L657.886 51.84 L651.607 51.84 L643.129 19.4328 Z" fill="#adb2b7" fill-rule="nonzero" fill-opacity="1" /><path clip-path="url(#clip050)" d="M721.63 32.2799 L721.63 51.84 L716.306 51.84 L716.306 32.4535 Q716.306 27.8529 714.512 25.567 Q712.718 23.2811 709.13 23.2811 Q704.819 23.2811 702.33 26.03 Q699.842 28.7788 699.842 33.5241 L699.842 51.84 L694.489 51.84 L694.489 19.4328 L699.842 19.4328 L699.842 24.4675 Q701.752 21.545 704.327 20.0983 Q706.931 18.6515 710.316 18.6515 Q715.901 18.6515 718.765 22.1237 Q721.63 25.567 721.63 32.2799 Z" fill="#adb2b7" fill-rule="nonzero" fill-opacity="1" /><path clip-path="url(#clip050)" d="M752.909 20.3876 L752.909 25.4223 Q750.652 24.2649 748.221 23.6862 Q745.791 23.1075 743.187 23.1075 Q739.222 23.1075 737.226 24.3228 Q735.258 25.5381 735.258 27.9686 Q735.258 29.8204 736.676 30.891 Q738.094 31.9327 742.376 32.8876 L744.199 33.2926 Q749.871 34.5079 752.243 36.7359 Q754.645 38.935 754.645 42.8991 Q754.645 47.4129 751.057 50.046 Q747.498 52.6791 741.248 52.6791 Q738.644 52.6791 735.808 52.1583 Q733.001 51.6664 729.876 50.6537 L729.876 45.156 Q732.828 46.6896 735.692 47.4708 Q738.557 48.2231 741.364 48.2231 Q745.125 48.2231 747.151 46.95 Q749.176 45.6479 749.176 43.3042 Q749.176 41.134 747.7 39.9766 Q746.254 38.8192 741.306 37.7486 L739.454 37.3146 Q734.506 36.273 732.307 34.1318 Q730.108 31.9616 730.108 28.2001 Q730.108 23.6283 733.349 21.1399 Q736.589 18.6515 742.55 18.6515 Q745.501 18.6515 748.105 19.0855 Q750.71 19.5196 752.909 20.3876 Z" fill="#adb2b7" fill-rule="nonzero" fill-opacity="1" /><path clip-path="url(#clip050)" d="M781.468 6.81709 L793.736 6.81709 L793.736 10.9548 L786.792 10.9548 L786.792 55.5147 L793.736 55.5147 L793.736 59.6525 L781.468 59.6525 L781.468 6.81709 Z" fill="#adb2b7" fill-rule="nonzero" fill-opacity="1" /><path clip-path="url(#clip050)" d="M842.578 32.8297 Q840.061 32.8297 838.614 34.9709 Q837.196 37.1121 837.196 40.9315 Q837.196 44.693 838.614 46.8632 Q840.061 49.0044 842.578 49.0044 Q845.038 49.0044 846.456 46.8632 Q847.902 44.693 847.902 40.9315 Q847.902 37.141 846.456 34.9998 Q845.038 32.8297 842.578 32.8297 M842.578 29.1549 Q847.15 29.1549 849.841 32.3378 Q852.532 35.5206 852.532 40.9315 Q852.532 46.3423 849.812 49.5252 Q847.121 52.6791 842.578 52.6791 Q837.949 52.6791 835.258 49.5252 Q832.567 46.3423 832.567 40.9315 Q832.567 35.4917 835.258 32.3378 Q837.978 29.1549 842.578 29.1549 M812.717 11.5335 Q810.229 11.5335 808.782 13.7036 Q807.364 15.8448 807.364 19.6064 Q807.364 23.4258 808.782 25.567 Q810.2 27.7082 812.717 27.7082 Q815.235 27.7082 816.653 25.567 Q818.099 23.4258 818.099 19.6064 Q818.099 15.8738 816.653 13.7036 Q815.206 11.5335 812.717 11.5335 M838.846 7.85875 L843.475 7.85875 L816.45 52.6791 L811.82 52.6791 L838.846 7.85875 M812.717 7.85875 Q817.289 7.85875 820.009 11.0416 Q822.729 14.1955 822.729 19.6064 Q822.729 25.0751 820.009 28.229 Q817.318 31.3829 812.717 31.3829 Q808.117 31.3829 805.426 28.229 Q802.764 25.0462 802.764 19.6064 Q802.764 14.2245 805.455 11.0416 Q808.146 7.85875 812.717 7.85875 Z" fill="#adb2b7" fill-rule="nonzero" fill-opacity="1" /><path clip-path="url(#clip050)" d="M873.828 6.81709 L873.828 59.6525 L861.56 59.6525 L861.56 55.5147 L868.475 55.5147 L868.475 10.9548 L861.56 10.9548 L861.56 6.81709 L873.828 6.81709 Z" fill="#adb2b7" fill-rule="nonzero" fill-opacity="1" /><path clip-path="url(#clip051)" d="M279.979 145.256 L503.58 145.256 L503.58 1447.38 L727.18 1447.38 L727.18 145.256 L950.781 145.256 L950.781 1409.89 L1174.38 1409.89 L1174.38 145.256 L1397.98 145.256 L1397.98 1374.5 L1621.58 1374.5 L1621.58 145.256 L1845.18 145.256 L1845.18 1341.04 L2068.78 1341.04 L2068.78 145.256 L2292.38 145.256 L2292.38 1309.35 L2292.38 145.256 L2292.38 145.256 L2068.78 145.256 L2068.78 145.256 L1845.18 145.256 L1845.18 145.256 L1621.58 145.256 L1621.58 145.256 L1397.98 145.256 L1397.98 145.256 L1174.38 145.256 L1174.38 145.256 L950.781 145.256 L950.781 145.256 L727.18 145.256 L727.18 145.256 L503.58 145.256 L503.58 145.256 L279.979 145.256  Z" fill="#bb0000" fill-rule="evenodd" fill-opacity="0.2"/>
<polyline clip-path="url(#clip051)" style="stroke:#bb0000; stroke-linecap:round; stroke-linejoin:round; stroke-width:4; stroke-opacity:1; fill:none" points="279.979,145.256 503.58,145.256 503.58,1447.38 727.18,1447.38 727.18,145.256 950.781,145.256 950.781,1409.89 1174.38,1409.89 1174.38,145.256 1397.98,145.256 1397.98,1374.5 1621.58,1374.5 1621.58,145.256 1845.18,145.256 1845.18,1341.04 2068.78,1341.04 2068.78,145.256 2292.38,145.256 2292.38,1309.35 "/>
</svg>
