<?xml version="1.0" encoding="utf-8"?>
<svg xmlns="http://www.w3.org/2000/svg" xmlns:xlink="http://www.w3.org/1999/xlink" width="600" height="400" viewBox="0 0 2400 1600">
<defs>
  <clipPath id="clip110">
    <rect x="0" y="0" width="2400" height="1600"/>
  </clipPath>
</defs>
<path clip-path="url(#clip110)" d="M0 1600 L2400 1600 L2400 0 L0 0  Z" fill="#282c34" fill-rule="evenodd" fill-opacity="1"/>
<defs>
  <clipPath id="clip111">
    <rect x="156" y="106" width="2197" height="1381"/>
  </clipPath>
</defs>
<path clip-path="url(#clip110)" d="M156.598 1486.45 L2352.76 1486.45 L2352.76 106.192 L156.598 106.192  Z" fill="#21252b" fill-rule="evenodd" fill-opacity="1"/>
<polyline clip-path="url(#clip111)" style="stroke:#adb2b7; stroke-linecap:round; stroke-linejoin:round; stroke-width:2; stroke-opacity:0.1; fill:none" points="156.598,1486.45 156.598,106.192 "/>
<polyline clip-path="url(#clip111)" style="stroke:#adb2b7; stroke-linecap:round; stroke-linejoin:round; stroke-width:2; stroke-opacity:0.1; fill:none" points="595.83,1486.45 595.83,106.192 "/>
<polyline clip-path="url(#clip111)" style="stroke:#adb2b7; stroke-linecap:round; stroke-linejoin:round; stroke-width:2; stroke-opacity:0.1; fill:none" points="1035.06,1486.45 1035.06,106.192 "/>
<polyline clip-path="url(#clip111)" style="stroke:#adb2b7; stroke-linecap:round; stroke-linejoin:round; stroke-width:2; stroke-opacity:0.1; fill:none" points="1474.29,1486.45 1474.29,106.192 "/>
<polyline clip-path="url(#clip111)" style="stroke:#adb2b7; stroke-linecap:round; stroke-linejoin:round; stroke-width:2; stroke-opacity:0.1; fill:none" points="1913.52,1486.45 1913.52,106.192 "/>
<polyline clip-path="url(#clip111)" style="stroke:#adb2b7; stroke-linecap:round; stroke-linejoin:round; stroke-width:2; stroke-opacity:0.1; fill:none" points="2352.76,1486.45 2352.76,106.192 "/>
<polyline clip-path="url(#clip111)" style="stroke:#adb2b7; stroke-linecap:round; stroke-linejoin:round; stroke-width:2; stroke-opacity:0.1; fill:none" points="156.598,1486.45 2352.76,1486.45 "/>
<polyline clip-path="url(#clip111)" style="stroke:#adb2b7; stroke-linecap:round; stroke-linejoin:round; stroke-width:2; stroke-opacity:0.1; fill:none" points="156.598,1210.4 2352.76,1210.4 "/>
<polyline clip-path="url(#clip111)" style="stroke:#adb2b7; stroke-linecap:round; stroke-linejoin:round; stroke-width:2; stroke-opacity:0.1; fill:none" points="156.598,934.346 2352.76,934.346 "/>
<polyline clip-path="url(#clip111)" style="stroke:#adb2b7; stroke-linecap:round; stroke-linejoin:round; stroke-width:2; stroke-opacity:0.1; fill:none" points="156.598,658.294 2352.76,658.294 "/>
<polyline clip-path="url(#clip111)" style="stroke:#adb2b7; stroke-linecap:round; stroke-linejoin:round; stroke-width:2; stroke-opacity:0.1; fill:none" points="156.598,382.243 2352.76,382.243 "/>
<polyline clip-path="url(#clip111)" style="stroke:#adb2b7; stroke-linecap:round; stroke-linejoin:round; stroke-width:2; stroke-opacity:0.1; fill:none" points="156.598,106.192 2352.76,106.192 "/>
<polyline clip-path="url(#clip110)" style="stroke:#adb2b7; stroke-linecap:round; stroke-linejoin:round; stroke-width:4; stroke-opacity:1; fill:none" points="156.598,1486.45 2352.76,1486.45 "/>
<polyline clip-path="url(#clip110)" style="stroke:#adb2b7; stroke-linecap:round; stroke-linejoin:round; stroke-width:4; stroke-opacity:1; fill:none" points="156.598,1486.45 156.598,1467.55 "/>
<polyline clip-path="url(#clip110)" style="stroke:#adb2b7; stroke-linecap:round; stroke-linejoin:round; stroke-width:4; stroke-opacity:1; fill:none" points="595.83,1486.45 595.83,1467.55 "/>
<polyline clip-path="url(#clip110)" style="stroke:#adb2b7; stroke-linecap:round; stroke-linejoin:round; stroke-width:4; stroke-opacity:1; fill:none" points="1035.06,1486.45 1035.06,1467.55 "/>
<polyline clip-path="url(#clip110)" style="stroke:#adb2b7; stroke-linecap:round; stroke-linejoin:round; stroke-width:4; stroke-opacity:1; fill:none" points="1474.29,1486.45 1474.29,1467.55 "/>
<polyline clip-path="url(#clip110)" style="stroke:#adb2b7; stroke-linecap:round; stroke-linejoin:round; stroke-width:4; stroke-opacity:1; fill:none" points="1913.52,1486.45 1913.52,1467.55 "/>
<polyline clip-path="url(#clip110)" style="stroke:#adb2b7; stroke-linecap:round; stroke-linejoin:round; stroke-width:4; stroke-opacity:1; fill:none" points="2352.76,1486.45 2352.76,1467.55 "/>
<path clip-path="url(#clip110)" d="M133.983 1517.37 Q130.372 1517.37 128.543 1520.93 Q126.737 1524.47 126.737 1531.6 Q126.737 1538.71 128.543 1542.27 Q130.372 1545.82 133.983 1545.82 Q137.617 1545.82 139.422 1542.27 Q141.251 1538.71 141.251 1531.6 Q141.251 1524.47 139.422 1520.93 Q137.617 1517.37 133.983 1517.37 M133.983 1513.66 Q139.793 1513.66 142.848 1518.27 Q145.927 1522.85 145.927 1531.6 Q145.927 1540.33 142.848 1544.94 Q139.793 1549.52 133.983 1549.52 Q128.172 1549.52 125.094 1544.94 Q122.038 1540.33 122.038 1531.6 Q122.038 1522.85 125.094 1518.27 Q128.172 1513.66 133.983 1513.66 Z" fill="#9eb1be" fill-rule="nonzero" fill-opacity="1" /><path clip-path="url(#clip110)" d="M154.145 1542.97 L159.029 1542.97 L159.029 1548.85 L154.145 1548.85 L154.145 1542.97 Z" fill="#9eb1be" fill-rule="nonzero" fill-opacity="1" /><path clip-path="url(#clip110)" d="M179.214 1517.37 Q175.603 1517.37 173.774 1520.93 Q171.969 1524.47 171.969 1531.6 Q171.969 1538.71 173.774 1542.27 Q175.603 1545.82 179.214 1545.82 Q182.848 1545.82 184.654 1542.27 Q186.482 1538.71 186.482 1531.6 Q186.482 1524.47 184.654 1520.93 Q182.848 1517.37 179.214 1517.37 M179.214 1513.66 Q185.024 1513.66 188.08 1518.27 Q191.158 1522.85 191.158 1531.6 Q191.158 1540.33 188.08 1544.94 Q185.024 1549.52 179.214 1549.52 Q173.404 1549.52 170.325 1544.94 Q167.269 1540.33 167.269 1531.6 Q167.269 1522.85 170.325 1518.27 Q173.404 1513.66 179.214 1513.66 Z" fill="#9eb1be" fill-rule="nonzero" fill-opacity="1" /><path clip-path="url(#clip110)" d="M574.013 1517.37 Q570.402 1517.37 568.573 1520.93 Q566.767 1524.47 566.767 1531.6 Q566.767 1538.71 568.573 1542.27 Q570.402 1545.82 574.013 1545.82 Q577.647 1545.82 579.453 1542.27 Q581.281 1538.71 581.281 1531.6 Q581.281 1524.47 579.453 1520.93 Q577.647 1517.37 574.013 1517.37 M574.013 1513.66 Q579.823 1513.66 582.878 1518.27 Q585.957 1522.85 585.957 1531.6 Q585.957 1540.33 582.878 1544.94 Q579.823 1549.52 574.013 1549.52 Q568.203 1549.52 565.124 1544.94 Q562.068 1540.33 562.068 1531.6 Q562.068 1522.85 565.124 1518.27 Q568.203 1513.66 574.013 1513.66 Z" fill="#9eb1be" fill-rule="nonzero" fill-opacity="1" /><path clip-path="url(#clip110)" d="M594.175 1542.97 L599.059 1542.97 L599.059 1548.85 L594.175 1548.85 L594.175 1542.97 Z" fill="#9eb1be" fill-rule="nonzero" fill-opacity="1" /><path clip-path="url(#clip110)" d="M613.272 1544.91 L629.591 1544.91 L629.591 1548.85 L607.647 1548.85 L607.647 1544.91 Q610.309 1542.16 614.892 1537.53 Q619.499 1532.88 620.679 1531.53 Q622.925 1529.01 623.804 1527.27 Q624.707 1525.51 624.707 1523.82 Q624.707 1521.07 622.762 1519.33 Q620.841 1517.6 617.739 1517.6 Q615.54 1517.6 613.087 1518.36 Q610.656 1519.13 607.878 1520.68 L607.878 1515.95 Q610.702 1514.82 613.156 1514.24 Q615.61 1513.66 617.647 1513.66 Q623.017 1513.66 626.212 1516.35 Q629.406 1519.03 629.406 1523.52 Q629.406 1525.65 628.596 1527.57 Q627.809 1529.47 625.702 1532.07 Q625.124 1532.74 622.022 1535.95 Q618.92 1539.15 613.272 1544.91 Z" fill="#9eb1be" fill-rule="nonzero" fill-opacity="1" /><path clip-path="url(#clip110)" d="M1012.2 1517.37 Q1008.59 1517.37 1006.76 1520.93 Q1004.96 1524.47 1004.96 1531.6 Q1004.96 1538.71 1006.76 1542.27 Q1008.59 1545.82 1012.2 1545.82 Q1015.84 1545.82 1017.64 1542.27 Q1019.47 1538.71 1019.47 1531.6 Q1019.47 1524.47 1017.64 1520.93 Q1015.84 1517.37 1012.2 1517.37 M1012.2 1513.66 Q1018.01 1513.66 1021.07 1518.27 Q1024.15 1522.85 1024.15 1531.6 Q1024.15 1540.33 1021.07 1544.94 Q1018.01 1549.52 1012.2 1549.52 Q1006.39 1549.52 1003.31 1544.94 Q1000.26 1540.33 1000.26 1531.6 Q1000.26 1522.85 1003.31 1518.27 Q1006.39 1513.66 1012.2 1513.66 Z" fill="#9eb1be" fill-rule="nonzero" fill-opacity="1" /><path clip-path="url(#clip110)" d="M1032.36 1542.97 L1037.25 1542.97 L1037.25 1548.85 L1032.36 1548.85 L1032.36 1542.97 Z" fill="#9eb1be" fill-rule="nonzero" fill-opacity="1" /><path clip-path="url(#clip110)" d="M1060.28 1518.36 L1048.48 1536.81 L1060.28 1536.81 L1060.28 1518.36 M1059.05 1514.29 L1064.93 1514.29 L1064.93 1536.81 L1069.86 1536.81 L1069.86 1540.7 L1064.93 1540.7 L1064.93 1548.85 L1060.28 1548.85 L1060.28 1540.7 L1044.68 1540.7 L1044.68 1536.19 L1059.05 1514.29 Z" fill="#9eb1be" fill-rule="nonzero" fill-opacity="1" /><path clip-path="url(#clip110)" d="M1451.6 1517.37 Q1447.99 1517.37 1446.16 1520.93 Q1444.35 1524.47 1444.35 1531.6 Q1444.35 1538.71 1446.16 1542.27 Q1447.99 1545.82 1451.6 1545.82 Q1455.23 1545.82 1457.04 1542.27 Q1458.86 1538.71 1458.86 1531.6 Q1458.86 1524.47 1457.04 1520.93 Q1455.23 1517.37 1451.6 1517.37 M1451.6 1513.66 Q1457.41 1513.66 1460.46 1518.27 Q1463.54 1522.85 1463.54 1531.6 Q1463.54 1540.33 1460.46 1544.94 Q1457.41 1549.52 1451.6 1549.52 Q1445.79 1549.52 1442.71 1544.94 Q1439.65 1540.33 1439.65 1531.6 Q1439.65 1522.85 1442.71 1518.27 Q1445.79 1513.66 1451.6 1513.66 Z" fill="#9eb1be" fill-rule="nonzero" fill-opacity="1" /><path clip-path="url(#clip110)" d="M1471.76 1542.97 L1476.64 1542.97 L1476.64 1548.85 L1471.76 1548.85 L1471.76 1542.97 Z" fill="#9eb1be" fill-rule="nonzero" fill-opacity="1" /><path clip-path="url(#clip110)" d="M1497.41 1529.7 Q1494.26 1529.7 1492.41 1531.86 Q1490.58 1534.01 1490.58 1537.76 Q1490.58 1541.49 1492.41 1543.66 Q1494.26 1545.82 1497.41 1545.82 Q1500.55 1545.82 1502.38 1543.66 Q1504.23 1541.49 1504.23 1537.76 Q1504.23 1534.01 1502.38 1531.86 Q1500.55 1529.7 1497.41 1529.7 M1506.69 1515.05 L1506.69 1519.31 Q1504.93 1518.48 1503.12 1518.04 Q1501.34 1517.6 1499.58 1517.6 Q1494.95 1517.6 1492.5 1520.72 Q1490.07 1523.85 1489.72 1530.17 Q1491.09 1528.15 1493.15 1527.09 Q1495.21 1526 1497.68 1526 Q1502.89 1526 1505.9 1529.17 Q1508.93 1532.32 1508.93 1537.76 Q1508.93 1543.08 1505.79 1546.3 Q1502.64 1549.52 1497.41 1549.52 Q1491.41 1549.52 1488.24 1544.94 Q1485.07 1540.33 1485.07 1531.6 Q1485.07 1523.41 1488.96 1518.55 Q1492.85 1513.66 1499.4 1513.66 Q1501.16 1513.66 1502.94 1514.01 Q1504.74 1514.36 1506.69 1515.05 Z" fill="#9eb1be" fill-rule="nonzero" fill-opacity="1" /><path clip-path="url(#clip110)" d="M1890.96 1517.37 Q1887.34 1517.37 1885.52 1520.93 Q1883.71 1524.47 1883.71 1531.6 Q1883.71 1538.71 1885.52 1542.27 Q1887.34 1545.82 1890.96 1545.82 Q1894.59 1545.82 1896.39 1542.27 Q1898.22 1538.71 1898.22 1531.6 Q1898.22 1524.47 1896.39 1520.93 Q1894.59 1517.37 1890.96 1517.37 M1890.96 1513.66 Q1896.77 1513.66 1899.82 1518.27 Q1902.9 1522.85 1902.9 1531.6 Q1902.9 1540.33 1899.82 1544.94 Q1896.77 1549.52 1890.96 1549.52 Q1885.14 1549.52 1882.07 1544.94 Q1879.01 1540.33 1879.01 1531.6 Q1879.01 1522.85 1882.07 1518.27 Q1885.14 1513.66 1890.96 1513.66 Z" fill="#9eb1be" fill-rule="nonzero" fill-opacity="1" /><path clip-path="url(#clip110)" d="M1911.12 1542.97 L1916 1542.97 L1916 1548.85 L1911.12 1548.85 L1911.12 1542.97 Z" fill="#9eb1be" fill-rule="nonzero" fill-opacity="1" /><path clip-path="url(#clip110)" d="M1936.19 1532.44 Q1932.85 1532.44 1930.93 1534.22 Q1929.03 1536 1929.03 1539.13 Q1929.03 1542.25 1930.93 1544.03 Q1932.85 1545.82 1936.19 1545.82 Q1939.52 1545.82 1941.44 1544.03 Q1943.36 1542.23 1943.36 1539.13 Q1943.36 1536 1941.44 1534.22 Q1939.54 1532.44 1936.19 1532.44 M1931.51 1530.45 Q1928.5 1529.7 1926.81 1527.64 Q1925.14 1525.58 1925.14 1522.62 Q1925.14 1518.48 1928.08 1516.07 Q1931.05 1513.66 1936.19 1513.66 Q1941.35 1513.66 1944.29 1516.07 Q1947.23 1518.48 1947.23 1522.62 Q1947.23 1525.58 1945.54 1527.64 Q1943.87 1529.7 1940.89 1530.45 Q1944.26 1531.23 1946.14 1533.52 Q1948.04 1535.82 1948.04 1539.13 Q1948.04 1544.15 1944.96 1546.83 Q1941.9 1549.52 1936.19 1549.52 Q1930.47 1549.52 1927.39 1546.83 Q1924.33 1544.15 1924.33 1539.13 Q1924.33 1535.82 1926.23 1533.52 Q1928.13 1531.23 1931.51 1530.45 M1929.8 1523.06 Q1929.8 1525.75 1931.46 1527.25 Q1933.15 1528.76 1936.19 1528.76 Q1939.2 1528.76 1940.89 1527.25 Q1942.6 1525.75 1942.6 1523.06 Q1942.6 1520.38 1940.89 1518.87 Q1939.2 1517.37 1936.19 1517.37 Q1933.15 1517.37 1931.46 1518.87 Q1929.8 1520.38 1929.8 1523.06 Z" fill="#9eb1be" fill-rule="nonzero" fill-opacity="1" /><path clip-path="url(#clip110)" d="M2319.91 1544.91 L2327.55 1544.91 L2327.55 1518.55 L2319.24 1520.21 L2319.24 1515.95 L2327.5 1514.29 L2332.18 1514.29 L2332.18 1544.91 L2339.82 1544.91 L2339.82 1548.85 L2319.91 1548.85 L2319.91 1544.91 Z" fill="#9eb1be" fill-rule="nonzero" fill-opacity="1" /><path clip-path="url(#clip110)" d="M2349.26 1542.97 L2354.14 1542.97 L2354.14 1548.85 L2349.26 1548.85 L2349.26 1542.97 Z" fill="#9eb1be" fill-rule="nonzero" fill-opacity="1" /><path clip-path="url(#clip110)" d="M2374.33 1517.37 Q2370.72 1517.37 2368.89 1520.93 Q2367.08 1524.47 2367.08 1531.6 Q2367.08 1538.71 2368.89 1542.27 Q2370.72 1545.82 2374.33 1545.82 Q2377.96 1545.82 2379.77 1542.27 Q2381.6 1538.71 2381.6 1531.6 Q2381.6 1524.47 2379.77 1520.93 Q2377.96 1517.37 2374.33 1517.37 M2374.33 1513.66 Q2380.14 1513.66 2383.2 1518.27 Q2386.27 1522.85 2386.27 1531.6 Q2386.27 1540.33 2383.2 1544.94 Q2380.14 1549.52 2374.33 1549.52 Q2368.52 1549.52 2365.44 1544.94 Q2362.39 1540.33 2362.39 1531.6 Q2362.39 1522.85 2365.44 1518.27 Q2368.52 1513.66 2374.33 1513.66 Z" fill="#9eb1be" fill-rule="nonzero" fill-opacity="1" /><polyline clip-path="url(#clip110)" style="stroke:#adb2b7; stroke-linecap:round; stroke-linejoin:round; stroke-width:4; stroke-opacity:1; fill:none" points="156.598,1486.45 156.598,106.192 "/>
<polyline clip-path="url(#clip110)" style="stroke:#adb2b7; stroke-linecap:round; stroke-linejoin:round; stroke-width:4; stroke-opacity:1; fill:none" points="156.598,1486.45 175.496,1486.45 "/>
<polyline clip-path="url(#clip110)" style="stroke:#adb2b7; stroke-linecap:round; stroke-linejoin:round; stroke-width:4; stroke-opacity:1; fill:none" points="156.598,1210.4 175.496,1210.4 "/>
<polyline clip-path="url(#clip110)" style="stroke:#adb2b7; stroke-linecap:round; stroke-linejoin:round; stroke-width:4; stroke-opacity:1; fill:none" points="156.598,934.346 175.496,934.346 "/>
<polyline clip-path="url(#clip110)" style="stroke:#adb2b7; stroke-linecap:round; stroke-linejoin:round; stroke-width:4; stroke-opacity:1; fill:none" points="156.598,658.294 175.496,658.294 "/>
<polyline clip-path="url(#clip110)" style="stroke:#adb2b7; stroke-linecap:round; stroke-linejoin:round; stroke-width:4; stroke-opacity:1; fill:none" points="156.598,382.243 175.496,382.243 "/>
<polyline clip-path="url(#clip110)" style="stroke:#adb2b7; stroke-linecap:round; stroke-linejoin:round; stroke-width:4; stroke-opacity:1; fill:none" points="156.598,106.192 175.496,106.192 "/>
<path clip-path="url(#clip110)" d="M63.4226 1472.25 Q59.8115 1472.25 57.9828 1475.81 Q56.1773 1479.35 56.1773 1486.48 Q56.1773 1493.59 57.9828 1497.15 Q59.8115 1500.7 63.4226 1500.7 Q67.0569 1500.7 68.8624 1497.15 Q70.6911 1493.59 70.6911 1486.48 Q70.6911 1479.35 68.8624 1475.81 Q67.0569 1472.25 63.4226 1472.25 M63.4226 1468.54 Q69.2328 1468.54 72.2883 1473.15 Q75.367 1477.73 75.367 1486.48 Q75.367 1495.21 72.2883 1499.82 Q69.2328 1504.4 63.4226 1504.4 Q57.6125 1504.4 54.5338 1499.82 Q51.4782 1495.21 51.4782 1486.48 Q51.4782 1477.73 54.5338 1473.15 Q57.6125 1468.54 63.4226 1468.54 Z" fill="#9eb1be" fill-rule="nonzero" fill-opacity="1" /><path clip-path="url(#clip110)" d="M83.5845 1497.85 L88.4688 1497.85 L88.4688 1503.73 L83.5845 1503.73 L83.5845 1497.85 Z" fill="#9eb1be" fill-rule="nonzero" fill-opacity="1" /><path clip-path="url(#clip110)" d="M108.654 1472.25 Q105.043 1472.25 103.214 1475.81 Q101.409 1479.35 101.409 1486.48 Q101.409 1493.59 103.214 1497.15 Q105.043 1500.7 108.654 1500.7 Q112.288 1500.7 114.094 1497.15 Q115.922 1493.59 115.922 1486.48 Q115.922 1479.35 114.094 1475.81 Q112.288 1472.25 108.654 1472.25 M108.654 1468.54 Q114.464 1468.54 117.52 1473.15 Q120.598 1477.73 120.598 1486.48 Q120.598 1495.21 117.52 1499.82 Q114.464 1504.4 108.654 1504.4 Q102.844 1504.4 99.765 1499.82 Q96.7095 1495.21 96.7095 1486.48 Q96.7095 1477.73 99.765 1473.15 Q102.844 1468.54 108.654 1468.54 Z" fill="#9eb1be" fill-rule="nonzero" fill-opacity="1" /><path clip-path="url(#clip110)" d="M65.0198 1196.2 Q61.4087 1196.2 59.58 1199.76 Q57.7745 1203.3 57.7745 1210.43 Q57.7745 1217.54 59.58 1221.1 Q61.4087 1224.64 65.0198 1224.64 Q68.6541 1224.64 70.4596 1221.1 Q72.2883 1217.54 72.2883 1210.43 Q72.2883 1203.3 70.4596 1199.76 Q68.6541 1196.2 65.0198 1196.2 M65.0198 1192.49 Q70.83 1192.49 73.8855 1197.1 Q76.9642 1201.68 76.9642 1210.43 Q76.9642 1219.16 73.8855 1223.76 Q70.83 1228.35 65.0198 1228.35 Q59.2097 1228.35 56.131 1223.76 Q53.0754 1219.16 53.0754 1210.43 Q53.0754 1201.68 56.131 1197.1 Q59.2097 1192.49 65.0198 1192.49 Z" fill="#9eb1be" fill-rule="nonzero" fill-opacity="1" /><path clip-path="url(#clip110)" d="M85.1818 1221.8 L90.066 1221.8 L90.066 1227.68 L85.1818 1227.68 L85.1818 1221.8 Z" fill="#9eb1be" fill-rule="nonzero" fill-opacity="1" /><path clip-path="url(#clip110)" d="M104.279 1223.74 L120.598 1223.74 L120.598 1227.68 L98.6539 1227.68 L98.6539 1223.74 Q101.316 1220.99 105.899 1216.36 Q110.506 1211.7 111.686 1210.36 Q113.932 1207.84 114.811 1206.1 Q115.714 1204.34 115.714 1202.65 Q115.714 1199.9 113.77 1198.16 Q111.848 1196.43 108.746 1196.43 Q106.547 1196.43 104.094 1197.19 Q101.663 1197.95 98.8854 1199.51 L98.8854 1194.78 Q101.709 1193.65 104.163 1193.07 Q106.617 1192.49 108.654 1192.49 Q114.024 1192.49 117.219 1195.18 Q120.413 1197.86 120.413 1202.35 Q120.413 1204.48 119.603 1206.4 Q118.816 1208.3 116.709 1210.89 Q116.131 1211.57 113.029 1214.78 Q109.927 1217.98 104.279 1223.74 Z" fill="#9eb1be" fill-rule="nonzero" fill-opacity="1" /><path clip-path="url(#clip110)" d="M62.9365 920.144 Q59.3254 920.144 57.4967 923.709 Q55.6912 927.251 55.6912 934.38 Q55.6912 941.487 57.4967 945.052 Q59.3254 948.593 62.9365 948.593 Q66.5707 948.593 68.3763 945.052 Q70.205 941.487 70.205 934.38 Q70.205 927.251 68.3763 923.709 Q66.5707 920.144 62.9365 920.144 M62.9365 916.441 Q68.7467 916.441 71.8022 921.047 Q74.8809 925.63 74.8809 934.38 Q74.8809 943.107 71.8022 947.714 Q68.7467 952.297 62.9365 952.297 Q57.1264 952.297 54.0477 947.714 Q50.9921 943.107 50.9921 934.38 Q50.9921 925.63 54.0477 921.047 Q57.1264 916.441 62.9365 916.441 Z" fill="#9eb1be" fill-rule="nonzero" fill-opacity="1" /><path clip-path="url(#clip110)" d="M83.0984 945.746 L87.9827 945.746 L87.9827 951.626 L83.0984 951.626 L83.0984 945.746 Z" fill="#9eb1be" fill-rule="nonzero" fill-opacity="1" /><path clip-path="url(#clip110)" d="M111.015 921.14 L99.2095 939.589 L111.015 939.589 L111.015 921.14 M109.788 917.066 L115.668 917.066 L115.668 939.589 L120.598 939.589 L120.598 943.477 L115.668 943.477 L115.668 951.626 L111.015 951.626 L111.015 943.477 L95.4132 943.477 L95.4132 938.964 L109.788 917.066 Z" fill="#9eb1be" fill-rule="nonzero" fill-opacity="1" /><path clip-path="url(#clip110)" d="M63.2606 644.093 Q59.6495 644.093 57.8208 647.658 Q56.0152 651.2 56.0152 658.329 Q56.0152 665.436 57.8208 669 Q59.6495 672.542 63.2606 672.542 Q66.8948 672.542 68.7004 669 Q70.5291 665.436 70.5291 658.329 Q70.5291 651.2 68.7004 647.658 Q66.8948 644.093 63.2606 644.093 M63.2606 640.389 Q69.0707 640.389 72.1263 644.996 Q75.205 649.579 75.205 658.329 Q75.205 667.056 72.1263 671.662 Q69.0707 676.246 63.2606 676.246 Q57.4504 676.246 54.3717 671.662 Q51.3162 667.056 51.3162 658.329 Q51.3162 649.579 54.3717 644.996 Q57.4504 640.389 63.2606 640.389 Z" fill="#9eb1be" fill-rule="nonzero" fill-opacity="1" /><path clip-path="url(#clip110)" d="M83.4225 669.695 L88.3067 669.695 L88.3067 675.574 L83.4225 675.574 L83.4225 669.695 Z" fill="#9eb1be" fill-rule="nonzero" fill-opacity="1" /><path clip-path="url(#clip110)" d="M109.071 656.431 Q105.922 656.431 104.071 658.584 Q102.242 660.737 102.242 664.487 Q102.242 668.213 104.071 670.389 Q105.922 672.542 109.071 672.542 Q112.219 672.542 114.047 670.389 Q115.899 668.213 115.899 664.487 Q115.899 660.737 114.047 658.584 Q112.219 656.431 109.071 656.431 M118.353 641.778 L118.353 646.038 Q116.594 645.204 114.788 644.764 Q113.006 644.325 111.246 644.325 Q106.617 644.325 104.163 647.45 Q101.733 650.575 101.385 656.894 Q102.751 654.88 104.811 653.815 Q106.871 652.727 109.348 652.727 Q114.557 652.727 117.566 655.899 Q120.598 659.047 120.598 664.487 Q120.598 669.811 117.45 673.028 Q114.302 676.246 109.071 676.246 Q103.075 676.246 99.9039 671.662 Q96.7326 667.056 96.7326 658.329 Q96.7326 650.135 100.621 645.274 Q104.51 640.389 111.061 640.389 Q112.82 640.389 114.603 640.737 Q116.408 641.084 118.353 641.778 Z" fill="#9eb1be" fill-rule="nonzero" fill-opacity="1" /><path clip-path="url(#clip110)" d="M63.5152 368.042 Q59.9041 368.042 58.0754 371.607 Q56.2699 375.148 56.2699 382.278 Q56.2699 389.384 58.0754 392.949 Q59.9041 396.491 63.5152 396.491 Q67.1494 396.491 68.955 392.949 Q70.7837 389.384 70.7837 382.278 Q70.7837 375.148 68.955 371.607 Q67.1494 368.042 63.5152 368.042 M63.5152 364.338 Q69.3254 364.338 72.3809 368.945 Q75.4596 373.528 75.4596 382.278 Q75.4596 391.005 72.3809 395.611 Q69.3254 400.195 63.5152 400.195 Q57.7051 400.195 54.6264 395.611 Q51.5708 391.005 51.5708 382.278 Q51.5708 373.528 54.6264 368.945 Q57.7051 364.338 63.5152 364.338 Z" fill="#9eb1be" fill-rule="nonzero" fill-opacity="1" /><path clip-path="url(#clip110)" d="M83.6771 393.644 L88.5614 393.644 L88.5614 399.523 L83.6771 399.523 L83.6771 393.644 Z" fill="#9eb1be" fill-rule="nonzero" fill-opacity="1" /><path clip-path="url(#clip110)" d="M108.746 383.111 Q105.413 383.111 103.492 384.894 Q101.594 386.676 101.594 389.801 Q101.594 392.926 103.492 394.708 Q105.413 396.491 108.746 396.491 Q112.08 396.491 114.001 394.708 Q115.922 392.903 115.922 389.801 Q115.922 386.676 114.001 384.894 Q112.103 383.111 108.746 383.111 M104.071 381.121 Q101.061 380.38 99.3715 378.32 Q97.7048 376.26 97.7048 373.297 Q97.7048 369.153 100.645 366.746 Q103.608 364.338 108.746 364.338 Q113.908 364.338 116.848 366.746 Q119.788 369.153 119.788 373.297 Q119.788 376.26 118.098 378.32 Q116.432 380.38 113.445 381.121 Q116.825 381.908 118.7 384.199 Q120.598 386.491 120.598 389.801 Q120.598 394.824 117.52 397.509 Q114.464 400.195 108.746 400.195 Q103.029 400.195 99.9502 397.509 Q96.8947 394.824 96.8947 389.801 Q96.8947 386.491 98.7928 384.199 Q100.691 381.908 104.071 381.121 M102.358 373.736 Q102.358 376.422 104.024 377.926 Q105.714 379.431 108.746 379.431 Q111.756 379.431 113.445 377.926 Q115.158 376.422 115.158 373.736 Q115.158 371.051 113.445 369.547 Q111.756 368.042 108.746 368.042 Q105.714 368.042 104.024 369.547 Q102.358 371.051 102.358 373.736 Z" fill="#9eb1be" fill-rule="nonzero" fill-opacity="1" /><path clip-path="url(#clip110)" d="M54.2328 119.537 L61.8717 119.537 L61.8717 93.1714 L53.5616 94.838 L53.5616 90.5788 L61.8254 88.9121 L66.5013 88.9121 L66.5013 119.537 L74.1402 119.537 L74.1402 123.472 L54.2328 123.472 L54.2328 119.537 Z" fill="#9eb1be" fill-rule="nonzero" fill-opacity="1" /><path clip-path="url(#clip110)" d="M83.5845 117.593 L88.4688 117.593 L88.4688 123.472 L83.5845 123.472 L83.5845 117.593 Z" fill="#9eb1be" fill-rule="nonzero" fill-opacity="1" /><path clip-path="url(#clip110)" d="M108.654 91.9908 Q105.043 91.9908 103.214 95.5556 Q101.409 99.0973 101.409 106.227 Q101.409 113.333 103.214 116.898 Q105.043 120.44 108.654 120.44 Q112.288 120.44 114.094 116.898 Q115.922 113.333 115.922 106.227 Q115.922 99.0973 114.094 95.5556 Q112.288 91.9908 108.654 91.9908 M108.654 88.2871 Q114.464 88.2871 117.52 92.8936 Q120.598 97.4769 120.598 106.227 Q120.598 114.954 117.52 119.56 Q114.464 124.143 108.654 124.143 Q102.844 124.143 99.765 119.56 Q96.7095 114.954 96.7095 106.227 Q96.7095 97.4769 99.765 92.8936 Q102.844 88.2871 108.654 88.2871 Z" fill="#9eb1be" fill-rule="nonzero" fill-opacity="1" /><path clip-path="url(#clip110)" d="M156.598 8.64 L162.443 8.64 L162.443 51.84 L156.598 51.84 L156.598 8.64 Z" fill="#adb2b7" fill-rule="nonzero" fill-opacity="1" /><path clip-path="url(#clip110)" d="M200.782 32.2799 L200.782 51.84 L195.458 51.84 L195.458 32.4535 Q195.458 27.8529 193.664 25.567 Q191.87 23.2811 188.282 23.2811 Q183.971 23.2811 181.482 26.03 Q178.994 28.7788 178.994 33.5241 L178.994 51.84 L173.641 51.84 L173.641 19.4328 L178.994 19.4328 L178.994 24.4675 Q180.904 21.545 183.479 20.0983 Q186.083 18.6515 189.468 18.6515 Q195.053 18.6515 197.917 22.1237 Q200.782 25.567 200.782 32.2799 Z" fill="#adb2b7" fill-rule="nonzero" fill-opacity="1" /><path clip-path="url(#clip110)" d="M232.061 20.3876 L232.061 25.4223 Q229.804 24.2649 227.373 23.6862 Q224.943 23.1075 222.339 23.1075 Q218.375 23.1075 216.378 24.3228 Q214.41 25.5381 214.41 27.9686 Q214.41 29.8204 215.828 30.891 Q217.246 31.9327 221.528 32.8876 L223.351 33.2926 Q229.023 34.5079 231.395 36.7359 Q233.797 38.935 233.797 42.8991 Q233.797 47.4129 230.209 50.046 Q226.65 52.6791 220.4 52.6791 Q217.796 52.6791 214.96 52.1583 Q212.153 51.6664 209.029 50.6537 L209.029 45.156 Q211.98 46.6896 214.844 47.4708 Q217.709 48.2231 220.516 48.2231 Q224.277 48.2231 226.303 46.95 Q228.328 45.6479 228.328 43.3042 Q228.328 41.134 226.852 39.9766 Q225.406 38.8192 220.458 37.7486 L218.606 37.3146 Q213.658 36.273 211.459 34.1318 Q209.26 31.9616 209.26 28.2001 Q209.26 23.6283 212.501 21.1399 Q215.741 18.6515 221.702 18.6515 Q224.653 18.6515 227.258 19.0855 Q229.862 19.5196 232.061 20.3876 Z" fill="#adb2b7" fill-rule="nonzero" fill-opacity="1" /><path clip-path="url(#clip110)" d="M247.541 10.2314 L247.541 19.4328 L258.507 19.4328 L258.507 23.5705 L247.541 23.5705 L247.541 41.163 Q247.541 45.1271 248.612 46.2555 Q249.711 47.384 253.039 47.384 L258.507 47.384 L258.507 51.84 L253.039 51.84 Q246.876 51.84 244.532 49.5541 Q242.188 47.2393 242.188 41.163 L242.188 23.5705 L238.282 23.5705 L238.282 19.4328 L242.188 19.4328 L242.188 10.2314 L247.541 10.2314 Z" fill="#adb2b7" fill-rule="nonzero" fill-opacity="1" /><path clip-path="url(#clip110)" d="M280.238 35.5496 Q273.785 35.5496 271.297 37.0253 Q268.808 38.501 268.808 42.06 Q268.808 44.8956 270.66 46.5738 Q272.541 48.2231 275.753 48.2231 Q280.18 48.2231 282.842 45.0981 Q285.533 41.9442 285.533 36.7359 L285.533 35.5496 L280.238 35.5496 M290.857 33.3505 L290.857 51.84 L285.533 51.84 L285.533 46.921 Q283.71 49.8724 280.99 51.2902 Q278.27 52.6791 274.335 52.6791 Q269.358 52.6791 266.407 49.9014 Q263.484 47.0947 263.484 42.4072 Q263.484 36.9385 267.13 34.1607 Q270.805 31.3829 278.067 31.3829 L285.533 31.3829 L285.533 30.8621 Q285.533 27.1874 283.102 25.1908 Q280.701 23.1654 276.331 23.1654 Q273.554 23.1654 270.921 23.8309 Q268.287 24.4964 265.857 25.8274 L265.857 20.9085 Q268.779 19.78 271.528 19.2302 Q274.277 18.6515 276.881 18.6515 Q283.912 18.6515 287.385 22.2973 Q290.857 25.9431 290.857 33.3505 Z" fill="#adb2b7" fill-rule="nonzero" fill-opacity="1" /><path clip-path="url(#clip110)" d="M301.823 6.81709 L307.147 6.81709 L307.147 51.84 L301.823 51.84 L301.823 6.81709 Z" fill="#adb2b7" fill-rule="nonzero" fill-opacity="1" /><path clip-path="url(#clip110)" d="M318.287 6.81709 L323.611 6.81709 L323.611 51.84 L318.287 51.84 L318.287 6.81709 Z" fill="#adb2b7" fill-rule="nonzero" fill-opacity="1" /><path clip-path="url(#clip110)" d="M379.716 10.0578 L379.716 15.758 Q376.389 14.1666 373.437 13.3853 Q370.486 12.6041 367.737 12.6041 Q362.963 12.6041 360.359 14.4559 Q357.783 16.3078 357.783 19.7221 Q357.783 22.5867 359.491 24.0624 Q361.227 25.5091 366.03 26.4061 L369.56 27.1295 Q376.099 28.3737 379.195 31.5276 Q382.32 34.6526 382.32 39.9188 Q382.32 46.1977 378.096 49.4384 Q373.9 52.6791 365.77 52.6791 Q362.702 52.6791 359.23 51.9847 Q355.787 51.2902 352.083 49.9303 L352.083 43.9118 Q355.642 45.9083 359.057 46.921 Q362.471 47.9338 365.77 47.9338 Q370.775 47.9338 373.495 45.9662 Q376.215 43.9986 376.215 40.3528 Q376.215 37.1699 374.248 35.376 Q372.309 33.582 367.853 32.685 L364.294 31.9906 Q357.755 30.6885 354.832 27.9107 Q351.91 25.133 351.91 20.1851 Q351.91 14.4559 355.932 11.1573 Q359.983 7.85875 367.072 7.85875 Q370.11 7.85875 373.264 8.40852 Q376.418 8.95829 379.716 10.0578 Z" fill="#adb2b7" fill-rule="nonzero" fill-opacity="1" /><path clip-path="url(#clip110)" d="M396.47 10.2314 L396.47 19.4328 L407.436 19.4328 L407.436 23.5705 L396.47 23.5705 L396.47 41.163 Q396.47 45.1271 397.54 46.2555 Q398.64 47.384 401.967 47.384 L407.436 47.384 L407.436 51.84 L401.967 51.84 Q395.804 51.84 393.46 49.5541 Q391.117 47.2393 391.117 41.163 L391.117 23.5705 L387.21 23.5705 L387.21 19.4328 L391.117 19.4328 L391.117 10.2314 L396.47 10.2314 Z" fill="#adb2b7" fill-rule="nonzero" fill-opacity="1" /><path clip-path="url(#clip110)" d="M429.166 35.5496 Q422.714 35.5496 420.225 37.0253 Q417.737 38.501 417.737 42.06 Q417.737 44.8956 419.589 46.5738 Q421.47 48.2231 424.681 48.2231 Q429.108 48.2231 431.77 45.0981 Q434.461 41.9442 434.461 36.7359 L434.461 35.5496 L429.166 35.5496 M439.785 33.3505 L439.785 51.84 L434.461 51.84 L434.461 46.921 Q432.638 49.8724 429.919 51.2902 Q427.199 52.6791 423.263 52.6791 Q418.287 52.6791 415.335 49.9014 Q412.413 47.0947 412.413 42.4072 Q412.413 36.9385 416.059 34.1607 Q419.733 31.3829 426.996 31.3829 L434.461 31.3829 L434.461 30.8621 Q434.461 27.1874 432.031 25.1908 Q429.629 23.1654 425.26 23.1654 Q422.482 23.1654 419.849 23.8309 Q417.216 24.4964 414.786 25.8274 L414.786 20.9085 Q417.708 19.78 420.457 19.2302 Q423.206 18.6515 425.81 18.6515 Q432.841 18.6515 436.313 22.2973 Q439.785 25.9431 439.785 33.3505 Z" fill="#adb2b7" fill-rule="nonzero" fill-opacity="1" /><path clip-path="url(#clip110)" d="M456.018 10.2314 L456.018 19.4328 L466.984 19.4328 L466.984 23.5705 L456.018 23.5705 L456.018 41.163 Q456.018 45.1271 457.089 46.2555 Q458.188 47.384 461.516 47.384 L466.984 47.384 L466.984 51.84 L461.516 51.84 Q455.352 51.84 453.009 49.5541 Q450.665 47.2393 450.665 41.163 L450.665 23.5705 L446.759 23.5705 L446.759 19.4328 L450.665 19.4328 L450.665 10.2314 L456.018 10.2314 Z" fill="#adb2b7" fill-rule="nonzero" fill-opacity="1" /><path clip-path="url(#clip110)" d="M494.646 20.3876 L494.646 25.4223 Q492.389 24.2649 489.959 23.6862 Q487.528 23.1075 484.924 23.1075 Q480.96 23.1075 478.963 24.3228 Q476.996 25.5381 476.996 27.9686 Q476.996 29.8204 478.414 30.891 Q479.831 31.9327 484.114 32.8876 L485.937 33.2926 Q491.608 34.5079 493.981 36.7359 Q496.382 38.935 496.382 42.8991 Q496.382 47.4129 492.794 50.046 Q489.235 52.6791 482.985 52.6791 Q480.381 52.6791 477.546 52.1583 Q474.739 51.6664 471.614 50.6537 L471.614 45.156 Q474.565 46.6896 477.43 47.4708 Q480.294 48.2231 483.101 48.2231 Q486.863 48.2231 488.888 46.95 Q490.914 45.6479 490.914 43.3042 Q490.914 41.134 489.438 39.9766 Q487.991 38.8192 483.043 37.7486 L481.191 37.3146 Q476.244 36.273 474.044 34.1318 Q471.845 31.9616 471.845 28.2001 Q471.845 23.6283 475.086 21.1399 Q478.327 18.6515 484.287 18.6515 Q487.239 18.6515 489.843 19.0855 Q492.447 19.5196 494.646 20.3876 Z" fill="#adb2b7" fill-rule="nonzero" fill-opacity="1" /><path clip-path="url(#clip110)" d="M510.937 13.4432 L510.937 29.6758 L518.286 29.6758 Q522.366 29.6758 524.594 27.5635 Q526.822 25.4513 526.822 21.545 Q526.822 17.6677 524.594 15.5555 Q522.366 13.4432 518.286 13.4432 L510.937 13.4432 M505.092 8.64 L518.286 8.64 Q525.549 8.64 529.252 11.9386 Q532.985 15.2083 532.985 21.545 Q532.985 27.9397 529.252 31.2093 Q525.549 34.479 518.286 34.479 L510.937 34.479 L510.937 51.84 L505.092 51.84 L505.092 8.64 Z" fill="#adb2b7" fill-rule="nonzero" fill-opacity="1" /><path clip-path="url(#clip110)" d="M540.595 6.81709 L545.919 6.81709 L545.919 51.84 L540.595 51.84 L540.595 6.81709 Z" fill="#adb2b7" fill-rule="nonzero" fill-opacity="1" /><path clip-path="url(#clip110)" d="M569.617 23.1654 Q565.334 23.1654 562.846 26.5218 Q560.358 29.8494 560.358 35.6653 Q560.358 41.4813 562.817 44.8377 Q565.306 48.1653 569.617 48.1653 Q573.87 48.1653 576.359 44.8088 Q578.847 41.4523 578.847 35.6653 Q578.847 29.9072 576.359 26.5508 Q573.87 23.1654 569.617 23.1654 M569.617 18.6515 Q576.561 18.6515 580.525 23.1654 Q584.489 27.6792 584.489 35.6653 Q584.489 43.6225 580.525 48.1653 Q576.561 52.6791 569.617 52.6791 Q562.644 52.6791 558.679 48.1653 Q554.744 43.6225 554.744 35.6653 Q554.744 27.6792 558.679 23.1654 Q562.644 18.6515 569.617 18.6515 Z" fill="#adb2b7" fill-rule="nonzero" fill-opacity="1" /><path clip-path="url(#clip110)" d="M598.581 10.2314 L598.581 19.4328 L609.547 19.4328 L609.547 23.5705 L598.581 23.5705 L598.581 41.163 Q598.581 45.1271 599.651 46.2555 Q600.751 47.384 604.078 47.384 L609.547 47.384 L609.547 51.84 L604.078 51.84 Q597.915 51.84 595.572 49.5541 Q593.228 47.2393 593.228 41.163 L593.228 23.5705 L589.322 23.5705 L589.322 19.4328 L593.228 19.4328 L593.228 10.2314 L598.581 10.2314 Z" fill="#adb2b7" fill-rule="nonzero" fill-opacity="1" /><path clip-path="url(#clip110)" d="M637.209 20.3876 L637.209 25.4223 Q634.952 24.2649 632.522 23.6862 Q630.091 23.1075 627.487 23.1075 Q623.523 23.1075 621.526 24.3228 Q619.559 25.5381 619.559 27.9686 Q619.559 29.8204 620.977 30.891 Q622.394 31.9327 626.677 32.8876 L628.5 33.2926 Q634.171 34.5079 636.544 36.7359 Q638.945 38.935 638.945 42.8991 Q638.945 47.4129 635.357 50.046 Q631.798 52.6791 625.548 52.6791 Q622.944 52.6791 620.108 52.1583 Q617.302 51.6664 614.177 50.6537 L614.177 45.156 Q617.128 46.6896 619.993 47.4708 Q622.857 48.2231 625.664 48.2231 Q629.426 48.2231 631.451 46.95 Q633.476 45.6479 633.476 43.3042 Q633.476 41.134 632.001 39.9766 Q630.554 38.8192 625.606 37.7486 L623.754 37.3146 Q618.806 36.273 616.607 34.1318 Q614.408 31.9616 614.408 28.2001 Q614.408 23.6283 617.649 21.1399 Q620.89 18.6515 626.85 18.6515 Q629.802 18.6515 632.406 19.0855 Q635.01 19.5196 637.209 20.3876 Z" fill="#adb2b7" fill-rule="nonzero" fill-opacity="1" /><path clip-path="url(#clip110)" d="M682.666 6.81709 L682.666 11.2442 L677.573 11.2442 Q674.709 11.2442 673.58 12.4016 Q672.481 13.559 672.481 16.5682 L672.481 19.4328 L681.248 19.4328 L681.248 23.5705 L672.481 23.5705 L672.481 51.84 L667.128 51.84 L667.128 23.5705 L662.035 23.5705 L662.035 19.4328 L667.128 19.4328 L667.128 17.1758 Q667.128 11.765 669.645 9.30551 Q672.163 6.81709 677.631 6.81709 L682.666 6.81709 Z" fill="#adb2b7" fill-rule="nonzero" fill-opacity="1" /><path clip-path="url(#clip110)" d="M699.68 23.1654 Q695.397 23.1654 692.909 26.5218 Q690.421 29.8494 690.421 35.6653 Q690.421 41.4813 692.88 44.8377 Q695.368 48.1653 699.68 48.1653 Q703.933 48.1653 706.422 44.8088 Q708.91 41.4523 708.91 35.6653 Q708.91 29.9072 706.422 26.5508 Q703.933 23.1654 699.68 23.1654 M699.68 18.6515 Q706.624 18.6515 710.588 23.1654 Q714.552 27.6792 714.552 35.6653 Q714.552 43.6225 710.588 48.1653 Q706.624 52.6791 699.68 52.6791 Q692.706 52.6791 688.742 48.1653 Q684.807 43.6225 684.807 35.6653 Q684.807 27.6792 688.742 23.1654 Q692.706 18.6515 699.68 18.6515 Z" fill="#adb2b7" fill-rule="nonzero" fill-opacity="1" /><path clip-path="url(#clip110)" d="M742.156 24.4096 Q741.259 23.8888 740.189 23.6573 Q739.147 23.3969 737.874 23.3969 Q733.36 23.3969 730.93 26.3482 Q728.528 29.2707 728.528 34.7683 L728.528 51.84 L723.175 51.84 L723.175 19.4328 L728.528 19.4328 L728.528 24.4675 Q730.206 21.5161 732.897 20.0983 Q735.588 18.6515 739.437 18.6515 Q739.986 18.6515 740.652 18.7383 Q741.317 18.7962 742.128 18.9409 L742.156 24.4096 Z" fill="#adb2b7" fill-rule="nonzero" fill-opacity="1" /><path clip-path="url(#clip110)" d="M762.758 19.4328 L768.401 19.4328 L778.528 46.6317 L788.655 19.4328 L794.297 19.4328 L782.145 51.84 L774.911 51.84 L762.758 19.4328 Z" fill="#adb2b7" fill-rule="nonzero" fill-opacity="1" /><path clip-path="url(#clip110)" d="M801.647 19.4328 L806.971 19.4328 L806.971 51.84 L801.647 51.84 L801.647 19.4328 M801.647 6.81709 L806.971 6.81709 L806.971 13.559 L801.647 13.559 L801.647 6.81709 Z" fill="#adb2b7" fill-rule="nonzero" fill-opacity="1" /><path clip-path="url(#clip110)" d="M830.669 23.1654 Q826.386 23.1654 823.898 26.5218 Q821.409 29.8494 821.409 35.6653 Q821.409 41.4813 823.869 44.8377 Q826.357 48.1653 830.669 48.1653 Q834.922 48.1653 837.411 44.8088 Q839.899 41.4523 839.899 35.6653 Q839.899 29.9072 837.411 26.5508 Q834.922 23.1654 830.669 23.1654 M830.669 18.6515 Q837.613 18.6515 841.577 23.1654 Q845.541 27.6792 845.541 35.6653 Q845.541 43.6225 841.577 48.1653 Q837.613 52.6791 830.669 52.6791 Q823.695 52.6791 819.731 48.1653 Q815.796 43.6225 815.796 35.6653 Q815.796 27.6792 819.731 23.1654 Q823.695 18.6515 830.669 18.6515 Z" fill="#adb2b7" fill-rule="nonzero" fill-opacity="1" /><path clip-path="url(#clip110)" d="M854.366 6.81709 L859.691 6.81709 L859.691 51.84 L854.366 51.84 L854.366 6.81709 Z" fill="#adb2b7" fill-rule="nonzero" fill-opacity="1" /><path clip-path="url(#clip110)" d="M870.831 19.4328 L876.155 19.4328 L876.155 51.84 L870.831 51.84 L870.831 19.4328 M870.831 6.81709 L876.155 6.81709 L876.155 13.559 L870.831 13.559 L870.831 6.81709 Z" fill="#adb2b7" fill-rule="nonzero" fill-opacity="1" /><path clip-path="url(#clip110)" d="M914.233 32.2799 L914.233 51.84 L908.909 51.84 L908.909 32.4535 Q908.909 27.8529 907.115 25.567 Q905.321 23.2811 901.733 23.2811 Q897.422 23.2811 894.933 26.03 Q892.445 28.7788 892.445 33.5241 L892.445 51.84 L887.092 51.84 L887.092 19.4328 L892.445 19.4328 L892.445 24.4675 Q894.355 21.545 896.93 20.0983 Q899.534 18.6515 902.919 18.6515 Q908.504 18.6515 911.368 22.1237 Q914.233 25.567 914.233 32.2799 Z" fill="#adb2b7" fill-rule="nonzero" fill-opacity="1" /><path clip-path="url(#clip110)" d="M948.839 46.9789 L948.839 64.1663 L943.486 64.1663 L943.486 19.4328 L948.839 19.4328 L948.839 24.3517 Q950.518 21.4582 953.064 20.0693 Q955.639 18.6515 959.198 18.6515 Q965.101 18.6515 968.776 23.339 Q972.479 28.0265 972.479 35.6653 Q972.479 43.3042 968.776 47.9916 Q965.101 52.6791 959.198 52.6791 Q955.639 52.6791 953.064 51.2902 Q950.518 49.8724 948.839 46.9789 M966.953 35.6653 Q966.953 29.7915 964.522 26.464 Q962.121 23.1075 957.896 23.1075 Q953.672 23.1075 951.241 26.464 Q948.839 29.7915 948.839 35.6653 Q948.839 41.5391 951.241 44.8956 Q953.672 48.2231 957.896 48.2231 Q962.121 48.2231 964.522 44.8956 Q966.953 41.5391 966.953 35.6653 Z" fill="#adb2b7" fill-rule="nonzero" fill-opacity="1" /><path clip-path="url(#clip110)" d="M981.304 6.81709 L986.629 6.81709 L986.629 51.84 L981.304 51.84 L981.304 6.81709 Z" fill="#adb2b7" fill-rule="nonzero" fill-opacity="1" /><path clip-path="url(#clip110)" d="M1010.33 23.1654 Q1006.04 23.1654 1003.56 26.5218 Q1001.07 29.8494 1001.07 35.6653 Q1001.07 41.4813 1003.53 44.8377 Q1006.01 48.1653 1010.33 48.1653 Q1014.58 48.1653 1017.07 44.8088 Q1019.56 41.4523 1019.56 35.6653 Q1019.56 29.9072 1017.07 26.5508 Q1014.58 23.1654 1010.33 23.1654 M1010.33 18.6515 Q1017.27 18.6515 1021.23 23.1654 Q1025.2 27.6792 1025.2 35.6653 Q1025.2 43.6225 1021.23 48.1653 Q1017.27 52.6791 1010.33 52.6791 Q1003.35 52.6791 999.389 48.1653 Q995.454 43.6225 995.454 35.6653 Q995.454 27.6792 999.389 23.1654 Q1003.35 18.6515 1010.33 18.6515 Z" fill="#adb2b7" fill-rule="nonzero" fill-opacity="1" /><path clip-path="url(#clip110)" d="M1039.29 10.2314 L1039.29 19.4328 L1050.26 19.4328 L1050.26 23.5705 L1039.29 23.5705 L1039.29 41.163 Q1039.29 45.1271 1040.36 46.2555 Q1041.46 47.384 1044.79 47.384 L1050.26 47.384 L1050.26 51.84 L1044.79 51.84 Q1038.62 51.84 1036.28 49.5541 Q1033.94 47.2393 1033.94 41.163 L1033.94 23.5705 L1030.03 23.5705 L1030.03 19.4328 L1033.94 19.4328 L1033.94 10.2314 L1039.29 10.2314 Z" fill="#adb2b7" fill-rule="nonzero" fill-opacity="1" /><path clip-path="url(#clip110)" d="M1077.92 20.3876 L1077.92 25.4223 Q1075.66 24.2649 1073.23 23.6862 Q1070.8 23.1075 1068.2 23.1075 Q1064.23 23.1075 1062.24 24.3228 Q1060.27 25.5381 1060.27 27.9686 Q1060.27 29.8204 1061.69 30.891 Q1063.1 31.9327 1067.39 32.8876 L1069.21 33.2926 Q1074.88 34.5079 1077.25 36.7359 Q1079.65 38.935 1079.65 42.8991 Q1079.65 47.4129 1076.07 50.046 Q1072.51 52.6791 1066.26 52.6791 Q1063.65 52.6791 1060.82 52.1583 Q1058.01 51.6664 1054.89 50.6537 L1054.89 45.156 Q1057.84 46.6896 1060.7 47.4708 Q1063.57 48.2231 1066.37 48.2231 Q1070.14 48.2231 1072.16 46.95 Q1074.19 45.6479 1074.19 43.3042 Q1074.19 41.134 1072.71 39.9766 Q1071.26 38.8192 1066.32 37.7486 L1064.46 37.3146 Q1059.52 36.273 1057.32 34.1318 Q1055.12 31.9616 1055.12 28.2001 Q1055.12 23.6283 1058.36 21.1399 Q1061.6 18.6515 1067.56 18.6515 Q1070.51 18.6515 1073.12 19.0855 Q1075.72 19.5196 1077.92 20.3876 Z" fill="#adb2b7" fill-rule="nonzero" fill-opacity="1" /></svg>
