<?xml version="1.0" encoding="utf-8"?>
<svg xmlns="http://www.w3.org/2000/svg" xmlns:xlink="http://www.w3.org/1999/xlink" width="600" height="400" viewBox="0 0 2400 1600">
<defs>
  <clipPath id="clip230">
    <rect x="0" y="0" width="2400" height="1600"/>
  </clipPath>
</defs>
<path clip-path="url(#clip230)" d="M0 1600 L2400 1600 L2400 0 L0 0  Z" fill="#282c34" fill-rule="evenodd" fill-opacity="1"/>
<defs>
  <clipPath id="clip231">
    <rect x="223" y="106" width="2130" height="1381"/>
  </clipPath>
</defs>
<path clip-path="url(#clip230)" d="M223.45 1486.45 L2352.76 1486.45 L2352.76 106.192 L223.45 106.192  Z" fill="#21252b" fill-rule="evenodd" fill-opacity="1"/>
<polyline clip-path="url(#clip231)" style="stroke:#adb2b7; stroke-linecap:round; stroke-linejoin:round; stroke-width:2; stroke-opacity:0.1; fill:none" points="393.783,1486.45 393.783,106.192 "/>
<polyline clip-path="url(#clip231)" style="stroke:#adb2b7; stroke-linecap:round; stroke-linejoin:round; stroke-width:2; stroke-opacity:0.1; fill:none" points="1054.2,1486.45 1054.2,106.192 "/>
<polyline clip-path="url(#clip231)" style="stroke:#adb2b7; stroke-linecap:round; stroke-linejoin:round; stroke-width:2; stroke-opacity:0.1; fill:none" points="1714.62,1486.45 1714.62,106.192 "/>
<polyline clip-path="url(#clip231)" style="stroke:#adb2b7; stroke-linecap:round; stroke-linejoin:round; stroke-width:2; stroke-opacity:0.1; fill:none" points="223.45,1366.55 2352.76,1366.55 "/>
<polyline clip-path="url(#clip231)" style="stroke:#adb2b7; stroke-linecap:round; stroke-linejoin:round; stroke-width:2; stroke-opacity:0.1; fill:none" points="223.45,1179.17 2352.76,1179.17 "/>
<polyline clip-path="url(#clip231)" style="stroke:#adb2b7; stroke-linecap:round; stroke-linejoin:round; stroke-width:2; stroke-opacity:0.1; fill:none" points="223.45,991.782 2352.76,991.782 "/>
<polyline clip-path="url(#clip231)" style="stroke:#adb2b7; stroke-linecap:round; stroke-linejoin:round; stroke-width:2; stroke-opacity:0.1; fill:none" points="223.45,804.398 2352.76,804.398 "/>
<polyline clip-path="url(#clip231)" style="stroke:#adb2b7; stroke-linecap:round; stroke-linejoin:round; stroke-width:2; stroke-opacity:0.1; fill:none" points="223.45,617.013 2352.76,617.013 "/>
<polyline clip-path="url(#clip231)" style="stroke:#adb2b7; stroke-linecap:round; stroke-linejoin:round; stroke-width:2; stroke-opacity:0.1; fill:none" points="223.45,429.629 2352.76,429.629 "/>
<polyline clip-path="url(#clip231)" style="stroke:#adb2b7; stroke-linecap:round; stroke-linejoin:round; stroke-width:2; stroke-opacity:0.1; fill:none" points="223.45,242.244 2352.76,242.244 "/>
<polyline clip-path="url(#clip230)" style="stroke:#adb2b7; stroke-linecap:round; stroke-linejoin:round; stroke-width:4; stroke-opacity:1; fill:none" points="223.45,1486.45 2352.76,1486.45 "/>
<polyline clip-path="url(#clip230)" style="stroke:#adb2b7; stroke-linecap:round; stroke-linejoin:round; stroke-width:4; stroke-opacity:1; fill:none" points="393.783,1486.45 393.783,1467.55 "/>
<polyline clip-path="url(#clip230)" style="stroke:#adb2b7; stroke-linecap:round; stroke-linejoin:round; stroke-width:4; stroke-opacity:1; fill:none" points="1054.2,1486.45 1054.2,1467.55 "/>
<polyline clip-path="url(#clip230)" style="stroke:#adb2b7; stroke-linecap:round; stroke-linejoin:round; stroke-width:4; stroke-opacity:1; fill:none" points="1714.62,1486.45 1714.62,1467.55 "/>
<path clip-path="url(#clip230)" d="M265.763 1544.91 L282.082 1544.91 L282.082 1548.85 L260.138 1548.85 L260.138 1544.91 Q262.8 1542.16 267.383 1537.53 Q271.99 1532.88 273.17 1531.53 Q275.416 1529.01 276.295 1527.27 Q277.198 1525.51 277.198 1523.82 Q277.198 1521.07 275.254 1519.33 Q273.332 1517.6 270.231 1517.6 Q268.032 1517.6 265.578 1518.36 Q263.147 1519.13 260.37 1520.68 L260.37 1515.95 Q263.194 1514.82 265.647 1514.24 Q268.101 1513.66 270.138 1513.66 Q275.508 1513.66 278.703 1516.35 Q281.897 1519.03 281.897 1523.52 Q281.897 1525.65 281.087 1527.57 Q280.3 1529.47 278.194 1532.07 Q277.615 1532.74 274.513 1535.95 Q271.411 1539.15 265.763 1544.91 Z" fill="#9eb1be" fill-rule="nonzero" fill-opacity="1" /><path clip-path="url(#clip230)" d="M301.897 1517.37 Q298.286 1517.37 296.457 1520.93 Q294.652 1524.47 294.652 1531.6 Q294.652 1538.71 296.457 1542.27 Q298.286 1545.82 301.897 1545.82 Q305.531 1545.82 307.337 1542.27 Q309.166 1538.71 309.166 1531.6 Q309.166 1524.47 307.337 1520.93 Q305.531 1517.37 301.897 1517.37 M301.897 1513.66 Q307.707 1513.66 310.763 1518.27 Q313.842 1522.85 313.842 1531.6 Q313.842 1540.33 310.763 1544.94 Q307.707 1549.52 301.897 1549.52 Q296.087 1549.52 293.008 1544.94 Q289.953 1540.33 289.953 1531.6 Q289.953 1522.85 293.008 1518.27 Q296.087 1513.66 301.897 1513.66 Z" fill="#9eb1be" fill-rule="nonzero" fill-opacity="1" /><path clip-path="url(#clip230)" d="M326.087 1544.91 L342.406 1544.91 L342.406 1548.85 L320.462 1548.85 L320.462 1544.91 Q323.124 1542.16 327.707 1537.53 Q332.314 1532.88 333.494 1531.53 Q335.74 1529.01 336.619 1527.27 Q337.522 1525.51 337.522 1523.82 Q337.522 1521.07 335.578 1519.33 Q333.656 1517.6 330.554 1517.6 Q328.355 1517.6 325.902 1518.36 Q323.471 1519.13 320.693 1520.68 L320.693 1515.95 Q323.517 1514.82 325.971 1514.24 Q328.425 1513.66 330.462 1513.66 Q335.832 1513.66 339.027 1516.35 Q342.221 1519.03 342.221 1523.52 Q342.221 1525.65 341.411 1527.57 Q340.624 1529.47 338.517 1532.07 Q337.939 1532.74 334.837 1535.95 Q331.735 1539.15 326.087 1544.91 Z" fill="#9eb1be" fill-rule="nonzero" fill-opacity="1" /><path clip-path="url(#clip230)" d="M362.221 1517.37 Q358.61 1517.37 356.781 1520.93 Q354.976 1524.47 354.976 1531.6 Q354.976 1538.71 356.781 1542.27 Q358.61 1545.82 362.221 1545.82 Q365.855 1545.82 367.661 1542.27 Q369.489 1538.71 369.489 1531.6 Q369.489 1524.47 367.661 1520.93 Q365.855 1517.37 362.221 1517.37 M362.221 1513.66 Q368.031 1513.66 371.087 1518.27 Q374.165 1522.85 374.165 1531.6 Q374.165 1540.33 371.087 1544.94 Q368.031 1549.52 362.221 1549.52 Q356.411 1549.52 353.332 1544.94 Q350.277 1540.33 350.277 1531.6 Q350.277 1522.85 353.332 1518.27 Q356.411 1513.66 362.221 1513.66 Z" fill="#9eb1be" fill-rule="nonzero" fill-opacity="1" /><path clip-path="url(#clip230)" d="M379.628 1533.96 L392.105 1533.96 L392.105 1537.76 L379.628 1537.76 L379.628 1533.96 Z" fill="#9eb1be" fill-rule="nonzero" fill-opacity="1" /><path clip-path="url(#clip230)" d="M409.489 1517.37 Q405.878 1517.37 404.049 1520.93 Q402.244 1524.47 402.244 1531.6 Q402.244 1538.71 404.049 1542.27 Q405.878 1545.82 409.489 1545.82 Q413.123 1545.82 414.929 1542.27 Q416.758 1538.71 416.758 1531.6 Q416.758 1524.47 414.929 1520.93 Q413.123 1517.37 409.489 1517.37 M409.489 1513.66 Q415.299 1513.66 418.355 1518.27 Q421.434 1522.85 421.434 1531.6 Q421.434 1540.33 418.355 1544.94 Q415.299 1549.52 409.489 1549.52 Q403.679 1549.52 400.6 1544.94 Q397.545 1540.33 397.545 1531.6 Q397.545 1522.85 400.6 1518.27 Q403.679 1513.66 409.489 1513.66 Z" fill="#9eb1be" fill-rule="nonzero" fill-opacity="1" /><path clip-path="url(#clip230)" d="M430.461 1544.91 L438.1 1544.91 L438.1 1518.55 L429.79 1520.21 L429.79 1515.95 L438.054 1514.29 L442.73 1514.29 L442.73 1544.91 L450.369 1544.91 L450.369 1548.85 L430.461 1548.85 L430.461 1544.91 Z" fill="#9eb1be" fill-rule="nonzero" fill-opacity="1" /><path clip-path="url(#clip230)" d="M457.058 1533.96 L469.535 1533.96 L469.535 1537.76 L457.058 1537.76 L457.058 1533.96 Z" fill="#9eb1be" fill-rule="nonzero" fill-opacity="1" /><path clip-path="url(#clip230)" d="M486.919 1517.37 Q483.308 1517.37 481.48 1520.93 Q479.674 1524.47 479.674 1531.6 Q479.674 1538.71 481.48 1542.27 Q483.308 1545.82 486.919 1545.82 Q490.554 1545.82 492.359 1542.27 Q494.188 1538.71 494.188 1531.6 Q494.188 1524.47 492.359 1520.93 Q490.554 1517.37 486.919 1517.37 M486.919 1513.66 Q492.729 1513.66 495.785 1518.27 Q498.864 1522.85 498.864 1531.6 Q498.864 1540.33 495.785 1544.94 Q492.729 1549.52 486.919 1549.52 Q481.109 1549.52 478.03 1544.94 Q474.975 1540.33 474.975 1531.6 Q474.975 1522.85 478.03 1518.27 Q481.109 1513.66 486.919 1513.66 Z" fill="#9eb1be" fill-rule="nonzero" fill-opacity="1" /><path clip-path="url(#clip230)" d="M511.109 1544.91 L527.428 1544.91 L527.428 1548.85 L505.484 1548.85 L505.484 1544.91 Q508.146 1542.16 512.729 1537.53 Q517.336 1532.88 518.516 1531.53 Q520.762 1529.01 521.641 1527.27 Q522.544 1525.51 522.544 1523.82 Q522.544 1521.07 520.6 1519.33 Q518.678 1517.6 515.577 1517.6 Q513.377 1517.6 510.924 1518.36 Q508.493 1519.13 505.715 1520.68 L505.715 1515.95 Q508.54 1514.82 510.993 1514.24 Q513.447 1513.66 515.484 1513.66 Q520.854 1513.66 524.049 1516.35 Q527.243 1519.03 527.243 1523.52 Q527.243 1525.65 526.433 1527.57 Q525.646 1529.47 523.539 1532.07 Q522.961 1532.74 519.859 1535.95 Q516.757 1539.15 511.109 1544.91 Z" fill="#9eb1be" fill-rule="nonzero" fill-opacity="1" /><path clip-path="url(#clip230)" d="M925.142 1544.91 L941.461 1544.91 L941.461 1548.85 L919.517 1548.85 L919.517 1544.91 Q922.179 1542.16 926.762 1537.53 Q931.369 1532.88 932.549 1531.53 Q934.795 1529.01 935.674 1527.27 Q936.577 1525.51 936.577 1523.82 Q936.577 1521.07 934.633 1519.33 Q932.711 1517.6 929.61 1517.6 Q927.411 1517.6 924.957 1518.36 Q922.526 1519.13 919.749 1520.68 L919.749 1515.95 Q922.573 1514.82 925.026 1514.24 Q927.48 1513.66 929.517 1513.66 Q934.887 1513.66 938.082 1516.35 Q941.276 1519.03 941.276 1523.52 Q941.276 1525.65 940.466 1527.57 Q939.679 1529.47 937.573 1532.07 Q936.994 1532.74 933.892 1535.95 Q930.79 1539.15 925.142 1544.91 Z" fill="#9eb1be" fill-rule="nonzero" fill-opacity="1" /><path clip-path="url(#clip230)" d="M961.276 1517.37 Q957.665 1517.37 955.836 1520.93 Q954.031 1524.47 954.031 1531.6 Q954.031 1538.71 955.836 1542.27 Q957.665 1545.82 961.276 1545.82 Q964.91 1545.82 966.716 1542.27 Q968.545 1538.71 968.545 1531.6 Q968.545 1524.47 966.716 1520.93 Q964.91 1517.37 961.276 1517.37 M961.276 1513.66 Q967.086 1513.66 970.142 1518.27 Q973.22 1522.85 973.22 1531.6 Q973.22 1540.33 970.142 1544.94 Q967.086 1549.52 961.276 1549.52 Q955.466 1549.52 952.387 1544.94 Q949.332 1540.33 949.332 1531.6 Q949.332 1522.85 952.387 1518.27 Q955.466 1513.66 961.276 1513.66 Z" fill="#9eb1be" fill-rule="nonzero" fill-opacity="1" /><path clip-path="url(#clip230)" d="M985.466 1544.91 L1001.79 1544.91 L1001.79 1548.85 L979.841 1548.85 L979.841 1544.91 Q982.503 1542.16 987.086 1537.53 Q991.693 1532.88 992.873 1531.53 Q995.119 1529.01 995.998 1527.27 Q996.901 1525.51 996.901 1523.82 Q996.901 1521.07 994.956 1519.33 Q993.035 1517.6 989.933 1517.6 Q987.734 1517.6 985.281 1518.36 Q982.85 1519.13 980.072 1520.68 L980.072 1515.95 Q982.896 1514.82 985.35 1514.24 Q987.804 1513.66 989.841 1513.66 Q995.211 1513.66 998.406 1516.35 Q1001.6 1519.03 1001.6 1523.52 Q1001.6 1525.65 1000.79 1527.57 Q1000 1529.47 997.896 1532.07 Q997.318 1532.74 994.216 1535.95 Q991.114 1539.15 985.466 1544.91 Z" fill="#9eb1be" fill-rule="nonzero" fill-opacity="1" /><path clip-path="url(#clip230)" d="M1021.6 1517.37 Q1017.99 1517.37 1016.16 1520.93 Q1014.35 1524.47 1014.35 1531.6 Q1014.35 1538.71 1016.16 1542.27 Q1017.99 1545.82 1021.6 1545.82 Q1025.23 1545.82 1027.04 1542.27 Q1028.87 1538.71 1028.87 1531.6 Q1028.87 1524.47 1027.04 1520.93 Q1025.23 1517.37 1021.6 1517.37 M1021.6 1513.66 Q1027.41 1513.66 1030.47 1518.27 Q1033.54 1522.85 1033.54 1531.6 Q1033.54 1540.33 1030.47 1544.94 Q1027.41 1549.52 1021.6 1549.52 Q1015.79 1549.52 1012.71 1544.94 Q1009.66 1540.33 1009.66 1531.6 Q1009.66 1522.85 1012.71 1518.27 Q1015.79 1513.66 1021.6 1513.66 Z" fill="#9eb1be" fill-rule="nonzero" fill-opacity="1" /><path clip-path="url(#clip230)" d="M1039.01 1533.96 L1051.48 1533.96 L1051.48 1537.76 L1039.01 1537.76 L1039.01 1533.96 Z" fill="#9eb1be" fill-rule="nonzero" fill-opacity="1" /><path clip-path="url(#clip230)" d="M1068.87 1517.37 Q1065.26 1517.37 1063.43 1520.93 Q1061.62 1524.47 1061.62 1531.6 Q1061.62 1538.71 1063.43 1542.27 Q1065.26 1545.82 1068.87 1545.82 Q1072.5 1545.82 1074.31 1542.27 Q1076.14 1538.71 1076.14 1531.6 Q1076.14 1524.47 1074.31 1520.93 Q1072.5 1517.37 1068.87 1517.37 M1068.87 1513.66 Q1074.68 1513.66 1077.73 1518.27 Q1080.81 1522.85 1080.81 1531.6 Q1080.81 1540.33 1077.73 1544.94 Q1074.68 1549.52 1068.87 1549.52 Q1063.06 1549.52 1059.98 1544.94 Q1056.92 1540.33 1056.92 1531.6 Q1056.92 1522.85 1059.98 1518.27 Q1063.06 1513.66 1068.87 1513.66 Z" fill="#9eb1be" fill-rule="nonzero" fill-opacity="1" /><path clip-path="url(#clip230)" d="M1089.84 1544.91 L1097.48 1544.91 L1097.48 1518.55 L1089.17 1520.21 L1089.17 1515.95 L1097.43 1514.29 L1102.11 1514.29 L1102.11 1544.91 L1109.75 1544.91 L1109.75 1548.85 L1089.84 1548.85 L1089.84 1544.91 Z" fill="#9eb1be" fill-rule="nonzero" fill-opacity="1" /><path clip-path="url(#clip230)" d="M1116.44 1533.96 L1128.91 1533.96 L1128.91 1537.76 L1116.44 1537.76 L1116.44 1533.96 Z" fill="#9eb1be" fill-rule="nonzero" fill-opacity="1" /><path clip-path="url(#clip230)" d="M1146.3 1517.37 Q1142.69 1517.37 1140.86 1520.93 Q1139.05 1524.47 1139.05 1531.6 Q1139.05 1538.71 1140.86 1542.27 Q1142.69 1545.82 1146.3 1545.82 Q1149.93 1545.82 1151.74 1542.27 Q1153.57 1538.71 1153.57 1531.6 Q1153.57 1524.47 1151.74 1520.93 Q1149.93 1517.37 1146.3 1517.37 M1146.3 1513.66 Q1152.11 1513.66 1155.16 1518.27 Q1158.24 1522.85 1158.24 1531.6 Q1158.24 1540.33 1155.16 1544.94 Q1152.11 1549.52 1146.3 1549.52 Q1140.49 1549.52 1137.41 1544.94 Q1134.35 1540.33 1134.35 1531.6 Q1134.35 1522.85 1137.41 1518.27 Q1140.49 1513.66 1146.3 1513.66 Z" fill="#9eb1be" fill-rule="nonzero" fill-opacity="1" /><path clip-path="url(#clip230)" d="M1179.31 1518.36 L1167.5 1536.81 L1179.31 1536.81 L1179.31 1518.36 M1178.08 1514.29 L1183.96 1514.29 L1183.96 1536.81 L1188.89 1536.81 L1188.89 1540.7 L1183.96 1540.7 L1183.96 1548.85 L1179.31 1548.85 L1179.31 1540.7 L1163.71 1540.7 L1163.71 1536.19 L1178.08 1514.29 Z" fill="#9eb1be" fill-rule="nonzero" fill-opacity="1" /><path clip-path="url(#clip230)" d="M1585.72 1544.91 L1602.04 1544.91 L1602.04 1548.85 L1580.1 1548.85 L1580.1 1544.91 Q1582.76 1542.16 1587.35 1537.53 Q1591.95 1532.88 1593.13 1531.53 Q1595.38 1529.01 1596.26 1527.27 Q1597.16 1525.51 1597.16 1523.82 Q1597.16 1521.07 1595.22 1519.33 Q1593.29 1517.6 1590.19 1517.6 Q1587.99 1517.6 1585.54 1518.36 Q1583.11 1519.13 1580.33 1520.68 L1580.33 1515.95 Q1583.16 1514.82 1585.61 1514.24 Q1588.06 1513.66 1590.1 1513.66 Q1595.47 1513.66 1598.66 1516.35 Q1601.86 1519.03 1601.86 1523.52 Q1601.86 1525.65 1601.05 1527.57 Q1600.26 1529.47 1598.16 1532.07 Q1597.58 1532.74 1594.47 1535.95 Q1591.37 1539.15 1585.72 1544.91 Z" fill="#9eb1be" fill-rule="nonzero" fill-opacity="1" /><path clip-path="url(#clip230)" d="M1621.86 1517.37 Q1618.25 1517.37 1616.42 1520.93 Q1614.61 1524.47 1614.61 1531.6 Q1614.61 1538.71 1616.42 1542.27 Q1618.25 1545.82 1621.86 1545.82 Q1625.49 1545.82 1627.3 1542.27 Q1629.13 1538.71 1629.13 1531.6 Q1629.13 1524.47 1627.3 1520.93 Q1625.49 1517.37 1621.86 1517.37 M1621.86 1513.66 Q1627.67 1513.66 1630.72 1518.27 Q1633.8 1522.85 1633.8 1531.6 Q1633.8 1540.33 1630.72 1544.94 Q1627.67 1549.52 1621.86 1549.52 Q1616.05 1549.52 1612.97 1544.94 Q1609.91 1540.33 1609.91 1531.6 Q1609.91 1522.85 1612.97 1518.27 Q1616.05 1513.66 1621.86 1513.66 Z" fill="#9eb1be" fill-rule="nonzero" fill-opacity="1" /><path clip-path="url(#clip230)" d="M1646.05 1544.91 L1662.37 1544.91 L1662.37 1548.85 L1640.42 1548.85 L1640.42 1544.91 Q1643.09 1542.16 1647.67 1537.53 Q1652.28 1532.88 1653.46 1531.53 Q1655.7 1529.01 1656.58 1527.27 Q1657.48 1525.51 1657.48 1523.82 Q1657.48 1521.07 1655.54 1519.33 Q1653.62 1517.6 1650.52 1517.6 Q1648.32 1517.6 1645.86 1518.36 Q1643.43 1519.13 1640.65 1520.68 L1640.65 1515.95 Q1643.48 1514.82 1645.93 1514.24 Q1648.39 1513.66 1650.42 1513.66 Q1655.79 1513.66 1658.99 1516.35 Q1662.18 1519.03 1662.18 1523.52 Q1662.18 1525.65 1661.37 1527.57 Q1660.59 1529.47 1658.48 1532.07 Q1657.9 1532.74 1654.8 1535.95 Q1651.7 1539.15 1646.05 1544.91 Z" fill="#9eb1be" fill-rule="nonzero" fill-opacity="1" /><path clip-path="url(#clip230)" d="M1682.18 1517.37 Q1678.57 1517.37 1676.74 1520.93 Q1674.94 1524.47 1674.94 1531.6 Q1674.94 1538.71 1676.74 1542.27 Q1678.57 1545.82 1682.18 1545.82 Q1685.82 1545.82 1687.62 1542.27 Q1689.45 1538.71 1689.45 1531.6 Q1689.45 1524.47 1687.62 1520.93 Q1685.82 1517.37 1682.18 1517.37 M1682.18 1513.66 Q1687.99 1513.66 1691.05 1518.27 Q1694.13 1522.85 1694.13 1531.6 Q1694.13 1540.33 1691.05 1544.94 Q1687.99 1549.52 1682.18 1549.52 Q1676.37 1549.52 1673.29 1544.94 Q1670.24 1540.33 1670.24 1531.6 Q1670.24 1522.85 1673.29 1518.27 Q1676.37 1513.66 1682.18 1513.66 Z" fill="#9eb1be" fill-rule="nonzero" fill-opacity="1" /><path clip-path="url(#clip230)" d="M1699.59 1533.96 L1712.07 1533.96 L1712.07 1537.76 L1699.59 1537.76 L1699.59 1533.96 Z" fill="#9eb1be" fill-rule="nonzero" fill-opacity="1" /><path clip-path="url(#clip230)" d="M1729.45 1517.37 Q1725.84 1517.37 1724.01 1520.93 Q1722.21 1524.47 1722.21 1531.6 Q1722.21 1538.71 1724.01 1542.27 Q1725.84 1545.82 1729.45 1545.82 Q1733.09 1545.82 1734.89 1542.27 Q1736.72 1538.71 1736.72 1531.6 Q1736.72 1524.47 1734.89 1520.93 Q1733.09 1517.37 1729.45 1517.37 M1729.45 1513.66 Q1735.26 1513.66 1738.32 1518.27 Q1741.4 1522.85 1741.4 1531.6 Q1741.4 1540.33 1738.32 1544.94 Q1735.26 1549.52 1729.45 1549.52 Q1723.64 1549.52 1720.56 1544.94 Q1717.51 1540.33 1717.51 1531.6 Q1717.51 1522.85 1720.56 1518.27 Q1723.64 1513.66 1729.45 1513.66 Z" fill="#9eb1be" fill-rule="nonzero" fill-opacity="1" /><path clip-path="url(#clip230)" d="M1750.42 1544.91 L1758.06 1544.91 L1758.06 1518.55 L1749.75 1520.21 L1749.75 1515.95 L1758.02 1514.29 L1762.69 1514.29 L1762.69 1544.91 L1770.33 1544.91 L1770.33 1548.85 L1750.42 1548.85 L1750.42 1544.91 Z" fill="#9eb1be" fill-rule="nonzero" fill-opacity="1" /><path clip-path="url(#clip230)" d="M1777.02 1533.96 L1789.5 1533.96 L1789.5 1537.76 L1777.02 1537.76 L1777.02 1533.96 Z" fill="#9eb1be" fill-rule="nonzero" fill-opacity="1" /><path clip-path="url(#clip230)" d="M1806.88 1517.37 Q1803.27 1517.37 1801.44 1520.93 Q1799.64 1524.47 1799.64 1531.6 Q1799.64 1538.71 1801.44 1542.27 Q1803.27 1545.82 1806.88 1545.82 Q1810.52 1545.82 1812.32 1542.27 Q1814.15 1538.71 1814.15 1531.6 Q1814.15 1524.47 1812.32 1520.93 Q1810.52 1517.37 1806.88 1517.37 M1806.88 1513.66 Q1812.69 1513.66 1815.75 1518.27 Q1818.83 1522.85 1818.83 1531.6 Q1818.83 1540.33 1815.75 1544.94 Q1812.69 1549.52 1806.88 1549.52 Q1801.07 1549.52 1797.99 1544.94 Q1794.94 1540.33 1794.94 1531.6 Q1794.94 1522.85 1797.99 1518.27 Q1801.07 1513.66 1806.88 1513.66 Z" fill="#9eb1be" fill-rule="nonzero" fill-opacity="1" /><path clip-path="url(#clip230)" d="M1837.62 1529.7 Q1834.47 1529.7 1832.62 1531.86 Q1830.79 1534.01 1830.79 1537.76 Q1830.79 1541.49 1832.62 1543.66 Q1834.47 1545.82 1837.62 1545.82 Q1840.77 1545.82 1842.6 1543.66 Q1844.45 1541.49 1844.45 1537.76 Q1844.45 1534.01 1842.6 1531.86 Q1840.77 1529.7 1837.62 1529.7 M1846.9 1515.05 L1846.9 1519.31 Q1845.14 1518.48 1843.34 1518.04 Q1841.56 1517.6 1839.8 1517.6 Q1835.17 1517.6 1832.71 1520.72 Q1830.28 1523.85 1829.94 1530.17 Q1831.3 1528.15 1833.36 1527.09 Q1835.42 1526 1837.9 1526 Q1843.11 1526 1846.12 1529.17 Q1849.15 1532.32 1849.15 1537.76 Q1849.15 1543.08 1846 1546.3 Q1842.85 1549.52 1837.62 1549.52 Q1831.63 1549.52 1828.45 1544.94 Q1825.28 1540.33 1825.28 1531.6 Q1825.28 1523.41 1829.17 1518.55 Q1833.06 1513.66 1839.61 1513.66 Q1841.37 1513.66 1843.15 1514.01 Q1844.96 1514.36 1846.9 1515.05 Z" fill="#9eb1be" fill-rule="nonzero" fill-opacity="1" /><polyline clip-path="url(#clip230)" style="stroke:#adb2b7; stroke-linecap:round; stroke-linejoin:round; stroke-width:4; stroke-opacity:1; fill:none" points="223.45,1486.45 223.45,106.192 "/>
<polyline clip-path="url(#clip230)" style="stroke:#adb2b7; stroke-linecap:round; stroke-linejoin:round; stroke-width:4; stroke-opacity:1; fill:none" points="223.45,1366.55 242.347,1366.55 "/>
<polyline clip-path="url(#clip230)" style="stroke:#adb2b7; stroke-linecap:round; stroke-linejoin:round; stroke-width:4; stroke-opacity:1; fill:none" points="223.45,1179.17 242.347,1179.17 "/>
<polyline clip-path="url(#clip230)" style="stroke:#adb2b7; stroke-linecap:round; stroke-linejoin:round; stroke-width:4; stroke-opacity:1; fill:none" points="223.45,991.782 242.347,991.782 "/>
<polyline clip-path="url(#clip230)" style="stroke:#adb2b7; stroke-linecap:round; stroke-linejoin:round; stroke-width:4; stroke-opacity:1; fill:none" points="223.45,804.398 242.347,804.398 "/>
<polyline clip-path="url(#clip230)" style="stroke:#adb2b7; stroke-linecap:round; stroke-linejoin:round; stroke-width:4; stroke-opacity:1; fill:none" points="223.45,617.013 242.347,617.013 "/>
<polyline clip-path="url(#clip230)" style="stroke:#adb2b7; stroke-linecap:round; stroke-linejoin:round; stroke-width:4; stroke-opacity:1; fill:none" points="223.45,429.629 242.347,429.629 "/>
<polyline clip-path="url(#clip230)" style="stroke:#adb2b7; stroke-linecap:round; stroke-linejoin:round; stroke-width:4; stroke-opacity:1; fill:none" points="223.45,242.244 242.347,242.244 "/>
<path clip-path="url(#clip230)" d="M50.9921 1367 L80.6679 1367 L80.6679 1370.94 L50.9921 1370.94 L50.9921 1367 Z" fill="#9eb1be" fill-rule="nonzero" fill-opacity="1" /><path clip-path="url(#clip230)" d="M100.76 1352.35 Q97.1493 1352.35 95.3206 1355.91 Q93.515 1359.46 93.515 1366.59 Q93.515 1373.69 95.3206 1377.26 Q97.1493 1380.8 100.76 1380.8 Q104.395 1380.8 106.2 1377.26 Q108.029 1373.69 108.029 1366.59 Q108.029 1359.46 106.2 1355.91 Q104.395 1352.35 100.76 1352.35 M100.76 1348.65 Q106.571 1348.65 109.626 1353.25 Q112.705 1357.84 112.705 1366.59 Q112.705 1375.31 109.626 1379.92 Q106.571 1384.5 100.76 1384.5 Q94.9502 1384.5 91.8715 1379.92 Q88.816 1375.31 88.816 1366.59 Q88.816 1357.84 91.8715 1353.25 Q94.9502 1348.65 100.76 1348.65 Z" fill="#9eb1be" fill-rule="nonzero" fill-opacity="1" /><path clip-path="url(#clip230)" d="M120.922 1377.95 L125.807 1377.95 L125.807 1383.83 L120.922 1383.83 L120.922 1377.95 Z" fill="#9eb1be" fill-rule="nonzero" fill-opacity="1" /><path clip-path="url(#clip230)" d="M145.992 1352.35 Q142.381 1352.35 140.552 1355.91 Q138.746 1359.46 138.746 1366.59 Q138.746 1373.69 140.552 1377.26 Q142.381 1380.8 145.992 1380.8 Q149.626 1380.8 151.431 1377.26 Q153.26 1373.69 153.26 1366.59 Q153.26 1359.46 151.431 1355.91 Q149.626 1352.35 145.992 1352.35 M145.992 1348.65 Q151.802 1348.65 154.857 1353.25 Q157.936 1357.84 157.936 1366.59 Q157.936 1375.31 154.857 1379.92 Q151.802 1384.5 145.992 1384.5 Q140.181 1384.5 137.103 1379.92 Q134.047 1375.31 134.047 1366.59 Q134.047 1357.84 137.103 1353.25 Q140.181 1348.65 145.992 1348.65 Z" fill="#9eb1be" fill-rule="nonzero" fill-opacity="1" /><path clip-path="url(#clip230)" d="M180.32 1365.2 Q183.677 1365.91 185.552 1368.18 Q187.45 1370.45 187.45 1373.79 Q187.45 1378.9 183.931 1381.7 Q180.413 1384.5 173.931 1384.5 Q171.755 1384.5 169.441 1384.06 Q167.149 1383.65 164.695 1382.79 L164.695 1378.28 Q166.64 1379.41 168.954 1379.99 Q171.269 1380.57 173.792 1380.57 Q178.191 1380.57 180.482 1378.83 Q182.797 1377.1 182.797 1373.79 Q182.797 1370.73 180.644 1369.02 Q178.515 1367.28 174.695 1367.28 L170.667 1367.28 L170.667 1363.44 L174.88 1363.44 Q178.329 1363.44 180.158 1362.07 Q181.987 1360.68 181.987 1358.09 Q181.987 1355.43 180.089 1354.02 Q178.214 1352.58 174.695 1352.58 Q172.774 1352.58 170.575 1353 Q168.376 1353.41 165.737 1354.29 L165.737 1350.13 Q168.399 1349.39 170.714 1349.02 Q173.052 1348.65 175.112 1348.65 Q180.436 1348.65 183.538 1351.08 Q186.64 1353.48 186.64 1357.6 Q186.64 1360.48 184.996 1362.47 Q183.353 1364.43 180.32 1365.2 Z" fill="#9eb1be" fill-rule="nonzero" fill-opacity="1" /><path clip-path="url(#clip230)" d="M51.9412 1179.62 L81.617 1179.62 L81.617 1183.55 L51.9412 1183.55 L51.9412 1179.62 Z" fill="#9eb1be" fill-rule="nonzero" fill-opacity="1" /><path clip-path="url(#clip230)" d="M101.709 1164.97 Q98.0984 1164.97 96.2697 1168.53 Q94.4641 1172.07 94.4641 1179.2 Q94.4641 1186.31 96.2697 1189.87 Q98.0984 1193.41 101.709 1193.41 Q105.344 1193.41 107.149 1189.87 Q108.978 1186.31 108.978 1179.2 Q108.978 1172.07 107.149 1168.53 Q105.344 1164.97 101.709 1164.97 M101.709 1161.26 Q107.52 1161.26 110.575 1165.87 Q113.654 1170.45 113.654 1179.2 Q113.654 1187.93 110.575 1192.53 Q107.52 1197.12 101.709 1197.12 Q95.8993 1197.12 92.8206 1192.53 Q89.7651 1187.93 89.7651 1179.2 Q89.7651 1170.45 92.8206 1165.87 Q95.8993 1161.26 101.709 1161.26 Z" fill="#9eb1be" fill-rule="nonzero" fill-opacity="1" /><path clip-path="url(#clip230)" d="M121.871 1190.57 L126.756 1190.57 L126.756 1196.45 L121.871 1196.45 L121.871 1190.57 Z" fill="#9eb1be" fill-rule="nonzero" fill-opacity="1" /><path clip-path="url(#clip230)" d="M146.941 1164.97 Q143.33 1164.97 141.501 1168.53 Q139.695 1172.07 139.695 1179.2 Q139.695 1186.31 141.501 1189.87 Q143.33 1193.41 146.941 1193.41 Q150.575 1193.41 152.38 1189.87 Q154.209 1186.31 154.209 1179.2 Q154.209 1172.07 152.38 1168.53 Q150.575 1164.97 146.941 1164.97 M146.941 1161.26 Q152.751 1161.26 155.806 1165.87 Q158.885 1170.45 158.885 1179.2 Q158.885 1187.93 155.806 1192.53 Q152.751 1197.12 146.941 1197.12 Q141.131 1197.12 138.052 1192.53 Q134.996 1187.93 134.996 1179.2 Q134.996 1170.45 138.052 1165.87 Q141.131 1161.26 146.941 1161.26 Z" fill="#9eb1be" fill-rule="nonzero" fill-opacity="1" /><path clip-path="url(#clip230)" d="M171.13 1192.51 L187.45 1192.51 L187.45 1196.45 L165.505 1196.45 L165.505 1192.51 Q168.167 1189.76 172.751 1185.13 Q177.357 1180.47 178.538 1179.13 Q180.783 1176.61 181.663 1174.87 Q182.565 1173.11 182.565 1171.42 Q182.565 1168.67 180.621 1166.93 Q178.7 1165.2 175.598 1165.2 Q173.399 1165.2 170.945 1165.96 Q168.515 1166.72 165.737 1168.28 L165.737 1163.55 Q168.561 1162.42 171.015 1161.84 Q173.468 1161.26 175.505 1161.26 Q180.876 1161.26 184.07 1163.95 Q187.265 1166.63 187.265 1171.12 Q187.265 1173.25 186.454 1175.17 Q185.667 1177.07 183.561 1179.66 Q182.982 1180.34 179.88 1183.55 Q176.778 1186.75 171.13 1192.51 Z" fill="#9eb1be" fill-rule="nonzero" fill-opacity="1" /><path clip-path="url(#clip230)" d="M51.5708 992.234 L81.2466 992.234 L81.2466 996.169 L51.5708 996.169 L51.5708 992.234 Z" fill="#9eb1be" fill-rule="nonzero" fill-opacity="1" /><path clip-path="url(#clip230)" d="M101.339 977.581 Q97.728 977.581 95.8993 981.146 Q94.0937 984.687 94.0937 991.817 Q94.0937 998.923 95.8993 1002.49 Q97.728 1006.03 101.339 1006.03 Q104.973 1006.03 106.779 1002.49 Q108.608 998.923 108.608 991.817 Q108.608 984.687 106.779 981.146 Q104.973 977.581 101.339 977.581 M101.339 973.877 Q107.149 973.877 110.205 978.484 Q113.283 983.067 113.283 991.817 Q113.283 1000.54 110.205 1005.15 Q107.149 1009.73 101.339 1009.73 Q95.5289 1009.73 92.4502 1005.15 Q89.3947 1000.54 89.3947 991.817 Q89.3947 983.067 92.4502 978.484 Q95.5289 973.877 101.339 973.877 Z" fill="#9eb1be" fill-rule="nonzero" fill-opacity="1" /><path clip-path="url(#clip230)" d="M121.501 1003.18 L126.385 1003.18 L126.385 1009.06 L121.501 1009.06 L121.501 1003.18 Z" fill="#9eb1be" fill-rule="nonzero" fill-opacity="1" /><path clip-path="url(#clip230)" d="M146.57 977.581 Q142.959 977.581 141.131 981.146 Q139.325 984.687 139.325 991.817 Q139.325 998.923 141.131 1002.49 Q142.959 1006.03 146.57 1006.03 Q150.205 1006.03 152.01 1002.49 Q153.839 998.923 153.839 991.817 Q153.839 984.687 152.01 981.146 Q150.205 977.581 146.57 977.581 M146.57 973.877 Q152.38 973.877 155.436 978.484 Q158.515 983.067 158.515 991.817 Q158.515 1000.54 155.436 1005.15 Q152.38 1009.73 146.57 1009.73 Q140.76 1009.73 137.681 1005.15 Q134.626 1000.54 134.626 991.817 Q134.626 983.067 137.681 978.484 Q140.76 973.877 146.57 973.877 Z" fill="#9eb1be" fill-rule="nonzero" fill-opacity="1" /><path clip-path="url(#clip230)" d="M167.542 1005.13 L175.181 1005.13 L175.181 978.762 L166.871 980.428 L166.871 976.169 L175.135 974.502 L179.811 974.502 L179.811 1005.13 L187.45 1005.13 L187.45 1009.06 L167.542 1009.06 L167.542 1005.13 Z" fill="#9eb1be" fill-rule="nonzero" fill-opacity="1" /><path clip-path="url(#clip230)" d="M100.112 790.196 Q96.5011 790.196 94.6724 793.761 Q92.8669 797.303 92.8669 804.432 Q92.8669 811.539 94.6724 815.104 Q96.5011 818.645 100.112 818.645 Q103.746 818.645 105.552 815.104 Q107.381 811.539 107.381 804.432 Q107.381 797.303 105.552 793.761 Q103.746 790.196 100.112 790.196 M100.112 786.493 Q105.922 786.493 108.978 791.099 Q112.057 795.682 112.057 804.432 Q112.057 813.159 108.978 817.766 Q105.922 822.349 100.112 822.349 Q94.3021 822.349 91.2234 817.766 Q88.1679 813.159 88.1679 804.432 Q88.1679 795.682 91.2234 791.099 Q94.3021 786.493 100.112 786.493 Z" fill="#9eb1be" fill-rule="nonzero" fill-opacity="1" /><path clip-path="url(#clip230)" d="M120.274 815.798 L125.158 815.798 L125.158 821.678 L120.274 821.678 L120.274 815.798 Z" fill="#9eb1be" fill-rule="nonzero" fill-opacity="1" /><path clip-path="url(#clip230)" d="M145.343 790.196 Q141.732 790.196 139.904 793.761 Q138.098 797.303 138.098 804.432 Q138.098 811.539 139.904 815.104 Q141.732 818.645 145.343 818.645 Q148.978 818.645 150.783 815.104 Q152.612 811.539 152.612 804.432 Q152.612 797.303 150.783 793.761 Q148.978 790.196 145.343 790.196 M145.343 786.493 Q151.154 786.493 154.209 791.099 Q157.288 795.682 157.288 804.432 Q157.288 813.159 154.209 817.766 Q151.154 822.349 145.343 822.349 Q139.533 822.349 136.455 817.766 Q133.399 813.159 133.399 804.432 Q133.399 795.682 136.455 791.099 Q139.533 786.493 145.343 786.493 Z" fill="#9eb1be" fill-rule="nonzero" fill-opacity="1" /><path clip-path="url(#clip230)" d="M175.505 790.196 Q171.894 790.196 170.066 793.761 Q168.26 797.303 168.26 804.432 Q168.26 811.539 170.066 815.104 Q171.894 818.645 175.505 818.645 Q179.14 818.645 180.945 815.104 Q182.774 811.539 182.774 804.432 Q182.774 797.303 180.945 793.761 Q179.14 790.196 175.505 790.196 M175.505 786.493 Q181.316 786.493 184.371 791.099 Q187.45 795.682 187.45 804.432 Q187.45 813.159 184.371 817.766 Q181.316 822.349 175.505 822.349 Q169.695 822.349 166.617 817.766 Q163.561 813.159 163.561 804.432 Q163.561 795.682 166.617 791.099 Q169.695 786.493 175.505 786.493 Z" fill="#9eb1be" fill-rule="nonzero" fill-opacity="1" /><path clip-path="url(#clip230)" d="M101.339 602.812 Q97.728 602.812 95.8993 606.377 Q94.0937 609.918 94.0937 617.048 Q94.0937 624.154 95.8993 627.719 Q97.728 631.261 101.339 631.261 Q104.973 631.261 106.779 627.719 Q108.608 624.154 108.608 617.048 Q108.608 609.918 106.779 606.377 Q104.973 602.812 101.339 602.812 M101.339 599.108 Q107.149 599.108 110.205 603.715 Q113.283 608.298 113.283 617.048 Q113.283 625.775 110.205 630.381 Q107.149 634.964 101.339 634.964 Q95.5289 634.964 92.4502 630.381 Q89.3947 625.775 89.3947 617.048 Q89.3947 608.298 92.4502 603.715 Q95.5289 599.108 101.339 599.108 Z" fill="#9eb1be" fill-rule="nonzero" fill-opacity="1" /><path clip-path="url(#clip230)" d="M121.501 628.414 L126.385 628.414 L126.385 634.293 L121.501 634.293 L121.501 628.414 Z" fill="#9eb1be" fill-rule="nonzero" fill-opacity="1" /><path clip-path="url(#clip230)" d="M146.57 602.812 Q142.959 602.812 141.131 606.377 Q139.325 609.918 139.325 617.048 Q139.325 624.154 141.131 627.719 Q142.959 631.261 146.57 631.261 Q150.205 631.261 152.01 627.719 Q153.839 624.154 153.839 617.048 Q153.839 609.918 152.01 606.377 Q150.205 602.812 146.57 602.812 M146.57 599.108 Q152.38 599.108 155.436 603.715 Q158.515 608.298 158.515 617.048 Q158.515 625.775 155.436 630.381 Q152.38 634.964 146.57 634.964 Q140.76 634.964 137.681 630.381 Q134.626 625.775 134.626 617.048 Q134.626 608.298 137.681 603.715 Q140.76 599.108 146.57 599.108 Z" fill="#9eb1be" fill-rule="nonzero" fill-opacity="1" /><path clip-path="url(#clip230)" d="M167.542 630.358 L175.181 630.358 L175.181 603.992 L166.871 605.659 L166.871 601.4 L175.135 599.733 L179.811 599.733 L179.811 630.358 L187.45 630.358 L187.45 634.293 L167.542 634.293 L167.542 630.358 Z" fill="#9eb1be" fill-rule="nonzero" fill-opacity="1" /><path clip-path="url(#clip230)" d="M101.709 415.427 Q98.0984 415.427 96.2697 418.992 Q94.4641 422.534 94.4641 429.663 Q94.4641 436.77 96.2697 440.335 Q98.0984 443.876 101.709 443.876 Q105.344 443.876 107.149 440.335 Q108.978 436.77 108.978 429.663 Q108.978 422.534 107.149 418.992 Q105.344 415.427 101.709 415.427 M101.709 411.724 Q107.52 411.724 110.575 416.33 Q113.654 420.913 113.654 429.663 Q113.654 438.39 110.575 442.997 Q107.52 447.58 101.709 447.58 Q95.8993 447.58 92.8206 442.997 Q89.7651 438.39 89.7651 429.663 Q89.7651 420.913 92.8206 416.33 Q95.8993 411.724 101.709 411.724 Z" fill="#9eb1be" fill-rule="nonzero" fill-opacity="1" /><path clip-path="url(#clip230)" d="M121.871 441.029 L126.756 441.029 L126.756 446.909 L121.871 446.909 L121.871 441.029 Z" fill="#9eb1be" fill-rule="nonzero" fill-opacity="1" /><path clip-path="url(#clip230)" d="M146.941 415.427 Q143.33 415.427 141.501 418.992 Q139.695 422.534 139.695 429.663 Q139.695 436.77 141.501 440.335 Q143.33 443.876 146.941 443.876 Q150.575 443.876 152.38 440.335 Q154.209 436.77 154.209 429.663 Q154.209 422.534 152.38 418.992 Q150.575 415.427 146.941 415.427 M146.941 411.724 Q152.751 411.724 155.806 416.33 Q158.885 420.913 158.885 429.663 Q158.885 438.39 155.806 442.997 Q152.751 447.58 146.941 447.58 Q141.131 447.58 138.052 442.997 Q134.996 438.39 134.996 429.663 Q134.996 420.913 138.052 416.33 Q141.131 411.724 146.941 411.724 Z" fill="#9eb1be" fill-rule="nonzero" fill-opacity="1" /><path clip-path="url(#clip230)" d="M171.13 442.973 L187.45 442.973 L187.45 446.909 L165.505 446.909 L165.505 442.973 Q168.167 440.219 172.751 435.589 Q177.357 430.936 178.538 429.594 Q180.783 427.071 181.663 425.335 Q182.565 423.575 182.565 421.886 Q182.565 419.131 180.621 417.395 Q178.7 415.659 175.598 415.659 Q173.399 415.659 170.945 416.423 Q168.515 417.186 165.737 418.737 L165.737 414.015 Q168.561 412.881 171.015 412.302 Q173.468 411.724 175.505 411.724 Q180.876 411.724 184.07 414.409 Q187.265 417.094 187.265 421.585 Q187.265 423.714 186.454 425.636 Q185.667 427.534 183.561 430.126 Q182.982 430.798 179.88 434.015 Q176.778 437.21 171.13 442.973 Z" fill="#9eb1be" fill-rule="nonzero" fill-opacity="1" /><path clip-path="url(#clip230)" d="M100.76 228.043 Q97.1493 228.043 95.3206 231.607 Q93.515 235.149 93.515 242.279 Q93.515 249.385 95.3206 252.95 Q97.1493 256.492 100.76 256.492 Q104.395 256.492 106.2 252.95 Q108.029 249.385 108.029 242.279 Q108.029 235.149 106.2 231.607 Q104.395 228.043 100.76 228.043 M100.76 224.339 Q106.571 224.339 109.626 228.945 Q112.705 233.529 112.705 242.279 Q112.705 251.005 109.626 255.612 Q106.571 260.195 100.76 260.195 Q94.9502 260.195 91.8715 255.612 Q88.816 251.005 88.816 242.279 Q88.816 233.529 91.8715 228.945 Q94.9502 224.339 100.76 224.339 Z" fill="#9eb1be" fill-rule="nonzero" fill-opacity="1" /><path clip-path="url(#clip230)" d="M120.922 253.644 L125.807 253.644 L125.807 259.524 L120.922 259.524 L120.922 253.644 Z" fill="#9eb1be" fill-rule="nonzero" fill-opacity="1" /><path clip-path="url(#clip230)" d="M145.992 228.043 Q142.381 228.043 140.552 231.607 Q138.746 235.149 138.746 242.279 Q138.746 249.385 140.552 252.95 Q142.381 256.492 145.992 256.492 Q149.626 256.492 151.431 252.95 Q153.26 249.385 153.26 242.279 Q153.26 235.149 151.431 231.607 Q149.626 228.043 145.992 228.043 M145.992 224.339 Q151.802 224.339 154.857 228.945 Q157.936 233.529 157.936 242.279 Q157.936 251.005 154.857 255.612 Q151.802 260.195 145.992 260.195 Q140.181 260.195 137.103 255.612 Q134.047 251.005 134.047 242.279 Q134.047 233.529 137.103 228.945 Q140.181 224.339 145.992 224.339 Z" fill="#9eb1be" fill-rule="nonzero" fill-opacity="1" /><path clip-path="url(#clip230)" d="M180.32 240.89 Q183.677 241.607 185.552 243.876 Q187.45 246.144 187.45 249.478 Q187.45 254.593 183.931 257.394 Q180.413 260.195 173.931 260.195 Q171.755 260.195 169.441 259.755 Q167.149 259.339 164.695 258.482 L164.695 253.968 Q166.64 255.103 168.954 255.681 Q171.269 256.26 173.792 256.26 Q178.191 256.26 180.482 254.524 Q182.797 252.788 182.797 249.478 Q182.797 246.422 180.644 244.709 Q178.515 242.973 174.695 242.973 L170.667 242.973 L170.667 239.131 L174.88 239.131 Q178.329 239.131 180.158 237.765 Q181.987 236.376 181.987 233.783 Q181.987 231.121 180.089 229.709 Q178.214 228.274 174.695 228.274 Q172.774 228.274 170.575 228.691 Q168.376 229.107 165.737 229.987 L165.737 225.82 Q168.399 225.08 170.714 224.709 Q173.052 224.339 175.112 224.339 Q180.436 224.339 183.538 226.77 Q186.64 229.177 186.64 233.297 Q186.64 236.168 184.996 238.158 Q183.353 240.126 180.32 240.89 Z" fill="#9eb1be" fill-rule="nonzero" fill-opacity="1" /><path clip-path="url(#clip230)" d="M223.45 8.64 L231.32 8.64 L250.475 44.7799 L250.475 8.64 L256.146 8.64 L256.146 51.84 L248.276 51.84 L229.121 15.7001 L229.121 51.84 L223.45 51.84 L223.45 8.64 Z" fill="#adb2b7" fill-rule="nonzero" fill-opacity="1" /><path clip-path="url(#clip230)" d="M280.105 23.1654 Q275.822 23.1654 273.334 26.5218 Q270.845 29.8494 270.845 35.6653 Q270.845 41.4813 273.305 44.8377 Q275.793 48.1653 280.105 48.1653 Q284.358 48.1653 286.846 44.8088 Q289.335 41.4523 289.335 35.6653 Q289.335 29.9072 286.846 26.5508 Q284.358 23.1654 280.105 23.1654 M280.105 18.6515 Q287.049 18.6515 291.013 23.1654 Q294.977 27.6792 294.977 35.6653 Q294.977 43.6225 291.013 48.1653 Q287.049 52.6791 280.105 52.6791 Q273.131 52.6791 269.167 48.1653 Q265.232 43.6225 265.232 35.6653 Q265.232 27.6792 269.167 23.1654 Q273.131 18.6515 280.105 18.6515 Z" fill="#adb2b7" fill-rule="nonzero" fill-opacity="1" /><path clip-path="url(#clip230)" d="M329.034 25.6538 Q331.03 22.0659 333.808 20.3587 Q336.586 18.6515 340.347 18.6515 Q345.411 18.6515 348.16 22.2105 Q350.909 25.7406 350.909 32.2799 L350.909 51.84 L345.556 51.84 L345.556 32.4535 Q345.556 27.795 343.906 25.5381 Q342.257 23.2811 338.872 23.2811 Q334.734 23.2811 332.332 26.03 Q329.931 28.7788 329.931 33.5241 L329.931 51.84 L324.578 51.84 L324.578 32.4535 Q324.578 27.7661 322.928 25.5381 Q321.279 23.2811 317.836 23.2811 Q313.756 23.2811 311.354 26.0589 Q308.953 28.8077 308.953 33.5241 L308.953 51.84 L303.6 51.84 L303.6 19.4328 L308.953 19.4328 L308.953 24.4675 Q310.776 21.4872 313.322 20.0693 Q315.868 18.6515 319.369 18.6515 Q322.899 18.6515 325.359 20.4455 Q327.847 22.2395 329.034 25.6538 Z" fill="#adb2b7" fill-rule="nonzero" fill-opacity="1" /><path clip-path="url(#clip230)" d="M361.528 19.4328 L366.852 19.4328 L366.852 51.84 L361.528 51.84 L361.528 19.4328 M361.528 6.81709 L366.852 6.81709 L366.852 13.559 L361.528 13.559 L361.528 6.81709 Z" fill="#adb2b7" fill-rule="nonzero" fill-opacity="1" /><path clip-path="url(#clip230)" d="M404.93 32.2799 L404.93 51.84 L399.606 51.84 L399.606 32.4535 Q399.606 27.8529 397.812 25.567 Q396.018 23.2811 392.43 23.2811 Q388.119 23.2811 385.631 26.03 Q383.142 28.7788 383.142 33.5241 L383.142 51.84 L377.789 51.84 L377.789 19.4328 L383.142 19.4328 L383.142 24.4675 Q385.052 21.545 387.627 20.0983 Q390.231 18.6515 393.617 18.6515 Q399.201 18.6515 402.066 22.1237 Q404.93 25.567 404.93 32.2799 Z" fill="#adb2b7" fill-rule="nonzero" fill-opacity="1" /><path clip-path="url(#clip230)" d="M430.277 35.5496 Q423.825 35.5496 421.336 37.0253 Q418.848 38.501 418.848 42.06 Q418.848 44.8956 420.7 46.5738 Q422.581 48.2231 425.792 48.2231 Q430.219 48.2231 432.881 45.0981 Q435.572 41.9442 435.572 36.7359 L435.572 35.5496 L430.277 35.5496 M440.896 33.3505 L440.896 51.84 L435.572 51.84 L435.572 46.921 Q433.75 49.8724 431.03 51.2902 Q428.31 52.6791 424.375 52.6791 Q419.398 52.6791 416.446 49.9014 Q413.524 47.0947 413.524 42.4072 Q413.524 36.9385 417.17 34.1607 Q420.845 31.3829 428.107 31.3829 L435.572 31.3829 L435.572 30.8621 Q435.572 27.1874 433.142 25.1908 Q430.74 23.1654 426.371 23.1654 Q423.593 23.1654 420.96 23.8309 Q418.327 24.4964 415.897 25.8274 L415.897 20.9085 Q418.819 19.78 421.568 19.2302 Q424.317 18.6515 426.921 18.6515 Q433.952 18.6515 437.424 22.2973 Q440.896 25.9431 440.896 33.3505 Z" fill="#adb2b7" fill-rule="nonzero" fill-opacity="1" /><path clip-path="url(#clip230)" d="M451.863 6.81709 L457.187 6.81709 L457.187 51.84 L451.863 51.84 L451.863 6.81709 Z" fill="#adb2b7" fill-rule="nonzero" fill-opacity="1" /><path clip-path="url(#clip230)" d="M505.942 24.4096 Q505.045 23.8888 503.975 23.6573 Q502.933 23.3969 501.66 23.3969 Q497.146 23.3969 494.716 26.3482 Q492.314 29.2707 492.314 34.7683 L492.314 51.84 L486.961 51.84 L486.961 19.4328 L492.314 19.4328 L492.314 24.4675 Q493.992 21.5161 496.683 20.0983 Q499.374 18.6515 503.223 18.6515 Q503.772 18.6515 504.438 18.7383 Q505.103 18.7962 505.913 18.9409 L505.942 24.4096 Z" fill="#adb2b7" fill-rule="nonzero" fill-opacity="1" /><path clip-path="url(#clip230)" d="M537.945 34.3054 L537.945 36.9095 L513.466 36.9095 Q513.813 42.4072 516.764 45.3007 Q519.744 48.1653 525.04 48.1653 Q528.107 48.1653 530.971 47.4129 Q533.865 46.6606 536.7 45.156 L536.7 50.1907 Q533.836 51.406 530.827 52.0425 Q527.817 52.6791 524.721 52.6791 Q516.967 52.6791 512.424 48.1653 Q507.91 43.6514 507.91 35.9547 Q507.91 27.9975 512.192 23.339 Q516.504 18.6515 523.795 18.6515 Q530.335 18.6515 534.125 22.876 Q537.945 27.0716 537.945 34.3054 M532.621 32.7429 Q532.563 28.3737 530.161 25.7695 Q527.788 23.1654 523.853 23.1654 Q519.397 23.1654 516.706 25.6827 Q514.044 28.2001 513.639 32.7718 L532.621 32.7429 Z" fill="#adb2b7" fill-rule="nonzero" fill-opacity="1" /><path clip-path="url(#clip230)" d="M551.949 10.2314 L551.949 19.4328 L562.916 19.4328 L562.916 23.5705 L551.949 23.5705 L551.949 41.163 Q551.949 45.1271 553.02 46.2555 Q554.119 47.384 557.447 47.384 L562.916 47.384 L562.916 51.84 L557.447 51.84 Q551.284 51.84 548.94 49.5541 Q546.596 47.2393 546.596 41.163 L546.596 23.5705 L542.69 23.5705 L542.69 19.4328 L546.596 19.4328 L546.596 10.2314 L551.949 10.2314 Z" fill="#adb2b7" fill-rule="nonzero" fill-opacity="1" /><path clip-path="url(#clip230)" d="M569.368 39.0507 L569.368 19.4328 L574.692 19.4328 L574.692 38.8482 Q574.692 43.4488 576.486 45.7636 Q578.28 48.0495 581.868 48.0495 Q586.179 48.0495 588.668 45.3007 Q591.185 42.5519 591.185 37.8065 L591.185 19.4328 L596.509 19.4328 L596.509 51.84 L591.185 51.84 L591.185 46.8632 Q589.246 49.8145 586.671 51.2613 Q584.125 52.6791 580.739 52.6791 Q575.155 52.6791 572.262 49.2069 Q569.368 45.7347 569.368 39.0507 M582.765 18.6515 L582.765 18.6515 Z" fill="#adb2b7" fill-rule="nonzero" fill-opacity="1" /><path clip-path="url(#clip230)" d="M626.254 24.4096 Q625.357 23.8888 624.287 23.6573 Q623.245 23.3969 621.972 23.3969 Q617.458 23.3969 615.027 26.3482 Q612.626 29.2707 612.626 34.7683 L612.626 51.84 L607.273 51.84 L607.273 19.4328 L612.626 19.4328 L612.626 24.4675 Q614.304 21.5161 616.995 20.0983 Q619.686 18.6515 623.534 18.6515 Q624.084 18.6515 624.75 18.7383 Q625.415 18.7962 626.225 18.9409 L626.254 24.4096 Z" fill="#adb2b7" fill-rule="nonzero" fill-opacity="1" /><path clip-path="url(#clip230)" d="M657.736 32.2799 L657.736 51.84 L652.412 51.84 L652.412 32.4535 Q652.412 27.8529 650.618 25.567 Q648.824 23.2811 645.236 23.2811 Q640.924 23.2811 638.436 26.03 Q635.948 28.7788 635.948 33.5241 L635.948 51.84 L630.595 51.84 L630.595 19.4328 L635.948 19.4328 L635.948 24.4675 Q637.857 21.545 640.432 20.0983 Q643.037 18.6515 646.422 18.6515 Q652.006 18.6515 654.871 22.1237 Q657.736 25.567 657.736 32.2799 Z" fill="#adb2b7" fill-rule="nonzero" fill-opacity="1" /><path clip-path="url(#clip230)" d="M689.014 20.3876 L689.014 25.4223 Q686.757 24.2649 684.327 23.6862 Q681.896 23.1075 679.292 23.1075 Q675.328 23.1075 673.332 24.3228 Q671.364 25.5381 671.364 27.9686 Q671.364 29.8204 672.782 30.891 Q674.2 31.9327 678.482 32.8876 L680.305 33.2926 Q685.976 34.5079 688.349 36.7359 Q690.75 38.935 690.75 42.8991 Q690.75 47.4129 687.163 50.046 Q683.604 52.6791 677.354 52.6791 Q674.749 52.6791 671.914 52.1583 Q669.107 51.6664 665.982 50.6537 L665.982 45.156 Q668.933 46.6896 671.798 47.4708 Q674.663 48.2231 677.469 48.2231 Q681.231 48.2231 683.256 46.95 Q685.282 45.6479 685.282 43.3042 Q685.282 41.134 683.806 39.9766 Q682.359 38.8192 677.411 37.7486 L675.56 37.3146 Q670.612 36.273 668.413 34.1318 Q666.214 31.9616 666.214 28.2001 Q666.214 23.6283 669.454 21.1399 Q672.695 18.6515 678.656 18.6515 Q681.607 18.6515 684.211 19.0855 Q686.815 19.5196 689.014 20.3876 Z" fill="#adb2b7" fill-rule="nonzero" fill-opacity="1" /><path clip-path="url(#clip230)" d="M741.329 35.6653 Q741.329 29.7915 738.898 26.464 Q736.497 23.1075 732.272 23.1075 Q728.048 23.1075 725.617 26.464 Q723.216 29.7915 723.216 35.6653 Q723.216 41.5391 725.617 44.8956 Q728.048 48.2231 732.272 48.2231 Q736.497 48.2231 738.898 44.8956 Q741.329 41.5391 741.329 35.6653 M723.216 24.3517 Q724.894 21.4582 727.44 20.0693 Q730.015 18.6515 733.574 18.6515 Q739.477 18.6515 743.152 23.339 Q746.855 28.0265 746.855 35.6653 Q746.855 43.3042 743.152 47.9916 Q739.477 52.6791 733.574 52.6791 Q730.015 52.6791 727.44 51.2902 Q724.894 49.8724 723.216 46.9789 L723.216 51.84 L717.863 51.84 L717.863 6.81709 L723.216 6.81709 L723.216 24.3517 Z" fill="#adb2b7" fill-rule="nonzero" fill-opacity="1" /><path clip-path="url(#clip230)" d="M769.164 54.8492 Q766.907 60.6362 764.766 62.4013 Q762.625 64.1663 759.037 64.1663 L754.784 64.1663 L754.784 59.7103 L757.909 59.7103 Q760.108 59.7103 761.323 58.6687 Q762.538 57.627 764.014 53.7497 L764.969 51.3192 L751.861 19.4328 L757.504 19.4328 L767.631 44.7799 L777.758 19.4328 L783.4 19.4328 L769.164 54.8492 Z" fill="#adb2b7" fill-rule="nonzero" fill-opacity="1" /><path clip-path="url(#clip230)" d="M806.491 19.4328 L811.815 19.4328 L818.47 44.722 L825.096 19.4328 L831.375 19.4328 L838.03 44.722 L844.656 19.4328 L849.98 19.4328 L841.502 51.84 L835.223 51.84 L828.25 25.2776 L821.247 51.84 L814.969 51.84 L806.491 19.4328 Z" fill="#adb2b7" fill-rule="nonzero" fill-opacity="1" /><path clip-path="url(#clip230)" d="M885.773 34.3054 L885.773 36.9095 L861.294 36.9095 Q861.641 42.4072 864.592 45.3007 Q867.572 48.1653 872.868 48.1653 Q875.935 48.1653 878.799 47.4129 Q881.693 46.6606 884.528 45.156 L884.528 50.1907 Q881.664 51.406 878.655 52.0425 Q875.645 52.6791 872.549 52.6791 Q864.795 52.6791 860.252 48.1653 Q855.738 43.6514 855.738 35.9547 Q855.738 27.9975 860.02 23.339 Q864.332 18.6515 871.623 18.6515 Q878.163 18.6515 881.953 22.876 Q885.773 27.0716 885.773 34.3054 M880.449 32.7429 Q880.391 28.3737 877.989 25.7695 Q875.616 23.1654 871.681 23.1654 Q867.225 23.1654 864.534 25.6827 Q861.872 28.2001 861.467 32.7718 L880.449 32.7429 Z" fill="#adb2b7" fill-rule="nonzero" fill-opacity="1" /><path clip-path="url(#clip230)" d="M922.231 34.3054 L922.231 36.9095 L897.752 36.9095 Q898.099 42.4072 901.05 45.3007 Q904.031 48.1653 909.326 48.1653 Q912.393 48.1653 915.257 47.4129 Q918.151 46.6606 920.986 45.156 L920.986 50.1907 Q918.122 51.406 915.113 52.0425 Q912.103 52.6791 909.007 52.6791 Q901.253 52.6791 896.71 48.1653 Q892.196 43.6514 892.196 35.9547 Q892.196 27.9975 896.479 23.339 Q900.79 18.6515 908.081 18.6515 Q914.621 18.6515 918.411 22.876 Q922.231 27.0716 922.231 34.3054 M916.907 32.7429 Q916.849 28.3737 914.447 25.7695 Q912.075 23.1654 908.139 23.1654 Q903.683 23.1654 900.992 25.6827 Q898.33 28.2001 897.925 32.7718 L916.907 32.7429 Z" fill="#adb2b7" fill-rule="nonzero" fill-opacity="1" /><path clip-path="url(#clip230)" d="M930.767 6.81709 L936.12 6.81709 L936.12 33.4084 L952.005 19.4328 L958.805 19.4328 L941.617 34.5947 L959.528 51.84 L952.584 51.84 L936.12 36.0125 L936.12 51.84 L930.767 51.84 L930.767 6.81709 Z" fill="#adb2b7" fill-rule="nonzero" fill-opacity="1" /><path clip-path="url(#clip230)" d="M986.611 24.3517 L986.611 6.81709 L991.935 6.81709 L991.935 51.84 L986.611 51.84 L986.611 46.9789 Q984.933 49.8724 982.358 51.2902 Q979.811 52.6791 976.223 52.6791 Q970.35 52.6791 966.646 47.9916 Q962.971 43.3042 962.971 35.6653 Q962.971 28.0265 966.646 23.339 Q970.35 18.6515 976.223 18.6515 Q979.811 18.6515 982.358 20.0693 Q984.933 21.4582 986.611 24.3517 M968.469 35.6653 Q968.469 41.5391 970.87 44.8956 Q973.301 48.2231 977.526 48.2231 Q981.75 48.2231 984.181 44.8956 Q986.611 41.5391 986.611 35.6653 Q986.611 29.7915 984.181 26.464 Q981.75 23.1075 977.526 23.1075 Q973.301 23.1075 970.87 26.464 Q968.469 29.7915 968.469 35.6653 Z" fill="#adb2b7" fill-rule="nonzero" fill-opacity="1" /><path clip-path="url(#clip230)" d="M1017.63 35.5496 Q1011.18 35.5496 1008.69 37.0253 Q1006.2 38.501 1006.2 42.06 Q1006.2 44.8956 1008.05 46.5738 Q1009.93 48.2231 1013.14 48.2231 Q1017.57 48.2231 1020.23 45.0981 Q1022.92 41.9442 1022.92 36.7359 L1022.92 35.5496 L1017.63 35.5496 M1028.25 33.3505 L1028.25 51.84 L1022.92 51.84 L1022.92 46.921 Q1021.1 49.8724 1018.38 51.2902 Q1015.66 52.6791 1011.73 52.6791 Q1006.75 52.6791 1003.8 49.9014 Q1000.88 47.0947 1000.88 42.4072 Q1000.88 36.9385 1004.52 34.1607 Q1008.2 31.3829 1015.46 31.3829 L1022.92 31.3829 L1022.92 30.8621 Q1022.92 27.1874 1020.49 25.1908 Q1018.09 23.1654 1013.72 23.1654 Q1010.95 23.1654 1008.31 23.8309 Q1005.68 24.4964 1003.25 25.8274 L1003.25 20.9085 Q1006.17 19.78 1008.92 19.2302 Q1011.67 18.6515 1014.27 18.6515 Q1021.3 18.6515 1024.78 22.2973 Q1028.25 25.9431 1028.25 33.3505 Z" fill="#adb2b7" fill-rule="nonzero" fill-opacity="1" /><path clip-path="url(#clip230)" d="M1052.7 54.8492 Q1050.44 60.6362 1048.3 62.4013 Q1046.16 64.1663 1042.57 64.1663 L1038.32 64.1663 L1038.32 59.7103 L1041.44 59.7103 Q1043.64 59.7103 1044.86 58.6687 Q1046.07 57.627 1047.55 53.7497 L1048.5 51.3192 L1035.4 19.4328 L1041.04 19.4328 L1051.17 44.7799 L1061.29 19.4328 L1066.93 19.4328 L1052.7 54.8492 Z" fill="#adb2b7" fill-rule="nonzero" fill-opacity="1" /><path clip-path="url(#clip230)" d="M294.427 463.241 L604.834 463.241 L604.834 152.201 L294.427 152.201  Z" fill="#282c34" fill-rule="evenodd" fill-opacity="1"/>
<polyline clip-path="url(#clip230)" style="stroke:#000000; stroke-linecap:round; stroke-linejoin:round; stroke-width:4; stroke-opacity:0; fill:none" points="294.427,463.241 604.834,463.241 604.834,152.201 294.427,152.201 294.427,463.241 "/>
<polyline clip-path="url(#clip230)" style="stroke:#fe4365; stroke-linecap:round; stroke-linejoin:round; stroke-width:4; stroke-opacity:1; fill:none" points="318.086,204.041 460.039,204.041 "/>
<path clip-path="url(#clip230)" d="M483.698 186.761 L490.666 186.761 L499.485 210.279 L508.351 186.761 L515.318 186.761 L515.318 221.321 L510.758 221.321 L510.758 190.974 L501.846 214.677 L497.147 214.677 L488.235 190.974 L488.235 221.321 L483.698 221.321 L483.698 186.761 Z" fill="#adb2b7" fill-rule="nonzero" fill-opacity="1" /><path clip-path="url(#clip230)" d="M534.462 198.381 Q531.036 198.381 529.045 201.066 Q527.055 203.728 527.055 208.381 Q527.055 213.034 529.022 215.719 Q531.013 218.381 534.462 218.381 Q537.865 218.381 539.855 215.696 Q541.846 213.011 541.846 208.381 Q541.846 203.774 539.855 201.089 Q537.865 198.381 534.462 198.381 M534.462 194.77 Q540.017 194.77 543.189 198.381 Q546.36 201.992 546.36 208.381 Q546.36 214.747 543.189 218.381 Q540.017 221.992 534.462 221.992 Q528.883 221.992 525.712 218.381 Q522.564 214.747 522.564 208.381 Q522.564 201.992 525.712 198.381 Q528.883 194.77 534.462 194.77 Z" fill="#adb2b7" fill-rule="nonzero" fill-opacity="1" /><path clip-path="url(#clip230)" d="M574.971 205.673 L574.971 221.321 L570.712 221.321 L570.712 205.811 Q570.712 202.131 569.277 200.302 Q567.841 198.474 564.971 198.474 Q561.522 198.474 559.531 200.673 Q557.54 202.872 557.54 206.668 L557.54 221.321 L553.258 221.321 L553.258 195.395 L557.54 195.395 L557.54 199.423 Q559.068 197.085 561.128 195.927 Q563.212 194.77 565.92 194.77 Q570.388 194.77 572.679 197.548 Q574.971 200.302 574.971 205.673 Z" fill="#adb2b7" fill-rule="nonzero" fill-opacity="1" /><polyline clip-path="url(#clip230)" style="stroke:#eca25c; stroke-linecap:round; stroke-linejoin:round; stroke-width:4; stroke-opacity:1; fill:none" points="318.086,255.881 460.039,255.881 "/>
<path clip-path="url(#clip230)" d="M483.698 238.601 L512.934 238.601 L512.934 242.536 L500.666 242.536 L500.666 273.161 L495.967 273.161 L495.967 242.536 L483.698 242.536 L483.698 238.601 Z" fill="#adb2b7" fill-rule="nonzero" fill-opacity="1" /><path clip-path="url(#clip230)" d="M509.624 262.929 L509.624 247.235 L513.883 247.235 L513.883 262.767 Q513.883 266.448 515.318 268.3 Q516.754 270.128 519.624 270.128 Q523.073 270.128 525.064 267.929 Q527.078 265.73 527.078 261.934 L527.078 247.235 L531.337 247.235 L531.337 273.161 L527.078 273.161 L527.078 269.179 Q525.527 271.54 523.467 272.698 Q521.43 273.832 518.721 273.832 Q514.254 273.832 511.939 271.054 Q509.624 268.276 509.624 262.929 M520.342 246.61 L520.342 246.61 Z" fill="#adb2b7" fill-rule="nonzero" fill-opacity="1" /><path clip-path="url(#clip230)" d="M562.286 259.133 L562.286 261.216 L542.703 261.216 Q542.98 265.614 545.341 267.929 Q547.726 270.221 551.962 270.221 Q554.415 270.221 556.707 269.619 Q559.022 269.017 561.29 267.813 L561.29 271.841 Q558.999 272.813 556.591 273.323 Q554.184 273.832 551.707 273.832 Q545.503 273.832 541.869 270.221 Q538.258 266.61 538.258 260.452 Q538.258 254.087 541.684 250.36 Q545.133 246.61 550.966 246.61 Q556.198 246.61 559.23 249.989 Q562.286 253.346 562.286 259.133 M558.027 257.883 Q557.98 254.388 556.059 252.304 Q554.161 250.221 551.013 250.221 Q547.448 250.221 545.295 252.235 Q543.166 254.249 542.841 257.906 L558.027 257.883 Z" fill="#adb2b7" fill-rule="nonzero" fill-opacity="1" /><polyline clip-path="url(#clip230)" style="stroke:#3f9778; stroke-linecap:round; stroke-linejoin:round; stroke-width:4; stroke-opacity:1; fill:none" points="318.086,307.721 460.039,307.721 "/>
<path clip-path="url(#clip230)" d="M483.698 290.441 L488.42 290.441 L495.689 319.653 L502.934 290.441 L508.189 290.441 L515.457 319.653 L522.703 290.441 L527.448 290.441 L518.768 325.001 L512.888 325.001 L505.596 295.001 L498.235 325.001 L492.356 325.001 L483.698 290.441 Z" fill="#adb2b7" fill-rule="nonzero" fill-opacity="1" /><path clip-path="url(#clip230)" d="M552.865 310.973 L552.865 313.056 L533.281 313.056 Q533.559 317.454 535.92 319.769 Q538.304 322.061 542.541 322.061 Q544.994 322.061 547.286 321.459 Q549.601 320.857 551.869 319.653 L551.869 323.681 Q549.578 324.653 547.17 325.163 Q544.763 325.672 542.286 325.672 Q536.082 325.672 532.448 322.061 Q528.837 318.45 528.837 312.292 Q528.837 305.927 532.263 302.2 Q535.712 298.45 541.545 298.45 Q546.777 298.45 549.809 301.829 Q552.865 305.186 552.865 310.973 M548.605 309.723 Q548.559 306.228 546.638 304.144 Q544.74 302.061 541.591 302.061 Q538.027 302.061 535.874 304.075 Q533.744 306.089 533.42 309.746 L548.605 309.723 Z" fill="#adb2b7" fill-rule="nonzero" fill-opacity="1" /><path clip-path="url(#clip230)" d="M576.915 303.01 L576.915 288.982 L581.175 288.982 L581.175 325.001 L576.915 325.001 L576.915 321.112 Q575.573 323.427 573.513 324.561 Q571.476 325.672 568.605 325.672 Q563.906 325.672 560.943 321.922 Q558.003 318.172 558.003 312.061 Q558.003 305.95 560.943 302.2 Q563.906 298.45 568.605 298.45 Q571.476 298.45 573.513 299.584 Q575.573 300.695 576.915 303.01 M562.402 312.061 Q562.402 316.76 564.323 319.445 Q566.267 322.107 569.647 322.107 Q573.026 322.107 574.971 319.445 Q576.915 316.76 576.915 312.061 Q576.915 307.362 574.971 304.7 Q573.026 302.015 569.647 302.015 Q566.267 302.015 564.323 304.7 Q562.402 307.362 562.402 312.061 Z" fill="#adb2b7" fill-rule="nonzero" fill-opacity="1" /><polyline clip-path="url(#clip230)" style="stroke:#005d7f; stroke-linecap:round; stroke-linejoin:round; stroke-width:4; stroke-opacity:1; fill:none" points="318.086,359.561 460.039,359.561 "/>
<path clip-path="url(#clip230)" d="M483.698 342.281 L512.934 342.281 L512.934 346.216 L500.666 346.216 L500.666 376.841 L495.967 376.841 L495.967 346.216 L483.698 346.216 L483.698 342.281 Z" fill="#adb2b7" fill-rule="nonzero" fill-opacity="1" /><path clip-path="url(#clip230)" d="M538.814 361.193 L538.814 376.841 L534.554 376.841 L534.554 361.331 Q534.554 357.651 533.119 355.822 Q531.684 353.994 528.814 353.994 Q525.365 353.994 523.374 356.193 Q521.383 358.392 521.383 362.188 L521.383 376.841 L517.101 376.841 L517.101 340.822 L521.383 340.822 L521.383 354.943 Q522.911 352.605 524.971 351.447 Q527.055 350.29 529.763 350.29 Q534.23 350.29 536.522 353.068 Q538.814 355.822 538.814 361.193 Z" fill="#adb2b7" fill-rule="nonzero" fill-opacity="1" /><path clip-path="url(#clip230)" d="M546.869 366.609 L546.869 350.915 L551.128 350.915 L551.128 366.447 Q551.128 370.128 552.564 371.98 Q553.999 373.808 556.869 373.808 Q560.318 373.808 562.309 371.609 Q564.323 369.41 564.323 365.614 L564.323 350.915 L568.582 350.915 L568.582 376.841 L564.323 376.841 L564.323 372.859 Q562.772 375.22 560.712 376.378 Q558.675 377.512 555.966 377.512 Q551.499 377.512 549.184 374.734 Q546.869 371.956 546.869 366.609 M557.587 350.29 L557.587 350.29 Z" fill="#adb2b7" fill-rule="nonzero" fill-opacity="1" /><polyline clip-path="url(#clip230)" style="stroke:#00a8ff; stroke-linecap:round; stroke-linejoin:round; stroke-width:4; stroke-opacity:1; fill:none" points="318.086,411.401 460.039,411.401 "/>
<path clip-path="url(#clip230)" d="M483.698 394.121 L503.559 394.121 L503.559 398.056 L488.374 398.056 L488.374 408.241 L502.078 408.241 L502.078 412.176 L488.374 412.176 L488.374 428.681 L483.698 428.681 L483.698 394.121 Z" fill="#adb2b7" fill-rule="nonzero" fill-opacity="1" /><path clip-path="url(#clip230)" d="M522.355 406.736 Q521.638 406.32 520.781 406.134 Q519.948 405.926 518.93 405.926 Q515.318 405.926 513.374 408.287 Q511.453 410.625 511.453 415.023 L511.453 428.681 L507.17 428.681 L507.17 402.755 L511.453 402.755 L511.453 406.783 Q512.795 404.422 514.948 403.287 Q517.101 402.13 520.18 402.13 Q520.619 402.13 521.152 402.199 Q521.684 402.246 522.332 402.361 L522.355 406.736 Z" fill="#adb2b7" fill-rule="nonzero" fill-opacity="1" /><path clip-path="url(#clip230)" d="M526.823 402.755 L531.082 402.755 L531.082 428.681 L526.823 428.681 L526.823 402.755 M526.823 392.662 L531.082 392.662 L531.082 398.056 L526.823 398.056 L526.823 392.662 Z" fill="#adb2b7" fill-rule="nonzero" fill-opacity="1" /><path clip-path="url(#clip230)" d="M2292.49 1430.1 L2299.46 1430.1 L2308.28 1453.62 L2317.15 1430.1 L2324.11 1430.1 L2324.11 1464.66 L2319.55 1464.66 L2319.55 1434.32 L2310.64 1458.02 L2305.94 1458.02 L2297.03 1434.32 L2297.03 1464.66 L2292.49 1464.66 L2292.49 1430.1 Z" fill="#000000" fill-rule="nonzero" fill-opacity="1" /><path clip-path="url(#clip230)" d="M2343.26 1441.72 Q2339.83 1441.72 2337.84 1444.41 Q2335.85 1447.07 2335.85 1451.72 Q2335.85 1456.38 2337.82 1459.06 Q2339.81 1461.72 2343.26 1461.72 Q2346.66 1461.72 2348.65 1459.04 Q2350.64 1456.35 2350.64 1451.72 Q2350.64 1447.12 2348.65 1444.43 Q2346.66 1441.72 2343.26 1441.72 M2343.26 1438.11 Q2348.81 1438.11 2351.98 1441.72 Q2355.15 1445.34 2355.15 1451.72 Q2355.15 1458.09 2351.98 1461.72 Q2348.81 1465.34 2343.26 1465.34 Q2337.68 1465.34 2334.51 1461.72 Q2331.36 1458.09 2331.36 1451.72 Q2331.36 1445.34 2334.51 1441.72 Q2337.68 1438.11 2343.26 1438.11 Z" fill="#000000" fill-rule="nonzero" fill-opacity="1" /><path clip-path="url(#clip230)" d="M2383.77 1449.02 L2383.77 1464.66 L2379.51 1464.66 L2379.51 1449.15 Q2379.51 1445.47 2378.07 1443.65 Q2376.64 1441.82 2373.77 1441.82 Q2370.32 1441.82 2368.33 1444.02 Q2366.33 1446.22 2366.33 1450.01 L2366.33 1464.66 L2362.05 1464.66 L2362.05 1438.74 L2366.33 1438.74 L2366.33 1442.77 Q2367.86 1440.43 2369.92 1439.27 Q2372.01 1438.11 2374.71 1438.11 Q2379.18 1438.11 2381.47 1440.89 Q2383.77 1443.65 2383.77 1449.02 Z" fill="#000000" fill-rule="nonzero" fill-opacity="1" /><path clip-path="url(#clip230)" d="M2292.49 127.976 L2321.73 127.976 L2321.73 131.911 L2309.46 131.911 L2309.46 162.536 L2304.76 162.536 L2304.76 131.911 L2292.49 131.911 L2292.49 127.976 Z" fill="#000000" fill-rule="nonzero" fill-opacity="1" /><path clip-path="url(#clip230)" d="M2318.42 152.305 L2318.42 136.61 L2322.68 136.61 L2322.68 152.143 Q2322.68 155.823 2324.11 157.675 Q2325.55 159.504 2328.42 159.504 Q2331.87 159.504 2333.86 157.305 Q2335.87 155.105 2335.87 151.309 L2335.87 136.61 L2340.13 136.61 L2340.13 162.536 L2335.87 162.536 L2335.87 158.555 Q2334.32 160.916 2332.26 162.073 Q2330.22 163.207 2327.52 163.207 Q2323.05 163.207 2320.73 160.429 Q2318.42 157.652 2318.42 152.305 M2329.14 135.985 L2329.14 135.985 Z" fill="#000000" fill-rule="nonzero" fill-opacity="1" /><path clip-path="url(#clip230)" d="M2371.08 148.508 L2371.08 150.592 L2351.5 150.592 Q2351.77 154.99 2354.14 157.305 Q2356.52 159.596 2360.76 159.596 Q2363.21 159.596 2365.5 158.994 Q2367.82 158.392 2370.08 157.189 L2370.08 161.217 Q2367.79 162.189 2365.39 162.698 Q2362.98 163.207 2360.5 163.207 Q2354.3 163.207 2350.66 159.596 Q2347.05 155.985 2347.05 149.828 Q2347.05 143.462 2350.48 139.735 Q2353.93 135.985 2359.76 135.985 Q2364.99 135.985 2368.02 139.365 Q2371.08 142.721 2371.08 148.508 M2366.82 147.258 Q2366.77 143.763 2364.85 141.68 Q2362.96 139.596 2359.81 139.596 Q2356.24 139.596 2354.09 141.61 Q2351.96 143.624 2351.64 147.281 L2366.82 147.258 Z" fill="#000000" fill-rule="nonzero" fill-opacity="1" /><path clip-path="url(#clip230)" d="M2292.49 412.349 L2297.21 412.349 L2304.48 441.561 L2311.73 412.349 L2316.98 412.349 L2324.25 441.561 L2331.5 412.349 L2336.24 412.349 L2327.56 446.909 L2321.68 446.909 L2314.39 416.909 L2307.03 446.909 L2301.15 446.909 L2292.49 412.349 Z" fill="#000000" fill-rule="nonzero" fill-opacity="1" /><path clip-path="url(#clip230)" d="M2361.66 432.881 L2361.66 434.964 L2342.08 434.964 Q2342.35 439.362 2344.71 441.677 Q2347.1 443.969 2351.33 443.969 Q2353.79 443.969 2356.08 443.367 Q2358.39 442.765 2360.66 441.561 L2360.66 445.589 Q2358.37 446.561 2355.96 447.071 Q2353.56 447.58 2351.08 447.58 Q2344.88 447.58 2341.24 443.969 Q2337.63 440.358 2337.63 434.2 Q2337.63 427.835 2341.06 424.108 Q2344.51 420.358 2350.34 420.358 Q2355.57 420.358 2358.6 423.737 Q2361.66 427.094 2361.66 432.881 M2357.4 431.631 Q2357.35 428.136 2355.43 426.052 Q2353.53 423.969 2350.39 423.969 Q2346.82 423.969 2344.67 425.983 Q2342.54 427.997 2342.21 431.654 L2357.4 431.631 Z" fill="#000000" fill-rule="nonzero" fill-opacity="1" /><path clip-path="url(#clip230)" d="M2385.71 424.918 L2385.71 410.89 L2389.97 410.89 L2389.97 446.909 L2385.71 446.909 L2385.71 443.02 Q2384.37 445.334 2382.31 446.469 Q2380.27 447.58 2377.4 447.58 Q2372.7 447.58 2369.74 443.83 Q2366.8 440.08 2366.8 433.969 Q2366.8 427.858 2369.74 424.108 Q2372.7 420.358 2377.4 420.358 Q2380.27 420.358 2382.31 421.492 Q2384.37 422.603 2385.71 424.918 M2371.2 433.969 Q2371.2 438.668 2373.12 441.353 Q2375.06 444.015 2378.44 444.015 Q2381.82 444.015 2383.77 441.353 Q2385.71 438.668 2385.71 433.969 Q2385.71 429.27 2383.77 426.608 Q2381.82 423.923 2378.44 423.923 Q2375.06 423.923 2373.12 426.608 Q2371.2 429.27 2371.2 433.969 Z" fill="#000000" fill-rule="nonzero" fill-opacity="1" /><path clip-path="url(#clip230)" d="M2292.49 1158.18 L2321.73 1158.18 L2321.73 1162.11 L2309.46 1162.11 L2309.46 1192.74 L2304.76 1192.74 L2304.76 1162.11 L2292.49 1162.11 L2292.49 1158.18 Z" fill="#000000" fill-rule="nonzero" fill-opacity="1" /><path clip-path="url(#clip230)" d="M2347.61 1177.09 L2347.61 1192.74 L2343.35 1192.74 L2343.35 1177.23 Q2343.35 1173.55 2341.91 1171.72 Q2340.48 1169.89 2337.61 1169.89 Q2334.16 1169.89 2332.17 1172.09 Q2330.18 1174.29 2330.18 1178.08 L2330.18 1192.74 L2325.9 1192.74 L2325.9 1156.72 L2330.18 1156.72 L2330.18 1170.84 Q2331.71 1168.5 2333.77 1167.34 Q2335.85 1166.19 2338.56 1166.19 Q2343.02 1166.19 2345.32 1168.96 Q2347.61 1171.72 2347.61 1177.09 Z" fill="#000000" fill-rule="nonzero" fill-opacity="1" /><path clip-path="url(#clip230)" d="M2355.66 1182.5 L2355.66 1166.81 L2359.92 1166.81 L2359.92 1182.34 Q2359.92 1186.02 2361.36 1187.88 Q2362.79 1189.7 2365.66 1189.7 Q2369.11 1189.7 2371.1 1187.5 Q2373.12 1185.31 2373.12 1181.51 L2373.12 1166.81 L2377.38 1166.81 L2377.38 1192.74 L2373.12 1192.74 L2373.12 1188.75 Q2371.57 1191.12 2369.51 1192.27 Q2367.47 1193.41 2364.76 1193.41 Q2360.29 1193.41 2357.98 1190.63 Q2355.66 1187.85 2355.66 1182.5 M2366.38 1166.19 L2366.38 1166.19 Z" fill="#000000" fill-rule="nonzero" fill-opacity="1" /><path clip-path="url(#clip230)" d="M2292.49 693.892 L2312.35 693.892 L2312.35 697.827 L2297.17 697.827 L2297.17 708.012 L2310.87 708.012 L2310.87 711.947 L2297.17 711.947 L2297.17 728.452 L2292.49 728.452 L2292.49 693.892 Z" fill="#000000" fill-rule="nonzero" fill-opacity="1" /><path clip-path="url(#clip230)" d="M2331.15 706.507 Q2330.43 706.091 2329.58 705.905 Q2328.74 705.697 2327.72 705.697 Q2324.11 705.697 2322.17 708.058 Q2320.25 710.396 2320.25 714.794 L2320.25 728.452 L2315.96 728.452 L2315.96 702.526 L2320.25 702.526 L2320.25 706.554 Q2321.59 704.192 2323.74 703.058 Q2325.9 701.901 2328.97 701.901 Q2329.41 701.901 2329.95 701.97 Q2330.48 702.017 2331.13 702.132 L2331.15 706.507 Z" fill="#000000" fill-rule="nonzero" fill-opacity="1" /><path clip-path="url(#clip230)" d="M2335.62 702.526 L2339.88 702.526 L2339.88 728.452 L2335.62 728.452 L2335.62 702.526 M2335.62 692.433 L2339.88 692.433 L2339.88 697.827 L2335.62 697.827 L2335.62 692.433 Z" fill="#000000" fill-rule="nonzero" fill-opacity="1" /></svg>
