<?xml version="1.0" encoding="utf-8"?>
<svg xmlns="http://www.w3.org/2000/svg" xmlns:xlink="http://www.w3.org/1999/xlink" width="600" height="400" viewBox="0 0 2400 1600">
<defs>
  <clipPath id="clip770">
    <rect x="0" y="0" width="2400" height="1600"/>
  </clipPath>
</defs>
<path clip-path="url(#clip770)" d="M0 1600 L2400 1600 L2400 0 L0 0  Z" fill="#282c34" fill-rule="evenodd" fill-opacity="1"/>
<defs>
  <clipPath id="clip771">
    <rect x="229" y="123" width="2124" height="1364"/>
  </clipPath>
</defs>
<path clip-path="url(#clip770)" d="M229.445 1486.45 L2352.76 1486.45 L2352.76 123.472 L229.445 123.472  Z" fill="#21252b" fill-rule="evenodd" fill-opacity="1"/>
<polyline clip-path="url(#clip771)" style="stroke:#adb2b7; stroke-linecap:round; stroke-linejoin:round; stroke-width:2; stroke-opacity:0.1; fill:none" points="289.539,1486.45 289.539,123.472 "/>
<polyline clip-path="url(#clip771)" style="stroke:#adb2b7; stroke-linecap:round; stroke-linejoin:round; stroke-width:2; stroke-opacity:0.1; fill:none" points="693.53,1486.45 693.53,123.472 "/>
<polyline clip-path="url(#clip771)" style="stroke:#adb2b7; stroke-linecap:round; stroke-linejoin:round; stroke-width:2; stroke-opacity:0.1; fill:none" points="1097.52,1486.45 1097.52,123.472 "/>
<polyline clip-path="url(#clip771)" style="stroke:#adb2b7; stroke-linecap:round; stroke-linejoin:round; stroke-width:2; stroke-opacity:0.1; fill:none" points="1501.51,1486.45 1501.51,123.472 "/>
<polyline clip-path="url(#clip771)" style="stroke:#adb2b7; stroke-linecap:round; stroke-linejoin:round; stroke-width:2; stroke-opacity:0.1; fill:none" points="1905.5,1486.45 1905.5,123.472 "/>
<polyline clip-path="url(#clip771)" style="stroke:#adb2b7; stroke-linecap:round; stroke-linejoin:round; stroke-width:2; stroke-opacity:0.1; fill:none" points="2309.5,1486.45 2309.5,123.472 "/>
<polyline clip-path="url(#clip771)" style="stroke:#adb2b7; stroke-linecap:round; stroke-linejoin:round; stroke-width:2; stroke-opacity:0.1; fill:none" points="229.445,1447.2 2352.76,1447.2 "/>
<polyline clip-path="url(#clip771)" style="stroke:#adb2b7; stroke-linecap:round; stroke-linejoin:round; stroke-width:2; stroke-opacity:0.1; fill:none" points="229.445,1213.09 2352.76,1213.09 "/>
<polyline clip-path="url(#clip771)" style="stroke:#adb2b7; stroke-linecap:round; stroke-linejoin:round; stroke-width:2; stroke-opacity:0.1; fill:none" points="229.445,978.974 2352.76,978.974 "/>
<polyline clip-path="url(#clip771)" style="stroke:#adb2b7; stroke-linecap:round; stroke-linejoin:round; stroke-width:2; stroke-opacity:0.1; fill:none" points="229.445,744.859 2352.76,744.859 "/>
<polyline clip-path="url(#clip771)" style="stroke:#adb2b7; stroke-linecap:round; stroke-linejoin:round; stroke-width:2; stroke-opacity:0.1; fill:none" points="229.445,510.745 2352.76,510.745 "/>
<polyline clip-path="url(#clip771)" style="stroke:#adb2b7; stroke-linecap:round; stroke-linejoin:round; stroke-width:2; stroke-opacity:0.1; fill:none" points="229.445,276.63 2352.76,276.63 "/>
<polyline clip-path="url(#clip770)" style="stroke:#adb2b7; stroke-linecap:round; stroke-linejoin:round; stroke-width:4; stroke-opacity:1; fill:none" points="229.445,1486.45 2352.76,1486.45 "/>
<polyline clip-path="url(#clip770)" style="stroke:#adb2b7; stroke-linecap:round; stroke-linejoin:round; stroke-width:4; stroke-opacity:1; fill:none" points="289.539,1486.45 289.539,1467.55 "/>
<polyline clip-path="url(#clip770)" style="stroke:#adb2b7; stroke-linecap:round; stroke-linejoin:round; stroke-width:4; stroke-opacity:1; fill:none" points="693.53,1486.45 693.53,1467.55 "/>
<polyline clip-path="url(#clip770)" style="stroke:#adb2b7; stroke-linecap:round; stroke-linejoin:round; stroke-width:4; stroke-opacity:1; fill:none" points="1097.52,1486.45 1097.52,1467.55 "/>
<polyline clip-path="url(#clip770)" style="stroke:#adb2b7; stroke-linecap:round; stroke-linejoin:round; stroke-width:4; stroke-opacity:1; fill:none" points="1501.51,1486.45 1501.51,1467.55 "/>
<polyline clip-path="url(#clip770)" style="stroke:#adb2b7; stroke-linecap:round; stroke-linejoin:round; stroke-width:4; stroke-opacity:1; fill:none" points="1905.5,1486.45 1905.5,1467.55 "/>
<polyline clip-path="url(#clip770)" style="stroke:#adb2b7; stroke-linecap:round; stroke-linejoin:round; stroke-width:4; stroke-opacity:1; fill:none" points="2309.5,1486.45 2309.5,1467.55 "/>
<path clip-path="url(#clip770)" d="M161.333 1544.91 L177.653 1544.91 L177.653 1548.85 L155.708 1548.85 L155.708 1544.91 Q158.37 1542.16 162.954 1537.53 Q167.56 1532.88 168.741 1531.53 Q170.986 1529.01 171.866 1527.27 Q172.769 1525.51 172.769 1523.82 Q172.769 1521.07 170.824 1519.33 Q168.903 1517.6 165.801 1517.6 Q163.602 1517.6 161.148 1518.36 Q158.718 1519.13 155.94 1520.68 L155.94 1515.95 Q158.764 1514.82 161.218 1514.24 Q163.671 1513.66 165.708 1513.66 Q171.079 1513.66 174.273 1516.35 Q177.468 1519.03 177.468 1523.52 Q177.468 1525.65 176.657 1527.57 Q175.87 1529.47 173.764 1532.07 Q173.185 1532.74 170.083 1535.95 Q166.982 1539.15 161.333 1544.91 Z" fill="#9eb1be" fill-rule="nonzero" fill-opacity="1" /><path clip-path="url(#clip770)" d="M197.468 1517.37 Q193.856 1517.37 192.028 1520.93 Q190.222 1524.47 190.222 1531.6 Q190.222 1538.71 192.028 1542.27 Q193.856 1545.82 197.468 1545.82 Q201.102 1545.82 202.907 1542.27 Q204.736 1538.71 204.736 1531.6 Q204.736 1524.47 202.907 1520.93 Q201.102 1517.37 197.468 1517.37 M197.468 1513.66 Q203.278 1513.66 206.333 1518.27 Q209.412 1522.85 209.412 1531.6 Q209.412 1540.33 206.333 1544.94 Q203.278 1549.52 197.468 1549.52 Q191.657 1549.52 188.579 1544.94 Q185.523 1540.33 185.523 1531.6 Q185.523 1522.85 188.579 1518.27 Q191.657 1513.66 197.468 1513.66 Z" fill="#9eb1be" fill-rule="nonzero" fill-opacity="1" /><path clip-path="url(#clip770)" d="M221.657 1544.91 L237.977 1544.91 L237.977 1548.85 L216.032 1548.85 L216.032 1544.91 Q218.694 1542.16 223.278 1537.53 Q227.884 1532.88 229.065 1531.53 Q231.31 1529.01 232.19 1527.27 Q233.092 1525.51 233.092 1523.82 Q233.092 1521.07 231.148 1519.33 Q229.227 1517.6 226.125 1517.6 Q223.926 1517.6 221.472 1518.36 Q219.041 1519.13 216.264 1520.68 L216.264 1515.95 Q219.088 1514.82 221.541 1514.24 Q223.995 1513.66 226.032 1513.66 Q231.403 1513.66 234.597 1516.35 Q237.791 1519.03 237.791 1523.52 Q237.791 1525.65 236.981 1527.57 Q236.194 1529.47 234.088 1532.07 Q233.509 1532.74 230.407 1535.95 Q227.305 1539.15 221.657 1544.91 Z" fill="#9eb1be" fill-rule="nonzero" fill-opacity="1" /><path clip-path="url(#clip770)" d="M257.791 1517.37 Q254.18 1517.37 252.351 1520.93 Q250.546 1524.47 250.546 1531.6 Q250.546 1538.71 252.351 1542.27 Q254.18 1545.82 257.791 1545.82 Q261.425 1545.82 263.231 1542.27 Q265.06 1538.71 265.06 1531.6 Q265.06 1524.47 263.231 1520.93 Q261.425 1517.37 257.791 1517.37 M257.791 1513.66 Q263.601 1513.66 266.657 1518.27 Q269.736 1522.85 269.736 1531.6 Q269.736 1540.33 266.657 1544.94 Q263.601 1549.52 257.791 1549.52 Q251.981 1549.52 248.902 1544.94 Q245.847 1540.33 245.847 1531.6 Q245.847 1522.85 248.902 1518.27 Q251.981 1513.66 257.791 1513.66 Z" fill="#9eb1be" fill-rule="nonzero" fill-opacity="1" /><path clip-path="url(#clip770)" d="M275.199 1533.96 L287.675 1533.96 L287.675 1537.76 L275.199 1537.76 L275.199 1533.96 Z" fill="#9eb1be" fill-rule="nonzero" fill-opacity="1" /><path clip-path="url(#clip770)" d="M305.06 1517.37 Q301.448 1517.37 299.62 1520.93 Q297.814 1524.47 297.814 1531.6 Q297.814 1538.71 299.62 1542.27 Q301.448 1545.82 305.06 1545.82 Q308.694 1545.82 310.499 1542.27 Q312.328 1538.71 312.328 1531.6 Q312.328 1524.47 310.499 1520.93 Q308.694 1517.37 305.06 1517.37 M305.06 1513.66 Q310.87 1513.66 313.925 1518.27 Q317.004 1522.85 317.004 1531.6 Q317.004 1540.33 313.925 1544.94 Q310.87 1549.52 305.06 1549.52 Q299.249 1549.52 296.171 1544.94 Q293.115 1540.33 293.115 1531.6 Q293.115 1522.85 296.171 1518.27 Q299.249 1513.66 305.06 1513.66 Z" fill="#9eb1be" fill-rule="nonzero" fill-opacity="1" /><path clip-path="url(#clip770)" d="M326.032 1544.91 L333.67 1544.91 L333.67 1518.55 L325.36 1520.21 L325.36 1515.95 L333.624 1514.29 L338.3 1514.29 L338.3 1544.91 L345.939 1544.91 L345.939 1548.85 L326.032 1548.85 L326.032 1544.91 Z" fill="#9eb1be" fill-rule="nonzero" fill-opacity="1" /><path clip-path="url(#clip770)" d="M352.629 1533.96 L365.105 1533.96 L365.105 1537.76 L352.629 1537.76 L352.629 1533.96 Z" fill="#9eb1be" fill-rule="nonzero" fill-opacity="1" /><path clip-path="url(#clip770)" d="M382.49 1517.37 Q378.879 1517.37 377.05 1520.93 Q375.244 1524.47 375.244 1531.6 Q375.244 1538.71 377.05 1542.27 Q378.879 1545.82 382.49 1545.82 Q386.124 1545.82 387.929 1542.27 Q389.758 1538.71 389.758 1531.6 Q389.758 1524.47 387.929 1520.93 Q386.124 1517.37 382.49 1517.37 M382.49 1513.66 Q388.3 1513.66 391.355 1518.27 Q394.434 1522.85 394.434 1531.6 Q394.434 1540.33 391.355 1544.94 Q388.3 1549.52 382.49 1549.52 Q376.68 1549.52 373.601 1544.94 Q370.545 1540.33 370.545 1531.6 Q370.545 1522.85 373.601 1518.27 Q376.68 1513.66 382.49 1513.66 Z" fill="#9eb1be" fill-rule="nonzero" fill-opacity="1" /><path clip-path="url(#clip770)" d="M403.462 1544.91 L411.101 1544.91 L411.101 1518.55 L402.79 1520.21 L402.79 1515.95 L411.054 1514.29 L415.73 1514.29 L415.73 1544.91 L423.369 1544.91 L423.369 1548.85 L403.462 1548.85 L403.462 1544.91 Z" fill="#9eb1be" fill-rule="nonzero" fill-opacity="1" /><path clip-path="url(#clip770)" d="M565.51 1544.91 L581.829 1544.91 L581.829 1548.85 L559.885 1548.85 L559.885 1544.91 Q562.547 1542.16 567.13 1537.53 Q571.737 1532.88 572.917 1531.53 Q575.163 1529.01 576.042 1527.27 Q576.945 1525.51 576.945 1523.82 Q576.945 1521.07 575.001 1519.33 Q573.079 1517.6 569.977 1517.6 Q567.778 1517.6 565.325 1518.36 Q562.894 1519.13 560.116 1520.68 L560.116 1515.95 Q562.94 1514.82 565.394 1514.24 Q567.848 1513.66 569.885 1513.66 Q575.255 1513.66 578.45 1516.35 Q581.644 1519.03 581.644 1523.52 Q581.644 1525.65 580.834 1527.57 Q580.047 1529.47 577.94 1532.07 Q577.362 1532.74 574.26 1535.95 Q571.158 1539.15 565.51 1544.91 Z" fill="#9eb1be" fill-rule="nonzero" fill-opacity="1" /><path clip-path="url(#clip770)" d="M601.644 1517.37 Q598.033 1517.37 596.204 1520.93 Q594.399 1524.47 594.399 1531.6 Q594.399 1538.71 596.204 1542.27 Q598.033 1545.82 601.644 1545.82 Q605.278 1545.82 607.084 1542.27 Q608.912 1538.71 608.912 1531.6 Q608.912 1524.47 607.084 1520.93 Q605.278 1517.37 601.644 1517.37 M601.644 1513.66 Q607.454 1513.66 610.51 1518.27 Q613.588 1522.85 613.588 1531.6 Q613.588 1540.33 610.51 1544.94 Q607.454 1549.52 601.644 1549.52 Q595.834 1549.52 592.755 1544.94 Q589.7 1540.33 589.7 1531.6 Q589.7 1522.85 592.755 1518.27 Q595.834 1513.66 601.644 1513.66 Z" fill="#9eb1be" fill-rule="nonzero" fill-opacity="1" /><path clip-path="url(#clip770)" d="M625.834 1544.91 L642.153 1544.91 L642.153 1548.85 L620.209 1548.85 L620.209 1544.91 Q622.871 1542.16 627.454 1537.53 Q632.06 1532.88 633.241 1531.53 Q635.486 1529.01 636.366 1527.27 Q637.269 1525.51 637.269 1523.82 Q637.269 1521.07 635.324 1519.33 Q633.403 1517.6 630.301 1517.6 Q628.102 1517.6 625.648 1518.36 Q623.218 1519.13 620.44 1520.68 L620.44 1515.95 Q623.264 1514.82 625.718 1514.24 Q628.172 1513.66 630.209 1513.66 Q635.579 1513.66 638.773 1516.35 Q641.968 1519.03 641.968 1523.52 Q641.968 1525.65 641.158 1527.57 Q640.371 1529.47 638.264 1532.07 Q637.685 1532.74 634.584 1535.95 Q631.482 1539.15 625.834 1544.91 Z" fill="#9eb1be" fill-rule="nonzero" fill-opacity="1" /><path clip-path="url(#clip770)" d="M661.968 1517.37 Q658.357 1517.37 656.528 1520.93 Q654.722 1524.47 654.722 1531.6 Q654.722 1538.71 656.528 1542.27 Q658.357 1545.82 661.968 1545.82 Q665.602 1545.82 667.408 1542.27 Q669.236 1538.71 669.236 1531.6 Q669.236 1524.47 667.408 1520.93 Q665.602 1517.37 661.968 1517.37 M661.968 1513.66 Q667.778 1513.66 670.833 1518.27 Q673.912 1522.85 673.912 1531.6 Q673.912 1540.33 670.833 1544.94 Q667.778 1549.52 661.968 1549.52 Q656.158 1549.52 653.079 1544.94 Q650.023 1540.33 650.023 1531.6 Q650.023 1522.85 653.079 1518.27 Q656.158 1513.66 661.968 1513.66 Z" fill="#9eb1be" fill-rule="nonzero" fill-opacity="1" /><path clip-path="url(#clip770)" d="M679.375 1533.96 L691.852 1533.96 L691.852 1537.76 L679.375 1537.76 L679.375 1533.96 Z" fill="#9eb1be" fill-rule="nonzero" fill-opacity="1" /><path clip-path="url(#clip770)" d="M709.236 1517.37 Q705.625 1517.37 703.796 1520.93 Q701.991 1524.47 701.991 1531.6 Q701.991 1538.71 703.796 1542.27 Q705.625 1545.82 709.236 1545.82 Q712.87 1545.82 714.676 1542.27 Q716.504 1538.71 716.504 1531.6 Q716.504 1524.47 714.676 1520.93 Q712.87 1517.37 709.236 1517.37 M709.236 1513.66 Q715.046 1513.66 718.102 1518.27 Q721.18 1522.85 721.18 1531.6 Q721.18 1540.33 718.102 1544.94 Q715.046 1549.52 709.236 1549.52 Q703.426 1549.52 700.347 1544.94 Q697.292 1540.33 697.292 1531.6 Q697.292 1522.85 700.347 1518.27 Q703.426 1513.66 709.236 1513.66 Z" fill="#9eb1be" fill-rule="nonzero" fill-opacity="1" /><path clip-path="url(#clip770)" d="M730.208 1544.91 L737.847 1544.91 L737.847 1518.55 L729.537 1520.21 L729.537 1515.95 L737.801 1514.29 L742.477 1514.29 L742.477 1544.91 L750.115 1544.91 L750.115 1548.85 L730.208 1548.85 L730.208 1544.91 Z" fill="#9eb1be" fill-rule="nonzero" fill-opacity="1" /><path clip-path="url(#clip770)" d="M756.805 1533.96 L769.282 1533.96 L769.282 1537.76 L756.805 1537.76 L756.805 1533.96 Z" fill="#9eb1be" fill-rule="nonzero" fill-opacity="1" /><path clip-path="url(#clip770)" d="M786.666 1517.37 Q783.055 1517.37 781.226 1520.93 Q779.421 1524.47 779.421 1531.6 Q779.421 1538.71 781.226 1542.27 Q783.055 1545.82 786.666 1545.82 Q790.3 1545.82 792.106 1542.27 Q793.935 1538.71 793.935 1531.6 Q793.935 1524.47 792.106 1520.93 Q790.3 1517.37 786.666 1517.37 M786.666 1513.66 Q792.476 1513.66 795.532 1518.27 Q798.611 1522.85 798.611 1531.6 Q798.611 1540.33 795.532 1544.94 Q792.476 1549.52 786.666 1549.52 Q780.856 1549.52 777.777 1544.94 Q774.722 1540.33 774.722 1531.6 Q774.722 1522.85 777.777 1518.27 Q780.856 1513.66 786.666 1513.66 Z" fill="#9eb1be" fill-rule="nonzero" fill-opacity="1" /><path clip-path="url(#clip770)" d="M810.856 1544.91 L827.175 1544.91 L827.175 1548.85 L805.231 1548.85 L805.231 1544.91 Q807.893 1542.16 812.476 1537.53 Q817.083 1532.88 818.263 1531.53 Q820.509 1529.01 821.388 1527.27 Q822.291 1525.51 822.291 1523.82 Q822.291 1521.07 820.347 1519.33 Q818.425 1517.6 815.323 1517.6 Q813.124 1517.6 810.671 1518.36 Q808.24 1519.13 805.462 1520.68 L805.462 1515.95 Q808.286 1514.82 810.74 1514.24 Q813.194 1513.66 815.231 1513.66 Q820.601 1513.66 823.796 1516.35 Q826.99 1519.03 826.99 1523.52 Q826.99 1525.65 826.18 1527.57 Q825.393 1529.47 823.286 1532.07 Q822.708 1532.74 819.606 1535.95 Q816.504 1539.15 810.856 1544.91 Z" fill="#9eb1be" fill-rule="nonzero" fill-opacity="1" /><path clip-path="url(#clip770)" d="M969.027 1544.91 L985.346 1544.91 L985.346 1548.85 L963.402 1548.85 L963.402 1544.91 Q966.064 1542.16 970.647 1537.53 Q975.253 1532.88 976.434 1531.53 Q978.679 1529.01 979.559 1527.27 Q980.462 1525.51 980.462 1523.82 Q980.462 1521.07 978.517 1519.33 Q976.596 1517.6 973.494 1517.6 Q971.295 1517.6 968.841 1518.36 Q966.411 1519.13 963.633 1520.68 L963.633 1515.95 Q966.457 1514.82 968.911 1514.24 Q971.365 1513.66 973.402 1513.66 Q978.772 1513.66 981.966 1516.35 Q985.161 1519.03 985.161 1523.52 Q985.161 1525.65 984.351 1527.57 Q983.564 1529.47 981.457 1532.07 Q980.878 1532.74 977.777 1535.95 Q974.675 1539.15 969.027 1544.91 Z" fill="#9eb1be" fill-rule="nonzero" fill-opacity="1" /><path clip-path="url(#clip770)" d="M1005.16 1517.37 Q1001.55 1517.37 999.721 1520.93 Q997.915 1524.47 997.915 1531.6 Q997.915 1538.71 999.721 1542.27 Q1001.55 1545.82 1005.16 1545.82 Q1008.79 1545.82 1010.6 1542.27 Q1012.43 1538.71 1012.43 1531.6 Q1012.43 1524.47 1010.6 1520.93 Q1008.79 1517.37 1005.16 1517.37 M1005.16 1513.66 Q1010.97 1513.66 1014.03 1518.27 Q1017.11 1522.85 1017.11 1531.6 Q1017.11 1540.33 1014.03 1544.94 Q1010.97 1549.52 1005.16 1549.52 Q999.351 1549.52 996.272 1544.94 Q993.216 1540.33 993.216 1531.6 Q993.216 1522.85 996.272 1518.27 Q999.351 1513.66 1005.16 1513.66 Z" fill="#9eb1be" fill-rule="nonzero" fill-opacity="1" /><path clip-path="url(#clip770)" d="M1029.35 1544.91 L1045.67 1544.91 L1045.67 1548.85 L1023.73 1548.85 L1023.73 1544.91 Q1026.39 1542.16 1030.97 1537.53 Q1035.58 1532.88 1036.76 1531.53 Q1039 1529.01 1039.88 1527.27 Q1040.79 1525.51 1040.79 1523.82 Q1040.79 1521.07 1038.84 1519.33 Q1036.92 1517.6 1033.82 1517.6 Q1031.62 1517.6 1029.17 1518.36 Q1026.73 1519.13 1023.96 1520.68 L1023.96 1515.95 Q1026.78 1514.82 1029.23 1514.24 Q1031.69 1513.66 1033.73 1513.66 Q1039.1 1513.66 1042.29 1516.35 Q1045.48 1519.03 1045.48 1523.52 Q1045.48 1525.65 1044.67 1527.57 Q1043.89 1529.47 1041.78 1532.07 Q1041.2 1532.74 1038.1 1535.95 Q1035 1539.15 1029.35 1544.91 Z" fill="#9eb1be" fill-rule="nonzero" fill-opacity="1" /><path clip-path="url(#clip770)" d="M1065.48 1517.37 Q1061.87 1517.37 1060.04 1520.93 Q1058.24 1524.47 1058.24 1531.6 Q1058.24 1538.71 1060.04 1542.27 Q1061.87 1545.82 1065.48 1545.82 Q1069.12 1545.82 1070.92 1542.27 Q1072.75 1538.71 1072.75 1531.6 Q1072.75 1524.47 1070.92 1520.93 Q1069.12 1517.37 1065.48 1517.37 M1065.48 1513.66 Q1071.29 1513.66 1074.35 1518.27 Q1077.43 1522.85 1077.43 1531.6 Q1077.43 1540.33 1074.35 1544.94 Q1071.29 1549.52 1065.48 1549.52 Q1059.67 1549.52 1056.6 1544.94 Q1053.54 1540.33 1053.54 1531.6 Q1053.54 1522.85 1056.6 1518.27 Q1059.67 1513.66 1065.48 1513.66 Z" fill="#9eb1be" fill-rule="nonzero" fill-opacity="1" /><path clip-path="url(#clip770)" d="M1082.89 1533.96 L1095.37 1533.96 L1095.37 1537.76 L1082.89 1537.76 L1082.89 1533.96 Z" fill="#9eb1be" fill-rule="nonzero" fill-opacity="1" /><path clip-path="url(#clip770)" d="M1112.75 1517.37 Q1109.14 1517.37 1107.31 1520.93 Q1105.51 1524.47 1105.51 1531.6 Q1105.51 1538.71 1107.31 1542.27 Q1109.14 1545.82 1112.75 1545.82 Q1116.39 1545.82 1118.19 1542.27 Q1120.02 1538.71 1120.02 1531.6 Q1120.02 1524.47 1118.19 1520.93 Q1116.39 1517.37 1112.75 1517.37 M1112.75 1513.66 Q1118.56 1513.66 1121.62 1518.27 Q1124.7 1522.85 1124.7 1531.6 Q1124.7 1540.33 1121.62 1544.94 Q1118.56 1549.52 1112.75 1549.52 Q1106.94 1549.52 1103.86 1544.94 Q1100.81 1540.33 1100.81 1531.6 Q1100.81 1522.85 1103.86 1518.27 Q1106.94 1513.66 1112.75 1513.66 Z" fill="#9eb1be" fill-rule="nonzero" fill-opacity="1" /><path clip-path="url(#clip770)" d="M1133.72 1544.91 L1141.36 1544.91 L1141.36 1518.55 L1133.05 1520.21 L1133.05 1515.95 L1141.32 1514.29 L1145.99 1514.29 L1145.99 1544.91 L1153.63 1544.91 L1153.63 1548.85 L1133.72 1548.85 L1133.72 1544.91 Z" fill="#9eb1be" fill-rule="nonzero" fill-opacity="1" /><path clip-path="url(#clip770)" d="M1160.32 1533.96 L1172.8 1533.96 L1172.8 1537.76 L1160.32 1537.76 L1160.32 1533.96 Z" fill="#9eb1be" fill-rule="nonzero" fill-opacity="1" /><path clip-path="url(#clip770)" d="M1190.18 1517.37 Q1186.57 1517.37 1184.74 1520.93 Q1182.94 1524.47 1182.94 1531.6 Q1182.94 1538.71 1184.74 1542.27 Q1186.57 1545.82 1190.18 1545.82 Q1193.82 1545.82 1195.62 1542.27 Q1197.45 1538.71 1197.45 1531.6 Q1197.45 1524.47 1195.62 1520.93 Q1193.82 1517.37 1190.18 1517.37 M1190.18 1513.66 Q1195.99 1513.66 1199.05 1518.27 Q1202.13 1522.85 1202.13 1531.6 Q1202.13 1540.33 1199.05 1544.94 Q1195.99 1549.52 1190.18 1549.52 Q1184.37 1549.52 1181.29 1544.94 Q1178.24 1540.33 1178.24 1531.6 Q1178.24 1522.85 1181.29 1518.27 Q1184.37 1513.66 1190.18 1513.66 Z" fill="#9eb1be" fill-rule="nonzero" fill-opacity="1" /><path clip-path="url(#clip770)" d="M1224.51 1530.21 Q1227.87 1530.93 1229.74 1533.2 Q1231.64 1535.47 1231.64 1538.8 Q1231.64 1543.92 1228.12 1546.72 Q1224.6 1549.52 1218.12 1549.52 Q1215.95 1549.52 1213.63 1549.08 Q1211.34 1548.66 1208.89 1547.81 L1208.89 1543.29 Q1210.83 1544.43 1213.15 1545.01 Q1215.46 1545.58 1217.98 1545.58 Q1222.38 1545.58 1224.67 1543.85 Q1226.99 1542.11 1226.99 1538.8 Q1226.99 1535.75 1224.84 1534.03 Q1222.71 1532.3 1218.89 1532.3 L1214.86 1532.3 L1214.86 1528.45 L1219.07 1528.45 Q1222.52 1528.45 1224.35 1527.09 Q1226.18 1525.7 1226.18 1523.11 Q1226.18 1520.45 1224.28 1519.03 Q1222.4 1517.6 1218.89 1517.6 Q1216.97 1517.6 1214.77 1518.01 Q1212.57 1518.43 1209.93 1519.31 L1209.93 1515.14 Q1212.59 1514.4 1214.9 1514.03 Q1217.24 1513.66 1219.3 1513.66 Q1224.63 1513.66 1227.73 1516.09 Q1230.83 1518.5 1230.83 1522.62 Q1230.83 1525.49 1229.19 1527.48 Q1227.54 1529.45 1224.51 1530.21 Z" fill="#9eb1be" fill-rule="nonzero" fill-opacity="1" /><path clip-path="url(#clip770)" d="M1372.45 1544.91 L1388.77 1544.91 L1388.77 1548.85 L1366.83 1548.85 L1366.83 1544.91 Q1369.49 1542.16 1374.07 1537.53 Q1378.68 1532.88 1379.86 1531.53 Q1382.1 1529.01 1382.98 1527.27 Q1383.89 1525.51 1383.89 1523.82 Q1383.89 1521.07 1381.94 1519.33 Q1380.02 1517.6 1376.92 1517.6 Q1374.72 1517.6 1372.27 1518.36 Q1369.84 1519.13 1367.06 1520.68 L1367.06 1515.95 Q1369.88 1514.82 1372.34 1514.24 Q1374.79 1513.66 1376.83 1513.66 Q1382.2 1513.66 1385.39 1516.35 Q1388.58 1519.03 1388.58 1523.52 Q1388.58 1525.65 1387.77 1527.57 Q1386.99 1529.47 1384.88 1532.07 Q1384.3 1532.74 1381.2 1535.95 Q1378.1 1539.15 1372.45 1544.91 Z" fill="#9eb1be" fill-rule="nonzero" fill-opacity="1" /><path clip-path="url(#clip770)" d="M1408.58 1517.37 Q1404.97 1517.37 1403.15 1520.93 Q1401.34 1524.47 1401.34 1531.6 Q1401.34 1538.71 1403.15 1542.27 Q1404.97 1545.82 1408.58 1545.82 Q1412.22 1545.82 1414.02 1542.27 Q1415.85 1538.71 1415.85 1531.6 Q1415.85 1524.47 1414.02 1520.93 Q1412.22 1517.37 1408.58 1517.37 M1408.58 1513.66 Q1414.4 1513.66 1417.45 1518.27 Q1420.53 1522.85 1420.53 1531.6 Q1420.53 1540.33 1417.45 1544.94 Q1414.4 1549.52 1408.58 1549.52 Q1402.77 1549.52 1399.7 1544.94 Q1396.64 1540.33 1396.64 1531.6 Q1396.64 1522.85 1399.7 1518.27 Q1402.77 1513.66 1408.58 1513.66 Z" fill="#9eb1be" fill-rule="nonzero" fill-opacity="1" /><path clip-path="url(#clip770)" d="M1432.77 1544.91 L1449.09 1544.91 L1449.09 1548.85 L1427.15 1548.85 L1427.15 1544.91 Q1429.81 1542.16 1434.39 1537.53 Q1439 1532.88 1440.18 1531.53 Q1442.43 1529.01 1443.31 1527.27 Q1444.21 1525.51 1444.21 1523.82 Q1444.21 1521.07 1442.27 1519.33 Q1440.34 1517.6 1437.24 1517.6 Q1435.04 1517.6 1432.59 1518.36 Q1430.16 1519.13 1427.38 1520.68 L1427.38 1515.95 Q1430.21 1514.82 1432.66 1514.24 Q1435.11 1513.66 1437.15 1513.66 Q1442.52 1513.66 1445.71 1516.35 Q1448.91 1519.03 1448.91 1523.52 Q1448.91 1525.65 1448.1 1527.57 Q1447.31 1529.47 1445.21 1532.07 Q1444.63 1532.74 1441.52 1535.95 Q1438.42 1539.15 1432.77 1544.91 Z" fill="#9eb1be" fill-rule="nonzero" fill-opacity="1" /><path clip-path="url(#clip770)" d="M1468.91 1517.37 Q1465.3 1517.37 1463.47 1520.93 Q1461.66 1524.47 1461.66 1531.6 Q1461.66 1538.71 1463.47 1542.27 Q1465.3 1545.82 1468.91 1545.82 Q1472.54 1545.82 1474.35 1542.27 Q1476.18 1538.71 1476.18 1531.6 Q1476.18 1524.47 1474.35 1520.93 Q1472.54 1517.37 1468.91 1517.37 M1468.91 1513.66 Q1474.72 1513.66 1477.77 1518.27 Q1480.85 1522.85 1480.85 1531.6 Q1480.85 1540.33 1477.77 1544.94 Q1474.72 1549.52 1468.91 1549.52 Q1463.1 1549.52 1460.02 1544.94 Q1456.96 1540.33 1456.96 1531.6 Q1456.96 1522.85 1460.02 1518.27 Q1463.1 1513.66 1468.91 1513.66 Z" fill="#9eb1be" fill-rule="nonzero" fill-opacity="1" /><path clip-path="url(#clip770)" d="M1486.32 1533.96 L1498.79 1533.96 L1498.79 1537.76 L1486.32 1537.76 L1486.32 1533.96 Z" fill="#9eb1be" fill-rule="nonzero" fill-opacity="1" /><path clip-path="url(#clip770)" d="M1516.18 1517.37 Q1512.57 1517.37 1510.74 1520.93 Q1508.93 1524.47 1508.93 1531.6 Q1508.93 1538.71 1510.74 1542.27 Q1512.57 1545.82 1516.18 1545.82 Q1519.81 1545.82 1521.62 1542.27 Q1523.45 1538.71 1523.45 1531.6 Q1523.45 1524.47 1521.62 1520.93 Q1519.81 1517.37 1516.18 1517.37 M1516.18 1513.66 Q1521.99 1513.66 1525.04 1518.27 Q1528.12 1522.85 1528.12 1531.6 Q1528.12 1540.33 1525.04 1544.94 Q1521.99 1549.52 1516.18 1549.52 Q1510.37 1549.52 1507.29 1544.94 Q1504.23 1540.33 1504.23 1531.6 Q1504.23 1522.85 1507.29 1518.27 Q1510.37 1513.66 1516.18 1513.66 Z" fill="#9eb1be" fill-rule="nonzero" fill-opacity="1" /><path clip-path="url(#clip770)" d="M1537.15 1544.91 L1544.79 1544.91 L1544.79 1518.55 L1536.48 1520.21 L1536.48 1515.95 L1544.74 1514.29 L1549.42 1514.29 L1549.42 1544.91 L1557.06 1544.91 L1557.06 1548.85 L1537.15 1548.85 L1537.15 1544.91 Z" fill="#9eb1be" fill-rule="nonzero" fill-opacity="1" /><path clip-path="url(#clip770)" d="M1563.75 1533.96 L1576.22 1533.96 L1576.22 1537.76 L1563.75 1537.76 L1563.75 1533.96 Z" fill="#9eb1be" fill-rule="nonzero" fill-opacity="1" /><path clip-path="url(#clip770)" d="M1593.61 1517.37 Q1590 1517.37 1588.17 1520.93 Q1586.36 1524.47 1586.36 1531.6 Q1586.36 1538.71 1588.17 1542.27 Q1590 1545.82 1593.61 1545.82 Q1597.24 1545.82 1599.05 1542.27 Q1600.88 1538.71 1600.88 1531.6 Q1600.88 1524.47 1599.05 1520.93 Q1597.24 1517.37 1593.61 1517.37 M1593.61 1513.66 Q1599.42 1513.66 1602.47 1518.27 Q1605.55 1522.85 1605.55 1531.6 Q1605.55 1540.33 1602.47 1544.94 Q1599.42 1549.52 1593.61 1549.52 Q1587.8 1549.52 1584.72 1544.94 Q1581.66 1540.33 1581.66 1531.6 Q1581.66 1522.85 1584.72 1518.27 Q1587.8 1513.66 1593.61 1513.66 Z" fill="#9eb1be" fill-rule="nonzero" fill-opacity="1" /><path clip-path="url(#clip770)" d="M1626.62 1518.36 L1614.81 1536.81 L1626.62 1536.81 L1626.62 1518.36 M1625.39 1514.29 L1631.27 1514.29 L1631.27 1536.81 L1636.2 1536.81 L1636.2 1540.7 L1631.27 1540.7 L1631.27 1548.85 L1626.62 1548.85 L1626.62 1540.7 L1611.01 1540.7 L1611.01 1536.19 L1625.39 1514.29 Z" fill="#9eb1be" fill-rule="nonzero" fill-opacity="1" /><path clip-path="url(#clip770)" d="M1777.18 1544.91 L1793.5 1544.91 L1793.5 1548.85 L1771.56 1548.85 L1771.56 1544.91 Q1774.22 1542.16 1778.8 1537.53 Q1783.41 1532.88 1784.59 1531.53 Q1786.84 1529.01 1787.72 1527.27 Q1788.62 1525.51 1788.62 1523.82 Q1788.62 1521.07 1786.67 1519.33 Q1784.75 1517.6 1781.65 1517.6 Q1779.45 1517.6 1777 1518.36 Q1774.57 1519.13 1771.79 1520.68 L1771.79 1515.95 Q1774.61 1514.82 1777.07 1514.24 Q1779.52 1513.66 1781.56 1513.66 Q1786.93 1513.66 1790.12 1516.35 Q1793.32 1519.03 1793.32 1523.52 Q1793.32 1525.65 1792.51 1527.57 Q1791.72 1529.47 1789.61 1532.07 Q1789.03 1532.74 1785.93 1535.95 Q1782.83 1539.15 1777.18 1544.91 Z" fill="#9eb1be" fill-rule="nonzero" fill-opacity="1" /><path clip-path="url(#clip770)" d="M1813.32 1517.37 Q1809.71 1517.37 1807.88 1520.93 Q1806.07 1524.47 1806.07 1531.6 Q1806.07 1538.71 1807.88 1542.27 Q1809.71 1545.82 1813.32 1545.82 Q1816.95 1545.82 1818.76 1542.27 Q1820.59 1538.71 1820.59 1531.6 Q1820.59 1524.47 1818.76 1520.93 Q1816.95 1517.37 1813.32 1517.37 M1813.32 1513.66 Q1819.13 1513.66 1822.18 1518.27 Q1825.26 1522.85 1825.26 1531.6 Q1825.26 1540.33 1822.18 1544.94 Q1819.13 1549.52 1813.32 1549.52 Q1807.51 1549.52 1804.43 1544.94 Q1801.37 1540.33 1801.37 1531.6 Q1801.37 1522.85 1804.43 1518.27 Q1807.51 1513.66 1813.32 1513.66 Z" fill="#9eb1be" fill-rule="nonzero" fill-opacity="1" /><path clip-path="url(#clip770)" d="M1837.51 1544.91 L1853.83 1544.91 L1853.83 1548.85 L1831.88 1548.85 L1831.88 1544.91 Q1834.54 1542.16 1839.13 1537.53 Q1843.73 1532.88 1844.91 1531.53 Q1847.16 1529.01 1848.04 1527.27 Q1848.94 1525.51 1848.94 1523.82 Q1848.94 1521.07 1847 1519.33 Q1845.08 1517.6 1841.97 1517.6 Q1839.78 1517.6 1837.32 1518.36 Q1834.89 1519.13 1832.11 1520.68 L1832.11 1515.95 Q1834.94 1514.82 1837.39 1514.24 Q1839.84 1513.66 1841.88 1513.66 Q1847.25 1513.66 1850.45 1516.35 Q1853.64 1519.03 1853.64 1523.52 Q1853.64 1525.65 1852.83 1527.57 Q1852.04 1529.47 1849.94 1532.07 Q1849.36 1532.74 1846.26 1535.95 Q1843.15 1539.15 1837.51 1544.91 Z" fill="#9eb1be" fill-rule="nonzero" fill-opacity="1" /><path clip-path="url(#clip770)" d="M1873.64 1517.37 Q1870.03 1517.37 1868.2 1520.93 Q1866.4 1524.47 1866.4 1531.6 Q1866.4 1538.71 1868.2 1542.27 Q1870.03 1545.82 1873.64 1545.82 Q1877.27 1545.82 1879.08 1542.27 Q1880.91 1538.71 1880.91 1531.6 Q1880.91 1524.47 1879.08 1520.93 Q1877.27 1517.37 1873.64 1517.37 M1873.64 1513.66 Q1879.45 1513.66 1882.51 1518.27 Q1885.59 1522.85 1885.59 1531.6 Q1885.59 1540.33 1882.51 1544.94 Q1879.45 1549.52 1873.64 1549.52 Q1867.83 1549.52 1864.75 1544.94 Q1861.7 1540.33 1861.7 1531.6 Q1861.7 1522.85 1864.75 1518.27 Q1867.83 1513.66 1873.64 1513.66 Z" fill="#9eb1be" fill-rule="nonzero" fill-opacity="1" /><path clip-path="url(#clip770)" d="M1891.05 1533.96 L1903.52 1533.96 L1903.52 1537.76 L1891.05 1537.76 L1891.05 1533.96 Z" fill="#9eb1be" fill-rule="nonzero" fill-opacity="1" /><path clip-path="url(#clip770)" d="M1920.91 1517.37 Q1917.3 1517.37 1915.47 1520.93 Q1913.66 1524.47 1913.66 1531.6 Q1913.66 1538.71 1915.47 1542.27 Q1917.3 1545.82 1920.91 1545.82 Q1924.54 1545.82 1926.35 1542.27 Q1928.18 1538.71 1928.18 1531.6 Q1928.18 1524.47 1926.35 1520.93 Q1924.54 1517.37 1920.91 1517.37 M1920.91 1513.66 Q1926.72 1513.66 1929.77 1518.27 Q1932.85 1522.85 1932.85 1531.6 Q1932.85 1540.33 1929.77 1544.94 Q1926.72 1549.52 1920.91 1549.52 Q1915.1 1549.52 1912.02 1544.94 Q1908.96 1540.33 1908.96 1531.6 Q1908.96 1522.85 1912.02 1518.27 Q1915.1 1513.66 1920.91 1513.66 Z" fill="#9eb1be" fill-rule="nonzero" fill-opacity="1" /><path clip-path="url(#clip770)" d="M1941.88 1544.91 L1949.52 1544.91 L1949.52 1518.55 L1941.21 1520.21 L1941.21 1515.95 L1949.47 1514.29 L1954.15 1514.29 L1954.15 1544.91 L1961.79 1544.91 L1961.79 1548.85 L1941.88 1548.85 L1941.88 1544.91 Z" fill="#9eb1be" fill-rule="nonzero" fill-opacity="1" /><path clip-path="url(#clip770)" d="M1968.48 1533.96 L1980.95 1533.96 L1980.95 1537.76 L1968.48 1537.76 L1968.48 1533.96 Z" fill="#9eb1be" fill-rule="nonzero" fill-opacity="1" /><path clip-path="url(#clip770)" d="M1998.34 1517.37 Q1994.73 1517.37 1992.9 1520.93 Q1991.09 1524.47 1991.09 1531.6 Q1991.09 1538.71 1992.9 1542.27 Q1994.73 1545.82 1998.34 1545.82 Q2001.97 1545.82 2003.78 1542.27 Q2005.61 1538.71 2005.61 1531.6 Q2005.61 1524.47 2003.78 1520.93 Q2001.97 1517.37 1998.34 1517.37 M1998.34 1513.66 Q2004.15 1513.66 2007.2 1518.27 Q2010.28 1522.85 2010.28 1531.6 Q2010.28 1540.33 2007.2 1544.94 Q2004.15 1549.52 1998.34 1549.52 Q1992.53 1549.52 1989.45 1544.94 Q1986.39 1540.33 1986.39 1531.6 Q1986.39 1522.85 1989.45 1518.27 Q1992.53 1513.66 1998.34 1513.66 Z" fill="#9eb1be" fill-rule="nonzero" fill-opacity="1" /><path clip-path="url(#clip770)" d="M2018.55 1514.29 L2036.9 1514.29 L2036.9 1518.22 L2022.83 1518.22 L2022.83 1526.7 Q2023.85 1526.35 2024.87 1526.19 Q2025.89 1526 2026.9 1526 Q2032.69 1526 2036.07 1529.17 Q2039.45 1532.34 2039.45 1537.76 Q2039.45 1543.34 2035.98 1546.44 Q2032.51 1549.52 2026.19 1549.52 Q2024.01 1549.52 2021.74 1549.15 Q2019.5 1548.78 2017.09 1548.04 L2017.09 1543.34 Q2019.17 1544.47 2021.39 1545.03 Q2023.62 1545.58 2026.09 1545.58 Q2030.1 1545.58 2032.44 1543.48 Q2034.77 1541.37 2034.77 1537.76 Q2034.77 1534.15 2032.44 1532.04 Q2030.1 1529.94 2026.09 1529.94 Q2024.22 1529.94 2022.34 1530.35 Q2020.49 1530.77 2018.55 1531.65 L2018.55 1514.29 Z" fill="#9eb1be" fill-rule="nonzero" fill-opacity="1" /><path clip-path="url(#clip770)" d="M2180.6 1544.91 L2196.91 1544.91 L2196.91 1548.85 L2174.97 1548.85 L2174.97 1544.91 Q2177.63 1542.16 2182.22 1537.53 Q2186.82 1532.88 2188 1531.53 Q2190.25 1529.01 2191.13 1527.27 Q2192.03 1525.51 2192.03 1523.82 Q2192.03 1521.07 2190.09 1519.33 Q2188.16 1517.6 2185.06 1517.6 Q2182.86 1517.6 2180.41 1518.36 Q2177.98 1519.13 2175.2 1520.68 L2175.2 1515.95 Q2178.03 1514.82 2180.48 1514.24 Q2182.93 1513.66 2184.97 1513.66 Q2190.34 1513.66 2193.54 1516.35 Q2196.73 1519.03 2196.73 1523.52 Q2196.73 1525.65 2195.92 1527.57 Q2195.13 1529.47 2193.03 1532.07 Q2192.45 1532.74 2189.35 1535.95 Q2186.24 1539.15 2180.6 1544.91 Z" fill="#9eb1be" fill-rule="nonzero" fill-opacity="1" /><path clip-path="url(#clip770)" d="M2216.73 1517.37 Q2213.12 1517.37 2211.29 1520.93 Q2209.48 1524.47 2209.48 1531.6 Q2209.48 1538.71 2211.29 1542.27 Q2213.12 1545.82 2216.73 1545.82 Q2220.36 1545.82 2222.17 1542.27 Q2224 1538.71 2224 1531.6 Q2224 1524.47 2222.17 1520.93 Q2220.36 1517.37 2216.73 1517.37 M2216.73 1513.66 Q2222.54 1513.66 2225.6 1518.27 Q2228.67 1522.85 2228.67 1531.6 Q2228.67 1540.33 2225.6 1544.94 Q2222.54 1549.52 2216.73 1549.52 Q2210.92 1549.52 2207.84 1544.94 Q2204.79 1540.33 2204.79 1531.6 Q2204.79 1522.85 2207.84 1518.27 Q2210.92 1513.66 2216.73 1513.66 Z" fill="#9eb1be" fill-rule="nonzero" fill-opacity="1" /><path clip-path="url(#clip770)" d="M2240.92 1544.91 L2257.24 1544.91 L2257.24 1548.85 L2235.29 1548.85 L2235.29 1544.91 Q2237.96 1542.16 2242.54 1537.53 Q2247.15 1532.88 2248.33 1531.53 Q2250.57 1529.01 2251.45 1527.27 Q2252.35 1525.51 2252.35 1523.82 Q2252.35 1521.07 2250.41 1519.33 Q2248.49 1517.6 2245.39 1517.6 Q2243.19 1517.6 2240.73 1518.36 Q2238.3 1519.13 2235.53 1520.68 L2235.53 1515.95 Q2238.35 1514.82 2240.8 1514.24 Q2243.26 1513.66 2245.29 1513.66 Q2250.66 1513.66 2253.86 1516.35 Q2257.05 1519.03 2257.05 1523.52 Q2257.05 1525.65 2256.24 1527.57 Q2255.46 1529.47 2253.35 1532.07 Q2252.77 1532.74 2249.67 1535.95 Q2246.57 1539.15 2240.92 1544.91 Z" fill="#9eb1be" fill-rule="nonzero" fill-opacity="1" /><path clip-path="url(#clip770)" d="M2277.05 1517.37 Q2273.44 1517.37 2271.61 1520.93 Q2269.81 1524.47 2269.81 1531.6 Q2269.81 1538.71 2271.61 1542.27 Q2273.44 1545.82 2277.05 1545.82 Q2280.69 1545.82 2282.49 1542.27 Q2284.32 1538.71 2284.32 1531.6 Q2284.32 1524.47 2282.49 1520.93 Q2280.69 1517.37 2277.05 1517.37 M2277.05 1513.66 Q2282.86 1513.66 2285.92 1518.27 Q2289 1522.85 2289 1531.6 Q2289 1540.33 2285.92 1544.94 Q2282.86 1549.52 2277.05 1549.52 Q2271.24 1549.52 2268.16 1544.94 Q2265.11 1540.33 2265.11 1531.6 Q2265.11 1522.85 2268.16 1518.27 Q2271.24 1513.66 2277.05 1513.66 Z" fill="#9eb1be" fill-rule="nonzero" fill-opacity="1" /><path clip-path="url(#clip770)" d="M2294.46 1533.96 L2306.94 1533.96 L2306.94 1537.76 L2294.46 1537.76 L2294.46 1533.96 Z" fill="#9eb1be" fill-rule="nonzero" fill-opacity="1" /><path clip-path="url(#clip770)" d="M2324.32 1517.37 Q2320.71 1517.37 2318.88 1520.93 Q2317.08 1524.47 2317.08 1531.6 Q2317.08 1538.71 2318.88 1542.27 Q2320.71 1545.82 2324.32 1545.82 Q2327.96 1545.82 2329.76 1542.27 Q2331.59 1538.71 2331.59 1531.6 Q2331.59 1524.47 2329.76 1520.93 Q2327.96 1517.37 2324.32 1517.37 M2324.32 1513.66 Q2330.13 1513.66 2333.19 1518.27 Q2336.27 1522.85 2336.27 1531.6 Q2336.27 1540.33 2333.19 1544.94 Q2330.13 1549.52 2324.32 1549.52 Q2318.51 1549.52 2315.43 1544.94 Q2312.38 1540.33 2312.38 1531.6 Q2312.38 1522.85 2315.43 1518.27 Q2318.51 1513.66 2324.32 1513.66 Z" fill="#9eb1be" fill-rule="nonzero" fill-opacity="1" /><path clip-path="url(#clip770)" d="M2345.29 1544.91 L2352.93 1544.91 L2352.93 1518.55 L2344.62 1520.21 L2344.62 1515.95 L2352.89 1514.29 L2357.56 1514.29 L2357.56 1544.91 L2365.2 1544.91 L2365.2 1548.85 L2345.29 1548.85 L2345.29 1544.91 Z" fill="#9eb1be" fill-rule="nonzero" fill-opacity="1" /><path clip-path="url(#clip770)" d="M2371.89 1533.96 L2384.37 1533.96 L2384.37 1537.76 L2371.89 1537.76 L2371.89 1533.96 Z" fill="#9eb1be" fill-rule="nonzero" fill-opacity="1" /><path clip-path="url(#clip770)" d="M2401.75 1517.37 Q2398.14 1517.37 2396.31 1520.93 Q2394.51 1524.47 2394.51 1531.6 Q2394.51 1538.71 2396.31 1542.27 Q2398.14 1545.82 2401.75 1545.82 Q2405.39 1545.82 2407.19 1542.27 Q2409.02 1538.71 2409.02 1531.6 Q2409.02 1524.47 2407.19 1520.93 Q2405.39 1517.37 2401.75 1517.37 M2401.75 1513.66 Q2407.56 1513.66 2410.62 1518.27 Q2413.7 1522.85 2413.7 1531.6 Q2413.7 1540.33 2410.62 1544.94 Q2407.56 1549.52 2401.75 1549.52 Q2395.94 1549.52 2392.86 1544.94 Q2389.81 1540.33 2389.81 1531.6 Q2389.81 1522.85 2392.86 1518.27 Q2395.94 1513.66 2401.75 1513.66 Z" fill="#9eb1be" fill-rule="nonzero" fill-opacity="1" /><path clip-path="url(#clip770)" d="M2432.49 1529.7 Q2429.34 1529.7 2427.49 1531.86 Q2425.66 1534.01 2425.66 1537.76 Q2425.66 1541.49 2427.49 1543.66 Q2429.34 1545.82 2432.49 1545.82 Q2435.64 1545.82 2437.47 1543.66 Q2439.32 1541.49 2439.32 1537.76 Q2439.32 1534.01 2437.47 1531.86 Q2435.64 1529.7 2432.49 1529.7 M2441.77 1515.05 L2441.77 1519.31 Q2440.02 1518.48 2438.21 1518.04 Q2436.43 1517.6 2434.67 1517.6 Q2430.04 1517.6 2427.58 1520.72 Q2425.15 1523.85 2424.81 1530.17 Q2426.17 1528.15 2428.23 1527.09 Q2430.29 1526 2432.77 1526 Q2437.98 1526 2440.99 1529.17 Q2444.02 1532.32 2444.02 1537.76 Q2444.02 1543.08 2440.87 1546.3 Q2437.72 1549.52 2432.49 1549.52 Q2426.5 1549.52 2423.33 1544.94 Q2420.15 1540.33 2420.15 1531.6 Q2420.15 1523.41 2424.04 1518.55 Q2427.93 1513.66 2434.48 1513.66 Q2436.24 1513.66 2438.02 1514.01 Q2439.83 1514.36 2441.77 1515.05 Z" fill="#9eb1be" fill-rule="nonzero" fill-opacity="1" /><polyline clip-path="url(#clip770)" style="stroke:#adb2b7; stroke-linecap:round; stroke-linejoin:round; stroke-width:4; stroke-opacity:1; fill:none" points="229.445,1486.45 229.445,123.472 "/>
<polyline clip-path="url(#clip770)" style="stroke:#adb2b7; stroke-linecap:round; stroke-linejoin:round; stroke-width:4; stroke-opacity:1; fill:none" points="229.445,1447.2 248.343,1447.2 "/>
<polyline clip-path="url(#clip770)" style="stroke:#adb2b7; stroke-linecap:round; stroke-linejoin:round; stroke-width:4; stroke-opacity:1; fill:none" points="229.445,1213.09 248.343,1213.09 "/>
<polyline clip-path="url(#clip770)" style="stroke:#adb2b7; stroke-linecap:round; stroke-linejoin:round; stroke-width:4; stroke-opacity:1; fill:none" points="229.445,978.974 248.343,978.974 "/>
<polyline clip-path="url(#clip770)" style="stroke:#adb2b7; stroke-linecap:round; stroke-linejoin:round; stroke-width:4; stroke-opacity:1; fill:none" points="229.445,744.859 248.343,744.859 "/>
<polyline clip-path="url(#clip770)" style="stroke:#adb2b7; stroke-linecap:round; stroke-linejoin:round; stroke-width:4; stroke-opacity:1; fill:none" points="229.445,510.745 248.343,510.745 "/>
<polyline clip-path="url(#clip770)" style="stroke:#adb2b7; stroke-linecap:round; stroke-linejoin:round; stroke-width:4; stroke-opacity:1; fill:none" points="229.445,276.63 248.343,276.63 "/>
<path clip-path="url(#clip770)" d="M91.0151 1448.07 Q87.6817 1448.07 85.7605 1449.85 Q83.8623 1451.64 83.8623 1454.76 Q83.8623 1457.89 85.7605 1459.67 Q87.6817 1461.45 91.0151 1461.45 Q94.3484 1461.45 96.2697 1459.67 Q98.1909 1457.86 98.1909 1454.76 Q98.1909 1451.64 96.2697 1449.85 Q94.3715 1448.07 91.0151 1448.07 M86.3392 1446.08 Q83.3299 1445.34 81.6401 1443.28 Q79.9735 1441.22 79.9735 1438.26 Q79.9735 1434.11 82.9133 1431.71 Q85.8762 1429.3 91.0151 1429.3 Q96.1771 1429.3 99.1169 1431.71 Q102.057 1434.11 102.057 1438.26 Q102.057 1441.22 100.367 1443.28 Q98.7002 1445.34 95.7141 1446.08 Q99.0937 1446.87 100.969 1449.16 Q102.867 1451.45 102.867 1454.76 Q102.867 1459.78 99.7882 1462.47 Q96.7326 1465.16 91.0151 1465.16 Q85.2975 1465.16 82.2188 1462.47 Q79.1633 1459.78 79.1633 1454.76 Q79.1633 1451.45 81.0614 1449.16 Q82.9595 1446.87 86.3392 1446.08 M84.6262 1438.7 Q84.6262 1441.38 86.2929 1442.89 Q87.9827 1444.39 91.0151 1444.39 Q94.0243 1444.39 95.7141 1442.89 Q97.4271 1441.38 97.4271 1438.7 Q97.4271 1436.01 95.7141 1434.51 Q94.0243 1433 91.0151 1433 Q87.9827 1433 86.2929 1434.51 Q84.6262 1436.01 84.6262 1438.7 Z" fill="#9eb1be" fill-rule="nonzero" fill-opacity="1" /><path clip-path="url(#clip770)" d="M121.177 1433 Q117.566 1433 115.737 1436.57 Q113.932 1440.11 113.932 1447.24 Q113.932 1454.34 115.737 1457.91 Q117.566 1461.45 121.177 1461.45 Q124.811 1461.45 126.617 1457.91 Q128.445 1454.34 128.445 1447.24 Q128.445 1440.11 126.617 1436.57 Q124.811 1433 121.177 1433 M121.177 1429.3 Q126.987 1429.3 130.043 1433.91 Q133.121 1438.49 133.121 1447.24 Q133.121 1455.97 130.043 1460.57 Q126.987 1465.16 121.177 1465.16 Q115.367 1465.16 112.288 1460.57 Q109.233 1455.97 109.233 1447.24 Q109.233 1438.49 112.288 1433.91 Q115.367 1429.3 121.177 1429.3 Z" fill="#9eb1be" fill-rule="nonzero" fill-opacity="1" /><path clip-path="url(#clip770)" d="M151.339 1433 Q147.728 1433 145.899 1436.57 Q144.093 1440.11 144.093 1447.24 Q144.093 1454.34 145.899 1457.91 Q147.728 1461.45 151.339 1461.45 Q154.973 1461.45 156.779 1457.91 Q158.607 1454.34 158.607 1447.24 Q158.607 1440.11 156.779 1436.57 Q154.973 1433 151.339 1433 M151.339 1429.3 Q157.149 1429.3 160.205 1433.91 Q163.283 1438.49 163.283 1447.24 Q163.283 1455.97 160.205 1460.57 Q157.149 1465.16 151.339 1465.16 Q145.529 1465.16 142.45 1460.57 Q139.394 1455.97 139.394 1447.24 Q139.394 1438.49 142.45 1433.91 Q145.529 1429.3 151.339 1429.3 Z" fill="#9eb1be" fill-rule="nonzero" fill-opacity="1" /><path clip-path="url(#clip770)" d="M181.501 1433 Q177.89 1433 176.061 1436.57 Q174.255 1440.11 174.255 1447.24 Q174.255 1454.34 176.061 1457.91 Q177.89 1461.45 181.501 1461.45 Q185.135 1461.45 186.94 1457.91 Q188.769 1454.34 188.769 1447.24 Q188.769 1440.11 186.94 1436.57 Q185.135 1433 181.501 1433 M181.501 1429.3 Q187.311 1429.3 190.366 1433.91 Q193.445 1438.49 193.445 1447.24 Q193.445 1455.97 190.366 1460.57 Q187.311 1465.16 181.501 1465.16 Q175.691 1465.16 172.612 1460.57 Q169.556 1455.97 169.556 1447.24 Q169.556 1438.49 172.612 1433.91 Q175.691 1429.3 181.501 1429.3 Z" fill="#9eb1be" fill-rule="nonzero" fill-opacity="1" /><path clip-path="url(#clip770)" d="M91.0151 1213.96 Q87.6817 1213.96 85.7605 1215.74 Q83.8623 1217.52 83.8623 1220.65 Q83.8623 1223.77 85.7605 1225.55 Q87.6817 1227.34 91.0151 1227.34 Q94.3484 1227.34 96.2697 1225.55 Q98.1909 1223.75 98.1909 1220.65 Q98.1909 1217.52 96.2697 1215.74 Q94.3715 1213.96 91.0151 1213.96 M86.3392 1211.97 Q83.3299 1211.23 81.6401 1209.17 Q79.9735 1207.11 79.9735 1204.14 Q79.9735 1200 82.9133 1197.59 Q85.8762 1195.18 91.0151 1195.18 Q96.1771 1195.18 99.1169 1197.59 Q102.057 1200 102.057 1204.14 Q102.057 1207.11 100.367 1209.17 Q98.7002 1211.23 95.7141 1211.97 Q99.0937 1212.75 100.969 1215.04 Q102.867 1217.34 102.867 1220.65 Q102.867 1225.67 99.7882 1228.36 Q96.7326 1231.04 91.0151 1231.04 Q85.2975 1231.04 82.2188 1228.36 Q79.1633 1225.67 79.1633 1220.65 Q79.1633 1217.34 81.0614 1215.04 Q82.9595 1212.75 86.3392 1211.97 M84.6262 1204.58 Q84.6262 1207.27 86.2929 1208.77 Q87.9827 1210.28 91.0151 1210.28 Q94.0243 1210.28 95.7141 1208.77 Q97.4271 1207.27 97.4271 1204.58 Q97.4271 1201.9 95.7141 1200.39 Q94.0243 1198.89 91.0151 1198.89 Q87.9827 1198.89 86.2929 1200.39 Q84.6262 1201.9 84.6262 1204.58 Z" fill="#9eb1be" fill-rule="nonzero" fill-opacity="1" /><path clip-path="url(#clip770)" d="M111.223 1195.81 L129.58 1195.81 L129.58 1199.74 L115.506 1199.74 L115.506 1208.22 Q116.524 1207.87 117.543 1207.71 Q118.561 1207.52 119.58 1207.52 Q125.367 1207.52 128.746 1210.69 Q132.126 1213.86 132.126 1219.28 Q132.126 1224.86 128.654 1227.96 Q125.182 1231.04 118.862 1231.04 Q116.686 1231.04 114.418 1230.67 Q112.172 1230.3 109.765 1229.56 L109.765 1224.86 Q111.848 1225.99 114.07 1226.55 Q116.293 1227.11 118.77 1227.11 Q122.774 1227.11 125.112 1225 Q127.45 1222.89 127.45 1219.28 Q127.45 1215.67 125.112 1213.56 Q122.774 1211.46 118.77 1211.46 Q116.895 1211.46 115.02 1211.87 Q113.168 1212.29 111.223 1213.17 L111.223 1195.81 Z" fill="#9eb1be" fill-rule="nonzero" fill-opacity="1" /><path clip-path="url(#clip770)" d="M151.339 1198.89 Q147.728 1198.89 145.899 1202.45 Q144.093 1205.99 144.093 1213.12 Q144.093 1220.23 145.899 1223.79 Q147.728 1227.34 151.339 1227.34 Q154.973 1227.34 156.779 1223.79 Q158.607 1220.23 158.607 1213.12 Q158.607 1205.99 156.779 1202.45 Q154.973 1198.89 151.339 1198.89 M151.339 1195.18 Q157.149 1195.18 160.205 1199.79 Q163.283 1204.37 163.283 1213.12 Q163.283 1221.85 160.205 1226.46 Q157.149 1231.04 151.339 1231.04 Q145.529 1231.04 142.45 1226.46 Q139.394 1221.85 139.394 1213.12 Q139.394 1204.37 142.45 1199.79 Q145.529 1195.18 151.339 1195.18 Z" fill="#9eb1be" fill-rule="nonzero" fill-opacity="1" /><path clip-path="url(#clip770)" d="M181.501 1198.89 Q177.89 1198.89 176.061 1202.45 Q174.255 1205.99 174.255 1213.12 Q174.255 1220.23 176.061 1223.79 Q177.89 1227.34 181.501 1227.34 Q185.135 1227.34 186.94 1223.79 Q188.769 1220.23 188.769 1213.12 Q188.769 1205.99 186.94 1202.45 Q185.135 1198.89 181.501 1198.89 M181.501 1195.18 Q187.311 1195.18 190.366 1199.79 Q193.445 1204.37 193.445 1213.12 Q193.445 1221.85 190.366 1226.46 Q187.311 1231.04 181.501 1231.04 Q175.691 1231.04 172.612 1226.46 Q169.556 1221.85 169.556 1213.12 Q169.556 1204.37 172.612 1199.79 Q175.691 1195.18 181.501 1195.18 Z" fill="#9eb1be" fill-rule="nonzero" fill-opacity="1" /><path clip-path="url(#clip770)" d="M81.154 995.537 L81.154 991.277 Q82.9133 992.111 84.7188 992.55 Q86.5243 992.99 88.2604 992.99 Q92.89 992.99 95.3206 989.888 Q97.7743 986.763 98.1215 980.421 Q96.7789 982.412 94.7187 983.476 Q92.6586 984.541 90.1586 984.541 Q84.9734 984.541 81.941 981.416 Q78.9318 978.268 78.9318 972.828 Q78.9318 967.504 82.0799 964.287 Q85.2281 961.069 90.4595 961.069 Q96.4548 961.069 99.603 965.676 Q102.774 970.259 102.774 979.009 Q102.774 987.18 98.8854 992.064 Q95.0197 996.925 88.4688 996.925 Q86.7095 996.925 84.904 996.578 Q83.0984 996.231 81.154 995.537 M90.4595 980.884 Q93.6076 980.884 95.4363 978.731 Q97.2882 976.578 97.2882 972.828 Q97.2882 969.102 95.4363 966.949 Q93.6076 964.773 90.4595 964.773 Q87.3114 964.773 85.4595 966.949 Q83.6308 969.102 83.6308 972.828 Q83.6308 976.578 85.4595 978.731 Q87.3114 980.884 90.4595 980.884 Z" fill="#9eb1be" fill-rule="nonzero" fill-opacity="1" /><path clip-path="url(#clip770)" d="M121.177 964.773 Q117.566 964.773 115.737 968.338 Q113.932 971.879 113.932 979.009 Q113.932 986.115 115.737 989.68 Q117.566 993.222 121.177 993.222 Q124.811 993.222 126.617 989.68 Q128.445 986.115 128.445 979.009 Q128.445 971.879 126.617 968.338 Q124.811 964.773 121.177 964.773 M121.177 961.069 Q126.987 961.069 130.043 965.676 Q133.121 970.259 133.121 979.009 Q133.121 987.736 130.043 992.342 Q126.987 996.925 121.177 996.925 Q115.367 996.925 112.288 992.342 Q109.233 987.736 109.233 979.009 Q109.233 970.259 112.288 965.676 Q115.367 961.069 121.177 961.069 Z" fill="#9eb1be" fill-rule="nonzero" fill-opacity="1" /><path clip-path="url(#clip770)" d="M151.339 964.773 Q147.728 964.773 145.899 968.338 Q144.093 971.879 144.093 979.009 Q144.093 986.115 145.899 989.68 Q147.728 993.222 151.339 993.222 Q154.973 993.222 156.779 989.68 Q158.607 986.115 158.607 979.009 Q158.607 971.879 156.779 968.338 Q154.973 964.773 151.339 964.773 M151.339 961.069 Q157.149 961.069 160.205 965.676 Q163.283 970.259 163.283 979.009 Q163.283 987.736 160.205 992.342 Q157.149 996.925 151.339 996.925 Q145.529 996.925 142.45 992.342 Q139.394 987.736 139.394 979.009 Q139.394 970.259 142.45 965.676 Q145.529 961.069 151.339 961.069 Z" fill="#9eb1be" fill-rule="nonzero" fill-opacity="1" /><path clip-path="url(#clip770)" d="M181.501 964.773 Q177.89 964.773 176.061 968.338 Q174.255 971.879 174.255 979.009 Q174.255 986.115 176.061 989.68 Q177.89 993.222 181.501 993.222 Q185.135 993.222 186.94 989.68 Q188.769 986.115 188.769 979.009 Q188.769 971.879 186.94 968.338 Q185.135 964.773 181.501 964.773 M181.501 961.069 Q187.311 961.069 190.366 965.676 Q193.445 970.259 193.445 979.009 Q193.445 987.736 190.366 992.342 Q187.311 996.925 181.501 996.925 Q175.691 996.925 172.612 992.342 Q169.556 987.736 169.556 979.009 Q169.556 970.259 172.612 965.676 Q175.691 961.069 181.501 961.069 Z" fill="#9eb1be" fill-rule="nonzero" fill-opacity="1" /><path clip-path="url(#clip770)" d="M81.154 761.422 L81.154 757.163 Q82.9133 757.996 84.7188 758.436 Q86.5243 758.876 88.2604 758.876 Q92.89 758.876 95.3206 755.774 Q97.7743 752.649 98.1215 746.306 Q96.7789 748.297 94.7187 749.362 Q92.6586 750.426 90.1586 750.426 Q84.9734 750.426 81.941 747.302 Q78.9318 744.153 78.9318 738.714 Q78.9318 733.39 82.0799 730.172 Q85.2281 726.954 90.4595 726.954 Q96.4548 726.954 99.603 731.561 Q102.774 736.144 102.774 744.894 Q102.774 753.065 98.8854 757.95 Q95.0197 762.811 88.4688 762.811 Q86.7095 762.811 84.904 762.463 Q83.0984 762.116 81.154 761.422 M90.4595 746.769 Q93.6076 746.769 95.4363 744.616 Q97.2882 742.464 97.2882 738.714 Q97.2882 734.987 95.4363 732.834 Q93.6076 730.658 90.4595 730.658 Q87.3114 730.658 85.4595 732.834 Q83.6308 734.987 83.6308 738.714 Q83.6308 742.464 85.4595 744.616 Q87.3114 746.769 90.4595 746.769 Z" fill="#9eb1be" fill-rule="nonzero" fill-opacity="1" /><path clip-path="url(#clip770)" d="M111.223 727.579 L129.58 727.579 L129.58 731.515 L115.506 731.515 L115.506 739.987 Q116.524 739.64 117.543 739.477 Q118.561 739.292 119.58 739.292 Q125.367 739.292 128.746 742.464 Q132.126 745.635 132.126 751.051 Q132.126 756.63 128.654 759.732 Q125.182 762.811 118.862 762.811 Q116.686 762.811 114.418 762.44 Q112.172 762.07 109.765 761.329 L109.765 756.63 Q111.848 757.764 114.07 758.32 Q116.293 758.876 118.77 758.876 Q122.774 758.876 125.112 756.769 Q127.45 754.663 127.45 751.051 Q127.45 747.44 125.112 745.334 Q122.774 743.227 118.77 743.227 Q116.895 743.227 115.02 743.644 Q113.168 744.061 111.223 744.94 L111.223 727.579 Z" fill="#9eb1be" fill-rule="nonzero" fill-opacity="1" /><path clip-path="url(#clip770)" d="M151.339 730.658 Q147.728 730.658 145.899 734.223 Q144.093 737.765 144.093 744.894 Q144.093 752.001 145.899 755.565 Q147.728 759.107 151.339 759.107 Q154.973 759.107 156.779 755.565 Q158.607 752.001 158.607 744.894 Q158.607 737.765 156.779 734.223 Q154.973 730.658 151.339 730.658 M151.339 726.954 Q157.149 726.954 160.205 731.561 Q163.283 736.144 163.283 744.894 Q163.283 753.621 160.205 758.227 Q157.149 762.811 151.339 762.811 Q145.529 762.811 142.45 758.227 Q139.394 753.621 139.394 744.894 Q139.394 736.144 142.45 731.561 Q145.529 726.954 151.339 726.954 Z" fill="#9eb1be" fill-rule="nonzero" fill-opacity="1" /><path clip-path="url(#clip770)" d="M181.501 730.658 Q177.89 730.658 176.061 734.223 Q174.255 737.765 174.255 744.894 Q174.255 752.001 176.061 755.565 Q177.89 759.107 181.501 759.107 Q185.135 759.107 186.94 755.565 Q188.769 752.001 188.769 744.894 Q188.769 737.765 186.94 734.223 Q185.135 730.658 181.501 730.658 M181.501 726.954 Q187.311 726.954 190.366 731.561 Q193.445 736.144 193.445 744.894 Q193.445 753.621 190.366 758.227 Q187.311 762.811 181.501 762.811 Q175.691 762.811 172.612 758.227 Q169.556 753.621 169.556 744.894 Q169.556 736.144 172.612 731.561 Q175.691 726.954 181.501 726.954 Z" fill="#9eb1be" fill-rule="nonzero" fill-opacity="1" /><path clip-path="url(#clip770)" d="M51.6634 524.089 L59.3023 524.089 L59.3023 497.724 L50.9921 499.391 L50.9921 495.131 L59.256 493.465 L63.9319 493.465 L63.9319 524.089 L71.5707 524.089 L71.5707 528.025 L51.6634 528.025 L51.6634 524.089 Z" fill="#9eb1be" fill-rule="nonzero" fill-opacity="1" /><path clip-path="url(#clip770)" d="M91.0151 496.543 Q87.404 496.543 85.5753 500.108 Q83.7697 503.65 83.7697 510.779 Q83.7697 517.886 85.5753 521.451 Q87.404 524.992 91.0151 524.992 Q94.6493 524.992 96.4548 521.451 Q98.2835 517.886 98.2835 510.779 Q98.2835 503.65 96.4548 500.108 Q94.6493 496.543 91.0151 496.543 M91.0151 492.84 Q96.8252 492.84 99.8808 497.446 Q102.959 502.029 102.959 510.779 Q102.959 519.506 99.8808 524.113 Q96.8252 528.696 91.0151 528.696 Q85.2049 528.696 82.1262 524.113 Q79.0707 519.506 79.0707 510.779 Q79.0707 502.029 82.1262 497.446 Q85.2049 492.84 91.0151 492.84 Z" fill="#9eb1be" fill-rule="nonzero" fill-opacity="1" /><path clip-path="url(#clip770)" d="M121.177 496.543 Q117.566 496.543 115.737 500.108 Q113.932 503.65 113.932 510.779 Q113.932 517.886 115.737 521.451 Q117.566 524.992 121.177 524.992 Q124.811 524.992 126.617 521.451 Q128.445 517.886 128.445 510.779 Q128.445 503.65 126.617 500.108 Q124.811 496.543 121.177 496.543 M121.177 492.84 Q126.987 492.84 130.043 497.446 Q133.121 502.029 133.121 510.779 Q133.121 519.506 130.043 524.113 Q126.987 528.696 121.177 528.696 Q115.367 528.696 112.288 524.113 Q109.233 519.506 109.233 510.779 Q109.233 502.029 112.288 497.446 Q115.367 492.84 121.177 492.84 Z" fill="#9eb1be" fill-rule="nonzero" fill-opacity="1" /><path clip-path="url(#clip770)" d="M151.339 496.543 Q147.728 496.543 145.899 500.108 Q144.093 503.65 144.093 510.779 Q144.093 517.886 145.899 521.451 Q147.728 524.992 151.339 524.992 Q154.973 524.992 156.779 521.451 Q158.607 517.886 158.607 510.779 Q158.607 503.65 156.779 500.108 Q154.973 496.543 151.339 496.543 M151.339 492.84 Q157.149 492.84 160.205 497.446 Q163.283 502.029 163.283 510.779 Q163.283 519.506 160.205 524.113 Q157.149 528.696 151.339 528.696 Q145.529 528.696 142.45 524.113 Q139.394 519.506 139.394 510.779 Q139.394 502.029 142.45 497.446 Q145.529 492.84 151.339 492.84 Z" fill="#9eb1be" fill-rule="nonzero" fill-opacity="1" /><path clip-path="url(#clip770)" d="M181.501 496.543 Q177.89 496.543 176.061 500.108 Q174.255 503.65 174.255 510.779 Q174.255 517.886 176.061 521.451 Q177.89 524.992 181.501 524.992 Q185.135 524.992 186.94 521.451 Q188.769 517.886 188.769 510.779 Q188.769 503.65 186.94 500.108 Q185.135 496.543 181.501 496.543 M181.501 492.84 Q187.311 492.84 190.366 497.446 Q193.445 502.029 193.445 510.779 Q193.445 519.506 190.366 524.113 Q187.311 528.696 181.501 528.696 Q175.691 528.696 172.612 524.113 Q169.556 519.506 169.556 510.779 Q169.556 502.029 172.612 497.446 Q175.691 492.84 181.501 492.84 Z" fill="#9eb1be" fill-rule="nonzero" fill-opacity="1" /><path clip-path="url(#clip770)" d="M51.6634 289.975 L59.3023 289.975 L59.3023 263.609 L50.9921 265.276 L50.9921 261.016 L59.256 259.35 L63.9319 259.35 L63.9319 289.975 L71.5707 289.975 L71.5707 293.91 L51.6634 293.91 L51.6634 289.975 Z" fill="#9eb1be" fill-rule="nonzero" fill-opacity="1" /><path clip-path="url(#clip770)" d="M91.0151 262.429 Q87.404 262.429 85.5753 265.993 Q83.7697 269.535 83.7697 276.665 Q83.7697 283.771 85.5753 287.336 Q87.404 290.877 91.0151 290.877 Q94.6493 290.877 96.4548 287.336 Q98.2835 283.771 98.2835 276.665 Q98.2835 269.535 96.4548 265.993 Q94.6493 262.429 91.0151 262.429 M91.0151 258.725 Q96.8252 258.725 99.8808 263.331 Q102.959 267.915 102.959 276.665 Q102.959 285.391 99.8808 289.998 Q96.8252 294.581 91.0151 294.581 Q85.2049 294.581 82.1262 289.998 Q79.0707 285.391 79.0707 276.665 Q79.0707 267.915 82.1262 263.331 Q85.2049 258.725 91.0151 258.725 Z" fill="#9eb1be" fill-rule="nonzero" fill-opacity="1" /><path clip-path="url(#clip770)" d="M111.223 259.35 L129.58 259.35 L129.58 263.285 L115.506 263.285 L115.506 271.757 Q116.524 271.41 117.543 271.248 Q118.561 271.063 119.58 271.063 Q125.367 271.063 128.746 274.234 Q132.126 277.405 132.126 282.822 Q132.126 288.401 128.654 291.502 Q125.182 294.581 118.862 294.581 Q116.686 294.581 114.418 294.211 Q112.172 293.84 109.765 293.1 L109.765 288.401 Q111.848 289.535 114.07 290.09 Q116.293 290.646 118.77 290.646 Q122.774 290.646 125.112 288.54 Q127.45 286.433 127.45 282.822 Q127.45 279.211 125.112 277.104 Q122.774 274.998 118.77 274.998 Q116.895 274.998 115.02 275.415 Q113.168 275.831 111.223 276.711 L111.223 259.35 Z" fill="#9eb1be" fill-rule="nonzero" fill-opacity="1" /><path clip-path="url(#clip770)" d="M151.339 262.429 Q147.728 262.429 145.899 265.993 Q144.093 269.535 144.093 276.665 Q144.093 283.771 145.899 287.336 Q147.728 290.877 151.339 290.877 Q154.973 290.877 156.779 287.336 Q158.607 283.771 158.607 276.665 Q158.607 269.535 156.779 265.993 Q154.973 262.429 151.339 262.429 M151.339 258.725 Q157.149 258.725 160.205 263.331 Q163.283 267.915 163.283 276.665 Q163.283 285.391 160.205 289.998 Q157.149 294.581 151.339 294.581 Q145.529 294.581 142.45 289.998 Q139.394 285.391 139.394 276.665 Q139.394 267.915 142.45 263.331 Q145.529 258.725 151.339 258.725 Z" fill="#9eb1be" fill-rule="nonzero" fill-opacity="1" /><path clip-path="url(#clip770)" d="M181.501 262.429 Q177.89 262.429 176.061 265.993 Q174.255 269.535 174.255 276.665 Q174.255 283.771 176.061 287.336 Q177.89 290.877 181.501 290.877 Q185.135 290.877 186.94 287.336 Q188.769 283.771 188.769 276.665 Q188.769 269.535 186.94 265.993 Q185.135 262.429 181.501 262.429 M181.501 258.725 Q187.311 258.725 190.366 263.331 Q193.445 267.915 193.445 276.665 Q193.445 285.391 190.366 289.998 Q187.311 294.581 181.501 294.581 Q175.691 294.581 172.612 289.998 Q169.556 285.391 169.556 276.665 Q169.556 267.915 172.612 263.331 Q175.691 258.725 181.501 258.725 Z" fill="#9eb1be" fill-rule="nonzero" fill-opacity="1" /><path clip-path="url(#clip770)" d="M1165.24 12.096 L1203.48 12.096 L1203.48 18.9825 L1173.42 18.9825 L1173.42 36.8875 L1202.22 36.8875 L1202.22 43.7741 L1173.42 43.7741 L1173.42 65.6895 L1204.21 65.6895 L1204.21 72.576 L1165.24 72.576 L1165.24 12.096 Z" fill="#adb2b7" fill-rule="nonzero" fill-opacity="1" /><path clip-path="url(#clip770)" d="M1221.79 49.9314 Q1221.79 58.1548 1225.15 62.8538 Q1228.55 67.5124 1234.47 67.5124 Q1240.38 67.5124 1243.79 62.8538 Q1247.19 58.1548 1247.19 49.9314 Q1247.19 41.7081 1243.79 37.0496 Q1240.38 32.3505 1234.47 32.3505 Q1228.55 32.3505 1225.15 37.0496 Q1221.79 41.7081 1221.79 49.9314 M1247.19 65.7705 Q1244.84 69.8214 1241.23 71.8063 Q1237.67 73.7508 1232.65 73.7508 Q1224.42 73.7508 1219.24 67.1883 Q1214.09 60.6258 1214.09 49.9314 Q1214.09 39.2371 1219.24 32.6746 Q1224.42 26.1121 1232.65 26.1121 Q1237.67 26.1121 1241.23 28.0971 Q1244.84 30.0415 1247.19 34.0924 L1247.19 27.2059 L1254.64 27.2059 L1254.64 89.8329 L1247.19 89.8329 L1247.19 65.7705 Z" fill="#adb2b7" fill-rule="nonzero" fill-opacity="1" /><path clip-path="url(#clip770)" d="M1269.23 54.671 L1269.23 27.2059 L1276.68 27.2059 L1276.68 54.3874 Q1276.68 60.8284 1279.19 64.0691 Q1281.7 67.2693 1286.73 67.2693 Q1292.76 67.2693 1296.25 63.421 Q1299.77 59.5726 1299.77 52.9291 L1299.77 27.2059 L1307.22 27.2059 L1307.22 72.576 L1299.77 72.576 L1299.77 65.6084 Q1297.06 69.7404 1293.45 71.7658 Q1289.89 73.7508 1285.15 73.7508 Q1277.33 73.7508 1273.28 68.8897 Q1269.23 64.0286 1269.23 54.671 M1287.98 26.1121 L1287.98 26.1121 Z" fill="#adb2b7" fill-rule="nonzero" fill-opacity="1" /><path clip-path="url(#clip770)" d="M1322.58 27.2059 L1330.03 27.2059 L1330.03 72.576 L1322.58 72.576 L1322.58 27.2059 M1322.58 9.54393 L1330.03 9.54393 L1330.03 18.9825 L1322.58 18.9825 L1322.58 9.54393 Z" fill="#adb2b7" fill-rule="nonzero" fill-opacity="1" /><path clip-path="url(#clip770)" d="M1353 14.324 L1353 27.2059 L1368.35 27.2059 L1368.35 32.9987 L1353 32.9987 L1353 57.6282 Q1353 63.1779 1354.5 64.7578 Q1356.04 66.3376 1360.7 66.3376 L1368.35 66.3376 L1368.35 72.576 L1360.7 72.576 Q1352.07 72.576 1348.79 69.3758 Q1345.5 66.1351 1345.5 57.6282 L1345.5 32.9987 L1340.04 32.9987 L1340.04 27.2059 L1345.5 27.2059 L1345.5 14.324 L1353 14.324 Z" fill="#adb2b7" fill-rule="nonzero" fill-opacity="1" /><path clip-path="url(#clip770)" d="M1397.03 76.7889 Q1393.87 84.8907 1390.87 87.3618 Q1387.88 89.8329 1382.85 89.8329 L1376.9 89.8329 L1376.9 83.5945 L1381.27 83.5945 Q1384.35 83.5945 1386.05 82.1361 Q1387.76 80.6778 1389.82 75.2496 L1391.16 71.8468 L1372.81 27.2059 L1380.71 27.2059 L1394.88 62.6918 L1409.06 27.2059 L1416.96 27.2059 L1397.03 76.7889 Z" fill="#adb2b7" fill-rule="nonzero" fill-opacity="1" /><polyline clip-path="url(#clip771)" style="stroke:#bbbb00; stroke-linecap:round; stroke-linejoin:round; stroke-width:4; stroke-opacity:1; fill:none" points="289.539,510.745 306.372,510.745 323.205,510.745 340.038,510.745 356.871,510.745 373.704,510.745 390.537,510.745 407.37,510.745 424.203,510.745 441.035,510.745 457.868,510.745 474.701,510.745 491.534,510.745 508.367,510.745 525.2,510.745 542.033,510.745 558.866,510.745 575.699,510.745 592.532,510.745 609.365,510.745 626.198,510.745 643.031,510.745 659.864,510.745 676.697,510.745 676.697,514.49 693.53,514.49 693.53,647.979 710.363,647.979 710.363,527.093 727.196,527.093 727.196,412.846 744.029,412.846 744.029,312.903 760.862,312.903 760.862,234.339 777.695,234.339 777.695,182.816 794.528,182.816 794.528,162.047 811.361,162.047 811.361,168.395 828.194,168.395 828.194,210.874 845.027,210.874 845.027,280.943 861.86,280.943 861.86,373.028 878.693,373.028 878.693,480.01 895.526,480.01 895.526,593.861 912.359,593.861 912.359,713.499 929.192,713.499 929.192,610.465 946.025,610.465 946.025,515.167 962.858,515.167 962.858,444.466 979.691,444.466 979.691,400.809 996.524,400.809 996.524,388.956 1013.36,388.956 1013.36,410.788 1030.19,410.788 1030.19,464.858 1047.02,464.858 1047.02,546.563 1063.86,546.563 1063.86,648.88 1080.69,648.88 1080.69,767.995 1097.52,767.995 1097.52,892.742 1114.35,892.742 1114.35,779.706 1131.19,779.706 1131.19,672.894 1148.02,672.894 1148.02,579.469 1164.85,579.469 1164.85,506.036 1181.69,506.036 1181.69,457.883 1198.52,457.883 1198.52,438.473 1215.35,438.473 1215.35,453.858 1232.19,453.858 1232.19,493.478 1249.02,493.478 1249.02,558.832 1265.85,558.832 1265.85,644.727 1282.68,644.727 1282.68,744.529 1299.52,744.529 1299.52,850.754 1316.35,850.754 1316.35,962.474 1333.18,962.474 1333.18,866.314 1350.02,866.314 1350.02,785.92 1366.85,785.92 1366.85,720.114 1383.68,720.114 1383.68,679.49 1400.51,679.49 1400.51,668.463 1417.35,668.463 1417.35,688.774 1434.18,688.774 1434.18,739.08 1451.01,739.08 1451.01,815.114 1467.85,815.114 1467.85,910.36 1484.68,910.36 1484.68,1012.66 1501.51,1012.66 1501.51,1129.2 1518.35,1129.2 1518.35,1023.62 1535.18,1023.62 1535.18,923.866 1552.01,923.866 1552.01,836.625 1568.84,836.625 1568.84,768.061 1585.68,768.061 1585.68,723.104 1602.51,723.104 1602.51,704.984 1619.34,704.984 1619.34,710.423 1636.18,710.423 1636.18,747.484 1653.01,747.484 1653.01,808.62 1669.84,808.62 1669.84,888.98 1686.68,888.98 1686.68,982.359 1703.51,982.359 1703.51,1081.76 1720.34,1081.76 1720.34,1186.39 1737.17,1186.39 1737.17,1096.39 1754.01,1096.39 1754.01,1013.1 1770.84,1013.1 1770.84,951.433 1787.67,951.433 1787.67,913.373 1804.51,913.373 1804.51,903.043 1821.34,903.043 1821.34,922.068 1838.17,922.068 1838.17,969.195 1855,969.195 1855,1040.44 1871.84,1040.44 1871.84,1129.71 1888.67,1129.71 1888.67,1233.81 1905.5,1233.81 1905.5,1342.99 1922.34,1342.99 1922.34,1244.1 1939.17,1244.1 1939.17,1150.69 1956,1150.69 1956,1069.01 1972.84,1069.01 1972.84,1004.82 1989.67,1004.82 1989.67,962.736 2006.5,962.736 2006.5,945.775 2023.33,945.775 2023.33,959.312 2040.17,959.312 2040.17,993.933 2057,993.933 2057,1051.05 2073.83,1051.05 2073.83,1126.13 2090.67,1126.13 2090.67,1213.38 2107.5,1213.38 2107.5,1306.27 2124.33,1306.27 2124.33,1404.13 2141.17,1404.13 2141.17,1320 2158,1320 2158,1249.8 2174.83,1249.8 2174.83,1192.31 2191.66,1192.31 2191.66,1156.83 2208.5,1156.83 2208.5,1147.21 2225.33,1147.21 2225.33,1164.93 2242.16,1164.93 2242.16,1208.85 2259,1208.85 2259,1275.26 2275.83,1275.26 2275.83,1358.49 2292.66,1358.49 2292.66,1447.87 "/>
</svg>
