<?xml version="1.0" encoding="utf-8"?>
<svg xmlns="http://www.w3.org/2000/svg" xmlns:xlink="http://www.w3.org/1999/xlink" width="600" height="400" viewBox="0 0 2400 1600">
<defs>
  <clipPath id="clip890">
    <rect x="0" y="0" width="2400" height="1600"/>
  </clipPath>
</defs>
<path clip-path="url(#clip890)" d="M0 1600 L2400 1600 L2400 0 L0 0  Z" fill="#282c34" fill-rule="evenodd" fill-opacity="1"/>
<defs>
  <clipPath id="clip891">
    <rect x="249" y="123" width="2104" height="1364"/>
  </clipPath>
</defs>
<path clip-path="url(#clip890)" d="M249.769 1486.45 L2352.76 1486.45 L2352.76 123.472 L249.769 123.472  Z" fill="#21252b" fill-rule="evenodd" fill-opacity="1"/>
<polyline clip-path="url(#clip891)" style="stroke:#adb2b7; stroke-linecap:round; stroke-linejoin:round; stroke-width:2; stroke-opacity:0.1; fill:none" points="309.288,1486.45 309.288,123.472 "/>
<polyline clip-path="url(#clip891)" style="stroke:#adb2b7; stroke-linecap:round; stroke-linejoin:round; stroke-width:2; stroke-opacity:0.1; fill:none" points="709.412,1486.45 709.412,123.472 "/>
<polyline clip-path="url(#clip891)" style="stroke:#adb2b7; stroke-linecap:round; stroke-linejoin:round; stroke-width:2; stroke-opacity:0.1; fill:none" points="1109.54,1486.45 1109.54,123.472 "/>
<polyline clip-path="url(#clip891)" style="stroke:#adb2b7; stroke-linecap:round; stroke-linejoin:round; stroke-width:2; stroke-opacity:0.1; fill:none" points="1509.66,1486.45 1509.66,123.472 "/>
<polyline clip-path="url(#clip891)" style="stroke:#adb2b7; stroke-linecap:round; stroke-linejoin:round; stroke-width:2; stroke-opacity:0.1; fill:none" points="1909.78,1486.45 1909.78,123.472 "/>
<polyline clip-path="url(#clip891)" style="stroke:#adb2b7; stroke-linecap:round; stroke-linejoin:round; stroke-width:2; stroke-opacity:0.1; fill:none" points="2309.91,1486.45 2309.91,123.472 "/>
<polyline clip-path="url(#clip891)" style="stroke:#adb2b7; stroke-linecap:round; stroke-linejoin:round; stroke-width:2; stroke-opacity:0.1; fill:none" points="249.769,1419.8 2352.76,1419.8 "/>
<polyline clip-path="url(#clip891)" style="stroke:#adb2b7; stroke-linecap:round; stroke-linejoin:round; stroke-width:2; stroke-opacity:0.1; fill:none" points="249.769,1168.25 2352.76,1168.25 "/>
<polyline clip-path="url(#clip891)" style="stroke:#adb2b7; stroke-linecap:round; stroke-linejoin:round; stroke-width:2; stroke-opacity:0.1; fill:none" points="249.769,916.696 2352.76,916.696 "/>
<polyline clip-path="url(#clip891)" style="stroke:#adb2b7; stroke-linecap:round; stroke-linejoin:round; stroke-width:2; stroke-opacity:0.1; fill:none" points="249.769,665.146 2352.76,665.146 "/>
<polyline clip-path="url(#clip891)" style="stroke:#adb2b7; stroke-linecap:round; stroke-linejoin:round; stroke-width:2; stroke-opacity:0.1; fill:none" points="249.769,413.597 2352.76,413.597 "/>
<polyline clip-path="url(#clip891)" style="stroke:#adb2b7; stroke-linecap:round; stroke-linejoin:round; stroke-width:2; stroke-opacity:0.1; fill:none" points="249.769,162.047 2352.76,162.047 "/>
<polyline clip-path="url(#clip890)" style="stroke:#adb2b7; stroke-linecap:round; stroke-linejoin:round; stroke-width:4; stroke-opacity:1; fill:none" points="249.769,1486.45 2352.76,1486.45 "/>
<polyline clip-path="url(#clip890)" style="stroke:#adb2b7; stroke-linecap:round; stroke-linejoin:round; stroke-width:4; stroke-opacity:1; fill:none" points="309.288,1486.45 309.288,1467.55 "/>
<polyline clip-path="url(#clip890)" style="stroke:#adb2b7; stroke-linecap:round; stroke-linejoin:round; stroke-width:4; stroke-opacity:1; fill:none" points="709.412,1486.45 709.412,1467.55 "/>
<polyline clip-path="url(#clip890)" style="stroke:#adb2b7; stroke-linecap:round; stroke-linejoin:round; stroke-width:4; stroke-opacity:1; fill:none" points="1109.54,1486.45 1109.54,1467.55 "/>
<polyline clip-path="url(#clip890)" style="stroke:#adb2b7; stroke-linecap:round; stroke-linejoin:round; stroke-width:4; stroke-opacity:1; fill:none" points="1509.66,1486.45 1509.66,1467.55 "/>
<polyline clip-path="url(#clip890)" style="stroke:#adb2b7; stroke-linecap:round; stroke-linejoin:round; stroke-width:4; stroke-opacity:1; fill:none" points="1909.78,1486.45 1909.78,1467.55 "/>
<polyline clip-path="url(#clip890)" style="stroke:#adb2b7; stroke-linecap:round; stroke-linejoin:round; stroke-width:4; stroke-opacity:1; fill:none" points="2309.91,1486.45 2309.91,1467.55 "/>
<path clip-path="url(#clip890)" d="M181.082 1544.91 L197.402 1544.91 L197.402 1548.85 L175.457 1548.85 L175.457 1544.91 Q178.119 1542.16 182.703 1537.53 Q187.309 1532.88 188.49 1531.53 Q190.735 1529.01 191.615 1527.27 Q192.517 1525.51 192.517 1523.82 Q192.517 1521.07 190.573 1519.33 Q188.652 1517.6 185.55 1517.6 Q183.351 1517.6 180.897 1518.36 Q178.466 1519.13 175.689 1520.68 L175.689 1515.95 Q178.513 1514.82 180.966 1514.24 Q183.42 1513.66 185.457 1513.66 Q190.828 1513.66 194.022 1516.35 Q197.216 1519.03 197.216 1523.52 Q197.216 1525.65 196.406 1527.57 Q195.619 1529.47 193.513 1532.07 Q192.934 1532.74 189.832 1535.95 Q186.73 1539.15 181.082 1544.91 Z" fill="#9eb1be" fill-rule="nonzero" fill-opacity="1" /><path clip-path="url(#clip890)" d="M217.216 1517.37 Q213.605 1517.37 211.776 1520.93 Q209.971 1524.47 209.971 1531.6 Q209.971 1538.71 211.776 1542.27 Q213.605 1545.82 217.216 1545.82 Q220.851 1545.82 222.656 1542.27 Q224.485 1538.71 224.485 1531.6 Q224.485 1524.47 222.656 1520.93 Q220.851 1517.37 217.216 1517.37 M217.216 1513.66 Q223.026 1513.66 226.082 1518.27 Q229.161 1522.85 229.161 1531.6 Q229.161 1540.33 226.082 1544.94 Q223.026 1549.52 217.216 1549.52 Q211.406 1549.52 208.327 1544.94 Q205.272 1540.33 205.272 1531.6 Q205.272 1522.85 208.327 1518.27 Q211.406 1513.66 217.216 1513.66 Z" fill="#9eb1be" fill-rule="nonzero" fill-opacity="1" /><path clip-path="url(#clip890)" d="M241.406 1544.91 L257.725 1544.91 L257.725 1548.85 L235.781 1548.85 L235.781 1544.91 Q238.443 1542.16 243.026 1537.53 Q247.633 1532.88 248.813 1531.53 Q251.059 1529.01 251.938 1527.27 Q252.841 1525.51 252.841 1523.82 Q252.841 1521.07 250.897 1519.33 Q248.975 1517.6 245.874 1517.6 Q243.674 1517.6 241.221 1518.36 Q238.79 1519.13 236.012 1520.68 L236.012 1515.95 Q238.837 1514.82 241.29 1514.24 Q243.744 1513.66 245.781 1513.66 Q251.151 1513.66 254.346 1516.35 Q257.54 1519.03 257.54 1523.52 Q257.54 1525.65 256.73 1527.57 Q255.943 1529.47 253.836 1532.07 Q253.258 1532.74 250.156 1535.95 Q247.054 1539.15 241.406 1544.91 Z" fill="#9eb1be" fill-rule="nonzero" fill-opacity="1" /><path clip-path="url(#clip890)" d="M277.54 1517.37 Q273.929 1517.37 272.1 1520.93 Q270.295 1524.47 270.295 1531.6 Q270.295 1538.71 272.1 1542.27 Q273.929 1545.82 277.54 1545.82 Q281.174 1545.82 282.98 1542.27 Q284.808 1538.71 284.808 1531.6 Q284.808 1524.47 282.98 1520.93 Q281.174 1517.37 277.54 1517.37 M277.54 1513.66 Q283.35 1513.66 286.406 1518.27 Q289.484 1522.85 289.484 1531.6 Q289.484 1540.33 286.406 1544.94 Q283.35 1549.52 277.54 1549.52 Q271.73 1549.52 268.651 1544.94 Q265.596 1540.33 265.596 1531.6 Q265.596 1522.85 268.651 1518.27 Q271.73 1513.66 277.54 1513.66 Z" fill="#9eb1be" fill-rule="nonzero" fill-opacity="1" /><path clip-path="url(#clip890)" d="M294.947 1533.96 L307.424 1533.96 L307.424 1537.76 L294.947 1537.76 L294.947 1533.96 Z" fill="#9eb1be" fill-rule="nonzero" fill-opacity="1" /><path clip-path="url(#clip890)" d="M324.808 1517.37 Q321.197 1517.37 319.368 1520.93 Q317.563 1524.47 317.563 1531.6 Q317.563 1538.71 319.368 1542.27 Q321.197 1545.82 324.808 1545.82 Q328.443 1545.82 330.248 1542.27 Q332.077 1538.71 332.077 1531.6 Q332.077 1524.47 330.248 1520.93 Q328.443 1517.37 324.808 1517.37 M324.808 1513.66 Q330.618 1513.66 333.674 1518.27 Q336.753 1522.85 336.753 1531.6 Q336.753 1540.33 333.674 1544.94 Q330.618 1549.52 324.808 1549.52 Q318.998 1549.52 315.919 1544.94 Q312.864 1540.33 312.864 1531.6 Q312.864 1522.85 315.919 1518.27 Q318.998 1513.66 324.808 1513.66 Z" fill="#9eb1be" fill-rule="nonzero" fill-opacity="1" /><path clip-path="url(#clip890)" d="M345.78 1544.91 L353.419 1544.91 L353.419 1518.55 L345.109 1520.21 L345.109 1515.95 L353.373 1514.29 L358.049 1514.29 L358.049 1544.91 L365.688 1544.91 L365.688 1548.85 L345.78 1548.85 L345.78 1544.91 Z" fill="#9eb1be" fill-rule="nonzero" fill-opacity="1" /><path clip-path="url(#clip890)" d="M372.377 1533.96 L384.854 1533.96 L384.854 1537.76 L372.377 1537.76 L372.377 1533.96 Z" fill="#9eb1be" fill-rule="nonzero" fill-opacity="1" /><path clip-path="url(#clip890)" d="M402.238 1517.37 Q398.627 1517.37 396.799 1520.93 Q394.993 1524.47 394.993 1531.6 Q394.993 1538.71 396.799 1542.27 Q398.627 1545.82 402.238 1545.82 Q405.873 1545.82 407.678 1542.27 Q409.507 1538.71 409.507 1531.6 Q409.507 1524.47 407.678 1520.93 Q405.873 1517.37 402.238 1517.37 M402.238 1513.66 Q408.049 1513.66 411.104 1518.27 Q414.183 1522.85 414.183 1531.6 Q414.183 1540.33 411.104 1544.94 Q408.049 1549.52 402.238 1549.52 Q396.428 1549.52 393.35 1544.94 Q390.294 1540.33 390.294 1531.6 Q390.294 1522.85 393.35 1518.27 Q396.428 1513.66 402.238 1513.66 Z" fill="#9eb1be" fill-rule="nonzero" fill-opacity="1" /><path clip-path="url(#clip890)" d="M423.211 1544.91 L430.849 1544.91 L430.849 1518.55 L422.539 1520.21 L422.539 1515.95 L430.803 1514.29 L435.479 1514.29 L435.479 1544.91 L443.118 1544.91 L443.118 1548.85 L423.211 1548.85 L423.211 1544.91 Z" fill="#9eb1be" fill-rule="nonzero" fill-opacity="1" /><path clip-path="url(#clip890)" d="M581.392 1544.91 L597.711 1544.91 L597.711 1548.85 L575.767 1548.85 L575.767 1544.91 Q578.429 1542.16 583.012 1537.53 Q587.619 1532.88 588.799 1531.53 Q591.044 1529.01 591.924 1527.27 Q592.827 1525.51 592.827 1523.82 Q592.827 1521.07 590.882 1519.33 Q588.961 1517.6 585.859 1517.6 Q583.66 1517.6 581.207 1518.36 Q578.776 1519.13 575.998 1520.68 L575.998 1515.95 Q578.822 1514.82 581.276 1514.24 Q583.73 1513.66 585.767 1513.66 Q591.137 1513.66 594.331 1516.35 Q597.526 1519.03 597.526 1523.52 Q597.526 1525.65 596.716 1527.57 Q595.929 1529.47 593.822 1532.07 Q593.244 1532.74 590.142 1535.95 Q587.04 1539.15 581.392 1544.91 Z" fill="#9eb1be" fill-rule="nonzero" fill-opacity="1" /><path clip-path="url(#clip890)" d="M617.526 1517.37 Q613.915 1517.37 612.086 1520.93 Q610.28 1524.47 610.28 1531.6 Q610.28 1538.71 612.086 1542.27 Q613.915 1545.82 617.526 1545.82 Q621.16 1545.82 622.966 1542.27 Q624.794 1538.71 624.794 1531.6 Q624.794 1524.47 622.966 1520.93 Q621.16 1517.37 617.526 1517.37 M617.526 1513.66 Q623.336 1513.66 626.391 1518.27 Q629.47 1522.85 629.47 1531.6 Q629.47 1540.33 626.391 1544.94 Q623.336 1549.52 617.526 1549.52 Q611.716 1549.52 608.637 1544.94 Q605.581 1540.33 605.581 1531.6 Q605.581 1522.85 608.637 1518.27 Q611.716 1513.66 617.526 1513.66 Z" fill="#9eb1be" fill-rule="nonzero" fill-opacity="1" /><path clip-path="url(#clip890)" d="M641.715 1544.91 L658.035 1544.91 L658.035 1548.85 L636.091 1548.85 L636.091 1544.91 Q638.753 1542.16 643.336 1537.53 Q647.942 1532.88 649.123 1531.53 Q651.368 1529.01 652.248 1527.27 Q653.151 1525.51 653.151 1523.82 Q653.151 1521.07 651.206 1519.33 Q649.285 1517.6 646.183 1517.6 Q643.984 1517.6 641.53 1518.36 Q639.1 1519.13 636.322 1520.68 L636.322 1515.95 Q639.146 1514.82 641.6 1514.24 Q644.053 1513.66 646.09 1513.66 Q651.461 1513.66 654.655 1516.35 Q657.85 1519.03 657.85 1523.52 Q657.85 1525.65 657.039 1527.57 Q656.252 1529.47 654.146 1532.07 Q653.567 1532.74 650.465 1535.95 Q647.364 1539.15 641.715 1544.91 Z" fill="#9eb1be" fill-rule="nonzero" fill-opacity="1" /><path clip-path="url(#clip890)" d="M677.85 1517.37 Q674.238 1517.37 672.41 1520.93 Q670.604 1524.47 670.604 1531.6 Q670.604 1538.71 672.41 1542.27 Q674.238 1545.82 677.85 1545.82 Q681.484 1545.82 683.289 1542.27 Q685.118 1538.71 685.118 1531.6 Q685.118 1524.47 683.289 1520.93 Q681.484 1517.37 677.85 1517.37 M677.85 1513.66 Q683.66 1513.66 686.715 1518.27 Q689.794 1522.85 689.794 1531.6 Q689.794 1540.33 686.715 1544.94 Q683.66 1549.52 677.85 1549.52 Q672.039 1549.52 668.961 1544.94 Q665.905 1540.33 665.905 1531.6 Q665.905 1522.85 668.961 1518.27 Q672.039 1513.66 677.85 1513.66 Z" fill="#9eb1be" fill-rule="nonzero" fill-opacity="1" /><path clip-path="url(#clip890)" d="M695.257 1533.96 L707.734 1533.96 L707.734 1537.76 L695.257 1537.76 L695.257 1533.96 Z" fill="#9eb1be" fill-rule="nonzero" fill-opacity="1" /><path clip-path="url(#clip890)" d="M725.118 1517.37 Q721.507 1517.37 719.678 1520.93 Q717.872 1524.47 717.872 1531.6 Q717.872 1538.71 719.678 1542.27 Q721.507 1545.82 725.118 1545.82 Q728.752 1545.82 730.558 1542.27 Q732.386 1538.71 732.386 1531.6 Q732.386 1524.47 730.558 1520.93 Q728.752 1517.37 725.118 1517.37 M725.118 1513.66 Q730.928 1513.66 733.984 1518.27 Q737.062 1522.85 737.062 1531.6 Q737.062 1540.33 733.984 1544.94 Q730.928 1549.52 725.118 1549.52 Q719.308 1549.52 716.229 1544.94 Q713.173 1540.33 713.173 1531.6 Q713.173 1522.85 716.229 1518.27 Q719.308 1513.66 725.118 1513.66 Z" fill="#9eb1be" fill-rule="nonzero" fill-opacity="1" /><path clip-path="url(#clip890)" d="M746.09 1544.91 L753.729 1544.91 L753.729 1518.55 L745.419 1520.21 L745.419 1515.95 L753.682 1514.29 L758.358 1514.29 L758.358 1544.91 L765.997 1544.91 L765.997 1548.85 L746.09 1548.85 L746.09 1544.91 Z" fill="#9eb1be" fill-rule="nonzero" fill-opacity="1" /><path clip-path="url(#clip890)" d="M772.687 1533.96 L785.164 1533.96 L785.164 1537.76 L772.687 1537.76 L772.687 1533.96 Z" fill="#9eb1be" fill-rule="nonzero" fill-opacity="1" /><path clip-path="url(#clip890)" d="M802.548 1517.37 Q798.937 1517.37 797.108 1520.93 Q795.303 1524.47 795.303 1531.6 Q795.303 1538.71 797.108 1542.27 Q798.937 1545.82 802.548 1545.82 Q806.182 1545.82 807.988 1542.27 Q809.816 1538.71 809.816 1531.6 Q809.816 1524.47 807.988 1520.93 Q806.182 1517.37 802.548 1517.37 M802.548 1513.66 Q808.358 1513.66 811.414 1518.27 Q814.492 1522.85 814.492 1531.6 Q814.492 1540.33 811.414 1544.94 Q808.358 1549.52 802.548 1549.52 Q796.738 1549.52 793.659 1544.94 Q790.604 1540.33 790.604 1531.6 Q790.604 1522.85 793.659 1518.27 Q796.738 1513.66 802.548 1513.66 Z" fill="#9eb1be" fill-rule="nonzero" fill-opacity="1" /><path clip-path="url(#clip890)" d="M826.738 1544.91 L843.057 1544.91 L843.057 1548.85 L821.113 1548.85 L821.113 1544.91 Q823.775 1542.16 828.358 1537.53 Q832.964 1532.88 834.145 1531.53 Q836.39 1529.01 837.27 1527.27 Q838.173 1525.51 838.173 1523.82 Q838.173 1521.07 836.228 1519.33 Q834.307 1517.6 831.205 1517.6 Q829.006 1517.6 826.552 1518.36 Q824.122 1519.13 821.344 1520.68 L821.344 1515.95 Q824.168 1514.82 826.622 1514.24 Q829.076 1513.66 831.113 1513.66 Q836.483 1513.66 839.677 1516.35 Q842.872 1519.03 842.872 1523.52 Q842.872 1525.65 842.062 1527.57 Q841.275 1529.47 839.168 1532.07 Q838.589 1532.74 835.488 1535.95 Q832.386 1539.15 826.738 1544.91 Z" fill="#9eb1be" fill-rule="nonzero" fill-opacity="1" /><path clip-path="url(#clip890)" d="M981.042 1544.91 L997.361 1544.91 L997.361 1548.85 L975.417 1548.85 L975.417 1544.91 Q978.079 1542.16 982.662 1537.53 Q987.268 1532.88 988.449 1531.53 Q990.694 1529.01 991.574 1527.27 Q992.477 1525.51 992.477 1523.82 Q992.477 1521.07 990.532 1519.33 Q988.611 1517.6 985.509 1517.6 Q983.31 1517.6 980.856 1518.36 Q978.426 1519.13 975.648 1520.68 L975.648 1515.95 Q978.472 1514.82 980.926 1514.24 Q983.379 1513.66 985.417 1513.66 Q990.787 1513.66 993.981 1516.35 Q997.176 1519.03 997.176 1523.52 Q997.176 1525.65 996.366 1527.57 Q995.578 1529.47 993.472 1532.07 Q992.893 1532.74 989.791 1535.95 Q986.69 1539.15 981.042 1544.91 Z" fill="#9eb1be" fill-rule="nonzero" fill-opacity="1" /><path clip-path="url(#clip890)" d="M1017.18 1517.37 Q1013.56 1517.37 1011.74 1520.93 Q1009.93 1524.47 1009.93 1531.6 Q1009.93 1538.71 1011.74 1542.27 Q1013.56 1545.82 1017.18 1545.82 Q1020.81 1545.82 1022.62 1542.27 Q1024.44 1538.71 1024.44 1531.6 Q1024.44 1524.47 1022.62 1520.93 Q1020.81 1517.37 1017.18 1517.37 M1017.18 1513.66 Q1022.99 1513.66 1026.04 1518.27 Q1029.12 1522.85 1029.12 1531.6 Q1029.12 1540.33 1026.04 1544.94 Q1022.99 1549.52 1017.18 1549.52 Q1011.37 1549.52 1008.29 1544.94 Q1005.23 1540.33 1005.23 1531.6 Q1005.23 1522.85 1008.29 1518.27 Q1011.37 1513.66 1017.18 1513.66 Z" fill="#9eb1be" fill-rule="nonzero" fill-opacity="1" /><path clip-path="url(#clip890)" d="M1041.37 1544.91 L1057.68 1544.91 L1057.68 1548.85 L1035.74 1548.85 L1035.74 1544.91 Q1038.4 1542.16 1042.99 1537.53 Q1047.59 1532.88 1048.77 1531.53 Q1051.02 1529.01 1051.9 1527.27 Q1052.8 1525.51 1052.8 1523.82 Q1052.8 1521.07 1050.86 1519.33 Q1048.93 1517.6 1045.83 1517.6 Q1043.63 1517.6 1041.18 1518.36 Q1038.75 1519.13 1035.97 1520.68 L1035.97 1515.95 Q1038.8 1514.82 1041.25 1514.24 Q1043.7 1513.66 1045.74 1513.66 Q1051.11 1513.66 1054.31 1516.35 Q1057.5 1519.03 1057.5 1523.52 Q1057.5 1525.65 1056.69 1527.57 Q1055.9 1529.47 1053.8 1532.07 Q1053.22 1532.74 1050.12 1535.95 Q1047.01 1539.15 1041.37 1544.91 Z" fill="#9eb1be" fill-rule="nonzero" fill-opacity="1" /><path clip-path="url(#clip890)" d="M1077.5 1517.37 Q1073.89 1517.37 1072.06 1520.93 Q1070.25 1524.47 1070.25 1531.6 Q1070.25 1538.71 1072.06 1542.27 Q1073.89 1545.82 1077.5 1545.82 Q1081.13 1545.82 1082.94 1542.27 Q1084.77 1538.71 1084.77 1531.6 Q1084.77 1524.47 1082.94 1520.93 Q1081.13 1517.37 1077.5 1517.37 M1077.5 1513.66 Q1083.31 1513.66 1086.37 1518.27 Q1089.44 1522.85 1089.44 1531.6 Q1089.44 1540.33 1086.37 1544.94 Q1083.31 1549.52 1077.5 1549.52 Q1071.69 1549.52 1068.61 1544.94 Q1065.55 1540.33 1065.55 1531.6 Q1065.55 1522.85 1068.61 1518.27 Q1071.69 1513.66 1077.5 1513.66 Z" fill="#9eb1be" fill-rule="nonzero" fill-opacity="1" /><path clip-path="url(#clip890)" d="M1094.91 1533.96 L1107.38 1533.96 L1107.38 1537.76 L1094.91 1537.76 L1094.91 1533.96 Z" fill="#9eb1be" fill-rule="nonzero" fill-opacity="1" /><path clip-path="url(#clip890)" d="M1124.77 1517.37 Q1121.16 1517.37 1119.33 1520.93 Q1117.52 1524.47 1117.52 1531.6 Q1117.52 1538.71 1119.33 1542.27 Q1121.16 1545.82 1124.77 1545.82 Q1128.4 1545.82 1130.21 1542.27 Q1132.04 1538.71 1132.04 1531.6 Q1132.04 1524.47 1130.21 1520.93 Q1128.4 1517.37 1124.77 1517.37 M1124.77 1513.66 Q1130.58 1513.66 1133.63 1518.27 Q1136.71 1522.85 1136.71 1531.6 Q1136.71 1540.33 1133.63 1544.94 Q1130.58 1549.52 1124.77 1549.52 Q1118.96 1549.52 1115.88 1544.94 Q1112.82 1540.33 1112.82 1531.6 Q1112.82 1522.85 1115.88 1518.27 Q1118.96 1513.66 1124.77 1513.66 Z" fill="#9eb1be" fill-rule="nonzero" fill-opacity="1" /><path clip-path="url(#clip890)" d="M1145.74 1544.91 L1153.38 1544.91 L1153.38 1518.55 L1145.07 1520.21 L1145.07 1515.95 L1153.33 1514.29 L1158.01 1514.29 L1158.01 1544.91 L1165.65 1544.91 L1165.65 1548.85 L1145.74 1548.85 L1145.74 1544.91 Z" fill="#9eb1be" fill-rule="nonzero" fill-opacity="1" /><path clip-path="url(#clip890)" d="M1172.34 1533.96 L1184.81 1533.96 L1184.81 1537.76 L1172.34 1537.76 L1172.34 1533.96 Z" fill="#9eb1be" fill-rule="nonzero" fill-opacity="1" /><path clip-path="url(#clip890)" d="M1202.2 1517.37 Q1198.59 1517.37 1196.76 1520.93 Q1194.95 1524.47 1194.95 1531.6 Q1194.95 1538.71 1196.76 1542.27 Q1198.59 1545.82 1202.2 1545.82 Q1205.83 1545.82 1207.64 1542.27 Q1209.47 1538.71 1209.47 1531.6 Q1209.47 1524.47 1207.64 1520.93 Q1205.83 1517.37 1202.2 1517.37 M1202.2 1513.66 Q1208.01 1513.66 1211.06 1518.27 Q1214.14 1522.85 1214.14 1531.6 Q1214.14 1540.33 1211.06 1544.94 Q1208.01 1549.52 1202.2 1549.52 Q1196.39 1549.52 1193.31 1544.94 Q1190.25 1540.33 1190.25 1531.6 Q1190.25 1522.85 1193.31 1518.27 Q1196.39 1513.66 1202.2 1513.66 Z" fill="#9eb1be" fill-rule="nonzero" fill-opacity="1" /><path clip-path="url(#clip890)" d="M1236.53 1530.21 Q1239.88 1530.93 1241.76 1533.2 Q1243.66 1535.47 1243.66 1538.8 Q1243.66 1543.92 1240.14 1546.72 Q1236.62 1549.52 1230.14 1549.52 Q1227.96 1549.52 1225.65 1549.08 Q1223.36 1548.66 1220.9 1547.81 L1220.9 1543.29 Q1222.85 1544.43 1225.16 1545.01 Q1227.48 1545.58 1230 1545.58 Q1234.4 1545.58 1236.69 1543.85 Q1239 1542.11 1239 1538.8 Q1239 1535.75 1236.85 1534.03 Q1234.72 1532.3 1230.9 1532.3 L1226.87 1532.3 L1226.87 1528.45 L1231.09 1528.45 Q1234.54 1528.45 1236.36 1527.09 Q1238.19 1525.7 1238.19 1523.11 Q1238.19 1520.45 1236.29 1519.03 Q1234.42 1517.6 1230.9 1517.6 Q1228.98 1517.6 1226.78 1518.01 Q1224.58 1518.43 1221.94 1519.31 L1221.94 1515.14 Q1224.61 1514.4 1226.92 1514.03 Q1229.26 1513.66 1231.32 1513.66 Q1236.64 1513.66 1239.74 1516.09 Q1242.85 1518.5 1242.85 1522.62 Q1242.85 1525.49 1241.2 1527.48 Q1239.56 1529.45 1236.53 1530.21 Z" fill="#9eb1be" fill-rule="nonzero" fill-opacity="1" /><path clip-path="url(#clip890)" d="M1380.6 1544.91 L1396.92 1544.91 L1396.92 1548.85 L1374.97 1548.85 L1374.97 1544.91 Q1377.64 1542.16 1382.22 1537.53 Q1386.83 1532.88 1388.01 1531.53 Q1390.25 1529.01 1391.13 1527.27 Q1392.03 1525.51 1392.03 1523.82 Q1392.03 1521.07 1390.09 1519.33 Q1388.17 1517.6 1385.07 1517.6 Q1382.87 1517.6 1380.41 1518.36 Q1377.98 1519.13 1375.21 1520.68 L1375.21 1515.95 Q1378.03 1514.82 1380.48 1514.24 Q1382.94 1513.66 1384.97 1513.66 Q1390.34 1513.66 1393.54 1516.35 Q1396.73 1519.03 1396.73 1523.52 Q1396.73 1525.65 1395.92 1527.57 Q1395.14 1529.47 1393.03 1532.07 Q1392.45 1532.74 1389.35 1535.95 Q1386.25 1539.15 1380.6 1544.91 Z" fill="#9eb1be" fill-rule="nonzero" fill-opacity="1" /><path clip-path="url(#clip890)" d="M1416.73 1517.37 Q1413.12 1517.37 1411.29 1520.93 Q1409.49 1524.47 1409.49 1531.6 Q1409.49 1538.71 1411.29 1542.27 Q1413.12 1545.82 1416.73 1545.82 Q1420.37 1545.82 1422.17 1542.27 Q1424 1538.71 1424 1531.6 Q1424 1524.47 1422.17 1520.93 Q1420.37 1517.37 1416.73 1517.37 M1416.73 1513.66 Q1422.54 1513.66 1425.6 1518.27 Q1428.68 1522.85 1428.68 1531.6 Q1428.68 1540.33 1425.6 1544.94 Q1422.54 1549.52 1416.73 1549.52 Q1410.92 1549.52 1407.84 1544.94 Q1404.79 1540.33 1404.79 1531.6 Q1404.79 1522.85 1407.84 1518.27 Q1410.92 1513.66 1416.73 1513.66 Z" fill="#9eb1be" fill-rule="nonzero" fill-opacity="1" /><path clip-path="url(#clip890)" d="M1440.92 1544.91 L1457.24 1544.91 L1457.24 1548.85 L1435.3 1548.85 L1435.3 1544.91 Q1437.96 1542.16 1442.54 1537.53 Q1447.15 1532.88 1448.33 1531.53 Q1450.58 1529.01 1451.45 1527.27 Q1452.36 1525.51 1452.36 1523.82 Q1452.36 1521.07 1450.41 1519.33 Q1448.49 1517.6 1445.39 1517.6 Q1443.19 1517.6 1440.74 1518.36 Q1438.31 1519.13 1435.53 1520.68 L1435.53 1515.95 Q1438.35 1514.82 1440.81 1514.24 Q1443.26 1513.66 1445.3 1513.66 Q1450.67 1513.66 1453.86 1516.35 Q1457.06 1519.03 1457.06 1523.52 Q1457.06 1525.65 1456.25 1527.57 Q1455.46 1529.47 1453.35 1532.07 Q1452.77 1532.74 1449.67 1535.95 Q1446.57 1539.15 1440.92 1544.91 Z" fill="#9eb1be" fill-rule="nonzero" fill-opacity="1" /><path clip-path="url(#clip890)" d="M1477.06 1517.37 Q1473.45 1517.37 1471.62 1520.93 Q1469.81 1524.47 1469.81 1531.6 Q1469.81 1538.71 1471.62 1542.27 Q1473.45 1545.82 1477.06 1545.82 Q1480.69 1545.82 1482.5 1542.27 Q1484.33 1538.71 1484.33 1531.6 Q1484.33 1524.47 1482.5 1520.93 Q1480.69 1517.37 1477.06 1517.37 M1477.06 1513.66 Q1482.87 1513.66 1485.92 1518.27 Q1489 1522.85 1489 1531.6 Q1489 1540.33 1485.92 1544.94 Q1482.87 1549.52 1477.06 1549.52 Q1471.25 1549.52 1468.17 1544.94 Q1465.11 1540.33 1465.11 1531.6 Q1465.11 1522.85 1468.17 1518.27 Q1471.25 1513.66 1477.06 1513.66 Z" fill="#9eb1be" fill-rule="nonzero" fill-opacity="1" /><path clip-path="url(#clip890)" d="M1494.46 1533.96 L1506.94 1533.96 L1506.94 1537.76 L1494.46 1537.76 L1494.46 1533.96 Z" fill="#9eb1be" fill-rule="nonzero" fill-opacity="1" /><path clip-path="url(#clip890)" d="M1524.32 1517.37 Q1520.71 1517.37 1518.89 1520.93 Q1517.08 1524.47 1517.08 1531.6 Q1517.08 1538.71 1518.89 1542.27 Q1520.71 1545.82 1524.32 1545.82 Q1527.96 1545.82 1529.76 1542.27 Q1531.59 1538.71 1531.59 1531.6 Q1531.59 1524.47 1529.76 1520.93 Q1527.96 1517.37 1524.32 1517.37 M1524.32 1513.66 Q1530.13 1513.66 1533.19 1518.27 Q1536.27 1522.85 1536.27 1531.6 Q1536.27 1540.33 1533.19 1544.94 Q1530.13 1549.52 1524.32 1549.52 Q1518.51 1549.52 1515.44 1544.94 Q1512.38 1540.33 1512.38 1531.6 Q1512.38 1522.85 1515.44 1518.27 Q1518.51 1513.66 1524.32 1513.66 Z" fill="#9eb1be" fill-rule="nonzero" fill-opacity="1" /><path clip-path="url(#clip890)" d="M1545.3 1544.91 L1552.94 1544.91 L1552.94 1518.55 L1544.63 1520.21 L1544.63 1515.95 L1552.89 1514.29 L1557.57 1514.29 L1557.57 1544.91 L1565.2 1544.91 L1565.2 1548.85 L1545.3 1548.85 L1545.3 1544.91 Z" fill="#9eb1be" fill-rule="nonzero" fill-opacity="1" /><path clip-path="url(#clip890)" d="M1571.89 1533.96 L1584.37 1533.96 L1584.37 1537.76 L1571.89 1537.76 L1571.89 1533.96 Z" fill="#9eb1be" fill-rule="nonzero" fill-opacity="1" /><path clip-path="url(#clip890)" d="M1601.75 1517.37 Q1598.14 1517.37 1596.32 1520.93 Q1594.51 1524.47 1594.51 1531.6 Q1594.51 1538.71 1596.32 1542.27 Q1598.14 1545.82 1601.75 1545.82 Q1605.39 1545.82 1607.19 1542.27 Q1609.02 1538.71 1609.02 1531.6 Q1609.02 1524.47 1607.19 1520.93 Q1605.39 1517.37 1601.75 1517.37 M1601.75 1513.66 Q1607.57 1513.66 1610.62 1518.27 Q1613.7 1522.85 1613.7 1531.6 Q1613.7 1540.33 1610.62 1544.94 Q1607.57 1549.52 1601.75 1549.52 Q1595.94 1549.52 1592.87 1544.94 Q1589.81 1540.33 1589.81 1531.6 Q1589.81 1522.85 1592.87 1518.27 Q1595.94 1513.66 1601.75 1513.66 Z" fill="#9eb1be" fill-rule="nonzero" fill-opacity="1" /><path clip-path="url(#clip890)" d="M1634.76 1518.36 L1622.96 1536.81 L1634.76 1536.81 L1634.76 1518.36 M1633.54 1514.29 L1639.42 1514.29 L1639.42 1536.81 L1644.35 1536.81 L1644.35 1540.7 L1639.42 1540.7 L1639.42 1548.85 L1634.76 1548.85 L1634.76 1540.7 L1619.16 1540.7 L1619.16 1536.19 L1633.54 1514.29 Z" fill="#9eb1be" fill-rule="nonzero" fill-opacity="1" /><path clip-path="url(#clip890)" d="M1781.46 1544.91 L1797.78 1544.91 L1797.78 1548.85 L1775.84 1548.85 L1775.84 1544.91 Q1778.5 1542.16 1783.08 1537.53 Q1787.69 1532.88 1788.87 1531.53 Q1791.12 1529.01 1792 1527.27 Q1792.9 1525.51 1792.9 1523.82 Q1792.9 1521.07 1790.95 1519.33 Q1789.03 1517.6 1785.93 1517.6 Q1783.73 1517.6 1781.28 1518.36 Q1778.85 1519.13 1776.07 1520.68 L1776.07 1515.95 Q1778.89 1514.82 1781.35 1514.24 Q1783.8 1513.66 1785.84 1513.66 Q1791.21 1513.66 1794.4 1516.35 Q1797.6 1519.03 1797.6 1523.52 Q1797.6 1525.65 1796.79 1527.57 Q1796 1529.47 1793.89 1532.07 Q1793.32 1532.74 1790.21 1535.95 Q1787.11 1539.15 1781.46 1544.91 Z" fill="#9eb1be" fill-rule="nonzero" fill-opacity="1" /><path clip-path="url(#clip890)" d="M1817.6 1517.37 Q1813.99 1517.37 1812.16 1520.93 Q1810.35 1524.47 1810.35 1531.6 Q1810.35 1538.71 1812.16 1542.27 Q1813.99 1545.82 1817.6 1545.82 Q1821.23 1545.82 1823.04 1542.27 Q1824.87 1538.71 1824.87 1531.6 Q1824.87 1524.47 1823.04 1520.93 Q1821.23 1517.37 1817.6 1517.37 M1817.6 1513.66 Q1823.41 1513.66 1826.46 1518.27 Q1829.54 1522.85 1829.54 1531.6 Q1829.54 1540.33 1826.46 1544.94 Q1823.41 1549.52 1817.6 1549.52 Q1811.79 1549.52 1808.71 1544.94 Q1805.65 1540.33 1805.65 1531.6 Q1805.65 1522.85 1808.71 1518.27 Q1811.79 1513.66 1817.6 1513.66 Z" fill="#9eb1be" fill-rule="nonzero" fill-opacity="1" /><path clip-path="url(#clip890)" d="M1841.79 1544.91 L1858.11 1544.91 L1858.11 1548.85 L1836.16 1548.85 L1836.16 1544.91 Q1838.82 1542.16 1843.41 1537.53 Q1848.01 1532.88 1849.19 1531.53 Q1851.44 1529.01 1852.32 1527.27 Q1853.22 1525.51 1853.22 1523.82 Q1853.22 1521.07 1851.28 1519.33 Q1849.36 1517.6 1846.26 1517.6 Q1844.06 1517.6 1841.6 1518.36 Q1839.17 1519.13 1836.39 1520.68 L1836.39 1515.95 Q1839.22 1514.82 1841.67 1514.24 Q1844.13 1513.66 1846.16 1513.66 Q1851.53 1513.66 1854.73 1516.35 Q1857.92 1519.03 1857.92 1523.52 Q1857.92 1525.65 1857.11 1527.57 Q1856.32 1529.47 1854.22 1532.07 Q1853.64 1532.74 1850.54 1535.95 Q1847.44 1539.15 1841.79 1544.91 Z" fill="#9eb1be" fill-rule="nonzero" fill-opacity="1" /><path clip-path="url(#clip890)" d="M1877.92 1517.37 Q1874.31 1517.37 1872.48 1520.93 Q1870.68 1524.47 1870.68 1531.6 Q1870.68 1538.71 1872.48 1542.27 Q1874.31 1545.82 1877.92 1545.82 Q1881.56 1545.82 1883.36 1542.27 Q1885.19 1538.71 1885.19 1531.6 Q1885.19 1524.47 1883.36 1520.93 Q1881.56 1517.37 1877.92 1517.37 M1877.92 1513.66 Q1883.73 1513.66 1886.79 1518.27 Q1889.87 1522.85 1889.87 1531.6 Q1889.87 1540.33 1886.79 1544.94 Q1883.73 1549.52 1877.92 1549.52 Q1872.11 1549.52 1869.03 1544.94 Q1865.98 1540.33 1865.98 1531.6 Q1865.98 1522.85 1869.03 1518.27 Q1872.11 1513.66 1877.92 1513.66 Z" fill="#9eb1be" fill-rule="nonzero" fill-opacity="1" /><path clip-path="url(#clip890)" d="M1895.33 1533.96 L1907.81 1533.96 L1907.81 1537.76 L1895.33 1537.76 L1895.33 1533.96 Z" fill="#9eb1be" fill-rule="nonzero" fill-opacity="1" /><path clip-path="url(#clip890)" d="M1925.19 1517.37 Q1921.58 1517.37 1919.75 1520.93 Q1917.94 1524.47 1917.94 1531.6 Q1917.94 1538.71 1919.75 1542.27 Q1921.58 1545.82 1925.19 1545.82 Q1928.82 1545.82 1930.63 1542.27 Q1932.46 1538.71 1932.46 1531.6 Q1932.46 1524.47 1930.63 1520.93 Q1928.82 1517.37 1925.19 1517.37 M1925.19 1513.66 Q1931 1513.66 1934.06 1518.27 Q1937.13 1522.85 1937.13 1531.6 Q1937.13 1540.33 1934.06 1544.94 Q1931 1549.52 1925.19 1549.52 Q1919.38 1549.52 1916.3 1544.94 Q1913.25 1540.33 1913.25 1531.6 Q1913.25 1522.85 1916.3 1518.27 Q1919.38 1513.66 1925.19 1513.66 Z" fill="#9eb1be" fill-rule="nonzero" fill-opacity="1" /><path clip-path="url(#clip890)" d="M1946.16 1544.91 L1953.8 1544.91 L1953.8 1518.55 L1945.49 1520.21 L1945.49 1515.95 L1953.75 1514.29 L1958.43 1514.29 L1958.43 1544.91 L1966.07 1544.91 L1966.07 1548.85 L1946.16 1548.85 L1946.16 1544.91 Z" fill="#9eb1be" fill-rule="nonzero" fill-opacity="1" /><path clip-path="url(#clip890)" d="M1972.76 1533.96 L1985.24 1533.96 L1985.24 1537.76 L1972.76 1537.76 L1972.76 1533.96 Z" fill="#9eb1be" fill-rule="nonzero" fill-opacity="1" /><path clip-path="url(#clip890)" d="M2002.62 1517.37 Q1999.01 1517.37 1997.18 1520.93 Q1995.37 1524.47 1995.37 1531.6 Q1995.37 1538.71 1997.18 1542.27 Q1999.01 1545.82 2002.62 1545.82 Q2006.25 1545.82 2008.06 1542.27 Q2009.89 1538.71 2009.89 1531.6 Q2009.89 1524.47 2008.06 1520.93 Q2006.25 1517.37 2002.62 1517.37 M2002.62 1513.66 Q2008.43 1513.66 2011.49 1518.27 Q2014.56 1522.85 2014.56 1531.6 Q2014.56 1540.33 2011.49 1544.94 Q2008.43 1549.52 2002.62 1549.52 Q1996.81 1549.52 1993.73 1544.94 Q1990.68 1540.33 1990.68 1531.6 Q1990.68 1522.85 1993.73 1518.27 Q1996.81 1513.66 2002.62 1513.66 Z" fill="#9eb1be" fill-rule="nonzero" fill-opacity="1" /><path clip-path="url(#clip890)" d="M2022.83 1514.29 L2041.18 1514.29 L2041.18 1518.22 L2027.11 1518.22 L2027.11 1526.7 Q2028.13 1526.35 2029.15 1526.19 Q2030.17 1526 2031.18 1526 Q2036.97 1526 2040.35 1529.17 Q2043.73 1532.34 2043.73 1537.76 Q2043.73 1543.34 2040.26 1546.44 Q2036.79 1549.52 2030.47 1549.52 Q2028.29 1549.52 2026.02 1549.15 Q2023.78 1548.78 2021.37 1548.04 L2021.37 1543.34 Q2023.45 1544.47 2025.68 1545.03 Q2027.9 1545.58 2030.37 1545.58 Q2034.38 1545.58 2036.72 1543.48 Q2039.06 1541.37 2039.06 1537.76 Q2039.06 1534.15 2036.72 1532.04 Q2034.38 1529.94 2030.37 1529.94 Q2028.5 1529.94 2026.62 1530.35 Q2024.77 1530.77 2022.83 1531.65 L2022.83 1514.29 Z" fill="#9eb1be" fill-rule="nonzero" fill-opacity="1" /><path clip-path="url(#clip890)" d="M2181.01 1544.91 L2197.33 1544.91 L2197.33 1548.85 L2175.38 1548.85 L2175.38 1544.91 Q2178.05 1542.16 2182.63 1537.53 Q2187.24 1532.88 2188.42 1531.53 Q2190.66 1529.01 2191.54 1527.27 Q2192.44 1525.51 2192.44 1523.82 Q2192.44 1521.07 2190.5 1519.33 Q2188.58 1517.6 2185.48 1517.6 Q2183.28 1517.6 2180.82 1518.36 Q2178.39 1519.13 2175.62 1520.68 L2175.62 1515.95 Q2178.44 1514.82 2180.89 1514.24 Q2183.35 1513.66 2185.38 1513.66 Q2190.75 1513.66 2193.95 1516.35 Q2197.14 1519.03 2197.14 1523.52 Q2197.14 1525.65 2196.33 1527.57 Q2195.55 1529.47 2193.44 1532.07 Q2192.86 1532.74 2189.76 1535.95 Q2186.66 1539.15 2181.01 1544.91 Z" fill="#9eb1be" fill-rule="nonzero" fill-opacity="1" /><path clip-path="url(#clip890)" d="M2217.14 1517.37 Q2213.53 1517.37 2211.7 1520.93 Q2209.9 1524.47 2209.9 1531.6 Q2209.9 1538.71 2211.7 1542.27 Q2213.53 1545.82 2217.14 1545.82 Q2220.78 1545.82 2222.58 1542.27 Q2224.41 1538.71 2224.41 1531.6 Q2224.41 1524.47 2222.58 1520.93 Q2220.78 1517.37 2217.14 1517.37 M2217.14 1513.66 Q2222.95 1513.66 2226.01 1518.27 Q2229.09 1522.85 2229.09 1531.6 Q2229.09 1540.33 2226.01 1544.94 Q2222.95 1549.52 2217.14 1549.52 Q2211.33 1549.52 2208.25 1544.94 Q2205.2 1540.33 2205.2 1531.6 Q2205.2 1522.85 2208.25 1518.27 Q2211.33 1513.66 2217.14 1513.66 Z" fill="#9eb1be" fill-rule="nonzero" fill-opacity="1" /><path clip-path="url(#clip890)" d="M2241.33 1544.91 L2257.65 1544.91 L2257.65 1548.85 L2235.71 1548.85 L2235.71 1544.91 Q2238.37 1542.16 2242.95 1537.53 Q2247.56 1532.88 2248.74 1531.53 Q2250.99 1529.01 2251.87 1527.27 Q2252.77 1525.51 2252.77 1523.82 Q2252.77 1521.07 2250.82 1519.33 Q2248.9 1517.6 2245.8 1517.6 Q2243.6 1517.6 2241.15 1518.36 Q2238.72 1519.13 2235.94 1520.68 L2235.94 1515.95 Q2238.76 1514.82 2241.22 1514.24 Q2243.67 1513.66 2245.71 1513.66 Q2251.08 1513.66 2254.27 1516.35 Q2257.47 1519.03 2257.47 1523.52 Q2257.47 1525.65 2256.66 1527.57 Q2255.87 1529.47 2253.76 1532.07 Q2253.19 1532.74 2250.08 1535.95 Q2246.98 1539.15 2241.33 1544.91 Z" fill="#9eb1be" fill-rule="nonzero" fill-opacity="1" /><path clip-path="url(#clip890)" d="M2277.47 1517.37 Q2273.86 1517.37 2272.03 1520.93 Q2270.22 1524.47 2270.22 1531.6 Q2270.22 1538.71 2272.03 1542.27 Q2273.86 1545.82 2277.47 1545.82 Q2281.1 1545.82 2282.91 1542.27 Q2284.74 1538.71 2284.74 1531.6 Q2284.74 1524.47 2282.91 1520.93 Q2281.1 1517.37 2277.47 1517.37 M2277.47 1513.66 Q2283.28 1513.66 2286.33 1518.27 Q2289.41 1522.85 2289.41 1531.6 Q2289.41 1540.33 2286.33 1544.94 Q2283.28 1549.52 2277.47 1549.52 Q2271.66 1549.52 2268.58 1544.94 Q2265.52 1540.33 2265.52 1531.6 Q2265.52 1522.85 2268.58 1518.27 Q2271.66 1513.66 2277.47 1513.66 Z" fill="#9eb1be" fill-rule="nonzero" fill-opacity="1" /><path clip-path="url(#clip890)" d="M2294.87 1533.96 L2307.35 1533.96 L2307.35 1537.76 L2294.87 1537.76 L2294.87 1533.96 Z" fill="#9eb1be" fill-rule="nonzero" fill-opacity="1" /><path clip-path="url(#clip890)" d="M2324.74 1517.37 Q2321.12 1517.37 2319.3 1520.93 Q2317.49 1524.47 2317.49 1531.6 Q2317.49 1538.71 2319.3 1542.27 Q2321.12 1545.82 2324.74 1545.82 Q2328.37 1545.82 2330.18 1542.27 Q2332 1538.71 2332 1531.6 Q2332 1524.47 2330.18 1520.93 Q2328.37 1517.37 2324.74 1517.37 M2324.74 1513.66 Q2330.55 1513.66 2333.6 1518.27 Q2336.68 1522.85 2336.68 1531.6 Q2336.68 1540.33 2333.6 1544.94 Q2330.55 1549.52 2324.74 1549.52 Q2318.93 1549.52 2315.85 1544.94 Q2312.79 1540.33 2312.79 1531.6 Q2312.79 1522.85 2315.85 1518.27 Q2318.93 1513.66 2324.74 1513.66 Z" fill="#9eb1be" fill-rule="nonzero" fill-opacity="1" /><path clip-path="url(#clip890)" d="M2345.71 1544.91 L2353.35 1544.91 L2353.35 1518.55 L2345.04 1520.21 L2345.04 1515.95 L2353.3 1514.29 L2357.98 1514.29 L2357.98 1544.91 L2365.61 1544.91 L2365.61 1548.85 L2345.71 1548.85 L2345.71 1544.91 Z" fill="#9eb1be" fill-rule="nonzero" fill-opacity="1" /><path clip-path="url(#clip890)" d="M2372.3 1533.96 L2384.78 1533.96 L2384.78 1537.76 L2372.3 1537.76 L2372.3 1533.96 Z" fill="#9eb1be" fill-rule="nonzero" fill-opacity="1" /><path clip-path="url(#clip890)" d="M2402.17 1517.37 Q2398.55 1517.37 2396.73 1520.93 Q2394.92 1524.47 2394.92 1531.6 Q2394.92 1538.71 2396.73 1542.27 Q2398.55 1545.82 2402.17 1545.82 Q2405.8 1545.82 2407.61 1542.27 Q2409.43 1538.71 2409.43 1531.6 Q2409.43 1524.47 2407.61 1520.93 Q2405.8 1517.37 2402.17 1517.37 M2402.17 1513.66 Q2407.98 1513.66 2411.03 1518.27 Q2414.11 1522.85 2414.11 1531.6 Q2414.11 1540.33 2411.03 1544.94 Q2407.98 1549.52 2402.17 1549.52 Q2396.36 1549.52 2393.28 1544.94 Q2390.22 1540.33 2390.22 1531.6 Q2390.22 1522.85 2393.28 1518.27 Q2396.36 1513.66 2402.17 1513.66 Z" fill="#9eb1be" fill-rule="nonzero" fill-opacity="1" /><path clip-path="url(#clip890)" d="M2432.91 1529.7 Q2429.76 1529.7 2427.91 1531.86 Q2426.08 1534.01 2426.08 1537.76 Q2426.08 1541.49 2427.91 1543.66 Q2429.76 1545.82 2432.91 1545.82 Q2436.05 1545.82 2437.88 1543.66 Q2439.73 1541.49 2439.73 1537.76 Q2439.73 1534.01 2437.88 1531.86 Q2436.05 1529.7 2432.91 1529.7 M2442.19 1515.05 L2442.19 1519.31 Q2440.43 1518.48 2438.62 1518.04 Q2436.84 1517.6 2435.08 1517.6 Q2430.45 1517.6 2428 1520.72 Q2425.57 1523.85 2425.22 1530.17 Q2426.59 1528.15 2428.65 1527.09 Q2430.71 1526 2433.18 1526 Q2438.39 1526 2441.4 1529.17 Q2444.43 1532.32 2444.43 1537.76 Q2444.43 1543.08 2441.29 1546.3 Q2438.14 1549.52 2432.91 1549.52 Q2426.91 1549.52 2423.74 1544.94 Q2420.57 1540.33 2420.57 1531.6 Q2420.57 1523.41 2424.46 1518.55 Q2428.35 1513.66 2434.9 1513.66 Q2436.66 1513.66 2438.44 1514.01 Q2440.24 1514.36 2442.19 1515.05 Z" fill="#9eb1be" fill-rule="nonzero" fill-opacity="1" /><polyline clip-path="url(#clip890)" style="stroke:#adb2b7; stroke-linecap:round; stroke-linejoin:round; stroke-width:4; stroke-opacity:1; fill:none" points="249.769,1486.45 249.769,123.472 "/>
<polyline clip-path="url(#clip890)" style="stroke:#adb2b7; stroke-linecap:round; stroke-linejoin:round; stroke-width:4; stroke-opacity:1; fill:none" points="249.769,1419.8 268.667,1419.8 "/>
<polyline clip-path="url(#clip890)" style="stroke:#adb2b7; stroke-linecap:round; stroke-linejoin:round; stroke-width:4; stroke-opacity:1; fill:none" points="249.769,1168.25 268.667,1168.25 "/>
<polyline clip-path="url(#clip890)" style="stroke:#adb2b7; stroke-linecap:round; stroke-linejoin:round; stroke-width:4; stroke-opacity:1; fill:none" points="249.769,916.696 268.667,916.696 "/>
<polyline clip-path="url(#clip890)" style="stroke:#adb2b7; stroke-linecap:round; stroke-linejoin:round; stroke-width:4; stroke-opacity:1; fill:none" points="249.769,665.146 268.667,665.146 "/>
<polyline clip-path="url(#clip890)" style="stroke:#adb2b7; stroke-linecap:round; stroke-linejoin:round; stroke-width:4; stroke-opacity:1; fill:none" points="249.769,413.597 268.667,413.597 "/>
<polyline clip-path="url(#clip890)" style="stroke:#adb2b7; stroke-linecap:round; stroke-linejoin:round; stroke-width:4; stroke-opacity:1; fill:none" points="249.769,162.047 268.667,162.047 "/>
<path clip-path="url(#clip890)" d="M50.9921 1422.19 L63.4689 1422.19 L63.4689 1425.99 L50.9921 1425.99 L50.9921 1422.19 Z" fill="#9eb1be" fill-rule="nonzero" fill-opacity="1" /><path clip-path="url(#clip890)" d="M74.8809 1433.14 L91.2002 1433.14 L91.2002 1437.08 L69.2559 1437.08 L69.2559 1433.14 Q71.9179 1430.39 76.5012 1425.76 Q81.1077 1421.1 82.2883 1419.76 Q84.5336 1417.24 85.4132 1415.5 Q86.316 1413.74 86.316 1412.05 Q86.316 1409.3 84.3716 1407.56 Q82.4503 1405.83 79.3485 1405.83 Q77.1494 1405.83 74.6957 1406.59 Q72.2652 1407.35 69.4874 1408.9 L69.4874 1404.18 Q72.3115 1403.05 74.7651 1402.47 Q77.2188 1401.89 79.2559 1401.89 Q84.6262 1401.89 87.8206 1404.58 Q91.0151 1407.26 91.0151 1411.75 Q91.0151 1413.88 90.2049 1415.8 Q89.4178 1417.7 87.3114 1420.29 Q86.7327 1420.96 83.6308 1424.18 Q80.529 1427.38 74.8809 1433.14 Z" fill="#9eb1be" fill-rule="nonzero" fill-opacity="1" /><path clip-path="url(#clip890)" d="M101.061 1402.52 L119.418 1402.52 L119.418 1406.45 L105.344 1406.45 L105.344 1414.92 Q106.362 1414.58 107.381 1414.41 Q108.399 1414.23 109.418 1414.23 Q115.205 1414.23 118.584 1417.4 Q121.964 1420.57 121.964 1425.99 Q121.964 1431.57 118.492 1434.67 Q115.02 1437.75 108.7 1437.75 Q106.524 1437.75 104.256 1437.38 Q102.01 1437.01 99.603 1436.27 L99.603 1431.57 Q101.686 1432.7 103.909 1433.26 Q106.131 1433.81 108.608 1433.81 Q112.612 1433.81 114.95 1431.7 Q117.288 1429.6 117.288 1425.99 Q117.288 1422.38 114.95 1420.27 Q112.612 1418.16 108.608 1418.16 Q106.733 1418.16 104.858 1418.58 Q103.006 1419 101.061 1419.88 L101.061 1402.52 Z" fill="#9eb1be" fill-rule="nonzero" fill-opacity="1" /><path clip-path="url(#clip890)" d="M131.177 1431.2 L136.061 1431.2 L136.061 1437.08 L131.177 1437.08 L131.177 1431.2 Z" fill="#9eb1be" fill-rule="nonzero" fill-opacity="1" /><path clip-path="url(#clip890)" d="M156.246 1405.59 Q152.635 1405.59 150.806 1409.16 Q149.001 1412.7 149.001 1419.83 Q149.001 1426.94 150.806 1430.5 Q152.635 1434.04 156.246 1434.04 Q159.88 1434.04 161.686 1430.5 Q163.515 1426.94 163.515 1419.83 Q163.515 1412.7 161.686 1409.16 Q159.88 1405.59 156.246 1405.59 M156.246 1401.89 Q162.056 1401.89 165.112 1406.5 Q168.191 1411.08 168.191 1419.83 Q168.191 1428.56 165.112 1433.16 Q162.056 1437.75 156.246 1437.75 Q150.436 1437.75 147.357 1433.16 Q144.302 1428.56 144.302 1419.83 Q144.302 1411.08 147.357 1406.5 Q150.436 1401.89 156.246 1401.89 Z" fill="#9eb1be" fill-rule="nonzero" fill-opacity="1" /><path clip-path="url(#clip890)" d="M205.806 1421.87 Q203.792 1421.87 202.635 1423.58 Q201.501 1425.29 201.501 1428.35 Q201.501 1431.36 202.635 1433.09 Q203.792 1434.81 205.806 1434.81 Q207.774 1434.81 208.908 1433.09 Q210.065 1431.36 210.065 1428.35 Q210.065 1425.32 208.908 1423.6 Q207.774 1421.87 205.806 1421.87 M205.806 1418.93 Q209.463 1418.93 211.616 1421.47 Q213.769 1424.02 213.769 1428.35 Q213.769 1432.68 211.593 1435.22 Q209.44 1437.75 205.806 1437.75 Q202.102 1437.75 199.95 1435.22 Q197.797 1432.68 197.797 1428.35 Q197.797 1424 199.95 1421.47 Q202.126 1418.93 205.806 1418.93 M181.917 1404.83 Q179.927 1404.83 178.769 1406.57 Q177.635 1408.28 177.635 1411.29 Q177.635 1414.34 178.769 1416.06 Q179.903 1417.77 181.917 1417.77 Q183.931 1417.77 185.065 1416.06 Q186.223 1414.34 186.223 1411.29 Q186.223 1408.3 185.065 1406.57 Q183.908 1404.83 181.917 1404.83 M202.82 1401.89 L206.524 1401.89 L184.903 1437.75 L181.2 1437.75 L202.82 1401.89 M181.917 1401.89 Q185.575 1401.89 187.751 1404.44 Q189.927 1406.96 189.927 1411.29 Q189.927 1415.66 187.751 1418.19 Q185.598 1420.71 181.917 1420.71 Q178.237 1420.71 176.084 1418.19 Q173.954 1415.64 173.954 1411.29 Q173.954 1406.98 176.107 1404.44 Q178.26 1401.89 181.917 1401.89 Z" fill="#9eb1be" fill-rule="nonzero" fill-opacity="1" /><path clip-path="url(#clip890)" d="M50.9921 1170.64 L63.4689 1170.64 L63.4689 1174.44 L50.9921 1174.44 L50.9921 1170.64 Z" fill="#9eb1be" fill-rule="nonzero" fill-opacity="1" /><path clip-path="url(#clip890)" d="M74.8809 1181.59 L91.2002 1181.59 L91.2002 1185.53 L69.2559 1185.53 L69.2559 1181.59 Q71.9179 1178.84 76.5012 1174.21 Q81.1077 1169.55 82.2883 1168.21 Q84.5336 1165.69 85.4132 1163.95 Q86.316 1162.19 86.316 1160.5 Q86.316 1157.75 84.3716 1156.01 Q82.4503 1154.28 79.3485 1154.28 Q77.1494 1154.28 74.6957 1155.04 Q72.2652 1155.8 69.4874 1157.35 L69.4874 1152.63 Q72.3115 1151.5 74.7651 1150.92 Q77.2188 1150.34 79.2559 1150.34 Q84.6262 1150.34 87.8206 1153.03 Q91.0151 1155.71 91.0151 1160.2 Q91.0151 1162.33 90.2049 1164.25 Q89.4178 1166.15 87.3114 1168.74 Q86.7327 1169.41 83.6308 1172.63 Q80.529 1175.83 74.8809 1181.59 Z" fill="#9eb1be" fill-rule="nonzero" fill-opacity="1" /><path clip-path="url(#clip890)" d="M111.015 1154.04 Q107.404 1154.04 105.575 1157.61 Q103.77 1161.15 103.77 1168.28 Q103.77 1175.39 105.575 1178.95 Q107.404 1182.49 111.015 1182.49 Q114.649 1182.49 116.455 1178.95 Q118.283 1175.39 118.283 1168.28 Q118.283 1161.15 116.455 1157.61 Q114.649 1154.04 111.015 1154.04 M111.015 1150.34 Q116.825 1150.34 119.881 1154.95 Q122.959 1159.53 122.959 1168.28 Q122.959 1177.01 119.881 1181.61 Q116.825 1186.2 111.015 1186.2 Q105.205 1186.2 102.126 1181.61 Q99.0706 1177.01 99.0706 1168.28 Q99.0706 1159.53 102.126 1154.95 Q105.205 1150.34 111.015 1150.34 Z" fill="#9eb1be" fill-rule="nonzero" fill-opacity="1" /><path clip-path="url(#clip890)" d="M131.177 1179.65 L136.061 1179.65 L136.061 1185.53 L131.177 1185.53 L131.177 1179.65 Z" fill="#9eb1be" fill-rule="nonzero" fill-opacity="1" /><path clip-path="url(#clip890)" d="M156.246 1154.04 Q152.635 1154.04 150.806 1157.61 Q149.001 1161.15 149.001 1168.28 Q149.001 1175.39 150.806 1178.95 Q152.635 1182.49 156.246 1182.49 Q159.88 1182.49 161.686 1178.95 Q163.515 1175.39 163.515 1168.28 Q163.515 1161.15 161.686 1157.61 Q159.88 1154.04 156.246 1154.04 M156.246 1150.34 Q162.056 1150.34 165.112 1154.95 Q168.191 1159.53 168.191 1168.28 Q168.191 1177.01 165.112 1181.61 Q162.056 1186.2 156.246 1186.2 Q150.436 1186.2 147.357 1181.61 Q144.302 1177.01 144.302 1168.28 Q144.302 1159.53 147.357 1154.95 Q150.436 1150.34 156.246 1150.34 Z" fill="#9eb1be" fill-rule="nonzero" fill-opacity="1" /><path clip-path="url(#clip890)" d="M205.806 1170.32 Q203.792 1170.32 202.635 1172.03 Q201.501 1173.74 201.501 1176.8 Q201.501 1179.81 202.635 1181.54 Q203.792 1183.26 205.806 1183.26 Q207.774 1183.26 208.908 1181.54 Q210.065 1179.81 210.065 1176.8 Q210.065 1173.77 208.908 1172.05 Q207.774 1170.32 205.806 1170.32 M205.806 1167.38 Q209.463 1167.38 211.616 1169.92 Q213.769 1172.47 213.769 1176.8 Q213.769 1181.13 211.593 1183.67 Q209.44 1186.2 205.806 1186.2 Q202.102 1186.2 199.95 1183.67 Q197.797 1181.13 197.797 1176.8 Q197.797 1172.45 199.95 1169.92 Q202.126 1167.38 205.806 1167.38 M181.917 1153.28 Q179.927 1153.28 178.769 1155.02 Q177.635 1156.73 177.635 1159.74 Q177.635 1162.79 178.769 1164.51 Q179.903 1166.22 181.917 1166.22 Q183.931 1166.22 185.065 1164.51 Q186.223 1162.79 186.223 1159.74 Q186.223 1156.75 185.065 1155.02 Q183.908 1153.28 181.917 1153.28 M202.82 1150.34 L206.524 1150.34 L184.903 1186.2 L181.2 1186.2 L202.82 1150.34 M181.917 1150.34 Q185.575 1150.34 187.751 1152.89 Q189.927 1155.41 189.927 1159.74 Q189.927 1164.11 187.751 1166.64 Q185.598 1169.16 181.917 1169.16 Q178.237 1169.16 176.084 1166.64 Q173.954 1164.09 173.954 1159.74 Q173.954 1155.43 176.107 1152.89 Q178.26 1150.34 181.917 1150.34 Z" fill="#9eb1be" fill-rule="nonzero" fill-opacity="1" /><path clip-path="url(#clip890)" d="M50.9921 919.092 L63.4689 919.092 L63.4689 922.888 L50.9921 922.888 L50.9921 919.092 Z" fill="#9eb1be" fill-rule="nonzero" fill-opacity="1" /><path clip-path="url(#clip890)" d="M71.6633 930.041 L79.3022 930.041 L79.3022 903.675 L70.992 905.342 L70.992 901.083 L79.2559 899.416 L83.9318 899.416 L83.9318 930.041 L91.5706 930.041 L91.5706 933.976 L71.6633 933.976 L71.6633 930.041 Z" fill="#9eb1be" fill-rule="nonzero" fill-opacity="1" /><path clip-path="url(#clip890)" d="M101.061 899.416 L119.418 899.416 L119.418 903.351 L105.344 903.351 L105.344 911.823 Q106.362 911.476 107.381 911.314 Q108.399 911.129 109.418 911.129 Q115.205 911.129 118.584 914.3 Q121.964 917.471 121.964 922.888 Q121.964 928.467 118.492 931.569 Q115.02 934.647 108.7 934.647 Q106.524 934.647 104.256 934.277 Q102.01 933.906 99.603 933.166 L99.603 928.467 Q101.686 929.601 103.909 930.156 Q106.131 930.712 108.608 930.712 Q112.612 930.712 114.95 928.606 Q117.288 926.499 117.288 922.888 Q117.288 919.277 114.95 917.17 Q112.612 915.064 108.608 915.064 Q106.733 915.064 104.858 915.481 Q103.006 915.897 101.061 916.777 L101.061 899.416 Z" fill="#9eb1be" fill-rule="nonzero" fill-opacity="1" /><path clip-path="url(#clip890)" d="M131.177 928.096 L136.061 928.096 L136.061 933.976 L131.177 933.976 L131.177 928.096 Z" fill="#9eb1be" fill-rule="nonzero" fill-opacity="1" /><path clip-path="url(#clip890)" d="M156.246 902.495 Q152.635 902.495 150.806 906.059 Q149.001 909.601 149.001 916.731 Q149.001 923.837 150.806 927.402 Q152.635 930.944 156.246 930.944 Q159.88 930.944 161.686 927.402 Q163.515 923.837 163.515 916.731 Q163.515 909.601 161.686 906.059 Q159.88 902.495 156.246 902.495 M156.246 898.791 Q162.056 898.791 165.112 903.397 Q168.191 907.981 168.191 916.731 Q168.191 925.457 165.112 930.064 Q162.056 934.647 156.246 934.647 Q150.436 934.647 147.357 930.064 Q144.302 925.457 144.302 916.731 Q144.302 907.981 147.357 903.397 Q150.436 898.791 156.246 898.791 Z" fill="#9eb1be" fill-rule="nonzero" fill-opacity="1" /><path clip-path="url(#clip890)" d="M205.806 918.768 Q203.792 918.768 202.635 920.481 Q201.501 922.194 201.501 925.249 Q201.501 928.258 202.635 929.994 Q203.792 931.707 205.806 931.707 Q207.774 931.707 208.908 929.994 Q210.065 928.258 210.065 925.249 Q210.065 922.217 208.908 920.504 Q207.774 918.768 205.806 918.768 M205.806 915.828 Q209.463 915.828 211.616 918.374 Q213.769 920.92 213.769 925.249 Q213.769 929.578 211.593 932.124 Q209.44 934.647 205.806 934.647 Q202.102 934.647 199.95 932.124 Q197.797 929.578 197.797 925.249 Q197.797 920.897 199.95 918.374 Q202.126 915.828 205.806 915.828 M181.917 901.731 Q179.927 901.731 178.769 903.467 Q177.635 905.18 177.635 908.189 Q177.635 911.245 178.769 912.957 Q179.903 914.67 181.917 914.67 Q183.931 914.67 185.065 912.957 Q186.223 911.245 186.223 908.189 Q186.223 905.203 185.065 903.467 Q183.908 901.731 181.917 901.731 M202.82 898.791 L206.524 898.791 L184.903 934.647 L181.2 934.647 L202.82 898.791 M181.917 898.791 Q185.575 898.791 187.751 901.337 Q189.927 903.86 189.927 908.189 Q189.927 912.564 187.751 915.087 Q185.598 917.61 181.917 917.61 Q178.237 917.61 176.084 915.087 Q173.954 912.541 173.954 908.189 Q173.954 903.883 176.107 901.337 Q178.26 898.791 181.917 898.791 Z" fill="#9eb1be" fill-rule="nonzero" fill-opacity="1" /><path clip-path="url(#clip890)" d="M50.9921 667.542 L63.4689 667.542 L63.4689 671.338 L50.9921 671.338 L50.9921 667.542 Z" fill="#9eb1be" fill-rule="nonzero" fill-opacity="1" /><path clip-path="url(#clip890)" d="M71.6633 678.491 L79.3022 678.491 L79.3022 652.125 L70.992 653.792 L70.992 649.533 L79.2559 647.866 L83.9318 647.866 L83.9318 678.491 L91.5706 678.491 L91.5706 682.426 L71.6633 682.426 L71.6633 678.491 Z" fill="#9eb1be" fill-rule="nonzero" fill-opacity="1" /><path clip-path="url(#clip890)" d="M111.015 650.945 Q107.404 650.945 105.575 654.51 Q103.77 658.051 103.77 665.181 Q103.77 672.287 105.575 675.852 Q107.404 679.394 111.015 679.394 Q114.649 679.394 116.455 675.852 Q118.283 672.287 118.283 665.181 Q118.283 658.051 116.455 654.51 Q114.649 650.945 111.015 650.945 M111.015 647.241 Q116.825 647.241 119.881 651.848 Q122.959 656.431 122.959 665.181 Q122.959 673.908 119.881 678.514 Q116.825 683.098 111.015 683.098 Q105.205 683.098 102.126 678.514 Q99.0706 673.908 99.0706 665.181 Q99.0706 656.431 102.126 651.848 Q105.205 647.241 111.015 647.241 Z" fill="#9eb1be" fill-rule="nonzero" fill-opacity="1" /><path clip-path="url(#clip890)" d="M131.177 676.547 L136.061 676.547 L136.061 682.426 L131.177 682.426 L131.177 676.547 Z" fill="#9eb1be" fill-rule="nonzero" fill-opacity="1" /><path clip-path="url(#clip890)" d="M156.246 650.945 Q152.635 650.945 150.806 654.51 Q149.001 658.051 149.001 665.181 Q149.001 672.287 150.806 675.852 Q152.635 679.394 156.246 679.394 Q159.88 679.394 161.686 675.852 Q163.515 672.287 163.515 665.181 Q163.515 658.051 161.686 654.51 Q159.88 650.945 156.246 650.945 M156.246 647.241 Q162.056 647.241 165.112 651.848 Q168.191 656.431 168.191 665.181 Q168.191 673.908 165.112 678.514 Q162.056 683.098 156.246 683.098 Q150.436 683.098 147.357 678.514 Q144.302 673.908 144.302 665.181 Q144.302 656.431 147.357 651.848 Q150.436 647.241 156.246 647.241 Z" fill="#9eb1be" fill-rule="nonzero" fill-opacity="1" /><path clip-path="url(#clip890)" d="M205.806 667.218 Q203.792 667.218 202.635 668.931 Q201.501 670.644 201.501 673.699 Q201.501 676.709 202.635 678.445 Q203.792 680.158 205.806 680.158 Q207.774 680.158 208.908 678.445 Q210.065 676.709 210.065 673.699 Q210.065 670.667 208.908 668.954 Q207.774 667.218 205.806 667.218 M205.806 664.278 Q209.463 664.278 211.616 666.824 Q213.769 669.371 213.769 673.699 Q213.769 678.028 211.593 680.574 Q209.44 683.098 205.806 683.098 Q202.102 683.098 199.95 680.574 Q197.797 678.028 197.797 673.699 Q197.797 669.348 199.95 666.824 Q202.126 664.278 205.806 664.278 M181.917 650.181 Q179.927 650.181 178.769 651.917 Q177.635 653.63 177.635 656.639 Q177.635 659.695 178.769 661.408 Q179.903 663.121 181.917 663.121 Q183.931 663.121 185.065 661.408 Q186.223 659.695 186.223 656.639 Q186.223 653.653 185.065 651.917 Q183.908 650.181 181.917 650.181 M202.82 647.241 L206.524 647.241 L184.903 683.098 L181.2 683.098 L202.82 647.241 M181.917 647.241 Q185.575 647.241 187.751 649.788 Q189.927 652.311 189.927 656.639 Q189.927 661.014 187.751 663.537 Q185.598 666.061 181.917 666.061 Q178.237 666.061 176.084 663.537 Q173.954 660.991 173.954 656.639 Q173.954 652.334 176.107 649.788 Q178.26 647.241 181.917 647.241 Z" fill="#9eb1be" fill-rule="nonzero" fill-opacity="1" /><path clip-path="url(#clip890)" d="M81.154 415.992 L93.6308 415.992 L93.6308 419.789 L81.154 419.789 L81.154 415.992 Z" fill="#9eb1be" fill-rule="nonzero" fill-opacity="1" /><path clip-path="url(#clip890)" d="M101.061 396.317 L119.418 396.317 L119.418 400.252 L105.344 400.252 L105.344 408.724 Q106.362 408.377 107.381 408.215 Q108.399 408.029 109.418 408.029 Q115.205 408.029 118.584 411.201 Q121.964 414.372 121.964 419.789 Q121.964 425.367 118.492 428.469 Q115.02 431.548 108.7 431.548 Q106.524 431.548 104.256 431.177 Q102.01 430.807 99.603 430.066 L99.603 425.367 Q101.686 426.502 103.909 427.057 Q106.131 427.613 108.608 427.613 Q112.612 427.613 114.95 425.506 Q117.288 423.4 117.288 419.789 Q117.288 416.178 114.95 414.071 Q112.612 411.965 108.608 411.965 Q106.733 411.965 104.858 412.381 Q103.006 412.798 101.061 413.678 L101.061 396.317 Z" fill="#9eb1be" fill-rule="nonzero" fill-opacity="1" /><path clip-path="url(#clip890)" d="M131.177 424.997 L136.061 424.997 L136.061 430.877 L131.177 430.877 L131.177 424.997 Z" fill="#9eb1be" fill-rule="nonzero" fill-opacity="1" /><path clip-path="url(#clip890)" d="M156.246 399.395 Q152.635 399.395 150.806 402.96 Q149.001 406.502 149.001 413.631 Q149.001 420.738 150.806 424.303 Q152.635 427.844 156.246 427.844 Q159.88 427.844 161.686 424.303 Q163.515 420.738 163.515 413.631 Q163.515 406.502 161.686 402.96 Q159.88 399.395 156.246 399.395 M156.246 395.692 Q162.056 395.692 165.112 400.298 Q168.191 404.881 168.191 413.631 Q168.191 422.358 165.112 426.965 Q162.056 431.548 156.246 431.548 Q150.436 431.548 147.357 426.965 Q144.302 422.358 144.302 413.631 Q144.302 404.881 147.357 400.298 Q150.436 395.692 156.246 395.692 Z" fill="#9eb1be" fill-rule="nonzero" fill-opacity="1" /><path clip-path="url(#clip890)" d="M205.806 415.668 Q203.792 415.668 202.635 417.381 Q201.501 419.094 201.501 422.15 Q201.501 425.159 202.635 426.895 Q203.792 428.608 205.806 428.608 Q207.774 428.608 208.908 426.895 Q210.065 425.159 210.065 422.15 Q210.065 419.117 208.908 417.404 Q207.774 415.668 205.806 415.668 M205.806 412.729 Q209.463 412.729 211.616 415.275 Q213.769 417.821 213.769 422.15 Q213.769 426.478 211.593 429.025 Q209.44 431.548 205.806 431.548 Q202.102 431.548 199.95 429.025 Q197.797 426.478 197.797 422.15 Q197.797 417.798 199.95 415.275 Q202.126 412.729 205.806 412.729 M181.917 398.631 Q179.927 398.631 178.769 400.367 Q177.635 402.08 177.635 405.09 Q177.635 408.145 178.769 409.858 Q179.903 411.571 181.917 411.571 Q183.931 411.571 185.065 409.858 Q186.223 408.145 186.223 405.09 Q186.223 402.104 185.065 400.367 Q183.908 398.631 181.917 398.631 M202.82 395.692 L206.524 395.692 L184.903 431.548 L181.2 431.548 L202.82 395.692 M181.917 395.692 Q185.575 395.692 187.751 398.238 Q189.927 400.761 189.927 405.09 Q189.927 409.465 187.751 411.988 Q185.598 414.511 181.917 414.511 Q178.237 414.511 176.084 411.988 Q173.954 409.442 173.954 405.09 Q173.954 400.784 176.107 398.238 Q178.26 395.692 181.917 395.692 Z" fill="#9eb1be" fill-rule="nonzero" fill-opacity="1" /><path clip-path="url(#clip890)" d="M111.015 147.846 Q107.404 147.846 105.575 151.41 Q103.77 154.952 103.77 162.082 Q103.77 169.188 105.575 172.753 Q107.404 176.295 111.015 176.295 Q114.649 176.295 116.455 172.753 Q118.283 169.188 118.283 162.082 Q118.283 154.952 116.455 151.41 Q114.649 147.846 111.015 147.846 M111.015 144.142 Q116.825 144.142 119.881 148.748 Q122.959 153.332 122.959 162.082 Q122.959 170.808 119.881 175.415 Q116.825 179.998 111.015 179.998 Q105.205 179.998 102.126 175.415 Q99.0706 170.808 99.0706 162.082 Q99.0706 153.332 102.126 148.748 Q105.205 144.142 111.015 144.142 Z" fill="#9eb1be" fill-rule="nonzero" fill-opacity="1" /><path clip-path="url(#clip890)" d="M131.177 173.447 L136.061 173.447 L136.061 179.327 L131.177 179.327 L131.177 173.447 Z" fill="#9eb1be" fill-rule="nonzero" fill-opacity="1" /><path clip-path="url(#clip890)" d="M156.246 147.846 Q152.635 147.846 150.806 151.41 Q149.001 154.952 149.001 162.082 Q149.001 169.188 150.806 172.753 Q152.635 176.295 156.246 176.295 Q159.88 176.295 161.686 172.753 Q163.515 169.188 163.515 162.082 Q163.515 154.952 161.686 151.41 Q159.88 147.846 156.246 147.846 M156.246 144.142 Q162.056 144.142 165.112 148.748 Q168.191 153.332 168.191 162.082 Q168.191 170.808 165.112 175.415 Q162.056 179.998 156.246 179.998 Q150.436 179.998 147.357 175.415 Q144.302 170.808 144.302 162.082 Q144.302 153.332 147.357 148.748 Q150.436 144.142 156.246 144.142 Z" fill="#9eb1be" fill-rule="nonzero" fill-opacity="1" /><path clip-path="url(#clip890)" d="M205.806 164.119 Q203.792 164.119 202.635 165.832 Q201.501 167.545 201.501 170.6 Q201.501 173.609 202.635 175.345 Q203.792 177.058 205.806 177.058 Q207.774 177.058 208.908 175.345 Q210.065 173.609 210.065 170.6 Q210.065 167.568 208.908 165.855 Q207.774 164.119 205.806 164.119 M205.806 161.179 Q209.463 161.179 211.616 163.725 Q213.769 166.271 213.769 170.6 Q213.769 174.929 211.593 177.475 Q209.44 179.998 205.806 179.998 Q202.102 179.998 199.95 177.475 Q197.797 174.929 197.797 170.6 Q197.797 166.248 199.95 163.725 Q202.126 161.179 205.806 161.179 M181.917 147.082 Q179.927 147.082 178.769 148.818 Q177.635 150.531 177.635 153.54 Q177.635 156.596 178.769 158.309 Q179.903 160.021 181.917 160.021 Q183.931 160.021 185.065 158.309 Q186.223 156.596 186.223 153.54 Q186.223 150.554 185.065 148.818 Q183.908 147.082 181.917 147.082 M202.82 144.142 L206.524 144.142 L184.903 179.998 L181.2 179.998 L202.82 144.142 M181.917 144.142 Q185.575 144.142 187.751 146.688 Q189.927 149.211 189.927 153.54 Q189.927 157.915 187.751 160.438 Q185.598 162.961 181.917 162.961 Q178.237 162.961 176.084 160.438 Q173.954 157.892 173.954 153.54 Q173.954 149.234 176.107 146.688 Q178.26 144.142 181.917 144.142 Z" fill="#9eb1be" fill-rule="nonzero" fill-opacity="1" /><path clip-path="url(#clip890)" d="M843.308 12.096 L881.548 12.096 L881.548 18.9825 L851.491 18.9825 L851.491 36.8875 L880.293 36.8875 L880.293 43.7741 L851.491 43.7741 L851.491 65.6895 L882.277 65.6895 L882.277 72.576 L843.308 72.576 L843.308 12.096 Z" fill="#adb2b7" fill-rule="nonzero" fill-opacity="1" /><path clip-path="url(#clip890)" d="M899.858 49.9314 Q899.858 58.1548 903.221 62.8538 Q906.623 67.5124 912.538 67.5124 Q918.452 67.5124 921.855 62.8538 Q925.258 58.1548 925.258 49.9314 Q925.258 41.7081 921.855 37.0496 Q918.452 32.3505 912.538 32.3505 Q906.623 32.3505 903.221 37.0496 Q899.858 41.7081 899.858 49.9314 M925.258 65.7705 Q922.908 69.8214 919.303 71.8063 Q915.738 73.7508 910.715 73.7508 Q902.491 73.7508 897.306 67.1883 Q892.162 60.6258 892.162 49.9314 Q892.162 39.2371 897.306 32.6746 Q902.491 26.1121 910.715 26.1121 Q915.738 26.1121 919.303 28.0971 Q922.908 30.0415 925.258 34.0924 L925.258 27.2059 L932.711 27.2059 L932.711 89.8329 L925.258 89.8329 L925.258 65.7705 Z" fill="#adb2b7" fill-rule="nonzero" fill-opacity="1" /><path clip-path="url(#clip890)" d="M947.294 54.671 L947.294 27.2059 L954.748 27.2059 L954.748 54.3874 Q954.748 60.8284 957.26 64.0691 Q959.771 67.2693 964.794 67.2693 Q970.83 67.2693 974.314 63.421 Q977.838 59.5726 977.838 52.9291 L977.838 27.2059 L985.292 27.2059 L985.292 72.576 L977.838 72.576 L977.838 65.6084 Q975.124 69.7404 971.519 71.7658 Q967.954 73.7508 963.215 73.7508 Q955.396 73.7508 951.345 68.8897 Q947.294 64.0286 947.294 54.671 M966.05 26.1121 L966.05 26.1121 Z" fill="#adb2b7" fill-rule="nonzero" fill-opacity="1" /><path clip-path="url(#clip890)" d="M1000.64 27.2059 L1008.1 27.2059 L1008.1 72.576 L1000.64 72.576 L1000.64 27.2059 M1000.64 9.54393 L1008.1 9.54393 L1008.1 18.9825 L1000.64 18.9825 L1000.64 9.54393 Z" fill="#adb2b7" fill-rule="nonzero" fill-opacity="1" /><path clip-path="url(#clip890)" d="M1031.07 14.324 L1031.07 27.2059 L1046.42 27.2059 L1046.42 32.9987 L1031.07 32.9987 L1031.07 57.6282 Q1031.07 63.1779 1032.57 64.7578 Q1034.11 66.3376 1038.76 66.3376 L1046.42 66.3376 L1046.42 72.576 L1038.76 72.576 Q1030.14 72.576 1026.85 69.3758 Q1023.57 66.1351 1023.57 57.6282 L1023.57 32.9987 L1018.1 32.9987 L1018.1 27.2059 L1023.57 27.2059 L1023.57 14.324 L1031.07 14.324 Z" fill="#adb2b7" fill-rule="nonzero" fill-opacity="1" /><path clip-path="url(#clip890)" d="M1075.1 76.7889 Q1071.94 84.8907 1068.94 87.3618 Q1065.95 89.8329 1060.92 89.8329 L1054.97 89.8329 L1054.97 83.5945 L1059.34 83.5945 Q1062.42 83.5945 1064.12 82.1361 Q1065.82 80.6778 1067.89 75.2496 L1069.23 71.8468 L1050.88 27.2059 L1058.78 27.2059 L1072.95 62.6918 L1087.13 27.2059 L1095.03 27.2059 L1075.1 76.7889 Z" fill="#adb2b7" fill-rule="nonzero" fill-opacity="1" /><path clip-path="url(#clip890)" d="M1161.55 34.0924 L1161.55 9.54393 L1169 9.54393 L1169 72.576 L1161.55 72.576 L1161.55 65.7705 Q1159.2 69.8214 1155.59 71.8063 Q1152.03 73.7508 1147 73.7508 Q1138.78 73.7508 1133.6 67.1883 Q1128.45 60.6258 1128.45 49.9314 Q1128.45 39.2371 1133.6 32.6746 Q1138.78 26.1121 1147 26.1121 Q1152.03 26.1121 1155.59 28.0971 Q1159.2 30.0415 1161.55 34.0924 M1136.15 49.9314 Q1136.15 58.1548 1139.51 62.8538 Q1142.91 67.5124 1148.83 67.5124 Q1154.74 67.5124 1158.14 62.8538 Q1161.55 58.1548 1161.55 49.9314 Q1161.55 41.7081 1158.14 37.0496 Q1154.74 32.3505 1148.83 32.3505 Q1142.91 32.3505 1139.51 37.0496 Q1136.15 41.7081 1136.15 49.9314 Z" fill="#adb2b7" fill-rule="nonzero" fill-opacity="1" /><path clip-path="url(#clip890)" d="M1210.64 34.1734 Q1209.39 33.4443 1207.89 33.1202 Q1206.43 32.7556 1204.65 32.7556 Q1198.33 32.7556 1194.93 36.8875 Q1191.56 40.9789 1191.56 48.6757 L1191.56 72.576 L1184.07 72.576 L1184.07 27.2059 L1191.56 27.2059 L1191.56 34.2544 Q1193.91 30.1225 1197.68 28.1376 Q1201.45 26.1121 1206.84 26.1121 Q1207.61 26.1121 1208.54 26.2337 Q1209.47 26.3147 1210.6 26.5172 L1210.64 34.1734 Z" fill="#adb2b7" fill-rule="nonzero" fill-opacity="1" /><path clip-path="url(#clip890)" d="M1239.08 49.7694 Q1230.05 49.7694 1226.56 51.8354 Q1223.08 53.9013 1223.08 58.8839 Q1223.08 62.8538 1225.67 65.2034 Q1228.31 67.5124 1232.8 67.5124 Q1239 67.5124 1242.73 63.1374 Q1246.49 58.7219 1246.49 51.4303 L1246.49 49.7694 L1239.08 49.7694 M1253.95 46.6907 L1253.95 72.576 L1246.49 72.576 L1246.49 65.6895 Q1243.94 69.8214 1240.13 71.8063 Q1236.33 73.7508 1230.82 73.7508 Q1223.85 73.7508 1219.72 69.8619 Q1215.63 65.9325 1215.63 59.3701 Q1215.63 51.7138 1220.73 47.825 Q1225.88 43.9361 1236.04 43.9361 L1246.49 43.9361 L1246.49 43.2069 Q1246.49 38.0623 1243.09 35.2672 Q1239.73 32.4315 1233.61 32.4315 Q1229.72 32.4315 1226.04 33.3632 Q1222.35 34.295 1218.95 36.1584 L1218.95 29.2718 Q1223.04 27.692 1226.89 26.9223 Q1230.74 26.1121 1234.38 26.1121 Q1244.23 26.1121 1249.09 31.2163 Q1253.95 36.3204 1253.95 46.6907 Z" fill="#adb2b7" fill-rule="nonzero" fill-opacity="1" /><path clip-path="url(#clip890)" d="M1264.97 27.2059 L1272.42 27.2059 L1281.74 62.6108 L1291.01 27.2059 L1299.8 27.2059 L1309.12 62.6108 L1318.4 27.2059 L1325.85 27.2059 L1313.98 72.576 L1305.19 72.576 L1295.43 35.3887 L1285.63 72.576 L1276.84 72.576 L1264.97 27.2059 Z" fill="#adb2b7" fill-rule="nonzero" fill-opacity="1" /><path clip-path="url(#clip890)" d="M1367.01 34.0924 L1367.01 9.54393 L1374.46 9.54393 L1374.46 72.576 L1367.01 72.576 L1367.01 65.7705 Q1364.66 69.8214 1361.05 71.8063 Q1357.49 73.7508 1352.47 73.7508 Q1344.24 73.7508 1339.06 67.1883 Q1333.91 60.6258 1333.91 49.9314 Q1333.91 39.2371 1339.06 32.6746 Q1344.24 26.1121 1352.47 26.1121 Q1357.49 26.1121 1361.05 28.0971 Q1364.66 30.0415 1367.01 34.0924 M1341.61 49.9314 Q1341.61 58.1548 1344.97 62.8538 Q1348.37 67.5124 1354.29 67.5124 Q1360.2 67.5124 1363.61 62.8538 Q1367.01 58.1548 1367.01 49.9314 Q1367.01 41.7081 1363.61 37.0496 Q1360.2 32.3505 1354.29 32.3505 Q1348.37 32.3505 1344.97 37.0496 Q1341.61 41.7081 1341.61 49.9314 Z" fill="#adb2b7" fill-rule="nonzero" fill-opacity="1" /><path clip-path="url(#clip890)" d="M1407.4 32.4315 Q1401.4 32.4315 1397.92 37.1306 Q1394.43 41.7891 1394.43 49.9314 Q1394.43 58.0738 1397.88 62.7728 Q1401.36 67.4314 1407.4 67.4314 Q1413.35 67.4314 1416.83 62.7323 Q1420.32 58.0333 1420.32 49.9314 Q1420.32 41.8701 1416.83 37.1711 Q1413.35 32.4315 1407.4 32.4315 M1407.4 26.1121 Q1417.12 26.1121 1422.67 32.4315 Q1428.22 38.7509 1428.22 49.9314 Q1428.22 61.0714 1422.67 67.4314 Q1417.12 73.7508 1407.4 73.7508 Q1397.63 73.7508 1392.08 67.4314 Q1386.57 61.0714 1386.57 49.9314 Q1386.57 38.7509 1392.08 32.4315 Q1397.63 26.1121 1407.4 26.1121 Z" fill="#adb2b7" fill-rule="nonzero" fill-opacity="1" /><path clip-path="url(#clip890)" d="M1436.24 27.2059 L1443.69 27.2059 L1453.01 62.6108 L1462.29 27.2059 L1471.08 27.2059 L1480.39 62.6108 L1489.67 27.2059 L1497.12 27.2059 L1485.25 72.576 L1476.46 72.576 L1466.7 35.3887 L1456.9 72.576 L1448.11 72.576 L1436.24 27.2059 Z" fill="#adb2b7" fill-rule="nonzero" fill-opacity="1" /><path clip-path="url(#clip890)" d="M1546.14 45.1919 L1546.14 72.576 L1538.69 72.576 L1538.69 45.4349 Q1538.69 38.994 1536.17 35.7938 Q1533.66 32.5936 1528.64 32.5936 Q1522.6 32.5936 1519.12 36.4419 Q1515.64 40.2903 1515.64 46.9338 L1515.64 72.576 L1508.14 72.576 L1508.14 27.2059 L1515.64 27.2059 L1515.64 34.2544 Q1518.31 30.163 1521.92 28.1376 Q1525.56 26.1121 1530.3 26.1121 Q1538.12 26.1121 1542.13 30.9732 Q1546.14 35.7938 1546.14 45.1919 Z" fill="#adb2b7" fill-rule="nonzero" fill-opacity="1" /><path clip-path="url(#clip890)" d="M1589.93 28.5427 L1589.93 35.5912 Q1586.77 33.9709 1583.37 33.1607 Q1579.96 32.3505 1576.32 32.3505 Q1570.77 32.3505 1567.97 34.0519 Q1565.22 35.7533 1565.22 39.156 Q1565.22 41.7486 1567.2 43.2475 Q1569.19 44.7058 1575.18 46.0426 L1577.74 46.6097 Q1585.68 48.3111 1589 51.4303 Q1592.36 54.509 1592.36 60.0587 Q1592.36 66.3781 1587.34 70.0644 Q1582.35 73.7508 1573.6 73.7508 Q1569.96 73.7508 1565.99 73.0216 Q1562.06 72.3329 1557.68 70.9151 L1557.68 63.2184 Q1561.82 65.3654 1565.83 66.4591 Q1569.84 67.5124 1573.77 67.5124 Q1579.03 67.5124 1581.87 65.73 Q1584.7 63.9071 1584.7 60.6258 Q1584.7 57.5877 1582.64 55.9673 Q1580.61 54.3469 1573.69 52.8481 L1571.09 52.2405 Q1564.17 50.7821 1561.09 47.7845 Q1558.01 44.7463 1558.01 39.4801 Q1558.01 33.0797 1562.55 29.5959 Q1567.08 26.1121 1575.43 26.1121 Q1579.56 26.1121 1583.21 26.7198 Q1586.85 27.3274 1589.93 28.5427 Z" fill="#adb2b7" fill-rule="nonzero" fill-opacity="1" /><path clip-path="url(#clip890)" d="M1629.91 9.54393 L1647.09 9.54393 L1647.09 15.3367 L1637.37 15.3367 L1637.37 77.7206 L1647.09 77.7206 L1647.09 83.5134 L1629.91 83.5134 L1629.91 9.54393 Z" fill="#adb2b7" fill-rule="nonzero" fill-opacity="1" /><path clip-path="url(#clip890)" d="M1715.47 45.9616 Q1711.94 45.9616 1709.92 48.9592 Q1707.93 51.9569 1707.93 57.3041 Q1707.93 62.5703 1709.92 65.6084 Q1711.94 68.6061 1715.47 68.6061 Q1718.91 68.6061 1720.9 65.6084 Q1722.92 62.5703 1722.92 57.3041 Q1722.92 51.9974 1720.9 48.9997 Q1718.91 45.9616 1715.47 45.9616 M1715.47 40.8169 Q1721.87 40.8169 1725.64 45.2729 Q1729.4 49.7289 1729.4 57.3041 Q1729.4 64.8793 1725.59 69.3353 Q1721.83 73.7508 1715.47 73.7508 Q1708.99 73.7508 1705.22 69.3353 Q1701.45 64.8793 1701.45 57.3041 Q1701.45 49.6884 1705.22 45.2729 Q1709.03 40.8169 1715.47 40.8169 M1673.66 16.1469 Q1670.18 16.1469 1668.15 19.1851 Q1666.17 22.1828 1666.17 27.4489 Q1666.17 32.7961 1668.15 35.7938 Q1670.14 38.7915 1673.66 38.7915 Q1677.19 38.7915 1679.17 35.7938 Q1681.2 32.7961 1681.2 27.4489 Q1681.2 22.2233 1679.17 19.1851 Q1677.15 16.1469 1673.66 16.1469 M1710.24 11.0023 L1716.72 11.0023 L1678.89 73.7508 L1672.41 73.7508 L1710.24 11.0023 M1673.66 11.0023 Q1680.06 11.0023 1683.87 15.4583 Q1687.68 19.8737 1687.68 27.4489 Q1687.68 35.1051 1683.87 39.5206 Q1680.1 43.9361 1673.66 43.9361 Q1667.22 43.9361 1663.45 39.5206 Q1659.73 35.0646 1659.73 27.4489 Q1659.73 19.9142 1663.49 15.4583 Q1667.26 11.0023 1673.66 11.0023 Z" fill="#adb2b7" fill-rule="nonzero" fill-opacity="1" /><path clip-path="url(#clip890)" d="M1759.22 9.54393 L1759.22 83.5134 L1742.04 83.5134 L1742.04 77.7206 L1751.72 77.7206 L1751.72 15.3367 L1742.04 15.3367 L1742.04 9.54393 L1759.22 9.54393 Z" fill="#adb2b7" fill-rule="nonzero" fill-opacity="1" /><path clip-path="url(#clip891)" d="M309.288 162.047 L325.959 162.047 L325.959 162.047 L342.631 162.047 L342.631 162.047 L359.303 162.047 L359.303 162.047 L375.975 162.047 L375.975 162.047 L392.647 162.047 L392.647 162.047 L409.319 162.047 L409.319 162.047 L425.99 162.047 L425.99 162.047 L442.662 162.047 L442.662 162.047 L459.334 162.047 L459.334 162.047 L476.006 162.047 L476.006 162.047 L492.678 162.047 L492.678 162.047 L509.35 162.047 L509.35 162.047 L526.022 162.047 L526.022 162.047 L542.693 162.047 L542.693 162.047 L559.365 162.047 L559.365 162.047 L576.037 162.047 L576.037 162.047 L592.709 162.047 L592.709 162.047 L609.381 162.047 L609.381 162.047 L626.053 162.047 L626.053 162.047 L642.724 162.047 L642.724 162.047 L659.396 162.047 L659.396 162.047 L676.068 162.047 L676.068 162.047 L692.74 162.047 L692.74 166.072 L709.412 166.072 L709.412 309.502 L726.084 309.502 L726.084 179.613 L742.756 179.613 L742.756 162.047 L759.427 162.047 L759.427 162.047 L776.099 162.047 L776.099 162.047 L792.771 162.047 L792.771 162.047 L809.443 162.047 L809.443 162.047 L826.115 162.047 L826.115 168.395 L842.787 168.395 L842.787 210.874 L859.459 210.874 L859.459 280.943 L876.13 280.943 L876.13 373.028 L892.802 373.028 L892.802 480.01 L909.474 480.01 L909.474 593.861 L926.146 593.861 L926.146 713.499 L942.818 713.499 L942.818 610.465 L959.49 610.465 L959.49 515.167 L976.161 515.167 L976.161 444.466 L992.833 444.466 L992.833 400.809 L1009.51 400.809 L1009.51 388.956 L1026.18 388.956 L1026.18 410.788 L1042.85 410.788 L1042.85 464.858 L1059.52 464.858 L1059.52 546.563 L1076.19 546.563 L1076.19 648.88 L1092.86 648.88 L1092.86 767.995 L1109.54 767.995 L1109.54 892.742 L1126.21 892.742 L1126.21 779.706 L1142.88 779.706 L1142.88 672.894 L1159.55 672.894 L1159.55 579.469 L1176.22 579.469 L1176.22 506.036 L1192.9 506.036 L1192.9 457.883 L1209.57 457.883 L1209.57 438.473 L1226.24 438.473 L1226.24 453.858 L1242.91 453.858 L1242.91 493.478 L1259.58 493.478 L1259.58 558.832 L1276.25 558.832 L1276.25 644.727 L1292.93 644.727 L1292.93 744.529 L1309.6 744.529 L1309.6 850.754 L1326.27 850.754 L1326.27 962.474 L1342.94 962.474 L1342.94 866.314 L1359.61 866.314 L1359.61 785.92 L1376.29 785.92 L1376.29 720.114 L1392.96 720.114 L1392.96 679.49 L1409.63 679.49 L1409.63 668.463 L1426.3 668.463 L1426.3 688.774 L1442.97 688.774 L1442.97 739.08 L1459.65 739.08 L1459.65 815.114 L1476.32 815.114 L1476.32 910.36 L1492.99 910.36 L1492.99 1012.66 L1509.66 1012.66 L1509.66 1129.2 L1526.33 1129.2 L1526.33 1023.62 L1543 1023.62 L1543 923.866 L1559.68 923.866 L1559.68 836.625 L1576.35 836.625 L1576.35 768.061 L1593.02 768.061 L1593.02 723.104 L1609.69 723.104 L1609.69 704.984 L1626.36 704.984 L1626.36 710.423 L1643.04 710.423 L1643.04 747.484 L1659.71 747.484 L1659.71 808.62 L1676.38 808.62 L1676.38 888.98 L1693.05 888.98 L1693.05 982.359 L1709.72 982.359 L1709.72 1081.76 L1726.39 1081.76 L1726.39 1186.39 L1743.07 1186.39 L1743.07 1096.39 L1759.74 1096.39 L1759.74 1013.1 L1776.41 1013.1 L1776.41 951.433 L1793.08 951.433 L1793.08 913.373 L1809.75 913.373 L1809.75 903.043 L1826.43 903.043 L1826.43 922.068 L1843.1 922.068 L1843.1 969.195 L1859.77 969.195 L1859.77 1040.44 L1876.44 1040.44 L1876.44 1129.71 L1893.11 1129.71 L1893.11 1233.81 L1909.78 1233.81 L1909.78 1342.99 L1926.46 1342.99 L1926.46 1244.1 L1943.13 1244.1 L1943.13 1150.69 L1959.8 1150.69 L1959.8 1069.01 L1976.47 1069.01 L1976.47 1004.82 L1993.14 1004.82 L1993.14 962.736 L2009.82 962.736 L2009.82 945.775 L2026.49 945.775 L2026.49 959.312 L2043.16 959.312 L2043.16 993.933 L2059.83 993.933 L2059.83 1051.05 L2076.5 1051.05 L2076.5 1126.13 L2093.18 1126.13 L2093.18 1213.38 L2109.85 1213.38 L2109.85 1306.27 L2126.52 1306.27 L2126.52 1404.13 L2143.19 1404.13 L2143.19 1320 L2159.86 1320 L2159.86 1249.8 L2176.53 1249.8 L2176.53 1192.31 L2193.21 1192.31 L2193.21 1156.83 L2209.88 1156.83 L2209.88 1147.21 L2226.55 1147.21 L2226.55 1164.93 L2243.22 1164.93 L2243.22 1208.85 L2259.89 1208.85 L2259.89 1275.26 L2276.57 1275.26 L2276.57 1358.49 L2293.24 1358.49 L2293.24 1447.87 L2293.24 162.047 L2293.24 162.047 L2276.57 162.047 L2276.57 162.047 L2259.89 162.047 L2259.89 162.047 L2243.22 162.047 L2243.22 162.047 L2226.55 162.047 L2226.55 162.047 L2209.88 162.047 L2209.88 162.047 L2193.21 162.047 L2193.21 162.047 L2176.53 162.047 L2176.53 162.047 L2159.86 162.047 L2159.86 162.047 L2143.19 162.047 L2143.19 162.047 L2126.52 162.047 L2126.52 162.047 L2109.85 162.047 L2109.85 162.047 L2093.18 162.047 L2093.18 162.047 L2076.5 162.047 L2076.5 162.047 L2059.83 162.047 L2059.83 162.047 L2043.16 162.047 L2043.16 162.047 L2026.49 162.047 L2026.49 162.047 L2009.82 162.047 L2009.82 162.047 L1993.14 162.047 L1993.14 162.047 L1976.47 162.047 L1976.47 162.047 L1959.8 162.047 L1959.8 162.047 L1943.13 162.047 L1943.13 162.047 L1926.46 162.047 L1926.46 162.047 L1909.78 162.047 L1909.78 162.047 L1893.11 162.047 L1893.11 162.047 L1876.44 162.047 L1876.44 162.047 L1859.77 162.047 L1859.77 162.047 L1843.1 162.047 L1843.1 162.047 L1826.43 162.047 L1826.43 162.047 L1809.75 162.047 L1809.75 162.047 L1793.08 162.047 L1793.08 162.047 L1776.41 162.047 L1776.41 162.047 L1759.74 162.047 L1759.74 162.047 L1743.07 162.047 L1743.07 162.047 L1726.39 162.047 L1726.39 162.047 L1709.72 162.047 L1709.72 162.047 L1693.05 162.047 L1693.05 162.047 L1676.38 162.047 L1676.38 162.047 L1659.71 162.047 L1659.71 162.047 L1643.04 162.047 L1643.04 162.047 L1626.36 162.047 L1626.36 162.047 L1609.69 162.047 L1609.69 162.047 L1593.02 162.047 L1593.02 162.047 L1576.35 162.047 L1576.35 162.047 L1559.68 162.047 L1559.68 162.047 L1543 162.047 L1543 162.047 L1526.33 162.047 L1526.33 162.047 L1509.66 162.047 L1509.66 162.047 L1492.99 162.047 L1492.99 162.047 L1476.32 162.047 L1476.32 162.047 L1459.65 162.047 L1459.65 162.047 L1442.97 162.047 L1442.97 162.047 L1426.3 162.047 L1426.3 162.047 L1409.63 162.047 L1409.63 162.047 L1392.96 162.047 L1392.96 162.047 L1376.29 162.047 L1376.29 162.047 L1359.61 162.047 L1359.61 162.047 L1342.94 162.047 L1342.94 162.047 L1326.27 162.047 L1326.27 162.047 L1309.6 162.047 L1309.6 162.047 L1292.93 162.047 L1292.93 162.047 L1276.25 162.047 L1276.25 162.047 L1259.58 162.047 L1259.58 162.047 L1242.91 162.047 L1242.91 162.047 L1226.24 162.047 L1226.24 162.047 L1209.57 162.047 L1209.57 162.047 L1192.9 162.047 L1192.9 162.047 L1176.22 162.047 L1176.22 162.047 L1159.55 162.047 L1159.55 162.047 L1142.88 162.047 L1142.88 162.047 L1126.21 162.047 L1126.21 162.047 L1109.54 162.047 L1109.54 162.047 L1092.86 162.047 L1092.86 162.047 L1076.19 162.047 L1076.19 162.047 L1059.52 162.047 L1059.52 162.047 L1042.85 162.047 L1042.85 162.047 L1026.18 162.047 L1026.18 162.047 L1009.51 162.047 L1009.51 162.047 L992.833 162.047 L992.833 162.047 L976.161 162.047 L976.161 162.047 L959.49 162.047 L959.49 162.047 L942.818 162.047 L942.818 162.047 L926.146 162.047 L926.146 162.047 L909.474 162.047 L909.474 162.047 L892.802 162.047 L892.802 162.047 L876.13 162.047 L876.13 162.047 L859.459 162.047 L859.459 162.047 L842.787 162.047 L842.787 162.047 L826.115 162.047 L826.115 162.047 L809.443 162.047 L809.443 162.047 L792.771 162.047 L792.771 162.047 L776.099 162.047 L776.099 162.047 L759.427 162.047 L759.427 162.047 L742.756 162.047 L742.756 162.047 L726.084 162.047 L726.084 162.047 L709.412 162.047 L709.412 162.047 L692.74 162.047 L692.74 162.047 L676.068 162.047 L676.068 162.047 L659.396 162.047 L659.396 162.047 L642.724 162.047 L642.724 162.047 L626.053 162.047 L626.053 162.047 L609.381 162.047 L609.381 162.047 L592.709 162.047 L592.709 162.047 L576.037 162.047 L576.037 162.047 L559.365 162.047 L559.365 162.047 L542.693 162.047 L542.693 162.047 L526.022 162.047 L526.022 162.047 L509.35 162.047 L509.35 162.047 L492.678 162.047 L492.678 162.047 L476.006 162.047 L476.006 162.047 L459.334 162.047 L459.334 162.047 L442.662 162.047 L442.662 162.047 L425.99 162.047 L425.99 162.047 L409.319 162.047 L409.319 162.047 L392.647 162.047 L392.647 162.047 L375.975 162.047 L375.975 162.047 L359.303 162.047 L359.303 162.047 L342.631 162.047 L342.631 162.047 L325.959 162.047 L325.959 162.047 L309.288 162.047  Z" fill="#bb0000" fill-rule="evenodd" fill-opacity="0.2"/>
<polyline clip-path="url(#clip891)" style="stroke:#bb0000; stroke-linecap:round; stroke-linejoin:round; stroke-width:4; stroke-opacity:1; fill:none" points="309.288,162.047 325.959,162.047 342.631,162.047 359.303,162.047 375.975,162.047 392.647,162.047 409.319,162.047 425.99,162.047 442.662,162.047 459.334,162.047 476.006,162.047 492.678,162.047 509.35,162.047 526.022,162.047 542.693,162.047 559.365,162.047 576.037,162.047 592.709,162.047 609.381,162.047 626.053,162.047 642.724,162.047 659.396,162.047 676.068,162.047 692.74,162.047 692.74,166.072 709.412,166.072 709.412,309.502 726.084,309.502 726.084,179.613 742.756,179.613 742.756,162.047 759.427,162.047 776.099,162.047 792.771,162.047 809.443,162.047 826.115,162.047 826.115,168.395 842.787,168.395 842.787,210.874 859.459,210.874 859.459,280.943 876.13,280.943 876.13,373.028 892.802,373.028 892.802,480.01 909.474,480.01 909.474,593.861 926.146,593.861 926.146,713.499 942.818,713.499 942.818,610.465 959.49,610.465 959.49,515.167 976.161,515.167 976.161,444.466 992.833,444.466 992.833,400.809 1009.51,400.809 1009.51,388.956 1026.18,388.956 1026.18,410.788 1042.85,410.788 1042.85,464.858 1059.52,464.858 1059.52,546.563 1076.19,546.563 1076.19,648.88 1092.86,648.88 1092.86,767.995 1109.54,767.995 1109.54,892.742 1126.21,892.742 1126.21,779.706 1142.88,779.706 1142.88,672.894 1159.55,672.894 1159.55,579.469 1176.22,579.469 1176.22,506.036 1192.9,506.036 1192.9,457.883 1209.57,457.883 1209.57,438.473 1226.24,438.473 1226.24,453.858 1242.91,453.858 1242.91,493.478 1259.58,493.478 1259.58,558.832 1276.25,558.832 1276.25,644.727 1292.93,644.727 1292.93,744.529 1309.6,744.529 1309.6,850.754 1326.27,850.754 1326.27,962.474 1342.94,962.474 1342.94,866.314 1359.61,866.314 1359.61,785.92 1376.29,785.92 1376.29,720.114 1392.96,720.114 1392.96,679.49 1409.63,679.49 1409.63,668.463 1426.3,668.463 1426.3,688.774 1442.97,688.774 1442.97,739.08 1459.65,739.08 1459.65,815.114 1476.32,815.114 1476.32,910.36 1492.99,910.36 1492.99,1012.66 1509.66,1012.66 1509.66,1129.2 1526.33,1129.2 1526.33,1023.62 1543,1023.62 1543,923.866 1559.68,923.866 1559.68,836.625 1576.35,836.625 1576.35,768.061 1593.02,768.061 1593.02,723.104 1609.69,723.104 1609.69,704.984 1626.36,704.984 1626.36,710.423 1643.04,710.423 1643.04,747.484 1659.71,747.484 1659.71,808.62 1676.38,808.62 1676.38,888.98 1693.05,888.98 1693.05,982.359 1709.72,982.359 1709.72,1081.76 1726.39,1081.76 1726.39,1186.39 1743.07,1186.39 1743.07,1096.39 1759.74,1096.39 1759.74,1013.1 1776.41,1013.1 1776.41,951.433 1793.08,951.433 1793.08,913.373 1809.75,913.373 1809.75,903.043 1826.43,903.043 1826.43,922.068 1843.1,922.068 1843.1,969.195 1859.77,969.195 1859.77,1040.44 1876.44,1040.44 1876.44,1129.71 1893.11,1129.71 1893.11,1233.81 1909.78,1233.81 1909.78,1342.99 1926.46,1342.99 1926.46,1244.1 1943.13,1244.1 1943.13,1150.69 1959.8,1150.69 1959.8,1069.01 1976.47,1069.01 1976.47,1004.82 1993.14,1004.82 1993.14,962.736 2009.82,962.736 2009.82,945.775 2026.49,945.775 2026.49,959.312 2043.16,959.312 2043.16,993.933 2059.83,993.933 2059.83,1051.05 2076.5,1051.05 2076.5,1126.13 2093.18,1126.13 2093.18,1213.38 2109.85,1213.38 2109.85,1306.27 2126.52,1306.27 2126.52,1404.13 2143.19,1404.13 2143.19,1320 2159.86,1320 2159.86,1249.8 2176.53,1249.8 2176.53,1192.31 2193.21,1192.31 2193.21,1156.83 2209.88,1156.83 2209.88,1147.21 2226.55,1147.21 2226.55,1164.93 2243.22,1164.93 2243.22,1208.85 2259.89,1208.85 2259.89,1275.26 2276.57,1275.26 2276.57,1358.49 2293.24,1358.49 2293.24,1447.87 "/>
</svg>
