<?xml version="1.0" encoding="utf-8"?>
<svg xmlns="http://www.w3.org/2000/svg" xmlns:xlink="http://www.w3.org/1999/xlink" width="600" height="400" viewBox="0 0 2400 1600">
<defs>
  <clipPath id="clip750">
    <rect x="0" y="0" width="2400" height="1600"/>
  </clipPath>
</defs>
<path clip-path="url(#clip750)" d="M0 1600 L2400 1600 L2400 0 L0 0  Z" fill="#282c34" fill-rule="evenodd" fill-opacity="1"/>
<defs>
  <clipPath id="clip751">
    <rect x="156" y="106" width="2197" height="1381"/>
  </clipPath>
</defs>
<path clip-path="url(#clip750)" d="M156.598 1486.45 L2352.76 1486.45 L2352.76 106.192 L156.598 106.192  Z" fill="#21252b" fill-rule="evenodd" fill-opacity="1"/>
<polyline clip-path="url(#clip751)" style="stroke:#adb2b7; stroke-linecap:round; stroke-linejoin:round; stroke-width:2; stroke-opacity:0.1; fill:none" points="174.672,1486.45 174.672,106.192 "/>
<polyline clip-path="url(#clip751)" style="stroke:#adb2b7; stroke-linecap:round; stroke-linejoin:round; stroke-width:2; stroke-opacity:0.1; fill:none" points="615.49,1486.45 615.49,106.192 "/>
<polyline clip-path="url(#clip751)" style="stroke:#adb2b7; stroke-linecap:round; stroke-linejoin:round; stroke-width:2; stroke-opacity:0.1; fill:none" points="1056.31,1486.45 1056.31,106.192 "/>
<polyline clip-path="url(#clip751)" style="stroke:#adb2b7; stroke-linecap:round; stroke-linejoin:round; stroke-width:2; stroke-opacity:0.1; fill:none" points="1497.13,1486.45 1497.13,106.192 "/>
<polyline clip-path="url(#clip751)" style="stroke:#adb2b7; stroke-linecap:round; stroke-linejoin:round; stroke-width:2; stroke-opacity:0.1; fill:none" points="1937.95,1486.45 1937.95,106.192 "/>
<polyline clip-path="url(#clip751)" style="stroke:#adb2b7; stroke-linecap:round; stroke-linejoin:round; stroke-width:2; stroke-opacity:0.1; fill:none" points="156.598,1417.64 2352.76,1417.64 "/>
<polyline clip-path="url(#clip751)" style="stroke:#adb2b7; stroke-linecap:round; stroke-linejoin:round; stroke-width:2; stroke-opacity:0.1; fill:none" points="156.598,1204.28 2352.76,1204.28 "/>
<polyline clip-path="url(#clip751)" style="stroke:#adb2b7; stroke-linecap:round; stroke-linejoin:round; stroke-width:2; stroke-opacity:0.1; fill:none" points="156.598,990.918 2352.76,990.918 "/>
<polyline clip-path="url(#clip751)" style="stroke:#adb2b7; stroke-linecap:round; stroke-linejoin:round; stroke-width:2; stroke-opacity:0.1; fill:none" points="156.598,777.558 2352.76,777.558 "/>
<polyline clip-path="url(#clip751)" style="stroke:#adb2b7; stroke-linecap:round; stroke-linejoin:round; stroke-width:2; stroke-opacity:0.1; fill:none" points="156.598,564.197 2352.76,564.197 "/>
<polyline clip-path="url(#clip751)" style="stroke:#adb2b7; stroke-linecap:round; stroke-linejoin:round; stroke-width:2; stroke-opacity:0.1; fill:none" points="156.598,350.837 2352.76,350.837 "/>
<polyline clip-path="url(#clip751)" style="stroke:#adb2b7; stroke-linecap:round; stroke-linejoin:round; stroke-width:2; stroke-opacity:0.1; fill:none" points="156.598,137.477 2352.76,137.477 "/>
<polyline clip-path="url(#clip750)" style="stroke:#adb2b7; stroke-linecap:round; stroke-linejoin:round; stroke-width:4; stroke-opacity:1; fill:none" points="156.598,1486.45 2352.76,1486.45 "/>
<polyline clip-path="url(#clip750)" style="stroke:#adb2b7; stroke-linecap:round; stroke-linejoin:round; stroke-width:4; stroke-opacity:1; fill:none" points="174.672,1486.45 174.672,1467.55 "/>
<polyline clip-path="url(#clip750)" style="stroke:#adb2b7; stroke-linecap:round; stroke-linejoin:round; stroke-width:4; stroke-opacity:1; fill:none" points="615.49,1486.45 615.49,1467.55 "/>
<polyline clip-path="url(#clip750)" style="stroke:#adb2b7; stroke-linecap:round; stroke-linejoin:round; stroke-width:4; stroke-opacity:1; fill:none" points="1056.31,1486.45 1056.31,1467.55 "/>
<polyline clip-path="url(#clip750)" style="stroke:#adb2b7; stroke-linecap:round; stroke-linejoin:round; stroke-width:4; stroke-opacity:1; fill:none" points="1497.13,1486.45 1497.13,1467.55 "/>
<polyline clip-path="url(#clip750)" style="stroke:#adb2b7; stroke-linecap:round; stroke-linejoin:round; stroke-width:4; stroke-opacity:1; fill:none" points="1937.95,1486.45 1937.95,1467.55 "/>
<path clip-path="url(#clip750)" d="M174.672 1517.37 Q171.061 1517.37 169.232 1520.93 Q167.426 1524.47 167.426 1531.6 Q167.426 1538.71 169.232 1542.27 Q171.061 1545.82 174.672 1545.82 Q178.306 1545.82 180.112 1542.27 Q181.94 1538.71 181.94 1531.6 Q181.94 1524.47 180.112 1520.93 Q178.306 1517.37 174.672 1517.37 M174.672 1513.66 Q180.482 1513.66 183.537 1518.27 Q186.616 1522.85 186.616 1531.6 Q186.616 1540.33 183.537 1544.94 Q180.482 1549.52 174.672 1549.52 Q168.862 1549.52 165.783 1544.94 Q162.727 1540.33 162.727 1531.6 Q162.727 1522.85 165.783 1518.27 Q168.862 1513.66 174.672 1513.66 Z" fill="#9eb1be" fill-rule="nonzero" fill-opacity="1" /><path clip-path="url(#clip750)" d="M590.178 1544.91 L597.817 1544.91 L597.817 1518.55 L589.507 1520.21 L589.507 1515.95 L597.77 1514.29 L602.446 1514.29 L602.446 1544.91 L610.085 1544.91 L610.085 1548.85 L590.178 1548.85 L590.178 1544.91 Z" fill="#9eb1be" fill-rule="nonzero" fill-opacity="1" /><path clip-path="url(#clip750)" d="M629.53 1517.37 Q625.918 1517.37 624.09 1520.93 Q622.284 1524.47 622.284 1531.6 Q622.284 1538.71 624.09 1542.27 Q625.918 1545.82 629.53 1545.82 Q633.164 1545.82 634.969 1542.27 Q636.798 1538.71 636.798 1531.6 Q636.798 1524.47 634.969 1520.93 Q633.164 1517.37 629.53 1517.37 M629.53 1513.66 Q635.34 1513.66 638.395 1518.27 Q641.474 1522.85 641.474 1531.6 Q641.474 1540.33 638.395 1544.94 Q635.34 1549.52 629.53 1549.52 Q623.719 1549.52 620.641 1544.94 Q617.585 1540.33 617.585 1531.6 Q617.585 1522.85 620.641 1518.27 Q623.719 1513.66 629.53 1513.66 Z" fill="#9eb1be" fill-rule="nonzero" fill-opacity="1" /><path clip-path="url(#clip750)" d="M1035.08 1544.91 L1051.4 1544.91 L1051.4 1548.85 L1029.46 1548.85 L1029.46 1544.91 Q1032.12 1542.16 1036.7 1537.53 Q1041.31 1532.88 1042.49 1531.53 Q1044.73 1529.01 1045.61 1527.27 Q1046.52 1525.51 1046.52 1523.82 Q1046.52 1521.07 1044.57 1519.33 Q1042.65 1517.6 1039.55 1517.6 Q1037.35 1517.6 1034.9 1518.36 Q1032.47 1519.13 1029.69 1520.68 L1029.69 1515.95 Q1032.51 1514.82 1034.97 1514.24 Q1037.42 1513.66 1039.46 1513.66 Q1044.83 1513.66 1048.02 1516.35 Q1051.22 1519.03 1051.22 1523.52 Q1051.22 1525.65 1050.41 1527.57 Q1049.62 1529.47 1047.51 1532.07 Q1046.93 1532.74 1043.83 1535.95 Q1040.73 1539.15 1035.08 1544.91 Z" fill="#9eb1be" fill-rule="nonzero" fill-opacity="1" /><path clip-path="url(#clip750)" d="M1071.22 1517.37 Q1067.6 1517.37 1065.78 1520.93 Q1063.97 1524.47 1063.97 1531.6 Q1063.97 1538.71 1065.78 1542.27 Q1067.6 1545.82 1071.22 1545.82 Q1074.85 1545.82 1076.66 1542.27 Q1078.48 1538.71 1078.48 1531.6 Q1078.48 1524.47 1076.66 1520.93 Q1074.85 1517.37 1071.22 1517.37 M1071.22 1513.66 Q1077.03 1513.66 1080.08 1518.27 Q1083.16 1522.85 1083.16 1531.6 Q1083.16 1540.33 1080.08 1544.94 Q1077.03 1549.52 1071.22 1549.52 Q1065.41 1549.52 1062.33 1544.94 Q1059.27 1540.33 1059.27 1531.6 Q1059.27 1522.85 1062.33 1518.27 Q1065.41 1513.66 1071.22 1513.66 Z" fill="#9eb1be" fill-rule="nonzero" fill-opacity="1" /><path clip-path="url(#clip750)" d="M1485.97 1530.21 Q1489.33 1530.93 1491.2 1533.2 Q1493.1 1535.47 1493.1 1538.8 Q1493.1 1543.92 1489.58 1546.72 Q1486.06 1549.52 1479.58 1549.52 Q1477.41 1549.52 1475.09 1549.08 Q1472.8 1548.66 1470.34 1547.81 L1470.34 1543.29 Q1472.29 1544.43 1474.6 1545.01 Q1476.92 1545.58 1479.44 1545.58 Q1483.84 1545.58 1486.13 1543.85 Q1488.45 1542.11 1488.45 1538.8 Q1488.45 1535.75 1486.29 1534.03 Q1484.16 1532.3 1480.34 1532.3 L1476.32 1532.3 L1476.32 1528.45 L1480.53 1528.45 Q1483.98 1528.45 1485.81 1527.09 Q1487.64 1525.7 1487.64 1523.11 Q1487.64 1520.45 1485.74 1519.03 Q1483.86 1517.6 1480.34 1517.6 Q1478.42 1517.6 1476.22 1518.01 Q1474.03 1518.43 1471.39 1519.31 L1471.39 1515.14 Q1474.05 1514.4 1476.36 1514.03 Q1478.7 1513.66 1480.76 1513.66 Q1486.09 1513.66 1489.19 1516.09 Q1492.29 1518.5 1492.29 1522.62 Q1492.29 1525.49 1490.65 1527.48 Q1489 1529.45 1485.97 1530.21 Z" fill="#9eb1be" fill-rule="nonzero" fill-opacity="1" /><path clip-path="url(#clip750)" d="M1511.97 1517.37 Q1508.35 1517.37 1506.53 1520.93 Q1504.72 1524.47 1504.72 1531.6 Q1504.72 1538.71 1506.53 1542.27 Q1508.35 1545.82 1511.97 1545.82 Q1515.6 1545.82 1517.4 1542.27 Q1519.23 1538.71 1519.23 1531.6 Q1519.23 1524.47 1517.4 1520.93 Q1515.6 1517.37 1511.97 1517.37 M1511.97 1513.66 Q1517.78 1513.66 1520.83 1518.27 Q1523.91 1522.85 1523.91 1531.6 Q1523.91 1540.33 1520.83 1544.94 Q1517.78 1549.52 1511.97 1549.52 Q1506.15 1549.52 1503.08 1544.94 Q1500.02 1540.33 1500.02 1531.6 Q1500.02 1522.85 1503.08 1518.27 Q1506.15 1513.66 1511.97 1513.66 Z" fill="#9eb1be" fill-rule="nonzero" fill-opacity="1" /><path clip-path="url(#clip750)" d="M1926.12 1518.36 L1914.31 1536.81 L1926.12 1536.81 L1926.12 1518.36 M1924.89 1514.29 L1930.77 1514.29 L1930.77 1536.81 L1935.7 1536.81 L1935.7 1540.7 L1930.77 1540.7 L1930.77 1548.85 L1926.12 1548.85 L1926.12 1540.7 L1910.52 1540.7 L1910.52 1536.19 L1924.89 1514.29 Z" fill="#9eb1be" fill-rule="nonzero" fill-opacity="1" /><path clip-path="url(#clip750)" d="M1953.43 1517.37 Q1949.82 1517.37 1947.99 1520.93 Q1946.19 1524.47 1946.19 1531.6 Q1946.19 1538.71 1947.99 1542.27 Q1949.82 1545.82 1953.43 1545.82 Q1957.07 1545.82 1958.87 1542.27 Q1960.7 1538.71 1960.7 1531.6 Q1960.7 1524.47 1958.87 1520.93 Q1957.07 1517.37 1953.43 1517.37 M1953.43 1513.66 Q1959.24 1513.66 1962.3 1518.27 Q1965.38 1522.85 1965.38 1531.6 Q1965.38 1540.33 1962.3 1544.94 Q1959.24 1549.52 1953.43 1549.52 Q1947.62 1549.52 1944.54 1544.94 Q1941.49 1540.33 1941.49 1531.6 Q1941.49 1522.85 1944.54 1518.27 Q1947.62 1513.66 1953.43 1513.66 Z" fill="#9eb1be" fill-rule="nonzero" fill-opacity="1" /><polyline clip-path="url(#clip750)" style="stroke:#adb2b7; stroke-linecap:round; stroke-linejoin:round; stroke-width:4; stroke-opacity:1; fill:none" points="156.598,1486.45 156.598,106.192 "/>
<polyline clip-path="url(#clip750)" style="stroke:#adb2b7; stroke-linecap:round; stroke-linejoin:round; stroke-width:4; stroke-opacity:1; fill:none" points="156.598,1417.64 175.496,1417.64 "/>
<polyline clip-path="url(#clip750)" style="stroke:#adb2b7; stroke-linecap:round; stroke-linejoin:round; stroke-width:4; stroke-opacity:1; fill:none" points="156.598,1204.28 175.496,1204.28 "/>
<polyline clip-path="url(#clip750)" style="stroke:#adb2b7; stroke-linecap:round; stroke-linejoin:round; stroke-width:4; stroke-opacity:1; fill:none" points="156.598,990.918 175.496,990.918 "/>
<polyline clip-path="url(#clip750)" style="stroke:#adb2b7; stroke-linecap:round; stroke-linejoin:round; stroke-width:4; stroke-opacity:1; fill:none" points="156.598,777.558 175.496,777.558 "/>
<polyline clip-path="url(#clip750)" style="stroke:#adb2b7; stroke-linecap:round; stroke-linejoin:round; stroke-width:4; stroke-opacity:1; fill:none" points="156.598,564.197 175.496,564.197 "/>
<polyline clip-path="url(#clip750)" style="stroke:#adb2b7; stroke-linecap:round; stroke-linejoin:round; stroke-width:4; stroke-opacity:1; fill:none" points="156.598,350.837 175.496,350.837 "/>
<polyline clip-path="url(#clip750)" style="stroke:#adb2b7; stroke-linecap:round; stroke-linejoin:round; stroke-width:4; stroke-opacity:1; fill:none" points="156.598,137.477 175.496,137.477 "/>
<path clip-path="url(#clip750)" d="M63.4226 1403.44 Q59.8115 1403.44 57.9828 1407 Q56.1773 1410.54 56.1773 1417.67 Q56.1773 1424.78 57.9828 1428.34 Q59.8115 1431.89 63.4226 1431.89 Q67.0569 1431.89 68.8624 1428.34 Q70.6911 1424.78 70.6911 1417.67 Q70.6911 1410.54 68.8624 1407 Q67.0569 1403.44 63.4226 1403.44 M63.4226 1399.73 Q69.2328 1399.73 72.2883 1404.34 Q75.367 1408.92 75.367 1417.67 Q75.367 1426.4 72.2883 1431.01 Q69.2328 1435.59 63.4226 1435.59 Q57.6125 1435.59 54.5338 1431.01 Q51.4782 1426.4 51.4782 1417.67 Q51.4782 1408.92 54.5338 1404.34 Q57.6125 1399.73 63.4226 1399.73 Z" fill="#9eb1be" fill-rule="nonzero" fill-opacity="1" /><path clip-path="url(#clip750)" d="M83.5845 1429.04 L88.4688 1429.04 L88.4688 1434.92 L83.5845 1434.92 L83.5845 1429.04 Z" fill="#9eb1be" fill-rule="nonzero" fill-opacity="1" /><path clip-path="url(#clip750)" d="M108.654 1403.44 Q105.043 1403.44 103.214 1407 Q101.409 1410.54 101.409 1417.67 Q101.409 1424.78 103.214 1428.34 Q105.043 1431.89 108.654 1431.89 Q112.288 1431.89 114.094 1428.34 Q115.922 1424.78 115.922 1417.67 Q115.922 1410.54 114.094 1407 Q112.288 1403.44 108.654 1403.44 M108.654 1399.73 Q114.464 1399.73 117.52 1404.34 Q120.598 1408.92 120.598 1417.67 Q120.598 1426.4 117.52 1431.01 Q114.464 1435.59 108.654 1435.59 Q102.844 1435.59 99.765 1431.01 Q96.7095 1426.4 96.7095 1417.67 Q96.7095 1408.92 99.765 1404.34 Q102.844 1399.73 108.654 1399.73 Z" fill="#9eb1be" fill-rule="nonzero" fill-opacity="1" /><path clip-path="url(#clip750)" d="M64.6495 1190.08 Q61.0384 1190.08 59.2097 1193.64 Q57.4041 1197.18 57.4041 1204.31 Q57.4041 1211.42 59.2097 1214.98 Q61.0384 1218.53 64.6495 1218.53 Q68.2837 1218.53 70.0892 1214.98 Q71.9179 1211.42 71.9179 1204.31 Q71.9179 1197.18 70.0892 1193.64 Q68.2837 1190.08 64.6495 1190.08 M64.6495 1186.37 Q70.4596 1186.37 73.5152 1190.98 Q76.5938 1195.56 76.5938 1204.31 Q76.5938 1213.04 73.5152 1217.65 Q70.4596 1222.23 64.6495 1222.23 Q58.8393 1222.23 55.7606 1217.65 Q52.7051 1213.04 52.7051 1204.31 Q52.7051 1195.56 55.7606 1190.98 Q58.8393 1186.37 64.6495 1186.37 Z" fill="#9eb1be" fill-rule="nonzero" fill-opacity="1" /><path clip-path="url(#clip750)" d="M84.8114 1215.68 L89.6956 1215.68 L89.6956 1221.56 L84.8114 1221.56 L84.8114 1215.68 Z" fill="#9eb1be" fill-rule="nonzero" fill-opacity="1" /><path clip-path="url(#clip750)" d="M100.691 1217.62 L108.33 1217.62 L108.33 1191.26 L100.02 1192.92 L100.02 1188.67 L108.283 1187 L112.959 1187 L112.959 1217.62 L120.598 1217.62 L120.598 1221.56 L100.691 1221.56 L100.691 1217.62 Z" fill="#9eb1be" fill-rule="nonzero" fill-opacity="1" /><path clip-path="url(#clip750)" d="M65.0198 976.717 Q61.4087 976.717 59.58 980.282 Q57.7745 983.823 57.7745 990.953 Q57.7745 998.059 59.58 1001.62 Q61.4087 1005.17 65.0198 1005.17 Q68.6541 1005.17 70.4596 1001.62 Q72.2883 998.059 72.2883 990.953 Q72.2883 983.823 70.4596 980.282 Q68.6541 976.717 65.0198 976.717 M65.0198 973.013 Q70.83 973.013 73.8855 977.619 Q76.9642 982.203 76.9642 990.953 Q76.9642 999.68 73.8855 1004.29 Q70.83 1008.87 65.0198 1008.87 Q59.2097 1008.87 56.131 1004.29 Q53.0754 999.68 53.0754 990.953 Q53.0754 982.203 56.131 977.619 Q59.2097 973.013 65.0198 973.013 Z" fill="#9eb1be" fill-rule="nonzero" fill-opacity="1" /><path clip-path="url(#clip750)" d="M85.1818 1002.32 L90.066 1002.32 L90.066 1008.2 L85.1818 1008.2 L85.1818 1002.32 Z" fill="#9eb1be" fill-rule="nonzero" fill-opacity="1" /><path clip-path="url(#clip750)" d="M104.279 1004.26 L120.598 1004.26 L120.598 1008.2 L98.6539 1008.2 L98.6539 1004.26 Q101.316 1001.51 105.899 996.879 Q110.506 992.226 111.686 990.883 Q113.932 988.36 114.811 986.624 Q115.714 984.865 115.714 983.175 Q115.714 980.42 113.77 978.684 Q111.848 976.948 108.746 976.948 Q106.547 976.948 104.094 977.712 Q101.663 978.476 98.8854 980.027 L98.8854 975.305 Q101.709 974.17 104.163 973.592 Q106.617 973.013 108.654 973.013 Q114.024 973.013 117.219 975.698 Q120.413 978.383 120.413 982.874 Q120.413 985.004 119.603 986.925 Q118.816 988.823 116.709 991.416 Q116.131 992.087 113.029 995.305 Q109.927 998.499 104.279 1004.26 Z" fill="#9eb1be" fill-rule="nonzero" fill-opacity="1" /><path clip-path="url(#clip750)" d="M64.0708 763.356 Q60.4597 763.356 58.631 766.921 Q56.8254 770.463 56.8254 777.592 Q56.8254 784.699 58.631 788.264 Q60.4597 791.805 64.0708 791.805 Q67.705 791.805 69.5105 788.264 Q71.3392 784.699 71.3392 777.592 Q71.3392 770.463 69.5105 766.921 Q67.705 763.356 64.0708 763.356 M64.0708 759.653 Q69.8809 759.653 72.9365 764.259 Q76.0151 768.842 76.0151 777.592 Q76.0151 786.319 72.9365 790.926 Q69.8809 795.509 64.0708 795.509 Q58.2606 795.509 55.1819 790.926 Q52.1264 786.319 52.1264 777.592 Q52.1264 768.842 55.1819 764.259 Q58.2606 759.653 64.0708 759.653 Z" fill="#9eb1be" fill-rule="nonzero" fill-opacity="1" /><path clip-path="url(#clip750)" d="M84.2327 788.958 L89.1169 788.958 L89.1169 794.838 L84.2327 794.838 L84.2327 788.958 Z" fill="#9eb1be" fill-rule="nonzero" fill-opacity="1" /><path clip-path="url(#clip750)" d="M113.469 776.204 Q116.825 776.921 118.7 779.19 Q120.598 781.458 120.598 784.791 Q120.598 789.907 117.08 792.708 Q113.561 795.509 107.08 795.509 Q104.904 795.509 102.589 795.069 Q100.297 794.653 97.8437 793.796 L97.8437 789.282 Q99.7882 790.416 102.103 790.995 Q104.418 791.574 106.941 791.574 Q111.339 791.574 113.631 789.838 Q115.945 788.102 115.945 784.791 Q115.945 781.736 113.793 780.023 Q111.663 778.287 107.844 778.287 L103.816 778.287 L103.816 774.444 L108.029 774.444 Q111.478 774.444 113.307 773.079 Q115.135 771.69 115.135 769.097 Q115.135 766.435 113.237 765.023 Q111.362 763.588 107.844 763.588 Q105.922 763.588 103.723 764.005 Q101.524 764.421 98.8854 765.301 L98.8854 761.134 Q101.547 760.393 103.862 760.023 Q106.2 759.653 108.26 759.653 Q113.584 759.653 116.686 762.083 Q119.788 764.491 119.788 768.611 Q119.788 771.481 118.145 773.472 Q116.501 775.44 113.469 776.204 Z" fill="#9eb1be" fill-rule="nonzero" fill-opacity="1" /><path clip-path="url(#clip750)" d="M62.9365 549.996 Q59.3254 549.996 57.4967 553.561 Q55.6912 557.102 55.6912 564.232 Q55.6912 571.339 57.4967 574.903 Q59.3254 578.445 62.9365 578.445 Q66.5707 578.445 68.3763 574.903 Q70.205 571.339 70.205 564.232 Q70.205 557.102 68.3763 553.561 Q66.5707 549.996 62.9365 549.996 M62.9365 546.292 Q68.7467 546.292 71.8022 550.899 Q74.8809 555.482 74.8809 564.232 Q74.8809 572.959 71.8022 577.565 Q68.7467 582.149 62.9365 582.149 Q57.1264 582.149 54.0477 577.565 Q50.9921 572.959 50.9921 564.232 Q50.9921 555.482 54.0477 550.899 Q57.1264 546.292 62.9365 546.292 Z" fill="#9eb1be" fill-rule="nonzero" fill-opacity="1" /><path clip-path="url(#clip750)" d="M83.0984 575.598 L87.9827 575.598 L87.9827 581.477 L83.0984 581.477 L83.0984 575.598 Z" fill="#9eb1be" fill-rule="nonzero" fill-opacity="1" /><path clip-path="url(#clip750)" d="M111.015 550.991 L99.2095 569.44 L111.015 569.44 L111.015 550.991 M109.788 546.917 L115.668 546.917 L115.668 569.44 L120.598 569.44 L120.598 573.329 L115.668 573.329 L115.668 581.477 L111.015 581.477 L111.015 573.329 L95.4132 573.329 L95.4132 568.815 L109.788 546.917 Z" fill="#9eb1be" fill-rule="nonzero" fill-opacity="1" /><path clip-path="url(#clip750)" d="M64.418 336.636 Q60.8069 336.636 58.9782 340.201 Q57.1726 343.742 57.1726 350.872 Q57.1726 357.978 58.9782 361.543 Q60.8069 365.085 64.418 365.085 Q68.0522 365.085 69.8578 361.543 Q71.6865 357.978 71.6865 350.872 Q71.6865 343.742 69.8578 340.201 Q68.0522 336.636 64.418 336.636 M64.418 332.932 Q70.2281 332.932 73.2837 337.538 Q76.3624 342.122 76.3624 350.872 Q76.3624 359.599 73.2837 364.205 Q70.2281 368.788 64.418 368.788 Q58.6078 368.788 55.5291 364.205 Q52.4736 359.599 52.4736 350.872 Q52.4736 342.122 55.5291 337.538 Q58.6078 332.932 64.418 332.932 Z" fill="#9eb1be" fill-rule="nonzero" fill-opacity="1" /><path clip-path="url(#clip750)" d="M84.5799 362.237 L89.4641 362.237 L89.4641 368.117 L84.5799 368.117 L84.5799 362.237 Z" fill="#9eb1be" fill-rule="nonzero" fill-opacity="1" /><path clip-path="url(#clip750)" d="M99.6956 333.557 L118.052 333.557 L118.052 337.492 L103.978 337.492 L103.978 345.964 Q104.996 345.617 106.015 345.455 Q107.033 345.27 108.052 345.27 Q113.839 345.27 117.219 348.441 Q120.598 351.612 120.598 357.029 Q120.598 362.608 117.126 365.71 Q113.654 368.788 107.334 368.788 Q105.159 368.788 102.89 368.418 Q100.645 368.048 98.2372 367.307 L98.2372 362.608 Q100.321 363.742 102.543 364.298 Q104.765 364.853 107.242 364.853 Q111.246 364.853 113.584 362.747 Q115.922 360.64 115.922 357.029 Q115.922 353.418 113.584 351.312 Q111.246 349.205 107.242 349.205 Q105.367 349.205 103.492 349.622 Q101.64 350.038 99.6956 350.918 L99.6956 333.557 Z" fill="#9eb1be" fill-rule="nonzero" fill-opacity="1" /><path clip-path="url(#clip750)" d="M63.2606 123.275 Q59.6495 123.275 57.8208 126.84 Q56.0152 130.382 56.0152 137.511 Q56.0152 144.618 57.8208 148.183 Q59.6495 151.724 63.2606 151.724 Q66.8948 151.724 68.7004 148.183 Q70.5291 144.618 70.5291 137.511 Q70.5291 130.382 68.7004 126.84 Q66.8948 123.275 63.2606 123.275 M63.2606 119.572 Q69.0707 119.572 72.1263 124.178 Q75.205 128.761 75.205 137.511 Q75.205 146.238 72.1263 150.845 Q69.0707 155.428 63.2606 155.428 Q57.4504 155.428 54.3717 150.845 Q51.3162 146.238 51.3162 137.511 Q51.3162 128.761 54.3717 124.178 Q57.4504 119.572 63.2606 119.572 Z" fill="#9eb1be" fill-rule="nonzero" fill-opacity="1" /><path clip-path="url(#clip750)" d="M83.4225 148.877 L88.3067 148.877 L88.3067 154.757 L83.4225 154.757 L83.4225 148.877 Z" fill="#9eb1be" fill-rule="nonzero" fill-opacity="1" /><path clip-path="url(#clip750)" d="M109.071 135.613 Q105.922 135.613 104.071 137.766 Q102.242 139.919 102.242 143.669 Q102.242 147.396 104.071 149.572 Q105.922 151.724 109.071 151.724 Q112.219 151.724 114.047 149.572 Q115.899 147.396 115.899 143.669 Q115.899 139.919 114.047 137.766 Q112.219 135.613 109.071 135.613 M118.353 120.961 L118.353 125.22 Q116.594 124.386 114.788 123.947 Q113.006 123.507 111.246 123.507 Q106.617 123.507 104.163 126.632 Q101.733 129.757 101.385 136.076 Q102.751 134.062 104.811 132.998 Q106.871 131.91 109.348 131.91 Q114.557 131.91 117.566 135.081 Q120.598 138.229 120.598 143.669 Q120.598 148.993 117.45 152.21 Q114.302 155.428 109.071 155.428 Q103.075 155.428 99.9039 150.845 Q96.7326 146.238 96.7326 137.511 Q96.7326 129.317 100.621 124.456 Q104.51 119.572 111.061 119.572 Q112.82 119.572 114.603 119.919 Q116.408 120.266 118.353 120.961 Z" fill="#9eb1be" fill-rule="nonzero" fill-opacity="1" /><path clip-path="url(#clip750)" d="M177.084 31.5855 Q178.965 32.222 180.73 34.3054 Q182.524 36.3887 184.318 40.0345 L190.25 51.84 L183.971 51.84 L178.444 40.7579 Q176.303 36.4176 174.278 34.9998 Q172.281 33.582 168.809 33.582 L162.443 33.582 L162.443 51.84 L156.598 51.84 L156.598 8.64 L169.793 8.64 Q177.2 8.64 180.846 11.736 Q184.492 14.8321 184.492 21.0821 Q184.492 25.1619 182.582 27.8529 Q180.701 30.5438 177.084 31.5855 M162.443 13.4432 L162.443 28.7788 L169.793 28.7788 Q174.017 28.7788 176.158 26.8401 Q178.328 24.8726 178.328 21.0821 Q178.328 17.2916 176.158 15.3819 Q174.017 13.4432 169.793 13.4432 L162.443 13.4432 Z" fill="#adb2b7" fill-rule="nonzero" fill-opacity="1" /><path clip-path="url(#clip750)" d="M222.599 34.3054 L222.599 36.9095 L198.12 36.9095 Q198.467 42.4072 201.419 45.3007 Q204.399 48.1653 209.694 48.1653 Q212.761 48.1653 215.626 47.4129 Q218.519 46.6606 221.355 45.156 L221.355 50.1907 Q218.49 51.406 215.481 52.0425 Q212.472 52.6791 209.376 52.6791 Q201.621 52.6791 197.078 48.1653 Q192.564 43.6514 192.564 35.9547 Q192.564 27.9975 196.847 23.339 Q201.158 18.6515 208.45 18.6515 Q214.989 18.6515 218.78 22.876 Q222.599 27.0716 222.599 34.3054 M217.275 32.7429 Q217.217 28.3737 214.816 25.7695 Q212.443 23.1654 208.508 23.1654 Q204.052 23.1654 201.361 25.6827 Q198.699 28.2001 198.294 32.7718 L217.275 32.7429 Z" fill="#adb2b7" fill-rule="nonzero" fill-opacity="1" /><path clip-path="url(#clip750)" d="M246.065 35.5496 Q239.613 35.5496 237.124 37.0253 Q234.636 38.501 234.636 42.06 Q234.636 44.8956 236.488 46.5738 Q238.369 48.2231 241.58 48.2231 Q246.007 48.2231 248.67 45.0981 Q251.36 41.9442 251.36 36.7359 L251.36 35.5496 L246.065 35.5496 M256.685 33.3505 L256.685 51.84 L251.36 51.84 L251.36 46.921 Q249.538 49.8724 246.818 51.2902 Q244.098 52.6791 240.163 52.6791 Q235.186 52.6791 232.234 49.9014 Q229.312 47.0947 229.312 42.4072 Q229.312 36.9385 232.958 34.1607 Q236.633 31.3829 243.895 31.3829 L251.36 31.3829 L251.36 30.8621 Q251.36 27.1874 248.93 25.1908 Q246.528 23.1654 242.159 23.1654 Q239.381 23.1654 236.748 23.8309 Q234.115 24.4964 231.685 25.8274 L231.685 20.9085 Q234.607 19.78 237.356 19.2302 Q240.105 18.6515 242.709 18.6515 Q249.74 18.6515 253.212 22.2973 Q256.685 25.9431 256.685 33.3505 Z" fill="#adb2b7" fill-rule="nonzero" fill-opacity="1" /><path clip-path="url(#clip750)" d="M267.651 6.81709 L272.975 6.81709 L272.975 51.84 L267.651 51.84 L267.651 6.81709 Z" fill="#adb2b7" fill-rule="nonzero" fill-opacity="1" /><path clip-path="url(#clip750)" d="M284.115 19.4328 L289.439 19.4328 L289.439 51.84 L284.115 51.84 L284.115 19.4328 M284.115 6.81709 L289.439 6.81709 L289.439 13.559 L284.115 13.559 L284.115 6.81709 Z" fill="#adb2b7" fill-rule="nonzero" fill-opacity="1" /><path clip-path="url(#clip750)" d="M298.264 19.4328 L323.553 19.4328 L323.553 24.2939 L303.53 47.5866 L323.553 47.5866 L323.553 51.84 L297.541 51.84 L297.541 46.9789 L317.564 23.6862 L298.264 23.6862 L298.264 19.4328 Z" fill="#adb2b7" fill-rule="nonzero" fill-opacity="1" /><path clip-path="url(#clip750)" d="M359.404 34.3054 L359.404 36.9095 L334.925 36.9095 Q335.272 42.4072 338.223 45.3007 Q341.204 48.1653 346.499 48.1653 Q349.566 48.1653 352.431 47.4129 Q355.324 46.6606 358.16 45.156 L358.16 50.1907 Q355.295 51.406 352.286 52.0425 Q349.277 52.6791 346.181 52.6791 Q338.426 52.6791 333.883 48.1653 Q329.369 43.6514 329.369 35.9547 Q329.369 27.9975 333.652 23.339 Q337.963 18.6515 345.255 18.6515 Q351.794 18.6515 355.584 22.876 Q359.404 27.0716 359.404 34.3054 M354.08 32.7429 Q354.022 28.3737 351.62 25.7695 Q349.248 23.1654 345.313 23.1654 Q340.857 23.1654 338.166 25.6827 Q335.504 28.2001 335.098 32.7718 L354.08 32.7429 Z" fill="#adb2b7" fill-rule="nonzero" fill-opacity="1" /><path clip-path="url(#clip750)" d="M389.467 24.3517 L389.467 6.81709 L394.791 6.81709 L394.791 51.84 L389.467 51.84 L389.467 46.9789 Q387.789 49.8724 385.214 51.2902 Q382.668 52.6791 379.08 52.6791 Q373.206 52.6791 369.502 47.9916 Q365.827 43.3042 365.827 35.6653 Q365.827 28.0265 369.502 23.339 Q373.206 18.6515 379.08 18.6515 Q382.668 18.6515 385.214 20.0693 Q387.789 21.4582 389.467 24.3517 M371.325 35.6653 Q371.325 41.5391 373.727 44.8956 Q376.157 48.2231 380.382 48.2231 Q384.606 48.2231 387.037 44.8956 Q389.467 41.5391 389.467 35.6653 Q389.467 29.7915 387.037 26.464 Q384.606 23.1075 380.382 23.1075 Q376.157 23.1075 373.727 26.464 Q371.325 29.7915 371.325 35.6653 Z" fill="#adb2b7" fill-rule="nonzero" fill-opacity="1" /><path clip-path="url(#clip750)" d="M443.373 24.4096 Q442.476 23.8888 441.406 23.6573 Q440.364 23.3969 439.091 23.3969 Q434.577 23.3969 432.147 26.3482 Q429.745 29.2707 429.745 34.7683 L429.745 51.84 L424.392 51.84 L424.392 19.4328 L429.745 19.4328 L429.745 24.4675 Q431.423 21.5161 434.114 20.0983 Q436.805 18.6515 440.653 18.6515 Q441.203 18.6515 441.869 18.7383 Q442.534 18.7962 443.344 18.9409 L443.373 24.4096 Z" fill="#adb2b7" fill-rule="nonzero" fill-opacity="1" /><path clip-path="url(#clip750)" d="M475.375 34.3054 L475.375 36.9095 L450.896 36.9095 Q451.244 42.4072 454.195 45.3007 Q457.175 48.1653 462.47 48.1653 Q465.538 48.1653 468.402 47.4129 Q471.296 46.6606 474.131 45.156 L474.131 50.1907 Q471.267 51.406 468.257 52.0425 Q465.248 52.6791 462.152 52.6791 Q454.398 52.6791 449.855 48.1653 Q445.341 43.6514 445.341 35.9547 Q445.341 27.9975 449.623 23.339 Q453.935 18.6515 461.226 18.6515 Q467.766 18.6515 471.556 22.876 Q475.375 27.0716 475.375 34.3054 M470.051 32.7429 Q469.994 28.3737 467.592 25.7695 Q465.219 23.1654 461.284 23.1654 Q456.828 23.1654 454.137 25.6827 Q451.475 28.2001 451.07 32.7718 L470.051 32.7429 Z" fill="#adb2b7" fill-rule="nonzero" fill-opacity="1" /><path clip-path="url(#clip750)" d="M489.38 10.2314 L489.38 19.4328 L500.346 19.4328 L500.346 23.5705 L489.38 23.5705 L489.38 41.163 Q489.38 45.1271 490.451 46.2555 Q491.55 47.384 494.878 47.384 L500.346 47.384 L500.346 51.84 L494.878 51.84 Q488.715 51.84 486.371 49.5541 Q484.027 47.2393 484.027 41.163 L484.027 23.5705 L480.121 23.5705 L480.121 19.4328 L484.027 19.4328 L484.027 10.2314 L489.38 10.2314 Z" fill="#adb2b7" fill-rule="nonzero" fill-opacity="1" /><path clip-path="url(#clip750)" d="M506.799 39.0507 L506.799 19.4328 L512.123 19.4328 L512.123 38.8482 Q512.123 43.4488 513.917 45.7636 Q515.711 48.0495 519.299 48.0495 Q523.61 48.0495 526.099 45.3007 Q528.616 42.5519 528.616 37.8065 L528.616 19.4328 L533.94 19.4328 L533.94 51.84 L528.616 51.84 L528.616 46.8632 Q526.677 49.8145 524.102 51.2613 Q521.556 52.6791 518.17 52.6791 Q512.586 52.6791 509.692 49.2069 Q506.799 45.7347 506.799 39.0507 M520.196 18.6515 L520.196 18.6515 Z" fill="#adb2b7" fill-rule="nonzero" fill-opacity="1" /><path clip-path="url(#clip750)" d="M563.685 24.4096 Q562.788 23.8888 561.718 23.6573 Q560.676 23.3969 559.403 23.3969 Q554.889 23.3969 552.458 26.3482 Q550.057 29.2707 550.057 34.7683 L550.057 51.84 L544.704 51.84 L544.704 19.4328 L550.057 19.4328 L550.057 24.4675 Q551.735 21.5161 554.426 20.0983 Q557.117 18.6515 560.965 18.6515 Q561.515 18.6515 562.181 18.7383 Q562.846 18.7962 563.656 18.9409 L563.685 24.4096 Z" fill="#adb2b7" fill-rule="nonzero" fill-opacity="1" /><path clip-path="url(#clip750)" d="M595.166 32.2799 L595.166 51.84 L589.842 51.84 L589.842 32.4535 Q589.842 27.8529 588.048 25.567 Q586.254 23.2811 582.667 23.2811 Q578.355 23.2811 575.867 26.03 Q573.378 28.7788 573.378 33.5241 L573.378 51.84 L568.025 51.84 L568.025 19.4328 L573.378 19.4328 L573.378 24.4675 Q575.288 21.545 577.863 20.0983 Q580.467 18.6515 583.853 18.6515 Q589.437 18.6515 592.302 22.1237 Q595.166 25.567 595.166 32.2799 Z" fill="#adb2b7" fill-rule="nonzero" fill-opacity="1" /><path clip-path="url(#clip750)" d="M626.445 20.3876 L626.445 25.4223 Q624.188 24.2649 621.758 23.6862 Q619.327 23.1075 616.723 23.1075 Q612.759 23.1075 610.762 24.3228 Q608.795 25.5381 608.795 27.9686 Q608.795 29.8204 610.213 30.891 Q611.631 31.9327 615.913 32.8876 L617.736 33.2926 Q623.407 34.5079 625.78 36.7359 Q628.181 38.935 628.181 42.8991 Q628.181 47.4129 624.593 50.046 Q621.034 52.6791 614.784 52.6791 Q612.18 52.6791 609.345 52.1583 Q606.538 51.6664 603.413 50.6537 L603.413 45.156 Q606.364 46.6896 609.229 47.4708 Q612.093 48.2231 614.9 48.2231 Q618.662 48.2231 620.687 46.95 Q622.713 45.6479 622.713 43.3042 Q622.713 41.134 621.237 39.9766 Q619.79 38.8192 614.842 37.7486 L612.99 37.3146 Q608.043 36.273 605.844 34.1318 Q603.644 31.9616 603.644 28.2001 Q603.644 23.6283 606.885 21.1399 Q610.126 18.6515 616.087 18.6515 Q619.038 18.6515 621.642 19.0855 Q624.246 19.5196 626.445 20.3876 Z" fill="#adb2b7" fill-rule="nonzero" fill-opacity="1" /><path clip-path="url(#clip750)" d="M678.76 35.6653 Q678.76 29.7915 676.329 26.464 Q673.928 23.1075 669.703 23.1075 Q665.479 23.1075 663.048 26.464 Q660.646 29.7915 660.646 35.6653 Q660.646 41.5391 663.048 44.8956 Q665.479 48.2231 669.703 48.2231 Q673.928 48.2231 676.329 44.8956 Q678.76 41.5391 678.76 35.6653 M660.646 24.3517 Q662.325 21.4582 664.871 20.0693 Q667.446 18.6515 671.005 18.6515 Q676.908 18.6515 680.583 23.339 Q684.286 28.0265 684.286 35.6653 Q684.286 43.3042 680.583 47.9916 Q676.908 52.6791 671.005 52.6791 Q667.446 52.6791 664.871 51.2902 Q662.325 49.8724 660.646 46.9789 L660.646 51.84 L655.293 51.84 L655.293 6.81709 L660.646 6.81709 L660.646 24.3517 Z" fill="#adb2b7" fill-rule="nonzero" fill-opacity="1" /><path clip-path="url(#clip750)" d="M706.595 54.8492 Q704.338 60.6362 702.197 62.4013 Q700.056 64.1663 696.468 64.1663 L692.215 64.1663 L692.215 59.7103 L695.34 59.7103 Q697.539 59.7103 698.754 58.6687 Q699.969 57.627 701.445 53.7497 L702.4 51.3192 L689.292 19.4328 L694.934 19.4328 L705.062 44.7799 L715.189 19.4328 L720.831 19.4328 L706.595 54.8492 Z" fill="#adb2b7" fill-rule="nonzero" fill-opacity="1" /><path clip-path="url(#clip750)" d="M743.921 19.4328 L749.246 19.4328 L755.901 44.722 L762.527 19.4328 L768.806 19.4328 L775.461 44.722 L782.087 19.4328 L787.411 19.4328 L778.933 51.84 L772.654 51.84 L765.681 25.2776 L758.678 51.84 L752.399 51.84 L743.921 19.4328 Z" fill="#adb2b7" fill-rule="nonzero" fill-opacity="1" /><path clip-path="url(#clip750)" d="M823.203 34.3054 L823.203 36.9095 L798.724 36.9095 Q799.072 42.4072 802.023 45.3007 Q805.003 48.1653 810.298 48.1653 Q813.366 48.1653 816.23 47.4129 Q819.124 46.6606 821.959 45.156 L821.959 50.1907 Q819.095 51.406 816.085 52.0425 Q813.076 52.6791 809.98 52.6791 Q802.226 52.6791 797.683 48.1653 Q793.169 43.6514 793.169 35.9547 Q793.169 27.9975 797.451 23.339 Q801.763 18.6515 809.054 18.6515 Q815.594 18.6515 819.384 22.876 Q823.203 27.0716 823.203 34.3054 M817.879 32.7429 Q817.822 28.3737 815.42 25.7695 Q813.047 23.1654 809.112 23.1654 Q804.656 23.1654 801.965 25.6827 Q799.303 28.2001 798.898 32.7718 L817.879 32.7429 Z" fill="#adb2b7" fill-rule="nonzero" fill-opacity="1" /><path clip-path="url(#clip750)" d="M859.662 34.3054 L859.662 36.9095 L835.183 36.9095 Q835.53 42.4072 838.481 45.3007 Q841.461 48.1653 846.757 48.1653 Q849.824 48.1653 852.688 47.4129 Q855.582 46.6606 858.417 45.156 L858.417 50.1907 Q855.553 51.406 852.544 52.0425 Q849.534 52.6791 846.438 52.6791 Q838.684 52.6791 834.141 48.1653 Q829.627 43.6514 829.627 35.9547 Q829.627 27.9975 833.909 23.339 Q838.221 18.6515 845.512 18.6515 Q852.052 18.6515 855.842 22.876 Q859.662 27.0716 859.662 34.3054 M854.338 32.7429 Q854.28 28.3737 851.878 25.7695 Q849.505 23.1654 845.57 23.1654 Q841.114 23.1654 838.423 25.6827 Q835.761 28.2001 835.356 32.7718 L854.338 32.7429 Z" fill="#adb2b7" fill-rule="nonzero" fill-opacity="1" /><path clip-path="url(#clip750)" d="M868.197 6.81709 L873.55 6.81709 L873.55 33.4084 L889.436 19.4328 L896.235 19.4328 L879.048 34.5947 L896.959 51.84 L890.014 51.84 L873.55 36.0125 L873.55 51.84 L868.197 51.84 L868.197 6.81709 Z" fill="#adb2b7" fill-rule="nonzero" fill-opacity="1" /><path clip-path="url(#clip750)" d="M924.042 24.3517 L924.042 6.81709 L929.366 6.81709 L929.366 51.84 L924.042 51.84 L924.042 46.9789 Q922.364 49.8724 919.789 51.2902 Q917.242 52.6791 913.654 52.6791 Q907.781 52.6791 904.077 47.9916 Q900.402 43.3042 900.402 35.6653 Q900.402 28.0265 904.077 23.339 Q907.781 18.6515 913.654 18.6515 Q917.242 18.6515 919.789 20.0693 Q922.364 21.4582 924.042 24.3517 M905.9 35.6653 Q905.9 41.5391 908.301 44.8956 Q910.732 48.2231 914.956 48.2231 Q919.181 48.2231 921.611 44.8956 Q924.042 41.5391 924.042 35.6653 Q924.042 29.7915 921.611 26.464 Q919.181 23.1075 914.956 23.1075 Q910.732 23.1075 908.301 26.464 Q905.9 29.7915 905.9 35.6653 Z" fill="#adb2b7" fill-rule="nonzero" fill-opacity="1" /><path clip-path="url(#clip750)" d="M955.06 35.5496 Q948.608 35.5496 946.119 37.0253 Q943.631 38.501 943.631 42.06 Q943.631 44.8956 945.483 46.5738 Q947.364 48.2231 950.575 48.2231 Q955.003 48.2231 957.665 45.0981 Q960.356 41.9442 960.356 36.7359 L960.356 35.5496 L955.06 35.5496 M965.68 33.3505 L965.68 51.84 L960.356 51.84 L960.356 46.921 Q958.533 49.8724 955.813 51.2902 Q953.093 52.6791 949.158 52.6791 Q944.181 52.6791 941.229 49.9014 Q938.307 47.0947 938.307 42.4072 Q938.307 36.9385 941.953 34.1607 Q945.628 31.3829 952.89 31.3829 L960.356 31.3829 L960.356 30.8621 Q960.356 27.1874 957.925 25.1908 Q955.523 23.1654 951.154 23.1654 Q948.376 23.1654 945.743 23.8309 Q943.11 24.4964 940.68 25.8274 L940.68 20.9085 Q943.602 19.78 946.351 19.2302 Q949.1 18.6515 951.704 18.6515 Q958.735 18.6515 962.207 22.2973 Q965.68 25.9431 965.68 33.3505 Z" fill="#adb2b7" fill-rule="nonzero" fill-opacity="1" /><path clip-path="url(#clip750)" d="M990.13 54.8492 Q987.873 60.6362 985.732 62.4013 Q983.59 64.1663 980.002 64.1663 L975.749 64.1663 L975.749 59.7103 L978.874 59.7103 Q981.073 59.7103 982.288 58.6687 Q983.504 57.627 984.979 53.7497 L985.934 51.3192 L972.826 19.4328 L978.469 19.4328 L988.596 44.7799 L998.723 19.4328 L1004.37 19.4328 L990.13 54.8492 Z" fill="#adb2b7" fill-rule="nonzero" fill-opacity="1" /><polyline clip-path="url(#clip751)" style="stroke:#fe4365; stroke-linecap:round; stroke-linejoin:round; stroke-width:4; stroke-opacity:1; fill:none" points="218.754,1417.51 262.835,1427.11 306.917,1431.54 350.999,1433.86 395.081,1425.72 439.163,1422.09 483.245,1398.49 527.327,1377.92 571.408,1363.2 615.49,1356.87 659.572,1351.81 703.654,1330.65 747.736,1316.21 791.818,1304.81 835.9,1305.63 879.981,1308.96 924.063,1316.48 968.145,1311.02 1012.23,1299.81 1056.31,1293.69 1100.39,1278.57 1144.47,1258.59 1188.55,1243.43 1232.64,1232.77 1276.72,1223.61 1320.8,1208.44 1364.88,1202.88 1408.96,1182.04 1453.05,1159.38 1497.13,1139.7 1541.21,1112.66 "/>
<polyline clip-path="url(#clip751)" style="stroke:#eca25c; stroke-linecap:round; stroke-linejoin:round; stroke-width:4; stroke-opacity:1; fill:none" points="218.754,1419.82 262.835,1423.25 306.917,1425.86 350.999,1431.9 395.081,1440.35 439.163,1441.61 483.245,1447.38 527.327,1446.25 571.408,1432.16 615.49,1422.92 659.572,1415.54 703.654,1414.32 747.736,1415.74 791.818,1416.98 835.9,1425.62 879.981,1400.98 924.063,1382.4 968.145,1385.09 1012.23,1387.11 1056.31,1387.68 1100.39,1380.57 1144.47,1374.65 1188.55,1371.08 1232.64,1373.4 1276.72,1368.56 1320.8,1377.19 1364.88,1371.28 1408.96,1353.81 1453.05,1335.08 1497.13,1313.52 1541.21,1289.52 1585.29,1258.16 1629.37,1228.09 1673.45,1201.31 1717.54,1167.26 1761.62,1131.68 1805.7,1096.28 1849.78,1063.13 1893.86,1034.8 1937.95,1001.19 1982.03,971.026 2026.11,951.06 2070.19,954.692 2114.27,954.766 2158.35,951.06 2202.44,956.7 2246.52,956.732 2290.6,939.049 "/>
<polyline clip-path="url(#clip751)" style="stroke:#3f9778; stroke-linecap:round; stroke-linejoin:round; stroke-width:4; stroke-opacity:1; fill:none" points="218.754,1394.34 262.835,1361.21 306.917,1327.94 350.999,1299.29 395.081,1266.3 439.163,1213.38 483.245,1144.48 527.327,1066.3 571.408,984.778 615.49,957.344 659.572,905.597 703.654,859.594 747.736,809.328 791.818,760.566 835.9,712.22 879.981,661.572 924.063,614.043 968.145,570.408 1012.23,561.952 1056.31,537.483 1100.39,491.01 1144.47,441.748 1188.55,395.118 1232.64,341.504 1276.72,279.437 1320.8,250.147 1364.88,239.03 1408.96,229.012 1453.05,216.882 1497.13,205.598 1541.21,196.987 1585.29,191.082 1629.37,173.531 1673.45,158.675 1717.54,145.256 "/>
<polyline clip-path="url(#clip751)" style="stroke:#005d7f; stroke-linecap:round; stroke-linejoin:round; stroke-width:4; stroke-opacity:1; fill:none" points="218.754,1337.07 262.835,1243.48 306.917,1151.59 350.999,1059.91 395.081,968.439 439.163,880.092 483.245,886.967 527.327,885.43 571.408,887.291 615.49,889.827 659.572,892.32 703.654,890.325 747.736,886.359 791.818,886.952 835.9,884.325 879.981,885.582 924.063,827.471 968.145,764.112 1012.23,704.706 1056.31,646.002 1100.39,590.157 1144.47,541.798 1188.55,536.541 1232.64,520.985 1276.72,505.526 1320.8,490.881 1364.88,479.099 1408.96,470.912 1453.05,464.339 1497.13,460.941 1541.21,464.08 1585.29,458.483 1629.37,456.214 1673.45,455.677 1717.54,456.765 1761.62,464.943 1805.7,464.617 1849.78,451.858 "/>
<polyline clip-path="url(#clip751)" style="stroke:#00a8ff; stroke-linecap:round; stroke-linejoin:round; stroke-width:4; stroke-opacity:1; fill:none" points="218.754,1418.98 262.835,1405.85 306.917,1394.94 350.999,1382.18 395.081,1372.38 439.163,1359.47 483.245,1348.7 527.327,1336.48 571.408,1316.64 615.49,1321.99 659.572,1328.5 703.654,1336.15 747.736,1344.54 791.818,1352.86 835.9,1336.3 879.981,1322.01 924.063,1315.22 968.145,1307.18 1012.23,1293.31 1056.31,1284.51 1100.39,1277.65 1144.47,1269.8 1188.55,1264.19 1232.64,1261.04 1276.72,1259.22 1320.8,1261.2 1364.88,1258.1 1408.96,1264.06 1453.05,1235.09 1497.13,1207.15 1541.21,1174.67 1585.29,1131 1629.37,1087.87 1673.45,1051.01 1717.54,1018.98 1761.62,990.52 1805.7,990.098 "/>
<polyline clip-path="url(#clip751)" style="stroke:#dc3df1; stroke-linecap:round; stroke-linejoin:round; stroke-width:4; stroke-opacity:1; fill:none" points="218.754,1389.16 262.835,1361.53 306.917,1329.21 350.999,1303.33 395.081,1277.63 439.163,1255.75 483.245,1252.75 527.327,1252.27 571.408,1248.4 615.49,1250.61 659.572,1249.65 703.654,1249.07 747.736,1252.3 791.818,1251.51 835.9,1252.03 879.981,1258.1 924.063,1261.28 968.145,1259.45 1012.23,1250.62 1056.31,1239.94 1100.39,1228.2 1144.47,1215.52 1188.55,1202.32 1232.64,1188.7 1276.72,1175.72 1320.8,1155.23 1364.88,1141.15 1408.96,1129.48 1453.05,1118.87 1497.13,1123.52 1541.21,1135.17 1585.29,1138.45 1629.37,1137.67 1673.45,1136.77 1717.54,1128.23 1761.62,1123.03 1805.7,1119.26 "/>
<polyline clip-path="url(#clip751)" style="stroke:#759500; stroke-linecap:round; stroke-linejoin:round; stroke-width:4; stroke-opacity:1; fill:none" points="218.754,1412.11 262.835,1414.72 306.917,1418.16 350.999,1408.07 395.081,1399.32 439.163,1391.1 483.245,1388.73 527.327,1387.88 571.408,1388.75 615.49,1390.06 659.572,1399.03 703.654,1403.37 747.736,1407.02 791.818,1407.3 835.9,1407.85 879.981,1408.44 924.063,1413.82 968.145,1386.91 1012.23,1361.91 1056.31,1338.78 1100.39,1316.36 1144.47,1282.66 1188.55,1244.78 1232.64,1206.99 1276.72,1165.94 1320.8,1127.35 1364.88,1089.6 1408.96,1051.69 1453.05,1027.88 1497.13,994.539 1541.21,960.687 1585.29,922.151 1629.37,881.288 1673.45,843.858 1717.54,804.688 1761.62,773.636 "/>
<path clip-path="url(#clip750)" d="M229.803 1440.44 L546.896 1440.44 L546.896 1025.72 L229.803 1025.72  Z" fill="#282c34" fill-rule="evenodd" fill-opacity="1"/>
<polyline clip-path="url(#clip750)" style="stroke:#000000; stroke-linecap:round; stroke-linejoin:round; stroke-width:4; stroke-opacity:0; fill:none" points="229.803,1440.44 546.896,1440.44 546.896,1025.72 229.803,1025.72 229.803,1440.44 "/>
<polyline clip-path="url(#clip750)" style="stroke:#fe4365; stroke-linecap:round; stroke-linejoin:round; stroke-width:4; stroke-opacity:1; fill:none" points="254.205,1077.56 400.616,1077.56 "/>
<path clip-path="url(#clip750)" d="M425.018 1060.28 L431.985 1060.28 L440.804 1083.8 L449.67 1060.28 L456.638 1060.28 L456.638 1094.84 L452.078 1094.84 L452.078 1064.49 L443.166 1088.2 L438.467 1088.2 L429.555 1064.49 L429.555 1094.84 L425.018 1094.84 L425.018 1060.28 Z" fill="#adb2b7" fill-rule="nonzero" fill-opacity="1" /><path clip-path="url(#clip750)" d="M475.781 1071.9 Q472.355 1071.9 470.364 1074.58 Q468.374 1077.25 468.374 1081.9 Q468.374 1086.55 470.341 1089.24 Q472.332 1091.9 475.781 1091.9 Q479.184 1091.9 481.175 1089.21 Q483.165 1086.53 483.165 1081.9 Q483.165 1077.29 481.175 1074.61 Q479.184 1071.9 475.781 1071.9 M475.781 1068.29 Q481.337 1068.29 484.508 1071.9 Q487.679 1075.51 487.679 1081.9 Q487.679 1088.27 484.508 1091.9 Q481.337 1095.51 475.781 1095.51 Q470.202 1095.51 467.031 1091.9 Q463.883 1088.27 463.883 1081.9 Q463.883 1075.51 467.031 1071.9 Q470.202 1068.29 475.781 1068.29 Z" fill="#adb2b7" fill-rule="nonzero" fill-opacity="1" /><path clip-path="url(#clip750)" d="M516.29 1079.19 L516.29 1094.84 L512.031 1094.84 L512.031 1079.33 Q512.031 1075.65 510.596 1073.82 Q509.161 1071.99 506.29 1071.99 Q502.841 1071.99 500.85 1074.19 Q498.86 1076.39 498.86 1080.19 L498.86 1094.84 L494.577 1094.84 L494.577 1068.91 L498.86 1068.91 L498.86 1072.94 Q500.387 1070.6 502.448 1069.45 Q504.531 1068.29 507.239 1068.29 Q511.707 1068.29 513.999 1071.07 Q516.29 1073.82 516.29 1079.19 Z" fill="#adb2b7" fill-rule="nonzero" fill-opacity="1" /><polyline clip-path="url(#clip750)" style="stroke:#eca25c; stroke-linecap:round; stroke-linejoin:round; stroke-width:4; stroke-opacity:1; fill:none" points="254.205,1129.4 400.616,1129.4 "/>
<path clip-path="url(#clip750)" d="M425.018 1112.12 L454.253 1112.12 L454.253 1116.05 L441.985 1116.05 L441.985 1146.68 L437.286 1146.68 L437.286 1116.05 L425.018 1116.05 L425.018 1112.12 Z" fill="#adb2b7" fill-rule="nonzero" fill-opacity="1" /><path clip-path="url(#clip750)" d="M450.943 1136.45 L450.943 1120.75 L455.203 1120.75 L455.203 1136.29 Q455.203 1139.97 456.638 1141.82 Q458.073 1143.65 460.943 1143.65 Q464.392 1143.65 466.383 1141.45 Q468.397 1139.25 468.397 1135.45 L468.397 1120.75 L472.656 1120.75 L472.656 1146.68 L468.397 1146.68 L468.397 1142.7 Q466.846 1145.06 464.786 1146.22 Q462.749 1147.35 460.04 1147.35 Q455.573 1147.35 453.258 1144.57 Q450.943 1141.8 450.943 1136.45 M461.661 1120.13 L461.661 1120.13 Z" fill="#adb2b7" fill-rule="nonzero" fill-opacity="1" /><path clip-path="url(#clip750)" d="M503.605 1132.65 L503.605 1134.73 L484.022 1134.73 Q484.3 1139.13 486.661 1141.45 Q489.045 1143.74 493.281 1143.74 Q495.735 1143.74 498.026 1143.14 Q500.341 1142.54 502.61 1141.33 L502.61 1145.36 Q500.318 1146.33 497.911 1146.84 Q495.503 1147.35 493.026 1147.35 Q486.823 1147.35 483.188 1143.74 Q479.577 1140.13 479.577 1133.97 Q479.577 1127.61 483.003 1123.88 Q486.452 1120.13 492.286 1120.13 Q497.517 1120.13 500.55 1123.51 Q503.605 1126.86 503.605 1132.65 M499.346 1131.4 Q499.3 1127.91 497.378 1125.82 Q495.48 1123.74 492.332 1123.74 Q488.767 1123.74 486.614 1125.75 Q484.485 1127.77 484.161 1131.42 L499.346 1131.4 Z" fill="#adb2b7" fill-rule="nonzero" fill-opacity="1" /><polyline clip-path="url(#clip750)" style="stroke:#3f9778; stroke-linecap:round; stroke-linejoin:round; stroke-width:4; stroke-opacity:1; fill:none" points="254.205,1181.24 400.616,1181.24 "/>
<path clip-path="url(#clip750)" d="M425.018 1163.96 L429.74 1163.96 L437.008 1193.17 L444.254 1163.96 L449.508 1163.96 L456.777 1193.17 L464.022 1163.96 L468.767 1163.96 L460.087 1198.52 L454.207 1198.52 L446.916 1168.52 L439.554 1198.52 L433.675 1198.52 L425.018 1163.96 Z" fill="#adb2b7" fill-rule="nonzero" fill-opacity="1" /><path clip-path="url(#clip750)" d="M494.184 1184.49 L494.184 1186.57 L474.601 1186.57 Q474.878 1190.97 477.239 1193.29 Q479.624 1195.58 483.86 1195.58 Q486.313 1195.58 488.605 1194.98 Q490.92 1194.38 493.188 1193.17 L493.188 1197.2 Q490.897 1198.17 488.489 1198.68 Q486.082 1199.19 483.605 1199.19 Q477.401 1199.19 473.767 1195.58 Q470.156 1191.97 470.156 1185.81 Q470.156 1179.45 473.582 1175.72 Q477.031 1171.97 482.864 1171.97 Q488.096 1171.97 491.128 1175.35 Q494.184 1178.7 494.184 1184.49 M489.925 1183.24 Q489.878 1179.75 487.957 1177.66 Q486.059 1175.58 482.911 1175.58 Q479.346 1175.58 477.193 1177.59 Q475.064 1179.61 474.739 1183.26 L489.925 1183.24 Z" fill="#adb2b7" fill-rule="nonzero" fill-opacity="1" /><path clip-path="url(#clip750)" d="M518.235 1176.53 L518.235 1162.5 L522.494 1162.5 L522.494 1198.52 L518.235 1198.52 L518.235 1194.63 Q516.892 1196.95 514.832 1198.08 Q512.795 1199.19 509.924 1199.19 Q505.225 1199.19 502.262 1195.44 Q499.323 1191.69 499.323 1185.58 Q499.323 1179.47 502.262 1175.72 Q505.225 1171.97 509.924 1171.97 Q512.795 1171.97 514.832 1173.1 Q516.892 1174.21 518.235 1176.53 M503.721 1185.58 Q503.721 1190.28 505.642 1192.96 Q507.587 1195.63 510.966 1195.63 Q514.346 1195.63 516.29 1192.96 Q518.235 1190.28 518.235 1185.58 Q518.235 1180.88 516.29 1178.22 Q514.346 1175.53 510.966 1175.53 Q507.587 1175.53 505.642 1178.22 Q503.721 1180.88 503.721 1185.58 Z" fill="#adb2b7" fill-rule="nonzero" fill-opacity="1" /><polyline clip-path="url(#clip750)" style="stroke:#005d7f; stroke-linecap:round; stroke-linejoin:round; stroke-width:4; stroke-opacity:1; fill:none" points="254.205,1233.08 400.616,1233.08 "/>
<path clip-path="url(#clip750)" d="M425.018 1215.8 L454.253 1215.8 L454.253 1219.73 L441.985 1219.73 L441.985 1250.36 L437.286 1250.36 L437.286 1219.73 L425.018 1219.73 L425.018 1215.8 Z" fill="#adb2b7" fill-rule="nonzero" fill-opacity="1" /><path clip-path="url(#clip750)" d="M480.133 1234.71 L480.133 1250.36 L475.874 1250.36 L475.874 1234.85 Q475.874 1231.17 474.439 1229.34 Q473.003 1227.51 470.133 1227.51 Q466.684 1227.51 464.693 1229.71 Q462.702 1231.91 462.702 1235.71 L462.702 1250.36 L458.42 1250.36 L458.42 1214.34 L462.702 1214.34 L462.702 1228.46 Q464.23 1226.12 466.29 1224.97 Q468.374 1223.81 471.082 1223.81 Q475.55 1223.81 477.841 1226.59 Q480.133 1229.34 480.133 1234.71 Z" fill="#adb2b7" fill-rule="nonzero" fill-opacity="1" /><path clip-path="url(#clip750)" d="M488.188 1240.13 L488.188 1224.43 L492.448 1224.43 L492.448 1239.97 Q492.448 1243.65 493.883 1245.5 Q495.318 1247.33 498.188 1247.33 Q501.637 1247.33 503.628 1245.13 Q505.642 1242.93 505.642 1239.13 L505.642 1224.43 L509.901 1224.43 L509.901 1250.36 L505.642 1250.36 L505.642 1246.38 Q504.091 1248.74 502.031 1249.9 Q499.994 1251.03 497.286 1251.03 Q492.818 1251.03 490.503 1248.25 Q488.188 1245.48 488.188 1240.13 M498.906 1223.81 L498.906 1223.81 Z" fill="#adb2b7" fill-rule="nonzero" fill-opacity="1" /><polyline clip-path="url(#clip750)" style="stroke:#00a8ff; stroke-linecap:round; stroke-linejoin:round; stroke-width:4; stroke-opacity:1; fill:none" points="254.205,1284.92 400.616,1284.92 "/>
<path clip-path="url(#clip750)" d="M425.018 1267.64 L444.879 1267.64 L444.879 1271.57 L429.693 1271.57 L429.693 1281.76 L443.397 1281.76 L443.397 1285.69 L429.693 1285.69 L429.693 1302.2 L425.018 1302.2 L425.018 1267.64 Z" fill="#adb2b7" fill-rule="nonzero" fill-opacity="1" /><path clip-path="url(#clip750)" d="M463.675 1280.26 Q462.957 1279.84 462.101 1279.65 Q461.267 1279.44 460.249 1279.44 Q456.638 1279.44 454.693 1281.81 Q452.772 1284.14 452.772 1288.54 L452.772 1302.2 L448.49 1302.2 L448.49 1276.27 L452.772 1276.27 L452.772 1280.3 Q454.115 1277.94 456.267 1276.81 Q458.42 1275.65 461.499 1275.65 Q461.939 1275.65 462.471 1275.72 Q463.003 1275.76 463.652 1275.88 L463.675 1280.26 Z" fill="#adb2b7" fill-rule="nonzero" fill-opacity="1" /><path clip-path="url(#clip750)" d="M468.142 1276.27 L472.402 1276.27 L472.402 1302.2 L468.142 1302.2 L468.142 1276.27 M468.142 1266.18 L472.402 1266.18 L472.402 1271.57 L468.142 1271.57 L468.142 1266.18 Z" fill="#adb2b7" fill-rule="nonzero" fill-opacity="1" /><polyline clip-path="url(#clip750)" style="stroke:#dc3df1; stroke-linecap:round; stroke-linejoin:round; stroke-width:4; stroke-opacity:1; fill:none" points="254.205,1336.76 400.616,1336.76 "/>
<path clip-path="url(#clip750)" d="M447.263 1320.61 L447.263 1325.17 Q444.601 1323.9 442.24 1323.28 Q439.879 1322.65 437.679 1322.65 Q433.86 1322.65 431.777 1324.13 Q429.717 1325.61 429.717 1328.35 Q429.717 1330.64 431.082 1331.82 Q432.471 1332.97 436.314 1333.69 L439.138 1334.27 Q444.369 1335.27 446.846 1337.79 Q449.346 1340.29 449.346 1344.5 Q449.346 1349.53 445.966 1352.12 Q442.61 1354.71 436.105 1354.71 Q433.652 1354.71 430.874 1354.16 Q428.119 1353.6 425.156 1352.51 L425.156 1347.7 Q428.004 1349.29 430.735 1350.1 Q433.467 1350.91 436.105 1350.91 Q440.11 1350.91 442.286 1349.34 Q444.462 1347.77 444.462 1344.85 Q444.462 1342.3 442.888 1340.87 Q441.337 1339.43 437.772 1338.72 L434.925 1338.16 Q429.693 1337.12 427.355 1334.9 Q425.018 1332.67 425.018 1328.72 Q425.018 1324.13 428.235 1321.49 Q431.476 1318.85 437.147 1318.85 Q439.578 1318.85 442.101 1319.29 Q444.624 1319.73 447.263 1320.61 Z" fill="#adb2b7" fill-rule="nonzero" fill-opacity="1" /><path clip-path="url(#clip750)" d="M468.235 1341.01 Q463.073 1341.01 461.082 1342.19 Q459.091 1343.37 459.091 1346.22 Q459.091 1348.48 460.573 1349.83 Q462.077 1351.15 464.647 1351.15 Q468.189 1351.15 470.318 1348.65 Q472.471 1346.12 472.471 1341.96 L472.471 1341.01 L468.235 1341.01 M476.73 1339.25 L476.73 1354.04 L472.471 1354.04 L472.471 1350.1 Q471.013 1352.47 468.837 1353.6 Q466.661 1354.71 463.513 1354.71 Q459.531 1354.71 457.17 1352.49 Q454.832 1350.24 454.832 1346.49 Q454.832 1342.12 457.749 1339.9 Q460.689 1337.67 466.499 1337.67 L472.471 1337.67 L472.471 1337.26 Q472.471 1334.32 470.527 1332.72 Q468.605 1331.1 465.11 1331.1 Q462.888 1331.1 460.781 1331.63 Q458.675 1332.16 456.73 1333.23 L456.73 1329.29 Q459.068 1328.39 461.267 1327.95 Q463.466 1327.49 465.55 1327.49 Q471.175 1327.49 473.952 1330.41 Q476.73 1333.32 476.73 1339.25 Z" fill="#adb2b7" fill-rule="nonzero" fill-opacity="1" /><path clip-path="url(#clip750)" d="M489.716 1320.75 L489.716 1328.11 L498.489 1328.11 L498.489 1331.42 L489.716 1331.42 L489.716 1345.5 Q489.716 1348.67 490.573 1349.57 Q491.452 1350.47 494.114 1350.47 L498.489 1350.47 L498.489 1354.04 L494.114 1354.04 Q489.184 1354.04 487.309 1352.21 Q485.434 1350.36 485.434 1345.5 L485.434 1331.42 L482.309 1331.42 L482.309 1328.11 L485.434 1328.11 L485.434 1320.75 L489.716 1320.75 Z" fill="#adb2b7" fill-rule="nonzero" fill-opacity="1" /><polyline clip-path="url(#clip750)" style="stroke:#759500; stroke-linecap:round; stroke-linejoin:round; stroke-width:4; stroke-opacity:1; fill:none" points="254.205,1388.6 400.616,1388.6 "/>
<path clip-path="url(#clip750)" d="M447.263 1372.45 L447.263 1377.01 Q444.601 1375.74 442.24 1375.12 Q439.879 1374.49 437.679 1374.49 Q433.86 1374.49 431.777 1375.97 Q429.717 1377.45 429.717 1380.19 Q429.717 1382.48 431.082 1383.66 Q432.471 1384.81 436.314 1385.53 L439.138 1386.11 Q444.369 1387.11 446.846 1389.63 Q449.346 1392.13 449.346 1396.34 Q449.346 1401.37 445.966 1403.96 Q442.61 1406.55 436.105 1406.55 Q433.652 1406.55 430.874 1406 Q428.119 1405.44 425.156 1404.35 L425.156 1399.54 Q428.004 1401.13 430.735 1401.94 Q433.467 1402.75 436.105 1402.75 Q440.11 1402.75 442.286 1401.18 Q444.462 1399.61 444.462 1396.69 Q444.462 1394.14 442.888 1392.71 Q441.337 1391.27 437.772 1390.56 L434.925 1390 Q429.693 1388.96 427.355 1386.74 Q425.018 1384.51 425.018 1380.56 Q425.018 1375.97 428.235 1373.33 Q431.476 1370.69 437.147 1370.69 Q439.578 1370.69 442.101 1371.13 Q444.624 1371.57 447.263 1372.45 Z" fill="#adb2b7" fill-rule="nonzero" fill-opacity="1" /><path clip-path="url(#clip750)" d="M456.013 1395.65 L456.013 1379.95 L460.272 1379.95 L460.272 1395.49 Q460.272 1399.17 461.707 1401.02 Q463.142 1402.85 466.013 1402.85 Q469.462 1402.85 471.452 1400.65 Q473.466 1398.45 473.466 1394.65 L473.466 1379.95 L477.726 1379.95 L477.726 1405.88 L473.466 1405.88 L473.466 1401.9 Q471.915 1404.26 469.855 1405.42 Q467.818 1406.55 465.11 1406.55 Q460.642 1406.55 458.328 1403.77 Q456.013 1401 456.013 1395.65 M466.73 1379.33 L466.73 1379.33 Z" fill="#adb2b7" fill-rule="nonzero" fill-opacity="1" /><path clip-path="url(#clip750)" d="M508.049 1390.23 L508.049 1405.88 L503.79 1405.88 L503.79 1390.37 Q503.79 1386.69 502.355 1384.86 Q500.92 1383.03 498.05 1383.03 Q494.6 1383.03 492.61 1385.23 Q490.619 1387.43 490.619 1391.23 L490.619 1405.88 L486.337 1405.88 L486.337 1379.95 L490.619 1379.95 L490.619 1383.98 Q492.147 1381.64 494.207 1380.49 Q496.29 1379.33 498.999 1379.33 Q503.466 1379.33 505.758 1382.11 Q508.049 1384.86 508.049 1390.23 Z" fill="#adb2b7" fill-rule="nonzero" fill-opacity="1" /><path clip-path="url(#clip750)" d="M1585.29 1095.38 L1592.26 1095.38 L1601.08 1118.9 L1609.94 1095.38 L1616.91 1095.38 L1616.91 1129.94 L1612.35 1129.94 L1612.35 1099.59 L1603.44 1123.29 L1598.74 1123.29 L1589.83 1099.59 L1589.83 1129.94 L1585.29 1129.94 L1585.29 1095.38 Z" fill="#000000" fill-rule="nonzero" fill-opacity="1" /><path clip-path="url(#clip750)" d="M1636.05 1107 Q1632.63 1107 1630.64 1109.68 Q1628.65 1112.35 1628.65 1117 Q1628.65 1121.65 1630.61 1124.34 Q1632.61 1127 1636.05 1127 Q1639.46 1127 1641.45 1124.31 Q1643.44 1121.63 1643.44 1117 Q1643.44 1112.39 1641.45 1109.71 Q1639.46 1107 1636.05 1107 M1636.05 1103.39 Q1641.61 1103.39 1644.78 1107 Q1647.95 1110.61 1647.95 1117 Q1647.95 1123.36 1644.78 1127 Q1641.61 1130.61 1636.05 1130.61 Q1630.48 1130.61 1627.3 1127 Q1624.16 1123.36 1624.16 1117 Q1624.16 1110.61 1627.3 1107 Q1630.48 1103.39 1636.05 1103.39 Z" fill="#000000" fill-rule="nonzero" fill-opacity="1" /><path clip-path="url(#clip750)" d="M1676.56 1114.29 L1676.56 1129.94 L1672.3 1129.94 L1672.3 1114.43 Q1672.3 1110.75 1670.87 1108.92 Q1669.43 1107.09 1666.56 1107.09 Q1663.11 1107.09 1661.12 1109.29 Q1659.13 1111.49 1659.13 1115.29 L1659.13 1129.94 L1654.85 1129.94 L1654.85 1104.01 L1659.13 1104.01 L1659.13 1108.04 Q1660.66 1105.7 1662.72 1104.54 Q1664.8 1103.39 1667.51 1103.39 Q1671.98 1103.39 1674.27 1106.17 Q1676.56 1108.92 1676.56 1114.29 Z" fill="#000000" fill-rule="nonzero" fill-opacity="1" /><path clip-path="url(#clip750)" d="M2334.68 921.769 L2363.92 921.769 L2363.92 925.704 L2351.65 925.704 L2351.65 956.329 L2346.95 956.329 L2346.95 925.704 L2334.68 925.704 L2334.68 921.769 Z" fill="#000000" fill-rule="nonzero" fill-opacity="1" /><path clip-path="url(#clip750)" d="M2360.61 946.098 L2360.61 930.403 L2364.87 930.403 L2364.87 945.936 Q2364.87 949.616 2366.3 951.468 Q2367.74 953.297 2370.61 953.297 Q2374.06 953.297 2376.05 951.098 Q2378.06 948.899 2378.06 945.102 L2378.06 930.403 L2382.32 930.403 L2382.32 956.329 L2378.06 956.329 L2378.06 952.348 Q2376.51 954.709 2374.45 955.866 Q2372.41 957 2369.71 957 Q2365.24 957 2362.92 954.223 Q2360.61 951.445 2360.61 946.098 M2371.33 929.778 L2371.33 929.778 Z" fill="#000000" fill-rule="nonzero" fill-opacity="1" /><path clip-path="url(#clip750)" d="M2413.27 942.301 L2413.27 944.385 L2393.69 944.385 Q2393.96 948.783 2396.33 951.098 Q2398.71 953.389 2402.95 953.389 Q2405.4 953.389 2407.69 952.787 Q2410.01 952.186 2412.27 950.982 L2412.27 955.01 Q2409.98 955.982 2407.58 956.491 Q2405.17 957 2402.69 957 Q2396.49 957 2392.85 953.389 Q2389.24 949.778 2389.24 943.621 Q2389.24 937.255 2392.67 933.528 Q2396.12 929.778 2401.95 929.778 Q2407.18 929.778 2410.21 933.158 Q2413.27 936.514 2413.27 942.301 M2409.01 941.051 Q2408.96 937.556 2407.04 935.473 Q2405.14 933.389 2402 933.389 Q2398.43 933.389 2396.28 935.403 Q2394.15 937.417 2393.83 941.075 L2409.01 941.051 Z" fill="#000000" fill-rule="nonzero" fill-opacity="1" /><path clip-path="url(#clip750)" d="M1761.62 127.976 L1766.34 127.976 L1773.61 157.189 L1780.85 127.976 L1786.11 127.976 L1793.38 157.189 L1800.62 127.976 L1805.37 127.976 L1796.69 162.536 L1790.81 162.536 L1783.52 132.536 L1776.16 162.536 L1770.28 162.536 L1761.62 127.976 Z" fill="#000000" fill-rule="nonzero" fill-opacity="1" /><path clip-path="url(#clip750)" d="M1830.78 148.508 L1830.78 150.592 L1811.2 150.592 Q1811.48 154.99 1813.84 157.305 Q1816.22 159.596 1820.46 159.596 Q1822.91 159.596 1825.21 158.994 Q1827.52 158.392 1829.79 157.189 L1829.79 161.217 Q1827.5 162.189 1825.09 162.698 Q1822.68 163.207 1820.21 163.207 Q1814 163.207 1810.37 159.596 Q1806.76 155.985 1806.76 149.828 Q1806.76 143.462 1810.18 139.735 Q1813.63 135.985 1819.47 135.985 Q1824.7 135.985 1827.73 139.365 Q1830.78 142.721 1830.78 148.508 M1826.53 147.258 Q1826.48 143.763 1824.56 141.68 Q1822.66 139.596 1819.51 139.596 Q1815.95 139.596 1813.79 141.61 Q1811.66 143.624 1811.34 147.281 L1826.53 147.258 Z" fill="#000000" fill-rule="nonzero" fill-opacity="1" /><path clip-path="url(#clip750)" d="M1854.84 140.545 L1854.84 126.518 L1859.09 126.518 L1859.09 162.536 L1854.84 162.536 L1854.84 158.647 Q1853.49 160.962 1851.43 162.096 Q1849.4 163.207 1846.53 163.207 Q1841.83 163.207 1838.86 159.457 Q1835.92 155.707 1835.92 149.596 Q1835.92 143.485 1838.86 139.735 Q1841.83 135.985 1846.53 135.985 Q1849.4 135.985 1851.43 137.119 Q1853.49 138.231 1854.84 140.545 M1840.32 149.596 Q1840.32 154.295 1842.24 156.98 Q1844.19 159.642 1847.57 159.642 Q1850.95 159.642 1852.89 156.98 Q1854.84 154.295 1854.84 149.596 Q1854.84 144.897 1852.89 142.235 Q1850.95 139.55 1847.57 139.55 Q1844.19 139.55 1842.24 142.235 Q1840.32 144.897 1840.32 149.596 Z" fill="#000000" fill-rule="nonzero" fill-opacity="1" /><path clip-path="url(#clip750)" d="M1893.86 434.578 L1923.1 434.578 L1923.1 438.514 L1910.83 438.514 L1910.83 469.138 L1906.13 469.138 L1906.13 438.514 L1893.86 438.514 L1893.86 434.578 Z" fill="#000000" fill-rule="nonzero" fill-opacity="1" /><path clip-path="url(#clip750)" d="M1948.98 453.49 L1948.98 469.138 L1944.72 469.138 L1944.72 453.629 Q1944.72 449.949 1943.28 448.12 Q1941.85 446.291 1938.98 446.291 Q1935.53 446.291 1933.54 448.49 Q1931.55 450.689 1931.55 454.486 L1931.55 469.138 L1927.27 469.138 L1927.27 433.12 L1931.55 433.12 L1931.55 447.24 Q1933.08 444.902 1935.14 443.745 Q1937.22 442.588 1939.93 442.588 Q1944.4 442.588 1946.69 445.365 Q1948.98 448.12 1948.98 453.49 Z" fill="#000000" fill-rule="nonzero" fill-opacity="1" /><path clip-path="url(#clip750)" d="M1957.03 458.907 L1957.03 443.213 L1961.29 443.213 L1961.29 458.745 Q1961.29 462.425 1962.73 464.277 Q1964.16 466.106 1967.03 466.106 Q1970.48 466.106 1972.47 463.907 Q1974.49 461.708 1974.49 457.912 L1974.49 443.213 L1978.75 443.213 L1978.75 469.138 L1974.49 469.138 L1974.49 465.157 Q1972.94 467.518 1970.88 468.675 Q1968.84 469.81 1966.13 469.81 Q1961.66 469.81 1959.35 467.032 Q1957.03 464.254 1957.03 458.907 M1967.75 442.588 L1967.75 442.588 Z" fill="#000000" fill-rule="nonzero" fill-opacity="1" /><path clip-path="url(#clip750)" d="M1849.78 972.818 L1869.64 972.818 L1869.64 976.753 L1854.46 976.753 L1854.46 986.938 L1868.16 986.938 L1868.16 990.873 L1854.46 990.873 L1854.46 1007.38 L1849.78 1007.38 L1849.78 972.818 Z" fill="#000000" fill-rule="nonzero" fill-opacity="1" /><path clip-path="url(#clip750)" d="M1888.44 985.433 Q1887.72 985.017 1886.87 984.832 Q1886.03 984.623 1885.01 984.623 Q1881.4 984.623 1879.46 986.984 Q1877.54 989.322 1877.54 993.72 L1877.54 1007.38 L1873.25 1007.38 L1873.25 981.452 L1877.54 981.452 L1877.54 985.48 Q1878.88 983.119 1881.03 981.984 Q1883.18 980.827 1886.26 980.827 Q1886.7 980.827 1887.24 980.896 Q1887.77 980.943 1888.42 981.058 L1888.44 985.433 Z" fill="#000000" fill-rule="nonzero" fill-opacity="1" /><path clip-path="url(#clip750)" d="M1892.91 981.452 L1897.17 981.452 L1897.17 1007.38 L1892.91 1007.38 L1892.91 981.452 M1892.91 971.359 L1897.17 971.359 L1897.17 976.753 L1892.91 976.753 L1892.91 971.359 Z" fill="#000000" fill-rule="nonzero" fill-opacity="1" /><path clip-path="url(#clip750)" d="M1872.03 1103.11 L1872.03 1107.67 Q1869.37 1106.4 1867 1105.77 Q1864.64 1105.15 1862.44 1105.15 Q1858.62 1105.15 1856.54 1106.63 Q1854.48 1108.11 1854.48 1110.84 Q1854.48 1113.14 1855.85 1114.32 Q1857.24 1115.47 1861.08 1116.19 L1863.9 1116.77 Q1869.13 1117.77 1871.61 1120.29 Q1874.11 1122.79 1874.11 1127 Q1874.11 1132.02 1870.73 1134.62 Q1867.37 1137.21 1860.87 1137.21 Q1858.42 1137.21 1855.64 1136.65 Q1852.88 1136.1 1849.92 1135.01 L1849.92 1130.2 Q1852.77 1131.79 1855.5 1132.6 Q1858.23 1133.41 1860.87 1133.41 Q1864.87 1133.41 1867.05 1131.84 Q1869.23 1130.27 1869.23 1127.35 Q1869.23 1124.8 1867.65 1123.37 Q1866.1 1121.93 1862.54 1121.21 L1859.69 1120.66 Q1854.46 1119.62 1852.12 1117.4 Q1849.78 1115.17 1849.78 1111.21 Q1849.78 1106.63 1853 1103.99 Q1856.24 1101.35 1861.91 1101.35 Q1864.34 1101.35 1866.87 1101.79 Q1869.39 1102.23 1872.03 1103.11 Z" fill="#000000" fill-rule="nonzero" fill-opacity="1" /><path clip-path="url(#clip750)" d="M1893 1123.51 Q1887.84 1123.51 1885.85 1124.69 Q1883.86 1125.87 1883.86 1128.71 Q1883.86 1130.98 1885.34 1132.33 Q1886.84 1133.64 1889.41 1133.64 Q1892.95 1133.64 1895.08 1131.15 Q1897.24 1128.62 1897.24 1124.46 L1897.24 1123.51 L1893 1123.51 M1901.49 1121.75 L1901.49 1136.54 L1897.24 1136.54 L1897.24 1132.6 Q1895.78 1134.96 1893.6 1136.1 Q1891.43 1137.21 1888.28 1137.21 Q1884.3 1137.21 1881.93 1134.99 Q1879.6 1132.74 1879.6 1128.99 Q1879.6 1124.62 1882.51 1122.4 Q1885.45 1120.17 1891.26 1120.17 L1897.24 1120.17 L1897.24 1119.76 Q1897.24 1116.82 1895.29 1115.22 Q1893.37 1113.6 1889.87 1113.6 Q1887.65 1113.6 1885.55 1114.13 Q1883.44 1114.66 1881.49 1115.73 L1881.49 1111.79 Q1883.83 1110.89 1886.03 1110.45 Q1888.23 1109.99 1890.31 1109.99 Q1895.94 1109.99 1898.72 1112.9 Q1901.49 1115.82 1901.49 1121.75 Z" fill="#000000" fill-rule="nonzero" fill-opacity="1" /><path clip-path="url(#clip750)" d="M1914.48 1103.25 L1914.48 1110.61 L1923.25 1110.61 L1923.25 1113.92 L1914.48 1113.92 L1914.48 1128 Q1914.48 1131.17 1915.34 1132.07 Q1916.22 1132.97 1918.88 1132.97 L1923.25 1132.97 L1923.25 1136.54 L1918.88 1136.54 Q1913.95 1136.54 1912.07 1134.71 Q1910.2 1132.86 1910.2 1128 L1910.2 1113.92 L1907.07 1113.92 L1907.07 1110.61 L1910.2 1110.61 L1910.2 1103.25 L1914.48 1103.25 Z" fill="#000000" fill-rule="nonzero" fill-opacity="1" /><path clip-path="url(#clip750)" d="M1827.95 757.491 L1827.95 762.051 Q1825.28 760.778 1822.92 760.153 Q1820.56 759.528 1818.36 759.528 Q1814.54 759.528 1812.46 761.009 Q1810.4 762.491 1810.4 765.222 Q1810.4 767.514 1811.76 768.694 Q1813.15 769.852 1817 770.569 L1819.82 771.148 Q1825.05 772.143 1827.53 774.666 Q1830.03 777.166 1830.03 781.379 Q1830.03 786.403 1826.65 788.995 Q1823.29 791.588 1816.79 791.588 Q1814.33 791.588 1811.56 791.032 Q1808.8 790.477 1805.84 789.389 L1805.84 784.574 Q1808.69 786.171 1811.42 786.981 Q1814.15 787.791 1816.79 787.791 Q1820.79 787.791 1822.97 786.217 Q1825.14 784.643 1825.14 781.727 Q1825.14 779.18 1823.57 777.745 Q1822.02 776.31 1818.45 775.592 L1815.61 775.037 Q1810.38 773.995 1808.04 771.773 Q1805.7 769.551 1805.7 765.592 Q1805.7 761.009 1808.92 758.37 Q1812.16 755.731 1817.83 755.731 Q1820.26 755.731 1822.78 756.171 Q1825.31 756.611 1827.95 757.491 Z" fill="#000000" fill-rule="nonzero" fill-opacity="1" /><path clip-path="url(#clip750)" d="M1836.7 780.685 L1836.7 764.991 L1840.95 764.991 L1840.95 780.523 Q1840.95 784.203 1842.39 786.055 Q1843.82 787.884 1846.7 787.884 Q1850.14 787.884 1852.14 785.685 Q1854.15 783.486 1854.15 779.69 L1854.15 764.991 L1858.41 764.991 L1858.41 790.916 L1854.15 790.916 L1854.15 786.935 Q1852.6 789.296 1850.54 790.453 Q1848.5 791.588 1845.79 791.588 Q1841.32 791.588 1839.01 788.81 Q1836.7 786.032 1836.7 780.685 M1847.41 764.366 L1847.41 764.366 Z" fill="#000000" fill-rule="nonzero" fill-opacity="1" /><path clip-path="url(#clip750)" d="M1888.73 775.268 L1888.73 790.916 L1884.47 790.916 L1884.47 775.407 Q1884.47 771.727 1883.04 769.898 Q1881.6 768.069 1878.73 768.069 Q1875.28 768.069 1873.29 770.268 Q1871.3 772.467 1871.3 776.264 L1871.3 790.916 L1867.02 790.916 L1867.02 764.991 L1871.3 764.991 L1871.3 769.018 Q1872.83 766.68 1874.89 765.523 Q1876.97 764.366 1879.68 764.366 Q1884.15 764.366 1886.44 767.143 Q1888.73 769.898 1888.73 775.268 Z" fill="#000000" fill-rule="nonzero" fill-opacity="1" /></svg>
