<?xml version="1.0" encoding="utf-8"?>
<svg xmlns="http://www.w3.org/2000/svg" xmlns:xlink="http://www.w3.org/1999/xlink" width="600" height="400" viewBox="0 0 2400 1600">
<defs>
  <clipPath id="clip860">
    <rect x="0" y="0" width="2400" height="1600"/>
  </clipPath>
</defs>
<path clip-path="url(#clip860)" d="M0 1600 L2400 1600 L2400 0 L0 0  Z" fill="#282c34" fill-rule="evenodd" fill-opacity="1"/>
<defs>
  <clipPath id="clip861">
    <rect x="110" y="106" width="2243" height="1381"/>
  </clipPath>
</defs>
<path clip-path="url(#clip860)" d="M110.881 1486.45 L2352.76 1486.45 L2352.76 106.192 L110.881 106.192  Z" fill="#21252b" fill-rule="evenodd" fill-opacity="1"/>
<polyline clip-path="url(#clip861)" style="stroke:#adb2b7; stroke-linecap:round; stroke-linejoin:round; stroke-width:2; stroke-opacity:0.1; fill:none" points="156.557,1486.45 156.557,106.192 "/>
<polyline clip-path="url(#clip861)" style="stroke:#adb2b7; stroke-linecap:round; stroke-linejoin:round; stroke-width:2; stroke-opacity:0.1; fill:none" points="600.88,1486.45 600.88,106.192 "/>
<polyline clip-path="url(#clip861)" style="stroke:#adb2b7; stroke-linecap:round; stroke-linejoin:round; stroke-width:2; stroke-opacity:0.1; fill:none" points="1045.2,1486.45 1045.2,106.192 "/>
<polyline clip-path="url(#clip861)" style="stroke:#adb2b7; stroke-linecap:round; stroke-linejoin:round; stroke-width:2; stroke-opacity:0.1; fill:none" points="1489.53,1486.45 1489.53,106.192 "/>
<polyline clip-path="url(#clip861)" style="stroke:#adb2b7; stroke-linecap:round; stroke-linejoin:round; stroke-width:2; stroke-opacity:0.1; fill:none" points="1933.85,1486.45 1933.85,106.192 "/>
<polyline clip-path="url(#clip861)" style="stroke:#adb2b7; stroke-linecap:round; stroke-linejoin:round; stroke-width:2; stroke-opacity:0.1; fill:none" points="110.881,1486.45 2352.76,1486.45 "/>
<polyline clip-path="url(#clip861)" style="stroke:#adb2b7; stroke-linecap:round; stroke-linejoin:round; stroke-width:2; stroke-opacity:0.1; fill:none" points="110.881,106.192 2352.76,106.192 "/>
<polyline clip-path="url(#clip860)" style="stroke:#adb2b7; stroke-linecap:round; stroke-linejoin:round; stroke-width:4; stroke-opacity:1; fill:none" points="110.881,1486.45 2352.76,1486.45 "/>
<polyline clip-path="url(#clip860)" style="stroke:#adb2b7; stroke-linecap:round; stroke-linejoin:round; stroke-width:4; stroke-opacity:1; fill:none" points="156.557,1486.45 156.557,1467.55 "/>
<polyline clip-path="url(#clip860)" style="stroke:#adb2b7; stroke-linecap:round; stroke-linejoin:round; stroke-width:4; stroke-opacity:1; fill:none" points="600.88,1486.45 600.88,1467.55 "/>
<polyline clip-path="url(#clip860)" style="stroke:#adb2b7; stroke-linecap:round; stroke-linejoin:round; stroke-width:4; stroke-opacity:1; fill:none" points="1045.2,1486.45 1045.2,1467.55 "/>
<polyline clip-path="url(#clip860)" style="stroke:#adb2b7; stroke-linecap:round; stroke-linejoin:round; stroke-width:4; stroke-opacity:1; fill:none" points="1489.53,1486.45 1489.53,1467.55 "/>
<polyline clip-path="url(#clip860)" style="stroke:#adb2b7; stroke-linecap:round; stroke-linejoin:round; stroke-width:4; stroke-opacity:1; fill:none" points="1933.85,1486.45 1933.85,1467.55 "/>
<path clip-path="url(#clip860)" d="M156.557 1517.37 Q152.946 1517.37 151.117 1520.93 Q149.312 1524.47 149.312 1531.6 Q149.312 1538.71 151.117 1542.27 Q152.946 1545.82 156.557 1545.82 Q160.192 1545.82 161.997 1542.27 Q163.826 1538.71 163.826 1531.6 Q163.826 1524.47 161.997 1520.93 Q160.192 1517.37 156.557 1517.37 M156.557 1513.66 Q162.367 1513.66 165.423 1518.27 Q168.502 1522.85 168.502 1531.6 Q168.502 1540.33 165.423 1544.94 Q162.367 1549.52 156.557 1549.52 Q150.747 1549.52 147.668 1544.94 Q144.613 1540.33 144.613 1531.6 Q144.613 1522.85 147.668 1518.27 Q150.747 1513.66 156.557 1513.66 Z" fill="#9eb1be" fill-rule="nonzero" fill-opacity="1" /><path clip-path="url(#clip860)" d="M580.151 1544.91 L596.47 1544.91 L596.47 1548.85 L574.526 1548.85 L574.526 1544.91 Q577.188 1542.16 581.771 1537.53 Q586.378 1532.88 587.558 1531.53 Q589.804 1529.01 590.683 1527.27 Q591.586 1525.51 591.586 1523.82 Q591.586 1521.07 589.642 1519.33 Q587.72 1517.6 584.619 1517.6 Q582.419 1517.6 579.966 1518.36 Q577.535 1519.13 574.758 1520.68 L574.758 1515.95 Q577.582 1514.82 580.035 1514.24 Q582.489 1513.66 584.526 1513.66 Q589.896 1513.66 593.091 1516.35 Q596.285 1519.03 596.285 1523.52 Q596.285 1525.65 595.475 1527.57 Q594.688 1529.47 592.581 1532.07 Q592.003 1532.74 588.901 1535.95 Q585.799 1539.15 580.151 1544.91 Z" fill="#9eb1be" fill-rule="nonzero" fill-opacity="1" /><path clip-path="url(#clip860)" d="M606.331 1514.29 L624.688 1514.29 L624.688 1518.22 L610.614 1518.22 L610.614 1526.7 Q611.632 1526.35 612.651 1526.19 Q613.669 1526 614.688 1526 Q620.475 1526 623.854 1529.17 Q627.234 1532.34 627.234 1537.76 Q627.234 1543.34 623.762 1546.44 Q620.29 1549.52 613.97 1549.52 Q611.794 1549.52 609.526 1549.15 Q607.28 1548.78 604.873 1548.04 L604.873 1543.34 Q606.956 1544.47 609.179 1545.03 Q611.401 1545.58 613.878 1545.58 Q617.882 1545.58 620.22 1543.48 Q622.558 1541.37 622.558 1537.76 Q622.558 1534.15 620.22 1532.04 Q617.882 1529.94 613.878 1529.94 Q612.003 1529.94 610.128 1530.35 Q608.276 1530.77 606.331 1531.65 L606.331 1514.29 Z" fill="#9eb1be" fill-rule="nonzero" fill-opacity="1" /><path clip-path="url(#clip860)" d="M1019.9 1514.29 L1038.26 1514.29 L1038.26 1518.22 L1024.18 1518.22 L1024.18 1526.7 Q1025.2 1526.35 1026.22 1526.19 Q1027.24 1526 1028.26 1526 Q1034.05 1526 1037.43 1529.17 Q1040.8 1532.34 1040.8 1537.76 Q1040.8 1543.34 1037.33 1546.44 Q1033.86 1549.52 1027.54 1549.52 Q1025.36 1549.52 1023.1 1549.15 Q1020.85 1548.78 1018.44 1548.04 L1018.44 1543.34 Q1020.53 1544.47 1022.75 1545.03 Q1024.97 1545.58 1027.45 1545.58 Q1031.45 1545.58 1033.79 1543.48 Q1036.13 1541.37 1036.13 1537.76 Q1036.13 1534.15 1033.79 1532.04 Q1031.45 1529.94 1027.45 1529.94 Q1025.57 1529.94 1023.7 1530.35 Q1021.85 1530.77 1019.9 1531.65 L1019.9 1514.29 Z" fill="#9eb1be" fill-rule="nonzero" fill-opacity="1" /><path clip-path="url(#clip860)" d="M1060.02 1517.37 Q1056.41 1517.37 1054.58 1520.93 Q1052.77 1524.47 1052.77 1531.6 Q1052.77 1538.71 1054.58 1542.27 Q1056.41 1545.82 1060.02 1545.82 Q1063.65 1545.82 1065.46 1542.27 Q1067.29 1538.71 1067.29 1531.6 Q1067.29 1524.47 1065.46 1520.93 Q1063.65 1517.37 1060.02 1517.37 M1060.02 1513.66 Q1065.83 1513.66 1068.88 1518.27 Q1071.96 1522.85 1071.96 1531.6 Q1071.96 1540.33 1068.88 1544.94 Q1065.83 1549.52 1060.02 1549.52 Q1054.21 1549.52 1051.13 1544.94 Q1048.07 1540.33 1048.07 1531.6 Q1048.07 1522.85 1051.13 1518.27 Q1054.21 1513.66 1060.02 1513.66 Z" fill="#9eb1be" fill-rule="nonzero" fill-opacity="1" /><path clip-path="url(#clip860)" d="M1463.38 1514.29 L1485.6 1514.29 L1485.6 1516.28 L1473.06 1548.85 L1468.17 1548.85 L1479.98 1518.22 L1463.38 1518.22 L1463.38 1514.29 Z" fill="#9eb1be" fill-rule="nonzero" fill-opacity="1" /><path clip-path="url(#clip860)" d="M1494.77 1514.29 L1513.13 1514.29 L1513.13 1518.22 L1499.05 1518.22 L1499.05 1526.7 Q1500.07 1526.35 1501.09 1526.19 Q1502.11 1526 1503.13 1526 Q1508.91 1526 1512.29 1529.17 Q1515.67 1532.34 1515.67 1537.76 Q1515.67 1543.34 1512.2 1546.44 Q1508.73 1549.52 1502.41 1549.52 Q1500.23 1549.52 1497.96 1549.15 Q1495.72 1548.78 1493.31 1548.04 L1493.31 1543.34 Q1495.39 1544.47 1497.62 1545.03 Q1499.84 1545.58 1502.31 1545.58 Q1506.32 1545.58 1508.66 1543.48 Q1511 1541.37 1511 1537.76 Q1511 1534.15 1508.66 1532.04 Q1506.32 1529.94 1502.31 1529.94 Q1500.44 1529.94 1498.56 1530.35 Q1496.71 1530.77 1494.77 1531.65 L1494.77 1514.29 Z" fill="#9eb1be" fill-rule="nonzero" fill-opacity="1" /><path clip-path="url(#clip860)" d="M1893.46 1544.91 L1901.09 1544.91 L1901.09 1518.55 L1892.78 1520.21 L1892.78 1515.95 L1901.05 1514.29 L1905.72 1514.29 L1905.72 1544.91 L1913.36 1544.91 L1913.36 1548.85 L1893.46 1548.85 L1893.46 1544.91 Z" fill="#9eb1be" fill-rule="nonzero" fill-opacity="1" /><path clip-path="url(#clip860)" d="M1932.81 1517.37 Q1929.2 1517.37 1927.37 1520.93 Q1925.56 1524.47 1925.56 1531.6 Q1925.56 1538.71 1927.37 1542.27 Q1929.2 1545.82 1932.81 1545.82 Q1936.44 1545.82 1938.25 1542.27 Q1940.08 1538.71 1940.08 1531.6 Q1940.08 1524.47 1938.25 1520.93 Q1936.44 1517.37 1932.81 1517.37 M1932.81 1513.66 Q1938.62 1513.66 1941.67 1518.27 Q1944.75 1522.85 1944.75 1531.6 Q1944.75 1540.33 1941.67 1544.94 Q1938.62 1549.52 1932.81 1549.52 Q1927 1549.52 1923.92 1544.94 Q1920.86 1540.33 1920.86 1531.6 Q1920.86 1522.85 1923.92 1518.27 Q1927 1513.66 1932.81 1513.66 Z" fill="#9eb1be" fill-rule="nonzero" fill-opacity="1" /><path clip-path="url(#clip860)" d="M1962.97 1517.37 Q1959.36 1517.37 1957.53 1520.93 Q1955.72 1524.47 1955.72 1531.6 Q1955.72 1538.71 1957.53 1542.27 Q1959.36 1545.82 1962.97 1545.82 Q1966.6 1545.82 1968.41 1542.27 Q1970.24 1538.71 1970.24 1531.6 Q1970.24 1524.47 1968.41 1520.93 Q1966.6 1517.37 1962.97 1517.37 M1962.97 1513.66 Q1968.78 1513.66 1971.83 1518.27 Q1974.91 1522.85 1974.91 1531.6 Q1974.91 1540.33 1971.83 1544.94 Q1968.78 1549.52 1962.97 1549.52 Q1957.16 1549.52 1954.08 1544.94 Q1951.02 1540.33 1951.02 1531.6 Q1951.02 1522.85 1954.08 1518.27 Q1957.16 1513.66 1962.97 1513.66 Z" fill="#9eb1be" fill-rule="nonzero" fill-opacity="1" /><polyline clip-path="url(#clip860)" style="stroke:#adb2b7; stroke-linecap:round; stroke-linejoin:round; stroke-width:4; stroke-opacity:1; fill:none" points="110.881,1486.45 110.881,106.192 "/>
<polyline clip-path="url(#clip860)" style="stroke:#adb2b7; stroke-linecap:round; stroke-linejoin:round; stroke-width:4; stroke-opacity:1; fill:none" points="110.881,1486.45 129.779,1486.45 "/>
<polyline clip-path="url(#clip860)" style="stroke:#adb2b7; stroke-linecap:round; stroke-linejoin:round; stroke-width:4; stroke-opacity:1; fill:none" points="110.881,106.192 129.779,106.192 "/>
<path clip-path="url(#clip860)" d="M62.9365 1472.25 Q59.3254 1472.25 57.4967 1475.81 Q55.6912 1479.35 55.6912 1486.48 Q55.6912 1493.59 57.4967 1497.15 Q59.3254 1500.7 62.9365 1500.7 Q66.5707 1500.7 68.3763 1497.15 Q70.205 1493.59 70.205 1486.48 Q70.205 1479.35 68.3763 1475.81 Q66.5707 1472.25 62.9365 1472.25 M62.9365 1468.54 Q68.7467 1468.54 71.8022 1473.15 Q74.8809 1477.73 74.8809 1486.48 Q74.8809 1495.21 71.8022 1499.82 Q68.7467 1504.4 62.9365 1504.4 Q57.1264 1504.4 54.0477 1499.82 Q50.9921 1495.21 50.9921 1486.48 Q50.9921 1477.73 54.0477 1473.15 Q57.1264 1468.54 62.9365 1468.54 Z" fill="#9eb1be" fill-rule="nonzero" fill-opacity="1" /><path clip-path="url(#clip860)" d="M54.9736 119.537 L62.6124 119.537 L62.6124 93.1714 L54.3023 94.838 L54.3023 90.5788 L62.5661 88.9121 L67.242 88.9121 L67.242 119.537 L74.8809 119.537 L74.8809 123.472 L54.9736 123.472 L54.9736 119.537 Z" fill="#9eb1be" fill-rule="nonzero" fill-opacity="1" /><path clip-path="url(#clip860)" d="M136.604 25.7695 L128.184 25.7695 L125.753 35.4338 L134.231 35.4338 L136.604 25.7695 M132.264 9.30551 L129.255 21.3135 L137.704 21.3135 L140.742 9.30551 L145.371 9.30551 L142.391 21.3135 L151.419 21.3135 L151.419 25.7695 L141.263 25.7695 L138.89 35.4338 L148.091 35.4338 L148.091 39.8609 L137.762 39.8609 L134.752 51.84 L130.123 51.84 L133.103 39.8609 L124.625 39.8609 L121.645 51.84 L116.986 51.84 L119.995 39.8609 L110.881 39.8609 L110.881 35.4338 L121.066 35.4338 L123.497 25.7695 L114.179 25.7695 L114.179 21.3135 L124.625 21.3135 L127.576 9.30551 L132.264 9.30551 Z" fill="#adb2b7" fill-rule="nonzero" fill-opacity="1" /><path clip-path="url(#clip860)" d="M192.941 23.1654 Q188.658 23.1654 186.17 26.5218 Q183.681 29.8494 183.681 35.6653 Q183.681 41.4813 186.141 44.8377 Q188.629 48.1653 192.941 48.1653 Q197.194 48.1653 199.682 44.8088 Q202.171 41.4523 202.171 35.6653 Q202.171 29.9072 199.682 26.5508 Q197.194 23.1654 192.941 23.1654 M192.941 18.6515 Q199.885 18.6515 203.849 23.1654 Q207.813 27.6792 207.813 35.6653 Q207.813 43.6225 203.849 48.1653 Q199.885 52.6791 192.941 52.6791 Q185.967 52.6791 182.003 48.1653 Q178.068 43.6225 178.068 35.6653 Q178.068 27.6792 182.003 23.1654 Q185.967 18.6515 192.941 18.6515 Z" fill="#adb2b7" fill-rule="nonzero" fill-opacity="1" /><path clip-path="url(#clip860)" d="M221.789 46.9789 L221.789 64.1663 L216.436 64.1663 L216.436 19.4328 L221.789 19.4328 L221.789 24.3517 Q223.467 21.4582 226.013 20.0693 Q228.589 18.6515 232.148 18.6515 Q238.05 18.6515 241.725 23.339 Q245.429 28.0265 245.429 35.6653 Q245.429 43.3042 241.725 47.9916 Q238.05 52.6791 232.148 52.6791 Q228.589 52.6791 226.013 51.2902 Q223.467 49.8724 221.789 46.9789 M239.902 35.6653 Q239.902 29.7915 237.472 26.464 Q235.07 23.1075 230.846 23.1075 Q226.621 23.1075 224.19 26.464 Q221.789 29.7915 221.789 35.6653 Q221.789 41.5391 224.19 44.8956 Q226.621 48.2231 230.846 48.2231 Q235.07 48.2231 237.472 44.8956 Q239.902 41.5391 239.902 35.6653 Z" fill="#adb2b7" fill-rule="nonzero" fill-opacity="1" /><path clip-path="url(#clip860)" d="M281.974 34.3054 L281.974 36.9095 L257.495 36.9095 Q257.842 42.4072 260.793 45.3007 Q263.774 48.1653 269.069 48.1653 Q272.136 48.1653 275 47.4129 Q277.894 46.6606 280.73 45.156 L280.73 50.1907 Q277.865 51.406 274.856 52.0425 Q271.846 52.6791 268.75 52.6791 Q260.996 52.6791 256.453 48.1653 Q251.939 43.6514 251.939 35.9547 Q251.939 27.9975 256.222 23.339 Q260.533 18.6515 267.824 18.6515 Q274.364 18.6515 278.154 22.876 Q281.974 27.0716 281.974 34.3054 M276.65 32.7429 Q276.592 28.3737 274.19 25.7695 Q271.818 23.1654 267.882 23.1654 Q263.426 23.1654 260.735 25.6827 Q258.073 28.2001 257.668 32.7718 L276.65 32.7429 Z" fill="#adb2b7" fill-rule="nonzero" fill-opacity="1" /><path clip-path="url(#clip860)" d="M317.651 32.2799 L317.651 51.84 L312.327 51.84 L312.327 32.4535 Q312.327 27.8529 310.533 25.567 Q308.739 23.2811 305.151 23.2811 Q300.839 23.2811 298.351 26.03 Q295.863 28.7788 295.863 33.5241 L295.863 51.84 L290.51 51.84 L290.51 19.4328 L295.863 19.4328 L295.863 24.4675 Q297.772 21.545 300.347 20.0983 Q302.952 18.6515 306.337 18.6515 Q311.921 18.6515 314.786 22.1237 Q317.651 25.567 317.651 32.2799 Z" fill="#adb2b7" fill-rule="nonzero" fill-opacity="1" /><path clip-path="url(#clip860)" d="M359.664 23.1654 Q355.382 23.1654 352.893 26.5218 Q350.405 29.8494 350.405 35.6653 Q350.405 41.4813 352.865 44.8377 Q355.353 48.1653 359.664 48.1653 Q363.918 48.1653 366.406 44.8088 Q368.895 41.4523 368.895 35.6653 Q368.895 29.9072 366.406 26.5508 Q363.918 23.1654 359.664 23.1654 M359.664 18.6515 Q366.609 18.6515 370.573 23.1654 Q374.537 27.6792 374.537 35.6653 Q374.537 43.6225 370.573 48.1653 Q366.609 52.6791 359.664 52.6791 Q352.691 52.6791 348.727 48.1653 Q344.792 43.6225 344.792 35.6653 Q344.792 27.6792 348.727 23.1654 Q352.691 18.6515 359.664 18.6515 Z" fill="#adb2b7" fill-rule="nonzero" fill-opacity="1" /><path clip-path="url(#clip860)" d="M402.141 24.4096 Q401.244 23.8888 400.173 23.6573 Q399.132 23.3969 397.859 23.3969 Q393.345 23.3969 390.914 26.3482 Q388.513 29.2707 388.513 34.7683 L388.513 51.84 L383.16 51.84 L383.16 19.4328 L388.513 19.4328 L388.513 24.4675 Q390.191 21.5161 392.882 20.0983 Q395.573 18.6515 399.421 18.6515 Q399.971 18.6515 400.636 18.7383 Q401.302 18.7962 402.112 18.9409 L402.141 24.4096 Z" fill="#adb2b7" fill-rule="nonzero" fill-opacity="1" /><path clip-path="url(#clip860)" d="M428.009 24.3517 L428.009 6.81709 L433.333 6.81709 L433.333 51.84 L428.009 51.84 L428.009 46.9789 Q426.331 49.8724 423.755 51.2902 Q421.209 52.6791 417.621 52.6791 Q411.747 52.6791 408.044 47.9916 Q404.369 43.3042 404.369 35.6653 Q404.369 28.0265 408.044 23.339 Q411.747 18.6515 417.621 18.6515 Q421.209 18.6515 423.755 20.0693 Q426.331 21.4582 428.009 24.3517 M409.867 35.6653 Q409.867 41.5391 412.268 44.8956 Q414.699 48.2231 418.923 48.2231 Q423.148 48.2231 425.578 44.8956 Q428.009 41.5391 428.009 35.6653 Q428.009 29.7915 425.578 26.464 Q423.148 23.1075 418.923 23.1075 Q414.699 23.1075 412.268 26.464 Q409.867 29.7915 409.867 35.6653 Z" fill="#adb2b7" fill-rule="nonzero" fill-opacity="1" /><path clip-path="url(#clip860)" d="M472.019 34.3054 L472.019 36.9095 L447.54 36.9095 Q447.887 42.4072 450.839 45.3007 Q453.819 48.1653 459.114 48.1653 Q462.181 48.1653 465.046 47.4129 Q467.939 46.6606 470.775 45.156 L470.775 50.1907 Q467.91 51.406 464.901 52.0425 Q461.892 52.6791 458.796 52.6791 Q451.041 52.6791 446.498 48.1653 Q441.984 43.6514 441.984 35.9547 Q441.984 27.9975 446.267 23.339 Q450.578 18.6515 457.87 18.6515 Q464.409 18.6515 468.2 22.876 Q472.019 27.0716 472.019 34.3054 M466.695 32.7429 Q466.637 28.3737 464.235 25.7695 Q461.863 23.1654 457.928 23.1654 Q453.472 23.1654 450.781 25.6827 Q448.119 28.2001 447.714 32.7718 L466.695 32.7429 Z" fill="#adb2b7" fill-rule="nonzero" fill-opacity="1" /><path clip-path="url(#clip860)" d="M499.536 24.4096 Q498.639 23.8888 497.569 23.6573 Q496.527 23.3969 495.254 23.3969 Q490.74 23.3969 488.309 26.3482 Q485.908 29.2707 485.908 34.7683 L485.908 51.84 L480.555 51.84 L480.555 19.4328 L485.908 19.4328 L485.908 24.4675 Q487.586 21.5161 490.277 20.0983 Q492.968 18.6515 496.816 18.6515 Q497.366 18.6515 498.032 18.7383 Q498.697 18.7962 499.507 18.9409 L499.536 24.4096 Z" fill="#adb2b7" fill-rule="nonzero" fill-opacity="1" /><path clip-path="url(#clip860)" d="M525.78 20.3876 L525.78 25.4223 Q523.523 24.2649 521.093 23.6862 Q518.662 23.1075 516.058 23.1075 Q512.094 23.1075 510.097 24.3228 Q508.13 25.5381 508.13 27.9686 Q508.13 29.8204 509.548 30.891 Q510.966 31.9327 515.248 32.8876 L517.071 33.2926 Q522.742 34.5079 525.115 36.7359 Q527.516 38.935 527.516 42.8991 Q527.516 47.4129 523.928 50.046 Q520.369 52.6791 514.119 52.6791 Q511.515 52.6791 508.68 52.1583 Q505.873 51.6664 502.748 50.6537 L502.748 45.156 Q505.699 46.6896 508.564 47.4708 Q511.429 48.2231 514.235 48.2231 Q517.997 48.2231 520.022 46.95 Q522.048 45.6479 522.048 43.3042 Q522.048 41.134 520.572 39.9766 Q519.125 38.8192 514.177 37.7486 L512.325 37.3146 Q507.378 36.273 505.179 34.1318 Q502.979 31.9616 502.979 28.2001 Q502.979 23.6283 506.22 21.1399 Q509.461 18.6515 515.422 18.6515 Q518.373 18.6515 520.977 19.0855 Q523.581 19.5196 525.78 20.3876 Z" fill="#adb2b7" fill-rule="nonzero" fill-opacity="1" /><polyline clip-path="url(#clip861)" style="stroke:#000000; stroke-linecap:round; stroke-linejoin:round; stroke-width:4; stroke-opacity:1; fill:none" points="174.33,1486.45 192.103,1486.45 209.876,1486.45 227.649,1486.45 245.422,1486.45 263.195,1486.45 280.968,1486.45 298.741,1486.45 316.513,1486.45 334.286,1486.45 352.059,1486.45 369.832,1486.45 387.605,1486.45 405.378,1486.45 423.151,1486.45 440.924,1486.45 458.697,1486.45 476.47,1486.45 494.243,1486.45 512.015,1486.45 529.788,1486.45 547.561,1486.45 565.334,1486.45 583.107,1486.45 583.107,106.192 600.88,106.192 618.653,106.192 636.426,106.192 654.199,106.192 671.972,106.192 689.745,106.192 707.518,106.192 725.29,106.192 743.063,106.192 760.836,106.192 778.609,106.192 796.382,106.192 814.155,106.192 831.928,106.192 849.701,106.192 867.474,106.192 885.247,106.192 903.02,106.192 920.792,106.192 938.565,106.192 956.338,106.192 974.111,106.192 991.884,106.192 1009.66,106.192 1027.43,106.192 1045.2,106.192 1062.98,106.192 1080.75,106.192 1098.52,106.192 1116.29,106.192 1134.07,106.192 1151.84,106.192 1169.61,106.192 1187.39,106.192 1205.16,106.192 1222.93,106.192 1240.7,106.192 1258.48,106.192 1276.25,106.192 1294.02,106.192 1311.8,106.192 1329.57,106.192 1347.34,106.192 1365.12,106.192 1382.89,106.192 1400.66,106.192 1418.43,106.192 1436.21,106.192 1453.98,106.192 1471.75,106.192 1489.53,106.192 1507.3,106.192 1525.07,106.192 1542.84,106.192 1560.62,106.192 1578.39,106.192 1596.16,106.192 1613.94,106.192 1631.71,106.192 1649.48,106.192 1667.25,106.192 1685.03,106.192 1702.8,106.192 1720.57,106.192 1738.35,106.192 1756.12,106.192 1773.89,106.192 1791.67,106.192 1809.44,106.192 1827.21,106.192 1844.98,106.192 1862.76,106.192 1880.53,106.192 1898.3,106.192 1916.08,106.192 1933.85,106.192 1951.62,106.192 1969.39,106.192 1987.17,106.192 2004.94,106.192 2022.71,106.192 2040.49,106.192 2058.26,106.192 2076.03,106.192 2093.8,106.192 2111.58,106.192 2129.35,106.192 2147.12,106.192 2164.9,106.192 2182.67,106.192 2200.44,106.192 2218.21,106.192 2235.99,106.192 2253.76,106.192 2271.53,106.192 2289.31,106.192 "/>
</svg>
