<?xml version="1.0" encoding="utf-8"?>
<svg xmlns="http://www.w3.org/2000/svg" xmlns:xlink="http://www.w3.org/1999/xlink" width="600" height="400" viewBox="0 0 2400 1600">
<defs>
  <clipPath id="clip960">
    <rect x="0" y="0" width="2400" height="1600"/>
  </clipPath>
</defs>
<path clip-path="url(#clip960)" d="M0 1600 L2400 1600 L2400 0 L0 0  Z" fill="#282c34" fill-rule="evenodd" fill-opacity="1"/>
<defs>
  <clipPath id="clip961">
    <rect x="110" y="123" width="2243" height="1364"/>
  </clipPath>
</defs>
<path clip-path="url(#clip960)" d="M110.881 1486.45 L2352.76 1486.45 L2352.76 123.472 L110.881 123.472  Z" fill="#21252b" fill-rule="evenodd" fill-opacity="1"/>
<polyline clip-path="url(#clip961)" style="stroke:#adb2b7; stroke-linecap:round; stroke-linejoin:round; stroke-width:2; stroke-opacity:0.1; fill:none" points="174.33,1486.45 174.33,123.472 "/>
<polyline clip-path="url(#clip961)" style="stroke:#adb2b7; stroke-linecap:round; stroke-linejoin:round; stroke-width:2; stroke-opacity:0.1; fill:none" points="644.325,1486.45 644.325,123.472 "/>
<polyline clip-path="url(#clip961)" style="stroke:#adb2b7; stroke-linecap:round; stroke-linejoin:round; stroke-width:2; stroke-opacity:0.1; fill:none" points="1114.32,1486.45 1114.32,123.472 "/>
<polyline clip-path="url(#clip961)" style="stroke:#adb2b7; stroke-linecap:round; stroke-linejoin:round; stroke-width:2; stroke-opacity:0.1; fill:none" points="1584.31,1486.45 1584.31,123.472 "/>
<polyline clip-path="url(#clip961)" style="stroke:#adb2b7; stroke-linecap:round; stroke-linejoin:round; stroke-width:2; stroke-opacity:0.1; fill:none" points="2054.31,1486.45 2054.31,123.472 "/>
<polyline clip-path="url(#clip961)" style="stroke:#adb2b7; stroke-linecap:round; stroke-linejoin:round; stroke-width:2; stroke-opacity:0.1; fill:none" points="110.881,1486.45 2352.76,1486.45 "/>
<polyline clip-path="url(#clip961)" style="stroke:#adb2b7; stroke-linecap:round; stroke-linejoin:round; stroke-width:2; stroke-opacity:0.1; fill:none" points="110.881,1032.12 2352.76,1032.12 "/>
<polyline clip-path="url(#clip961)" style="stroke:#adb2b7; stroke-linecap:round; stroke-linejoin:round; stroke-width:2; stroke-opacity:0.1; fill:none" points="110.881,577.797 2352.76,577.797 "/>
<polyline clip-path="url(#clip961)" style="stroke:#adb2b7; stroke-linecap:round; stroke-linejoin:round; stroke-width:2; stroke-opacity:0.1; fill:none" points="110.881,123.472 2352.76,123.472 "/>
<polyline clip-path="url(#clip960)" style="stroke:#adb2b7; stroke-linecap:round; stroke-linejoin:round; stroke-width:4; stroke-opacity:1; fill:none" points="110.881,1486.45 2352.76,1486.45 "/>
<polyline clip-path="url(#clip960)" style="stroke:#adb2b7; stroke-linecap:round; stroke-linejoin:round; stroke-width:4; stroke-opacity:1; fill:none" points="174.33,1486.45 174.33,1467.55 "/>
<polyline clip-path="url(#clip960)" style="stroke:#adb2b7; stroke-linecap:round; stroke-linejoin:round; stroke-width:4; stroke-opacity:1; fill:none" points="644.325,1486.45 644.325,1467.55 "/>
<polyline clip-path="url(#clip960)" style="stroke:#adb2b7; stroke-linecap:round; stroke-linejoin:round; stroke-width:4; stroke-opacity:1; fill:none" points="1114.32,1486.45 1114.32,1467.55 "/>
<polyline clip-path="url(#clip960)" style="stroke:#adb2b7; stroke-linecap:round; stroke-linejoin:round; stroke-width:4; stroke-opacity:1; fill:none" points="1584.31,1486.45 1584.31,1467.55 "/>
<polyline clip-path="url(#clip960)" style="stroke:#adb2b7; stroke-linecap:round; stroke-linejoin:round; stroke-width:4; stroke-opacity:1; fill:none" points="2054.31,1486.45 2054.31,1467.55 "/>
<path clip-path="url(#clip960)" d="M46.1248 1544.91 L62.4442 1544.91 L62.4442 1548.85 L40.4999 1548.85 L40.4999 1544.91 Q43.1619 1542.16 47.7452 1537.53 Q52.3517 1532.88 53.5322 1531.53 Q55.7776 1529.01 56.6572 1527.27 Q57.56 1525.51 57.56 1523.82 Q57.56 1521.07 55.6155 1519.33 Q53.6943 1517.6 50.5924 1517.6 Q48.3934 1517.6 45.9397 1518.36 Q43.5091 1519.13 40.7314 1520.68 L40.7314 1515.95 Q43.5554 1514.82 46.0091 1514.24 Q48.4628 1513.66 50.4998 1513.66 Q55.8702 1513.66 59.0646 1516.35 Q62.259 1519.03 62.259 1523.52 Q62.259 1525.65 61.4488 1527.57 Q60.6618 1529.47 58.5553 1532.07 Q57.9766 1532.74 54.8748 1535.95 Q51.773 1539.15 46.1248 1544.91 Z" fill="#9eb1be" fill-rule="nonzero" fill-opacity="1" /><path clip-path="url(#clip960)" d="M82.2589 1517.37 Q78.6478 1517.37 76.8191 1520.93 Q75.0136 1524.47 75.0136 1531.6 Q75.0136 1538.71 76.8191 1542.27 Q78.6478 1545.82 82.2589 1545.82 Q85.8932 1545.82 87.6987 1542.27 Q89.5274 1538.71 89.5274 1531.6 Q89.5274 1524.47 87.6987 1520.93 Q85.8932 1517.37 82.2589 1517.37 M82.2589 1513.66 Q88.0691 1513.66 91.1246 1518.27 Q94.2033 1522.85 94.2033 1531.6 Q94.2033 1540.33 91.1246 1544.94 Q88.0691 1549.52 82.2589 1549.52 Q76.4488 1549.52 73.3701 1544.94 Q70.3145 1540.33 70.3145 1531.6 Q70.3145 1522.85 73.3701 1518.27 Q76.4488 1513.66 82.2589 1513.66 Z" fill="#9eb1be" fill-rule="nonzero" fill-opacity="1" /><path clip-path="url(#clip960)" d="M106.449 1544.91 L122.768 1544.91 L122.768 1548.85 L100.824 1548.85 L100.824 1544.91 Q103.486 1542.16 108.069 1537.53 Q112.675 1532.88 113.856 1531.53 Q116.101 1529.01 116.981 1527.27 Q117.884 1525.51 117.884 1523.82 Q117.884 1521.07 115.939 1519.33 Q114.018 1517.6 110.916 1517.6 Q108.717 1517.6 106.263 1518.36 Q103.833 1519.13 101.055 1520.68 L101.055 1515.95 Q103.879 1514.82 106.333 1514.24 Q108.787 1513.66 110.824 1513.66 Q116.194 1513.66 119.388 1516.35 Q122.583 1519.03 122.583 1523.52 Q122.583 1525.65 121.773 1527.57 Q120.986 1529.47 118.879 1532.07 Q118.3 1532.74 115.199 1535.95 Q112.097 1539.15 106.449 1544.91 Z" fill="#9eb1be" fill-rule="nonzero" fill-opacity="1" /><path clip-path="url(#clip960)" d="M142.583 1517.37 Q138.972 1517.37 137.143 1520.93 Q135.337 1524.47 135.337 1531.6 Q135.337 1538.71 137.143 1542.27 Q138.972 1545.82 142.583 1545.82 Q146.217 1545.82 148.022 1542.27 Q149.851 1538.71 149.851 1531.6 Q149.851 1524.47 148.022 1520.93 Q146.217 1517.37 142.583 1517.37 M142.583 1513.66 Q148.393 1513.66 151.448 1518.27 Q154.527 1522.85 154.527 1531.6 Q154.527 1540.33 151.448 1544.94 Q148.393 1549.52 142.583 1549.52 Q136.773 1549.52 133.694 1544.94 Q130.638 1540.33 130.638 1531.6 Q130.638 1522.85 133.694 1518.27 Q136.773 1513.66 142.583 1513.66 Z" fill="#9eb1be" fill-rule="nonzero" fill-opacity="1" /><path clip-path="url(#clip960)" d="M159.99 1533.96 L172.467 1533.96 L172.467 1537.76 L159.99 1537.76 L159.99 1533.96 Z" fill="#9eb1be" fill-rule="nonzero" fill-opacity="1" /><path clip-path="url(#clip960)" d="M189.851 1517.37 Q186.24 1517.37 184.411 1520.93 Q182.606 1524.47 182.606 1531.6 Q182.606 1538.71 184.411 1542.27 Q186.24 1545.82 189.851 1545.82 Q193.485 1545.82 195.291 1542.27 Q197.119 1538.71 197.119 1531.6 Q197.119 1524.47 195.291 1520.93 Q193.485 1517.37 189.851 1517.37 M189.851 1513.66 Q195.661 1513.66 198.717 1518.27 Q201.795 1522.85 201.795 1531.6 Q201.795 1540.33 198.717 1544.94 Q195.661 1549.52 189.851 1549.52 Q184.041 1549.52 180.962 1544.94 Q177.907 1540.33 177.907 1531.6 Q177.907 1522.85 180.962 1518.27 Q184.041 1513.66 189.851 1513.66 Z" fill="#9eb1be" fill-rule="nonzero" fill-opacity="1" /><path clip-path="url(#clip960)" d="M210.823 1544.91 L218.462 1544.91 L218.462 1518.55 L210.152 1520.21 L210.152 1515.95 L218.416 1514.29 L223.091 1514.29 L223.091 1544.91 L230.73 1544.91 L230.73 1548.85 L210.823 1548.85 L210.823 1544.91 Z" fill="#9eb1be" fill-rule="nonzero" fill-opacity="1" /><path clip-path="url(#clip960)" d="M237.42 1533.96 L249.897 1533.96 L249.897 1537.76 L237.42 1537.76 L237.42 1533.96 Z" fill="#9eb1be" fill-rule="nonzero" fill-opacity="1" /><path clip-path="url(#clip960)" d="M267.281 1517.37 Q263.67 1517.37 261.841 1520.93 Q260.036 1524.47 260.036 1531.6 Q260.036 1538.71 261.841 1542.27 Q263.67 1545.82 267.281 1545.82 Q270.915 1545.82 272.721 1542.27 Q274.55 1538.71 274.55 1531.6 Q274.55 1524.47 272.721 1520.93 Q270.915 1517.37 267.281 1517.37 M267.281 1513.66 Q273.091 1513.66 276.147 1518.27 Q279.225 1522.85 279.225 1531.6 Q279.225 1540.33 276.147 1544.94 Q273.091 1549.52 267.281 1549.52 Q261.471 1549.52 258.392 1544.94 Q255.337 1540.33 255.337 1531.6 Q255.337 1522.85 258.392 1518.27 Q261.471 1513.66 267.281 1513.66 Z" fill="#9eb1be" fill-rule="nonzero" fill-opacity="1" /><path clip-path="url(#clip960)" d="M288.253 1544.91 L295.892 1544.91 L295.892 1518.55 L287.582 1520.21 L287.582 1515.95 L295.846 1514.29 L300.522 1514.29 L300.522 1544.91 L308.16 1544.91 L308.16 1548.85 L288.253 1548.85 L288.253 1544.91 Z" fill="#9eb1be" fill-rule="nonzero" fill-opacity="1" /><path clip-path="url(#clip960)" d="M515.83 1544.91 L532.15 1544.91 L532.15 1548.85 L510.205 1548.85 L510.205 1544.91 Q512.867 1542.16 517.451 1537.53 Q522.057 1532.88 523.238 1531.53 Q525.483 1529.01 526.363 1527.27 Q527.265 1525.51 527.265 1523.82 Q527.265 1521.07 525.321 1519.33 Q523.4 1517.6 520.298 1517.6 Q518.099 1517.6 515.645 1518.36 Q513.215 1519.13 510.437 1520.68 L510.437 1515.95 Q513.261 1514.82 515.715 1514.24 Q518.168 1513.66 520.205 1513.66 Q525.576 1513.66 528.77 1516.35 Q531.964 1519.03 531.964 1523.52 Q531.964 1525.65 531.154 1527.57 Q530.367 1529.47 528.261 1532.07 Q527.682 1532.74 524.58 1535.95 Q521.478 1539.15 515.83 1544.91 Z" fill="#9eb1be" fill-rule="nonzero" fill-opacity="1" /><path clip-path="url(#clip960)" d="M551.964 1517.37 Q548.353 1517.37 546.525 1520.93 Q544.719 1524.47 544.719 1531.6 Q544.719 1538.71 546.525 1542.27 Q548.353 1545.82 551.964 1545.82 Q555.599 1545.82 557.404 1542.27 Q559.233 1538.71 559.233 1531.6 Q559.233 1524.47 557.404 1520.93 Q555.599 1517.37 551.964 1517.37 M551.964 1513.66 Q557.774 1513.66 560.83 1518.27 Q563.909 1522.85 563.909 1531.6 Q563.909 1540.33 560.83 1544.94 Q557.774 1549.52 551.964 1549.52 Q546.154 1549.52 543.075 1544.94 Q540.02 1540.33 540.02 1531.6 Q540.02 1522.85 543.075 1518.27 Q546.154 1513.66 551.964 1513.66 Z" fill="#9eb1be" fill-rule="nonzero" fill-opacity="1" /><path clip-path="url(#clip960)" d="M576.154 1544.91 L592.473 1544.91 L592.473 1548.85 L570.529 1548.85 L570.529 1544.91 Q573.191 1542.16 577.774 1537.53 Q582.381 1532.88 583.561 1531.53 Q585.807 1529.01 586.686 1527.27 Q587.589 1525.51 587.589 1523.82 Q587.589 1521.07 585.645 1519.33 Q583.723 1517.6 580.622 1517.6 Q578.423 1517.6 575.969 1518.36 Q573.538 1519.13 570.761 1520.68 L570.761 1515.95 Q573.585 1514.82 576.038 1514.24 Q578.492 1513.66 580.529 1513.66 Q585.899 1513.66 589.094 1516.35 Q592.288 1519.03 592.288 1523.52 Q592.288 1525.65 591.478 1527.57 Q590.691 1529.47 588.585 1532.07 Q588.006 1532.74 584.904 1535.95 Q581.802 1539.15 576.154 1544.91 Z" fill="#9eb1be" fill-rule="nonzero" fill-opacity="1" /><path clip-path="url(#clip960)" d="M612.288 1517.37 Q608.677 1517.37 606.848 1520.93 Q605.043 1524.47 605.043 1531.6 Q605.043 1538.71 606.848 1542.27 Q608.677 1545.82 612.288 1545.82 Q615.922 1545.82 617.728 1542.27 Q619.557 1538.71 619.557 1531.6 Q619.557 1524.47 617.728 1520.93 Q615.922 1517.37 612.288 1517.37 M612.288 1513.66 Q618.098 1513.66 621.154 1518.27 Q624.232 1522.85 624.232 1531.6 Q624.232 1540.33 621.154 1544.94 Q618.098 1549.52 612.288 1549.52 Q606.478 1549.52 603.399 1544.94 Q600.344 1540.33 600.344 1531.6 Q600.344 1522.85 603.399 1518.27 Q606.478 1513.66 612.288 1513.66 Z" fill="#9eb1be" fill-rule="nonzero" fill-opacity="1" /><path clip-path="url(#clip960)" d="M629.695 1533.96 L642.172 1533.96 L642.172 1537.76 L629.695 1537.76 L629.695 1533.96 Z" fill="#9eb1be" fill-rule="nonzero" fill-opacity="1" /><path clip-path="url(#clip960)" d="M659.556 1517.37 Q655.945 1517.37 654.117 1520.93 Q652.311 1524.47 652.311 1531.6 Q652.311 1538.71 654.117 1542.27 Q655.945 1545.82 659.556 1545.82 Q663.191 1545.82 664.996 1542.27 Q666.825 1538.71 666.825 1531.6 Q666.825 1524.47 664.996 1520.93 Q663.191 1517.37 659.556 1517.37 M659.556 1513.66 Q665.366 1513.66 668.422 1518.27 Q671.501 1522.85 671.501 1531.6 Q671.501 1540.33 668.422 1544.94 Q665.366 1549.52 659.556 1549.52 Q653.746 1549.52 650.668 1544.94 Q647.612 1540.33 647.612 1531.6 Q647.612 1522.85 650.668 1518.27 Q653.746 1513.66 659.556 1513.66 Z" fill="#9eb1be" fill-rule="nonzero" fill-opacity="1" /><path clip-path="url(#clip960)" d="M680.528 1544.91 L688.167 1544.91 L688.167 1518.55 L679.857 1520.21 L679.857 1515.95 L688.121 1514.29 L692.797 1514.29 L692.797 1544.91 L700.436 1544.91 L700.436 1548.85 L680.528 1548.85 L680.528 1544.91 Z" fill="#9eb1be" fill-rule="nonzero" fill-opacity="1" /><path clip-path="url(#clip960)" d="M707.126 1533.96 L719.602 1533.96 L719.602 1537.76 L707.126 1537.76 L707.126 1533.96 Z" fill="#9eb1be" fill-rule="nonzero" fill-opacity="1" /><path clip-path="url(#clip960)" d="M736.986 1517.37 Q733.375 1517.37 731.547 1520.93 Q729.741 1524.47 729.741 1531.6 Q729.741 1538.71 731.547 1542.27 Q733.375 1545.82 736.986 1545.82 Q740.621 1545.82 742.426 1542.27 Q744.255 1538.71 744.255 1531.6 Q744.255 1524.47 742.426 1520.93 Q740.621 1517.37 736.986 1517.37 M736.986 1513.66 Q742.797 1513.66 745.852 1518.27 Q748.931 1522.85 748.931 1531.6 Q748.931 1540.33 745.852 1544.94 Q742.797 1549.52 736.986 1549.52 Q731.176 1549.52 728.098 1544.94 Q725.042 1540.33 725.042 1531.6 Q725.042 1522.85 728.098 1518.27 Q731.176 1513.66 736.986 1513.66 Z" fill="#9eb1be" fill-rule="nonzero" fill-opacity="1" /><path clip-path="url(#clip960)" d="M771.315 1530.21 Q774.671 1530.93 776.546 1533.2 Q778.445 1535.47 778.445 1538.8 Q778.445 1543.92 774.926 1546.72 Q771.408 1549.52 764.926 1549.52 Q762.75 1549.52 760.435 1549.08 Q758.144 1548.66 755.69 1547.81 L755.69 1543.29 Q757.635 1544.43 759.949 1545.01 Q762.264 1545.58 764.787 1545.58 Q769.185 1545.58 771.477 1543.85 Q773.792 1542.11 773.792 1538.8 Q773.792 1535.75 771.639 1534.03 Q769.509 1532.3 765.69 1532.3 L761.662 1532.3 L761.662 1528.45 L765.875 1528.45 Q769.324 1528.45 771.153 1527.09 Q772.982 1525.7 772.982 1523.11 Q772.982 1520.45 771.084 1519.03 Q769.209 1517.6 765.69 1517.6 Q763.769 1517.6 761.57 1518.01 Q759.371 1518.43 756.732 1519.31 L756.732 1515.14 Q759.394 1514.4 761.709 1514.03 Q764.047 1513.66 766.107 1513.66 Q771.431 1513.66 774.533 1516.09 Q777.634 1518.5 777.634 1522.62 Q777.634 1525.49 775.991 1527.48 Q774.347 1529.45 771.315 1530.21 Z" fill="#9eb1be" fill-rule="nonzero" fill-opacity="1" /><path clip-path="url(#clip960)" d="M985.999 1544.91 L1002.32 1544.91 L1002.32 1548.85 L980.374 1548.85 L980.374 1544.91 Q983.036 1542.16 987.619 1537.53 Q992.225 1532.88 993.406 1531.53 Q995.651 1529.01 996.531 1527.27 Q997.434 1525.51 997.434 1523.82 Q997.434 1521.07 995.489 1519.33 Q993.568 1517.6 990.466 1517.6 Q988.267 1517.6 985.813 1518.36 Q983.383 1519.13 980.605 1520.68 L980.605 1515.95 Q983.429 1514.82 985.883 1514.24 Q988.337 1513.66 990.374 1513.66 Q995.744 1513.66 998.938 1516.35 Q1002.13 1519.03 1002.13 1523.52 Q1002.13 1525.65 1001.32 1527.57 Q1000.54 1529.47 998.429 1532.07 Q997.85 1532.74 994.749 1535.95 Q991.647 1539.15 985.999 1544.91 Z" fill="#9eb1be" fill-rule="nonzero" fill-opacity="1" /><path clip-path="url(#clip960)" d="M1022.13 1517.37 Q1018.52 1517.37 1016.69 1520.93 Q1014.89 1524.47 1014.89 1531.6 Q1014.89 1538.71 1016.69 1542.27 Q1018.52 1545.82 1022.13 1545.82 Q1025.77 1545.82 1027.57 1542.27 Q1029.4 1538.71 1029.4 1531.6 Q1029.4 1524.47 1027.57 1520.93 Q1025.77 1517.37 1022.13 1517.37 M1022.13 1513.66 Q1027.94 1513.66 1031 1518.27 Q1034.08 1522.85 1034.08 1531.6 Q1034.08 1540.33 1031 1544.94 Q1027.94 1549.52 1022.13 1549.52 Q1016.32 1549.52 1013.24 1544.94 Q1010.19 1540.33 1010.19 1531.6 Q1010.19 1522.85 1013.24 1518.27 Q1016.32 1513.66 1022.13 1513.66 Z" fill="#9eb1be" fill-rule="nonzero" fill-opacity="1" /><path clip-path="url(#clip960)" d="M1046.32 1544.91 L1062.64 1544.91 L1062.64 1548.85 L1040.7 1548.85 L1040.7 1544.91 Q1043.36 1542.16 1047.94 1537.53 Q1052.55 1532.88 1053.73 1531.53 Q1055.98 1529.01 1056.85 1527.27 Q1057.76 1525.51 1057.76 1523.82 Q1057.76 1521.07 1055.81 1519.33 Q1053.89 1517.6 1050.79 1517.6 Q1048.59 1517.6 1046.14 1518.36 Q1043.71 1519.13 1040.93 1520.68 L1040.93 1515.95 Q1043.75 1514.82 1046.21 1514.24 Q1048.66 1513.66 1050.7 1513.66 Q1056.07 1513.66 1059.26 1516.35 Q1062.46 1519.03 1062.46 1523.52 Q1062.46 1525.65 1061.65 1527.57 Q1060.86 1529.47 1058.75 1532.07 Q1058.17 1532.74 1055.07 1535.95 Q1051.97 1539.15 1046.32 1544.91 Z" fill="#9eb1be" fill-rule="nonzero" fill-opacity="1" /><path clip-path="url(#clip960)" d="M1082.46 1517.37 Q1078.85 1517.37 1077.02 1520.93 Q1075.21 1524.47 1075.21 1531.6 Q1075.21 1538.71 1077.02 1542.27 Q1078.85 1545.82 1082.46 1545.82 Q1086.09 1545.82 1087.9 1542.27 Q1089.72 1538.71 1089.72 1531.6 Q1089.72 1524.47 1087.9 1520.93 Q1086.09 1517.37 1082.46 1517.37 M1082.46 1513.66 Q1088.27 1513.66 1091.32 1518.27 Q1094.4 1522.85 1094.4 1531.6 Q1094.4 1540.33 1091.32 1544.94 Q1088.27 1549.52 1082.46 1549.52 Q1076.65 1549.52 1073.57 1544.94 Q1070.51 1540.33 1070.51 1531.6 Q1070.51 1522.85 1073.57 1518.27 Q1076.65 1513.66 1082.46 1513.66 Z" fill="#9eb1be" fill-rule="nonzero" fill-opacity="1" /><path clip-path="url(#clip960)" d="M1099.86 1533.96 L1112.34 1533.96 L1112.34 1537.76 L1099.86 1537.76 L1099.86 1533.96 Z" fill="#9eb1be" fill-rule="nonzero" fill-opacity="1" /><path clip-path="url(#clip960)" d="M1129.72 1517.37 Q1126.11 1517.37 1124.28 1520.93 Q1122.48 1524.47 1122.48 1531.6 Q1122.48 1538.71 1124.28 1542.27 Q1126.11 1545.82 1129.72 1545.82 Q1133.36 1545.82 1135.16 1542.27 Q1136.99 1538.71 1136.99 1531.6 Q1136.99 1524.47 1135.16 1520.93 Q1133.36 1517.37 1129.72 1517.37 M1129.72 1513.66 Q1135.53 1513.66 1138.59 1518.27 Q1141.67 1522.85 1141.67 1531.6 Q1141.67 1540.33 1138.59 1544.94 Q1135.53 1549.52 1129.72 1549.52 Q1123.91 1549.52 1120.84 1544.94 Q1117.78 1540.33 1117.78 1531.6 Q1117.78 1522.85 1120.84 1518.27 Q1123.91 1513.66 1129.72 1513.66 Z" fill="#9eb1be" fill-rule="nonzero" fill-opacity="1" /><path clip-path="url(#clip960)" d="M1150.7 1544.91 L1158.34 1544.91 L1158.34 1518.55 L1150.03 1520.21 L1150.03 1515.95 L1158.29 1514.29 L1162.97 1514.29 L1162.97 1544.91 L1170.6 1544.91 L1170.6 1548.85 L1150.7 1548.85 L1150.7 1544.91 Z" fill="#9eb1be" fill-rule="nonzero" fill-opacity="1" /><path clip-path="url(#clip960)" d="M1177.29 1533.96 L1189.77 1533.96 L1189.77 1537.76 L1177.29 1537.76 L1177.29 1533.96 Z" fill="#9eb1be" fill-rule="nonzero" fill-opacity="1" /><path clip-path="url(#clip960)" d="M1207.15 1517.37 Q1203.54 1517.37 1201.72 1520.93 Q1199.91 1524.47 1199.91 1531.6 Q1199.91 1538.71 1201.72 1542.27 Q1203.54 1545.82 1207.15 1545.82 Q1210.79 1545.82 1212.59 1542.27 Q1214.42 1538.71 1214.42 1531.6 Q1214.42 1524.47 1212.59 1520.93 Q1210.79 1517.37 1207.15 1517.37 M1207.15 1513.66 Q1212.97 1513.66 1216.02 1518.27 Q1219.1 1522.85 1219.1 1531.6 Q1219.1 1540.33 1216.02 1544.94 Q1212.97 1549.52 1207.15 1549.52 Q1201.34 1549.52 1198.27 1544.94 Q1195.21 1540.33 1195.21 1531.6 Q1195.21 1522.85 1198.27 1518.27 Q1201.34 1513.66 1207.15 1513.66 Z" fill="#9eb1be" fill-rule="nonzero" fill-opacity="1" /><path clip-path="url(#clip960)" d="M1227.36 1514.29 L1245.72 1514.29 L1245.72 1518.22 L1231.65 1518.22 L1231.65 1526.7 Q1232.66 1526.35 1233.68 1526.19 Q1234.7 1526 1235.72 1526 Q1241.51 1526 1244.89 1529.17 Q1248.27 1532.34 1248.27 1537.76 Q1248.27 1543.34 1244.79 1546.44 Q1241.32 1549.52 1235 1549.52 Q1232.83 1549.52 1230.56 1549.15 Q1228.31 1548.78 1225.9 1548.04 L1225.9 1543.34 Q1227.99 1544.47 1230.21 1545.03 Q1232.43 1545.58 1234.91 1545.58 Q1238.91 1545.58 1241.25 1543.48 Q1243.59 1541.37 1243.59 1537.76 Q1243.59 1534.15 1241.25 1532.04 Q1238.91 1529.94 1234.91 1529.94 Q1233.03 1529.94 1231.16 1530.35 Q1229.31 1530.77 1227.36 1531.65 L1227.36 1514.29 Z" fill="#9eb1be" fill-rule="nonzero" fill-opacity="1" /><path clip-path="url(#clip960)" d="M1455.95 1544.91 L1472.27 1544.91 L1472.27 1548.85 L1450.32 1548.85 L1450.32 1544.91 Q1452.98 1542.16 1457.57 1537.53 Q1462.17 1532.88 1463.35 1531.53 Q1465.6 1529.01 1466.48 1527.27 Q1467.38 1525.51 1467.38 1523.82 Q1467.38 1521.07 1465.44 1519.33 Q1463.52 1517.6 1460.41 1517.6 Q1458.22 1517.6 1455.76 1518.36 Q1453.33 1519.13 1450.55 1520.68 L1450.55 1515.95 Q1453.38 1514.82 1455.83 1514.24 Q1458.29 1513.66 1460.32 1513.66 Q1465.69 1513.66 1468.89 1516.35 Q1472.08 1519.03 1472.08 1523.52 Q1472.08 1525.65 1471.27 1527.57 Q1470.48 1529.47 1468.38 1532.07 Q1467.8 1532.74 1464.7 1535.95 Q1461.6 1539.15 1455.95 1544.91 Z" fill="#9eb1be" fill-rule="nonzero" fill-opacity="1" /><path clip-path="url(#clip960)" d="M1492.08 1517.37 Q1488.47 1517.37 1486.64 1520.93 Q1484.84 1524.47 1484.84 1531.6 Q1484.84 1538.71 1486.64 1542.27 Q1488.47 1545.82 1492.08 1545.82 Q1495.72 1545.82 1497.52 1542.27 Q1499.35 1538.71 1499.35 1531.6 Q1499.35 1524.47 1497.52 1520.93 Q1495.72 1517.37 1492.08 1517.37 M1492.08 1513.66 Q1497.89 1513.66 1500.95 1518.27 Q1504.03 1522.85 1504.03 1531.6 Q1504.03 1540.33 1500.95 1544.94 Q1497.89 1549.52 1492.08 1549.52 Q1486.27 1549.52 1483.19 1544.94 Q1480.14 1540.33 1480.14 1531.6 Q1480.14 1522.85 1483.19 1518.27 Q1486.27 1513.66 1492.08 1513.66 Z" fill="#9eb1be" fill-rule="nonzero" fill-opacity="1" /><path clip-path="url(#clip960)" d="M1516.27 1544.91 L1532.59 1544.91 L1532.59 1548.85 L1510.65 1548.85 L1510.65 1544.91 Q1513.31 1542.16 1517.89 1537.53 Q1522.5 1532.88 1523.68 1531.53 Q1525.92 1529.01 1526.8 1527.27 Q1527.71 1525.51 1527.71 1523.82 Q1527.71 1521.07 1525.76 1519.33 Q1523.84 1517.6 1520.74 1517.6 Q1518.54 1517.6 1516.09 1518.36 Q1513.66 1519.13 1510.88 1520.68 L1510.88 1515.95 Q1513.7 1514.82 1516.16 1514.24 Q1518.61 1513.66 1520.65 1513.66 Q1526.02 1513.66 1529.21 1516.35 Q1532.41 1519.03 1532.41 1523.52 Q1532.41 1525.65 1531.59 1527.57 Q1530.81 1529.47 1528.7 1532.07 Q1528.12 1532.74 1525.02 1535.95 Q1521.92 1539.15 1516.27 1544.91 Z" fill="#9eb1be" fill-rule="nonzero" fill-opacity="1" /><path clip-path="url(#clip960)" d="M1552.4 1517.37 Q1548.79 1517.37 1546.97 1520.93 Q1545.16 1524.47 1545.16 1531.6 Q1545.16 1538.71 1546.97 1542.27 Q1548.79 1545.82 1552.4 1545.82 Q1556.04 1545.82 1557.84 1542.27 Q1559.67 1538.71 1559.67 1531.6 Q1559.67 1524.47 1557.84 1520.93 Q1556.04 1517.37 1552.4 1517.37 M1552.4 1513.66 Q1558.22 1513.66 1561.27 1518.27 Q1564.35 1522.85 1564.35 1531.6 Q1564.35 1540.33 1561.27 1544.94 Q1558.22 1549.52 1552.4 1549.52 Q1546.59 1549.52 1543.52 1544.94 Q1540.46 1540.33 1540.46 1531.6 Q1540.46 1522.85 1543.52 1518.27 Q1546.59 1513.66 1552.4 1513.66 Z" fill="#9eb1be" fill-rule="nonzero" fill-opacity="1" /><path clip-path="url(#clip960)" d="M1569.81 1533.96 L1582.29 1533.96 L1582.29 1537.76 L1569.81 1537.76 L1569.81 1533.96 Z" fill="#9eb1be" fill-rule="nonzero" fill-opacity="1" /><path clip-path="url(#clip960)" d="M1599.67 1517.37 Q1596.06 1517.37 1594.23 1520.93 Q1592.43 1524.47 1592.43 1531.6 Q1592.43 1538.71 1594.23 1542.27 Q1596.06 1545.82 1599.67 1545.82 Q1603.31 1545.82 1605.11 1542.27 Q1606.94 1538.71 1606.94 1531.6 Q1606.94 1524.47 1605.11 1520.93 Q1603.31 1517.37 1599.67 1517.37 M1599.67 1513.66 Q1605.48 1513.66 1608.54 1518.27 Q1611.62 1522.85 1611.62 1531.6 Q1611.62 1540.33 1608.54 1544.94 Q1605.48 1549.52 1599.67 1549.52 Q1593.86 1549.52 1590.78 1544.94 Q1587.73 1540.33 1587.73 1531.6 Q1587.73 1522.85 1590.78 1518.27 Q1593.86 1513.66 1599.67 1513.66 Z" fill="#9eb1be" fill-rule="nonzero" fill-opacity="1" /><path clip-path="url(#clip960)" d="M1620.65 1544.91 L1628.28 1544.91 L1628.28 1518.55 L1619.97 1520.21 L1619.97 1515.95 L1628.24 1514.29 L1632.91 1514.29 L1632.91 1544.91 L1640.55 1544.91 L1640.55 1548.85 L1620.65 1548.85 L1620.65 1544.91 Z" fill="#9eb1be" fill-rule="nonzero" fill-opacity="1" /><path clip-path="url(#clip960)" d="M1647.24 1533.96 L1659.72 1533.96 L1659.72 1537.76 L1647.24 1537.76 L1647.24 1533.96 Z" fill="#9eb1be" fill-rule="nonzero" fill-opacity="1" /><path clip-path="url(#clip960)" d="M1677.1 1517.37 Q1673.49 1517.37 1671.66 1520.93 Q1669.86 1524.47 1669.86 1531.6 Q1669.86 1538.71 1671.66 1542.27 Q1673.49 1545.82 1677.1 1545.82 Q1680.74 1545.82 1682.54 1542.27 Q1684.37 1538.71 1684.37 1531.6 Q1684.37 1524.47 1682.54 1520.93 Q1680.74 1517.37 1677.1 1517.37 M1677.1 1513.66 Q1682.91 1513.66 1685.97 1518.27 Q1689.05 1522.85 1689.05 1531.6 Q1689.05 1540.33 1685.97 1544.94 Q1682.91 1549.52 1677.1 1549.52 Q1671.29 1549.52 1668.21 1544.94 Q1665.16 1540.33 1665.16 1531.6 Q1665.16 1522.85 1668.21 1518.27 Q1671.29 1513.66 1677.1 1513.66 Z" fill="#9eb1be" fill-rule="nonzero" fill-opacity="1" /><path clip-path="url(#clip960)" d="M1696.08 1514.29 L1718.31 1514.29 L1718.31 1516.28 L1705.76 1548.85 L1700.88 1548.85 L1712.68 1518.22 L1696.08 1518.22 L1696.08 1514.29 Z" fill="#9eb1be" fill-rule="nonzero" fill-opacity="1" /><path clip-path="url(#clip960)" d="M1925.58 1544.91 L1941.9 1544.91 L1941.9 1548.85 L1919.96 1548.85 L1919.96 1544.91 Q1922.62 1542.16 1927.2 1537.53 Q1931.81 1532.88 1932.99 1531.53 Q1935.24 1529.01 1936.12 1527.27 Q1937.02 1525.51 1937.02 1523.82 Q1937.02 1521.07 1935.07 1519.33 Q1933.15 1517.6 1930.05 1517.6 Q1927.85 1517.6 1925.4 1518.36 Q1922.97 1519.13 1920.19 1520.68 L1920.19 1515.95 Q1923.01 1514.82 1925.47 1514.24 Q1927.92 1513.66 1929.96 1513.66 Q1935.33 1513.66 1938.52 1516.35 Q1941.72 1519.03 1941.72 1523.52 Q1941.72 1525.65 1940.91 1527.57 Q1940.12 1529.47 1938.01 1532.07 Q1937.43 1532.74 1934.33 1535.95 Q1931.23 1539.15 1925.58 1544.91 Z" fill="#9eb1be" fill-rule="nonzero" fill-opacity="1" /><path clip-path="url(#clip960)" d="M1961.72 1517.37 Q1958.11 1517.37 1956.28 1520.93 Q1954.47 1524.47 1954.47 1531.6 Q1954.47 1538.71 1956.28 1542.27 Q1958.11 1545.82 1961.72 1545.82 Q1965.35 1545.82 1967.16 1542.27 Q1968.99 1538.71 1968.99 1531.6 Q1968.99 1524.47 1967.16 1520.93 Q1965.35 1517.37 1961.72 1517.37 M1961.72 1513.66 Q1967.53 1513.66 1970.58 1518.27 Q1973.66 1522.85 1973.66 1531.6 Q1973.66 1540.33 1970.58 1544.94 Q1967.53 1549.52 1961.72 1549.52 Q1955.91 1549.52 1952.83 1544.94 Q1949.77 1540.33 1949.77 1531.6 Q1949.77 1522.85 1952.83 1518.27 Q1955.91 1513.66 1961.72 1513.66 Z" fill="#9eb1be" fill-rule="nonzero" fill-opacity="1" /><path clip-path="url(#clip960)" d="M1985.91 1544.91 L2002.23 1544.91 L2002.23 1548.85 L1980.28 1548.85 L1980.28 1544.91 Q1982.94 1542.16 1987.53 1537.53 Q1992.13 1532.88 1993.31 1531.53 Q1995.56 1529.01 1996.44 1527.27 Q1997.34 1525.51 1997.34 1523.82 Q1997.34 1521.07 1995.4 1519.33 Q1993.48 1517.6 1990.37 1517.6 Q1988.18 1517.6 1985.72 1518.36 Q1983.29 1519.13 1980.51 1520.68 L1980.51 1515.95 Q1983.34 1514.82 1985.79 1514.24 Q1988.24 1513.66 1990.28 1513.66 Q1995.65 1513.66 1998.85 1516.35 Q2002.04 1519.03 2002.04 1523.52 Q2002.04 1525.65 2001.23 1527.57 Q2000.44 1529.47 1998.34 1532.07 Q1997.76 1532.74 1994.66 1535.95 Q1991.55 1539.15 1985.91 1544.91 Z" fill="#9eb1be" fill-rule="nonzero" fill-opacity="1" /><path clip-path="url(#clip960)" d="M2022.04 1517.37 Q2018.43 1517.37 2016.6 1520.93 Q2014.8 1524.47 2014.8 1531.6 Q2014.8 1538.71 2016.6 1542.27 Q2018.43 1545.82 2022.04 1545.82 Q2025.68 1545.82 2027.48 1542.27 Q2029.31 1538.71 2029.31 1531.6 Q2029.31 1524.47 2027.48 1520.93 Q2025.68 1517.37 2022.04 1517.37 M2022.04 1513.66 Q2027.85 1513.66 2030.91 1518.27 Q2033.99 1522.85 2033.99 1531.6 Q2033.99 1540.33 2030.91 1544.94 Q2027.85 1549.52 2022.04 1549.52 Q2016.23 1549.52 2013.15 1544.94 Q2010.1 1540.33 2010.1 1531.6 Q2010.1 1522.85 2013.15 1518.27 Q2016.23 1513.66 2022.04 1513.66 Z" fill="#9eb1be" fill-rule="nonzero" fill-opacity="1" /><path clip-path="url(#clip960)" d="M2039.45 1533.96 L2051.92 1533.96 L2051.92 1537.76 L2039.45 1537.76 L2039.45 1533.96 Z" fill="#9eb1be" fill-rule="nonzero" fill-opacity="1" /><path clip-path="url(#clip960)" d="M2069.31 1517.37 Q2065.7 1517.37 2063.87 1520.93 Q2062.06 1524.47 2062.06 1531.6 Q2062.06 1538.71 2063.87 1542.27 Q2065.7 1545.82 2069.31 1545.82 Q2072.94 1545.82 2074.75 1542.27 Q2076.58 1538.71 2076.58 1531.6 Q2076.58 1524.47 2074.75 1520.93 Q2072.94 1517.37 2069.31 1517.37 M2069.31 1513.66 Q2075.12 1513.66 2078.17 1518.27 Q2081.25 1522.85 2081.25 1531.6 Q2081.25 1540.33 2078.17 1544.94 Q2075.12 1549.52 2069.31 1549.52 Q2063.5 1549.52 2060.42 1544.94 Q2057.36 1540.33 2057.36 1531.6 Q2057.36 1522.85 2060.42 1518.27 Q2063.5 1513.66 2069.31 1513.66 Z" fill="#9eb1be" fill-rule="nonzero" fill-opacity="1" /><path clip-path="url(#clip960)" d="M2090.28 1544.91 L2097.92 1544.91 L2097.92 1518.55 L2089.61 1520.21 L2089.61 1515.95 L2097.87 1514.29 L2102.55 1514.29 L2102.55 1544.91 L2110.19 1544.91 L2110.19 1548.85 L2090.28 1548.85 L2090.28 1544.91 Z" fill="#9eb1be" fill-rule="nonzero" fill-opacity="1" /><path clip-path="url(#clip960)" d="M2116.88 1533.96 L2129.36 1533.96 L2129.36 1537.76 L2116.88 1537.76 L2116.88 1533.96 Z" fill="#9eb1be" fill-rule="nonzero" fill-opacity="1" /><path clip-path="url(#clip960)" d="M2146.74 1517.37 Q2143.13 1517.37 2141.3 1520.93 Q2139.49 1524.47 2139.49 1531.6 Q2139.49 1538.71 2141.3 1542.27 Q2143.13 1545.82 2146.74 1545.82 Q2150.37 1545.82 2152.18 1542.27 Q2154.01 1538.71 2154.01 1531.6 Q2154.01 1524.47 2152.18 1520.93 Q2150.37 1517.37 2146.74 1517.37 M2146.74 1513.66 Q2152.55 1513.66 2155.6 1518.27 Q2158.68 1522.85 2158.68 1531.6 Q2158.68 1540.33 2155.6 1544.94 Q2152.55 1549.52 2146.74 1549.52 Q2140.93 1549.52 2137.85 1544.94 Q2134.79 1540.33 2134.79 1531.6 Q2134.79 1522.85 2137.85 1518.27 Q2140.93 1513.66 2146.74 1513.66 Z" fill="#9eb1be" fill-rule="nonzero" fill-opacity="1" /><path clip-path="url(#clip960)" d="M2167.04 1548.13 L2167.04 1543.87 Q2168.8 1544.7 2170.6 1545.14 Q2172.41 1545.58 2174.15 1545.58 Q2178.78 1545.58 2181.21 1542.48 Q2183.66 1539.36 2184.01 1533.01 Q2182.67 1535.01 2180.6 1536.07 Q2178.54 1537.13 2176.04 1537.13 Q2170.86 1537.13 2167.83 1534.01 Q2164.82 1530.86 2164.82 1525.42 Q2164.82 1520.1 2167.97 1516.88 Q2171.11 1513.66 2176.35 1513.66 Q2182.34 1513.66 2185.49 1518.27 Q2188.66 1522.85 2188.66 1531.6 Q2188.66 1539.77 2184.77 1544.66 Q2180.91 1549.52 2174.35 1549.52 Q2172.6 1549.52 2170.79 1549.17 Q2168.98 1548.82 2167.04 1548.13 M2176.35 1533.48 Q2179.49 1533.48 2181.32 1531.32 Q2183.17 1529.17 2183.17 1525.42 Q2183.17 1521.7 2181.32 1519.54 Q2179.49 1517.37 2176.35 1517.37 Q2173.2 1517.37 2171.35 1519.54 Q2169.52 1521.7 2169.52 1525.42 Q2169.52 1529.17 2171.35 1531.32 Q2173.2 1533.48 2176.35 1533.48 Z" fill="#9eb1be" fill-rule="nonzero" fill-opacity="1" /><polyline clip-path="url(#clip960)" style="stroke:#adb2b7; stroke-linecap:round; stroke-linejoin:round; stroke-width:4; stroke-opacity:1; fill:none" points="110.881,1486.45 110.881,123.472 "/>
<polyline clip-path="url(#clip960)" style="stroke:#adb2b7; stroke-linecap:round; stroke-linejoin:round; stroke-width:4; stroke-opacity:1; fill:none" points="110.881,1486.45 129.779,1486.45 "/>
<polyline clip-path="url(#clip960)" style="stroke:#adb2b7; stroke-linecap:round; stroke-linejoin:round; stroke-width:4; stroke-opacity:1; fill:none" points="110.881,1032.12 129.779,1032.12 "/>
<polyline clip-path="url(#clip960)" style="stroke:#adb2b7; stroke-linecap:round; stroke-linejoin:round; stroke-width:4; stroke-opacity:1; fill:none" points="110.881,577.797 129.779,577.797 "/>
<polyline clip-path="url(#clip960)" style="stroke:#adb2b7; stroke-linecap:round; stroke-linejoin:round; stroke-width:4; stroke-opacity:1; fill:none" points="110.881,123.472 129.779,123.472 "/>
<path clip-path="url(#clip960)" d="M62.9365 1472.25 Q59.3254 1472.25 57.4967 1475.81 Q55.6912 1479.35 55.6912 1486.48 Q55.6912 1493.59 57.4967 1497.15 Q59.3254 1500.7 62.9365 1500.7 Q66.5707 1500.7 68.3763 1497.15 Q70.205 1493.59 70.205 1486.48 Q70.205 1479.35 68.3763 1475.81 Q66.5707 1472.25 62.9365 1472.25 M62.9365 1468.54 Q68.7467 1468.54 71.8022 1473.15 Q74.8809 1477.73 74.8809 1486.48 Q74.8809 1495.21 71.8022 1499.82 Q68.7467 1504.4 62.9365 1504.4 Q57.1264 1504.4 54.0477 1499.82 Q50.9921 1495.21 50.9921 1486.48 Q50.9921 1477.73 54.0477 1473.15 Q57.1264 1468.54 62.9365 1468.54 Z" fill="#9eb1be" fill-rule="nonzero" fill-opacity="1" /><path clip-path="url(#clip960)" d="M54.9736 1045.47 L62.6124 1045.47 L62.6124 1019.1 L54.3023 1020.77 L54.3023 1016.51 L62.5661 1014.84 L67.242 1014.84 L67.242 1045.47 L74.8809 1045.47 L74.8809 1049.4 L54.9736 1049.4 L54.9736 1045.47 Z" fill="#9eb1be" fill-rule="nonzero" fill-opacity="1" /><path clip-path="url(#clip960)" d="M58.5615 591.142 L74.8809 591.142 L74.8809 595.077 L52.9366 595.077 L52.9366 591.142 Q55.5986 588.388 60.1819 583.758 Q64.7883 579.105 65.9689 577.763 Q68.2143 575.24 69.0939 573.503 Q69.9967 571.744 69.9967 570.054 Q69.9967 567.3 68.0522 565.564 Q66.1309 563.828 63.0291 563.828 Q60.83 563.828 58.3763 564.591 Q55.9458 565.355 53.168 566.906 L53.168 562.184 Q55.9921 561.05 58.4458 560.471 Q60.8995 559.892 62.9365 559.892 Q68.3068 559.892 71.5013 562.578 Q74.6957 565.263 74.6957 569.753 Q74.6957 571.883 73.8855 573.804 Q73.0985 575.702 70.992 578.295 Q70.4133 578.966 67.3115 582.184 Q64.2096 585.378 58.5615 591.142 Z" fill="#9eb1be" fill-rule="nonzero" fill-opacity="1" /><path clip-path="url(#clip960)" d="M67.7513 122.118 Q71.1078 122.836 72.9827 125.104 Q74.8809 127.373 74.8809 130.706 Q74.8809 135.822 71.3624 138.623 Q67.8439 141.423 61.3624 141.423 Q59.1865 141.423 56.8717 140.984 Q54.5801 140.567 52.1264 139.71 L52.1264 135.197 Q54.0708 136.331 56.3856 136.91 Q58.7004 137.488 61.2236 137.488 Q65.6217 137.488 67.9133 135.752 Q70.2281 134.016 70.2281 130.706 Q70.2281 127.65 68.0754 125.937 Q65.9457 124.201 62.1263 124.201 L58.0986 124.201 L58.0986 120.359 L62.3115 120.359 Q65.7606 120.359 67.5893 118.993 Q69.418 117.604 69.418 115.012 Q69.418 112.35 67.5198 110.937 Q65.6448 109.502 62.1263 109.502 Q60.205 109.502 58.006 109.919 Q55.8069 110.336 53.168 111.215 L53.168 107.049 Q55.8301 106.308 58.1449 105.937 Q60.4828 105.567 62.543 105.567 Q67.867 105.567 70.9689 107.998 Q74.0707 110.405 74.0707 114.525 Q74.0707 117.396 72.4272 119.386 Q70.7837 121.354 67.7513 122.118 Z" fill="#9eb1be" fill-rule="nonzero" fill-opacity="1" /><path clip-path="url(#clip960)" d="M976.186 36.0774 L964.398 36.0774 L960.995 49.6074 L972.864 49.6074 L976.186 36.0774 M970.11 13.0277 L965.897 29.839 L977.725 29.839 L981.979 13.0277 L988.46 13.0277 L984.288 29.839 L996.927 29.839 L996.927 36.0774 L982.708 36.0774 L979.386 49.6074 L992.268 49.6074 L992.268 55.8053 L977.806 55.8053 L973.594 72.576 L967.112 72.576 L971.284 55.8053 L959.415 55.8053 L955.243 72.576 L948.721 72.576 L952.934 55.8053 L940.174 55.8053 L940.174 49.6074 L954.433 49.6074 L957.835 36.0774 L944.792 36.0774 L944.792 29.839 L959.415 29.839 L963.547 13.0277 L970.11 13.0277 Z" fill="#adb2b7" fill-rule="nonzero" fill-opacity="1" /><path clip-path="url(#clip960)" d="M1055.06 32.4315 Q1049.06 32.4315 1045.58 37.1306 Q1042.09 41.7891 1042.09 49.9314 Q1042.09 58.0738 1045.54 62.7728 Q1049.02 67.4314 1055.06 67.4314 Q1061.01 67.4314 1064.5 62.7323 Q1067.98 58.0333 1067.98 49.9314 Q1067.98 41.8701 1064.5 37.1711 Q1061.01 32.4315 1055.06 32.4315 M1055.06 26.1121 Q1064.78 26.1121 1070.33 32.4315 Q1075.88 38.7509 1075.88 49.9314 Q1075.88 61.0714 1070.33 67.4314 Q1064.78 73.7508 1055.06 73.7508 Q1045.29 73.7508 1039.74 67.4314 Q1034.24 61.0714 1034.24 49.9314 Q1034.24 38.7509 1039.74 32.4315 Q1045.29 26.1121 1055.06 26.1121 Z" fill="#adb2b7" fill-rule="nonzero" fill-opacity="1" /><path clip-path="url(#clip960)" d="M1095.44 65.7705 L1095.44 89.8329 L1087.95 89.8329 L1087.95 27.2059 L1095.44 27.2059 L1095.44 34.0924 Q1097.79 30.0415 1101.36 28.0971 Q1104.96 26.1121 1109.95 26.1121 Q1118.21 26.1121 1123.36 32.6746 Q1128.54 39.2371 1128.54 49.9314 Q1128.54 60.6258 1123.36 67.1883 Q1118.21 73.7508 1109.95 73.7508 Q1104.96 73.7508 1101.36 71.8063 Q1097.79 69.8214 1095.44 65.7705 M1120.8 49.9314 Q1120.8 41.7081 1117.4 37.0496 Q1114.04 32.3505 1108.12 32.3505 Q1102.21 32.3505 1098.81 37.0496 Q1095.44 41.7081 1095.44 49.9314 Q1095.44 58.1548 1098.81 62.8538 Q1102.21 67.5124 1108.12 67.5124 Q1114.04 67.5124 1117.4 62.8538 Q1120.8 58.1548 1120.8 49.9314 Z" fill="#adb2b7" fill-rule="nonzero" fill-opacity="1" /><path clip-path="url(#clip960)" d="M1179.7 48.0275 L1179.7 51.6733 L1145.43 51.6733 Q1145.92 59.3701 1150.05 63.421 Q1154.22 67.4314 1161.64 67.4314 Q1165.93 67.4314 1169.94 66.3781 Q1173.99 65.3249 1177.96 63.2184 L1177.96 70.267 Q1173.95 71.9684 1169.74 72.8596 Q1165.53 73.7508 1161.19 73.7508 Q1150.33 73.7508 1143.97 67.4314 Q1137.66 61.1119 1137.66 50.3365 Q1137.66 39.1965 1143.65 32.6746 Q1149.69 26.1121 1159.89 26.1121 Q1169.05 26.1121 1174.36 32.0264 Q1179.7 37.9003 1179.7 48.0275 M1172.25 45.84 Q1172.17 39.7232 1168.81 36.0774 Q1165.48 32.4315 1159.98 32.4315 Q1153.74 32.4315 1149.97 35.9558 Q1146.24 39.4801 1145.68 45.8805 L1172.25 45.84 Z" fill="#adb2b7" fill-rule="nonzero" fill-opacity="1" /><path clip-path="url(#clip960)" d="M1229.65 45.1919 L1229.65 72.576 L1222.2 72.576 L1222.2 45.4349 Q1222.2 38.994 1219.69 35.7938 Q1217.17 32.5936 1212.15 32.5936 Q1206.12 32.5936 1202.63 36.4419 Q1199.15 40.2903 1199.15 46.9338 L1199.15 72.576 L1191.65 72.576 L1191.65 27.2059 L1199.15 27.2059 L1199.15 34.2544 Q1201.82 30.163 1205.43 28.1376 Q1209.07 26.1121 1213.81 26.1121 Q1221.63 26.1121 1225.64 30.9732 Q1229.65 35.7938 1229.65 45.1919 Z" fill="#adb2b7" fill-rule="nonzero" fill-opacity="1" /><path clip-path="url(#clip960)" d="M1288.47 32.4315 Q1282.47 32.4315 1278.99 37.1306 Q1275.51 41.7891 1275.51 49.9314 Q1275.51 58.0738 1278.95 62.7728 Q1282.43 67.4314 1288.47 67.4314 Q1294.43 67.4314 1297.91 62.7323 Q1301.39 58.0333 1301.39 49.9314 Q1301.39 41.8701 1297.91 37.1711 Q1294.43 32.4315 1288.47 32.4315 M1288.47 26.1121 Q1298.19 26.1121 1303.74 32.4315 Q1309.29 38.7509 1309.29 49.9314 Q1309.29 61.0714 1303.74 67.4314 Q1298.19 73.7508 1288.47 73.7508 Q1278.71 73.7508 1273.16 67.4314 Q1267.65 61.0714 1267.65 49.9314 Q1267.65 38.7509 1273.16 32.4315 Q1278.71 26.1121 1288.47 26.1121 Z" fill="#adb2b7" fill-rule="nonzero" fill-opacity="1" /><path clip-path="url(#clip960)" d="M1347.94 34.1734 Q1346.68 33.4443 1345.18 33.1202 Q1343.72 32.7556 1341.94 32.7556 Q1335.62 32.7556 1332.22 36.8875 Q1328.86 40.9789 1328.86 48.6757 L1328.86 72.576 L1321.36 72.576 L1321.36 27.2059 L1328.86 27.2059 L1328.86 34.2544 Q1331.21 30.1225 1334.97 28.1376 Q1338.74 26.1121 1344.13 26.1121 Q1344.9 26.1121 1345.83 26.2337 Q1346.76 26.3147 1347.9 26.5172 L1347.94 34.1734 Z" fill="#adb2b7" fill-rule="nonzero" fill-opacity="1" /><path clip-path="url(#clip960)" d="M1384.15 34.0924 L1384.15 9.54393 L1391.61 9.54393 L1391.61 72.576 L1384.15 72.576 L1384.15 65.7705 Q1381.8 69.8214 1378.2 71.8063 Q1374.63 73.7508 1369.61 73.7508 Q1361.39 73.7508 1356.2 67.1883 Q1351.06 60.6258 1351.06 49.9314 Q1351.06 39.2371 1356.2 32.6746 Q1361.39 26.1121 1369.61 26.1121 Q1374.63 26.1121 1378.2 28.0971 Q1381.8 30.0415 1384.15 34.0924 M1358.75 49.9314 Q1358.75 58.1548 1362.12 62.8538 Q1365.52 67.5124 1371.43 67.5124 Q1377.35 67.5124 1380.75 62.8538 Q1384.15 58.1548 1384.15 49.9314 Q1384.15 41.7081 1380.75 37.0496 Q1377.35 32.3505 1371.43 32.3505 Q1365.52 32.3505 1362.12 37.0496 Q1358.75 41.7081 1358.75 49.9314 Z" fill="#adb2b7" fill-rule="nonzero" fill-opacity="1" /><path clip-path="url(#clip960)" d="M1445.77 48.0275 L1445.77 51.6733 L1411.5 51.6733 Q1411.98 59.3701 1416.11 63.421 Q1420.29 67.4314 1427.7 67.4314 Q1431.99 67.4314 1436 66.3781 Q1440.06 65.3249 1444.03 63.2184 L1444.03 70.267 Q1440.01 71.9684 1435.8 72.8596 Q1431.59 73.7508 1427.25 73.7508 Q1416.4 73.7508 1410.04 67.4314 Q1403.72 61.1119 1403.72 50.3365 Q1403.72 39.1965 1409.71 32.6746 Q1415.75 26.1121 1425.96 26.1121 Q1435.11 26.1121 1440.42 32.0264 Q1445.77 37.9003 1445.77 48.0275 M1438.31 45.84 Q1438.23 39.7232 1434.87 36.0774 Q1431.55 32.4315 1426.04 32.4315 Q1419.8 32.4315 1416.03 35.9558 Q1412.31 39.4801 1411.74 45.8805 L1438.31 45.84 Z" fill="#adb2b7" fill-rule="nonzero" fill-opacity="1" /><path clip-path="url(#clip960)" d="M1484.29 34.1734 Q1483.04 33.4443 1481.54 33.1202 Q1480.08 32.7556 1478.3 32.7556 Q1471.98 32.7556 1468.57 36.8875 Q1465.21 40.9789 1465.21 48.6757 L1465.21 72.576 L1457.72 72.576 L1457.72 27.2059 L1465.21 27.2059 L1465.21 34.2544 Q1467.56 30.1225 1471.33 28.1376 Q1475.1 26.1121 1480.48 26.1121 Q1481.25 26.1121 1482.18 26.2337 Q1483.12 26.3147 1484.25 26.5172 L1484.29 34.1734 Z" fill="#adb2b7" fill-rule="nonzero" fill-opacity="1" /><path clip-path="url(#clip960)" d="M1521.03 28.5427 L1521.03 35.5912 Q1517.87 33.9709 1514.47 33.1607 Q1511.07 32.3505 1507.42 32.3505 Q1501.87 32.3505 1499.08 34.0519 Q1496.32 35.7533 1496.32 39.156 Q1496.32 41.7486 1498.31 43.2475 Q1500.29 44.7058 1506.29 46.0426 L1508.84 46.6097 Q1516.78 48.3111 1520.1 51.4303 Q1523.46 54.509 1523.46 60.0587 Q1523.46 66.3781 1518.44 70.0644 Q1513.46 73.7508 1504.71 73.7508 Q1501.06 73.7508 1497.09 73.0216 Q1493.16 72.3329 1488.79 70.9151 L1488.79 63.2184 Q1492.92 65.3654 1496.93 66.4591 Q1500.94 67.5124 1504.87 67.5124 Q1510.14 67.5124 1512.97 65.73 Q1515.81 63.9071 1515.81 60.6258 Q1515.81 57.5877 1513.74 55.9673 Q1511.72 54.3469 1504.79 52.8481 L1502.2 52.2405 Q1495.27 50.7821 1492.19 47.7845 Q1489.11 44.7463 1489.11 39.4801 Q1489.11 33.0797 1493.65 29.5959 Q1498.19 26.1121 1506.53 26.1121 Q1510.66 26.1121 1514.31 26.7198 Q1517.95 27.3274 1521.03 28.5427 Z" fill="#adb2b7" fill-rule="nonzero" fill-opacity="1" /><polyline clip-path="url(#clip961)" style="stroke:#000000; stroke-linecap:round; stroke-linejoin:round; stroke-width:4; stroke-opacity:1; fill:none" points="174.33,1486.45 409.328,1486.45 409.328,1032.12 644.325,1032.12 644.325,577.797 879.322,577.797 879.322,123.472 1114.32,123.472 1114.32,1486.45 1349.32,1486.45 1349.32,1032.12 1584.31,1032.12 1584.31,577.797 1819.31,577.797 1819.31,123.472 2054.31,123.472 2054.31,1486.45 2289.31,1486.45 2289.31,1032.12 "/>
</svg>
