<?xml version="1.0" encoding="utf-8"?>
<svg xmlns="http://www.w3.org/2000/svg" xmlns:xlink="http://www.w3.org/1999/xlink" width="600" height="400" viewBox="0 0 2400 1600">
<defs>
  <clipPath id="clip930">
    <rect x="0" y="0" width="2400" height="1600"/>
  </clipPath>
</defs>
<path clip-path="url(#clip930)" d="M0 1600 L2400 1600 L2400 0 L0 0  Z" fill="#282c34" fill-rule="evenodd" fill-opacity="1"/>
<defs>
  <clipPath id="clip931">
    <rect x="229" y="106" width="2124" height="1381"/>
  </clipPath>
</defs>
<path clip-path="url(#clip930)" d="M229.445 1486.45 L2352.76 1486.45 L2352.76 106.192 L229.445 106.192  Z" fill="#21252b" fill-rule="evenodd" fill-opacity="1"/>
<polyline clip-path="url(#clip931)" style="stroke:#adb2b7; stroke-linecap:round; stroke-linejoin:round; stroke-width:2; stroke-opacity:0.1; fill:none" points="512.108,1486.45 512.108,106.192 "/>
<polyline clip-path="url(#clip931)" style="stroke:#adb2b7; stroke-linecap:round; stroke-linejoin:round; stroke-width:2; stroke-opacity:0.1; fill:none" points="957.247,1486.45 957.247,106.192 "/>
<polyline clip-path="url(#clip931)" style="stroke:#adb2b7; stroke-linecap:round; stroke-linejoin:round; stroke-width:2; stroke-opacity:0.1; fill:none" points="1402.39,1486.45 1402.39,106.192 "/>
<polyline clip-path="url(#clip931)" style="stroke:#adb2b7; stroke-linecap:round; stroke-linejoin:round; stroke-width:2; stroke-opacity:0.1; fill:none" points="1847.52,1486.45 1847.52,106.192 "/>
<polyline clip-path="url(#clip931)" style="stroke:#adb2b7; stroke-linecap:round; stroke-linejoin:round; stroke-width:2; stroke-opacity:0.1; fill:none" points="2292.66,1486.45 2292.66,106.192 "/>
<polyline clip-path="url(#clip931)" style="stroke:#adb2b7; stroke-linecap:round; stroke-linejoin:round; stroke-width:2; stroke-opacity:0.1; fill:none" points="229.445,1275.79 2352.76,1275.79 "/>
<polyline clip-path="url(#clip931)" style="stroke:#adb2b7; stroke-linecap:round; stroke-linejoin:round; stroke-width:2; stroke-opacity:0.1; fill:none" points="229.445,972.965 2352.76,972.965 "/>
<polyline clip-path="url(#clip931)" style="stroke:#adb2b7; stroke-linecap:round; stroke-linejoin:round; stroke-width:2; stroke-opacity:0.1; fill:none" points="229.445,670.145 2352.76,670.145 "/>
<polyline clip-path="url(#clip931)" style="stroke:#adb2b7; stroke-linecap:round; stroke-linejoin:round; stroke-width:2; stroke-opacity:0.1; fill:none" points="229.445,367.324 2352.76,367.324 "/>
<polyline clip-path="url(#clip930)" style="stroke:#adb2b7; stroke-linecap:round; stroke-linejoin:round; stroke-width:4; stroke-opacity:1; fill:none" points="229.445,1486.45 2352.76,1486.45 "/>
<polyline clip-path="url(#clip930)" style="stroke:#adb2b7; stroke-linecap:round; stroke-linejoin:round; stroke-width:4; stroke-opacity:1; fill:none" points="512.108,1486.45 512.108,1467.55 "/>
<polyline clip-path="url(#clip930)" style="stroke:#adb2b7; stroke-linecap:round; stroke-linejoin:round; stroke-width:4; stroke-opacity:1; fill:none" points="957.247,1486.45 957.247,1467.55 "/>
<polyline clip-path="url(#clip930)" style="stroke:#adb2b7; stroke-linecap:round; stroke-linejoin:round; stroke-width:4; stroke-opacity:1; fill:none" points="1402.39,1486.45 1402.39,1467.55 "/>
<polyline clip-path="url(#clip930)" style="stroke:#adb2b7; stroke-linecap:round; stroke-linejoin:round; stroke-width:4; stroke-opacity:1; fill:none" points="1847.52,1486.45 1847.52,1467.55 "/>
<polyline clip-path="url(#clip930)" style="stroke:#adb2b7; stroke-linecap:round; stroke-linejoin:round; stroke-width:4; stroke-opacity:1; fill:none" points="2292.66,1486.45 2292.66,1467.55 "/>
<path clip-path="url(#clip930)" d="M506.761 1544.91 L523.08 1544.91 L523.08 1548.85 L501.136 1548.85 L501.136 1544.91 Q503.798 1542.16 508.381 1537.53 Q512.988 1532.88 514.168 1531.53 Q516.414 1529.01 517.293 1527.27 Q518.196 1525.51 518.196 1523.82 Q518.196 1521.07 516.252 1519.33 Q514.33 1517.6 511.228 1517.6 Q509.029 1517.6 506.576 1518.36 Q504.145 1519.13 501.367 1520.68 L501.367 1515.95 Q504.191 1514.82 506.645 1514.24 Q509.099 1513.66 511.136 1513.66 Q516.506 1513.66 519.701 1516.35 Q522.895 1519.03 522.895 1523.52 Q522.895 1525.65 522.085 1527.57 Q521.298 1529.47 519.191 1532.07 Q518.613 1532.74 515.511 1535.95 Q512.409 1539.15 506.761 1544.91 Z" fill="#9eb1be" fill-rule="nonzero" fill-opacity="1" /><path clip-path="url(#clip930)" d="M960.256 1518.36 L948.45 1536.81 L960.256 1536.81 L960.256 1518.36 M959.029 1514.29 L964.909 1514.29 L964.909 1536.81 L969.839 1536.81 L969.839 1540.7 L964.909 1540.7 L964.909 1548.85 L960.256 1548.85 L960.256 1540.7 L944.654 1540.7 L944.654 1536.19 L959.029 1514.29 Z" fill="#9eb1be" fill-rule="nonzero" fill-opacity="1" /><path clip-path="url(#clip930)" d="M1402.79 1529.7 Q1399.64 1529.7 1397.79 1531.86 Q1395.96 1534.01 1395.96 1537.76 Q1395.96 1541.49 1397.79 1543.66 Q1399.64 1545.82 1402.79 1545.82 Q1405.94 1545.82 1407.77 1543.66 Q1409.62 1541.49 1409.62 1537.76 Q1409.62 1534.01 1407.77 1531.86 Q1405.94 1529.7 1402.79 1529.7 M1412.07 1515.05 L1412.07 1519.31 Q1410.31 1518.48 1408.51 1518.04 Q1406.73 1517.6 1404.97 1517.6 Q1400.34 1517.6 1397.88 1520.72 Q1395.45 1523.85 1395.11 1530.17 Q1396.47 1528.15 1398.53 1527.09 Q1400.59 1526 1403.07 1526 Q1408.28 1526 1411.29 1529.17 Q1414.32 1532.32 1414.32 1537.76 Q1414.32 1543.08 1411.17 1546.3 Q1408.02 1549.52 1402.79 1549.52 Q1396.79 1549.52 1393.62 1544.94 Q1390.45 1540.33 1390.45 1531.6 Q1390.45 1523.41 1394.34 1518.55 Q1398.23 1513.66 1404.78 1513.66 Q1406.54 1513.66 1408.32 1514.01 Q1410.13 1514.36 1412.07 1515.05 Z" fill="#9eb1be" fill-rule="nonzero" fill-opacity="1" /><path clip-path="url(#clip930)" d="M1847.52 1532.44 Q1844.19 1532.44 1842.27 1534.22 Q1840.37 1536 1840.37 1539.13 Q1840.37 1542.25 1842.27 1544.03 Q1844.19 1545.82 1847.52 1545.82 Q1850.86 1545.82 1852.78 1544.03 Q1854.7 1542.23 1854.7 1539.13 Q1854.7 1536 1852.78 1534.22 Q1850.88 1532.44 1847.52 1532.44 M1842.85 1530.45 Q1839.84 1529.7 1838.15 1527.64 Q1836.48 1525.58 1836.48 1522.62 Q1836.48 1518.48 1839.42 1516.07 Q1842.38 1513.66 1847.52 1513.66 Q1852.69 1513.66 1855.63 1516.07 Q1858.57 1518.48 1858.57 1522.62 Q1858.57 1525.58 1856.88 1527.64 Q1855.21 1529.7 1852.22 1530.45 Q1855.6 1531.23 1857.48 1533.52 Q1859.38 1535.82 1859.38 1539.13 Q1859.38 1544.15 1856.3 1546.83 Q1853.24 1549.52 1847.52 1549.52 Q1841.81 1549.52 1838.73 1546.83 Q1835.67 1544.15 1835.67 1539.13 Q1835.67 1535.82 1837.57 1533.52 Q1839.47 1531.23 1842.85 1530.45 M1841.13 1523.06 Q1841.13 1525.75 1842.8 1527.25 Q1844.49 1528.76 1847.52 1528.76 Q1850.53 1528.76 1852.22 1527.25 Q1853.94 1525.75 1853.94 1523.06 Q1853.94 1520.38 1852.22 1518.87 Q1850.53 1517.37 1847.52 1517.37 Q1844.49 1517.37 1842.8 1518.87 Q1841.13 1520.38 1841.13 1523.06 Z" fill="#9eb1be" fill-rule="nonzero" fill-opacity="1" /><path clip-path="url(#clip930)" d="M2267.35 1544.91 L2274.99 1544.91 L2274.99 1518.55 L2266.68 1520.21 L2266.68 1515.95 L2274.94 1514.29 L2279.62 1514.29 L2279.62 1544.91 L2287.26 1544.91 L2287.26 1548.85 L2267.35 1548.85 L2267.35 1544.91 Z" fill="#9eb1be" fill-rule="nonzero" fill-opacity="1" /><path clip-path="url(#clip930)" d="M2306.7 1517.37 Q2303.09 1517.37 2301.26 1520.93 Q2299.46 1524.47 2299.46 1531.6 Q2299.46 1538.71 2301.26 1542.27 Q2303.09 1545.82 2306.7 1545.82 Q2310.34 1545.82 2312.14 1542.27 Q2313.97 1538.71 2313.97 1531.6 Q2313.97 1524.47 2312.14 1520.93 Q2310.34 1517.37 2306.7 1517.37 M2306.7 1513.66 Q2312.51 1513.66 2315.57 1518.27 Q2318.65 1522.85 2318.65 1531.6 Q2318.65 1540.33 2315.57 1544.94 Q2312.51 1549.52 2306.7 1549.52 Q2300.89 1549.52 2297.81 1544.94 Q2294.76 1540.33 2294.76 1531.6 Q2294.76 1522.85 2297.81 1518.27 Q2300.89 1513.66 2306.7 1513.66 Z" fill="#9eb1be" fill-rule="nonzero" fill-opacity="1" /><polyline clip-path="url(#clip930)" style="stroke:#adb2b7; stroke-linecap:round; stroke-linejoin:round; stroke-width:4; stroke-opacity:1; fill:none" points="229.445,1486.45 229.445,106.192 "/>
<polyline clip-path="url(#clip930)" style="stroke:#adb2b7; stroke-linecap:round; stroke-linejoin:round; stroke-width:4; stroke-opacity:1; fill:none" points="229.445,1275.79 248.343,1275.79 "/>
<polyline clip-path="url(#clip930)" style="stroke:#adb2b7; stroke-linecap:round; stroke-linejoin:round; stroke-width:4; stroke-opacity:1; fill:none" points="229.445,972.965 248.343,972.965 "/>
<polyline clip-path="url(#clip930)" style="stroke:#adb2b7; stroke-linecap:round; stroke-linejoin:round; stroke-width:4; stroke-opacity:1; fill:none" points="229.445,670.145 248.343,670.145 "/>
<polyline clip-path="url(#clip930)" style="stroke:#adb2b7; stroke-linecap:round; stroke-linejoin:round; stroke-width:4; stroke-opacity:1; fill:none" points="229.445,367.324 248.343,367.324 "/>
<path clip-path="url(#clip930)" d="M51.6634 1289.13 L59.3023 1289.13 L59.3023 1262.76 L50.9921 1264.43 L50.9921 1260.17 L59.256 1258.51 L63.9319 1258.51 L63.9319 1289.13 L71.5707 1289.13 L71.5707 1293.07 L51.6634 1293.07 L51.6634 1289.13 Z" fill="#9eb1be" fill-rule="nonzero" fill-opacity="1" /><path clip-path="url(#clip930)" d="M91.0151 1261.58 Q87.404 1261.58 85.5753 1265.15 Q83.7697 1268.69 83.7697 1275.82 Q83.7697 1282.93 85.5753 1286.49 Q87.404 1290.03 91.0151 1290.03 Q94.6493 1290.03 96.4548 1286.49 Q98.2835 1282.93 98.2835 1275.82 Q98.2835 1268.69 96.4548 1265.15 Q94.6493 1261.58 91.0151 1261.58 M91.0151 1257.88 Q96.8252 1257.88 99.8808 1262.49 Q102.959 1267.07 102.959 1275.82 Q102.959 1284.55 99.8808 1289.15 Q96.8252 1293.74 91.0151 1293.74 Q85.2049 1293.74 82.1262 1289.15 Q79.0707 1284.55 79.0707 1275.82 Q79.0707 1267.07 82.1262 1262.49 Q85.2049 1257.88 91.0151 1257.88 Z" fill="#9eb1be" fill-rule="nonzero" fill-opacity="1" /><path clip-path="url(#clip930)" d="M115.205 1289.13 L131.524 1289.13 L131.524 1293.07 L109.58 1293.07 L109.58 1289.13 Q112.242 1286.38 116.825 1281.75 Q121.432 1277.09 122.612 1275.75 Q124.857 1273.23 125.737 1271.49 Q126.64 1269.73 126.64 1268.04 Q126.64 1265.29 124.695 1263.55 Q122.774 1261.82 119.672 1261.82 Q117.473 1261.82 115.02 1262.58 Q112.589 1263.34 109.811 1264.89 L109.811 1260.17 Q112.635 1259.04 115.089 1258.46 Q117.543 1257.88 119.58 1257.88 Q124.95 1257.88 128.144 1260.57 Q131.339 1263.25 131.339 1267.74 Q131.339 1269.87 130.529 1271.79 Q129.742 1273.69 127.635 1276.28 Q127.057 1276.95 123.955 1280.17 Q120.853 1283.37 115.205 1289.13 Z" fill="#9eb1be" fill-rule="nonzero" fill-opacity="1" /><path clip-path="url(#clip930)" d="M151.339 1261.58 Q147.728 1261.58 145.899 1265.15 Q144.093 1268.69 144.093 1275.82 Q144.093 1282.93 145.899 1286.49 Q147.728 1290.03 151.339 1290.03 Q154.973 1290.03 156.779 1286.49 Q158.607 1282.93 158.607 1275.82 Q158.607 1268.69 156.779 1265.15 Q154.973 1261.58 151.339 1261.58 M151.339 1257.88 Q157.149 1257.88 160.205 1262.49 Q163.283 1267.07 163.283 1275.82 Q163.283 1284.55 160.205 1289.15 Q157.149 1293.74 151.339 1293.74 Q145.529 1293.74 142.45 1289.15 Q139.394 1284.55 139.394 1275.82 Q139.394 1267.07 142.45 1262.49 Q145.529 1257.88 151.339 1257.88 Z" fill="#9eb1be" fill-rule="nonzero" fill-opacity="1" /><path clip-path="url(#clip930)" d="M181.501 1261.58 Q177.89 1261.58 176.061 1265.15 Q174.255 1268.69 174.255 1275.82 Q174.255 1282.93 176.061 1286.49 Q177.89 1290.03 181.501 1290.03 Q185.135 1290.03 186.94 1286.49 Q188.769 1282.93 188.769 1275.82 Q188.769 1268.69 186.94 1265.15 Q185.135 1261.58 181.501 1261.58 M181.501 1257.88 Q187.311 1257.88 190.366 1262.49 Q193.445 1267.07 193.445 1275.82 Q193.445 1284.55 190.366 1289.15 Q187.311 1293.74 181.501 1293.74 Q175.691 1293.74 172.612 1289.15 Q169.556 1284.55 169.556 1275.82 Q169.556 1267.07 172.612 1262.49 Q175.691 1257.88 181.501 1257.88 Z" fill="#9eb1be" fill-rule="nonzero" fill-opacity="1" /><path clip-path="url(#clip930)" d="M51.6634 986.31 L59.3023 986.31 L59.3023 959.945 L50.9921 961.611 L50.9921 957.352 L59.256 955.685 L63.9319 955.685 L63.9319 986.31 L71.5707 986.31 L71.5707 990.245 L51.6634 990.245 L51.6634 986.31 Z" fill="#9eb1be" fill-rule="nonzero" fill-opacity="1" /><path clip-path="url(#clip930)" d="M91.0151 958.764 Q87.404 958.764 85.5753 962.329 Q83.7697 965.87 83.7697 973 Q83.7697 980.106 85.5753 983.671 Q87.404 987.213 91.0151 987.213 Q94.6493 987.213 96.4548 983.671 Q98.2835 980.106 98.2835 973 Q98.2835 965.87 96.4548 962.329 Q94.6493 958.764 91.0151 958.764 M91.0151 955.06 Q96.8252 955.06 99.8808 959.667 Q102.959 964.25 102.959 973 Q102.959 981.727 99.8808 986.333 Q96.8252 990.917 91.0151 990.917 Q85.2049 990.917 82.1262 986.333 Q79.0707 981.727 79.0707 973 Q79.0707 964.25 82.1262 959.667 Q85.2049 955.06 91.0151 955.06 Z" fill="#9eb1be" fill-rule="nonzero" fill-opacity="1" /><path clip-path="url(#clip930)" d="M111.223 955.685 L129.58 955.685 L129.58 959.62 L115.506 959.62 L115.506 968.093 Q116.524 967.745 117.543 967.583 Q118.561 967.398 119.58 967.398 Q125.367 967.398 128.746 970.569 Q132.126 973.741 132.126 979.157 Q132.126 984.736 128.654 987.838 Q125.182 990.917 118.862 990.917 Q116.686 990.917 114.418 990.546 Q112.172 990.176 109.765 989.435 L109.765 984.736 Q111.848 985.87 114.07 986.426 Q116.293 986.981 118.77 986.981 Q122.774 986.981 125.112 984.875 Q127.45 982.768 127.45 979.157 Q127.45 975.546 125.112 973.44 Q122.774 971.333 118.77 971.333 Q116.895 971.333 115.02 971.75 Q113.168 972.167 111.223 973.046 L111.223 955.685 Z" fill="#9eb1be" fill-rule="nonzero" fill-opacity="1" /><path clip-path="url(#clip930)" d="M151.339 958.764 Q147.728 958.764 145.899 962.329 Q144.093 965.87 144.093 973 Q144.093 980.106 145.899 983.671 Q147.728 987.213 151.339 987.213 Q154.973 987.213 156.779 983.671 Q158.607 980.106 158.607 973 Q158.607 965.87 156.779 962.329 Q154.973 958.764 151.339 958.764 M151.339 955.06 Q157.149 955.06 160.205 959.667 Q163.283 964.25 163.283 973 Q163.283 981.727 160.205 986.333 Q157.149 990.917 151.339 990.917 Q145.529 990.917 142.45 986.333 Q139.394 981.727 139.394 973 Q139.394 964.25 142.45 959.667 Q145.529 955.06 151.339 955.06 Z" fill="#9eb1be" fill-rule="nonzero" fill-opacity="1" /><path clip-path="url(#clip930)" d="M181.501 958.764 Q177.89 958.764 176.061 962.329 Q174.255 965.87 174.255 973 Q174.255 980.106 176.061 983.671 Q177.89 987.213 181.501 987.213 Q185.135 987.213 186.94 983.671 Q188.769 980.106 188.769 973 Q188.769 965.87 186.94 962.329 Q185.135 958.764 181.501 958.764 M181.501 955.06 Q187.311 955.06 190.366 959.667 Q193.445 964.25 193.445 973 Q193.445 981.727 190.366 986.333 Q187.311 990.917 181.501 990.917 Q175.691 990.917 172.612 986.333 Q169.556 981.727 169.556 973 Q169.556 964.25 172.612 959.667 Q175.691 955.06 181.501 955.06 Z" fill="#9eb1be" fill-rule="nonzero" fill-opacity="1" /><path clip-path="url(#clip930)" d="M51.6634 683.49 L59.3023 683.49 L59.3023 657.124 L50.9921 658.791 L50.9921 654.531 L59.256 652.865 L63.9319 652.865 L63.9319 683.49 L71.5707 683.49 L71.5707 687.425 L51.6634 687.425 L51.6634 683.49 Z" fill="#9eb1be" fill-rule="nonzero" fill-opacity="1" /><path clip-path="url(#clip930)" d="M91.0151 655.943 Q87.404 655.943 85.5753 659.508 Q83.7697 663.05 83.7697 670.18 Q83.7697 677.286 85.5753 680.851 Q87.404 684.392 91.0151 684.392 Q94.6493 684.392 96.4548 680.851 Q98.2835 677.286 98.2835 670.18 Q98.2835 663.05 96.4548 659.508 Q94.6493 655.943 91.0151 655.943 M91.0151 652.24 Q96.8252 652.24 99.8808 656.846 Q102.959 661.43 102.959 670.18 Q102.959 678.906 99.8808 683.513 Q96.8252 688.096 91.0151 688.096 Q85.2049 688.096 82.1262 683.513 Q79.0707 678.906 79.0707 670.18 Q79.0707 661.43 82.1262 656.846 Q85.2049 652.24 91.0151 652.24 Z" fill="#9eb1be" fill-rule="nonzero" fill-opacity="1" /><path clip-path="url(#clip930)" d="M121.177 671.013 Q117.844 671.013 115.922 672.795 Q114.024 674.578 114.024 677.703 Q114.024 680.828 115.922 682.61 Q117.844 684.392 121.177 684.392 Q124.51 684.392 126.432 682.61 Q128.353 680.804 128.353 677.703 Q128.353 674.578 126.432 672.795 Q124.533 671.013 121.177 671.013 M116.501 669.022 Q113.492 668.281 111.802 666.221 Q110.135 664.161 110.135 661.198 Q110.135 657.055 113.075 654.647 Q116.038 652.24 121.177 652.24 Q126.339 652.24 129.279 654.647 Q132.219 657.055 132.219 661.198 Q132.219 664.161 130.529 666.221 Q128.862 668.281 125.876 669.022 Q129.256 669.809 131.131 672.101 Q133.029 674.392 133.029 677.703 Q133.029 682.726 129.95 685.411 Q126.894 688.096 121.177 688.096 Q115.459 688.096 112.381 685.411 Q109.325 682.726 109.325 677.703 Q109.325 674.392 111.223 672.101 Q113.121 669.809 116.501 669.022 M114.788 661.638 Q114.788 664.323 116.455 665.828 Q118.145 667.332 121.177 667.332 Q124.186 667.332 125.876 665.828 Q127.589 664.323 127.589 661.638 Q127.589 658.953 125.876 657.448 Q124.186 655.943 121.177 655.943 Q118.145 655.943 116.455 657.448 Q114.788 658.953 114.788 661.638 Z" fill="#9eb1be" fill-rule="nonzero" fill-opacity="1" /><path clip-path="url(#clip930)" d="M151.339 655.943 Q147.728 655.943 145.899 659.508 Q144.093 663.05 144.093 670.18 Q144.093 677.286 145.899 680.851 Q147.728 684.392 151.339 684.392 Q154.973 684.392 156.779 680.851 Q158.607 677.286 158.607 670.18 Q158.607 663.05 156.779 659.508 Q154.973 655.943 151.339 655.943 M151.339 652.24 Q157.149 652.24 160.205 656.846 Q163.283 661.43 163.283 670.18 Q163.283 678.906 160.205 683.513 Q157.149 688.096 151.339 688.096 Q145.529 688.096 142.45 683.513 Q139.394 678.906 139.394 670.18 Q139.394 661.43 142.45 656.846 Q145.529 652.24 151.339 652.24 Z" fill="#9eb1be" fill-rule="nonzero" fill-opacity="1" /><path clip-path="url(#clip930)" d="M181.501 655.943 Q177.89 655.943 176.061 659.508 Q174.255 663.05 174.255 670.18 Q174.255 677.286 176.061 680.851 Q177.89 684.392 181.501 684.392 Q185.135 684.392 186.94 680.851 Q188.769 677.286 188.769 670.18 Q188.769 663.05 186.94 659.508 Q185.135 655.943 181.501 655.943 M181.501 652.24 Q187.311 652.24 190.366 656.846 Q193.445 661.43 193.445 670.18 Q193.445 678.906 190.366 683.513 Q187.311 688.096 181.501 688.096 Q175.691 688.096 172.612 683.513 Q169.556 678.906 169.556 670.18 Q169.556 661.43 172.612 656.846 Q175.691 652.24 181.501 652.24 Z" fill="#9eb1be" fill-rule="nonzero" fill-opacity="1" /><path clip-path="url(#clip930)" d="M51.6634 380.669 L59.3023 380.669 L59.3023 354.304 L50.9921 355.97 L50.9921 351.711 L59.256 350.044 L63.9319 350.044 L63.9319 380.669 L71.5707 380.669 L71.5707 384.604 L51.6634 384.604 L51.6634 380.669 Z" fill="#9eb1be" fill-rule="nonzero" fill-opacity="1" /><path clip-path="url(#clip930)" d="M81.8253 380.669 L89.4641 380.669 L89.4641 354.304 L81.154 355.97 L81.154 351.711 L89.4178 350.044 L94.0937 350.044 L94.0937 380.669 L101.733 380.669 L101.733 384.604 L81.8253 384.604 L81.8253 380.669 Z" fill="#9eb1be" fill-rule="nonzero" fill-opacity="1" /><path clip-path="url(#clip930)" d="M111.987 380.669 L119.626 380.669 L119.626 354.304 L111.316 355.97 L111.316 351.711 L119.58 350.044 L124.256 350.044 L124.256 380.669 L131.894 380.669 L131.894 384.604 L111.987 384.604 L111.987 380.669 Z" fill="#9eb1be" fill-rule="nonzero" fill-opacity="1" /><path clip-path="url(#clip930)" d="M151.339 353.123 Q147.728 353.123 145.899 356.688 Q144.093 360.229 144.093 367.359 Q144.093 374.465 145.899 378.03 Q147.728 381.572 151.339 381.572 Q154.973 381.572 156.779 378.03 Q158.607 374.465 158.607 367.359 Q158.607 360.229 156.779 356.688 Q154.973 353.123 151.339 353.123 M151.339 349.419 Q157.149 349.419 160.205 354.026 Q163.283 358.609 163.283 367.359 Q163.283 376.086 160.205 380.692 Q157.149 385.276 151.339 385.276 Q145.529 385.276 142.45 380.692 Q139.394 376.086 139.394 367.359 Q139.394 358.609 142.45 354.026 Q145.529 349.419 151.339 349.419 Z" fill="#9eb1be" fill-rule="nonzero" fill-opacity="1" /><path clip-path="url(#clip930)" d="M181.501 353.123 Q177.89 353.123 176.061 356.688 Q174.255 360.229 174.255 367.359 Q174.255 374.465 176.061 378.03 Q177.89 381.572 181.501 381.572 Q185.135 381.572 186.94 378.03 Q188.769 374.465 188.769 367.359 Q188.769 360.229 186.94 356.688 Q185.135 353.123 181.501 353.123 M181.501 349.419 Q187.311 349.419 190.366 354.026 Q193.445 358.609 193.445 367.359 Q193.445 376.086 190.366 380.692 Q187.311 385.276 181.501 385.276 Q175.691 385.276 172.612 380.692 Q169.556 376.086 169.556 367.359 Q169.556 358.609 172.612 354.026 Q175.691 349.419 181.501 349.419 Z" fill="#9eb1be" fill-rule="nonzero" fill-opacity="1" /><path clip-path="url(#clip930)" d="M229.445 8.64 L256.76 8.64 L256.76 13.559 L235.29 13.559 L235.29 26.3482 L255.863 26.3482 L255.863 31.2672 L235.29 31.2672 L235.29 46.921 L257.281 46.921 L257.281 51.84 L229.445 51.84 L229.445 8.64 Z" fill="#adb2b7" fill-rule="nonzero" fill-opacity="1" /><path clip-path="url(#clip930)" d="M269.838 35.6653 Q269.838 41.5391 272.24 44.8956 Q274.671 48.2231 278.895 48.2231 Q283.12 48.2231 285.55 44.8956 Q287.981 41.5391 287.981 35.6653 Q287.981 29.7915 285.55 26.464 Q283.12 23.1075 278.895 23.1075 Q274.671 23.1075 272.24 26.464 Q269.838 29.7915 269.838 35.6653 M287.981 46.9789 Q286.302 49.8724 283.727 51.2902 Q281.181 52.6791 277.593 52.6791 Q271.719 52.6791 268.015 47.9916 Q264.341 43.3042 264.341 35.6653 Q264.341 28.0265 268.015 23.339 Q271.719 18.6515 277.593 18.6515 Q281.181 18.6515 283.727 20.0693 Q286.302 21.4582 287.981 24.3517 L287.981 19.4328 L293.305 19.4328 L293.305 64.1663 L287.981 64.1663 L287.981 46.9789 Z" fill="#adb2b7" fill-rule="nonzero" fill-opacity="1" /><path clip-path="url(#clip930)" d="M303.721 39.0507 L303.721 19.4328 L309.045 19.4328 L309.045 38.8482 Q309.045 43.4488 310.839 45.7636 Q312.633 48.0495 316.221 48.0495 Q320.533 48.0495 323.021 45.3007 Q325.538 42.5519 325.538 37.8065 L325.538 19.4328 L330.862 19.4328 L330.862 51.84 L325.538 51.84 L325.538 46.8632 Q323.6 49.8145 321.024 51.2613 Q318.478 52.6791 315.093 52.6791 Q309.508 52.6791 306.615 49.2069 Q303.721 45.7347 303.721 39.0507 M317.118 18.6515 L317.118 18.6515 Z" fill="#adb2b7" fill-rule="nonzero" fill-opacity="1" /><path clip-path="url(#clip930)" d="M341.829 19.4328 L347.153 19.4328 L347.153 51.84 L341.829 51.84 L341.829 19.4328 M341.829 6.81709 L347.153 6.81709 L347.153 13.559 L341.829 13.559 L341.829 6.81709 Z" fill="#adb2b7" fill-rule="nonzero" fill-opacity="1" /><path clip-path="url(#clip930)" d="M363.559 10.2314 L363.559 19.4328 L374.525 19.4328 L374.525 23.5705 L363.559 23.5705 L363.559 41.163 Q363.559 45.1271 364.63 46.2555 Q365.729 47.384 369.057 47.384 L374.525 47.384 L374.525 51.84 L369.057 51.84 Q362.893 51.84 360.55 49.5541 Q358.206 47.2393 358.206 41.163 L358.206 23.5705 L354.3 23.5705 L354.3 19.4328 L358.206 19.4328 L358.206 10.2314 L363.559 10.2314 Z" fill="#adb2b7" fill-rule="nonzero" fill-opacity="1" /><path clip-path="url(#clip930)" d="M395.011 54.8492 Q392.754 60.6362 390.613 62.4013 Q388.472 64.1663 384.884 64.1663 L380.631 64.1663 L380.631 59.7103 L383.756 59.7103 Q385.955 59.7103 387.17 58.6687 Q388.385 57.627 389.861 53.7497 L390.816 51.3192 L377.708 19.4328 L383.35 19.4328 L393.478 44.7799 L403.605 19.4328 L409.247 19.4328 L395.011 54.8492 Z" fill="#adb2b7" fill-rule="nonzero" fill-opacity="1" /><polyline clip-path="url(#clip931)" style="stroke:#bbbb00; stroke-linecap:round; stroke-linejoin:round; stroke-width:4; stroke-opacity:1; fill:none" points="289.539,1356.54 512.108,1356.54 512.108,1447.38 734.677,1447.38 734.677,1053.72 957.247,1053.72 957.247,1144.56 1179.82,1144.56 1179.82,750.897 1402.39,750.897 1402.39,841.743 1624.95,841.743 1624.95,448.076 1847.52,448.076 1847.52,538.923 2070.09,538.923 2070.09,145.256 2292.66,145.256 2292.66,236.102 "/>
</svg>
