<?xml version="1.0" encoding="utf-8"?>
<svg xmlns="http://www.w3.org/2000/svg" xmlns:xlink="http://www.w3.org/1999/xlink" width="600" height="400" viewBox="0 0 2400 1600">
<defs>
  <clipPath id="clip830">
    <rect x="0" y="0" width="2400" height="1600"/>
  </clipPath>
</defs>
<path clip-path="url(#clip830)" d="M0 1600 L2400 1600 L2400 0 L0 0  Z" fill="#282c34" fill-rule="evenodd" fill-opacity="1"/>
<defs>
  <clipPath id="clip831">
    <rect x="110" y="123" width="2243" height="1364"/>
  </clipPath>
</defs>
<path clip-path="url(#clip830)" d="M110.881 1486.45 L2352.76 1486.45 L2352.76 123.472 L110.881 123.472  Z" fill="#21252b" fill-rule="evenodd" fill-opacity="1"/>
<polyline clip-path="url(#clip831)" style="stroke:#adb2b7; stroke-linecap:round; stroke-linejoin:round; stroke-width:2; stroke-opacity:0.1; fill:none" points="174.33,1486.45 174.33,123.472 "/>
<polyline clip-path="url(#clip831)" style="stroke:#adb2b7; stroke-linecap:round; stroke-linejoin:round; stroke-width:2; stroke-opacity:0.1; fill:none" points="600.88,1486.45 600.88,123.472 "/>
<polyline clip-path="url(#clip831)" style="stroke:#adb2b7; stroke-linecap:round; stroke-linejoin:round; stroke-width:2; stroke-opacity:0.1; fill:none" points="1027.43,1486.45 1027.43,123.472 "/>
<polyline clip-path="url(#clip831)" style="stroke:#adb2b7; stroke-linecap:round; stroke-linejoin:round; stroke-width:2; stroke-opacity:0.1; fill:none" points="1453.98,1486.45 1453.98,123.472 "/>
<polyline clip-path="url(#clip831)" style="stroke:#adb2b7; stroke-linecap:round; stroke-linejoin:round; stroke-width:2; stroke-opacity:0.1; fill:none" points="1880.53,1486.45 1880.53,123.472 "/>
<polyline clip-path="url(#clip831)" style="stroke:#adb2b7; stroke-linecap:round; stroke-linejoin:round; stroke-width:2; stroke-opacity:0.1; fill:none" points="2307.08,1486.45 2307.08,123.472 "/>
<polyline clip-path="url(#clip831)" style="stroke:#adb2b7; stroke-linecap:round; stroke-linejoin:round; stroke-width:2; stroke-opacity:0.1; fill:none" points="110.881,1486.45 2352.76,1486.45 "/>
<polyline clip-path="url(#clip831)" style="stroke:#adb2b7; stroke-linecap:round; stroke-linejoin:round; stroke-width:2; stroke-opacity:0.1; fill:none" points="110.881,123.472 2352.76,123.472 "/>
<polyline clip-path="url(#clip830)" style="stroke:#adb2b7; stroke-linecap:round; stroke-linejoin:round; stroke-width:4; stroke-opacity:1; fill:none" points="110.881,1486.45 2352.76,1486.45 "/>
<polyline clip-path="url(#clip830)" style="stroke:#adb2b7; stroke-linecap:round; stroke-linejoin:round; stroke-width:4; stroke-opacity:1; fill:none" points="174.33,1486.45 174.33,1467.55 "/>
<polyline clip-path="url(#clip830)" style="stroke:#adb2b7; stroke-linecap:round; stroke-linejoin:round; stroke-width:4; stroke-opacity:1; fill:none" points="600.88,1486.45 600.88,1467.55 "/>
<polyline clip-path="url(#clip830)" style="stroke:#adb2b7; stroke-linecap:round; stroke-linejoin:round; stroke-width:4; stroke-opacity:1; fill:none" points="1027.43,1486.45 1027.43,1467.55 "/>
<polyline clip-path="url(#clip830)" style="stroke:#adb2b7; stroke-linecap:round; stroke-linejoin:round; stroke-width:4; stroke-opacity:1; fill:none" points="1453.98,1486.45 1453.98,1467.55 "/>
<polyline clip-path="url(#clip830)" style="stroke:#adb2b7; stroke-linecap:round; stroke-linejoin:round; stroke-width:4; stroke-opacity:1; fill:none" points="1880.53,1486.45 1880.53,1467.55 "/>
<polyline clip-path="url(#clip830)" style="stroke:#adb2b7; stroke-linecap:round; stroke-linejoin:round; stroke-width:4; stroke-opacity:1; fill:none" points="2307.08,1486.45 2307.08,1467.55 "/>
<path clip-path="url(#clip830)" d="M46.1248 1544.91 L62.4442 1544.91 L62.4442 1548.85 L40.4999 1548.85 L40.4999 1544.91 Q43.1619 1542.16 47.7452 1537.53 Q52.3517 1532.88 53.5322 1531.53 Q55.7776 1529.01 56.6572 1527.27 Q57.56 1525.51 57.56 1523.82 Q57.56 1521.07 55.6155 1519.33 Q53.6943 1517.6 50.5924 1517.6 Q48.3934 1517.6 45.9397 1518.36 Q43.5091 1519.13 40.7314 1520.68 L40.7314 1515.95 Q43.5554 1514.82 46.0091 1514.24 Q48.4628 1513.66 50.4998 1513.66 Q55.8702 1513.66 59.0646 1516.35 Q62.259 1519.03 62.259 1523.52 Q62.259 1525.65 61.4488 1527.57 Q60.6618 1529.47 58.5553 1532.07 Q57.9766 1532.74 54.8748 1535.95 Q51.773 1539.15 46.1248 1544.91 Z" fill="#9eb1be" fill-rule="nonzero" fill-opacity="1" /><path clip-path="url(#clip830)" d="M82.2589 1517.37 Q78.6478 1517.37 76.8191 1520.93 Q75.0136 1524.47 75.0136 1531.6 Q75.0136 1538.71 76.8191 1542.27 Q78.6478 1545.82 82.2589 1545.82 Q85.8932 1545.82 87.6987 1542.27 Q89.5274 1538.71 89.5274 1531.6 Q89.5274 1524.47 87.6987 1520.93 Q85.8932 1517.37 82.2589 1517.37 M82.2589 1513.66 Q88.0691 1513.66 91.1246 1518.27 Q94.2033 1522.85 94.2033 1531.6 Q94.2033 1540.33 91.1246 1544.94 Q88.0691 1549.52 82.2589 1549.52 Q76.4488 1549.52 73.3701 1544.94 Q70.3145 1540.33 70.3145 1531.6 Q70.3145 1522.85 73.3701 1518.27 Q76.4488 1513.66 82.2589 1513.66 Z" fill="#9eb1be" fill-rule="nonzero" fill-opacity="1" /><path clip-path="url(#clip830)" d="M106.449 1544.91 L122.768 1544.91 L122.768 1548.85 L100.824 1548.85 L100.824 1544.91 Q103.486 1542.16 108.069 1537.53 Q112.675 1532.88 113.856 1531.53 Q116.101 1529.01 116.981 1527.27 Q117.884 1525.51 117.884 1523.82 Q117.884 1521.07 115.939 1519.33 Q114.018 1517.6 110.916 1517.6 Q108.717 1517.6 106.263 1518.36 Q103.833 1519.13 101.055 1520.68 L101.055 1515.95 Q103.879 1514.82 106.333 1514.24 Q108.787 1513.66 110.824 1513.66 Q116.194 1513.66 119.388 1516.35 Q122.583 1519.03 122.583 1523.52 Q122.583 1525.65 121.773 1527.57 Q120.986 1529.47 118.879 1532.07 Q118.3 1532.74 115.199 1535.95 Q112.097 1539.15 106.449 1544.91 Z" fill="#9eb1be" fill-rule="nonzero" fill-opacity="1" /><path clip-path="url(#clip830)" d="M142.583 1517.37 Q138.972 1517.37 137.143 1520.93 Q135.337 1524.47 135.337 1531.6 Q135.337 1538.71 137.143 1542.27 Q138.972 1545.82 142.583 1545.82 Q146.217 1545.82 148.022 1542.27 Q149.851 1538.71 149.851 1531.6 Q149.851 1524.47 148.022 1520.93 Q146.217 1517.37 142.583 1517.37 M142.583 1513.66 Q148.393 1513.66 151.448 1518.27 Q154.527 1522.85 154.527 1531.6 Q154.527 1540.33 151.448 1544.94 Q148.393 1549.52 142.583 1549.52 Q136.773 1549.52 133.694 1544.94 Q130.638 1540.33 130.638 1531.6 Q130.638 1522.85 133.694 1518.27 Q136.773 1513.66 142.583 1513.66 Z" fill="#9eb1be" fill-rule="nonzero" fill-opacity="1" /><path clip-path="url(#clip830)" d="M159.99 1533.96 L172.467 1533.96 L172.467 1537.76 L159.99 1537.76 L159.99 1533.96 Z" fill="#9eb1be" fill-rule="nonzero" fill-opacity="1" /><path clip-path="url(#clip830)" d="M189.851 1517.37 Q186.24 1517.37 184.411 1520.93 Q182.606 1524.47 182.606 1531.6 Q182.606 1538.71 184.411 1542.27 Q186.24 1545.82 189.851 1545.82 Q193.485 1545.82 195.291 1542.27 Q197.119 1538.71 197.119 1531.6 Q197.119 1524.47 195.291 1520.93 Q193.485 1517.37 189.851 1517.37 M189.851 1513.66 Q195.661 1513.66 198.717 1518.27 Q201.795 1522.85 201.795 1531.6 Q201.795 1540.33 198.717 1544.94 Q195.661 1549.52 189.851 1549.52 Q184.041 1549.52 180.962 1544.94 Q177.907 1540.33 177.907 1531.6 Q177.907 1522.85 180.962 1518.27 Q184.041 1513.66 189.851 1513.66 Z" fill="#9eb1be" fill-rule="nonzero" fill-opacity="1" /><path clip-path="url(#clip830)" d="M210.823 1544.91 L218.462 1544.91 L218.462 1518.55 L210.152 1520.21 L210.152 1515.95 L218.416 1514.29 L223.091 1514.29 L223.091 1544.91 L230.73 1544.91 L230.73 1548.85 L210.823 1548.85 L210.823 1544.91 Z" fill="#9eb1be" fill-rule="nonzero" fill-opacity="1" /><path clip-path="url(#clip830)" d="M237.42 1533.96 L249.897 1533.96 L249.897 1537.76 L237.42 1537.76 L237.42 1533.96 Z" fill="#9eb1be" fill-rule="nonzero" fill-opacity="1" /><path clip-path="url(#clip830)" d="M267.281 1517.37 Q263.67 1517.37 261.841 1520.93 Q260.036 1524.47 260.036 1531.6 Q260.036 1538.71 261.841 1542.27 Q263.67 1545.82 267.281 1545.82 Q270.915 1545.82 272.721 1542.27 Q274.55 1538.71 274.55 1531.6 Q274.55 1524.47 272.721 1520.93 Q270.915 1517.37 267.281 1517.37 M267.281 1513.66 Q273.091 1513.66 276.147 1518.27 Q279.225 1522.85 279.225 1531.6 Q279.225 1540.33 276.147 1544.94 Q273.091 1549.52 267.281 1549.52 Q261.471 1549.52 258.392 1544.94 Q255.337 1540.33 255.337 1531.6 Q255.337 1522.85 258.392 1518.27 Q261.471 1513.66 267.281 1513.66 Z" fill="#9eb1be" fill-rule="nonzero" fill-opacity="1" /><path clip-path="url(#clip830)" d="M288.253 1544.91 L295.892 1544.91 L295.892 1518.55 L287.582 1520.21 L287.582 1515.95 L295.846 1514.29 L300.522 1514.29 L300.522 1544.91 L308.16 1544.91 L308.16 1548.85 L288.253 1548.85 L288.253 1544.91 Z" fill="#9eb1be" fill-rule="nonzero" fill-opacity="1" /><path clip-path="url(#clip830)" d="M472.86 1544.91 L489.179 1544.91 L489.179 1548.85 L467.235 1548.85 L467.235 1544.91 Q469.897 1542.16 474.48 1537.53 Q479.087 1532.88 480.267 1531.53 Q482.513 1529.01 483.392 1527.27 Q484.295 1525.51 484.295 1523.82 Q484.295 1521.07 482.351 1519.33 Q480.429 1517.6 477.327 1517.6 Q475.128 1517.6 472.675 1518.36 Q470.244 1519.13 467.466 1520.68 L467.466 1515.95 Q470.29 1514.82 472.744 1514.24 Q475.198 1513.66 477.235 1513.66 Q482.605 1513.66 485.8 1516.35 Q488.994 1519.03 488.994 1523.52 Q488.994 1525.65 488.184 1527.57 Q487.397 1529.47 485.29 1532.07 Q484.712 1532.74 481.61 1535.95 Q478.508 1539.15 472.86 1544.91 Z" fill="#9eb1be" fill-rule="nonzero" fill-opacity="1" /><path clip-path="url(#clip830)" d="M508.994 1517.37 Q505.383 1517.37 503.554 1520.93 Q501.749 1524.47 501.749 1531.6 Q501.749 1538.71 503.554 1542.27 Q505.383 1545.82 508.994 1545.82 Q512.628 1545.82 514.434 1542.27 Q516.262 1538.71 516.262 1531.6 Q516.262 1524.47 514.434 1520.93 Q512.628 1517.37 508.994 1517.37 M508.994 1513.66 Q514.804 1513.66 517.86 1518.27 Q520.938 1522.85 520.938 1531.6 Q520.938 1540.33 517.86 1544.94 Q514.804 1549.52 508.994 1549.52 Q503.184 1549.52 500.105 1544.94 Q497.05 1540.33 497.05 1531.6 Q497.05 1522.85 500.105 1518.27 Q503.184 1513.66 508.994 1513.66 Z" fill="#9eb1be" fill-rule="nonzero" fill-opacity="1" /><path clip-path="url(#clip830)" d="M533.184 1544.91 L549.503 1544.91 L549.503 1548.85 L527.559 1548.85 L527.559 1544.91 Q530.221 1542.16 534.804 1537.53 Q539.41 1532.88 540.591 1531.53 Q542.836 1529.01 543.716 1527.27 Q544.619 1525.51 544.619 1523.82 Q544.619 1521.07 542.674 1519.33 Q540.753 1517.6 537.651 1517.6 Q535.452 1517.6 532.998 1518.36 Q530.568 1519.13 527.79 1520.68 L527.79 1515.95 Q530.614 1514.82 533.068 1514.24 Q535.522 1513.66 537.559 1513.66 Q542.929 1513.66 546.123 1516.35 Q549.318 1519.03 549.318 1523.52 Q549.318 1525.65 548.508 1527.57 Q547.721 1529.47 545.614 1532.07 Q545.035 1532.74 541.934 1535.95 Q538.832 1539.15 533.184 1544.91 Z" fill="#9eb1be" fill-rule="nonzero" fill-opacity="1" /><path clip-path="url(#clip830)" d="M569.318 1517.37 Q565.707 1517.37 563.878 1520.93 Q562.072 1524.47 562.072 1531.6 Q562.072 1538.71 563.878 1542.27 Q565.707 1545.82 569.318 1545.82 Q572.952 1545.82 574.758 1542.27 Q576.586 1538.71 576.586 1531.6 Q576.586 1524.47 574.758 1520.93 Q572.952 1517.37 569.318 1517.37 M569.318 1513.66 Q575.128 1513.66 578.183 1518.27 Q581.262 1522.85 581.262 1531.6 Q581.262 1540.33 578.183 1544.94 Q575.128 1549.52 569.318 1549.52 Q563.508 1549.52 560.429 1544.94 Q557.373 1540.33 557.373 1531.6 Q557.373 1522.85 560.429 1518.27 Q563.508 1513.66 569.318 1513.66 Z" fill="#9eb1be" fill-rule="nonzero" fill-opacity="1" /><path clip-path="url(#clip830)" d="M586.725 1533.96 L599.202 1533.96 L599.202 1537.76 L586.725 1537.76 L586.725 1533.96 Z" fill="#9eb1be" fill-rule="nonzero" fill-opacity="1" /><path clip-path="url(#clip830)" d="M616.586 1517.37 Q612.975 1517.37 611.146 1520.93 Q609.341 1524.47 609.341 1531.6 Q609.341 1538.71 611.146 1542.27 Q612.975 1545.82 616.586 1545.82 Q620.22 1545.82 622.026 1542.27 Q623.854 1538.71 623.854 1531.6 Q623.854 1524.47 622.026 1520.93 Q620.22 1517.37 616.586 1517.37 M616.586 1513.66 Q622.396 1513.66 625.452 1518.27 Q628.53 1522.85 628.53 1531.6 Q628.53 1540.33 625.452 1544.94 Q622.396 1549.52 616.586 1549.52 Q610.776 1549.52 607.697 1544.94 Q604.642 1540.33 604.642 1531.6 Q604.642 1522.85 607.697 1518.27 Q610.776 1513.66 616.586 1513.66 Z" fill="#9eb1be" fill-rule="nonzero" fill-opacity="1" /><path clip-path="url(#clip830)" d="M637.558 1544.91 L645.197 1544.91 L645.197 1518.55 L636.887 1520.21 L636.887 1515.95 L645.151 1514.29 L649.827 1514.29 L649.827 1544.91 L657.465 1544.91 L657.465 1548.85 L637.558 1548.85 L637.558 1544.91 Z" fill="#9eb1be" fill-rule="nonzero" fill-opacity="1" /><path clip-path="url(#clip830)" d="M664.155 1533.96 L676.632 1533.96 L676.632 1537.76 L664.155 1537.76 L664.155 1533.96 Z" fill="#9eb1be" fill-rule="nonzero" fill-opacity="1" /><path clip-path="url(#clip830)" d="M694.016 1517.37 Q690.405 1517.37 688.576 1520.93 Q686.771 1524.47 686.771 1531.6 Q686.771 1538.71 688.576 1542.27 Q690.405 1545.82 694.016 1545.82 Q697.65 1545.82 699.456 1542.27 Q701.285 1538.71 701.285 1531.6 Q701.285 1524.47 699.456 1520.93 Q697.65 1517.37 694.016 1517.37 M694.016 1513.66 Q699.826 1513.66 702.882 1518.27 Q705.961 1522.85 705.961 1531.6 Q705.961 1540.33 702.882 1544.94 Q699.826 1549.52 694.016 1549.52 Q688.206 1549.52 685.127 1544.94 Q682.072 1540.33 682.072 1531.6 Q682.072 1522.85 685.127 1518.27 Q688.206 1513.66 694.016 1513.66 Z" fill="#9eb1be" fill-rule="nonzero" fill-opacity="1" /><path clip-path="url(#clip830)" d="M718.206 1544.91 L734.525 1544.91 L734.525 1548.85 L712.581 1548.85 L712.581 1544.91 Q715.243 1542.16 719.826 1537.53 Q724.433 1532.88 725.613 1531.53 Q727.859 1529.01 728.738 1527.27 Q729.641 1525.51 729.641 1523.82 Q729.641 1521.07 727.696 1519.33 Q725.775 1517.6 722.673 1517.6 Q720.474 1517.6 718.021 1518.36 Q715.59 1519.13 712.812 1520.68 L712.812 1515.95 Q715.636 1514.82 718.09 1514.24 Q720.544 1513.66 722.581 1513.66 Q727.951 1513.66 731.146 1516.35 Q734.34 1519.03 734.34 1523.52 Q734.34 1525.65 733.53 1527.57 Q732.743 1529.47 730.636 1532.07 Q730.058 1532.74 726.956 1535.95 Q723.854 1539.15 718.206 1544.91 Z" fill="#9eb1be" fill-rule="nonzero" fill-opacity="1" /><path clip-path="url(#clip830)" d="M898.935 1544.91 L915.255 1544.91 L915.255 1548.85 L893.31 1548.85 L893.31 1544.91 Q895.972 1542.16 900.556 1537.53 Q905.162 1532.88 906.343 1531.53 Q908.588 1529.01 909.468 1527.27 Q910.37 1525.51 910.37 1523.82 Q910.37 1521.07 908.426 1519.33 Q906.505 1517.6 903.403 1517.6 Q901.204 1517.6 898.75 1518.36 Q896.32 1519.13 893.542 1520.68 L893.542 1515.95 Q896.366 1514.82 898.819 1514.24 Q901.273 1513.66 903.31 1513.66 Q908.681 1513.66 911.875 1516.35 Q915.069 1519.03 915.069 1523.52 Q915.069 1525.65 914.259 1527.57 Q913.472 1529.47 911.366 1532.07 Q910.787 1532.74 907.685 1535.95 Q904.583 1539.15 898.935 1544.91 Z" fill="#9eb1be" fill-rule="nonzero" fill-opacity="1" /><path clip-path="url(#clip830)" d="M935.069 1517.37 Q931.458 1517.37 929.63 1520.93 Q927.824 1524.47 927.824 1531.6 Q927.824 1538.71 929.63 1542.27 Q931.458 1545.82 935.069 1545.82 Q938.704 1545.82 940.509 1542.27 Q942.338 1538.71 942.338 1531.6 Q942.338 1524.47 940.509 1520.93 Q938.704 1517.37 935.069 1517.37 M935.069 1513.66 Q940.879 1513.66 943.935 1518.27 Q947.014 1522.85 947.014 1531.6 Q947.014 1540.33 943.935 1544.94 Q940.879 1549.52 935.069 1549.52 Q929.259 1549.52 926.18 1544.94 Q923.125 1540.33 923.125 1531.6 Q923.125 1522.85 926.18 1518.27 Q929.259 1513.66 935.069 1513.66 Z" fill="#9eb1be" fill-rule="nonzero" fill-opacity="1" /><path clip-path="url(#clip830)" d="M959.259 1544.91 L975.578 1544.91 L975.578 1548.85 L953.634 1548.85 L953.634 1544.91 Q956.296 1542.16 960.879 1537.53 Q965.486 1532.88 966.666 1531.53 Q968.912 1529.01 969.791 1527.27 Q970.694 1525.51 970.694 1523.82 Q970.694 1521.07 968.75 1519.33 Q966.828 1517.6 963.727 1517.6 Q961.527 1517.6 959.074 1518.36 Q956.643 1519.13 953.865 1520.68 L953.865 1515.95 Q956.69 1514.82 959.143 1514.24 Q961.597 1513.66 963.634 1513.66 Q969.004 1513.66 972.199 1516.35 Q975.393 1519.03 975.393 1523.52 Q975.393 1525.65 974.583 1527.57 Q973.796 1529.47 971.689 1532.07 Q971.111 1532.74 968.009 1535.95 Q964.907 1539.15 959.259 1544.91 Z" fill="#9eb1be" fill-rule="nonzero" fill-opacity="1" /><path clip-path="url(#clip830)" d="M995.393 1517.37 Q991.782 1517.37 989.953 1520.93 Q988.148 1524.47 988.148 1531.6 Q988.148 1538.71 989.953 1542.27 Q991.782 1545.82 995.393 1545.82 Q999.027 1545.82 1000.83 1542.27 Q1002.66 1538.71 1002.66 1531.6 Q1002.66 1524.47 1000.83 1520.93 Q999.027 1517.37 995.393 1517.37 M995.393 1513.66 Q1001.2 1513.66 1004.26 1518.27 Q1007.34 1522.85 1007.34 1531.6 Q1007.34 1540.33 1004.26 1544.94 Q1001.2 1549.52 995.393 1549.52 Q989.583 1549.52 986.504 1544.94 Q983.449 1540.33 983.449 1531.6 Q983.449 1522.85 986.504 1518.27 Q989.583 1513.66 995.393 1513.66 Z" fill="#9eb1be" fill-rule="nonzero" fill-opacity="1" /><path clip-path="url(#clip830)" d="M1012.8 1533.96 L1025.28 1533.96 L1025.28 1537.76 L1012.8 1537.76 L1012.8 1533.96 Z" fill="#9eb1be" fill-rule="nonzero" fill-opacity="1" /><path clip-path="url(#clip830)" d="M1042.66 1517.37 Q1039.05 1517.37 1037.22 1520.93 Q1035.42 1524.47 1035.42 1531.6 Q1035.42 1538.71 1037.22 1542.27 Q1039.05 1545.82 1042.66 1545.82 Q1046.3 1545.82 1048.1 1542.27 Q1049.93 1538.71 1049.93 1531.6 Q1049.93 1524.47 1048.1 1520.93 Q1046.3 1517.37 1042.66 1517.37 M1042.66 1513.66 Q1048.47 1513.66 1051.53 1518.27 Q1054.61 1522.85 1054.61 1531.6 Q1054.61 1540.33 1051.53 1544.94 Q1048.47 1549.52 1042.66 1549.52 Q1036.85 1549.52 1033.77 1544.94 Q1030.72 1540.33 1030.72 1531.6 Q1030.72 1522.85 1033.77 1518.27 Q1036.85 1513.66 1042.66 1513.66 Z" fill="#9eb1be" fill-rule="nonzero" fill-opacity="1" /><path clip-path="url(#clip830)" d="M1063.63 1544.91 L1071.27 1544.91 L1071.27 1518.55 L1062.96 1520.21 L1062.96 1515.95 L1071.23 1514.29 L1075.9 1514.29 L1075.9 1544.91 L1083.54 1544.91 L1083.54 1548.85 L1063.63 1548.85 L1063.63 1544.91 Z" fill="#9eb1be" fill-rule="nonzero" fill-opacity="1" /><path clip-path="url(#clip830)" d="M1090.23 1533.96 L1102.71 1533.96 L1102.71 1537.76 L1090.23 1537.76 L1090.23 1533.96 Z" fill="#9eb1be" fill-rule="nonzero" fill-opacity="1" /><path clip-path="url(#clip830)" d="M1120.09 1517.37 Q1116.48 1517.37 1114.65 1520.93 Q1112.85 1524.47 1112.85 1531.6 Q1112.85 1538.71 1114.65 1542.27 Q1116.48 1545.82 1120.09 1545.82 Q1123.73 1545.82 1125.53 1542.27 Q1127.36 1538.71 1127.36 1531.6 Q1127.36 1524.47 1125.53 1520.93 Q1123.73 1517.37 1120.09 1517.37 M1120.09 1513.66 Q1125.9 1513.66 1128.96 1518.27 Q1132.04 1522.85 1132.04 1531.6 Q1132.04 1540.33 1128.96 1544.94 Q1125.9 1549.52 1120.09 1549.52 Q1114.28 1549.52 1111.2 1544.94 Q1108.15 1540.33 1108.15 1531.6 Q1108.15 1522.85 1111.2 1518.27 Q1114.28 1513.66 1120.09 1513.66 Z" fill="#9eb1be" fill-rule="nonzero" fill-opacity="1" /><path clip-path="url(#clip830)" d="M1154.42 1530.21 Q1157.78 1530.93 1159.65 1533.2 Q1161.55 1535.47 1161.55 1538.8 Q1161.55 1543.92 1158.03 1546.72 Q1154.51 1549.52 1148.03 1549.52 Q1145.86 1549.52 1143.54 1549.08 Q1141.25 1548.66 1138.8 1547.81 L1138.8 1543.29 Q1140.74 1544.43 1143.05 1545.01 Q1145.37 1545.58 1147.89 1545.58 Q1152.29 1545.58 1154.58 1543.85 Q1156.9 1542.11 1156.9 1538.8 Q1156.9 1535.75 1154.74 1534.03 Q1152.61 1532.3 1148.8 1532.3 L1144.77 1532.3 L1144.77 1528.45 L1148.98 1528.45 Q1152.43 1528.45 1154.26 1527.09 Q1156.09 1525.7 1156.09 1523.11 Q1156.09 1520.45 1154.19 1519.03 Q1152.31 1517.6 1148.8 1517.6 Q1146.87 1517.6 1144.67 1518.01 Q1142.48 1518.43 1139.84 1519.31 L1139.84 1515.14 Q1142.5 1514.4 1144.81 1514.03 Q1147.15 1513.66 1149.21 1513.66 Q1154.54 1513.66 1157.64 1516.09 Q1160.74 1518.5 1160.74 1522.62 Q1160.74 1525.49 1159.1 1527.48 Q1157.45 1529.45 1154.42 1530.21 Z" fill="#9eb1be" fill-rule="nonzero" fill-opacity="1" /><path clip-path="url(#clip830)" d="M1324.92 1544.91 L1341.24 1544.91 L1341.24 1548.85 L1319.29 1548.85 L1319.29 1544.91 Q1321.96 1542.16 1326.54 1537.53 Q1331.14 1532.88 1332.33 1531.53 Q1334.57 1529.01 1335.45 1527.27 Q1336.35 1525.51 1336.35 1523.82 Q1336.35 1521.07 1334.41 1519.33 Q1332.49 1517.6 1329.39 1517.6 Q1327.19 1517.6 1324.73 1518.36 Q1322.3 1519.13 1319.52 1520.68 L1319.52 1515.95 Q1322.35 1514.82 1324.8 1514.24 Q1327.26 1513.66 1329.29 1513.66 Q1334.66 1513.66 1337.86 1516.35 Q1341.05 1519.03 1341.05 1523.52 Q1341.05 1525.65 1340.24 1527.57 Q1339.45 1529.47 1337.35 1532.07 Q1336.77 1532.74 1333.67 1535.95 Q1330.57 1539.15 1324.92 1544.91 Z" fill="#9eb1be" fill-rule="nonzero" fill-opacity="1" /><path clip-path="url(#clip830)" d="M1361.05 1517.37 Q1357.44 1517.37 1355.61 1520.93 Q1353.81 1524.47 1353.81 1531.6 Q1353.81 1538.71 1355.61 1542.27 Q1357.44 1545.82 1361.05 1545.82 Q1364.69 1545.82 1366.49 1542.27 Q1368.32 1538.71 1368.32 1531.6 Q1368.32 1524.47 1366.49 1520.93 Q1364.69 1517.37 1361.05 1517.37 M1361.05 1513.66 Q1366.86 1513.66 1369.92 1518.27 Q1373 1522.85 1373 1531.6 Q1373 1540.33 1369.92 1544.94 Q1366.86 1549.52 1361.05 1549.52 Q1355.24 1549.52 1352.16 1544.94 Q1349.11 1540.33 1349.11 1531.6 Q1349.11 1522.85 1352.16 1518.27 Q1355.24 1513.66 1361.05 1513.66 Z" fill="#9eb1be" fill-rule="nonzero" fill-opacity="1" /><path clip-path="url(#clip830)" d="M1385.24 1544.91 L1401.56 1544.91 L1401.56 1548.85 L1379.62 1548.85 L1379.62 1544.91 Q1382.28 1542.16 1386.86 1537.53 Q1391.47 1532.88 1392.65 1531.53 Q1394.89 1529.01 1395.77 1527.27 Q1396.68 1525.51 1396.68 1523.82 Q1396.68 1521.07 1394.73 1519.33 Q1392.81 1517.6 1389.71 1517.6 Q1387.51 1517.6 1385.06 1518.36 Q1382.63 1519.13 1379.85 1520.68 L1379.85 1515.95 Q1382.67 1514.82 1385.13 1514.24 Q1387.58 1513.66 1389.62 1513.66 Q1394.99 1513.66 1398.18 1516.35 Q1401.38 1519.03 1401.38 1523.52 Q1401.38 1525.65 1400.57 1527.57 Q1399.78 1529.47 1397.67 1532.07 Q1397.09 1532.74 1393.99 1535.95 Q1390.89 1539.15 1385.24 1544.91 Z" fill="#9eb1be" fill-rule="nonzero" fill-opacity="1" /><path clip-path="url(#clip830)" d="M1421.38 1517.37 Q1417.76 1517.37 1415.94 1520.93 Q1414.13 1524.47 1414.13 1531.6 Q1414.13 1538.71 1415.94 1542.27 Q1417.76 1545.82 1421.38 1545.82 Q1425.01 1545.82 1426.82 1542.27 Q1428.64 1538.71 1428.64 1531.6 Q1428.64 1524.47 1426.82 1520.93 Q1425.01 1517.37 1421.38 1517.37 M1421.38 1513.66 Q1427.19 1513.66 1430.24 1518.27 Q1433.32 1522.85 1433.32 1531.6 Q1433.32 1540.33 1430.24 1544.94 Q1427.19 1549.52 1421.38 1549.52 Q1415.57 1549.52 1412.49 1544.94 Q1409.43 1540.33 1409.43 1531.6 Q1409.43 1522.85 1412.49 1518.27 Q1415.57 1513.66 1421.38 1513.66 Z" fill="#9eb1be" fill-rule="nonzero" fill-opacity="1" /><path clip-path="url(#clip830)" d="M1438.78 1533.96 L1451.26 1533.96 L1451.26 1537.76 L1438.78 1537.76 L1438.78 1533.96 Z" fill="#9eb1be" fill-rule="nonzero" fill-opacity="1" /><path clip-path="url(#clip830)" d="M1468.64 1517.37 Q1465.03 1517.37 1463.2 1520.93 Q1461.4 1524.47 1461.4 1531.6 Q1461.4 1538.71 1463.2 1542.27 Q1465.03 1545.82 1468.64 1545.82 Q1472.28 1545.82 1474.08 1542.27 Q1475.91 1538.71 1475.91 1531.6 Q1475.91 1524.47 1474.08 1520.93 Q1472.28 1517.37 1468.64 1517.37 M1468.64 1513.66 Q1474.45 1513.66 1477.51 1518.27 Q1480.59 1522.85 1480.59 1531.6 Q1480.59 1540.33 1477.51 1544.94 Q1474.45 1549.52 1468.64 1549.52 Q1462.83 1549.52 1459.76 1544.94 Q1456.7 1540.33 1456.7 1531.6 Q1456.7 1522.85 1459.76 1518.27 Q1462.83 1513.66 1468.64 1513.66 Z" fill="#9eb1be" fill-rule="nonzero" fill-opacity="1" /><path clip-path="url(#clip830)" d="M1489.62 1544.91 L1497.26 1544.91 L1497.26 1518.55 L1488.94 1520.21 L1488.94 1515.95 L1497.21 1514.29 L1501.88 1514.29 L1501.88 1544.91 L1509.52 1544.91 L1509.52 1548.85 L1489.62 1548.85 L1489.62 1544.91 Z" fill="#9eb1be" fill-rule="nonzero" fill-opacity="1" /><path clip-path="url(#clip830)" d="M1516.21 1533.96 L1528.69 1533.96 L1528.69 1537.76 L1516.21 1537.76 L1516.21 1533.96 Z" fill="#9eb1be" fill-rule="nonzero" fill-opacity="1" /><path clip-path="url(#clip830)" d="M1546.07 1517.37 Q1542.46 1517.37 1540.63 1520.93 Q1538.83 1524.47 1538.83 1531.6 Q1538.83 1538.71 1540.63 1542.27 Q1542.46 1545.82 1546.07 1545.82 Q1549.71 1545.82 1551.51 1542.27 Q1553.34 1538.71 1553.34 1531.6 Q1553.34 1524.47 1551.51 1520.93 Q1549.71 1517.37 1546.07 1517.37 M1546.07 1513.66 Q1551.88 1513.66 1554.94 1518.27 Q1558.02 1522.85 1558.02 1531.6 Q1558.02 1540.33 1554.94 1544.94 Q1551.88 1549.52 1546.07 1549.52 Q1540.26 1549.52 1537.19 1544.94 Q1534.13 1540.33 1534.13 1531.6 Q1534.13 1522.85 1537.19 1518.27 Q1540.26 1513.66 1546.07 1513.66 Z" fill="#9eb1be" fill-rule="nonzero" fill-opacity="1" /><path clip-path="url(#clip830)" d="M1579.08 1518.36 L1567.28 1536.81 L1579.08 1536.81 L1579.08 1518.36 M1577.86 1514.29 L1583.74 1514.29 L1583.74 1536.81 L1588.67 1536.81 L1588.67 1540.7 L1583.74 1540.7 L1583.74 1548.85 L1579.08 1548.85 L1579.08 1540.7 L1563.48 1540.7 L1563.48 1536.19 L1577.86 1514.29 Z" fill="#9eb1be" fill-rule="nonzero" fill-opacity="1" /><path clip-path="url(#clip830)" d="M1752.21 1544.91 L1768.53 1544.91 L1768.53 1548.85 L1746.58 1548.85 L1746.58 1544.91 Q1749.25 1542.16 1753.83 1537.53 Q1758.44 1532.88 1759.62 1531.53 Q1761.86 1529.01 1762.74 1527.27 Q1763.64 1525.51 1763.64 1523.82 Q1763.64 1521.07 1761.7 1519.33 Q1759.78 1517.6 1756.68 1517.6 Q1754.48 1517.6 1752.02 1518.36 Q1749.59 1519.13 1746.82 1520.68 L1746.82 1515.95 Q1749.64 1514.82 1752.09 1514.24 Q1754.55 1513.66 1756.58 1513.66 Q1761.95 1513.66 1765.15 1516.35 Q1768.34 1519.03 1768.34 1523.52 Q1768.34 1525.65 1767.53 1527.57 Q1766.75 1529.47 1764.64 1532.07 Q1764.06 1532.74 1760.96 1535.95 Q1757.86 1539.15 1752.21 1544.91 Z" fill="#9eb1be" fill-rule="nonzero" fill-opacity="1" /><path clip-path="url(#clip830)" d="M1788.34 1517.37 Q1784.73 1517.37 1782.9 1520.93 Q1781.1 1524.47 1781.1 1531.6 Q1781.1 1538.71 1782.9 1542.27 Q1784.73 1545.82 1788.34 1545.82 Q1791.98 1545.82 1793.78 1542.27 Q1795.61 1538.71 1795.61 1531.6 Q1795.61 1524.47 1793.78 1520.93 Q1791.98 1517.37 1788.34 1517.37 M1788.34 1513.66 Q1794.15 1513.66 1797.21 1518.27 Q1800.29 1522.85 1800.29 1531.6 Q1800.29 1540.33 1797.21 1544.94 Q1794.15 1549.52 1788.34 1549.52 Q1782.53 1549.52 1779.45 1544.94 Q1776.4 1540.33 1776.4 1531.6 Q1776.4 1522.85 1779.45 1518.27 Q1782.53 1513.66 1788.34 1513.66 Z" fill="#9eb1be" fill-rule="nonzero" fill-opacity="1" /><path clip-path="url(#clip830)" d="M1812.53 1544.91 L1828.85 1544.91 L1828.85 1548.85 L1806.91 1548.85 L1806.91 1544.91 Q1809.57 1542.16 1814.15 1537.53 Q1818.76 1532.88 1819.94 1531.53 Q1822.19 1529.01 1823.06 1527.27 Q1823.97 1525.51 1823.97 1523.82 Q1823.97 1521.07 1822.02 1519.33 Q1820.1 1517.6 1817 1517.6 Q1814.8 1517.6 1812.35 1518.36 Q1809.92 1519.13 1807.14 1520.68 L1807.14 1515.95 Q1809.96 1514.82 1812.42 1514.24 Q1814.87 1513.66 1816.91 1513.66 Q1822.28 1513.66 1825.47 1516.35 Q1828.67 1519.03 1828.67 1523.52 Q1828.67 1525.65 1827.86 1527.57 Q1827.07 1529.47 1824.96 1532.07 Q1824.38 1532.74 1821.28 1535.95 Q1818.18 1539.15 1812.53 1544.91 Z" fill="#9eb1be" fill-rule="nonzero" fill-opacity="1" /><path clip-path="url(#clip830)" d="M1848.67 1517.37 Q1845.06 1517.37 1843.23 1520.93 Q1841.42 1524.47 1841.42 1531.6 Q1841.42 1538.71 1843.23 1542.27 Q1845.06 1545.82 1848.67 1545.82 Q1852.3 1545.82 1854.11 1542.27 Q1855.93 1538.71 1855.93 1531.6 Q1855.93 1524.47 1854.11 1520.93 Q1852.3 1517.37 1848.67 1517.37 M1848.67 1513.66 Q1854.48 1513.66 1857.53 1518.27 Q1860.61 1522.85 1860.61 1531.6 Q1860.61 1540.33 1857.53 1544.94 Q1854.48 1549.52 1848.67 1549.52 Q1842.86 1549.52 1839.78 1544.94 Q1836.72 1540.33 1836.72 1531.6 Q1836.72 1522.85 1839.78 1518.27 Q1842.86 1513.66 1848.67 1513.66 Z" fill="#9eb1be" fill-rule="nonzero" fill-opacity="1" /><path clip-path="url(#clip830)" d="M1866.07 1533.96 L1878.55 1533.96 L1878.55 1537.76 L1866.07 1537.76 L1866.07 1533.96 Z" fill="#9eb1be" fill-rule="nonzero" fill-opacity="1" /><path clip-path="url(#clip830)" d="M1895.93 1517.37 Q1892.32 1517.37 1890.49 1520.93 Q1888.69 1524.47 1888.69 1531.6 Q1888.69 1538.71 1890.49 1542.27 Q1892.32 1545.82 1895.93 1545.82 Q1899.57 1545.82 1901.37 1542.27 Q1903.2 1538.71 1903.2 1531.6 Q1903.2 1524.47 1901.37 1520.93 Q1899.57 1517.37 1895.93 1517.37 M1895.93 1513.66 Q1901.74 1513.66 1904.8 1518.27 Q1907.88 1522.85 1907.88 1531.6 Q1907.88 1540.33 1904.8 1544.94 Q1901.74 1549.52 1895.93 1549.52 Q1890.12 1549.52 1887.05 1544.94 Q1883.99 1540.33 1883.99 1531.6 Q1883.99 1522.85 1887.05 1518.27 Q1890.12 1513.66 1895.93 1513.66 Z" fill="#9eb1be" fill-rule="nonzero" fill-opacity="1" /><path clip-path="url(#clip830)" d="M1916.91 1544.91 L1924.55 1544.91 L1924.55 1518.55 L1916.24 1520.21 L1916.24 1515.95 L1924.5 1514.29 L1929.18 1514.29 L1929.18 1544.91 L1936.81 1544.91 L1936.81 1548.85 L1916.91 1548.85 L1916.91 1544.91 Z" fill="#9eb1be" fill-rule="nonzero" fill-opacity="1" /><path clip-path="url(#clip830)" d="M1943.5 1533.96 L1955.98 1533.96 L1955.98 1537.76 L1943.5 1537.76 L1943.5 1533.96 Z" fill="#9eb1be" fill-rule="nonzero" fill-opacity="1" /><path clip-path="url(#clip830)" d="M1973.36 1517.37 Q1969.75 1517.37 1967.93 1520.93 Q1966.12 1524.47 1966.12 1531.6 Q1966.12 1538.71 1967.93 1542.27 Q1969.75 1545.82 1973.36 1545.82 Q1977 1545.82 1978.8 1542.27 Q1980.63 1538.71 1980.63 1531.6 Q1980.63 1524.47 1978.8 1520.93 Q1977 1517.37 1973.36 1517.37 M1973.36 1513.66 Q1979.17 1513.66 1982.23 1518.27 Q1985.31 1522.85 1985.31 1531.6 Q1985.31 1540.33 1982.23 1544.94 Q1979.17 1549.52 1973.36 1549.52 Q1967.55 1549.52 1964.48 1544.94 Q1961.42 1540.33 1961.42 1531.6 Q1961.42 1522.85 1964.48 1518.27 Q1967.55 1513.66 1973.36 1513.66 Z" fill="#9eb1be" fill-rule="nonzero" fill-opacity="1" /><path clip-path="url(#clip830)" d="M1993.57 1514.29 L2011.93 1514.29 L2011.93 1518.22 L1997.86 1518.22 L1997.86 1526.7 Q1998.87 1526.35 1999.89 1526.19 Q2000.91 1526 2001.93 1526 Q2007.72 1526 2011.1 1529.17 Q2014.48 1532.34 2014.48 1537.76 Q2014.48 1543.34 2011 1546.44 Q2007.53 1549.52 2001.21 1549.52 Q1999.04 1549.52 1996.77 1549.15 Q1994.52 1548.78 1992.11 1548.04 L1992.11 1543.34 Q1994.2 1544.47 1996.42 1545.03 Q1998.64 1545.58 2001.12 1545.58 Q2005.12 1545.58 2007.46 1543.48 Q2009.8 1541.37 2009.8 1537.76 Q2009.8 1534.15 2007.46 1532.04 Q2005.12 1529.94 2001.12 1529.94 Q1999.24 1529.94 1997.37 1530.35 Q1995.52 1530.77 1993.57 1531.65 L1993.57 1514.29 Z" fill="#9eb1be" fill-rule="nonzero" fill-opacity="1" /><path clip-path="url(#clip830)" d="M2178.18 1544.91 L2194.5 1544.91 L2194.5 1548.85 L2172.55 1548.85 L2172.55 1544.91 Q2175.22 1542.16 2179.8 1537.53 Q2184.41 1532.88 2185.59 1531.53 Q2187.83 1529.01 2188.71 1527.27 Q2189.61 1525.51 2189.61 1523.82 Q2189.61 1521.07 2187.67 1519.33 Q2185.75 1517.6 2182.65 1517.6 Q2180.45 1517.6 2177.99 1518.36 Q2175.56 1519.13 2172.79 1520.68 L2172.79 1515.95 Q2175.61 1514.82 2178.06 1514.24 Q2180.52 1513.66 2182.55 1513.66 Q2187.93 1513.66 2191.12 1516.35 Q2194.31 1519.03 2194.31 1523.52 Q2194.31 1525.65 2193.5 1527.57 Q2192.72 1529.47 2190.61 1532.07 Q2190.03 1532.74 2186.93 1535.95 Q2183.83 1539.15 2178.18 1544.91 Z" fill="#9eb1be" fill-rule="nonzero" fill-opacity="1" /><path clip-path="url(#clip830)" d="M2214.31 1517.37 Q2210.7 1517.37 2208.87 1520.93 Q2207.07 1524.47 2207.07 1531.6 Q2207.07 1538.71 2208.87 1542.27 Q2210.7 1545.82 2214.31 1545.82 Q2217.95 1545.82 2219.75 1542.27 Q2221.58 1538.71 2221.58 1531.6 Q2221.58 1524.47 2219.75 1520.93 Q2217.95 1517.37 2214.31 1517.37 M2214.31 1513.66 Q2220.12 1513.66 2223.18 1518.27 Q2226.26 1522.85 2226.26 1531.6 Q2226.26 1540.33 2223.18 1544.94 Q2220.12 1549.52 2214.31 1549.52 Q2208.5 1549.52 2205.42 1544.94 Q2202.37 1540.33 2202.37 1531.6 Q2202.37 1522.85 2205.42 1518.27 Q2208.5 1513.66 2214.31 1513.66 Z" fill="#9eb1be" fill-rule="nonzero" fill-opacity="1" /><path clip-path="url(#clip830)" d="M2238.5 1544.91 L2254.82 1544.91 L2254.82 1548.85 L2232.88 1548.85 L2232.88 1544.91 Q2235.54 1542.16 2240.12 1537.53 Q2244.73 1532.88 2245.91 1531.53 Q2248.16 1529.01 2249.04 1527.27 Q2249.94 1525.51 2249.94 1523.82 Q2249.94 1521.07 2247.99 1519.33 Q2246.07 1517.6 2242.97 1517.6 Q2240.77 1517.6 2238.32 1518.36 Q2235.89 1519.13 2233.11 1520.68 L2233.11 1515.95 Q2235.93 1514.82 2238.39 1514.24 Q2240.84 1513.66 2242.88 1513.66 Q2248.25 1513.66 2251.44 1516.35 Q2254.64 1519.03 2254.64 1523.52 Q2254.64 1525.65 2253.83 1527.57 Q2253.04 1529.47 2250.93 1532.07 Q2250.36 1532.74 2247.25 1535.95 Q2244.15 1539.15 2238.5 1544.91 Z" fill="#9eb1be" fill-rule="nonzero" fill-opacity="1" /><path clip-path="url(#clip830)" d="M2274.64 1517.37 Q2271.03 1517.37 2269.2 1520.93 Q2267.39 1524.47 2267.39 1531.6 Q2267.39 1538.71 2269.2 1542.27 Q2271.03 1545.82 2274.64 1545.82 Q2278.27 1545.82 2280.08 1542.27 Q2281.91 1538.71 2281.91 1531.6 Q2281.91 1524.47 2280.08 1520.93 Q2278.27 1517.37 2274.64 1517.37 M2274.64 1513.66 Q2280.45 1513.66 2283.5 1518.27 Q2286.58 1522.85 2286.58 1531.6 Q2286.58 1540.33 2283.5 1544.94 Q2280.45 1549.52 2274.64 1549.52 Q2268.83 1549.52 2265.75 1544.94 Q2262.69 1540.33 2262.69 1531.6 Q2262.69 1522.85 2265.75 1518.27 Q2268.83 1513.66 2274.64 1513.66 Z" fill="#9eb1be" fill-rule="nonzero" fill-opacity="1" /><path clip-path="url(#clip830)" d="M2292.04 1533.96 L2304.52 1533.96 L2304.52 1537.76 L2292.04 1537.76 L2292.04 1533.96 Z" fill="#9eb1be" fill-rule="nonzero" fill-opacity="1" /><path clip-path="url(#clip830)" d="M2321.91 1517.37 Q2318.29 1517.37 2316.47 1520.93 Q2314.66 1524.47 2314.66 1531.6 Q2314.66 1538.71 2316.47 1542.27 Q2318.29 1545.82 2321.91 1545.82 Q2325.54 1545.82 2327.35 1542.27 Q2329.17 1538.71 2329.17 1531.6 Q2329.17 1524.47 2327.35 1520.93 Q2325.54 1517.37 2321.91 1517.37 M2321.91 1513.66 Q2327.72 1513.66 2330.77 1518.27 Q2333.85 1522.85 2333.85 1531.6 Q2333.85 1540.33 2330.77 1544.94 Q2327.72 1549.52 2321.91 1549.52 Q2316.1 1549.52 2313.02 1544.94 Q2309.96 1540.33 2309.96 1531.6 Q2309.96 1522.85 2313.02 1518.27 Q2316.1 1513.66 2321.91 1513.66 Z" fill="#9eb1be" fill-rule="nonzero" fill-opacity="1" /><path clip-path="url(#clip830)" d="M2342.88 1544.91 L2350.52 1544.91 L2350.52 1518.55 L2342.21 1520.21 L2342.21 1515.95 L2350.47 1514.29 L2355.15 1514.29 L2355.15 1544.91 L2362.79 1544.91 L2362.79 1548.85 L2342.88 1548.85 L2342.88 1544.91 Z" fill="#9eb1be" fill-rule="nonzero" fill-opacity="1" /><path clip-path="url(#clip830)" d="M2369.48 1533.96 L2381.95 1533.96 L2381.95 1537.76 L2369.48 1537.76 L2369.48 1533.96 Z" fill="#9eb1be" fill-rule="nonzero" fill-opacity="1" /><path clip-path="url(#clip830)" d="M2399.34 1517.37 Q2395.72 1517.37 2393.9 1520.93 Q2392.09 1524.47 2392.09 1531.6 Q2392.09 1538.71 2393.9 1542.27 Q2395.72 1545.82 2399.34 1545.82 Q2402.97 1545.82 2404.78 1542.27 Q2406.6 1538.71 2406.6 1531.6 Q2406.6 1524.47 2404.78 1520.93 Q2402.97 1517.37 2399.34 1517.37 M2399.34 1513.66 Q2405.15 1513.66 2408.2 1518.27 Q2411.28 1522.85 2411.28 1531.6 Q2411.28 1540.33 2408.2 1544.94 Q2405.15 1549.52 2399.34 1549.52 Q2393.53 1549.52 2390.45 1544.94 Q2387.39 1540.33 2387.39 1531.6 Q2387.39 1522.85 2390.45 1518.27 Q2393.53 1513.66 2399.34 1513.66 Z" fill="#9eb1be" fill-rule="nonzero" fill-opacity="1" /><path clip-path="url(#clip830)" d="M2430.08 1529.7 Q2426.93 1529.7 2425.08 1531.86 Q2423.25 1534.01 2423.25 1537.76 Q2423.25 1541.49 2425.08 1543.66 Q2426.93 1545.82 2430.08 1545.82 Q2433.22 1545.82 2435.05 1543.66 Q2436.91 1541.49 2436.91 1537.76 Q2436.91 1534.01 2435.05 1531.86 Q2433.22 1529.7 2430.08 1529.7 M2439.36 1515.05 L2439.36 1519.31 Q2437.6 1518.48 2435.79 1518.04 Q2434.01 1517.6 2432.25 1517.6 Q2427.62 1517.6 2425.17 1520.72 Q2422.74 1523.85 2422.39 1530.17 Q2423.76 1528.15 2425.82 1527.09 Q2427.88 1526 2430.35 1526 Q2435.56 1526 2438.57 1529.17 Q2441.6 1532.32 2441.6 1537.76 Q2441.6 1543.08 2438.46 1546.3 Q2435.31 1549.52 2430.08 1549.52 Q2424.08 1549.52 2420.91 1544.94 Q2417.74 1540.33 2417.74 1531.6 Q2417.74 1523.41 2421.63 1518.55 Q2425.52 1513.66 2432.07 1513.66 Q2433.83 1513.66 2435.61 1514.01 Q2437.41 1514.36 2439.36 1515.05 Z" fill="#9eb1be" fill-rule="nonzero" fill-opacity="1" /><polyline clip-path="url(#clip830)" style="stroke:#adb2b7; stroke-linecap:round; stroke-linejoin:round; stroke-width:4; stroke-opacity:1; fill:none" points="110.881,1486.45 110.881,123.472 "/>
<polyline clip-path="url(#clip830)" style="stroke:#adb2b7; stroke-linecap:round; stroke-linejoin:round; stroke-width:4; stroke-opacity:1; fill:none" points="110.881,1486.45 129.779,1486.45 "/>
<polyline clip-path="url(#clip830)" style="stroke:#adb2b7; stroke-linecap:round; stroke-linejoin:round; stroke-width:4; stroke-opacity:1; fill:none" points="110.881,123.472 129.779,123.472 "/>
<path clip-path="url(#clip830)" d="M62.9365 1472.25 Q59.3254 1472.25 57.4967 1475.81 Q55.6912 1479.35 55.6912 1486.48 Q55.6912 1493.59 57.4967 1497.15 Q59.3254 1500.7 62.9365 1500.7 Q66.5707 1500.7 68.3763 1497.15 Q70.205 1493.59 70.205 1486.48 Q70.205 1479.35 68.3763 1475.81 Q66.5707 1472.25 62.9365 1472.25 M62.9365 1468.54 Q68.7467 1468.54 71.8022 1473.15 Q74.8809 1477.73 74.8809 1486.48 Q74.8809 1495.21 71.8022 1499.82 Q68.7467 1504.4 62.9365 1504.4 Q57.1264 1504.4 54.0477 1499.82 Q50.9921 1495.21 50.9921 1486.48 Q50.9921 1477.73 54.0477 1473.15 Q57.1264 1468.54 62.9365 1468.54 Z" fill="#9eb1be" fill-rule="nonzero" fill-opacity="1" /><path clip-path="url(#clip830)" d="M54.9736 136.817 L62.6124 136.817 L62.6124 110.451 L54.3023 112.118 L54.3023 107.859 L62.5661 106.192 L67.242 106.192 L67.242 136.817 L74.8809 136.817 L74.8809 140.752 L54.9736 140.752 L54.9736 136.817 Z" fill="#9eb1be" fill-rule="nonzero" fill-opacity="1" /><path clip-path="url(#clip830)" d="M976.186 36.0774 L964.398 36.0774 L960.995 49.6074 L972.864 49.6074 L976.186 36.0774 M970.11 13.0277 L965.897 29.839 L977.725 29.839 L981.979 13.0277 L988.46 13.0277 L984.288 29.839 L996.927 29.839 L996.927 36.0774 L982.708 36.0774 L979.386 49.6074 L992.268 49.6074 L992.268 55.8053 L977.806 55.8053 L973.594 72.576 L967.112 72.576 L971.284 55.8053 L959.415 55.8053 L955.243 72.576 L948.721 72.576 L952.934 55.8053 L940.174 55.8053 L940.174 49.6074 L954.433 49.6074 L957.835 36.0774 L944.792 36.0774 L944.792 29.839 L959.415 29.839 L963.547 13.0277 L970.11 13.0277 Z" fill="#adb2b7" fill-rule="nonzero" fill-opacity="1" /><path clip-path="url(#clip830)" d="M1055.06 32.4315 Q1049.06 32.4315 1045.58 37.1306 Q1042.09 41.7891 1042.09 49.9314 Q1042.09 58.0738 1045.54 62.7728 Q1049.02 67.4314 1055.06 67.4314 Q1061.01 67.4314 1064.5 62.7323 Q1067.98 58.0333 1067.98 49.9314 Q1067.98 41.8701 1064.5 37.1711 Q1061.01 32.4315 1055.06 32.4315 M1055.06 26.1121 Q1064.78 26.1121 1070.33 32.4315 Q1075.88 38.7509 1075.88 49.9314 Q1075.88 61.0714 1070.33 67.4314 Q1064.78 73.7508 1055.06 73.7508 Q1045.29 73.7508 1039.74 67.4314 Q1034.24 61.0714 1034.24 49.9314 Q1034.24 38.7509 1039.74 32.4315 Q1045.29 26.1121 1055.06 26.1121 Z" fill="#adb2b7" fill-rule="nonzero" fill-opacity="1" /><path clip-path="url(#clip830)" d="M1095.44 65.7705 L1095.44 89.8329 L1087.95 89.8329 L1087.95 27.2059 L1095.44 27.2059 L1095.44 34.0924 Q1097.79 30.0415 1101.36 28.0971 Q1104.96 26.1121 1109.95 26.1121 Q1118.21 26.1121 1123.36 32.6746 Q1128.54 39.2371 1128.54 49.9314 Q1128.54 60.6258 1123.36 67.1883 Q1118.21 73.7508 1109.95 73.7508 Q1104.96 73.7508 1101.36 71.8063 Q1097.79 69.8214 1095.44 65.7705 M1120.8 49.9314 Q1120.8 41.7081 1117.4 37.0496 Q1114.04 32.3505 1108.12 32.3505 Q1102.21 32.3505 1098.81 37.0496 Q1095.44 41.7081 1095.44 49.9314 Q1095.44 58.1548 1098.81 62.8538 Q1102.21 67.5124 1108.12 67.5124 Q1114.04 67.5124 1117.4 62.8538 Q1120.8 58.1548 1120.8 49.9314 Z" fill="#adb2b7" fill-rule="nonzero" fill-opacity="1" /><path clip-path="url(#clip830)" d="M1179.7 48.0275 L1179.7 51.6733 L1145.43 51.6733 Q1145.92 59.3701 1150.05 63.421 Q1154.22 67.4314 1161.64 67.4314 Q1165.93 67.4314 1169.94 66.3781 Q1173.99 65.3249 1177.96 63.2184 L1177.96 70.267 Q1173.95 71.9684 1169.74 72.8596 Q1165.53 73.7508 1161.19 73.7508 Q1150.33 73.7508 1143.97 67.4314 Q1137.66 61.1119 1137.66 50.3365 Q1137.66 39.1965 1143.65 32.6746 Q1149.69 26.1121 1159.89 26.1121 Q1169.05 26.1121 1174.36 32.0264 Q1179.7 37.9003 1179.7 48.0275 M1172.25 45.84 Q1172.17 39.7232 1168.81 36.0774 Q1165.48 32.4315 1159.98 32.4315 Q1153.74 32.4315 1149.97 35.9558 Q1146.24 39.4801 1145.68 45.8805 L1172.25 45.84 Z" fill="#adb2b7" fill-rule="nonzero" fill-opacity="1" /><path clip-path="url(#clip830)" d="M1229.65 45.1919 L1229.65 72.576 L1222.2 72.576 L1222.2 45.4349 Q1222.2 38.994 1219.69 35.7938 Q1217.17 32.5936 1212.15 32.5936 Q1206.12 32.5936 1202.63 36.4419 Q1199.15 40.2903 1199.15 46.9338 L1199.15 72.576 L1191.65 72.576 L1191.65 27.2059 L1199.15 27.2059 L1199.15 34.2544 Q1201.82 30.163 1205.43 28.1376 Q1209.07 26.1121 1213.81 26.1121 Q1221.63 26.1121 1225.64 30.9732 Q1229.65 35.7938 1229.65 45.1919 Z" fill="#adb2b7" fill-rule="nonzero" fill-opacity="1" /><path clip-path="url(#clip830)" d="M1288.47 32.4315 Q1282.47 32.4315 1278.99 37.1306 Q1275.51 41.7891 1275.51 49.9314 Q1275.51 58.0738 1278.95 62.7728 Q1282.43 67.4314 1288.47 67.4314 Q1294.43 67.4314 1297.91 62.7323 Q1301.39 58.0333 1301.39 49.9314 Q1301.39 41.8701 1297.91 37.1711 Q1294.43 32.4315 1288.47 32.4315 M1288.47 26.1121 Q1298.19 26.1121 1303.74 32.4315 Q1309.29 38.7509 1309.29 49.9314 Q1309.29 61.0714 1303.74 67.4314 Q1298.19 73.7508 1288.47 73.7508 Q1278.71 73.7508 1273.16 67.4314 Q1267.65 61.0714 1267.65 49.9314 Q1267.65 38.7509 1273.16 32.4315 Q1278.71 26.1121 1288.47 26.1121 Z" fill="#adb2b7" fill-rule="nonzero" fill-opacity="1" /><path clip-path="url(#clip830)" d="M1347.94 34.1734 Q1346.68 33.4443 1345.18 33.1202 Q1343.72 32.7556 1341.94 32.7556 Q1335.62 32.7556 1332.22 36.8875 Q1328.86 40.9789 1328.86 48.6757 L1328.86 72.576 L1321.36 72.576 L1321.36 27.2059 L1328.86 27.2059 L1328.86 34.2544 Q1331.21 30.1225 1334.97 28.1376 Q1338.74 26.1121 1344.13 26.1121 Q1344.9 26.1121 1345.83 26.2337 Q1346.76 26.3147 1347.9 26.5172 L1347.94 34.1734 Z" fill="#adb2b7" fill-rule="nonzero" fill-opacity="1" /><path clip-path="url(#clip830)" d="M1384.15 34.0924 L1384.15 9.54393 L1391.61 9.54393 L1391.61 72.576 L1384.15 72.576 L1384.15 65.7705 Q1381.8 69.8214 1378.2 71.8063 Q1374.63 73.7508 1369.61 73.7508 Q1361.39 73.7508 1356.2 67.1883 Q1351.06 60.6258 1351.06 49.9314 Q1351.06 39.2371 1356.2 32.6746 Q1361.39 26.1121 1369.61 26.1121 Q1374.63 26.1121 1378.2 28.0971 Q1381.8 30.0415 1384.15 34.0924 M1358.75 49.9314 Q1358.75 58.1548 1362.12 62.8538 Q1365.52 67.5124 1371.43 67.5124 Q1377.35 67.5124 1380.75 62.8538 Q1384.15 58.1548 1384.15 49.9314 Q1384.15 41.7081 1380.75 37.0496 Q1377.35 32.3505 1371.43 32.3505 Q1365.52 32.3505 1362.12 37.0496 Q1358.75 41.7081 1358.75 49.9314 Z" fill="#adb2b7" fill-rule="nonzero" fill-opacity="1" /><path clip-path="url(#clip830)" d="M1445.77 48.0275 L1445.77 51.6733 L1411.5 51.6733 Q1411.98 59.3701 1416.11 63.421 Q1420.29 67.4314 1427.7 67.4314 Q1431.99 67.4314 1436 66.3781 Q1440.06 65.3249 1444.03 63.2184 L1444.03 70.267 Q1440.01 71.9684 1435.8 72.8596 Q1431.59 73.7508 1427.25 73.7508 Q1416.4 73.7508 1410.04 67.4314 Q1403.72 61.1119 1403.72 50.3365 Q1403.72 39.1965 1409.71 32.6746 Q1415.75 26.1121 1425.96 26.1121 Q1435.11 26.1121 1440.42 32.0264 Q1445.77 37.9003 1445.77 48.0275 M1438.31 45.84 Q1438.23 39.7232 1434.87 36.0774 Q1431.55 32.4315 1426.04 32.4315 Q1419.8 32.4315 1416.03 35.9558 Q1412.31 39.4801 1411.74 45.8805 L1438.31 45.84 Z" fill="#adb2b7" fill-rule="nonzero" fill-opacity="1" /><path clip-path="url(#clip830)" d="M1484.29 34.1734 Q1483.04 33.4443 1481.54 33.1202 Q1480.08 32.7556 1478.3 32.7556 Q1471.98 32.7556 1468.57 36.8875 Q1465.21 40.9789 1465.21 48.6757 L1465.21 72.576 L1457.72 72.576 L1457.72 27.2059 L1465.21 27.2059 L1465.21 34.2544 Q1467.56 30.1225 1471.33 28.1376 Q1475.1 26.1121 1480.48 26.1121 Q1481.25 26.1121 1482.18 26.2337 Q1483.12 26.3147 1484.25 26.5172 L1484.29 34.1734 Z" fill="#adb2b7" fill-rule="nonzero" fill-opacity="1" /><path clip-path="url(#clip830)" d="M1521.03 28.5427 L1521.03 35.5912 Q1517.87 33.9709 1514.47 33.1607 Q1511.07 32.3505 1507.42 32.3505 Q1501.87 32.3505 1499.08 34.0519 Q1496.32 35.7533 1496.32 39.156 Q1496.32 41.7486 1498.31 43.2475 Q1500.29 44.7058 1506.29 46.0426 L1508.84 46.6097 Q1516.78 48.3111 1520.1 51.4303 Q1523.46 54.509 1523.46 60.0587 Q1523.46 66.3781 1518.44 70.0644 Q1513.46 73.7508 1504.71 73.7508 Q1501.06 73.7508 1497.09 73.0216 Q1493.16 72.3329 1488.79 70.9151 L1488.79 63.2184 Q1492.92 65.3654 1496.93 66.4591 Q1500.94 67.5124 1504.87 67.5124 Q1510.14 67.5124 1512.97 65.73 Q1515.81 63.9071 1515.81 60.6258 Q1515.81 57.5877 1513.74 55.9673 Q1511.72 54.3469 1504.79 52.8481 L1502.2 52.2405 Q1495.27 50.7821 1492.19 47.7845 Q1489.11 44.7463 1489.11 39.4801 Q1489.11 33.0797 1493.65 29.5959 Q1498.19 26.1121 1506.53 26.1121 Q1510.66 26.1121 1514.31 26.7198 Q1517.95 27.3274 1521.03 28.5427 Z" fill="#adb2b7" fill-rule="nonzero" fill-opacity="1" /><polyline clip-path="url(#clip831)" style="stroke:#000000; stroke-linecap:round; stroke-linejoin:round; stroke-width:4; stroke-opacity:1; fill:none" points="174.33,1486.45 192.103,1486.45 209.876,1486.45 227.649,1486.45 245.422,1486.45 263.195,1486.45 280.968,1486.45 298.741,1486.45 316.513,1486.45 334.286,1486.45 352.059,1486.45 369.832,1486.45 387.605,1486.45 405.378,1486.45 423.151,1486.45 440.924,1486.45 458.697,1486.45 476.47,1486.45 494.243,1486.45 512.015,1486.45 529.788,1486.45 547.561,1486.45 565.334,1486.45 583.107,1486.45 583.107,123.472 600.88,123.472 618.653,123.472 636.426,123.472 654.199,123.472 671.972,123.472 689.745,123.472 707.518,123.472 725.29,123.472 743.063,123.472 760.836,123.472 778.609,123.472 796.382,123.472 814.155,123.472 831.928,123.472 849.701,123.472 867.474,123.472 885.247,123.472 903.02,123.472 920.792,123.472 938.565,123.472 956.338,123.472 974.111,123.472 991.884,123.472 1009.66,123.472 1027.43,123.472 1045.2,123.472 1062.98,123.472 1080.75,123.472 1098.52,123.472 1116.29,123.472 1134.07,123.472 1151.84,123.472 1169.61,123.472 1187.39,123.472 1205.16,123.472 1222.93,123.472 1240.7,123.472 1258.48,123.472 1276.25,123.472 1294.02,123.472 1311.8,123.472 1329.57,123.472 1347.34,123.472 1365.12,123.472 1382.89,123.472 1400.66,123.472 1418.43,123.472 1436.21,123.472 1453.98,123.472 1471.75,123.472 1489.53,123.472 1507.3,123.472 1525.07,123.472 1542.84,123.472 1560.62,123.472 1578.39,123.472 1596.16,123.472 1613.94,123.472 1631.71,123.472 1649.48,123.472 1667.25,123.472 1685.03,123.472 1702.8,123.472 1720.57,123.472 1738.35,123.472 1756.12,123.472 1773.89,123.472 1791.67,123.472 1809.44,123.472 1827.21,123.472 1844.98,123.472 1862.76,123.472 1880.53,123.472 1898.3,123.472 1916.08,123.472 1933.85,123.472 1951.62,123.472 1969.39,123.472 1987.17,123.472 2004.94,123.472 2022.71,123.472 2040.49,123.472 2058.26,123.472 2076.03,123.472 2093.8,123.472 2111.58,123.472 2129.35,123.472 2147.12,123.472 2164.9,123.472 2182.67,123.472 2200.44,123.472 2218.21,123.472 2235.99,123.472 2253.76,123.472 2271.53,123.472 2289.31,123.472 "/>
</svg>
