<?xml version="1.0" encoding="utf-8"?>
<svg xmlns="http://www.w3.org/2000/svg" xmlns:xlink="http://www.w3.org/1999/xlink" width="600" height="400" viewBox="0 0 2400 1600">
<defs>
  <clipPath id="clip020">
    <rect x="0" y="0" width="2400" height="1600"/>
  </clipPath>
</defs>
<path clip-path="url(#clip020)" d="M0 1600 L2400 1600 L2400 0 L0 0  Z" fill="#282c34" fill-rule="evenodd" fill-opacity="1"/>
<defs>
  <clipPath id="clip021">
    <rect x="219" y="123" width="2134" height="1364"/>
  </clipPath>
</defs>
<path clip-path="url(#clip020)" d="M219.607 1486.45 L2352.76 1486.45 L2352.76 123.472 L219.607 123.472  Z" fill="#21252b" fill-rule="evenodd" fill-opacity="1"/>
<polyline clip-path="url(#clip021)" style="stroke:#adb2b7; stroke-linecap:round; stroke-linejoin:round; stroke-width:2; stroke-opacity:0.1; fill:none" points="279.979,1486.45 279.979,123.472 "/>
<polyline clip-path="url(#clip021)" style="stroke:#adb2b7; stroke-linecap:round; stroke-linejoin:round; stroke-width:2; stroke-opacity:0.1; fill:none" points="727.18,1486.45 727.18,123.472 "/>
<polyline clip-path="url(#clip021)" style="stroke:#adb2b7; stroke-linecap:round; stroke-linejoin:round; stroke-width:2; stroke-opacity:0.1; fill:none" points="1174.38,1486.45 1174.38,123.472 "/>
<polyline clip-path="url(#clip021)" style="stroke:#adb2b7; stroke-linecap:round; stroke-linejoin:round; stroke-width:2; stroke-opacity:0.1; fill:none" points="1621.58,1486.45 1621.58,123.472 "/>
<polyline clip-path="url(#clip021)" style="stroke:#adb2b7; stroke-linecap:round; stroke-linejoin:round; stroke-width:2; stroke-opacity:0.1; fill:none" points="2068.78,1486.45 2068.78,123.472 "/>
<polyline clip-path="url(#clip021)" style="stroke:#adb2b7; stroke-linecap:round; stroke-linejoin:round; stroke-width:2; stroke-opacity:0.1; fill:none" points="219.607,1318.72 2352.76,1318.72 "/>
<polyline clip-path="url(#clip021)" style="stroke:#adb2b7; stroke-linecap:round; stroke-linejoin:round; stroke-width:2; stroke-opacity:0.1; fill:none" points="219.607,1029.55 2352.76,1029.55 "/>
<polyline clip-path="url(#clip021)" style="stroke:#adb2b7; stroke-linecap:round; stroke-linejoin:round; stroke-width:2; stroke-opacity:0.1; fill:none" points="219.607,740.383 2352.76,740.383 "/>
<polyline clip-path="url(#clip021)" style="stroke:#adb2b7; stroke-linecap:round; stroke-linejoin:round; stroke-width:2; stroke-opacity:0.1; fill:none" points="219.607,451.215 2352.76,451.215 "/>
<polyline clip-path="url(#clip021)" style="stroke:#adb2b7; stroke-linecap:round; stroke-linejoin:round; stroke-width:2; stroke-opacity:0.1; fill:none" points="219.607,162.047 2352.76,162.047 "/>
<polyline clip-path="url(#clip020)" style="stroke:#adb2b7; stroke-linecap:round; stroke-linejoin:round; stroke-width:4; stroke-opacity:1; fill:none" points="219.607,1486.45 2352.76,1486.45 "/>
<polyline clip-path="url(#clip020)" style="stroke:#adb2b7; stroke-linecap:round; stroke-linejoin:round; stroke-width:4; stroke-opacity:1; fill:none" points="279.979,1486.45 279.979,1467.55 "/>
<polyline clip-path="url(#clip020)" style="stroke:#adb2b7; stroke-linecap:round; stroke-linejoin:round; stroke-width:4; stroke-opacity:1; fill:none" points="727.18,1486.45 727.18,1467.55 "/>
<polyline clip-path="url(#clip020)" style="stroke:#adb2b7; stroke-linecap:round; stroke-linejoin:round; stroke-width:4; stroke-opacity:1; fill:none" points="1174.38,1486.45 1174.38,1467.55 "/>
<polyline clip-path="url(#clip020)" style="stroke:#adb2b7; stroke-linecap:round; stroke-linejoin:round; stroke-width:4; stroke-opacity:1; fill:none" points="1621.58,1486.45 1621.58,1467.55 "/>
<polyline clip-path="url(#clip020)" style="stroke:#adb2b7; stroke-linecap:round; stroke-linejoin:round; stroke-width:4; stroke-opacity:1; fill:none" points="2068.78,1486.45 2068.78,1467.55 "/>
<path clip-path="url(#clip020)" d="M151.774 1544.91 L168.093 1544.91 L168.093 1548.85 L146.149 1548.85 L146.149 1544.91 Q148.811 1542.16 153.394 1537.53 Q158.001 1532.88 159.181 1531.53 Q161.427 1529.01 162.306 1527.27 Q163.209 1525.51 163.209 1523.82 Q163.209 1521.07 161.265 1519.33 Q159.343 1517.6 156.242 1517.6 Q154.042 1517.6 151.589 1518.36 Q149.158 1519.13 146.38 1520.68 L146.38 1515.95 Q149.205 1514.82 151.658 1514.24 Q154.112 1513.66 156.149 1513.66 Q161.519 1513.66 164.714 1516.35 Q167.908 1519.03 167.908 1523.52 Q167.908 1525.65 167.098 1527.57 Q166.311 1529.47 164.204 1532.07 Q163.626 1532.74 160.524 1535.95 Q157.422 1539.15 151.774 1544.91 Z" fill="#9eb1be" fill-rule="nonzero" fill-opacity="1" /><path clip-path="url(#clip020)" d="M187.908 1517.37 Q184.297 1517.37 182.468 1520.93 Q180.663 1524.47 180.663 1531.6 Q180.663 1538.71 182.468 1542.27 Q184.297 1545.82 187.908 1545.82 Q191.542 1545.82 193.348 1542.27 Q195.177 1538.71 195.177 1531.6 Q195.177 1524.47 193.348 1520.93 Q191.542 1517.37 187.908 1517.37 M187.908 1513.66 Q193.718 1513.66 196.774 1518.27 Q199.852 1522.85 199.852 1531.6 Q199.852 1540.33 196.774 1544.94 Q193.718 1549.52 187.908 1549.52 Q182.098 1549.52 179.019 1544.94 Q175.964 1540.33 175.964 1531.6 Q175.964 1522.85 179.019 1518.27 Q182.098 1513.66 187.908 1513.66 Z" fill="#9eb1be" fill-rule="nonzero" fill-opacity="1" /><path clip-path="url(#clip020)" d="M212.098 1544.91 L228.417 1544.91 L228.417 1548.85 L206.473 1548.85 L206.473 1544.91 Q209.135 1542.16 213.718 1537.53 Q218.325 1532.88 219.505 1531.53 Q221.75 1529.01 222.63 1527.27 Q223.533 1525.51 223.533 1523.82 Q223.533 1521.07 221.588 1519.33 Q219.667 1517.6 216.565 1517.6 Q214.366 1517.6 211.913 1518.36 Q209.482 1519.13 206.704 1520.68 L206.704 1515.95 Q209.528 1514.82 211.982 1514.24 Q214.436 1513.66 216.473 1513.66 Q221.843 1513.66 225.037 1516.35 Q228.232 1519.03 228.232 1523.52 Q228.232 1525.65 227.422 1527.57 Q226.635 1529.47 224.528 1532.07 Q223.949 1532.74 220.848 1535.95 Q217.746 1539.15 212.098 1544.91 Z" fill="#9eb1be" fill-rule="nonzero" fill-opacity="1" /><path clip-path="url(#clip020)" d="M248.232 1517.37 Q244.621 1517.37 242.792 1520.93 Q240.986 1524.47 240.986 1531.6 Q240.986 1538.71 242.792 1542.27 Q244.621 1545.82 248.232 1545.82 Q251.866 1545.82 253.672 1542.27 Q255.5 1538.71 255.5 1531.6 Q255.5 1524.47 253.672 1520.93 Q251.866 1517.37 248.232 1517.37 M248.232 1513.66 Q254.042 1513.66 257.097 1518.27 Q260.176 1522.85 260.176 1531.6 Q260.176 1540.33 257.097 1544.94 Q254.042 1549.52 248.232 1549.52 Q242.422 1549.52 239.343 1544.94 Q236.287 1540.33 236.287 1531.6 Q236.287 1522.85 239.343 1518.27 Q242.422 1513.66 248.232 1513.66 Z" fill="#9eb1be" fill-rule="nonzero" fill-opacity="1" /><path clip-path="url(#clip020)" d="M265.639 1533.96 L278.116 1533.96 L278.116 1537.76 L265.639 1537.76 L265.639 1533.96 Z" fill="#9eb1be" fill-rule="nonzero" fill-opacity="1" /><path clip-path="url(#clip020)" d="M295.5 1517.37 Q291.889 1517.37 290.06 1520.93 Q288.255 1524.47 288.255 1531.6 Q288.255 1538.71 290.06 1542.27 Q291.889 1545.82 295.5 1545.82 Q299.134 1545.82 300.94 1542.27 Q302.769 1538.71 302.769 1531.6 Q302.769 1524.47 300.94 1520.93 Q299.134 1517.37 295.5 1517.37 M295.5 1513.66 Q301.31 1513.66 304.366 1518.27 Q307.444 1522.85 307.444 1531.6 Q307.444 1540.33 304.366 1544.94 Q301.31 1549.52 295.5 1549.52 Q289.69 1549.52 286.611 1544.94 Q283.556 1540.33 283.556 1531.6 Q283.556 1522.85 286.611 1518.27 Q289.69 1513.66 295.5 1513.66 Z" fill="#9eb1be" fill-rule="nonzero" fill-opacity="1" /><path clip-path="url(#clip020)" d="M316.472 1544.91 L324.111 1544.91 L324.111 1518.55 L315.801 1520.21 L315.801 1515.95 L324.065 1514.29 L328.741 1514.29 L328.741 1544.91 L336.379 1544.91 L336.379 1548.85 L316.472 1548.85 L316.472 1544.91 Z" fill="#9eb1be" fill-rule="nonzero" fill-opacity="1" /><path clip-path="url(#clip020)" d="M343.069 1533.96 L355.546 1533.96 L355.546 1537.76 L343.069 1537.76 L343.069 1533.96 Z" fill="#9eb1be" fill-rule="nonzero" fill-opacity="1" /><path clip-path="url(#clip020)" d="M372.93 1517.37 Q369.319 1517.37 367.49 1520.93 Q365.685 1524.47 365.685 1531.6 Q365.685 1538.71 367.49 1542.27 Q369.319 1545.82 372.93 1545.82 Q376.564 1545.82 378.37 1542.27 Q380.199 1538.71 380.199 1531.6 Q380.199 1524.47 378.37 1520.93 Q376.564 1517.37 372.93 1517.37 M372.93 1513.66 Q378.74 1513.66 381.796 1518.27 Q384.875 1522.85 384.875 1531.6 Q384.875 1540.33 381.796 1544.94 Q378.74 1549.52 372.93 1549.52 Q367.12 1549.52 364.041 1544.94 Q360.986 1540.33 360.986 1531.6 Q360.986 1522.85 364.041 1518.27 Q367.12 1513.66 372.93 1513.66 Z" fill="#9eb1be" fill-rule="nonzero" fill-opacity="1" /><path clip-path="url(#clip020)" d="M393.902 1544.91 L401.541 1544.91 L401.541 1518.55 L393.231 1520.21 L393.231 1515.95 L401.495 1514.29 L406.171 1514.29 L406.171 1544.91 L413.81 1544.91 L413.81 1548.85 L393.902 1548.85 L393.902 1544.91 Z" fill="#9eb1be" fill-rule="nonzero" fill-opacity="1" /><path clip-path="url(#clip020)" d="M598.686 1544.91 L615.005 1544.91 L615.005 1548.85 L593.061 1548.85 L593.061 1544.91 Q595.723 1542.16 600.306 1537.53 Q604.912 1532.88 606.093 1531.53 Q608.338 1529.01 609.218 1527.27 Q610.121 1525.51 610.121 1523.82 Q610.121 1521.07 608.176 1519.33 Q606.255 1517.6 603.153 1517.6 Q600.954 1517.6 598.5 1518.36 Q596.07 1519.13 593.292 1520.68 L593.292 1515.95 Q596.116 1514.82 598.57 1514.24 Q601.024 1513.66 603.061 1513.66 Q608.431 1513.66 611.625 1516.35 Q614.82 1519.03 614.82 1523.52 Q614.82 1525.65 614.01 1527.57 Q613.223 1529.47 611.116 1532.07 Q610.537 1532.74 607.436 1535.95 Q604.334 1539.15 598.686 1544.91 Z" fill="#9eb1be" fill-rule="nonzero" fill-opacity="1" /><path clip-path="url(#clip020)" d="M634.82 1517.37 Q631.209 1517.37 629.38 1520.93 Q627.574 1524.47 627.574 1531.6 Q627.574 1538.71 629.38 1542.27 Q631.209 1545.82 634.82 1545.82 Q638.454 1545.82 640.259 1542.27 Q642.088 1538.71 642.088 1531.6 Q642.088 1524.47 640.259 1520.93 Q638.454 1517.37 634.82 1517.37 M634.82 1513.66 Q640.63 1513.66 643.685 1518.27 Q646.764 1522.85 646.764 1531.6 Q646.764 1540.33 643.685 1544.94 Q640.63 1549.52 634.82 1549.52 Q629.01 1549.52 625.931 1544.94 Q622.875 1540.33 622.875 1531.6 Q622.875 1522.85 625.931 1518.27 Q629.01 1513.66 634.82 1513.66 Z" fill="#9eb1be" fill-rule="nonzero" fill-opacity="1" /><path clip-path="url(#clip020)" d="M659.009 1544.91 L675.329 1544.91 L675.329 1548.85 L653.384 1548.85 L653.384 1544.91 Q656.046 1542.16 660.63 1537.53 Q665.236 1532.88 666.417 1531.53 Q668.662 1529.01 669.542 1527.27 Q670.444 1525.51 670.444 1523.82 Q670.444 1521.07 668.5 1519.33 Q666.579 1517.6 663.477 1517.6 Q661.278 1517.6 658.824 1518.36 Q656.394 1519.13 653.616 1520.68 L653.616 1515.95 Q656.44 1514.82 658.894 1514.24 Q661.347 1513.66 663.384 1513.66 Q668.755 1513.66 671.949 1516.35 Q675.144 1519.03 675.144 1523.52 Q675.144 1525.65 674.333 1527.57 Q673.546 1529.47 671.44 1532.07 Q670.861 1532.74 667.759 1535.95 Q664.657 1539.15 659.009 1544.91 Z" fill="#9eb1be" fill-rule="nonzero" fill-opacity="1" /><path clip-path="url(#clip020)" d="M695.143 1517.37 Q691.532 1517.37 689.704 1520.93 Q687.898 1524.47 687.898 1531.6 Q687.898 1538.71 689.704 1542.27 Q691.532 1545.82 695.143 1545.82 Q698.778 1545.82 700.583 1542.27 Q702.412 1538.71 702.412 1531.6 Q702.412 1524.47 700.583 1520.93 Q698.778 1517.37 695.143 1517.37 M695.143 1513.66 Q700.954 1513.66 704.009 1518.27 Q707.088 1522.85 707.088 1531.6 Q707.088 1540.33 704.009 1544.94 Q700.954 1549.52 695.143 1549.52 Q689.333 1549.52 686.255 1544.94 Q683.199 1540.33 683.199 1531.6 Q683.199 1522.85 686.255 1518.27 Q689.333 1513.66 695.143 1513.66 Z" fill="#9eb1be" fill-rule="nonzero" fill-opacity="1" /><path clip-path="url(#clip020)" d="M712.551 1533.96 L725.028 1533.96 L725.028 1537.76 L712.551 1537.76 L712.551 1533.96 Z" fill="#9eb1be" fill-rule="nonzero" fill-opacity="1" /><path clip-path="url(#clip020)" d="M742.412 1517.37 Q738.801 1517.37 736.972 1520.93 Q735.166 1524.47 735.166 1531.6 Q735.166 1538.71 736.972 1542.27 Q738.801 1545.82 742.412 1545.82 Q746.046 1545.82 747.851 1542.27 Q749.68 1538.71 749.68 1531.6 Q749.68 1524.47 747.851 1520.93 Q746.046 1517.37 742.412 1517.37 M742.412 1513.66 Q748.222 1513.66 751.277 1518.27 Q754.356 1522.85 754.356 1531.6 Q754.356 1540.33 751.277 1544.94 Q748.222 1549.52 742.412 1549.52 Q736.602 1549.52 733.523 1544.94 Q730.467 1540.33 730.467 1531.6 Q730.467 1522.85 733.523 1518.27 Q736.602 1513.66 742.412 1513.66 Z" fill="#9eb1be" fill-rule="nonzero" fill-opacity="1" /><path clip-path="url(#clip020)" d="M763.384 1544.91 L771.023 1544.91 L771.023 1518.55 L762.713 1520.21 L762.713 1515.95 L770.976 1514.29 L775.652 1514.29 L775.652 1544.91 L783.291 1544.91 L783.291 1548.85 L763.384 1548.85 L763.384 1544.91 Z" fill="#9eb1be" fill-rule="nonzero" fill-opacity="1" /><path clip-path="url(#clip020)" d="M789.981 1533.96 L802.458 1533.96 L802.458 1537.76 L789.981 1537.76 L789.981 1533.96 Z" fill="#9eb1be" fill-rule="nonzero" fill-opacity="1" /><path clip-path="url(#clip020)" d="M819.842 1517.37 Q816.231 1517.37 814.402 1520.93 Q812.596 1524.47 812.596 1531.6 Q812.596 1538.71 814.402 1542.27 Q816.231 1545.82 819.842 1545.82 Q823.476 1545.82 825.282 1542.27 Q827.11 1538.71 827.11 1531.6 Q827.11 1524.47 825.282 1520.93 Q823.476 1517.37 819.842 1517.37 M819.842 1513.66 Q825.652 1513.66 828.708 1518.27 Q831.786 1522.85 831.786 1531.6 Q831.786 1540.33 828.708 1544.94 Q825.652 1549.52 819.842 1549.52 Q814.032 1549.52 810.953 1544.94 Q807.897 1540.33 807.897 1531.6 Q807.897 1522.85 810.953 1518.27 Q814.032 1513.66 819.842 1513.66 Z" fill="#9eb1be" fill-rule="nonzero" fill-opacity="1" /><path clip-path="url(#clip020)" d="M854.17 1530.21 Q857.527 1530.93 859.402 1533.2 Q861.3 1535.47 861.3 1538.8 Q861.3 1543.92 857.781 1546.72 Q854.263 1549.52 847.781 1549.52 Q845.606 1549.52 843.291 1549.08 Q840.999 1548.66 838.545 1547.81 L838.545 1543.29 Q840.49 1544.43 842.805 1545.01 Q845.119 1545.58 847.643 1545.58 Q852.041 1545.58 854.332 1543.85 Q856.647 1542.11 856.647 1538.8 Q856.647 1535.75 854.494 1534.03 Q852.365 1532.3 848.545 1532.3 L844.518 1532.3 L844.518 1528.45 L848.731 1528.45 Q852.18 1528.45 854.008 1527.09 Q855.837 1525.7 855.837 1523.11 Q855.837 1520.45 853.939 1519.03 Q852.064 1517.6 848.545 1517.6 Q846.624 1517.6 844.425 1518.01 Q842.226 1518.43 839.587 1519.31 L839.587 1515.14 Q842.249 1514.4 844.564 1514.03 Q846.902 1513.66 848.962 1513.66 Q854.286 1513.66 857.388 1516.09 Q860.49 1518.5 860.49 1522.62 Q860.49 1525.49 858.846 1527.48 Q857.203 1529.45 854.17 1530.21 Z" fill="#9eb1be" fill-rule="nonzero" fill-opacity="1" /><path clip-path="url(#clip020)" d="M1046.06 1544.91 L1062.38 1544.91 L1062.38 1548.85 L1040.44 1548.85 L1040.44 1544.91 Q1043.1 1542.16 1047.68 1537.53 Q1052.29 1532.88 1053.47 1531.53 Q1055.71 1529.01 1056.59 1527.27 Q1057.5 1525.51 1057.5 1523.82 Q1057.5 1521.07 1055.55 1519.33 Q1053.63 1517.6 1050.53 1517.6 Q1048.33 1517.6 1045.88 1518.36 Q1043.44 1519.13 1040.67 1520.68 L1040.67 1515.95 Q1043.49 1514.82 1045.94 1514.24 Q1048.4 1513.66 1050.44 1513.66 Q1055.81 1513.66 1059 1516.35 Q1062.19 1519.03 1062.19 1523.52 Q1062.19 1525.65 1061.38 1527.57 Q1060.6 1529.47 1058.49 1532.07 Q1057.91 1532.74 1054.81 1535.95 Q1051.71 1539.15 1046.06 1544.91 Z" fill="#9eb1be" fill-rule="nonzero" fill-opacity="1" /><path clip-path="url(#clip020)" d="M1082.19 1517.37 Q1078.58 1517.37 1076.75 1520.93 Q1074.95 1524.47 1074.95 1531.6 Q1074.95 1538.71 1076.75 1542.27 Q1078.58 1545.82 1082.19 1545.82 Q1085.83 1545.82 1087.63 1542.27 Q1089.46 1538.71 1089.46 1531.6 Q1089.46 1524.47 1087.63 1520.93 Q1085.83 1517.37 1082.19 1517.37 M1082.19 1513.66 Q1088 1513.66 1091.06 1518.27 Q1094.14 1522.85 1094.14 1531.6 Q1094.14 1540.33 1091.06 1544.94 Q1088 1549.52 1082.19 1549.52 Q1076.38 1549.52 1073.31 1544.94 Q1070.25 1540.33 1070.25 1531.6 Q1070.25 1522.85 1073.31 1518.27 Q1076.38 1513.66 1082.19 1513.66 Z" fill="#9eb1be" fill-rule="nonzero" fill-opacity="1" /><path clip-path="url(#clip020)" d="M1106.38 1544.91 L1122.7 1544.91 L1122.7 1548.85 L1100.76 1548.85 L1100.76 1544.91 Q1103.42 1542.16 1108 1537.53 Q1112.61 1532.88 1113.79 1531.53 Q1116.04 1529.01 1116.92 1527.27 Q1117.82 1525.51 1117.82 1523.82 Q1117.82 1521.07 1115.87 1519.33 Q1113.95 1517.6 1110.85 1517.6 Q1108.65 1517.6 1106.2 1518.36 Q1103.77 1519.13 1100.99 1520.68 L1100.99 1515.95 Q1103.81 1514.82 1106.27 1514.24 Q1108.72 1513.66 1110.76 1513.66 Q1116.13 1513.66 1119.32 1516.35 Q1122.52 1519.03 1122.52 1523.52 Q1122.52 1525.65 1121.71 1527.57 Q1120.92 1529.47 1118.81 1532.07 Q1118.24 1532.74 1115.13 1535.95 Q1112.03 1539.15 1106.38 1544.91 Z" fill="#9eb1be" fill-rule="nonzero" fill-opacity="1" /><path clip-path="url(#clip020)" d="M1142.52 1517.37 Q1138.91 1517.37 1137.08 1520.93 Q1135.27 1524.47 1135.27 1531.6 Q1135.27 1538.71 1137.08 1542.27 Q1138.91 1545.82 1142.52 1545.82 Q1146.15 1545.82 1147.96 1542.27 Q1149.79 1538.71 1149.79 1531.6 Q1149.79 1524.47 1147.96 1520.93 Q1146.15 1517.37 1142.52 1517.37 M1142.52 1513.66 Q1148.33 1513.66 1151.38 1518.27 Q1154.46 1522.85 1154.46 1531.6 Q1154.46 1540.33 1151.38 1544.94 Q1148.33 1549.52 1142.52 1549.52 Q1136.71 1549.52 1133.63 1544.94 Q1130.57 1540.33 1130.57 1531.6 Q1130.57 1522.85 1133.63 1518.27 Q1136.71 1513.66 1142.52 1513.66 Z" fill="#9eb1be" fill-rule="nonzero" fill-opacity="1" /><path clip-path="url(#clip020)" d="M1159.93 1533.96 L1172.4 1533.96 L1172.4 1537.76 L1159.93 1537.76 L1159.93 1533.96 Z" fill="#9eb1be" fill-rule="nonzero" fill-opacity="1" /><path clip-path="url(#clip020)" d="M1189.79 1517.37 Q1186.18 1517.37 1184.35 1520.93 Q1182.54 1524.47 1182.54 1531.6 Q1182.54 1538.71 1184.35 1542.27 Q1186.18 1545.82 1189.79 1545.82 Q1193.42 1545.82 1195.23 1542.27 Q1197.05 1538.71 1197.05 1531.6 Q1197.05 1524.47 1195.23 1520.93 Q1193.42 1517.37 1189.79 1517.37 M1189.79 1513.66 Q1195.6 1513.66 1198.65 1518.27 Q1201.73 1522.85 1201.73 1531.6 Q1201.73 1540.33 1198.65 1544.94 Q1195.6 1549.52 1189.79 1549.52 Q1183.98 1549.52 1180.9 1544.94 Q1177.84 1540.33 1177.84 1531.6 Q1177.84 1522.85 1180.9 1518.27 Q1183.98 1513.66 1189.79 1513.66 Z" fill="#9eb1be" fill-rule="nonzero" fill-opacity="1" /><path clip-path="url(#clip020)" d="M1210.76 1544.91 L1218.4 1544.91 L1218.4 1518.55 L1210.09 1520.21 L1210.09 1515.95 L1218.35 1514.29 L1223.03 1514.29 L1223.03 1544.91 L1230.67 1544.91 L1230.67 1548.85 L1210.76 1548.85 L1210.76 1544.91 Z" fill="#9eb1be" fill-rule="nonzero" fill-opacity="1" /><path clip-path="url(#clip020)" d="M1237.36 1533.96 L1249.83 1533.96 L1249.83 1537.76 L1237.36 1537.76 L1237.36 1533.96 Z" fill="#9eb1be" fill-rule="nonzero" fill-opacity="1" /><path clip-path="url(#clip020)" d="M1267.22 1517.37 Q1263.61 1517.37 1261.78 1520.93 Q1259.97 1524.47 1259.97 1531.6 Q1259.97 1538.71 1261.78 1542.27 Q1263.61 1545.82 1267.22 1545.82 Q1270.85 1545.82 1272.66 1542.27 Q1274.48 1538.71 1274.48 1531.6 Q1274.48 1524.47 1272.66 1520.93 Q1270.85 1517.37 1267.22 1517.37 M1267.22 1513.66 Q1273.03 1513.66 1276.08 1518.27 Q1279.16 1522.85 1279.16 1531.6 Q1279.16 1540.33 1276.08 1544.94 Q1273.03 1549.52 1267.22 1549.52 Q1261.41 1549.52 1258.33 1544.94 Q1255.27 1540.33 1255.27 1531.6 Q1255.27 1522.85 1258.33 1518.27 Q1261.41 1513.66 1267.22 1513.66 Z" fill="#9eb1be" fill-rule="nonzero" fill-opacity="1" /><path clip-path="url(#clip020)" d="M1287.42 1514.29 L1305.78 1514.29 L1305.78 1518.22 L1291.71 1518.22 L1291.71 1526.7 Q1292.73 1526.35 1293.74 1526.19 Q1294.76 1526 1295.78 1526 Q1301.57 1526 1304.95 1529.17 Q1308.33 1532.34 1308.33 1537.76 Q1308.33 1543.34 1304.86 1546.44 Q1301.38 1549.52 1295.06 1549.52 Q1292.89 1549.52 1290.62 1549.15 Q1288.37 1548.78 1285.97 1548.04 L1285.97 1543.34 Q1288.05 1544.47 1290.27 1545.03 Q1292.49 1545.58 1294.97 1545.58 Q1298.98 1545.58 1301.31 1543.48 Q1303.65 1541.37 1303.65 1537.76 Q1303.65 1534.15 1301.31 1532.04 Q1298.98 1529.94 1294.97 1529.94 Q1293.1 1529.94 1291.22 1530.35 Q1289.37 1530.77 1287.42 1531.65 L1287.42 1514.29 Z" fill="#9eb1be" fill-rule="nonzero" fill-opacity="1" /><path clip-path="url(#clip020)" d="M1493.21 1544.91 L1509.53 1544.91 L1509.53 1548.85 L1487.59 1548.85 L1487.59 1544.91 Q1490.25 1542.16 1494.84 1537.53 Q1499.44 1532.88 1500.62 1531.53 Q1502.87 1529.01 1503.75 1527.27 Q1504.65 1525.51 1504.65 1523.82 Q1504.65 1521.07 1502.71 1519.33 Q1500.78 1517.6 1497.68 1517.6 Q1495.48 1517.6 1493.03 1518.36 Q1490.6 1519.13 1487.82 1520.68 L1487.82 1515.95 Q1490.65 1514.82 1493.1 1514.24 Q1495.55 1513.66 1497.59 1513.66 Q1502.96 1513.66 1506.15 1516.35 Q1509.35 1519.03 1509.35 1523.52 Q1509.35 1525.65 1508.54 1527.57 Q1507.75 1529.47 1505.65 1532.07 Q1505.07 1532.74 1501.96 1535.95 Q1498.86 1539.15 1493.21 1544.91 Z" fill="#9eb1be" fill-rule="nonzero" fill-opacity="1" /><path clip-path="url(#clip020)" d="M1529.35 1517.37 Q1525.74 1517.37 1523.91 1520.93 Q1522.1 1524.47 1522.1 1531.6 Q1522.1 1538.71 1523.91 1542.27 Q1525.74 1545.82 1529.35 1545.82 Q1532.98 1545.82 1534.79 1542.27 Q1536.62 1538.71 1536.62 1531.6 Q1536.62 1524.47 1534.79 1520.93 Q1532.98 1517.37 1529.35 1517.37 M1529.35 1513.66 Q1535.16 1513.66 1538.21 1518.27 Q1541.29 1522.85 1541.29 1531.6 Q1541.29 1540.33 1538.21 1544.94 Q1535.16 1549.52 1529.35 1549.52 Q1523.54 1549.52 1520.46 1544.94 Q1517.4 1540.33 1517.4 1531.6 Q1517.4 1522.85 1520.46 1518.27 Q1523.54 1513.66 1529.35 1513.66 Z" fill="#9eb1be" fill-rule="nonzero" fill-opacity="1" /><path clip-path="url(#clip020)" d="M1553.54 1544.91 L1569.86 1544.91 L1569.86 1548.85 L1547.91 1548.85 L1547.91 1544.91 Q1550.58 1542.16 1555.16 1537.53 Q1559.77 1532.88 1560.95 1531.53 Q1563.19 1529.01 1564.07 1527.27 Q1564.97 1525.51 1564.97 1523.82 Q1564.97 1521.07 1563.03 1519.33 Q1561.11 1517.6 1558.01 1517.6 Q1555.81 1517.6 1553.35 1518.36 Q1550.92 1519.13 1548.15 1520.68 L1548.15 1515.95 Q1550.97 1514.82 1553.42 1514.24 Q1555.88 1513.66 1557.91 1513.66 Q1563.28 1513.66 1566.48 1516.35 Q1569.67 1519.03 1569.67 1523.52 Q1569.67 1525.65 1568.86 1527.57 Q1568.08 1529.47 1565.97 1532.07 Q1565.39 1532.74 1562.29 1535.95 Q1559.19 1539.15 1553.54 1544.91 Z" fill="#9eb1be" fill-rule="nonzero" fill-opacity="1" /><path clip-path="url(#clip020)" d="M1589.67 1517.37 Q1586.06 1517.37 1584.23 1520.93 Q1582.43 1524.47 1582.43 1531.6 Q1582.43 1538.71 1584.23 1542.27 Q1586.06 1545.82 1589.67 1545.82 Q1593.31 1545.82 1595.11 1542.27 Q1596.94 1538.71 1596.94 1531.6 Q1596.94 1524.47 1595.11 1520.93 Q1593.31 1517.37 1589.67 1517.37 M1589.67 1513.66 Q1595.48 1513.66 1598.54 1518.27 Q1601.62 1522.85 1601.62 1531.6 Q1601.62 1540.33 1598.54 1544.94 Q1595.48 1549.52 1589.67 1549.52 Q1583.86 1549.52 1580.78 1544.94 Q1577.73 1540.33 1577.73 1531.6 Q1577.73 1522.85 1580.78 1518.27 Q1583.86 1513.66 1589.67 1513.66 Z" fill="#9eb1be" fill-rule="nonzero" fill-opacity="1" /><path clip-path="url(#clip020)" d="M1607.08 1533.96 L1619.56 1533.96 L1619.56 1537.76 L1607.08 1537.76 L1607.08 1533.96 Z" fill="#9eb1be" fill-rule="nonzero" fill-opacity="1" /><path clip-path="url(#clip020)" d="M1636.94 1517.37 Q1633.33 1517.37 1631.5 1520.93 Q1629.7 1524.47 1629.7 1531.6 Q1629.7 1538.71 1631.5 1542.27 Q1633.33 1545.82 1636.94 1545.82 Q1640.58 1545.82 1642.38 1542.27 Q1644.21 1538.71 1644.21 1531.6 Q1644.21 1524.47 1642.38 1520.93 Q1640.58 1517.37 1636.94 1517.37 M1636.94 1513.66 Q1642.75 1513.66 1645.81 1518.27 Q1648.89 1522.85 1648.89 1531.6 Q1648.89 1540.33 1645.81 1544.94 Q1642.75 1549.52 1636.94 1549.52 Q1631.13 1549.52 1628.05 1544.94 Q1625 1540.33 1625 1531.6 Q1625 1522.85 1628.05 1518.27 Q1631.13 1513.66 1636.94 1513.66 Z" fill="#9eb1be" fill-rule="nonzero" fill-opacity="1" /><path clip-path="url(#clip020)" d="M1657.91 1544.91 L1665.55 1544.91 L1665.55 1518.55 L1657.24 1520.21 L1657.24 1515.95 L1665.51 1514.29 L1670.18 1514.29 L1670.18 1544.91 L1677.82 1544.91 L1677.82 1548.85 L1657.91 1548.85 L1657.91 1544.91 Z" fill="#9eb1be" fill-rule="nonzero" fill-opacity="1" /><path clip-path="url(#clip020)" d="M1684.51 1533.96 L1696.99 1533.96 L1696.99 1537.76 L1684.51 1537.76 L1684.51 1533.96 Z" fill="#9eb1be" fill-rule="nonzero" fill-opacity="1" /><path clip-path="url(#clip020)" d="M1714.37 1517.37 Q1710.76 1517.37 1708.93 1520.93 Q1707.13 1524.47 1707.13 1531.6 Q1707.13 1538.71 1708.93 1542.27 Q1710.76 1545.82 1714.37 1545.82 Q1718.01 1545.82 1719.81 1542.27 Q1721.64 1538.71 1721.64 1531.6 Q1721.64 1524.47 1719.81 1520.93 Q1718.01 1517.37 1714.37 1517.37 M1714.37 1513.66 Q1720.18 1513.66 1723.24 1518.27 Q1726.32 1522.85 1726.32 1531.6 Q1726.32 1540.33 1723.24 1544.94 Q1720.18 1549.52 1714.37 1549.52 Q1708.56 1549.52 1705.48 1544.94 Q1702.43 1540.33 1702.43 1531.6 Q1702.43 1522.85 1705.48 1518.27 Q1708.56 1513.66 1714.37 1513.66 Z" fill="#9eb1be" fill-rule="nonzero" fill-opacity="1" /><path clip-path="url(#clip020)" d="M1733.35 1514.29 L1755.57 1514.29 L1755.57 1516.28 L1743.03 1548.85 L1738.14 1548.85 L1749.95 1518.22 L1733.35 1518.22 L1733.35 1514.29 Z" fill="#9eb1be" fill-rule="nonzero" fill-opacity="1" /><path clip-path="url(#clip020)" d="M1940.06 1544.91 L1956.38 1544.91 L1956.38 1548.85 L1934.43 1548.85 L1934.43 1544.91 Q1937.09 1542.16 1941.68 1537.53 Q1946.28 1532.88 1947.46 1531.53 Q1949.71 1529.01 1950.59 1527.27 Q1951.49 1525.51 1951.49 1523.82 Q1951.49 1521.07 1949.55 1519.33 Q1947.63 1517.6 1944.52 1517.6 Q1942.33 1517.6 1939.87 1518.36 Q1937.44 1519.13 1934.66 1520.68 L1934.66 1515.95 Q1937.49 1514.82 1939.94 1514.24 Q1942.4 1513.66 1944.43 1513.66 Q1949.8 1513.66 1953 1516.35 Q1956.19 1519.03 1956.19 1523.52 Q1956.19 1525.65 1955.38 1527.57 Q1954.59 1529.47 1952.49 1532.07 Q1951.91 1532.74 1948.81 1535.95 Q1945.71 1539.15 1940.06 1544.91 Z" fill="#9eb1be" fill-rule="nonzero" fill-opacity="1" /><path clip-path="url(#clip020)" d="M1976.19 1517.37 Q1972.58 1517.37 1970.75 1520.93 Q1968.95 1524.47 1968.95 1531.6 Q1968.95 1538.71 1970.75 1542.27 Q1972.58 1545.82 1976.19 1545.82 Q1979.83 1545.82 1981.63 1542.27 Q1983.46 1538.71 1983.46 1531.6 Q1983.46 1524.47 1981.63 1520.93 Q1979.83 1517.37 1976.19 1517.37 M1976.19 1513.66 Q1982 1513.66 1985.06 1518.27 Q1988.14 1522.85 1988.14 1531.6 Q1988.14 1540.33 1985.06 1544.94 Q1982 1549.52 1976.19 1549.52 Q1970.38 1549.52 1967.3 1544.94 Q1964.25 1540.33 1964.25 1531.6 Q1964.25 1522.85 1967.3 1518.27 Q1970.38 1513.66 1976.19 1513.66 Z" fill="#9eb1be" fill-rule="nonzero" fill-opacity="1" /><path clip-path="url(#clip020)" d="M2000.38 1544.91 L2016.7 1544.91 L2016.7 1548.85 L1994.76 1548.85 L1994.76 1544.91 Q1997.42 1542.16 2002 1537.53 Q2006.61 1532.88 2007.79 1531.53 Q2010.03 1529.01 2010.91 1527.27 Q2011.82 1525.51 2011.82 1523.82 Q2011.82 1521.07 2009.87 1519.33 Q2007.95 1517.6 2004.85 1517.6 Q2002.65 1517.6 2000.2 1518.36 Q1997.77 1519.13 1994.99 1520.68 L1994.99 1515.95 Q1997.81 1514.82 2000.27 1514.24 Q2002.72 1513.66 2004.76 1513.66 Q2010.13 1513.66 2013.32 1516.35 Q2016.52 1519.03 2016.52 1523.52 Q2016.52 1525.65 2015.7 1527.57 Q2014.92 1529.47 2012.81 1532.07 Q2012.23 1532.74 2009.13 1535.95 Q2006.03 1539.15 2000.38 1544.91 Z" fill="#9eb1be" fill-rule="nonzero" fill-opacity="1" /><path clip-path="url(#clip020)" d="M2036.51 1517.37 Q2032.9 1517.37 2031.08 1520.93 Q2029.27 1524.47 2029.27 1531.6 Q2029.27 1538.71 2031.08 1542.27 Q2032.9 1545.82 2036.51 1545.82 Q2040.15 1545.82 2041.95 1542.27 Q2043.78 1538.71 2043.78 1531.6 Q2043.78 1524.47 2041.95 1520.93 Q2040.15 1517.37 2036.51 1517.37 M2036.51 1513.66 Q2042.33 1513.66 2045.38 1518.27 Q2048.46 1522.85 2048.46 1531.6 Q2048.46 1540.33 2045.38 1544.94 Q2042.33 1549.52 2036.51 1549.52 Q2030.7 1549.52 2027.63 1544.94 Q2024.57 1540.33 2024.57 1531.6 Q2024.57 1522.85 2027.63 1518.27 Q2030.7 1513.66 2036.51 1513.66 Z" fill="#9eb1be" fill-rule="nonzero" fill-opacity="1" /><path clip-path="url(#clip020)" d="M2053.92 1533.96 L2066.4 1533.96 L2066.4 1537.76 L2053.92 1537.76 L2053.92 1533.96 Z" fill="#9eb1be" fill-rule="nonzero" fill-opacity="1" /><path clip-path="url(#clip020)" d="M2083.78 1517.37 Q2080.17 1517.37 2078.34 1520.93 Q2076.54 1524.47 2076.54 1531.6 Q2076.54 1538.71 2078.34 1542.27 Q2080.17 1545.82 2083.78 1545.82 Q2087.42 1545.82 2089.22 1542.27 Q2091.05 1538.71 2091.05 1531.6 Q2091.05 1524.47 2089.22 1520.93 Q2087.42 1517.37 2083.78 1517.37 M2083.78 1513.66 Q2089.59 1513.66 2092.65 1518.27 Q2095.73 1522.85 2095.73 1531.6 Q2095.73 1540.33 2092.65 1544.94 Q2089.59 1549.52 2083.78 1549.52 Q2077.97 1549.52 2074.89 1544.94 Q2071.84 1540.33 2071.84 1531.6 Q2071.84 1522.85 2074.89 1518.27 Q2077.97 1513.66 2083.78 1513.66 Z" fill="#9eb1be" fill-rule="nonzero" fill-opacity="1" /><path clip-path="url(#clip020)" d="M2104.76 1544.91 L2112.39 1544.91 L2112.39 1518.55 L2104.08 1520.21 L2104.08 1515.95 L2112.35 1514.29 L2117.02 1514.29 L2117.02 1544.91 L2124.66 1544.91 L2124.66 1548.85 L2104.76 1548.85 L2104.76 1544.91 Z" fill="#9eb1be" fill-rule="nonzero" fill-opacity="1" /><path clip-path="url(#clip020)" d="M2131.35 1533.96 L2143.83 1533.96 L2143.83 1537.76 L2131.35 1537.76 L2131.35 1533.96 Z" fill="#9eb1be" fill-rule="nonzero" fill-opacity="1" /><path clip-path="url(#clip020)" d="M2161.21 1517.37 Q2157.6 1517.37 2155.77 1520.93 Q2153.97 1524.47 2153.97 1531.6 Q2153.97 1538.71 2155.77 1542.27 Q2157.6 1545.82 2161.21 1545.82 Q2164.85 1545.82 2166.65 1542.27 Q2168.48 1538.71 2168.48 1531.6 Q2168.48 1524.47 2166.65 1520.93 Q2164.85 1517.37 2161.21 1517.37 M2161.21 1513.66 Q2167.02 1513.66 2170.08 1518.27 Q2173.16 1522.85 2173.16 1531.6 Q2173.16 1540.33 2170.08 1544.94 Q2167.02 1549.52 2161.21 1549.52 Q2155.4 1549.52 2152.32 1544.94 Q2149.27 1540.33 2149.27 1531.6 Q2149.27 1522.85 2152.32 1518.27 Q2155.4 1513.66 2161.21 1513.66 Z" fill="#9eb1be" fill-rule="nonzero" fill-opacity="1" /><path clip-path="url(#clip020)" d="M2181.51 1548.13 L2181.51 1543.87 Q2183.27 1544.7 2185.08 1545.14 Q2186.88 1545.58 2188.62 1545.58 Q2193.25 1545.58 2195.68 1542.48 Q2198.13 1539.36 2198.48 1533.01 Q2197.14 1535.01 2195.08 1536.07 Q2193.02 1537.13 2190.52 1537.13 Q2185.33 1537.13 2182.3 1534.01 Q2179.29 1530.86 2179.29 1525.42 Q2179.29 1520.1 2182.44 1516.88 Q2185.59 1513.66 2190.82 1513.66 Q2196.81 1513.66 2199.96 1518.27 Q2203.13 1522.85 2203.13 1531.6 Q2203.13 1539.77 2199.25 1544.66 Q2195.38 1549.52 2188.83 1549.52 Q2187.07 1549.52 2185.26 1549.17 Q2183.46 1548.82 2181.51 1548.13 M2190.82 1533.48 Q2193.97 1533.48 2195.8 1531.32 Q2197.65 1529.17 2197.65 1525.42 Q2197.65 1521.7 2195.8 1519.54 Q2193.97 1517.37 2190.82 1517.37 Q2187.67 1517.37 2185.82 1519.54 Q2183.99 1521.7 2183.99 1525.42 Q2183.99 1529.17 2185.82 1531.32 Q2187.67 1533.48 2190.82 1533.48 Z" fill="#9eb1be" fill-rule="nonzero" fill-opacity="1" /><polyline clip-path="url(#clip020)" style="stroke:#adb2b7; stroke-linecap:round; stroke-linejoin:round; stroke-width:4; stroke-opacity:1; fill:none" points="219.607,1486.45 219.607,123.472 "/>
<polyline clip-path="url(#clip020)" style="stroke:#adb2b7; stroke-linecap:round; stroke-linejoin:round; stroke-width:4; stroke-opacity:1; fill:none" points="219.607,1318.72 238.505,1318.72 "/>
<polyline clip-path="url(#clip020)" style="stroke:#adb2b7; stroke-linecap:round; stroke-linejoin:round; stroke-width:4; stroke-opacity:1; fill:none" points="219.607,1029.55 238.505,1029.55 "/>
<polyline clip-path="url(#clip020)" style="stroke:#adb2b7; stroke-linecap:round; stroke-linejoin:round; stroke-width:4; stroke-opacity:1; fill:none" points="219.607,740.383 238.505,740.383 "/>
<polyline clip-path="url(#clip020)" style="stroke:#adb2b7; stroke-linecap:round; stroke-linejoin:round; stroke-width:4; stroke-opacity:1; fill:none" points="219.607,451.215 238.505,451.215 "/>
<polyline clip-path="url(#clip020)" style="stroke:#adb2b7; stroke-linecap:round; stroke-linejoin:round; stroke-width:4; stroke-opacity:1; fill:none" points="219.607,162.047 238.505,162.047 "/>
<path clip-path="url(#clip020)" d="M50.9921 1321.11 L63.4689 1321.11 L63.4689 1324.91 L50.9921 1324.91 L50.9921 1321.11 Z" fill="#9eb1be" fill-rule="nonzero" fill-opacity="1" /><path clip-path="url(#clip020)" d="M80.8531 1304.52 Q77.242 1304.52 75.4133 1308.08 Q73.6077 1311.62 73.6077 1318.75 Q73.6077 1325.86 75.4133 1329.42 Q77.242 1332.97 80.8531 1332.97 Q84.4873 1332.97 86.2929 1329.42 Q88.1216 1325.86 88.1216 1318.75 Q88.1216 1311.62 86.2929 1308.08 Q84.4873 1304.52 80.8531 1304.52 M80.8531 1300.81 Q86.6632 1300.81 89.7188 1305.42 Q92.7975 1310 92.7975 1318.75 Q92.7975 1327.48 89.7188 1332.09 Q86.6632 1336.67 80.8531 1336.67 Q75.0429 1336.67 71.9642 1332.09 Q68.9087 1327.48 68.9087 1318.75 Q68.9087 1310 71.9642 1305.42 Q75.0429 1300.81 80.8531 1300.81 Z" fill="#9eb1be" fill-rule="nonzero" fill-opacity="1" /><path clip-path="url(#clip020)" d="M101.015 1330.12 L105.899 1330.12 L105.899 1336 L101.015 1336 L101.015 1330.12 Z" fill="#9eb1be" fill-rule="nonzero" fill-opacity="1" /><path clip-path="url(#clip020)" d="M126.084 1319.59 Q122.751 1319.59 120.83 1321.37 Q118.932 1323.15 118.932 1326.28 Q118.932 1329.4 120.83 1331.18 Q122.751 1332.97 126.084 1332.97 Q129.418 1332.97 131.339 1331.18 Q133.26 1329.38 133.26 1326.28 Q133.26 1323.15 131.339 1321.37 Q129.441 1319.59 126.084 1319.59 M121.408 1317.6 Q118.399 1316.86 116.709 1314.8 Q115.043 1312.74 115.043 1309.77 Q115.043 1305.63 117.983 1303.22 Q120.945 1300.81 126.084 1300.81 Q131.246 1300.81 134.186 1303.22 Q137.126 1305.63 137.126 1309.77 Q137.126 1312.74 135.436 1314.8 Q133.769 1316.86 130.783 1317.6 Q134.163 1318.38 136.038 1320.68 Q137.936 1322.97 137.936 1326.28 Q137.936 1331.3 134.857 1333.99 Q131.802 1336.67 126.084 1336.67 Q120.367 1336.67 117.288 1333.99 Q114.233 1331.3 114.233 1326.28 Q114.233 1322.97 116.131 1320.68 Q118.029 1318.38 121.408 1317.6 M119.695 1310.21 Q119.695 1312.9 121.362 1314.4 Q123.052 1315.91 126.084 1315.91 Q129.094 1315.91 130.783 1314.4 Q132.496 1312.9 132.496 1310.21 Q132.496 1307.53 130.783 1306.02 Q129.094 1304.52 126.084 1304.52 Q123.052 1304.52 121.362 1306.02 Q119.695 1307.53 119.695 1310.21 Z" fill="#9eb1be" fill-rule="nonzero" fill-opacity="1" /><path clip-path="url(#clip020)" d="M175.644 1320.79 Q173.63 1320.79 172.473 1322.5 Q171.339 1324.22 171.339 1327.27 Q171.339 1330.28 172.473 1332.02 Q173.63 1333.73 175.644 1333.73 Q177.612 1333.73 178.746 1332.02 Q179.903 1330.28 179.903 1327.27 Q179.903 1324.24 178.746 1322.53 Q177.612 1320.79 175.644 1320.79 M175.644 1317.85 Q179.302 1317.85 181.454 1320.4 Q183.607 1322.94 183.607 1327.27 Q183.607 1331.6 181.431 1334.15 Q179.278 1336.67 175.644 1336.67 Q171.941 1336.67 169.788 1334.15 Q167.635 1331.6 167.635 1327.27 Q167.635 1322.92 169.788 1320.4 Q171.964 1317.85 175.644 1317.85 M151.755 1303.75 Q149.765 1303.75 148.607 1305.49 Q147.473 1307.2 147.473 1310.21 Q147.473 1313.27 148.607 1314.98 Q149.742 1316.69 151.755 1316.69 Q153.769 1316.69 154.904 1314.98 Q156.061 1313.27 156.061 1310.21 Q156.061 1307.23 154.904 1305.49 Q153.746 1303.75 151.755 1303.75 M172.658 1300.81 L176.362 1300.81 L154.742 1336.67 L151.038 1336.67 L172.658 1300.81 M151.755 1300.81 Q155.413 1300.81 157.589 1303.36 Q159.765 1305.88 159.765 1310.21 Q159.765 1314.59 157.589 1317.11 Q155.436 1319.63 151.755 1319.63 Q148.075 1319.63 145.922 1317.11 Q143.793 1314.56 143.793 1310.21 Q143.793 1305.91 145.945 1303.36 Q148.098 1300.81 151.755 1300.81 Z" fill="#9eb1be" fill-rule="nonzero" fill-opacity="1" /><path clip-path="url(#clip020)" d="M50.9921 1031.95 L63.4689 1031.95 L63.4689 1035.74 L50.9921 1035.74 L50.9921 1031.95 Z" fill="#9eb1be" fill-rule="nonzero" fill-opacity="1" /><path clip-path="url(#clip020)" d="M80.8531 1015.35 Q77.242 1015.35 75.4133 1018.91 Q73.6077 1022.46 73.6077 1029.59 Q73.6077 1036.69 75.4133 1040.26 Q77.242 1043.8 80.8531 1043.8 Q84.4873 1043.8 86.2929 1040.26 Q88.1216 1036.69 88.1216 1029.59 Q88.1216 1022.46 86.2929 1018.91 Q84.4873 1015.35 80.8531 1015.35 M80.8531 1011.65 Q86.6632 1011.65 89.7188 1016.25 Q92.7975 1020.84 92.7975 1029.59 Q92.7975 1038.31 89.7188 1042.92 Q86.6632 1047.5 80.8531 1047.5 Q75.0429 1047.5 71.9642 1042.92 Q68.9087 1038.31 68.9087 1029.59 Q68.9087 1020.84 71.9642 1016.25 Q75.0429 1011.65 80.8531 1011.65 Z" fill="#9eb1be" fill-rule="nonzero" fill-opacity="1" /><path clip-path="url(#clip020)" d="M101.015 1040.95 L105.899 1040.95 L105.899 1046.83 L101.015 1046.83 L101.015 1040.95 Z" fill="#9eb1be" fill-rule="nonzero" fill-opacity="1" /><path clip-path="url(#clip020)" d="M126.663 1027.69 Q123.515 1027.69 121.663 1029.84 Q119.834 1031.99 119.834 1035.74 Q119.834 1039.47 121.663 1041.65 Q123.515 1043.8 126.663 1043.8 Q129.811 1043.8 131.64 1041.65 Q133.492 1039.47 133.492 1035.74 Q133.492 1031.99 131.64 1029.84 Q129.811 1027.69 126.663 1027.69 M135.945 1013.03 L135.945 1017.29 Q134.186 1016.46 132.381 1016.02 Q130.598 1015.58 128.839 1015.58 Q124.209 1015.58 121.756 1018.71 Q119.325 1021.83 118.978 1028.15 Q120.344 1026.14 122.404 1025.07 Q124.464 1023.98 126.941 1023.98 Q132.149 1023.98 135.158 1027.16 Q138.191 1030.3 138.191 1035.74 Q138.191 1041.07 135.043 1044.28 Q131.894 1047.5 126.663 1047.5 Q120.668 1047.5 117.496 1042.92 Q114.325 1038.31 114.325 1029.59 Q114.325 1021.39 118.214 1016.53 Q122.103 1011.65 128.654 1011.65 Q130.413 1011.65 132.195 1011.99 Q134.001 1012.34 135.945 1013.03 Z" fill="#9eb1be" fill-rule="nonzero" fill-opacity="1" /><path clip-path="url(#clip020)" d="M175.644 1031.62 Q173.63 1031.62 172.473 1033.34 Q171.339 1035.05 171.339 1038.1 Q171.339 1041.11 172.473 1042.85 Q173.63 1044.56 175.644 1044.56 Q177.612 1044.56 178.746 1042.85 Q179.903 1041.11 179.903 1038.1 Q179.903 1035.07 178.746 1033.36 Q177.612 1031.62 175.644 1031.62 M175.644 1028.68 Q179.302 1028.68 181.454 1031.23 Q183.607 1033.78 183.607 1038.1 Q183.607 1042.43 181.431 1044.98 Q179.278 1047.5 175.644 1047.5 Q171.941 1047.5 169.788 1044.98 Q167.635 1042.43 167.635 1038.1 Q167.635 1033.75 169.788 1031.23 Q171.964 1028.68 175.644 1028.68 M151.755 1014.59 Q149.765 1014.59 148.607 1016.32 Q147.473 1018.03 147.473 1021.04 Q147.473 1024.1 148.607 1025.81 Q149.742 1027.53 151.755 1027.53 Q153.769 1027.53 154.904 1025.81 Q156.061 1024.1 156.061 1021.04 Q156.061 1018.06 154.904 1016.32 Q153.746 1014.59 151.755 1014.59 M172.658 1011.65 L176.362 1011.65 L154.742 1047.5 L151.038 1047.5 L172.658 1011.65 M151.755 1011.65 Q155.413 1011.65 157.589 1014.19 Q159.765 1016.72 159.765 1021.04 Q159.765 1025.42 157.589 1027.94 Q155.436 1030.47 151.755 1030.47 Q148.075 1030.47 145.922 1027.94 Q143.793 1025.4 143.793 1021.04 Q143.793 1016.74 145.945 1014.19 Q148.098 1011.65 151.755 1011.65 Z" fill="#9eb1be" fill-rule="nonzero" fill-opacity="1" /><path clip-path="url(#clip020)" d="M50.9921 742.779 L63.4689 742.779 L63.4689 746.575 L50.9921 746.575 L50.9921 742.779 Z" fill="#9eb1be" fill-rule="nonzero" fill-opacity="1" /><path clip-path="url(#clip020)" d="M80.8531 726.182 Q77.242 726.182 75.4133 729.746 Q73.6077 733.288 73.6077 740.418 Q73.6077 747.524 75.4133 751.089 Q77.242 754.631 80.8531 754.631 Q84.4873 754.631 86.2929 751.089 Q88.1216 747.524 88.1216 740.418 Q88.1216 733.288 86.2929 729.746 Q84.4873 726.182 80.8531 726.182 M80.8531 722.478 Q86.6632 722.478 89.7188 727.084 Q92.7975 731.668 92.7975 740.418 Q92.7975 749.144 89.7188 753.751 Q86.6632 758.334 80.8531 758.334 Q75.0429 758.334 71.9642 753.751 Q68.9087 749.144 68.9087 740.418 Q68.9087 731.668 71.9642 727.084 Q75.0429 722.478 80.8531 722.478 Z" fill="#9eb1be" fill-rule="nonzero" fill-opacity="1" /><path clip-path="url(#clip020)" d="M101.015 751.783 L105.899 751.783 L105.899 757.663 L101.015 757.663 L101.015 751.783 Z" fill="#9eb1be" fill-rule="nonzero" fill-opacity="1" /><path clip-path="url(#clip020)" d="M128.932 727.177 L117.126 745.626 L128.932 745.626 L128.932 727.177 M127.705 723.103 L133.584 723.103 L133.584 745.626 L138.515 745.626 L138.515 749.515 L133.584 749.515 L133.584 757.663 L128.932 757.663 L128.932 749.515 L113.33 749.515 L113.33 745.001 L127.705 723.103 Z" fill="#9eb1be" fill-rule="nonzero" fill-opacity="1" /><path clip-path="url(#clip020)" d="M175.644 742.455 Q173.63 742.455 172.473 744.168 Q171.339 745.881 171.339 748.936 Q171.339 751.945 172.473 753.681 Q173.63 755.394 175.644 755.394 Q177.612 755.394 178.746 753.681 Q179.903 751.945 179.903 748.936 Q179.903 745.904 178.746 744.191 Q177.612 742.455 175.644 742.455 M175.644 739.515 Q179.302 739.515 181.454 742.061 Q183.607 744.607 183.607 748.936 Q183.607 753.265 181.431 755.811 Q179.278 758.334 175.644 758.334 Q171.941 758.334 169.788 755.811 Q167.635 753.265 167.635 748.936 Q167.635 744.584 169.788 742.061 Q171.964 739.515 175.644 739.515 M151.755 725.418 Q149.765 725.418 148.607 727.154 Q147.473 728.867 147.473 731.876 Q147.473 734.932 148.607 736.645 Q149.742 738.357 151.755 738.357 Q153.769 738.357 154.904 736.645 Q156.061 734.932 156.061 731.876 Q156.061 728.89 154.904 727.154 Q153.746 725.418 151.755 725.418 M172.658 722.478 L176.362 722.478 L154.742 758.334 L151.038 758.334 L172.658 722.478 M151.755 722.478 Q155.413 722.478 157.589 725.024 Q159.765 727.547 159.765 731.876 Q159.765 736.251 157.589 738.774 Q155.436 741.297 151.755 741.297 Q148.075 741.297 145.922 738.774 Q143.793 736.228 143.793 731.876 Q143.793 727.571 145.945 725.024 Q148.098 722.478 151.755 722.478 Z" fill="#9eb1be" fill-rule="nonzero" fill-opacity="1" /><path clip-path="url(#clip020)" d="M50.9921 453.611 L63.4689 453.611 L63.4689 457.407 L50.9921 457.407 L50.9921 453.611 Z" fill="#9eb1be" fill-rule="nonzero" fill-opacity="1" /><path clip-path="url(#clip020)" d="M80.8531 437.014 Q77.242 437.014 75.4133 440.578 Q73.6077 444.12 73.6077 451.25 Q73.6077 458.356 75.4133 461.921 Q77.242 465.463 80.8531 465.463 Q84.4873 465.463 86.2929 461.921 Q88.1216 458.356 88.1216 451.25 Q88.1216 444.12 86.2929 440.578 Q84.4873 437.014 80.8531 437.014 M80.8531 433.31 Q86.6632 433.31 89.7188 437.916 Q92.7975 442.5 92.7975 451.25 Q92.7975 459.976 89.7188 464.583 Q86.6632 469.166 80.8531 469.166 Q75.0429 469.166 71.9642 464.583 Q68.9087 459.976 68.9087 451.25 Q68.9087 442.5 71.9642 437.916 Q75.0429 433.31 80.8531 433.31 Z" fill="#9eb1be" fill-rule="nonzero" fill-opacity="1" /><path clip-path="url(#clip020)" d="M101.015 462.615 L105.899 462.615 L105.899 468.495 L101.015 468.495 L101.015 462.615 Z" fill="#9eb1be" fill-rule="nonzero" fill-opacity="1" /><path clip-path="url(#clip020)" d="M120.112 464.56 L136.431 464.56 L136.431 468.495 L114.487 468.495 L114.487 464.56 Q117.149 461.805 121.732 457.176 Q126.339 452.523 127.519 451.18 Q129.765 448.657 130.644 446.921 Q131.547 445.162 131.547 443.472 Q131.547 440.717 129.603 438.981 Q127.682 437.245 124.58 437.245 Q122.381 437.245 119.927 438.009 Q117.496 438.773 114.719 440.324 L114.719 435.602 Q117.543 434.467 119.996 433.889 Q122.45 433.31 124.487 433.31 Q129.857 433.31 133.052 435.995 Q136.246 438.68 136.246 443.171 Q136.246 445.301 135.436 447.222 Q134.649 449.12 132.543 451.713 Q131.964 452.384 128.862 455.601 Q125.76 458.796 120.112 464.56 Z" fill="#9eb1be" fill-rule="nonzero" fill-opacity="1" /><path clip-path="url(#clip020)" d="M175.644 453.287 Q173.63 453.287 172.473 455 Q171.339 456.713 171.339 459.768 Q171.339 462.777 172.473 464.513 Q173.63 466.226 175.644 466.226 Q177.612 466.226 178.746 464.513 Q179.903 462.777 179.903 459.768 Q179.903 456.736 178.746 455.023 Q177.612 453.287 175.644 453.287 M175.644 450.347 Q179.302 450.347 181.454 452.893 Q183.607 455.439 183.607 459.768 Q183.607 464.097 181.431 466.643 Q179.278 469.166 175.644 469.166 Q171.941 469.166 169.788 466.643 Q167.635 464.097 167.635 459.768 Q167.635 455.416 169.788 452.893 Q171.964 450.347 175.644 450.347 M151.755 436.25 Q149.765 436.25 148.607 437.986 Q147.473 439.699 147.473 442.708 Q147.473 445.764 148.607 447.477 Q149.742 449.189 151.755 449.189 Q153.769 449.189 154.904 447.477 Q156.061 445.764 156.061 442.708 Q156.061 439.722 154.904 437.986 Q153.746 436.25 151.755 436.25 M172.658 433.31 L176.362 433.31 L154.742 469.166 L151.038 469.166 L172.658 433.31 M151.755 433.31 Q155.413 433.31 157.589 435.856 Q159.765 438.379 159.765 442.708 Q159.765 447.083 157.589 449.606 Q155.436 452.129 151.755 452.129 Q148.075 452.129 145.922 449.606 Q143.793 447.06 143.793 442.708 Q143.793 438.403 145.945 435.856 Q148.098 433.31 151.755 433.31 Z" fill="#9eb1be" fill-rule="nonzero" fill-opacity="1" /><path clip-path="url(#clip020)" d="M80.8531 147.846 Q77.242 147.846 75.4133 151.41 Q73.6077 154.952 73.6077 162.082 Q73.6077 169.188 75.4133 172.753 Q77.242 176.295 80.8531 176.295 Q84.4873 176.295 86.2929 172.753 Q88.1216 169.188 88.1216 162.082 Q88.1216 154.952 86.2929 151.41 Q84.4873 147.846 80.8531 147.846 M80.8531 144.142 Q86.6632 144.142 89.7188 148.748 Q92.7975 153.332 92.7975 162.082 Q92.7975 170.808 89.7188 175.415 Q86.6632 179.998 80.8531 179.998 Q75.0429 179.998 71.9642 175.415 Q68.9087 170.808 68.9087 162.082 Q68.9087 153.332 71.9642 148.748 Q75.0429 144.142 80.8531 144.142 Z" fill="#9eb1be" fill-rule="nonzero" fill-opacity="1" /><path clip-path="url(#clip020)" d="M101.015 173.447 L105.899 173.447 L105.899 179.327 L101.015 179.327 L101.015 173.447 Z" fill="#9eb1be" fill-rule="nonzero" fill-opacity="1" /><path clip-path="url(#clip020)" d="M126.084 147.846 Q122.473 147.846 120.645 151.41 Q118.839 154.952 118.839 162.082 Q118.839 169.188 120.645 172.753 Q122.473 176.295 126.084 176.295 Q129.719 176.295 131.524 172.753 Q133.353 169.188 133.353 162.082 Q133.353 154.952 131.524 151.41 Q129.719 147.846 126.084 147.846 M126.084 144.142 Q131.894 144.142 134.95 148.748 Q138.029 153.332 138.029 162.082 Q138.029 170.808 134.95 175.415 Q131.894 179.998 126.084 179.998 Q120.274 179.998 117.195 175.415 Q114.14 170.808 114.14 162.082 Q114.14 153.332 117.195 148.748 Q120.274 144.142 126.084 144.142 Z" fill="#9eb1be" fill-rule="nonzero" fill-opacity="1" /><path clip-path="url(#clip020)" d="M175.644 164.119 Q173.63 164.119 172.473 165.832 Q171.339 167.545 171.339 170.6 Q171.339 173.609 172.473 175.345 Q173.63 177.058 175.644 177.058 Q177.612 177.058 178.746 175.345 Q179.903 173.609 179.903 170.6 Q179.903 167.568 178.746 165.855 Q177.612 164.119 175.644 164.119 M175.644 161.179 Q179.302 161.179 181.454 163.725 Q183.607 166.271 183.607 170.6 Q183.607 174.929 181.431 177.475 Q179.278 179.998 175.644 179.998 Q171.941 179.998 169.788 177.475 Q167.635 174.929 167.635 170.6 Q167.635 166.248 169.788 163.725 Q171.964 161.179 175.644 161.179 M151.755 147.082 Q149.765 147.082 148.607 148.818 Q147.473 150.531 147.473 153.54 Q147.473 156.596 148.607 158.309 Q149.742 160.021 151.755 160.021 Q153.769 160.021 154.904 158.309 Q156.061 156.596 156.061 153.54 Q156.061 150.554 154.904 148.818 Q153.746 147.082 151.755 147.082 M172.658 144.142 L176.362 144.142 L154.742 179.998 L151.038 179.998 L172.658 144.142 M151.755 144.142 Q155.413 144.142 157.589 146.688 Q159.765 149.211 159.765 153.54 Q159.765 157.915 157.589 160.438 Q155.436 162.961 151.755 162.961 Q148.075 162.961 145.922 160.438 Q143.793 157.892 143.793 153.54 Q143.793 149.234 145.945 146.688 Q148.098 144.142 151.755 144.142 Z" fill="#9eb1be" fill-rule="nonzero" fill-opacity="1" /><path clip-path="url(#clip020)" d="M828.227 12.096 L866.467 12.096 L866.467 18.9825 L836.41 18.9825 L836.41 36.8875 L865.212 36.8875 L865.212 43.7741 L836.41 43.7741 L836.41 65.6895 L867.197 65.6895 L867.197 72.576 L828.227 72.576 L828.227 12.096 Z" fill="#adb2b7" fill-rule="nonzero" fill-opacity="1" /><path clip-path="url(#clip020)" d="M884.777 49.9314 Q884.777 58.1548 888.14 62.8538 Q891.542 67.5124 897.457 67.5124 Q903.371 67.5124 906.774 62.8538 Q910.177 58.1548 910.177 49.9314 Q910.177 41.7081 906.774 37.0496 Q903.371 32.3505 897.457 32.3505 Q891.542 32.3505 888.14 37.0496 Q884.777 41.7081 884.777 49.9314 M910.177 65.7705 Q907.827 69.8214 904.222 71.8063 Q900.657 73.7508 895.634 73.7508 Q887.411 73.7508 882.225 67.1883 Q877.081 60.6258 877.081 49.9314 Q877.081 39.2371 882.225 32.6746 Q887.411 26.1121 895.634 26.1121 Q900.657 26.1121 904.222 28.0971 Q907.827 30.0415 910.177 34.0924 L910.177 27.2059 L917.63 27.2059 L917.63 89.8329 L910.177 89.8329 L910.177 65.7705 Z" fill="#adb2b7" fill-rule="nonzero" fill-opacity="1" /><path clip-path="url(#clip020)" d="M932.214 54.671 L932.214 27.2059 L939.667 27.2059 L939.667 54.3874 Q939.667 60.8284 942.179 64.0691 Q944.69 67.2693 949.713 67.2693 Q955.749 67.2693 959.233 63.421 Q962.757 59.5726 962.757 52.9291 L962.757 27.2059 L970.211 27.2059 L970.211 72.576 L962.757 72.576 L962.757 65.6084 Q960.043 69.7404 956.438 71.7658 Q952.873 73.7508 948.134 73.7508 Q940.315 73.7508 936.264 68.8897 Q932.214 64.0286 932.214 54.671 M950.969 26.1121 L950.969 26.1121 Z" fill="#adb2b7" fill-rule="nonzero" fill-opacity="1" /><path clip-path="url(#clip020)" d="M985.564 27.2059 L993.018 27.2059 L993.018 72.576 L985.564 72.576 L985.564 27.2059 M985.564 9.54393 L993.018 9.54393 L993.018 18.9825 L985.564 18.9825 L985.564 9.54393 Z" fill="#adb2b7" fill-rule="nonzero" fill-opacity="1" /><path clip-path="url(#clip020)" d="M1015.99 14.324 L1015.99 27.2059 L1031.34 27.2059 L1031.34 32.9987 L1015.99 32.9987 L1015.99 57.6282 Q1015.99 63.1779 1017.49 64.7578 Q1019.02 66.3376 1023.68 66.3376 L1031.34 66.3376 L1031.34 72.576 L1023.68 72.576 Q1015.05 72.576 1011.77 69.3758 Q1008.49 66.1351 1008.49 57.6282 L1008.49 32.9987 L1003.02 32.9987 L1003.02 27.2059 L1008.49 27.2059 L1008.49 14.324 L1015.99 14.324 Z" fill="#adb2b7" fill-rule="nonzero" fill-opacity="1" /><path clip-path="url(#clip020)" d="M1060.02 76.7889 Q1056.86 84.8907 1053.86 87.3618 Q1050.86 89.8329 1045.84 89.8329 L1039.89 89.8329 L1039.89 83.5945 L1044.26 83.5945 Q1047.34 83.5945 1049.04 82.1361 Q1050.74 80.6778 1052.81 75.2496 L1054.15 71.8468 L1035.8 27.2059 L1043.69 27.2059 L1057.87 62.6918 L1072.05 27.2059 L1079.95 27.2059 L1060.02 76.7889 Z" fill="#adb2b7" fill-rule="nonzero" fill-opacity="1" /><path clip-path="url(#clip020)" d="M1146.47 34.0924 L1146.47 9.54393 L1153.92 9.54393 L1153.92 72.576 L1146.47 72.576 L1146.47 65.7705 Q1144.12 69.8214 1140.51 71.8063 Q1136.95 73.7508 1131.92 73.7508 Q1123.7 73.7508 1118.51 67.1883 Q1113.37 60.6258 1113.37 49.9314 Q1113.37 39.2371 1118.51 32.6746 Q1123.7 26.1121 1131.92 26.1121 Q1136.95 26.1121 1140.51 28.0971 Q1144.12 30.0415 1146.47 34.0924 M1121.07 49.9314 Q1121.07 58.1548 1124.43 62.8538 Q1127.83 67.5124 1133.75 67.5124 Q1139.66 67.5124 1143.06 62.8538 Q1146.47 58.1548 1146.47 49.9314 Q1146.47 41.7081 1143.06 37.0496 Q1139.66 32.3505 1133.75 32.3505 Q1127.83 32.3505 1124.43 37.0496 Q1121.07 41.7081 1121.07 49.9314 Z" fill="#adb2b7" fill-rule="nonzero" fill-opacity="1" /><path clip-path="url(#clip020)" d="M1195.56 34.1734 Q1194.31 33.4443 1192.81 33.1202 Q1191.35 32.7556 1189.57 32.7556 Q1183.25 32.7556 1179.85 36.8875 Q1176.48 40.9789 1176.48 48.6757 L1176.48 72.576 L1168.99 72.576 L1168.99 27.2059 L1176.48 27.2059 L1176.48 34.2544 Q1178.83 30.1225 1182.6 28.1376 Q1186.37 26.1121 1191.75 26.1121 Q1192.52 26.1121 1193.46 26.2337 Q1194.39 26.3147 1195.52 26.5172 L1195.56 34.1734 Z" fill="#adb2b7" fill-rule="nonzero" fill-opacity="1" /><path clip-path="url(#clip020)" d="M1224 49.7694 Q1214.97 49.7694 1211.48 51.8354 Q1208 53.9013 1208 58.8839 Q1208 62.8538 1210.59 65.2034 Q1213.22 67.5124 1217.72 67.5124 Q1223.92 67.5124 1227.65 63.1374 Q1231.41 58.7219 1231.41 51.4303 L1231.41 49.7694 L1224 49.7694 M1238.87 46.6907 L1238.87 72.576 L1231.41 72.576 L1231.41 65.6895 Q1228.86 69.8214 1225.05 71.8063 Q1221.25 73.7508 1215.74 73.7508 Q1208.77 73.7508 1204.64 69.8619 Q1200.55 65.9325 1200.55 59.3701 Q1200.55 51.7138 1205.65 47.825 Q1210.79 43.9361 1220.96 43.9361 L1231.41 43.9361 L1231.41 43.2069 Q1231.41 38.0623 1228.01 35.2672 Q1224.65 32.4315 1218.53 32.4315 Q1214.64 32.4315 1210.96 33.3632 Q1207.27 34.295 1203.87 36.1584 L1203.87 29.2718 Q1207.96 27.692 1211.81 26.9223 Q1215.66 26.1121 1219.3 26.1121 Q1229.14 26.1121 1234.01 31.2163 Q1238.87 36.3204 1238.87 46.6907 Z" fill="#adb2b7" fill-rule="nonzero" fill-opacity="1" /><path clip-path="url(#clip020)" d="M1249.89 27.2059 L1257.34 27.2059 L1266.66 62.6108 L1275.93 27.2059 L1284.72 27.2059 L1294.04 62.6108 L1303.32 27.2059 L1310.77 27.2059 L1298.9 72.576 L1290.11 72.576 L1280.35 35.3887 L1270.55 72.576 L1261.75 72.576 L1249.89 27.2059 Z" fill="#adb2b7" fill-rule="nonzero" fill-opacity="1" /><path clip-path="url(#clip020)" d="M1351.93 34.0924 L1351.93 9.54393 L1359.38 9.54393 L1359.38 72.576 L1351.93 72.576 L1351.93 65.7705 Q1349.58 69.8214 1345.97 71.8063 Q1342.41 73.7508 1337.38 73.7508 Q1329.16 73.7508 1323.98 67.1883 Q1318.83 60.6258 1318.83 49.9314 Q1318.83 39.2371 1323.98 32.6746 Q1329.16 26.1121 1337.38 26.1121 Q1342.41 26.1121 1345.97 28.0971 Q1349.58 30.0415 1351.93 34.0924 M1326.53 49.9314 Q1326.53 58.1548 1329.89 62.8538 Q1333.29 67.5124 1339.21 67.5124 Q1345.12 67.5124 1348.52 62.8538 Q1351.93 58.1548 1351.93 49.9314 Q1351.93 41.7081 1348.52 37.0496 Q1345.12 32.3505 1339.21 32.3505 Q1333.29 32.3505 1329.89 37.0496 Q1326.53 41.7081 1326.53 49.9314 Z" fill="#adb2b7" fill-rule="nonzero" fill-opacity="1" /><path clip-path="url(#clip020)" d="M1392.32 32.4315 Q1386.32 32.4315 1382.84 37.1306 Q1379.35 41.7891 1379.35 49.9314 Q1379.35 58.0738 1382.8 62.7728 Q1386.28 67.4314 1392.32 67.4314 Q1398.27 67.4314 1401.75 62.7323 Q1405.24 58.0333 1405.24 49.9314 Q1405.24 41.8701 1401.75 37.1711 Q1398.27 32.4315 1392.32 32.4315 M1392.32 26.1121 Q1402.04 26.1121 1407.59 32.4315 Q1413.14 38.7509 1413.14 49.9314 Q1413.14 61.0714 1407.59 67.4314 Q1402.04 73.7508 1392.32 73.7508 Q1382.55 73.7508 1377 67.4314 Q1371.49 61.0714 1371.49 49.9314 Q1371.49 38.7509 1377 32.4315 Q1382.55 26.1121 1392.32 26.1121 Z" fill="#adb2b7" fill-rule="nonzero" fill-opacity="1" /><path clip-path="url(#clip020)" d="M1421.16 27.2059 L1428.61 27.2059 L1437.93 62.6108 L1447.2 27.2059 L1456 27.2059 L1465.31 62.6108 L1474.59 27.2059 L1482.04 27.2059 L1470.17 72.576 L1461.38 72.576 L1451.62 35.3887 L1441.82 72.576 L1433.03 72.576 L1421.16 27.2059 Z" fill="#adb2b7" fill-rule="nonzero" fill-opacity="1" /><path clip-path="url(#clip020)" d="M1531.06 45.1919 L1531.06 72.576 L1523.61 72.576 L1523.61 45.4349 Q1523.61 38.994 1521.09 35.7938 Q1518.58 32.5936 1513.56 32.5936 Q1507.52 32.5936 1504.04 36.4419 Q1500.56 40.2903 1500.56 46.9338 L1500.56 72.576 L1493.06 72.576 L1493.06 27.2059 L1500.56 27.2059 L1500.56 34.2544 Q1503.23 30.163 1506.83 28.1376 Q1510.48 26.1121 1515.22 26.1121 Q1523.04 26.1121 1527.05 30.9732 Q1531.06 35.7938 1531.06 45.1919 Z" fill="#adb2b7" fill-rule="nonzero" fill-opacity="1" /><path clip-path="url(#clip020)" d="M1574.85 28.5427 L1574.85 35.5912 Q1571.69 33.9709 1568.29 33.1607 Q1564.88 32.3505 1561.24 32.3505 Q1555.69 32.3505 1552.89 34.0519 Q1550.14 35.7533 1550.14 39.156 Q1550.14 41.7486 1552.12 43.2475 Q1554.11 44.7058 1560.1 46.0426 L1562.66 46.6097 Q1570.6 48.3111 1573.92 51.4303 Q1577.28 54.509 1577.28 60.0587 Q1577.28 66.3781 1572.26 70.0644 Q1567.27 73.7508 1558.52 73.7508 Q1554.88 73.7508 1550.91 73.0216 Q1546.98 72.3329 1542.6 70.9151 L1542.6 63.2184 Q1546.74 65.3654 1550.75 66.4591 Q1554.76 67.5124 1558.69 67.5124 Q1563.95 67.5124 1566.79 65.73 Q1569.62 63.9071 1569.62 60.6258 Q1569.62 57.5877 1567.56 55.9673 Q1565.53 54.3469 1558.6 52.8481 L1556.01 52.2405 Q1549.09 50.7821 1546.01 47.7845 Q1542.93 44.7463 1542.93 39.4801 Q1542.93 33.0797 1547.46 29.5959 Q1552 26.1121 1560.35 26.1121 Q1564.48 26.1121 1568.12 26.7198 Q1571.77 27.3274 1574.85 28.5427 Z" fill="#adb2b7" fill-rule="nonzero" fill-opacity="1" /><path clip-path="url(#clip020)" d="M1614.83 9.54393 L1632.01 9.54393 L1632.01 15.3367 L1622.29 15.3367 L1622.29 77.7206 L1632.01 77.7206 L1632.01 83.5134 L1614.83 83.5134 L1614.83 9.54393 Z" fill="#adb2b7" fill-rule="nonzero" fill-opacity="1" /><path clip-path="url(#clip020)" d="M1700.39 45.9616 Q1696.86 45.9616 1694.84 48.9592 Q1692.85 51.9569 1692.85 57.3041 Q1692.85 62.5703 1694.84 65.6084 Q1696.86 68.6061 1700.39 68.6061 Q1703.83 68.6061 1705.81 65.6084 Q1707.84 62.5703 1707.84 57.3041 Q1707.84 51.9974 1705.81 48.9997 Q1703.83 45.9616 1700.39 45.9616 M1700.39 40.8169 Q1706.79 40.8169 1710.55 45.2729 Q1714.32 49.7289 1714.32 57.3041 Q1714.32 64.8793 1710.51 69.3353 Q1706.75 73.7508 1700.39 73.7508 Q1693.91 73.7508 1690.14 69.3353 Q1686.37 64.8793 1686.37 57.3041 Q1686.37 49.6884 1690.14 45.2729 Q1693.95 40.8169 1700.39 40.8169 M1658.58 16.1469 Q1655.1 16.1469 1653.07 19.1851 Q1651.09 22.1828 1651.09 27.4489 Q1651.09 32.7961 1653.07 35.7938 Q1655.06 38.7915 1658.58 38.7915 Q1662.11 38.7915 1664.09 35.7938 Q1666.12 32.7961 1666.12 27.4489 Q1666.12 22.2233 1664.09 19.1851 Q1662.06 16.1469 1658.58 16.1469 M1695.16 11.0023 L1701.64 11.0023 L1663.81 73.7508 L1657.33 73.7508 L1695.16 11.0023 M1658.58 11.0023 Q1664.98 11.0023 1668.79 15.4583 Q1672.6 19.8737 1672.6 27.4489 Q1672.6 35.1051 1668.79 39.5206 Q1665.02 43.9361 1658.58 43.9361 Q1652.14 43.9361 1648.37 39.5206 Q1644.65 35.0646 1644.65 27.4489 Q1644.65 19.9142 1648.41 15.4583 Q1652.18 11.0023 1658.58 11.0023 Z" fill="#adb2b7" fill-rule="nonzero" fill-opacity="1" /><path clip-path="url(#clip020)" d="M1744.14 9.54393 L1744.14 83.5134 L1726.96 83.5134 L1726.96 77.7206 L1736.64 77.7206 L1736.64 15.3367 L1726.96 15.3367 L1726.96 9.54393 L1744.14 9.54393 Z" fill="#adb2b7" fill-rule="nonzero" fill-opacity="1" /><path clip-path="url(#clip021)" d="M279.979 162.047 L503.58 162.047 L503.58 1447.87 L727.18 1447.87 L727.18 162.047 L950.781 162.047 L950.781 1410.85 L1174.38 1410.85 L1174.38 162.047 L1397.98 162.047 L1397.98 1375.91 L1621.58 1375.91 L1621.58 162.047 L1845.18 162.047 L1845.18 1342.86 L2068.78 1342.86 L2068.78 162.047 L2292.38 162.047 L2292.38 1311.57 L2292.38 162.047 L2292.38 162.047 L2068.78 162.047 L2068.78 162.047 L1845.18 162.047 L1845.18 162.047 L1621.58 162.047 L1621.58 162.047 L1397.98 162.047 L1397.98 162.047 L1174.38 162.047 L1174.38 162.047 L950.781 162.047 L950.781 162.047 L727.18 162.047 L727.18 162.047 L503.58 162.047 L503.58 162.047 L279.979 162.047  Z" fill="#bb0000" fill-rule="evenodd" fill-opacity="0.2"/>
<polyline clip-path="url(#clip021)" style="stroke:#bb0000; stroke-linecap:round; stroke-linejoin:round; stroke-width:4; stroke-opacity:1; fill:none" points="279.979,162.047 503.58,162.047 503.58,1447.87 727.18,1447.87 727.18,162.047 950.781,162.047 950.781,1410.85 1174.38,1410.85 1174.38,162.047 1397.98,162.047 1397.98,1375.91 1621.58,1375.91 1621.58,162.047 1845.18,162.047 1845.18,1342.86 2068.78,1342.86 2068.78,162.047 2292.38,162.047 2292.38,1311.57 "/>
</svg>
