<?xml version="1.0" encoding="utf-8"?>
<svg xmlns="http://www.w3.org/2000/svg" xmlns:xlink="http://www.w3.org/1999/xlink" width="600" height="400" viewBox="0 0 2400 1600">
<defs>
  <clipPath id="clip990">
    <rect x="0" y="0" width="2400" height="1600"/>
  </clipPath>
</defs>
<path clip-path="url(#clip990)" d="M0 1600 L2400 1600 L2400 0 L0 0  Z" fill="#282c34" fill-rule="evenodd" fill-opacity="1"/>
<defs>
  <clipPath id="clip991">
    <rect x="110" y="106" width="2243" height="1381"/>
  </clipPath>
</defs>
<path clip-path="url(#clip990)" d="M110.881 1486.45 L2352.76 1486.45 L2352.76 106.192 L110.881 106.192  Z" fill="#21252b" fill-rule="evenodd" fill-opacity="1"/>
<polyline clip-path="url(#clip991)" style="stroke:#adb2b7; stroke-linecap:round; stroke-linejoin:round; stroke-width:2; stroke-opacity:0.1; fill:none" points="409.328,1486.45 409.328,106.192 "/>
<polyline clip-path="url(#clip991)" style="stroke:#adb2b7; stroke-linecap:round; stroke-linejoin:round; stroke-width:2; stroke-opacity:0.1; fill:none" points="879.322,1486.45 879.322,106.192 "/>
<polyline clip-path="url(#clip991)" style="stroke:#adb2b7; stroke-linecap:round; stroke-linejoin:round; stroke-width:2; stroke-opacity:0.1; fill:none" points="1349.32,1486.45 1349.32,106.192 "/>
<polyline clip-path="url(#clip991)" style="stroke:#adb2b7; stroke-linecap:round; stroke-linejoin:round; stroke-width:2; stroke-opacity:0.1; fill:none" points="1819.31,1486.45 1819.31,106.192 "/>
<polyline clip-path="url(#clip991)" style="stroke:#adb2b7; stroke-linecap:round; stroke-linejoin:round; stroke-width:2; stroke-opacity:0.1; fill:none" points="2289.31,1486.45 2289.31,106.192 "/>
<polyline clip-path="url(#clip991)" style="stroke:#adb2b7; stroke-linecap:round; stroke-linejoin:round; stroke-width:2; stroke-opacity:0.1; fill:none" points="110.881,1486.45 2352.76,1486.45 "/>
<polyline clip-path="url(#clip991)" style="stroke:#adb2b7; stroke-linecap:round; stroke-linejoin:round; stroke-width:2; stroke-opacity:0.1; fill:none" points="110.881,1026.36 2352.76,1026.36 "/>
<polyline clip-path="url(#clip991)" style="stroke:#adb2b7; stroke-linecap:round; stroke-linejoin:round; stroke-width:2; stroke-opacity:0.1; fill:none" points="110.881,566.277 2352.76,566.277 "/>
<polyline clip-path="url(#clip991)" style="stroke:#adb2b7; stroke-linecap:round; stroke-linejoin:round; stroke-width:2; stroke-opacity:0.1; fill:none" points="110.881,106.192 2352.76,106.192 "/>
<polyline clip-path="url(#clip990)" style="stroke:#adb2b7; stroke-linecap:round; stroke-linejoin:round; stroke-width:4; stroke-opacity:1; fill:none" points="110.881,1486.45 2352.76,1486.45 "/>
<polyline clip-path="url(#clip990)" style="stroke:#adb2b7; stroke-linecap:round; stroke-linejoin:round; stroke-width:4; stroke-opacity:1; fill:none" points="409.328,1486.45 409.328,1467.55 "/>
<polyline clip-path="url(#clip990)" style="stroke:#adb2b7; stroke-linecap:round; stroke-linejoin:round; stroke-width:4; stroke-opacity:1; fill:none" points="879.322,1486.45 879.322,1467.55 "/>
<polyline clip-path="url(#clip990)" style="stroke:#adb2b7; stroke-linecap:round; stroke-linejoin:round; stroke-width:4; stroke-opacity:1; fill:none" points="1349.32,1486.45 1349.32,1467.55 "/>
<polyline clip-path="url(#clip990)" style="stroke:#adb2b7; stroke-linecap:round; stroke-linejoin:round; stroke-width:4; stroke-opacity:1; fill:none" points="1819.31,1486.45 1819.31,1467.55 "/>
<polyline clip-path="url(#clip990)" style="stroke:#adb2b7; stroke-linecap:round; stroke-linejoin:round; stroke-width:4; stroke-opacity:1; fill:none" points="2289.31,1486.45 2289.31,1467.55 "/>
<path clip-path="url(#clip990)" d="M403.98 1544.91 L420.3 1544.91 L420.3 1548.85 L398.355 1548.85 L398.355 1544.91 Q401.017 1542.16 405.601 1537.53 Q410.207 1532.88 411.388 1531.53 Q413.633 1529.01 414.513 1527.27 Q415.415 1525.51 415.415 1523.82 Q415.415 1521.07 413.471 1519.33 Q411.55 1517.6 408.448 1517.6 Q406.249 1517.6 403.795 1518.36 Q401.365 1519.13 398.587 1520.68 L398.587 1515.95 Q401.411 1514.82 403.865 1514.24 Q406.318 1513.66 408.355 1513.66 Q413.726 1513.66 416.92 1516.35 Q420.115 1519.03 420.115 1523.52 Q420.115 1525.65 419.304 1527.57 Q418.517 1529.47 416.411 1532.07 Q415.832 1532.74 412.73 1535.95 Q409.628 1539.15 403.98 1544.91 Z" fill="#9eb1be" fill-rule="nonzero" fill-opacity="1" /><path clip-path="url(#clip990)" d="M882.332 1518.36 L870.526 1536.81 L882.332 1536.81 L882.332 1518.36 M881.105 1514.29 L886.984 1514.29 L886.984 1536.81 L891.915 1536.81 L891.915 1540.7 L886.984 1540.7 L886.984 1548.85 L882.332 1548.85 L882.332 1540.7 L866.73 1540.7 L866.73 1536.19 L881.105 1514.29 Z" fill="#9eb1be" fill-rule="nonzero" fill-opacity="1" /><path clip-path="url(#clip990)" d="M1349.72 1529.7 Q1346.57 1529.7 1344.72 1531.86 Q1342.89 1534.01 1342.89 1537.76 Q1342.89 1541.49 1344.72 1543.66 Q1346.57 1545.82 1349.72 1545.82 Q1352.87 1545.82 1354.7 1543.66 Q1356.55 1541.49 1356.55 1537.76 Q1356.55 1534.01 1354.7 1531.86 Q1352.87 1529.7 1349.72 1529.7 M1359 1515.05 L1359 1519.31 Q1357.25 1518.48 1355.44 1518.04 Q1353.66 1517.6 1351.9 1517.6 Q1347.27 1517.6 1344.81 1520.72 Q1342.38 1523.85 1342.04 1530.17 Q1343.4 1528.15 1345.46 1527.09 Q1347.52 1526 1350 1526 Q1355.21 1526 1358.22 1529.17 Q1361.25 1532.32 1361.25 1537.76 Q1361.25 1543.08 1358.1 1546.3 Q1354.95 1549.52 1349.72 1549.52 Q1343.73 1549.52 1340.56 1544.94 Q1337.38 1540.33 1337.38 1531.6 Q1337.38 1523.41 1341.27 1518.55 Q1345.16 1513.66 1351.71 1513.66 Q1353.47 1513.66 1355.25 1514.01 Q1357.06 1514.36 1359 1515.05 Z" fill="#9eb1be" fill-rule="nonzero" fill-opacity="1" /><path clip-path="url(#clip990)" d="M1819.31 1532.44 Q1815.98 1532.44 1814.06 1534.22 Q1812.16 1536 1812.16 1539.13 Q1812.16 1542.25 1814.06 1544.03 Q1815.98 1545.82 1819.31 1545.82 Q1822.65 1545.82 1824.57 1544.03 Q1826.49 1542.23 1826.49 1539.13 Q1826.49 1536 1824.57 1534.22 Q1822.67 1532.44 1819.31 1532.44 M1814.64 1530.45 Q1811.63 1529.7 1809.94 1527.64 Q1808.27 1525.58 1808.27 1522.62 Q1808.27 1518.48 1811.21 1516.07 Q1814.17 1513.66 1819.31 1513.66 Q1824.47 1513.66 1827.41 1516.07 Q1830.35 1518.48 1830.35 1522.62 Q1830.35 1525.58 1828.66 1527.64 Q1827 1529.7 1824.01 1530.45 Q1827.39 1531.23 1829.27 1533.52 Q1831.16 1535.82 1831.16 1539.13 Q1831.16 1544.15 1828.08 1546.83 Q1825.03 1549.52 1819.31 1549.52 Q1813.59 1549.52 1810.52 1546.83 Q1807.46 1544.15 1807.46 1539.13 Q1807.46 1535.82 1809.36 1533.52 Q1811.26 1531.23 1814.64 1530.45 M1812.92 1523.06 Q1812.92 1525.75 1814.59 1527.25 Q1816.28 1528.76 1819.31 1528.76 Q1822.32 1528.76 1824.01 1527.25 Q1825.72 1525.75 1825.72 1523.06 Q1825.72 1520.38 1824.01 1518.87 Q1822.32 1517.37 1819.31 1517.37 Q1816.28 1517.37 1814.59 1518.87 Q1812.92 1520.38 1812.92 1523.06 Z" fill="#9eb1be" fill-rule="nonzero" fill-opacity="1" /><path clip-path="url(#clip990)" d="M2263.99 1544.91 L2271.63 1544.91 L2271.63 1518.55 L2263.32 1520.21 L2263.32 1515.95 L2271.59 1514.29 L2276.26 1514.29 L2276.26 1544.91 L2283.9 1544.91 L2283.9 1548.85 L2263.99 1548.85 L2263.99 1544.91 Z" fill="#9eb1be" fill-rule="nonzero" fill-opacity="1" /><path clip-path="url(#clip990)" d="M2303.35 1517.37 Q2299.73 1517.37 2297.91 1520.93 Q2296.1 1524.47 2296.1 1531.6 Q2296.1 1538.71 2297.91 1542.27 Q2299.73 1545.82 2303.35 1545.82 Q2306.98 1545.82 2308.79 1542.27 Q2310.61 1538.71 2310.61 1531.6 Q2310.61 1524.47 2308.79 1520.93 Q2306.98 1517.37 2303.35 1517.37 M2303.35 1513.66 Q2309.16 1513.66 2312.21 1518.27 Q2315.29 1522.85 2315.29 1531.6 Q2315.29 1540.33 2312.21 1544.94 Q2309.16 1549.52 2303.35 1549.52 Q2297.54 1549.52 2294.46 1544.94 Q2291.4 1540.33 2291.4 1531.6 Q2291.4 1522.85 2294.46 1518.27 Q2297.54 1513.66 2303.35 1513.66 Z" fill="#9eb1be" fill-rule="nonzero" fill-opacity="1" /><polyline clip-path="url(#clip990)" style="stroke:#adb2b7; stroke-linecap:round; stroke-linejoin:round; stroke-width:4; stroke-opacity:1; fill:none" points="110.881,1486.45 110.881,106.192 "/>
<polyline clip-path="url(#clip990)" style="stroke:#adb2b7; stroke-linecap:round; stroke-linejoin:round; stroke-width:4; stroke-opacity:1; fill:none" points="110.881,1486.45 129.779,1486.45 "/>
<polyline clip-path="url(#clip990)" style="stroke:#adb2b7; stroke-linecap:round; stroke-linejoin:round; stroke-width:4; stroke-opacity:1; fill:none" points="110.881,1026.36 129.779,1026.36 "/>
<polyline clip-path="url(#clip990)" style="stroke:#adb2b7; stroke-linecap:round; stroke-linejoin:round; stroke-width:4; stroke-opacity:1; fill:none" points="110.881,566.277 129.779,566.277 "/>
<polyline clip-path="url(#clip990)" style="stroke:#adb2b7; stroke-linecap:round; stroke-linejoin:round; stroke-width:4; stroke-opacity:1; fill:none" points="110.881,106.192 129.779,106.192 "/>
<path clip-path="url(#clip990)" d="M62.9365 1472.25 Q59.3254 1472.25 57.4967 1475.81 Q55.6912 1479.35 55.6912 1486.48 Q55.6912 1493.59 57.4967 1497.15 Q59.3254 1500.7 62.9365 1500.7 Q66.5707 1500.7 68.3763 1497.15 Q70.205 1493.59 70.205 1486.48 Q70.205 1479.35 68.3763 1475.81 Q66.5707 1472.25 62.9365 1472.25 M62.9365 1468.54 Q68.7467 1468.54 71.8022 1473.15 Q74.8809 1477.73 74.8809 1486.48 Q74.8809 1495.21 71.8022 1499.82 Q68.7467 1504.4 62.9365 1504.4 Q57.1264 1504.4 54.0477 1499.82 Q50.9921 1495.21 50.9921 1486.48 Q50.9921 1477.73 54.0477 1473.15 Q57.1264 1468.54 62.9365 1468.54 Z" fill="#9eb1be" fill-rule="nonzero" fill-opacity="1" /><path clip-path="url(#clip990)" d="M54.9736 1039.71 L62.6124 1039.71 L62.6124 1013.34 L54.3023 1015.01 L54.3023 1010.75 L62.5661 1009.08 L67.242 1009.08 L67.242 1039.71 L74.8809 1039.71 L74.8809 1043.64 L54.9736 1043.64 L54.9736 1039.71 Z" fill="#9eb1be" fill-rule="nonzero" fill-opacity="1" /><path clip-path="url(#clip990)" d="M58.5615 579.622 L74.8809 579.622 L74.8809 583.557 L52.9366 583.557 L52.9366 579.622 Q55.5986 576.868 60.1819 572.238 Q64.7883 567.585 65.9689 566.243 Q68.2143 563.72 69.0939 561.983 Q69.9967 560.224 69.9967 558.534 Q69.9967 555.78 68.0522 554.044 Q66.1309 552.308 63.0291 552.308 Q60.83 552.308 58.3763 553.071 Q55.9458 553.835 53.168 555.386 L53.168 550.664 Q55.9921 549.53 58.4458 548.951 Q60.8995 548.372 62.9365 548.372 Q68.3068 548.372 71.5013 551.058 Q74.6957 553.743 74.6957 558.233 Q74.6957 560.363 73.8855 562.284 Q73.0985 564.182 70.992 566.775 Q70.4133 567.446 67.3115 570.664 Q64.2096 573.858 58.5615 579.622 Z" fill="#9eb1be" fill-rule="nonzero" fill-opacity="1" /><path clip-path="url(#clip990)" d="M67.7513 104.838 Q71.1078 105.556 72.9827 107.824 Q74.8809 110.093 74.8809 113.426 Q74.8809 118.542 71.3624 121.343 Q67.8439 124.143 61.3624 124.143 Q59.1865 124.143 56.8717 123.704 Q54.5801 123.287 52.1264 122.43 L52.1264 117.917 Q54.0708 119.051 56.3856 119.63 Q58.7004 120.208 61.2236 120.208 Q65.6217 120.208 67.9133 118.472 Q70.2281 116.736 70.2281 113.426 Q70.2281 110.37 68.0754 108.657 Q65.9457 106.921 62.1263 106.921 L58.0986 106.921 L58.0986 103.079 L62.3115 103.079 Q65.7606 103.079 67.5893 101.713 Q69.418 100.324 69.418 97.7315 Q69.418 95.0695 67.5198 93.6575 Q65.6448 92.2223 62.1263 92.2223 Q60.205 92.2223 58.006 92.639 Q55.8069 93.0556 53.168 93.9352 L53.168 89.7686 Q55.8301 89.0279 58.1449 88.6575 Q60.4828 88.2871 62.543 88.2871 Q67.867 88.2871 70.9689 90.7177 Q74.0707 93.1251 74.0707 97.2454 Q74.0707 100.116 72.4272 102.106 Q70.7837 104.074 67.7513 104.838 Z" fill="#9eb1be" fill-rule="nonzero" fill-opacity="1" /><path clip-path="url(#clip990)" d="M136.604 25.7695 L128.184 25.7695 L125.753 35.4338 L134.231 35.4338 L136.604 25.7695 M132.264 9.30551 L129.255 21.3135 L137.704 21.3135 L140.742 9.30551 L145.371 9.30551 L142.391 21.3135 L151.419 21.3135 L151.419 25.7695 L141.263 25.7695 L138.89 35.4338 L148.091 35.4338 L148.091 39.8609 L137.762 39.8609 L134.752 51.84 L130.123 51.84 L133.103 39.8609 L124.625 39.8609 L121.645 51.84 L116.986 51.84 L119.995 39.8609 L110.881 39.8609 L110.881 35.4338 L121.066 35.4338 L123.497 25.7695 L114.179 25.7695 L114.179 21.3135 L124.625 21.3135 L127.576 9.30551 L132.264 9.30551 Z" fill="#adb2b7" fill-rule="nonzero" fill-opacity="1" /><path clip-path="url(#clip990)" d="M192.941 23.1654 Q188.658 23.1654 186.17 26.5218 Q183.681 29.8494 183.681 35.6653 Q183.681 41.4813 186.141 44.8377 Q188.629 48.1653 192.941 48.1653 Q197.194 48.1653 199.682 44.8088 Q202.171 41.4523 202.171 35.6653 Q202.171 29.9072 199.682 26.5508 Q197.194 23.1654 192.941 23.1654 M192.941 18.6515 Q199.885 18.6515 203.849 23.1654 Q207.813 27.6792 207.813 35.6653 Q207.813 43.6225 203.849 48.1653 Q199.885 52.6791 192.941 52.6791 Q185.967 52.6791 182.003 48.1653 Q178.068 43.6225 178.068 35.6653 Q178.068 27.6792 182.003 23.1654 Q185.967 18.6515 192.941 18.6515 Z" fill="#adb2b7" fill-rule="nonzero" fill-opacity="1" /><path clip-path="url(#clip990)" d="M221.789 46.9789 L221.789 64.1663 L216.436 64.1663 L216.436 19.4328 L221.789 19.4328 L221.789 24.3517 Q223.467 21.4582 226.013 20.0693 Q228.589 18.6515 232.148 18.6515 Q238.05 18.6515 241.725 23.339 Q245.429 28.0265 245.429 35.6653 Q245.429 43.3042 241.725 47.9916 Q238.05 52.6791 232.148 52.6791 Q228.589 52.6791 226.013 51.2902 Q223.467 49.8724 221.789 46.9789 M239.902 35.6653 Q239.902 29.7915 237.472 26.464 Q235.07 23.1075 230.846 23.1075 Q226.621 23.1075 224.19 26.464 Q221.789 29.7915 221.789 35.6653 Q221.789 41.5391 224.19 44.8956 Q226.621 48.2231 230.846 48.2231 Q235.07 48.2231 237.472 44.8956 Q239.902 41.5391 239.902 35.6653 Z" fill="#adb2b7" fill-rule="nonzero" fill-opacity="1" /><path clip-path="url(#clip990)" d="M281.974 34.3054 L281.974 36.9095 L257.495 36.9095 Q257.842 42.4072 260.793 45.3007 Q263.774 48.1653 269.069 48.1653 Q272.136 48.1653 275 47.4129 Q277.894 46.6606 280.73 45.156 L280.73 50.1907 Q277.865 51.406 274.856 52.0425 Q271.846 52.6791 268.75 52.6791 Q260.996 52.6791 256.453 48.1653 Q251.939 43.6514 251.939 35.9547 Q251.939 27.9975 256.222 23.339 Q260.533 18.6515 267.824 18.6515 Q274.364 18.6515 278.154 22.876 Q281.974 27.0716 281.974 34.3054 M276.65 32.7429 Q276.592 28.3737 274.19 25.7695 Q271.818 23.1654 267.882 23.1654 Q263.426 23.1654 260.735 25.6827 Q258.073 28.2001 257.668 32.7718 L276.65 32.7429 Z" fill="#adb2b7" fill-rule="nonzero" fill-opacity="1" /><path clip-path="url(#clip990)" d="M317.651 32.2799 L317.651 51.84 L312.327 51.84 L312.327 32.4535 Q312.327 27.8529 310.533 25.567 Q308.739 23.2811 305.151 23.2811 Q300.839 23.2811 298.351 26.03 Q295.863 28.7788 295.863 33.5241 L295.863 51.84 L290.51 51.84 L290.51 19.4328 L295.863 19.4328 L295.863 24.4675 Q297.772 21.545 300.347 20.0983 Q302.952 18.6515 306.337 18.6515 Q311.921 18.6515 314.786 22.1237 Q317.651 25.567 317.651 32.2799 Z" fill="#adb2b7" fill-rule="nonzero" fill-opacity="1" /><path clip-path="url(#clip990)" d="M359.664 23.1654 Q355.382 23.1654 352.893 26.5218 Q350.405 29.8494 350.405 35.6653 Q350.405 41.4813 352.865 44.8377 Q355.353 48.1653 359.664 48.1653 Q363.918 48.1653 366.406 44.8088 Q368.895 41.4523 368.895 35.6653 Q368.895 29.9072 366.406 26.5508 Q363.918 23.1654 359.664 23.1654 M359.664 18.6515 Q366.609 18.6515 370.573 23.1654 Q374.537 27.6792 374.537 35.6653 Q374.537 43.6225 370.573 48.1653 Q366.609 52.6791 359.664 52.6791 Q352.691 52.6791 348.727 48.1653 Q344.792 43.6225 344.792 35.6653 Q344.792 27.6792 348.727 23.1654 Q352.691 18.6515 359.664 18.6515 Z" fill="#adb2b7" fill-rule="nonzero" fill-opacity="1" /><path clip-path="url(#clip990)" d="M402.141 24.4096 Q401.244 23.8888 400.173 23.6573 Q399.132 23.3969 397.859 23.3969 Q393.345 23.3969 390.914 26.3482 Q388.513 29.2707 388.513 34.7683 L388.513 51.84 L383.16 51.84 L383.16 19.4328 L388.513 19.4328 L388.513 24.4675 Q390.191 21.5161 392.882 20.0983 Q395.573 18.6515 399.421 18.6515 Q399.971 18.6515 400.636 18.7383 Q401.302 18.7962 402.112 18.9409 L402.141 24.4096 Z" fill="#adb2b7" fill-rule="nonzero" fill-opacity="1" /><path clip-path="url(#clip990)" d="M428.009 24.3517 L428.009 6.81709 L433.333 6.81709 L433.333 51.84 L428.009 51.84 L428.009 46.9789 Q426.331 49.8724 423.755 51.2902 Q421.209 52.6791 417.621 52.6791 Q411.747 52.6791 408.044 47.9916 Q404.369 43.3042 404.369 35.6653 Q404.369 28.0265 408.044 23.339 Q411.747 18.6515 417.621 18.6515 Q421.209 18.6515 423.755 20.0693 Q426.331 21.4582 428.009 24.3517 M409.867 35.6653 Q409.867 41.5391 412.268 44.8956 Q414.699 48.2231 418.923 48.2231 Q423.148 48.2231 425.578 44.8956 Q428.009 41.5391 428.009 35.6653 Q428.009 29.7915 425.578 26.464 Q423.148 23.1075 418.923 23.1075 Q414.699 23.1075 412.268 26.464 Q409.867 29.7915 409.867 35.6653 Z" fill="#adb2b7" fill-rule="nonzero" fill-opacity="1" /><path clip-path="url(#clip990)" d="M472.019 34.3054 L472.019 36.9095 L447.54 36.9095 Q447.887 42.4072 450.839 45.3007 Q453.819 48.1653 459.114 48.1653 Q462.181 48.1653 465.046 47.4129 Q467.939 46.6606 470.775 45.156 L470.775 50.1907 Q467.91 51.406 464.901 52.0425 Q461.892 52.6791 458.796 52.6791 Q451.041 52.6791 446.498 48.1653 Q441.984 43.6514 441.984 35.9547 Q441.984 27.9975 446.267 23.339 Q450.578 18.6515 457.87 18.6515 Q464.409 18.6515 468.2 22.876 Q472.019 27.0716 472.019 34.3054 M466.695 32.7429 Q466.637 28.3737 464.235 25.7695 Q461.863 23.1654 457.928 23.1654 Q453.472 23.1654 450.781 25.6827 Q448.119 28.2001 447.714 32.7718 L466.695 32.7429 Z" fill="#adb2b7" fill-rule="nonzero" fill-opacity="1" /><path clip-path="url(#clip990)" d="M499.536 24.4096 Q498.639 23.8888 497.569 23.6573 Q496.527 23.3969 495.254 23.3969 Q490.74 23.3969 488.309 26.3482 Q485.908 29.2707 485.908 34.7683 L485.908 51.84 L480.555 51.84 L480.555 19.4328 L485.908 19.4328 L485.908 24.4675 Q487.586 21.5161 490.277 20.0983 Q492.968 18.6515 496.816 18.6515 Q497.366 18.6515 498.032 18.7383 Q498.697 18.7962 499.507 18.9409 L499.536 24.4096 Z" fill="#adb2b7" fill-rule="nonzero" fill-opacity="1" /><path clip-path="url(#clip990)" d="M525.78 20.3876 L525.78 25.4223 Q523.523 24.2649 521.093 23.6862 Q518.662 23.1075 516.058 23.1075 Q512.094 23.1075 510.097 24.3228 Q508.13 25.5381 508.13 27.9686 Q508.13 29.8204 509.548 30.891 Q510.966 31.9327 515.248 32.8876 L517.071 33.2926 Q522.742 34.5079 525.115 36.7359 Q527.516 38.935 527.516 42.8991 Q527.516 47.4129 523.928 50.046 Q520.369 52.6791 514.119 52.6791 Q511.515 52.6791 508.68 52.1583 Q505.873 51.6664 502.748 50.6537 L502.748 45.156 Q505.699 46.6896 508.564 47.4708 Q511.429 48.2231 514.235 48.2231 Q517.997 48.2231 520.022 46.95 Q522.048 45.6479 522.048 43.3042 Q522.048 41.134 520.572 39.9766 Q519.125 38.8192 514.177 37.7486 L512.325 37.3146 Q507.378 36.273 505.179 34.1318 Q502.979 31.9616 502.979 28.2001 Q502.979 23.6283 506.22 21.1399 Q509.461 18.6515 515.422 18.6515 Q518.373 18.6515 520.977 19.0855 Q523.581 19.5196 525.78 20.3876 Z" fill="#adb2b7" fill-rule="nonzero" fill-opacity="1" /><polyline clip-path="url(#clip991)" style="stroke:#000000; stroke-linecap:round; stroke-linejoin:round; stroke-width:4; stroke-opacity:1; fill:none" points="174.33,1486.45 409.328,1486.45 409.328,1026.36 644.325,1026.36 644.325,566.277 879.322,566.277 879.322,106.192 1114.32,106.192 1114.32,1486.45 1349.32,1486.45 1349.32,1026.36 1584.31,1026.36 1584.31,566.277 1819.31,566.277 1819.31,106.192 2054.31,106.192 2054.31,1486.45 2289.31,1486.45 2289.31,1026.36 "/>
</svg>
