<?xml version="1.0" encoding="utf-8"?>
<svg xmlns="http://www.w3.org/2000/svg" xmlns:xlink="http://www.w3.org/1999/xlink" width="600" height="400" viewBox="0 0 2400 1600">
<defs>
  <clipPath id="clip390">
    <rect x="0" y="0" width="2400" height="1600"/>
  </clipPath>
</defs>
<path clip-path="url(#clip390)" d="M0 1600 L2400 1600 L2400 0 L0 0  Z" fill="#282c34" fill-rule="evenodd" fill-opacity="1"/>
<defs>
  <clipPath id="clip391">
    <rect x="110" y="106" width="2243" height="1381"/>
  </clipPath>
</defs>
<path clip-path="url(#clip390)" d="M110.881 1486.45 L2352.76 1486.45 L2352.76 106.192 L110.881 106.192  Z" fill="#21252b" fill-rule="evenodd" fill-opacity="1"/>
<polyline clip-path="url(#clip391)" style="stroke:#adb2b7; stroke-linecap:round; stroke-linejoin:round; stroke-width:2; stroke-opacity:0.1; fill:none" points="171.389,1486.45 171.389,106.192 "/>
<polyline clip-path="url(#clip391)" style="stroke:#adb2b7; stroke-linecap:round; stroke-linejoin:round; stroke-width:2; stroke-opacity:0.1; fill:none" points="759.699,1486.45 759.699,106.192 "/>
<polyline clip-path="url(#clip391)" style="stroke:#adb2b7; stroke-linecap:round; stroke-linejoin:round; stroke-width:2; stroke-opacity:0.1; fill:none" points="1348.01,1486.45 1348.01,106.192 "/>
<polyline clip-path="url(#clip391)" style="stroke:#adb2b7; stroke-linecap:round; stroke-linejoin:round; stroke-width:2; stroke-opacity:0.1; fill:none" points="1936.32,1486.45 1936.32,106.192 "/>
<polyline clip-path="url(#clip391)" style="stroke:#adb2b7; stroke-linecap:round; stroke-linejoin:round; stroke-width:2; stroke-opacity:0.1; fill:none" points="110.881,1486.45 2352.76,1486.45 "/>
<polyline clip-path="url(#clip391)" style="stroke:#adb2b7; stroke-linecap:round; stroke-linejoin:round; stroke-width:2; stroke-opacity:0.1; fill:none" points="110.881,106.192 2352.76,106.192 "/>
<polyline clip-path="url(#clip390)" style="stroke:#adb2b7; stroke-linecap:round; stroke-linejoin:round; stroke-width:4; stroke-opacity:1; fill:none" points="110.881,1486.45 2352.76,1486.45 "/>
<polyline clip-path="url(#clip390)" style="stroke:#adb2b7; stroke-linecap:round; stroke-linejoin:round; stroke-width:4; stroke-opacity:1; fill:none" points="171.389,1486.45 171.389,1467.55 "/>
<polyline clip-path="url(#clip390)" style="stroke:#adb2b7; stroke-linecap:round; stroke-linejoin:round; stroke-width:4; stroke-opacity:1; fill:none" points="759.699,1486.45 759.699,1467.55 "/>
<polyline clip-path="url(#clip390)" style="stroke:#adb2b7; stroke-linecap:round; stroke-linejoin:round; stroke-width:4; stroke-opacity:1; fill:none" points="1348.01,1486.45 1348.01,1467.55 "/>
<polyline clip-path="url(#clip390)" style="stroke:#adb2b7; stroke-linecap:round; stroke-linejoin:round; stroke-width:4; stroke-opacity:1; fill:none" points="1936.32,1486.45 1936.32,1467.55 "/>
<path clip-path="url(#clip390)" d="M171.389 1517.37 Q167.778 1517.37 165.949 1520.93 Q164.143 1524.47 164.143 1531.6 Q164.143 1538.71 165.949 1542.27 Q167.778 1545.82 171.389 1545.82 Q175.023 1545.82 176.828 1542.27 Q178.657 1538.71 178.657 1531.6 Q178.657 1524.47 176.828 1520.93 Q175.023 1517.37 171.389 1517.37 M171.389 1513.66 Q177.199 1513.66 180.254 1518.27 Q183.333 1522.85 183.333 1531.6 Q183.333 1540.33 180.254 1544.94 Q177.199 1549.52 171.389 1549.52 Q165.578 1549.52 162.5 1544.94 Q159.444 1540.33 159.444 1531.6 Q159.444 1522.85 162.5 1518.27 Q165.578 1513.66 171.389 1513.66 Z" fill="#9eb1be" fill-rule="nonzero" fill-opacity="1" /><path clip-path="url(#clip390)" d="M723.392 1544.91 L739.711 1544.91 L739.711 1548.85 L717.767 1548.85 L717.767 1544.91 Q720.429 1542.16 725.012 1537.53 Q729.618 1532.88 730.799 1531.53 Q733.044 1529.01 733.924 1527.27 Q734.827 1525.51 734.827 1523.82 Q734.827 1521.07 732.882 1519.33 Q730.961 1517.6 727.859 1517.6 Q725.66 1517.6 723.206 1518.36 Q720.776 1519.13 717.998 1520.68 L717.998 1515.95 Q720.822 1514.82 723.276 1514.24 Q725.729 1513.66 727.766 1513.66 Q733.137 1513.66 736.331 1516.35 Q739.526 1519.03 739.526 1523.52 Q739.526 1525.65 738.715 1527.57 Q737.928 1529.47 735.822 1532.07 Q735.243 1532.74 732.141 1535.95 Q729.04 1539.15 723.392 1544.91 Z" fill="#9eb1be" fill-rule="nonzero" fill-opacity="1" /><path clip-path="url(#clip390)" d="M759.526 1517.37 Q755.914 1517.37 754.086 1520.93 Q752.28 1524.47 752.28 1531.6 Q752.28 1538.71 754.086 1542.27 Q755.914 1545.82 759.526 1545.82 Q763.16 1545.82 764.965 1542.27 Q766.794 1538.71 766.794 1531.6 Q766.794 1524.47 764.965 1520.93 Q763.16 1517.37 759.526 1517.37 M759.526 1513.66 Q765.336 1513.66 768.391 1518.27 Q771.47 1522.85 771.47 1531.6 Q771.47 1540.33 768.391 1544.94 Q765.336 1549.52 759.526 1549.52 Q753.715 1549.52 750.637 1544.94 Q747.581 1540.33 747.581 1531.6 Q747.581 1522.85 750.637 1518.27 Q753.715 1513.66 759.526 1513.66 Z" fill="#9eb1be" fill-rule="nonzero" fill-opacity="1" /><path clip-path="url(#clip390)" d="M789.687 1517.37 Q786.076 1517.37 784.248 1520.93 Q782.442 1524.47 782.442 1531.6 Q782.442 1538.71 784.248 1542.27 Q786.076 1545.82 789.687 1545.82 Q793.322 1545.82 795.127 1542.27 Q796.956 1538.71 796.956 1531.6 Q796.956 1524.47 795.127 1520.93 Q793.322 1517.37 789.687 1517.37 M789.687 1513.66 Q795.498 1513.66 798.553 1518.27 Q801.632 1522.85 801.632 1531.6 Q801.632 1540.33 798.553 1544.94 Q795.498 1549.52 789.687 1549.52 Q783.877 1549.52 780.799 1544.94 Q777.743 1540.33 777.743 1531.6 Q777.743 1522.85 780.799 1518.27 Q783.877 1513.66 789.687 1513.66 Z" fill="#9eb1be" fill-rule="nonzero" fill-opacity="1" /><path clip-path="url(#clip390)" d="M1321.1 1518.36 L1309.29 1536.81 L1321.1 1536.81 L1321.1 1518.36 M1319.87 1514.29 L1325.75 1514.29 L1325.75 1536.81 L1330.68 1536.81 L1330.68 1540.7 L1325.75 1540.7 L1325.75 1548.85 L1321.1 1548.85 L1321.1 1540.7 L1305.5 1540.7 L1305.5 1536.19 L1319.87 1514.29 Z" fill="#9eb1be" fill-rule="nonzero" fill-opacity="1" /><path clip-path="url(#clip390)" d="M1348.41 1517.37 Q1344.8 1517.37 1342.98 1520.93 Q1341.17 1524.47 1341.17 1531.6 Q1341.17 1538.71 1342.98 1542.27 Q1344.8 1545.82 1348.41 1545.82 Q1352.05 1545.82 1353.85 1542.27 Q1355.68 1538.71 1355.68 1531.6 Q1355.68 1524.47 1353.85 1520.93 Q1352.05 1517.37 1348.41 1517.37 M1348.41 1513.66 Q1354.22 1513.66 1357.28 1518.27 Q1360.36 1522.85 1360.36 1531.6 Q1360.36 1540.33 1357.28 1544.94 Q1354.22 1549.52 1348.41 1549.52 Q1342.6 1549.52 1339.53 1544.94 Q1336.47 1540.33 1336.47 1531.6 Q1336.47 1522.85 1339.53 1518.27 Q1342.6 1513.66 1348.41 1513.66 Z" fill="#9eb1be" fill-rule="nonzero" fill-opacity="1" /><path clip-path="url(#clip390)" d="M1378.58 1517.37 Q1374.97 1517.37 1373.14 1520.93 Q1371.33 1524.47 1371.33 1531.6 Q1371.33 1538.71 1373.14 1542.27 Q1374.97 1545.82 1378.58 1545.82 Q1382.21 1545.82 1384.02 1542.27 Q1385.85 1538.71 1385.85 1531.6 Q1385.85 1524.47 1384.02 1520.93 Q1382.21 1517.37 1378.58 1517.37 M1378.58 1513.66 Q1384.39 1513.66 1387.44 1518.27 Q1390.52 1522.85 1390.52 1531.6 Q1390.52 1540.33 1387.44 1544.94 Q1384.39 1549.52 1378.58 1549.52 Q1372.77 1549.52 1369.69 1544.94 Q1366.63 1540.33 1366.63 1531.6 Q1366.63 1522.85 1369.69 1518.27 Q1372.77 1513.66 1378.58 1513.66 Z" fill="#9eb1be" fill-rule="nonzero" fill-opacity="1" /><path clip-path="url(#clip390)" d="M1906.64 1529.7 Q1903.5 1529.7 1901.64 1531.86 Q1899.82 1534.01 1899.82 1537.76 Q1899.82 1541.49 1901.64 1543.66 Q1903.5 1545.82 1906.64 1545.82 Q1909.79 1545.82 1911.62 1543.66 Q1913.47 1541.49 1913.47 1537.76 Q1913.47 1534.01 1911.62 1531.86 Q1909.79 1529.7 1906.64 1529.7 M1915.93 1515.05 L1915.93 1519.31 Q1914.17 1518.48 1912.36 1518.04 Q1910.58 1517.6 1908.82 1517.6 Q1904.19 1517.6 1901.74 1520.72 Q1899.31 1523.85 1898.96 1530.17 Q1900.33 1528.15 1902.39 1527.09 Q1904.45 1526 1906.92 1526 Q1912.13 1526 1915.14 1529.17 Q1918.17 1532.32 1918.17 1537.76 Q1918.17 1543.08 1915.02 1546.3 Q1911.88 1549.52 1906.64 1549.52 Q1900.65 1549.52 1897.48 1544.94 Q1894.31 1540.33 1894.31 1531.6 Q1894.31 1523.41 1898.2 1518.55 Q1902.08 1513.66 1908.64 1513.66 Q1910.39 1513.66 1912.18 1514.01 Q1913.98 1514.36 1915.93 1515.05 Z" fill="#9eb1be" fill-rule="nonzero" fill-opacity="1" /><path clip-path="url(#clip390)" d="M1936.23 1517.37 Q1932.62 1517.37 1930.79 1520.93 Q1928.98 1524.47 1928.98 1531.6 Q1928.98 1538.71 1930.79 1542.27 Q1932.62 1545.82 1936.23 1545.82 Q1939.86 1545.82 1941.67 1542.27 Q1943.5 1538.71 1943.5 1531.6 Q1943.5 1524.47 1941.67 1520.93 Q1939.86 1517.37 1936.23 1517.37 M1936.23 1513.66 Q1942.04 1513.66 1945.09 1518.27 Q1948.17 1522.85 1948.17 1531.6 Q1948.17 1540.33 1945.09 1544.94 Q1942.04 1549.52 1936.23 1549.52 Q1930.42 1549.52 1927.34 1544.94 Q1924.28 1540.33 1924.28 1531.6 Q1924.28 1522.85 1927.34 1518.27 Q1930.42 1513.66 1936.23 1513.66 Z" fill="#9eb1be" fill-rule="nonzero" fill-opacity="1" /><path clip-path="url(#clip390)" d="M1966.39 1517.37 Q1962.78 1517.37 1960.95 1520.93 Q1959.14 1524.47 1959.14 1531.6 Q1959.14 1538.71 1960.95 1542.27 Q1962.78 1545.82 1966.39 1545.82 Q1970.02 1545.82 1971.83 1542.27 Q1973.66 1538.71 1973.66 1531.6 Q1973.66 1524.47 1971.83 1520.93 Q1970.02 1517.37 1966.39 1517.37 M1966.39 1513.66 Q1972.2 1513.66 1975.26 1518.27 Q1978.33 1522.85 1978.33 1531.6 Q1978.33 1540.33 1975.26 1544.94 Q1972.2 1549.52 1966.39 1549.52 Q1960.58 1549.52 1957.5 1544.94 Q1954.45 1540.33 1954.45 1531.6 Q1954.45 1522.85 1957.5 1518.27 Q1960.58 1513.66 1966.39 1513.66 Z" fill="#9eb1be" fill-rule="nonzero" fill-opacity="1" /><polyline clip-path="url(#clip390)" style="stroke:#adb2b7; stroke-linecap:round; stroke-linejoin:round; stroke-width:4; stroke-opacity:1; fill:none" points="110.881,1486.45 110.881,106.192 "/>
<polyline clip-path="url(#clip390)" style="stroke:#adb2b7; stroke-linecap:round; stroke-linejoin:round; stroke-width:4; stroke-opacity:1; fill:none" points="110.881,1486.45 129.779,1486.45 "/>
<polyline clip-path="url(#clip390)" style="stroke:#adb2b7; stroke-linecap:round; stroke-linejoin:round; stroke-width:4; stroke-opacity:1; fill:none" points="110.881,106.192 129.779,106.192 "/>
<path clip-path="url(#clip390)" d="M62.9365 1472.25 Q59.3254 1472.25 57.4967 1475.81 Q55.6912 1479.35 55.6912 1486.48 Q55.6912 1493.59 57.4967 1497.15 Q59.3254 1500.7 62.9365 1500.7 Q66.5707 1500.7 68.3763 1497.15 Q70.205 1493.59 70.205 1486.48 Q70.205 1479.35 68.3763 1475.81 Q66.5707 1472.25 62.9365 1472.25 M62.9365 1468.54 Q68.7467 1468.54 71.8022 1473.15 Q74.8809 1477.73 74.8809 1486.48 Q74.8809 1495.21 71.8022 1499.82 Q68.7467 1504.4 62.9365 1504.4 Q57.1264 1504.4 54.0477 1499.82 Q50.9921 1495.21 50.9921 1486.48 Q50.9921 1477.73 54.0477 1473.15 Q57.1264 1468.54 62.9365 1468.54 Z" fill="#9eb1be" fill-rule="nonzero" fill-opacity="1" /><path clip-path="url(#clip390)" d="M54.9736 119.537 L62.6124 119.537 L62.6124 93.1714 L54.3023 94.838 L54.3023 90.5788 L62.5661 88.9121 L67.242 88.9121 L67.242 119.537 L74.8809 119.537 L74.8809 123.472 L54.9736 123.472 L54.9736 119.537 Z" fill="#9eb1be" fill-rule="nonzero" fill-opacity="1" /><path clip-path="url(#clip390)" d="M136.604 25.7695 L128.184 25.7695 L125.753 35.4338 L134.231 35.4338 L136.604 25.7695 M132.264 9.30551 L129.255 21.3135 L137.704 21.3135 L140.742 9.30551 L145.371 9.30551 L142.391 21.3135 L151.419 21.3135 L151.419 25.7695 L141.263 25.7695 L138.89 35.4338 L148.091 35.4338 L148.091 39.8609 L137.762 39.8609 L134.752 51.84 L130.123 51.84 L133.103 39.8609 L124.625 39.8609 L121.645 51.84 L116.986 51.84 L119.995 39.8609 L110.881 39.8609 L110.881 35.4338 L121.066 35.4338 L123.497 25.7695 L114.179 25.7695 L114.179 21.3135 L124.625 21.3135 L127.576 9.30551 L132.264 9.30551 Z" fill="#adb2b7" fill-rule="nonzero" fill-opacity="1" /><path clip-path="url(#clip390)" d="M192.941 23.1654 Q188.658 23.1654 186.17 26.5218 Q183.681 29.8494 183.681 35.6653 Q183.681 41.4813 186.141 44.8377 Q188.629 48.1653 192.941 48.1653 Q197.194 48.1653 199.682 44.8088 Q202.171 41.4523 202.171 35.6653 Q202.171 29.9072 199.682 26.5508 Q197.194 23.1654 192.941 23.1654 M192.941 18.6515 Q199.885 18.6515 203.849 23.1654 Q207.813 27.6792 207.813 35.6653 Q207.813 43.6225 203.849 48.1653 Q199.885 52.6791 192.941 52.6791 Q185.967 52.6791 182.003 48.1653 Q178.068 43.6225 178.068 35.6653 Q178.068 27.6792 182.003 23.1654 Q185.967 18.6515 192.941 18.6515 Z" fill="#adb2b7" fill-rule="nonzero" fill-opacity="1" /><path clip-path="url(#clip390)" d="M221.789 46.9789 L221.789 64.1663 L216.436 64.1663 L216.436 19.4328 L221.789 19.4328 L221.789 24.3517 Q223.467 21.4582 226.013 20.0693 Q228.589 18.6515 232.148 18.6515 Q238.05 18.6515 241.725 23.339 Q245.429 28.0265 245.429 35.6653 Q245.429 43.3042 241.725 47.9916 Q238.05 52.6791 232.148 52.6791 Q228.589 52.6791 226.013 51.2902 Q223.467 49.8724 221.789 46.9789 M239.902 35.6653 Q239.902 29.7915 237.472 26.464 Q235.07 23.1075 230.846 23.1075 Q226.621 23.1075 224.19 26.464 Q221.789 29.7915 221.789 35.6653 Q221.789 41.5391 224.19 44.8956 Q226.621 48.2231 230.846 48.2231 Q235.07 48.2231 237.472 44.8956 Q239.902 41.5391 239.902 35.6653 Z" fill="#adb2b7" fill-rule="nonzero" fill-opacity="1" /><path clip-path="url(#clip390)" d="M281.974 34.3054 L281.974 36.9095 L257.495 36.9095 Q257.842 42.4072 260.793 45.3007 Q263.774 48.1653 269.069 48.1653 Q272.136 48.1653 275 47.4129 Q277.894 46.6606 280.73 45.156 L280.73 50.1907 Q277.865 51.406 274.856 52.0425 Q271.846 52.6791 268.75 52.6791 Q260.996 52.6791 256.453 48.1653 Q251.939 43.6514 251.939 35.9547 Q251.939 27.9975 256.222 23.339 Q260.533 18.6515 267.824 18.6515 Q274.364 18.6515 278.154 22.876 Q281.974 27.0716 281.974 34.3054 M276.65 32.7429 Q276.592 28.3737 274.19 25.7695 Q271.818 23.1654 267.882 23.1654 Q263.426 23.1654 260.735 25.6827 Q258.073 28.2001 257.668 32.7718 L276.65 32.7429 Z" fill="#adb2b7" fill-rule="nonzero" fill-opacity="1" /><path clip-path="url(#clip390)" d="M317.651 32.2799 L317.651 51.84 L312.327 51.84 L312.327 32.4535 Q312.327 27.8529 310.533 25.567 Q308.739 23.2811 305.151 23.2811 Q300.839 23.2811 298.351 26.03 Q295.863 28.7788 295.863 33.5241 L295.863 51.84 L290.51 51.84 L290.51 19.4328 L295.863 19.4328 L295.863 24.4675 Q297.772 21.545 300.347 20.0983 Q302.952 18.6515 306.337 18.6515 Q311.921 18.6515 314.786 22.1237 Q317.651 25.567 317.651 32.2799 Z" fill="#adb2b7" fill-rule="nonzero" fill-opacity="1" /><path clip-path="url(#clip390)" d="M359.664 23.1654 Q355.382 23.1654 352.893 26.5218 Q350.405 29.8494 350.405 35.6653 Q350.405 41.4813 352.865 44.8377 Q355.353 48.1653 359.664 48.1653 Q363.918 48.1653 366.406 44.8088 Q368.895 41.4523 368.895 35.6653 Q368.895 29.9072 366.406 26.5508 Q363.918 23.1654 359.664 23.1654 M359.664 18.6515 Q366.609 18.6515 370.573 23.1654 Q374.537 27.6792 374.537 35.6653 Q374.537 43.6225 370.573 48.1653 Q366.609 52.6791 359.664 52.6791 Q352.691 52.6791 348.727 48.1653 Q344.792 43.6225 344.792 35.6653 Q344.792 27.6792 348.727 23.1654 Q352.691 18.6515 359.664 18.6515 Z" fill="#adb2b7" fill-rule="nonzero" fill-opacity="1" /><path clip-path="url(#clip390)" d="M402.141 24.4096 Q401.244 23.8888 400.173 23.6573 Q399.132 23.3969 397.859 23.3969 Q393.345 23.3969 390.914 26.3482 Q388.513 29.2707 388.513 34.7683 L388.513 51.84 L383.16 51.84 L383.16 19.4328 L388.513 19.4328 L388.513 24.4675 Q390.191 21.5161 392.882 20.0983 Q395.573 18.6515 399.421 18.6515 Q399.971 18.6515 400.636 18.7383 Q401.302 18.7962 402.112 18.9409 L402.141 24.4096 Z" fill="#adb2b7" fill-rule="nonzero" fill-opacity="1" /><path clip-path="url(#clip390)" d="M428.009 24.3517 L428.009 6.81709 L433.333 6.81709 L433.333 51.84 L428.009 51.84 L428.009 46.9789 Q426.331 49.8724 423.755 51.2902 Q421.209 52.6791 417.621 52.6791 Q411.747 52.6791 408.044 47.9916 Q404.369 43.3042 404.369 35.6653 Q404.369 28.0265 408.044 23.339 Q411.747 18.6515 417.621 18.6515 Q421.209 18.6515 423.755 20.0693 Q426.331 21.4582 428.009 24.3517 M409.867 35.6653 Q409.867 41.5391 412.268 44.8956 Q414.699 48.2231 418.923 48.2231 Q423.148 48.2231 425.578 44.8956 Q428.009 41.5391 428.009 35.6653 Q428.009 29.7915 425.578 26.464 Q423.148 23.1075 418.923 23.1075 Q414.699 23.1075 412.268 26.464 Q409.867 29.7915 409.867 35.6653 Z" fill="#adb2b7" fill-rule="nonzero" fill-opacity="1" /><path clip-path="url(#clip390)" d="M472.019 34.3054 L472.019 36.9095 L447.54 36.9095 Q447.887 42.4072 450.839 45.3007 Q453.819 48.1653 459.114 48.1653 Q462.181 48.1653 465.046 47.4129 Q467.939 46.6606 470.775 45.156 L470.775 50.1907 Q467.91 51.406 464.901 52.0425 Q461.892 52.6791 458.796 52.6791 Q451.041 52.6791 446.498 48.1653 Q441.984 43.6514 441.984 35.9547 Q441.984 27.9975 446.267 23.339 Q450.578 18.6515 457.87 18.6515 Q464.409 18.6515 468.2 22.876 Q472.019 27.0716 472.019 34.3054 M466.695 32.7429 Q466.637 28.3737 464.235 25.7695 Q461.863 23.1654 457.928 23.1654 Q453.472 23.1654 450.781 25.6827 Q448.119 28.2001 447.714 32.7718 L466.695 32.7429 Z" fill="#adb2b7" fill-rule="nonzero" fill-opacity="1" /><path clip-path="url(#clip390)" d="M499.536 24.4096 Q498.639 23.8888 497.569 23.6573 Q496.527 23.3969 495.254 23.3969 Q490.74 23.3969 488.309 26.3482 Q485.908 29.2707 485.908 34.7683 L485.908 51.84 L480.555 51.84 L480.555 19.4328 L485.908 19.4328 L485.908 24.4675 Q487.586 21.5161 490.277 20.0983 Q492.968 18.6515 496.816 18.6515 Q497.366 18.6515 498.032 18.7383 Q498.697 18.7962 499.507 18.9409 L499.536 24.4096 Z" fill="#adb2b7" fill-rule="nonzero" fill-opacity="1" /><path clip-path="url(#clip390)" d="M525.78 20.3876 L525.78 25.4223 Q523.523 24.2649 521.093 23.6862 Q518.662 23.1075 516.058 23.1075 Q512.094 23.1075 510.097 24.3228 Q508.13 25.5381 508.13 27.9686 Q508.13 29.8204 509.548 30.891 Q510.966 31.9327 515.248 32.8876 L517.071 33.2926 Q522.742 34.5079 525.115 36.7359 Q527.516 38.935 527.516 42.8991 Q527.516 47.4129 523.928 50.046 Q520.369 52.6791 514.119 52.6791 Q511.515 52.6791 508.68 52.1583 Q505.873 51.6664 502.748 50.6537 L502.748 45.156 Q505.699 46.6896 508.564 47.4708 Q511.429 48.2231 514.235 48.2231 Q517.997 48.2231 520.022 46.95 Q522.048 45.6479 522.048 43.3042 Q522.048 41.134 520.572 39.9766 Q519.125 38.8192 514.177 37.7486 L512.325 37.3146 Q507.378 36.273 505.179 34.1318 Q502.979 31.9616 502.979 28.2001 Q502.979 23.6283 506.22 21.1399 Q509.461 18.6515 515.422 18.6515 Q518.373 18.6515 520.977 19.0855 Q523.581 19.5196 525.78 20.3876 Z" fill="#adb2b7" fill-rule="nonzero" fill-opacity="1" /><polyline clip-path="url(#clip391)" style="stroke:#000000; stroke-linecap:round; stroke-linejoin:round; stroke-width:4; stroke-opacity:1; fill:none" points="174.33,1486.45 177.272,1486.45 180.213,1486.45 183.155,1486.45 186.096,1486.45 189.038,1486.45 191.979,1486.45 194.921,1486.45 197.863,1486.45 200.804,1486.45 203.746,1486.45 206.687,1486.45 209.629,1486.45 212.57,1486.45 215.512,1486.45 218.453,1486.45 221.395,1486.45 224.337,1486.45 227.278,1486.45 230.22,1486.45 233.161,1486.45 236.103,1486.45 239.044,1486.45 241.986,1486.45 241.986,106.192 244.927,106.192 244.927,1486.45 247.869,1486.45 247.869,106.192 250.811,106.192 250.811,1486.45 253.752,1486.45 256.694,1486.45 259.635,1486.45 262.577,1486.45 265.518,1486.45 268.46,1486.45 271.401,1486.45 271.401,106.192 274.343,106.192 277.285,106.192 280.226,106.192 280.226,1486.45 283.168,1486.45 283.168,106.192 286.109,106.192 289.051,106.192 289.051,1486.45 291.992,1486.45 294.934,1486.45 297.875,1486.45 297.875,106.192 300.817,106.192 303.759,106.192 306.7,106.192 309.642,106.192 312.583,106.192 315.525,106.192 318.466,106.192 321.408,106.192 324.349,106.192 327.291,106.192 330.232,106.192 333.174,106.192 336.116,106.192 339.057,106.192 341.999,106.192 344.94,106.192 347.882,106.192 350.823,106.192 353.765,106.192 356.706,106.192 359.648,106.192 362.59,106.192 365.531,106.192 368.473,106.192 371.414,106.192 374.356,106.192 377.297,106.192 380.239,106.192 383.18,106.192 386.122,106.192 389.064,106.192 392.005,106.192 394.947,106.192 397.888,106.192 400.83,106.192 403.771,106.192 406.713,106.192 409.654,106.192 412.596,106.192 415.538,106.192 418.479,106.192 421.421,106.192 424.362,106.192 427.304,106.192 430.245,106.192 433.187,106.192 436.128,106.192 436.128,1486.45 439.07,1486.45 442.011,1486.45 442.011,106.192 444.953,106.192 447.895,106.192 447.895,1486.45 450.836,1486.45 450.836,106.192 453.778,106.192 456.719,106.192 459.661,106.192 462.602,106.192 465.544,106.192 468.485,106.192 471.427,106.192 474.369,106.192 477.31,106.192 480.252,106.192 483.193,106.192 486.135,106.192 489.076,106.192 492.018,106.192 494.959,106.192 497.901,106.192 500.843,106.192 503.784,106.192 506.726,106.192 509.667,106.192 512.609,106.192 515.55,106.192 518.492,106.192 521.433,106.192 524.375,106.192 527.317,106.192 530.258,106.192 533.2,106.192 536.141,106.192 539.083,106.192 542.024,106.192 544.966,106.192 547.907,106.192 550.849,106.192 550.849,1486.45 553.79,1486.45 556.732,1486.45 556.732,106.192 559.674,106.192 562.615,106.192 565.557,106.192 565.557,1486.45 568.498,1486.45 571.44,1486.45 574.381,1486.45 577.323,1486.45 580.264,1486.45 583.206,1486.45 586.148,1486.45 586.148,106.192 589.089,106.192 592.031,106.192 594.972,106.192 597.914,106.192 600.855,106.192 600.855,1486.45 603.797,1486.45 606.738,1486.45 609.68,1486.45 609.68,106.192 612.622,106.192 612.622,1486.45 615.563,1486.45 618.505,1486.45 618.505,106.192 621.446,106.192 624.388,106.192 627.329,106.192 630.271,106.192 633.212,106.192 636.154,106.192 639.096,106.192 639.096,1486.45 642.037,1486.45 642.037,106.192 644.979,106.192 647.92,106.192 650.862,106.192 650.862,1486.45 653.803,1486.45 656.745,1486.45 659.686,1486.45 662.628,1486.45 665.569,1486.45 668.511,1486.45 671.453,1486.45 674.394,1486.45 677.336,1486.45 677.336,106.192 680.277,106.192 683.219,106.192 683.219,1486.45 686.16,1486.45 689.102,1486.45 692.043,1486.45 692.043,106.192 694.985,106.192 697.927,106.192 697.927,1486.45 700.868,1486.45 703.81,1486.45 706.751,1486.45 709.693,1486.45 709.693,106.192 712.634,106.192 712.634,1486.45 715.576,1486.45 718.517,1486.45 721.459,1486.45 724.401,1486.45 727.342,1486.45 727.342,106.192 730.284,106.192 733.225,106.192 736.167,106.192 739.108,106.192 742.05,106.192 744.991,106.192 747.933,106.192 750.875,106.192 753.816,106.192 756.758,106.192 759.699,106.192 759.699,1486.45 762.641,1486.45 765.582,1486.45 768.524,1486.45 771.465,1486.45 771.465,106.192 774.407,106.192 777.348,106.192 780.29,106.192 780.29,1486.45 783.232,1486.45 783.232,106.192 786.173,106.192 789.115,106.192 792.056,106.192 794.998,106.192 797.939,106.192 800.881,106.192 803.822,106.192 806.764,106.192 809.706,106.192 812.647,106.192 815.589,106.192 818.53,106.192 821.472,106.192 824.413,106.192 827.355,106.192 830.296,106.192 833.238,106.192 836.18,106.192 839.121,106.192 842.063,106.192 845.004,106.192 847.946,106.192 850.887,106.192 853.829,106.192 856.77,106.192 859.712,106.192 862.654,106.192 865.595,106.192 868.537,106.192 871.478,106.192 874.42,106.192 877.361,106.192 877.361,1486.45 880.303,1486.45 883.244,1486.45 886.186,1486.45 886.186,106.192 889.127,106.192 892.069,106.192 895.011,106.192 895.011,1486.45 897.952,1486.45 897.952,106.192 900.894,106.192 903.835,106.192 906.777,106.192 909.718,106.192 912.66,106.192 915.601,106.192 918.543,106.192 921.485,106.192 921.485,1486.45 924.426,1486.45 927.368,1486.45 930.309,1486.45 930.309,106.192 933.251,106.192 936.192,106.192 939.134,106.192 942.075,106.192 945.017,106.192 945.017,1486.45 947.959,1486.45 950.9,1486.45 953.842,1486.45 956.783,1486.45 956.783,106.192 959.725,106.192 962.666,106.192 965.608,106.192 968.549,106.192 968.549,1486.45 971.491,1486.45 974.433,1486.45 974.433,106.192 977.374,106.192 977.374,1486.45 980.316,1486.45 983.257,1486.45 986.199,1486.45 989.14,1486.45 992.082,1486.45 995.023,1486.45 995.023,106.192 997.965,106.192 1000.91,106.192 1003.85,106.192 1006.79,106.192 1009.73,106.192 1012.67,106.192 1015.61,106.192 1018.56,106.192 1021.5,106.192 1021.5,1486.45 1024.44,1486.45 1027.38,1486.45 1030.32,1486.45 1030.32,106.192 1033.26,106.192 1033.26,1486.45 1036.21,1486.45 1039.15,1486.45 1042.09,1486.45 1045.03,1486.45 1047.97,1486.45 1050.91,1486.45 1053.85,1486.45 1056.8,1486.45 1059.74,1486.45 1062.68,1486.45 1065.62,1486.45 1068.56,1486.45 1068.56,106.192 1071.5,106.192 1074.45,106.192 1077.39,106.192 1080.33,106.192 1080.33,1486.45 1083.27,1486.45 1083.27,106.192 1086.21,106.192 1089.15,106.192 1092.09,106.192 1095.04,106.192 1097.98,106.192 1097.98,1486.45 1100.92,1486.45 1100.92,106.192 1103.86,106.192 1103.86,1486.45 1106.8,1486.45 1106.8,106.192 1109.74,106.192 1112.69,106.192 1115.63,106.192 1118.57,106.192 1121.51,106.192 1124.45,106.192 1127.39,106.192 1127.39,1486.45 1130.33,1486.45 1130.33,106.192 1133.28,106.192 1136.22,106.192 1139.16,106.192 1142.1,106.192 1145.04,106.192 1147.98,106.192 1150.93,106.192 1153.87,106.192 1156.81,106.192 1159.75,106.192 1162.69,106.192 1165.63,106.192 1168.58,106.192 1171.52,106.192 1171.52,1486.45 1174.46,1486.45 1174.46,106.192 1177.4,106.192 1180.34,106.192 1183.28,106.192 1186.22,106.192 1189.17,106.192 1192.11,106.192 1195.05,106.192 1197.99,106.192 1200.93,106.192 1203.87,106.192 1206.82,106.192 1209.76,106.192 1212.7,106.192 1215.64,106.192 1215.64,1486.45 1218.58,1486.45 1221.52,1486.45 1224.46,1486.45 1227.41,1486.45 1227.41,106.192 1230.35,106.192 1233.29,106.192 1236.23,106.192 1236.23,1486.45 1239.17,1486.45 1242.11,1486.45 1245.06,1486.45 1248,1486.45 1248,106.192 1250.94,106.192 1253.88,106.192 1256.82,106.192 1259.76,106.192 1262.7,106.192 1265.65,106.192 1268.59,106.192 1271.53,106.192 1271.53,1486.45 1274.47,1486.45 1274.47,106.192 1277.41,106.192 1280.35,106.192 1283.3,106.192 1283.3,1486.45 1286.24,1486.45 1289.18,1486.45 1289.18,106.192 1292.12,106.192 1295.06,106.192 1298,106.192 1300.94,106.192 1303.89,106.192 1306.83,106.192 1309.77,106.192 1312.71,106.192 1315.65,106.192 1318.59,106.192 1321.54,106.192 1324.48,106.192 1327.42,106.192 1330.36,106.192 1333.3,106.192 1336.24,106.192 1339.19,106.192 1342.13,106.192 1345.07,106.192 1348.01,106.192 1350.95,106.192 1353.89,106.192 1356.83,106.192 1359.78,106.192 1362.72,106.192 1365.66,106.192 1368.6,106.192 1371.54,106.192 1374.48,106.192 1377.43,106.192 1380.37,106.192 1383.31,106.192 1386.25,106.192 1389.19,106.192 1392.13,106.192 1395.07,106.192 1395.07,1486.45 1398.02,1486.45 1398.02,106.192 1400.96,106.192 1403.9,106.192 1406.84,106.192 1409.78,106.192 1412.72,106.192 1415.67,106.192 1418.61,106.192 1421.55,106.192 1424.49,106.192 1427.43,106.192 1430.37,106.192 1433.31,106.192 1436.26,106.192 1439.2,106.192 1439.2,1486.45 1442.14,1486.45 1445.08,1486.45 1445.08,106.192 1448.02,106.192 1450.96,106.192 1453.91,106.192 1456.85,106.192 1459.79,106.192 1462.73,106.192 1465.67,106.192 1468.61,106.192 1471.55,106.192 1474.5,106.192 1477.44,106.192 1480.38,106.192 1483.32,106.192 1483.32,1486.45 1486.26,1486.45 1486.26,106.192 1489.2,106.192 1489.2,1486.45 1492.15,1486.45 1492.15,106.192 1495.09,106.192 1498.03,106.192 1500.97,106.192 1503.91,106.192 1506.85,106.192 1509.8,106.192 1512.74,106.192 1515.68,106.192 1518.62,106.192 1521.56,106.192 1524.5,106.192 1527.44,106.192 1530.39,106.192 1533.33,106.192 1536.27,106.192 1539.21,106.192 1542.15,106.192 1545.09,106.192 1548.04,106.192 1550.98,106.192 1553.92,106.192 1556.86,106.192 1559.8,106.192 1562.74,106.192 1565.68,106.192 1568.63,106.192 1571.57,106.192 1574.51,106.192 1577.45,106.192 1580.39,106.192 1583.33,106.192 1586.28,106.192 1589.22,106.192 1592.16,106.192 1595.1,106.192 1598.04,106.192 1600.98,106.192 1603.92,106.192 1606.87,106.192 1609.81,106.192 1612.75,106.192 1615.69,106.192 1618.63,106.192 1621.57,106.192 1624.52,106.192 1627.46,106.192 1630.4,106.192 1633.34,106.192 1636.28,106.192 1639.22,106.192 1642.17,106.192 1645.11,106.192 1648.05,106.192 1650.99,106.192 1650.99,1486.45 1653.93,1486.45 1653.93,106.192 1656.87,106.192 1659.81,106.192 1662.76,106.192 1662.76,1486.45 1665.7,1486.45 1668.64,1486.45 1671.58,1486.45 1674.52,1486.45 1674.52,106.192 1677.46,106.192 1680.41,106.192 1683.35,106.192 1686.29,106.192 1689.23,106.192 1692.17,106.192 1695.11,106.192 1698.05,106.192 1701,106.192 1703.94,106.192 1706.88,106.192 1709.82,106.192 1712.76,106.192 1715.7,106.192 1718.65,106.192 1721.59,106.192 1724.53,106.192 1727.47,106.192 1730.41,106.192 1733.35,106.192 1736.29,106.192 1739.24,106.192 1742.18,106.192 1745.12,106.192 1748.06,106.192 1751,106.192 1753.94,106.192 1756.89,106.192 1759.83,106.192 1762.77,106.192 1765.71,106.192 1768.65,106.192 1771.59,106.192 1774.53,106.192 1777.48,106.192 1780.42,106.192 1783.36,106.192 1786.3,106.192 1789.24,106.192 1792.18,106.192 1795.13,106.192 1798.07,106.192 1798.07,1486.45 1801.01,1486.45 1803.95,1486.45 1806.89,1486.45 1806.89,106.192 1809.83,106.192 1812.78,106.192 1815.72,106.192 1818.66,106.192 1821.6,106.192 1824.54,106.192 1827.48,106.192 1830.42,106.192 1833.37,106.192 1836.31,106.192 1839.25,106.192 1842.19,106.192 1845.13,106.192 1848.07,106.192 1851.02,106.192 1853.96,106.192 1856.9,106.192 1859.84,106.192 1862.78,106.192 1865.72,106.192 1865.72,1486.45 1868.66,1486.45 1871.61,1486.45 1871.61,106.192 1874.55,106.192 1874.55,1486.45 1877.49,1486.45 1877.49,106.192 1880.43,106.192 1883.37,106.192 1886.31,106.192 1889.26,106.192 1892.2,106.192 1892.2,1486.45 1895.14,1486.45 1898.08,1486.45 1898.08,106.192 1901.02,106.192 1903.96,106.192 1906.9,106.192 1906.9,1486.45 1909.85,1486.45 1909.85,106.192 1912.79,106.192 1915.73,106.192 1918.67,106.192 1921.61,106.192 1924.55,106.192 1927.5,106.192 1930.44,106.192 1933.38,106.192 1936.32,106.192 1939.26,106.192 1942.2,106.192 1945.14,106.192 1948.09,106.192 1951.03,106.192 1953.97,106.192 1956.91,106.192 1959.85,106.192 1962.79,106.192 1965.74,106.192 1968.68,106.192 1971.62,106.192 1974.56,106.192 1977.5,106.192 1980.44,106.192 1983.39,106.192 1983.39,1486.45 1986.33,1486.45 1989.27,1486.45 1989.27,106.192 1992.21,106.192 1995.15,106.192 1998.09,106.192 2001.03,106.192 2003.98,106.192 2006.92,106.192 2009.86,106.192 2012.8,106.192 2015.74,106.192 2018.68,106.192 2021.63,106.192 2021.63,1486.45 2024.57,1486.45 2024.57,106.192 2027.51,106.192 2027.51,1486.45 2030.45,1486.45 2033.39,1486.45 2033.39,106.192 2036.33,106.192 2039.27,106.192 2039.27,1486.45 2042.22,1486.45 2045.16,1486.45 2045.16,106.192 2048.1,106.192 2051.04,106.192 2053.98,106.192 2056.92,106.192 2059.87,106.192 2062.81,106.192 2065.75,106.192 2065.75,1486.45 2068.69,1486.45 2068.69,106.192 2071.63,106.192 2074.57,106.192 2077.51,106.192 2080.46,106.192 2083.4,106.192 2086.34,106.192 2089.28,106.192 2092.22,106.192 2095.16,106.192 2098.11,106.192 2101.05,106.192 2103.99,106.192 2106.93,106.192 2109.87,106.192 2112.81,106.192 2115.75,106.192 2118.7,106.192 2121.64,106.192 2124.58,106.192 2127.52,106.192 2130.46,106.192 2133.4,106.192 2136.35,106.192 2139.29,106.192 2142.23,106.192 2145.17,106.192 2148.11,106.192 2148.11,1486.45 2151.05,1486.45 2151.05,106.192 2154,106.192 2156.94,106.192 2159.88,106.192 2162.82,106.192 2165.76,106.192 2168.7,106.192 2171.64,106.192 2174.59,106.192 2177.53,106.192 2180.47,106.192 2183.41,106.192 2186.35,106.192 2189.29,106.192 2192.24,106.192 2195.18,106.192 2198.12,106.192 2201.06,106.192 2204,106.192 2206.94,106.192 2209.88,106.192 2212.83,106.192 2215.77,106.192 2218.71,106.192 2221.65,106.192 2224.59,106.192 2227.53,106.192 2230.48,106.192 2233.42,106.192 2236.36,106.192 2239.3,106.192 2242.24,106.192 2242.24,1486.45 2245.18,1486.45 2245.18,106.192 2248.12,106.192 2251.07,106.192 2254.01,106.192 2256.95,106.192 2259.89,106.192 2262.83,106.192 2265.77,106.192 2268.72,106.192 2268.72,1486.45 2271.66,1486.45 2274.6,1486.45 2274.6,106.192 2277.54,106.192 2280.48,106.192 2283.42,106.192 2286.37,106.192 2289.31,106.192 "/>
</svg>
