<?xml version="1.0" encoding="utf-8"?>
<svg xmlns="http://www.w3.org/2000/svg" xmlns:xlink="http://www.w3.org/1999/xlink" width="600" height="400" viewBox="0 0 2400 1600">
<defs>
  <clipPath id="clip900">
    <rect x="0" y="0" width="2400" height="1600"/>
  </clipPath>
</defs>
<path clip-path="url(#clip900)" d="M0 1600 L2400 1600 L2400 0 L0 0  Z" fill="#282c34" fill-rule="evenodd" fill-opacity="1"/>
<defs>
  <clipPath id="clip901">
    <rect x="229" y="123" width="2124" height="1364"/>
  </clipPath>
</defs>
<path clip-path="url(#clip900)" d="M229.445 1486.45 L2352.76 1486.45 L2352.76 123.472 L229.445 123.472  Z" fill="#21252b" fill-rule="evenodd" fill-opacity="1"/>
<polyline clip-path="url(#clip901)" style="stroke:#adb2b7; stroke-linecap:round; stroke-linejoin:round; stroke-width:2; stroke-opacity:0.1; fill:none" points="289.539,1486.45 289.539,123.472 "/>
<polyline clip-path="url(#clip901)" style="stroke:#adb2b7; stroke-linecap:round; stroke-linejoin:round; stroke-width:2; stroke-opacity:0.1; fill:none" points="734.677,1486.45 734.677,123.472 "/>
<polyline clip-path="url(#clip901)" style="stroke:#adb2b7; stroke-linecap:round; stroke-linejoin:round; stroke-width:2; stroke-opacity:0.1; fill:none" points="1179.82,1486.45 1179.82,123.472 "/>
<polyline clip-path="url(#clip901)" style="stroke:#adb2b7; stroke-linecap:round; stroke-linejoin:round; stroke-width:2; stroke-opacity:0.1; fill:none" points="1624.95,1486.45 1624.95,123.472 "/>
<polyline clip-path="url(#clip901)" style="stroke:#adb2b7; stroke-linecap:round; stroke-linejoin:round; stroke-width:2; stroke-opacity:0.1; fill:none" points="2070.09,1486.45 2070.09,123.472 "/>
<polyline clip-path="url(#clip901)" style="stroke:#adb2b7; stroke-linecap:round; stroke-linejoin:round; stroke-width:2; stroke-opacity:0.1; fill:none" points="229.445,1278.42 2352.76,1278.42 "/>
<polyline clip-path="url(#clip901)" style="stroke:#adb2b7; stroke-linecap:round; stroke-linejoin:round; stroke-width:2; stroke-opacity:0.1; fill:none" points="229.445,979.394 2352.76,979.394 "/>
<polyline clip-path="url(#clip901)" style="stroke:#adb2b7; stroke-linecap:round; stroke-linejoin:round; stroke-width:2; stroke-opacity:0.1; fill:none" points="229.445,680.364 2352.76,680.364 "/>
<polyline clip-path="url(#clip901)" style="stroke:#adb2b7; stroke-linecap:round; stroke-linejoin:round; stroke-width:2; stroke-opacity:0.1; fill:none" points="229.445,381.335 2352.76,381.335 "/>
<polyline clip-path="url(#clip900)" style="stroke:#adb2b7; stroke-linecap:round; stroke-linejoin:round; stroke-width:4; stroke-opacity:1; fill:none" points="229.445,1486.45 2352.76,1486.45 "/>
<polyline clip-path="url(#clip900)" style="stroke:#adb2b7; stroke-linecap:round; stroke-linejoin:round; stroke-width:4; stroke-opacity:1; fill:none" points="289.539,1486.45 289.539,1467.55 "/>
<polyline clip-path="url(#clip900)" style="stroke:#adb2b7; stroke-linecap:round; stroke-linejoin:round; stroke-width:4; stroke-opacity:1; fill:none" points="734.677,1486.45 734.677,1467.55 "/>
<polyline clip-path="url(#clip900)" style="stroke:#adb2b7; stroke-linecap:round; stroke-linejoin:round; stroke-width:4; stroke-opacity:1; fill:none" points="1179.82,1486.45 1179.82,1467.55 "/>
<polyline clip-path="url(#clip900)" style="stroke:#adb2b7; stroke-linecap:round; stroke-linejoin:round; stroke-width:4; stroke-opacity:1; fill:none" points="1624.95,1486.45 1624.95,1467.55 "/>
<polyline clip-path="url(#clip900)" style="stroke:#adb2b7; stroke-linecap:round; stroke-linejoin:round; stroke-width:4; stroke-opacity:1; fill:none" points="2070.09,1486.45 2070.09,1467.55 "/>
<path clip-path="url(#clip900)" d="M161.333 1544.91 L177.653 1544.91 L177.653 1548.85 L155.708 1548.85 L155.708 1544.91 Q158.37 1542.16 162.954 1537.53 Q167.56 1532.88 168.741 1531.53 Q170.986 1529.01 171.866 1527.27 Q172.769 1525.51 172.769 1523.82 Q172.769 1521.07 170.824 1519.33 Q168.903 1517.6 165.801 1517.6 Q163.602 1517.6 161.148 1518.36 Q158.718 1519.13 155.94 1520.68 L155.94 1515.95 Q158.764 1514.82 161.218 1514.24 Q163.671 1513.66 165.708 1513.66 Q171.079 1513.66 174.273 1516.35 Q177.468 1519.03 177.468 1523.52 Q177.468 1525.65 176.657 1527.57 Q175.87 1529.47 173.764 1532.07 Q173.185 1532.74 170.083 1535.95 Q166.982 1539.15 161.333 1544.91 Z" fill="#9eb1be" fill-rule="nonzero" fill-opacity="1" /><path clip-path="url(#clip900)" d="M197.468 1517.37 Q193.856 1517.37 192.028 1520.93 Q190.222 1524.47 190.222 1531.6 Q190.222 1538.71 192.028 1542.27 Q193.856 1545.82 197.468 1545.82 Q201.102 1545.82 202.907 1542.27 Q204.736 1538.71 204.736 1531.6 Q204.736 1524.47 202.907 1520.93 Q201.102 1517.37 197.468 1517.37 M197.468 1513.66 Q203.278 1513.66 206.333 1518.27 Q209.412 1522.85 209.412 1531.6 Q209.412 1540.33 206.333 1544.94 Q203.278 1549.52 197.468 1549.52 Q191.657 1549.52 188.579 1544.94 Q185.523 1540.33 185.523 1531.6 Q185.523 1522.85 188.579 1518.27 Q191.657 1513.66 197.468 1513.66 Z" fill="#9eb1be" fill-rule="nonzero" fill-opacity="1" /><path clip-path="url(#clip900)" d="M221.657 1544.91 L237.977 1544.91 L237.977 1548.85 L216.032 1548.85 L216.032 1544.91 Q218.694 1542.16 223.278 1537.53 Q227.884 1532.88 229.065 1531.53 Q231.31 1529.01 232.19 1527.27 Q233.092 1525.51 233.092 1523.82 Q233.092 1521.07 231.148 1519.33 Q229.227 1517.6 226.125 1517.6 Q223.926 1517.6 221.472 1518.36 Q219.041 1519.13 216.264 1520.68 L216.264 1515.95 Q219.088 1514.82 221.541 1514.24 Q223.995 1513.66 226.032 1513.66 Q231.403 1513.66 234.597 1516.35 Q237.791 1519.03 237.791 1523.52 Q237.791 1525.65 236.981 1527.57 Q236.194 1529.47 234.088 1532.07 Q233.509 1532.74 230.407 1535.95 Q227.305 1539.15 221.657 1544.91 Z" fill="#9eb1be" fill-rule="nonzero" fill-opacity="1" /><path clip-path="url(#clip900)" d="M257.791 1517.37 Q254.18 1517.37 252.351 1520.93 Q250.546 1524.47 250.546 1531.6 Q250.546 1538.71 252.351 1542.27 Q254.18 1545.82 257.791 1545.82 Q261.425 1545.82 263.231 1542.27 Q265.06 1538.71 265.06 1531.6 Q265.06 1524.47 263.231 1520.93 Q261.425 1517.37 257.791 1517.37 M257.791 1513.66 Q263.601 1513.66 266.657 1518.27 Q269.736 1522.85 269.736 1531.6 Q269.736 1540.33 266.657 1544.94 Q263.601 1549.52 257.791 1549.52 Q251.981 1549.52 248.902 1544.94 Q245.847 1540.33 245.847 1531.6 Q245.847 1522.85 248.902 1518.27 Q251.981 1513.66 257.791 1513.66 Z" fill="#9eb1be" fill-rule="nonzero" fill-opacity="1" /><path clip-path="url(#clip900)" d="M275.199 1533.96 L287.675 1533.96 L287.675 1537.76 L275.199 1537.76 L275.199 1533.96 Z" fill="#9eb1be" fill-rule="nonzero" fill-opacity="1" /><path clip-path="url(#clip900)" d="M305.06 1517.37 Q301.448 1517.37 299.62 1520.93 Q297.814 1524.47 297.814 1531.6 Q297.814 1538.71 299.62 1542.27 Q301.448 1545.82 305.06 1545.82 Q308.694 1545.82 310.499 1542.27 Q312.328 1538.71 312.328 1531.6 Q312.328 1524.47 310.499 1520.93 Q308.694 1517.37 305.06 1517.37 M305.06 1513.66 Q310.87 1513.66 313.925 1518.27 Q317.004 1522.85 317.004 1531.6 Q317.004 1540.33 313.925 1544.94 Q310.87 1549.52 305.06 1549.52 Q299.249 1549.52 296.171 1544.94 Q293.115 1540.33 293.115 1531.6 Q293.115 1522.85 296.171 1518.27 Q299.249 1513.66 305.06 1513.66 Z" fill="#9eb1be" fill-rule="nonzero" fill-opacity="1" /><path clip-path="url(#clip900)" d="M326.032 1544.91 L333.67 1544.91 L333.67 1518.55 L325.36 1520.21 L325.36 1515.95 L333.624 1514.29 L338.3 1514.29 L338.3 1544.91 L345.939 1544.91 L345.939 1548.85 L326.032 1548.85 L326.032 1544.91 Z" fill="#9eb1be" fill-rule="nonzero" fill-opacity="1" /><path clip-path="url(#clip900)" d="M352.629 1533.96 L365.105 1533.96 L365.105 1537.76 L352.629 1537.76 L352.629 1533.96 Z" fill="#9eb1be" fill-rule="nonzero" fill-opacity="1" /><path clip-path="url(#clip900)" d="M382.49 1517.37 Q378.879 1517.37 377.05 1520.93 Q375.244 1524.47 375.244 1531.6 Q375.244 1538.71 377.05 1542.27 Q378.879 1545.82 382.49 1545.82 Q386.124 1545.82 387.929 1542.27 Q389.758 1538.71 389.758 1531.6 Q389.758 1524.47 387.929 1520.93 Q386.124 1517.37 382.49 1517.37 M382.49 1513.66 Q388.3 1513.66 391.355 1518.27 Q394.434 1522.85 394.434 1531.6 Q394.434 1540.33 391.355 1544.94 Q388.3 1549.52 382.49 1549.52 Q376.68 1549.52 373.601 1544.94 Q370.545 1540.33 370.545 1531.6 Q370.545 1522.85 373.601 1518.27 Q376.68 1513.66 382.49 1513.66 Z" fill="#9eb1be" fill-rule="nonzero" fill-opacity="1" /><path clip-path="url(#clip900)" d="M403.462 1544.91 L411.101 1544.91 L411.101 1518.55 L402.79 1520.21 L402.79 1515.95 L411.054 1514.29 L415.73 1514.29 L415.73 1544.91 L423.369 1544.91 L423.369 1548.85 L403.462 1548.85 L403.462 1544.91 Z" fill="#9eb1be" fill-rule="nonzero" fill-opacity="1" /><path clip-path="url(#clip900)" d="M606.183 1544.91 L622.502 1544.91 L622.502 1548.85 L600.558 1548.85 L600.558 1544.91 Q603.22 1542.16 607.803 1537.53 Q612.409 1532.88 613.59 1531.53 Q615.835 1529.01 616.715 1527.27 Q617.618 1525.51 617.618 1523.82 Q617.618 1521.07 615.673 1519.33 Q613.752 1517.6 610.65 1517.6 Q608.451 1517.6 605.997 1518.36 Q603.567 1519.13 600.789 1520.68 L600.789 1515.95 Q603.613 1514.82 606.067 1514.24 Q608.521 1513.66 610.558 1513.66 Q615.928 1513.66 619.122 1516.35 Q622.317 1519.03 622.317 1523.52 Q622.317 1525.65 621.507 1527.57 Q620.72 1529.47 618.613 1532.07 Q618.034 1532.74 614.933 1535.95 Q611.831 1539.15 606.183 1544.91 Z" fill="#9eb1be" fill-rule="nonzero" fill-opacity="1" /><path clip-path="url(#clip900)" d="M642.317 1517.37 Q638.706 1517.37 636.877 1520.93 Q635.071 1524.47 635.071 1531.6 Q635.071 1538.71 636.877 1542.27 Q638.706 1545.82 642.317 1545.82 Q645.951 1545.82 647.756 1542.27 Q649.585 1538.71 649.585 1531.6 Q649.585 1524.47 647.756 1520.93 Q645.951 1517.37 642.317 1517.37 M642.317 1513.66 Q648.127 1513.66 651.182 1518.27 Q654.261 1522.85 654.261 1531.6 Q654.261 1540.33 651.182 1544.94 Q648.127 1549.52 642.317 1549.52 Q636.507 1549.52 633.428 1544.94 Q630.372 1540.33 630.372 1531.6 Q630.372 1522.85 633.428 1518.27 Q636.507 1513.66 642.317 1513.66 Z" fill="#9eb1be" fill-rule="nonzero" fill-opacity="1" /><path clip-path="url(#clip900)" d="M666.506 1544.91 L682.826 1544.91 L682.826 1548.85 L660.881 1548.85 L660.881 1544.91 Q663.543 1542.16 668.127 1537.53 Q672.733 1532.88 673.914 1531.53 Q676.159 1529.01 677.039 1527.27 Q677.942 1525.51 677.942 1523.82 Q677.942 1521.07 675.997 1519.33 Q674.076 1517.6 670.974 1517.6 Q668.775 1517.6 666.321 1518.36 Q663.891 1519.13 661.113 1520.68 L661.113 1515.95 Q663.937 1514.82 666.391 1514.24 Q668.844 1513.66 670.881 1513.66 Q676.252 1513.66 679.446 1516.35 Q682.641 1519.03 682.641 1523.52 Q682.641 1525.65 681.83 1527.57 Q681.043 1529.47 678.937 1532.07 Q678.358 1532.74 675.256 1535.95 Q672.154 1539.15 666.506 1544.91 Z" fill="#9eb1be" fill-rule="nonzero" fill-opacity="1" /><path clip-path="url(#clip900)" d="M702.64 1517.37 Q699.029 1517.37 697.201 1520.93 Q695.395 1524.47 695.395 1531.6 Q695.395 1538.71 697.201 1542.27 Q699.029 1545.82 702.64 1545.82 Q706.275 1545.82 708.08 1542.27 Q709.909 1538.71 709.909 1531.6 Q709.909 1524.47 708.08 1520.93 Q706.275 1517.37 702.64 1517.37 M702.64 1513.66 Q708.451 1513.66 711.506 1518.27 Q714.585 1522.85 714.585 1531.6 Q714.585 1540.33 711.506 1544.94 Q708.451 1549.52 702.64 1549.52 Q696.83 1549.52 693.752 1544.94 Q690.696 1540.33 690.696 1531.6 Q690.696 1522.85 693.752 1518.27 Q696.83 1513.66 702.64 1513.66 Z" fill="#9eb1be" fill-rule="nonzero" fill-opacity="1" /><path clip-path="url(#clip900)" d="M720.048 1533.96 L732.525 1533.96 L732.525 1537.76 L720.048 1537.76 L720.048 1533.96 Z" fill="#9eb1be" fill-rule="nonzero" fill-opacity="1" /><path clip-path="url(#clip900)" d="M749.909 1517.37 Q746.298 1517.37 744.469 1520.93 Q742.663 1524.47 742.663 1531.6 Q742.663 1538.71 744.469 1542.27 Q746.298 1545.82 749.909 1545.82 Q753.543 1545.82 755.348 1542.27 Q757.177 1538.71 757.177 1531.6 Q757.177 1524.47 755.348 1520.93 Q753.543 1517.37 749.909 1517.37 M749.909 1513.66 Q755.719 1513.66 758.774 1518.27 Q761.853 1522.85 761.853 1531.6 Q761.853 1540.33 758.774 1544.94 Q755.719 1549.52 749.909 1549.52 Q744.099 1549.52 741.02 1544.94 Q737.964 1540.33 737.964 1531.6 Q737.964 1522.85 741.02 1518.27 Q744.099 1513.66 749.909 1513.66 Z" fill="#9eb1be" fill-rule="nonzero" fill-opacity="1" /><path clip-path="url(#clip900)" d="M770.881 1544.91 L778.52 1544.91 L778.52 1518.55 L770.21 1520.21 L770.21 1515.95 L778.473 1514.29 L783.149 1514.29 L783.149 1544.91 L790.788 1544.91 L790.788 1548.85 L770.881 1548.85 L770.881 1544.91 Z" fill="#9eb1be" fill-rule="nonzero" fill-opacity="1" /><path clip-path="url(#clip900)" d="M797.478 1533.96 L809.955 1533.96 L809.955 1537.76 L797.478 1537.76 L797.478 1533.96 Z" fill="#9eb1be" fill-rule="nonzero" fill-opacity="1" /><path clip-path="url(#clip900)" d="M827.339 1517.37 Q823.728 1517.37 821.899 1520.93 Q820.094 1524.47 820.094 1531.6 Q820.094 1538.71 821.899 1542.27 Q823.728 1545.82 827.339 1545.82 Q830.973 1545.82 832.779 1542.27 Q834.607 1538.71 834.607 1531.6 Q834.607 1524.47 832.779 1520.93 Q830.973 1517.37 827.339 1517.37 M827.339 1513.66 Q833.149 1513.66 836.205 1518.27 Q839.283 1522.85 839.283 1531.6 Q839.283 1540.33 836.205 1544.94 Q833.149 1549.52 827.339 1549.52 Q821.529 1549.52 818.45 1544.94 Q815.394 1540.33 815.394 1531.6 Q815.394 1522.85 818.45 1518.27 Q821.529 1513.66 827.339 1513.66 Z" fill="#9eb1be" fill-rule="nonzero" fill-opacity="1" /><path clip-path="url(#clip900)" d="M861.667 1530.21 Q865.024 1530.93 866.899 1533.2 Q868.797 1535.47 868.797 1538.8 Q868.797 1543.92 865.278 1546.72 Q861.76 1549.52 855.279 1549.52 Q853.103 1549.52 850.788 1549.08 Q848.496 1548.66 846.042 1547.81 L846.042 1543.29 Q847.987 1544.43 850.302 1545.01 Q852.616 1545.58 855.14 1545.58 Q859.538 1545.58 861.829 1543.85 Q864.144 1542.11 864.144 1538.8 Q864.144 1535.75 861.991 1534.03 Q859.862 1532.3 856.042 1532.3 L852.015 1532.3 L852.015 1528.45 L856.228 1528.45 Q859.677 1528.45 861.505 1527.09 Q863.334 1525.7 863.334 1523.11 Q863.334 1520.45 861.436 1519.03 Q859.561 1517.6 856.042 1517.6 Q854.121 1517.6 851.922 1518.01 Q849.723 1518.43 847.084 1519.31 L847.084 1515.14 Q849.746 1514.4 852.061 1514.03 Q854.399 1513.66 856.459 1513.66 Q861.783 1513.66 864.885 1516.09 Q867.987 1518.5 867.987 1522.62 Q867.987 1525.49 866.343 1527.48 Q864.7 1529.45 861.667 1530.21 Z" fill="#9eb1be" fill-rule="nonzero" fill-opacity="1" /><path clip-path="url(#clip900)" d="M1051.49 1544.91 L1067.81 1544.91 L1067.81 1548.85 L1045.87 1548.85 L1045.87 1544.91 Q1048.53 1542.16 1053.12 1537.53 Q1057.72 1532.88 1058.9 1531.53 Q1061.15 1529.01 1062.03 1527.27 Q1062.93 1525.51 1062.93 1523.82 Q1062.93 1521.07 1060.99 1519.33 Q1059.06 1517.6 1055.96 1517.6 Q1053.76 1517.6 1051.31 1518.36 Q1048.88 1519.13 1046.1 1520.68 L1046.1 1515.95 Q1048.93 1514.82 1051.38 1514.24 Q1053.83 1513.66 1055.87 1513.66 Q1061.24 1513.66 1064.43 1516.35 Q1067.63 1519.03 1067.63 1523.52 Q1067.63 1525.65 1066.82 1527.57 Q1066.03 1529.47 1063.93 1532.07 Q1063.35 1532.74 1060.24 1535.95 Q1057.14 1539.15 1051.49 1544.91 Z" fill="#9eb1be" fill-rule="nonzero" fill-opacity="1" /><path clip-path="url(#clip900)" d="M1087.63 1517.37 Q1084.02 1517.37 1082.19 1520.93 Q1080.38 1524.47 1080.38 1531.6 Q1080.38 1538.71 1082.19 1542.27 Q1084.02 1545.82 1087.63 1545.82 Q1091.26 1545.82 1093.07 1542.27 Q1094.9 1538.71 1094.9 1531.6 Q1094.9 1524.47 1093.07 1520.93 Q1091.26 1517.37 1087.63 1517.37 M1087.63 1513.66 Q1093.44 1513.66 1096.49 1518.27 Q1099.57 1522.85 1099.57 1531.6 Q1099.57 1540.33 1096.49 1544.94 Q1093.44 1549.52 1087.63 1549.52 Q1081.82 1549.52 1078.74 1544.94 Q1075.68 1540.33 1075.68 1531.6 Q1075.68 1522.85 1078.74 1518.27 Q1081.82 1513.66 1087.63 1513.66 Z" fill="#9eb1be" fill-rule="nonzero" fill-opacity="1" /><path clip-path="url(#clip900)" d="M1111.82 1544.91 L1128.14 1544.91 L1128.14 1548.85 L1106.19 1548.85 L1106.19 1544.91 Q1108.86 1542.16 1113.44 1537.53 Q1118.05 1532.88 1119.23 1531.53 Q1121.47 1529.01 1122.35 1527.27 Q1123.25 1525.51 1123.25 1523.82 Q1123.25 1521.07 1121.31 1519.33 Q1119.39 1517.6 1116.29 1517.6 Q1114.09 1517.6 1111.63 1518.36 Q1109.2 1519.13 1106.43 1520.68 L1106.43 1515.95 Q1109.25 1514.82 1111.7 1514.24 Q1114.16 1513.66 1116.19 1513.66 Q1121.56 1513.66 1124.76 1516.35 Q1127.95 1519.03 1127.95 1523.52 Q1127.95 1525.65 1127.14 1527.57 Q1126.36 1529.47 1124.25 1532.07 Q1123.67 1532.74 1120.57 1535.95 Q1117.47 1539.15 1111.82 1544.91 Z" fill="#9eb1be" fill-rule="nonzero" fill-opacity="1" /><path clip-path="url(#clip900)" d="M1147.95 1517.37 Q1144.34 1517.37 1142.51 1520.93 Q1140.71 1524.47 1140.71 1531.6 Q1140.71 1538.71 1142.51 1542.27 Q1144.34 1545.82 1147.95 1545.82 Q1151.59 1545.82 1153.39 1542.27 Q1155.22 1538.71 1155.22 1531.6 Q1155.22 1524.47 1153.39 1520.93 Q1151.59 1517.37 1147.95 1517.37 M1147.95 1513.66 Q1153.76 1513.66 1156.82 1518.27 Q1159.9 1522.85 1159.9 1531.6 Q1159.9 1540.33 1156.82 1544.94 Q1153.76 1549.52 1147.95 1549.52 Q1142.14 1549.52 1139.06 1544.94 Q1136.01 1540.33 1136.01 1531.6 Q1136.01 1522.85 1139.06 1518.27 Q1142.14 1513.66 1147.95 1513.66 Z" fill="#9eb1be" fill-rule="nonzero" fill-opacity="1" /><path clip-path="url(#clip900)" d="M1165.36 1533.96 L1177.84 1533.96 L1177.84 1537.76 L1165.36 1537.76 L1165.36 1533.96 Z" fill="#9eb1be" fill-rule="nonzero" fill-opacity="1" /><path clip-path="url(#clip900)" d="M1195.22 1517.37 Q1191.61 1517.37 1189.78 1520.93 Q1187.98 1524.47 1187.98 1531.6 Q1187.98 1538.71 1189.78 1542.27 Q1191.61 1545.82 1195.22 1545.82 Q1198.86 1545.82 1200.66 1542.27 Q1202.49 1538.71 1202.49 1531.6 Q1202.49 1524.47 1200.66 1520.93 Q1198.86 1517.37 1195.22 1517.37 M1195.22 1513.66 Q1201.03 1513.66 1204.09 1518.27 Q1207.17 1522.85 1207.17 1531.6 Q1207.17 1540.33 1204.09 1544.94 Q1201.03 1549.52 1195.22 1549.52 Q1189.41 1549.52 1186.33 1544.94 Q1183.28 1540.33 1183.28 1531.6 Q1183.28 1522.85 1186.33 1518.27 Q1189.41 1513.66 1195.22 1513.66 Z" fill="#9eb1be" fill-rule="nonzero" fill-opacity="1" /><path clip-path="url(#clip900)" d="M1216.19 1544.91 L1223.83 1544.91 L1223.83 1518.55 L1215.52 1520.21 L1215.52 1515.95 L1223.79 1514.29 L1228.46 1514.29 L1228.46 1544.91 L1236.1 1544.91 L1236.1 1548.85 L1216.19 1548.85 L1216.19 1544.91 Z" fill="#9eb1be" fill-rule="nonzero" fill-opacity="1" /><path clip-path="url(#clip900)" d="M1242.79 1533.96 L1255.27 1533.96 L1255.27 1537.76 L1242.79 1537.76 L1242.79 1533.96 Z" fill="#9eb1be" fill-rule="nonzero" fill-opacity="1" /><path clip-path="url(#clip900)" d="M1272.65 1517.37 Q1269.04 1517.37 1267.21 1520.93 Q1265.41 1524.47 1265.41 1531.6 Q1265.41 1538.71 1267.21 1542.27 Q1269.04 1545.82 1272.65 1545.82 Q1276.29 1545.82 1278.09 1542.27 Q1279.92 1538.71 1279.92 1531.6 Q1279.92 1524.47 1278.09 1520.93 Q1276.29 1517.37 1272.65 1517.37 M1272.65 1513.66 Q1278.46 1513.66 1281.52 1518.27 Q1284.6 1522.85 1284.6 1531.6 Q1284.6 1540.33 1281.52 1544.94 Q1278.46 1549.52 1272.65 1549.52 Q1266.84 1549.52 1263.76 1544.94 Q1260.71 1540.33 1260.71 1531.6 Q1260.71 1522.85 1263.76 1518.27 Q1266.84 1513.66 1272.65 1513.66 Z" fill="#9eb1be" fill-rule="nonzero" fill-opacity="1" /><path clip-path="url(#clip900)" d="M1292.86 1514.29 L1311.22 1514.29 L1311.22 1518.22 L1297.14 1518.22 L1297.14 1526.7 Q1298.16 1526.35 1299.18 1526.19 Q1300.2 1526 1301.22 1526 Q1307 1526 1310.38 1529.17 Q1313.76 1532.34 1313.76 1537.76 Q1313.76 1543.34 1310.29 1546.44 Q1306.82 1549.52 1300.5 1549.52 Q1298.32 1549.52 1296.05 1549.15 Q1293.81 1548.78 1291.4 1548.04 L1291.4 1543.34 Q1293.48 1544.47 1295.71 1545.03 Q1297.93 1545.58 1300.41 1545.58 Q1304.41 1545.58 1306.75 1543.48 Q1309.09 1541.37 1309.09 1537.76 Q1309.09 1534.15 1306.75 1532.04 Q1304.41 1529.94 1300.41 1529.94 Q1298.53 1529.94 1296.66 1530.35 Q1294.8 1530.77 1292.86 1531.65 L1292.86 1514.29 Z" fill="#9eb1be" fill-rule="nonzero" fill-opacity="1" /><path clip-path="url(#clip900)" d="M1496.59 1544.91 L1512.91 1544.91 L1512.91 1548.85 L1490.96 1548.85 L1490.96 1544.91 Q1493.62 1542.16 1498.21 1537.53 Q1502.81 1532.88 1503.99 1531.53 Q1506.24 1529.01 1507.12 1527.27 Q1508.02 1525.51 1508.02 1523.82 Q1508.02 1521.07 1506.08 1519.33 Q1504.16 1517.6 1501.05 1517.6 Q1498.86 1517.6 1496.4 1518.36 Q1493.97 1519.13 1491.19 1520.68 L1491.19 1515.95 Q1494.02 1514.82 1496.47 1514.24 Q1498.92 1513.66 1500.96 1513.66 Q1506.33 1513.66 1509.53 1516.35 Q1512.72 1519.03 1512.72 1523.52 Q1512.72 1525.65 1511.91 1527.57 Q1511.12 1529.47 1509.02 1532.07 Q1508.44 1532.74 1505.34 1535.95 Q1502.24 1539.15 1496.59 1544.91 Z" fill="#9eb1be" fill-rule="nonzero" fill-opacity="1" /><path clip-path="url(#clip900)" d="M1532.72 1517.37 Q1529.11 1517.37 1527.28 1520.93 Q1525.48 1524.47 1525.48 1531.6 Q1525.48 1538.71 1527.28 1542.27 Q1529.11 1545.82 1532.72 1545.82 Q1536.36 1545.82 1538.16 1542.27 Q1539.99 1538.71 1539.99 1531.6 Q1539.99 1524.47 1538.16 1520.93 Q1536.36 1517.37 1532.72 1517.37 M1532.72 1513.66 Q1538.53 1513.66 1541.59 1518.27 Q1544.67 1522.85 1544.67 1531.6 Q1544.67 1540.33 1541.59 1544.94 Q1538.53 1549.52 1532.72 1549.52 Q1526.91 1549.52 1523.83 1544.94 Q1520.78 1540.33 1520.78 1531.6 Q1520.78 1522.85 1523.83 1518.27 Q1526.91 1513.66 1532.72 1513.66 Z" fill="#9eb1be" fill-rule="nonzero" fill-opacity="1" /><path clip-path="url(#clip900)" d="M1556.91 1544.91 L1573.23 1544.91 L1573.23 1548.85 L1551.29 1548.85 L1551.29 1544.91 Q1553.95 1542.16 1558.53 1537.53 Q1563.14 1532.88 1564.32 1531.53 Q1566.56 1529.01 1567.44 1527.27 Q1568.35 1525.51 1568.35 1523.82 Q1568.35 1521.07 1566.4 1519.33 Q1564.48 1517.6 1561.38 1517.6 Q1559.18 1517.6 1556.73 1518.36 Q1554.3 1519.13 1551.52 1520.68 L1551.52 1515.95 Q1554.34 1514.82 1556.8 1514.24 Q1559.25 1513.66 1561.29 1513.66 Q1566.66 1513.66 1569.85 1516.35 Q1573.04 1519.03 1573.04 1523.52 Q1573.04 1525.65 1572.23 1527.57 Q1571.45 1529.47 1569.34 1532.07 Q1568.76 1532.74 1565.66 1535.95 Q1562.56 1539.15 1556.91 1544.91 Z" fill="#9eb1be" fill-rule="nonzero" fill-opacity="1" /><path clip-path="url(#clip900)" d="M1593.04 1517.37 Q1589.43 1517.37 1587.61 1520.93 Q1585.8 1524.47 1585.8 1531.6 Q1585.8 1538.71 1587.61 1542.27 Q1589.43 1545.82 1593.04 1545.82 Q1596.68 1545.82 1598.48 1542.27 Q1600.31 1538.71 1600.31 1531.6 Q1600.31 1524.47 1598.48 1520.93 Q1596.68 1517.37 1593.04 1517.37 M1593.04 1513.66 Q1598.85 1513.66 1601.91 1518.27 Q1604.99 1522.85 1604.99 1531.6 Q1604.99 1540.33 1601.91 1544.94 Q1598.85 1549.52 1593.04 1549.52 Q1587.23 1549.52 1584.16 1544.94 Q1581.1 1540.33 1581.1 1531.6 Q1581.1 1522.85 1584.16 1518.27 Q1587.23 1513.66 1593.04 1513.66 Z" fill="#9eb1be" fill-rule="nonzero" fill-opacity="1" /><path clip-path="url(#clip900)" d="M1610.45 1533.96 L1622.93 1533.96 L1622.93 1537.76 L1610.45 1537.76 L1610.45 1533.96 Z" fill="#9eb1be" fill-rule="nonzero" fill-opacity="1" /><path clip-path="url(#clip900)" d="M1640.31 1517.37 Q1636.7 1517.37 1634.87 1520.93 Q1633.07 1524.47 1633.07 1531.6 Q1633.07 1538.71 1634.87 1542.27 Q1636.7 1545.82 1640.31 1545.82 Q1643.95 1545.82 1645.75 1542.27 Q1647.58 1538.71 1647.58 1531.6 Q1647.58 1524.47 1645.75 1520.93 Q1643.95 1517.37 1640.31 1517.37 M1640.31 1513.66 Q1646.12 1513.66 1649.18 1518.27 Q1652.26 1522.85 1652.26 1531.6 Q1652.26 1540.33 1649.18 1544.94 Q1646.12 1549.52 1640.31 1549.52 Q1634.5 1549.52 1631.42 1544.94 Q1628.37 1540.33 1628.37 1531.6 Q1628.37 1522.85 1631.42 1518.27 Q1634.5 1513.66 1640.31 1513.66 Z" fill="#9eb1be" fill-rule="nonzero" fill-opacity="1" /><path clip-path="url(#clip900)" d="M1661.29 1544.91 L1668.92 1544.91 L1668.92 1518.55 L1660.61 1520.21 L1660.61 1515.95 L1668.88 1514.29 L1673.55 1514.29 L1673.55 1544.91 L1681.19 1544.91 L1681.19 1548.85 L1661.29 1548.85 L1661.29 1544.91 Z" fill="#9eb1be" fill-rule="nonzero" fill-opacity="1" /><path clip-path="url(#clip900)" d="M1687.88 1533.96 L1700.36 1533.96 L1700.36 1537.76 L1687.88 1537.76 L1687.88 1533.96 Z" fill="#9eb1be" fill-rule="nonzero" fill-opacity="1" /><path clip-path="url(#clip900)" d="M1717.74 1517.37 Q1714.13 1517.37 1712.3 1520.93 Q1710.5 1524.47 1710.5 1531.6 Q1710.5 1538.71 1712.3 1542.27 Q1714.13 1545.82 1717.74 1545.82 Q1721.38 1545.82 1723.18 1542.27 Q1725.01 1538.71 1725.01 1531.6 Q1725.01 1524.47 1723.18 1520.93 Q1721.38 1517.37 1717.74 1517.37 M1717.74 1513.66 Q1723.55 1513.66 1726.61 1518.27 Q1729.69 1522.85 1729.69 1531.6 Q1729.69 1540.33 1726.61 1544.94 Q1723.55 1549.52 1717.74 1549.52 Q1711.93 1549.52 1708.85 1544.94 Q1705.8 1540.33 1705.8 1531.6 Q1705.8 1522.85 1708.85 1518.27 Q1711.93 1513.66 1717.74 1513.66 Z" fill="#9eb1be" fill-rule="nonzero" fill-opacity="1" /><path clip-path="url(#clip900)" d="M1736.72 1514.29 L1758.95 1514.29 L1758.95 1516.28 L1746.4 1548.85 L1741.52 1548.85 L1753.32 1518.22 L1736.72 1518.22 L1736.72 1514.29 Z" fill="#9eb1be" fill-rule="nonzero" fill-opacity="1" /><path clip-path="url(#clip900)" d="M1941.37 1544.91 L1957.69 1544.91 L1957.69 1548.85 L1935.74 1548.85 L1935.74 1544.91 Q1938.4 1542.16 1942.99 1537.53 Q1947.59 1532.88 1948.77 1531.53 Q1951.02 1529.01 1951.9 1527.27 Q1952.8 1525.51 1952.8 1523.82 Q1952.8 1521.07 1950.86 1519.33 Q1948.94 1517.6 1945.83 1517.6 Q1943.64 1517.6 1941.18 1518.36 Q1938.75 1519.13 1935.97 1520.68 L1935.97 1515.95 Q1938.8 1514.82 1941.25 1514.24 Q1943.7 1513.66 1945.74 1513.66 Q1951.11 1513.66 1954.31 1516.35 Q1957.5 1519.03 1957.5 1523.52 Q1957.5 1525.65 1956.69 1527.57 Q1955.9 1529.47 1953.8 1532.07 Q1953.22 1532.74 1950.12 1535.95 Q1947.01 1539.15 1941.37 1544.91 Z" fill="#9eb1be" fill-rule="nonzero" fill-opacity="1" /><path clip-path="url(#clip900)" d="M1977.5 1517.37 Q1973.89 1517.37 1972.06 1520.93 Q1970.26 1524.47 1970.26 1531.6 Q1970.26 1538.71 1972.06 1542.27 Q1973.89 1545.82 1977.5 1545.82 Q1981.14 1545.82 1982.94 1542.27 Q1984.77 1538.71 1984.77 1531.6 Q1984.77 1524.47 1982.94 1520.93 Q1981.14 1517.37 1977.5 1517.37 M1977.5 1513.66 Q1983.31 1513.66 1986.37 1518.27 Q1989.45 1522.85 1989.45 1531.6 Q1989.45 1540.33 1986.37 1544.94 Q1983.31 1549.52 1977.5 1549.52 Q1971.69 1549.52 1968.61 1544.94 Q1965.56 1540.33 1965.56 1531.6 Q1965.56 1522.85 1968.61 1518.27 Q1971.69 1513.66 1977.5 1513.66 Z" fill="#9eb1be" fill-rule="nonzero" fill-opacity="1" /><path clip-path="url(#clip900)" d="M2001.69 1544.91 L2018.01 1544.91 L2018.01 1548.85 L1996.07 1548.85 L1996.07 1544.91 Q1998.73 1542.16 2003.31 1537.53 Q2007.92 1532.88 2009.1 1531.53 Q2011.34 1529.01 2012.22 1527.27 Q2013.13 1525.51 2013.13 1523.82 Q2013.13 1521.07 2011.18 1519.33 Q2009.26 1517.6 2006.16 1517.6 Q2003.96 1517.6 2001.51 1518.36 Q1999.07 1519.13 1996.3 1520.68 L1996.3 1515.95 Q1999.12 1514.82 2001.57 1514.24 Q2004.03 1513.66 2006.07 1513.66 Q2011.44 1513.66 2014.63 1516.35 Q2017.82 1519.03 2017.82 1523.52 Q2017.82 1525.65 2017.01 1527.57 Q2016.23 1529.47 2014.12 1532.07 Q2013.54 1532.74 2010.44 1535.95 Q2007.34 1539.15 2001.69 1544.91 Z" fill="#9eb1be" fill-rule="nonzero" fill-opacity="1" /><path clip-path="url(#clip900)" d="M2037.82 1517.37 Q2034.21 1517.37 2032.38 1520.93 Q2030.58 1524.47 2030.58 1531.6 Q2030.58 1538.71 2032.38 1542.27 Q2034.21 1545.82 2037.82 1545.82 Q2041.46 1545.82 2043.26 1542.27 Q2045.09 1538.71 2045.09 1531.6 Q2045.09 1524.47 2043.26 1520.93 Q2041.46 1517.37 2037.82 1517.37 M2037.82 1513.66 Q2043.63 1513.66 2046.69 1518.27 Q2049.77 1522.85 2049.77 1531.6 Q2049.77 1540.33 2046.69 1544.94 Q2043.63 1549.52 2037.82 1549.52 Q2032.01 1549.52 2028.94 1544.94 Q2025.88 1540.33 2025.88 1531.6 Q2025.88 1522.85 2028.94 1518.27 Q2032.01 1513.66 2037.82 1513.66 Z" fill="#9eb1be" fill-rule="nonzero" fill-opacity="1" /><path clip-path="url(#clip900)" d="M2055.23 1533.96 L2067.71 1533.96 L2067.71 1537.76 L2055.23 1537.76 L2055.23 1533.96 Z" fill="#9eb1be" fill-rule="nonzero" fill-opacity="1" /><path clip-path="url(#clip900)" d="M2085.09 1517.37 Q2081.48 1517.37 2079.65 1520.93 Q2077.85 1524.47 2077.85 1531.6 Q2077.85 1538.71 2079.65 1542.27 Q2081.48 1545.82 2085.09 1545.82 Q2088.73 1545.82 2090.53 1542.27 Q2092.36 1538.71 2092.36 1531.6 Q2092.36 1524.47 2090.53 1520.93 Q2088.73 1517.37 2085.09 1517.37 M2085.09 1513.66 Q2090.9 1513.66 2093.96 1518.27 Q2097.04 1522.85 2097.04 1531.6 Q2097.04 1540.33 2093.96 1544.94 Q2090.9 1549.52 2085.09 1549.52 Q2079.28 1549.52 2076.2 1544.94 Q2073.15 1540.33 2073.15 1531.6 Q2073.15 1522.85 2076.2 1518.27 Q2079.28 1513.66 2085.09 1513.66 Z" fill="#9eb1be" fill-rule="nonzero" fill-opacity="1" /><path clip-path="url(#clip900)" d="M2106.06 1544.91 L2113.7 1544.91 L2113.7 1518.55 L2105.39 1520.21 L2105.39 1515.95 L2113.66 1514.29 L2118.33 1514.29 L2118.33 1544.91 L2125.97 1544.91 L2125.97 1548.85 L2106.06 1548.85 L2106.06 1544.91 Z" fill="#9eb1be" fill-rule="nonzero" fill-opacity="1" /><path clip-path="url(#clip900)" d="M2132.66 1533.96 L2145.14 1533.96 L2145.14 1537.76 L2132.66 1537.76 L2132.66 1533.96 Z" fill="#9eb1be" fill-rule="nonzero" fill-opacity="1" /><path clip-path="url(#clip900)" d="M2162.52 1517.37 Q2158.91 1517.37 2157.08 1520.93 Q2155.28 1524.47 2155.28 1531.6 Q2155.28 1538.71 2157.08 1542.27 Q2158.91 1545.82 2162.52 1545.82 Q2166.16 1545.82 2167.96 1542.27 Q2169.79 1538.71 2169.79 1531.6 Q2169.79 1524.47 2167.96 1520.93 Q2166.16 1517.37 2162.52 1517.37 M2162.52 1513.66 Q2168.33 1513.66 2171.39 1518.27 Q2174.47 1522.85 2174.47 1531.6 Q2174.47 1540.33 2171.39 1544.94 Q2168.33 1549.52 2162.52 1549.52 Q2156.71 1549.52 2153.63 1544.94 Q2150.58 1540.33 2150.58 1531.6 Q2150.58 1522.85 2153.63 1518.27 Q2156.71 1513.66 2162.52 1513.66 Z" fill="#9eb1be" fill-rule="nonzero" fill-opacity="1" /><path clip-path="url(#clip900)" d="M2182.82 1548.13 L2182.82 1543.87 Q2184.58 1544.7 2186.39 1545.14 Q2188.19 1545.58 2189.93 1545.58 Q2194.56 1545.58 2196.99 1542.48 Q2199.44 1539.36 2199.79 1533.01 Q2198.45 1535.01 2196.39 1536.07 Q2194.33 1537.13 2191.83 1537.13 Q2186.64 1537.13 2183.61 1534.01 Q2180.6 1530.86 2180.6 1525.42 Q2180.6 1520.1 2183.75 1516.88 Q2186.9 1513.66 2192.13 1513.66 Q2198.12 1513.66 2201.27 1518.27 Q2204.44 1522.85 2204.44 1531.6 Q2204.44 1539.77 2200.56 1544.66 Q2196.69 1549.52 2190.14 1549.52 Q2188.38 1549.52 2186.57 1549.17 Q2184.77 1548.82 2182.82 1548.13 M2192.13 1533.48 Q2195.28 1533.48 2197.11 1531.32 Q2198.96 1529.17 2198.96 1525.42 Q2198.96 1521.7 2197.11 1519.54 Q2195.28 1517.37 2192.13 1517.37 Q2188.98 1517.37 2187.13 1519.54 Q2185.3 1521.7 2185.3 1525.42 Q2185.3 1529.17 2187.13 1531.32 Q2188.98 1533.48 2192.13 1533.48 Z" fill="#9eb1be" fill-rule="nonzero" fill-opacity="1" /><polyline clip-path="url(#clip900)" style="stroke:#adb2b7; stroke-linecap:round; stroke-linejoin:round; stroke-width:4; stroke-opacity:1; fill:none" points="229.445,1486.45 229.445,123.472 "/>
<polyline clip-path="url(#clip900)" style="stroke:#adb2b7; stroke-linecap:round; stroke-linejoin:round; stroke-width:4; stroke-opacity:1; fill:none" points="229.445,1278.42 248.343,1278.42 "/>
<polyline clip-path="url(#clip900)" style="stroke:#adb2b7; stroke-linecap:round; stroke-linejoin:round; stroke-width:4; stroke-opacity:1; fill:none" points="229.445,979.394 248.343,979.394 "/>
<polyline clip-path="url(#clip900)" style="stroke:#adb2b7; stroke-linecap:round; stroke-linejoin:round; stroke-width:4; stroke-opacity:1; fill:none" points="229.445,680.364 248.343,680.364 "/>
<polyline clip-path="url(#clip900)" style="stroke:#adb2b7; stroke-linecap:round; stroke-linejoin:round; stroke-width:4; stroke-opacity:1; fill:none" points="229.445,381.335 248.343,381.335 "/>
<path clip-path="url(#clip900)" d="M51.6634 1291.77 L59.3023 1291.77 L59.3023 1265.4 L50.9921 1267.07 L50.9921 1262.81 L59.256 1261.14 L63.9319 1261.14 L63.9319 1291.77 L71.5707 1291.77 L71.5707 1295.7 L51.6634 1295.7 L51.6634 1291.77 Z" fill="#9eb1be" fill-rule="nonzero" fill-opacity="1" /><path clip-path="url(#clip900)" d="M91.0151 1264.22 Q87.404 1264.22 85.5753 1267.79 Q83.7697 1271.33 83.7697 1278.46 Q83.7697 1285.56 85.5753 1289.13 Q87.404 1292.67 91.0151 1292.67 Q94.6493 1292.67 96.4548 1289.13 Q98.2835 1285.56 98.2835 1278.46 Q98.2835 1271.33 96.4548 1267.79 Q94.6493 1264.22 91.0151 1264.22 M91.0151 1260.52 Q96.8252 1260.52 99.8808 1265.12 Q102.959 1269.71 102.959 1278.46 Q102.959 1287.18 99.8808 1291.79 Q96.8252 1296.37 91.0151 1296.37 Q85.2049 1296.37 82.1262 1291.79 Q79.0707 1287.18 79.0707 1278.46 Q79.0707 1269.71 82.1262 1265.12 Q85.2049 1260.52 91.0151 1260.52 Z" fill="#9eb1be" fill-rule="nonzero" fill-opacity="1" /><path clip-path="url(#clip900)" d="M115.205 1291.77 L131.524 1291.77 L131.524 1295.7 L109.58 1295.7 L109.58 1291.77 Q112.242 1289.01 116.825 1284.38 Q121.432 1279.73 122.612 1278.39 Q124.857 1275.87 125.737 1274.13 Q126.64 1272.37 126.64 1270.68 Q126.64 1267.93 124.695 1266.19 Q122.774 1264.45 119.672 1264.45 Q117.473 1264.45 115.02 1265.22 Q112.589 1265.98 109.811 1267.53 L109.811 1262.81 Q112.635 1261.68 115.089 1261.1 Q117.543 1260.52 119.58 1260.52 Q124.95 1260.52 128.144 1263.2 Q131.339 1265.89 131.339 1270.38 Q131.339 1272.51 130.529 1274.43 Q129.742 1276.33 127.635 1278.92 Q127.057 1279.59 123.955 1282.81 Q120.853 1286 115.205 1291.77 Z" fill="#9eb1be" fill-rule="nonzero" fill-opacity="1" /><path clip-path="url(#clip900)" d="M151.339 1264.22 Q147.728 1264.22 145.899 1267.79 Q144.093 1271.33 144.093 1278.46 Q144.093 1285.56 145.899 1289.13 Q147.728 1292.67 151.339 1292.67 Q154.973 1292.67 156.779 1289.13 Q158.607 1285.56 158.607 1278.46 Q158.607 1271.33 156.779 1267.79 Q154.973 1264.22 151.339 1264.22 M151.339 1260.52 Q157.149 1260.52 160.205 1265.12 Q163.283 1269.71 163.283 1278.46 Q163.283 1287.18 160.205 1291.79 Q157.149 1296.37 151.339 1296.37 Q145.529 1296.37 142.45 1291.79 Q139.394 1287.18 139.394 1278.46 Q139.394 1269.71 142.45 1265.12 Q145.529 1260.52 151.339 1260.52 Z" fill="#9eb1be" fill-rule="nonzero" fill-opacity="1" /><path clip-path="url(#clip900)" d="M181.501 1264.22 Q177.89 1264.22 176.061 1267.79 Q174.255 1271.33 174.255 1278.46 Q174.255 1285.56 176.061 1289.13 Q177.89 1292.67 181.501 1292.67 Q185.135 1292.67 186.94 1289.13 Q188.769 1285.56 188.769 1278.46 Q188.769 1271.33 186.94 1267.79 Q185.135 1264.22 181.501 1264.22 M181.501 1260.52 Q187.311 1260.52 190.366 1265.12 Q193.445 1269.71 193.445 1278.46 Q193.445 1287.18 190.366 1291.79 Q187.311 1296.37 181.501 1296.37 Q175.691 1296.37 172.612 1291.79 Q169.556 1287.18 169.556 1278.46 Q169.556 1269.71 172.612 1265.12 Q175.691 1260.52 181.501 1260.52 Z" fill="#9eb1be" fill-rule="nonzero" fill-opacity="1" /><path clip-path="url(#clip900)" d="M51.6634 992.739 L59.3023 992.739 L59.3023 966.373 L50.9921 968.04 L50.9921 963.78 L59.256 962.114 L63.9319 962.114 L63.9319 992.739 L71.5707 992.739 L71.5707 996.674 L51.6634 996.674 L51.6634 992.739 Z" fill="#9eb1be" fill-rule="nonzero" fill-opacity="1" /><path clip-path="url(#clip900)" d="M91.0151 965.192 Q87.404 965.192 85.5753 968.757 Q83.7697 972.299 83.7697 979.429 Q83.7697 986.535 85.5753 990.1 Q87.404 993.641 91.0151 993.641 Q94.6493 993.641 96.4548 990.1 Q98.2835 986.535 98.2835 979.429 Q98.2835 972.299 96.4548 968.757 Q94.6493 965.192 91.0151 965.192 M91.0151 961.489 Q96.8252 961.489 99.8808 966.095 Q102.959 970.679 102.959 979.429 Q102.959 988.155 99.8808 992.762 Q96.8252 997.345 91.0151 997.345 Q85.2049 997.345 82.1262 992.762 Q79.0707 988.155 79.0707 979.429 Q79.0707 970.679 82.1262 966.095 Q85.2049 961.489 91.0151 961.489 Z" fill="#9eb1be" fill-rule="nonzero" fill-opacity="1" /><path clip-path="url(#clip900)" d="M111.223 962.114 L129.58 962.114 L129.58 966.049 L115.506 966.049 L115.506 974.521 Q116.524 974.174 117.543 974.012 Q118.561 973.827 119.58 973.827 Q125.367 973.827 128.746 976.998 Q132.126 980.169 132.126 985.586 Q132.126 991.165 128.654 994.266 Q125.182 997.345 118.862 997.345 Q116.686 997.345 114.418 996.975 Q112.172 996.604 109.765 995.864 L109.765 991.165 Q111.848 992.299 114.07 992.854 Q116.293 993.41 118.77 993.41 Q122.774 993.41 125.112 991.303 Q127.45 989.197 127.45 985.586 Q127.45 981.975 125.112 979.868 Q122.774 977.762 118.77 977.762 Q116.895 977.762 115.02 978.179 Q113.168 978.595 111.223 979.475 L111.223 962.114 Z" fill="#9eb1be" fill-rule="nonzero" fill-opacity="1" /><path clip-path="url(#clip900)" d="M151.339 965.192 Q147.728 965.192 145.899 968.757 Q144.093 972.299 144.093 979.429 Q144.093 986.535 145.899 990.1 Q147.728 993.641 151.339 993.641 Q154.973 993.641 156.779 990.1 Q158.607 986.535 158.607 979.429 Q158.607 972.299 156.779 968.757 Q154.973 965.192 151.339 965.192 M151.339 961.489 Q157.149 961.489 160.205 966.095 Q163.283 970.679 163.283 979.429 Q163.283 988.155 160.205 992.762 Q157.149 997.345 151.339 997.345 Q145.529 997.345 142.45 992.762 Q139.394 988.155 139.394 979.429 Q139.394 970.679 142.45 966.095 Q145.529 961.489 151.339 961.489 Z" fill="#9eb1be" fill-rule="nonzero" fill-opacity="1" /><path clip-path="url(#clip900)" d="M181.501 965.192 Q177.89 965.192 176.061 968.757 Q174.255 972.299 174.255 979.429 Q174.255 986.535 176.061 990.1 Q177.89 993.641 181.501 993.641 Q185.135 993.641 186.94 990.1 Q188.769 986.535 188.769 979.429 Q188.769 972.299 186.94 968.757 Q185.135 965.192 181.501 965.192 M181.501 961.489 Q187.311 961.489 190.366 966.095 Q193.445 970.679 193.445 979.429 Q193.445 988.155 190.366 992.762 Q187.311 997.345 181.501 997.345 Q175.691 997.345 172.612 992.762 Q169.556 988.155 169.556 979.429 Q169.556 970.679 172.612 966.095 Q175.691 961.489 181.501 961.489 Z" fill="#9eb1be" fill-rule="nonzero" fill-opacity="1" /><path clip-path="url(#clip900)" d="M51.6634 693.709 L59.3023 693.709 L59.3023 667.344 L50.9921 669.01 L50.9921 664.751 L59.256 663.084 L63.9319 663.084 L63.9319 693.709 L71.5707 693.709 L71.5707 697.644 L51.6634 697.644 L51.6634 693.709 Z" fill="#9eb1be" fill-rule="nonzero" fill-opacity="1" /><path clip-path="url(#clip900)" d="M91.0151 666.163 Q87.404 666.163 85.5753 669.728 Q83.7697 673.27 83.7697 680.399 Q83.7697 687.506 85.5753 691.07 Q87.404 694.612 91.0151 694.612 Q94.6493 694.612 96.4548 691.07 Q98.2835 687.506 98.2835 680.399 Q98.2835 673.27 96.4548 669.728 Q94.6493 666.163 91.0151 666.163 M91.0151 662.459 Q96.8252 662.459 99.8808 667.066 Q102.959 671.649 102.959 680.399 Q102.959 689.126 99.8808 693.732 Q96.8252 698.316 91.0151 698.316 Q85.2049 698.316 82.1262 693.732 Q79.0707 689.126 79.0707 680.399 Q79.0707 671.649 82.1262 667.066 Q85.2049 662.459 91.0151 662.459 Z" fill="#9eb1be" fill-rule="nonzero" fill-opacity="1" /><path clip-path="url(#clip900)" d="M121.177 681.232 Q117.844 681.232 115.922 683.015 Q114.024 684.797 114.024 687.922 Q114.024 691.047 115.922 692.83 Q117.844 694.612 121.177 694.612 Q124.51 694.612 126.432 692.83 Q128.353 691.024 128.353 687.922 Q128.353 684.797 126.432 683.015 Q124.533 681.232 121.177 681.232 M116.501 679.242 Q113.492 678.501 111.802 676.441 Q110.135 674.381 110.135 671.418 Q110.135 667.274 113.075 664.867 Q116.038 662.459 121.177 662.459 Q126.339 662.459 129.279 664.867 Q132.219 667.274 132.219 671.418 Q132.219 674.381 130.529 676.441 Q128.862 678.501 125.876 679.242 Q129.256 680.029 131.131 682.32 Q133.029 684.612 133.029 687.922 Q133.029 692.945 129.95 695.631 Q126.894 698.316 121.177 698.316 Q115.459 698.316 112.381 695.631 Q109.325 692.945 109.325 687.922 Q109.325 684.612 111.223 682.32 Q113.121 680.029 116.501 679.242 M114.788 671.858 Q114.788 674.543 116.455 676.047 Q118.145 677.552 121.177 677.552 Q124.186 677.552 125.876 676.047 Q127.589 674.543 127.589 671.858 Q127.589 669.172 125.876 667.668 Q124.186 666.163 121.177 666.163 Q118.145 666.163 116.455 667.668 Q114.788 669.172 114.788 671.858 Z" fill="#9eb1be" fill-rule="nonzero" fill-opacity="1" /><path clip-path="url(#clip900)" d="M151.339 666.163 Q147.728 666.163 145.899 669.728 Q144.093 673.27 144.093 680.399 Q144.093 687.506 145.899 691.07 Q147.728 694.612 151.339 694.612 Q154.973 694.612 156.779 691.07 Q158.607 687.506 158.607 680.399 Q158.607 673.27 156.779 669.728 Q154.973 666.163 151.339 666.163 M151.339 662.459 Q157.149 662.459 160.205 667.066 Q163.283 671.649 163.283 680.399 Q163.283 689.126 160.205 693.732 Q157.149 698.316 151.339 698.316 Q145.529 698.316 142.45 693.732 Q139.394 689.126 139.394 680.399 Q139.394 671.649 142.45 667.066 Q145.529 662.459 151.339 662.459 Z" fill="#9eb1be" fill-rule="nonzero" fill-opacity="1" /><path clip-path="url(#clip900)" d="M181.501 666.163 Q177.89 666.163 176.061 669.728 Q174.255 673.27 174.255 680.399 Q174.255 687.506 176.061 691.07 Q177.89 694.612 181.501 694.612 Q185.135 694.612 186.94 691.07 Q188.769 687.506 188.769 680.399 Q188.769 673.27 186.94 669.728 Q185.135 666.163 181.501 666.163 M181.501 662.459 Q187.311 662.459 190.366 667.066 Q193.445 671.649 193.445 680.399 Q193.445 689.126 190.366 693.732 Q187.311 698.316 181.501 698.316 Q175.691 698.316 172.612 693.732 Q169.556 689.126 169.556 680.399 Q169.556 671.649 172.612 667.066 Q175.691 662.459 181.501 662.459 Z" fill="#9eb1be" fill-rule="nonzero" fill-opacity="1" /><path clip-path="url(#clip900)" d="M51.6634 394.68 L59.3023 394.68 L59.3023 368.314 L50.9921 369.981 L50.9921 365.722 L59.256 364.055 L63.9319 364.055 L63.9319 394.68 L71.5707 394.68 L71.5707 398.615 L51.6634 398.615 L51.6634 394.68 Z" fill="#9eb1be" fill-rule="nonzero" fill-opacity="1" /><path clip-path="url(#clip900)" d="M81.8253 394.68 L89.4641 394.68 L89.4641 368.314 L81.154 369.981 L81.154 365.722 L89.4178 364.055 L94.0937 364.055 L94.0937 394.68 L101.733 394.68 L101.733 398.615 L81.8253 398.615 L81.8253 394.68 Z" fill="#9eb1be" fill-rule="nonzero" fill-opacity="1" /><path clip-path="url(#clip900)" d="M111.987 394.68 L119.626 394.68 L119.626 368.314 L111.316 369.981 L111.316 365.722 L119.58 364.055 L124.256 364.055 L124.256 394.68 L131.894 394.68 L131.894 398.615 L111.987 398.615 L111.987 394.68 Z" fill="#9eb1be" fill-rule="nonzero" fill-opacity="1" /><path clip-path="url(#clip900)" d="M151.339 367.134 Q147.728 367.134 145.899 370.699 Q144.093 374.24 144.093 381.37 Q144.093 388.476 145.899 392.041 Q147.728 395.583 151.339 395.583 Q154.973 395.583 156.779 392.041 Q158.607 388.476 158.607 381.37 Q158.607 374.24 156.779 370.699 Q154.973 367.134 151.339 367.134 M151.339 363.43 Q157.149 363.43 160.205 368.037 Q163.283 372.62 163.283 381.37 Q163.283 390.097 160.205 394.703 Q157.149 399.286 151.339 399.286 Q145.529 399.286 142.45 394.703 Q139.394 390.097 139.394 381.37 Q139.394 372.62 142.45 368.037 Q145.529 363.43 151.339 363.43 Z" fill="#9eb1be" fill-rule="nonzero" fill-opacity="1" /><path clip-path="url(#clip900)" d="M181.501 367.134 Q177.89 367.134 176.061 370.699 Q174.255 374.24 174.255 381.37 Q174.255 388.476 176.061 392.041 Q177.89 395.583 181.501 395.583 Q185.135 395.583 186.94 392.041 Q188.769 388.476 188.769 381.37 Q188.769 374.24 186.94 370.699 Q185.135 367.134 181.501 367.134 M181.501 363.43 Q187.311 363.43 190.366 368.037 Q193.445 372.62 193.445 381.37 Q193.445 390.097 190.366 394.703 Q187.311 399.286 181.501 399.286 Q175.691 399.286 172.612 394.703 Q169.556 390.097 169.556 381.37 Q169.556 372.62 172.612 368.037 Q175.691 363.43 181.501 363.43 Z" fill="#9eb1be" fill-rule="nonzero" fill-opacity="1" /><path clip-path="url(#clip900)" d="M1165.24 12.096 L1203.48 12.096 L1203.48 18.9825 L1173.42 18.9825 L1173.42 36.8875 L1202.22 36.8875 L1202.22 43.7741 L1173.42 43.7741 L1173.42 65.6895 L1204.21 65.6895 L1204.21 72.576 L1165.24 72.576 L1165.24 12.096 Z" fill="#adb2b7" fill-rule="nonzero" fill-opacity="1" /><path clip-path="url(#clip900)" d="M1221.79 49.9314 Q1221.79 58.1548 1225.15 62.8538 Q1228.55 67.5124 1234.47 67.5124 Q1240.38 67.5124 1243.79 62.8538 Q1247.19 58.1548 1247.19 49.9314 Q1247.19 41.7081 1243.79 37.0496 Q1240.38 32.3505 1234.47 32.3505 Q1228.55 32.3505 1225.15 37.0496 Q1221.79 41.7081 1221.79 49.9314 M1247.19 65.7705 Q1244.84 69.8214 1241.23 71.8063 Q1237.67 73.7508 1232.65 73.7508 Q1224.42 73.7508 1219.24 67.1883 Q1214.09 60.6258 1214.09 49.9314 Q1214.09 39.2371 1219.24 32.6746 Q1224.42 26.1121 1232.65 26.1121 Q1237.67 26.1121 1241.23 28.0971 Q1244.84 30.0415 1247.19 34.0924 L1247.19 27.2059 L1254.64 27.2059 L1254.64 89.8329 L1247.19 89.8329 L1247.19 65.7705 Z" fill="#adb2b7" fill-rule="nonzero" fill-opacity="1" /><path clip-path="url(#clip900)" d="M1269.23 54.671 L1269.23 27.2059 L1276.68 27.2059 L1276.68 54.3874 Q1276.68 60.8284 1279.19 64.0691 Q1281.7 67.2693 1286.73 67.2693 Q1292.76 67.2693 1296.25 63.421 Q1299.77 59.5726 1299.77 52.9291 L1299.77 27.2059 L1307.22 27.2059 L1307.22 72.576 L1299.77 72.576 L1299.77 65.6084 Q1297.06 69.7404 1293.45 71.7658 Q1289.89 73.7508 1285.15 73.7508 Q1277.33 73.7508 1273.28 68.8897 Q1269.23 64.0286 1269.23 54.671 M1287.98 26.1121 L1287.98 26.1121 Z" fill="#adb2b7" fill-rule="nonzero" fill-opacity="1" /><path clip-path="url(#clip900)" d="M1322.58 27.2059 L1330.03 27.2059 L1330.03 72.576 L1322.58 72.576 L1322.58 27.2059 M1322.58 9.54393 L1330.03 9.54393 L1330.03 18.9825 L1322.58 18.9825 L1322.58 9.54393 Z" fill="#adb2b7" fill-rule="nonzero" fill-opacity="1" /><path clip-path="url(#clip900)" d="M1353 14.324 L1353 27.2059 L1368.35 27.2059 L1368.35 32.9987 L1353 32.9987 L1353 57.6282 Q1353 63.1779 1354.5 64.7578 Q1356.04 66.3376 1360.7 66.3376 L1368.35 66.3376 L1368.35 72.576 L1360.7 72.576 Q1352.07 72.576 1348.79 69.3758 Q1345.5 66.1351 1345.5 57.6282 L1345.5 32.9987 L1340.04 32.9987 L1340.04 27.2059 L1345.5 27.2059 L1345.5 14.324 L1353 14.324 Z" fill="#adb2b7" fill-rule="nonzero" fill-opacity="1" /><path clip-path="url(#clip900)" d="M1397.03 76.7889 Q1393.87 84.8907 1390.87 87.3618 Q1387.88 89.8329 1382.85 89.8329 L1376.9 89.8329 L1376.9 83.5945 L1381.27 83.5945 Q1384.35 83.5945 1386.05 82.1361 Q1387.76 80.6778 1389.82 75.2496 L1391.16 71.8468 L1372.81 27.2059 L1380.71 27.2059 L1394.88 62.6918 L1409.06 27.2059 L1416.96 27.2059 L1397.03 76.7889 Z" fill="#adb2b7" fill-rule="nonzero" fill-opacity="1" /><polyline clip-path="url(#clip901)" style="stroke:#bbbb00; stroke-linecap:round; stroke-linejoin:round; stroke-width:4; stroke-opacity:1; fill:none" points="289.539,1358.16 512.108,1358.16 512.108,1447.87 734.677,1447.87 734.677,1059.13 957.247,1059.13 957.247,1148.84 1179.82,1148.84 1179.82,760.106 1402.39,760.106 1402.39,849.814 1624.95,849.814 1624.95,461.076 1847.52,461.076 1847.52,550.785 2070.09,550.785 2070.09,162.047 2292.66,162.047 2292.66,251.756 "/>
</svg>
