<?xml version="1.0" encoding="utf-8"?>
<svg xmlns="http://www.w3.org/2000/svg" xmlns:xlink="http://www.w3.org/1999/xlink" width="600" height="400" viewBox="0 0 2400 1600">
<defs>
  <clipPath id="clip270">
    <rect x="0" y="0" width="2400" height="1600"/>
  </clipPath>
</defs>
<path clip-path="url(#clip270)" d="M0 1600 L2400 1600 L2400 0 L0 0  Z" fill="#282c34" fill-rule="evenodd" fill-opacity="1"/>
<defs>
  <clipPath id="clip271">
    <rect x="229" y="123" width="2124" height="1364"/>
  </clipPath>
</defs>
<path clip-path="url(#clip270)" d="M229.445 1486.45 L2352.76 1486.45 L2352.76 123.472 L229.445 123.472  Z" fill="#21252b" fill-rule="evenodd" fill-opacity="1"/>
<polyline clip-path="url(#clip271)" style="stroke:#adb2b7; stroke-linecap:round; stroke-linejoin:round; stroke-width:2; stroke-opacity:0.1; fill:none" points="289.539,1486.45 289.539,123.472 "/>
<polyline clip-path="url(#clip271)" style="stroke:#adb2b7; stroke-linecap:round; stroke-linejoin:round; stroke-width:2; stroke-opacity:0.1; fill:none" points="824.448,1486.45 824.448,123.472 "/>
<polyline clip-path="url(#clip271)" style="stroke:#adb2b7; stroke-linecap:round; stroke-linejoin:round; stroke-width:2; stroke-opacity:0.1; fill:none" points="1359.36,1486.45 1359.36,123.472 "/>
<polyline clip-path="url(#clip271)" style="stroke:#adb2b7; stroke-linecap:round; stroke-linejoin:round; stroke-width:2; stroke-opacity:0.1; fill:none" points="1894.27,1486.45 1894.27,123.472 "/>
<polyline clip-path="url(#clip271)" style="stroke:#adb2b7; stroke-linecap:round; stroke-linejoin:round; stroke-width:2; stroke-opacity:0.1; fill:none" points="229.445,1486.45 2352.76,1486.45 "/>
<polyline clip-path="url(#clip271)" style="stroke:#adb2b7; stroke-linecap:round; stroke-linejoin:round; stroke-width:2; stroke-opacity:0.1; fill:none" points="229.445,1203.71 2352.76,1203.71 "/>
<polyline clip-path="url(#clip271)" style="stroke:#adb2b7; stroke-linecap:round; stroke-linejoin:round; stroke-width:2; stroke-opacity:0.1; fill:none" points="229.445,920.963 2352.76,920.963 "/>
<polyline clip-path="url(#clip271)" style="stroke:#adb2b7; stroke-linecap:round; stroke-linejoin:round; stroke-width:2; stroke-opacity:0.1; fill:none" points="229.445,638.221 2352.76,638.221 "/>
<polyline clip-path="url(#clip271)" style="stroke:#adb2b7; stroke-linecap:round; stroke-linejoin:round; stroke-width:2; stroke-opacity:0.1; fill:none" points="229.445,355.478 2352.76,355.478 "/>
<polyline clip-path="url(#clip270)" style="stroke:#adb2b7; stroke-linecap:round; stroke-linejoin:round; stroke-width:4; stroke-opacity:1; fill:none" points="229.445,1486.45 2352.76,1486.45 "/>
<polyline clip-path="url(#clip270)" style="stroke:#adb2b7; stroke-linecap:round; stroke-linejoin:round; stroke-width:4; stroke-opacity:1; fill:none" points="289.539,1486.45 289.539,1467.55 "/>
<polyline clip-path="url(#clip270)" style="stroke:#adb2b7; stroke-linecap:round; stroke-linejoin:round; stroke-width:4; stroke-opacity:1; fill:none" points="824.448,1486.45 824.448,1467.55 "/>
<polyline clip-path="url(#clip270)" style="stroke:#adb2b7; stroke-linecap:round; stroke-linejoin:round; stroke-width:4; stroke-opacity:1; fill:none" points="1359.36,1486.45 1359.36,1467.55 "/>
<polyline clip-path="url(#clip270)" style="stroke:#adb2b7; stroke-linecap:round; stroke-linejoin:round; stroke-width:4; stroke-opacity:1; fill:none" points="1894.27,1486.45 1894.27,1467.55 "/>
<path clip-path="url(#clip270)" d="M161.333 1544.91 L177.653 1544.91 L177.653 1548.85 L155.708 1548.85 L155.708 1544.91 Q158.37 1542.16 162.954 1537.53 Q167.56 1532.88 168.741 1531.53 Q170.986 1529.01 171.866 1527.27 Q172.769 1525.51 172.769 1523.82 Q172.769 1521.07 170.824 1519.33 Q168.903 1517.6 165.801 1517.6 Q163.602 1517.6 161.148 1518.36 Q158.718 1519.13 155.94 1520.68 L155.94 1515.95 Q158.764 1514.82 161.218 1514.24 Q163.671 1513.66 165.708 1513.66 Q171.079 1513.66 174.273 1516.35 Q177.468 1519.03 177.468 1523.52 Q177.468 1525.65 176.657 1527.57 Q175.87 1529.47 173.764 1532.07 Q173.185 1532.74 170.083 1535.95 Q166.982 1539.15 161.333 1544.91 Z" fill="#9eb1be" fill-rule="nonzero" fill-opacity="1" /><path clip-path="url(#clip270)" d="M197.468 1517.37 Q193.856 1517.37 192.028 1520.93 Q190.222 1524.47 190.222 1531.6 Q190.222 1538.71 192.028 1542.27 Q193.856 1545.82 197.468 1545.82 Q201.102 1545.82 202.907 1542.27 Q204.736 1538.71 204.736 1531.6 Q204.736 1524.47 202.907 1520.93 Q201.102 1517.37 197.468 1517.37 M197.468 1513.66 Q203.278 1513.66 206.333 1518.27 Q209.412 1522.85 209.412 1531.6 Q209.412 1540.33 206.333 1544.94 Q203.278 1549.52 197.468 1549.52 Q191.657 1549.52 188.579 1544.94 Q185.523 1540.33 185.523 1531.6 Q185.523 1522.85 188.579 1518.27 Q191.657 1513.66 197.468 1513.66 Z" fill="#9eb1be" fill-rule="nonzero" fill-opacity="1" /><path clip-path="url(#clip270)" d="M221.657 1544.91 L237.977 1544.91 L237.977 1548.85 L216.032 1548.85 L216.032 1544.91 Q218.694 1542.16 223.278 1537.53 Q227.884 1532.88 229.065 1531.53 Q231.31 1529.01 232.19 1527.27 Q233.092 1525.51 233.092 1523.82 Q233.092 1521.07 231.148 1519.33 Q229.227 1517.6 226.125 1517.6 Q223.926 1517.6 221.472 1518.36 Q219.041 1519.13 216.264 1520.68 L216.264 1515.95 Q219.088 1514.82 221.541 1514.24 Q223.995 1513.66 226.032 1513.66 Q231.403 1513.66 234.597 1516.35 Q237.791 1519.03 237.791 1523.52 Q237.791 1525.65 236.981 1527.57 Q236.194 1529.47 234.088 1532.07 Q233.509 1532.74 230.407 1535.95 Q227.305 1539.15 221.657 1544.91 Z" fill="#9eb1be" fill-rule="nonzero" fill-opacity="1" /><path clip-path="url(#clip270)" d="M260.638 1518.36 L248.833 1536.81 L260.638 1536.81 L260.638 1518.36 M259.412 1514.29 L265.291 1514.29 L265.291 1536.81 L270.222 1536.81 L270.222 1540.7 L265.291 1540.7 L265.291 1548.85 L260.638 1548.85 L260.638 1540.7 L245.037 1540.7 L245.037 1536.19 L259.412 1514.29 Z" fill="#9eb1be" fill-rule="nonzero" fill-opacity="1" /><path clip-path="url(#clip270)" d="M275.199 1533.96 L287.675 1533.96 L287.675 1537.76 L275.199 1537.76 L275.199 1533.96 Z" fill="#9eb1be" fill-rule="nonzero" fill-opacity="1" /><path clip-path="url(#clip270)" d="M305.06 1517.37 Q301.448 1517.37 299.62 1520.93 Q297.814 1524.47 297.814 1531.6 Q297.814 1538.71 299.62 1542.27 Q301.448 1545.82 305.06 1545.82 Q308.694 1545.82 310.499 1542.27 Q312.328 1538.71 312.328 1531.6 Q312.328 1524.47 310.499 1520.93 Q308.694 1517.37 305.06 1517.37 M305.06 1513.66 Q310.87 1513.66 313.925 1518.27 Q317.004 1522.85 317.004 1531.6 Q317.004 1540.33 313.925 1544.94 Q310.87 1549.52 305.06 1549.52 Q299.249 1549.52 296.171 1544.94 Q293.115 1540.33 293.115 1531.6 Q293.115 1522.85 296.171 1518.27 Q299.249 1513.66 305.06 1513.66 Z" fill="#9eb1be" fill-rule="nonzero" fill-opacity="1" /><path clip-path="url(#clip270)" d="M326.032 1544.91 L333.67 1544.91 L333.67 1518.55 L325.36 1520.21 L325.36 1515.95 L333.624 1514.29 L338.3 1514.29 L338.3 1544.91 L345.939 1544.91 L345.939 1548.85 L326.032 1548.85 L326.032 1544.91 Z" fill="#9eb1be" fill-rule="nonzero" fill-opacity="1" /><path clip-path="url(#clip270)" d="M352.629 1533.96 L365.105 1533.96 L365.105 1537.76 L352.629 1537.76 L352.629 1533.96 Z" fill="#9eb1be" fill-rule="nonzero" fill-opacity="1" /><path clip-path="url(#clip270)" d="M382.49 1517.37 Q378.879 1517.37 377.05 1520.93 Q375.244 1524.47 375.244 1531.6 Q375.244 1538.71 377.05 1542.27 Q378.879 1545.82 382.49 1545.82 Q386.124 1545.82 387.929 1542.27 Q389.758 1538.71 389.758 1531.6 Q389.758 1524.47 387.929 1520.93 Q386.124 1517.37 382.49 1517.37 M382.49 1513.66 Q388.3 1513.66 391.355 1518.27 Q394.434 1522.85 394.434 1531.6 Q394.434 1540.33 391.355 1544.94 Q388.3 1549.52 382.49 1549.52 Q376.68 1549.52 373.601 1544.94 Q370.545 1540.33 370.545 1531.6 Q370.545 1522.85 373.601 1518.27 Q376.68 1513.66 382.49 1513.66 Z" fill="#9eb1be" fill-rule="nonzero" fill-opacity="1" /><path clip-path="url(#clip270)" d="M403.462 1544.91 L411.101 1544.91 L411.101 1518.55 L402.79 1520.21 L402.79 1515.95 L411.054 1514.29 L415.73 1514.29 L415.73 1544.91 L423.369 1544.91 L423.369 1548.85 L403.462 1548.85 L403.462 1544.91 Z" fill="#9eb1be" fill-rule="nonzero" fill-opacity="1" /><path clip-path="url(#clip270)" d="M695.722 1544.91 L712.041 1544.91 L712.041 1548.85 L690.097 1548.85 L690.097 1544.91 Q692.759 1542.16 697.342 1537.53 Q701.949 1532.88 703.129 1531.53 Q705.375 1529.01 706.254 1527.27 Q707.157 1525.51 707.157 1523.82 Q707.157 1521.07 705.212 1519.33 Q703.291 1517.6 700.189 1517.6 Q697.99 1517.6 695.537 1518.36 Q693.106 1519.13 690.328 1520.68 L690.328 1515.95 Q693.152 1514.82 695.606 1514.24 Q698.06 1513.66 700.097 1513.66 Q705.467 1513.66 708.662 1516.35 Q711.856 1519.03 711.856 1523.52 Q711.856 1525.65 711.046 1527.57 Q710.259 1529.47 708.152 1532.07 Q707.574 1532.74 704.472 1535.95 Q701.37 1539.15 695.722 1544.91 Z" fill="#9eb1be" fill-rule="nonzero" fill-opacity="1" /><path clip-path="url(#clip270)" d="M731.856 1517.37 Q728.245 1517.37 726.416 1520.93 Q724.611 1524.47 724.611 1531.6 Q724.611 1538.71 726.416 1542.27 Q728.245 1545.82 731.856 1545.82 Q735.49 1545.82 737.296 1542.27 Q739.124 1538.71 739.124 1531.6 Q739.124 1524.47 737.296 1520.93 Q735.49 1517.37 731.856 1517.37 M731.856 1513.66 Q737.666 1513.66 740.722 1518.27 Q743.8 1522.85 743.8 1531.6 Q743.8 1540.33 740.722 1544.94 Q737.666 1549.52 731.856 1549.52 Q726.046 1549.52 722.967 1544.94 Q719.911 1540.33 719.911 1531.6 Q719.911 1522.85 722.967 1518.27 Q726.046 1513.66 731.856 1513.66 Z" fill="#9eb1be" fill-rule="nonzero" fill-opacity="1" /><path clip-path="url(#clip270)" d="M756.046 1544.91 L772.365 1544.91 L772.365 1548.85 L750.421 1548.85 L750.421 1544.91 Q753.083 1542.16 757.666 1537.53 Q762.272 1532.88 763.453 1531.53 Q765.698 1529.01 766.578 1527.27 Q767.481 1525.51 767.481 1523.82 Q767.481 1521.07 765.536 1519.33 Q763.615 1517.6 760.513 1517.6 Q758.314 1517.6 755.86 1518.36 Q753.43 1519.13 750.652 1520.68 L750.652 1515.95 Q753.476 1514.82 755.93 1514.24 Q758.383 1513.66 760.421 1513.66 Q765.791 1513.66 768.985 1516.35 Q772.18 1519.03 772.18 1523.52 Q772.18 1525.65 771.37 1527.57 Q770.582 1529.47 768.476 1532.07 Q767.897 1532.74 764.795 1535.95 Q761.694 1539.15 756.046 1544.91 Z" fill="#9eb1be" fill-rule="nonzero" fill-opacity="1" /><path clip-path="url(#clip270)" d="M795.027 1518.36 L783.221 1536.81 L795.027 1536.81 L795.027 1518.36 M793.8 1514.29 L799.68 1514.29 L799.68 1536.81 L804.61 1536.81 L804.61 1540.7 L799.68 1540.7 L799.68 1548.85 L795.027 1548.85 L795.027 1540.7 L779.425 1540.7 L779.425 1536.19 L793.8 1514.29 Z" fill="#9eb1be" fill-rule="nonzero" fill-opacity="1" /><path clip-path="url(#clip270)" d="M809.587 1533.96 L822.064 1533.96 L822.064 1537.76 L809.587 1537.76 L809.587 1533.96 Z" fill="#9eb1be" fill-rule="nonzero" fill-opacity="1" /><path clip-path="url(#clip270)" d="M839.448 1517.37 Q835.837 1517.37 834.008 1520.93 Q832.203 1524.47 832.203 1531.6 Q832.203 1538.71 834.008 1542.27 Q835.837 1545.82 839.448 1545.82 Q843.082 1545.82 844.888 1542.27 Q846.716 1538.71 846.716 1531.6 Q846.716 1524.47 844.888 1520.93 Q843.082 1517.37 839.448 1517.37 M839.448 1513.66 Q845.258 1513.66 848.314 1518.27 Q851.392 1522.85 851.392 1531.6 Q851.392 1540.33 848.314 1544.94 Q845.258 1549.52 839.448 1549.52 Q833.638 1549.52 830.559 1544.94 Q827.503 1540.33 827.503 1531.6 Q827.503 1522.85 830.559 1518.27 Q833.638 1513.66 839.448 1513.66 Z" fill="#9eb1be" fill-rule="nonzero" fill-opacity="1" /><path clip-path="url(#clip270)" d="M860.42 1544.91 L868.059 1544.91 L868.059 1518.55 L859.749 1520.21 L859.749 1515.95 L868.013 1514.29 L872.688 1514.29 L872.688 1544.91 L880.327 1544.91 L880.327 1548.85 L860.42 1548.85 L860.42 1544.91 Z" fill="#9eb1be" fill-rule="nonzero" fill-opacity="1" /><path clip-path="url(#clip270)" d="M887.017 1533.96 L899.494 1533.96 L899.494 1537.76 L887.017 1537.76 L887.017 1533.96 Z" fill="#9eb1be" fill-rule="nonzero" fill-opacity="1" /><path clip-path="url(#clip270)" d="M916.878 1517.37 Q913.267 1517.37 911.438 1520.93 Q909.633 1524.47 909.633 1531.6 Q909.633 1538.71 911.438 1542.27 Q913.267 1545.82 916.878 1545.82 Q920.512 1545.82 922.318 1542.27 Q924.146 1538.71 924.146 1531.6 Q924.146 1524.47 922.318 1520.93 Q920.512 1517.37 916.878 1517.37 M916.878 1513.66 Q922.688 1513.66 925.744 1518.27 Q928.822 1522.85 928.822 1531.6 Q928.822 1540.33 925.744 1544.94 Q922.688 1549.52 916.878 1549.52 Q911.068 1549.52 907.989 1544.94 Q904.934 1540.33 904.934 1531.6 Q904.934 1522.85 907.989 1518.27 Q911.068 1513.66 916.878 1513.66 Z" fill="#9eb1be" fill-rule="nonzero" fill-opacity="1" /><path clip-path="url(#clip270)" d="M937.179 1548.13 L937.179 1543.87 Q938.938 1544.7 940.744 1545.14 Q942.549 1545.58 944.285 1545.58 Q948.915 1545.58 951.345 1542.48 Q953.799 1539.36 954.146 1533.01 Q952.804 1535.01 950.744 1536.07 Q948.683 1537.13 946.183 1537.13 Q940.998 1537.13 937.966 1534.01 Q934.957 1530.86 934.957 1525.42 Q934.957 1520.1 938.105 1516.88 Q941.253 1513.66 946.484 1513.66 Q952.48 1513.66 955.628 1518.27 Q958.799 1522.85 958.799 1531.6 Q958.799 1539.77 954.91 1544.66 Q951.044 1549.52 944.494 1549.52 Q942.734 1549.52 940.929 1549.17 Q939.123 1548.82 937.179 1548.13 M946.484 1533.48 Q949.632 1533.48 951.461 1531.32 Q953.313 1529.17 953.313 1525.42 Q953.313 1521.7 951.461 1519.54 Q949.632 1517.37 946.484 1517.37 Q943.336 1517.37 941.484 1519.54 Q939.656 1521.7 939.656 1525.42 Q939.656 1529.17 941.484 1531.32 Q943.336 1533.48 946.484 1533.48 Z" fill="#9eb1be" fill-rule="nonzero" fill-opacity="1" /><path clip-path="url(#clip270)" d="M1230.99 1544.91 L1247.31 1544.91 L1247.31 1548.85 L1225.36 1548.85 L1225.36 1544.91 Q1228.03 1542.16 1232.61 1537.53 Q1237.22 1532.88 1238.4 1531.53 Q1240.64 1529.01 1241.52 1527.27 Q1242.42 1525.51 1242.42 1523.82 Q1242.42 1521.07 1240.48 1519.33 Q1238.56 1517.6 1235.46 1517.6 Q1233.26 1517.6 1230.8 1518.36 Q1228.37 1519.13 1225.6 1520.68 L1225.6 1515.95 Q1228.42 1514.82 1230.87 1514.24 Q1233.33 1513.66 1235.36 1513.66 Q1240.74 1513.66 1243.93 1516.35 Q1247.12 1519.03 1247.12 1523.52 Q1247.12 1525.65 1246.31 1527.57 Q1245.53 1529.47 1243.42 1532.07 Q1242.84 1532.74 1239.74 1535.95 Q1236.64 1539.15 1230.99 1544.91 Z" fill="#9eb1be" fill-rule="nonzero" fill-opacity="1" /><path clip-path="url(#clip270)" d="M1267.12 1517.37 Q1263.51 1517.37 1261.68 1520.93 Q1259.88 1524.47 1259.88 1531.6 Q1259.88 1538.71 1261.68 1542.27 Q1263.51 1545.82 1267.12 1545.82 Q1270.76 1545.82 1272.56 1542.27 Q1274.39 1538.71 1274.39 1531.6 Q1274.39 1524.47 1272.56 1520.93 Q1270.76 1517.37 1267.12 1517.37 M1267.12 1513.66 Q1272.93 1513.66 1275.99 1518.27 Q1279.07 1522.85 1279.07 1531.6 Q1279.07 1540.33 1275.99 1544.94 Q1272.93 1549.52 1267.12 1549.52 Q1261.31 1549.52 1258.23 1544.94 Q1255.18 1540.33 1255.18 1531.6 Q1255.18 1522.85 1258.23 1518.27 Q1261.31 1513.66 1267.12 1513.66 Z" fill="#9eb1be" fill-rule="nonzero" fill-opacity="1" /><path clip-path="url(#clip270)" d="M1291.31 1544.91 L1307.63 1544.91 L1307.63 1548.85 L1285.69 1548.85 L1285.69 1544.91 Q1288.35 1542.16 1292.93 1537.53 Q1297.54 1532.88 1298.72 1531.53 Q1300.97 1529.01 1301.85 1527.27 Q1302.75 1525.51 1302.75 1523.82 Q1302.75 1521.07 1300.8 1519.33 Q1298.88 1517.6 1295.78 1517.6 Q1293.58 1517.6 1291.13 1518.36 Q1288.7 1519.13 1285.92 1520.68 L1285.92 1515.95 Q1288.74 1514.82 1291.2 1514.24 Q1293.65 1513.66 1295.69 1513.66 Q1301.06 1513.66 1304.25 1516.35 Q1307.45 1519.03 1307.45 1523.52 Q1307.45 1525.65 1306.64 1527.57 Q1305.85 1529.47 1303.74 1532.07 Q1303.17 1532.74 1300.06 1535.95 Q1296.96 1539.15 1291.31 1544.91 Z" fill="#9eb1be" fill-rule="nonzero" fill-opacity="1" /><path clip-path="url(#clip270)" d="M1330.29 1518.36 L1318.49 1536.81 L1330.29 1536.81 L1330.29 1518.36 M1329.07 1514.29 L1334.95 1514.29 L1334.95 1536.81 L1339.88 1536.81 L1339.88 1540.7 L1334.95 1540.7 L1334.95 1548.85 L1330.29 1548.85 L1330.29 1540.7 L1314.69 1540.7 L1314.69 1536.19 L1329.07 1514.29 Z" fill="#9eb1be" fill-rule="nonzero" fill-opacity="1" /><path clip-path="url(#clip270)" d="M1344.85 1533.96 L1357.33 1533.96 L1357.33 1537.76 L1344.85 1537.76 L1344.85 1533.96 Z" fill="#9eb1be" fill-rule="nonzero" fill-opacity="1" /><path clip-path="url(#clip270)" d="M1374.72 1517.37 Q1371.1 1517.37 1369.28 1520.93 Q1367.47 1524.47 1367.47 1531.6 Q1367.47 1538.71 1369.28 1542.27 Q1371.1 1545.82 1374.72 1545.82 Q1378.35 1545.82 1380.16 1542.27 Q1381.98 1538.71 1381.98 1531.6 Q1381.98 1524.47 1380.16 1520.93 Q1378.35 1517.37 1374.72 1517.37 M1374.72 1513.66 Q1380.53 1513.66 1383.58 1518.27 Q1386.66 1522.85 1386.66 1531.6 Q1386.66 1540.33 1383.58 1544.94 Q1380.53 1549.52 1374.72 1549.52 Q1368.91 1549.52 1365.83 1544.94 Q1362.77 1540.33 1362.77 1531.6 Q1362.77 1522.85 1365.83 1518.27 Q1368.91 1513.66 1374.72 1513.66 Z" fill="#9eb1be" fill-rule="nonzero" fill-opacity="1" /><path clip-path="url(#clip270)" d="M1395.69 1544.91 L1403.33 1544.91 L1403.33 1518.55 L1395.02 1520.21 L1395.02 1515.95 L1403.28 1514.29 L1407.96 1514.29 L1407.96 1544.91 L1415.6 1544.91 L1415.6 1548.85 L1395.69 1548.85 L1395.69 1544.91 Z" fill="#9eb1be" fill-rule="nonzero" fill-opacity="1" /><path clip-path="url(#clip270)" d="M1422.29 1533.96 L1434.76 1533.96 L1434.76 1537.76 L1422.29 1537.76 L1422.29 1533.96 Z" fill="#9eb1be" fill-rule="nonzero" fill-opacity="1" /><path clip-path="url(#clip270)" d="M1442.96 1544.91 L1450.6 1544.91 L1450.6 1518.55 L1442.28 1520.21 L1442.28 1515.95 L1450.55 1514.29 L1455.22 1514.29 L1455.22 1544.91 L1462.86 1544.91 L1462.86 1548.85 L1442.96 1548.85 L1442.96 1544.91 Z" fill="#9eb1be" fill-rule="nonzero" fill-opacity="1" /><path clip-path="url(#clip270)" d="M1471.13 1514.29 L1493.35 1514.29 L1493.35 1516.28 L1480.8 1548.85 L1475.92 1548.85 L1487.72 1518.22 L1471.13 1518.22 L1471.13 1514.29 Z" fill="#9eb1be" fill-rule="nonzero" fill-opacity="1" /><path clip-path="url(#clip270)" d="M1765.95 1544.91 L1782.26 1544.91 L1782.26 1548.85 L1760.32 1548.85 L1760.32 1544.91 Q1762.98 1542.16 1767.57 1537.53 Q1772.17 1532.88 1773.35 1531.53 Q1775.6 1529.01 1776.48 1527.27 Q1777.38 1525.51 1777.38 1523.82 Q1777.38 1521.07 1775.44 1519.33 Q1773.51 1517.6 1770.41 1517.6 Q1768.21 1517.6 1765.76 1518.36 Q1763.33 1519.13 1760.55 1520.68 L1760.55 1515.95 Q1763.38 1514.82 1765.83 1514.24 Q1768.28 1513.66 1770.32 1513.66 Q1775.69 1513.66 1778.88 1516.35 Q1782.08 1519.03 1782.08 1523.52 Q1782.08 1525.65 1781.27 1527.57 Q1780.48 1529.47 1778.38 1532.07 Q1777.8 1532.74 1774.7 1535.95 Q1771.59 1539.15 1765.95 1544.91 Z" fill="#9eb1be" fill-rule="nonzero" fill-opacity="1" /><path clip-path="url(#clip270)" d="M1802.08 1517.37 Q1798.47 1517.37 1796.64 1520.93 Q1794.83 1524.47 1794.83 1531.6 Q1794.83 1538.71 1796.64 1542.27 Q1798.47 1545.82 1802.08 1545.82 Q1805.71 1545.82 1807.52 1542.27 Q1809.35 1538.71 1809.35 1531.6 Q1809.35 1524.47 1807.52 1520.93 Q1805.71 1517.37 1802.08 1517.37 M1802.08 1513.66 Q1807.89 1513.66 1810.94 1518.27 Q1814.02 1522.85 1814.02 1531.6 Q1814.02 1540.33 1810.94 1544.94 Q1807.89 1549.52 1802.08 1549.52 Q1796.27 1549.52 1793.19 1544.94 Q1790.13 1540.33 1790.13 1531.6 Q1790.13 1522.85 1793.19 1518.27 Q1796.27 1513.66 1802.08 1513.66 Z" fill="#9eb1be" fill-rule="nonzero" fill-opacity="1" /><path clip-path="url(#clip270)" d="M1826.27 1544.91 L1842.59 1544.91 L1842.59 1548.85 L1820.64 1548.85 L1820.64 1544.91 Q1823.31 1542.16 1827.89 1537.53 Q1832.5 1532.88 1833.68 1531.53 Q1835.92 1529.01 1836.8 1527.27 Q1837.7 1525.51 1837.7 1523.82 Q1837.7 1521.07 1835.76 1519.33 Q1833.84 1517.6 1830.74 1517.6 Q1828.54 1517.6 1826.08 1518.36 Q1823.65 1519.13 1820.88 1520.68 L1820.88 1515.95 Q1823.7 1514.82 1826.15 1514.24 Q1828.61 1513.66 1830.64 1513.66 Q1836.01 1513.66 1839.21 1516.35 Q1842.4 1519.03 1842.4 1523.52 Q1842.4 1525.65 1841.59 1527.57 Q1840.81 1529.47 1838.7 1532.07 Q1838.12 1532.74 1835.02 1535.95 Q1831.92 1539.15 1826.27 1544.91 Z" fill="#9eb1be" fill-rule="nonzero" fill-opacity="1" /><path clip-path="url(#clip270)" d="M1865.25 1518.36 L1853.44 1536.81 L1865.25 1536.81 L1865.25 1518.36 M1864.02 1514.29 L1869.9 1514.29 L1869.9 1536.81 L1874.83 1536.81 L1874.83 1540.7 L1869.9 1540.7 L1869.9 1548.85 L1865.25 1548.85 L1865.25 1540.7 L1849.65 1540.7 L1849.65 1536.19 L1864.02 1514.29 Z" fill="#9eb1be" fill-rule="nonzero" fill-opacity="1" /><path clip-path="url(#clip270)" d="M1879.81 1533.96 L1892.29 1533.96 L1892.29 1537.76 L1879.81 1537.76 L1879.81 1533.96 Z" fill="#9eb1be" fill-rule="nonzero" fill-opacity="1" /><path clip-path="url(#clip270)" d="M1909.67 1517.37 Q1906.06 1517.37 1904.23 1520.93 Q1902.43 1524.47 1902.43 1531.6 Q1902.43 1538.71 1904.23 1542.27 Q1906.06 1545.82 1909.67 1545.82 Q1913.31 1545.82 1915.11 1542.27 Q1916.94 1538.71 1916.94 1531.6 Q1916.94 1524.47 1915.11 1520.93 Q1913.31 1517.37 1909.67 1517.37 M1909.67 1513.66 Q1915.48 1513.66 1918.54 1518.27 Q1921.62 1522.85 1921.62 1531.6 Q1921.62 1540.33 1918.54 1544.94 Q1915.48 1549.52 1909.67 1549.52 Q1903.86 1549.52 1900.78 1544.94 Q1897.73 1540.33 1897.73 1531.6 Q1897.73 1522.85 1900.78 1518.27 Q1903.86 1513.66 1909.67 1513.66 Z" fill="#9eb1be" fill-rule="nonzero" fill-opacity="1" /><path clip-path="url(#clip270)" d="M1930.64 1544.91 L1938.28 1544.91 L1938.28 1518.55 L1929.97 1520.21 L1929.97 1515.95 L1938.24 1514.29 L1942.91 1514.29 L1942.91 1544.91 L1950.55 1544.91 L1950.55 1548.85 L1930.64 1548.85 L1930.64 1544.91 Z" fill="#9eb1be" fill-rule="nonzero" fill-opacity="1" /><path clip-path="url(#clip270)" d="M1957.24 1533.96 L1969.72 1533.96 L1969.72 1537.76 L1957.24 1537.76 L1957.24 1533.96 Z" fill="#9eb1be" fill-rule="nonzero" fill-opacity="1" /><path clip-path="url(#clip270)" d="M1981.13 1544.91 L1997.45 1544.91 L1997.45 1548.85 L1975.5 1548.85 L1975.5 1544.91 Q1978.17 1542.16 1982.75 1537.53 Q1987.36 1532.88 1988.54 1531.53 Q1990.78 1529.01 1991.66 1527.27 Q1992.56 1525.51 1992.56 1523.82 Q1992.56 1521.07 1990.62 1519.33 Q1988.7 1517.6 1985.6 1517.6 Q1983.4 1517.6 1980.94 1518.36 Q1978.51 1519.13 1975.74 1520.68 L1975.74 1515.95 Q1978.56 1514.82 1981.01 1514.24 Q1983.47 1513.66 1985.5 1513.66 Q1990.87 1513.66 1994.07 1516.35 Q1997.26 1519.03 1997.26 1523.52 Q1997.26 1525.65 1996.45 1527.57 Q1995.67 1529.47 1993.56 1532.07 Q1992.98 1532.74 1989.88 1535.95 Q1986.78 1539.15 1981.13 1544.91 Z" fill="#9eb1be" fill-rule="nonzero" fill-opacity="1" /><path clip-path="url(#clip270)" d="M2007.31 1514.29 L2025.67 1514.29 L2025.67 1518.22 L2011.59 1518.22 L2011.59 1526.7 Q2012.61 1526.35 2013.63 1526.19 Q2014.65 1526 2015.67 1526 Q2021.45 1526 2024.83 1529.17 Q2028.21 1532.34 2028.21 1537.76 Q2028.21 1543.34 2024.74 1546.44 Q2021.27 1549.52 2014.95 1549.52 Q2012.77 1549.52 2010.5 1549.15 Q2008.26 1548.78 2005.85 1548.04 L2005.85 1543.34 Q2007.93 1544.47 2010.16 1545.03 Q2012.38 1545.58 2014.86 1545.58 Q2018.86 1545.58 2021.2 1543.48 Q2023.54 1541.37 2023.54 1537.76 Q2023.54 1534.15 2021.2 1532.04 Q2018.86 1529.94 2014.86 1529.94 Q2012.98 1529.94 2011.11 1530.35 Q2009.25 1530.77 2007.31 1531.65 L2007.31 1514.29 Z" fill="#9eb1be" fill-rule="nonzero" fill-opacity="1" /><polyline clip-path="url(#clip270)" style="stroke:#adb2b7; stroke-linecap:round; stroke-linejoin:round; stroke-width:4; stroke-opacity:1; fill:none" points="229.445,1486.45 229.445,123.472 "/>
<polyline clip-path="url(#clip270)" style="stroke:#adb2b7; stroke-linecap:round; stroke-linejoin:round; stroke-width:4; stroke-opacity:1; fill:none" points="229.445,1486.45 248.343,1486.45 "/>
<polyline clip-path="url(#clip270)" style="stroke:#adb2b7; stroke-linecap:round; stroke-linejoin:round; stroke-width:4; stroke-opacity:1; fill:none" points="229.445,1203.71 248.343,1203.71 "/>
<polyline clip-path="url(#clip270)" style="stroke:#adb2b7; stroke-linecap:round; stroke-linejoin:round; stroke-width:4; stroke-opacity:1; fill:none" points="229.445,920.963 248.343,920.963 "/>
<polyline clip-path="url(#clip270)" style="stroke:#adb2b7; stroke-linecap:round; stroke-linejoin:round; stroke-width:4; stroke-opacity:1; fill:none" points="229.445,638.221 248.343,638.221 "/>
<polyline clip-path="url(#clip270)" style="stroke:#adb2b7; stroke-linecap:round; stroke-linejoin:round; stroke-width:4; stroke-opacity:1; fill:none" points="229.445,355.478 248.343,355.478 "/>
<path clip-path="url(#clip270)" d="M181.501 1472.25 Q177.89 1472.25 176.061 1475.81 Q174.255 1479.35 174.255 1486.48 Q174.255 1493.59 176.061 1497.15 Q177.89 1500.7 181.501 1500.7 Q185.135 1500.7 186.94 1497.15 Q188.769 1493.59 188.769 1486.48 Q188.769 1479.35 186.94 1475.81 Q185.135 1472.25 181.501 1472.25 M181.501 1468.54 Q187.311 1468.54 190.366 1473.15 Q193.445 1477.73 193.445 1486.48 Q193.445 1495.21 190.366 1499.82 Q187.311 1504.4 181.501 1504.4 Q175.691 1504.4 172.612 1499.82 Q169.556 1495.21 169.556 1486.48 Q169.556 1477.73 172.612 1473.15 Q175.691 1468.54 181.501 1468.54 Z" fill="#9eb1be" fill-rule="nonzero" fill-opacity="1" /><path clip-path="url(#clip270)" d="M85.0429 1217.05 L101.362 1217.05 L101.362 1220.99 L79.4179 1220.99 L79.4179 1217.05 Q82.0799 1214.3 86.6632 1209.67 Q91.2697 1205.01 92.4502 1203.67 Q94.6956 1201.15 95.5752 1199.41 Q96.478 1197.65 96.478 1195.96 Q96.478 1193.21 94.5336 1191.47 Q92.6123 1189.74 89.5104 1189.74 Q87.3114 1189.74 84.8577 1190.5 Q82.4271 1191.26 79.6494 1192.81 L79.6494 1188.09 Q82.4734 1186.96 84.9271 1186.38 Q87.3808 1185.8 89.4178 1185.8 Q94.7882 1185.8 97.9826 1188.49 Q101.177 1191.17 101.177 1195.66 Q101.177 1197.79 100.367 1199.71 Q99.5798 1201.61 97.4734 1204.2 Q96.8947 1204.87 93.7928 1208.09 Q90.691 1211.29 85.0429 1217.05 Z" fill="#9eb1be" fill-rule="nonzero" fill-opacity="1" /><path clip-path="url(#clip270)" d="M111.223 1186.43 L129.58 1186.43 L129.58 1190.36 L115.506 1190.36 L115.506 1198.83 Q116.524 1198.49 117.543 1198.32 Q118.561 1198.14 119.58 1198.14 Q125.367 1198.14 128.746 1201.31 Q132.126 1204.48 132.126 1209.9 Q132.126 1215.48 128.654 1218.58 Q125.182 1221.66 118.862 1221.66 Q116.686 1221.66 114.418 1221.29 Q112.172 1220.92 109.765 1220.18 L109.765 1215.48 Q111.848 1216.61 114.07 1217.17 Q116.293 1217.72 118.77 1217.72 Q122.774 1217.72 125.112 1215.62 Q127.45 1213.51 127.45 1209.9 Q127.45 1206.29 125.112 1204.18 Q122.774 1202.07 118.77 1202.07 Q116.895 1202.07 115.02 1202.49 Q113.168 1202.91 111.223 1203.79 L111.223 1186.43 Z" fill="#9eb1be" fill-rule="nonzero" fill-opacity="1" /><path clip-path="url(#clip270)" d="M151.339 1189.5 Q147.728 1189.5 145.899 1193.07 Q144.093 1196.61 144.093 1203.74 Q144.093 1210.85 145.899 1214.41 Q147.728 1217.95 151.339 1217.95 Q154.973 1217.95 156.779 1214.41 Q158.607 1210.85 158.607 1203.74 Q158.607 1196.61 156.779 1193.07 Q154.973 1189.5 151.339 1189.5 M151.339 1185.8 Q157.149 1185.8 160.205 1190.41 Q163.283 1194.99 163.283 1203.74 Q163.283 1212.47 160.205 1217.07 Q157.149 1221.66 151.339 1221.66 Q145.529 1221.66 142.45 1217.07 Q139.394 1212.47 139.394 1203.74 Q139.394 1194.99 142.45 1190.41 Q145.529 1185.8 151.339 1185.8 Z" fill="#9eb1be" fill-rule="nonzero" fill-opacity="1" /><path clip-path="url(#clip270)" d="M181.501 1189.5 Q177.89 1189.5 176.061 1193.07 Q174.255 1196.61 174.255 1203.74 Q174.255 1210.85 176.061 1214.41 Q177.89 1217.95 181.501 1217.95 Q185.135 1217.95 186.94 1214.41 Q188.769 1210.85 188.769 1203.74 Q188.769 1196.61 186.94 1193.07 Q185.135 1189.5 181.501 1189.5 M181.501 1185.8 Q187.311 1185.8 190.366 1190.41 Q193.445 1194.99 193.445 1203.74 Q193.445 1212.47 190.366 1217.07 Q187.311 1221.66 181.501 1221.66 Q175.691 1221.66 172.612 1217.07 Q169.556 1212.47 169.556 1203.74 Q169.556 1194.99 172.612 1190.41 Q175.691 1185.8 181.501 1185.8 Z" fill="#9eb1be" fill-rule="nonzero" fill-opacity="1" /><path clip-path="url(#clip270)" d="M81.0614 903.683 L99.4178 903.683 L99.4178 907.618 L85.3438 907.618 L85.3438 916.09 Q86.3623 915.743 87.3808 915.581 Q88.3993 915.396 89.4178 915.396 Q95.2049 915.396 98.5845 918.567 Q101.964 921.739 101.964 927.155 Q101.964 932.734 98.4919 935.836 Q95.0197 938.914 88.7003 938.914 Q86.5243 938.914 84.2558 938.544 Q82.0105 938.174 79.6031 937.433 L79.6031 932.734 Q81.6864 933.868 83.9086 934.424 Q86.1308 934.979 88.6077 934.979 Q92.6123 934.979 94.9502 932.873 Q97.2882 930.766 97.2882 927.155 Q97.2882 923.544 94.9502 921.438 Q92.6123 919.331 88.6077 919.331 Q86.7327 919.331 84.8577 919.748 Q83.0058 920.164 81.0614 921.044 L81.0614 903.683 Z" fill="#9eb1be" fill-rule="nonzero" fill-opacity="1" /><path clip-path="url(#clip270)" d="M121.177 906.762 Q117.566 906.762 115.737 910.327 Q113.932 913.868 113.932 920.998 Q113.932 928.104 115.737 931.669 Q117.566 935.211 121.177 935.211 Q124.811 935.211 126.617 931.669 Q128.445 928.104 128.445 920.998 Q128.445 913.868 126.617 910.327 Q124.811 906.762 121.177 906.762 M121.177 903.058 Q126.987 903.058 130.043 907.665 Q133.121 912.248 133.121 920.998 Q133.121 929.725 130.043 934.331 Q126.987 938.914 121.177 938.914 Q115.367 938.914 112.288 934.331 Q109.233 929.725 109.233 920.998 Q109.233 912.248 112.288 907.665 Q115.367 903.058 121.177 903.058 Z" fill="#9eb1be" fill-rule="nonzero" fill-opacity="1" /><path clip-path="url(#clip270)" d="M151.339 906.762 Q147.728 906.762 145.899 910.327 Q144.093 913.868 144.093 920.998 Q144.093 928.104 145.899 931.669 Q147.728 935.211 151.339 935.211 Q154.973 935.211 156.779 931.669 Q158.607 928.104 158.607 920.998 Q158.607 913.868 156.779 910.327 Q154.973 906.762 151.339 906.762 M151.339 903.058 Q157.149 903.058 160.205 907.665 Q163.283 912.248 163.283 920.998 Q163.283 929.725 160.205 934.331 Q157.149 938.914 151.339 938.914 Q145.529 938.914 142.45 934.331 Q139.394 929.725 139.394 920.998 Q139.394 912.248 142.45 907.665 Q145.529 903.058 151.339 903.058 Z" fill="#9eb1be" fill-rule="nonzero" fill-opacity="1" /><path clip-path="url(#clip270)" d="M181.501 906.762 Q177.89 906.762 176.061 910.327 Q174.255 913.868 174.255 920.998 Q174.255 928.104 176.061 931.669 Q177.89 935.211 181.501 935.211 Q185.135 935.211 186.94 931.669 Q188.769 928.104 188.769 920.998 Q188.769 913.868 186.94 910.327 Q185.135 906.762 181.501 906.762 M181.501 903.058 Q187.311 903.058 190.366 907.665 Q193.445 912.248 193.445 920.998 Q193.445 929.725 190.366 934.331 Q187.311 938.914 181.501 938.914 Q175.691 938.914 172.612 934.331 Q169.556 929.725 169.556 920.998 Q169.556 912.248 172.612 907.665 Q175.691 903.058 181.501 903.058 Z" fill="#9eb1be" fill-rule="nonzero" fill-opacity="1" /><path clip-path="url(#clip270)" d="M79.8346 620.941 L102.057 620.941 L102.057 622.931 L89.5104 655.501 L84.6262 655.501 L96.4317 624.876 L79.8346 624.876 L79.8346 620.941 Z" fill="#9eb1be" fill-rule="nonzero" fill-opacity="1" /><path clip-path="url(#clip270)" d="M111.223 620.941 L129.58 620.941 L129.58 624.876 L115.506 624.876 L115.506 633.348 Q116.524 633.001 117.543 632.839 Q118.561 632.654 119.58 632.654 Q125.367 632.654 128.746 635.825 Q132.126 638.996 132.126 644.413 Q132.126 649.991 128.654 653.093 Q125.182 656.172 118.862 656.172 Q116.686 656.172 114.418 655.802 Q112.172 655.431 109.765 654.69 L109.765 649.991 Q111.848 651.126 114.07 651.681 Q116.293 652.237 118.77 652.237 Q122.774 652.237 125.112 650.13 Q127.45 648.024 127.45 644.413 Q127.45 640.802 125.112 638.695 Q122.774 636.589 118.77 636.589 Q116.895 636.589 115.02 637.005 Q113.168 637.422 111.223 638.302 L111.223 620.941 Z" fill="#9eb1be" fill-rule="nonzero" fill-opacity="1" /><path clip-path="url(#clip270)" d="M151.339 624.019 Q147.728 624.019 145.899 627.584 Q144.093 631.126 144.093 638.255 Q144.093 645.362 145.899 648.927 Q147.728 652.468 151.339 652.468 Q154.973 652.468 156.779 648.927 Q158.607 645.362 158.607 638.255 Q158.607 631.126 156.779 627.584 Q154.973 624.019 151.339 624.019 M151.339 620.316 Q157.149 620.316 160.205 624.922 Q163.283 629.505 163.283 638.255 Q163.283 646.982 160.205 651.589 Q157.149 656.172 151.339 656.172 Q145.529 656.172 142.45 651.589 Q139.394 646.982 139.394 638.255 Q139.394 629.505 142.45 624.922 Q145.529 620.316 151.339 620.316 Z" fill="#9eb1be" fill-rule="nonzero" fill-opacity="1" /><path clip-path="url(#clip270)" d="M181.501 624.019 Q177.89 624.019 176.061 627.584 Q174.255 631.126 174.255 638.255 Q174.255 645.362 176.061 648.927 Q177.89 652.468 181.501 652.468 Q185.135 652.468 186.94 648.927 Q188.769 645.362 188.769 638.255 Q188.769 631.126 186.94 627.584 Q185.135 624.019 181.501 624.019 M181.501 620.316 Q187.311 620.316 190.366 624.922 Q193.445 629.505 193.445 638.255 Q193.445 646.982 190.366 651.589 Q187.311 656.172 181.501 656.172 Q175.691 656.172 172.612 651.589 Q169.556 646.982 169.556 638.255 Q169.556 629.505 172.612 624.922 Q175.691 620.316 181.501 620.316 Z" fill="#9eb1be" fill-rule="nonzero" fill-opacity="1" /><path clip-path="url(#clip270)" d="M51.6634 368.823 L59.3023 368.823 L59.3023 342.458 L50.9921 344.124 L50.9921 339.865 L59.256 338.198 L63.9319 338.198 L63.9319 368.823 L71.5707 368.823 L71.5707 372.758 L51.6634 372.758 L51.6634 368.823 Z" fill="#9eb1be" fill-rule="nonzero" fill-opacity="1" /><path clip-path="url(#clip270)" d="M91.0151 341.277 Q87.404 341.277 85.5753 344.842 Q83.7697 348.383 83.7697 355.513 Q83.7697 362.619 85.5753 366.184 Q87.404 369.726 91.0151 369.726 Q94.6493 369.726 96.4548 366.184 Q98.2835 362.619 98.2835 355.513 Q98.2835 348.383 96.4548 344.842 Q94.6493 341.277 91.0151 341.277 M91.0151 337.573 Q96.8252 337.573 99.8808 342.18 Q102.959 346.763 102.959 355.513 Q102.959 364.24 99.8808 368.846 Q96.8252 373.43 91.0151 373.43 Q85.2049 373.43 82.1262 368.846 Q79.0707 364.24 79.0707 355.513 Q79.0707 346.763 82.1262 342.18 Q85.2049 337.573 91.0151 337.573 Z" fill="#9eb1be" fill-rule="nonzero" fill-opacity="1" /><path clip-path="url(#clip270)" d="M121.177 341.277 Q117.566 341.277 115.737 344.842 Q113.932 348.383 113.932 355.513 Q113.932 362.619 115.737 366.184 Q117.566 369.726 121.177 369.726 Q124.811 369.726 126.617 366.184 Q128.445 362.619 128.445 355.513 Q128.445 348.383 126.617 344.842 Q124.811 341.277 121.177 341.277 M121.177 337.573 Q126.987 337.573 130.043 342.18 Q133.121 346.763 133.121 355.513 Q133.121 364.24 130.043 368.846 Q126.987 373.43 121.177 373.43 Q115.367 373.43 112.288 368.846 Q109.233 364.24 109.233 355.513 Q109.233 346.763 112.288 342.18 Q115.367 337.573 121.177 337.573 Z" fill="#9eb1be" fill-rule="nonzero" fill-opacity="1" /><path clip-path="url(#clip270)" d="M151.339 341.277 Q147.728 341.277 145.899 344.842 Q144.093 348.383 144.093 355.513 Q144.093 362.619 145.899 366.184 Q147.728 369.726 151.339 369.726 Q154.973 369.726 156.779 366.184 Q158.607 362.619 158.607 355.513 Q158.607 348.383 156.779 344.842 Q154.973 341.277 151.339 341.277 M151.339 337.573 Q157.149 337.573 160.205 342.18 Q163.283 346.763 163.283 355.513 Q163.283 364.24 160.205 368.846 Q157.149 373.43 151.339 373.43 Q145.529 373.43 142.45 368.846 Q139.394 364.24 139.394 355.513 Q139.394 346.763 142.45 342.18 Q145.529 337.573 151.339 337.573 Z" fill="#9eb1be" fill-rule="nonzero" fill-opacity="1" /><path clip-path="url(#clip270)" d="M181.501 341.277 Q177.89 341.277 176.061 344.842 Q174.255 348.383 174.255 355.513 Q174.255 362.619 176.061 366.184 Q177.89 369.726 181.501 369.726 Q185.135 369.726 186.94 366.184 Q188.769 362.619 188.769 355.513 Q188.769 348.383 186.94 344.842 Q185.135 341.277 181.501 341.277 M181.501 337.573 Q187.311 337.573 190.366 342.18 Q193.445 346.763 193.445 355.513 Q193.445 364.24 190.366 368.846 Q187.311 373.43 181.501 373.43 Q175.691 373.43 172.612 368.846 Q169.556 364.24 169.556 355.513 Q169.556 346.763 172.612 342.18 Q175.691 337.573 181.501 337.573 Z" fill="#9eb1be" fill-rule="nonzero" fill-opacity="1" /><path clip-path="url(#clip270)" d="M1140.12 43.6931 L1140.12 65.8515 L1153.25 65.8515 Q1159.85 65.8515 1163.01 63.1374 Q1166.21 60.3828 1166.21 54.752 Q1166.21 49.0808 1163.01 46.4072 Q1159.85 43.6931 1153.25 43.6931 L1140.12 43.6931 M1140.12 18.8205 L1140.12 37.0496 L1152.24 37.0496 Q1158.23 37.0496 1161.15 34.8216 Q1164.1 32.5531 1164.1 27.935 Q1164.1 23.3575 1161.15 21.089 Q1158.23 18.8205 1152.24 18.8205 L1140.12 18.8205 M1131.94 12.096 L1152.84 12.096 Q1162.2 12.096 1167.26 15.9849 Q1172.33 19.8737 1172.33 27.0438 Q1172.33 32.5936 1169.74 35.8748 Q1167.14 39.156 1162.12 39.9662 Q1168.16 41.2625 1171.48 45.3944 Q1174.84 49.4858 1174.84 55.6432 Q1174.84 63.745 1169.33 68.1605 Q1163.82 72.576 1153.65 72.576 L1131.94 72.576 L1131.94 12.096 Z" fill="#adb2b7" fill-rule="nonzero" fill-opacity="1" /><path clip-path="url(#clip270)" d="M1209.15 49.7694 Q1200.12 49.7694 1196.63 51.8354 Q1193.15 53.9013 1193.15 58.8839 Q1193.15 62.8538 1195.74 65.2034 Q1198.38 67.5124 1202.87 67.5124 Q1209.07 67.5124 1212.8 63.1374 Q1216.56 58.7219 1216.56 51.4303 L1216.56 49.7694 L1209.15 49.7694 M1224.02 46.6907 L1224.02 72.576 L1216.56 72.576 L1216.56 65.6895 Q1214.01 69.8214 1210.2 71.8063 Q1206.4 73.7508 1200.89 73.7508 Q1193.92 73.7508 1189.79 69.8619 Q1185.7 65.9325 1185.7 59.3701 Q1185.7 51.7138 1190.8 47.825 Q1195.94 43.9361 1206.11 43.9361 L1216.56 43.9361 L1216.56 43.2069 Q1216.56 38.0623 1213.16 35.2672 Q1209.8 32.4315 1203.68 32.4315 Q1199.79 32.4315 1196.11 33.3632 Q1192.42 34.295 1189.02 36.1584 L1189.02 29.2718 Q1193.11 27.692 1196.96 26.9223 Q1200.81 26.1121 1204.45 26.1121 Q1214.3 26.1121 1219.16 31.2163 Q1224.02 36.3204 1224.02 46.6907 Z" fill="#adb2b7" fill-rule="nonzero" fill-opacity="1" /><path clip-path="url(#clip270)" d="M1239.37 9.54393 L1246.82 9.54393 L1246.82 72.576 L1239.37 72.576 L1239.37 9.54393 Z" fill="#adb2b7" fill-rule="nonzero" fill-opacity="1" /><path clip-path="url(#clip270)" d="M1283.04 49.7694 Q1274.01 49.7694 1270.52 51.8354 Q1267.04 53.9013 1267.04 58.8839 Q1267.04 62.8538 1269.63 65.2034 Q1272.26 67.5124 1276.76 67.5124 Q1282.96 67.5124 1286.69 63.1374 Q1290.45 58.7219 1290.45 51.4303 L1290.45 49.7694 L1283.04 49.7694 M1297.91 46.6907 L1297.91 72.576 L1290.45 72.576 L1290.45 65.6895 Q1287.9 69.8214 1284.09 71.8063 Q1280.28 73.7508 1274.78 73.7508 Q1267.81 73.7508 1263.68 69.8619 Q1259.58 65.9325 1259.58 59.3701 Q1259.58 51.7138 1264.69 47.825 Q1269.83 43.9361 1280 43.9361 L1290.45 43.9361 L1290.45 43.2069 Q1290.45 38.0623 1287.05 35.2672 Q1283.69 32.4315 1277.57 32.4315 Q1273.68 32.4315 1270 33.3632 Q1266.31 34.295 1262.91 36.1584 L1262.91 29.2718 Q1267 27.692 1270.85 26.9223 Q1274.69 26.1121 1278.34 26.1121 Q1288.18 26.1121 1293.04 31.2163 Q1297.91 36.3204 1297.91 46.6907 Z" fill="#adb2b7" fill-rule="nonzero" fill-opacity="1" /><path clip-path="url(#clip270)" d="M1350.97 45.1919 L1350.97 72.576 L1343.52 72.576 L1343.52 45.4349 Q1343.52 38.994 1341.01 35.7938 Q1338.5 32.5936 1333.47 32.5936 Q1327.44 32.5936 1323.95 36.4419 Q1320.47 40.2903 1320.47 46.9338 L1320.47 72.576 L1312.98 72.576 L1312.98 27.2059 L1320.47 27.2059 L1320.47 34.2544 Q1323.14 30.163 1326.75 28.1376 Q1330.39 26.1121 1335.13 26.1121 Q1342.95 26.1121 1346.96 30.9732 Q1350.97 35.7938 1350.97 45.1919 Z" fill="#adb2b7" fill-rule="nonzero" fill-opacity="1" /><path clip-path="url(#clip270)" d="M1398.49 28.9478 L1398.49 35.9153 Q1395.33 34.1734 1392.13 33.3227 Q1388.97 32.4315 1385.73 32.4315 Q1378.48 32.4315 1374.47 37.0496 Q1370.46 41.6271 1370.46 49.9314 Q1370.46 58.2358 1374.47 62.8538 Q1378.48 67.4314 1385.73 67.4314 Q1388.97 67.4314 1392.13 66.5807 Q1395.33 65.6895 1398.49 63.9476 L1398.49 70.8341 Q1395.37 72.2924 1392.01 73.0216 Q1388.69 73.7508 1384.92 73.7508 Q1374.67 73.7508 1368.63 67.3098 Q1362.6 60.8689 1362.6 49.9314 Q1362.6 38.832 1368.68 32.472 Q1374.79 26.1121 1385.41 26.1121 Q1388.85 26.1121 1392.13 26.8413 Q1395.41 27.5299 1398.49 28.9478 Z" fill="#adb2b7" fill-rule="nonzero" fill-opacity="1" /><path clip-path="url(#clip270)" d="M1450.26 48.0275 L1450.26 51.6733 L1415.99 51.6733 Q1416.48 59.3701 1420.61 63.421 Q1424.78 67.4314 1432.19 67.4314 Q1436.49 67.4314 1440.5 66.3781 Q1444.55 65.3249 1448.52 63.2184 L1448.52 70.267 Q1444.51 71.9684 1440.3 72.8596 Q1436.08 73.7508 1431.75 73.7508 Q1420.89 73.7508 1414.53 67.4314 Q1408.21 61.1119 1408.21 50.3365 Q1408.21 39.1965 1414.21 32.6746 Q1420.24 26.1121 1430.45 26.1121 Q1439.61 26.1121 1444.91 32.0264 Q1450.26 37.9003 1450.26 48.0275 M1442.81 45.84 Q1442.73 39.7232 1439.36 36.0774 Q1436.04 32.4315 1430.53 32.4315 Q1424.29 32.4315 1420.53 35.9558 Q1416.8 39.4801 1416.23 45.8805 L1442.81 45.84 Z" fill="#adb2b7" fill-rule="nonzero" fill-opacity="1" /><polyline clip-path="url(#clip271)" style="stroke:#0088dd; stroke-linecap:round; stroke-linejoin:round; stroke-width:4; stroke-opacity:1; fill:none" points="289.539,355.478 292.325,355.478 295.111,355.478 297.897,355.478 300.683,355.478 303.469,355.478 306.255,355.478 309.041,355.478 311.827,355.478 314.613,355.478 317.399,355.478 320.185,355.478 322.971,355.478 325.757,355.478 328.543,355.478 331.329,355.478 334.115,355.478 336.901,355.478 339.687,355.478 342.472,355.478 345.258,355.478 348.044,355.478 350.83,355.478 353.616,355.478 353.616,356.404 356.402,356.404 356.402,359.18 359.188,359.18 359.188,360.132 361.974,360.132 361.974,364.612 364.76,364.612 367.546,364.612 370.332,364.612 373.118,364.612 375.904,364.612 378.69,364.612 381.476,364.612 381.476,365.537 384.262,365.537 384.262,368.227 387.048,368.227 387.048,371.9 389.834,371.9 389.834,375.276 392.62,375.276 392.62,376.132 395.406,376.132 395.406,377.394 398.192,377.394 398.192,383.057 400.978,383.057 403.764,383.057 406.55,383.057 406.55,383.979 409.336,383.979 409.336,382.727 412.122,382.727 412.122,378.693 414.908,378.693 414.908,373.207 417.694,373.207 417.694,364.452 420.48,364.452 420.48,357.249 423.266,357.249 423.266,359.508 426.052,359.508 426.052,353.04 428.838,353.04 428.838,349.871 431.624,349.871 431.624,346.591 434.41,346.591 434.41,349.053 437.196,349.053 437.196,349.018 439.982,349.018 439.982,353.77 442.768,353.77 442.768,347.549 445.554,347.549 445.554,348.937 448.34,348.937 448.34,347.891 451.126,347.891 451.126,343.812 453.912,343.812 453.912,333.309 456.698,333.309 456.698,326.958 459.484,326.958 459.484,327.478 462.27,327.478 462.27,319.328 465.056,319.328 465.056,314.653 467.842,314.653 467.842,307.42 470.628,307.42 470.628,309.833 473.414,309.833 473.414,308.866 476.2,308.866 476.2,299.287 478.986,299.287 478.986,297.718 481.772,297.718 481.772,299.551 484.558,299.551 484.558,295.59 487.344,295.59 487.344,295.753 490.13,295.753 490.13,293.617 492.916,293.617 492.916,296.91 495.702,296.91 495.702,296.444 498.488,296.444 498.488,290.326 501.274,290.326 501.274,288.908 504.06,288.908 504.06,287.693 506.846,287.693 506.846,287.109 509.632,287.109 509.632,286.491 512.418,286.491 512.418,280.367 515.204,280.367 515.204,278.875 517.99,278.875 517.99,281.763 520.776,281.763 520.776,278.786 523.562,278.786 523.562,276.234 526.348,276.234 526.348,283.357 529.134,283.357 529.134,283.527 531.919,283.527 531.919,280.962 534.705,280.962 534.705,283.893 537.491,283.893 537.491,288.213 540.277,288.213 543.063,288.213 543.063,289.138 545.849,289.138 545.849,287.72 548.635,287.72 548.635,297.866 551.421,297.866 551.421,298.795 554.207,298.795 554.207,297.081 556.993,297.081 556.993,300.264 559.779,300.264 559.779,299.255 562.565,299.255 562.565,289.683 565.351,289.683 565.351,281.28 568.137,281.28 568.137,279.822 570.923,279.822 570.923,283.969 573.709,283.969 573.709,286.55 576.495,286.55 576.495,283.173 579.281,283.173 579.281,284.277 582.067,284.277 582.067,278.26 584.853,278.26 584.853,287.655 587.639,287.655 587.639,280.896 590.425,280.896 590.425,278.139 593.211,278.139 593.211,284.08 595.997,284.08 595.997,283.806 598.783,283.806 598.783,280.967 601.569,280.967 601.569,286.245 604.355,286.245 604.355,283.107 607.141,283.107 607.141,284.663 609.927,284.663 609.927,277.29 612.713,277.29 612.713,272.396 615.499,272.396 615.499,275.962 618.285,275.962 618.285,268.509 621.071,268.509 621.071,266.086 623.857,266.086 623.857,266.256 626.643,266.256 626.643,267.291 629.429,267.291 629.429,259.887 632.215,259.887 632.215,261.799 635.001,261.799 635.001,257.912 637.787,257.912 637.787,268.928 640.573,268.928 640.573,269.225 643.359,269.225 643.359,267.496 646.145,267.496 646.145,274.544 648.931,274.544 651.717,274.544 651.717,275.504 654.503,275.504 654.503,268.908 657.289,268.908 657.289,272.077 660.075,272.077 660.075,275.943 662.861,275.943 665.647,275.943 668.433,275.943 671.219,275.943 674.005,275.943 676.791,275.943 679.577,275.943 679.577,276.957 682.363,276.957 682.363,271.898 685.149,271.898 685.149,268.594 687.935,268.594 687.935,267.025 690.721,267.025 690.721,270.823 693.507,270.823 693.507,280.951 696.293,280.951 699.079,280.951 701.865,280.951 701.865,281.971 704.651,281.971 704.651,286.776 707.437,286.776 710.223,286.776 710.223,287.699 713.009,287.699 713.009,278.531 715.795,278.531 715.795,273.077 718.581,273.077 718.581,276.257 721.366,276.257 721.366,277.728 724.152,277.728 724.152,278.315 726.938,278.315 726.938,285.018 729.724,285.018 729.724,287.641 732.51,287.641 732.51,288.59 735.296,288.59 735.296,289.484 738.082,289.484 738.082,289.997 740.868,289.997 740.868,299.491 743.654,299.491 746.44,299.491 749.226,299.491 752.012,299.491 754.798,299.491 757.584,299.491 760.37,299.491 763.156,299.491 765.942,299.491 765.942,300.4 768.728,300.4 768.728,300.227 771.514,300.227 771.514,312.068 774.3,312.068 777.086,312.068 779.872,312.068 779.872,312.994 782.658,312.994 782.658,309.438 785.444,309.438 785.444,318.85 788.23,318.85 791.016,318.85 793.802,318.85 796.588,318.85 796.588,319.85 799.374,319.85 799.374,323.252 802.16,323.252 804.946,323.252 807.732,323.252 810.518,323.252 813.304,323.252 813.304,324.172 816.09,324.172 816.09,314.381 818.876,314.381 818.876,315.244 821.662,315.244 821.662,320.16 824.448,320.16 824.448,317.253 827.234,317.253 827.234,310.229 830.02,310.229 830.02,307.312 832.806,307.312 832.806,308.357 835.592,308.357 835.592,313.764 838.378,313.764 838.378,312.336 841.164,312.336 841.164,315.78 843.95,315.78 843.95,323.535 846.736,323.535 849.522,323.535 852.308,323.535 855.094,323.535 855.094,324.569 857.88,324.569 857.88,326.007 860.666,326.007 860.666,325.916 863.452,325.916 863.452,334.794 866.238,334.794 866.238,335.834 869.024,335.834 869.024,326.403 871.81,326.403 871.81,322.428 874.596,322.428 874.596,317.07 877.382,317.07 877.382,311.973 880.168,311.973 880.168,307.365 882.954,307.365 882.954,307.992 885.74,307.992 885.74,314.773 888.526,314.773 888.526,309.173 891.312,309.173 891.312,306.454 894.098,306.454 894.098,305.938 896.884,305.938 896.884,303.494 899.67,303.494 899.67,304.398 902.456,304.398 902.456,303.98 905.242,303.98 905.242,299.092 908.028,299.092 908.028,296.353 910.813,296.353 910.813,287.375 913.599,287.375 913.599,280.848 916.385,280.848 916.385,274.477 919.171,274.477 919.171,274.886 921.957,274.886 921.957,281.46 924.743,281.46 924.743,272.036 927.529,272.036 927.529,276.019 930.315,276.019 930.315,274.189 933.101,274.189 933.101,277.598 935.887,277.598 935.887,277.859 938.673,277.859 938.673,275.516 941.459,275.516 941.459,273.09 944.245,273.09 944.245,272.324 947.031,272.324 947.031,267.459 949.817,267.459 949.817,274.421 952.603,274.421 952.603,278.027 955.389,278.027 955.389,283.548 958.175,283.548 960.961,283.548 963.747,283.548 963.747,284.511 966.533,284.511 966.533,286.552 969.319,286.552 969.319,287.327 972.105,287.327 972.105,288.283 974.891,288.283 974.891,289.288 977.677,289.288 977.677,282.804 980.463,282.804 980.463,281.839 983.249,281.839 983.249,286.93 986.035,286.93 986.035,283.887 988.821,283.887 988.821,281.377 991.607,281.377 991.607,284.687 994.393,284.687 994.393,284.704 997.179,284.704 997.179,290.852 999.965,290.852 1002.75,290.852 1005.54,290.852 1005.54,291.813 1008.32,291.813 1008.32,290.007 1011.11,290.007 1011.11,283.809 1013.89,283.809 1013.89,288.814 1016.68,288.814 1016.68,283.63 1019.47,283.63 1019.47,294.199 1022.25,294.199 1025.04,294.199 1027.82,294.199 1030.61,294.199 1030.61,295.228 1033.4,295.228 1033.4,301.076 1036.18,301.076 1036.18,302.373 1038.97,302.373 1038.97,303.575 1041.75,303.575 1041.75,305.47 1044.54,305.47 1047.33,305.47 1047.33,306.385 1050.11,306.385 1050.11,316.576 1052.9,316.576 1055.68,316.576 1058.47,316.576 1061.26,316.576 1064.04,316.576 1066.83,316.576 1066.83,317.46 1069.61,317.46 1069.61,309.128 1072.4,309.128 1072.4,297.627 1075.19,297.627 1075.19,291.056 1077.97,291.056 1077.97,299.034 1080.76,299.034 1080.76,301.481 1083.54,301.481 1083.54,309.82 1086.33,309.82 1086.33,306.995 1089.12,306.995 1089.12,308.391 1091.9,308.391 1091.9,313.761 1094.69,313.761 1097.47,313.761 1100.26,313.761 1100.26,314.699 1103.05,314.699 1103.05,318.073 1105.83,318.073 1108.62,318.073 1111.4,318.073 1114.19,318.073 1116.98,318.073 1119.76,318.073 1122.55,318.073 1125.33,318.073 1128.12,318.073 1130.91,318.073 1133.69,318.073 1136.48,318.073 1136.48,318.964 1139.26,318.964 1139.26,317.955 1142.05,317.955 1142.05,316.518 1144.84,316.518 1144.84,318.401 1147.62,318.401 1147.62,323.476 1150.41,323.476 1150.41,324.432 1153.19,324.432 1153.19,323.511 1155.98,323.511 1155.98,324.988 1158.77,324.988 1158.77,324.777 1161.55,324.777 1161.55,323.889 1164.34,323.889 1164.34,329.811 1167.12,329.811 1167.12,330.704 1169.91,330.704 1169.91,335.62 1172.7,335.62 1172.7,336.584 1175.48,336.584 1175.48,335.935 1178.27,335.935 1178.27,336.813 1181.05,336.813 1181.05,335.392 1183.84,335.392 1183.84,337.055 1186.63,337.055 1186.63,337.186 1189.41,337.186 1189.41,335.115 1192.2,335.115 1192.2,343.248 1194.98,343.248 1194.98,344.203 1197.77,344.203 1197.77,334.693 1200.56,334.693 1200.56,328.483 1203.34,328.483 1203.34,319.302 1206.13,319.302 1206.13,313.242 1208.91,313.242 1208.91,314.127 1211.7,314.127 1211.7,316.204 1214.49,316.204 1214.49,316.211 1217.27,316.211 1217.27,315.679 1220.06,315.679 1220.06,313.001 1222.84,313.001 1222.84,318.235 1225.63,318.235 1225.63,316.181 1228.42,316.181 1228.42,317.464 1231.2,317.464 1231.2,320.707 1233.99,320.707 1233.99,328.2 1236.77,328.2 1236.77,328.953 1239.56,328.953 1239.56,323.459 1242.35,323.459 1242.35,320.256 1245.13,320.256 1245.13,322.266 1247.92,322.266 1247.92,323.618 1250.7,323.618 1250.7,318.004 1253.49,318.004 1253.49,316.012 1256.28,316.012 1256.28,313.628 1259.06,313.628 1259.06,309.229 1261.85,309.229 1261.85,305.8 1264.63,305.8 1264.63,303.145 1267.42,303.145 1267.42,305.522 1270.21,305.522 1270.21,301.858 1272.99,301.858 1272.99,313.197 1275.78,313.197 1275.78,317.45 1278.56,317.45 1281.35,317.45 1284.14,317.45 1286.92,317.45 1286.92,318.383 1289.71,318.383 1289.71,315.287 1292.49,315.287 1292.49,311.962 1295.28,311.962 1295.28,322.192 1298.07,322.192 1300.85,322.192 1303.64,322.192 1306.42,322.192 1306.42,323.118 1309.21,323.118 1309.21,325.333 1312,325.333 1312,322.593 1314.78,322.593 1314.78,323.652 1317.57,323.652 1317.57,314.862 1320.35,314.862 1320.35,315.249 1323.14,315.249 1323.14,316.662 1325.93,316.662 1325.93,319.243 1328.71,319.243 1328.71,326.545 1331.5,326.545 1331.5,327.38 1334.28,327.38 1334.28,321.814 1337.07,321.814 1337.07,322.341 1339.86,322.341 1339.86,337.952 1342.64,337.952 1345.43,337.952 1345.43,338.881 1348.21,338.881 1348.21,333.489 1351,333.489 1351,329.638 1353.79,329.638 1353.79,332.38 1356.57,332.38 1356.57,329.402 1359.36,329.402 1359.36,329.679 1362.14,329.679 1362.14,322.516 1364.93,322.516 1364.93,318.311 1367.72,318.311 1367.72,310.957 1370.5,310.957 1370.5,310.343 1373.29,310.343 1373.29,311.673 1376.07,311.673 1376.07,306.639 1378.86,306.639 1378.86,303.08 1381.65,303.08 1381.65,302.471 1384.43,302.471 1384.43,300.976 1387.22,300.976 1387.22,288.787 1390,288.787 1390,284.956 1392.79,284.956 1392.79,279.49 1395.57,279.49 1395.57,285.285 1398.36,285.285 1398.36,282.282 1401.15,282.282 1401.15,280.745 1403.93,280.745 1403.93,281.452 1406.72,281.452 1406.72,284.344 1409.5,284.344 1409.5,276.5 1412.29,276.5 1412.29,271.397 1415.08,271.397 1415.08,275.449 1417.86,275.449 1417.86,271.739 1420.65,271.739 1420.65,261.956 1423.43,261.956 1423.43,264.499 1426.22,264.499 1426.22,268.93 1429.01,268.93 1429.01,261.094 1431.79,261.094 1431.79,262.103 1434.58,262.103 1434.58,266.849 1437.36,266.849 1437.36,267.52 1440.15,267.52 1440.15,270.949 1442.94,270.949 1442.94,270.904 1445.72,270.904 1445.72,280.721 1448.51,280.721 1448.51,281.643 1451.29,281.643 1451.29,277.231 1454.08,277.231 1454.08,271.868 1456.87,271.868 1456.87,275.73 1459.65,275.73 1459.65,266.31 1462.44,266.31 1462.44,261.692 1465.22,261.692 1465.22,261.263 1468.01,261.263 1468.01,264.013 1470.8,264.013 1470.8,264.113 1473.58,264.113 1473.58,265.031 1476.37,265.031 1476.37,268.151 1479.15,268.151 1479.15,261.755 1481.94,261.755 1481.94,272.294 1484.73,272.294 1484.73,274.206 1487.51,274.206 1487.51,278.686 1490.3,278.686 1493.08,278.686 1493.08,279.722 1495.87,279.722 1495.87,272.03 1498.66,272.03 1498.66,264.523 1501.44,264.523 1501.44,261.236 1504.23,261.236 1504.23,263.633 1507.01,263.633 1507.01,261.573 1509.8,261.573 1509.8,269.448 1512.59,269.448 1512.59,271.815 1515.37,271.815 1515.37,268.776 1518.16,268.776 1518.16,270.645 1520.94,270.645 1520.94,273.221 1523.73,273.221 1523.73,276.068 1526.52,276.068 1526.52,274.851 1529.3,274.851 1529.3,278.462 1532.09,278.462 1532.09,279.409 1534.87,279.409 1534.87,282.637 1537.66,282.637 1537.66,283.583 1540.45,283.583 1540.45,277.167 1543.23,277.167 1543.23,276.595 1546.02,276.595 1546.02,274.519 1548.8,274.519 1548.8,280.142 1551.59,280.142 1551.59,290.366 1554.38,290.366 1554.38,288.12 1557.16,288.12 1557.16,286.514 1559.95,286.514 1559.95,290.545 1562.73,290.545 1562.73,285.802 1565.52,285.802 1565.52,287.339 1568.31,287.339 1568.31,279.877 1571.09,279.877 1571.09,281.712 1573.88,281.712 1573.88,273.405 1576.66,273.405 1576.66,269.844 1579.45,269.844 1579.45,273.637 1582.24,273.637 1582.24,268.813 1585.02,268.813 1585.02,271.582 1587.81,271.582 1587.81,270.403 1590.59,270.403 1590.59,270.021 1593.38,270.021 1593.38,270.349 1596.17,270.349 1596.17,266.472 1598.95,266.472 1598.95,269.357 1601.74,269.357 1601.74,264.977 1604.52,264.977 1604.52,268.8 1607.31,268.8 1607.31,267.833 1610.1,267.833 1610.1,264.682 1612.88,264.682 1612.88,268.281 1615.67,268.281 1615.67,269.062 1618.45,269.062 1618.45,268.18 1621.24,268.18 1621.24,263.711 1624.03,263.711 1624.03,256.09 1626.81,256.09 1626.81,255.248 1629.6,255.248 1629.6,258.408 1632.38,258.408 1632.38,249.907 1635.17,249.907 1635.17,249.683 1637.96,249.683 1637.96,247.574 1640.74,247.574 1640.74,244.454 1643.53,244.454 1643.53,245.368 1646.31,245.368 1646.31,244.501 1649.1,244.501 1649.1,240.125 1651.89,240.125 1651.89,240.391 1654.67,240.391 1654.67,240.496 1657.46,240.496 1657.46,239.399 1660.24,239.399 1660.24,234.774 1663.03,234.774 1663.03,233.32 1665.82,233.32 1665.82,231.183 1668.6,231.183 1668.6,236.637 1671.39,236.637 1671.39,234.66 1674.17,234.66 1674.17,233.943 1676.96,233.943 1676.96,239.243 1679.75,239.243 1679.75,240.241 1682.53,240.241 1682.53,236.872 1685.32,236.872 1685.32,235.215 1688.1,235.215 1688.1,240.916 1690.89,240.916 1690.89,241.858 1693.68,241.858 1693.68,242.8 1696.46,242.8 1696.46,245.655 1699.25,245.655 1699.25,251.615 1702.03,251.615 1704.82,251.615 1707.61,251.615 1710.39,251.615 1710.39,252.591 1713.18,252.591 1713.18,246.11 1715.96,246.11 1715.96,244.088 1718.75,244.088 1718.75,243.277 1721.54,243.277 1721.54,241.413 1724.32,241.413 1724.32,246.126 1727.11,246.126 1727.11,240.335 1729.89,240.335 1729.89,237.082 1732.68,237.082 1732.68,239.374 1735.47,239.374 1735.47,245.31 1738.25,245.31 1738.25,235.911 1741.04,235.911 1741.04,232.208 1743.82,232.208 1743.82,229.201 1746.61,229.201 1746.61,227.272 1749.4,227.272 1749.4,234.911 1752.18,234.911 1752.18,229.258 1754.97,229.258 1754.97,221.178 1757.75,221.178 1757.75,228.969 1760.54,228.969 1760.54,231.945 1763.32,231.945 1763.32,231.092 1766.11,231.092 1766.11,227.08 1768.9,227.08 1768.9,230.295 1771.68,230.295 1771.68,226.223 1774.47,226.223 1774.47,226.746 1777.25,226.746 1777.25,222.055 1780.04,222.055 1780.04,223.741 1782.83,223.741 1782.83,222.998 1785.61,222.998 1785.61,219.015 1788.4,219.015 1788.4,213.526 1791.18,213.526 1791.18,214.685 1793.97,214.685 1793.97,216.178 1796.76,216.178 1796.76,220.109 1799.54,220.109 1799.54,218.307 1802.33,218.307 1802.33,215.289 1805.11,215.289 1805.11,211.549 1807.9,211.549 1807.9,209.099 1810.69,209.099 1810.69,210.93 1813.47,210.93 1813.47,205.686 1816.26,205.686 1816.26,204.384 1819.04,204.384 1819.04,208.686 1821.83,208.686 1821.83,208.947 1824.62,208.947 1824.62,211.697 1827.4,211.697 1827.4,217.388 1830.19,217.388 1832.97,217.388 1835.76,217.388 1835.76,218.323 1838.55,218.323 1838.55,209.178 1841.33,209.178 1841.33,208.169 1844.12,208.169 1844.12,199.15 1846.9,199.15 1846.9,205.068 1849.69,205.068 1849.69,206.39 1852.48,206.39 1852.48,205.643 1855.26,205.643 1855.26,197.368 1858.05,197.368 1858.05,203.895 1860.83,203.895 1860.83,204.908 1863.62,204.908 1863.62,208.029 1866.41,208.029 1866.41,211.278 1869.19,211.278 1869.19,208.549 1871.98,208.549 1871.98,204.816 1874.76,204.816 1874.76,200.145 1877.55,200.145 1877.55,196.132 1880.34,196.132 1880.34,197.431 1883.12,197.431 1883.12,195.876 1885.91,195.876 1885.91,193.751 1888.69,193.751 1888.69,200.684 1891.48,200.684 1891.48,203.484 1894.27,203.484 1897.05,203.484 1897.05,204.621 1899.84,204.621 1899.84,209.314 1902.62,209.314 1902.62,210.408 1905.41,210.408 1905.41,203.279 1908.2,203.279 1908.2,201.229 1910.98,201.229 1910.98,203.595 1913.77,203.595 1913.77,207.542 1916.55,207.542 1916.55,210.494 1919.34,210.494 1922.13,210.494 1922.13,211.562 1924.91,211.562 1924.91,207.176 1927.7,207.176 1927.7,212.819 1930.48,212.819 1930.48,222.304 1933.27,222.304 1933.27,223.282 1936.06,223.282 1936.06,220.534 1938.84,220.534 1938.84,223.025 1941.63,223.025 1941.63,221.508 1944.41,221.508 1944.41,214.891 1947.2,214.891 1947.2,208.13 1949.99,208.13 1949.99,208.169 1952.77,208.169 1952.77,202.627 1955.56,202.627 1955.56,200.255 1958.34,200.255 1958.34,196.027 1961.13,196.027 1961.13,191.031 1963.92,191.031 1963.92,189.153 1966.7,189.153 1966.7,186.985 1969.49,186.985 1969.49,188.781 1972.27,188.781 1972.27,189.977 1975.06,189.977 1975.06,181.145 1977.85,181.145 1977.85,184.544 1980.63,184.544 1980.63,181.445 1983.42,181.445 1983.42,173.247 1986.2,173.247 1986.2,168.758 1988.99,168.758 1988.99,170.428 1991.78,170.428 1991.78,163.847 1994.56,163.847 1994.56,171.053 1997.35,171.053 1997.35,178.575 2000.13,178.575 2000.13,184.395 2002.92,184.395 2002.92,189.751 2005.71,189.751 2008.49,189.751 2008.49,190.769 2011.28,190.769 2011.28,190.303 2014.06,190.303 2014.06,181.391 2016.85,181.391 2016.85,174.12 2019.64,174.12 2019.64,168.514 2022.42,168.514 2022.42,163.815 2025.21,163.815 2025.21,163.475 2027.99,163.475 2027.99,165.85 2030.78,165.85 2030.78,173.701 2033.57,173.701 2033.57,176.592 2036.35,176.592 2036.35,174.482 2039.14,174.482 2039.14,178.975 2041.92,178.975 2041.92,180.02 2044.71,180.02 2044.71,186.758 2047.5,186.758 2050.28,186.758 2050.28,187.773 2053.07,187.773 2053.07,204.02 2055.85,204.02 2055.85,209.041 2058.64,209.041 2061.43,209.041 2061.43,210.044 2064.21,210.044 2064.21,209.11 2067,209.11 2067,209.059 2069.78,209.059 2069.78,204.437 2072.57,204.437 2072.57,196.549 2075.36,196.549 2075.36,199.898 2078.14,199.898 2078.14,203.938 2080.93,203.938 2080.93,206.65 2083.71,206.65 2083.71,207.684 2086.5,207.684 2086.5,202.107 2089.29,202.107 2089.29,201.087 2092.07,201.087 2092.07,199.042 2094.86,199.042 2094.86,182.427 2097.64,182.427 2097.64,173.318 2100.43,173.318 2100.43,178.73 2103.22,178.73 2103.22,175.886 2106,175.886 2106,171.944 2108.79,171.944 2108.79,166.6 2111.57,166.6 2111.57,167.061 2114.36,167.061 2114.36,163.442 2117.15,163.442 2117.15,159.954 2119.93,159.954 2119.93,166.329 2122.72,166.329 2122.72,163.476 2125.5,163.476 2125.5,161.852 2128.29,161.852 2128.29,157.251 2131.08,157.251 2131.08,156.512 2133.86,156.512 2133.86,160.482 2136.65,160.482 2136.65,159.771 2139.43,159.771 2139.43,156.894 2142.22,156.894 2142.22,156.514 2145,156.514 2145,157.614 2147.79,157.614 2147.79,155.596 2150.58,155.596 2150.58,161.788 2153.36,161.788 2153.36,155.012 2156.15,155.012 2156.15,159.593 2158.93,159.593 2158.93,170.528 2161.72,170.528 2161.72,171.571 2164.51,171.571 2164.51,166.933 2167.29,166.933 2167.29,159.622 2170.08,159.622 2170.08,151.126 2172.86,151.126 2172.86,152.578 2175.65,152.578 2175.65,149.848 2178.44,149.848 2178.44,158.206 2181.22,158.206 2181.22,160.067 2184.01,160.067 2184.01,152.86 2186.79,152.86 2186.79,148.632 2189.58,148.632 2189.58,152.127 2192.37,152.127 2192.37,164.217 2195.15,164.217 2195.15,148.507 2197.94,148.507 2197.94,144.626 2200.72,144.626 2200.72,144.752 2203.51,144.752 2203.51,138.996 2206.3,138.996 2206.3,142.129 2209.08,142.129 2209.08,145.821 2211.87,145.821 2211.87,140.228 2214.65,140.228 2214.65,137.014 2217.44,137.014 2217.44,136.031 2220.23,136.031 2220.23,136.276 2223.01,136.276 2223.01,135.159 2225.8,135.159 2225.8,133.047 2228.58,133.047 2228.58,127.129 2231.37,127.129 2231.37,134.207 2234.16,134.207 2234.16,131.712 2236.94,131.712 2236.94,124.371 2239.73,124.371 2239.73,123.472 2242.51,123.472 2242.51,127.014 2245.3,127.014 2245.3,131.434 2248.09,131.434 2248.09,145.664 2250.87,145.664 2250.87,146.772 2253.66,146.772 2253.66,139.413 2256.44,139.413 2256.44,151.364 2259.23,151.364 2259.23,145.598 2262.02,145.598 2262.02,146.945 2264.8,146.945 2264.8,143.076 2267.59,143.076 2267.59,139.09 2270.37,139.09 2270.37,142.048 2273.16,142.048 2273.16,155.195 2275.95,155.195 2278.73,155.195 2278.73,156.214 2281.52,156.214 2281.52,156.275 2284.3,156.275 2284.3,155.766 2287.09,155.766 2287.09,150.646 2289.88,150.646 2289.88,150.393 2292.66,150.393 2292.66,133.618 "/>
</svg>
