<?xml version="1.0" encoding="utf-8"?>
<svg xmlns="http://www.w3.org/2000/svg" xmlns:xlink="http://www.w3.org/1999/xlink" width="600" height="400" viewBox="0 0 2400 1600">
<defs>
  <clipPath id="clip870">
    <rect x="0" y="0" width="2400" height="1600"/>
  </clipPath>
</defs>
<path clip-path="url(#clip870)" d="M0 1600 L2400 1600 L2400 0 L0 0  Z" fill="#282c34" fill-rule="evenodd" fill-opacity="1"/>
<defs>
  <clipPath id="clip871">
    <rect x="229" y="123" width="2124" height="1364"/>
  </clipPath>
</defs>
<path clip-path="url(#clip870)" d="M229.445 1486.45 L2352.76 1486.45 L2352.76 123.472 L229.445 123.472  Z" fill="#21252b" fill-rule="evenodd" fill-opacity="1"/>
<polyline clip-path="url(#clip871)" style="stroke:#adb2b7; stroke-linecap:round; stroke-linejoin:round; stroke-width:2; stroke-opacity:0.1; fill:none" points="289.539,1486.45 289.539,123.472 "/>
<polyline clip-path="url(#clip871)" style="stroke:#adb2b7; stroke-linecap:round; stroke-linejoin:round; stroke-width:2; stroke-opacity:0.1; fill:none" points="734.677,1486.45 734.677,123.472 "/>
<polyline clip-path="url(#clip871)" style="stroke:#adb2b7; stroke-linecap:round; stroke-linejoin:round; stroke-width:2; stroke-opacity:0.1; fill:none" points="1179.82,1486.45 1179.82,123.472 "/>
<polyline clip-path="url(#clip871)" style="stroke:#adb2b7; stroke-linecap:round; stroke-linejoin:round; stroke-width:2; stroke-opacity:0.1; fill:none" points="1624.95,1486.45 1624.95,123.472 "/>
<polyline clip-path="url(#clip871)" style="stroke:#adb2b7; stroke-linecap:round; stroke-linejoin:round; stroke-width:2; stroke-opacity:0.1; fill:none" points="2070.09,1486.45 2070.09,123.472 "/>
<polyline clip-path="url(#clip871)" style="stroke:#adb2b7; stroke-linecap:round; stroke-linejoin:round; stroke-width:2; stroke-opacity:0.1; fill:none" points="229.445,1486.45 2352.76,1486.45 "/>
<polyline clip-path="url(#clip871)" style="stroke:#adb2b7; stroke-linecap:round; stroke-linejoin:round; stroke-width:2; stroke-opacity:0.1; fill:none" points="229.445,1186.23 2352.76,1186.23 "/>
<polyline clip-path="url(#clip871)" style="stroke:#adb2b7; stroke-linecap:round; stroke-linejoin:round; stroke-width:2; stroke-opacity:0.1; fill:none" points="229.445,886.018 2352.76,886.018 "/>
<polyline clip-path="url(#clip871)" style="stroke:#adb2b7; stroke-linecap:round; stroke-linejoin:round; stroke-width:2; stroke-opacity:0.1; fill:none" points="229.445,585.803 2352.76,585.803 "/>
<polyline clip-path="url(#clip871)" style="stroke:#adb2b7; stroke-linecap:round; stroke-linejoin:round; stroke-width:2; stroke-opacity:0.1; fill:none" points="229.445,285.588 2352.76,285.588 "/>
<polyline clip-path="url(#clip870)" style="stroke:#adb2b7; stroke-linecap:round; stroke-linejoin:round; stroke-width:4; stroke-opacity:1; fill:none" points="229.445,1486.45 2352.76,1486.45 "/>
<polyline clip-path="url(#clip870)" style="stroke:#adb2b7; stroke-linecap:round; stroke-linejoin:round; stroke-width:4; stroke-opacity:1; fill:none" points="289.539,1486.45 289.539,1467.55 "/>
<polyline clip-path="url(#clip870)" style="stroke:#adb2b7; stroke-linecap:round; stroke-linejoin:round; stroke-width:4; stroke-opacity:1; fill:none" points="734.677,1486.45 734.677,1467.55 "/>
<polyline clip-path="url(#clip870)" style="stroke:#adb2b7; stroke-linecap:round; stroke-linejoin:round; stroke-width:4; stroke-opacity:1; fill:none" points="1179.82,1486.45 1179.82,1467.55 "/>
<polyline clip-path="url(#clip870)" style="stroke:#adb2b7; stroke-linecap:round; stroke-linejoin:round; stroke-width:4; stroke-opacity:1; fill:none" points="1624.95,1486.45 1624.95,1467.55 "/>
<polyline clip-path="url(#clip870)" style="stroke:#adb2b7; stroke-linecap:round; stroke-linejoin:round; stroke-width:4; stroke-opacity:1; fill:none" points="2070.09,1486.45 2070.09,1467.55 "/>
<path clip-path="url(#clip870)" d="M161.333 1544.91 L177.653 1544.91 L177.653 1548.85 L155.708 1548.85 L155.708 1544.91 Q158.37 1542.16 162.954 1537.53 Q167.56 1532.88 168.741 1531.53 Q170.986 1529.01 171.866 1527.27 Q172.769 1525.51 172.769 1523.82 Q172.769 1521.07 170.824 1519.33 Q168.903 1517.6 165.801 1517.6 Q163.602 1517.6 161.148 1518.36 Q158.718 1519.13 155.94 1520.68 L155.94 1515.95 Q158.764 1514.82 161.218 1514.24 Q163.671 1513.66 165.708 1513.66 Q171.079 1513.66 174.273 1516.35 Q177.468 1519.03 177.468 1523.52 Q177.468 1525.65 176.657 1527.57 Q175.87 1529.47 173.764 1532.07 Q173.185 1532.74 170.083 1535.95 Q166.982 1539.15 161.333 1544.91 Z" fill="#9eb1be" fill-rule="nonzero" fill-opacity="1" /><path clip-path="url(#clip870)" d="M197.468 1517.37 Q193.856 1517.37 192.028 1520.93 Q190.222 1524.47 190.222 1531.6 Q190.222 1538.71 192.028 1542.27 Q193.856 1545.82 197.468 1545.82 Q201.102 1545.82 202.907 1542.27 Q204.736 1538.71 204.736 1531.6 Q204.736 1524.47 202.907 1520.93 Q201.102 1517.37 197.468 1517.37 M197.468 1513.66 Q203.278 1513.66 206.333 1518.27 Q209.412 1522.85 209.412 1531.6 Q209.412 1540.33 206.333 1544.94 Q203.278 1549.52 197.468 1549.52 Q191.657 1549.52 188.579 1544.94 Q185.523 1540.33 185.523 1531.6 Q185.523 1522.85 188.579 1518.27 Q191.657 1513.66 197.468 1513.66 Z" fill="#9eb1be" fill-rule="nonzero" fill-opacity="1" /><path clip-path="url(#clip870)" d="M221.657 1544.91 L237.977 1544.91 L237.977 1548.85 L216.032 1548.85 L216.032 1544.91 Q218.694 1542.16 223.278 1537.53 Q227.884 1532.88 229.065 1531.53 Q231.31 1529.01 232.19 1527.27 Q233.092 1525.51 233.092 1523.82 Q233.092 1521.07 231.148 1519.33 Q229.227 1517.6 226.125 1517.6 Q223.926 1517.6 221.472 1518.36 Q219.041 1519.13 216.264 1520.68 L216.264 1515.95 Q219.088 1514.82 221.541 1514.24 Q223.995 1513.66 226.032 1513.66 Q231.403 1513.66 234.597 1516.35 Q237.791 1519.03 237.791 1523.52 Q237.791 1525.65 236.981 1527.57 Q236.194 1529.47 234.088 1532.07 Q233.509 1532.74 230.407 1535.95 Q227.305 1539.15 221.657 1544.91 Z" fill="#9eb1be" fill-rule="nonzero" fill-opacity="1" /><path clip-path="url(#clip870)" d="M257.791 1517.37 Q254.18 1517.37 252.351 1520.93 Q250.546 1524.47 250.546 1531.6 Q250.546 1538.71 252.351 1542.27 Q254.18 1545.82 257.791 1545.82 Q261.425 1545.82 263.231 1542.27 Q265.06 1538.71 265.06 1531.6 Q265.06 1524.47 263.231 1520.93 Q261.425 1517.37 257.791 1517.37 M257.791 1513.66 Q263.601 1513.66 266.657 1518.27 Q269.736 1522.85 269.736 1531.6 Q269.736 1540.33 266.657 1544.94 Q263.601 1549.52 257.791 1549.52 Q251.981 1549.52 248.902 1544.94 Q245.847 1540.33 245.847 1531.6 Q245.847 1522.85 248.902 1518.27 Q251.981 1513.66 257.791 1513.66 Z" fill="#9eb1be" fill-rule="nonzero" fill-opacity="1" /><path clip-path="url(#clip870)" d="M275.199 1533.96 L287.675 1533.96 L287.675 1537.76 L275.199 1537.76 L275.199 1533.96 Z" fill="#9eb1be" fill-rule="nonzero" fill-opacity="1" /><path clip-path="url(#clip870)" d="M305.06 1517.37 Q301.448 1517.37 299.62 1520.93 Q297.814 1524.47 297.814 1531.6 Q297.814 1538.71 299.62 1542.27 Q301.448 1545.82 305.06 1545.82 Q308.694 1545.82 310.499 1542.27 Q312.328 1538.71 312.328 1531.6 Q312.328 1524.47 310.499 1520.93 Q308.694 1517.37 305.06 1517.37 M305.06 1513.66 Q310.87 1513.66 313.925 1518.27 Q317.004 1522.85 317.004 1531.6 Q317.004 1540.33 313.925 1544.94 Q310.87 1549.52 305.06 1549.52 Q299.249 1549.52 296.171 1544.94 Q293.115 1540.33 293.115 1531.6 Q293.115 1522.85 296.171 1518.27 Q299.249 1513.66 305.06 1513.66 Z" fill="#9eb1be" fill-rule="nonzero" fill-opacity="1" /><path clip-path="url(#clip870)" d="M326.032 1544.91 L333.67 1544.91 L333.67 1518.55 L325.36 1520.21 L325.36 1515.95 L333.624 1514.29 L338.3 1514.29 L338.3 1544.91 L345.939 1544.91 L345.939 1548.85 L326.032 1548.85 L326.032 1544.91 Z" fill="#9eb1be" fill-rule="nonzero" fill-opacity="1" /><path clip-path="url(#clip870)" d="M352.629 1533.96 L365.105 1533.96 L365.105 1537.76 L352.629 1537.76 L352.629 1533.96 Z" fill="#9eb1be" fill-rule="nonzero" fill-opacity="1" /><path clip-path="url(#clip870)" d="M382.49 1517.37 Q378.879 1517.37 377.05 1520.93 Q375.244 1524.47 375.244 1531.6 Q375.244 1538.71 377.05 1542.27 Q378.879 1545.82 382.49 1545.82 Q386.124 1545.82 387.929 1542.27 Q389.758 1538.71 389.758 1531.6 Q389.758 1524.47 387.929 1520.93 Q386.124 1517.37 382.49 1517.37 M382.49 1513.66 Q388.3 1513.66 391.355 1518.27 Q394.434 1522.85 394.434 1531.6 Q394.434 1540.33 391.355 1544.94 Q388.3 1549.52 382.49 1549.52 Q376.68 1549.52 373.601 1544.94 Q370.545 1540.33 370.545 1531.6 Q370.545 1522.85 373.601 1518.27 Q376.68 1513.66 382.49 1513.66 Z" fill="#9eb1be" fill-rule="nonzero" fill-opacity="1" /><path clip-path="url(#clip870)" d="M403.462 1544.91 L411.101 1544.91 L411.101 1518.55 L402.79 1520.21 L402.79 1515.95 L411.054 1514.29 L415.73 1514.29 L415.73 1544.91 L423.369 1544.91 L423.369 1548.85 L403.462 1548.85 L403.462 1544.91 Z" fill="#9eb1be" fill-rule="nonzero" fill-opacity="1" /><path clip-path="url(#clip870)" d="M606.183 1544.91 L622.502 1544.91 L622.502 1548.85 L600.558 1548.85 L600.558 1544.91 Q603.22 1542.16 607.803 1537.53 Q612.409 1532.88 613.59 1531.53 Q615.835 1529.01 616.715 1527.27 Q617.618 1525.51 617.618 1523.82 Q617.618 1521.07 615.673 1519.33 Q613.752 1517.6 610.65 1517.6 Q608.451 1517.6 605.997 1518.36 Q603.567 1519.13 600.789 1520.68 L600.789 1515.95 Q603.613 1514.82 606.067 1514.24 Q608.521 1513.66 610.558 1513.66 Q615.928 1513.66 619.122 1516.35 Q622.317 1519.03 622.317 1523.52 Q622.317 1525.65 621.507 1527.57 Q620.72 1529.47 618.613 1532.07 Q618.034 1532.74 614.933 1535.95 Q611.831 1539.15 606.183 1544.91 Z" fill="#9eb1be" fill-rule="nonzero" fill-opacity="1" /><path clip-path="url(#clip870)" d="M642.317 1517.37 Q638.706 1517.37 636.877 1520.93 Q635.071 1524.47 635.071 1531.6 Q635.071 1538.71 636.877 1542.27 Q638.706 1545.82 642.317 1545.82 Q645.951 1545.82 647.756 1542.27 Q649.585 1538.71 649.585 1531.6 Q649.585 1524.47 647.756 1520.93 Q645.951 1517.37 642.317 1517.37 M642.317 1513.66 Q648.127 1513.66 651.182 1518.27 Q654.261 1522.85 654.261 1531.6 Q654.261 1540.33 651.182 1544.94 Q648.127 1549.52 642.317 1549.52 Q636.507 1549.52 633.428 1544.94 Q630.372 1540.33 630.372 1531.6 Q630.372 1522.85 633.428 1518.27 Q636.507 1513.66 642.317 1513.66 Z" fill="#9eb1be" fill-rule="nonzero" fill-opacity="1" /><path clip-path="url(#clip870)" d="M666.506 1544.91 L682.826 1544.91 L682.826 1548.85 L660.881 1548.85 L660.881 1544.91 Q663.543 1542.16 668.127 1537.53 Q672.733 1532.88 673.914 1531.53 Q676.159 1529.01 677.039 1527.27 Q677.942 1525.51 677.942 1523.82 Q677.942 1521.07 675.997 1519.33 Q674.076 1517.6 670.974 1517.6 Q668.775 1517.6 666.321 1518.36 Q663.891 1519.13 661.113 1520.68 L661.113 1515.95 Q663.937 1514.82 666.391 1514.24 Q668.844 1513.66 670.881 1513.66 Q676.252 1513.66 679.446 1516.35 Q682.641 1519.03 682.641 1523.52 Q682.641 1525.65 681.83 1527.57 Q681.043 1529.47 678.937 1532.07 Q678.358 1532.74 675.256 1535.95 Q672.154 1539.15 666.506 1544.91 Z" fill="#9eb1be" fill-rule="nonzero" fill-opacity="1" /><path clip-path="url(#clip870)" d="M702.64 1517.37 Q699.029 1517.37 697.201 1520.93 Q695.395 1524.47 695.395 1531.6 Q695.395 1538.71 697.201 1542.27 Q699.029 1545.82 702.64 1545.82 Q706.275 1545.82 708.08 1542.27 Q709.909 1538.71 709.909 1531.6 Q709.909 1524.47 708.08 1520.93 Q706.275 1517.37 702.64 1517.37 M702.64 1513.66 Q708.451 1513.66 711.506 1518.27 Q714.585 1522.85 714.585 1531.6 Q714.585 1540.33 711.506 1544.94 Q708.451 1549.52 702.64 1549.52 Q696.83 1549.52 693.752 1544.94 Q690.696 1540.33 690.696 1531.6 Q690.696 1522.85 693.752 1518.27 Q696.83 1513.66 702.64 1513.66 Z" fill="#9eb1be" fill-rule="nonzero" fill-opacity="1" /><path clip-path="url(#clip870)" d="M720.048 1533.96 L732.525 1533.96 L732.525 1537.76 L720.048 1537.76 L720.048 1533.96 Z" fill="#9eb1be" fill-rule="nonzero" fill-opacity="1" /><path clip-path="url(#clip870)" d="M749.909 1517.37 Q746.298 1517.37 744.469 1520.93 Q742.663 1524.47 742.663 1531.6 Q742.663 1538.71 744.469 1542.27 Q746.298 1545.82 749.909 1545.82 Q753.543 1545.82 755.348 1542.27 Q757.177 1538.71 757.177 1531.6 Q757.177 1524.47 755.348 1520.93 Q753.543 1517.37 749.909 1517.37 M749.909 1513.66 Q755.719 1513.66 758.774 1518.27 Q761.853 1522.85 761.853 1531.6 Q761.853 1540.33 758.774 1544.94 Q755.719 1549.52 749.909 1549.52 Q744.099 1549.52 741.02 1544.94 Q737.964 1540.33 737.964 1531.6 Q737.964 1522.85 741.02 1518.27 Q744.099 1513.66 749.909 1513.66 Z" fill="#9eb1be" fill-rule="nonzero" fill-opacity="1" /><path clip-path="url(#clip870)" d="M770.881 1544.91 L778.52 1544.91 L778.52 1518.55 L770.21 1520.21 L770.21 1515.95 L778.473 1514.29 L783.149 1514.29 L783.149 1544.91 L790.788 1544.91 L790.788 1548.85 L770.881 1548.85 L770.881 1544.91 Z" fill="#9eb1be" fill-rule="nonzero" fill-opacity="1" /><path clip-path="url(#clip870)" d="M797.478 1533.96 L809.955 1533.96 L809.955 1537.76 L797.478 1537.76 L797.478 1533.96 Z" fill="#9eb1be" fill-rule="nonzero" fill-opacity="1" /><path clip-path="url(#clip870)" d="M827.339 1517.37 Q823.728 1517.37 821.899 1520.93 Q820.094 1524.47 820.094 1531.6 Q820.094 1538.71 821.899 1542.27 Q823.728 1545.82 827.339 1545.82 Q830.973 1545.82 832.779 1542.27 Q834.607 1538.71 834.607 1531.6 Q834.607 1524.47 832.779 1520.93 Q830.973 1517.37 827.339 1517.37 M827.339 1513.66 Q833.149 1513.66 836.205 1518.27 Q839.283 1522.85 839.283 1531.6 Q839.283 1540.33 836.205 1544.94 Q833.149 1549.52 827.339 1549.52 Q821.529 1549.52 818.45 1544.94 Q815.394 1540.33 815.394 1531.6 Q815.394 1522.85 818.45 1518.27 Q821.529 1513.66 827.339 1513.66 Z" fill="#9eb1be" fill-rule="nonzero" fill-opacity="1" /><path clip-path="url(#clip870)" d="M861.667 1530.21 Q865.024 1530.93 866.899 1533.2 Q868.797 1535.47 868.797 1538.8 Q868.797 1543.92 865.278 1546.72 Q861.76 1549.52 855.279 1549.52 Q853.103 1549.52 850.788 1549.08 Q848.496 1548.66 846.042 1547.81 L846.042 1543.29 Q847.987 1544.43 850.302 1545.01 Q852.616 1545.58 855.14 1545.58 Q859.538 1545.58 861.829 1543.85 Q864.144 1542.11 864.144 1538.8 Q864.144 1535.75 861.991 1534.03 Q859.862 1532.3 856.042 1532.3 L852.015 1532.3 L852.015 1528.45 L856.228 1528.45 Q859.677 1528.45 861.505 1527.09 Q863.334 1525.7 863.334 1523.11 Q863.334 1520.45 861.436 1519.03 Q859.561 1517.6 856.042 1517.6 Q854.121 1517.6 851.922 1518.01 Q849.723 1518.43 847.084 1519.31 L847.084 1515.14 Q849.746 1514.4 852.061 1514.03 Q854.399 1513.66 856.459 1513.66 Q861.783 1513.66 864.885 1516.09 Q867.987 1518.5 867.987 1522.62 Q867.987 1525.49 866.343 1527.48 Q864.7 1529.45 861.667 1530.21 Z" fill="#9eb1be" fill-rule="nonzero" fill-opacity="1" /><path clip-path="url(#clip870)" d="M1051.49 1544.91 L1067.81 1544.91 L1067.81 1548.85 L1045.87 1548.85 L1045.87 1544.91 Q1048.53 1542.16 1053.12 1537.53 Q1057.72 1532.88 1058.9 1531.53 Q1061.15 1529.01 1062.03 1527.27 Q1062.93 1525.51 1062.93 1523.82 Q1062.93 1521.07 1060.99 1519.33 Q1059.06 1517.6 1055.96 1517.6 Q1053.76 1517.6 1051.31 1518.36 Q1048.88 1519.13 1046.1 1520.68 L1046.1 1515.95 Q1048.93 1514.82 1051.38 1514.24 Q1053.83 1513.66 1055.87 1513.66 Q1061.24 1513.66 1064.43 1516.35 Q1067.63 1519.03 1067.63 1523.52 Q1067.63 1525.65 1066.82 1527.57 Q1066.03 1529.47 1063.93 1532.07 Q1063.35 1532.74 1060.24 1535.95 Q1057.14 1539.15 1051.49 1544.91 Z" fill="#9eb1be" fill-rule="nonzero" fill-opacity="1" /><path clip-path="url(#clip870)" d="M1087.63 1517.37 Q1084.02 1517.37 1082.19 1520.93 Q1080.38 1524.47 1080.38 1531.6 Q1080.38 1538.71 1082.19 1542.27 Q1084.02 1545.82 1087.63 1545.82 Q1091.26 1545.82 1093.07 1542.27 Q1094.9 1538.71 1094.9 1531.6 Q1094.9 1524.47 1093.07 1520.93 Q1091.26 1517.37 1087.63 1517.37 M1087.63 1513.66 Q1093.44 1513.66 1096.49 1518.27 Q1099.57 1522.85 1099.57 1531.6 Q1099.57 1540.33 1096.49 1544.94 Q1093.44 1549.52 1087.63 1549.52 Q1081.82 1549.52 1078.74 1544.94 Q1075.68 1540.33 1075.68 1531.6 Q1075.68 1522.85 1078.74 1518.27 Q1081.82 1513.66 1087.63 1513.66 Z" fill="#9eb1be" fill-rule="nonzero" fill-opacity="1" /><path clip-path="url(#clip870)" d="M1111.82 1544.91 L1128.14 1544.91 L1128.14 1548.85 L1106.19 1548.85 L1106.19 1544.91 Q1108.86 1542.16 1113.44 1537.53 Q1118.05 1532.88 1119.23 1531.53 Q1121.47 1529.01 1122.35 1527.27 Q1123.25 1525.51 1123.25 1523.82 Q1123.25 1521.07 1121.31 1519.33 Q1119.39 1517.6 1116.29 1517.6 Q1114.09 1517.6 1111.63 1518.36 Q1109.2 1519.13 1106.43 1520.68 L1106.43 1515.95 Q1109.25 1514.82 1111.7 1514.24 Q1114.16 1513.66 1116.19 1513.66 Q1121.56 1513.66 1124.76 1516.35 Q1127.95 1519.03 1127.95 1523.52 Q1127.95 1525.65 1127.14 1527.57 Q1126.36 1529.47 1124.25 1532.07 Q1123.67 1532.74 1120.57 1535.95 Q1117.47 1539.15 1111.82 1544.91 Z" fill="#9eb1be" fill-rule="nonzero" fill-opacity="1" /><path clip-path="url(#clip870)" d="M1147.95 1517.37 Q1144.34 1517.37 1142.51 1520.93 Q1140.71 1524.47 1140.71 1531.6 Q1140.71 1538.71 1142.51 1542.27 Q1144.34 1545.82 1147.95 1545.82 Q1151.59 1545.82 1153.39 1542.27 Q1155.22 1538.71 1155.22 1531.6 Q1155.22 1524.47 1153.39 1520.93 Q1151.59 1517.37 1147.95 1517.37 M1147.95 1513.66 Q1153.76 1513.66 1156.82 1518.27 Q1159.9 1522.85 1159.9 1531.6 Q1159.9 1540.33 1156.82 1544.94 Q1153.76 1549.52 1147.95 1549.52 Q1142.14 1549.52 1139.06 1544.94 Q1136.01 1540.33 1136.01 1531.6 Q1136.01 1522.85 1139.06 1518.27 Q1142.14 1513.66 1147.95 1513.66 Z" fill="#9eb1be" fill-rule="nonzero" fill-opacity="1" /><path clip-path="url(#clip870)" d="M1165.36 1533.96 L1177.84 1533.96 L1177.84 1537.76 L1165.36 1537.76 L1165.36 1533.96 Z" fill="#9eb1be" fill-rule="nonzero" fill-opacity="1" /><path clip-path="url(#clip870)" d="M1195.22 1517.37 Q1191.61 1517.37 1189.78 1520.93 Q1187.98 1524.47 1187.98 1531.6 Q1187.98 1538.71 1189.78 1542.27 Q1191.61 1545.82 1195.22 1545.82 Q1198.86 1545.82 1200.66 1542.27 Q1202.49 1538.71 1202.49 1531.6 Q1202.49 1524.47 1200.66 1520.93 Q1198.86 1517.37 1195.22 1517.37 M1195.22 1513.66 Q1201.03 1513.66 1204.09 1518.27 Q1207.17 1522.85 1207.17 1531.6 Q1207.17 1540.33 1204.09 1544.94 Q1201.03 1549.52 1195.22 1549.52 Q1189.41 1549.52 1186.33 1544.94 Q1183.28 1540.33 1183.28 1531.6 Q1183.28 1522.85 1186.33 1518.27 Q1189.41 1513.66 1195.22 1513.66 Z" fill="#9eb1be" fill-rule="nonzero" fill-opacity="1" /><path clip-path="url(#clip870)" d="M1216.19 1544.91 L1223.83 1544.91 L1223.83 1518.55 L1215.52 1520.21 L1215.52 1515.95 L1223.79 1514.29 L1228.46 1514.29 L1228.46 1544.91 L1236.1 1544.91 L1236.1 1548.85 L1216.19 1548.85 L1216.19 1544.91 Z" fill="#9eb1be" fill-rule="nonzero" fill-opacity="1" /><path clip-path="url(#clip870)" d="M1242.79 1533.96 L1255.27 1533.96 L1255.27 1537.76 L1242.79 1537.76 L1242.79 1533.96 Z" fill="#9eb1be" fill-rule="nonzero" fill-opacity="1" /><path clip-path="url(#clip870)" d="M1272.65 1517.37 Q1269.04 1517.37 1267.21 1520.93 Q1265.41 1524.47 1265.41 1531.6 Q1265.41 1538.71 1267.21 1542.27 Q1269.04 1545.82 1272.65 1545.82 Q1276.29 1545.82 1278.09 1542.27 Q1279.92 1538.71 1279.92 1531.6 Q1279.92 1524.47 1278.09 1520.93 Q1276.29 1517.37 1272.65 1517.37 M1272.65 1513.66 Q1278.46 1513.66 1281.52 1518.27 Q1284.6 1522.85 1284.6 1531.6 Q1284.6 1540.33 1281.52 1544.94 Q1278.46 1549.52 1272.65 1549.52 Q1266.84 1549.52 1263.76 1544.94 Q1260.71 1540.33 1260.71 1531.6 Q1260.71 1522.85 1263.76 1518.27 Q1266.84 1513.66 1272.65 1513.66 Z" fill="#9eb1be" fill-rule="nonzero" fill-opacity="1" /><path clip-path="url(#clip870)" d="M1292.86 1514.29 L1311.22 1514.29 L1311.22 1518.22 L1297.14 1518.22 L1297.14 1526.7 Q1298.16 1526.35 1299.18 1526.19 Q1300.2 1526 1301.22 1526 Q1307 1526 1310.38 1529.17 Q1313.76 1532.34 1313.76 1537.76 Q1313.76 1543.34 1310.29 1546.44 Q1306.82 1549.52 1300.5 1549.52 Q1298.32 1549.52 1296.05 1549.15 Q1293.81 1548.78 1291.4 1548.04 L1291.4 1543.34 Q1293.48 1544.47 1295.71 1545.03 Q1297.93 1545.58 1300.41 1545.58 Q1304.41 1545.58 1306.75 1543.48 Q1309.09 1541.37 1309.09 1537.76 Q1309.09 1534.15 1306.75 1532.04 Q1304.41 1529.94 1300.41 1529.94 Q1298.53 1529.94 1296.66 1530.35 Q1294.8 1530.77 1292.86 1531.65 L1292.86 1514.29 Z" fill="#9eb1be" fill-rule="nonzero" fill-opacity="1" /><path clip-path="url(#clip870)" d="M1496.59 1544.91 L1512.91 1544.91 L1512.91 1548.85 L1490.96 1548.85 L1490.96 1544.91 Q1493.62 1542.16 1498.21 1537.53 Q1502.81 1532.88 1503.99 1531.53 Q1506.24 1529.01 1507.12 1527.27 Q1508.02 1525.51 1508.02 1523.82 Q1508.02 1521.07 1506.08 1519.33 Q1504.16 1517.6 1501.05 1517.6 Q1498.86 1517.6 1496.4 1518.36 Q1493.97 1519.13 1491.19 1520.68 L1491.19 1515.95 Q1494.02 1514.82 1496.47 1514.24 Q1498.92 1513.66 1500.96 1513.66 Q1506.33 1513.66 1509.53 1516.35 Q1512.72 1519.03 1512.72 1523.52 Q1512.72 1525.65 1511.91 1527.57 Q1511.12 1529.47 1509.02 1532.07 Q1508.44 1532.74 1505.34 1535.95 Q1502.24 1539.15 1496.59 1544.91 Z" fill="#9eb1be" fill-rule="nonzero" fill-opacity="1" /><path clip-path="url(#clip870)" d="M1532.72 1517.37 Q1529.11 1517.37 1527.28 1520.93 Q1525.48 1524.47 1525.48 1531.6 Q1525.48 1538.71 1527.28 1542.27 Q1529.11 1545.82 1532.72 1545.82 Q1536.36 1545.82 1538.16 1542.27 Q1539.99 1538.71 1539.99 1531.6 Q1539.99 1524.47 1538.16 1520.93 Q1536.36 1517.37 1532.72 1517.37 M1532.72 1513.66 Q1538.53 1513.66 1541.59 1518.27 Q1544.67 1522.85 1544.67 1531.6 Q1544.67 1540.33 1541.59 1544.94 Q1538.53 1549.52 1532.72 1549.52 Q1526.91 1549.52 1523.83 1544.94 Q1520.78 1540.33 1520.78 1531.6 Q1520.78 1522.85 1523.83 1518.27 Q1526.91 1513.66 1532.72 1513.66 Z" fill="#9eb1be" fill-rule="nonzero" fill-opacity="1" /><path clip-path="url(#clip870)" d="M1556.91 1544.91 L1573.23 1544.91 L1573.23 1548.85 L1551.29 1548.85 L1551.29 1544.91 Q1553.95 1542.16 1558.53 1537.53 Q1563.14 1532.88 1564.32 1531.53 Q1566.56 1529.01 1567.44 1527.27 Q1568.35 1525.51 1568.35 1523.82 Q1568.35 1521.07 1566.4 1519.33 Q1564.48 1517.6 1561.38 1517.6 Q1559.18 1517.6 1556.73 1518.36 Q1554.3 1519.13 1551.52 1520.68 L1551.52 1515.95 Q1554.34 1514.82 1556.8 1514.24 Q1559.25 1513.66 1561.29 1513.66 Q1566.66 1513.66 1569.85 1516.35 Q1573.04 1519.03 1573.04 1523.52 Q1573.04 1525.65 1572.23 1527.57 Q1571.45 1529.47 1569.34 1532.07 Q1568.76 1532.74 1565.66 1535.95 Q1562.56 1539.15 1556.91 1544.91 Z" fill="#9eb1be" fill-rule="nonzero" fill-opacity="1" /><path clip-path="url(#clip870)" d="M1593.04 1517.37 Q1589.43 1517.37 1587.61 1520.93 Q1585.8 1524.47 1585.8 1531.6 Q1585.8 1538.71 1587.61 1542.27 Q1589.43 1545.82 1593.04 1545.82 Q1596.68 1545.82 1598.48 1542.27 Q1600.31 1538.71 1600.31 1531.6 Q1600.31 1524.47 1598.48 1520.93 Q1596.68 1517.37 1593.04 1517.37 M1593.04 1513.66 Q1598.85 1513.66 1601.91 1518.27 Q1604.99 1522.85 1604.99 1531.6 Q1604.99 1540.33 1601.91 1544.94 Q1598.85 1549.52 1593.04 1549.52 Q1587.23 1549.52 1584.16 1544.94 Q1581.1 1540.33 1581.1 1531.6 Q1581.1 1522.85 1584.16 1518.27 Q1587.23 1513.66 1593.04 1513.66 Z" fill="#9eb1be" fill-rule="nonzero" fill-opacity="1" /><path clip-path="url(#clip870)" d="M1610.45 1533.96 L1622.93 1533.96 L1622.93 1537.76 L1610.45 1537.76 L1610.45 1533.96 Z" fill="#9eb1be" fill-rule="nonzero" fill-opacity="1" /><path clip-path="url(#clip870)" d="M1640.31 1517.37 Q1636.7 1517.37 1634.87 1520.93 Q1633.07 1524.47 1633.07 1531.6 Q1633.07 1538.71 1634.87 1542.27 Q1636.7 1545.82 1640.31 1545.82 Q1643.95 1545.82 1645.75 1542.27 Q1647.58 1538.71 1647.58 1531.6 Q1647.58 1524.47 1645.75 1520.93 Q1643.95 1517.37 1640.31 1517.37 M1640.31 1513.66 Q1646.12 1513.66 1649.18 1518.27 Q1652.26 1522.85 1652.26 1531.6 Q1652.26 1540.33 1649.18 1544.94 Q1646.12 1549.52 1640.31 1549.52 Q1634.5 1549.52 1631.42 1544.94 Q1628.37 1540.33 1628.37 1531.6 Q1628.37 1522.85 1631.42 1518.27 Q1634.5 1513.66 1640.31 1513.66 Z" fill="#9eb1be" fill-rule="nonzero" fill-opacity="1" /><path clip-path="url(#clip870)" d="M1661.29 1544.91 L1668.92 1544.91 L1668.92 1518.55 L1660.61 1520.21 L1660.61 1515.95 L1668.88 1514.29 L1673.55 1514.29 L1673.55 1544.91 L1681.19 1544.91 L1681.19 1548.85 L1661.29 1548.85 L1661.29 1544.91 Z" fill="#9eb1be" fill-rule="nonzero" fill-opacity="1" /><path clip-path="url(#clip870)" d="M1687.88 1533.96 L1700.36 1533.96 L1700.36 1537.76 L1687.88 1537.76 L1687.88 1533.96 Z" fill="#9eb1be" fill-rule="nonzero" fill-opacity="1" /><path clip-path="url(#clip870)" d="M1717.74 1517.37 Q1714.13 1517.37 1712.3 1520.93 Q1710.5 1524.47 1710.5 1531.6 Q1710.5 1538.71 1712.3 1542.27 Q1714.13 1545.82 1717.74 1545.82 Q1721.38 1545.82 1723.18 1542.27 Q1725.01 1538.71 1725.01 1531.6 Q1725.01 1524.47 1723.18 1520.93 Q1721.38 1517.37 1717.74 1517.37 M1717.74 1513.66 Q1723.55 1513.66 1726.61 1518.27 Q1729.69 1522.85 1729.69 1531.6 Q1729.69 1540.33 1726.61 1544.94 Q1723.55 1549.52 1717.74 1549.52 Q1711.93 1549.52 1708.85 1544.94 Q1705.8 1540.33 1705.8 1531.6 Q1705.8 1522.85 1708.85 1518.27 Q1711.93 1513.66 1717.74 1513.66 Z" fill="#9eb1be" fill-rule="nonzero" fill-opacity="1" /><path clip-path="url(#clip870)" d="M1736.72 1514.29 L1758.95 1514.29 L1758.95 1516.28 L1746.4 1548.85 L1741.52 1548.85 L1753.32 1518.22 L1736.72 1518.22 L1736.72 1514.29 Z" fill="#9eb1be" fill-rule="nonzero" fill-opacity="1" /><path clip-path="url(#clip870)" d="M1941.37 1544.91 L1957.69 1544.91 L1957.69 1548.85 L1935.74 1548.85 L1935.74 1544.91 Q1938.4 1542.16 1942.99 1537.53 Q1947.59 1532.88 1948.77 1531.53 Q1951.02 1529.01 1951.9 1527.27 Q1952.8 1525.51 1952.8 1523.82 Q1952.8 1521.07 1950.86 1519.33 Q1948.94 1517.6 1945.83 1517.6 Q1943.64 1517.6 1941.18 1518.36 Q1938.75 1519.13 1935.97 1520.68 L1935.97 1515.95 Q1938.8 1514.82 1941.25 1514.24 Q1943.7 1513.66 1945.74 1513.66 Q1951.11 1513.66 1954.31 1516.35 Q1957.5 1519.03 1957.5 1523.52 Q1957.5 1525.65 1956.69 1527.57 Q1955.9 1529.47 1953.8 1532.07 Q1953.22 1532.74 1950.12 1535.95 Q1947.01 1539.15 1941.37 1544.91 Z" fill="#9eb1be" fill-rule="nonzero" fill-opacity="1" /><path clip-path="url(#clip870)" d="M1977.5 1517.37 Q1973.89 1517.37 1972.06 1520.93 Q1970.26 1524.47 1970.26 1531.6 Q1970.26 1538.71 1972.06 1542.27 Q1973.89 1545.82 1977.5 1545.82 Q1981.14 1545.82 1982.94 1542.27 Q1984.77 1538.71 1984.77 1531.6 Q1984.77 1524.47 1982.94 1520.93 Q1981.14 1517.37 1977.5 1517.37 M1977.5 1513.66 Q1983.31 1513.66 1986.37 1518.27 Q1989.45 1522.85 1989.45 1531.6 Q1989.45 1540.33 1986.37 1544.94 Q1983.31 1549.52 1977.5 1549.52 Q1971.69 1549.52 1968.61 1544.94 Q1965.56 1540.33 1965.56 1531.6 Q1965.56 1522.85 1968.61 1518.27 Q1971.69 1513.66 1977.5 1513.66 Z" fill="#9eb1be" fill-rule="nonzero" fill-opacity="1" /><path clip-path="url(#clip870)" d="M2001.69 1544.91 L2018.01 1544.91 L2018.01 1548.85 L1996.07 1548.85 L1996.07 1544.91 Q1998.73 1542.16 2003.31 1537.53 Q2007.92 1532.88 2009.1 1531.53 Q2011.34 1529.01 2012.22 1527.27 Q2013.13 1525.51 2013.13 1523.82 Q2013.13 1521.07 2011.18 1519.33 Q2009.26 1517.6 2006.16 1517.6 Q2003.96 1517.6 2001.51 1518.36 Q1999.07 1519.13 1996.3 1520.68 L1996.3 1515.95 Q1999.12 1514.82 2001.57 1514.24 Q2004.03 1513.66 2006.07 1513.66 Q2011.44 1513.66 2014.63 1516.35 Q2017.82 1519.03 2017.82 1523.52 Q2017.82 1525.65 2017.01 1527.57 Q2016.23 1529.47 2014.12 1532.07 Q2013.54 1532.74 2010.44 1535.95 Q2007.34 1539.15 2001.69 1544.91 Z" fill="#9eb1be" fill-rule="nonzero" fill-opacity="1" /><path clip-path="url(#clip870)" d="M2037.82 1517.37 Q2034.21 1517.37 2032.38 1520.93 Q2030.58 1524.47 2030.58 1531.6 Q2030.58 1538.71 2032.38 1542.27 Q2034.21 1545.82 2037.82 1545.82 Q2041.46 1545.82 2043.26 1542.27 Q2045.09 1538.71 2045.09 1531.6 Q2045.09 1524.47 2043.26 1520.93 Q2041.46 1517.37 2037.82 1517.37 M2037.82 1513.66 Q2043.63 1513.66 2046.69 1518.27 Q2049.77 1522.85 2049.77 1531.6 Q2049.77 1540.33 2046.69 1544.94 Q2043.63 1549.52 2037.82 1549.52 Q2032.01 1549.52 2028.94 1544.94 Q2025.88 1540.33 2025.88 1531.6 Q2025.88 1522.85 2028.94 1518.27 Q2032.01 1513.66 2037.82 1513.66 Z" fill="#9eb1be" fill-rule="nonzero" fill-opacity="1" /><path clip-path="url(#clip870)" d="M2055.23 1533.96 L2067.71 1533.96 L2067.71 1537.76 L2055.23 1537.76 L2055.23 1533.96 Z" fill="#9eb1be" fill-rule="nonzero" fill-opacity="1" /><path clip-path="url(#clip870)" d="M2085.09 1517.37 Q2081.48 1517.37 2079.65 1520.93 Q2077.85 1524.47 2077.85 1531.6 Q2077.85 1538.71 2079.65 1542.27 Q2081.48 1545.82 2085.09 1545.82 Q2088.73 1545.82 2090.53 1542.27 Q2092.36 1538.71 2092.36 1531.6 Q2092.36 1524.47 2090.53 1520.93 Q2088.73 1517.37 2085.09 1517.37 M2085.09 1513.66 Q2090.9 1513.66 2093.96 1518.27 Q2097.04 1522.85 2097.04 1531.6 Q2097.04 1540.33 2093.96 1544.94 Q2090.9 1549.52 2085.09 1549.52 Q2079.28 1549.52 2076.2 1544.94 Q2073.15 1540.33 2073.15 1531.6 Q2073.15 1522.85 2076.2 1518.27 Q2079.28 1513.66 2085.09 1513.66 Z" fill="#9eb1be" fill-rule="nonzero" fill-opacity="1" /><path clip-path="url(#clip870)" d="M2106.06 1544.91 L2113.7 1544.91 L2113.7 1518.55 L2105.39 1520.21 L2105.39 1515.95 L2113.66 1514.29 L2118.33 1514.29 L2118.33 1544.91 L2125.97 1544.91 L2125.97 1548.85 L2106.06 1548.85 L2106.06 1544.91 Z" fill="#9eb1be" fill-rule="nonzero" fill-opacity="1" /><path clip-path="url(#clip870)" d="M2132.66 1533.96 L2145.14 1533.96 L2145.14 1537.76 L2132.66 1537.76 L2132.66 1533.96 Z" fill="#9eb1be" fill-rule="nonzero" fill-opacity="1" /><path clip-path="url(#clip870)" d="M2162.52 1517.37 Q2158.91 1517.37 2157.08 1520.93 Q2155.28 1524.47 2155.28 1531.6 Q2155.28 1538.71 2157.08 1542.27 Q2158.91 1545.82 2162.52 1545.82 Q2166.16 1545.82 2167.96 1542.27 Q2169.79 1538.71 2169.79 1531.6 Q2169.79 1524.47 2167.96 1520.93 Q2166.16 1517.37 2162.52 1517.37 M2162.52 1513.66 Q2168.33 1513.66 2171.39 1518.27 Q2174.47 1522.85 2174.47 1531.6 Q2174.47 1540.33 2171.39 1544.94 Q2168.33 1549.52 2162.52 1549.52 Q2156.71 1549.52 2153.63 1544.94 Q2150.58 1540.33 2150.58 1531.6 Q2150.58 1522.85 2153.63 1518.27 Q2156.71 1513.66 2162.52 1513.66 Z" fill="#9eb1be" fill-rule="nonzero" fill-opacity="1" /><path clip-path="url(#clip870)" d="M2182.82 1548.13 L2182.82 1543.87 Q2184.58 1544.7 2186.39 1545.14 Q2188.19 1545.58 2189.93 1545.58 Q2194.56 1545.58 2196.99 1542.48 Q2199.44 1539.36 2199.79 1533.01 Q2198.45 1535.01 2196.39 1536.07 Q2194.33 1537.13 2191.83 1537.13 Q2186.64 1537.13 2183.61 1534.01 Q2180.6 1530.86 2180.6 1525.42 Q2180.6 1520.1 2183.75 1516.88 Q2186.9 1513.66 2192.13 1513.66 Q2198.12 1513.66 2201.27 1518.27 Q2204.44 1522.85 2204.44 1531.6 Q2204.44 1539.77 2200.56 1544.66 Q2196.69 1549.52 2190.14 1549.52 Q2188.38 1549.52 2186.57 1549.17 Q2184.77 1548.82 2182.82 1548.13 M2192.13 1533.48 Q2195.28 1533.48 2197.11 1531.32 Q2198.96 1529.17 2198.96 1525.42 Q2198.96 1521.7 2197.11 1519.54 Q2195.28 1517.37 2192.13 1517.37 Q2188.98 1517.37 2187.13 1519.54 Q2185.3 1521.7 2185.3 1525.42 Q2185.3 1529.17 2187.13 1531.32 Q2188.98 1533.48 2192.13 1533.48 Z" fill="#9eb1be" fill-rule="nonzero" fill-opacity="1" /><polyline clip-path="url(#clip870)" style="stroke:#adb2b7; stroke-linecap:round; stroke-linejoin:round; stroke-width:4; stroke-opacity:1; fill:none" points="229.445,1486.45 229.445,123.472 "/>
<polyline clip-path="url(#clip870)" style="stroke:#adb2b7; stroke-linecap:round; stroke-linejoin:round; stroke-width:4; stroke-opacity:1; fill:none" points="229.445,1486.45 248.343,1486.45 "/>
<polyline clip-path="url(#clip870)" style="stroke:#adb2b7; stroke-linecap:round; stroke-linejoin:round; stroke-width:4; stroke-opacity:1; fill:none" points="229.445,1186.23 248.343,1186.23 "/>
<polyline clip-path="url(#clip870)" style="stroke:#adb2b7; stroke-linecap:round; stroke-linejoin:round; stroke-width:4; stroke-opacity:1; fill:none" points="229.445,886.018 248.343,886.018 "/>
<polyline clip-path="url(#clip870)" style="stroke:#adb2b7; stroke-linecap:round; stroke-linejoin:round; stroke-width:4; stroke-opacity:1; fill:none" points="229.445,585.803 248.343,585.803 "/>
<polyline clip-path="url(#clip870)" style="stroke:#adb2b7; stroke-linecap:round; stroke-linejoin:round; stroke-width:4; stroke-opacity:1; fill:none" points="229.445,285.588 248.343,285.588 "/>
<path clip-path="url(#clip870)" d="M181.501 1472.25 Q177.89 1472.25 176.061 1475.81 Q174.255 1479.35 174.255 1486.48 Q174.255 1493.59 176.061 1497.15 Q177.89 1500.7 181.501 1500.7 Q185.135 1500.7 186.94 1497.15 Q188.769 1493.59 188.769 1486.48 Q188.769 1479.35 186.94 1475.81 Q185.135 1472.25 181.501 1472.25 M181.501 1468.54 Q187.311 1468.54 190.366 1473.15 Q193.445 1477.73 193.445 1486.48 Q193.445 1495.21 190.366 1499.82 Q187.311 1504.4 181.501 1504.4 Q175.691 1504.4 172.612 1499.82 Q169.556 1495.21 169.556 1486.48 Q169.556 1477.73 172.612 1473.15 Q175.691 1468.54 181.501 1468.54 Z" fill="#9eb1be" fill-rule="nonzero" fill-opacity="1" /><path clip-path="url(#clip870)" d="M85.0429 1199.58 L101.362 1199.58 L101.362 1203.51 L79.4179 1203.51 L79.4179 1199.58 Q82.0799 1196.82 86.6632 1192.19 Q91.2697 1187.54 92.4502 1186.2 Q94.6956 1183.68 95.5752 1181.94 Q96.478 1180.18 96.478 1178.49 Q96.478 1175.74 94.5336 1174 Q92.6123 1172.26 89.5104 1172.26 Q87.3114 1172.26 84.8577 1173.03 Q82.4271 1173.79 79.6494 1175.34 L79.6494 1170.62 Q82.4734 1169.49 84.9271 1168.91 Q87.3808 1168.33 89.4178 1168.33 Q94.7882 1168.33 97.9826 1171.01 Q101.177 1173.7 101.177 1178.19 Q101.177 1180.32 100.367 1182.24 Q99.5798 1184.14 97.4734 1186.73 Q96.8947 1187.4 93.7928 1190.62 Q90.691 1193.81 85.0429 1199.58 Z" fill="#9eb1be" fill-rule="nonzero" fill-opacity="1" /><path clip-path="url(#clip870)" d="M111.223 1168.95 L129.58 1168.95 L129.58 1172.89 L115.506 1172.89 L115.506 1181.36 Q116.524 1181.01 117.543 1180.85 Q118.561 1180.67 119.58 1180.67 Q125.367 1180.67 128.746 1183.84 Q132.126 1187.01 132.126 1192.43 Q132.126 1198 128.654 1201.11 Q125.182 1204.18 118.862 1204.18 Q116.686 1204.18 114.418 1203.81 Q112.172 1203.44 109.765 1202.7 L109.765 1198 Q111.848 1199.14 114.07 1199.69 Q116.293 1200.25 118.77 1200.25 Q122.774 1200.25 125.112 1198.14 Q127.45 1196.04 127.45 1192.43 Q127.45 1188.81 125.112 1186.71 Q122.774 1184.6 118.77 1184.6 Q116.895 1184.6 115.02 1185.02 Q113.168 1185.43 111.223 1186.31 L111.223 1168.95 Z" fill="#9eb1be" fill-rule="nonzero" fill-opacity="1" /><path clip-path="url(#clip870)" d="M151.339 1172.03 Q147.728 1172.03 145.899 1175.6 Q144.093 1179.14 144.093 1186.27 Q144.093 1193.37 145.899 1196.94 Q147.728 1200.48 151.339 1200.48 Q154.973 1200.48 156.779 1196.94 Q158.607 1193.37 158.607 1186.27 Q158.607 1179.14 156.779 1175.6 Q154.973 1172.03 151.339 1172.03 M151.339 1168.33 Q157.149 1168.33 160.205 1172.93 Q163.283 1177.52 163.283 1186.27 Q163.283 1194.99 160.205 1199.6 Q157.149 1204.18 151.339 1204.18 Q145.529 1204.18 142.45 1199.6 Q139.394 1194.99 139.394 1186.27 Q139.394 1177.52 142.45 1172.93 Q145.529 1168.33 151.339 1168.33 Z" fill="#9eb1be" fill-rule="nonzero" fill-opacity="1" /><path clip-path="url(#clip870)" d="M181.501 1172.03 Q177.89 1172.03 176.061 1175.6 Q174.255 1179.14 174.255 1186.27 Q174.255 1193.37 176.061 1196.94 Q177.89 1200.48 181.501 1200.48 Q185.135 1200.48 186.94 1196.94 Q188.769 1193.37 188.769 1186.27 Q188.769 1179.14 186.94 1175.6 Q185.135 1172.03 181.501 1172.03 M181.501 1168.33 Q187.311 1168.33 190.366 1172.93 Q193.445 1177.52 193.445 1186.27 Q193.445 1194.99 190.366 1199.6 Q187.311 1204.18 181.501 1204.18 Q175.691 1204.18 172.612 1199.6 Q169.556 1194.99 169.556 1186.27 Q169.556 1177.52 172.612 1172.93 Q175.691 1168.33 181.501 1168.33 Z" fill="#9eb1be" fill-rule="nonzero" fill-opacity="1" /><path clip-path="url(#clip870)" d="M81.0614 868.738 L99.4178 868.738 L99.4178 872.673 L85.3438 872.673 L85.3438 881.145 Q86.3623 880.798 87.3808 880.636 Q88.3993 880.451 89.4178 880.451 Q95.2049 880.451 98.5845 883.622 Q101.964 886.793 101.964 892.21 Q101.964 897.789 98.4919 900.891 Q95.0197 903.969 88.7003 903.969 Q86.5243 903.969 84.2558 903.599 Q82.0105 903.229 79.6031 902.488 L79.6031 897.789 Q81.6864 898.923 83.9086 899.479 Q86.1308 900.034 88.6077 900.034 Q92.6123 900.034 94.9502 897.928 Q97.2882 895.821 97.2882 892.21 Q97.2882 888.599 94.9502 886.493 Q92.6123 884.386 88.6077 884.386 Q86.7327 884.386 84.8577 884.803 Q83.0058 885.219 81.0614 886.099 L81.0614 868.738 Z" fill="#9eb1be" fill-rule="nonzero" fill-opacity="1" /><path clip-path="url(#clip870)" d="M121.177 871.817 Q117.566 871.817 115.737 875.382 Q113.932 878.923 113.932 886.053 Q113.932 893.159 115.737 896.724 Q117.566 900.266 121.177 900.266 Q124.811 900.266 126.617 896.724 Q128.445 893.159 128.445 886.053 Q128.445 878.923 126.617 875.382 Q124.811 871.817 121.177 871.817 M121.177 868.113 Q126.987 868.113 130.043 872.719 Q133.121 877.303 133.121 886.053 Q133.121 894.78 130.043 899.386 Q126.987 903.969 121.177 903.969 Q115.367 903.969 112.288 899.386 Q109.233 894.78 109.233 886.053 Q109.233 877.303 112.288 872.719 Q115.367 868.113 121.177 868.113 Z" fill="#9eb1be" fill-rule="nonzero" fill-opacity="1" /><path clip-path="url(#clip870)" d="M151.339 871.817 Q147.728 871.817 145.899 875.382 Q144.093 878.923 144.093 886.053 Q144.093 893.159 145.899 896.724 Q147.728 900.266 151.339 900.266 Q154.973 900.266 156.779 896.724 Q158.607 893.159 158.607 886.053 Q158.607 878.923 156.779 875.382 Q154.973 871.817 151.339 871.817 M151.339 868.113 Q157.149 868.113 160.205 872.719 Q163.283 877.303 163.283 886.053 Q163.283 894.78 160.205 899.386 Q157.149 903.969 151.339 903.969 Q145.529 903.969 142.45 899.386 Q139.394 894.78 139.394 886.053 Q139.394 877.303 142.45 872.719 Q145.529 868.113 151.339 868.113 Z" fill="#9eb1be" fill-rule="nonzero" fill-opacity="1" /><path clip-path="url(#clip870)" d="M181.501 871.817 Q177.89 871.817 176.061 875.382 Q174.255 878.923 174.255 886.053 Q174.255 893.159 176.061 896.724 Q177.89 900.266 181.501 900.266 Q185.135 900.266 186.94 896.724 Q188.769 893.159 188.769 886.053 Q188.769 878.923 186.94 875.382 Q185.135 871.817 181.501 871.817 M181.501 868.113 Q187.311 868.113 190.366 872.719 Q193.445 877.303 193.445 886.053 Q193.445 894.78 190.366 899.386 Q187.311 903.969 181.501 903.969 Q175.691 903.969 172.612 899.386 Q169.556 894.78 169.556 886.053 Q169.556 877.303 172.612 872.719 Q175.691 868.113 181.501 868.113 Z" fill="#9eb1be" fill-rule="nonzero" fill-opacity="1" /><path clip-path="url(#clip870)" d="M79.8346 568.523 L102.057 568.523 L102.057 570.514 L89.5104 603.083 L84.6262 603.083 L96.4317 572.458 L79.8346 572.458 L79.8346 568.523 Z" fill="#9eb1be" fill-rule="nonzero" fill-opacity="1" /><path clip-path="url(#clip870)" d="M111.223 568.523 L129.58 568.523 L129.58 572.458 L115.506 572.458 L115.506 580.93 Q116.524 580.583 117.543 580.421 Q118.561 580.236 119.58 580.236 Q125.367 580.236 128.746 583.407 Q132.126 586.579 132.126 591.995 Q132.126 597.574 128.654 600.676 Q125.182 603.754 118.862 603.754 Q116.686 603.754 114.418 603.384 Q112.172 603.014 109.765 602.273 L109.765 597.574 Q111.848 598.708 114.07 599.264 Q116.293 599.819 118.77 599.819 Q122.774 599.819 125.112 597.713 Q127.45 595.606 127.45 591.995 Q127.45 588.384 125.112 586.278 Q122.774 584.171 118.77 584.171 Q116.895 584.171 115.02 584.588 Q113.168 585.004 111.223 585.884 L111.223 568.523 Z" fill="#9eb1be" fill-rule="nonzero" fill-opacity="1" /><path clip-path="url(#clip870)" d="M151.339 571.602 Q147.728 571.602 145.899 575.167 Q144.093 578.708 144.093 585.838 Q144.093 592.944 145.899 596.509 Q147.728 600.051 151.339 600.051 Q154.973 600.051 156.779 596.509 Q158.607 592.944 158.607 585.838 Q158.607 578.708 156.779 575.167 Q154.973 571.602 151.339 571.602 M151.339 567.898 Q157.149 567.898 160.205 572.505 Q163.283 577.088 163.283 585.838 Q163.283 594.565 160.205 599.171 Q157.149 603.754 151.339 603.754 Q145.529 603.754 142.45 599.171 Q139.394 594.565 139.394 585.838 Q139.394 577.088 142.45 572.505 Q145.529 567.898 151.339 567.898 Z" fill="#9eb1be" fill-rule="nonzero" fill-opacity="1" /><path clip-path="url(#clip870)" d="M181.501 571.602 Q177.89 571.602 176.061 575.167 Q174.255 578.708 174.255 585.838 Q174.255 592.944 176.061 596.509 Q177.89 600.051 181.501 600.051 Q185.135 600.051 186.94 596.509 Q188.769 592.944 188.769 585.838 Q188.769 578.708 186.94 575.167 Q185.135 571.602 181.501 571.602 M181.501 567.898 Q187.311 567.898 190.366 572.505 Q193.445 577.088 193.445 585.838 Q193.445 594.565 190.366 599.171 Q187.311 603.754 181.501 603.754 Q175.691 603.754 172.612 599.171 Q169.556 594.565 169.556 585.838 Q169.556 577.088 172.612 572.505 Q175.691 567.898 181.501 567.898 Z" fill="#9eb1be" fill-rule="nonzero" fill-opacity="1" /><path clip-path="url(#clip870)" d="M51.6634 298.933 L59.3023 298.933 L59.3023 272.567 L50.9921 274.234 L50.9921 269.975 L59.256 268.308 L63.9319 268.308 L63.9319 298.933 L71.5707 298.933 L71.5707 302.868 L51.6634 302.868 L51.6634 298.933 Z" fill="#9eb1be" fill-rule="nonzero" fill-opacity="1" /><path clip-path="url(#clip870)" d="M91.0151 271.387 Q87.404 271.387 85.5753 274.952 Q83.7697 278.493 83.7697 285.623 Q83.7697 292.729 85.5753 296.294 Q87.404 299.836 91.0151 299.836 Q94.6493 299.836 96.4548 296.294 Q98.2835 292.729 98.2835 285.623 Q98.2835 278.493 96.4548 274.952 Q94.6493 271.387 91.0151 271.387 M91.0151 267.683 Q96.8252 267.683 99.8808 272.29 Q102.959 276.873 102.959 285.623 Q102.959 294.35 99.8808 298.956 Q96.8252 303.539 91.0151 303.539 Q85.2049 303.539 82.1262 298.956 Q79.0707 294.35 79.0707 285.623 Q79.0707 276.873 82.1262 272.29 Q85.2049 267.683 91.0151 267.683 Z" fill="#9eb1be" fill-rule="nonzero" fill-opacity="1" /><path clip-path="url(#clip870)" d="M121.177 271.387 Q117.566 271.387 115.737 274.952 Q113.932 278.493 113.932 285.623 Q113.932 292.729 115.737 296.294 Q117.566 299.836 121.177 299.836 Q124.811 299.836 126.617 296.294 Q128.445 292.729 128.445 285.623 Q128.445 278.493 126.617 274.952 Q124.811 271.387 121.177 271.387 M121.177 267.683 Q126.987 267.683 130.043 272.29 Q133.121 276.873 133.121 285.623 Q133.121 294.35 130.043 298.956 Q126.987 303.539 121.177 303.539 Q115.367 303.539 112.288 298.956 Q109.233 294.35 109.233 285.623 Q109.233 276.873 112.288 272.29 Q115.367 267.683 121.177 267.683 Z" fill="#9eb1be" fill-rule="nonzero" fill-opacity="1" /><path clip-path="url(#clip870)" d="M151.339 271.387 Q147.728 271.387 145.899 274.952 Q144.093 278.493 144.093 285.623 Q144.093 292.729 145.899 296.294 Q147.728 299.836 151.339 299.836 Q154.973 299.836 156.779 296.294 Q158.607 292.729 158.607 285.623 Q158.607 278.493 156.779 274.952 Q154.973 271.387 151.339 271.387 M151.339 267.683 Q157.149 267.683 160.205 272.29 Q163.283 276.873 163.283 285.623 Q163.283 294.35 160.205 298.956 Q157.149 303.539 151.339 303.539 Q145.529 303.539 142.45 298.956 Q139.394 294.35 139.394 285.623 Q139.394 276.873 142.45 272.29 Q145.529 267.683 151.339 267.683 Z" fill="#9eb1be" fill-rule="nonzero" fill-opacity="1" /><path clip-path="url(#clip870)" d="M181.501 271.387 Q177.89 271.387 176.061 274.952 Q174.255 278.493 174.255 285.623 Q174.255 292.729 176.061 296.294 Q177.89 299.836 181.501 299.836 Q185.135 299.836 186.94 296.294 Q188.769 292.729 188.769 285.623 Q188.769 278.493 186.94 274.952 Q185.135 271.387 181.501 271.387 M181.501 267.683 Q187.311 267.683 190.366 272.29 Q193.445 276.873 193.445 285.623 Q193.445 294.35 190.366 298.956 Q187.311 303.539 181.501 303.539 Q175.691 303.539 172.612 298.956 Q169.556 294.35 169.556 285.623 Q169.556 276.873 172.612 272.29 Q175.691 267.683 181.501 267.683 Z" fill="#9eb1be" fill-rule="nonzero" fill-opacity="1" /><path clip-path="url(#clip870)" d="M1140.12 43.6931 L1140.12 65.8515 L1153.25 65.8515 Q1159.85 65.8515 1163.01 63.1374 Q1166.21 60.3828 1166.21 54.752 Q1166.21 49.0808 1163.01 46.4072 Q1159.85 43.6931 1153.25 43.6931 L1140.12 43.6931 M1140.12 18.8205 L1140.12 37.0496 L1152.24 37.0496 Q1158.23 37.0496 1161.15 34.8216 Q1164.1 32.5531 1164.1 27.935 Q1164.1 23.3575 1161.15 21.089 Q1158.23 18.8205 1152.24 18.8205 L1140.12 18.8205 M1131.94 12.096 L1152.84 12.096 Q1162.2 12.096 1167.26 15.9849 Q1172.33 19.8737 1172.33 27.0438 Q1172.33 32.5936 1169.74 35.8748 Q1167.14 39.156 1162.12 39.9662 Q1168.16 41.2625 1171.48 45.3944 Q1174.84 49.4858 1174.84 55.6432 Q1174.84 63.745 1169.33 68.1605 Q1163.82 72.576 1153.65 72.576 L1131.94 72.576 L1131.94 12.096 Z" fill="#adb2b7" fill-rule="nonzero" fill-opacity="1" /><path clip-path="url(#clip870)" d="M1209.15 49.7694 Q1200.12 49.7694 1196.63 51.8354 Q1193.15 53.9013 1193.15 58.8839 Q1193.15 62.8538 1195.74 65.2034 Q1198.38 67.5124 1202.87 67.5124 Q1209.07 67.5124 1212.8 63.1374 Q1216.56 58.7219 1216.56 51.4303 L1216.56 49.7694 L1209.15 49.7694 M1224.02 46.6907 L1224.02 72.576 L1216.56 72.576 L1216.56 65.6895 Q1214.01 69.8214 1210.2 71.8063 Q1206.4 73.7508 1200.89 73.7508 Q1193.92 73.7508 1189.79 69.8619 Q1185.7 65.9325 1185.7 59.3701 Q1185.7 51.7138 1190.8 47.825 Q1195.94 43.9361 1206.11 43.9361 L1216.56 43.9361 L1216.56 43.2069 Q1216.56 38.0623 1213.16 35.2672 Q1209.8 32.4315 1203.68 32.4315 Q1199.79 32.4315 1196.11 33.3632 Q1192.42 34.295 1189.02 36.1584 L1189.02 29.2718 Q1193.11 27.692 1196.96 26.9223 Q1200.81 26.1121 1204.45 26.1121 Q1214.3 26.1121 1219.16 31.2163 Q1224.02 36.3204 1224.02 46.6907 Z" fill="#adb2b7" fill-rule="nonzero" fill-opacity="1" /><path clip-path="url(#clip870)" d="M1239.37 9.54393 L1246.82 9.54393 L1246.82 72.576 L1239.37 72.576 L1239.37 9.54393 Z" fill="#adb2b7" fill-rule="nonzero" fill-opacity="1" /><path clip-path="url(#clip870)" d="M1283.04 49.7694 Q1274.01 49.7694 1270.52 51.8354 Q1267.04 53.9013 1267.04 58.8839 Q1267.04 62.8538 1269.63 65.2034 Q1272.26 67.5124 1276.76 67.5124 Q1282.96 67.5124 1286.69 63.1374 Q1290.45 58.7219 1290.45 51.4303 L1290.45 49.7694 L1283.04 49.7694 M1297.91 46.6907 L1297.91 72.576 L1290.45 72.576 L1290.45 65.6895 Q1287.9 69.8214 1284.09 71.8063 Q1280.28 73.7508 1274.78 73.7508 Q1267.81 73.7508 1263.68 69.8619 Q1259.58 65.9325 1259.58 59.3701 Q1259.58 51.7138 1264.69 47.825 Q1269.83 43.9361 1280 43.9361 L1290.45 43.9361 L1290.45 43.2069 Q1290.45 38.0623 1287.05 35.2672 Q1283.69 32.4315 1277.57 32.4315 Q1273.68 32.4315 1270 33.3632 Q1266.31 34.295 1262.91 36.1584 L1262.91 29.2718 Q1267 27.692 1270.85 26.9223 Q1274.69 26.1121 1278.34 26.1121 Q1288.18 26.1121 1293.04 31.2163 Q1297.91 36.3204 1297.91 46.6907 Z" fill="#adb2b7" fill-rule="nonzero" fill-opacity="1" /><path clip-path="url(#clip870)" d="M1350.97 45.1919 L1350.97 72.576 L1343.52 72.576 L1343.52 45.4349 Q1343.52 38.994 1341.01 35.7938 Q1338.5 32.5936 1333.47 32.5936 Q1327.44 32.5936 1323.95 36.4419 Q1320.47 40.2903 1320.47 46.9338 L1320.47 72.576 L1312.98 72.576 L1312.98 27.2059 L1320.47 27.2059 L1320.47 34.2544 Q1323.14 30.163 1326.75 28.1376 Q1330.39 26.1121 1335.13 26.1121 Q1342.95 26.1121 1346.96 30.9732 Q1350.97 35.7938 1350.97 45.1919 Z" fill="#adb2b7" fill-rule="nonzero" fill-opacity="1" /><path clip-path="url(#clip870)" d="M1398.49 28.9478 L1398.49 35.9153 Q1395.33 34.1734 1392.13 33.3227 Q1388.97 32.4315 1385.73 32.4315 Q1378.48 32.4315 1374.47 37.0496 Q1370.46 41.6271 1370.46 49.9314 Q1370.46 58.2358 1374.47 62.8538 Q1378.48 67.4314 1385.73 67.4314 Q1388.97 67.4314 1392.13 66.5807 Q1395.33 65.6895 1398.49 63.9476 L1398.49 70.8341 Q1395.37 72.2924 1392.01 73.0216 Q1388.69 73.7508 1384.92 73.7508 Q1374.67 73.7508 1368.63 67.3098 Q1362.6 60.8689 1362.6 49.9314 Q1362.6 38.832 1368.68 32.472 Q1374.79 26.1121 1385.41 26.1121 Q1388.85 26.1121 1392.13 26.8413 Q1395.41 27.5299 1398.49 28.9478 Z" fill="#adb2b7" fill-rule="nonzero" fill-opacity="1" /><path clip-path="url(#clip870)" d="M1450.26 48.0275 L1450.26 51.6733 L1415.99 51.6733 Q1416.48 59.3701 1420.61 63.421 Q1424.78 67.4314 1432.19 67.4314 Q1436.49 67.4314 1440.5 66.3781 Q1444.55 65.3249 1448.52 63.2184 L1448.52 70.267 Q1444.51 71.9684 1440.3 72.8596 Q1436.08 73.7508 1431.75 73.7508 Q1420.89 73.7508 1414.53 67.4314 Q1408.21 61.1119 1408.21 50.3365 Q1408.21 39.1965 1414.21 32.6746 Q1420.24 26.1121 1430.45 26.1121 Q1439.61 26.1121 1444.91 32.0264 Q1450.26 37.9003 1450.26 48.0275 M1442.81 45.84 Q1442.73 39.7232 1439.36 36.0774 Q1436.04 32.4315 1430.53 32.4315 Q1424.29 32.4315 1420.53 35.9558 Q1416.8 39.4801 1416.23 45.8805 L1442.81 45.84 Z" fill="#adb2b7" fill-rule="nonzero" fill-opacity="1" /><polyline clip-path="url(#clip871)" style="stroke:#0088dd; stroke-linecap:round; stroke-linejoin:round; stroke-width:4; stroke-opacity:1; fill:none" points="289.539,285.588 512.108,285.588 512.108,267.575 734.677,267.575 734.677,249.562 957.247,249.562 957.247,231.549 1179.82,231.549 1179.82,213.537 1402.39,213.537 1402.39,195.524 1624.95,195.524 1624.95,177.511 1847.52,177.511 1847.52,159.498 2070.09,159.498 2070.09,141.485 2292.66,141.485 2292.66,123.472 "/>
</svg>
