<?xml version="1.0" encoding="utf-8"?>
<svg xmlns="http://www.w3.org/2000/svg" xmlns:xlink="http://www.w3.org/1999/xlink" width="600" height="400" viewBox="0 0 2400 1600">
<defs>
  <clipPath id="clip360">
    <rect x="0" y="0" width="2400" height="1600"/>
  </clipPath>
</defs>
<path clip-path="url(#clip360)" d="M0 1600 L2400 1600 L2400 0 L0 0  Z" fill="#282c34" fill-rule="evenodd" fill-opacity="1"/>
<defs>
  <clipPath id="clip361">
    <rect x="110" y="123" width="2243" height="1364"/>
  </clipPath>
</defs>
<path clip-path="url(#clip360)" d="M110.881 1486.45 L2352.76 1486.45 L2352.76 123.472 L110.881 123.472  Z" fill="#21252b" fill-rule="evenodd" fill-opacity="1"/>
<polyline clip-path="url(#clip361)" style="stroke:#adb2b7; stroke-linecap:round; stroke-linejoin:round; stroke-width:2; stroke-opacity:0.1; fill:none" points="174.33,1486.45 174.33,123.472 "/>
<polyline clip-path="url(#clip361)" style="stroke:#adb2b7; stroke-linecap:round; stroke-linejoin:round; stroke-width:2; stroke-opacity:0.1; fill:none" points="739.108,1486.45 739.108,123.472 "/>
<polyline clip-path="url(#clip361)" style="stroke:#adb2b7; stroke-linecap:round; stroke-linejoin:round; stroke-width:2; stroke-opacity:0.1; fill:none" points="1303.89,1486.45 1303.89,123.472 "/>
<polyline clip-path="url(#clip361)" style="stroke:#adb2b7; stroke-linecap:round; stroke-linejoin:round; stroke-width:2; stroke-opacity:0.1; fill:none" points="1868.66,1486.45 1868.66,123.472 "/>
<polyline clip-path="url(#clip361)" style="stroke:#adb2b7; stroke-linecap:round; stroke-linejoin:round; stroke-width:2; stroke-opacity:0.1; fill:none" points="110.881,1486.45 2352.76,1486.45 "/>
<polyline clip-path="url(#clip361)" style="stroke:#adb2b7; stroke-linecap:round; stroke-linejoin:round; stroke-width:2; stroke-opacity:0.1; fill:none" points="110.881,123.472 2352.76,123.472 "/>
<polyline clip-path="url(#clip360)" style="stroke:#adb2b7; stroke-linecap:round; stroke-linejoin:round; stroke-width:4; stroke-opacity:1; fill:none" points="110.881,1486.45 2352.76,1486.45 "/>
<polyline clip-path="url(#clip360)" style="stroke:#adb2b7; stroke-linecap:round; stroke-linejoin:round; stroke-width:4; stroke-opacity:1; fill:none" points="174.33,1486.45 174.33,1467.55 "/>
<polyline clip-path="url(#clip360)" style="stroke:#adb2b7; stroke-linecap:round; stroke-linejoin:round; stroke-width:4; stroke-opacity:1; fill:none" points="739.108,1486.45 739.108,1467.55 "/>
<polyline clip-path="url(#clip360)" style="stroke:#adb2b7; stroke-linecap:round; stroke-linejoin:round; stroke-width:4; stroke-opacity:1; fill:none" points="1303.89,1486.45 1303.89,1467.55 "/>
<polyline clip-path="url(#clip360)" style="stroke:#adb2b7; stroke-linecap:round; stroke-linejoin:round; stroke-width:4; stroke-opacity:1; fill:none" points="1868.66,1486.45 1868.66,1467.55 "/>
<path clip-path="url(#clip360)" d="M46.1248 1544.91 L62.4442 1544.91 L62.4442 1548.85 L40.4999 1548.85 L40.4999 1544.91 Q43.1619 1542.16 47.7452 1537.53 Q52.3517 1532.88 53.5322 1531.53 Q55.7776 1529.01 56.6572 1527.27 Q57.56 1525.51 57.56 1523.82 Q57.56 1521.07 55.6155 1519.33 Q53.6943 1517.6 50.5924 1517.6 Q48.3934 1517.6 45.9397 1518.36 Q43.5091 1519.13 40.7314 1520.68 L40.7314 1515.95 Q43.5554 1514.82 46.0091 1514.24 Q48.4628 1513.66 50.4998 1513.66 Q55.8702 1513.66 59.0646 1516.35 Q62.259 1519.03 62.259 1523.52 Q62.259 1525.65 61.4488 1527.57 Q60.6618 1529.47 58.5553 1532.07 Q57.9766 1532.74 54.8748 1535.95 Q51.773 1539.15 46.1248 1544.91 Z" fill="#9eb1be" fill-rule="nonzero" fill-opacity="1" /><path clip-path="url(#clip360)" d="M82.2589 1517.37 Q78.6478 1517.37 76.8191 1520.93 Q75.0136 1524.47 75.0136 1531.6 Q75.0136 1538.71 76.8191 1542.27 Q78.6478 1545.82 82.2589 1545.82 Q85.8932 1545.82 87.6987 1542.27 Q89.5274 1538.71 89.5274 1531.6 Q89.5274 1524.47 87.6987 1520.93 Q85.8932 1517.37 82.2589 1517.37 M82.2589 1513.66 Q88.0691 1513.66 91.1246 1518.27 Q94.2033 1522.85 94.2033 1531.6 Q94.2033 1540.33 91.1246 1544.94 Q88.0691 1549.52 82.2589 1549.52 Q76.4488 1549.52 73.3701 1544.94 Q70.3145 1540.33 70.3145 1531.6 Q70.3145 1522.85 73.3701 1518.27 Q76.4488 1513.66 82.2589 1513.66 Z" fill="#9eb1be" fill-rule="nonzero" fill-opacity="1" /><path clip-path="url(#clip360)" d="M106.449 1544.91 L122.768 1544.91 L122.768 1548.85 L100.824 1548.85 L100.824 1544.91 Q103.486 1542.16 108.069 1537.53 Q112.675 1532.88 113.856 1531.53 Q116.101 1529.01 116.981 1527.27 Q117.884 1525.51 117.884 1523.82 Q117.884 1521.07 115.939 1519.33 Q114.018 1517.6 110.916 1517.6 Q108.717 1517.6 106.263 1518.36 Q103.833 1519.13 101.055 1520.68 L101.055 1515.95 Q103.879 1514.82 106.333 1514.24 Q108.787 1513.66 110.824 1513.66 Q116.194 1513.66 119.388 1516.35 Q122.583 1519.03 122.583 1523.52 Q122.583 1525.65 121.773 1527.57 Q120.986 1529.47 118.879 1532.07 Q118.3 1532.74 115.199 1535.95 Q112.097 1539.15 106.449 1544.91 Z" fill="#9eb1be" fill-rule="nonzero" fill-opacity="1" /><path clip-path="url(#clip360)" d="M145.43 1518.36 L133.624 1536.81 L145.43 1536.81 L145.43 1518.36 M144.203 1514.29 L150.083 1514.29 L150.083 1536.81 L155.013 1536.81 L155.013 1540.7 L150.083 1540.7 L150.083 1548.85 L145.43 1548.85 L145.43 1540.7 L129.828 1540.7 L129.828 1536.19 L144.203 1514.29 Z" fill="#9eb1be" fill-rule="nonzero" fill-opacity="1" /><path clip-path="url(#clip360)" d="M159.99 1533.96 L172.467 1533.96 L172.467 1537.76 L159.99 1537.76 L159.99 1533.96 Z" fill="#9eb1be" fill-rule="nonzero" fill-opacity="1" /><path clip-path="url(#clip360)" d="M189.851 1517.37 Q186.24 1517.37 184.411 1520.93 Q182.606 1524.47 182.606 1531.6 Q182.606 1538.71 184.411 1542.27 Q186.24 1545.82 189.851 1545.82 Q193.485 1545.82 195.291 1542.27 Q197.119 1538.71 197.119 1531.6 Q197.119 1524.47 195.291 1520.93 Q193.485 1517.37 189.851 1517.37 M189.851 1513.66 Q195.661 1513.66 198.717 1518.27 Q201.795 1522.85 201.795 1531.6 Q201.795 1540.33 198.717 1544.94 Q195.661 1549.52 189.851 1549.52 Q184.041 1549.52 180.962 1544.94 Q177.907 1540.33 177.907 1531.6 Q177.907 1522.85 180.962 1518.27 Q184.041 1513.66 189.851 1513.66 Z" fill="#9eb1be" fill-rule="nonzero" fill-opacity="1" /><path clip-path="url(#clip360)" d="M210.823 1544.91 L218.462 1544.91 L218.462 1518.55 L210.152 1520.21 L210.152 1515.95 L218.416 1514.29 L223.091 1514.29 L223.091 1544.91 L230.73 1544.91 L230.73 1548.85 L210.823 1548.85 L210.823 1544.91 Z" fill="#9eb1be" fill-rule="nonzero" fill-opacity="1" /><path clip-path="url(#clip360)" d="M237.42 1533.96 L249.897 1533.96 L249.897 1537.76 L237.42 1537.76 L237.42 1533.96 Z" fill="#9eb1be" fill-rule="nonzero" fill-opacity="1" /><path clip-path="url(#clip360)" d="M267.281 1517.37 Q263.67 1517.37 261.841 1520.93 Q260.036 1524.47 260.036 1531.6 Q260.036 1538.71 261.841 1542.27 Q263.67 1545.82 267.281 1545.82 Q270.915 1545.82 272.721 1542.27 Q274.55 1538.71 274.55 1531.6 Q274.55 1524.47 272.721 1520.93 Q270.915 1517.37 267.281 1517.37 M267.281 1513.66 Q273.091 1513.66 276.147 1518.27 Q279.225 1522.85 279.225 1531.6 Q279.225 1540.33 276.147 1544.94 Q273.091 1549.52 267.281 1549.52 Q261.471 1549.52 258.392 1544.94 Q255.337 1540.33 255.337 1531.6 Q255.337 1522.85 258.392 1518.27 Q261.471 1513.66 267.281 1513.66 Z" fill="#9eb1be" fill-rule="nonzero" fill-opacity="1" /><path clip-path="url(#clip360)" d="M288.253 1544.91 L295.892 1544.91 L295.892 1518.55 L287.582 1520.21 L287.582 1515.95 L295.846 1514.29 L300.522 1514.29 L300.522 1544.91 L308.16 1544.91 L308.16 1548.85 L288.253 1548.85 L288.253 1544.91 Z" fill="#9eb1be" fill-rule="nonzero" fill-opacity="1" /><path clip-path="url(#clip360)" d="M610.382 1544.91 L626.702 1544.91 L626.702 1548.85 L604.757 1548.85 L604.757 1544.91 Q607.419 1542.16 612.003 1537.53 Q616.609 1532.88 617.79 1531.53 Q620.035 1529.01 620.914 1527.27 Q621.817 1525.51 621.817 1523.82 Q621.817 1521.07 619.873 1519.33 Q617.952 1517.6 614.85 1517.6 Q612.651 1517.6 610.197 1518.36 Q607.766 1519.13 604.989 1520.68 L604.989 1515.95 Q607.813 1514.82 610.266 1514.24 Q612.72 1513.66 614.757 1513.66 Q620.127 1513.66 623.322 1516.35 Q626.516 1519.03 626.516 1523.52 Q626.516 1525.65 625.706 1527.57 Q624.919 1529.47 622.813 1532.07 Q622.234 1532.74 619.132 1535.95 Q616.03 1539.15 610.382 1544.91 Z" fill="#9eb1be" fill-rule="nonzero" fill-opacity="1" /><path clip-path="url(#clip360)" d="M646.516 1517.37 Q642.905 1517.37 641.076 1520.93 Q639.271 1524.47 639.271 1531.6 Q639.271 1538.71 641.076 1542.27 Q642.905 1545.82 646.516 1545.82 Q650.15 1545.82 651.956 1542.27 Q653.785 1538.71 653.785 1531.6 Q653.785 1524.47 651.956 1520.93 Q650.15 1517.37 646.516 1517.37 M646.516 1513.66 Q652.326 1513.66 655.382 1518.27 Q658.461 1522.85 658.461 1531.6 Q658.461 1540.33 655.382 1544.94 Q652.326 1549.52 646.516 1549.52 Q640.706 1549.52 637.627 1544.94 Q634.572 1540.33 634.572 1531.6 Q634.572 1522.85 637.627 1518.27 Q640.706 1513.66 646.516 1513.66 Z" fill="#9eb1be" fill-rule="nonzero" fill-opacity="1" /><path clip-path="url(#clip360)" d="M670.706 1544.91 L687.025 1544.91 L687.025 1548.85 L665.081 1548.85 L665.081 1544.91 Q667.743 1542.16 672.326 1537.53 Q676.933 1532.88 678.113 1531.53 Q680.359 1529.01 681.238 1527.27 Q682.141 1525.51 682.141 1523.82 Q682.141 1521.07 680.197 1519.33 Q678.275 1517.6 675.173 1517.6 Q672.974 1517.6 670.521 1518.36 Q668.09 1519.13 665.312 1520.68 L665.312 1515.95 Q668.136 1514.82 670.59 1514.24 Q673.044 1513.66 675.081 1513.66 Q680.451 1513.66 683.646 1516.35 Q686.84 1519.03 686.84 1523.52 Q686.84 1525.65 686.03 1527.57 Q685.243 1529.47 683.136 1532.07 Q682.558 1532.74 679.456 1535.95 Q676.354 1539.15 670.706 1544.91 Z" fill="#9eb1be" fill-rule="nonzero" fill-opacity="1" /><path clip-path="url(#clip360)" d="M709.687 1518.36 L697.882 1536.81 L709.687 1536.81 L709.687 1518.36 M708.46 1514.29 L714.34 1514.29 L714.34 1536.81 L719.27 1536.81 L719.27 1540.7 L714.34 1540.7 L714.34 1548.85 L709.687 1548.85 L709.687 1540.7 L694.085 1540.7 L694.085 1536.19 L708.46 1514.29 Z" fill="#9eb1be" fill-rule="nonzero" fill-opacity="1" /><path clip-path="url(#clip360)" d="M724.247 1533.96 L736.724 1533.96 L736.724 1537.76 L724.247 1537.76 L724.247 1533.96 Z" fill="#9eb1be" fill-rule="nonzero" fill-opacity="1" /><path clip-path="url(#clip360)" d="M754.108 1517.37 Q750.497 1517.37 748.668 1520.93 Q746.863 1524.47 746.863 1531.6 Q746.863 1538.71 748.668 1542.27 Q750.497 1545.82 754.108 1545.82 Q757.742 1545.82 759.548 1542.27 Q761.377 1538.71 761.377 1531.6 Q761.377 1524.47 759.548 1520.93 Q757.742 1517.37 754.108 1517.37 M754.108 1513.66 Q759.918 1513.66 762.974 1518.27 Q766.053 1522.85 766.053 1531.6 Q766.053 1540.33 762.974 1544.94 Q759.918 1549.52 754.108 1549.52 Q748.298 1549.52 745.219 1544.94 Q742.164 1540.33 742.164 1531.6 Q742.164 1522.85 745.219 1518.27 Q748.298 1513.66 754.108 1513.66 Z" fill="#9eb1be" fill-rule="nonzero" fill-opacity="1" /><path clip-path="url(#clip360)" d="M775.08 1544.91 L782.719 1544.91 L782.719 1518.55 L774.409 1520.21 L774.409 1515.95 L782.673 1514.29 L787.349 1514.29 L787.349 1544.91 L794.988 1544.91 L794.988 1548.85 L775.08 1548.85 L775.08 1544.91 Z" fill="#9eb1be" fill-rule="nonzero" fill-opacity="1" /><path clip-path="url(#clip360)" d="M801.677 1533.96 L814.154 1533.96 L814.154 1537.76 L801.677 1537.76 L801.677 1533.96 Z" fill="#9eb1be" fill-rule="nonzero" fill-opacity="1" /><path clip-path="url(#clip360)" d="M831.538 1517.37 Q827.927 1517.37 826.099 1520.93 Q824.293 1524.47 824.293 1531.6 Q824.293 1538.71 826.099 1542.27 Q827.927 1545.82 831.538 1545.82 Q835.173 1545.82 836.978 1542.27 Q838.807 1538.71 838.807 1531.6 Q838.807 1524.47 836.978 1520.93 Q835.173 1517.37 831.538 1517.37 M831.538 1513.66 Q837.349 1513.66 840.404 1518.27 Q843.483 1522.85 843.483 1531.6 Q843.483 1540.33 840.404 1544.94 Q837.349 1549.52 831.538 1549.52 Q825.728 1549.52 822.65 1544.94 Q819.594 1540.33 819.594 1531.6 Q819.594 1522.85 822.65 1518.27 Q825.728 1513.66 831.538 1513.66 Z" fill="#9eb1be" fill-rule="nonzero" fill-opacity="1" /><path clip-path="url(#clip360)" d="M851.839 1548.13 L851.839 1543.87 Q853.598 1544.7 855.404 1545.14 Q857.21 1545.58 858.946 1545.58 Q863.575 1545.58 866.006 1542.48 Q868.459 1539.36 868.807 1533.01 Q867.464 1535.01 865.404 1536.07 Q863.344 1537.13 860.844 1537.13 Q855.659 1537.13 852.626 1534.01 Q849.617 1530.86 849.617 1525.42 Q849.617 1520.1 852.765 1516.88 Q855.913 1513.66 861.145 1513.66 Q867.14 1513.66 870.288 1518.27 Q873.459 1522.85 873.459 1531.6 Q873.459 1539.77 869.571 1544.66 Q865.705 1549.52 859.154 1549.52 Q857.395 1549.52 855.589 1549.17 Q853.784 1548.82 851.839 1548.13 M861.145 1533.48 Q864.293 1533.48 866.122 1531.32 Q867.973 1529.17 867.973 1525.42 Q867.973 1521.7 866.122 1519.54 Q864.293 1517.37 861.145 1517.37 Q857.997 1517.37 856.145 1519.54 Q854.316 1521.7 854.316 1525.42 Q854.316 1529.17 856.145 1531.32 Q857.997 1533.48 861.145 1533.48 Z" fill="#9eb1be" fill-rule="nonzero" fill-opacity="1" /><path clip-path="url(#clip360)" d="M1175.52 1544.91 L1191.84 1544.91 L1191.84 1548.85 L1169.89 1548.85 L1169.89 1544.91 Q1172.56 1542.16 1177.14 1537.53 Q1181.75 1532.88 1182.93 1531.53 Q1185.17 1529.01 1186.05 1527.27 Q1186.95 1525.51 1186.95 1523.82 Q1186.95 1521.07 1185.01 1519.33 Q1183.09 1517.6 1179.99 1517.6 Q1177.79 1517.6 1175.33 1518.36 Q1172.9 1519.13 1170.13 1520.68 L1170.13 1515.95 Q1172.95 1514.82 1175.4 1514.24 Q1177.86 1513.66 1179.89 1513.66 Q1185.26 1513.66 1188.46 1516.35 Q1191.65 1519.03 1191.65 1523.52 Q1191.65 1525.65 1190.84 1527.57 Q1190.06 1529.47 1187.95 1532.07 Q1187.37 1532.74 1184.27 1535.95 Q1181.17 1539.15 1175.52 1544.91 Z" fill="#9eb1be" fill-rule="nonzero" fill-opacity="1" /><path clip-path="url(#clip360)" d="M1211.65 1517.37 Q1208.04 1517.37 1206.21 1520.93 Q1204.41 1524.47 1204.41 1531.6 Q1204.41 1538.71 1206.21 1542.27 Q1208.04 1545.82 1211.65 1545.82 Q1215.29 1545.82 1217.09 1542.27 Q1218.92 1538.71 1218.92 1531.6 Q1218.92 1524.47 1217.09 1520.93 Q1215.29 1517.37 1211.65 1517.37 M1211.65 1513.66 Q1217.46 1513.66 1220.52 1518.27 Q1223.6 1522.85 1223.6 1531.6 Q1223.6 1540.33 1220.52 1544.94 Q1217.46 1549.52 1211.65 1549.52 Q1205.84 1549.52 1202.76 1544.94 Q1199.71 1540.33 1199.71 1531.6 Q1199.71 1522.85 1202.76 1518.27 Q1205.84 1513.66 1211.65 1513.66 Z" fill="#9eb1be" fill-rule="nonzero" fill-opacity="1" /><path clip-path="url(#clip360)" d="M1235.84 1544.91 L1252.16 1544.91 L1252.16 1548.85 L1230.22 1548.85 L1230.22 1544.91 Q1232.88 1542.16 1237.46 1537.53 Q1242.07 1532.88 1243.25 1531.53 Q1245.5 1529.01 1246.38 1527.27 Q1247.28 1525.51 1247.28 1523.82 Q1247.28 1521.07 1245.33 1519.33 Q1243.41 1517.6 1240.31 1517.6 Q1238.11 1517.6 1235.66 1518.36 Q1233.23 1519.13 1230.45 1520.68 L1230.45 1515.95 Q1233.27 1514.82 1235.73 1514.24 Q1238.18 1513.66 1240.22 1513.66 Q1245.59 1513.66 1248.78 1516.35 Q1251.98 1519.03 1251.98 1523.52 Q1251.98 1525.65 1251.17 1527.57 Q1250.38 1529.47 1248.27 1532.07 Q1247.69 1532.74 1244.59 1535.95 Q1241.49 1539.15 1235.84 1544.91 Z" fill="#9eb1be" fill-rule="nonzero" fill-opacity="1" /><path clip-path="url(#clip360)" d="M1274.82 1518.36 L1263.02 1536.81 L1274.82 1536.81 L1274.82 1518.36 M1273.6 1514.29 L1279.48 1514.29 L1279.48 1536.81 L1284.41 1536.81 L1284.41 1540.7 L1279.48 1540.7 L1279.48 1548.85 L1274.82 1548.85 L1274.82 1540.7 L1259.22 1540.7 L1259.22 1536.19 L1273.6 1514.29 Z" fill="#9eb1be" fill-rule="nonzero" fill-opacity="1" /><path clip-path="url(#clip360)" d="M1289.38 1533.96 L1301.86 1533.96 L1301.86 1537.76 L1289.38 1537.76 L1289.38 1533.96 Z" fill="#9eb1be" fill-rule="nonzero" fill-opacity="1" /><path clip-path="url(#clip360)" d="M1319.25 1517.37 Q1315.63 1517.37 1313.81 1520.93 Q1312 1524.47 1312 1531.6 Q1312 1538.71 1313.81 1542.27 Q1315.63 1545.82 1319.25 1545.82 Q1322.88 1545.82 1324.68 1542.27 Q1326.51 1538.71 1326.51 1531.6 Q1326.51 1524.47 1324.68 1520.93 Q1322.88 1517.37 1319.25 1517.37 M1319.25 1513.66 Q1325.06 1513.66 1328.11 1518.27 Q1331.19 1522.85 1331.19 1531.6 Q1331.19 1540.33 1328.11 1544.94 Q1325.06 1549.52 1319.25 1549.52 Q1313.43 1549.52 1310.36 1544.94 Q1307.3 1540.33 1307.3 1531.6 Q1307.3 1522.85 1310.36 1518.27 Q1313.43 1513.66 1319.25 1513.66 Z" fill="#9eb1be" fill-rule="nonzero" fill-opacity="1" /><path clip-path="url(#clip360)" d="M1340.22 1544.91 L1347.86 1544.91 L1347.86 1518.55 L1339.55 1520.21 L1339.55 1515.95 L1347.81 1514.29 L1352.49 1514.29 L1352.49 1544.91 L1360.12 1544.91 L1360.12 1548.85 L1340.22 1548.85 L1340.22 1544.91 Z" fill="#9eb1be" fill-rule="nonzero" fill-opacity="1" /><path clip-path="url(#clip360)" d="M1366.81 1533.96 L1379.29 1533.96 L1379.29 1537.76 L1366.81 1537.76 L1366.81 1533.96 Z" fill="#9eb1be" fill-rule="nonzero" fill-opacity="1" /><path clip-path="url(#clip360)" d="M1387.49 1544.91 L1395.12 1544.91 L1395.12 1518.55 L1386.81 1520.21 L1386.81 1515.95 L1395.08 1514.29 L1399.75 1514.29 L1399.75 1544.91 L1407.39 1544.91 L1407.39 1548.85 L1387.49 1548.85 L1387.49 1544.91 Z" fill="#9eb1be" fill-rule="nonzero" fill-opacity="1" /><path clip-path="url(#clip360)" d="M1415.66 1514.29 L1437.88 1514.29 L1437.88 1516.28 L1425.33 1548.85 L1420.45 1548.85 L1432.25 1518.22 L1415.66 1518.22 L1415.66 1514.29 Z" fill="#9eb1be" fill-rule="nonzero" fill-opacity="1" /><path clip-path="url(#clip360)" d="M1740.34 1544.91 L1756.66 1544.91 L1756.66 1548.85 L1734.72 1548.85 L1734.72 1544.91 Q1737.38 1542.16 1741.96 1537.53 Q1746.57 1532.88 1747.75 1531.53 Q1750 1529.01 1750.88 1527.27 Q1751.78 1525.51 1751.78 1523.82 Q1751.78 1521.07 1749.83 1519.33 Q1747.91 1517.6 1744.81 1517.6 Q1742.61 1517.6 1740.16 1518.36 Q1737.73 1519.13 1734.95 1520.68 L1734.95 1515.95 Q1737.77 1514.82 1740.23 1514.24 Q1742.68 1513.66 1744.72 1513.66 Q1750.09 1513.66 1753.28 1516.35 Q1756.48 1519.03 1756.48 1523.52 Q1756.48 1525.65 1755.67 1527.57 Q1754.88 1529.47 1752.77 1532.07 Q1752.2 1532.74 1749.09 1535.95 Q1745.99 1539.15 1740.34 1544.91 Z" fill="#9eb1be" fill-rule="nonzero" fill-opacity="1" /><path clip-path="url(#clip360)" d="M1776.48 1517.37 Q1772.87 1517.37 1771.04 1520.93 Q1769.23 1524.47 1769.23 1531.6 Q1769.23 1538.71 1771.04 1542.27 Q1772.87 1545.82 1776.48 1545.82 Q1780.11 1545.82 1781.92 1542.27 Q1783.75 1538.71 1783.75 1531.6 Q1783.75 1524.47 1781.92 1520.93 Q1780.11 1517.37 1776.48 1517.37 M1776.48 1513.66 Q1782.29 1513.66 1785.34 1518.27 Q1788.42 1522.85 1788.42 1531.6 Q1788.42 1540.33 1785.34 1544.94 Q1782.29 1549.52 1776.48 1549.52 Q1770.67 1549.52 1767.59 1544.94 Q1764.53 1540.33 1764.53 1531.6 Q1764.53 1522.85 1767.59 1518.27 Q1770.67 1513.66 1776.48 1513.66 Z" fill="#9eb1be" fill-rule="nonzero" fill-opacity="1" /><path clip-path="url(#clip360)" d="M1800.67 1544.91 L1816.99 1544.91 L1816.99 1548.85 L1795.04 1548.85 L1795.04 1544.91 Q1797.7 1542.16 1802.29 1537.53 Q1806.89 1532.88 1808.07 1531.53 Q1810.32 1529.01 1811.2 1527.27 Q1812.1 1525.51 1812.1 1523.82 Q1812.1 1521.07 1810.16 1519.33 Q1808.24 1517.6 1805.13 1517.6 Q1802.94 1517.6 1800.48 1518.36 Q1798.05 1519.13 1795.27 1520.68 L1795.27 1515.95 Q1798.1 1514.82 1800.55 1514.24 Q1803.01 1513.66 1805.04 1513.66 Q1810.41 1513.66 1813.61 1516.35 Q1816.8 1519.03 1816.8 1523.52 Q1816.8 1525.65 1815.99 1527.57 Q1815.2 1529.47 1813.1 1532.07 Q1812.52 1532.74 1809.42 1535.95 Q1806.32 1539.15 1800.67 1544.91 Z" fill="#9eb1be" fill-rule="nonzero" fill-opacity="1" /><path clip-path="url(#clip360)" d="M1839.65 1518.36 L1827.84 1536.81 L1839.65 1536.81 L1839.65 1518.36 M1838.42 1514.29 L1844.3 1514.29 L1844.3 1536.81 L1849.23 1536.81 L1849.23 1540.7 L1844.3 1540.7 L1844.3 1548.85 L1839.65 1548.85 L1839.65 1540.7 L1824.05 1540.7 L1824.05 1536.19 L1838.42 1514.29 Z" fill="#9eb1be" fill-rule="nonzero" fill-opacity="1" /><path clip-path="url(#clip360)" d="M1854.21 1533.96 L1866.69 1533.96 L1866.69 1537.76 L1854.21 1537.76 L1854.21 1533.96 Z" fill="#9eb1be" fill-rule="nonzero" fill-opacity="1" /><path clip-path="url(#clip360)" d="M1884.07 1517.37 Q1880.46 1517.37 1878.63 1520.93 Q1876.82 1524.47 1876.82 1531.6 Q1876.82 1538.71 1878.63 1542.27 Q1880.46 1545.82 1884.07 1545.82 Q1887.7 1545.82 1889.51 1542.27 Q1891.34 1538.71 1891.34 1531.6 Q1891.34 1524.47 1889.51 1520.93 Q1887.7 1517.37 1884.07 1517.37 M1884.07 1513.66 Q1889.88 1513.66 1892.94 1518.27 Q1896.01 1522.85 1896.01 1531.6 Q1896.01 1540.33 1892.94 1544.94 Q1889.88 1549.52 1884.07 1549.52 Q1878.26 1549.52 1875.18 1544.94 Q1872.13 1540.33 1872.13 1531.6 Q1872.13 1522.85 1875.18 1518.27 Q1878.26 1513.66 1884.07 1513.66 Z" fill="#9eb1be" fill-rule="nonzero" fill-opacity="1" /><path clip-path="url(#clip360)" d="M1905.04 1544.91 L1912.68 1544.91 L1912.68 1518.55 L1904.37 1520.21 L1904.37 1515.95 L1912.63 1514.29 L1917.31 1514.29 L1917.31 1544.91 L1924.95 1544.91 L1924.95 1548.85 L1905.04 1548.85 L1905.04 1544.91 Z" fill="#9eb1be" fill-rule="nonzero" fill-opacity="1" /><path clip-path="url(#clip360)" d="M1931.64 1533.96 L1944.12 1533.96 L1944.12 1537.76 L1931.64 1537.76 L1931.64 1533.96 Z" fill="#9eb1be" fill-rule="nonzero" fill-opacity="1" /><path clip-path="url(#clip360)" d="M1955.53 1544.91 L1971.85 1544.91 L1971.85 1548.85 L1949.9 1548.85 L1949.9 1544.91 Q1952.56 1542.16 1957.15 1537.53 Q1961.75 1532.88 1962.93 1531.53 Q1965.18 1529.01 1966.06 1527.27 Q1966.96 1525.51 1966.96 1523.82 Q1966.96 1521.07 1965.02 1519.33 Q1963.1 1517.6 1960 1517.6 Q1957.8 1517.6 1955.34 1518.36 Q1952.91 1519.13 1950.13 1520.68 L1950.13 1515.95 Q1952.96 1514.82 1955.41 1514.24 Q1957.87 1513.66 1959.9 1513.66 Q1965.27 1513.66 1968.47 1516.35 Q1971.66 1519.03 1971.66 1523.52 Q1971.66 1525.65 1970.85 1527.57 Q1970.06 1529.47 1967.96 1532.07 Q1967.38 1532.74 1964.28 1535.95 Q1961.18 1539.15 1955.53 1544.91 Z" fill="#9eb1be" fill-rule="nonzero" fill-opacity="1" /><path clip-path="url(#clip360)" d="M1981.71 1514.29 L2000.06 1514.29 L2000.06 1518.22 L1985.99 1518.22 L1985.99 1526.7 Q1987.01 1526.35 1988.03 1526.19 Q1989.05 1526 1990.06 1526 Q1995.85 1526 1999.23 1529.17 Q2002.61 1532.34 2002.61 1537.76 Q2002.61 1543.34 1999.14 1546.44 Q1995.67 1549.52 1989.35 1549.52 Q1987.17 1549.52 1984.9 1549.15 Q1982.66 1548.78 1980.25 1548.04 L1980.25 1543.34 Q1982.33 1544.47 1984.56 1545.03 Q1986.78 1545.58 1989.25 1545.58 Q1993.26 1545.58 1995.6 1543.48 Q1997.93 1541.37 1997.93 1537.76 Q1997.93 1534.15 1995.6 1532.04 Q1993.26 1529.94 1989.25 1529.94 Q1987.38 1529.94 1985.5 1530.35 Q1983.65 1530.77 1981.71 1531.65 L1981.71 1514.29 Z" fill="#9eb1be" fill-rule="nonzero" fill-opacity="1" /><polyline clip-path="url(#clip360)" style="stroke:#adb2b7; stroke-linecap:round; stroke-linejoin:round; stroke-width:4; stroke-opacity:1; fill:none" points="110.881,1486.45 110.881,123.472 "/>
<polyline clip-path="url(#clip360)" style="stroke:#adb2b7; stroke-linecap:round; stroke-linejoin:round; stroke-width:4; stroke-opacity:1; fill:none" points="110.881,1486.45 129.779,1486.45 "/>
<polyline clip-path="url(#clip360)" style="stroke:#adb2b7; stroke-linecap:round; stroke-linejoin:round; stroke-width:4; stroke-opacity:1; fill:none" points="110.881,123.472 129.779,123.472 "/>
<path clip-path="url(#clip360)" d="M62.9365 1472.25 Q59.3254 1472.25 57.4967 1475.81 Q55.6912 1479.35 55.6912 1486.48 Q55.6912 1493.59 57.4967 1497.15 Q59.3254 1500.7 62.9365 1500.7 Q66.5707 1500.7 68.3763 1497.15 Q70.205 1493.59 70.205 1486.48 Q70.205 1479.35 68.3763 1475.81 Q66.5707 1472.25 62.9365 1472.25 M62.9365 1468.54 Q68.7467 1468.54 71.8022 1473.15 Q74.8809 1477.73 74.8809 1486.48 Q74.8809 1495.21 71.8022 1499.82 Q68.7467 1504.4 62.9365 1504.4 Q57.1264 1504.4 54.0477 1499.82 Q50.9921 1495.21 50.9921 1486.48 Q50.9921 1477.73 54.0477 1473.15 Q57.1264 1468.54 62.9365 1468.54 Z" fill="#9eb1be" fill-rule="nonzero" fill-opacity="1" /><path clip-path="url(#clip360)" d="M54.9736 136.817 L62.6124 136.817 L62.6124 110.451 L54.3023 112.118 L54.3023 107.859 L62.5661 106.192 L67.242 106.192 L67.242 136.817 L74.8809 136.817 L74.8809 140.752 L54.9736 140.752 L54.9736 136.817 Z" fill="#9eb1be" fill-rule="nonzero" fill-opacity="1" /><path clip-path="url(#clip360)" d="M976.186 36.0774 L964.398 36.0774 L960.995 49.6074 L972.864 49.6074 L976.186 36.0774 M970.11 13.0277 L965.897 29.839 L977.725 29.839 L981.979 13.0277 L988.46 13.0277 L984.288 29.839 L996.927 29.839 L996.927 36.0774 L982.708 36.0774 L979.386 49.6074 L992.268 49.6074 L992.268 55.8053 L977.806 55.8053 L973.594 72.576 L967.112 72.576 L971.284 55.8053 L959.415 55.8053 L955.243 72.576 L948.721 72.576 L952.934 55.8053 L940.174 55.8053 L940.174 49.6074 L954.433 49.6074 L957.835 36.0774 L944.792 36.0774 L944.792 29.839 L959.415 29.839 L963.547 13.0277 L970.11 13.0277 Z" fill="#adb2b7" fill-rule="nonzero" fill-opacity="1" /><path clip-path="url(#clip360)" d="M1055.06 32.4315 Q1049.06 32.4315 1045.58 37.1306 Q1042.09 41.7891 1042.09 49.9314 Q1042.09 58.0738 1045.54 62.7728 Q1049.02 67.4314 1055.06 67.4314 Q1061.01 67.4314 1064.5 62.7323 Q1067.98 58.0333 1067.98 49.9314 Q1067.98 41.8701 1064.5 37.1711 Q1061.01 32.4315 1055.06 32.4315 M1055.06 26.1121 Q1064.78 26.1121 1070.33 32.4315 Q1075.88 38.7509 1075.88 49.9314 Q1075.88 61.0714 1070.33 67.4314 Q1064.78 73.7508 1055.06 73.7508 Q1045.29 73.7508 1039.74 67.4314 Q1034.24 61.0714 1034.24 49.9314 Q1034.24 38.7509 1039.74 32.4315 Q1045.29 26.1121 1055.06 26.1121 Z" fill="#adb2b7" fill-rule="nonzero" fill-opacity="1" /><path clip-path="url(#clip360)" d="M1095.44 65.7705 L1095.44 89.8329 L1087.95 89.8329 L1087.95 27.2059 L1095.44 27.2059 L1095.44 34.0924 Q1097.79 30.0415 1101.36 28.0971 Q1104.96 26.1121 1109.95 26.1121 Q1118.21 26.1121 1123.36 32.6746 Q1128.54 39.2371 1128.54 49.9314 Q1128.54 60.6258 1123.36 67.1883 Q1118.21 73.7508 1109.95 73.7508 Q1104.96 73.7508 1101.36 71.8063 Q1097.79 69.8214 1095.44 65.7705 M1120.8 49.9314 Q1120.8 41.7081 1117.4 37.0496 Q1114.04 32.3505 1108.12 32.3505 Q1102.21 32.3505 1098.81 37.0496 Q1095.44 41.7081 1095.44 49.9314 Q1095.44 58.1548 1098.81 62.8538 Q1102.21 67.5124 1108.12 67.5124 Q1114.04 67.5124 1117.4 62.8538 Q1120.8 58.1548 1120.8 49.9314 Z" fill="#adb2b7" fill-rule="nonzero" fill-opacity="1" /><path clip-path="url(#clip360)" d="M1179.7 48.0275 L1179.7 51.6733 L1145.43 51.6733 Q1145.92 59.3701 1150.05 63.421 Q1154.22 67.4314 1161.64 67.4314 Q1165.93 67.4314 1169.94 66.3781 Q1173.99 65.3249 1177.96 63.2184 L1177.96 70.267 Q1173.95 71.9684 1169.74 72.8596 Q1165.53 73.7508 1161.19 73.7508 Q1150.33 73.7508 1143.97 67.4314 Q1137.66 61.1119 1137.66 50.3365 Q1137.66 39.1965 1143.65 32.6746 Q1149.69 26.1121 1159.89 26.1121 Q1169.05 26.1121 1174.36 32.0264 Q1179.7 37.9003 1179.7 48.0275 M1172.25 45.84 Q1172.17 39.7232 1168.81 36.0774 Q1165.48 32.4315 1159.98 32.4315 Q1153.74 32.4315 1149.97 35.9558 Q1146.24 39.4801 1145.68 45.8805 L1172.25 45.84 Z" fill="#adb2b7" fill-rule="nonzero" fill-opacity="1" /><path clip-path="url(#clip360)" d="M1229.65 45.1919 L1229.65 72.576 L1222.2 72.576 L1222.2 45.4349 Q1222.2 38.994 1219.69 35.7938 Q1217.17 32.5936 1212.15 32.5936 Q1206.12 32.5936 1202.63 36.4419 Q1199.15 40.2903 1199.15 46.9338 L1199.15 72.576 L1191.65 72.576 L1191.65 27.2059 L1199.15 27.2059 L1199.15 34.2544 Q1201.82 30.163 1205.43 28.1376 Q1209.07 26.1121 1213.81 26.1121 Q1221.63 26.1121 1225.64 30.9732 Q1229.65 35.7938 1229.65 45.1919 Z" fill="#adb2b7" fill-rule="nonzero" fill-opacity="1" /><path clip-path="url(#clip360)" d="M1288.47 32.4315 Q1282.47 32.4315 1278.99 37.1306 Q1275.51 41.7891 1275.51 49.9314 Q1275.51 58.0738 1278.95 62.7728 Q1282.43 67.4314 1288.47 67.4314 Q1294.43 67.4314 1297.91 62.7323 Q1301.39 58.0333 1301.39 49.9314 Q1301.39 41.8701 1297.91 37.1711 Q1294.43 32.4315 1288.47 32.4315 M1288.47 26.1121 Q1298.19 26.1121 1303.74 32.4315 Q1309.29 38.7509 1309.29 49.9314 Q1309.29 61.0714 1303.74 67.4314 Q1298.19 73.7508 1288.47 73.7508 Q1278.71 73.7508 1273.16 67.4314 Q1267.65 61.0714 1267.65 49.9314 Q1267.65 38.7509 1273.16 32.4315 Q1278.71 26.1121 1288.47 26.1121 Z" fill="#adb2b7" fill-rule="nonzero" fill-opacity="1" /><path clip-path="url(#clip360)" d="M1347.94 34.1734 Q1346.68 33.4443 1345.18 33.1202 Q1343.72 32.7556 1341.94 32.7556 Q1335.62 32.7556 1332.22 36.8875 Q1328.86 40.9789 1328.86 48.6757 L1328.86 72.576 L1321.36 72.576 L1321.36 27.2059 L1328.86 27.2059 L1328.86 34.2544 Q1331.21 30.1225 1334.97 28.1376 Q1338.74 26.1121 1344.13 26.1121 Q1344.9 26.1121 1345.83 26.2337 Q1346.76 26.3147 1347.9 26.5172 L1347.94 34.1734 Z" fill="#adb2b7" fill-rule="nonzero" fill-opacity="1" /><path clip-path="url(#clip360)" d="M1384.15 34.0924 L1384.15 9.54393 L1391.61 9.54393 L1391.61 72.576 L1384.15 72.576 L1384.15 65.7705 Q1381.8 69.8214 1378.2 71.8063 Q1374.63 73.7508 1369.61 73.7508 Q1361.39 73.7508 1356.2 67.1883 Q1351.06 60.6258 1351.06 49.9314 Q1351.06 39.2371 1356.2 32.6746 Q1361.39 26.1121 1369.61 26.1121 Q1374.63 26.1121 1378.2 28.0971 Q1381.8 30.0415 1384.15 34.0924 M1358.75 49.9314 Q1358.75 58.1548 1362.12 62.8538 Q1365.52 67.5124 1371.43 67.5124 Q1377.35 67.5124 1380.75 62.8538 Q1384.15 58.1548 1384.15 49.9314 Q1384.15 41.7081 1380.75 37.0496 Q1377.35 32.3505 1371.43 32.3505 Q1365.52 32.3505 1362.12 37.0496 Q1358.75 41.7081 1358.75 49.9314 Z" fill="#adb2b7" fill-rule="nonzero" fill-opacity="1" /><path clip-path="url(#clip360)" d="M1445.77 48.0275 L1445.77 51.6733 L1411.5 51.6733 Q1411.98 59.3701 1416.11 63.421 Q1420.29 67.4314 1427.7 67.4314 Q1431.99 67.4314 1436 66.3781 Q1440.06 65.3249 1444.03 63.2184 L1444.03 70.267 Q1440.01 71.9684 1435.8 72.8596 Q1431.59 73.7508 1427.25 73.7508 Q1416.4 73.7508 1410.04 67.4314 Q1403.72 61.1119 1403.72 50.3365 Q1403.72 39.1965 1409.71 32.6746 Q1415.75 26.1121 1425.96 26.1121 Q1435.11 26.1121 1440.42 32.0264 Q1445.77 37.9003 1445.77 48.0275 M1438.31 45.84 Q1438.23 39.7232 1434.87 36.0774 Q1431.55 32.4315 1426.04 32.4315 Q1419.8 32.4315 1416.03 35.9558 Q1412.31 39.4801 1411.74 45.8805 L1438.31 45.84 Z" fill="#adb2b7" fill-rule="nonzero" fill-opacity="1" /><path clip-path="url(#clip360)" d="M1484.29 34.1734 Q1483.04 33.4443 1481.54 33.1202 Q1480.08 32.7556 1478.3 32.7556 Q1471.98 32.7556 1468.57 36.8875 Q1465.21 40.9789 1465.21 48.6757 L1465.21 72.576 L1457.72 72.576 L1457.72 27.2059 L1465.21 27.2059 L1465.21 34.2544 Q1467.56 30.1225 1471.33 28.1376 Q1475.1 26.1121 1480.48 26.1121 Q1481.25 26.1121 1482.18 26.2337 Q1483.12 26.3147 1484.25 26.5172 L1484.29 34.1734 Z" fill="#adb2b7" fill-rule="nonzero" fill-opacity="1" /><path clip-path="url(#clip360)" d="M1521.03 28.5427 L1521.03 35.5912 Q1517.87 33.9709 1514.47 33.1607 Q1511.07 32.3505 1507.42 32.3505 Q1501.87 32.3505 1499.08 34.0519 Q1496.32 35.7533 1496.32 39.156 Q1496.32 41.7486 1498.31 43.2475 Q1500.29 44.7058 1506.29 46.0426 L1508.84 46.6097 Q1516.78 48.3111 1520.1 51.4303 Q1523.46 54.509 1523.46 60.0587 Q1523.46 66.3781 1518.44 70.0644 Q1513.46 73.7508 1504.71 73.7508 Q1501.06 73.7508 1497.09 73.0216 Q1493.16 72.3329 1488.79 70.9151 L1488.79 63.2184 Q1492.92 65.3654 1496.93 66.4591 Q1500.94 67.5124 1504.87 67.5124 Q1510.14 67.5124 1512.97 65.73 Q1515.81 63.9071 1515.81 60.6258 Q1515.81 57.5877 1513.74 55.9673 Q1511.72 54.3469 1504.79 52.8481 L1502.2 52.2405 Q1495.27 50.7821 1492.19 47.7845 Q1489.11 44.7463 1489.11 39.4801 Q1489.11 33.0797 1493.65 29.5959 Q1498.19 26.1121 1506.53 26.1121 Q1510.66 26.1121 1514.31 26.7198 Q1517.95 27.3274 1521.03 28.5427 Z" fill="#adb2b7" fill-rule="nonzero" fill-opacity="1" /><polyline clip-path="url(#clip361)" style="stroke:#000000; stroke-linecap:round; stroke-linejoin:round; stroke-width:4; stroke-opacity:1; fill:none" points="174.33,1486.45 177.272,1486.45 180.213,1486.45 183.155,1486.45 186.096,1486.45 189.038,1486.45 191.979,1486.45 194.921,1486.45 197.863,1486.45 200.804,1486.45 203.746,1486.45 206.687,1486.45 209.629,1486.45 212.57,1486.45 215.512,1486.45 218.453,1486.45 221.395,1486.45 224.337,1486.45 227.278,1486.45 230.22,1486.45 233.161,1486.45 236.103,1486.45 239.044,1486.45 241.986,1486.45 241.986,123.472 244.927,123.472 244.927,1486.45 247.869,1486.45 247.869,123.472 250.811,123.472 250.811,1486.45 253.752,1486.45 256.694,1486.45 259.635,1486.45 262.577,1486.45 265.518,1486.45 268.46,1486.45 271.401,1486.45 271.401,123.472 274.343,123.472 277.285,123.472 280.226,123.472 280.226,1486.45 283.168,1486.45 283.168,123.472 286.109,123.472 289.051,123.472 289.051,1486.45 291.992,1486.45 294.934,1486.45 297.875,1486.45 297.875,123.472 300.817,123.472 303.759,123.472 306.7,123.472 309.642,123.472 312.583,123.472 315.525,123.472 318.466,123.472 321.408,123.472 324.349,123.472 327.291,123.472 330.232,123.472 333.174,123.472 336.116,123.472 339.057,123.472 341.999,123.472 344.94,123.472 347.882,123.472 350.823,123.472 353.765,123.472 356.706,123.472 359.648,123.472 362.59,123.472 365.531,123.472 368.473,123.472 371.414,123.472 374.356,123.472 377.297,123.472 380.239,123.472 383.18,123.472 386.122,123.472 389.064,123.472 392.005,123.472 394.947,123.472 397.888,123.472 400.83,123.472 403.771,123.472 406.713,123.472 409.654,123.472 412.596,123.472 415.538,123.472 418.479,123.472 421.421,123.472 424.362,123.472 427.304,123.472 430.245,123.472 433.187,123.472 436.128,123.472 436.128,1486.45 439.07,1486.45 442.011,1486.45 442.011,123.472 444.953,123.472 447.895,123.472 447.895,1486.45 450.836,1486.45 450.836,123.472 453.778,123.472 456.719,123.472 459.661,123.472 462.602,123.472 465.544,123.472 468.485,123.472 471.427,123.472 474.369,123.472 477.31,123.472 480.252,123.472 483.193,123.472 486.135,123.472 489.076,123.472 492.018,123.472 494.959,123.472 497.901,123.472 500.843,123.472 503.784,123.472 506.726,123.472 509.667,123.472 512.609,123.472 515.55,123.472 518.492,123.472 521.433,123.472 524.375,123.472 527.317,123.472 530.258,123.472 533.2,123.472 536.141,123.472 539.083,123.472 542.024,123.472 544.966,123.472 547.907,123.472 550.849,123.472 550.849,1486.45 553.79,1486.45 556.732,1486.45 556.732,123.472 559.674,123.472 562.615,123.472 565.557,123.472 565.557,1486.45 568.498,1486.45 571.44,1486.45 574.381,1486.45 577.323,1486.45 580.264,1486.45 583.206,1486.45 586.148,1486.45 586.148,123.472 589.089,123.472 592.031,123.472 594.972,123.472 597.914,123.472 600.855,123.472 600.855,1486.45 603.797,1486.45 606.738,1486.45 609.68,1486.45 609.68,123.472 612.622,123.472 612.622,1486.45 615.563,1486.45 618.505,1486.45 618.505,123.472 621.446,123.472 624.388,123.472 627.329,123.472 630.271,123.472 633.212,123.472 636.154,123.472 639.096,123.472 639.096,1486.45 642.037,1486.45 642.037,123.472 644.979,123.472 647.92,123.472 650.862,123.472 650.862,1486.45 653.803,1486.45 656.745,1486.45 659.686,1486.45 662.628,1486.45 665.569,1486.45 668.511,1486.45 671.453,1486.45 674.394,1486.45 677.336,1486.45 677.336,123.472 680.277,123.472 683.219,123.472 683.219,1486.45 686.16,1486.45 689.102,1486.45 692.043,1486.45 692.043,123.472 694.985,123.472 697.927,123.472 697.927,1486.45 700.868,1486.45 703.81,1486.45 706.751,1486.45 709.693,1486.45 709.693,123.472 712.634,123.472 712.634,1486.45 715.576,1486.45 718.517,1486.45 721.459,1486.45 724.401,1486.45 727.342,1486.45 727.342,123.472 730.284,123.472 733.225,123.472 736.167,123.472 739.108,123.472 742.05,123.472 744.991,123.472 747.933,123.472 750.875,123.472 753.816,123.472 756.758,123.472 759.699,123.472 759.699,1486.45 762.641,1486.45 765.582,1486.45 768.524,1486.45 771.465,1486.45 771.465,123.472 774.407,123.472 777.348,123.472 780.29,123.472 780.29,1486.45 783.232,1486.45 783.232,123.472 786.173,123.472 789.115,123.472 792.056,123.472 794.998,123.472 797.939,123.472 800.881,123.472 803.822,123.472 806.764,123.472 809.706,123.472 812.647,123.472 815.589,123.472 818.53,123.472 821.472,123.472 824.413,123.472 827.355,123.472 830.296,123.472 833.238,123.472 836.18,123.472 839.121,123.472 842.063,123.472 845.004,123.472 847.946,123.472 850.887,123.472 853.829,123.472 856.77,123.472 859.712,123.472 862.654,123.472 865.595,123.472 868.537,123.472 871.478,123.472 874.42,123.472 877.361,123.472 877.361,1486.45 880.303,1486.45 883.244,1486.45 886.186,1486.45 886.186,123.472 889.127,123.472 892.069,123.472 895.011,123.472 895.011,1486.45 897.952,1486.45 897.952,123.472 900.894,123.472 903.835,123.472 906.777,123.472 909.718,123.472 912.66,123.472 915.601,123.472 918.543,123.472 921.485,123.472 921.485,1486.45 924.426,1486.45 927.368,1486.45 930.309,1486.45 930.309,123.472 933.251,123.472 936.192,123.472 939.134,123.472 942.075,123.472 945.017,123.472 945.017,1486.45 947.959,1486.45 950.9,1486.45 953.842,1486.45 956.783,1486.45 956.783,123.472 959.725,123.472 962.666,123.472 965.608,123.472 968.549,123.472 968.549,1486.45 971.491,1486.45 974.433,1486.45 974.433,123.472 977.374,123.472 977.374,1486.45 980.316,1486.45 983.257,1486.45 986.199,1486.45 989.14,1486.45 992.082,1486.45 995.023,1486.45 995.023,123.472 997.965,123.472 1000.91,123.472 1003.85,123.472 1006.79,123.472 1009.73,123.472 1012.67,123.472 1015.61,123.472 1018.56,123.472 1021.5,123.472 1021.5,1486.45 1024.44,1486.45 1027.38,1486.45 1030.32,1486.45 1030.32,123.472 1033.26,123.472 1033.26,1486.45 1036.21,1486.45 1039.15,1486.45 1042.09,1486.45 1045.03,1486.45 1047.97,1486.45 1050.91,1486.45 1053.85,1486.45 1056.8,1486.45 1059.74,1486.45 1062.68,1486.45 1065.62,1486.45 1068.56,1486.45 1068.56,123.472 1071.5,123.472 1074.45,123.472 1077.39,123.472 1080.33,123.472 1080.33,1486.45 1083.27,1486.45 1083.27,123.472 1086.21,123.472 1089.15,123.472 1092.09,123.472 1095.04,123.472 1097.98,123.472 1097.98,1486.45 1100.92,1486.45 1100.92,123.472 1103.86,123.472 1103.86,1486.45 1106.8,1486.45 1106.8,123.472 1109.74,123.472 1112.69,123.472 1115.63,123.472 1118.57,123.472 1121.51,123.472 1124.45,123.472 1127.39,123.472 1127.39,1486.45 1130.33,1486.45 1130.33,123.472 1133.28,123.472 1136.22,123.472 1139.16,123.472 1142.1,123.472 1145.04,123.472 1147.98,123.472 1150.93,123.472 1153.87,123.472 1156.81,123.472 1159.75,123.472 1162.69,123.472 1165.63,123.472 1168.58,123.472 1171.52,123.472 1171.52,1486.45 1174.46,1486.45 1174.46,123.472 1177.4,123.472 1180.34,123.472 1183.28,123.472 1186.22,123.472 1189.17,123.472 1192.11,123.472 1195.05,123.472 1197.99,123.472 1200.93,123.472 1203.87,123.472 1206.82,123.472 1209.76,123.472 1212.7,123.472 1215.64,123.472 1215.64,1486.45 1218.58,1486.45 1221.52,1486.45 1224.46,1486.45 1227.41,1486.45 1227.41,123.472 1230.35,123.472 1233.29,123.472 1236.23,123.472 1236.23,1486.45 1239.17,1486.45 1242.11,1486.45 1245.06,1486.45 1248,1486.45 1248,123.472 1250.94,123.472 1253.88,123.472 1256.82,123.472 1259.76,123.472 1262.7,123.472 1265.65,123.472 1268.59,123.472 1271.53,123.472 1271.53,1486.45 1274.47,1486.45 1274.47,123.472 1277.41,123.472 1280.35,123.472 1283.3,123.472 1283.3,1486.45 1286.24,1486.45 1289.18,1486.45 1289.18,123.472 1292.12,123.472 1295.06,123.472 1298,123.472 1300.94,123.472 1303.89,123.472 1306.83,123.472 1309.77,123.472 1312.71,123.472 1315.65,123.472 1318.59,123.472 1321.54,123.472 1324.48,123.472 1327.42,123.472 1330.36,123.472 1333.3,123.472 1336.24,123.472 1339.19,123.472 1342.13,123.472 1345.07,123.472 1348.01,123.472 1350.95,123.472 1353.89,123.472 1356.83,123.472 1359.78,123.472 1362.72,123.472 1365.66,123.472 1368.6,123.472 1371.54,123.472 1374.48,123.472 1377.43,123.472 1380.37,123.472 1383.31,123.472 1386.25,123.472 1389.19,123.472 1392.13,123.472 1395.07,123.472 1395.07,1486.45 1398.02,1486.45 1398.02,123.472 1400.96,123.472 1403.9,123.472 1406.84,123.472 1409.78,123.472 1412.72,123.472 1415.67,123.472 1418.61,123.472 1421.55,123.472 1424.49,123.472 1427.43,123.472 1430.37,123.472 1433.31,123.472 1436.26,123.472 1439.2,123.472 1439.2,1486.45 1442.14,1486.45 1445.08,1486.45 1445.08,123.472 1448.02,123.472 1450.96,123.472 1453.91,123.472 1456.85,123.472 1459.79,123.472 1462.73,123.472 1465.67,123.472 1468.61,123.472 1471.55,123.472 1474.5,123.472 1477.44,123.472 1480.38,123.472 1483.32,123.472 1483.32,1486.45 1486.26,1486.45 1486.26,123.472 1489.2,123.472 1489.2,1486.45 1492.15,1486.45 1492.15,123.472 1495.09,123.472 1498.03,123.472 1500.97,123.472 1503.91,123.472 1506.85,123.472 1509.8,123.472 1512.74,123.472 1515.68,123.472 1518.62,123.472 1521.56,123.472 1524.5,123.472 1527.44,123.472 1530.39,123.472 1533.33,123.472 1536.27,123.472 1539.21,123.472 1542.15,123.472 1545.09,123.472 1548.04,123.472 1550.98,123.472 1553.92,123.472 1556.86,123.472 1559.8,123.472 1562.74,123.472 1565.68,123.472 1568.63,123.472 1571.57,123.472 1574.51,123.472 1577.45,123.472 1580.39,123.472 1583.33,123.472 1586.28,123.472 1589.22,123.472 1592.16,123.472 1595.1,123.472 1598.04,123.472 1600.98,123.472 1603.92,123.472 1606.87,123.472 1609.81,123.472 1612.75,123.472 1615.69,123.472 1618.63,123.472 1621.57,123.472 1624.52,123.472 1627.46,123.472 1630.4,123.472 1633.34,123.472 1636.28,123.472 1639.22,123.472 1642.17,123.472 1645.11,123.472 1648.05,123.472 1650.99,123.472 1650.99,1486.45 1653.93,1486.45 1653.93,123.472 1656.87,123.472 1659.81,123.472 1662.76,123.472 1662.76,1486.45 1665.7,1486.45 1668.64,1486.45 1671.58,1486.45 1674.52,1486.45 1674.52,123.472 1677.46,123.472 1680.41,123.472 1683.35,123.472 1686.29,123.472 1689.23,123.472 1692.17,123.472 1695.11,123.472 1698.05,123.472 1701,123.472 1703.94,123.472 1706.88,123.472 1709.82,123.472 1712.76,123.472 1715.7,123.472 1718.65,123.472 1721.59,123.472 1724.53,123.472 1727.47,123.472 1730.41,123.472 1733.35,123.472 1736.29,123.472 1739.24,123.472 1742.18,123.472 1745.12,123.472 1748.06,123.472 1751,123.472 1753.94,123.472 1756.89,123.472 1759.83,123.472 1762.77,123.472 1765.71,123.472 1768.65,123.472 1771.59,123.472 1774.53,123.472 1777.48,123.472 1780.42,123.472 1783.36,123.472 1786.3,123.472 1789.24,123.472 1792.18,123.472 1795.13,123.472 1798.07,123.472 1798.07,1486.45 1801.01,1486.45 1803.95,1486.45 1806.89,1486.45 1806.89,123.472 1809.83,123.472 1812.78,123.472 1815.72,123.472 1818.66,123.472 1821.6,123.472 1824.54,123.472 1827.48,123.472 1830.42,123.472 1833.37,123.472 1836.31,123.472 1839.25,123.472 1842.19,123.472 1845.13,123.472 1848.07,123.472 1851.02,123.472 1853.96,123.472 1856.9,123.472 1859.84,123.472 1862.78,123.472 1865.72,123.472 1865.72,1486.45 1868.66,1486.45 1871.61,1486.45 1871.61,123.472 1874.55,123.472 1874.55,1486.45 1877.49,1486.45 1877.49,123.472 1880.43,123.472 1883.37,123.472 1886.31,123.472 1889.26,123.472 1892.2,123.472 1892.2,1486.45 1895.14,1486.45 1898.08,1486.45 1898.08,123.472 1901.02,123.472 1903.96,123.472 1906.9,123.472 1906.9,1486.45 1909.85,1486.45 1909.85,123.472 1912.79,123.472 1915.73,123.472 1918.67,123.472 1921.61,123.472 1924.55,123.472 1927.5,123.472 1930.44,123.472 1933.38,123.472 1936.32,123.472 1939.26,123.472 1942.2,123.472 1945.14,123.472 1948.09,123.472 1951.03,123.472 1953.97,123.472 1956.91,123.472 1959.85,123.472 1962.79,123.472 1965.74,123.472 1968.68,123.472 1971.62,123.472 1974.56,123.472 1977.5,123.472 1980.44,123.472 1983.39,123.472 1983.39,1486.45 1986.33,1486.45 1989.27,1486.45 1989.27,123.472 1992.21,123.472 1995.15,123.472 1998.09,123.472 2001.03,123.472 2003.98,123.472 2006.92,123.472 2009.86,123.472 2012.8,123.472 2015.74,123.472 2018.68,123.472 2021.63,123.472 2021.63,1486.45 2024.57,1486.45 2024.57,123.472 2027.51,123.472 2027.51,1486.45 2030.45,1486.45 2033.39,1486.45 2033.39,123.472 2036.33,123.472 2039.27,123.472 2039.27,1486.45 2042.22,1486.45 2045.16,1486.45 2045.16,123.472 2048.1,123.472 2051.04,123.472 2053.98,123.472 2056.92,123.472 2059.87,123.472 2062.81,123.472 2065.75,123.472 2065.75,1486.45 2068.69,1486.45 2068.69,123.472 2071.63,123.472 2074.57,123.472 2077.51,123.472 2080.46,123.472 2083.4,123.472 2086.34,123.472 2089.28,123.472 2092.22,123.472 2095.16,123.472 2098.11,123.472 2101.05,123.472 2103.99,123.472 2106.93,123.472 2109.87,123.472 2112.81,123.472 2115.75,123.472 2118.7,123.472 2121.64,123.472 2124.58,123.472 2127.52,123.472 2130.46,123.472 2133.4,123.472 2136.35,123.472 2139.29,123.472 2142.23,123.472 2145.17,123.472 2148.11,123.472 2148.11,1486.45 2151.05,1486.45 2151.05,123.472 2154,123.472 2156.94,123.472 2159.88,123.472 2162.82,123.472 2165.76,123.472 2168.7,123.472 2171.64,123.472 2174.59,123.472 2177.53,123.472 2180.47,123.472 2183.41,123.472 2186.35,123.472 2189.29,123.472 2192.24,123.472 2195.18,123.472 2198.12,123.472 2201.06,123.472 2204,123.472 2206.94,123.472 2209.88,123.472 2212.83,123.472 2215.77,123.472 2218.71,123.472 2221.65,123.472 2224.59,123.472 2227.53,123.472 2230.48,123.472 2233.42,123.472 2236.36,123.472 2239.3,123.472 2242.24,123.472 2242.24,1486.45 2245.18,1486.45 2245.18,123.472 2248.12,123.472 2251.07,123.472 2254.01,123.472 2256.95,123.472 2259.89,123.472 2262.83,123.472 2265.77,123.472 2268.72,123.472 2268.72,1486.45 2271.66,1486.45 2274.6,1486.45 2274.6,123.472 2277.54,123.472 2280.48,123.472 2283.42,123.472 2286.37,123.472 2289.31,123.472 "/>
</svg>
