<?xml version="1.0" encoding="utf-8"?>
<svg xmlns="http://www.w3.org/2000/svg" xmlns:xlink="http://www.w3.org/1999/xlink" width="800" height="450" viewBox="0 0 3200 1800">
<defs>
  <clipPath id="clip720">
    <rect x="0" y="0" width="3200" height="1800"/>
  </clipPath>
</defs>
<path clip-path="url(#clip720)" d="M0 1800 L3200 1800 L3200 0 L0 0  Z" fill="#282c34" fill-rule="evenodd" fill-opacity="1"/>
<defs>
  <clipPath id="clip721">
    <rect x="164" y="99" width="2989" height="1591"/>
  </clipPath>
</defs>
<path clip-path="url(#clip720)" d="M164.598 1689.85 L3152.76 1689.85 L3152.76 99.4421 L164.598 99.4421  Z" fill="#21252b" fill-rule="evenodd" fill-opacity="1"/>
<polyline clip-path="url(#clip721)" style="stroke:#adb2b7; stroke-linecap:round; stroke-linejoin:round; stroke-width:2; stroke-opacity:0.1; fill:none" points="249.169,1689.85 249.169,99.4421 "/>
<polyline clip-path="url(#clip721)" style="stroke:#adb2b7; stroke-linecap:round; stroke-linejoin:round; stroke-width:2; stroke-opacity:0.1; fill:none" points="1027.95,1689.85 1027.95,99.4421 "/>
<polyline clip-path="url(#clip721)" style="stroke:#adb2b7; stroke-linecap:round; stroke-linejoin:round; stroke-width:2; stroke-opacity:0.1; fill:none" points="1806.73,1689.85 1806.73,99.4421 "/>
<polyline clip-path="url(#clip721)" style="stroke:#adb2b7; stroke-linecap:round; stroke-linejoin:round; stroke-width:2; stroke-opacity:0.1; fill:none" points="2585.5,1689.85 2585.5,99.4421 "/>
<polyline clip-path="url(#clip721)" style="stroke:#adb2b7; stroke-linecap:round; stroke-linejoin:round; stroke-width:2; stroke-opacity:0.1; fill:none" points="164.598,1619.39 3152.76,1619.39 "/>
<polyline clip-path="url(#clip721)" style="stroke:#adb2b7; stroke-linecap:round; stroke-linejoin:round; stroke-width:2; stroke-opacity:0.1; fill:none" points="164.598,1252.31 3152.76,1252.31 "/>
<polyline clip-path="url(#clip721)" style="stroke:#adb2b7; stroke-linecap:round; stroke-linejoin:round; stroke-width:2; stroke-opacity:0.1; fill:none" points="164.598,885.231 3152.76,885.231 "/>
<polyline clip-path="url(#clip721)" style="stroke:#adb2b7; stroke-linecap:round; stroke-linejoin:round; stroke-width:2; stroke-opacity:0.1; fill:none" points="164.598,518.15 3152.76,518.15 "/>
<polyline clip-path="url(#clip721)" style="stroke:#adb2b7; stroke-linecap:round; stroke-linejoin:round; stroke-width:2; stroke-opacity:0.1; fill:none" points="164.598,151.069 3152.76,151.069 "/>
<polyline clip-path="url(#clip720)" style="stroke:#adb2b7; stroke-linecap:round; stroke-linejoin:round; stroke-width:4; stroke-opacity:1; fill:none" points="164.598,1689.85 3152.76,1689.85 "/>
<polyline clip-path="url(#clip720)" style="stroke:#adb2b7; stroke-linecap:round; stroke-linejoin:round; stroke-width:4; stroke-opacity:1; fill:none" points="249.169,1689.85 249.169,1670.95 "/>
<polyline clip-path="url(#clip720)" style="stroke:#adb2b7; stroke-linecap:round; stroke-linejoin:round; stroke-width:4; stroke-opacity:1; fill:none" points="1027.95,1689.85 1027.95,1670.95 "/>
<polyline clip-path="url(#clip720)" style="stroke:#adb2b7; stroke-linecap:round; stroke-linejoin:round; stroke-width:4; stroke-opacity:1; fill:none" points="1806.73,1689.85 1806.73,1670.95 "/>
<polyline clip-path="url(#clip720)" style="stroke:#adb2b7; stroke-linecap:round; stroke-linejoin:round; stroke-width:4; stroke-opacity:1; fill:none" points="2585.5,1689.85 2585.5,1670.95 "/>
<path clip-path="url(#clip720)" d="M121.149 1754.71 L137.468 1754.71 L137.468 1758.65 L115.524 1758.65 L115.524 1754.71 Q118.186 1751.96 122.769 1747.33 Q127.375 1742.68 128.556 1741.33 Q130.801 1738.81 131.681 1737.07 Q132.584 1735.31 132.584 1733.62 Q132.584 1730.87 130.639 1729.13 Q128.718 1727.4 125.616 1727.4 Q123.417 1727.4 120.963 1728.16 Q118.533 1728.93 115.755 1730.48 L115.755 1725.75 Q118.579 1724.62 121.033 1724.04 Q123.487 1723.46 125.524 1723.46 Q130.894 1723.46 134.088 1726.15 Q137.283 1728.83 137.283 1733.32 Q137.283 1735.45 136.473 1737.37 Q135.686 1739.27 133.579 1741.87 Q133 1742.54 129.899 1745.75 Q126.797 1748.95 121.149 1754.71 Z" fill="#9eb1be" fill-rule="nonzero" fill-opacity="1" /><path clip-path="url(#clip720)" d="M157.283 1727.17 Q153.672 1727.17 151.843 1730.73 Q150.037 1734.27 150.037 1741.4 Q150.037 1748.51 151.843 1752.07 Q153.672 1755.62 157.283 1755.62 Q160.917 1755.62 162.722 1752.07 Q164.551 1748.51 164.551 1741.4 Q164.551 1734.27 162.722 1730.73 Q160.917 1727.17 157.283 1727.17 M157.283 1723.46 Q163.093 1723.46 166.148 1728.07 Q169.227 1732.65 169.227 1741.4 Q169.227 1750.13 166.148 1754.74 Q163.093 1759.32 157.283 1759.32 Q151.472 1759.32 148.394 1754.74 Q145.338 1750.13 145.338 1741.4 Q145.338 1732.65 148.394 1728.07 Q151.472 1723.46 157.283 1723.46 Z" fill="#9eb1be" fill-rule="nonzero" fill-opacity="1" /><path clip-path="url(#clip720)" d="M181.472 1754.71 L197.792 1754.71 L197.792 1758.65 L175.847 1758.65 L175.847 1754.71 Q178.509 1751.96 183.093 1747.33 Q187.699 1742.68 188.88 1741.33 Q191.125 1738.81 192.005 1737.07 Q192.907 1735.31 192.907 1733.62 Q192.907 1730.87 190.963 1729.13 Q189.042 1727.4 185.94 1727.4 Q183.741 1727.4 181.287 1728.16 Q178.857 1728.93 176.079 1730.48 L176.079 1725.75 Q178.903 1724.62 181.357 1724.04 Q183.81 1723.46 185.847 1723.46 Q191.218 1723.46 194.412 1726.15 Q197.607 1728.83 197.607 1733.32 Q197.607 1735.45 196.796 1737.37 Q196.009 1739.27 193.903 1741.87 Q193.324 1742.54 190.222 1745.75 Q187.12 1748.95 181.472 1754.71 Z" fill="#9eb1be" fill-rule="nonzero" fill-opacity="1" /><path clip-path="url(#clip720)" d="M220.454 1728.16 L208.648 1746.61 L220.454 1746.61 L220.454 1728.16 M219.227 1724.09 L225.106 1724.09 L225.106 1746.61 L230.037 1746.61 L230.037 1750.5 L225.106 1750.5 L225.106 1758.65 L220.454 1758.65 L220.454 1750.5 L204.852 1750.5 L204.852 1745.99 L219.227 1724.09 Z" fill="#9eb1be" fill-rule="nonzero" fill-opacity="1" /><path clip-path="url(#clip720)" d="M235.014 1743.76 L247.491 1743.76 L247.491 1747.56 L235.014 1747.56 L235.014 1743.76 Z" fill="#9eb1be" fill-rule="nonzero" fill-opacity="1" /><path clip-path="url(#clip720)" d="M264.875 1727.17 Q261.264 1727.17 259.435 1730.73 Q257.629 1734.27 257.629 1741.4 Q257.629 1748.51 259.435 1752.07 Q261.264 1755.62 264.875 1755.62 Q268.509 1755.62 270.314 1752.07 Q272.143 1748.51 272.143 1741.4 Q272.143 1734.27 270.314 1730.73 Q268.509 1727.17 264.875 1727.17 M264.875 1723.46 Q270.685 1723.46 273.74 1728.07 Q276.819 1732.65 276.819 1741.4 Q276.819 1750.13 273.74 1754.74 Q270.685 1759.32 264.875 1759.32 Q259.065 1759.32 255.986 1754.74 Q252.93 1750.13 252.93 1741.4 Q252.93 1732.65 255.986 1728.07 Q259.065 1723.46 264.875 1723.46 Z" fill="#9eb1be" fill-rule="nonzero" fill-opacity="1" /><path clip-path="url(#clip720)" d="M285.847 1754.71 L293.486 1754.71 L293.486 1728.35 L285.175 1730.01 L285.175 1725.75 L293.439 1724.09 L298.115 1724.09 L298.115 1754.71 L305.754 1754.71 L305.754 1758.65 L285.847 1758.65 L285.847 1754.71 Z" fill="#9eb1be" fill-rule="nonzero" fill-opacity="1" /><path clip-path="url(#clip720)" d="M312.444 1743.76 L324.921 1743.76 L324.921 1747.56 L312.444 1747.56 L312.444 1743.76 Z" fill="#9eb1be" fill-rule="nonzero" fill-opacity="1" /><path clip-path="url(#clip720)" d="M342.305 1727.17 Q338.694 1727.17 336.865 1730.73 Q335.059 1734.27 335.059 1741.4 Q335.059 1748.51 336.865 1752.07 Q338.694 1755.62 342.305 1755.62 Q345.939 1755.62 347.745 1752.07 Q349.573 1748.51 349.573 1741.4 Q349.573 1734.27 347.745 1730.73 Q345.939 1727.17 342.305 1727.17 M342.305 1723.46 Q348.115 1723.46 351.171 1728.07 Q354.249 1732.65 354.249 1741.4 Q354.249 1750.13 351.171 1754.74 Q348.115 1759.32 342.305 1759.32 Q336.495 1759.32 333.416 1754.74 Q330.36 1750.13 330.36 1741.4 Q330.36 1732.65 333.416 1728.07 Q336.495 1723.46 342.305 1723.46 Z" fill="#9eb1be" fill-rule="nonzero" fill-opacity="1" /><path clip-path="url(#clip720)" d="M366.494 1754.71 L382.814 1754.71 L382.814 1758.65 L360.87 1758.65 L360.87 1754.71 Q363.532 1751.96 368.115 1747.33 Q372.721 1742.68 373.902 1741.33 Q376.147 1738.81 377.027 1737.07 Q377.93 1735.31 377.93 1733.62 Q377.93 1730.87 375.985 1729.13 Q374.064 1727.4 370.962 1727.4 Q368.763 1727.4 366.309 1728.16 Q363.879 1728.93 361.101 1730.48 L361.101 1725.75 Q363.925 1724.62 366.379 1724.04 Q368.832 1723.46 370.869 1723.46 Q376.24 1723.46 379.434 1726.15 Q382.629 1728.83 382.629 1733.32 Q382.629 1735.45 381.818 1737.37 Q381.031 1739.27 378.925 1741.87 Q378.346 1742.54 375.244 1745.75 Q372.143 1748.95 366.494 1754.71 Z" fill="#9eb1be" fill-rule="nonzero" fill-opacity="1" /><path clip-path="url(#clip720)" d="M899.129 1754.71 L915.448 1754.71 L915.448 1758.65 L893.504 1758.65 L893.504 1754.71 Q896.166 1751.96 900.749 1747.33 Q905.356 1742.68 906.536 1741.33 Q908.781 1738.81 909.661 1737.07 Q910.564 1735.31 910.564 1733.62 Q910.564 1730.87 908.619 1729.13 Q906.698 1727.4 903.596 1727.4 Q901.397 1727.4 898.944 1728.16 Q896.513 1728.93 893.735 1730.48 L893.735 1725.75 Q896.559 1724.62 899.013 1724.04 Q901.467 1723.46 903.504 1723.46 Q908.874 1723.46 912.068 1726.15 Q915.263 1728.83 915.263 1733.32 Q915.263 1735.45 914.453 1737.37 Q913.666 1739.27 911.559 1741.87 Q910.98 1742.54 907.879 1745.75 Q904.777 1748.95 899.129 1754.71 Z" fill="#9eb1be" fill-rule="nonzero" fill-opacity="1" /><path clip-path="url(#clip720)" d="M935.263 1727.17 Q931.652 1727.17 929.823 1730.73 Q928.017 1734.27 928.017 1741.4 Q928.017 1748.51 929.823 1752.07 Q931.652 1755.62 935.263 1755.62 Q938.897 1755.62 940.703 1752.07 Q942.531 1748.51 942.531 1741.4 Q942.531 1734.27 940.703 1730.73 Q938.897 1727.17 935.263 1727.17 M935.263 1723.46 Q941.073 1723.46 944.128 1728.07 Q947.207 1732.65 947.207 1741.4 Q947.207 1750.13 944.128 1754.74 Q941.073 1759.32 935.263 1759.32 Q929.453 1759.32 926.374 1754.74 Q923.318 1750.13 923.318 1741.4 Q923.318 1732.65 926.374 1728.07 Q929.453 1723.46 935.263 1723.46 Z" fill="#9eb1be" fill-rule="nonzero" fill-opacity="1" /><path clip-path="url(#clip720)" d="M959.452 1754.71 L975.772 1754.71 L975.772 1758.65 L953.827 1758.65 L953.827 1754.71 Q956.489 1751.96 961.073 1747.33 Q965.679 1742.68 966.86 1741.33 Q969.105 1738.81 969.985 1737.07 Q970.888 1735.31 970.888 1733.62 Q970.888 1730.87 968.943 1729.13 Q967.022 1727.4 963.92 1727.4 Q961.721 1727.4 959.267 1728.16 Q956.837 1728.93 954.059 1730.48 L954.059 1725.75 Q956.883 1724.62 959.337 1724.04 Q961.79 1723.46 963.827 1723.46 Q969.198 1723.46 972.392 1726.15 Q975.587 1728.83 975.587 1733.32 Q975.587 1735.45 974.776 1737.37 Q973.989 1739.27 971.883 1741.87 Q971.304 1742.54 968.202 1745.75 Q965.101 1748.95 959.452 1754.71 Z" fill="#9eb1be" fill-rule="nonzero" fill-opacity="1" /><path clip-path="url(#clip720)" d="M998.434 1728.16 L986.628 1746.61 L998.434 1746.61 L998.434 1728.16 M997.207 1724.09 L1003.09 1724.09 L1003.09 1746.61 L1008.02 1746.61 L1008.02 1750.5 L1003.09 1750.5 L1003.09 1758.65 L998.434 1758.65 L998.434 1750.5 L982.832 1750.5 L982.832 1745.99 L997.207 1724.09 Z" fill="#9eb1be" fill-rule="nonzero" fill-opacity="1" /><path clip-path="url(#clip720)" d="M1012.99 1743.76 L1025.47 1743.76 L1025.47 1747.56 L1012.99 1747.56 L1012.99 1743.76 Z" fill="#9eb1be" fill-rule="nonzero" fill-opacity="1" /><path clip-path="url(#clip720)" d="M1042.85 1727.17 Q1039.24 1727.17 1037.41 1730.73 Q1035.61 1734.27 1035.61 1741.4 Q1035.61 1748.51 1037.41 1752.07 Q1039.24 1755.62 1042.85 1755.62 Q1046.49 1755.62 1048.29 1752.07 Q1050.12 1748.51 1050.12 1741.4 Q1050.12 1734.27 1048.29 1730.73 Q1046.49 1727.17 1042.85 1727.17 M1042.85 1723.46 Q1048.66 1723.46 1051.72 1728.07 Q1054.8 1732.65 1054.8 1741.4 Q1054.8 1750.13 1051.72 1754.74 Q1048.66 1759.32 1042.85 1759.32 Q1037.04 1759.32 1033.97 1754.74 Q1030.91 1750.13 1030.91 1741.4 Q1030.91 1732.65 1033.97 1728.07 Q1037.04 1723.46 1042.85 1723.46 Z" fill="#9eb1be" fill-rule="nonzero" fill-opacity="1" /><path clip-path="url(#clip720)" d="M1063.83 1754.71 L1071.47 1754.71 L1071.47 1728.35 L1063.16 1730.01 L1063.16 1725.75 L1071.42 1724.09 L1076.1 1724.09 L1076.1 1754.71 L1083.73 1754.71 L1083.73 1758.65 L1063.83 1758.65 L1063.83 1754.71 Z" fill="#9eb1be" fill-rule="nonzero" fill-opacity="1" /><path clip-path="url(#clip720)" d="M1090.42 1743.76 L1102.9 1743.76 L1102.9 1747.56 L1090.42 1747.56 L1090.42 1743.76 Z" fill="#9eb1be" fill-rule="nonzero" fill-opacity="1" /><path clip-path="url(#clip720)" d="M1111.1 1754.71 L1118.73 1754.71 L1118.73 1728.35 L1110.42 1730.01 L1110.42 1725.75 L1118.69 1724.09 L1123.36 1724.09 L1123.36 1754.71 L1131 1754.71 L1131 1758.65 L1111.1 1758.65 L1111.1 1754.71 Z" fill="#9eb1be" fill-rule="nonzero" fill-opacity="1" /><path clip-path="url(#clip720)" d="M1150.45 1727.17 Q1146.84 1727.17 1145.01 1730.73 Q1143.2 1734.27 1143.2 1741.4 Q1143.2 1748.51 1145.01 1752.07 Q1146.84 1755.62 1150.45 1755.62 Q1154.08 1755.62 1155.89 1752.07 Q1157.72 1748.51 1157.72 1741.4 Q1157.72 1734.27 1155.89 1730.73 Q1154.08 1727.17 1150.45 1727.17 M1150.45 1723.46 Q1156.26 1723.46 1159.31 1728.07 Q1162.39 1732.65 1162.39 1741.4 Q1162.39 1750.13 1159.31 1754.74 Q1156.26 1759.32 1150.45 1759.32 Q1144.64 1759.32 1141.56 1754.74 Q1138.5 1750.13 1138.5 1741.4 Q1138.5 1732.65 1141.56 1728.07 Q1144.64 1723.46 1150.45 1723.46 Z" fill="#9eb1be" fill-rule="nonzero" fill-opacity="1" /><path clip-path="url(#clip720)" d="M1677.95 1754.71 L1694.27 1754.71 L1694.27 1758.65 L1672.33 1758.65 L1672.33 1754.71 Q1674.99 1751.96 1679.57 1747.33 Q1684.18 1742.68 1685.36 1741.33 Q1687.61 1738.81 1688.49 1737.07 Q1689.39 1735.31 1689.39 1733.62 Q1689.39 1730.87 1687.44 1729.13 Q1685.52 1727.4 1682.42 1727.4 Q1680.22 1727.4 1677.77 1728.16 Q1675.34 1728.93 1672.56 1730.48 L1672.56 1725.75 Q1675.38 1724.62 1677.84 1724.04 Q1680.29 1723.46 1682.33 1723.46 Q1687.7 1723.46 1690.89 1726.15 Q1694.09 1728.83 1694.09 1733.32 Q1694.09 1735.45 1693.28 1737.37 Q1692.49 1739.27 1690.38 1741.87 Q1689.81 1742.54 1686.7 1745.75 Q1683.6 1748.95 1677.95 1754.71 Z" fill="#9eb1be" fill-rule="nonzero" fill-opacity="1" /><path clip-path="url(#clip720)" d="M1714.09 1727.17 Q1710.48 1727.17 1708.65 1730.73 Q1706.84 1734.27 1706.84 1741.4 Q1706.84 1748.51 1708.65 1752.07 Q1710.48 1755.62 1714.09 1755.62 Q1717.72 1755.62 1719.53 1752.07 Q1721.36 1748.51 1721.36 1741.4 Q1721.36 1734.27 1719.53 1730.73 Q1717.72 1727.17 1714.09 1727.17 M1714.09 1723.46 Q1719.9 1723.46 1722.95 1728.07 Q1726.03 1732.65 1726.03 1741.4 Q1726.03 1750.13 1722.95 1754.74 Q1719.9 1759.32 1714.09 1759.32 Q1708.28 1759.32 1705.2 1754.74 Q1702.14 1750.13 1702.14 1741.4 Q1702.14 1732.65 1705.2 1728.07 Q1708.28 1723.46 1714.09 1723.46 Z" fill="#9eb1be" fill-rule="nonzero" fill-opacity="1" /><path clip-path="url(#clip720)" d="M1738.28 1754.71 L1754.6 1754.71 L1754.6 1758.65 L1732.65 1758.65 L1732.65 1754.71 Q1735.31 1751.96 1739.9 1747.33 Q1744.5 1742.68 1745.68 1741.33 Q1747.93 1738.81 1748.81 1737.07 Q1749.71 1735.31 1749.71 1733.62 Q1749.71 1730.87 1747.77 1729.13 Q1745.85 1727.4 1742.75 1727.4 Q1740.55 1727.4 1738.09 1728.16 Q1735.66 1728.93 1732.88 1730.48 L1732.88 1725.75 Q1735.71 1724.62 1738.16 1724.04 Q1740.62 1723.46 1742.65 1723.46 Q1748.02 1723.46 1751.22 1726.15 Q1754.41 1728.83 1754.41 1733.32 Q1754.41 1735.45 1753.6 1737.37 Q1752.81 1739.27 1750.71 1741.87 Q1750.13 1742.54 1747.03 1745.75 Q1743.93 1748.95 1738.28 1754.71 Z" fill="#9eb1be" fill-rule="nonzero" fill-opacity="1" /><path clip-path="url(#clip720)" d="M1777.26 1728.16 L1765.45 1746.61 L1777.26 1746.61 L1777.26 1728.16 M1776.03 1724.09 L1781.91 1724.09 L1781.91 1746.61 L1786.84 1746.61 L1786.84 1750.5 L1781.91 1750.5 L1781.91 1758.65 L1777.26 1758.65 L1777.26 1750.5 L1761.66 1750.5 L1761.66 1745.99 L1776.03 1724.09 Z" fill="#9eb1be" fill-rule="nonzero" fill-opacity="1" /><path clip-path="url(#clip720)" d="M1791.82 1743.76 L1804.3 1743.76 L1804.3 1747.56 L1791.82 1747.56 L1791.82 1743.76 Z" fill="#9eb1be" fill-rule="nonzero" fill-opacity="1" /><path clip-path="url(#clip720)" d="M1821.68 1727.17 Q1818.07 1727.17 1816.24 1730.73 Q1814.43 1734.27 1814.43 1741.4 Q1814.43 1748.51 1816.24 1752.07 Q1818.07 1755.62 1821.68 1755.62 Q1825.31 1755.62 1827.12 1752.07 Q1828.95 1748.51 1828.95 1741.4 Q1828.95 1734.27 1827.12 1730.73 Q1825.31 1727.17 1821.68 1727.17 M1821.68 1723.46 Q1827.49 1723.46 1830.55 1728.07 Q1833.62 1732.65 1833.62 1741.4 Q1833.62 1750.13 1830.55 1754.74 Q1827.49 1759.32 1821.68 1759.32 Q1815.87 1759.32 1812.79 1754.74 Q1809.74 1750.13 1809.74 1741.4 Q1809.74 1732.65 1812.79 1728.07 Q1815.87 1723.46 1821.68 1723.46 Z" fill="#9eb1be" fill-rule="nonzero" fill-opacity="1" /><path clip-path="url(#clip720)" d="M1842.65 1754.71 L1850.29 1754.71 L1850.29 1728.35 L1841.98 1730.01 L1841.98 1725.75 L1850.24 1724.09 L1854.92 1724.09 L1854.92 1754.71 L1862.56 1754.71 L1862.56 1758.65 L1842.65 1758.65 L1842.65 1754.71 Z" fill="#9eb1be" fill-rule="nonzero" fill-opacity="1" /><path clip-path="url(#clip720)" d="M1869.25 1743.76 L1881.73 1743.76 L1881.73 1747.56 L1869.25 1747.56 L1869.25 1743.76 Z" fill="#9eb1be" fill-rule="nonzero" fill-opacity="1" /><path clip-path="url(#clip720)" d="M1889.92 1754.71 L1897.56 1754.71 L1897.56 1728.35 L1889.25 1730.01 L1889.25 1725.75 L1897.51 1724.09 L1902.19 1724.09 L1902.19 1754.71 L1909.83 1754.71 L1909.83 1758.65 L1889.92 1758.65 L1889.92 1754.71 Z" fill="#9eb1be" fill-rule="nonzero" fill-opacity="1" /><path clip-path="url(#clip720)" d="M1929.27 1742.24 Q1925.94 1742.24 1924.02 1744.02 Q1922.12 1745.8 1922.12 1748.93 Q1922.12 1752.05 1924.02 1753.83 Q1925.94 1755.62 1929.27 1755.62 Q1932.61 1755.62 1934.53 1753.83 Q1936.45 1752.03 1936.45 1748.93 Q1936.45 1745.8 1934.53 1744.02 Q1932.63 1742.24 1929.27 1742.24 M1924.6 1740.25 Q1921.59 1739.5 1919.9 1737.44 Q1918.23 1735.38 1918.23 1732.42 Q1918.23 1728.28 1921.17 1725.87 Q1924.13 1723.46 1929.27 1723.46 Q1934.43 1723.46 1937.37 1725.87 Q1940.31 1728.28 1940.31 1732.42 Q1940.31 1735.38 1938.62 1737.44 Q1936.96 1739.5 1933.97 1740.25 Q1937.35 1741.03 1939.23 1743.32 Q1941.12 1745.62 1941.12 1748.93 Q1941.12 1753.95 1938.04 1756.63 Q1934.99 1759.32 1929.27 1759.32 Q1923.55 1759.32 1920.48 1756.63 Q1917.42 1753.95 1917.42 1748.93 Q1917.42 1745.62 1919.32 1743.32 Q1921.22 1741.03 1924.6 1740.25 M1922.88 1732.86 Q1922.88 1735.55 1924.55 1737.05 Q1926.24 1738.56 1929.27 1738.56 Q1932.28 1738.56 1933.97 1737.05 Q1935.68 1735.55 1935.68 1732.86 Q1935.68 1730.18 1933.97 1728.67 Q1932.28 1727.17 1929.27 1727.17 Q1926.24 1727.17 1924.55 1728.67 Q1922.88 1730.18 1922.88 1732.86 Z" fill="#9eb1be" fill-rule="nonzero" fill-opacity="1" /><path clip-path="url(#clip720)" d="M2456.61 1754.71 L2472.92 1754.71 L2472.92 1758.65 L2450.98 1758.65 L2450.98 1754.71 Q2453.64 1751.96 2458.23 1747.33 Q2462.83 1742.68 2464.01 1741.33 Q2466.26 1738.81 2467.14 1737.07 Q2468.04 1735.31 2468.04 1733.62 Q2468.04 1730.87 2466.1 1729.13 Q2464.17 1727.4 2461.07 1727.4 Q2458.87 1727.4 2456.42 1728.16 Q2453.99 1728.93 2451.21 1730.48 L2451.21 1725.75 Q2454.04 1724.62 2456.49 1724.04 Q2458.94 1723.46 2460.98 1723.46 Q2466.35 1723.46 2469.54 1726.15 Q2472.74 1728.83 2472.74 1733.32 Q2472.74 1735.45 2471.93 1737.37 Q2471.14 1739.27 2469.04 1741.87 Q2468.46 1742.54 2465.36 1745.75 Q2462.25 1748.95 2456.61 1754.71 Z" fill="#9eb1be" fill-rule="nonzero" fill-opacity="1" /><path clip-path="url(#clip720)" d="M2492.74 1727.17 Q2489.13 1727.17 2487.3 1730.73 Q2485.49 1734.27 2485.49 1741.4 Q2485.49 1748.51 2487.3 1752.07 Q2489.13 1755.62 2492.74 1755.62 Q2496.37 1755.62 2498.18 1752.07 Q2500.01 1748.51 2500.01 1741.4 Q2500.01 1734.27 2498.18 1730.73 Q2496.37 1727.17 2492.74 1727.17 M2492.74 1723.46 Q2498.55 1723.46 2501.6 1728.07 Q2504.68 1732.65 2504.68 1741.4 Q2504.68 1750.13 2501.6 1754.74 Q2498.55 1759.32 2492.74 1759.32 Q2486.93 1759.32 2483.85 1754.74 Q2480.79 1750.13 2480.79 1741.4 Q2480.79 1732.65 2483.85 1728.07 Q2486.93 1723.46 2492.74 1723.46 Z" fill="#9eb1be" fill-rule="nonzero" fill-opacity="1" /><path clip-path="url(#clip720)" d="M2516.93 1754.71 L2533.25 1754.71 L2533.25 1758.65 L2511.3 1758.65 L2511.3 1754.71 Q2513.97 1751.96 2518.55 1747.33 Q2523.16 1742.68 2524.34 1741.33 Q2526.58 1738.81 2527.46 1737.07 Q2528.36 1735.31 2528.36 1733.62 Q2528.36 1730.87 2526.42 1729.13 Q2524.5 1727.4 2521.4 1727.4 Q2519.2 1727.4 2516.74 1728.16 Q2514.31 1728.93 2511.54 1730.48 L2511.54 1725.75 Q2514.36 1724.62 2516.81 1724.04 Q2519.27 1723.46 2521.3 1723.46 Q2526.67 1723.46 2529.87 1726.15 Q2533.06 1728.83 2533.06 1733.32 Q2533.06 1735.45 2532.25 1737.37 Q2531.47 1739.27 2529.36 1741.87 Q2528.78 1742.54 2525.68 1745.75 Q2522.58 1748.95 2516.93 1754.71 Z" fill="#9eb1be" fill-rule="nonzero" fill-opacity="1" /><path clip-path="url(#clip720)" d="M2555.91 1728.16 L2544.1 1746.61 L2555.91 1746.61 L2555.91 1728.16 M2554.68 1724.09 L2560.56 1724.09 L2560.56 1746.61 L2565.49 1746.61 L2565.49 1750.5 L2560.56 1750.5 L2560.56 1758.65 L2555.91 1758.65 L2555.91 1750.5 L2540.31 1750.5 L2540.31 1745.99 L2554.68 1724.09 Z" fill="#9eb1be" fill-rule="nonzero" fill-opacity="1" /><path clip-path="url(#clip720)" d="M2570.47 1743.76 L2582.95 1743.76 L2582.95 1747.56 L2570.47 1747.56 L2570.47 1743.76 Z" fill="#9eb1be" fill-rule="nonzero" fill-opacity="1" /><path clip-path="url(#clip720)" d="M2600.33 1727.17 Q2596.72 1727.17 2594.89 1730.73 Q2593.09 1734.27 2593.09 1741.4 Q2593.09 1748.51 2594.89 1752.07 Q2596.72 1755.62 2600.33 1755.62 Q2603.97 1755.62 2605.77 1752.07 Q2607.6 1748.51 2607.6 1741.4 Q2607.6 1734.27 2605.77 1730.73 Q2603.97 1727.17 2600.33 1727.17 M2600.33 1723.46 Q2606.14 1723.46 2609.2 1728.07 Q2612.28 1732.65 2612.28 1741.4 Q2612.28 1750.13 2609.2 1754.74 Q2606.14 1759.32 2600.33 1759.32 Q2594.52 1759.32 2591.44 1754.74 Q2588.39 1750.13 2588.39 1741.4 Q2588.39 1732.65 2591.44 1728.07 Q2594.52 1723.46 2600.33 1723.46 Z" fill="#9eb1be" fill-rule="nonzero" fill-opacity="1" /><path clip-path="url(#clip720)" d="M2621.3 1754.71 L2628.94 1754.71 L2628.94 1728.35 L2620.63 1730.01 L2620.63 1725.75 L2628.9 1724.09 L2633.57 1724.09 L2633.57 1754.71 L2641.21 1754.71 L2641.21 1758.65 L2621.3 1758.65 L2621.3 1754.71 Z" fill="#9eb1be" fill-rule="nonzero" fill-opacity="1" /><path clip-path="url(#clip720)" d="M2647.9 1743.76 L2660.38 1743.76 L2660.38 1747.56 L2647.9 1747.56 L2647.9 1743.76 Z" fill="#9eb1be" fill-rule="nonzero" fill-opacity="1" /><path clip-path="url(#clip720)" d="M2671.79 1754.71 L2688.11 1754.71 L2688.11 1758.65 L2666.16 1758.65 L2666.16 1754.71 Q2668.83 1751.96 2673.41 1747.33 Q2678.02 1742.68 2679.2 1741.33 Q2681.44 1738.81 2682.32 1737.07 Q2683.22 1735.31 2683.22 1733.62 Q2683.22 1730.87 2681.28 1729.13 Q2679.36 1727.4 2676.26 1727.4 Q2674.06 1727.4 2671.6 1728.16 Q2669.17 1728.93 2666.4 1730.48 L2666.4 1725.75 Q2669.22 1724.62 2671.67 1724.04 Q2674.13 1723.46 2676.16 1723.46 Q2681.53 1723.46 2684.73 1726.15 Q2687.92 1728.83 2687.92 1733.32 Q2687.92 1735.45 2687.11 1737.37 Q2686.33 1739.27 2684.22 1741.87 Q2683.64 1742.54 2680.54 1745.75 Q2677.44 1748.95 2671.79 1754.71 Z" fill="#9eb1be" fill-rule="nonzero" fill-opacity="1" /><path clip-path="url(#clip720)" d="M2708.5 1739.5 Q2705.35 1739.5 2703.5 1741.66 Q2701.67 1743.81 2701.67 1747.56 Q2701.67 1751.29 2703.5 1753.46 Q2705.35 1755.62 2708.5 1755.62 Q2711.65 1755.62 2713.48 1753.46 Q2715.33 1751.29 2715.33 1747.56 Q2715.33 1743.81 2713.48 1741.66 Q2711.65 1739.5 2708.5 1739.5 M2717.78 1724.85 L2717.78 1729.11 Q2716.02 1728.28 2714.22 1727.84 Q2712.44 1727.4 2710.68 1727.4 Q2706.05 1727.4 2703.59 1730.52 Q2701.16 1733.65 2700.82 1739.97 Q2702.18 1737.95 2704.24 1736.89 Q2706.3 1735.8 2708.78 1735.8 Q2713.99 1735.8 2717 1738.97 Q2720.03 1742.12 2720.03 1747.56 Q2720.03 1752.88 2716.88 1756.1 Q2713.73 1759.32 2708.5 1759.32 Q2702.51 1759.32 2699.34 1754.74 Q2696.16 1750.13 2696.16 1741.4 Q2696.16 1733.21 2700.05 1728.35 Q2703.94 1723.46 2710.49 1723.46 Q2712.25 1723.46 2714.03 1723.81 Q2715.84 1724.16 2717.78 1724.85 Z" fill="#9eb1be" fill-rule="nonzero" fill-opacity="1" /><polyline clip-path="url(#clip720)" style="stroke:#adb2b7; stroke-linecap:round; stroke-linejoin:round; stroke-width:4; stroke-opacity:1; fill:none" points="164.598,1689.85 164.598,99.4421 "/>
<polyline clip-path="url(#clip720)" style="stroke:#adb2b7; stroke-linecap:round; stroke-linejoin:round; stroke-width:4; stroke-opacity:1; fill:none" points="164.598,1619.39 183.496,1619.39 "/>
<polyline clip-path="url(#clip720)" style="stroke:#adb2b7; stroke-linecap:round; stroke-linejoin:round; stroke-width:4; stroke-opacity:1; fill:none" points="164.598,1252.31 183.496,1252.31 "/>
<polyline clip-path="url(#clip720)" style="stroke:#adb2b7; stroke-linecap:round; stroke-linejoin:round; stroke-width:4; stroke-opacity:1; fill:none" points="164.598,885.231 183.496,885.231 "/>
<polyline clip-path="url(#clip720)" style="stroke:#adb2b7; stroke-linecap:round; stroke-linejoin:round; stroke-width:4; stroke-opacity:1; fill:none" points="164.598,518.15 183.496,518.15 "/>
<polyline clip-path="url(#clip720)" style="stroke:#adb2b7; stroke-linecap:round; stroke-linejoin:round; stroke-width:4; stroke-opacity:1; fill:none" points="164.598,151.069 183.496,151.069 "/>
<path clip-path="url(#clip720)" d="M59.4226 1605.19 Q55.8115 1605.19 53.9828 1608.76 Q52.1773 1612.3 52.1773 1619.43 Q52.1773 1626.53 53.9828 1630.1 Q55.8115 1633.64 59.4226 1633.64 Q63.0569 1633.64 64.8624 1630.1 Q66.6911 1626.53 66.6911 1619.43 Q66.6911 1612.3 64.8624 1608.76 Q63.0569 1605.19 59.4226 1605.19 M59.4226 1601.49 Q65.2328 1601.49 68.2883 1606.09 Q71.367 1610.68 71.367 1619.43 Q71.367 1628.15 68.2883 1632.76 Q65.2328 1637.34 59.4226 1637.34 Q53.6125 1637.34 50.5338 1632.76 Q47.4782 1628.15 47.4782 1619.43 Q47.4782 1610.68 50.5338 1606.09 Q53.6125 1601.49 59.4226 1601.49 Z" fill="#9eb1be" fill-rule="nonzero" fill-opacity="1" /><path clip-path="url(#clip720)" d="M79.5845 1630.79 L84.4688 1630.79 L84.4688 1636.67 L79.5845 1636.67 L79.5845 1630.79 Z" fill="#9eb1be" fill-rule="nonzero" fill-opacity="1" /><path clip-path="url(#clip720)" d="M104.654 1605.19 Q101.043 1605.19 99.2141 1608.76 Q97.4085 1612.3 97.4085 1619.43 Q97.4085 1626.53 99.2141 1630.1 Q101.043 1633.64 104.654 1633.64 Q108.288 1633.64 110.094 1630.1 Q111.922 1626.53 111.922 1619.43 Q111.922 1612.3 110.094 1608.76 Q108.288 1605.19 104.654 1605.19 M104.654 1601.49 Q110.464 1601.49 113.52 1606.09 Q116.598 1610.68 116.598 1619.43 Q116.598 1628.15 113.52 1632.76 Q110.464 1637.34 104.654 1637.34 Q98.8437 1637.34 95.765 1632.76 Q92.7095 1628.15 92.7095 1619.43 Q92.7095 1610.68 95.765 1606.09 Q98.8437 1601.49 104.654 1601.49 Z" fill="#9eb1be" fill-rule="nonzero" fill-opacity="1" /><path clip-path="url(#clip720)" d="M61.0198 1238.11 Q57.4087 1238.11 55.58 1241.68 Q53.7745 1245.22 53.7745 1252.35 Q53.7745 1259.45 55.58 1263.02 Q57.4087 1266.56 61.0198 1266.56 Q64.6541 1266.56 66.4596 1263.02 Q68.2883 1259.45 68.2883 1252.35 Q68.2883 1245.22 66.4596 1241.68 Q64.6541 1238.11 61.0198 1238.11 M61.0198 1234.41 Q66.83 1234.41 69.8855 1239.01 Q72.9642 1243.6 72.9642 1252.35 Q72.9642 1261.07 69.8855 1265.68 Q66.83 1270.26 61.0198 1270.26 Q55.2097 1270.26 52.131 1265.68 Q49.0754 1261.07 49.0754 1252.35 Q49.0754 1243.6 52.131 1239.01 Q55.2097 1234.41 61.0198 1234.41 Z" fill="#9eb1be" fill-rule="nonzero" fill-opacity="1" /><path clip-path="url(#clip720)" d="M81.1818 1263.71 L86.066 1263.71 L86.066 1269.59 L81.1818 1269.59 L81.1818 1263.71 Z" fill="#9eb1be" fill-rule="nonzero" fill-opacity="1" /><path clip-path="url(#clip720)" d="M100.279 1265.66 L116.598 1265.66 L116.598 1269.59 L94.6539 1269.59 L94.6539 1265.66 Q97.3159 1262.9 101.899 1258.27 Q106.506 1253.62 107.686 1252.28 Q109.932 1249.75 110.811 1248.02 Q111.714 1246.26 111.714 1244.57 Q111.714 1241.81 109.77 1240.08 Q107.848 1238.34 104.746 1238.34 Q102.547 1238.34 100.094 1239.11 Q97.6632 1239.87 94.8854 1241.42 L94.8854 1236.7 Q97.7094 1235.56 100.163 1234.99 Q102.617 1234.41 104.654 1234.41 Q110.024 1234.41 113.219 1237.09 Q116.413 1239.78 116.413 1244.27 Q116.413 1246.4 115.603 1248.32 Q114.816 1250.22 112.709 1252.81 Q112.131 1253.48 109.029 1256.7 Q105.927 1259.89 100.279 1265.66 Z" fill="#9eb1be" fill-rule="nonzero" fill-opacity="1" /><path clip-path="url(#clip720)" d="M58.9365 871.03 Q55.3254 871.03 53.4967 874.595 Q51.6912 878.136 51.6912 885.266 Q51.6912 892.372 53.4967 895.937 Q55.3254 899.479 58.9365 899.479 Q62.5707 899.479 64.3763 895.937 Q66.205 892.372 66.205 885.266 Q66.205 878.136 64.3763 874.595 Q62.5707 871.03 58.9365 871.03 M58.9365 867.326 Q64.7467 867.326 67.8022 871.933 Q70.8809 876.516 70.8809 885.266 Q70.8809 893.993 67.8022 898.599 Q64.7467 903.182 58.9365 903.182 Q53.1264 903.182 50.0477 898.599 Q46.9921 893.993 46.9921 885.266 Q46.9921 876.516 50.0477 871.933 Q53.1264 867.326 58.9365 867.326 Z" fill="#9eb1be" fill-rule="nonzero" fill-opacity="1" /><path clip-path="url(#clip720)" d="M79.0984 896.631 L83.9827 896.631 L83.9827 902.511 L79.0984 902.511 L79.0984 896.631 Z" fill="#9eb1be" fill-rule="nonzero" fill-opacity="1" /><path clip-path="url(#clip720)" d="M107.015 872.025 L95.2095 890.474 L107.015 890.474 L107.015 872.025 M105.788 867.951 L111.668 867.951 L111.668 890.474 L116.598 890.474 L116.598 894.363 L111.668 894.363 L111.668 902.511 L107.015 902.511 L107.015 894.363 L91.4132 894.363 L91.4132 889.849 L105.788 867.951 Z" fill="#9eb1be" fill-rule="nonzero" fill-opacity="1" /><path clip-path="url(#clip720)" d="M59.2606 503.949 Q55.6495 503.949 53.8208 507.514 Q52.0152 511.055 52.0152 518.185 Q52.0152 525.291 53.8208 528.856 Q55.6495 532.398 59.2606 532.398 Q62.8948 532.398 64.7004 528.856 Q66.5291 525.291 66.5291 518.185 Q66.5291 511.055 64.7004 507.514 Q62.8948 503.949 59.2606 503.949 M59.2606 500.245 Q65.0707 500.245 68.1263 504.852 Q71.205 509.435 71.205 518.185 Q71.205 526.912 68.1263 531.518 Q65.0707 536.102 59.2606 536.102 Q53.4504 536.102 50.3717 531.518 Q47.3162 526.912 47.3162 518.185 Q47.3162 509.435 50.3717 504.852 Q53.4504 500.245 59.2606 500.245 Z" fill="#9eb1be" fill-rule="nonzero" fill-opacity="1" /><path clip-path="url(#clip720)" d="M79.4225 529.551 L84.3067 529.551 L84.3067 535.43 L79.4225 535.43 L79.4225 529.551 Z" fill="#9eb1be" fill-rule="nonzero" fill-opacity="1" /><path clip-path="url(#clip720)" d="M105.071 516.287 Q101.922 516.287 100.071 518.44 Q98.2419 520.592 98.2419 524.342 Q98.2419 528.069 100.071 530.245 Q101.922 532.398 105.071 532.398 Q108.219 532.398 110.047 530.245 Q111.899 528.069 111.899 524.342 Q111.899 520.592 110.047 518.44 Q108.219 516.287 105.071 516.287 M114.353 501.634 L114.353 505.893 Q112.594 505.06 110.788 504.62 Q109.006 504.18 107.246 504.18 Q102.617 504.18 100.163 507.305 Q97.7326 510.43 97.3854 516.75 Q98.7511 514.736 100.811 513.671 Q102.871 512.583 105.348 512.583 Q110.557 512.583 113.566 515.754 Q116.598 518.903 116.598 524.342 Q116.598 529.666 113.45 532.884 Q110.302 536.102 105.071 536.102 Q99.0752 536.102 95.9039 531.518 Q92.7326 526.912 92.7326 518.185 Q92.7326 509.991 96.6215 505.129 Q100.51 500.245 107.061 500.245 Q108.82 500.245 110.603 500.592 Q112.408 500.94 114.353 501.634 Z" fill="#9eb1be" fill-rule="nonzero" fill-opacity="1" /><path clip-path="url(#clip720)" d="M59.5152 136.868 Q55.9041 136.868 54.0754 140.433 Q52.2699 143.975 52.2699 151.104 Q52.2699 158.211 54.0754 161.775 Q55.9041 165.317 59.5152 165.317 Q63.1494 165.317 64.955 161.775 Q66.7837 158.211 66.7837 151.104 Q66.7837 143.975 64.955 140.433 Q63.1494 136.868 59.5152 136.868 M59.5152 133.164 Q65.3254 133.164 68.3809 137.771 Q71.4596 142.354 71.4596 151.104 Q71.4596 159.831 68.3809 164.437 Q65.3254 169.021 59.5152 169.021 Q53.7051 169.021 50.6264 164.437 Q47.5708 159.831 47.5708 151.104 Q47.5708 142.354 50.6264 137.771 Q53.7051 133.164 59.5152 133.164 Z" fill="#9eb1be" fill-rule="nonzero" fill-opacity="1" /><path clip-path="url(#clip720)" d="M79.6771 162.47 L84.5614 162.47 L84.5614 168.349 L79.6771 168.349 L79.6771 162.47 Z" fill="#9eb1be" fill-rule="nonzero" fill-opacity="1" /><path clip-path="url(#clip720)" d="M104.746 151.937 Q101.413 151.937 99.4918 153.72 Q97.5937 155.502 97.5937 158.627 Q97.5937 161.752 99.4918 163.535 Q101.413 165.317 104.746 165.317 Q108.08 165.317 110.001 163.535 Q111.922 161.729 111.922 158.627 Q111.922 155.502 110.001 153.72 Q108.103 151.937 104.746 151.937 M100.071 149.947 Q97.0613 149.206 95.3715 147.146 Q93.7048 145.086 93.7048 142.123 Q93.7048 137.979 96.6446 135.572 Q99.6076 133.164 104.746 133.164 Q109.908 133.164 112.848 135.572 Q115.788 137.979 115.788 142.123 Q115.788 145.086 114.098 147.146 Q112.432 149.206 109.445 149.947 Q112.825 150.734 114.7 153.025 Q116.598 155.317 116.598 158.627 Q116.598 163.65 113.52 166.335 Q110.464 169.021 104.746 169.021 Q99.0289 169.021 95.9502 166.335 Q92.8947 163.65 92.8947 158.627 Q92.8947 155.317 94.7928 153.025 Q96.6909 150.734 100.071 149.947 M98.3576 142.562 Q98.3576 145.248 100.024 146.752 Q101.714 148.257 104.746 148.257 Q107.756 148.257 109.445 146.752 Q111.158 145.248 111.158 142.562 Q111.158 139.877 109.445 138.373 Q107.756 136.868 104.746 136.868 Q101.714 136.868 100.024 138.373 Q98.3576 139.877 98.3576 142.562 Z" fill="#9eb1be" fill-rule="nonzero" fill-opacity="1" /><path clip-path="url(#clip720)" d="M196.543 45.6768 L196.543 34.0739 L186.994 34.0739 L186.994 29.2707 L202.33 29.2707 L202.33 47.818 Q198.944 50.2196 194.864 51.4638 Q190.784 52.6791 186.155 52.6791 Q176.028 52.6791 170.298 46.7764 Q164.598 40.8447 164.598 30.2834 Q164.598 19.6932 170.298 13.7904 Q176.028 7.85875 186.155 7.85875 Q190.379 7.85875 194.17 8.90042 Q197.989 9.94208 201.201 11.9675 L201.201 18.1886 Q197.96 15.4397 194.315 14.0509 Q190.669 12.662 186.647 12.662 Q178.719 12.662 174.725 17.089 Q170.761 21.5161 170.761 30.2834 Q170.761 39.0218 174.725 43.4488 Q178.719 47.8759 186.647 47.8759 Q189.743 47.8759 192.173 47.3551 Q194.604 46.8053 196.543 45.6768 Z" fill="#adb2b7" fill-rule="nonzero" fill-opacity="1" /><path clip-path="url(#clip720)" d="M231.554 24.4096 Q230.657 23.8888 229.586 23.6573 Q228.545 23.3969 227.272 23.3969 Q222.758 23.3969 220.327 26.3482 Q217.925 29.2707 217.925 34.7683 L217.925 51.84 L212.573 51.84 L212.573 19.4328 L217.925 19.4328 L217.925 24.4675 Q219.604 21.5161 222.295 20.0983 Q224.986 18.6515 228.834 18.6515 Q229.384 18.6515 230.049 18.7383 Q230.715 18.7962 231.525 18.9409 L231.554 24.4096 Z" fill="#adb2b7" fill-rule="nonzero" fill-opacity="1" /><path clip-path="url(#clip720)" d="M248.394 23.1654 Q244.112 23.1654 241.623 26.5218 Q239.135 29.8494 239.135 35.6653 Q239.135 41.4813 241.594 44.8377 Q244.083 48.1653 248.394 48.1653 Q252.648 48.1653 255.136 44.8088 Q257.624 41.4523 257.624 35.6653 Q257.624 29.9072 255.136 26.5508 Q252.648 23.1654 248.394 23.1654 M248.394 18.6515 Q255.338 18.6515 259.303 23.1654 Q263.267 27.6792 263.267 35.6653 Q263.267 43.6225 259.303 48.1653 Q255.338 52.6791 248.394 52.6791 Q241.421 52.6791 237.457 48.1653 Q233.521 43.6225 233.521 35.6653 Q233.521 27.6792 237.457 23.1654 Q241.421 18.6515 248.394 18.6515 Z" fill="#adb2b7" fill-rule="nonzero" fill-opacity="1" /><path clip-path="url(#clip720)" d="M292.751 20.3876 L292.751 25.4223 Q290.495 24.2649 288.064 23.6862 Q285.633 23.1075 283.029 23.1075 Q279.065 23.1075 277.069 24.3228 Q275.101 25.5381 275.101 27.9686 Q275.101 29.8204 276.519 30.891 Q277.937 31.9327 282.219 32.8876 L284.042 33.2926 Q289.713 34.5079 292.086 36.7359 Q294.488 38.935 294.488 42.8991 Q294.488 47.4129 290.9 50.046 Q287.341 52.6791 281.091 52.6791 Q278.487 52.6791 275.651 52.1583 Q272.844 51.6664 269.719 50.6537 L269.719 45.156 Q272.671 46.6896 275.535 47.4708 Q278.4 48.2231 281.206 48.2231 Q284.968 48.2231 286.993 46.95 Q289.019 45.6479 289.019 43.3042 Q289.019 41.134 287.543 39.9766 Q286.096 38.8192 281.149 37.7486 L279.297 37.3146 Q274.349 36.273 272.15 34.1318 Q269.951 31.9616 269.951 28.2001 Q269.951 23.6283 273.191 21.1399 Q276.432 18.6515 282.393 18.6515 Q285.344 18.6515 287.948 19.0855 Q290.552 19.5196 292.751 20.3876 Z" fill="#adb2b7" fill-rule="nonzero" fill-opacity="1" /><path clip-path="url(#clip720)" d="M323.625 20.3876 L323.625 25.4223 Q321.368 24.2649 318.938 23.6862 Q316.507 23.1075 313.903 23.1075 Q309.939 23.1075 307.942 24.3228 Q305.975 25.5381 305.975 27.9686 Q305.975 29.8204 307.393 30.891 Q308.81 31.9327 313.093 32.8876 L314.916 33.2926 Q320.587 34.5079 322.96 36.7359 Q325.361 38.935 325.361 42.8991 Q325.361 47.4129 321.773 50.046 Q318.214 52.6791 311.964 52.6791 Q309.36 52.6791 306.525 52.1583 Q303.718 51.6664 300.593 50.6537 L300.593 45.156 Q303.544 46.6896 306.409 47.4708 Q309.273 48.2231 312.08 48.2231 Q315.842 48.2231 317.867 46.95 Q319.893 45.6479 319.893 43.3042 Q319.893 41.134 318.417 39.9766 Q316.97 38.8192 312.022 37.7486 L310.17 37.3146 Q305.222 36.273 303.023 34.1318 Q300.824 31.9616 300.824 28.2001 Q300.824 23.6283 304.065 21.1399 Q307.306 18.6515 313.266 18.6515 Q316.218 18.6515 318.822 19.0855 Q321.426 19.5196 323.625 20.3876 Z" fill="#adb2b7" fill-rule="nonzero" fill-opacity="1" /><path clip-path="url(#clip720)" d="M371.455 24.4096 Q370.558 23.8888 369.487 23.6573 Q368.446 23.3969 367.172 23.3969 Q362.659 23.3969 360.228 26.3482 Q357.826 29.2707 357.826 34.7683 L357.826 51.84 L352.473 51.84 L352.473 19.4328 L357.826 19.4328 L357.826 24.4675 Q359.505 21.5161 362.196 20.0983 Q364.887 18.6515 368.735 18.6515 Q369.285 18.6515 369.95 18.7383 Q370.616 18.7962 371.426 18.9409 L371.455 24.4096 Z" fill="#adb2b7" fill-rule="nonzero" fill-opacity="1" /><path clip-path="url(#clip720)" d="M403.457 34.3054 L403.457 36.9095 L378.978 36.9095 Q379.325 42.4072 382.276 45.3007 Q385.257 48.1653 390.552 48.1653 Q393.619 48.1653 396.484 47.4129 Q399.377 46.6606 402.213 45.156 L402.213 50.1907 Q399.348 51.406 396.339 52.0425 Q393.33 52.6791 390.234 52.6791 Q382.479 52.6791 377.936 48.1653 Q373.422 43.6514 373.422 35.9547 Q373.422 27.9975 377.705 23.339 Q382.016 18.6515 389.308 18.6515 Q395.847 18.6515 399.637 22.876 Q403.457 27.0716 403.457 34.3054 M398.133 32.7429 Q398.075 28.3737 395.673 25.7695 Q393.301 23.1654 389.366 23.1654 Q384.91 23.1654 382.219 25.6827 Q379.557 28.2001 379.151 32.7718 L398.133 32.7429 Z" fill="#adb2b7" fill-rule="nonzero" fill-opacity="1" /><path clip-path="url(#clip720)" d="M426.923 35.5496 Q420.471 35.5496 417.982 37.0253 Q415.494 38.501 415.494 42.06 Q415.494 44.8956 417.346 46.5738 Q419.226 48.2231 422.438 48.2231 Q426.865 48.2231 429.527 45.0981 Q432.218 41.9442 432.218 36.7359 L432.218 35.5496 L426.923 35.5496 M437.542 33.3505 L437.542 51.84 L432.218 51.84 L432.218 46.921 Q430.395 49.8724 427.676 51.2902 Q424.956 52.6791 421.02 52.6791 Q416.044 52.6791 413.092 49.9014 Q410.17 47.0947 410.17 42.4072 Q410.17 36.9385 413.816 34.1607 Q417.49 31.3829 424.753 31.3829 L432.218 31.3829 L432.218 30.8621 Q432.218 27.1874 429.788 25.1908 Q427.386 23.1654 423.017 23.1654 Q420.239 23.1654 417.606 23.8309 Q414.973 24.4964 412.543 25.8274 L412.543 20.9085 Q415.465 19.78 418.214 19.2302 Q420.963 18.6515 423.567 18.6515 Q430.598 18.6515 434.07 22.2973 Q437.542 25.9431 437.542 33.3505 Z" fill="#adb2b7" fill-rule="nonzero" fill-opacity="1" /><path clip-path="url(#clip720)" d="M448.509 6.81709 L453.833 6.81709 L453.833 51.84 L448.509 51.84 L448.509 6.81709 Z" fill="#adb2b7" fill-rule="nonzero" fill-opacity="1" /><path clip-path="url(#clip720)" d="M464.973 19.4328 L470.297 19.4328 L470.297 51.84 L464.973 51.84 L464.973 19.4328 M464.973 6.81709 L470.297 6.81709 L470.297 13.559 L464.973 13.559 L464.973 6.81709 Z" fill="#adb2b7" fill-rule="nonzero" fill-opacity="1" /><path clip-path="url(#clip720)" d="M479.122 19.4328 L504.411 19.4328 L504.411 24.2939 L484.388 47.5866 L504.411 47.5866 L504.411 51.84 L478.399 51.84 L478.399 46.9789 L498.422 23.6862 L479.122 23.6862 L479.122 19.4328 Z" fill="#adb2b7" fill-rule="nonzero" fill-opacity="1" /><path clip-path="url(#clip720)" d="M540.262 34.3054 L540.262 36.9095 L515.783 36.9095 Q516.13 42.4072 519.081 45.3007 Q522.062 48.1653 527.357 48.1653 Q530.424 48.1653 533.288 47.4129 Q536.182 46.6606 539.018 45.156 L539.018 50.1907 Q536.153 51.406 533.144 52.0425 Q530.134 52.6791 527.038 52.6791 Q519.284 52.6791 514.741 48.1653 Q510.227 43.6514 510.227 35.9547 Q510.227 27.9975 514.51 23.339 Q518.821 18.6515 526.113 18.6515 Q532.652 18.6515 536.442 22.876 Q540.262 27.0716 540.262 34.3054 M534.938 32.7429 Q534.88 28.3737 532.478 25.7695 Q530.106 23.1654 526.17 23.1654 Q521.714 23.1654 519.023 25.6827 Q516.361 28.2001 515.956 32.7718 L534.938 32.7429 Z" fill="#adb2b7" fill-rule="nonzero" fill-opacity="1" /><path clip-path="url(#clip720)" d="M570.325 24.3517 L570.325 6.81709 L575.649 6.81709 L575.649 51.84 L570.325 51.84 L570.325 46.9789 Q568.647 49.8724 566.072 51.2902 Q563.525 52.6791 559.938 52.6791 Q554.064 52.6791 550.36 47.9916 Q546.685 43.3042 546.685 35.6653 Q546.685 28.0265 550.36 23.339 Q554.064 18.6515 559.938 18.6515 Q563.525 18.6515 566.072 20.0693 Q568.647 21.4582 570.325 24.3517 M552.183 35.6653 Q552.183 41.5391 554.585 44.8956 Q557.015 48.2231 561.24 48.2231 Q565.464 48.2231 567.895 44.8956 Q570.325 41.5391 570.325 35.6653 Q570.325 29.7915 567.895 26.464 Q565.464 23.1075 561.24 23.1075 Q557.015 23.1075 554.585 26.464 Q552.183 29.7915 552.183 35.6653 Z" fill="#adb2b7" fill-rule="nonzero" fill-opacity="1" /><path clip-path="url(#clip720)" d="M628.774 20.677 L628.774 25.6538 Q626.517 24.4096 624.231 23.802 Q621.974 23.1654 619.659 23.1654 Q614.48 23.1654 611.616 26.464 Q608.751 29.7336 608.751 35.6653 Q608.751 41.597 611.616 44.8956 Q614.48 48.1653 619.659 48.1653 Q621.974 48.1653 624.231 47.5576 Q626.517 46.921 628.774 45.6768 L628.774 50.5958 Q626.546 51.6375 624.144 52.1583 Q621.772 52.6791 619.081 52.6791 Q611.76 52.6791 607.449 48.0784 Q603.138 43.4778 603.138 35.6653 Q603.138 27.7371 607.478 23.1943 Q611.847 18.6515 619.428 18.6515 Q621.887 18.6515 624.231 19.1724 Q626.575 19.6642 628.774 20.677 Z" fill="#adb2b7" fill-rule="nonzero" fill-opacity="1" /><path clip-path="url(#clip720)" d="M637.483 39.0507 L637.483 19.4328 L642.807 19.4328 L642.807 38.8482 Q642.807 43.4488 644.601 45.7636 Q646.395 48.0495 649.983 48.0495 Q654.295 48.0495 656.783 45.3007 Q659.3 42.5519 659.3 37.8065 L659.3 19.4328 L664.624 19.4328 L664.624 51.84 L659.3 51.84 L659.3 46.8632 Q657.362 49.8145 654.787 51.2613 Q652.24 52.6791 648.855 52.6791 Q643.27 52.6791 640.377 49.2069 Q637.483 45.7347 637.483 39.0507 M650.88 18.6515 L650.88 18.6515 Z" fill="#adb2b7" fill-rule="nonzero" fill-opacity="1" /><path clip-path="url(#clip720)" d="M700.822 25.6538 Q702.819 22.0659 705.596 20.3587 Q708.374 18.6515 712.136 18.6515 Q717.199 18.6515 719.948 22.2105 Q722.697 25.7406 722.697 32.2799 L722.697 51.84 L717.344 51.84 L717.344 32.4535 Q717.344 27.795 715.695 25.5381 Q714.046 23.2811 710.66 23.2811 Q706.522 23.2811 704.121 26.03 Q701.719 28.7788 701.719 33.5241 L701.719 51.84 L696.366 51.84 L696.366 32.4535 Q696.366 27.7661 694.717 25.5381 Q693.068 23.2811 689.624 23.2811 Q685.545 23.2811 683.143 26.0589 Q680.741 28.8077 680.741 33.5241 L680.741 51.84 L675.388 51.84 L675.388 19.4328 L680.741 19.4328 L680.741 24.4675 Q682.564 21.4872 685.11 20.0693 Q687.657 18.6515 691.158 18.6515 Q694.688 18.6515 697.147 20.4455 Q699.636 22.2395 700.822 25.6538 Z" fill="#adb2b7" fill-rule="nonzero" fill-opacity="1" /><path clip-path="url(#clip720)" d="M732.766 39.0507 L732.766 19.4328 L738.091 19.4328 L738.091 38.8482 Q738.091 43.4488 739.885 45.7636 Q741.678 48.0495 745.266 48.0495 Q749.578 48.0495 752.066 45.3007 Q754.583 42.5519 754.583 37.8065 L754.583 19.4328 L759.908 19.4328 L759.908 51.84 L754.583 51.84 L754.583 46.8632 Q752.645 49.8145 750.07 51.2613 Q747.523 52.6791 744.138 52.6791 Q738.553 52.6791 735.66 49.2069 Q732.766 45.7347 732.766 39.0507 M746.163 18.6515 L746.163 18.6515 Z" fill="#adb2b7" fill-rule="nonzero" fill-opacity="1" /><path clip-path="url(#clip720)" d="M770.874 6.81709 L776.198 6.81709 L776.198 51.84 L770.874 51.84 L770.874 6.81709 Z" fill="#adb2b7" fill-rule="nonzero" fill-opacity="1" /><path clip-path="url(#clip720)" d="M802.066 35.5496 Q795.613 35.5496 793.125 37.0253 Q790.637 38.501 790.637 42.06 Q790.637 44.8956 792.488 46.5738 Q794.369 48.2231 797.581 48.2231 Q802.008 48.2231 804.67 45.0981 Q807.361 41.9442 807.361 36.7359 L807.361 35.5496 L802.066 35.5496 M812.685 33.3505 L812.685 51.84 L807.361 51.84 L807.361 46.921 Q805.538 49.8724 802.818 51.2902 Q800.098 52.6791 796.163 52.6791 Q791.186 52.6791 788.235 49.9014 Q785.313 47.0947 785.313 42.4072 Q785.313 36.9385 788.958 34.1607 Q792.633 31.3829 799.896 31.3829 L807.361 31.3829 L807.361 30.8621 Q807.361 27.1874 804.93 25.1908 Q802.529 23.1654 798.16 23.1654 Q795.382 23.1654 792.749 23.8309 Q790.116 24.4964 787.685 25.8274 L787.685 20.9085 Q790.608 19.78 793.356 19.2302 Q796.105 18.6515 798.709 18.6515 Q805.741 18.6515 809.213 22.2973 Q812.685 25.9431 812.685 33.3505 Z" fill="#adb2b7" fill-rule="nonzero" fill-opacity="1" /><path clip-path="url(#clip720)" d="M828.918 10.2314 L828.918 19.4328 L839.884 19.4328 L839.884 23.5705 L828.918 23.5705 L828.918 41.163 Q828.918 45.1271 829.988 46.2555 Q831.088 47.384 834.415 47.384 L839.884 47.384 L839.884 51.84 L834.415 51.84 Q828.252 51.84 825.908 49.5541 Q823.565 47.2393 823.565 41.163 L823.565 23.5705 L819.658 23.5705 L819.658 19.4328 L823.565 19.4328 L823.565 10.2314 L828.918 10.2314 Z" fill="#adb2b7" fill-rule="nonzero" fill-opacity="1" /><path clip-path="url(#clip720)" d="M846.886 19.4328 L852.21 19.4328 L852.21 51.84 L846.886 51.84 L846.886 19.4328 M846.886 6.81709 L852.21 6.81709 L852.21 13.559 L846.886 13.559 L846.886 6.81709 Z" fill="#adb2b7" fill-rule="nonzero" fill-opacity="1" /><path clip-path="url(#clip720)" d="M859.531 19.4328 L865.173 19.4328 L875.3 46.6317 L885.428 19.4328 L891.07 19.4328 L878.917 51.84 L871.684 51.84 L859.531 19.4328 Z" fill="#adb2b7" fill-rule="nonzero" fill-opacity="1" /><path clip-path="url(#clip720)" d="M926.139 34.3054 L926.139 36.9095 L901.66 36.9095 Q902.007 42.4072 904.959 45.3007 Q907.939 48.1653 913.234 48.1653 Q916.301 48.1653 919.166 47.4129 Q922.059 46.6606 924.895 45.156 L924.895 50.1907 Q922.031 51.406 919.021 52.0425 Q916.012 52.6791 912.916 52.6791 Q905.161 52.6791 900.619 48.1653 Q896.105 43.6514 896.105 35.9547 Q896.105 27.9975 900.387 23.339 Q904.698 18.6515 911.99 18.6515 Q918.529 18.6515 922.32 22.876 Q926.139 27.0716 926.139 34.3054 M920.815 32.7429 Q920.757 28.3737 918.356 25.7695 Q915.983 23.1654 912.048 23.1654 Q907.592 23.1654 904.901 25.6827 Q902.239 28.2001 901.834 32.7718 L920.815 32.7429 Z" fill="#adb2b7" fill-rule="nonzero" fill-opacity="1" /><path clip-path="url(#clip720)" d="M972.493 24.4096 Q971.596 23.8888 970.526 23.6573 Q969.484 23.3969 968.211 23.3969 Q963.697 23.3969 961.266 26.3482 Q958.865 29.2707 958.865 34.7683 L958.865 51.84 L953.512 51.84 L953.512 19.4328 L958.865 19.4328 L958.865 24.4675 Q960.543 21.5161 963.234 20.0983 Q965.925 18.6515 969.773 18.6515 Q970.323 18.6515 970.989 18.7383 Q971.654 18.7962 972.464 18.9409 L972.493 24.4096 Z" fill="#adb2b7" fill-rule="nonzero" fill-opacity="1" /><path clip-path="url(#clip720)" d="M1004.5 34.3054 L1004.5 36.9095 L980.016 36.9095 Q980.364 42.4072 983.315 45.3007 Q986.295 48.1653 991.59 48.1653 Q994.657 48.1653 997.522 47.4129 Q1000.42 46.6606 1003.25 45.156 L1003.25 50.1907 Q1000.39 51.406 997.377 52.0425 Q994.368 52.6791 991.272 52.6791 Q983.517 52.6791 978.975 48.1653 Q974.461 43.6514 974.461 35.9547 Q974.461 27.9975 978.743 23.339 Q983.054 18.6515 990.346 18.6515 Q996.885 18.6515 1000.68 22.876 Q1004.5 27.0716 1004.5 34.3054 M999.171 32.7429 Q999.113 28.3737 996.712 25.7695 Q994.339 23.1654 990.404 23.1654 Q985.948 23.1654 983.257 25.6827 Q980.595 28.2001 980.19 32.7718 L999.171 32.7429 Z" fill="#adb2b7" fill-rule="nonzero" fill-opacity="1" /><path clip-path="url(#clip720)" d="M1018.5 10.2314 L1018.5 19.4328 L1029.47 19.4328 L1029.47 23.5705 L1018.5 23.5705 L1018.5 41.163 Q1018.5 45.1271 1019.57 46.2555 Q1020.67 47.384 1024 47.384 L1029.47 47.384 L1029.47 51.84 L1024 51.84 Q1017.83 51.84 1015.49 49.5541 Q1013.15 47.2393 1013.15 41.163 L1013.15 23.5705 L1009.24 23.5705 L1009.24 19.4328 L1013.15 19.4328 L1013.15 10.2314 L1018.5 10.2314 Z" fill="#adb2b7" fill-rule="nonzero" fill-opacity="1" /><path clip-path="url(#clip720)" d="M1035.92 39.0507 L1035.92 19.4328 L1041.24 19.4328 L1041.24 38.8482 Q1041.24 43.4488 1043.04 45.7636 Q1044.83 48.0495 1048.42 48.0495 Q1052.73 48.0495 1055.22 45.3007 Q1057.74 42.5519 1057.74 37.8065 L1057.74 19.4328 L1063.06 19.4328 L1063.06 51.84 L1057.74 51.84 L1057.74 46.8632 Q1055.8 49.8145 1053.22 51.2613 Q1050.68 52.6791 1047.29 52.6791 Q1041.71 52.6791 1038.81 49.2069 Q1035.92 45.7347 1035.92 39.0507 M1049.32 18.6515 L1049.32 18.6515 Z" fill="#adb2b7" fill-rule="nonzero" fill-opacity="1" /><path clip-path="url(#clip720)" d="M1092.81 24.4096 Q1091.91 23.8888 1090.84 23.6573 Q1089.8 23.3969 1088.52 23.3969 Q1084.01 23.3969 1081.58 26.3482 Q1079.18 29.2707 1079.18 34.7683 L1079.18 51.84 L1073.82 51.84 L1073.82 19.4328 L1079.18 19.4328 L1079.18 24.4675 Q1080.85 21.5161 1083.55 20.0983 Q1086.24 18.6515 1090.09 18.6515 Q1090.63 18.6515 1091.3 18.7383 Q1091.97 18.7962 1092.78 18.9409 L1092.81 24.4096 Z" fill="#adb2b7" fill-rule="nonzero" fill-opacity="1" /><path clip-path="url(#clip720)" d="M1124.29 32.2799 L1124.29 51.84 L1118.96 51.84 L1118.96 32.4535 Q1118.96 27.8529 1117.17 25.567 Q1115.37 23.2811 1111.79 23.2811 Q1107.48 23.2811 1104.99 26.03 Q1102.5 28.7788 1102.5 33.5241 L1102.5 51.84 L1097.15 51.84 L1097.15 19.4328 L1102.5 19.4328 L1102.5 24.4675 Q1104.41 21.545 1106.98 20.0983 Q1109.59 18.6515 1112.97 18.6515 Q1118.56 18.6515 1121.42 22.1237 Q1124.29 25.567 1124.29 32.2799 Z" fill="#adb2b7" fill-rule="nonzero" fill-opacity="1" /><path clip-path="url(#clip720)" d="M1155.57 20.3876 L1155.57 25.4223 Q1153.31 24.2649 1150.88 23.6862 Q1148.45 23.1075 1145.84 23.1075 Q1141.88 23.1075 1139.88 24.3228 Q1137.91 25.5381 1137.91 27.9686 Q1137.91 29.8204 1139.33 30.891 Q1140.75 31.9327 1145.03 32.8876 L1146.86 33.2926 Q1152.53 34.5079 1154.9 36.7359 Q1157.3 38.935 1157.3 42.8991 Q1157.3 47.4129 1153.71 50.046 Q1150.15 52.6791 1143.9 52.6791 Q1141.3 52.6791 1138.46 52.1583 Q1135.66 51.6664 1132.53 50.6537 L1132.53 45.156 Q1135.48 46.6896 1138.35 47.4708 Q1141.21 48.2231 1144.02 48.2231 Q1147.78 48.2231 1149.81 46.95 Q1151.83 45.6479 1151.83 43.3042 Q1151.83 41.134 1150.36 39.9766 Q1148.91 38.8192 1143.96 37.7486 L1142.11 37.3146 Q1137.16 36.273 1134.96 34.1318 Q1132.76 31.9616 1132.76 28.2001 Q1132.76 23.6283 1136.01 21.1399 Q1139.25 18.6515 1145.21 18.6515 Q1148.16 18.6515 1150.76 19.0855 Q1153.37 19.5196 1155.57 20.3876 Z" fill="#adb2b7" fill-rule="nonzero" fill-opacity="1" /><path clip-path="url(#clip720)" d="M1207.88 35.6653 Q1207.88 29.7915 1205.45 26.464 Q1203.05 23.1075 1198.82 23.1075 Q1194.6 23.1075 1192.17 26.464 Q1189.77 29.7915 1189.77 35.6653 Q1189.77 41.5391 1192.17 44.8956 Q1194.6 48.2231 1198.82 48.2231 Q1203.05 48.2231 1205.45 44.8956 Q1207.88 41.5391 1207.88 35.6653 M1189.77 24.3517 Q1191.44 21.4582 1193.99 20.0693 Q1196.57 18.6515 1200.13 18.6515 Q1206.03 18.6515 1209.7 23.339 Q1213.41 28.0265 1213.41 35.6653 Q1213.41 43.3042 1209.7 47.9916 Q1206.03 52.6791 1200.13 52.6791 Q1196.57 52.6791 1193.99 51.2902 Q1191.44 49.8724 1189.77 46.9789 L1189.77 51.84 L1184.41 51.84 L1184.41 6.81709 L1189.77 6.81709 L1189.77 24.3517 Z" fill="#adb2b7" fill-rule="nonzero" fill-opacity="1" /><path clip-path="url(#clip720)" d="M1235.72 54.8492 Q1233.46 60.6362 1231.32 62.4013 Q1229.18 64.1663 1225.59 64.1663 L1221.33 64.1663 L1221.33 59.7103 L1224.46 59.7103 Q1226.66 59.7103 1227.87 58.6687 Q1229.09 57.627 1230.56 53.7497 L1231.52 51.3192 L1218.41 19.4328 L1224.05 19.4328 L1234.18 44.7799 L1244.31 19.4328 L1249.95 19.4328 L1235.72 54.8492 Z" fill="#adb2b7" fill-rule="nonzero" fill-opacity="1" /><path clip-path="url(#clip720)" d="M1273.04 19.4328 L1278.37 19.4328 L1285.02 44.722 L1291.65 19.4328 L1297.93 19.4328 L1304.58 44.722 L1311.21 19.4328 L1316.53 19.4328 L1308.05 51.84 L1301.77 51.84 L1294.8 25.2776 L1287.8 51.84 L1281.52 51.84 L1273.04 19.4328 Z" fill="#adb2b7" fill-rule="nonzero" fill-opacity="1" /><path clip-path="url(#clip720)" d="M1352.32 34.3054 L1352.32 36.9095 L1327.84 36.9095 Q1328.19 42.4072 1331.14 45.3007 Q1334.12 48.1653 1339.42 48.1653 Q1342.49 48.1653 1345.35 47.4129 Q1348.24 46.6606 1351.08 45.156 L1351.08 50.1907 Q1348.21 51.406 1345.21 52.0425 Q1342.2 52.6791 1339.1 52.6791 Q1331.35 52.6791 1326.8 48.1653 Q1322.29 43.6514 1322.29 35.9547 Q1322.29 27.9975 1326.57 23.339 Q1330.88 18.6515 1338.17 18.6515 Q1344.71 18.6515 1348.5 22.876 Q1352.32 27.0716 1352.32 34.3054 M1347 32.7429 Q1346.94 28.3737 1344.54 25.7695 Q1342.17 23.1654 1338.23 23.1654 Q1333.78 23.1654 1331.09 25.6827 Q1328.42 28.2001 1328.02 32.7718 L1347 32.7429 Z" fill="#adb2b7" fill-rule="nonzero" fill-opacity="1" /><path clip-path="url(#clip720)" d="M1388.78 34.3054 L1388.78 36.9095 L1364.3 36.9095 Q1364.65 42.4072 1367.6 45.3007 Q1370.58 48.1653 1375.88 48.1653 Q1378.94 48.1653 1381.81 47.4129 Q1384.7 46.6606 1387.54 45.156 L1387.54 50.1907 Q1384.67 51.406 1381.66 52.0425 Q1378.65 52.6791 1375.56 52.6791 Q1367.8 52.6791 1363.26 48.1653 Q1358.75 43.6514 1358.75 35.9547 Q1358.75 27.9975 1363.03 23.339 Q1367.34 18.6515 1374.63 18.6515 Q1381.17 18.6515 1384.96 22.876 Q1388.78 27.0716 1388.78 34.3054 M1383.46 32.7429 Q1383.4 28.3737 1381 25.7695 Q1378.63 23.1654 1374.69 23.1654 Q1370.23 23.1654 1367.54 25.6827 Q1364.88 28.2001 1364.48 32.7718 L1383.46 32.7429 Z" fill="#adb2b7" fill-rule="nonzero" fill-opacity="1" /><path clip-path="url(#clip720)" d="M1397.32 6.81709 L1402.67 6.81709 L1402.67 33.4084 L1418.56 19.4328 L1425.36 19.4328 L1408.17 34.5947 L1426.08 51.84 L1419.13 51.84 L1402.67 36.0125 L1402.67 51.84 L1397.32 51.84 L1397.32 6.81709 Z" fill="#adb2b7" fill-rule="nonzero" fill-opacity="1" /><path clip-path="url(#clip720)" d="M1453.16 24.3517 L1453.16 6.81709 L1458.49 6.81709 L1458.49 51.84 L1453.16 51.84 L1453.16 46.9789 Q1451.48 49.8724 1448.91 51.2902 Q1446.36 52.6791 1442.77 52.6791 Q1436.9 52.6791 1433.2 47.9916 Q1429.52 43.3042 1429.52 35.6653 Q1429.52 28.0265 1433.2 23.339 Q1436.9 18.6515 1442.77 18.6515 Q1446.36 18.6515 1448.91 20.0693 Q1451.48 21.4582 1453.16 24.3517 M1435.02 35.6653 Q1435.02 41.5391 1437.42 44.8956 Q1439.85 48.2231 1444.08 48.2231 Q1448.3 48.2231 1450.73 44.8956 Q1453.16 41.5391 1453.16 35.6653 Q1453.16 29.7915 1450.73 26.464 Q1448.3 23.1075 1444.08 23.1075 Q1439.85 23.1075 1437.42 26.464 Q1435.02 29.7915 1435.02 35.6653 Z" fill="#adb2b7" fill-rule="nonzero" fill-opacity="1" /><path clip-path="url(#clip720)" d="M1484.18 35.5496 Q1477.73 35.5496 1475.24 37.0253 Q1472.75 38.501 1472.75 42.06 Q1472.75 44.8956 1474.6 46.5738 Q1476.48 48.2231 1479.7 48.2231 Q1484.12 48.2231 1486.78 45.0981 Q1489.48 41.9442 1489.48 36.7359 L1489.48 35.5496 L1484.18 35.5496 M1494.8 33.3505 L1494.8 51.84 L1489.48 51.84 L1489.48 46.921 Q1487.65 49.8724 1484.93 51.2902 Q1482.21 52.6791 1478.28 52.6791 Q1473.3 52.6791 1470.35 49.9014 Q1467.43 47.0947 1467.43 42.4072 Q1467.43 36.9385 1471.07 34.1607 Q1474.75 31.3829 1482.01 31.3829 L1489.48 31.3829 L1489.48 30.8621 Q1489.48 27.1874 1487.04 25.1908 Q1484.64 23.1654 1480.27 23.1654 Q1477.5 23.1654 1474.86 23.8309 Q1472.23 24.4964 1469.8 25.8274 L1469.8 20.9085 Q1472.72 19.78 1475.47 19.2302 Q1478.22 18.6515 1480.82 18.6515 Q1487.86 18.6515 1491.33 22.2973 Q1494.8 25.9431 1494.8 33.3505 Z" fill="#adb2b7" fill-rule="nonzero" fill-opacity="1" /><path clip-path="url(#clip720)" d="M1519.25 54.8492 Q1516.99 60.6362 1514.85 62.4013 Q1512.71 64.1663 1509.12 64.1663 L1504.87 64.1663 L1504.87 59.7103 L1507.99 59.7103 Q1510.19 59.7103 1511.41 58.6687 Q1512.62 57.627 1514.1 53.7497 L1515.05 51.3192 L1501.95 19.4328 L1507.59 19.4328 L1517.72 44.7799 L1527.84 19.4328 L1533.49 19.4328 L1519.25 54.8492 Z" fill="#adb2b7" fill-rule="nonzero" fill-opacity="1" /><polyline clip-path="url(#clip721)" style="stroke:#fe4365; stroke-linecap:round; stroke-linejoin:round; stroke-width:4; stroke-opacity:1; fill:none" points="849.477,1619.28 853.533,1627.54 873.814,1631.33 894.095,1633.31 922.488,1626.37 926.544,1623.25 1518.74,1603 1522.8,1585.14 1526.85,1572.25 1543.08,1566.66 1547.13,1562.19 1575.53,1543.41 1583.64,1530.48 1587.69,1520.19 2196.12,1520.94 2200.17,1523.96 2204.23,1530.76 2240.73,1525.84 2252.9,1515.71 2256.96,1510.14 2277.24,1496.36 2289.41,1478.02 2893.77,1463.97 2901.88,1454.03 2905.94,1445.44 2918.11,1431.15 2922.16,1425.88 2934.33,1406.06 2942.45,1384.31 2946.5,1365.21 2962.73,1338.72 "/>
<polyline clip-path="url(#clip721)" style="stroke:#eca25c; stroke-linecap:round; stroke-linejoin:round; stroke-width:4; stroke-opacity:1; fill:none" points="249.169,1621.27 257.281,1624.22 289.73,1626.46 293.786,1631.63 297.842,1638.86 305.955,1639.93 310.011,1644.84 326.235,1643.88 942.769,1631.91 946.825,1624.02 954.937,1617.69 958.993,1616.64 979.274,1617.86 983.33,1618.93 987.386,1626.36 1015.78,1605.25 1019.84,1589.14 1616.09,1591.49 1636.37,1593.26 1644.48,1593.76 1652.59,1587.55 1656.65,1582.37 1660.71,1579.24 1664.76,1581.28 1676.93,1577.03 1680.99,1584.62 1701.27,1579.44 2293.46,1564.08 2305.63,1547.49 2313.74,1528.22 2321.86,1506.55 2338.08,1477.91 2342.14,1450.05 2346.19,1424.89 2366.47,1392.49 2378.64,1358.1 2382.7,1323.31 2386.75,1290.19 2978.95,1261.45 2995.17,1226.91 2999.23,1195.41 3003.29,1174.26 3015.46,1178.14 3023.57,1178.22 3035.74,1174.27 3039.79,1180.3 3051.96,1180.33 3068.19,1161.48 "/>
<polyline clip-path="url(#clip721)" style="stroke:#3f9778; stroke-linecap:round; stroke-linejoin:round; stroke-width:4; stroke-opacity:1; fill:none" points="346.516,1599.35 362.741,1570.54 366.797,1541.16 370.853,1515.46 378.965,1485.48 399.246,1436.63 415.47,1371.46 431.695,1295.12 439.807,1212.6 1040.12,1183.77 1068.51,1128.69 1072.56,1078.54 1080.68,1022.55 1088.79,966.967 1092.85,910.595 1113.13,850.2 1117.18,792.178 1121.24,737.725 1709.38,726.956 1729.66,695.673 1762.11,635.574 1774.28,570.483 1778.33,507.446 1790.5,433.383 1802.67,345.49 2390.81,302.805 2419.2,286.383 2423.26,271.505 2435.43,253.408 2439.48,236.477 2443.54,223.488 2447.6,214.545 2467.88,187.89 2480.05,165.143 2484.1,144.454 "/>
<polyline clip-path="url(#clip721)" style="stroke:#005d7f; stroke-linecap:round; stroke-linejoin:round; stroke-width:4; stroke-opacity:1; fill:none" points="447.92,1550.09 484.425,1466.53 496.593,1380.9 500.649,1291.79 508.762,1199.06 512.818,1105.65 529.042,1113.22 537.155,1111.54 1137.46,1113.58 1141.52,1116.36 1145.58,1119.1 1161.8,1116.91 1173.97,1112.57 1182.08,1113.22 1206.42,1110.33 1214.53,1111.72 1806.73,1047.9 1814.84,976.425 1818.89,907.418 1822.95,837.33 1827.01,768.821 1835.12,707.941 1851.34,701.174 1867.57,681.098 1871.62,661.001 1875.68,641.824 1879.74,626.29 1887.85,615.438 1891.91,606.69 1895.96,602.154 2496.27,606.351 2512.49,598.879 2516.55,595.841 2520.61,595.122 2536.83,596.581 2540.89,607.536 2553.06,607.101 2569.28,590.072 "/>
<polyline clip-path="url(#clip721)" style="stroke:#00a8ff; stroke-linecap:round; stroke-linejoin:round; stroke-width:4; stroke-opacity:1; fill:none" points="541.211,1620.55 561.491,1609.26 565.548,1599.82 573.66,1588.73 581.772,1580.16 593.941,1568.82 606.109,1559.3 614.221,1548.44 626.39,1530.71 1234.81,1535.54 1238.87,1541.39 1242.92,1548.25 1246.98,1555.75 1259.15,1563.15 1299.71,1548.47 1303.76,1535.71 1307.82,1529.6 1315.93,1522.34 1920.3,1509.78 1928.41,1501.76 1932.47,1495.48 1940.58,1488.27 1944.63,1483.1 1948.69,1480.19 1956.8,1478.5 1964.92,1480.34 1985.2,1477.47 1989.25,1483 2597.67,1456.22 2601.73,1430.04 2609.84,1399.22 2626.07,1357.15 2634.18,1314.75 2638.23,1277.78 2642.29,1245.1 2646.35,1215.62 2658.52,1215.18 "/>
<polyline clip-path="url(#clip721)" style="stroke:#dc3df1; stroke-linecap:round; stroke-linejoin:round; stroke-width:4; stroke-opacity:1; fill:none" points="638.558,1594.9 642.614,1570.81 650.727,1542.27 658.839,1519.07 662.895,1495.76 671.007,1475.66 687.232,1472.88 691.288,1472.44 1319.99,1468.84 1336.21,1470.9 1388.94,1470 1397.06,1469.47 1401.11,1472.47 1409.22,1471.74 1413.28,1472.22 2001.42,1477.86 2009.53,1480.8 2017.65,1479.12 2029.81,1470.93 2037.93,1461.01 2050.09,1450.04 2058.21,1438.13 2066.32,1425.64 2078.49,1412.69 2082.54,1400.27 2682.85,1380.54 2686.91,1366.85 2690.96,1355.43 2699.08,1344.99 2707.19,1349.58 2719.36,1361.08 2723.41,1364.3 2735.58,1363.54 2739.64,1362.66 2751.81,1354.28 2755.86,1349.16 2759.92,1345.44 "/>
<polyline clip-path="url(#clip721)" style="stroke:#759500; stroke-linecap:round; stroke-linejoin:round; stroke-width:4; stroke-opacity:1; fill:none" points="735.905,1614.63 739.962,1616.88 756.186,1619.85 776.467,1611.18 780.523,1603.62 784.579,1596.48 788.635,1594.41 792.691,1593.68 800.804,1594.43 804.86,1595.58 808.916,1603.39 1425.45,1607.16 1433.56,1610.32 1445.73,1610.56 1453.84,1611.04 1457.9,1611.55 1466.01,1616.2 1490.35,1593.01 1494.4,1571.19 1510.63,1550.77 2102.82,1530.76 2123.1,1500.38 2135.27,1465.68 2139.33,1430.44 2159.61,1391.49 2171.78,1354.18 2175.83,1317.01 2188,1279.03 2788.31,1254.75 2804.54,1220.37 2816.7,1184.91 2836.99,1143.92 2853.21,1099.66 2861.32,1058.34 2869.43,1014.35 2873.49,978.829 "/>
<path clip-path="url(#clip720)" d="M2962.73 1321.44 L2969.69 1321.44 L2978.51 1344.96 L2987.38 1321.44 L2994.35 1321.44 L2994.35 1356 L2989.79 1356 L2989.79 1325.65 L2980.87 1349.36 L2976.17 1349.36 L2967.26 1325.65 L2967.26 1356 L2962.73 1356 L2962.73 1321.44 Z" fill="#fe4365" fill-rule="nonzero" fill-opacity="1" /><path clip-path="url(#clip720)" d="M3013.49 1333.06 Q3010.06 1333.06 3008.07 1335.75 Q3006.08 1338.41 3006.08 1343.06 Q3006.08 1347.71 3008.05 1350.4 Q3010.04 1353.06 3013.49 1353.06 Q3016.89 1353.06 3018.88 1350.38 Q3020.87 1347.69 3020.87 1343.06 Q3020.87 1338.46 3018.88 1335.77 Q3016.89 1333.06 3013.49 1333.06 M3013.49 1329.45 Q3019.04 1329.45 3022.22 1333.06 Q3025.39 1336.67 3025.39 1343.06 Q3025.39 1349.43 3022.22 1353.06 Q3019.04 1356.67 3013.49 1356.67 Q3007.91 1356.67 3004.74 1353.06 Q3001.59 1349.43 3001.59 1343.06 Q3001.59 1336.67 3004.74 1333.06 Q3007.91 1329.45 3013.49 1329.45 Z" fill="#fe4365" fill-rule="nonzero" fill-opacity="1" /><path clip-path="url(#clip720)" d="M3054 1340.35 L3054 1356 L3049.74 1356 L3049.74 1340.49 Q3049.74 1336.81 3048.3 1334.98 Q3046.87 1333.15 3044 1333.15 Q3040.55 1333.15 3038.56 1335.35 Q3036.57 1337.55 3036.57 1341.35 L3036.57 1356 L3032.29 1356 L3032.29 1330.08 L3036.57 1330.08 L3036.57 1334.1 Q3038.1 1331.77 3040.16 1330.61 Q3042.24 1329.45 3044.95 1329.45 Q3049.42 1329.45 3051.71 1332.23 Q3054 1334.98 3054 1340.35 Z" fill="#fe4365" fill-rule="nonzero" fill-opacity="1" /><path clip-path="url(#clip720)" d="M3068.19 1144.2 L3097.42 1144.2 L3097.42 1148.14 L3085.15 1148.14 L3085.15 1178.76 L3080.45 1178.76 L3080.45 1148.14 L3068.19 1148.14 L3068.19 1144.2 Z" fill="#eca25c" fill-rule="nonzero" fill-opacity="1" /><path clip-path="url(#clip720)" d="M3094.11 1168.53 L3094.11 1152.84 L3098.37 1152.84 L3098.37 1168.37 Q3098.37 1172.05 3099.81 1173.9 Q3101.24 1175.73 3104.11 1175.73 Q3107.56 1175.73 3109.55 1173.53 Q3111.56 1171.33 3111.56 1167.53 L3111.56 1152.84 L3115.82 1152.84 L3115.82 1178.76 L3111.56 1178.76 L3111.56 1174.78 Q3110.01 1177.14 3107.95 1178.3 Q3105.92 1179.43 3103.21 1179.43 Q3098.74 1179.43 3096.43 1176.65 Q3094.11 1173.88 3094.11 1168.53 M3104.83 1152.21 L3104.83 1152.21 Z" fill="#eca25c" fill-rule="nonzero" fill-opacity="1" /><path clip-path="url(#clip720)" d="M3146.77 1164.73 L3146.77 1166.82 L3127.19 1166.82 Q3127.47 1171.21 3129.83 1173.53 Q3132.21 1175.82 3136.45 1175.82 Q3138.9 1175.82 3141.19 1175.22 Q3143.51 1174.62 3145.78 1173.41 L3145.78 1177.44 Q3143.49 1178.41 3141.08 1178.92 Q3138.67 1179.43 3136.19 1179.43 Q3129.99 1179.43 3126.36 1175.82 Q3122.75 1172.21 3122.75 1166.05 Q3122.75 1159.69 3126.17 1155.96 Q3129.62 1152.21 3135.45 1152.21 Q3140.69 1152.21 3143.72 1155.59 Q3146.77 1158.95 3146.77 1164.73 M3142.51 1163.48 Q3142.47 1159.99 3140.55 1157.9 Q3138.65 1155.82 3135.5 1155.82 Q3131.94 1155.82 3129.78 1157.84 Q3127.65 1159.85 3127.33 1163.51 L3142.51 1163.48 Z" fill="#eca25c" fill-rule="nonzero" fill-opacity="1" /><path clip-path="url(#clip720)" d="M2484.1 127.174 L2488.82 127.174 L2496.09 156.386 L2503.34 127.174 L2508.59 127.174 L2515.86 156.386 L2523.11 127.174 L2527.85 127.174 L2519.17 161.734 L2513.29 161.734 L2506 131.734 L2498.64 161.734 L2492.76 161.734 L2484.1 127.174 Z" fill="#3f9778" fill-rule="nonzero" fill-opacity="1" /><path clip-path="url(#clip720)" d="M2553.27 147.706 L2553.27 149.789 L2533.68 149.789 Q2533.96 154.187 2536.32 156.502 Q2538.71 158.794 2542.94 158.794 Q2545.4 158.794 2547.69 158.192 Q2550 157.59 2552.27 156.386 L2552.27 160.414 Q2549.98 161.386 2547.57 161.896 Q2545.17 162.405 2542.69 162.405 Q2536.49 162.405 2532.85 158.794 Q2529.24 155.183 2529.24 149.025 Q2529.24 142.66 2532.67 138.933 Q2536.11 135.183 2541.95 135.183 Q2547.18 135.183 2550.21 138.562 Q2553.27 141.919 2553.27 147.706 M2549.01 146.456 Q2548.96 142.961 2547.04 140.877 Q2545.14 138.794 2541.99 138.794 Q2538.43 138.794 2536.28 140.808 Q2534.15 142.822 2533.82 146.479 L2549.01 146.456 Z" fill="#3f9778" fill-rule="nonzero" fill-opacity="1" /><path clip-path="url(#clip720)" d="M2577.32 139.743 L2577.32 125.715 L2581.58 125.715 L2581.58 161.734 L2577.32 161.734 L2577.32 157.845 Q2575.98 160.16 2573.92 161.294 Q2571.88 162.405 2569.01 162.405 Q2564.31 162.405 2561.35 158.655 Q2558.41 154.905 2558.41 148.794 Q2558.41 142.683 2561.35 138.933 Q2564.31 135.183 2569.01 135.183 Q2571.88 135.183 2573.92 136.317 Q2575.98 137.428 2577.32 139.743 M2562.8 148.794 Q2562.8 153.493 2564.73 156.178 Q2566.67 158.84 2570.05 158.84 Q2573.43 158.84 2575.37 156.178 Q2577.32 153.493 2577.32 148.794 Q2577.32 144.095 2575.37 141.433 Q2573.43 138.748 2570.05 138.748 Q2566.67 138.748 2564.73 141.433 Q2562.8 144.095 2562.8 148.794 Z" fill="#3f9778" fill-rule="nonzero" fill-opacity="1" /><path clip-path="url(#clip720)" d="M2569.28 572.792 L2598.52 572.792 L2598.52 576.727 L2586.25 576.727 L2586.25 607.352 L2581.55 607.352 L2581.55 576.727 L2569.28 576.727 L2569.28 572.792 Z" fill="#005d7f" fill-rule="nonzero" fill-opacity="1" /><path clip-path="url(#clip720)" d="M2624.4 591.704 L2624.4 607.352 L2620.14 607.352 L2620.14 591.842 Q2620.14 588.162 2618.7 586.333 Q2617.27 584.504 2614.4 584.504 Q2610.95 584.504 2608.96 586.704 Q2606.97 588.903 2606.97 592.699 L2606.97 607.352 L2602.68 607.352 L2602.68 571.333 L2606.97 571.333 L2606.97 585.454 Q2608.49 583.116 2610.55 581.958 Q2612.64 580.801 2615.34 580.801 Q2619.81 580.801 2622.1 583.579 Q2624.4 586.333 2624.4 591.704 Z" fill="#005d7f" fill-rule="nonzero" fill-opacity="1" /><path clip-path="url(#clip720)" d="M2632.45 597.12 L2632.45 581.426 L2636.71 581.426 L2636.71 596.958 Q2636.71 600.639 2638.15 602.491 Q2639.58 604.319 2642.45 604.319 Q2645.9 604.319 2647.89 602.12 Q2649.9 599.921 2649.9 596.125 L2649.9 581.426 L2654.16 581.426 L2654.16 607.352 L2649.9 607.352 L2649.9 603.37 Q2648.35 605.731 2646.29 606.889 Q2644.26 608.023 2641.55 608.023 Q2637.08 608.023 2634.77 605.245 Q2632.45 602.467 2632.45 597.12 M2643.17 580.801 L2643.17 580.801 Z" fill="#005d7f" fill-rule="nonzero" fill-opacity="1" /><path clip-path="url(#clip720)" d="M2658.52 1197.9 L2678.38 1197.9 L2678.38 1201.83 L2663.19 1201.83 L2663.19 1212.02 L2676.89 1212.02 L2676.89 1215.95 L2663.19 1215.95 L2663.19 1232.46 L2658.52 1232.46 L2658.52 1197.9 Z" fill="#00a8ff" fill-rule="nonzero" fill-opacity="1" /><path clip-path="url(#clip720)" d="M2697.17 1210.51 Q2696.45 1210.1 2695.6 1209.91 Q2694.77 1209.7 2693.75 1209.7 Q2690.14 1209.7 2688.19 1212.06 Q2686.27 1214.4 2686.27 1218.8 L2686.27 1232.46 L2681.99 1232.46 L2681.99 1206.53 L2686.27 1206.53 L2686.27 1210.56 Q2687.61 1208.2 2689.77 1207.06 Q2691.92 1205.91 2695 1205.91 Q2695.44 1205.91 2695.97 1205.98 Q2696.5 1206.02 2697.15 1206.14 L2697.17 1210.51 Z" fill="#00a8ff" fill-rule="nonzero" fill-opacity="1" /><path clip-path="url(#clip720)" d="M2701.64 1206.53 L2705.9 1206.53 L2705.9 1232.46 L2701.64 1232.46 L2701.64 1206.53 M2701.64 1196.44 L2705.9 1196.44 L2705.9 1201.83 L2701.64 1201.83 L2701.64 1196.44 Z" fill="#00a8ff" fill-rule="nonzero" fill-opacity="1" /><path clip-path="url(#clip720)" d="M2782.16 1329.29 L2782.16 1333.85 Q2779.5 1332.58 2777.14 1331.96 Q2774.78 1331.33 2772.58 1331.33 Q2768.76 1331.33 2766.68 1332.81 Q2764.62 1334.29 2764.62 1337.03 Q2764.62 1339.32 2765.98 1340.5 Q2767.37 1341.66 2771.22 1342.37 L2774.04 1342.95 Q2779.27 1343.95 2781.75 1346.47 Q2784.25 1348.97 2784.25 1353.18 Q2784.25 1358.21 2780.87 1360.8 Q2777.51 1363.39 2771.01 1363.39 Q2768.55 1363.39 2765.78 1362.84 Q2763.02 1362.28 2760.06 1361.19 L2760.06 1356.38 Q2762.9 1357.97 2765.64 1358.79 Q2768.37 1359.6 2771.01 1359.6 Q2775.01 1359.6 2777.19 1358.02 Q2779.36 1356.45 2779.36 1353.53 Q2779.36 1350.98 2777.79 1349.55 Q2776.24 1348.11 2772.67 1347.4 L2769.83 1346.84 Q2764.59 1345.8 2762.26 1343.58 Q2759.92 1341.35 2759.92 1337.4 Q2759.92 1332.81 2763.14 1330.17 Q2766.38 1327.54 2772.05 1327.54 Q2774.48 1327.54 2777 1327.98 Q2779.53 1328.41 2782.16 1329.29 Z" fill="#dc3df1" fill-rule="nonzero" fill-opacity="1" /><path clip-path="url(#clip720)" d="M2803.14 1349.69 Q2797.97 1349.69 2795.98 1350.87 Q2793.99 1352.05 2793.99 1354.9 Q2793.99 1357.16 2795.47 1358.51 Q2796.98 1359.83 2799.55 1359.83 Q2803.09 1359.83 2805.22 1357.33 Q2807.37 1354.8 2807.37 1350.64 L2807.37 1349.69 L2803.14 1349.69 M2811.63 1347.93 L2811.63 1362.72 L2807.37 1362.72 L2807.37 1358.79 Q2805.91 1361.15 2803.74 1362.28 Q2801.56 1363.39 2798.41 1363.39 Q2794.43 1363.39 2792.07 1361.17 Q2789.73 1358.92 2789.73 1355.17 Q2789.73 1350.8 2792.65 1348.58 Q2795.59 1346.35 2801.4 1346.35 L2807.37 1346.35 L2807.37 1345.94 Q2807.37 1343 2805.43 1341.4 Q2803.51 1339.78 2800.01 1339.78 Q2797.79 1339.78 2795.68 1340.31 Q2793.58 1340.85 2791.63 1341.91 L2791.63 1337.98 Q2793.97 1337.07 2796.17 1336.63 Q2798.37 1336.17 2800.45 1336.17 Q2806.08 1336.17 2808.85 1339.09 Q2811.63 1342 2811.63 1347.93 Z" fill="#dc3df1" fill-rule="nonzero" fill-opacity="1" /><path clip-path="url(#clip720)" d="M2824.62 1329.43 L2824.62 1336.79 L2833.39 1336.79 L2833.39 1340.1 L2824.62 1340.1 L2824.62 1354.18 Q2824.62 1357.35 2825.47 1358.25 Q2826.35 1359.16 2829.02 1359.16 L2833.39 1359.16 L2833.39 1362.72 L2829.02 1362.72 Q2824.09 1362.72 2822.21 1360.89 Q2820.34 1359.04 2820.34 1354.18 L2820.34 1340.1 L2817.21 1340.1 L2817.21 1336.79 L2820.34 1336.79 L2820.34 1329.43 L2824.62 1329.43 Z" fill="#dc3df1" fill-rule="nonzero" fill-opacity="1" /><path clip-path="url(#clip720)" d="M2895.74 962.684 L2895.74 967.244 Q2893.07 965.971 2890.71 965.346 Q2888.35 964.721 2886.15 964.721 Q2882.33 964.721 2880.25 966.202 Q2878.19 967.684 2878.19 970.415 Q2878.19 972.707 2879.56 973.887 Q2880.94 975.045 2884.79 975.762 L2887.61 976.341 Q2892.84 977.336 2895.32 979.86 Q2897.82 982.36 2897.82 986.572 Q2897.82 991.596 2894.44 994.188 Q2891.08 996.781 2884.58 996.781 Q2882.12 996.781 2879.35 996.225 Q2876.59 995.67 2873.63 994.582 L2873.63 989.767 Q2876.48 991.364 2879.21 992.174 Q2881.94 992.985 2884.58 992.985 Q2888.58 992.985 2890.76 991.41 Q2892.94 989.836 2892.94 986.92 Q2892.94 984.373 2891.36 982.938 Q2889.81 981.503 2886.25 980.785 L2883.4 980.23 Q2878.17 979.188 2875.83 976.966 Q2873.49 974.744 2873.49 970.786 Q2873.49 966.202 2876.71 963.563 Q2879.95 960.924 2885.62 960.924 Q2888.05 960.924 2890.57 961.364 Q2893.1 961.804 2895.74 962.684 Z" fill="#759500" fill-rule="nonzero" fill-opacity="1" /><path clip-path="url(#clip720)" d="M2904.49 985.878 L2904.49 970.184 L2908.75 970.184 L2908.75 985.716 Q2908.75 989.397 2910.18 991.248 Q2911.62 993.077 2914.49 993.077 Q2917.93 993.077 2919.93 990.878 Q2921.94 988.679 2921.94 984.883 L2921.94 970.184 L2926.2 970.184 L2926.2 996.109 L2921.94 996.109 L2921.94 992.128 Q2920.39 994.489 2918.33 995.647 Q2916.29 996.781 2913.58 996.781 Q2909.12 996.781 2906.8 994.003 Q2904.49 991.225 2904.49 985.878 M2915.2 969.559 L2915.2 969.559 Z" fill="#759500" fill-rule="nonzero" fill-opacity="1" /><path clip-path="url(#clip720)" d="M2956.52 980.461 L2956.52 996.109 L2952.26 996.109 L2952.26 980.6 Q2952.26 976.92 2950.83 975.091 Q2949.39 973.262 2946.52 973.262 Q2943.07 973.262 2941.08 975.461 Q2939.09 977.661 2939.09 981.457 L2939.09 996.109 L2934.81 996.109 L2934.81 970.184 L2939.09 970.184 L2939.09 974.211 Q2940.62 971.874 2942.68 970.716 Q2944.76 969.559 2947.47 969.559 Q2951.94 969.559 2954.23 972.336 Q2956.52 975.091 2956.52 980.461 Z" fill="#759500" fill-rule="nonzero" fill-opacity="1" /></svg>
