<?xml version="1.0" encoding="utf-8"?>
<svg xmlns="http://www.w3.org/2000/svg" xmlns:xlink="http://www.w3.org/1999/xlink" width="800" height="450" viewBox="0 0 3200 1800">
<defs>
  <clipPath id="clip750">
    <rect x="0" y="0" width="3200" height="1800"/>
  </clipPath>
</defs>
<path clip-path="url(#clip750)" d="M0 1800 L3200 1800 L3200 0 L0 0  Z" fill="#282c34" fill-rule="evenodd" fill-opacity="1"/>
<defs>
  <clipPath id="clip751">
    <rect x="164" y="99" width="2989" height="1591"/>
  </clipPath>
</defs>
<path clip-path="url(#clip750)" d="M164.598 1689.85 L3152.76 1689.85 L3152.76 99.4421 L164.598 99.4421  Z" fill="#21252b" fill-rule="evenodd" fill-opacity="1"/>
<polyline clip-path="url(#clip751)" style="stroke:#adb2b7; stroke-linecap:round; stroke-linejoin:round; stroke-width:2; stroke-opacity:0.1; fill:none" points="189.19,1689.85 189.19,99.4421 "/>
<polyline clip-path="url(#clip751)" style="stroke:#adb2b7; stroke-linecap:round; stroke-linejoin:round; stroke-width:2; stroke-opacity:0.1; fill:none" points="788.98,1689.85 788.98,99.4421 "/>
<polyline clip-path="url(#clip751)" style="stroke:#adb2b7; stroke-linecap:round; stroke-linejoin:round; stroke-width:2; stroke-opacity:0.1; fill:none" points="1388.77,1689.85 1388.77,99.4421 "/>
<polyline clip-path="url(#clip751)" style="stroke:#adb2b7; stroke-linecap:round; stroke-linejoin:round; stroke-width:2; stroke-opacity:0.1; fill:none" points="1988.56,1689.85 1988.56,99.4421 "/>
<polyline clip-path="url(#clip751)" style="stroke:#adb2b7; stroke-linecap:round; stroke-linejoin:round; stroke-width:2; stroke-opacity:0.1; fill:none" points="2588.35,1689.85 2588.35,99.4421 "/>
<polyline clip-path="url(#clip751)" style="stroke:#adb2b7; stroke-linecap:round; stroke-linejoin:round; stroke-width:2; stroke-opacity:0.1; fill:none" points="164.598,1619.39 3152.76,1619.39 "/>
<polyline clip-path="url(#clip751)" style="stroke:#adb2b7; stroke-linecap:round; stroke-linejoin:round; stroke-width:2; stroke-opacity:0.1; fill:none" points="164.598,1252.31 3152.76,1252.31 "/>
<polyline clip-path="url(#clip751)" style="stroke:#adb2b7; stroke-linecap:round; stroke-linejoin:round; stroke-width:2; stroke-opacity:0.1; fill:none" points="164.598,885.231 3152.76,885.231 "/>
<polyline clip-path="url(#clip751)" style="stroke:#adb2b7; stroke-linecap:round; stroke-linejoin:round; stroke-width:2; stroke-opacity:0.1; fill:none" points="164.598,518.15 3152.76,518.15 "/>
<polyline clip-path="url(#clip751)" style="stroke:#adb2b7; stroke-linecap:round; stroke-linejoin:round; stroke-width:2; stroke-opacity:0.1; fill:none" points="164.598,151.069 3152.76,151.069 "/>
<polyline clip-path="url(#clip750)" style="stroke:#adb2b7; stroke-linecap:round; stroke-linejoin:round; stroke-width:4; stroke-opacity:1; fill:none" points="164.598,1689.85 3152.76,1689.85 "/>
<polyline clip-path="url(#clip750)" style="stroke:#adb2b7; stroke-linecap:round; stroke-linejoin:round; stroke-width:4; stroke-opacity:1; fill:none" points="189.19,1689.85 189.19,1670.95 "/>
<polyline clip-path="url(#clip750)" style="stroke:#adb2b7; stroke-linecap:round; stroke-linejoin:round; stroke-width:4; stroke-opacity:1; fill:none" points="788.98,1689.85 788.98,1670.95 "/>
<polyline clip-path="url(#clip750)" style="stroke:#adb2b7; stroke-linecap:round; stroke-linejoin:round; stroke-width:4; stroke-opacity:1; fill:none" points="1388.77,1689.85 1388.77,1670.95 "/>
<polyline clip-path="url(#clip750)" style="stroke:#adb2b7; stroke-linecap:round; stroke-linejoin:round; stroke-width:4; stroke-opacity:1; fill:none" points="1988.56,1689.85 1988.56,1670.95 "/>
<polyline clip-path="url(#clip750)" style="stroke:#adb2b7; stroke-linecap:round; stroke-linejoin:round; stroke-width:4; stroke-opacity:1; fill:none" points="2588.35,1689.85 2588.35,1670.95 "/>
<path clip-path="url(#clip750)" d="M189.19 1727.17 Q185.579 1727.17 183.75 1730.73 Q181.944 1734.27 181.944 1741.4 Q181.944 1748.51 183.75 1752.07 Q185.579 1755.62 189.19 1755.62 Q192.824 1755.62 194.629 1752.07 Q196.458 1748.51 196.458 1741.4 Q196.458 1734.27 194.629 1730.73 Q192.824 1727.17 189.19 1727.17 M189.19 1723.46 Q195 1723.46 198.055 1728.07 Q201.134 1732.65 201.134 1741.4 Q201.134 1750.13 198.055 1754.74 Q195 1759.32 189.19 1759.32 Q183.38 1759.32 180.301 1754.74 Q177.245 1750.13 177.245 1741.4 Q177.245 1732.65 180.301 1728.07 Q183.38 1723.46 189.19 1723.46 Z" fill="#9eb1be" fill-rule="nonzero" fill-opacity="1" /><path clip-path="url(#clip750)" d="M763.668 1754.71 L771.307 1754.71 L771.307 1728.35 L762.997 1730.01 L762.997 1725.75 L771.261 1724.09 L775.937 1724.09 L775.937 1754.71 L783.575 1754.71 L783.575 1758.65 L763.668 1758.65 L763.668 1754.71 Z" fill="#9eb1be" fill-rule="nonzero" fill-opacity="1" /><path clip-path="url(#clip750)" d="M803.02 1727.17 Q799.409 1727.17 797.58 1730.73 Q795.774 1734.27 795.774 1741.4 Q795.774 1748.51 797.58 1752.07 Q799.409 1755.62 803.02 1755.62 Q806.654 1755.62 808.459 1752.07 Q810.288 1748.51 810.288 1741.4 Q810.288 1734.27 808.459 1730.73 Q806.654 1727.17 803.02 1727.17 M803.02 1723.46 Q808.83 1723.46 811.885 1728.07 Q814.964 1732.65 814.964 1741.4 Q814.964 1750.13 811.885 1754.74 Q808.83 1759.32 803.02 1759.32 Q797.21 1759.32 794.131 1754.74 Q791.075 1750.13 791.075 1741.4 Q791.075 1732.65 794.131 1728.07 Q797.21 1723.46 803.02 1723.46 Z" fill="#9eb1be" fill-rule="nonzero" fill-opacity="1" /><path clip-path="url(#clip750)" d="M1367.54 1754.71 L1383.86 1754.71 L1383.86 1758.65 L1361.92 1758.65 L1361.92 1754.71 Q1364.58 1751.96 1369.16 1747.33 Q1373.77 1742.68 1374.95 1741.33 Q1377.2 1738.81 1378.08 1737.07 Q1378.98 1735.31 1378.98 1733.62 Q1378.98 1730.87 1377.04 1729.13 Q1375.11 1727.4 1372.01 1727.4 Q1369.81 1727.4 1367.36 1728.16 Q1364.93 1728.93 1362.15 1730.48 L1362.15 1725.75 Q1364.98 1724.62 1367.43 1724.04 Q1369.88 1723.46 1371.92 1723.46 Q1377.29 1723.46 1380.48 1726.15 Q1383.68 1728.83 1383.68 1733.32 Q1383.68 1735.45 1382.87 1737.37 Q1382.08 1739.27 1379.97 1741.87 Q1379.4 1742.54 1376.29 1745.75 Q1373.19 1748.95 1367.54 1754.71 Z" fill="#9eb1be" fill-rule="nonzero" fill-opacity="1" /><path clip-path="url(#clip750)" d="M1403.68 1727.17 Q1400.07 1727.17 1398.24 1730.73 Q1396.43 1734.27 1396.43 1741.4 Q1396.43 1748.51 1398.24 1752.07 Q1400.07 1755.62 1403.68 1755.62 Q1407.31 1755.62 1409.12 1752.07 Q1410.95 1748.51 1410.95 1741.4 Q1410.95 1734.27 1409.12 1730.73 Q1407.31 1727.17 1403.68 1727.17 M1403.68 1723.46 Q1409.49 1723.46 1412.54 1728.07 Q1415.62 1732.65 1415.62 1741.4 Q1415.62 1750.13 1412.54 1754.74 Q1409.49 1759.32 1403.68 1759.32 Q1397.87 1759.32 1394.79 1754.74 Q1391.73 1750.13 1391.73 1741.4 Q1391.73 1732.65 1394.79 1728.07 Q1397.87 1723.46 1403.68 1723.46 Z" fill="#9eb1be" fill-rule="nonzero" fill-opacity="1" /><path clip-path="url(#clip750)" d="M1977.4 1740.01 Q1980.76 1740.73 1982.64 1743 Q1984.53 1745.27 1984.53 1748.6 Q1984.53 1753.72 1981.02 1756.52 Q1977.5 1759.32 1971.02 1759.32 Q1968.84 1759.32 1966.53 1758.88 Q1964.23 1758.46 1961.78 1757.61 L1961.78 1753.09 Q1963.72 1754.23 1966.04 1754.81 Q1968.35 1755.38 1970.88 1755.38 Q1975.28 1755.38 1977.57 1753.65 Q1979.88 1751.91 1979.88 1748.6 Q1979.88 1745.55 1977.73 1743.83 Q1975.6 1742.1 1971.78 1742.1 L1967.75 1742.1 L1967.75 1738.25 L1971.96 1738.25 Q1975.41 1738.25 1977.24 1736.89 Q1979.07 1735.5 1979.07 1732.91 Q1979.07 1730.25 1977.17 1728.83 Q1975.3 1727.4 1971.78 1727.4 Q1969.86 1727.4 1967.66 1727.81 Q1965.46 1728.23 1962.82 1729.11 L1962.82 1724.94 Q1965.48 1724.2 1967.8 1723.83 Q1970.14 1723.46 1972.2 1723.46 Q1977.52 1723.46 1980.62 1725.89 Q1983.72 1728.3 1983.72 1732.42 Q1983.72 1735.29 1982.08 1737.28 Q1980.44 1739.25 1977.4 1740.01 Z" fill="#9eb1be" fill-rule="nonzero" fill-opacity="1" /><path clip-path="url(#clip750)" d="M2003.4 1727.17 Q1999.79 1727.17 1997.96 1730.73 Q1996.15 1734.27 1996.15 1741.4 Q1996.15 1748.51 1997.96 1752.07 Q1999.79 1755.62 2003.4 1755.62 Q2007.03 1755.62 2008.84 1752.07 Q2010.67 1748.51 2010.67 1741.4 Q2010.67 1734.27 2008.84 1730.73 Q2007.03 1727.17 2003.4 1727.17 M2003.4 1723.46 Q2009.21 1723.46 2012.27 1728.07 Q2015.34 1732.65 2015.34 1741.4 Q2015.34 1750.13 2012.27 1754.74 Q2009.21 1759.32 2003.4 1759.32 Q1997.59 1759.32 1994.51 1754.74 Q1991.46 1750.13 1991.46 1741.4 Q1991.46 1732.65 1994.51 1728.07 Q1997.59 1723.46 2003.4 1723.46 Z" fill="#9eb1be" fill-rule="nonzero" fill-opacity="1" /><path clip-path="url(#clip750)" d="M2576.52 1728.16 L2564.72 1746.61 L2576.52 1746.61 L2576.52 1728.16 M2575.3 1724.09 L2581.18 1724.09 L2581.18 1746.61 L2586.11 1746.61 L2586.11 1750.5 L2581.18 1750.5 L2581.18 1758.65 L2576.52 1758.65 L2576.52 1750.5 L2560.92 1750.5 L2560.92 1745.99 L2575.3 1724.09 Z" fill="#9eb1be" fill-rule="nonzero" fill-opacity="1" /><path clip-path="url(#clip750)" d="M2603.84 1727.17 Q2600.23 1727.17 2598.4 1730.73 Q2596.59 1734.27 2596.59 1741.4 Q2596.59 1748.51 2598.4 1752.07 Q2600.23 1755.62 2603.84 1755.62 Q2607.47 1755.62 2609.28 1752.07 Q2611.11 1748.51 2611.11 1741.4 Q2611.11 1734.27 2609.28 1730.73 Q2607.47 1727.17 2603.84 1727.17 M2603.84 1723.46 Q2609.65 1723.46 2612.7 1728.07 Q2615.78 1732.65 2615.78 1741.4 Q2615.78 1750.13 2612.7 1754.74 Q2609.65 1759.32 2603.84 1759.32 Q2598.03 1759.32 2594.95 1754.74 Q2591.89 1750.13 2591.89 1741.4 Q2591.89 1732.65 2594.95 1728.07 Q2598.03 1723.46 2603.84 1723.46 Z" fill="#9eb1be" fill-rule="nonzero" fill-opacity="1" /><polyline clip-path="url(#clip750)" style="stroke:#adb2b7; stroke-linecap:round; stroke-linejoin:round; stroke-width:4; stroke-opacity:1; fill:none" points="164.598,1689.85 164.598,99.4421 "/>
<polyline clip-path="url(#clip750)" style="stroke:#adb2b7; stroke-linecap:round; stroke-linejoin:round; stroke-width:4; stroke-opacity:1; fill:none" points="164.598,1619.39 183.496,1619.39 "/>
<polyline clip-path="url(#clip750)" style="stroke:#adb2b7; stroke-linecap:round; stroke-linejoin:round; stroke-width:4; stroke-opacity:1; fill:none" points="164.598,1252.31 183.496,1252.31 "/>
<polyline clip-path="url(#clip750)" style="stroke:#adb2b7; stroke-linecap:round; stroke-linejoin:round; stroke-width:4; stroke-opacity:1; fill:none" points="164.598,885.231 183.496,885.231 "/>
<polyline clip-path="url(#clip750)" style="stroke:#adb2b7; stroke-linecap:round; stroke-linejoin:round; stroke-width:4; stroke-opacity:1; fill:none" points="164.598,518.15 183.496,518.15 "/>
<polyline clip-path="url(#clip750)" style="stroke:#adb2b7; stroke-linecap:round; stroke-linejoin:round; stroke-width:4; stroke-opacity:1; fill:none" points="164.598,151.069 183.496,151.069 "/>
<path clip-path="url(#clip750)" d="M59.4226 1605.19 Q55.8115 1605.19 53.9828 1608.76 Q52.1773 1612.3 52.1773 1619.43 Q52.1773 1626.53 53.9828 1630.1 Q55.8115 1633.64 59.4226 1633.64 Q63.0569 1633.64 64.8624 1630.1 Q66.6911 1626.53 66.6911 1619.43 Q66.6911 1612.3 64.8624 1608.76 Q63.0569 1605.19 59.4226 1605.19 M59.4226 1601.49 Q65.2328 1601.49 68.2883 1606.09 Q71.367 1610.68 71.367 1619.43 Q71.367 1628.15 68.2883 1632.76 Q65.2328 1637.34 59.4226 1637.34 Q53.6125 1637.34 50.5338 1632.76 Q47.4782 1628.15 47.4782 1619.43 Q47.4782 1610.68 50.5338 1606.09 Q53.6125 1601.49 59.4226 1601.49 Z" fill="#9eb1be" fill-rule="nonzero" fill-opacity="1" /><path clip-path="url(#clip750)" d="M79.5845 1630.79 L84.4688 1630.79 L84.4688 1636.67 L79.5845 1636.67 L79.5845 1630.79 Z" fill="#9eb1be" fill-rule="nonzero" fill-opacity="1" /><path clip-path="url(#clip750)" d="M104.654 1605.19 Q101.043 1605.19 99.2141 1608.76 Q97.4085 1612.3 97.4085 1619.43 Q97.4085 1626.53 99.2141 1630.1 Q101.043 1633.64 104.654 1633.64 Q108.288 1633.64 110.094 1630.1 Q111.922 1626.53 111.922 1619.43 Q111.922 1612.3 110.094 1608.76 Q108.288 1605.19 104.654 1605.19 M104.654 1601.49 Q110.464 1601.49 113.52 1606.09 Q116.598 1610.68 116.598 1619.43 Q116.598 1628.15 113.52 1632.76 Q110.464 1637.34 104.654 1637.34 Q98.8437 1637.34 95.765 1632.76 Q92.7095 1628.15 92.7095 1619.43 Q92.7095 1610.68 95.765 1606.09 Q98.8437 1601.49 104.654 1601.49 Z" fill="#9eb1be" fill-rule="nonzero" fill-opacity="1" /><path clip-path="url(#clip750)" d="M61.0198 1238.11 Q57.4087 1238.11 55.58 1241.68 Q53.7745 1245.22 53.7745 1252.35 Q53.7745 1259.45 55.58 1263.02 Q57.4087 1266.56 61.0198 1266.56 Q64.6541 1266.56 66.4596 1263.02 Q68.2883 1259.45 68.2883 1252.35 Q68.2883 1245.22 66.4596 1241.68 Q64.6541 1238.11 61.0198 1238.11 M61.0198 1234.41 Q66.83 1234.41 69.8855 1239.01 Q72.9642 1243.6 72.9642 1252.35 Q72.9642 1261.07 69.8855 1265.68 Q66.83 1270.26 61.0198 1270.26 Q55.2097 1270.26 52.131 1265.68 Q49.0754 1261.07 49.0754 1252.35 Q49.0754 1243.6 52.131 1239.01 Q55.2097 1234.41 61.0198 1234.41 Z" fill="#9eb1be" fill-rule="nonzero" fill-opacity="1" /><path clip-path="url(#clip750)" d="M81.1818 1263.71 L86.066 1263.71 L86.066 1269.59 L81.1818 1269.59 L81.1818 1263.71 Z" fill="#9eb1be" fill-rule="nonzero" fill-opacity="1" /><path clip-path="url(#clip750)" d="M100.279 1265.66 L116.598 1265.66 L116.598 1269.59 L94.6539 1269.59 L94.6539 1265.66 Q97.3159 1262.9 101.899 1258.27 Q106.506 1253.62 107.686 1252.28 Q109.932 1249.75 110.811 1248.02 Q111.714 1246.26 111.714 1244.57 Q111.714 1241.81 109.77 1240.08 Q107.848 1238.34 104.746 1238.34 Q102.547 1238.34 100.094 1239.11 Q97.6632 1239.87 94.8854 1241.42 L94.8854 1236.7 Q97.7094 1235.56 100.163 1234.99 Q102.617 1234.41 104.654 1234.41 Q110.024 1234.41 113.219 1237.09 Q116.413 1239.78 116.413 1244.27 Q116.413 1246.4 115.603 1248.32 Q114.816 1250.22 112.709 1252.81 Q112.131 1253.48 109.029 1256.7 Q105.927 1259.89 100.279 1265.66 Z" fill="#9eb1be" fill-rule="nonzero" fill-opacity="1" /><path clip-path="url(#clip750)" d="M58.9365 871.03 Q55.3254 871.03 53.4967 874.595 Q51.6912 878.136 51.6912 885.266 Q51.6912 892.372 53.4967 895.937 Q55.3254 899.479 58.9365 899.479 Q62.5707 899.479 64.3763 895.937 Q66.205 892.372 66.205 885.266 Q66.205 878.136 64.3763 874.595 Q62.5707 871.03 58.9365 871.03 M58.9365 867.326 Q64.7467 867.326 67.8022 871.933 Q70.8809 876.516 70.8809 885.266 Q70.8809 893.993 67.8022 898.599 Q64.7467 903.182 58.9365 903.182 Q53.1264 903.182 50.0477 898.599 Q46.9921 893.993 46.9921 885.266 Q46.9921 876.516 50.0477 871.933 Q53.1264 867.326 58.9365 867.326 Z" fill="#9eb1be" fill-rule="nonzero" fill-opacity="1" /><path clip-path="url(#clip750)" d="M79.0984 896.631 L83.9827 896.631 L83.9827 902.511 L79.0984 902.511 L79.0984 896.631 Z" fill="#9eb1be" fill-rule="nonzero" fill-opacity="1" /><path clip-path="url(#clip750)" d="M107.015 872.025 L95.2095 890.474 L107.015 890.474 L107.015 872.025 M105.788 867.951 L111.668 867.951 L111.668 890.474 L116.598 890.474 L116.598 894.363 L111.668 894.363 L111.668 902.511 L107.015 902.511 L107.015 894.363 L91.4132 894.363 L91.4132 889.849 L105.788 867.951 Z" fill="#9eb1be" fill-rule="nonzero" fill-opacity="1" /><path clip-path="url(#clip750)" d="M59.2606 503.949 Q55.6495 503.949 53.8208 507.514 Q52.0152 511.055 52.0152 518.185 Q52.0152 525.291 53.8208 528.856 Q55.6495 532.398 59.2606 532.398 Q62.8948 532.398 64.7004 528.856 Q66.5291 525.291 66.5291 518.185 Q66.5291 511.055 64.7004 507.514 Q62.8948 503.949 59.2606 503.949 M59.2606 500.245 Q65.0707 500.245 68.1263 504.852 Q71.205 509.435 71.205 518.185 Q71.205 526.912 68.1263 531.518 Q65.0707 536.102 59.2606 536.102 Q53.4504 536.102 50.3717 531.518 Q47.3162 526.912 47.3162 518.185 Q47.3162 509.435 50.3717 504.852 Q53.4504 500.245 59.2606 500.245 Z" fill="#9eb1be" fill-rule="nonzero" fill-opacity="1" /><path clip-path="url(#clip750)" d="M79.4225 529.551 L84.3067 529.551 L84.3067 535.43 L79.4225 535.43 L79.4225 529.551 Z" fill="#9eb1be" fill-rule="nonzero" fill-opacity="1" /><path clip-path="url(#clip750)" d="M105.071 516.287 Q101.922 516.287 100.071 518.44 Q98.2419 520.592 98.2419 524.342 Q98.2419 528.069 100.071 530.245 Q101.922 532.398 105.071 532.398 Q108.219 532.398 110.047 530.245 Q111.899 528.069 111.899 524.342 Q111.899 520.592 110.047 518.44 Q108.219 516.287 105.071 516.287 M114.353 501.634 L114.353 505.893 Q112.594 505.06 110.788 504.62 Q109.006 504.18 107.246 504.18 Q102.617 504.18 100.163 507.305 Q97.7326 510.43 97.3854 516.75 Q98.7511 514.736 100.811 513.671 Q102.871 512.583 105.348 512.583 Q110.557 512.583 113.566 515.754 Q116.598 518.903 116.598 524.342 Q116.598 529.666 113.45 532.884 Q110.302 536.102 105.071 536.102 Q99.0752 536.102 95.9039 531.518 Q92.7326 526.912 92.7326 518.185 Q92.7326 509.991 96.6215 505.129 Q100.51 500.245 107.061 500.245 Q108.82 500.245 110.603 500.592 Q112.408 500.94 114.353 501.634 Z" fill="#9eb1be" fill-rule="nonzero" fill-opacity="1" /><path clip-path="url(#clip750)" d="M59.5152 136.868 Q55.9041 136.868 54.0754 140.433 Q52.2699 143.975 52.2699 151.104 Q52.2699 158.211 54.0754 161.775 Q55.9041 165.317 59.5152 165.317 Q63.1494 165.317 64.955 161.775 Q66.7837 158.211 66.7837 151.104 Q66.7837 143.975 64.955 140.433 Q63.1494 136.868 59.5152 136.868 M59.5152 133.164 Q65.3254 133.164 68.3809 137.771 Q71.4596 142.354 71.4596 151.104 Q71.4596 159.831 68.3809 164.437 Q65.3254 169.021 59.5152 169.021 Q53.7051 169.021 50.6264 164.437 Q47.5708 159.831 47.5708 151.104 Q47.5708 142.354 50.6264 137.771 Q53.7051 133.164 59.5152 133.164 Z" fill="#9eb1be" fill-rule="nonzero" fill-opacity="1" /><path clip-path="url(#clip750)" d="M79.6771 162.47 L84.5614 162.47 L84.5614 168.349 L79.6771 168.349 L79.6771 162.47 Z" fill="#9eb1be" fill-rule="nonzero" fill-opacity="1" /><path clip-path="url(#clip750)" d="M104.746 151.937 Q101.413 151.937 99.4918 153.72 Q97.5937 155.502 97.5937 158.627 Q97.5937 161.752 99.4918 163.535 Q101.413 165.317 104.746 165.317 Q108.08 165.317 110.001 163.535 Q111.922 161.729 111.922 158.627 Q111.922 155.502 110.001 153.72 Q108.103 151.937 104.746 151.937 M100.071 149.947 Q97.0613 149.206 95.3715 147.146 Q93.7048 145.086 93.7048 142.123 Q93.7048 137.979 96.6446 135.572 Q99.6076 133.164 104.746 133.164 Q109.908 133.164 112.848 135.572 Q115.788 137.979 115.788 142.123 Q115.788 145.086 114.098 147.146 Q112.432 149.206 109.445 149.947 Q112.825 150.734 114.7 153.025 Q116.598 155.317 116.598 158.627 Q116.598 163.65 113.52 166.335 Q110.464 169.021 104.746 169.021 Q99.0289 169.021 95.9502 166.335 Q92.8947 163.65 92.8947 158.627 Q92.8947 155.317 94.7928 153.025 Q96.6909 150.734 100.071 149.947 M98.3576 142.562 Q98.3576 145.248 100.024 146.752 Q101.714 148.257 104.746 148.257 Q107.756 148.257 109.445 146.752 Q111.158 145.248 111.158 142.562 Q111.158 139.877 109.445 138.373 Q107.756 136.868 104.746 136.868 Q101.714 136.868 100.024 138.373 Q98.3576 139.877 98.3576 142.562 Z" fill="#9eb1be" fill-rule="nonzero" fill-opacity="1" /><path clip-path="url(#clip750)" d="M196.543 45.6768 L196.543 34.0739 L186.994 34.0739 L186.994 29.2707 L202.33 29.2707 L202.33 47.818 Q198.944 50.2196 194.864 51.4638 Q190.784 52.6791 186.155 52.6791 Q176.028 52.6791 170.298 46.7764 Q164.598 40.8447 164.598 30.2834 Q164.598 19.6932 170.298 13.7904 Q176.028 7.85875 186.155 7.85875 Q190.379 7.85875 194.17 8.90042 Q197.989 9.94208 201.201 11.9675 L201.201 18.1886 Q197.96 15.4397 194.315 14.0509 Q190.669 12.662 186.647 12.662 Q178.719 12.662 174.725 17.089 Q170.761 21.5161 170.761 30.2834 Q170.761 39.0218 174.725 43.4488 Q178.719 47.8759 186.647 47.8759 Q189.743 47.8759 192.173 47.3551 Q194.604 46.8053 196.543 45.6768 Z" fill="#adb2b7" fill-rule="nonzero" fill-opacity="1" /><path clip-path="url(#clip750)" d="M231.554 24.4096 Q230.657 23.8888 229.586 23.6573 Q228.545 23.3969 227.272 23.3969 Q222.758 23.3969 220.327 26.3482 Q217.925 29.2707 217.925 34.7683 L217.925 51.84 L212.573 51.84 L212.573 19.4328 L217.925 19.4328 L217.925 24.4675 Q219.604 21.5161 222.295 20.0983 Q224.986 18.6515 228.834 18.6515 Q229.384 18.6515 230.049 18.7383 Q230.715 18.7962 231.525 18.9409 L231.554 24.4096 Z" fill="#adb2b7" fill-rule="nonzero" fill-opacity="1" /><path clip-path="url(#clip750)" d="M248.394 23.1654 Q244.112 23.1654 241.623 26.5218 Q239.135 29.8494 239.135 35.6653 Q239.135 41.4813 241.594 44.8377 Q244.083 48.1653 248.394 48.1653 Q252.648 48.1653 255.136 44.8088 Q257.624 41.4523 257.624 35.6653 Q257.624 29.9072 255.136 26.5508 Q252.648 23.1654 248.394 23.1654 M248.394 18.6515 Q255.338 18.6515 259.303 23.1654 Q263.267 27.6792 263.267 35.6653 Q263.267 43.6225 259.303 48.1653 Q255.338 52.6791 248.394 52.6791 Q241.421 52.6791 237.457 48.1653 Q233.521 43.6225 233.521 35.6653 Q233.521 27.6792 237.457 23.1654 Q241.421 18.6515 248.394 18.6515 Z" fill="#adb2b7" fill-rule="nonzero" fill-opacity="1" /><path clip-path="url(#clip750)" d="M292.751 20.3876 L292.751 25.4223 Q290.495 24.2649 288.064 23.6862 Q285.633 23.1075 283.029 23.1075 Q279.065 23.1075 277.069 24.3228 Q275.101 25.5381 275.101 27.9686 Q275.101 29.8204 276.519 30.891 Q277.937 31.9327 282.219 32.8876 L284.042 33.2926 Q289.713 34.5079 292.086 36.7359 Q294.488 38.935 294.488 42.8991 Q294.488 47.4129 290.9 50.046 Q287.341 52.6791 281.091 52.6791 Q278.487 52.6791 275.651 52.1583 Q272.844 51.6664 269.719 50.6537 L269.719 45.156 Q272.671 46.6896 275.535 47.4708 Q278.4 48.2231 281.206 48.2231 Q284.968 48.2231 286.993 46.95 Q289.019 45.6479 289.019 43.3042 Q289.019 41.134 287.543 39.9766 Q286.096 38.8192 281.149 37.7486 L279.297 37.3146 Q274.349 36.273 272.15 34.1318 Q269.951 31.9616 269.951 28.2001 Q269.951 23.6283 273.191 21.1399 Q276.432 18.6515 282.393 18.6515 Q285.344 18.6515 287.948 19.0855 Q290.552 19.5196 292.751 20.3876 Z" fill="#adb2b7" fill-rule="nonzero" fill-opacity="1" /><path clip-path="url(#clip750)" d="M323.625 20.3876 L323.625 25.4223 Q321.368 24.2649 318.938 23.6862 Q316.507 23.1075 313.903 23.1075 Q309.939 23.1075 307.942 24.3228 Q305.975 25.5381 305.975 27.9686 Q305.975 29.8204 307.393 30.891 Q308.81 31.9327 313.093 32.8876 L314.916 33.2926 Q320.587 34.5079 322.96 36.7359 Q325.361 38.935 325.361 42.8991 Q325.361 47.4129 321.773 50.046 Q318.214 52.6791 311.964 52.6791 Q309.36 52.6791 306.525 52.1583 Q303.718 51.6664 300.593 50.6537 L300.593 45.156 Q303.544 46.6896 306.409 47.4708 Q309.273 48.2231 312.08 48.2231 Q315.842 48.2231 317.867 46.95 Q319.893 45.6479 319.893 43.3042 Q319.893 41.134 318.417 39.9766 Q316.97 38.8192 312.022 37.7486 L310.17 37.3146 Q305.222 36.273 303.023 34.1318 Q300.824 31.9616 300.824 28.2001 Q300.824 23.6283 304.065 21.1399 Q307.306 18.6515 313.266 18.6515 Q316.218 18.6515 318.822 19.0855 Q321.426 19.5196 323.625 20.3876 Z" fill="#adb2b7" fill-rule="nonzero" fill-opacity="1" /><path clip-path="url(#clip750)" d="M371.455 24.4096 Q370.558 23.8888 369.487 23.6573 Q368.446 23.3969 367.172 23.3969 Q362.659 23.3969 360.228 26.3482 Q357.826 29.2707 357.826 34.7683 L357.826 51.84 L352.473 51.84 L352.473 19.4328 L357.826 19.4328 L357.826 24.4675 Q359.505 21.5161 362.196 20.0983 Q364.887 18.6515 368.735 18.6515 Q369.285 18.6515 369.95 18.7383 Q370.616 18.7962 371.426 18.9409 L371.455 24.4096 Z" fill="#adb2b7" fill-rule="nonzero" fill-opacity="1" /><path clip-path="url(#clip750)" d="M403.457 34.3054 L403.457 36.9095 L378.978 36.9095 Q379.325 42.4072 382.276 45.3007 Q385.257 48.1653 390.552 48.1653 Q393.619 48.1653 396.484 47.4129 Q399.377 46.6606 402.213 45.156 L402.213 50.1907 Q399.348 51.406 396.339 52.0425 Q393.33 52.6791 390.234 52.6791 Q382.479 52.6791 377.936 48.1653 Q373.422 43.6514 373.422 35.9547 Q373.422 27.9975 377.705 23.339 Q382.016 18.6515 389.308 18.6515 Q395.847 18.6515 399.637 22.876 Q403.457 27.0716 403.457 34.3054 M398.133 32.7429 Q398.075 28.3737 395.673 25.7695 Q393.301 23.1654 389.366 23.1654 Q384.91 23.1654 382.219 25.6827 Q379.557 28.2001 379.151 32.7718 L398.133 32.7429 Z" fill="#adb2b7" fill-rule="nonzero" fill-opacity="1" /><path clip-path="url(#clip750)" d="M426.923 35.5496 Q420.471 35.5496 417.982 37.0253 Q415.494 38.501 415.494 42.06 Q415.494 44.8956 417.346 46.5738 Q419.226 48.2231 422.438 48.2231 Q426.865 48.2231 429.527 45.0981 Q432.218 41.9442 432.218 36.7359 L432.218 35.5496 L426.923 35.5496 M437.542 33.3505 L437.542 51.84 L432.218 51.84 L432.218 46.921 Q430.395 49.8724 427.676 51.2902 Q424.956 52.6791 421.02 52.6791 Q416.044 52.6791 413.092 49.9014 Q410.17 47.0947 410.17 42.4072 Q410.17 36.9385 413.816 34.1607 Q417.49 31.3829 424.753 31.3829 L432.218 31.3829 L432.218 30.8621 Q432.218 27.1874 429.788 25.1908 Q427.386 23.1654 423.017 23.1654 Q420.239 23.1654 417.606 23.8309 Q414.973 24.4964 412.543 25.8274 L412.543 20.9085 Q415.465 19.78 418.214 19.2302 Q420.963 18.6515 423.567 18.6515 Q430.598 18.6515 434.07 22.2973 Q437.542 25.9431 437.542 33.3505 Z" fill="#adb2b7" fill-rule="nonzero" fill-opacity="1" /><path clip-path="url(#clip750)" d="M448.509 6.81709 L453.833 6.81709 L453.833 51.84 L448.509 51.84 L448.509 6.81709 Z" fill="#adb2b7" fill-rule="nonzero" fill-opacity="1" /><path clip-path="url(#clip750)" d="M464.973 19.4328 L470.297 19.4328 L470.297 51.84 L464.973 51.84 L464.973 19.4328 M464.973 6.81709 L470.297 6.81709 L470.297 13.559 L464.973 13.559 L464.973 6.81709 Z" fill="#adb2b7" fill-rule="nonzero" fill-opacity="1" /><path clip-path="url(#clip750)" d="M479.122 19.4328 L504.411 19.4328 L504.411 24.2939 L484.388 47.5866 L504.411 47.5866 L504.411 51.84 L478.399 51.84 L478.399 46.9789 L498.422 23.6862 L479.122 23.6862 L479.122 19.4328 Z" fill="#adb2b7" fill-rule="nonzero" fill-opacity="1" /><path clip-path="url(#clip750)" d="M540.262 34.3054 L540.262 36.9095 L515.783 36.9095 Q516.13 42.4072 519.081 45.3007 Q522.062 48.1653 527.357 48.1653 Q530.424 48.1653 533.288 47.4129 Q536.182 46.6606 539.018 45.156 L539.018 50.1907 Q536.153 51.406 533.144 52.0425 Q530.134 52.6791 527.038 52.6791 Q519.284 52.6791 514.741 48.1653 Q510.227 43.6514 510.227 35.9547 Q510.227 27.9975 514.51 23.339 Q518.821 18.6515 526.113 18.6515 Q532.652 18.6515 536.442 22.876 Q540.262 27.0716 540.262 34.3054 M534.938 32.7429 Q534.88 28.3737 532.478 25.7695 Q530.106 23.1654 526.17 23.1654 Q521.714 23.1654 519.023 25.6827 Q516.361 28.2001 515.956 32.7718 L534.938 32.7429 Z" fill="#adb2b7" fill-rule="nonzero" fill-opacity="1" /><path clip-path="url(#clip750)" d="M570.325 24.3517 L570.325 6.81709 L575.649 6.81709 L575.649 51.84 L570.325 51.84 L570.325 46.9789 Q568.647 49.8724 566.072 51.2902 Q563.525 52.6791 559.938 52.6791 Q554.064 52.6791 550.36 47.9916 Q546.685 43.3042 546.685 35.6653 Q546.685 28.0265 550.36 23.339 Q554.064 18.6515 559.938 18.6515 Q563.525 18.6515 566.072 20.0693 Q568.647 21.4582 570.325 24.3517 M552.183 35.6653 Q552.183 41.5391 554.585 44.8956 Q557.015 48.2231 561.24 48.2231 Q565.464 48.2231 567.895 44.8956 Q570.325 41.5391 570.325 35.6653 Q570.325 29.7915 567.895 26.464 Q565.464 23.1075 561.24 23.1075 Q557.015 23.1075 554.585 26.464 Q552.183 29.7915 552.183 35.6653 Z" fill="#adb2b7" fill-rule="nonzero" fill-opacity="1" /><path clip-path="url(#clip750)" d="M628.774 20.677 L628.774 25.6538 Q626.517 24.4096 624.231 23.802 Q621.974 23.1654 619.659 23.1654 Q614.48 23.1654 611.616 26.464 Q608.751 29.7336 608.751 35.6653 Q608.751 41.597 611.616 44.8956 Q614.48 48.1653 619.659 48.1653 Q621.974 48.1653 624.231 47.5576 Q626.517 46.921 628.774 45.6768 L628.774 50.5958 Q626.546 51.6375 624.144 52.1583 Q621.772 52.6791 619.081 52.6791 Q611.76 52.6791 607.449 48.0784 Q603.138 43.4778 603.138 35.6653 Q603.138 27.7371 607.478 23.1943 Q611.847 18.6515 619.428 18.6515 Q621.887 18.6515 624.231 19.1724 Q626.575 19.6642 628.774 20.677 Z" fill="#adb2b7" fill-rule="nonzero" fill-opacity="1" /><path clip-path="url(#clip750)" d="M637.483 39.0507 L637.483 19.4328 L642.807 19.4328 L642.807 38.8482 Q642.807 43.4488 644.601 45.7636 Q646.395 48.0495 649.983 48.0495 Q654.295 48.0495 656.783 45.3007 Q659.3 42.5519 659.3 37.8065 L659.3 19.4328 L664.624 19.4328 L664.624 51.84 L659.3 51.84 L659.3 46.8632 Q657.362 49.8145 654.787 51.2613 Q652.24 52.6791 648.855 52.6791 Q643.27 52.6791 640.377 49.2069 Q637.483 45.7347 637.483 39.0507 M650.88 18.6515 L650.88 18.6515 Z" fill="#adb2b7" fill-rule="nonzero" fill-opacity="1" /><path clip-path="url(#clip750)" d="M700.822 25.6538 Q702.819 22.0659 705.596 20.3587 Q708.374 18.6515 712.136 18.6515 Q717.199 18.6515 719.948 22.2105 Q722.697 25.7406 722.697 32.2799 L722.697 51.84 L717.344 51.84 L717.344 32.4535 Q717.344 27.795 715.695 25.5381 Q714.046 23.2811 710.66 23.2811 Q706.522 23.2811 704.121 26.03 Q701.719 28.7788 701.719 33.5241 L701.719 51.84 L696.366 51.84 L696.366 32.4535 Q696.366 27.7661 694.717 25.5381 Q693.068 23.2811 689.624 23.2811 Q685.545 23.2811 683.143 26.0589 Q680.741 28.8077 680.741 33.5241 L680.741 51.84 L675.388 51.84 L675.388 19.4328 L680.741 19.4328 L680.741 24.4675 Q682.564 21.4872 685.11 20.0693 Q687.657 18.6515 691.158 18.6515 Q694.688 18.6515 697.147 20.4455 Q699.636 22.2395 700.822 25.6538 Z" fill="#adb2b7" fill-rule="nonzero" fill-opacity="1" /><path clip-path="url(#clip750)" d="M732.766 39.0507 L732.766 19.4328 L738.091 19.4328 L738.091 38.8482 Q738.091 43.4488 739.885 45.7636 Q741.678 48.0495 745.266 48.0495 Q749.578 48.0495 752.066 45.3007 Q754.583 42.5519 754.583 37.8065 L754.583 19.4328 L759.908 19.4328 L759.908 51.84 L754.583 51.84 L754.583 46.8632 Q752.645 49.8145 750.07 51.2613 Q747.523 52.6791 744.138 52.6791 Q738.553 52.6791 735.66 49.2069 Q732.766 45.7347 732.766 39.0507 M746.163 18.6515 L746.163 18.6515 Z" fill="#adb2b7" fill-rule="nonzero" fill-opacity="1" /><path clip-path="url(#clip750)" d="M770.874 6.81709 L776.198 6.81709 L776.198 51.84 L770.874 51.84 L770.874 6.81709 Z" fill="#adb2b7" fill-rule="nonzero" fill-opacity="1" /><path clip-path="url(#clip750)" d="M802.066 35.5496 Q795.613 35.5496 793.125 37.0253 Q790.637 38.501 790.637 42.06 Q790.637 44.8956 792.488 46.5738 Q794.369 48.2231 797.581 48.2231 Q802.008 48.2231 804.67 45.0981 Q807.361 41.9442 807.361 36.7359 L807.361 35.5496 L802.066 35.5496 M812.685 33.3505 L812.685 51.84 L807.361 51.84 L807.361 46.921 Q805.538 49.8724 802.818 51.2902 Q800.098 52.6791 796.163 52.6791 Q791.186 52.6791 788.235 49.9014 Q785.313 47.0947 785.313 42.4072 Q785.313 36.9385 788.958 34.1607 Q792.633 31.3829 799.896 31.3829 L807.361 31.3829 L807.361 30.8621 Q807.361 27.1874 804.93 25.1908 Q802.529 23.1654 798.16 23.1654 Q795.382 23.1654 792.749 23.8309 Q790.116 24.4964 787.685 25.8274 L787.685 20.9085 Q790.608 19.78 793.356 19.2302 Q796.105 18.6515 798.709 18.6515 Q805.741 18.6515 809.213 22.2973 Q812.685 25.9431 812.685 33.3505 Z" fill="#adb2b7" fill-rule="nonzero" fill-opacity="1" /><path clip-path="url(#clip750)" d="M828.918 10.2314 L828.918 19.4328 L839.884 19.4328 L839.884 23.5705 L828.918 23.5705 L828.918 41.163 Q828.918 45.1271 829.988 46.2555 Q831.088 47.384 834.415 47.384 L839.884 47.384 L839.884 51.84 L834.415 51.84 Q828.252 51.84 825.908 49.5541 Q823.565 47.2393 823.565 41.163 L823.565 23.5705 L819.658 23.5705 L819.658 19.4328 L823.565 19.4328 L823.565 10.2314 L828.918 10.2314 Z" fill="#adb2b7" fill-rule="nonzero" fill-opacity="1" /><path clip-path="url(#clip750)" d="M846.886 19.4328 L852.21 19.4328 L852.21 51.84 L846.886 51.84 L846.886 19.4328 M846.886 6.81709 L852.21 6.81709 L852.21 13.559 L846.886 13.559 L846.886 6.81709 Z" fill="#adb2b7" fill-rule="nonzero" fill-opacity="1" /><path clip-path="url(#clip750)" d="M859.531 19.4328 L865.173 19.4328 L875.3 46.6317 L885.428 19.4328 L891.07 19.4328 L878.917 51.84 L871.684 51.84 L859.531 19.4328 Z" fill="#adb2b7" fill-rule="nonzero" fill-opacity="1" /><path clip-path="url(#clip750)" d="M926.139 34.3054 L926.139 36.9095 L901.66 36.9095 Q902.007 42.4072 904.959 45.3007 Q907.939 48.1653 913.234 48.1653 Q916.301 48.1653 919.166 47.4129 Q922.059 46.6606 924.895 45.156 L924.895 50.1907 Q922.031 51.406 919.021 52.0425 Q916.012 52.6791 912.916 52.6791 Q905.161 52.6791 900.619 48.1653 Q896.105 43.6514 896.105 35.9547 Q896.105 27.9975 900.387 23.339 Q904.698 18.6515 911.99 18.6515 Q918.529 18.6515 922.32 22.876 Q926.139 27.0716 926.139 34.3054 M920.815 32.7429 Q920.757 28.3737 918.356 25.7695 Q915.983 23.1654 912.048 23.1654 Q907.592 23.1654 904.901 25.6827 Q902.239 28.2001 901.834 32.7718 L920.815 32.7429 Z" fill="#adb2b7" fill-rule="nonzero" fill-opacity="1" /><path clip-path="url(#clip750)" d="M972.493 24.4096 Q971.596 23.8888 970.526 23.6573 Q969.484 23.3969 968.211 23.3969 Q963.697 23.3969 961.266 26.3482 Q958.865 29.2707 958.865 34.7683 L958.865 51.84 L953.512 51.84 L953.512 19.4328 L958.865 19.4328 L958.865 24.4675 Q960.543 21.5161 963.234 20.0983 Q965.925 18.6515 969.773 18.6515 Q970.323 18.6515 970.989 18.7383 Q971.654 18.7962 972.464 18.9409 L972.493 24.4096 Z" fill="#adb2b7" fill-rule="nonzero" fill-opacity="1" /><path clip-path="url(#clip750)" d="M1004.5 34.3054 L1004.5 36.9095 L980.016 36.9095 Q980.364 42.4072 983.315 45.3007 Q986.295 48.1653 991.59 48.1653 Q994.657 48.1653 997.522 47.4129 Q1000.42 46.6606 1003.25 45.156 L1003.25 50.1907 Q1000.39 51.406 997.377 52.0425 Q994.368 52.6791 991.272 52.6791 Q983.517 52.6791 978.975 48.1653 Q974.461 43.6514 974.461 35.9547 Q974.461 27.9975 978.743 23.339 Q983.054 18.6515 990.346 18.6515 Q996.885 18.6515 1000.68 22.876 Q1004.5 27.0716 1004.5 34.3054 M999.171 32.7429 Q999.113 28.3737 996.712 25.7695 Q994.339 23.1654 990.404 23.1654 Q985.948 23.1654 983.257 25.6827 Q980.595 28.2001 980.19 32.7718 L999.171 32.7429 Z" fill="#adb2b7" fill-rule="nonzero" fill-opacity="1" /><path clip-path="url(#clip750)" d="M1018.5 10.2314 L1018.5 19.4328 L1029.47 19.4328 L1029.47 23.5705 L1018.5 23.5705 L1018.5 41.163 Q1018.5 45.1271 1019.57 46.2555 Q1020.67 47.384 1024 47.384 L1029.47 47.384 L1029.47 51.84 L1024 51.84 Q1017.83 51.84 1015.49 49.5541 Q1013.15 47.2393 1013.15 41.163 L1013.15 23.5705 L1009.24 23.5705 L1009.24 19.4328 L1013.15 19.4328 L1013.15 10.2314 L1018.5 10.2314 Z" fill="#adb2b7" fill-rule="nonzero" fill-opacity="1" /><path clip-path="url(#clip750)" d="M1035.92 39.0507 L1035.92 19.4328 L1041.24 19.4328 L1041.24 38.8482 Q1041.24 43.4488 1043.04 45.7636 Q1044.83 48.0495 1048.42 48.0495 Q1052.73 48.0495 1055.22 45.3007 Q1057.74 42.5519 1057.74 37.8065 L1057.74 19.4328 L1063.06 19.4328 L1063.06 51.84 L1057.74 51.84 L1057.74 46.8632 Q1055.8 49.8145 1053.22 51.2613 Q1050.68 52.6791 1047.29 52.6791 Q1041.71 52.6791 1038.81 49.2069 Q1035.92 45.7347 1035.92 39.0507 M1049.32 18.6515 L1049.32 18.6515 Z" fill="#adb2b7" fill-rule="nonzero" fill-opacity="1" /><path clip-path="url(#clip750)" d="M1092.81 24.4096 Q1091.91 23.8888 1090.84 23.6573 Q1089.8 23.3969 1088.52 23.3969 Q1084.01 23.3969 1081.58 26.3482 Q1079.18 29.2707 1079.18 34.7683 L1079.18 51.84 L1073.82 51.84 L1073.82 19.4328 L1079.18 19.4328 L1079.18 24.4675 Q1080.85 21.5161 1083.55 20.0983 Q1086.24 18.6515 1090.09 18.6515 Q1090.63 18.6515 1091.3 18.7383 Q1091.97 18.7962 1092.78 18.9409 L1092.81 24.4096 Z" fill="#adb2b7" fill-rule="nonzero" fill-opacity="1" /><path clip-path="url(#clip750)" d="M1124.29 32.2799 L1124.29 51.84 L1118.96 51.84 L1118.96 32.4535 Q1118.96 27.8529 1117.17 25.567 Q1115.37 23.2811 1111.79 23.2811 Q1107.48 23.2811 1104.99 26.03 Q1102.5 28.7788 1102.5 33.5241 L1102.5 51.84 L1097.15 51.84 L1097.15 19.4328 L1102.5 19.4328 L1102.5 24.4675 Q1104.41 21.545 1106.98 20.0983 Q1109.59 18.6515 1112.97 18.6515 Q1118.56 18.6515 1121.42 22.1237 Q1124.29 25.567 1124.29 32.2799 Z" fill="#adb2b7" fill-rule="nonzero" fill-opacity="1" /><path clip-path="url(#clip750)" d="M1155.57 20.3876 L1155.57 25.4223 Q1153.31 24.2649 1150.88 23.6862 Q1148.45 23.1075 1145.84 23.1075 Q1141.88 23.1075 1139.88 24.3228 Q1137.91 25.5381 1137.91 27.9686 Q1137.91 29.8204 1139.33 30.891 Q1140.75 31.9327 1145.03 32.8876 L1146.86 33.2926 Q1152.53 34.5079 1154.9 36.7359 Q1157.3 38.935 1157.3 42.8991 Q1157.3 47.4129 1153.71 50.046 Q1150.15 52.6791 1143.9 52.6791 Q1141.3 52.6791 1138.46 52.1583 Q1135.66 51.6664 1132.53 50.6537 L1132.53 45.156 Q1135.48 46.6896 1138.35 47.4708 Q1141.21 48.2231 1144.02 48.2231 Q1147.78 48.2231 1149.81 46.95 Q1151.83 45.6479 1151.83 43.3042 Q1151.83 41.134 1150.36 39.9766 Q1148.91 38.8192 1143.96 37.7486 L1142.11 37.3146 Q1137.16 36.273 1134.96 34.1318 Q1132.76 31.9616 1132.76 28.2001 Q1132.76 23.6283 1136.01 21.1399 Q1139.25 18.6515 1145.21 18.6515 Q1148.16 18.6515 1150.76 19.0855 Q1153.37 19.5196 1155.57 20.3876 Z" fill="#adb2b7" fill-rule="nonzero" fill-opacity="1" /><path clip-path="url(#clip750)" d="M1207.88 35.6653 Q1207.88 29.7915 1205.45 26.464 Q1203.05 23.1075 1198.82 23.1075 Q1194.6 23.1075 1192.17 26.464 Q1189.77 29.7915 1189.77 35.6653 Q1189.77 41.5391 1192.17 44.8956 Q1194.6 48.2231 1198.82 48.2231 Q1203.05 48.2231 1205.45 44.8956 Q1207.88 41.5391 1207.88 35.6653 M1189.77 24.3517 Q1191.44 21.4582 1193.99 20.0693 Q1196.57 18.6515 1200.13 18.6515 Q1206.03 18.6515 1209.7 23.339 Q1213.41 28.0265 1213.41 35.6653 Q1213.41 43.3042 1209.7 47.9916 Q1206.03 52.6791 1200.13 52.6791 Q1196.57 52.6791 1193.99 51.2902 Q1191.44 49.8724 1189.77 46.9789 L1189.77 51.84 L1184.41 51.84 L1184.41 6.81709 L1189.77 6.81709 L1189.77 24.3517 Z" fill="#adb2b7" fill-rule="nonzero" fill-opacity="1" /><path clip-path="url(#clip750)" d="M1235.72 54.8492 Q1233.46 60.6362 1231.32 62.4013 Q1229.18 64.1663 1225.59 64.1663 L1221.33 64.1663 L1221.33 59.7103 L1224.46 59.7103 Q1226.66 59.7103 1227.87 58.6687 Q1229.09 57.627 1230.56 53.7497 L1231.52 51.3192 L1218.41 19.4328 L1224.05 19.4328 L1234.18 44.7799 L1244.31 19.4328 L1249.95 19.4328 L1235.72 54.8492 Z" fill="#adb2b7" fill-rule="nonzero" fill-opacity="1" /><path clip-path="url(#clip750)" d="M1273.04 19.4328 L1278.37 19.4328 L1285.02 44.722 L1291.65 19.4328 L1297.93 19.4328 L1304.58 44.722 L1311.21 19.4328 L1316.53 19.4328 L1308.05 51.84 L1301.77 51.84 L1294.8 25.2776 L1287.8 51.84 L1281.52 51.84 L1273.04 19.4328 Z" fill="#adb2b7" fill-rule="nonzero" fill-opacity="1" /><path clip-path="url(#clip750)" d="M1352.32 34.3054 L1352.32 36.9095 L1327.84 36.9095 Q1328.19 42.4072 1331.14 45.3007 Q1334.12 48.1653 1339.42 48.1653 Q1342.49 48.1653 1345.35 47.4129 Q1348.24 46.6606 1351.08 45.156 L1351.08 50.1907 Q1348.21 51.406 1345.21 52.0425 Q1342.2 52.6791 1339.1 52.6791 Q1331.35 52.6791 1326.8 48.1653 Q1322.29 43.6514 1322.29 35.9547 Q1322.29 27.9975 1326.57 23.339 Q1330.88 18.6515 1338.17 18.6515 Q1344.71 18.6515 1348.5 22.876 Q1352.32 27.0716 1352.32 34.3054 M1347 32.7429 Q1346.94 28.3737 1344.54 25.7695 Q1342.17 23.1654 1338.23 23.1654 Q1333.78 23.1654 1331.09 25.6827 Q1328.42 28.2001 1328.02 32.7718 L1347 32.7429 Z" fill="#adb2b7" fill-rule="nonzero" fill-opacity="1" /><path clip-path="url(#clip750)" d="M1388.78 34.3054 L1388.78 36.9095 L1364.3 36.9095 Q1364.65 42.4072 1367.6 45.3007 Q1370.58 48.1653 1375.88 48.1653 Q1378.94 48.1653 1381.81 47.4129 Q1384.7 46.6606 1387.54 45.156 L1387.54 50.1907 Q1384.67 51.406 1381.66 52.0425 Q1378.65 52.6791 1375.56 52.6791 Q1367.8 52.6791 1363.26 48.1653 Q1358.75 43.6514 1358.75 35.9547 Q1358.75 27.9975 1363.03 23.339 Q1367.34 18.6515 1374.63 18.6515 Q1381.17 18.6515 1384.96 22.876 Q1388.78 27.0716 1388.78 34.3054 M1383.46 32.7429 Q1383.4 28.3737 1381 25.7695 Q1378.63 23.1654 1374.69 23.1654 Q1370.23 23.1654 1367.54 25.6827 Q1364.88 28.2001 1364.48 32.7718 L1383.46 32.7429 Z" fill="#adb2b7" fill-rule="nonzero" fill-opacity="1" /><path clip-path="url(#clip750)" d="M1397.32 6.81709 L1402.67 6.81709 L1402.67 33.4084 L1418.56 19.4328 L1425.36 19.4328 L1408.17 34.5947 L1426.08 51.84 L1419.13 51.84 L1402.67 36.0125 L1402.67 51.84 L1397.32 51.84 L1397.32 6.81709 Z" fill="#adb2b7" fill-rule="nonzero" fill-opacity="1" /><path clip-path="url(#clip750)" d="M1453.16 24.3517 L1453.16 6.81709 L1458.49 6.81709 L1458.49 51.84 L1453.16 51.84 L1453.16 46.9789 Q1451.48 49.8724 1448.91 51.2902 Q1446.36 52.6791 1442.77 52.6791 Q1436.9 52.6791 1433.2 47.9916 Q1429.52 43.3042 1429.52 35.6653 Q1429.52 28.0265 1433.2 23.339 Q1436.9 18.6515 1442.77 18.6515 Q1446.36 18.6515 1448.91 20.0693 Q1451.48 21.4582 1453.16 24.3517 M1435.02 35.6653 Q1435.02 41.5391 1437.42 44.8956 Q1439.85 48.2231 1444.08 48.2231 Q1448.3 48.2231 1450.73 44.8956 Q1453.16 41.5391 1453.16 35.6653 Q1453.16 29.7915 1450.73 26.464 Q1448.3 23.1075 1444.08 23.1075 Q1439.85 23.1075 1437.42 26.464 Q1435.02 29.7915 1435.02 35.6653 Z" fill="#adb2b7" fill-rule="nonzero" fill-opacity="1" /><path clip-path="url(#clip750)" d="M1484.18 35.5496 Q1477.73 35.5496 1475.24 37.0253 Q1472.75 38.501 1472.75 42.06 Q1472.75 44.8956 1474.6 46.5738 Q1476.48 48.2231 1479.7 48.2231 Q1484.12 48.2231 1486.78 45.0981 Q1489.48 41.9442 1489.48 36.7359 L1489.48 35.5496 L1484.18 35.5496 M1494.8 33.3505 L1494.8 51.84 L1489.48 51.84 L1489.48 46.921 Q1487.65 49.8724 1484.93 51.2902 Q1482.21 52.6791 1478.28 52.6791 Q1473.3 52.6791 1470.35 49.9014 Q1467.43 47.0947 1467.43 42.4072 Q1467.43 36.9385 1471.07 34.1607 Q1474.75 31.3829 1482.01 31.3829 L1489.48 31.3829 L1489.48 30.8621 Q1489.48 27.1874 1487.04 25.1908 Q1484.64 23.1654 1480.27 23.1654 Q1477.5 23.1654 1474.86 23.8309 Q1472.23 24.4964 1469.8 25.8274 L1469.8 20.9085 Q1472.72 19.78 1475.47 19.2302 Q1478.22 18.6515 1480.82 18.6515 Q1487.86 18.6515 1491.33 22.2973 Q1494.8 25.9431 1494.8 33.3505 Z" fill="#adb2b7" fill-rule="nonzero" fill-opacity="1" /><path clip-path="url(#clip750)" d="M1519.25 54.8492 Q1516.99 60.6362 1514.85 62.4013 Q1512.71 64.1663 1509.12 64.1663 L1504.87 64.1663 L1504.87 59.7103 L1507.99 59.7103 Q1510.19 59.7103 1511.41 58.6687 Q1512.62 57.627 1514.1 53.7497 L1515.05 51.3192 L1501.95 19.4328 L1507.59 19.4328 L1517.72 44.7799 L1527.84 19.4328 L1533.49 19.4328 L1519.25 54.8492 Z" fill="#adb2b7" fill-rule="nonzero" fill-opacity="1" /><polyline clip-path="url(#clip751)" style="stroke:#fe4365; stroke-linecap:round; stroke-linejoin:round; stroke-width:4; stroke-opacity:1; fill:none" points="249.169,1619.28 309.148,1627.54 369.127,1631.33 429.106,1633.31 489.085,1626.37 549.064,1623.25 609.043,1603 669.022,1585.14 729.001,1572.25 788.98,1566.66 848.96,1562.19 908.939,1543.41 968.918,1530.48 1028.9,1520.19 1088.88,1520.94 1148.85,1523.96 1208.83,1530.76 1268.81,1525.84 1328.79,1515.71 1388.77,1510.14 1448.75,1496.36 1508.73,1478.02 1568.71,1463.97 1628.69,1454.03 1688.67,1445.44 1748.65,1431.15 1808.62,1425.88 1868.6,1406.06 1928.58,1384.31 1988.56,1365.21 2048.54,1338.72 "/>
<polyline clip-path="url(#clip751)" style="stroke:#eca25c; stroke-linecap:round; stroke-linejoin:round; stroke-width:4; stroke-opacity:1; fill:none" points="249.169,1621.27 309.148,1624.22 369.127,1626.46 429.106,1631.63 489.085,1638.86 549.064,1639.93 609.043,1644.84 669.022,1643.88 729.001,1631.91 788.98,1624.02 848.96,1617.69 908.939,1616.64 968.918,1617.86 1028.9,1618.93 1088.88,1626.36 1148.85,1605.25 1208.83,1589.14 1268.81,1591.49 1328.79,1593.26 1388.77,1593.76 1448.75,1587.55 1508.73,1582.37 1568.71,1579.24 1628.69,1581.28 1688.67,1577.03 1748.65,1584.62 1808.62,1579.44 1868.6,1564.08 1928.58,1547.49 1988.56,1528.22 2048.54,1506.55 2108.52,1477.91 2168.5,1450.05 2228.48,1424.89 2288.46,1392.49 2348.44,1358.1 2408.42,1323.31 2468.39,1290.19 2528.37,1261.45 2588.35,1226.91 2648.33,1195.41 2708.31,1174.26 2768.29,1178.14 2828.27,1178.22 2888.25,1174.27 2948.23,1180.3 3008.21,1180.33 3068.19,1161.48 "/>
<polyline clip-path="url(#clip751)" style="stroke:#3f9778; stroke-linecap:round; stroke-linejoin:round; stroke-width:4; stroke-opacity:1; fill:none" points="249.169,1599.35 309.148,1570.54 369.127,1541.16 429.106,1515.46 489.085,1485.48 549.064,1436.63 609.043,1371.46 669.022,1295.12 729.001,1212.6 788.98,1183.77 848.96,1128.69 908.939,1078.54 968.918,1022.55 1028.9,966.967 1088.88,910.595 1148.85,850.2 1208.83,792.178 1268.81,737.725 1328.79,726.956 1388.77,695.673 1448.75,635.574 1508.73,570.483 1568.71,507.446 1628.69,433.383 1688.67,345.49 1748.65,302.805 1808.62,286.383 1868.6,271.505 1928.58,253.408 1988.56,236.477 2048.54,223.488 2108.52,214.545 2168.5,187.89 2228.48,165.143 2288.46,144.454 "/>
<polyline clip-path="url(#clip751)" style="stroke:#005d7f; stroke-linecap:round; stroke-linejoin:round; stroke-width:4; stroke-opacity:1; fill:none" points="249.169,1550.09 309.148,1466.53 369.127,1380.9 429.106,1291.79 489.085,1199.06 549.064,1105.65 609.043,1113.22 669.022,1111.54 729.001,1113.58 788.98,1116.36 848.96,1119.1 908.939,1116.91 968.918,1112.57 1028.9,1113.22 1088.88,1110.33 1148.85,1111.72 1208.83,1047.9 1268.81,976.425 1328.79,907.418 1388.77,837.33 1448.75,768.821 1508.73,707.941 1568.71,701.174 1628.69,681.098 1688.67,661.001 1748.65,641.824 1808.62,626.29 1868.6,615.438 1928.58,606.69 1988.56,602.154 2048.54,606.351 2108.52,598.879 2168.5,595.841 2228.48,595.122 2288.46,596.581 2348.44,607.536 2408.42,607.101 2468.39,590.072 "/>
<polyline clip-path="url(#clip751)" style="stroke:#00a8ff; stroke-linecap:round; stroke-linejoin:round; stroke-width:4; stroke-opacity:1; fill:none" points="249.169,1620.55 309.148,1609.26 369.127,1599.82 429.106,1588.73 489.085,1580.16 549.064,1568.82 609.043,1559.3 669.022,1548.44 729.001,1530.71 788.98,1535.54 848.96,1541.39 908.939,1548.25 968.918,1555.75 1028.9,1563.15 1088.88,1548.47 1148.85,1535.71 1208.83,1529.6 1268.81,1522.34 1328.79,1509.78 1388.77,1501.76 1448.75,1495.48 1508.73,1488.27 1568.71,1483.1 1628.69,1480.19 1688.67,1478.5 1748.65,1480.34 1808.62,1477.47 1868.6,1483 1928.58,1456.22 1988.56,1430.04 2048.54,1399.22 2108.52,1357.15 2168.5,1314.75 2228.48,1277.78 2288.46,1245.1 2348.44,1215.62 2408.42,1215.18 "/>
<polyline clip-path="url(#clip751)" style="stroke:#dc3df1; stroke-linecap:round; stroke-linejoin:round; stroke-width:4; stroke-opacity:1; fill:none" points="249.169,1594.9 309.148,1570.81 369.127,1542.27 429.106,1519.07 489.085,1495.76 549.064,1475.66 609.043,1472.88 669.022,1472.44 729.001,1468.84 788.98,1470.9 848.96,1470 908.939,1469.47 968.918,1472.47 1028.9,1471.74 1088.88,1472.22 1148.85,1477.86 1208.83,1480.8 1268.81,1479.12 1328.79,1470.93 1388.77,1461.01 1448.75,1450.04 1508.73,1438.13 1568.71,1425.64 1628.69,1412.69 1688.67,1400.27 1748.65,1380.54 1808.62,1366.85 1868.6,1355.43 1928.58,1344.99 1988.56,1349.58 2048.54,1361.08 2108.52,1364.3 2168.5,1363.54 2228.48,1362.66 2288.46,1354.28 2348.44,1349.16 2408.42,1345.44 "/>
<polyline clip-path="url(#clip751)" style="stroke:#759500; stroke-linecap:round; stroke-linejoin:round; stroke-width:4; stroke-opacity:1; fill:none" points="249.169,1614.63 309.148,1616.88 369.127,1619.85 429.106,1611.18 489.085,1603.62 549.064,1596.48 609.043,1594.41 669.022,1593.68 729.001,1594.43 788.98,1595.58 848.96,1603.39 908.939,1607.16 968.918,1610.32 1028.9,1610.56 1088.88,1611.04 1148.85,1611.55 1208.83,1616.2 1268.81,1593.01 1328.79,1571.19 1388.77,1550.77 1448.75,1530.76 1508.73,1500.38 1568.71,1465.68 1628.69,1430.44 1688.67,1391.49 1748.65,1354.18 1808.62,1317.01 1868.6,1279.03 1928.58,1254.75 1988.56,1220.37 2048.54,1184.91 2108.52,1143.92 2168.5,1099.66 2228.48,1058.34 2288.46,1014.35 2348.44,978.829 "/>
<path clip-path="url(#clip750)" d="M2108.52 1321.44 L2115.49 1321.44 L2124.31 1344.96 L2133.17 1321.44 L2140.14 1321.44 L2140.14 1356 L2135.58 1356 L2135.58 1325.65 L2126.67 1349.36 L2121.97 1349.36 L2113.06 1325.65 L2113.06 1356 L2108.52 1356 L2108.52 1321.44 Z" fill="#fe4365" fill-rule="nonzero" fill-opacity="1" /><path clip-path="url(#clip750)" d="M2159.28 1333.06 Q2155.86 1333.06 2153.87 1335.75 Q2151.88 1338.41 2151.88 1343.06 Q2151.88 1347.71 2153.84 1350.4 Q2155.83 1353.06 2159.28 1353.06 Q2162.69 1353.06 2164.68 1350.38 Q2166.67 1347.69 2166.67 1343.06 Q2166.67 1338.46 2164.68 1335.77 Q2162.69 1333.06 2159.28 1333.06 M2159.28 1329.45 Q2164.84 1329.45 2168.01 1333.06 Q2171.18 1336.67 2171.18 1343.06 Q2171.18 1349.43 2168.01 1353.06 Q2164.84 1356.67 2159.28 1356.67 Q2153.71 1356.67 2150.53 1353.06 Q2147.39 1349.43 2147.39 1343.06 Q2147.39 1336.67 2150.53 1333.06 Q2153.71 1329.45 2159.28 1329.45 Z" fill="#fe4365" fill-rule="nonzero" fill-opacity="1" /><path clip-path="url(#clip750)" d="M2199.79 1340.35 L2199.79 1356 L2195.53 1356 L2195.53 1340.49 Q2195.53 1336.81 2194.1 1334.98 Q2192.66 1333.15 2189.79 1333.15 Q2186.34 1333.15 2184.35 1335.35 Q2182.36 1337.55 2182.36 1341.35 L2182.36 1356 L2178.08 1356 L2178.08 1330.08 L2182.36 1330.08 L2182.36 1334.1 Q2183.89 1331.77 2185.95 1330.61 Q2188.03 1329.45 2190.74 1329.45 Q2195.21 1329.45 2197.5 1332.23 Q2199.79 1334.98 2199.79 1340.35 Z" fill="#fe4365" fill-rule="nonzero" fill-opacity="1" /><path clip-path="url(#clip750)" d="M3128.16 1144.2 L3157.4 1144.2 L3157.4 1148.14 L3145.13 1148.14 L3145.13 1178.76 L3140.43 1178.76 L3140.43 1148.14 L3128.16 1148.14 L3128.16 1144.2 Z" fill="#eca25c" fill-rule="nonzero" fill-opacity="1" /><path clip-path="url(#clip750)" d="M3154.09 1168.53 L3154.09 1152.84 L3158.35 1152.84 L3158.35 1168.37 Q3158.35 1172.05 3159.78 1173.9 Q3161.22 1175.73 3164.09 1175.73 Q3167.54 1175.73 3169.53 1173.53 Q3171.54 1171.33 3171.54 1167.53 L3171.54 1152.84 L3175.8 1152.84 L3175.8 1178.76 L3171.54 1178.76 L3171.54 1174.78 Q3169.99 1177.14 3167.93 1178.3 Q3165.9 1179.43 3163.19 1179.43 Q3158.72 1179.43 3156.41 1176.65 Q3154.09 1173.88 3154.09 1168.53 M3164.81 1152.21 L3164.81 1152.21 Z" fill="#eca25c" fill-rule="nonzero" fill-opacity="1" /><path clip-path="url(#clip750)" d="M3206.75 1164.73 L3206.75 1166.82 L3187.17 1166.82 Q3187.45 1171.21 3189.81 1173.53 Q3192.19 1175.82 3196.43 1175.82 Q3198.88 1175.82 3201.17 1175.22 Q3203.49 1174.62 3205.76 1173.41 L3205.76 1177.44 Q3203.47 1178.41 3201.06 1178.92 Q3198.65 1179.43 3196.17 1179.43 Q3189.97 1179.43 3186.34 1175.82 Q3182.72 1172.21 3182.72 1166.05 Q3182.72 1159.69 3186.15 1155.96 Q3189.6 1152.21 3195.43 1152.21 Q3200.66 1152.21 3203.7 1155.59 Q3206.75 1158.95 3206.75 1164.73 M3202.49 1163.48 Q3202.45 1159.99 3200.53 1157.9 Q3198.63 1155.82 3195.48 1155.82 Q3191.91 1155.82 3189.76 1157.84 Q3187.63 1159.85 3187.31 1163.51 L3202.49 1163.48 Z" fill="#eca25c" fill-rule="nonzero" fill-opacity="1" /><path clip-path="url(#clip750)" d="M2348.44 127.174 L2353.16 127.174 L2360.43 156.386 L2367.67 127.174 L2372.93 127.174 L2380.2 156.386 L2387.44 127.174 L2392.19 127.174 L2383.51 161.734 L2377.63 161.734 L2370.33 131.734 L2362.97 161.734 L2357.09 161.734 L2348.44 127.174 Z" fill="#3f9778" fill-rule="nonzero" fill-opacity="1" /><path clip-path="url(#clip750)" d="M2417.6 147.706 L2417.6 149.789 L2398.02 149.789 Q2398.3 154.187 2400.66 156.502 Q2403.04 158.794 2407.28 158.794 Q2409.73 158.794 2412.02 158.192 Q2414.34 157.59 2416.61 156.386 L2416.61 160.414 Q2414.32 161.386 2411.91 161.896 Q2409.5 162.405 2407.02 162.405 Q2400.82 162.405 2397.19 158.794 Q2393.58 155.183 2393.58 149.025 Q2393.58 142.66 2397 138.933 Q2400.45 135.183 2406.28 135.183 Q2411.51 135.183 2414.55 138.562 Q2417.6 141.919 2417.6 147.706 M2413.34 146.456 Q2413.3 142.961 2411.38 140.877 Q2409.48 138.794 2406.33 138.794 Q2402.76 138.794 2400.61 140.808 Q2398.48 142.822 2398.16 146.479 L2413.34 146.456 Z" fill="#3f9778" fill-rule="nonzero" fill-opacity="1" /><path clip-path="url(#clip750)" d="M2441.65 139.743 L2441.65 125.715 L2445.91 125.715 L2445.91 161.734 L2441.65 161.734 L2441.65 157.845 Q2440.31 160.16 2438.25 161.294 Q2436.21 162.405 2433.34 162.405 Q2428.64 162.405 2425.68 158.655 Q2422.74 154.905 2422.74 148.794 Q2422.74 142.683 2425.68 138.933 Q2428.64 135.183 2433.34 135.183 Q2436.21 135.183 2438.25 136.317 Q2440.31 137.428 2441.65 139.743 M2427.14 148.794 Q2427.14 153.493 2429.06 156.178 Q2431.01 158.84 2434.39 158.84 Q2437.76 158.84 2439.71 156.178 Q2441.65 153.493 2441.65 148.794 Q2441.65 144.095 2439.71 141.433 Q2437.76 138.748 2434.39 138.748 Q2431.01 138.748 2429.06 141.433 Q2427.14 144.095 2427.14 148.794 Z" fill="#3f9778" fill-rule="nonzero" fill-opacity="1" /><path clip-path="url(#clip750)" d="M2528.37 572.792 L2557.61 572.792 L2557.61 576.727 L2545.34 576.727 L2545.34 607.352 L2540.64 607.352 L2540.64 576.727 L2528.37 576.727 L2528.37 572.792 Z" fill="#005d7f" fill-rule="nonzero" fill-opacity="1" /><path clip-path="url(#clip750)" d="M2583.49 591.704 L2583.49 607.352 L2579.23 607.352 L2579.23 591.842 Q2579.23 588.162 2577.79 586.333 Q2576.36 584.504 2573.49 584.504 Q2570.04 584.504 2568.05 586.704 Q2566.06 588.903 2566.06 592.699 L2566.06 607.352 L2561.78 607.352 L2561.78 571.333 L2566.06 571.333 L2566.06 585.454 Q2567.59 583.116 2569.65 581.958 Q2571.73 580.801 2574.44 580.801 Q2578.91 580.801 2581.2 583.579 Q2583.49 586.333 2583.49 591.704 Z" fill="#005d7f" fill-rule="nonzero" fill-opacity="1" /><path clip-path="url(#clip750)" d="M2591.54 597.12 L2591.54 581.426 L2595.8 581.426 L2595.8 596.958 Q2595.8 600.639 2597.24 602.491 Q2598.67 604.319 2601.54 604.319 Q2604.99 604.319 2606.98 602.12 Q2609 599.921 2609 596.125 L2609 581.426 L2613.26 581.426 L2613.26 607.352 L2609 607.352 L2609 603.37 Q2607.45 605.731 2605.39 606.889 Q2603.35 608.023 2600.64 608.023 Q2596.17 608.023 2593.86 605.245 Q2591.54 602.467 2591.54 597.12 M2602.26 580.801 L2602.26 580.801 Z" fill="#005d7f" fill-rule="nonzero" fill-opacity="1" /><path clip-path="url(#clip750)" d="M2468.39 1197.9 L2488.26 1197.9 L2488.26 1201.83 L2473.07 1201.83 L2473.07 1212.02 L2486.77 1212.02 L2486.77 1215.95 L2473.07 1215.95 L2473.07 1232.46 L2468.39 1232.46 L2468.39 1197.9 Z" fill="#00a8ff" fill-rule="nonzero" fill-opacity="1" /><path clip-path="url(#clip750)" d="M2507.05 1210.51 Q2506.33 1210.1 2505.48 1209.91 Q2504.64 1209.7 2503.63 1209.7 Q2500.01 1209.7 2498.07 1212.06 Q2496.15 1214.4 2496.15 1218.8 L2496.15 1232.46 L2491.87 1232.46 L2491.87 1206.53 L2496.15 1206.53 L2496.15 1210.56 Q2497.49 1208.2 2499.64 1207.06 Q2501.8 1205.91 2504.88 1205.91 Q2505.32 1205.91 2505.85 1205.98 Q2506.38 1206.02 2507.03 1206.14 L2507.05 1210.51 Z" fill="#00a8ff" fill-rule="nonzero" fill-opacity="1" /><path clip-path="url(#clip750)" d="M2511.52 1206.53 L2515.78 1206.53 L2515.78 1232.46 L2511.52 1232.46 L2511.52 1206.53 M2511.52 1196.44 L2515.78 1196.44 L2515.78 1201.83 L2511.52 1201.83 L2511.52 1196.44 Z" fill="#00a8ff" fill-rule="nonzero" fill-opacity="1" /><path clip-path="url(#clip750)" d="M2490.64 1329.29 L2490.64 1333.85 Q2487.98 1332.58 2485.62 1331.96 Q2483.26 1331.33 2481.06 1331.33 Q2477.24 1331.33 2475.15 1332.81 Q2473.09 1334.29 2473.09 1337.03 Q2473.09 1339.32 2474.46 1340.5 Q2475.85 1341.66 2479.69 1342.37 L2482.51 1342.95 Q2487.75 1343.95 2490.22 1346.47 Q2492.72 1348.97 2492.72 1353.18 Q2492.72 1358.21 2489.34 1360.8 Q2485.99 1363.39 2479.48 1363.39 Q2477.03 1363.39 2474.25 1362.84 Q2471.5 1362.28 2468.53 1361.19 L2468.53 1356.38 Q2471.38 1357.97 2474.11 1358.79 Q2476.84 1359.6 2479.48 1359.6 Q2483.49 1359.6 2485.66 1358.02 Q2487.84 1356.45 2487.84 1353.53 Q2487.84 1350.98 2486.26 1349.55 Q2484.71 1348.11 2481.15 1347.4 L2478.3 1346.84 Q2473.07 1345.8 2470.73 1343.58 Q2468.39 1341.35 2468.39 1337.4 Q2468.39 1332.81 2471.61 1330.17 Q2474.85 1327.54 2480.52 1327.54 Q2482.95 1327.54 2485.48 1327.98 Q2488 1328.41 2490.64 1329.29 Z" fill="#dc3df1" fill-rule="nonzero" fill-opacity="1" /><path clip-path="url(#clip750)" d="M2511.61 1349.69 Q2506.45 1349.69 2504.46 1350.87 Q2502.47 1352.05 2502.47 1354.9 Q2502.47 1357.16 2503.95 1358.51 Q2505.45 1359.83 2508.02 1359.83 Q2511.57 1359.83 2513.7 1357.33 Q2515.85 1354.8 2515.85 1350.64 L2515.85 1349.69 L2511.61 1349.69 M2520.11 1347.93 L2520.11 1362.72 L2515.85 1362.72 L2515.85 1358.79 Q2514.39 1361.15 2512.21 1362.28 Q2510.04 1363.39 2506.89 1363.39 Q2502.91 1363.39 2500.55 1361.17 Q2498.21 1358.92 2498.21 1355.17 Q2498.21 1350.8 2501.13 1348.58 Q2504.07 1346.35 2509.88 1346.35 L2515.85 1346.35 L2515.85 1345.94 Q2515.85 1343 2513.9 1341.4 Q2511.98 1339.78 2508.49 1339.78 Q2506.26 1339.78 2504.16 1340.31 Q2502.05 1340.85 2500.11 1341.91 L2500.11 1337.98 Q2502.45 1337.07 2504.64 1336.63 Q2506.84 1336.17 2508.93 1336.17 Q2514.55 1336.17 2517.33 1339.09 Q2520.11 1342 2520.11 1347.93 Z" fill="#dc3df1" fill-rule="nonzero" fill-opacity="1" /><path clip-path="url(#clip750)" d="M2533.09 1329.43 L2533.09 1336.79 L2541.87 1336.79 L2541.87 1340.1 L2533.09 1340.1 L2533.09 1354.18 Q2533.09 1357.35 2533.95 1358.25 Q2534.83 1359.16 2537.49 1359.16 L2541.87 1359.16 L2541.87 1362.72 L2537.49 1362.72 Q2532.56 1362.72 2530.69 1360.89 Q2528.81 1359.04 2528.81 1354.18 L2528.81 1340.1 L2525.69 1340.1 L2525.69 1336.79 L2528.81 1336.79 L2528.81 1329.43 L2533.09 1329.43 Z" fill="#dc3df1" fill-rule="nonzero" fill-opacity="1" /><path clip-path="url(#clip750)" d="M2430.66 962.684 L2430.66 967.244 Q2428 965.971 2425.64 965.346 Q2423.28 964.721 2421.08 964.721 Q2417.26 964.721 2415.17 966.202 Q2413.11 967.684 2413.11 970.415 Q2413.11 972.707 2414.48 973.887 Q2415.87 975.045 2419.71 975.762 L2422.54 976.341 Q2427.77 977.336 2430.24 979.86 Q2432.74 982.36 2432.74 986.572 Q2432.74 991.596 2429.36 994.188 Q2426.01 996.781 2419.5 996.781 Q2417.05 996.781 2414.27 996.225 Q2411.52 995.67 2408.55 994.582 L2408.55 989.767 Q2411.4 991.364 2414.13 992.174 Q2416.86 992.985 2419.5 992.985 Q2423.51 992.985 2425.68 991.41 Q2427.86 989.836 2427.86 986.92 Q2427.86 984.373 2426.29 982.938 Q2424.73 981.503 2421.17 980.785 L2418.32 980.23 Q2413.09 979.188 2410.75 976.966 Q2408.42 974.744 2408.42 970.786 Q2408.42 966.202 2411.63 963.563 Q2414.87 960.924 2420.55 960.924 Q2422.98 960.924 2425.5 961.364 Q2428.02 961.804 2430.66 962.684 Z" fill="#759500" fill-rule="nonzero" fill-opacity="1" /><path clip-path="url(#clip750)" d="M2439.41 985.878 L2439.41 970.184 L2443.67 970.184 L2443.67 985.716 Q2443.67 989.397 2445.11 991.248 Q2446.54 993.077 2449.41 993.077 Q2452.86 993.077 2454.85 990.878 Q2456.86 988.679 2456.86 984.883 L2456.86 970.184 L2461.12 970.184 L2461.12 996.109 L2456.86 996.109 L2456.86 992.128 Q2455.31 994.489 2453.25 995.647 Q2451.22 996.781 2448.51 996.781 Q2444.04 996.781 2441.73 994.003 Q2439.41 991.225 2439.41 985.878 M2450.13 969.559 L2450.13 969.559 Z" fill="#759500" fill-rule="nonzero" fill-opacity="1" /><path clip-path="url(#clip750)" d="M2491.45 980.461 L2491.45 996.109 L2487.19 996.109 L2487.19 980.6 Q2487.19 976.92 2485.75 975.091 Q2484.32 973.262 2481.45 973.262 Q2478 973.262 2476.01 975.461 Q2474.02 977.661 2474.02 981.457 L2474.02 996.109 L2469.73 996.109 L2469.73 970.184 L2474.02 970.184 L2474.02 974.211 Q2475.54 971.874 2477.6 970.716 Q2479.69 969.559 2482.4 969.559 Q2486.86 969.559 2489.16 972.336 Q2491.45 975.091 2491.45 980.461 Z" fill="#759500" fill-rule="nonzero" fill-opacity="1" /></svg>
