<?xml version="1.0" encoding="utf-8"?>
<svg xmlns="http://www.w3.org/2000/svg" xmlns:xlink="http://www.w3.org/1999/xlink" width="800" height="450" viewBox="0 0 3200 1800">
<defs>
  <clipPath id="clip330">
    <rect x="0" y="0" width="3200" height="1800"/>
  </clipPath>
</defs>
<path clip-path="url(#clip330)" d="M0 1800 L3200 1800 L3200 0 L0 0  Z" fill="#282c34" fill-rule="evenodd" fill-opacity="1"/>
<defs>
  <clipPath id="clip331">
    <rect x="237" y="99" width="2916" height="1591"/>
  </clipPath>
</defs>
<path clip-path="url(#clip330)" d="M237.445 1689.85 L3152.76 1689.85 L3152.76 99.4421 L237.445 99.4421  Z" fill="#21252b" fill-rule="evenodd" fill-opacity="1"/>
<polyline clip-path="url(#clip331)" style="stroke:#adb2b7; stroke-linecap:round; stroke-linejoin:round; stroke-width:2; stroke-opacity:0.1; fill:none" points="316.129,1689.85 316.129,99.4421 "/>
<polyline clip-path="url(#clip331)" style="stroke:#adb2b7; stroke-linecap:round; stroke-linejoin:round; stroke-width:2; stroke-opacity:0.1; fill:none" points="1081.16,1689.85 1081.16,99.4421 "/>
<polyline clip-path="url(#clip331)" style="stroke:#adb2b7; stroke-linecap:round; stroke-linejoin:round; stroke-width:2; stroke-opacity:0.1; fill:none" points="1846.19,1689.85 1846.19,99.4421 "/>
<polyline clip-path="url(#clip331)" style="stroke:#adb2b7; stroke-linecap:round; stroke-linejoin:round; stroke-width:2; stroke-opacity:0.1; fill:none" points="2611.23,1689.85 2611.23,99.4421 "/>
<polyline clip-path="url(#clip331)" style="stroke:#adb2b7; stroke-linecap:round; stroke-linejoin:round; stroke-width:2; stroke-opacity:0.1; fill:none" points="237.445,1480.68 3152.76,1480.68 "/>
<polyline clip-path="url(#clip331)" style="stroke:#adb2b7; stroke-linecap:round; stroke-linejoin:round; stroke-width:2; stroke-opacity:0.1; fill:none" points="237.445,1155 3152.76,1155 "/>
<polyline clip-path="url(#clip331)" style="stroke:#adb2b7; stroke-linecap:round; stroke-linejoin:round; stroke-width:2; stroke-opacity:0.1; fill:none" points="237.445,829.307 3152.76,829.307 "/>
<polyline clip-path="url(#clip331)" style="stroke:#adb2b7; stroke-linecap:round; stroke-linejoin:round; stroke-width:2; stroke-opacity:0.1; fill:none" points="237.445,503.618 3152.76,503.618 "/>
<polyline clip-path="url(#clip331)" style="stroke:#adb2b7; stroke-linecap:round; stroke-linejoin:round; stroke-width:2; stroke-opacity:0.1; fill:none" points="237.445,177.929 3152.76,177.929 "/>
<polyline clip-path="url(#clip330)" style="stroke:#adb2b7; stroke-linecap:round; stroke-linejoin:round; stroke-width:4; stroke-opacity:1; fill:none" points="237.445,1689.85 3152.76,1689.85 "/>
<polyline clip-path="url(#clip330)" style="stroke:#adb2b7; stroke-linecap:round; stroke-linejoin:round; stroke-width:4; stroke-opacity:1; fill:none" points="316.129,1689.85 316.129,1670.95 "/>
<polyline clip-path="url(#clip330)" style="stroke:#adb2b7; stroke-linecap:round; stroke-linejoin:round; stroke-width:4; stroke-opacity:1; fill:none" points="1081.16,1689.85 1081.16,1670.95 "/>
<polyline clip-path="url(#clip330)" style="stroke:#adb2b7; stroke-linecap:round; stroke-linejoin:round; stroke-width:4; stroke-opacity:1; fill:none" points="1846.19,1689.85 1846.19,1670.95 "/>
<polyline clip-path="url(#clip330)" style="stroke:#adb2b7; stroke-linecap:round; stroke-linejoin:round; stroke-width:4; stroke-opacity:1; fill:none" points="2611.23,1689.85 2611.23,1670.95 "/>
<path clip-path="url(#clip330)" d="M316.129 1727.17 Q312.518 1727.17 310.689 1730.73 Q308.883 1734.27 308.883 1741.4 Q308.883 1748.51 310.689 1752.07 Q312.518 1755.62 316.129 1755.62 Q319.763 1755.62 321.568 1752.07 Q323.397 1748.51 323.397 1741.4 Q323.397 1734.27 321.568 1730.73 Q319.763 1727.17 316.129 1727.17 M316.129 1723.46 Q321.939 1723.46 324.994 1728.07 Q328.073 1732.65 328.073 1741.4 Q328.073 1750.13 324.994 1754.74 Q321.939 1759.32 316.129 1759.32 Q310.319 1759.32 307.24 1754.74 Q304.184 1750.13 304.184 1741.4 Q304.184 1732.65 307.24 1728.07 Q310.319 1723.46 316.129 1723.46 Z" fill="#9eb1be" fill-rule="nonzero" fill-opacity="1" /><path clip-path="url(#clip330)" d="M1044.85 1754.71 L1061.17 1754.71 L1061.17 1758.65 L1039.23 1758.65 L1039.23 1754.71 Q1041.89 1751.96 1046.47 1747.33 Q1051.08 1742.68 1052.26 1741.33 Q1054.51 1738.81 1055.39 1737.07 Q1056.29 1735.31 1056.29 1733.62 Q1056.29 1730.87 1054.34 1729.13 Q1052.42 1727.4 1049.32 1727.4 Q1047.12 1727.4 1044.67 1728.16 Q1042.24 1728.93 1039.46 1730.48 L1039.46 1725.75 Q1042.28 1724.62 1044.74 1724.04 Q1047.19 1723.46 1049.23 1723.46 Q1054.6 1723.46 1057.79 1726.15 Q1060.99 1728.83 1060.99 1733.32 Q1060.99 1735.45 1060.18 1737.37 Q1059.39 1739.27 1057.28 1741.87 Q1056.71 1742.54 1053.6 1745.75 Q1050.5 1748.95 1044.85 1754.71 Z" fill="#9eb1be" fill-rule="nonzero" fill-opacity="1" /><path clip-path="url(#clip330)" d="M1080.99 1727.17 Q1077.38 1727.17 1075.55 1730.73 Q1073.74 1734.27 1073.74 1741.4 Q1073.74 1748.51 1075.55 1752.07 Q1077.38 1755.62 1080.99 1755.62 Q1084.62 1755.62 1086.43 1752.07 Q1088.26 1748.51 1088.26 1741.4 Q1088.26 1734.27 1086.43 1730.73 Q1084.62 1727.17 1080.99 1727.17 M1080.99 1723.46 Q1086.8 1723.46 1089.85 1728.07 Q1092.93 1732.65 1092.93 1741.4 Q1092.93 1750.13 1089.85 1754.74 Q1086.8 1759.32 1080.99 1759.32 Q1075.18 1759.32 1072.1 1754.74 Q1069.04 1750.13 1069.04 1741.4 Q1069.04 1732.65 1072.1 1728.07 Q1075.18 1723.46 1080.99 1723.46 Z" fill="#9eb1be" fill-rule="nonzero" fill-opacity="1" /><path clip-path="url(#clip330)" d="M1111.15 1727.17 Q1107.54 1727.17 1105.71 1730.73 Q1103.9 1734.27 1103.9 1741.4 Q1103.9 1748.51 1105.71 1752.07 Q1107.54 1755.62 1111.15 1755.62 Q1114.78 1755.62 1116.59 1752.07 Q1118.42 1748.51 1118.42 1741.4 Q1118.42 1734.27 1116.59 1730.73 Q1114.78 1727.17 1111.15 1727.17 M1111.15 1723.46 Q1116.96 1723.46 1120.02 1728.07 Q1123.09 1732.65 1123.09 1741.4 Q1123.09 1750.13 1120.02 1754.74 Q1116.96 1759.32 1111.15 1759.32 Q1105.34 1759.32 1102.26 1754.74 Q1099.21 1750.13 1099.21 1741.4 Q1099.21 1732.65 1102.26 1728.07 Q1105.34 1723.46 1111.15 1723.46 Z" fill="#9eb1be" fill-rule="nonzero" fill-opacity="1" /><path clip-path="url(#clip330)" d="M1819.28 1728.16 L1807.48 1746.61 L1819.28 1746.61 L1819.28 1728.16 M1818.06 1724.09 L1823.94 1724.09 L1823.94 1746.61 L1828.87 1746.61 L1828.87 1750.5 L1823.94 1750.5 L1823.94 1758.65 L1819.28 1758.65 L1819.28 1750.5 L1803.68 1750.5 L1803.68 1745.99 L1818.06 1724.09 Z" fill="#9eb1be" fill-rule="nonzero" fill-opacity="1" /><path clip-path="url(#clip330)" d="M1846.6 1727.17 Q1842.99 1727.17 1841.16 1730.73 Q1839.35 1734.27 1839.35 1741.4 Q1839.35 1748.51 1841.16 1752.07 Q1842.99 1755.62 1846.6 1755.62 Q1850.23 1755.62 1852.04 1752.07 Q1853.87 1748.51 1853.87 1741.4 Q1853.87 1734.27 1852.04 1730.73 Q1850.23 1727.17 1846.6 1727.17 M1846.6 1723.46 Q1852.41 1723.46 1855.47 1728.07 Q1858.54 1732.65 1858.54 1741.4 Q1858.54 1750.13 1855.47 1754.74 Q1852.41 1759.32 1846.6 1759.32 Q1840.79 1759.32 1837.71 1754.74 Q1834.66 1750.13 1834.66 1741.4 Q1834.66 1732.65 1837.71 1728.07 Q1840.79 1723.46 1846.6 1723.46 Z" fill="#9eb1be" fill-rule="nonzero" fill-opacity="1" /><path clip-path="url(#clip330)" d="M1876.76 1727.17 Q1873.15 1727.17 1871.32 1730.73 Q1869.52 1734.27 1869.52 1741.4 Q1869.52 1748.51 1871.32 1752.07 Q1873.15 1755.62 1876.76 1755.62 Q1880.4 1755.62 1882.2 1752.07 Q1884.03 1748.51 1884.03 1741.4 Q1884.03 1734.27 1882.2 1730.73 Q1880.4 1727.17 1876.76 1727.17 M1876.76 1723.46 Q1882.57 1723.46 1885.63 1728.07 Q1888.71 1732.65 1888.71 1741.4 Q1888.71 1750.13 1885.63 1754.74 Q1882.57 1759.32 1876.76 1759.32 Q1870.95 1759.32 1867.87 1754.74 Q1864.82 1750.13 1864.82 1741.4 Q1864.82 1732.65 1867.87 1728.07 Q1870.95 1723.46 1876.76 1723.46 Z" fill="#9eb1be" fill-rule="nonzero" fill-opacity="1" /><path clip-path="url(#clip330)" d="M2581.55 1739.5 Q2578.4 1739.5 2576.55 1741.66 Q2574.72 1743.81 2574.72 1747.56 Q2574.72 1751.29 2576.55 1753.46 Q2578.4 1755.62 2581.55 1755.62 Q2584.7 1755.62 2586.53 1753.46 Q2588.38 1751.29 2588.38 1747.56 Q2588.38 1743.81 2586.53 1741.66 Q2584.7 1739.5 2581.55 1739.5 M2590.83 1724.85 L2590.83 1729.11 Q2589.07 1728.28 2587.27 1727.84 Q2585.49 1727.4 2583.73 1727.4 Q2579.1 1727.4 2576.64 1730.52 Q2574.21 1733.65 2573.87 1739.97 Q2575.23 1737.95 2577.29 1736.89 Q2579.35 1735.8 2581.83 1735.8 Q2587.04 1735.8 2590.05 1738.97 Q2593.08 1742.12 2593.08 1747.56 Q2593.08 1752.88 2589.93 1756.1 Q2586.78 1759.32 2581.55 1759.32 Q2575.56 1759.32 2572.38 1754.74 Q2569.21 1750.13 2569.21 1741.4 Q2569.21 1733.21 2573.1 1728.35 Q2576.99 1723.46 2583.54 1723.46 Q2585.3 1723.46 2587.08 1723.81 Q2588.89 1724.16 2590.83 1724.85 Z" fill="#9eb1be" fill-rule="nonzero" fill-opacity="1" /><path clip-path="url(#clip330)" d="M2611.13 1727.17 Q2607.52 1727.17 2605.69 1730.73 Q2603.89 1734.27 2603.89 1741.4 Q2603.89 1748.51 2605.69 1752.07 Q2607.52 1755.62 2611.13 1755.62 Q2614.77 1755.62 2616.57 1752.07 Q2618.4 1748.51 2618.4 1741.4 Q2618.4 1734.27 2616.57 1730.73 Q2614.77 1727.17 2611.13 1727.17 M2611.13 1723.46 Q2616.94 1723.46 2620 1728.07 Q2623.08 1732.65 2623.08 1741.4 Q2623.08 1750.13 2620 1754.74 Q2616.94 1759.32 2611.13 1759.32 Q2605.32 1759.32 2602.25 1754.74 Q2599.19 1750.13 2599.19 1741.4 Q2599.19 1732.65 2602.25 1728.07 Q2605.32 1723.46 2611.13 1723.46 Z" fill="#9eb1be" fill-rule="nonzero" fill-opacity="1" /><path clip-path="url(#clip330)" d="M2641.3 1727.17 Q2637.69 1727.17 2635.86 1730.73 Q2634.05 1734.27 2634.05 1741.4 Q2634.05 1748.51 2635.86 1752.07 Q2637.69 1755.62 2641.3 1755.62 Q2644.93 1755.62 2646.74 1752.07 Q2648.57 1748.51 2648.57 1741.4 Q2648.57 1734.27 2646.74 1730.73 Q2644.93 1727.17 2641.3 1727.17 M2641.3 1723.46 Q2647.11 1723.46 2650.16 1728.07 Q2653.24 1732.65 2653.24 1741.4 Q2653.24 1750.13 2650.16 1754.74 Q2647.11 1759.32 2641.3 1759.32 Q2635.49 1759.32 2632.41 1754.74 Q2629.35 1750.13 2629.35 1741.4 Q2629.35 1732.65 2632.41 1728.07 Q2635.49 1723.46 2641.3 1723.46 Z" fill="#9eb1be" fill-rule="nonzero" fill-opacity="1" /><polyline clip-path="url(#clip330)" style="stroke:#adb2b7; stroke-linecap:round; stroke-linejoin:round; stroke-width:4; stroke-opacity:1; fill:none" points="237.445,1689.85 237.445,99.4421 "/>
<polyline clip-path="url(#clip330)" style="stroke:#adb2b7; stroke-linecap:round; stroke-linejoin:round; stroke-width:4; stroke-opacity:1; fill:none" points="237.445,1480.68 256.343,1480.68 "/>
<polyline clip-path="url(#clip330)" style="stroke:#adb2b7; stroke-linecap:round; stroke-linejoin:round; stroke-width:4; stroke-opacity:1; fill:none" points="237.445,1155 256.343,1155 "/>
<polyline clip-path="url(#clip330)" style="stroke:#adb2b7; stroke-linecap:round; stroke-linejoin:round; stroke-width:4; stroke-opacity:1; fill:none" points="237.445,829.307 256.343,829.307 "/>
<polyline clip-path="url(#clip330)" style="stroke:#adb2b7; stroke-linecap:round; stroke-linejoin:round; stroke-width:4; stroke-opacity:1; fill:none" points="237.445,503.618 256.343,503.618 "/>
<polyline clip-path="url(#clip330)" style="stroke:#adb2b7; stroke-linecap:round; stroke-linejoin:round; stroke-width:4; stroke-opacity:1; fill:none" points="237.445,177.929 256.343,177.929 "/>
<path clip-path="url(#clip330)" d="M47.6634 1494.03 L55.3023 1494.03 L55.3023 1467.66 L46.9921 1469.33 L46.9921 1465.07 L55.256 1463.4 L59.9319 1463.4 L59.9319 1494.03 L67.5707 1494.03 L67.5707 1497.96 L47.6634 1497.96 L47.6634 1494.03 Z" fill="#9eb1be" fill-rule="nonzero" fill-opacity="1" /><path clip-path="url(#clip330)" d="M87.0151 1466.48 Q83.404 1466.48 81.5753 1470.05 Q79.7697 1473.59 79.7697 1480.72 Q79.7697 1487.83 81.5753 1491.39 Q83.404 1494.93 87.0151 1494.93 Q90.6493 1494.93 92.4548 1491.39 Q94.2835 1487.83 94.2835 1480.72 Q94.2835 1473.59 92.4548 1470.05 Q90.6493 1466.48 87.0151 1466.48 M87.0151 1462.78 Q92.8252 1462.78 95.8808 1467.39 Q98.9594 1471.97 98.9594 1480.72 Q98.9594 1489.45 95.8808 1494.05 Q92.8252 1498.64 87.0151 1498.64 Q81.2049 1498.64 78.1262 1494.05 Q75.0707 1489.45 75.0707 1480.72 Q75.0707 1471.97 78.1262 1467.39 Q81.2049 1462.78 87.0151 1462.78 Z" fill="#9eb1be" fill-rule="nonzero" fill-opacity="1" /><path clip-path="url(#clip330)" d="M117.177 1466.48 Q113.566 1466.48 111.737 1470.05 Q109.932 1473.59 109.932 1480.72 Q109.932 1487.83 111.737 1491.39 Q113.566 1494.93 117.177 1494.93 Q120.811 1494.93 122.617 1491.39 Q124.445 1487.83 124.445 1480.72 Q124.445 1473.59 122.617 1470.05 Q120.811 1466.48 117.177 1466.48 M117.177 1462.78 Q122.987 1462.78 126.043 1467.39 Q129.121 1471.97 129.121 1480.72 Q129.121 1489.45 126.043 1494.05 Q122.987 1498.64 117.177 1498.64 Q111.367 1498.64 108.288 1494.05 Q105.233 1489.45 105.233 1480.72 Q105.233 1471.97 108.288 1467.39 Q111.367 1462.78 117.177 1462.78 Z" fill="#9eb1be" fill-rule="nonzero" fill-opacity="1" /><path clip-path="url(#clip330)" d="M147.339 1466.48 Q143.728 1466.48 141.899 1470.05 Q140.093 1473.59 140.093 1480.72 Q140.093 1487.83 141.899 1491.39 Q143.728 1494.93 147.339 1494.93 Q150.973 1494.93 152.779 1491.39 Q154.607 1487.83 154.607 1480.72 Q154.607 1473.59 152.779 1470.05 Q150.973 1466.48 147.339 1466.48 M147.339 1462.78 Q153.149 1462.78 156.205 1467.39 Q159.283 1471.97 159.283 1480.72 Q159.283 1489.45 156.205 1494.05 Q153.149 1498.64 147.339 1498.64 Q141.529 1498.64 138.45 1494.05 Q135.394 1489.45 135.394 1480.72 Q135.394 1471.97 138.45 1467.39 Q141.529 1462.78 147.339 1462.78 Z" fill="#9eb1be" fill-rule="nonzero" fill-opacity="1" /><path clip-path="url(#clip330)" d="M177.501 1466.48 Q173.89 1466.48 172.061 1470.05 Q170.255 1473.59 170.255 1480.72 Q170.255 1487.83 172.061 1491.39 Q173.89 1494.93 177.501 1494.93 Q181.135 1494.93 182.94 1491.39 Q184.769 1487.83 184.769 1480.72 Q184.769 1473.59 182.94 1470.05 Q181.135 1466.48 177.501 1466.48 M177.501 1462.78 Q183.311 1462.78 186.366 1467.39 Q189.445 1471.97 189.445 1480.72 Q189.445 1489.45 186.366 1494.05 Q183.311 1498.64 177.501 1498.64 Q171.691 1498.64 168.612 1494.05 Q165.556 1489.45 165.556 1480.72 Q165.556 1471.97 168.612 1467.39 Q171.691 1462.78 177.501 1462.78 Z" fill="#9eb1be" fill-rule="nonzero" fill-opacity="1" /><path clip-path="url(#clip330)" d="M47.6634 1168.34 L55.3023 1168.34 L55.3023 1141.98 L46.9921 1143.64 L46.9921 1139.38 L55.256 1137.72 L59.9319 1137.72 L59.9319 1168.34 L67.5707 1168.34 L67.5707 1172.28 L47.6634 1172.28 L47.6634 1168.34 Z" fill="#9eb1be" fill-rule="nonzero" fill-opacity="1" /><path clip-path="url(#clip330)" d="M87.0151 1140.79 Q83.404 1140.79 81.5753 1144.36 Q79.7697 1147.9 79.7697 1155.03 Q79.7697 1162.14 81.5753 1165.7 Q83.404 1169.24 87.0151 1169.24 Q90.6493 1169.24 92.4548 1165.7 Q94.2835 1162.14 94.2835 1155.03 Q94.2835 1147.9 92.4548 1144.36 Q90.6493 1140.79 87.0151 1140.79 M87.0151 1137.09 Q92.8252 1137.09 95.8808 1141.7 Q98.9594 1146.28 98.9594 1155.03 Q98.9594 1163.76 95.8808 1168.36 Q92.8252 1172.95 87.0151 1172.95 Q81.2049 1172.95 78.1262 1168.36 Q75.0707 1163.76 75.0707 1155.03 Q75.0707 1146.28 78.1262 1141.7 Q81.2049 1137.09 87.0151 1137.09 Z" fill="#9eb1be" fill-rule="nonzero" fill-opacity="1" /><path clip-path="url(#clip330)" d="M107.223 1137.72 L125.58 1137.72 L125.58 1141.65 L111.506 1141.65 L111.506 1150.12 Q112.524 1149.78 113.543 1149.61 Q114.561 1149.43 115.58 1149.43 Q121.367 1149.43 124.746 1152.6 Q128.126 1155.77 128.126 1161.19 Q128.126 1166.77 124.654 1169.87 Q121.182 1172.95 114.862 1172.95 Q112.686 1172.95 110.418 1172.58 Q108.172 1172.21 105.765 1171.47 L105.765 1166.77 Q107.848 1167.9 110.07 1168.46 Q112.293 1169.01 114.77 1169.01 Q118.774 1169.01 121.112 1166.91 Q123.45 1164.8 123.45 1161.19 Q123.45 1157.58 121.112 1155.47 Q118.774 1153.36 114.77 1153.36 Q112.895 1153.36 111.02 1153.78 Q109.168 1154.2 107.223 1155.08 L107.223 1137.72 Z" fill="#9eb1be" fill-rule="nonzero" fill-opacity="1" /><path clip-path="url(#clip330)" d="M147.339 1140.79 Q143.728 1140.79 141.899 1144.36 Q140.093 1147.9 140.093 1155.03 Q140.093 1162.14 141.899 1165.7 Q143.728 1169.24 147.339 1169.24 Q150.973 1169.24 152.779 1165.7 Q154.607 1162.14 154.607 1155.03 Q154.607 1147.9 152.779 1144.36 Q150.973 1140.79 147.339 1140.79 M147.339 1137.09 Q153.149 1137.09 156.205 1141.7 Q159.283 1146.28 159.283 1155.03 Q159.283 1163.76 156.205 1168.36 Q153.149 1172.95 147.339 1172.95 Q141.529 1172.95 138.45 1168.36 Q135.394 1163.76 135.394 1155.03 Q135.394 1146.28 138.45 1141.7 Q141.529 1137.09 147.339 1137.09 Z" fill="#9eb1be" fill-rule="nonzero" fill-opacity="1" /><path clip-path="url(#clip330)" d="M177.501 1140.79 Q173.89 1140.79 172.061 1144.36 Q170.255 1147.9 170.255 1155.03 Q170.255 1162.14 172.061 1165.7 Q173.89 1169.24 177.501 1169.24 Q181.135 1169.24 182.94 1165.7 Q184.769 1162.14 184.769 1155.03 Q184.769 1147.9 182.94 1144.36 Q181.135 1140.79 177.501 1140.79 M177.501 1137.09 Q183.311 1137.09 186.366 1141.7 Q189.445 1146.28 189.445 1155.03 Q189.445 1163.76 186.366 1168.36 Q183.311 1172.95 177.501 1172.95 Q171.691 1172.95 168.612 1168.36 Q165.556 1163.76 165.556 1155.03 Q165.556 1146.28 168.612 1141.7 Q171.691 1137.09 177.501 1137.09 Z" fill="#9eb1be" fill-rule="nonzero" fill-opacity="1" /><path clip-path="url(#clip330)" d="M47.6634 842.652 L55.3023 842.652 L55.3023 816.286 L46.9921 817.953 L46.9921 813.694 L55.256 812.027 L59.9319 812.027 L59.9319 842.652 L67.5707 842.652 L67.5707 846.587 L47.6634 846.587 L47.6634 842.652 Z" fill="#9eb1be" fill-rule="nonzero" fill-opacity="1" /><path clip-path="url(#clip330)" d="M77.8253 842.652 L85.4641 842.652 L85.4641 816.286 L77.154 817.953 L77.154 813.694 L85.4178 812.027 L90.0937 812.027 L90.0937 842.652 L97.7326 842.652 L97.7326 846.587 L77.8253 846.587 L77.8253 842.652 Z" fill="#9eb1be" fill-rule="nonzero" fill-opacity="1" /><path clip-path="url(#clip330)" d="M117.177 815.106 Q113.566 815.106 111.737 818.67 Q109.932 822.212 109.932 829.342 Q109.932 836.448 111.737 840.013 Q113.566 843.555 117.177 843.555 Q120.811 843.555 122.617 840.013 Q124.445 836.448 124.445 829.342 Q124.445 822.212 122.617 818.67 Q120.811 815.106 117.177 815.106 M117.177 811.402 Q122.987 811.402 126.043 816.008 Q129.121 820.592 129.121 829.342 Q129.121 838.068 126.043 842.675 Q122.987 847.258 117.177 847.258 Q111.367 847.258 108.288 842.675 Q105.233 838.068 105.233 829.342 Q105.233 820.592 108.288 816.008 Q111.367 811.402 117.177 811.402 Z" fill="#9eb1be" fill-rule="nonzero" fill-opacity="1" /><path clip-path="url(#clip330)" d="M147.339 815.106 Q143.728 815.106 141.899 818.67 Q140.093 822.212 140.093 829.342 Q140.093 836.448 141.899 840.013 Q143.728 843.555 147.339 843.555 Q150.973 843.555 152.779 840.013 Q154.607 836.448 154.607 829.342 Q154.607 822.212 152.779 818.67 Q150.973 815.106 147.339 815.106 M147.339 811.402 Q153.149 811.402 156.205 816.008 Q159.283 820.592 159.283 829.342 Q159.283 838.068 156.205 842.675 Q153.149 847.258 147.339 847.258 Q141.529 847.258 138.45 842.675 Q135.394 838.068 135.394 829.342 Q135.394 820.592 138.45 816.008 Q141.529 811.402 147.339 811.402 Z" fill="#9eb1be" fill-rule="nonzero" fill-opacity="1" /><path clip-path="url(#clip330)" d="M177.501 815.106 Q173.89 815.106 172.061 818.67 Q170.255 822.212 170.255 829.342 Q170.255 836.448 172.061 840.013 Q173.89 843.555 177.501 843.555 Q181.135 843.555 182.94 840.013 Q184.769 836.448 184.769 829.342 Q184.769 822.212 182.94 818.67 Q181.135 815.106 177.501 815.106 M177.501 811.402 Q183.311 811.402 186.366 816.008 Q189.445 820.592 189.445 829.342 Q189.445 838.068 186.366 842.675 Q183.311 847.258 177.501 847.258 Q171.691 847.258 168.612 842.675 Q165.556 838.068 165.556 829.342 Q165.556 820.592 168.612 816.008 Q171.691 811.402 177.501 811.402 Z" fill="#9eb1be" fill-rule="nonzero" fill-opacity="1" /><path clip-path="url(#clip330)" d="M47.6634 516.963 L55.3023 516.963 L55.3023 490.597 L46.9921 492.264 L46.9921 488.005 L55.256 486.338 L59.9319 486.338 L59.9319 516.963 L67.5707 516.963 L67.5707 520.898 L47.6634 520.898 L47.6634 516.963 Z" fill="#9eb1be" fill-rule="nonzero" fill-opacity="1" /><path clip-path="url(#clip330)" d="M77.8253 516.963 L85.4641 516.963 L85.4641 490.597 L77.154 492.264 L77.154 488.005 L85.4178 486.338 L90.0937 486.338 L90.0937 516.963 L97.7326 516.963 L97.7326 520.898 L77.8253 520.898 L77.8253 516.963 Z" fill="#9eb1be" fill-rule="nonzero" fill-opacity="1" /><path clip-path="url(#clip330)" d="M107.223 486.338 L125.58 486.338 L125.58 490.273 L111.506 490.273 L111.506 498.745 Q112.524 498.398 113.543 498.236 Q114.561 498.051 115.58 498.051 Q121.367 498.051 124.746 501.222 Q128.126 504.393 128.126 509.81 Q128.126 515.389 124.654 518.491 Q121.182 521.569 114.862 521.569 Q112.686 521.569 110.418 521.199 Q108.172 520.828 105.765 520.088 L105.765 515.389 Q107.848 516.523 110.07 517.078 Q112.293 517.634 114.77 517.634 Q118.774 517.634 121.112 515.528 Q123.45 513.421 123.45 509.81 Q123.45 506.199 121.112 504.092 Q118.774 501.986 114.77 501.986 Q112.895 501.986 111.02 502.403 Q109.168 502.819 107.223 503.699 L107.223 486.338 Z" fill="#9eb1be" fill-rule="nonzero" fill-opacity="1" /><path clip-path="url(#clip330)" d="M147.339 489.417 Q143.728 489.417 141.899 492.981 Q140.093 496.523 140.093 503.653 Q140.093 510.759 141.899 514.324 Q143.728 517.866 147.339 517.866 Q150.973 517.866 152.779 514.324 Q154.607 510.759 154.607 503.653 Q154.607 496.523 152.779 492.981 Q150.973 489.417 147.339 489.417 M147.339 485.713 Q153.149 485.713 156.205 490.319 Q159.283 494.903 159.283 503.653 Q159.283 512.379 156.205 516.986 Q153.149 521.569 147.339 521.569 Q141.529 521.569 138.45 516.986 Q135.394 512.379 135.394 503.653 Q135.394 494.903 138.45 490.319 Q141.529 485.713 147.339 485.713 Z" fill="#9eb1be" fill-rule="nonzero" fill-opacity="1" /><path clip-path="url(#clip330)" d="M177.501 489.417 Q173.89 489.417 172.061 492.981 Q170.255 496.523 170.255 503.653 Q170.255 510.759 172.061 514.324 Q173.89 517.866 177.501 517.866 Q181.135 517.866 182.94 514.324 Q184.769 510.759 184.769 503.653 Q184.769 496.523 182.94 492.981 Q181.135 489.417 177.501 489.417 M177.501 485.713 Q183.311 485.713 186.366 490.319 Q189.445 494.903 189.445 503.653 Q189.445 512.379 186.366 516.986 Q183.311 521.569 177.501 521.569 Q171.691 521.569 168.612 516.986 Q165.556 512.379 165.556 503.653 Q165.556 494.903 168.612 490.319 Q171.691 485.713 177.501 485.713 Z" fill="#9eb1be" fill-rule="nonzero" fill-opacity="1" /><path clip-path="url(#clip330)" d="M47.6634 191.274 L55.3023 191.274 L55.3023 164.908 L46.9921 166.575 L46.9921 162.316 L55.256 160.649 L59.9319 160.649 L59.9319 191.274 L67.5707 191.274 L67.5707 195.209 L47.6634 195.209 L47.6634 191.274 Z" fill="#9eb1be" fill-rule="nonzero" fill-opacity="1" /><path clip-path="url(#clip330)" d="M81.0429 191.274 L97.3622 191.274 L97.3622 195.209 L75.4179 195.209 L75.4179 191.274 Q78.0799 188.519 82.6632 183.89 Q87.2697 179.237 88.4502 177.894 Q90.6956 175.371 91.5752 173.635 Q92.478 171.876 92.478 170.186 Q92.478 167.431 90.5336 165.695 Q88.6123 163.959 85.5104 163.959 Q83.3114 163.959 80.8577 164.723 Q78.4271 165.487 75.6494 167.038 L75.6494 162.316 Q78.4734 161.181 80.9271 160.603 Q83.3808 160.024 85.4178 160.024 Q90.7882 160.024 93.9826 162.709 Q97.177 165.394 97.177 169.885 Q97.177 172.015 96.3669 173.936 Q95.5798 175.834 93.4734 178.427 Q92.8947 179.098 89.7928 182.315 Q86.691 185.51 81.0429 191.274 Z" fill="#9eb1be" fill-rule="nonzero" fill-opacity="1" /><path clip-path="url(#clip330)" d="M117.177 163.728 Q113.566 163.728 111.737 167.292 Q109.932 170.834 109.932 177.964 Q109.932 185.07 111.737 188.635 Q113.566 192.177 117.177 192.177 Q120.811 192.177 122.617 188.635 Q124.445 185.07 124.445 177.964 Q124.445 170.834 122.617 167.292 Q120.811 163.728 117.177 163.728 M117.177 160.024 Q122.987 160.024 126.043 164.63 Q129.121 169.214 129.121 177.964 Q129.121 186.69 126.043 191.297 Q122.987 195.88 117.177 195.88 Q111.367 195.88 108.288 191.297 Q105.233 186.69 105.233 177.964 Q105.233 169.214 108.288 164.63 Q111.367 160.024 117.177 160.024 Z" fill="#9eb1be" fill-rule="nonzero" fill-opacity="1" /><path clip-path="url(#clip330)" d="M147.339 163.728 Q143.728 163.728 141.899 167.292 Q140.093 170.834 140.093 177.964 Q140.093 185.07 141.899 188.635 Q143.728 192.177 147.339 192.177 Q150.973 192.177 152.779 188.635 Q154.607 185.07 154.607 177.964 Q154.607 170.834 152.779 167.292 Q150.973 163.728 147.339 163.728 M147.339 160.024 Q153.149 160.024 156.205 164.63 Q159.283 169.214 159.283 177.964 Q159.283 186.69 156.205 191.297 Q153.149 195.88 147.339 195.88 Q141.529 195.88 138.45 191.297 Q135.394 186.69 135.394 177.964 Q135.394 169.214 138.45 164.63 Q141.529 160.024 147.339 160.024 Z" fill="#9eb1be" fill-rule="nonzero" fill-opacity="1" /><path clip-path="url(#clip330)" d="M177.501 163.728 Q173.89 163.728 172.061 167.292 Q170.255 170.834 170.255 177.964 Q170.255 185.07 172.061 188.635 Q173.89 192.177 177.501 192.177 Q181.135 192.177 182.94 188.635 Q184.769 185.07 184.769 177.964 Q184.769 170.834 182.94 167.292 Q181.135 163.728 177.501 163.728 M177.501 160.024 Q183.311 160.024 186.366 164.63 Q189.445 169.214 189.445 177.964 Q189.445 186.69 186.366 191.297 Q183.311 195.88 177.501 195.88 Q171.691 195.88 168.612 191.297 Q165.556 186.69 165.556 177.964 Q165.556 169.214 168.612 164.63 Q171.691 160.024 177.501 160.024 Z" fill="#9eb1be" fill-rule="nonzero" fill-opacity="1" /><path clip-path="url(#clip330)" d="M237.445 8.64 L264.76 8.64 L264.76 13.559 L243.29 13.559 L243.29 26.3482 L263.863 26.3482 L263.863 31.2672 L243.29 31.2672 L243.29 46.921 L265.281 46.921 L265.281 51.84 L237.445 51.84 L237.445 8.64 Z" fill="#adb2b7" fill-rule="nonzero" fill-opacity="1" /><path clip-path="url(#clip330)" d="M277.838 35.6653 Q277.838 41.5391 280.24 44.8956 Q282.671 48.2231 286.895 48.2231 Q291.12 48.2231 293.55 44.8956 Q295.981 41.5391 295.981 35.6653 Q295.981 29.7915 293.55 26.464 Q291.12 23.1075 286.895 23.1075 Q282.671 23.1075 280.24 26.464 Q277.838 29.7915 277.838 35.6653 M295.981 46.9789 Q294.302 49.8724 291.727 51.2902 Q289.181 52.6791 285.593 52.6791 Q279.719 52.6791 276.015 47.9916 Q272.341 43.3042 272.341 35.6653 Q272.341 28.0265 276.015 23.339 Q279.719 18.6515 285.593 18.6515 Q289.181 18.6515 291.727 20.0693 Q294.302 21.4582 295.981 24.3517 L295.981 19.4328 L301.305 19.4328 L301.305 64.1663 L295.981 64.1663 L295.981 46.9789 Z" fill="#adb2b7" fill-rule="nonzero" fill-opacity="1" /><path clip-path="url(#clip330)" d="M311.721 39.0507 L311.721 19.4328 L317.045 19.4328 L317.045 38.8482 Q317.045 43.4488 318.839 45.7636 Q320.633 48.0495 324.221 48.0495 Q328.533 48.0495 331.021 45.3007 Q333.538 42.5519 333.538 37.8065 L333.538 19.4328 L338.862 19.4328 L338.862 51.84 L333.538 51.84 L333.538 46.8632 Q331.6 49.8145 329.024 51.2613 Q326.478 52.6791 323.093 52.6791 Q317.508 52.6791 314.615 49.2069 Q311.721 45.7347 311.721 39.0507 M325.118 18.6515 L325.118 18.6515 Z" fill="#adb2b7" fill-rule="nonzero" fill-opacity="1" /><path clip-path="url(#clip330)" d="M349.829 19.4328 L355.153 19.4328 L355.153 51.84 L349.829 51.84 L349.829 19.4328 M349.829 6.81709 L355.153 6.81709 L355.153 13.559 L349.829 13.559 L349.829 6.81709 Z" fill="#adb2b7" fill-rule="nonzero" fill-opacity="1" /><path clip-path="url(#clip330)" d="M371.559 10.2314 L371.559 19.4328 L382.525 19.4328 L382.525 23.5705 L371.559 23.5705 L371.559 41.163 Q371.559 45.1271 372.63 46.2555 Q373.729 47.384 377.057 47.384 L382.525 47.384 L382.525 51.84 L377.057 51.84 Q370.893 51.84 368.55 49.5541 Q366.206 47.2393 366.206 41.163 L366.206 23.5705 L362.3 23.5705 L362.3 19.4328 L366.206 19.4328 L366.206 10.2314 L371.559 10.2314 Z" fill="#adb2b7" fill-rule="nonzero" fill-opacity="1" /><path clip-path="url(#clip330)" d="M403.011 54.8492 Q400.754 60.6362 398.613 62.4013 Q396.472 64.1663 392.884 64.1663 L388.631 64.1663 L388.631 59.7103 L391.756 59.7103 Q393.955 59.7103 395.17 58.6687 Q396.385 57.627 397.861 53.7497 L398.816 51.3192 L385.708 19.4328 L391.35 19.4328 L401.478 44.7799 L411.605 19.4328 L417.247 19.4328 L403.011 54.8492 Z" fill="#adb2b7" fill-rule="nonzero" fill-opacity="1" /><polyline clip-path="url(#clip331)" style="stroke:#bbbb00; stroke-linecap:round; stroke-linejoin:round; stroke-width:4; stroke-opacity:1; fill:none" points="319.954,1480.68 323.779,1480.68 327.604,1480.68 331.429,1480.68 335.255,1480.68 339.08,1480.68 342.905,1480.68 346.73,1480.68 350.555,1480.68 354.38,1480.68 358.206,1480.68 362.031,1480.68 365.856,1480.68 369.681,1480.68 373.506,1480.68 377.331,1480.68 381.156,1480.68 384.982,1480.68 388.807,1480.68 392.632,1480.68 396.457,1480.68 400.282,1480.68 404.107,1480.68 407.933,1480.68 407.933,1486.02 411.758,1486.02 411.758,1502.01 415.583,1502.01 415.583,1507.49 419.408,1507.49 419.408,1533.29 423.233,1533.29 427.058,1533.29 430.884,1533.29 434.709,1533.29 438.534,1533.29 442.359,1533.29 446.184,1533.29 446.184,1538.62 450.009,1538.62 450.009,1554.11 453.835,1554.11 453.835,1575.27 457.66,1575.27 457.66,1594.71 461.485,1594.71 461.485,1599.64 465.31,1599.64 465.31,1606.91 469.135,1606.91 469.135,1639.52 472.96,1639.52 476.786,1639.52 480.611,1639.52 480.611,1644.84 484.436,1644.84 484.436,1637.63 488.261,1637.63 488.261,1614.39 492.086,1614.39 492.086,1582.79 495.911,1582.79 495.911,1532.37 499.737,1532.37 499.737,1490.88 503.562,1490.88 503.562,1503.9 507.387,1503.9 507.387,1466.64 511.212,1466.64 511.212,1448.39 515.037,1448.39 515.037,1429.5 518.862,1429.5 518.862,1443.68 522.688,1443.68 522.688,1443.48 526.513,1443.48 526.513,1470.85 530.338,1470.85 530.338,1435.01 534.163,1435.01 534.163,1443.01 537.988,1443.01 537.988,1436.99 541.813,1436.99 541.813,1413.49 545.639,1413.49 545.639,1353 549.464,1353 549.464,1316.42 553.289,1316.42 553.289,1319.42 557.114,1319.42 557.114,1272.48 560.939,1272.48 560.939,1245.55 564.764,1245.55 564.764,1203.89 568.59,1203.89 568.59,1217.79 572.415,1217.79 572.415,1212.22 576.24,1212.22 576.24,1157.05 580.065,1157.05 580.065,1148.02 583.89,1148.02 583.89,1158.57 587.715,1158.57 587.715,1135.76 591.541,1135.76 591.541,1136.7 595.366,1136.7 595.366,1124.4 599.191,1124.4 599.191,1143.36 603.016,1143.36 603.016,1140.68 606.841,1140.68 606.841,1105.44 610.666,1105.44 610.666,1097.28 614.492,1097.28 614.492,1090.28 618.317,1090.28 618.317,1086.91 622.142,1086.91 622.142,1083.36 625.967,1083.36 625.967,1048.09 629.792,1048.09 629.792,1039.49 633.617,1039.49 633.617,1056.12 637.443,1056.12 637.443,1038.98 641.268,1038.98 641.268,1024.28 645.093,1024.28 645.093,1065.31 648.918,1065.31 648.918,1066.28 652.743,1066.28 652.743,1051.51 656.568,1051.51 656.568,1068.39 660.394,1068.39 660.394,1093.27 664.219,1093.27 668.044,1093.27 668.044,1098.6 671.869,1098.6 671.869,1090.43 675.694,1090.43 675.694,1148.87 679.519,1148.87 679.519,1154.22 683.344,1154.22 683.344,1144.35 687.17,1144.35 687.17,1162.68 690.995,1162.68 690.995,1156.87 694.82,1156.87 694.82,1101.74 698.645,1101.74 698.645,1053.34 702.47,1053.34 702.47,1044.95 706.295,1044.95 706.295,1068.83 710.121,1068.83 710.121,1083.69 713.946,1083.69 713.946,1064.24 717.771,1064.24 717.771,1070.61 721.596,1070.61 721.596,1035.95 725.421,1035.95 725.421,1090.06 729.246,1090.06 729.246,1051.13 733.072,1051.13 733.072,1035.25 736.897,1035.25 736.897,1069.47 740.722,1069.47 740.722,1067.89 744.547,1067.89 744.547,1051.54 748.372,1051.54 748.372,1081.94 752.197,1081.94 752.197,1063.87 756.023,1063.87 756.023,1072.83 759.848,1072.83 759.848,1030.36 763.673,1030.36 763.673,1002.18 767.498,1002.18 767.498,1022.71 771.323,1022.71 771.323,979.791 775.148,979.791 775.148,965.834 778.974,965.834 778.974,966.814 782.799,966.814 782.799,972.771 786.624,972.771 786.624,930.128 790.449,930.128 790.449,941.144 794.274,941.144 794.274,918.757 798.099,918.757 798.099,982.199 801.925,982.199 801.925,983.914 805.75,983.914 805.75,973.955 809.575,973.955 809.575,1014.55 813.4,1014.55 817.225,1014.55 817.225,1020.08 821.05,1020.08 821.05,982.086 824.876,982.086 824.876,1000.34 828.701,1000.34 828.701,1022.6 832.526,1022.6 836.351,1022.6 840.176,1022.6 844.001,1022.6 847.827,1022.6 851.652,1022.6 855.477,1022.6 855.477,1028.45 859.302,1028.45 859.302,999.308 863.127,999.308 863.127,980.277 866.952,980.277 866.952,971.243 870.778,971.243 870.778,993.117 874.603,993.117 874.603,1051.45 878.428,1051.45 882.253,1051.45 886.078,1051.45 886.078,1057.32 889.903,1057.32 889.903,1085 893.729,1085 897.554,1085 897.554,1090.31 901.379,1090.31 901.379,1037.51 905.204,1037.51 905.204,1006.1 909.029,1006.1 909.029,1024.41 912.854,1024.41 912.854,1032.89 916.68,1032.89 916.68,1036.27 920.505,1036.27 920.505,1074.87 924.33,1074.87 924.33,1089.98 928.155,1089.98 928.155,1095.44 931.98,1095.44 931.98,1100.59 935.805,1100.59 935.805,1103.55 939.631,1103.55 939.631,1158.23 943.456,1158.23 947.281,1158.23 951.106,1158.23 954.931,1158.23 958.756,1158.23 962.581,1158.23 966.407,1158.23 970.232,1158.23 974.057,1158.23 974.057,1163.46 977.882,1163.46 977.882,1162.46 981.707,1162.46 981.707,1230.67 985.532,1230.67 989.358,1230.67 993.183,1230.67 993.183,1236 997.008,1236 997.008,1215.52 1000.83,1215.52 1000.83,1269.72 1004.66,1269.72 1008.48,1269.72 1012.31,1269.72 1016.13,1269.72 1016.13,1275.48 1019.96,1275.48 1019.96,1295.08 1023.78,1295.08 1027.61,1295.08 1031.43,1295.08 1035.26,1295.08 1039.08,1295.08 1039.08,1300.38 1042.91,1300.38 1042.91,1243.99 1046.74,1243.99 1046.74,1248.96 1050.56,1248.96 1050.56,1277.27 1054.39,1277.27 1054.39,1260.53 1058.21,1260.53 1058.21,1220.07 1062.04,1220.07 1062.04,1203.27 1065.86,1203.27 1065.86,1209.29 1069.69,1209.29 1069.69,1240.43 1073.51,1240.43 1073.51,1232.21 1077.34,1232.21 1077.34,1252.04 1081.16,1252.04 1081.16,1296.71 1084.99,1296.71 1088.81,1296.71 1092.64,1296.71 1096.46,1296.71 1096.46,1302.67 1100.29,1302.67 1100.29,1310.95 1104.11,1310.95 1104.11,1310.42 1107.94,1310.42 1107.94,1361.56 1111.76,1361.56 1111.76,1367.55 1115.59,1367.55 1115.59,1313.23 1119.41,1313.23 1119.41,1290.33 1123.24,1290.33 1123.24,1259.47 1127.06,1259.47 1127.06,1230.12 1130.89,1230.12 1130.89,1203.58 1134.71,1203.58 1134.71,1207.19 1138.54,1207.19 1138.54,1246.24 1142.36,1246.24 1142.36,1213.99 1146.19,1213.99 1146.19,1198.33 1150.01,1198.33 1150.01,1195.36 1153.84,1195.36 1153.84,1181.28 1157.66,1181.28 1157.66,1186.49 1161.49,1186.49 1161.49,1184.08 1165.32,1184.08 1165.32,1155.93 1169.14,1155.93 1169.14,1140.15 1172.97,1140.15 1172.97,1088.45 1176.79,1088.45 1176.79,1050.86 1180.62,1050.86 1180.62,1014.16 1184.44,1014.16 1184.44,1016.52 1188.27,1016.52 1188.27,1054.38 1192.09,1054.38 1192.09,1000.1 1195.92,1000.1 1195.92,1023.04 1199.74,1023.04 1199.74,1012.5 1203.57,1012.5 1203.57,1032.14 1207.39,1032.14 1207.39,1033.64 1211.22,1033.64 1211.22,1020.15 1215.04,1020.15 1215.04,1006.17 1218.87,1006.17 1218.87,1001.76 1222.69,1001.76 1222.69,973.744 1226.52,973.744 1226.52,1013.84 1230.34,1013.84 1230.34,1034.61 1234.17,1034.61 1234.17,1066.41 1237.99,1066.41 1241.82,1066.41 1245.64,1066.41 1245.64,1071.95 1249.47,1071.95 1249.47,1083.71 1253.29,1083.71 1253.29,1088.17 1257.12,1088.17 1257.12,1093.68 1260.94,1093.68 1260.94,1099.46 1264.77,1099.46 1264.77,1062.12 1268.59,1062.12 1268.59,1056.56 1272.42,1056.56 1272.42,1085.88 1276.24,1085.88 1276.24,1068.36 1280.07,1068.36 1280.07,1053.9 1283.9,1053.9 1283.9,1072.96 1287.72,1072.96 1287.72,1073.06 1291.55,1073.06 1291.55,1108.47 1295.37,1108.47 1299.2,1108.47 1303.02,1108.47 1303.02,1114.01 1306.85,1114.01 1306.85,1103.61 1310.67,1103.61 1310.67,1067.91 1314.5,1067.91 1314.5,1096.73 1318.32,1096.73 1318.32,1066.88 1322.15,1066.88 1322.15,1127.75 1325.97,1127.75 1329.8,1127.75 1333.62,1127.75 1337.45,1127.75 1337.45,1133.68 1341.27,1133.68 1341.27,1167.36 1345.1,1167.36 1345.1,1174.83 1348.92,1174.83 1348.92,1181.75 1352.75,1181.75 1352.75,1192.66 1356.57,1192.66 1360.4,1192.66 1360.4,1197.93 1364.22,1197.93 1364.22,1256.63 1368.05,1256.63 1371.87,1256.63 1375.7,1256.63 1379.52,1256.63 1383.35,1256.63 1387.17,1256.63 1387.17,1261.72 1391,1261.72 1391,1213.73 1394.83,1213.73 1394.83,1147.49 1398.65,1147.49 1398.65,1109.65 1402.48,1109.65 1402.48,1155.6 1406.3,1155.6 1406.3,1169.69 1410.13,1169.69 1410.13,1217.72 1413.95,1217.72 1413.95,1201.45 1417.78,1201.45 1417.78,1209.49 1421.6,1209.49 1421.6,1240.42 1425.43,1240.42 1429.25,1240.42 1433.08,1240.42 1433.08,1245.82 1436.9,1245.82 1436.9,1265.25 1440.73,1265.25 1444.55,1265.25 1448.38,1265.25 1452.2,1265.25 1456.03,1265.25 1459.85,1265.25 1463.68,1265.25 1467.5,1265.25 1471.33,1265.25 1475.15,1265.25 1478.98,1265.25 1482.8,1265.25 1482.8,1270.38 1486.63,1270.38 1486.63,1264.57 1490.45,1264.57 1490.45,1256.29 1494.28,1256.29 1494.28,1267.14 1498.1,1267.14 1498.1,1296.37 1501.93,1296.37 1501.93,1301.87 1505.75,1301.87 1505.75,1296.57 1509.58,1296.57 1509.58,1305.07 1513.41,1305.07 1513.41,1303.86 1517.23,1303.86 1517.23,1298.75 1521.06,1298.75 1521.06,1332.85 1524.88,1332.85 1524.88,1338 1528.71,1338 1528.71,1366.31 1532.53,1366.31 1532.53,1371.86 1536.36,1371.86 1536.36,1368.12 1540.18,1368.12 1540.18,1373.18 1544.01,1373.18 1544.01,1365 1547.83,1365 1547.83,1374.58 1551.66,1374.58 1551.66,1375.33 1555.48,1375.33 1555.48,1363.4 1559.31,1363.4 1559.31,1410.25 1563.13,1410.25 1563.13,1415.74 1566.96,1415.74 1566.96,1360.97 1570.78,1360.97 1570.78,1325.21 1574.61,1325.21 1574.61,1272.33 1578.43,1272.33 1578.43,1237.43 1582.26,1237.43 1582.26,1242.52 1586.08,1242.52 1586.08,1254.49 1589.91,1254.49 1589.91,1254.53 1593.73,1254.53 1593.73,1251.46 1597.56,1251.46 1597.56,1236.04 1601.38,1236.04 1601.38,1266.19 1605.21,1266.19 1605.21,1254.36 1609.03,1254.36 1609.03,1261.74 1612.86,1261.74 1612.86,1280.42 1616.68,1280.42 1616.68,1323.58 1620.51,1323.58 1620.51,1327.91 1624.33,1327.91 1624.33,1296.27 1628.16,1296.27 1628.16,1277.82 1631.99,1277.82 1631.99,1289.4 1635.81,1289.4 1635.81,1297.19 1639.64,1297.19 1639.64,1264.85 1643.46,1264.85 1643.46,1253.38 1647.29,1253.38 1647.29,1239.65 1651.11,1239.65 1651.11,1214.31 1654.94,1214.31 1654.94,1194.57 1658.76,1194.57 1658.76,1179.27 1662.59,1179.27 1662.59,1192.96 1666.41,1192.96 1666.41,1171.86 1670.24,1171.86 1670.24,1237.17 1674.06,1237.17 1674.06,1261.66 1677.89,1261.66 1681.71,1261.66 1685.54,1261.66 1689.36,1261.66 1689.36,1267.04 1693.19,1267.04 1693.19,1249.2 1697.01,1249.2 1697.01,1230.06 1700.84,1230.06 1700.84,1288.97 1704.66,1288.97 1708.49,1288.97 1712.31,1288.97 1716.14,1288.97 1716.14,1294.31 1719.96,1294.31 1719.96,1307.06 1723.79,1307.06 1723.79,1291.28 1727.61,1291.28 1727.61,1297.38 1731.44,1297.38 1731.44,1246.76 1735.26,1246.76 1735.26,1248.99 1739.09,1248.99 1739.09,1257.12 1742.92,1257.12 1742.92,1271.99 1746.74,1271.99 1746.74,1314.04 1750.57,1314.04 1750.57,1318.85 1754.39,1318.85 1754.39,1286.8 1758.22,1286.8 1758.22,1289.83 1762.04,1289.83 1762.04,1379.74 1765.87,1379.74 1769.69,1379.74 1769.69,1385.09 1773.52,1385.09 1773.52,1354.04 1777.34,1354.04 1777.34,1331.86 1781.17,1331.86 1781.17,1347.65 1784.99,1347.65 1784.99,1330.5 1788.82,1330.5 1788.82,1332.09 1792.64,1332.09 1792.64,1290.84 1796.47,1290.84 1796.47,1266.62 1800.29,1266.62 1800.29,1224.26 1804.12,1224.26 1804.12,1220.73 1807.94,1220.73 1807.94,1228.39 1811.77,1228.39 1811.77,1199.4 1815.59,1199.4 1815.59,1178.9 1819.42,1178.9 1819.42,1175.39 1823.24,1175.39 1823.24,1166.78 1827.07,1166.78 1827.07,1096.58 1830.89,1096.58 1830.89,1074.51 1834.72,1074.51 1834.72,1043.03 1838.54,1043.03 1838.54,1076.41 1842.37,1076.41 1842.37,1059.11 1846.19,1059.11 1846.19,1050.26 1850.02,1050.26 1850.02,1054.34 1853.84,1054.34 1853.84,1070.99 1857.67,1070.99 1857.67,1025.81 1861.5,1025.81 1861.5,996.425 1865.32,996.425 1865.32,1019.76 1869.15,1019.76 1869.15,998.393 1872.97,998.393 1872.97,942.049 1876.8,942.049 1876.8,956.691 1880.62,956.691 1880.62,982.211 1884.45,982.211 1884.45,937.084 1888.27,937.084 1888.27,942.891 1892.1,942.891 1892.1,970.23 1895.92,970.23 1895.92,974.091 1899.75,974.091 1899.75,993.84 1903.57,993.84 1903.57,993.582 1907.4,993.582 1907.4,1050.12 1911.22,1050.12 1911.22,1055.43 1915.05,1055.43 1915.05,1030.02 1918.87,1030.02 1918.87,999.132 1922.7,999.132 1922.7,1021.38 1926.52,1021.38 1926.52,967.123 1930.35,967.123 1930.35,940.525 1934.17,940.525 1934.17,938.055 1938,938.055 1938,953.892 1941.82,953.892 1941.82,954.467 1945.65,954.467 1945.65,959.759 1949.47,959.759 1949.47,977.725 1953.3,977.725 1953.3,940.886 1957.12,940.886 1957.12,1001.59 1960.95,1001.59 1960.95,1012.6 1964.77,1012.6 1964.77,1038.4 1968.6,1038.4 1972.42,1038.4 1972.42,1044.37 1976.25,1044.37 1976.25,1000.07 1980.08,1000.07 1980.08,956.83 1983.9,956.83 1983.9,937.901 1987.73,937.901 1987.73,951.707 1991.55,951.707 1991.55,939.839 1995.38,939.839 1995.38,985.198 1999.2,985.198 1999.2,998.828 2003.03,998.828 2003.03,981.324 2006.85,981.324 2006.85,992.093 2010.68,992.093 2010.68,1006.92 2014.5,1006.92 2014.5,1023.32 2018.33,1023.32 2018.33,1016.32 2022.15,1016.32 2022.15,1037.12 2025.98,1037.12 2025.98,1042.57 2029.8,1042.57 2029.8,1061.16 2033.63,1061.16 2033.63,1066.6 2037.45,1066.6 2037.45,1029.65 2041.28,1029.65 2041.28,1026.36 2045.1,1026.36 2045.1,1014.4 2048.93,1014.4 2048.93,1046.79 2052.75,1046.79 2052.75,1105.67 2056.58,1105.67 2056.58,1092.74 2060.4,1092.74 2060.4,1083.49 2064.23,1083.49 2064.23,1106.7 2068.05,1106.7 2068.05,1079.39 2071.88,1079.39 2071.88,1088.24 2075.7,1088.24 2075.7,1045.26 2079.53,1045.26 2079.53,1055.83 2083.35,1055.83 2083.35,1007.98 2087.18,1007.98 2087.18,987.475 2091.01,987.475 2091.01,1009.33 2094.83,1009.33 2094.83,981.538 2098.66,981.538 2098.66,997.489 2102.48,997.489 2102.48,990.698 2106.31,990.698 2106.31,988.497 2110.13,988.497 2110.13,990.386 2113.96,990.386 2113.96,968.059 2117.78,968.059 2117.78,984.672 2121.61,984.672 2121.61,959.445 2125.43,959.445 2125.43,981.463 2129.26,981.463 2129.26,975.896 2133.08,975.896 2133.08,957.748 2136.91,957.748 2136.91,978.472 2140.73,978.472 2140.73,982.973 2144.56,982.973 2144.56,977.891 2148.38,977.891 2148.38,952.154 2152.21,952.154 2152.21,908.261 2156.03,908.261 2156.03,903.413 2159.86,903.413 2159.86,921.612 2163.68,921.612 2163.68,872.649 2167.51,872.649 2167.51,871.359 2171.33,871.359 2171.33,859.213 2175.16,859.213 2175.16,841.247 2178.98,841.247 2178.98,846.507 2182.81,846.507 2182.81,841.514 2186.63,841.514 2186.63,816.309 2190.46,816.309 2190.46,817.846 2194.28,817.846 2194.28,818.449 2198.11,818.449 2198.11,812.13 2201.93,812.13 2201.93,785.494 2205.76,785.494 2205.76,777.118 2209.59,777.118 2209.59,764.812 2213.41,764.812 2213.41,796.221 2217.24,796.221 2217.24,784.839 2221.06,784.839 2221.06,780.704 2224.89,780.704 2224.89,811.231 2228.71,811.231 2228.71,816.977 2232.54,816.977 2232.54,797.578 2236.36,797.578 2236.36,788.032 2240.19,788.032 2240.19,820.868 2244.01,820.868 2244.01,826.295 2247.84,826.295 2247.84,831.72 2251.66,831.72 2251.66,848.163 2255.49,848.163 2255.49,882.486 2259.31,882.486 2263.14,882.486 2266.96,882.486 2270.79,882.486 2270.79,888.11 2274.61,888.11 2274.61,850.781 2278.44,850.781 2278.44,839.136 2282.26,839.136 2282.26,834.463 2286.09,834.463 2286.09,823.732 2289.91,823.732 2289.91,850.873 2293.74,850.873 2293.74,817.52 2297.56,817.52 2297.56,798.783 2301.39,798.783 2301.39,811.988 2305.21,811.988 2305.21,846.174 2309.04,846.174 2309.04,792.039 2312.86,792.039 2312.86,770.712 2316.69,770.712 2316.69,753.394 2320.51,753.394 2320.51,742.286 2324.34,742.286 2324.34,786.285 2328.17,786.285 2328.17,753.726 2331.99,753.726 2331.99,707.19 2335.82,707.19 2335.82,752.057 2339.64,752.057 2339.64,769.201 2343.47,769.201 2343.47,764.288 2347.29,764.288 2347.29,741.182 2351.12,741.182 2351.12,759.698 2354.94,759.698 2354.94,736.246 2358.77,736.246 2358.77,739.253 2362.59,739.253 2362.59,712.236 2366.42,712.236 2366.42,721.948 2370.24,721.948 2370.24,717.67 2374.07,717.67 2374.07,694.73 2377.89,694.73 2377.89,663.115 2381.72,663.115 2381.72,669.79 2385.54,669.79 2385.54,678.389 2389.37,678.389 2389.37,701.031 2393.19,701.031 2393.19,690.65 2397.02,690.65 2397.02,673.271 2400.84,673.271 2400.84,651.731 2404.67,651.731 2404.67,637.617 2408.49,637.617 2408.49,648.166 2412.32,648.166 2412.32,617.962 2416.14,617.962 2416.14,610.465 2419.97,610.465 2419.97,635.242 2423.79,635.242 2423.79,636.743 2427.62,636.743 2427.62,652.582 2431.44,652.582 2431.44,685.358 2435.27,685.358 2439.09,685.358 2442.92,685.358 2442.92,690.744 2446.75,690.744 2446.75,638.074 2450.57,638.074 2450.57,632.26 2454.4,632.26 2454.4,580.317 2458.22,580.317 2458.22,614.403 2462.05,614.403 2462.05,622.016 2465.87,622.016 2465.87,617.712 2469.7,617.712 2469.7,570.056 2473.52,570.056 2473.52,607.644 2477.35,607.644 2477.35,613.48 2481.17,613.48 2481.17,631.455 2485,631.455 2485,650.168 2488.82,650.168 2488.82,634.45 2492.65,634.45 2492.65,612.951 2496.47,612.951 2496.47,586.051 2500.3,586.051 2500.3,562.933 2504.12,562.933 2504.12,570.42 2507.95,570.42 2507.95,561.46 2511.77,561.46 2511.77,549.224 2515.6,549.224 2515.6,589.154 2519.42,589.154 2519.42,605.279 2523.25,605.279 2527.07,605.279 2527.07,611.827 2530.9,611.827 2530.9,638.856 2534.72,638.856 2534.72,645.157 2538.55,645.157 2538.55,604.1 2542.37,604.1 2542.37,592.29 2546.2,592.29 2546.2,605.917 2550.02,605.917 2550.02,628.65 2553.85,628.65 2553.85,645.653 2557.68,645.653 2561.5,645.653 2561.5,651.804 2565.33,651.804 2565.33,626.542 2569.15,626.542 2569.15,659.044 2572.98,659.044 2572.98,713.674 2576.8,713.674 2576.8,719.303 2580.63,719.303 2580.63,703.477 2584.45,703.477 2584.45,717.828 2588.28,717.828 2588.28,709.09 2592.1,709.09 2592.1,670.975 2595.93,670.975 2595.93,632.037 2599.75,632.037 2599.75,632.261 2603.58,632.261 2603.58,600.344 2607.4,600.344 2607.4,586.683 2611.23,586.683 2611.23,562.33 2615.05,562.33 2615.05,533.554 2618.88,533.554 2618.88,522.741 2622.7,522.741 2622.7,510.251 2626.53,510.251 2626.53,520.6 2630.35,520.6 2630.35,527.484 2634.18,527.484 2634.18,476.619 2638,476.619 2638,496.197 2641.83,496.197 2641.83,478.348 2645.65,478.348 2645.65,431.132 2649.48,431.132 2649.48,405.276 2653.3,405.276 2653.3,414.896 2657.13,414.896 2657.13,376.991 2660.95,376.991 2660.95,418.495 2664.78,418.495 2664.78,461.815 2668.6,461.815 2668.6,495.336 2672.43,495.336 2672.43,526.185 2676.26,526.185 2680.08,526.185 2680.08,532.048 2683.91,532.048 2683.91,529.365 2687.73,529.365 2687.73,478.036 2691.56,478.036 2691.56,436.158 2695.38,436.158 2695.38,403.869 2699.21,403.869 2699.21,376.807 2703.03,376.807 2703.03,374.849 2706.86,374.849 2706.86,388.528 2710.68,388.528 2710.68,433.742 2714.51,433.742 2714.51,450.394 2718.33,450.394 2718.33,438.244 2722.16,438.244 2722.16,464.119 2725.98,464.119 2725.98,470.141 2729.81,470.141 2729.81,508.949 2733.63,508.949 2737.46,508.949 2737.46,514.792 2741.28,514.792 2741.28,608.368 2745.11,608.368 2745.11,637.287 2748.93,637.287 2752.76,637.287 2752.76,643.06 2756.58,643.06 2756.58,637.683 2760.41,637.683 2760.41,637.389 2764.23,637.389 2764.23,610.766 2768.06,610.766 2768.06,565.337 2771.88,565.337 2771.88,584.624 2775.71,584.624 2775.71,607.895 2779.53,607.895 2779.53,623.513 2783.36,623.513 2783.36,629.466 2787.18,629.466 2787.18,597.348 2791.01,597.348 2791.01,591.476 2794.84,591.476 2794.84,579.696 2798.66,579.696 2798.66,484.004 2802.49,484.004 2802.49,431.537 2806.31,431.537 2806.31,462.708 2810.14,462.708 2810.14,446.327 2813.96,446.327 2813.96,423.628 2817.79,423.628 2817.79,392.847 2821.61,392.847 2821.61,395.501 2825.44,395.501 2825.44,374.657 2829.26,374.657 2829.26,354.567 2833.09,354.567 2833.09,391.286 2836.91,391.286 2836.91,374.853 2840.74,374.853 2840.74,365.503 2844.56,365.503 2844.56,339.004 2848.39,339.004 2848.39,334.746 2852.21,334.746 2852.21,357.61 2856.04,357.61 2856.04,353.514 2859.86,353.514 2859.86,336.946 2863.69,336.946 2863.69,334.756 2867.51,334.756 2867.51,341.094 2871.34,341.094 2871.34,329.471 2875.16,329.471 2875.16,365.131 2878.99,365.131 2878.99,326.106 2882.81,326.106 2882.81,352.488 2886.64,352.488 2886.64,415.468 2890.46,415.468 2890.46,421.476 2894.29,421.476 2894.29,394.764 2898.11,394.764 2898.11,352.658 2901.94,352.658 2901.94,303.726 2905.77,303.726 2905.77,312.09 2909.59,312.09 2909.59,296.366 2913.42,296.366 2913.42,344.501 2917.24,344.501 2917.24,355.223 2921.07,355.223 2921.07,313.711 2924.89,313.711 2924.89,289.362 2928.72,289.362 2928.72,309.492 2932.54,309.492 2932.54,379.125 2936.37,379.125 2936.37,288.639 2940.19,288.639 2940.19,266.287 2944.02,266.287 2944.02,267.013 2947.84,267.013 2947.84,233.86 2951.67,233.86 2951.67,251.906 2955.49,251.906 2955.49,273.168 2959.32,273.168 2959.32,240.956 2963.14,240.956 2963.14,222.446 2966.97,222.446 2966.97,216.785 2970.79,216.785 2970.79,218.197 2974.62,218.197 2974.62,211.764 2978.44,211.764 2978.44,199.602 2982.27,199.602 2982.27,165.516 2986.09,165.516 2986.09,206.284 2989.92,206.284 2989.92,191.909 2993.74,191.909 2993.74,149.632 2997.57,149.632 2997.57,144.454 3001.39,144.454 3001.39,164.852 3005.22,164.852 3005.22,190.309 3009.04,190.309 3009.04,272.27 3012.87,272.27 3012.87,278.648 3016.69,278.648 3016.69,236.266 3020.52,236.266 3020.52,305.095 3024.35,305.095 3024.35,271.887 3028.17,271.887 3028.17,279.643 3032,279.643 3032,257.361 3035.82,257.361 3035.82,234.402 3039.65,234.402 3039.65,251.44 3043.47,251.44 3043.47,327.163 3047.3,327.163 3051.12,327.163 3051.12,333.029 3054.95,333.029 3054.95,333.378 3058.77,333.378 3058.77,330.45 3062.6,330.45 3062.6,300.962 3066.42,300.962 3066.42,299.504 3070.25,299.504 3070.25,202.886 "/>
</svg>
