<?xml version="1.0" encoding="utf-8"?>
<svg xmlns="http://www.w3.org/2000/svg" xmlns:xlink="http://www.w3.org/1999/xlink" width="800" height="450" viewBox="0 0 3200 1800">
<defs>
  <clipPath id="clip360">
    <rect x="0" y="0" width="3200" height="1800"/>
  </clipPath>
</defs>
<path clip-path="url(#clip360)" d="M0 1800 L3200 1800 L3200 0 L0 0  Z" fill="#282c34" fill-rule="evenodd" fill-opacity="1"/>
<defs>
  <clipPath id="clip361">
    <rect x="118" y="99" width="3035" height="1591"/>
  </clipPath>
</defs>
<path clip-path="url(#clip360)" d="M118.881 1689.85 L3152.76 1689.85 L3152.76 99.4421 L118.881 99.4421  Z" fill="#21252b" fill-rule="evenodd" fill-opacity="1"/>
<polyline clip-path="url(#clip361)" style="stroke:#adb2b7; stroke-linecap:round; stroke-linejoin:round; stroke-width:2; stroke-opacity:0.1; fill:none" points="204.745,1689.85 204.745,99.4421 "/>
<polyline clip-path="url(#clip361)" style="stroke:#adb2b7; stroke-linecap:round; stroke-linejoin:round; stroke-width:2; stroke-opacity:0.1; fill:none" points="969.046,1689.85 969.046,99.4421 "/>
<polyline clip-path="url(#clip361)" style="stroke:#adb2b7; stroke-linecap:round; stroke-linejoin:round; stroke-width:2; stroke-opacity:0.1; fill:none" points="1733.35,1689.85 1733.35,99.4421 "/>
<polyline clip-path="url(#clip361)" style="stroke:#adb2b7; stroke-linecap:round; stroke-linejoin:round; stroke-width:2; stroke-opacity:0.1; fill:none" points="2497.65,1689.85 2497.65,99.4421 "/>
<polyline clip-path="url(#clip361)" style="stroke:#adb2b7; stroke-linecap:round; stroke-linejoin:round; stroke-width:2; stroke-opacity:0.1; fill:none" points="118.881,1689.85 3152.76,1689.85 "/>
<polyline clip-path="url(#clip361)" style="stroke:#adb2b7; stroke-linecap:round; stroke-linejoin:round; stroke-width:2; stroke-opacity:0.1; fill:none" points="118.881,99.4421 3152.76,99.4421 "/>
<polyline clip-path="url(#clip360)" style="stroke:#adb2b7; stroke-linecap:round; stroke-linejoin:round; stroke-width:4; stroke-opacity:1; fill:none" points="118.881,1689.85 3152.76,1689.85 "/>
<polyline clip-path="url(#clip360)" style="stroke:#adb2b7; stroke-linecap:round; stroke-linejoin:round; stroke-width:4; stroke-opacity:1; fill:none" points="204.745,1689.85 204.745,1670.95 "/>
<polyline clip-path="url(#clip360)" style="stroke:#adb2b7; stroke-linecap:round; stroke-linejoin:round; stroke-width:4; stroke-opacity:1; fill:none" points="969.046,1689.85 969.046,1670.95 "/>
<polyline clip-path="url(#clip360)" style="stroke:#adb2b7; stroke-linecap:round; stroke-linejoin:round; stroke-width:4; stroke-opacity:1; fill:none" points="1733.35,1689.85 1733.35,1670.95 "/>
<polyline clip-path="url(#clip360)" style="stroke:#adb2b7; stroke-linecap:round; stroke-linejoin:round; stroke-width:4; stroke-opacity:1; fill:none" points="2497.65,1689.85 2497.65,1670.95 "/>
<path clip-path="url(#clip360)" d="M76.5399 1754.71 L92.8593 1754.71 L92.8593 1758.65 L70.915 1758.65 L70.915 1754.71 Q73.577 1751.96 78.1603 1747.33 Q82.7668 1742.68 83.9473 1741.33 Q86.1927 1738.81 87.0723 1737.07 Q87.9751 1735.31 87.9751 1733.62 Q87.9751 1730.87 86.0306 1729.13 Q84.1093 1727.4 81.0075 1727.4 Q78.8084 1727.4 76.3548 1728.16 Q73.9242 1728.93 71.1465 1730.48 L71.1465 1725.75 Q73.9705 1724.62 76.4242 1724.04 Q78.8779 1723.46 80.9149 1723.46 Q86.2853 1723.46 89.4797 1726.15 Q92.6741 1728.83 92.6741 1733.32 Q92.6741 1735.45 91.8639 1737.37 Q91.0769 1739.27 88.9704 1741.87 Q88.3917 1742.54 85.2899 1745.75 Q82.1881 1748.95 76.5399 1754.71 Z" fill="#9eb1be" fill-rule="nonzero" fill-opacity="1" /><path clip-path="url(#clip360)" d="M112.674 1727.17 Q109.063 1727.17 107.234 1730.73 Q105.429 1734.27 105.429 1741.4 Q105.429 1748.51 107.234 1752.07 Q109.063 1755.62 112.674 1755.62 Q116.308 1755.62 118.114 1752.07 Q119.942 1748.51 119.942 1741.4 Q119.942 1734.27 118.114 1730.73 Q116.308 1727.17 112.674 1727.17 M112.674 1723.46 Q118.484 1723.46 121.54 1728.07 Q124.618 1732.65 124.618 1741.4 Q124.618 1750.13 121.54 1754.74 Q118.484 1759.32 112.674 1759.32 Q106.864 1759.32 103.785 1754.74 Q100.73 1750.13 100.73 1741.4 Q100.73 1732.65 103.785 1728.07 Q106.864 1723.46 112.674 1723.46 Z" fill="#9eb1be" fill-rule="nonzero" fill-opacity="1" /><path clip-path="url(#clip360)" d="M136.864 1754.71 L153.183 1754.71 L153.183 1758.65 L131.239 1758.65 L131.239 1754.71 Q133.901 1751.96 138.484 1747.33 Q143.091 1742.68 144.271 1741.33 Q146.516 1738.81 147.396 1737.07 Q148.299 1735.31 148.299 1733.62 Q148.299 1730.87 146.354 1729.13 Q144.433 1727.4 141.331 1727.4 Q139.132 1727.4 136.679 1728.16 Q134.248 1728.93 131.47 1730.48 L131.47 1725.75 Q134.294 1724.62 136.748 1724.04 Q139.202 1723.46 141.239 1723.46 Q146.609 1723.46 149.803 1726.15 Q152.998 1728.83 152.998 1733.32 Q152.998 1735.45 152.188 1737.37 Q151.401 1739.27 149.294 1741.87 Q148.715 1742.54 145.614 1745.75 Q142.512 1748.95 136.864 1754.71 Z" fill="#9eb1be" fill-rule="nonzero" fill-opacity="1" /><path clip-path="url(#clip360)" d="M175.845 1728.16 L164.039 1746.61 L175.845 1746.61 L175.845 1728.16 M174.618 1724.09 L180.498 1724.09 L180.498 1746.61 L185.428 1746.61 L185.428 1750.5 L180.498 1750.5 L180.498 1758.65 L175.845 1758.65 L175.845 1750.5 L160.243 1750.5 L160.243 1745.99 L174.618 1724.09 Z" fill="#9eb1be" fill-rule="nonzero" fill-opacity="1" /><path clip-path="url(#clip360)" d="M190.405 1743.76 L202.882 1743.76 L202.882 1747.56 L190.405 1747.56 L190.405 1743.76 Z" fill="#9eb1be" fill-rule="nonzero" fill-opacity="1" /><path clip-path="url(#clip360)" d="M220.266 1727.17 Q216.655 1727.17 214.826 1730.73 Q213.021 1734.27 213.021 1741.4 Q213.021 1748.51 214.826 1752.07 Q216.655 1755.62 220.266 1755.62 Q223.9 1755.62 225.706 1752.07 Q227.535 1748.51 227.535 1741.4 Q227.535 1734.27 225.706 1730.73 Q223.9 1727.17 220.266 1727.17 M220.266 1723.46 Q226.076 1723.46 229.132 1728.07 Q232.21 1732.65 232.21 1741.4 Q232.21 1750.13 229.132 1754.74 Q226.076 1759.32 220.266 1759.32 Q214.456 1759.32 211.377 1754.74 Q208.322 1750.13 208.322 1741.4 Q208.322 1732.65 211.377 1728.07 Q214.456 1723.46 220.266 1723.46 Z" fill="#9eb1be" fill-rule="nonzero" fill-opacity="1" /><path clip-path="url(#clip360)" d="M241.238 1754.71 L248.877 1754.71 L248.877 1728.35 L240.567 1730.01 L240.567 1725.75 L248.831 1724.09 L253.507 1724.09 L253.507 1754.71 L261.145 1754.71 L261.145 1758.65 L241.238 1758.65 L241.238 1754.71 Z" fill="#9eb1be" fill-rule="nonzero" fill-opacity="1" /><path clip-path="url(#clip360)" d="M267.835 1743.76 L280.312 1743.76 L280.312 1747.56 L267.835 1747.56 L267.835 1743.76 Z" fill="#9eb1be" fill-rule="nonzero" fill-opacity="1" /><path clip-path="url(#clip360)" d="M297.696 1727.17 Q294.085 1727.17 292.256 1730.73 Q290.451 1734.27 290.451 1741.4 Q290.451 1748.51 292.256 1752.07 Q294.085 1755.62 297.696 1755.62 Q301.33 1755.62 303.136 1752.07 Q304.965 1748.51 304.965 1741.4 Q304.965 1734.27 303.136 1730.73 Q301.33 1727.17 297.696 1727.17 M297.696 1723.46 Q303.506 1723.46 306.562 1728.07 Q309.641 1732.65 309.641 1741.4 Q309.641 1750.13 306.562 1754.74 Q303.506 1759.32 297.696 1759.32 Q291.886 1759.32 288.807 1754.74 Q285.752 1750.13 285.752 1741.4 Q285.752 1732.65 288.807 1728.07 Q291.886 1723.46 297.696 1723.46 Z" fill="#9eb1be" fill-rule="nonzero" fill-opacity="1" /><path clip-path="url(#clip360)" d="M318.668 1754.71 L326.307 1754.71 L326.307 1728.35 L317.997 1730.01 L317.997 1725.75 L326.261 1724.09 L330.937 1724.09 L330.937 1754.71 L338.576 1754.71 L338.576 1758.65 L318.668 1758.65 L318.668 1754.71 Z" fill="#9eb1be" fill-rule="nonzero" fill-opacity="1" /><path clip-path="url(#clip360)" d="M840.32 1754.71 L856.639 1754.71 L856.639 1758.65 L834.695 1758.65 L834.695 1754.71 Q837.357 1751.96 841.94 1747.33 Q846.546 1742.68 847.727 1741.33 Q849.972 1738.81 850.852 1737.07 Q851.755 1735.31 851.755 1733.62 Q851.755 1730.87 849.81 1729.13 Q847.889 1727.4 844.787 1727.4 Q842.588 1727.4 840.134 1728.16 Q837.704 1728.93 834.926 1730.48 L834.926 1725.75 Q837.75 1724.62 840.204 1724.04 Q842.658 1723.46 844.695 1723.46 Q850.065 1723.46 853.259 1726.15 Q856.454 1728.83 856.454 1733.32 Q856.454 1735.45 855.644 1737.37 Q854.857 1739.27 852.75 1741.87 Q852.171 1742.54 849.07 1745.75 Q845.968 1748.95 840.32 1754.71 Z" fill="#9eb1be" fill-rule="nonzero" fill-opacity="1" /><path clip-path="url(#clip360)" d="M876.454 1727.17 Q872.843 1727.17 871.014 1730.73 Q869.208 1734.27 869.208 1741.4 Q869.208 1748.51 871.014 1752.07 Q872.843 1755.62 876.454 1755.62 Q880.088 1755.62 881.893 1752.07 Q883.722 1748.51 883.722 1741.4 Q883.722 1734.27 881.893 1730.73 Q880.088 1727.17 876.454 1727.17 M876.454 1723.46 Q882.264 1723.46 885.319 1728.07 Q888.398 1732.65 888.398 1741.4 Q888.398 1750.13 885.319 1754.74 Q882.264 1759.32 876.454 1759.32 Q870.644 1759.32 867.565 1754.74 Q864.509 1750.13 864.509 1741.4 Q864.509 1732.65 867.565 1728.07 Q870.644 1723.46 876.454 1723.46 Z" fill="#9eb1be" fill-rule="nonzero" fill-opacity="1" /><path clip-path="url(#clip360)" d="M900.643 1754.71 L916.963 1754.71 L916.963 1758.65 L895.018 1758.65 L895.018 1754.71 Q897.68 1751.96 902.264 1747.33 Q906.87 1742.68 908.051 1741.33 Q910.296 1738.81 911.176 1737.07 Q912.079 1735.31 912.079 1733.62 Q912.079 1730.87 910.134 1729.13 Q908.213 1727.4 905.111 1727.4 Q902.912 1727.4 900.458 1728.16 Q898.028 1728.93 895.25 1730.48 L895.25 1725.75 Q898.074 1724.62 900.528 1724.04 Q902.981 1723.46 905.018 1723.46 Q910.389 1723.46 913.583 1726.15 Q916.778 1728.83 916.778 1733.32 Q916.778 1735.45 915.967 1737.37 Q915.18 1739.27 913.074 1741.87 Q912.495 1742.54 909.393 1745.75 Q906.292 1748.95 900.643 1754.71 Z" fill="#9eb1be" fill-rule="nonzero" fill-opacity="1" /><path clip-path="url(#clip360)" d="M939.625 1728.16 L927.819 1746.61 L939.625 1746.61 L939.625 1728.16 M938.398 1724.09 L944.277 1724.09 L944.277 1746.61 L949.208 1746.61 L949.208 1750.5 L944.277 1750.5 L944.277 1758.65 L939.625 1758.65 L939.625 1750.5 L924.023 1750.5 L924.023 1745.99 L938.398 1724.09 Z" fill="#9eb1be" fill-rule="nonzero" fill-opacity="1" /><path clip-path="url(#clip360)" d="M954.185 1743.76 L966.662 1743.76 L966.662 1747.56 L954.185 1747.56 L954.185 1743.76 Z" fill="#9eb1be" fill-rule="nonzero" fill-opacity="1" /><path clip-path="url(#clip360)" d="M984.046 1727.17 Q980.435 1727.17 978.606 1730.73 Q976.8 1734.27 976.8 1741.4 Q976.8 1748.51 978.606 1752.07 Q980.435 1755.62 984.046 1755.62 Q987.68 1755.62 989.486 1752.07 Q991.314 1748.51 991.314 1741.4 Q991.314 1734.27 989.486 1730.73 Q987.68 1727.17 984.046 1727.17 M984.046 1723.46 Q989.856 1723.46 992.911 1728.07 Q995.99 1732.65 995.99 1741.4 Q995.99 1750.13 992.911 1754.74 Q989.856 1759.32 984.046 1759.32 Q978.236 1759.32 975.157 1754.74 Q972.101 1750.13 972.101 1741.4 Q972.101 1732.65 975.157 1728.07 Q978.236 1723.46 984.046 1723.46 Z" fill="#9eb1be" fill-rule="nonzero" fill-opacity="1" /><path clip-path="url(#clip360)" d="M1005.02 1754.71 L1012.66 1754.71 L1012.66 1728.35 L1004.35 1730.01 L1004.35 1725.75 L1012.61 1724.09 L1017.29 1724.09 L1017.29 1754.71 L1024.93 1754.71 L1024.93 1758.65 L1005.02 1758.65 L1005.02 1754.71 Z" fill="#9eb1be" fill-rule="nonzero" fill-opacity="1" /><path clip-path="url(#clip360)" d="M1031.61 1743.76 L1044.09 1743.76 L1044.09 1747.56 L1031.61 1747.56 L1031.61 1743.76 Z" fill="#9eb1be" fill-rule="nonzero" fill-opacity="1" /><path clip-path="url(#clip360)" d="M1061.48 1727.17 Q1057.86 1727.17 1056.04 1730.73 Q1054.23 1734.27 1054.23 1741.4 Q1054.23 1748.51 1056.04 1752.07 Q1057.86 1755.62 1061.48 1755.62 Q1065.11 1755.62 1066.92 1752.07 Q1068.74 1748.51 1068.74 1741.4 Q1068.74 1734.27 1066.92 1730.73 Q1065.11 1727.17 1061.48 1727.17 M1061.48 1723.46 Q1067.29 1723.46 1070.34 1728.07 Q1073.42 1732.65 1073.42 1741.4 Q1073.42 1750.13 1070.34 1754.74 Q1067.29 1759.32 1061.48 1759.32 Q1055.67 1759.32 1052.59 1754.74 Q1049.53 1750.13 1049.53 1741.4 Q1049.53 1732.65 1052.59 1728.07 Q1055.67 1723.46 1061.48 1723.46 Z" fill="#9eb1be" fill-rule="nonzero" fill-opacity="1" /><path clip-path="url(#clip360)" d="M1081.78 1757.93 L1081.78 1753.67 Q1083.54 1754.5 1085.34 1754.94 Q1087.15 1755.38 1088.88 1755.38 Q1093.51 1755.38 1095.94 1752.28 Q1098.4 1749.16 1098.74 1742.81 Q1097.4 1744.81 1095.34 1745.87 Q1093.28 1746.93 1090.78 1746.93 Q1085.6 1746.93 1082.56 1743.81 Q1079.55 1740.66 1079.55 1735.22 Q1079.55 1729.9 1082.7 1726.68 Q1085.85 1723.46 1091.08 1723.46 Q1097.08 1723.46 1100.23 1728.07 Q1103.4 1732.65 1103.4 1741.4 Q1103.4 1749.57 1099.51 1754.46 Q1095.64 1759.32 1089.09 1759.32 Q1087.33 1759.32 1085.53 1758.97 Q1083.72 1758.62 1081.78 1757.93 M1091.08 1743.28 Q1094.23 1743.28 1096.06 1741.12 Q1097.91 1738.97 1097.91 1735.22 Q1097.91 1731.5 1096.06 1729.34 Q1094.23 1727.17 1091.08 1727.17 Q1087.93 1727.17 1086.08 1729.34 Q1084.25 1731.5 1084.25 1735.22 Q1084.25 1738.97 1086.08 1741.12 Q1087.93 1743.28 1091.08 1743.28 Z" fill="#9eb1be" fill-rule="nonzero" fill-opacity="1" /><path clip-path="url(#clip360)" d="M1604.98 1754.71 L1621.3 1754.71 L1621.3 1758.65 L1599.35 1758.65 L1599.35 1754.71 Q1602.02 1751.96 1606.6 1747.33 Q1611.21 1742.68 1612.39 1741.33 Q1614.63 1738.81 1615.51 1737.07 Q1616.41 1735.31 1616.41 1733.62 Q1616.41 1730.87 1614.47 1729.13 Q1612.55 1727.4 1609.45 1727.4 Q1607.25 1727.4 1604.79 1728.16 Q1602.36 1728.93 1599.59 1730.48 L1599.59 1725.75 Q1602.41 1724.62 1604.86 1724.04 Q1607.32 1723.46 1609.35 1723.46 Q1614.72 1723.46 1617.92 1726.15 Q1621.11 1728.83 1621.11 1733.32 Q1621.11 1735.45 1620.3 1737.37 Q1619.52 1739.27 1617.41 1741.87 Q1616.83 1742.54 1613.73 1745.75 Q1610.63 1748.95 1604.98 1754.71 Z" fill="#9eb1be" fill-rule="nonzero" fill-opacity="1" /><path clip-path="url(#clip360)" d="M1641.11 1727.17 Q1637.5 1727.17 1635.67 1730.73 Q1633.87 1734.27 1633.87 1741.4 Q1633.87 1748.51 1635.67 1752.07 Q1637.5 1755.62 1641.11 1755.62 Q1644.75 1755.62 1646.55 1752.07 Q1648.38 1748.51 1648.38 1741.4 Q1648.38 1734.27 1646.55 1730.73 Q1644.75 1727.17 1641.11 1727.17 M1641.11 1723.46 Q1646.92 1723.46 1649.98 1728.07 Q1653.06 1732.65 1653.06 1741.4 Q1653.06 1750.13 1649.98 1754.74 Q1646.92 1759.32 1641.11 1759.32 Q1635.3 1759.32 1632.22 1754.74 Q1629.17 1750.13 1629.17 1741.4 Q1629.17 1732.65 1632.22 1728.07 Q1635.3 1723.46 1641.11 1723.46 Z" fill="#9eb1be" fill-rule="nonzero" fill-opacity="1" /><path clip-path="url(#clip360)" d="M1665.3 1754.71 L1681.62 1754.71 L1681.62 1758.65 L1659.68 1758.65 L1659.68 1754.71 Q1662.34 1751.96 1666.92 1747.33 Q1671.53 1742.68 1672.71 1741.33 Q1674.96 1738.81 1675.84 1737.07 Q1676.74 1735.31 1676.74 1733.62 Q1676.74 1730.87 1674.79 1729.13 Q1672.87 1727.4 1669.77 1727.4 Q1667.57 1727.4 1665.12 1728.16 Q1662.69 1728.93 1659.91 1730.48 L1659.91 1725.75 Q1662.73 1724.62 1665.19 1724.04 Q1667.64 1723.46 1669.68 1723.46 Q1675.05 1723.46 1678.24 1726.15 Q1681.44 1728.83 1681.44 1733.32 Q1681.44 1735.45 1680.63 1737.37 Q1679.84 1739.27 1677.73 1741.87 Q1677.15 1742.54 1674.05 1745.75 Q1670.95 1748.95 1665.3 1754.71 Z" fill="#9eb1be" fill-rule="nonzero" fill-opacity="1" /><path clip-path="url(#clip360)" d="M1704.28 1728.16 L1692.48 1746.61 L1704.28 1746.61 L1704.28 1728.16 M1703.06 1724.09 L1708.94 1724.09 L1708.94 1746.61 L1713.87 1746.61 L1713.87 1750.5 L1708.94 1750.5 L1708.94 1758.65 L1704.28 1758.65 L1704.28 1750.5 L1688.68 1750.5 L1688.68 1745.99 L1703.06 1724.09 Z" fill="#9eb1be" fill-rule="nonzero" fill-opacity="1" /><path clip-path="url(#clip360)" d="M1718.84 1743.76 L1731.32 1743.76 L1731.32 1747.56 L1718.84 1747.56 L1718.84 1743.76 Z" fill="#9eb1be" fill-rule="nonzero" fill-opacity="1" /><path clip-path="url(#clip360)" d="M1748.71 1727.17 Q1745.09 1727.17 1743.27 1730.73 Q1741.46 1734.27 1741.46 1741.4 Q1741.46 1748.51 1743.27 1752.07 Q1745.09 1755.62 1748.71 1755.62 Q1752.34 1755.62 1754.14 1752.07 Q1755.97 1748.51 1755.97 1741.4 Q1755.97 1734.27 1754.14 1730.73 Q1752.34 1727.17 1748.71 1727.17 M1748.71 1723.46 Q1754.52 1723.46 1757.57 1728.07 Q1760.65 1732.65 1760.65 1741.4 Q1760.65 1750.13 1757.57 1754.74 Q1754.52 1759.32 1748.71 1759.32 Q1742.89 1759.32 1739.82 1754.74 Q1736.76 1750.13 1736.76 1741.4 Q1736.76 1732.65 1739.82 1728.07 Q1742.89 1723.46 1748.71 1723.46 Z" fill="#9eb1be" fill-rule="nonzero" fill-opacity="1" /><path clip-path="url(#clip360)" d="M1769.68 1754.71 L1777.32 1754.71 L1777.32 1728.35 L1769.01 1730.01 L1769.01 1725.75 L1777.27 1724.09 L1781.95 1724.09 L1781.95 1754.71 L1789.58 1754.71 L1789.58 1758.65 L1769.68 1758.65 L1769.68 1754.71 Z" fill="#9eb1be" fill-rule="nonzero" fill-opacity="1" /><path clip-path="url(#clip360)" d="M1796.27 1743.76 L1808.75 1743.76 L1808.75 1747.56 L1796.27 1747.56 L1796.27 1743.76 Z" fill="#9eb1be" fill-rule="nonzero" fill-opacity="1" /><path clip-path="url(#clip360)" d="M1816.95 1754.71 L1824.58 1754.71 L1824.58 1728.35 L1816.27 1730.01 L1816.27 1725.75 L1824.54 1724.09 L1829.21 1724.09 L1829.21 1754.71 L1836.85 1754.71 L1836.85 1758.65 L1816.95 1758.65 L1816.95 1754.71 Z" fill="#9eb1be" fill-rule="nonzero" fill-opacity="1" /><path clip-path="url(#clip360)" d="M1845.12 1724.09 L1867.34 1724.09 L1867.34 1726.08 L1854.79 1758.65 L1849.91 1758.65 L1861.71 1728.02 L1845.12 1728.02 L1845.12 1724.09 Z" fill="#9eb1be" fill-rule="nonzero" fill-opacity="1" /><path clip-path="url(#clip360)" d="M2369.33 1754.71 L2385.65 1754.71 L2385.65 1758.65 L2363.7 1758.65 L2363.7 1754.71 Q2366.36 1751.96 2370.95 1747.33 Q2375.55 1742.68 2376.73 1741.33 Q2378.98 1738.81 2379.86 1737.07 Q2380.76 1735.31 2380.76 1733.62 Q2380.76 1730.87 2378.82 1729.13 Q2376.9 1727.4 2373.79 1727.4 Q2371.59 1727.4 2369.14 1728.16 Q2366.71 1728.93 2363.93 1730.48 L2363.93 1725.75 Q2366.76 1724.62 2369.21 1724.04 Q2371.66 1723.46 2373.7 1723.46 Q2379.07 1723.46 2382.27 1726.15 Q2385.46 1728.83 2385.46 1733.32 Q2385.46 1735.45 2384.65 1737.37 Q2383.86 1739.27 2381.76 1741.87 Q2381.18 1742.54 2378.08 1745.75 Q2374.97 1748.95 2369.33 1754.71 Z" fill="#9eb1be" fill-rule="nonzero" fill-opacity="1" /><path clip-path="url(#clip360)" d="M2405.46 1727.17 Q2401.85 1727.17 2400.02 1730.73 Q2398.21 1734.27 2398.21 1741.4 Q2398.21 1748.51 2400.02 1752.07 Q2401.85 1755.62 2405.46 1755.62 Q2409.09 1755.62 2410.9 1752.07 Q2412.73 1748.51 2412.73 1741.4 Q2412.73 1734.27 2410.9 1730.73 Q2409.09 1727.17 2405.46 1727.17 M2405.46 1723.46 Q2411.27 1723.46 2414.33 1728.07 Q2417.4 1732.65 2417.4 1741.4 Q2417.4 1750.13 2414.33 1754.74 Q2411.27 1759.32 2405.46 1759.32 Q2399.65 1759.32 2396.57 1754.74 Q2393.52 1750.13 2393.52 1741.4 Q2393.52 1732.65 2396.57 1728.07 Q2399.65 1723.46 2405.46 1723.46 Z" fill="#9eb1be" fill-rule="nonzero" fill-opacity="1" /><path clip-path="url(#clip360)" d="M2429.65 1754.71 L2445.97 1754.71 L2445.97 1758.65 L2424.02 1758.65 L2424.02 1754.71 Q2426.69 1751.96 2431.27 1747.33 Q2435.88 1742.68 2437.06 1741.33 Q2439.3 1738.81 2440.18 1737.07 Q2441.08 1735.31 2441.08 1733.62 Q2441.08 1730.87 2439.14 1729.13 Q2437.22 1727.4 2434.12 1727.4 Q2431.92 1727.4 2429.46 1728.16 Q2427.03 1728.93 2424.26 1730.48 L2424.26 1725.75 Q2427.08 1724.62 2429.53 1724.04 Q2431.99 1723.46 2434.02 1723.46 Q2439.39 1723.46 2442.59 1726.15 Q2445.78 1728.83 2445.78 1733.32 Q2445.78 1735.45 2444.97 1737.37 Q2444.19 1739.27 2442.08 1741.87 Q2441.5 1742.54 2438.4 1745.75 Q2435.3 1748.95 2429.65 1754.71 Z" fill="#9eb1be" fill-rule="nonzero" fill-opacity="1" /><path clip-path="url(#clip360)" d="M2468.63 1728.16 L2456.83 1746.61 L2468.63 1746.61 L2468.63 1728.16 M2467.4 1724.09 L2473.28 1724.09 L2473.28 1746.61 L2478.21 1746.61 L2478.21 1750.5 L2473.28 1750.5 L2473.28 1758.65 L2468.63 1758.65 L2468.63 1750.5 L2453.03 1750.5 L2453.03 1745.99 L2467.4 1724.09 Z" fill="#9eb1be" fill-rule="nonzero" fill-opacity="1" /><path clip-path="url(#clip360)" d="M2483.19 1743.76 L2495.67 1743.76 L2495.67 1747.56 L2483.19 1747.56 L2483.19 1743.76 Z" fill="#9eb1be" fill-rule="nonzero" fill-opacity="1" /><path clip-path="url(#clip360)" d="M2513.05 1727.17 Q2509.44 1727.17 2507.61 1730.73 Q2505.81 1734.27 2505.81 1741.4 Q2505.81 1748.51 2507.61 1752.07 Q2509.44 1755.62 2513.05 1755.62 Q2516.69 1755.62 2518.49 1752.07 Q2520.32 1748.51 2520.32 1741.4 Q2520.32 1734.27 2518.49 1730.73 Q2516.69 1727.17 2513.05 1727.17 M2513.05 1723.46 Q2518.86 1723.46 2521.92 1728.07 Q2525 1732.65 2525 1741.4 Q2525 1750.13 2521.92 1754.74 Q2518.86 1759.32 2513.05 1759.32 Q2507.24 1759.32 2504.16 1754.74 Q2501.11 1750.13 2501.11 1741.4 Q2501.11 1732.65 2504.16 1728.07 Q2507.24 1723.46 2513.05 1723.46 Z" fill="#9eb1be" fill-rule="nonzero" fill-opacity="1" /><path clip-path="url(#clip360)" d="M2534.02 1754.71 L2541.66 1754.71 L2541.66 1728.35 L2533.35 1730.01 L2533.35 1725.75 L2541.62 1724.09 L2546.29 1724.09 L2546.29 1754.71 L2553.93 1754.71 L2553.93 1758.65 L2534.02 1758.65 L2534.02 1754.71 Z" fill="#9eb1be" fill-rule="nonzero" fill-opacity="1" /><path clip-path="url(#clip360)" d="M2560.62 1743.76 L2573.1 1743.76 L2573.1 1747.56 L2560.62 1747.56 L2560.62 1743.76 Z" fill="#9eb1be" fill-rule="nonzero" fill-opacity="1" /><path clip-path="url(#clip360)" d="M2584.51 1754.71 L2600.83 1754.71 L2600.83 1758.65 L2578.88 1758.65 L2578.88 1754.71 Q2581.55 1751.96 2586.13 1747.33 Q2590.74 1742.68 2591.92 1741.33 Q2594.16 1738.81 2595.04 1737.07 Q2595.94 1735.31 2595.94 1733.62 Q2595.94 1730.87 2594 1729.13 Q2592.08 1727.4 2588.98 1727.4 Q2586.78 1727.4 2584.32 1728.16 Q2581.89 1728.93 2579.12 1730.48 L2579.12 1725.75 Q2581.94 1724.62 2584.39 1724.04 Q2586.85 1723.46 2588.88 1723.46 Q2594.26 1723.46 2597.45 1726.15 Q2600.64 1728.83 2600.64 1733.32 Q2600.64 1735.45 2599.83 1737.37 Q2599.05 1739.27 2596.94 1741.87 Q2596.36 1742.54 2593.26 1745.75 Q2590.16 1748.95 2584.51 1754.71 Z" fill="#9eb1be" fill-rule="nonzero" fill-opacity="1" /><path clip-path="url(#clip360)" d="M2610.69 1724.09 L2629.05 1724.09 L2629.05 1728.02 L2614.97 1728.02 L2614.97 1736.5 Q2615.99 1736.15 2617.01 1735.99 Q2618.03 1735.8 2619.05 1735.8 Q2624.83 1735.8 2628.21 1738.97 Q2631.59 1742.14 2631.59 1747.56 Q2631.59 1753.14 2628.12 1756.24 Q2624.65 1759.32 2618.33 1759.32 Q2616.15 1759.32 2613.88 1758.95 Q2611.64 1758.58 2609.23 1757.84 L2609.23 1753.14 Q2611.32 1754.27 2613.54 1754.83 Q2615.76 1755.38 2618.24 1755.38 Q2622.24 1755.38 2624.58 1753.28 Q2626.92 1751.17 2626.92 1747.56 Q2626.92 1743.95 2624.58 1741.84 Q2622.24 1739.74 2618.24 1739.74 Q2616.36 1739.74 2614.49 1740.15 Q2612.63 1740.57 2610.69 1741.45 L2610.69 1724.09 Z" fill="#9eb1be" fill-rule="nonzero" fill-opacity="1" /><polyline clip-path="url(#clip360)" style="stroke:#adb2b7; stroke-linecap:round; stroke-linejoin:round; stroke-width:4; stroke-opacity:1; fill:none" points="118.881,1689.85 118.881,99.4421 "/>
<polyline clip-path="url(#clip360)" style="stroke:#adb2b7; stroke-linecap:round; stroke-linejoin:round; stroke-width:4; stroke-opacity:1; fill:none" points="118.881,1689.85 137.779,1689.85 "/>
<polyline clip-path="url(#clip360)" style="stroke:#adb2b7; stroke-linecap:round; stroke-linejoin:round; stroke-width:4; stroke-opacity:1; fill:none" points="118.881,99.4421 137.779,99.4421 "/>
<path clip-path="url(#clip360)" d="M58.9365 1675.65 Q55.3254 1675.65 53.4967 1679.21 Q51.6912 1682.75 51.6912 1689.88 Q51.6912 1696.99 53.4967 1700.55 Q55.3254 1704.1 58.9365 1704.1 Q62.5707 1704.1 64.3763 1700.55 Q66.205 1696.99 66.205 1689.88 Q66.205 1682.75 64.3763 1679.21 Q62.5707 1675.65 58.9365 1675.65 M58.9365 1671.94 Q64.7467 1671.94 67.8022 1676.55 Q70.8809 1681.13 70.8809 1689.88 Q70.8809 1698.61 67.8022 1703.22 Q64.7467 1707.8 58.9365 1707.8 Q53.1264 1707.8 50.0477 1703.22 Q46.9921 1698.61 46.9921 1689.88 Q46.9921 1681.13 50.0477 1676.55 Q53.1264 1671.94 58.9365 1671.94 Z" fill="#9eb1be" fill-rule="nonzero" fill-opacity="1" /><path clip-path="url(#clip360)" d="M50.9736 112.787 L58.6124 112.787 L58.6124 86.4214 L50.3023 88.088 L50.3023 83.8288 L58.5661 82.1621 L63.242 82.1621 L63.242 112.787 L70.8809 112.787 L70.8809 116.722 L50.9736 116.722 L50.9736 112.787 Z" fill="#9eb1be" fill-rule="nonzero" fill-opacity="1" /><path clip-path="url(#clip360)" d="M144.604 25.7695 L136.184 25.7695 L133.753 35.4338 L142.231 35.4338 L144.604 25.7695 M140.264 9.30551 L137.255 21.3135 L145.704 21.3135 L148.742 9.30551 L153.371 9.30551 L150.391 21.3135 L159.419 21.3135 L159.419 25.7695 L149.263 25.7695 L146.89 35.4338 L156.091 35.4338 L156.091 39.8609 L145.762 39.8609 L142.752 51.84 L138.123 51.84 L141.103 39.8609 L132.625 39.8609 L129.645 51.84 L124.986 51.84 L127.995 39.8609 L118.881 39.8609 L118.881 35.4338 L129.066 35.4338 L131.497 25.7695 L122.179 25.7695 L122.179 21.3135 L132.625 21.3135 L135.576 9.30551 L140.264 9.30551 Z" fill="#adb2b7" fill-rule="nonzero" fill-opacity="1" /><path clip-path="url(#clip360)" d="M200.941 23.1654 Q196.658 23.1654 194.17 26.5218 Q191.681 29.8494 191.681 35.6653 Q191.681 41.4813 194.141 44.8377 Q196.629 48.1653 200.941 48.1653 Q205.194 48.1653 207.682 44.8088 Q210.171 41.4523 210.171 35.6653 Q210.171 29.9072 207.682 26.5508 Q205.194 23.1654 200.941 23.1654 M200.941 18.6515 Q207.885 18.6515 211.849 23.1654 Q215.813 27.6792 215.813 35.6653 Q215.813 43.6225 211.849 48.1653 Q207.885 52.6791 200.941 52.6791 Q193.967 52.6791 190.003 48.1653 Q186.068 43.6225 186.068 35.6653 Q186.068 27.6792 190.003 23.1654 Q193.967 18.6515 200.941 18.6515 Z" fill="#adb2b7" fill-rule="nonzero" fill-opacity="1" /><path clip-path="url(#clip360)" d="M229.789 46.9789 L229.789 64.1663 L224.436 64.1663 L224.436 19.4328 L229.789 19.4328 L229.789 24.3517 Q231.467 21.4582 234.013 20.0693 Q236.589 18.6515 240.148 18.6515 Q246.05 18.6515 249.725 23.339 Q253.429 28.0265 253.429 35.6653 Q253.429 43.3042 249.725 47.9916 Q246.05 52.6791 240.148 52.6791 Q236.589 52.6791 234.013 51.2902 Q231.467 49.8724 229.789 46.9789 M247.902 35.6653 Q247.902 29.7915 245.472 26.464 Q243.07 23.1075 238.846 23.1075 Q234.621 23.1075 232.19 26.464 Q229.789 29.7915 229.789 35.6653 Q229.789 41.5391 232.19 44.8956 Q234.621 48.2231 238.846 48.2231 Q243.07 48.2231 245.472 44.8956 Q247.902 41.5391 247.902 35.6653 Z" fill="#adb2b7" fill-rule="nonzero" fill-opacity="1" /><path clip-path="url(#clip360)" d="M289.974 34.3054 L289.974 36.9095 L265.495 36.9095 Q265.842 42.4072 268.793 45.3007 Q271.774 48.1653 277.069 48.1653 Q280.136 48.1653 283 47.4129 Q285.894 46.6606 288.73 45.156 L288.73 50.1907 Q285.865 51.406 282.856 52.0425 Q279.846 52.6791 276.75 52.6791 Q268.996 52.6791 264.453 48.1653 Q259.939 43.6514 259.939 35.9547 Q259.939 27.9975 264.222 23.339 Q268.533 18.6515 275.824 18.6515 Q282.364 18.6515 286.154 22.876 Q289.974 27.0716 289.974 34.3054 M284.65 32.7429 Q284.592 28.3737 282.19 25.7695 Q279.818 23.1654 275.882 23.1654 Q271.426 23.1654 268.735 25.6827 Q266.073 28.2001 265.668 32.7718 L284.65 32.7429 Z" fill="#adb2b7" fill-rule="nonzero" fill-opacity="1" /><path clip-path="url(#clip360)" d="M325.651 32.2799 L325.651 51.84 L320.327 51.84 L320.327 32.4535 Q320.327 27.8529 318.533 25.567 Q316.739 23.2811 313.151 23.2811 Q308.839 23.2811 306.351 26.03 Q303.863 28.7788 303.863 33.5241 L303.863 51.84 L298.51 51.84 L298.51 19.4328 L303.863 19.4328 L303.863 24.4675 Q305.772 21.545 308.347 20.0983 Q310.952 18.6515 314.337 18.6515 Q319.921 18.6515 322.786 22.1237 Q325.651 25.567 325.651 32.2799 Z" fill="#adb2b7" fill-rule="nonzero" fill-opacity="1" /><path clip-path="url(#clip360)" d="M367.664 23.1654 Q363.382 23.1654 360.893 26.5218 Q358.405 29.8494 358.405 35.6653 Q358.405 41.4813 360.865 44.8377 Q363.353 48.1653 367.664 48.1653 Q371.918 48.1653 374.406 44.8088 Q376.895 41.4523 376.895 35.6653 Q376.895 29.9072 374.406 26.5508 Q371.918 23.1654 367.664 23.1654 M367.664 18.6515 Q374.609 18.6515 378.573 23.1654 Q382.537 27.6792 382.537 35.6653 Q382.537 43.6225 378.573 48.1653 Q374.609 52.6791 367.664 52.6791 Q360.691 52.6791 356.727 48.1653 Q352.792 43.6225 352.792 35.6653 Q352.792 27.6792 356.727 23.1654 Q360.691 18.6515 367.664 18.6515 Z" fill="#adb2b7" fill-rule="nonzero" fill-opacity="1" /><path clip-path="url(#clip360)" d="M410.141 24.4096 Q409.244 23.8888 408.173 23.6573 Q407.132 23.3969 405.859 23.3969 Q401.345 23.3969 398.914 26.3482 Q396.513 29.2707 396.513 34.7683 L396.513 51.84 L391.16 51.84 L391.16 19.4328 L396.513 19.4328 L396.513 24.4675 Q398.191 21.5161 400.882 20.0983 Q403.573 18.6515 407.421 18.6515 Q407.971 18.6515 408.636 18.7383 Q409.302 18.7962 410.112 18.9409 L410.141 24.4096 Z" fill="#adb2b7" fill-rule="nonzero" fill-opacity="1" /><path clip-path="url(#clip360)" d="M436.009 24.3517 L436.009 6.81709 L441.333 6.81709 L441.333 51.84 L436.009 51.84 L436.009 46.9789 Q434.331 49.8724 431.755 51.2902 Q429.209 52.6791 425.621 52.6791 Q419.747 52.6791 416.044 47.9916 Q412.369 43.3042 412.369 35.6653 Q412.369 28.0265 416.044 23.339 Q419.747 18.6515 425.621 18.6515 Q429.209 18.6515 431.755 20.0693 Q434.331 21.4582 436.009 24.3517 M417.867 35.6653 Q417.867 41.5391 420.268 44.8956 Q422.699 48.2231 426.923 48.2231 Q431.148 48.2231 433.578 44.8956 Q436.009 41.5391 436.009 35.6653 Q436.009 29.7915 433.578 26.464 Q431.148 23.1075 426.923 23.1075 Q422.699 23.1075 420.268 26.464 Q417.867 29.7915 417.867 35.6653 Z" fill="#adb2b7" fill-rule="nonzero" fill-opacity="1" /><path clip-path="url(#clip360)" d="M480.019 34.3054 L480.019 36.9095 L455.54 36.9095 Q455.887 42.4072 458.839 45.3007 Q461.819 48.1653 467.114 48.1653 Q470.181 48.1653 473.046 47.4129 Q475.939 46.6606 478.775 45.156 L478.775 50.1907 Q475.91 51.406 472.901 52.0425 Q469.892 52.6791 466.796 52.6791 Q459.041 52.6791 454.498 48.1653 Q449.984 43.6514 449.984 35.9547 Q449.984 27.9975 454.267 23.339 Q458.578 18.6515 465.87 18.6515 Q472.409 18.6515 476.2 22.876 Q480.019 27.0716 480.019 34.3054 M474.695 32.7429 Q474.637 28.3737 472.235 25.7695 Q469.863 23.1654 465.928 23.1654 Q461.472 23.1654 458.781 25.6827 Q456.119 28.2001 455.714 32.7718 L474.695 32.7429 Z" fill="#adb2b7" fill-rule="nonzero" fill-opacity="1" /><path clip-path="url(#clip360)" d="M507.536 24.4096 Q506.639 23.8888 505.569 23.6573 Q504.527 23.3969 503.254 23.3969 Q498.74 23.3969 496.309 26.3482 Q493.908 29.2707 493.908 34.7683 L493.908 51.84 L488.555 51.84 L488.555 19.4328 L493.908 19.4328 L493.908 24.4675 Q495.586 21.5161 498.277 20.0983 Q500.968 18.6515 504.816 18.6515 Q505.366 18.6515 506.032 18.7383 Q506.697 18.7962 507.507 18.9409 L507.536 24.4096 Z" fill="#adb2b7" fill-rule="nonzero" fill-opacity="1" /><path clip-path="url(#clip360)" d="M533.78 20.3876 L533.78 25.4223 Q531.523 24.2649 529.093 23.6862 Q526.662 23.1075 524.058 23.1075 Q520.094 23.1075 518.097 24.3228 Q516.13 25.5381 516.13 27.9686 Q516.13 29.8204 517.548 30.891 Q518.966 31.9327 523.248 32.8876 L525.071 33.2926 Q530.742 34.5079 533.115 36.7359 Q535.516 38.935 535.516 42.8991 Q535.516 47.4129 531.928 50.046 Q528.369 52.6791 522.119 52.6791 Q519.515 52.6791 516.68 52.1583 Q513.873 51.6664 510.748 50.6537 L510.748 45.156 Q513.699 46.6896 516.564 47.4708 Q519.429 48.2231 522.235 48.2231 Q525.997 48.2231 528.022 46.95 Q530.048 45.6479 530.048 43.3042 Q530.048 41.134 528.572 39.9766 Q527.125 38.8192 522.177 37.7486 L520.325 37.3146 Q515.378 36.273 513.179 34.1318 Q510.979 31.9616 510.979 28.2001 Q510.979 23.6283 514.22 21.1399 Q517.461 18.6515 523.422 18.6515 Q526.373 18.6515 528.977 19.0855 Q531.581 19.5196 533.78 20.3876 Z" fill="#adb2b7" fill-rule="nonzero" fill-opacity="1" /><polyline clip-path="url(#clip361)" style="stroke:#00b8d9; stroke-linecap:round; stroke-linejoin:round; stroke-width:4; stroke-opacity:1; fill:none" points="204.745,1689.85 208.726,1689.85 212.707,1689.85 216.687,1689.85 220.668,1689.85 224.649,1689.85 228.63,1689.85 232.61,1689.85 236.591,1689.85 240.572,1689.85 244.553,1689.85 248.533,1689.85 252.514,1689.85 256.495,1689.85 260.476,1689.85 264.456,1689.85 268.437,1689.85 272.418,1689.85 276.398,1689.85 280.379,1689.85 284.36,1689.85 288.341,1689.85 292.321,1689.85 296.302,1689.85 296.302,99.4421 300.283,99.4421 300.283,1689.85 304.264,1689.85 304.264,99.4421 308.244,99.4421 308.244,1689.85 312.225,1689.85 316.206,1689.85 320.186,1689.85 324.167,1689.85 328.148,1689.85 332.129,1689.85 336.109,1689.85 336.109,99.4421 340.09,99.4421 344.071,99.4421 348.052,99.4421 348.052,1689.85 352.032,1689.85 352.032,99.4421 356.013,99.4421 359.994,99.4421 359.994,1689.85 363.975,1689.85 367.955,1689.85 371.936,1689.85 371.936,99.4421 375.917,99.4421 379.897,99.4421 383.878,99.4421 387.859,99.4421 391.84,99.4421 395.82,99.4421 399.801,99.4421 403.782,99.4421 407.763,99.4421 411.743,99.4421 415.724,99.4421 419.705,99.4421 423.686,99.4421 427.666,99.4421 431.647,99.4421 435.628,99.4421 439.608,99.4421 443.589,99.4421 447.57,99.4421 451.551,99.4421 455.531,99.4421 459.512,99.4421 463.493,99.4421 467.474,99.4421 471.454,99.4421 475.435,99.4421 479.416,99.4421 483.397,99.4421 487.377,99.4421 491.358,99.4421 495.339,99.4421 499.319,99.4421 503.3,99.4421 507.281,99.4421 511.262,99.4421 515.242,99.4421 519.223,99.4421 523.204,99.4421 527.185,99.4421 531.165,99.4421 535.146,99.4421 539.127,99.4421 543.107,99.4421 547.088,99.4421 551.069,99.4421 555.05,99.4421 559.03,99.4421 559.03,1689.85 563.011,1689.85 566.992,1689.85 566.992,99.4421 570.973,99.4421 574.953,99.4421 574.953,1689.85 578.934,1689.85 578.934,99.4421 582.915,99.4421 586.896,99.4421 590.876,99.4421 594.857,99.4421 598.838,99.4421 602.818,99.4421 606.799,99.4421 610.78,99.4421 614.761,99.4421 618.741,99.4421 622.722,99.4421 626.703,99.4421 630.684,99.4421 634.664,99.4421 638.645,99.4421 642.626,99.4421 646.607,99.4421 650.587,99.4421 654.568,99.4421 658.549,99.4421 662.529,99.4421 666.51,99.4421 670.491,99.4421 674.472,99.4421 678.452,99.4421 682.433,99.4421 686.414,99.4421 690.395,99.4421 694.375,99.4421 698.356,99.4421 702.337,99.4421 706.317,99.4421 710.298,99.4421 714.279,99.4421 714.279,1689.85 718.26,1689.85 722.24,1689.85 722.24,99.4421 726.221,99.4421 730.202,99.4421 734.183,99.4421 734.183,1689.85 738.163,1689.85 742.144,1689.85 746.125,1689.85 750.106,1689.85 754.086,1689.85 758.067,1689.85 762.048,1689.85 762.048,99.4421 766.028,99.4421 770.009,99.4421 773.99,99.4421 777.971,99.4421 781.951,99.4421 781.951,1689.85 785.932,1689.85 789.913,1689.85 793.894,1689.85 793.894,99.4421 797.874,99.4421 797.874,1689.85 801.855,1689.85 805.836,1689.85 805.836,99.4421 809.817,99.4421 813.797,99.4421 817.778,99.4421 821.759,99.4421 825.739,99.4421 829.72,99.4421 833.701,99.4421 833.701,1689.85 837.682,1689.85 837.682,99.4421 841.662,99.4421 845.643,99.4421 849.624,99.4421 849.624,1689.85 853.605,1689.85 857.585,1689.85 861.566,1689.85 865.547,1689.85 869.528,1689.85 873.508,1689.85 877.489,1689.85 881.47,1689.85 885.45,1689.85 885.45,99.4421 889.431,99.4421 893.412,99.4421 893.412,1689.85 897.393,1689.85 901.373,1689.85 905.354,1689.85 905.354,99.4421 909.335,99.4421 913.316,99.4421 913.316,1689.85 917.296,1689.85 921.277,1689.85 925.258,1689.85 929.238,1689.85 929.238,99.4421 933.219,99.4421 933.219,1689.85 937.2,1689.85 941.181,1689.85 945.161,1689.85 949.142,1689.85 953.123,1689.85 953.123,99.4421 957.104,99.4421 961.084,99.4421 965.065,99.4421 969.046,99.4421 973.027,99.4421 977.007,99.4421 980.988,99.4421 984.969,99.4421 988.949,99.4421 992.93,99.4421 996.911,99.4421 996.911,1689.85 1000.89,1689.85 1004.87,1689.85 1008.85,1689.85 1012.83,1689.85 1012.83,99.4421 1016.81,99.4421 1020.8,99.4421 1024.78,99.4421 1024.78,1689.85 1028.76,1689.85 1028.76,99.4421 1032.74,99.4421 1036.72,99.4421 1040.7,99.4421 1044.68,99.4421 1048.66,99.4421 1052.64,99.4421 1056.62,99.4421 1060.6,99.4421 1064.58,99.4421 1068.56,99.4421 1072.54,99.4421 1076.53,99.4421 1080.51,99.4421 1084.49,99.4421 1088.47,99.4421 1092.45,99.4421 1096.43,99.4421 1100.41,99.4421 1104.39,99.4421 1108.37,99.4421 1112.35,99.4421 1116.33,99.4421 1120.31,99.4421 1124.29,99.4421 1128.28,99.4421 1132.26,99.4421 1136.24,99.4421 1140.22,99.4421 1144.2,99.4421 1148.18,99.4421 1152.16,99.4421 1156.14,99.4421 1156.14,1689.85 1160.12,1689.85 1164.1,1689.85 1168.08,1689.85 1168.08,99.4421 1172.06,99.4421 1176.04,99.4421 1180.02,99.4421 1180.02,1689.85 1184.01,1689.85 1184.01,99.4421 1187.99,99.4421 1191.97,99.4421 1195.95,99.4421 1199.93,99.4421 1203.91,99.4421 1207.89,99.4421 1211.87,99.4421 1215.85,99.4421 1215.85,1689.85 1219.83,1689.85 1223.81,1689.85 1227.79,1689.85 1227.79,99.4421 1231.77,99.4421 1235.75,99.4421 1239.74,99.4421 1243.72,99.4421 1247.7,99.4421 1247.7,1689.85 1251.68,1689.85 1255.66,1689.85 1259.64,1689.85 1263.62,1689.85 1263.62,99.4421 1267.6,99.4421 1271.58,99.4421 1275.56,99.4421 1279.54,99.4421 1279.54,1689.85 1283.52,1689.85 1287.5,1689.85 1287.5,99.4421 1291.49,99.4421 1291.49,1689.85 1295.47,1689.85 1299.45,1689.85 1303.43,1689.85 1307.41,1689.85 1311.39,1689.85 1315.37,1689.85 1315.37,99.4421 1319.35,99.4421 1323.33,99.4421 1327.31,99.4421 1331.29,99.4421 1335.27,99.4421 1339.25,99.4421 1343.23,99.4421 1347.22,99.4421 1351.2,99.4421 1351.2,1689.85 1355.18,1689.85 1359.16,1689.85 1363.14,1689.85 1363.14,99.4421 1367.12,99.4421 1367.12,1689.85 1371.1,1689.85 1375.08,1689.85 1379.06,1689.85 1383.04,1689.85 1387.02,1689.85 1391,1689.85 1394.98,1689.85 1398.96,1689.85 1402.95,1689.85 1406.93,1689.85 1410.91,1689.85 1414.89,1689.85 1414.89,99.4421 1418.87,99.4421 1422.85,99.4421 1426.83,99.4421 1430.81,99.4421 1430.81,1689.85 1434.79,1689.85 1434.79,99.4421 1438.77,99.4421 1442.75,99.4421 1446.73,99.4421 1450.71,99.4421 1454.7,99.4421 1454.7,1689.85 1458.68,1689.85 1458.68,99.4421 1462.66,99.4421 1462.66,1689.85 1466.64,1689.85 1466.64,99.4421 1470.62,99.4421 1474.6,99.4421 1478.58,99.4421 1482.56,99.4421 1486.54,99.4421 1490.52,99.4421 1494.5,99.4421 1494.5,1689.85 1498.48,1689.85 1498.48,99.4421 1502.46,99.4421 1506.44,99.4421 1510.43,99.4421 1514.41,99.4421 1518.39,99.4421 1522.37,99.4421 1526.35,99.4421 1530.33,99.4421 1534.31,99.4421 1538.29,99.4421 1542.27,99.4421 1546.25,99.4421 1550.23,99.4421 1554.21,99.4421 1554.21,1689.85 1558.19,1689.85 1558.19,99.4421 1562.17,99.4421 1566.16,99.4421 1570.14,99.4421 1574.12,99.4421 1578.1,99.4421 1582.08,99.4421 1586.06,99.4421 1590.04,99.4421 1594.02,99.4421 1598,99.4421 1601.98,99.4421 1605.96,99.4421 1609.94,99.4421 1613.92,99.4421 1613.92,1689.85 1617.91,1689.85 1621.89,1689.85 1625.87,1689.85 1629.85,1689.85 1629.85,99.4421 1633.83,99.4421 1637.81,99.4421 1641.79,99.4421 1641.79,1689.85 1645.77,1689.85 1649.75,1689.85 1653.73,1689.85 1657.71,1689.85 1657.71,99.4421 1661.69,99.4421 1665.67,99.4421 1669.65,99.4421 1673.64,99.4421 1677.62,99.4421 1681.6,99.4421 1685.58,99.4421 1689.56,99.4421 1689.56,1689.85 1693.54,1689.85 1693.54,99.4421 1697.52,99.4421 1701.5,99.4421 1705.48,99.4421 1705.48,1689.85 1709.46,1689.85 1713.44,1689.85 1713.44,99.4421 1717.42,99.4421 1721.4,99.4421 1725.38,99.4421 1729.37,99.4421 1733.35,99.4421 1737.33,99.4421 1741.31,99.4421 1745.29,99.4421 1749.27,99.4421 1753.25,99.4421 1757.23,99.4421 1761.21,99.4421 1765.19,99.4421 1769.17,99.4421 1773.15,99.4421 1777.13,99.4421 1781.12,99.4421 1785.1,99.4421 1789.08,99.4421 1793.06,99.4421 1797.04,99.4421 1801.02,99.4421 1805,99.4421 1808.98,99.4421 1812.96,99.4421 1816.94,99.4421 1820.92,99.4421 1824.9,99.4421 1828.88,99.4421 1832.86,99.4421 1836.85,99.4421 1840.83,99.4421 1844.81,99.4421 1848.79,99.4421 1852.77,99.4421 1856.75,99.4421 1856.75,1689.85 1860.73,1689.85 1860.73,99.4421 1864.71,99.4421 1868.69,99.4421 1872.67,99.4421 1876.65,99.4421 1880.63,99.4421 1884.61,99.4421 1888.59,99.4421 1892.58,99.4421 1896.56,99.4421 1900.54,99.4421 1904.52,99.4421 1908.5,99.4421 1912.48,99.4421 1916.46,99.4421 1916.46,1689.85 1920.44,1689.85 1924.42,1689.85 1924.42,99.4421 1928.4,99.4421 1932.38,99.4421 1936.36,99.4421 1940.34,99.4421 1944.33,99.4421 1948.31,99.4421 1952.29,99.4421 1956.27,99.4421 1960.25,99.4421 1964.23,99.4421 1968.21,99.4421 1972.19,99.4421 1976.17,99.4421 1976.17,1689.85 1980.15,1689.85 1980.15,99.4421 1984.13,99.4421 1984.13,1689.85 1988.11,1689.85 1988.11,99.4421 1992.09,99.4421 1996.07,99.4421 2000.06,99.4421 2004.04,99.4421 2008.02,99.4421 2012,99.4421 2015.98,99.4421 2019.96,99.4421 2023.94,99.4421 2027.92,99.4421 2031.9,99.4421 2035.88,99.4421 2039.86,99.4421 2043.84,99.4421 2047.82,99.4421 2051.8,99.4421 2055.79,99.4421 2059.77,99.4421 2063.75,99.4421 2067.73,99.4421 2071.71,99.4421 2075.69,99.4421 2079.67,99.4421 2083.65,99.4421 2087.63,99.4421 2091.61,99.4421 2095.59,99.4421 2099.57,99.4421 2103.55,99.4421 2107.54,99.4421 2111.52,99.4421 2115.5,99.4421 2119.48,99.4421 2123.46,99.4421 2127.44,99.4421 2131.42,99.4421 2135.4,99.4421 2139.38,99.4421 2143.36,99.4421 2147.34,99.4421 2151.32,99.4421 2155.3,99.4421 2159.28,99.4421 2163.27,99.4421 2167.25,99.4421 2171.23,99.4421 2175.21,99.4421 2179.19,99.4421 2183.17,99.4421 2187.15,99.4421 2191.13,99.4421 2195.11,99.4421 2199.09,99.4421 2203.07,99.4421 2203.07,1689.85 2207.05,1689.85 2207.05,99.4421 2211.03,99.4421 2215.01,99.4421 2219,99.4421 2219,1689.85 2222.98,1689.85 2226.96,1689.85 2230.94,1689.85 2234.92,1689.85 2234.92,99.4421 2238.9,99.4421 2242.88,99.4421 2246.86,99.4421 2250.84,99.4421 2254.82,99.4421 2258.8,99.4421 2262.78,99.4421 2266.76,99.4421 2270.75,99.4421 2274.73,99.4421 2278.71,99.4421 2282.69,99.4421 2286.67,99.4421 2290.65,99.4421 2294.63,99.4421 2298.61,99.4421 2302.59,99.4421 2306.57,99.4421 2310.55,99.4421 2314.53,99.4421 2318.51,99.4421 2322.49,99.4421 2326.48,99.4421 2330.46,99.4421 2334.44,99.4421 2338.42,99.4421 2342.4,99.4421 2346.38,99.4421 2350.36,99.4421 2354.34,99.4421 2358.32,99.4421 2362.3,99.4421 2366.28,99.4421 2370.26,99.4421 2374.24,99.4421 2378.22,99.4421 2382.21,99.4421 2386.19,99.4421 2390.17,99.4421 2394.15,99.4421 2398.13,99.4421 2402.11,99.4421 2402.11,1689.85 2406.09,1689.85 2410.07,1689.85 2414.05,1689.85 2414.05,99.4421 2418.03,99.4421 2422.01,99.4421 2425.99,99.4421 2429.97,99.4421 2433.96,99.4421 2437.94,99.4421 2441.92,99.4421 2445.9,99.4421 2449.88,99.4421 2453.86,99.4421 2457.84,99.4421 2461.82,99.4421 2465.8,99.4421 2469.78,99.4421 2473.76,99.4421 2477.74,99.4421 2481.72,99.4421 2485.7,99.4421 2489.69,99.4421 2493.67,99.4421 2493.67,1689.85 2497.65,1689.85 2501.63,1689.85 2501.63,99.4421 2505.61,99.4421 2505.61,1689.85 2509.59,1689.85 2509.59,99.4421 2513.57,99.4421 2517.55,99.4421 2521.53,99.4421 2525.51,99.4421 2529.49,99.4421 2529.49,1689.85 2533.47,1689.85 2537.45,1689.85 2537.45,99.4421 2541.43,99.4421 2545.42,99.4421 2549.4,99.4421 2549.4,1689.85 2553.38,1689.85 2553.38,99.4421 2557.36,99.4421 2561.34,99.4421 2565.32,99.4421 2569.3,99.4421 2573.28,99.4421 2577.26,99.4421 2581.24,99.4421 2585.22,99.4421 2589.2,99.4421 2593.18,99.4421 2597.17,99.4421 2601.15,99.4421 2605.13,99.4421 2609.11,99.4421 2613.09,99.4421 2617.07,99.4421 2621.05,99.4421 2625.03,99.4421 2629.01,99.4421 2632.99,99.4421 2636.97,99.4421 2640.95,99.4421 2644.93,99.4421 2648.91,99.4421 2652.9,99.4421 2652.9,1689.85 2656.88,1689.85 2660.86,1689.85 2660.86,99.4421 2664.84,99.4421 2668.82,99.4421 2672.8,99.4421 2676.78,99.4421 2680.76,99.4421 2684.74,99.4421 2688.72,99.4421 2692.7,99.4421 2696.68,99.4421 2700.66,99.4421 2704.64,99.4421 2704.64,1689.85 2708.63,1689.85 2708.63,99.4421 2712.61,99.4421 2712.61,1689.85 2716.59,1689.85 2720.57,1689.85 2720.57,99.4421 2724.55,99.4421 2728.53,99.4421 2728.53,1689.85 2732.51,1689.85 2736.49,1689.85 2736.49,99.4421 2740.47,99.4421 2744.45,99.4421 2748.43,99.4421 2752.41,99.4421 2756.39,99.4421 2760.38,99.4421 2764.36,99.4421 2764.36,1689.85 2768.34,1689.85 2768.34,99.4421 2772.32,99.4421 2776.3,99.4421 2780.28,99.4421 2784.26,99.4421 2788.24,99.4421 2792.22,99.4421 2796.2,99.4421 2800.18,99.4421 2804.16,99.4421 2808.14,99.4421 2812.12,99.4421 2816.11,99.4421 2820.09,99.4421 2824.07,99.4421 2828.05,99.4421 2832.03,99.4421 2836.01,99.4421 2839.99,99.4421 2843.97,99.4421 2847.95,99.4421 2851.93,99.4421 2855.91,99.4421 2859.89,99.4421 2863.87,99.4421 2867.85,99.4421 2871.84,99.4421 2875.82,99.4421 2875.82,1689.85 2879.8,1689.85 2879.8,99.4421 2883.78,99.4421 2887.76,99.4421 2891.74,99.4421 2895.72,99.4421 2899.7,99.4421 2903.68,99.4421 2907.66,99.4421 2911.64,99.4421 2915.62,99.4421 2919.6,99.4421 2923.59,99.4421 2927.57,99.4421 2931.55,99.4421 2935.53,99.4421 2939.51,99.4421 2943.49,99.4421 2947.47,99.4421 2951.45,99.4421 2955.43,99.4421 2959.41,99.4421 2963.39,99.4421 2967.37,99.4421 2971.35,99.4421 2975.33,99.4421 2979.32,99.4421 2983.3,99.4421 2987.28,99.4421 2991.26,99.4421 2995.24,99.4421 2999.22,99.4421 3003.2,99.4421 3003.2,1689.85 3007.18,1689.85 3007.18,99.4421 3011.16,99.4421 3015.14,99.4421 3019.12,99.4421 3023.1,99.4421 3027.08,99.4421 3031.06,99.4421 3035.05,99.4421 3039.03,99.4421 3039.03,1689.85 3043.01,1689.85 3046.99,1689.85 3046.99,99.4421 3050.97,99.4421 3054.95,99.4421 3058.93,99.4421 3062.91,99.4421 3066.89,99.4421 "/>
</svg>
