<?xml version="1.0" encoding="utf-8"?>
<svg xmlns="http://www.w3.org/2000/svg" xmlns:xlink="http://www.w3.org/1999/xlink" width="800" height="400" viewBox="0 0 3200 1600">
<defs>
  <clipPath id="clip370">
    <rect x="0" y="0" width="3200" height="1600"/>
  </clipPath>
</defs>
<path clip-path="url(#clip370)" d="M0 1600 L3200 1600 L3200 0 L0 0  Z" fill="#282c34" fill-rule="evenodd" fill-opacity="1"/>
<defs>
  <clipPath id="clip371">
    <rect x="237" y="95" width="2916" height="1401"/>
  </clipPath>
</defs>
<path clip-path="url(#clip370)" d="M237.445 1495.09 L3152.76 1495.09 L3152.76 95.3921 L237.445 95.3921  Z" fill="#21252b" fill-rule="evenodd" fill-opacity="1"/>
<polyline clip-path="url(#clip371)" style="stroke:#adb2b7; stroke-linecap:round; stroke-linejoin:round; stroke-width:2; stroke-opacity:0.1; fill:none" points="1322.48,1495.09 1322.48,95.3921 "/>
<polyline clip-path="url(#clip371)" style="stroke:#adb2b7; stroke-linecap:round; stroke-linejoin:round; stroke-width:2; stroke-opacity:0.1; fill:none" points="2337.52,1495.09 2337.52,95.3921 "/>
<polyline clip-path="url(#clip371)" style="stroke:#adb2b7; stroke-linecap:round; stroke-linejoin:round; stroke-width:2; stroke-opacity:0.1; fill:none" points="237.445,1446.91 3152.76,1446.91 "/>
<polyline clip-path="url(#clip371)" style="stroke:#adb2b7; stroke-linecap:round; stroke-linejoin:round; stroke-width:2; stroke-opacity:0.1; fill:none" points="237.445,1135.04 3152.76,1135.04 "/>
<polyline clip-path="url(#clip371)" style="stroke:#adb2b7; stroke-linecap:round; stroke-linejoin:round; stroke-width:2; stroke-opacity:0.1; fill:none" points="237.445,823.179 3152.76,823.179 "/>
<polyline clip-path="url(#clip371)" style="stroke:#adb2b7; stroke-linecap:round; stroke-linejoin:round; stroke-width:2; stroke-opacity:0.1; fill:none" points="237.445,511.315 3152.76,511.315 "/>
<polyline clip-path="url(#clip371)" style="stroke:#adb2b7; stroke-linecap:round; stroke-linejoin:round; stroke-width:2; stroke-opacity:0.1; fill:none" points="237.445,199.451 3152.76,199.451 "/>
<polyline clip-path="url(#clip370)" style="stroke:#adb2b7; stroke-linecap:round; stroke-linejoin:round; stroke-width:4; stroke-opacity:1; fill:none" points="237.445,1495.09 3152.76,1495.09 "/>
<polyline clip-path="url(#clip370)" style="stroke:#adb2b7; stroke-linecap:round; stroke-linejoin:round; stroke-width:4; stroke-opacity:1; fill:none" points="1322.48,1495.09 1322.48,1476.19 "/>
<polyline clip-path="url(#clip370)" style="stroke:#adb2b7; stroke-linecap:round; stroke-linejoin:round; stroke-width:4; stroke-opacity:1; fill:none" points="2337.52,1495.09 2337.52,1476.19 "/>
<path clip-path="url(#clip370)" d="M1194.28 1559.95 L1210.6 1559.95 L1210.6 1563.89 L1188.65 1563.89 L1188.65 1559.95 Q1191.31 1557.2 1195.9 1552.57 Q1200.5 1547.92 1201.69 1546.57 Q1203.93 1544.05 1204.81 1542.31 Q1205.71 1540.55 1205.71 1538.86 Q1205.71 1536.11 1203.77 1534.37 Q1201.85 1532.64 1198.75 1532.64 Q1196.55 1532.64 1194.09 1533.4 Q1191.66 1534.17 1188.88 1535.72 L1188.88 1530.99 Q1191.71 1529.86 1194.16 1529.28 Q1196.62 1528.7 1198.65 1528.7 Q1204.02 1528.7 1207.22 1531.39 Q1210.41 1534.07 1210.41 1538.56 Q1210.41 1540.69 1209.6 1542.61 Q1208.81 1544.51 1206.71 1547.11 Q1206.13 1547.78 1203.03 1550.99 Q1199.93 1554.19 1194.28 1559.95 Z" fill="#9eb1be" fill-rule="nonzero" fill-opacity="1" /><path clip-path="url(#clip370)" d="M1230.41 1532.41 Q1226.8 1532.41 1224.97 1535.97 Q1223.17 1539.51 1223.17 1546.64 Q1223.17 1553.75 1224.97 1557.31 Q1226.8 1560.86 1230.41 1560.86 Q1234.05 1560.86 1235.85 1557.31 Q1237.68 1553.75 1237.68 1546.64 Q1237.68 1539.51 1235.85 1535.97 Q1234.05 1532.41 1230.41 1532.41 M1230.41 1528.7 Q1236.22 1528.7 1239.28 1533.31 Q1242.36 1537.89 1242.36 1546.64 Q1242.36 1555.37 1239.28 1559.98 Q1236.22 1564.56 1230.41 1564.56 Q1224.6 1564.56 1221.52 1559.98 Q1218.47 1555.37 1218.47 1546.64 Q1218.47 1537.89 1221.52 1533.31 Q1224.6 1528.7 1230.41 1528.7 Z" fill="#9eb1be" fill-rule="nonzero" fill-opacity="1" /><path clip-path="url(#clip370)" d="M1254.6 1559.95 L1270.92 1559.95 L1270.92 1563.89 L1248.98 1563.89 L1248.98 1559.95 Q1251.64 1557.2 1256.22 1552.57 Q1260.83 1547.92 1262.01 1546.57 Q1264.25 1544.05 1265.13 1542.31 Q1266.04 1540.55 1266.04 1538.86 Q1266.04 1536.11 1264.09 1534.37 Q1262.17 1532.64 1259.07 1532.64 Q1256.87 1532.64 1254.42 1533.4 Q1251.99 1534.17 1249.21 1535.72 L1249.21 1530.99 Q1252.03 1529.86 1254.49 1529.28 Q1256.94 1528.7 1258.98 1528.7 Q1264.35 1528.7 1267.54 1531.39 Q1270.74 1534.07 1270.74 1538.56 Q1270.74 1540.69 1269.93 1542.61 Q1269.14 1544.51 1267.03 1547.11 Q1266.45 1547.78 1263.35 1550.99 Q1260.25 1554.19 1254.6 1559.95 Z" fill="#9eb1be" fill-rule="nonzero" fill-opacity="1" /><path clip-path="url(#clip370)" d="M1290.74 1532.41 Q1287.12 1532.41 1285.3 1535.97 Q1283.49 1539.51 1283.49 1546.64 Q1283.49 1553.75 1285.3 1557.31 Q1287.12 1560.86 1290.74 1560.86 Q1294.37 1560.86 1296.18 1557.31 Q1298 1553.75 1298 1546.64 Q1298 1539.51 1296.18 1535.97 Q1294.37 1532.41 1290.74 1532.41 M1290.74 1528.7 Q1296.55 1528.7 1299.6 1533.31 Q1302.68 1537.89 1302.68 1546.64 Q1302.68 1555.37 1299.6 1559.98 Q1296.55 1564.56 1290.74 1564.56 Q1284.93 1564.56 1281.85 1559.98 Q1278.79 1555.37 1278.79 1546.64 Q1278.79 1537.89 1281.85 1533.31 Q1284.93 1528.7 1290.74 1528.7 Z" fill="#9eb1be" fill-rule="nonzero" fill-opacity="1" /><path clip-path="url(#clip370)" d="M1308.14 1549 L1320.62 1549 L1320.62 1552.8 L1308.14 1552.8 L1308.14 1549 Z" fill="#9eb1be" fill-rule="nonzero" fill-opacity="1" /><path clip-path="url(#clip370)" d="M1338 1532.41 Q1334.39 1532.41 1332.56 1535.97 Q1330.76 1539.51 1330.76 1546.64 Q1330.76 1553.75 1332.56 1557.31 Q1334.39 1560.86 1338 1560.86 Q1341.64 1560.86 1343.44 1557.31 Q1345.27 1553.75 1345.27 1546.64 Q1345.27 1539.51 1343.44 1535.97 Q1341.64 1532.41 1338 1532.41 M1338 1528.7 Q1343.81 1528.7 1346.87 1533.31 Q1349.95 1537.89 1349.95 1546.64 Q1349.95 1555.37 1346.87 1559.98 Q1343.81 1564.56 1338 1564.56 Q1332.19 1564.56 1329.12 1559.98 Q1326.06 1555.37 1326.06 1546.64 Q1326.06 1537.89 1329.12 1533.31 Q1332.19 1528.7 1338 1528.7 Z" fill="#9eb1be" fill-rule="nonzero" fill-opacity="1" /><path clip-path="url(#clip370)" d="M1362.19 1559.95 L1378.51 1559.95 L1378.51 1563.89 L1356.57 1563.89 L1356.57 1559.95 Q1359.23 1557.2 1363.81 1552.57 Q1368.42 1547.92 1369.6 1546.57 Q1371.85 1544.05 1372.73 1542.31 Q1373.63 1540.55 1373.63 1538.86 Q1373.63 1536.11 1371.68 1534.37 Q1369.76 1532.64 1366.66 1532.64 Q1364.46 1532.64 1362.01 1533.4 Q1359.58 1534.17 1356.8 1535.72 L1356.8 1530.99 Q1359.62 1529.86 1362.08 1529.28 Q1364.53 1528.7 1366.57 1528.7 Q1371.94 1528.7 1375.13 1531.39 Q1378.33 1534.07 1378.33 1538.56 Q1378.33 1540.69 1377.52 1542.61 Q1376.73 1544.51 1374.62 1547.11 Q1374.05 1547.78 1370.94 1550.99 Q1367.84 1554.19 1362.19 1559.95 Z" fill="#9eb1be" fill-rule="nonzero" fill-opacity="1" /><path clip-path="url(#clip370)" d="M1385.57 1549 L1398.05 1549 L1398.05 1552.8 L1385.57 1552.8 L1385.57 1549 Z" fill="#9eb1be" fill-rule="nonzero" fill-opacity="1" /><path clip-path="url(#clip370)" d="M1415.43 1532.41 Q1411.82 1532.41 1409.99 1535.97 Q1408.19 1539.51 1408.19 1546.64 Q1408.19 1553.75 1409.99 1557.31 Q1411.82 1560.86 1415.43 1560.86 Q1419.07 1560.86 1420.87 1557.31 Q1422.7 1553.75 1422.7 1546.64 Q1422.7 1539.51 1420.87 1535.97 Q1419.07 1532.41 1415.43 1532.41 M1415.43 1528.7 Q1421.24 1528.7 1424.3 1533.31 Q1427.38 1537.89 1427.38 1546.64 Q1427.38 1555.37 1424.3 1559.98 Q1421.24 1564.56 1415.43 1564.56 Q1409.62 1564.56 1406.55 1559.98 Q1403.49 1555.37 1403.49 1546.64 Q1403.49 1537.89 1406.55 1533.31 Q1409.62 1528.7 1415.43 1528.7 Z" fill="#9eb1be" fill-rule="nonzero" fill-opacity="1" /><path clip-path="url(#clip370)" d="M1436.41 1559.95 L1444.05 1559.95 L1444.05 1533.59 L1435.73 1535.25 L1435.73 1530.99 L1444 1529.33 L1448.67 1529.33 L1448.67 1559.95 L1456.31 1559.95 L1456.31 1563.89 L1436.41 1563.89 L1436.41 1559.95 Z" fill="#9eb1be" fill-rule="nonzero" fill-opacity="1" /><path clip-path="url(#clip370)" d="M2209.31 1559.95 L2225.63 1559.95 L2225.63 1563.89 L2203.69 1563.89 L2203.69 1559.95 Q2206.35 1557.2 2210.93 1552.57 Q2215.54 1547.92 2216.72 1546.57 Q2218.97 1544.05 2219.85 1542.31 Q2220.75 1540.55 2220.75 1538.86 Q2220.75 1536.11 2218.8 1534.37 Q2216.88 1532.64 2213.78 1532.64 Q2211.58 1532.64 2209.13 1533.4 Q2206.7 1534.17 2203.92 1535.72 L2203.92 1530.99 Q2206.74 1529.86 2209.2 1529.28 Q2211.65 1528.7 2213.69 1528.7 Q2219.06 1528.7 2222.25 1531.39 Q2225.45 1534.07 2225.45 1538.56 Q2225.45 1540.69 2224.64 1542.61 Q2223.85 1544.51 2221.74 1547.11 Q2221.17 1547.78 2218.06 1550.99 Q2214.96 1554.19 2209.31 1559.95 Z" fill="#9eb1be" fill-rule="nonzero" fill-opacity="1" /><path clip-path="url(#clip370)" d="M2245.45 1532.41 Q2241.84 1532.41 2240.01 1535.97 Q2238.2 1539.51 2238.2 1546.64 Q2238.2 1553.75 2240.01 1557.31 Q2241.84 1560.86 2245.45 1560.86 Q2249.08 1560.86 2250.89 1557.31 Q2252.72 1553.75 2252.72 1546.64 Q2252.72 1539.51 2250.89 1535.97 Q2249.08 1532.41 2245.45 1532.41 M2245.45 1528.7 Q2251.26 1528.7 2254.31 1533.31 Q2257.39 1537.89 2257.39 1546.64 Q2257.39 1555.37 2254.31 1559.98 Q2251.26 1564.56 2245.45 1564.56 Q2239.64 1564.56 2236.56 1559.98 Q2233.5 1555.37 2233.5 1546.64 Q2233.5 1537.89 2236.56 1533.31 Q2239.64 1528.7 2245.45 1528.7 Z" fill="#9eb1be" fill-rule="nonzero" fill-opacity="1" /><path clip-path="url(#clip370)" d="M2269.64 1559.95 L2285.96 1559.95 L2285.96 1563.89 L2264.01 1563.89 L2264.01 1559.95 Q2266.67 1557.2 2271.26 1552.57 Q2275.86 1547.92 2277.04 1546.57 Q2279.29 1544.05 2280.17 1542.31 Q2281.07 1540.55 2281.07 1538.86 Q2281.07 1536.11 2279.13 1534.37 Q2277.21 1532.64 2274.1 1532.64 Q2271.91 1532.64 2269.45 1533.4 Q2267.02 1534.17 2264.24 1535.72 L2264.24 1530.99 Q2267.07 1529.86 2269.52 1529.28 Q2271.98 1528.7 2274.01 1528.7 Q2279.38 1528.7 2282.58 1531.39 Q2285.77 1534.07 2285.77 1538.56 Q2285.77 1540.69 2284.96 1542.61 Q2284.17 1544.51 2282.07 1547.11 Q2281.49 1547.78 2278.39 1550.99 Q2275.29 1554.19 2269.64 1559.95 Z" fill="#9eb1be" fill-rule="nonzero" fill-opacity="1" /><path clip-path="url(#clip370)" d="M2305.77 1532.41 Q2302.16 1532.41 2300.33 1535.97 Q2298.53 1539.51 2298.53 1546.64 Q2298.53 1553.75 2300.33 1557.31 Q2302.16 1560.86 2305.77 1560.86 Q2309.41 1560.86 2311.21 1557.31 Q2313.04 1553.75 2313.04 1546.64 Q2313.04 1539.51 2311.21 1535.97 Q2309.41 1532.41 2305.77 1532.41 M2305.77 1528.7 Q2311.58 1528.7 2314.64 1533.31 Q2317.72 1537.89 2317.72 1546.64 Q2317.72 1555.37 2314.64 1559.98 Q2311.58 1564.56 2305.77 1564.56 Q2299.96 1564.56 2296.88 1559.98 Q2293.83 1555.37 2293.83 1546.64 Q2293.83 1537.89 2296.88 1533.31 Q2299.96 1528.7 2305.77 1528.7 Z" fill="#9eb1be" fill-rule="nonzero" fill-opacity="1" /><path clip-path="url(#clip370)" d="M2323.18 1549 L2335.66 1549 L2335.66 1552.8 L2323.18 1552.8 L2323.18 1549 Z" fill="#9eb1be" fill-rule="nonzero" fill-opacity="1" /><path clip-path="url(#clip370)" d="M2353.04 1532.41 Q2349.43 1532.41 2347.6 1535.97 Q2345.79 1539.51 2345.79 1546.64 Q2345.79 1553.75 2347.6 1557.31 Q2349.43 1560.86 2353.04 1560.86 Q2356.67 1560.86 2358.48 1557.31 Q2360.31 1553.75 2360.31 1546.64 Q2360.31 1539.51 2358.48 1535.97 Q2356.67 1532.41 2353.04 1532.41 M2353.04 1528.7 Q2358.85 1528.7 2361.91 1533.31 Q2364.98 1537.89 2364.98 1546.64 Q2364.98 1555.37 2361.91 1559.98 Q2358.85 1564.56 2353.04 1564.56 Q2347.23 1564.56 2344.15 1559.98 Q2341.1 1555.37 2341.1 1546.64 Q2341.1 1537.89 2344.15 1533.31 Q2347.23 1528.7 2353.04 1528.7 Z" fill="#9eb1be" fill-rule="nonzero" fill-opacity="1" /><path clip-path="url(#clip370)" d="M2387.37 1545.25 Q2390.72 1545.97 2392.6 1548.24 Q2394.5 1550.51 2394.5 1553.84 Q2394.5 1558.96 2390.98 1561.76 Q2387.46 1564.56 2380.98 1564.56 Q2378.8 1564.56 2376.49 1564.12 Q2374.2 1563.7 2371.74 1562.85 L2371.74 1558.33 Q2373.69 1559.47 2376 1560.05 Q2378.32 1560.62 2380.84 1560.62 Q2385.24 1560.62 2387.53 1558.89 Q2389.85 1557.15 2389.85 1553.84 Q2389.85 1550.79 2387.69 1549.07 Q2385.56 1547.34 2381.74 1547.34 L2377.72 1547.34 L2377.72 1543.49 L2381.93 1543.49 Q2385.38 1543.49 2387.21 1542.13 Q2389.03 1540.74 2389.03 1538.15 Q2389.03 1535.49 2387.14 1534.07 Q2385.26 1532.64 2381.74 1532.64 Q2379.82 1532.64 2377.62 1533.05 Q2375.42 1533.47 2372.78 1534.35 L2372.78 1530.18 Q2375.45 1529.44 2377.76 1529.07 Q2380.1 1528.7 2382.16 1528.7 Q2387.48 1528.7 2390.59 1531.13 Q2393.69 1533.54 2393.69 1537.66 Q2393.69 1540.53 2392.04 1542.52 Q2390.4 1544.49 2387.37 1545.25 Z" fill="#9eb1be" fill-rule="nonzero" fill-opacity="1" /><path clip-path="url(#clip370)" d="M2400.61 1549 L2413.09 1549 L2413.09 1552.8 L2400.61 1552.8 L2400.61 1549 Z" fill="#9eb1be" fill-rule="nonzero" fill-opacity="1" /><path clip-path="url(#clip370)" d="M2430.47 1532.41 Q2426.86 1532.41 2425.03 1535.97 Q2423.22 1539.51 2423.22 1546.64 Q2423.22 1553.75 2425.03 1557.31 Q2426.86 1560.86 2430.47 1560.86 Q2434.1 1560.86 2435.91 1557.31 Q2437.74 1553.75 2437.74 1546.64 Q2437.74 1539.51 2435.91 1535.97 Q2434.1 1532.41 2430.47 1532.41 M2430.47 1528.7 Q2436.28 1528.7 2439.34 1533.31 Q2442.41 1537.89 2442.41 1546.64 Q2442.41 1555.37 2439.34 1559.98 Q2436.28 1564.56 2430.47 1564.56 Q2424.66 1564.56 2421.58 1559.98 Q2418.53 1555.37 2418.53 1546.64 Q2418.53 1537.89 2421.58 1533.31 Q2424.66 1528.7 2430.47 1528.7 Z" fill="#9eb1be" fill-rule="nonzero" fill-opacity="1" /><path clip-path="url(#clip370)" d="M2451.44 1559.95 L2459.08 1559.95 L2459.08 1533.59 L2450.77 1535.25 L2450.77 1530.99 L2459.03 1529.33 L2463.71 1529.33 L2463.71 1559.95 L2471.35 1559.95 L2471.35 1563.89 L2451.44 1563.89 L2451.44 1559.95 Z" fill="#9eb1be" fill-rule="nonzero" fill-opacity="1" /><polyline clip-path="url(#clip370)" style="stroke:#adb2b7; stroke-linecap:round; stroke-linejoin:round; stroke-width:4; stroke-opacity:1; fill:none" points="237.445,1495.09 237.445,95.3921 "/>
<polyline clip-path="url(#clip370)" style="stroke:#adb2b7; stroke-linecap:round; stroke-linejoin:round; stroke-width:4; stroke-opacity:1; fill:none" points="237.445,1446.91 256.343,1446.91 "/>
<polyline clip-path="url(#clip370)" style="stroke:#adb2b7; stroke-linecap:round; stroke-linejoin:round; stroke-width:4; stroke-opacity:1; fill:none" points="237.445,1135.04 256.343,1135.04 "/>
<polyline clip-path="url(#clip370)" style="stroke:#adb2b7; stroke-linecap:round; stroke-linejoin:round; stroke-width:4; stroke-opacity:1; fill:none" points="237.445,823.179 256.343,823.179 "/>
<polyline clip-path="url(#clip370)" style="stroke:#adb2b7; stroke-linecap:round; stroke-linejoin:round; stroke-width:4; stroke-opacity:1; fill:none" points="237.445,511.315 256.343,511.315 "/>
<polyline clip-path="url(#clip370)" style="stroke:#adb2b7; stroke-linecap:round; stroke-linejoin:round; stroke-width:4; stroke-opacity:1; fill:none" points="237.445,199.451 256.343,199.451 "/>
<path clip-path="url(#clip370)" d="M47.6634 1460.25 L55.3023 1460.25 L55.3023 1433.89 L46.9921 1435.55 L46.9921 1431.29 L55.256 1429.63 L59.9319 1429.63 L59.9319 1460.25 L67.5707 1460.25 L67.5707 1464.19 L47.6634 1464.19 L47.6634 1460.25 Z" fill="#9eb1be" fill-rule="nonzero" fill-opacity="1" /><path clip-path="url(#clip370)" d="M87.0151 1432.71 Q83.404 1432.71 81.5753 1436.27 Q79.7697 1439.81 79.7697 1446.94 Q79.7697 1454.05 81.5753 1457.61 Q83.404 1461.16 87.0151 1461.16 Q90.6493 1461.16 92.4548 1457.61 Q94.2835 1454.05 94.2835 1446.94 Q94.2835 1439.81 92.4548 1436.27 Q90.6493 1432.71 87.0151 1432.71 M87.0151 1429 Q92.8252 1429 95.8808 1433.61 Q98.9594 1438.19 98.9594 1446.94 Q98.9594 1455.67 95.8808 1460.28 Q92.8252 1464.86 87.0151 1464.86 Q81.2049 1464.86 78.1262 1460.28 Q75.0707 1455.67 75.0707 1446.94 Q75.0707 1438.19 78.1262 1433.61 Q81.2049 1429 87.0151 1429 Z" fill="#9eb1be" fill-rule="nonzero" fill-opacity="1" /><path clip-path="url(#clip370)" d="M117.177 1432.71 Q113.566 1432.71 111.737 1436.27 Q109.932 1439.81 109.932 1446.94 Q109.932 1454.05 111.737 1457.61 Q113.566 1461.16 117.177 1461.16 Q120.811 1461.16 122.617 1457.61 Q124.445 1454.05 124.445 1446.94 Q124.445 1439.81 122.617 1436.27 Q120.811 1432.71 117.177 1432.71 M117.177 1429 Q122.987 1429 126.043 1433.61 Q129.121 1438.19 129.121 1446.94 Q129.121 1455.67 126.043 1460.28 Q122.987 1464.86 117.177 1464.86 Q111.367 1464.86 108.288 1460.28 Q105.233 1455.67 105.233 1446.94 Q105.233 1438.19 108.288 1433.61 Q111.367 1429 117.177 1429 Z" fill="#9eb1be" fill-rule="nonzero" fill-opacity="1" /><path clip-path="url(#clip370)" d="M147.339 1432.71 Q143.728 1432.71 141.899 1436.27 Q140.093 1439.81 140.093 1446.94 Q140.093 1454.05 141.899 1457.61 Q143.728 1461.16 147.339 1461.16 Q150.973 1461.16 152.779 1457.61 Q154.607 1454.05 154.607 1446.94 Q154.607 1439.81 152.779 1436.27 Q150.973 1432.71 147.339 1432.71 M147.339 1429 Q153.149 1429 156.205 1433.61 Q159.283 1438.19 159.283 1446.94 Q159.283 1455.67 156.205 1460.28 Q153.149 1464.86 147.339 1464.86 Q141.529 1464.86 138.45 1460.28 Q135.394 1455.67 135.394 1446.94 Q135.394 1438.19 138.45 1433.61 Q141.529 1429 147.339 1429 Z" fill="#9eb1be" fill-rule="nonzero" fill-opacity="1" /><path clip-path="url(#clip370)" d="M177.501 1432.71 Q173.89 1432.71 172.061 1436.27 Q170.255 1439.81 170.255 1446.94 Q170.255 1454.05 172.061 1457.61 Q173.89 1461.16 177.501 1461.16 Q181.135 1461.16 182.94 1457.61 Q184.769 1454.05 184.769 1446.94 Q184.769 1439.81 182.94 1436.27 Q181.135 1432.71 177.501 1432.71 M177.501 1429 Q183.311 1429 186.366 1433.61 Q189.445 1438.19 189.445 1446.94 Q189.445 1455.67 186.366 1460.28 Q183.311 1464.86 177.501 1464.86 Q171.691 1464.86 168.612 1460.28 Q165.556 1455.67 165.556 1446.94 Q165.556 1438.19 168.612 1433.61 Q171.691 1429 177.501 1429 Z" fill="#9eb1be" fill-rule="nonzero" fill-opacity="1" /><path clip-path="url(#clip370)" d="M47.6634 1148.39 L55.3023 1148.39 L55.3023 1122.02 L46.9921 1123.69 L46.9921 1119.43 L55.256 1117.76 L59.9319 1117.76 L59.9319 1148.39 L67.5707 1148.39 L67.5707 1152.32 L47.6634 1152.32 L47.6634 1148.39 Z" fill="#9eb1be" fill-rule="nonzero" fill-opacity="1" /><path clip-path="url(#clip370)" d="M87.0151 1120.84 Q83.404 1120.84 81.5753 1124.41 Q79.7697 1127.95 79.7697 1135.08 Q79.7697 1142.18 81.5753 1145.75 Q83.404 1149.29 87.0151 1149.29 Q90.6493 1149.29 92.4548 1145.75 Q94.2835 1142.18 94.2835 1135.08 Q94.2835 1127.95 92.4548 1124.41 Q90.6493 1120.84 87.0151 1120.84 M87.0151 1117.14 Q92.8252 1117.14 95.8808 1121.74 Q98.9594 1126.33 98.9594 1135.08 Q98.9594 1143.8 95.8808 1148.41 Q92.8252 1152.99 87.0151 1152.99 Q81.2049 1152.99 78.1262 1148.41 Q75.0707 1143.8 75.0707 1135.08 Q75.0707 1126.33 78.1262 1121.74 Q81.2049 1117.14 87.0151 1117.14 Z" fill="#9eb1be" fill-rule="nonzero" fill-opacity="1" /><path clip-path="url(#clip370)" d="M107.987 1148.39 L115.626 1148.39 L115.626 1122.02 L107.316 1123.69 L107.316 1119.43 L115.58 1117.76 L120.256 1117.76 L120.256 1148.39 L127.894 1148.39 L127.894 1152.32 L107.987 1152.32 L107.987 1148.39 Z" fill="#9eb1be" fill-rule="nonzero" fill-opacity="1" /><path clip-path="url(#clip370)" d="M147.339 1120.84 Q143.728 1120.84 141.899 1124.41 Q140.093 1127.95 140.093 1135.08 Q140.093 1142.18 141.899 1145.75 Q143.728 1149.29 147.339 1149.29 Q150.973 1149.29 152.779 1145.75 Q154.607 1142.18 154.607 1135.08 Q154.607 1127.95 152.779 1124.41 Q150.973 1120.84 147.339 1120.84 M147.339 1117.14 Q153.149 1117.14 156.205 1121.74 Q159.283 1126.33 159.283 1135.08 Q159.283 1143.8 156.205 1148.41 Q153.149 1152.99 147.339 1152.99 Q141.529 1152.99 138.45 1148.41 Q135.394 1143.8 135.394 1135.08 Q135.394 1126.33 138.45 1121.74 Q141.529 1117.14 147.339 1117.14 Z" fill="#9eb1be" fill-rule="nonzero" fill-opacity="1" /><path clip-path="url(#clip370)" d="M177.501 1120.84 Q173.89 1120.84 172.061 1124.41 Q170.255 1127.95 170.255 1135.08 Q170.255 1142.18 172.061 1145.75 Q173.89 1149.29 177.501 1149.29 Q181.135 1149.29 182.94 1145.75 Q184.769 1142.18 184.769 1135.08 Q184.769 1127.95 182.94 1124.41 Q181.135 1120.84 177.501 1120.84 M177.501 1117.14 Q183.311 1117.14 186.366 1121.74 Q189.445 1126.33 189.445 1135.08 Q189.445 1143.8 186.366 1148.41 Q183.311 1152.99 177.501 1152.99 Q171.691 1152.99 168.612 1148.41 Q165.556 1143.8 165.556 1135.08 Q165.556 1126.33 168.612 1121.74 Q171.691 1117.14 177.501 1117.14 Z" fill="#9eb1be" fill-rule="nonzero" fill-opacity="1" /><path clip-path="url(#clip370)" d="M47.6634 836.524 L55.3023 836.524 L55.3023 810.158 L46.9921 811.825 L46.9921 807.566 L55.256 805.899 L59.9319 805.899 L59.9319 836.524 L67.5707 836.524 L67.5707 840.459 L47.6634 840.459 L47.6634 836.524 Z" fill="#9eb1be" fill-rule="nonzero" fill-opacity="1" /><path clip-path="url(#clip370)" d="M87.0151 808.978 Q83.404 808.978 81.5753 812.543 Q79.7697 816.084 79.7697 823.214 Q79.7697 830.32 81.5753 833.885 Q83.404 837.427 87.0151 837.427 Q90.6493 837.427 92.4548 833.885 Q94.2835 830.32 94.2835 823.214 Q94.2835 816.084 92.4548 812.543 Q90.6493 808.978 87.0151 808.978 M87.0151 805.274 Q92.8252 805.274 95.8808 809.881 Q98.9594 814.464 98.9594 823.214 Q98.9594 831.941 95.8808 836.547 Q92.8252 841.131 87.0151 841.131 Q81.2049 841.131 78.1262 836.547 Q75.0707 831.941 75.0707 823.214 Q75.0707 814.464 78.1262 809.881 Q81.2049 805.274 87.0151 805.274 Z" fill="#9eb1be" fill-rule="nonzero" fill-opacity="1" /><path clip-path="url(#clip370)" d="M111.205 836.524 L127.524 836.524 L127.524 840.459 L105.58 840.459 L105.58 836.524 Q108.242 833.769 112.825 829.14 Q117.432 824.487 118.612 823.145 Q120.857 820.621 121.737 818.885 Q122.64 817.126 122.64 815.436 Q122.64 812.682 120.695 810.946 Q118.774 809.209 115.672 809.209 Q113.473 809.209 111.02 809.973 Q108.589 810.737 105.811 812.288 L105.811 807.566 Q108.635 806.432 111.089 805.853 Q113.543 805.274 115.58 805.274 Q120.95 805.274 124.144 807.959 Q127.339 810.645 127.339 815.135 Q127.339 817.265 126.529 819.186 Q125.742 821.084 123.635 823.677 Q123.057 824.348 119.955 827.566 Q116.853 830.76 111.205 836.524 Z" fill="#9eb1be" fill-rule="nonzero" fill-opacity="1" /><path clip-path="url(#clip370)" d="M147.339 808.978 Q143.728 808.978 141.899 812.543 Q140.093 816.084 140.093 823.214 Q140.093 830.32 141.899 833.885 Q143.728 837.427 147.339 837.427 Q150.973 837.427 152.779 833.885 Q154.607 830.32 154.607 823.214 Q154.607 816.084 152.779 812.543 Q150.973 808.978 147.339 808.978 M147.339 805.274 Q153.149 805.274 156.205 809.881 Q159.283 814.464 159.283 823.214 Q159.283 831.941 156.205 836.547 Q153.149 841.131 147.339 841.131 Q141.529 841.131 138.45 836.547 Q135.394 831.941 135.394 823.214 Q135.394 814.464 138.45 809.881 Q141.529 805.274 147.339 805.274 Z" fill="#9eb1be" fill-rule="nonzero" fill-opacity="1" /><path clip-path="url(#clip370)" d="M177.501 808.978 Q173.89 808.978 172.061 812.543 Q170.255 816.084 170.255 823.214 Q170.255 830.32 172.061 833.885 Q173.89 837.427 177.501 837.427 Q181.135 837.427 182.94 833.885 Q184.769 830.32 184.769 823.214 Q184.769 816.084 182.94 812.543 Q181.135 808.978 177.501 808.978 M177.501 805.274 Q183.311 805.274 186.366 809.881 Q189.445 814.464 189.445 823.214 Q189.445 831.941 186.366 836.547 Q183.311 841.131 177.501 841.131 Q171.691 841.131 168.612 836.547 Q165.556 831.941 165.556 823.214 Q165.556 814.464 168.612 809.881 Q171.691 805.274 177.501 805.274 Z" fill="#9eb1be" fill-rule="nonzero" fill-opacity="1" /><path clip-path="url(#clip370)" d="M47.6634 524.66 L55.3023 524.66 L55.3023 498.294 L46.9921 499.961 L46.9921 495.702 L55.256 494.035 L59.9319 494.035 L59.9319 524.66 L67.5707 524.66 L67.5707 528.595 L47.6634 528.595 L47.6634 524.66 Z" fill="#9eb1be" fill-rule="nonzero" fill-opacity="1" /><path clip-path="url(#clip370)" d="M87.0151 497.114 Q83.404 497.114 81.5753 500.679 Q79.7697 504.22 79.7697 511.35 Q79.7697 518.456 81.5753 522.021 Q83.404 525.563 87.0151 525.563 Q90.6493 525.563 92.4548 522.021 Q94.2835 518.456 94.2835 511.35 Q94.2835 504.22 92.4548 500.679 Q90.6493 497.114 87.0151 497.114 M87.0151 493.41 Q92.8252 493.41 95.8808 498.016 Q98.9594 502.6 98.9594 511.35 Q98.9594 520.077 95.8808 524.683 Q92.8252 529.266 87.0151 529.266 Q81.2049 529.266 78.1262 524.683 Q75.0707 520.077 75.0707 511.35 Q75.0707 502.6 78.1262 498.016 Q81.2049 493.41 87.0151 493.41 Z" fill="#9eb1be" fill-rule="nonzero" fill-opacity="1" /><path clip-path="url(#clip370)" d="M121.344 509.961 Q124.7 510.678 126.575 512.947 Q128.473 515.215 128.473 518.549 Q128.473 523.664 124.955 526.465 Q121.436 529.266 114.955 529.266 Q112.779 529.266 110.464 528.827 Q108.172 528.41 105.719 527.553 L105.719 523.039 Q107.663 524.174 109.978 524.752 Q112.293 525.331 114.816 525.331 Q119.214 525.331 121.506 523.595 Q123.82 521.859 123.82 518.549 Q123.82 515.493 121.668 513.78 Q119.538 512.044 115.719 512.044 L111.691 512.044 L111.691 508.202 L115.904 508.202 Q119.353 508.202 121.182 506.836 Q123.01 505.447 123.01 502.854 Q123.01 500.192 121.112 498.78 Q119.237 497.345 115.719 497.345 Q113.797 497.345 111.598 497.762 Q109.399 498.179 106.76 499.058 L106.76 494.892 Q109.422 494.151 111.737 493.78 Q114.075 493.41 116.135 493.41 Q121.459 493.41 124.561 495.841 Q127.663 498.248 127.663 502.368 Q127.663 505.239 126.019 507.229 Q124.376 509.197 121.344 509.961 Z" fill="#9eb1be" fill-rule="nonzero" fill-opacity="1" /><path clip-path="url(#clip370)" d="M147.339 497.114 Q143.728 497.114 141.899 500.679 Q140.093 504.22 140.093 511.35 Q140.093 518.456 141.899 522.021 Q143.728 525.563 147.339 525.563 Q150.973 525.563 152.779 522.021 Q154.607 518.456 154.607 511.35 Q154.607 504.22 152.779 500.679 Q150.973 497.114 147.339 497.114 M147.339 493.41 Q153.149 493.41 156.205 498.016 Q159.283 502.6 159.283 511.35 Q159.283 520.077 156.205 524.683 Q153.149 529.266 147.339 529.266 Q141.529 529.266 138.45 524.683 Q135.394 520.077 135.394 511.35 Q135.394 502.6 138.45 498.016 Q141.529 493.41 147.339 493.41 Z" fill="#9eb1be" fill-rule="nonzero" fill-opacity="1" /><path clip-path="url(#clip370)" d="M177.501 497.114 Q173.89 497.114 172.061 500.679 Q170.255 504.22 170.255 511.35 Q170.255 518.456 172.061 522.021 Q173.89 525.563 177.501 525.563 Q181.135 525.563 182.94 522.021 Q184.769 518.456 184.769 511.35 Q184.769 504.22 182.94 500.679 Q181.135 497.114 177.501 497.114 M177.501 493.41 Q183.311 493.41 186.366 498.016 Q189.445 502.6 189.445 511.35 Q189.445 520.077 186.366 524.683 Q183.311 529.266 177.501 529.266 Q171.691 529.266 168.612 524.683 Q165.556 520.077 165.556 511.35 Q165.556 502.6 168.612 498.016 Q171.691 493.41 177.501 493.41 Z" fill="#9eb1be" fill-rule="nonzero" fill-opacity="1" /><path clip-path="url(#clip370)" d="M47.6634 212.796 L55.3023 212.796 L55.3023 186.43 L46.9921 188.097 L46.9921 183.837 L55.256 182.171 L59.9319 182.171 L59.9319 212.796 L67.5707 212.796 L67.5707 216.731 L47.6634 216.731 L47.6634 212.796 Z" fill="#9eb1be" fill-rule="nonzero" fill-opacity="1" /><path clip-path="url(#clip370)" d="M87.0151 185.249 Q83.404 185.249 81.5753 188.814 Q79.7697 192.356 79.7697 199.486 Q79.7697 206.592 81.5753 210.157 Q83.404 213.698 87.0151 213.698 Q90.6493 213.698 92.4548 210.157 Q94.2835 206.592 94.2835 199.486 Q94.2835 192.356 92.4548 188.814 Q90.6493 185.249 87.0151 185.249 M87.0151 181.546 Q92.8252 181.546 95.8808 186.152 Q98.9594 190.736 98.9594 199.486 Q98.9594 208.212 95.8808 212.819 Q92.8252 217.402 87.0151 217.402 Q81.2049 217.402 78.1262 212.819 Q75.0707 208.212 75.0707 199.486 Q75.0707 190.736 78.1262 186.152 Q81.2049 181.546 87.0151 181.546 Z" fill="#9eb1be" fill-rule="nonzero" fill-opacity="1" /><path clip-path="url(#clip370)" d="M120.024 186.245 L108.219 204.694 L120.024 204.694 L120.024 186.245 M118.797 182.171 L124.677 182.171 L124.677 204.694 L129.607 204.694 L129.607 208.583 L124.677 208.583 L124.677 216.731 L120.024 216.731 L120.024 208.583 L104.422 208.583 L104.422 204.069 L118.797 182.171 Z" fill="#9eb1be" fill-rule="nonzero" fill-opacity="1" /><path clip-path="url(#clip370)" d="M147.339 185.249 Q143.728 185.249 141.899 188.814 Q140.093 192.356 140.093 199.486 Q140.093 206.592 141.899 210.157 Q143.728 213.698 147.339 213.698 Q150.973 213.698 152.779 210.157 Q154.607 206.592 154.607 199.486 Q154.607 192.356 152.779 188.814 Q150.973 185.249 147.339 185.249 M147.339 181.546 Q153.149 181.546 156.205 186.152 Q159.283 190.736 159.283 199.486 Q159.283 208.212 156.205 212.819 Q153.149 217.402 147.339 217.402 Q141.529 217.402 138.45 212.819 Q135.394 208.212 135.394 199.486 Q135.394 190.736 138.45 186.152 Q141.529 181.546 147.339 181.546 Z" fill="#9eb1be" fill-rule="nonzero" fill-opacity="1" /><path clip-path="url(#clip370)" d="M177.501 185.249 Q173.89 185.249 172.061 188.814 Q170.255 192.356 170.255 199.486 Q170.255 206.592 172.061 210.157 Q173.89 213.698 177.501 213.698 Q181.135 213.698 182.94 210.157 Q184.769 206.592 184.769 199.486 Q184.769 192.356 182.94 188.814 Q181.135 185.249 177.501 185.249 M177.501 181.546 Q183.311 181.546 186.366 186.152 Q189.445 190.736 189.445 199.486 Q189.445 208.212 186.366 212.819 Q183.311 217.402 177.501 217.402 Q171.691 217.402 168.612 212.819 Q165.556 208.212 165.556 199.486 Q165.556 190.736 168.612 186.152 Q171.691 181.546 177.501 181.546 Z" fill="#9eb1be" fill-rule="nonzero" fill-opacity="1" /><path clip-path="url(#clip370)" d="M257.237 14.3981 L249.308 35.8968 L265.194 35.8968 L257.237 14.3981 M253.938 8.64 L260.564 8.64 L277.028 51.84 L270.952 51.84 L267.017 40.7579 L247.543 40.7579 L243.608 51.84 L237.445 51.84 L253.938 8.64 Z" fill="#adb2b7" fill-rule="nonzero" fill-opacity="1" /><path clip-path="url(#clip370)" d="M305.385 20.677 L305.385 25.6538 Q303.128 24.4096 300.842 23.802 Q298.585 23.1654 296.27 23.1654 Q291.091 23.1654 288.226 26.464 Q285.361 29.7336 285.361 35.6653 Q285.361 41.597 288.226 44.8956 Q291.091 48.1653 296.27 48.1653 Q298.585 48.1653 300.842 47.5576 Q303.128 46.921 305.385 45.6768 L305.385 50.5958 Q303.157 51.6375 300.755 52.1583 Q298.382 52.6791 295.691 52.6791 Q288.371 52.6791 284.059 48.0784 Q279.748 43.4778 279.748 35.6653 Q279.748 27.7371 284.088 23.1943 Q288.458 18.6515 296.039 18.6515 Q298.498 18.6515 300.842 19.1724 Q303.185 19.6642 305.385 20.677 Z" fill="#adb2b7" fill-rule="nonzero" fill-opacity="1" /><path clip-path="url(#clip370)" d="M337.965 20.677 L337.965 25.6538 Q335.708 24.4096 333.423 23.802 Q331.166 23.1654 328.851 23.1654 Q323.671 23.1654 320.807 26.464 Q317.942 29.7336 317.942 35.6653 Q317.942 41.597 320.807 44.8956 Q323.671 48.1653 328.851 48.1653 Q331.166 48.1653 333.423 47.5576 Q335.708 46.921 337.965 45.6768 L337.965 50.5958 Q335.737 51.6375 333.336 52.1583 Q330.963 52.6791 328.272 52.6791 Q320.952 52.6791 316.64 48.0784 Q312.329 43.4778 312.329 35.6653 Q312.329 27.7371 316.669 23.1943 Q321.038 18.6515 328.619 18.6515 Q331.079 18.6515 333.423 19.1724 Q335.766 19.6642 337.965 20.677 Z" fill="#adb2b7" fill-rule="nonzero" fill-opacity="1" /><path clip-path="url(#clip370)" d="M359.782 23.1654 Q355.5 23.1654 353.012 26.5218 Q350.523 29.8494 350.523 35.6653 Q350.523 41.4813 352.983 44.8377 Q355.471 48.1653 359.782 48.1653 Q364.036 48.1653 366.524 44.8088 Q369.013 41.4523 369.013 35.6653 Q369.013 29.9072 366.524 26.5508 Q364.036 23.1654 359.782 23.1654 M359.782 18.6515 Q366.727 18.6515 370.691 23.1654 Q374.655 27.6792 374.655 35.6653 Q374.655 43.6225 370.691 48.1653 Q366.727 52.6791 359.782 52.6791 Q352.809 52.6791 348.845 48.1653 Q344.91 43.6225 344.91 35.6653 Q344.91 27.6792 348.845 23.1654 Q352.809 18.6515 359.782 18.6515 Z" fill="#adb2b7" fill-rule="nonzero" fill-opacity="1" /><path clip-path="url(#clip370)" d="M382.93 39.0507 L382.93 19.4328 L388.254 19.4328 L388.254 38.8482 Q388.254 43.4488 390.048 45.7636 Q391.842 48.0495 395.43 48.0495 Q399.742 48.0495 402.23 45.3007 Q404.747 42.5519 404.747 37.8065 L404.747 19.4328 L410.071 19.4328 L410.071 51.84 L404.747 51.84 L404.747 46.8632 Q402.809 49.8145 400.234 51.2613 Q397.687 52.6791 394.302 52.6791 Q388.717 52.6791 385.824 49.2069 Q382.93 45.7347 382.93 39.0507 M396.327 18.6515 L396.327 18.6515 Z" fill="#adb2b7" fill-rule="nonzero" fill-opacity="1" /><path clip-path="url(#clip370)" d="M447.976 32.2799 L447.976 51.84 L442.652 51.84 L442.652 32.4535 Q442.652 27.8529 440.858 25.567 Q439.064 23.2811 435.476 23.2811 Q431.165 23.2811 428.677 26.03 Q426.188 28.7788 426.188 33.5241 L426.188 51.84 L420.835 51.84 L420.835 19.4328 L426.188 19.4328 L426.188 24.4675 Q428.098 21.545 430.673 20.0983 Q433.277 18.6515 436.663 18.6515 Q442.247 18.6515 445.112 22.1237 Q447.976 25.567 447.976 32.2799 Z" fill="#adb2b7" fill-rule="nonzero" fill-opacity="1" /><path clip-path="url(#clip370)" d="M463.862 10.2314 L463.862 19.4328 L474.828 19.4328 L474.828 23.5705 L463.862 23.5705 L463.862 41.163 Q463.862 45.1271 464.932 46.2555 Q466.032 47.384 469.359 47.384 L474.828 47.384 L474.828 51.84 L469.359 51.84 Q463.196 51.84 460.852 49.5541 Q458.509 47.2393 458.509 41.163 L458.509 23.5705 L454.602 23.5705 L454.602 19.4328 L458.509 19.4328 L458.509 10.2314 L463.862 10.2314 Z" fill="#adb2b7" fill-rule="nonzero" fill-opacity="1" /><polyline clip-path="url(#clip371)" style="stroke:#bbbb00; stroke-linecap:round; stroke-linejoin:round; stroke-width:4; stroke-opacity:1; fill:none" points="237.445,1446.91 238.903,1446.91 240.362,1446.91 241.82,1446.91 241.82,1449.25 243.279,1449.25 243.279,1447.1 244.737,1447.1 244.737,1445.75 246.195,1445.75 246.195,1447.53 247.654,1447.53 247.654,1450.73 249.112,1450.73 249.112,1455.44 250.571,1455.44 250.571,1455.11 252.029,1455.11 252.029,1456.8 253.487,1456.8 253.487,1454.61 254.946,1454.61 254.946,1453.36 256.404,1453.36 256.404,1454.05 257.862,1454.05 257.862,1452.6 259.321,1452.6 259.321,1448.99 260.779,1448.99 260.779,1448.97 262.238,1448.97 262.238,1451.71 263.696,1451.71 263.696,1452.2 265.154,1452.2 265.154,1452.2 266.613,1452.2 266.613,1455.2 268.071,1455.2 268.071,1458.38 269.53,1458.38 269.53,1455.11 270.988,1455.11 270.988,1449.57 272.446,1449.57 272.446,1445.8 273.905,1445.8 273.905,1444.05 275.363,1444.05 275.363,1441.71 276.821,1441.71 276.821,1440.81 278.28,1440.81 278.28,1438 279.738,1438 279.738,1436.21 281.197,1436.21 281.197,1435.58 282.655,1435.58 282.655,1432.72 284.113,1432.72 284.113,1428 285.572,1428 285.572,1425.89 287.03,1425.89 287.03,1426.56 288.489,1426.56 288.489,1427.35 289.947,1427.35 289.947,1425.64 291.405,1425.64 291.405,1425.57 292.864,1425.57 292.864,1427.16 294.322,1427.16 294.322,1428.98 295.78,1428.98 295.78,1428.18 297.239,1428.18 297.239,1427.19 298.697,1427.19 298.697,1422.18 300.156,1422.18 300.156,1422.33 301.614,1422.33 301.614,1422.5 303.072,1422.5 303.072,1424.17 304.531,1424.17 304.531,1426.05 305.989,1426.05 305.989,1426.26 307.448,1426.26 307.448,1428.36 308.906,1428.36 308.906,1431.74 310.364,1431.74 310.364,1432.95 311.823,1432.95 311.823,1431.23 313.281,1431.23 313.281,1432.12 314.739,1432.12 314.739,1429.56 316.198,1429.56 316.198,1428.55 317.656,1428.55 317.656,1427.43 319.115,1427.43 319.115,1431.25 320.573,1431.25 320.573,1433.14 322.031,1433.14 322.031,1429.84 323.49,1429.84 323.49,1429.55 324.948,1429.55 324.948,1426.45 326.407,1426.45 326.407,1423.17 327.865,1423.17 327.865,1423.96 329.323,1423.96 329.323,1427.89 330.782,1427.89 330.782,1425.41 332.24,1425.41 332.24,1427.93 333.698,1427.93 333.698,1426.42 335.157,1426.42 335.157,1431.16 336.615,1431.16 336.615,1432.08 338.074,1432.08 338.074,1433.12 339.532,1433.12 339.532,1435.34 340.99,1435.34 340.99,1432.3 342.449,1432.3 342.449,1429.89 343.907,1429.89 343.907,1429.74 345.366,1429.74 345.366,1431.59 346.824,1431.59 346.824,1429.21 348.282,1429.21 348.282,1432.71 349.741,1432.71 349.741,1433.54 351.199,1433.54 351.199,1433.2 352.657,1433.2 352.657,1434.82 354.116,1434.82 354.116,1433.71 355.574,1433.71 355.574,1436.76 357.033,1436.76 357.033,1439.42 358.491,1439.42 358.491,1439.48 359.949,1439.48 359.949,1441.08 361.408,1441.08 361.408,1441.8 362.866,1441.8 362.866,1445.61 364.325,1445.61 364.325,1444.07 365.783,1444.07 365.783,1444.75 367.241,1444.75 367.241,1445.1 368.7,1445.1 368.7,1442.48 370.158,1442.48 370.158,1442.25 371.616,1442.25 371.616,1445.53 373.075,1445.53 373.075,1444.68 374.533,1444.68 374.533,1446.92 375.992,1446.92 375.992,1444.27 377.45,1444.27 377.45,1442.34 378.908,1442.34 378.908,1440.11 380.367,1440.11 380.367,1441.36 381.825,1441.36 381.825,1441.11 383.284,1441.11 383.284,1432.65 384.742,1432.65 384.742,1437.01 386.2,1437.01 386.2,1437.22 387.659,1437.22 387.659,1444.36 389.117,1444.36 389.117,1444.18 390.575,1444.18 390.575,1442.71 392.034,1442.71 392.034,1435.09 393.492,1435.09 393.492,1433.34 394.951,1433.34 394.951,1424.78 396.409,1424.78 396.409,1428.42 397.867,1428.42 397.867,1429.96 399.326,1429.96 399.326,1430.77 400.784,1430.77 400.784,1434.21 402.243,1434.21 402.243,1429.27 403.701,1429.27 403.701,1422.98 405.159,1422.98 405.159,1419.66 406.618,1419.66 406.618,1420.79 408.076,1420.79 408.076,1429.04 409.534,1429.04 409.534,1437.02 410.993,1437.02 410.993,1437.97 412.451,1437.97 412.451,1435.05 413.91,1435.05 413.91,1433.1 415.368,1433.1 415.368,1433.74 416.826,1433.74 416.826,1437.93 418.285,1437.93 418.285,1436.54 419.743,1436.54 419.743,1435.43 421.202,1435.43 421.202,1434.4 422.66,1434.4 422.66,1434.61 424.118,1434.61 424.118,1432.06 425.577,1432.06 425.577,1433 427.035,1433 427.035,1428.71 428.493,1428.71 428.493,1426.92 429.952,1426.92 429.952,1429.66 431.41,1429.66 431.41,1436.37 432.869,1436.37 432.869,1439.87 434.327,1439.87 434.327,1436.82 435.785,1436.82 435.785,1441.51 437.244,1441.51 437.244,1434.3 438.702,1434.3 438.702,1437.87 440.161,1437.87 440.161,1439.32 441.619,1439.32 441.619,1438.41 443.077,1438.41 443.077,1439.47 444.536,1439.47 444.536,1431.89 445.994,1431.89 445.994,1429.17 447.452,1429.17 447.452,1427.07 448.911,1427.07 448.911,1421.55 450.369,1421.55 450.369,1417.71 451.828,1417.71 451.828,1419.14 453.286,1419.14 453.286,1423.52 454.744,1423.52 454.744,1427.94 456.203,1427.94 456.203,1426.74 457.661,1426.74 457.661,1428.57 459.12,1428.57 459.12,1426.97 460.578,1426.97 460.578,1431.62 462.036,1431.62 462.036,1433.04 463.495,1433.04 463.495,1439.15 464.953,1439.15 464.953,1443.09 466.411,1443.09 466.411,1440.3 467.87,1440.3 467.87,1434.01 469.328,1434.01 469.328,1441.16 470.787,1441.16 470.787,1436.65 472.245,1436.65 472.245,1432.19 473.703,1432.19 473.703,1438.15 475.162,1438.15 475.162,1427.46 476.62,1427.46 476.62,1433.07 478.079,1433.07 478.079,1428.19 479.537,1428.19 479.537,1421.09 480.995,1421.09 480.995,1422.67 482.454,1422.67 482.454,1429.47 483.912,1429.47 483.912,1411.98 485.37,1411.98 485.37,1412.43 486.829,1412.43 486.829,1405.45 488.287,1405.45 488.287,1407.43 489.746,1407.43 489.746,1407.58 491.204,1407.58 491.204,1403.09 492.662,1403.09 492.662,1397.45 494.121,1397.45 494.121,1416.03 495.579,1416.03 495.579,1418.82 497.038,1418.82 497.038,1409.5 498.496,1409.5 498.496,1392.58 499.954,1392.58 499.954,1389.89 501.413,1389.89 501.413,1382.44 502.871,1382.44 502.871,1380.42 504.329,1380.42 504.329,1370.96 505.788,1370.96 505.788,1367.66 507.246,1367.66 507.246,1363.13 508.705,1363.13 508.705,1359.83 510.163,1359.83 510.163,1366.03 511.621,1366.03 511.621,1360.15 513.08,1360.15 513.08,1357.45 514.538,1357.45 514.538,1371.18 515.997,1371.18 515.997,1366.5 517.455,1366.5 517.455,1360.76 518.913,1360.76 518.913,1367.88 520.372,1367.88 520.372,1372.84 521.83,1372.84 521.83,1377.81 523.288,1377.81 523.288,1364.48 524.747,1364.48 524.747,1369.7 526.205,1369.7 526.205,1379.73 527.664,1379.73 527.664,1380.4 529.122,1380.4 529.122,1383.92 530.58,1383.92 530.58,1382.72 532.039,1382.72 532.039,1394.54 533.497,1394.54 533.497,1395.01 534.956,1395.01 534.956,1406.56 536.414,1406.56 536.414,1412.73 537.872,1412.73 537.872,1403.83 539.331,1403.83 539.331,1396.67 540.789,1396.67 540.789,1392.74 542.247,1392.74 542.247,1390.26 543.706,1390.26 543.706,1384.67 545.164,1384.67 545.164,1378.41 546.623,1378.41 546.623,1376.75 548.081,1376.75 548.081,1371.44 549.539,1371.44 549.539,1369.88 550.998,1369.88 550.998,1361.54 552.456,1361.54 552.456,1369.48 553.915,1369.48 553.915,1369.85 555.373,1369.85 555.373,1376.23 556.831,1376.23 556.831,1375.39 558.29,1375.39 558.29,1375.46 559.748,1375.46 559.748,1376.17 561.206,1376.17 561.206,1382.03 562.665,1382.03 562.665,1380.43 564.123,1380.43 564.123,1383.01 565.582,1383.01 565.582,1389.79 567.04,1389.79 567.04,1384.86 568.498,1384.86 568.498,1381.5 569.957,1381.5 569.957,1375.73 571.415,1375.73 571.415,1374.77 572.874,1374.77 572.874,1370.47 574.332,1370.47 574.332,1370.65 575.79,1370.65 575.79,1370.12 577.249,1370.12 577.249,1370.96 578.707,1370.96 578.707,1379.82 580.165,1379.82 580.165,1384.02 581.624,1384.02 581.624,1387.76 583.082,1387.76 583.082,1379.71 584.541,1379.71 584.541,1379.11 585.999,1379.11 585.999,1384.83 587.457,1384.83 587.457,1384.89 588.916,1384.89 588.916,1386.54 590.374,1386.54 590.374,1384.02 591.833,1384.02 591.833,1380.9 593.291,1380.9 593.291,1386.81 594.749,1386.81 594.749,1395.47 596.208,1395.47 596.208,1399.9 597.666,1399.9 597.666,1397.78 599.124,1397.78 599.124,1402.89 600.583,1402.89 600.583,1408.73 602.041,1408.73 602.041,1412.03 603.5,1412.03 603.5,1412.11 604.958,1412.11 604.958,1412.85 606.416,1412.85 606.416,1412.56 607.875,1412.56 607.875,1415.68 609.333,1415.68 609.333,1415.72 610.792,1415.72 610.792,1414.96 612.25,1414.96 612.25,1405.49 613.708,1405.49 613.708,1406.27 615.167,1406.27 615.167,1409.65 616.625,1409.65 616.625,1403.26 618.083,1403.26 618.083,1405.82 619.542,1405.82 619.542,1407.4 621,1407.4 621,1408.93 622.459,1408.93 622.459,1408.05 623.917,1408.05 623.917,1410.51 625.375,1410.51 625.375,1410.74 626.834,1410.74 626.834,1423.61 628.292,1423.61 628.292,1422.3 629.751,1422.3 629.751,1429.69 631.209,1429.69 631.209,1429.7 632.667,1429.7 632.667,1420.95 634.126,1420.95 634.126,1416.39 635.584,1416.39 635.584,1416.24 637.042,1416.24 637.042,1418.97 638.501,1418.97 638.501,1412.17 639.959,1412.17 639.959,1411.16 641.418,1411.16 641.418,1416.04 642.876,1416.04 642.876,1415.95 644.334,1415.95 644.334,1416.44 645.793,1416.44 645.793,1418.19 647.251,1418.19 647.251,1421.74 648.71,1421.74 648.71,1421.28 650.168,1421.28 650.168,1429.26 651.626,1429.26 651.626,1436.18 653.085,1436.18 653.085,1441.48 654.543,1441.48 654.543,1440.18 656.001,1440.18 656.001,1438.07 657.46,1438.07 657.46,1433.11 658.918,1433.11 658.918,1430.18 660.377,1430.18 660.377,1430.66 661.835,1430.66 661.835,1433.35 663.293,1433.35 663.293,1427.48 664.752,1427.48 664.752,1427.45 666.21,1427.45 666.21,1424.6 667.669,1424.6 667.669,1420 669.127,1420 669.127,1417.21 670.585,1417.21 670.585,1427.46 672.044,1427.46 672.044,1419.74 673.502,1419.74 673.502,1419.23 674.96,1419.23 674.96,1416.9 676.419,1416.9 676.419,1415.71 677.877,1415.71 677.877,1410.94 679.336,1410.94 679.336,1413.06 680.794,1413.06 680.794,1410.24 682.252,1410.24 682.252,1404.62 683.711,1404.62 683.711,1404.82 685.169,1404.82 685.169,1416.97 686.628,1416.97 686.628,1418.55 688.086,1418.55 688.086,1411.07 689.544,1411.07 689.544,1414.74 691.003,1414.74 691.003,1410.48 692.461,1410.48 692.461,1407.58 693.919,1407.58 693.919,1408.57 695.378,1408.57 695.378,1411.93 696.836,1411.93 696.836,1409.3 698.295,1409.3 698.295,1415.41 699.753,1415.41 699.753,1421.13 701.211,1421.13 701.211,1424.19 702.67,1424.19 702.67,1430.13 704.128,1430.13 704.128,1429.22 705.587,1429.22 705.587,1422.51 707.045,1422.51 707.045,1426.39 708.503,1426.39 708.503,1423.57 709.962,1423.57 709.962,1417.51 711.42,1417.51 711.42,1421.01 712.878,1421.01 712.878,1418.91 714.337,1418.91 714.337,1419.77 715.795,1419.77 715.795,1414.07 717.254,1414.07 717.254,1411.61 718.712,1411.61 718.712,1412.12 720.17,1412.12 720.17,1408.83 721.629,1408.83 721.629,1405.84 723.087,1405.84 723.087,1409.24 724.546,1409.24 724.546,1407.08 726.004,1407.08 726.004,1396.15 727.462,1396.15 727.462,1391.74 728.921,1391.74 728.921,1390.97 730.379,1390.97 730.379,1399.57 731.837,1399.57 731.837,1392.62 733.296,1392.62 733.296,1393.38 734.754,1393.38 734.754,1392.73 736.213,1392.73 736.213,1390.86 737.671,1390.86 737.671,1384.55 739.129,1384.55 739.129,1382.91 740.588,1382.91 740.588,1393.6 742.046,1393.6 742.046,1409.28 743.505,1409.28 743.505,1419.81 744.963,1419.81 744.963,1434.56 746.421,1434.56 746.421,1441.92 747.88,1441.92 747.88,1431.08 749.338,1431.08 749.338,1440.83 750.796,1440.83 750.796,1440.89 752.255,1440.89 752.255,1453.78 753.713,1453.78 753.713,1453.76 755.172,1453.76 755.172,1467.19 756.63,1467.19 756.63,1456.79 758.088,1456.79 758.088,1467.08 759.547,1467.08 759.547,1476.35 761.005,1476.35 761.005,1475.65 762.464,1475.65 762.464,1475.24 763.922,1475.24 763.922,1482 765.38,1482 765.38,1478.69 766.839,1478.69 766.839,1471.29 768.297,1471.29 768.297,1468.72 769.755,1468.72 769.755,1472.44 771.214,1472.44 771.214,1475.36 772.672,1475.36 772.672,1472.54 774.131,1472.54 774.131,1476.56 775.589,1476.56 775.589,1474.13 777.047,1474.13 777.047,1471.87 778.506,1471.87 778.506,1469.55 779.964,1469.55 779.964,1461.07 781.423,1461.07 781.423,1458.83 782.881,1458.83 782.881,1466.3 784.339,1466.3 784.339,1477.19 785.798,1477.19 785.798,1479.5 787.256,1479.5 787.256,1472.16 788.714,1472.16 788.714,1473.08 790.173,1473.08 790.173,1483.15 791.631,1483.15 791.631,1486.54 793.09,1486.54 793.09,1494.88 794.548,1494.88 794.548,1495.09 796.006,1495.09 796.006,1489.66 797.465,1489.66 797.465,1474.16 798.923,1474.16 798.923,1460.74 800.382,1460.74 800.382,1453.01 801.84,1453.01 801.84,1460.02 803.298,1460.02 803.298,1465.86 804.757,1465.86 804.757,1466.85 806.215,1466.85 806.215,1462.7 807.673,1462.7 807.673,1461.63 809.132,1461.63 809.132,1464.84 810.59,1464.84 810.59,1472.54 812.049,1472.54 812.049,1479.52 813.507,1479.52 813.507,1477.85 814.965,1477.85 814.965,1471.02 816.424,1471.02 816.424,1470.04 817.882,1470.04 817.882,1472.26 819.341,1472.26 819.341,1470.13 820.799,1470.13 820.799,1452.7 822.257,1452.7 822.257,1451.96 823.716,1451.96 823.716,1447.02 825.174,1447.02 825.174,1437.03 826.632,1437.03 826.632,1441.97 828.091,1441.97 828.091,1449.45 829.549,1449.45 829.549,1455.24 831.008,1455.24 831.008,1438.34 832.466,1438.34 832.466,1430.43 833.924,1430.43 833.924,1441.07 835.383,1441.07 835.383,1439.14 836.841,1439.14 836.841,1450.13 838.3,1450.13 838.3,1436.12 839.758,1436.12 839.758,1448.51 841.216,1448.51 841.216,1440.96 842.675,1440.96 842.675,1447.43 844.133,1447.43 844.133,1452.29 845.591,1452.29 845.591,1438.99 847.05,1438.99 847.05,1444.08 848.508,1444.08 848.508,1440.23 849.967,1440.23 849.967,1433.06 851.425,1433.06 851.425,1436.86 852.883,1436.86 852.883,1432.41 854.342,1432.41 854.342,1431.05 855.8,1431.05 855.8,1425.09 857.259,1425.09 857.259,1416.91 858.717,1416.91 858.717,1402.33 860.175,1402.33 860.175,1386.9 861.634,1386.9 861.634,1388.75 863.092,1388.75 863.092,1394.05 864.55,1394.05 864.55,1393.75 866.009,1393.75 866.009,1401.2 867.467,1401.2 867.467,1407.2 868.926,1407.2 868.926,1403.59 870.384,1403.59 870.384,1414.48 871.842,1414.48 871.842,1414.25 873.301,1414.25 873.301,1408.94 874.759,1408.94 874.759,1404.44 876.218,1404.44 876.218,1394.24 877.676,1394.24 877.676,1403.67 879.134,1403.67 879.134,1407.43 880.593,1407.43 880.593,1408.2 882.051,1408.2 882.051,1403.5 883.509,1403.5 883.509,1396.5 884.968,1396.5 884.968,1398.84 886.426,1398.84 886.426,1398.14 887.885,1398.14 887.885,1395.12 889.343,1395.12 889.343,1397.26 890.801,1397.26 890.801,1390.78 892.26,1390.78 892.26,1390.03 893.718,1390.03 893.718,1386.49 895.177,1386.49 895.177,1390.74 896.635,1390.74 896.635,1392.2 898.093,1392.2 898.093,1387.97 899.552,1387.97 899.552,1383.1 901.01,1383.1 901.01,1380.44 902.468,1380.44 902.468,1381.89 903.927,1381.89 903.927,1379.31 905.385,1379.31 905.385,1378.13 906.844,1378.13 906.844,1378.35 908.302,1378.35 908.302,1377.73 909.76,1377.73 909.76,1379.05 911.219,1379.05 911.219,1379.62 912.677,1379.62 912.677,1380.46 914.136,1380.46 914.136,1383.06 915.594,1383.06 915.594,1386.9 917.052,1386.9 917.052,1390.16 918.511,1390.16 918.511,1397.96 919.969,1397.96 919.969,1390.2 921.427,1390.2 921.427,1383.54 922.886,1383.54 922.886,1374.81 924.344,1374.81 924.344,1359.88 925.803,1359.88 925.803,1359.13 927.261,1359.13 927.261,1354.87 928.719,1354.87 928.719,1352.45 930.178,1352.45 930.178,1345.64 931.636,1345.64 931.636,1351.62 933.095,1351.62 933.095,1349.07 934.553,1349.07 934.553,1355.61 936.011,1355.61 936.011,1350.52 937.47,1350.52 937.47,1354.12 938.928,1354.12 938.928,1364.36 940.386,1364.36 940.386,1362.98 941.845,1362.98 941.845,1361.46 943.303,1361.46 943.303,1357.92 944.762,1357.92 944.762,1356.65 946.22,1356.65 946.22,1367.2 947.678,1367.2 947.678,1363.87 949.137,1363.87 949.137,1356.28 950.595,1356.28 950.595,1353.43 952.054,1353.43 952.054,1356.04 953.512,1356.04 953.512,1348.69 954.97,1348.69 954.97,1347.96 956.429,1347.96 956.429,1348.71 957.887,1348.71 957.887,1350.25 959.345,1350.25 959.345,1339.04 960.804,1339.04 960.804,1340.65 962.262,1340.65 962.262,1340.33 963.721,1340.33 963.721,1337.9 965.179,1337.9 965.179,1335.66 966.637,1335.66 966.637,1337.11 968.096,1337.11 968.096,1332.09 969.554,1332.09 969.554,1330.23 971.013,1330.23 971.013,1328.66 972.471,1328.66 972.471,1324.15 973.929,1324.15 973.929,1315.45 975.388,1315.45 975.388,1315.24 976.846,1315.24 976.846,1316.12 978.304,1316.12 978.304,1316.92 979.763,1316.92 979.763,1317.69 981.221,1317.69 981.221,1314.44 982.68,1314.44 982.68,1313.97 984.138,1313.97 984.138,1316.34 985.596,1316.34 985.596,1305.47 987.055,1305.47 987.055,1303.89 988.513,1303.89 988.513,1300.53 989.972,1300.53 989.972,1305.09 991.43,1305.09 991.43,1302.82 992.888,1302.82 992.888,1309.17 994.347,1309.17 994.347,1312.68 995.805,1312.68 995.805,1314.23 997.263,1314.23 997.263,1321.36 998.722,1321.36 998.722,1322.63 1000.18,1322.63 1000.18,1330.4 1001.64,1330.4 1001.64,1332.56 1003.1,1332.56 1003.1,1333.45 1004.56,1333.45 1004.56,1329.82 1006.01,1329.82 1006.01,1329.48 1007.47,1329.48 1007.47,1332.17 1008.93,1332.17 1008.93,1336.94 1010.39,1336.94 1010.39,1343.23 1011.85,1343.23 1011.85,1339.7 1013.31,1339.7 1013.31,1346.71 1014.76,1346.71 1014.76,1351.48 1016.22,1351.48 1016.22,1346.34 1017.68,1346.34 1017.68,1345.23 1019.14,1345.23 1019.14,1349.63 1020.6,1349.63 1020.6,1348.29 1022.06,1348.29 1022.06,1344.75 1023.51,1344.75 1023.51,1342 1024.97,1342 1024.97,1345.76 1026.43,1345.76 1026.43,1339.81 1027.89,1339.81 1027.89,1347.1 1029.35,1347.1 1029.35,1357.18 1030.81,1357.18 1030.81,1361.95 1032.26,1361.95 1032.26,1356.54 1033.72,1356.54 1033.72,1359.02 1035.18,1359.02 1035.18,1357.98 1036.64,1357.98 1036.64,1354.96 1038.1,1354.96 1038.1,1347.72 1039.56,1347.72 1039.56,1349.78 1041.01,1349.78 1041.01,1343.35 1042.47,1343.35 1042.47,1341.36 1043.93,1341.36 1043.93,1341.27 1045.39,1341.27 1045.39,1350.27 1046.85,1350.27 1046.85,1338.9 1048.31,1338.9 1048.31,1334.5 1049.77,1334.5 1049.77,1331.65 1051.22,1331.65 1051.22,1328.35 1052.68,1328.35 1052.68,1327.71 1054.14,1327.71 1054.14,1328.9 1055.6,1328.9 1055.6,1328.37 1057.06,1328.37 1057.06,1332.22 1058.52,1332.22 1058.52,1336.19 1059.97,1336.19 1059.97,1337.47 1061.43,1337.47 1061.43,1332.69 1062.89,1332.69 1062.89,1331.09 1064.35,1331.09 1064.35,1335.12 1065.81,1335.12 1065.81,1337.1 1067.27,1337.1 1067.27,1340.74 1068.72,1340.74 1068.72,1346.17 1070.18,1346.17 1070.18,1345.73 1071.64,1345.73 1071.64,1342.06 1073.1,1342.06 1073.1,1338.65 1074.56,1338.65 1074.56,1339.41 1076.02,1339.41 1076.02,1338.6 1077.47,1338.6 1077.47,1340.39 1078.93,1340.39 1078.93,1337 1080.39,1337 1080.39,1339.66 1081.85,1339.66 1081.85,1327.2 1083.31,1327.2 1083.31,1325.49 1084.77,1325.49 1084.77,1321.73 1086.22,1321.73 1086.22,1325.3 1087.68,1325.3 1087.68,1329.22 1089.14,1329.22 1089.14,1322.16 1090.6,1322.16 1090.6,1320.97 1092.06,1320.97 1092.06,1324.71 1093.52,1324.71 1093.52,1318.44 1094.98,1318.44 1094.98,1317.91 1096.43,1317.91 1096.43,1313.22 1097.89,1313.22 1097.89,1313.66 1099.35,1313.66 1099.35,1317.12 1100.81,1317.12 1100.81,1313.61 1102.27,1313.61 1102.27,1315.81 1103.73,1315.81 1103.73,1313.84 1105.18,1313.84 1105.18,1323.7 1106.64,1323.7 1106.64,1322.79 1108.1,1322.79 1108.1,1320.03 1109.56,1320.03 1109.56,1326.84 1111.02,1326.84 1111.02,1329.75 1112.48,1329.75 1112.48,1324.84 1113.93,1324.84 1113.93,1318.31 1115.39,1318.31 1115.39,1314.62 1116.85,1314.62 1116.85,1318.52 1118.31,1318.52 1118.31,1322.01 1119.77,1322.01 1119.77,1327.3 1121.23,1327.3 1121.23,1323.99 1122.68,1323.99 1122.68,1325.69 1124.14,1325.69 1124.14,1326.78 1125.6,1326.78 1125.6,1330.29 1127.06,1330.29 1127.06,1321.72 1128.52,1321.72 1128.52,1321.84 1129.98,1321.84 1129.98,1317.11 1131.43,1317.11 1131.43,1316.58 1132.89,1316.58 1132.89,1309.07 1134.35,1309.07 1134.35,1312.95 1135.81,1312.95 1135.81,1311.88 1137.27,1311.88 1137.27,1311.24 1138.73,1311.24 1138.73,1323.56 1140.19,1323.56 1140.19,1315.54 1141.64,1315.54 1141.64,1320.86 1143.1,1320.86 1143.1,1328.18 1144.56,1328.18 1144.56,1334.29 1146.02,1334.29 1146.02,1334.15 1147.48,1334.15 1147.48,1335.51 1148.94,1335.51 1148.94,1340.17 1150.39,1340.17 1150.39,1339.62 1151.85,1339.62 1151.85,1338.83 1153.31,1338.83 1153.31,1339.15 1154.77,1339.15 1154.77,1342.83 1156.23,1342.83 1156.23,1347.33 1157.69,1347.33 1157.69,1339.18 1159.14,1339.18 1159.14,1347.92 1160.6,1347.92 1160.6,1354.32 1162.06,1354.32 1162.06,1350.6 1163.52,1350.6 1163.52,1346.23 1164.98,1346.23 1164.98,1341.36 1166.44,1341.36 1166.44,1342.94 1167.89,1342.94 1167.89,1349.12 1169.35,1349.12 1169.35,1346.42 1170.81,1346.42 1170.81,1347.47 1172.27,1347.47 1172.27,1356.92 1173.73,1356.92 1173.73,1354.02 1175.19,1354.02 1175.19,1350.05 1176.64,1350.05 1176.64,1351.18 1178.1,1351.18 1178.1,1349.97 1179.56,1349.97 1179.56,1338.71 1181.02,1338.71 1181.02,1337.12 1182.48,1337.12 1182.48,1333.64 1183.94,1333.64 1183.94,1334.69 1185.4,1334.69 1185.4,1330.7 1186.85,1330.7 1186.85,1328.68 1188.31,1328.68 1188.31,1323.81 1189.77,1323.81 1189.77,1320.55 1191.23,1320.55 1191.23,1318.03 1192.69,1318.03 1192.69,1316.46 1194.15,1316.46 1194.15,1317.11 1195.6,1317.11 1195.6,1316.24 1197.06,1316.24 1197.06,1324.19 1198.52,1324.19 1198.52,1321.83 1199.98,1321.83 1199.98,1332.61 1201.44,1332.61 1201.44,1336.31 1202.9,1336.31 1202.9,1328.39 1204.35,1328.39 1204.35,1331.47 1205.81,1331.47 1205.81,1336.55 1207.27,1336.55 1207.27,1336.41 1208.73,1336.41 1208.73,1332.1 1210.19,1332.1 1210.19,1335.98 1211.65,1335.98 1211.65,1336.09 1213.1,1336.09 1213.1,1335.86 1214.56,1335.86 1214.56,1334.59 1216.02,1334.59 1216.02,1330.3 1217.48,1330.3 1217.48,1332.93 1218.94,1332.93 1218.94,1340.32 1220.4,1340.32 1220.4,1348.06 1221.85,1348.06 1221.85,1348.89 1223.31,1348.89 1223.31,1344.2 1224.77,1344.2 1224.77,1347.41 1226.23,1347.41 1226.23,1356.26 1227.69,1356.26 1227.69,1355.33 1229.15,1355.33 1229.15,1365.58 1230.6,1365.58 1230.6,1364.6 1232.06,1364.6 1232.06,1366.32 1233.52,1366.32 1233.52,1366.87 1234.98,1366.87 1234.98,1374.97 1236.44,1374.97 1236.44,1373.84 1237.9,1373.84 1237.9,1376.16 1239.36,1376.16 1239.36,1375.27 1240.81,1375.27 1240.81,1382.42 1242.27,1382.42 1242.27,1378.5 1243.73,1378.5 1243.73,1377.41 1245.19,1377.41 1245.19,1382.31 1246.65,1382.31 1246.65,1378.97 1248.11,1378.97 1248.11,1384.14 1249.56,1384.14 1249.56,1389.87 1251.02,1389.87 1251.02,1389.22 1252.48,1389.22 1252.48,1386.04 1253.94,1386.04 1253.94,1388.6 1255.4,1388.6 1255.4,1386.82 1256.86,1386.82 1256.86,1379.71 1258.31,1379.71 1258.31,1369.32 1259.77,1369.32 1259.77,1370.37 1261.23,1370.37 1261.23,1381.33 1262.69,1381.33 1262.69,1375.43 1264.15,1375.43 1264.15,1374.96 1265.61,1374.96 1265.61,1371.85 1267.06,1371.85 1267.06,1368.02 1268.52,1368.02 1268.52,1368.08 1269.98,1368.08 1269.98,1366.78 1271.44,1366.78 1271.44,1359.76 1272.9,1359.76 1272.9,1355.26 1274.36,1355.26 1274.36,1355.87 1275.81,1355.87 1275.81,1356.45 1277.27,1356.45 1277.27,1356.18 1278.73,1356.18 1278.73,1358.37 1280.19,1358.37 1280.19,1352.9 1281.65,1352.9 1281.65,1363.78 1283.11,1363.78 1283.11,1362.19 1284.57,1362.19 1284.57,1357.95 1286.02,1357.95 1286.02,1355.08 1287.48,1355.08 1287.48,1357.63 1288.94,1357.63 1288.94,1357.33 1290.4,1357.33 1290.4,1357.05 1291.86,1357.05 1291.86,1358.29 1293.32,1358.29 1293.32,1366.03 1294.77,1366.03 1294.77,1363.78 1296.23,1363.78 1296.23,1366.79 1297.69,1366.79 1297.69,1373.05 1299.15,1373.05 1299.15,1377.03 1300.61,1377.03 1300.61,1377.57 1302.07,1377.57 1302.07,1362.1 1303.52,1362.1 1303.52,1359.3 1304.98,1359.3 1304.98,1356.59 1306.44,1356.59 1306.44,1345.8 1307.9,1345.8 1307.9,1341.63 1309.36,1341.63 1309.36,1336.83 1310.82,1336.83 1310.82,1339.86 1312.27,1339.86 1312.27,1335.28 1313.73,1335.28 1313.73,1337.57 1315.19,1337.57 1315.19,1337.78 1316.65,1337.78 1316.65,1334.51 1318.11,1334.51 1318.11,1334.92 1319.57,1334.92 1319.57,1339.18 1321.02,1339.18 1321.02,1341.15 1322.48,1341.15 1322.48,1329.75 1323.94,1329.75 1323.94,1340.93 1325.4,1340.93 1325.4,1341.36 1326.86,1341.36 1326.86,1340.75 1328.32,1340.75 1328.32,1344.98 1329.78,1344.98 1329.78,1352.77 1331.23,1352.77 1331.23,1353.7 1332.69,1353.7 1332.69,1351.41 1334.15,1351.41 1334.15,1343.85 1335.61,1343.85 1335.61,1328.04 1337.07,1328.04 1337.07,1335.55 1338.53,1335.55 1338.53,1330.25 1339.98,1330.25 1339.98,1327.91 1341.44,1327.91 1341.44,1332.47 1342.9,1332.47 1342.9,1340.93 1344.36,1340.93 1344.36,1340.56 1345.82,1340.56 1345.82,1338.85 1347.28,1338.85 1347.28,1348.99 1348.73,1348.99 1348.73,1352.93 1350.19,1352.93 1350.19,1353.71 1351.65,1353.71 1351.65,1371.58 1353.11,1371.58 1353.11,1372.35 1354.57,1372.35 1354.57,1363.25 1356.03,1363.25 1356.03,1368.8 1357.48,1368.8 1357.48,1377.1 1358.94,1377.1 1358.94,1377.19 1360.4,1377.19 1360.4,1376.81 1361.86,1376.81 1361.86,1367.91 1363.32,1367.91 1363.32,1365.01 1364.78,1365.01 1364.78,1362.25 1366.23,1362.25 1366.23,1354.63 1367.69,1354.63 1367.69,1350.95 1369.15,1350.95 1369.15,1354.08 1370.61,1354.08 1370.61,1344.24 1372.07,1344.24 1372.07,1351.25 1373.53,1351.25 1373.53,1340.94 1374.99,1340.94 1374.99,1332.46 1376.44,1332.46 1376.44,1331.83 1377.9,1331.83 1377.9,1318.54 1379.36,1318.54 1379.36,1317.76 1380.82,1317.76 1380.82,1310.92 1382.28,1310.92 1382.28,1316.45 1383.74,1316.45 1383.74,1302.51 1385.19,1302.51 1385.19,1303.81 1386.65,1303.81 1386.65,1310.25 1388.11,1310.25 1388.11,1298.05 1389.57,1298.05 1389.57,1292.59 1391.03,1292.59 1391.03,1297.23 1392.49,1297.23 1392.49,1293.41 1393.94,1293.41 1393.94,1286.64 1395.4,1286.64 1395.4,1302.64 1396.86,1302.64 1396.86,1296.4 1398.32,1296.4 1398.32,1300.68 1399.78,1300.68 1399.78,1301.61 1401.24,1301.61 1401.24,1313.84 1402.69,1313.84 1402.69,1298.33 1404.15,1298.33 1404.15,1307.09 1405.61,1307.09 1405.61,1304.68 1407.07,1304.68 1407.07,1293.97 1408.53,1293.97 1408.53,1298.53 1409.99,1298.53 1409.99,1302.49 1411.44,1302.49 1411.44,1305.69 1412.9,1305.69 1412.9,1302.63 1414.36,1302.63 1414.36,1325.6 1415.82,1325.6 1415.82,1324.42 1417.28,1324.42 1417.28,1309.6 1418.74,1309.6 1418.74,1317.73 1420.19,1317.73 1420.19,1288.74 1421.65,1288.74 1421.65,1297.98 1423.11,1297.98 1423.11,1289.33 1424.57,1289.33 1424.57,1298.3 1426.03,1298.3 1426.03,1290.87 1427.49,1290.87 1427.49,1275.55 1428.95,1275.55 1428.95,1276.74 1430.4,1276.74 1430.4,1287.01 1431.86,1287.01 1431.86,1268 1433.32,1268 1433.32,1268.92 1434.78,1268.92 1434.78,1267.32 1436.24,1267.32 1436.24,1274.92 1437.7,1274.92 1437.7,1280.07 1439.15,1280.07 1439.15,1285.67 1440.61,1285.67 1440.61,1288.17 1442.07,1288.17 1442.07,1293.45 1443.53,1293.45 1443.53,1292.57 1444.99,1292.57 1444.99,1287.82 1446.45,1287.82 1446.45,1286.91 1447.9,1286.91 1447.9,1283.45 1449.36,1283.45 1449.36,1292.28 1450.82,1292.28 1450.82,1293.76 1452.28,1293.76 1452.28,1290.6 1453.74,1290.6 1453.74,1297.07 1455.2,1297.07 1455.2,1298.77 1456.65,1298.77 1456.65,1300.65 1458.11,1300.65 1458.11,1291.03 1459.57,1291.03 1459.57,1283.59 1461.03,1283.59 1461.03,1267.17 1462.49,1267.17 1462.49,1268.37 1463.95,1268.37 1463.95,1267.12 1465.4,1267.12 1465.4,1255.58 1466.86,1255.58 1466.86,1249.92 1468.32,1249.92 1468.32,1237.79 1469.78,1237.79 1469.78,1236.77 1471.24,1236.77 1471.24,1238.17 1472.7,1238.17 1472.7,1255.3 1474.16,1255.3 1474.16,1248.01 1475.61,1248.01 1475.61,1264.2 1477.07,1264.2 1477.07,1264.64 1478.53,1264.64 1478.53,1263.34 1479.99,1263.34 1479.99,1252.87 1481.45,1252.87 1481.45,1260.91 1482.91,1260.91 1482.91,1246.12 1484.36,1246.12 1484.36,1256.8 1485.82,1256.8 1485.82,1262.52 1487.28,1262.52 1487.28,1267.15 1488.74,1267.15 1488.74,1259.41 1490.2,1259.41 1490.2,1259.54 1491.66,1259.54 1491.66,1255.03 1493.11,1255.03 1493.11,1260.11 1494.57,1260.11 1494.57,1264.88 1496.03,1264.88 1496.03,1259.35 1497.49,1259.35 1497.49,1245.43 1498.95,1245.43 1498.95,1266.16 1500.41,1266.16 1500.41,1255.03 1501.86,1255.03 1501.86,1248.74 1503.32,1248.74 1503.32,1238.44 1504.78,1238.44 1504.78,1241.01 1506.24,1241.01 1506.24,1241.92 1507.7,1241.92 1507.7,1242.41 1509.16,1242.41 1509.16,1248.07 1510.61,1248.07 1510.61,1258.82 1512.07,1258.82 1512.07,1246.92 1513.53,1246.92 1513.53,1232.58 1514.99,1232.58 1514.99,1229.12 1516.45,1229.12 1516.45,1234.27 1517.91,1234.27 1517.91,1242.56 1519.37,1242.56 1519.37,1239.76 1520.82,1239.76 1520.82,1231.62 1522.28,1231.62 1522.28,1229.94 1523.74,1229.94 1523.74,1228.06 1525.2,1228.06 1525.2,1234.27 1526.66,1234.27 1526.66,1217.78 1528.12,1217.78 1528.12,1227.27 1529.57,1227.27 1529.57,1230.46 1531.03,1230.46 1531.03,1233.64 1532.49,1233.64 1532.49,1245.77 1533.95,1245.77 1533.95,1233.46 1535.41,1233.46 1535.41,1237.31 1536.87,1237.31 1536.87,1225 1538.32,1225 1538.32,1230.26 1539.78,1230.26 1539.78,1240.5 1541.24,1240.5 1541.24,1260.88 1542.7,1260.88 1542.7,1259.43 1544.16,1259.43 1544.16,1245.87 1545.62,1245.87 1545.62,1251.91 1547.07,1251.91 1547.07,1264.24 1548.53,1264.24 1548.53,1255.12 1549.99,1255.12 1549.99,1257.37 1551.45,1257.37 1551.45,1250.05 1552.91,1250.05 1552.91,1250.98 1554.37,1250.98 1554.37,1256.81 1555.82,1256.81 1555.82,1248 1557.28,1248 1557.28,1248.75 1558.74,1248.75 1558.74,1261.05 1560.2,1261.05 1560.2,1263.92 1561.66,1263.92 1561.66,1259.69 1563.12,1259.69 1563.12,1252.33 1564.58,1252.33 1564.58,1243.38 1566.03,1243.38 1566.03,1241.72 1567.49,1241.72 1567.49,1243.37 1568.95,1243.37 1568.95,1245.46 1570.41,1245.46 1570.41,1243.33 1571.87,1243.33 1571.87,1246.44 1573.33,1246.44 1573.33,1235.5 1574.78,1235.5 1574.78,1217.01 1576.24,1217.01 1576.24,1224.41 1577.7,1224.41 1577.7,1223.8 1579.16,1223.8 1579.16,1226.37 1580.62,1226.37 1580.62,1229.96 1582.08,1229.96 1582.08,1232.31 1583.53,1232.31 1583.53,1221.88 1584.99,1221.88 1584.99,1209.88 1586.45,1209.88 1586.45,1199.21 1587.91,1199.21 1587.91,1206.85 1589.37,1206.85 1589.37,1210.81 1590.83,1210.81 1590.83,1209.65 1592.28,1209.65 1592.28,1221.89 1593.74,1221.89 1593.74,1218.72 1595.2,1218.72 1595.2,1233.18 1596.66,1233.18 1596.66,1240.63 1598.12,1240.63 1598.12,1233.25 1599.58,1233.25 1599.58,1248.67 1601.03,1248.67 1601.03,1253.7 1602.49,1253.7 1602.49,1267.18 1603.95,1267.18 1603.95,1250 1605.41,1250 1605.41,1257.5 1606.87,1257.5 1606.87,1264.45 1608.33,1264.45 1608.33,1267.97 1609.78,1267.97 1609.78,1265.99 1611.24,1265.99 1611.24,1252.39 1612.7,1252.39 1612.7,1249.61 1614.16,1249.61 1614.16,1252.9 1615.62,1252.9 1615.62,1240.32 1617.08,1240.32 1617.08,1226.96 1618.54,1226.96 1618.54,1227.39 1619.99,1227.39 1619.99,1226.43 1621.45,1226.43 1621.45,1236.57 1622.91,1236.57 1622.91,1225.02 1624.37,1225.02 1624.37,1231.29 1625.83,1231.29 1625.83,1216.92 1627.29,1216.92 1627.29,1211.01 1628.74,1211.01 1628.74,1217.94 1630.2,1217.94 1630.2,1203.51 1631.66,1203.51 1631.66,1203.05 1633.12,1203.05 1633.12,1191.63 1634.58,1191.63 1634.58,1194.18 1636.04,1194.18 1636.04,1186.46 1637.49,1186.46 1637.49,1183.58 1638.95,1183.58 1638.95,1171.22 1640.41,1171.22 1640.41,1166.02 1641.87,1166.02 1641.87,1168.79 1643.33,1168.79 1643.33,1172.1 1644.79,1172.1 1644.79,1172.32 1646.24,1172.32 1646.24,1179.69 1647.7,1179.69 1647.7,1187.99 1649.16,1187.99 1649.16,1187.37 1650.62,1187.37 1650.62,1191.12 1652.08,1191.12 1652.08,1181.45 1653.54,1181.45 1653.54,1184.74 1654.99,1184.74 1654.99,1196.58 1656.45,1196.58 1656.45,1200.62 1657.91,1200.62 1657.91,1192.07 1659.37,1192.07 1659.37,1191.31 1660.83,1191.31 1660.83,1183.61 1662.29,1183.61 1662.29,1196.89 1663.75,1196.89 1663.75,1207.41 1665.2,1207.41 1665.2,1214.41 1666.66,1214.41 1666.66,1212.77 1668.12,1212.77 1668.12,1214.77 1669.58,1214.77 1669.58,1219.26 1671.04,1219.26 1671.04,1210.65 1672.5,1210.65 1672.5,1213.75 1673.95,1213.75 1673.95,1199.6 1675.41,1199.6 1675.41,1185.14 1676.87,1185.14 1676.87,1181.88 1678.33,1181.88 1678.33,1171.88 1679.79,1171.88 1679.79,1190.63 1681.25,1190.63 1681.25,1186.19 1682.7,1186.19 1682.7,1178.58 1684.16,1178.58 1684.16,1177.33 1685.62,1177.33 1685.62,1181.67 1687.08,1181.67 1687.08,1183.36 1688.54,1183.36 1688.54,1178.48 1690,1178.48 1690,1167.66 1691.45,1167.66 1691.45,1189.02 1692.91,1189.02 1692.91,1176.42 1694.37,1176.42 1694.37,1178.13 1695.83,1178.13 1695.83,1159.91 1697.29,1159.91 1697.29,1128.8 1698.75,1128.8 1698.75,1133.4 1700.2,1133.4 1700.2,1146.54 1701.66,1146.54 1701.66,1143.71 1703.12,1143.71 1703.12,1137.72 1704.58,1137.72 1704.58,1145.28 1706.04,1145.28 1706.04,1145.87 1707.5,1145.87 1707.5,1140.17 1708.96,1140.17 1708.96,1128.35 1710.41,1128.35 1710.41,1109.63 1711.87,1109.63 1711.87,1115.76 1713.33,1115.76 1713.33,1110.85 1714.79,1110.85 1714.79,1096.08 1716.25,1096.08 1716.25,1095.41 1717.71,1095.41 1717.71,1084.19 1719.16,1084.19 1719.16,1089.85 1720.62,1089.85 1720.62,1058.62 1722.08,1058.62 1722.08,1052.83 1723.54,1052.83 1723.54,1047.25 1725,1047.25 1725,1042.82 1726.46,1042.82 1726.46,1030.41 1727.91,1030.41 1727.91,1037.99 1729.37,1037.99 1729.37,1039.77 1730.83,1039.77 1730.83,1032.55 1732.29,1032.55 1732.29,1046.61 1733.75,1046.61 1733.75,1036.93 1735.21,1036.93 1735.21,1050.68 1736.66,1050.68 1736.66,1055.39 1738.12,1055.39 1738.12,1060.58 1739.58,1060.58 1739.58,1062.94 1741.04,1062.94 1741.04,1061.79 1742.5,1061.79 1742.5,1058.36 1743.96,1058.36 1743.96,1061.43 1745.41,1061.43 1745.41,1080.52 1746.87,1080.52 1746.87,1072.05 1748.33,1072.05 1748.33,1040.42 1749.79,1040.42 1749.79,1048.43 1751.25,1048.43 1751.25,1040.1 1752.71,1040.1 1752.71,1035.17 1754.17,1035.17 1754.17,1037.64 1755.62,1037.64 1755.62,1039.73 1757.08,1039.73 1757.08,1065.74 1758.54,1065.74 1758.54,1065.29 1760,1065.29 1760,1074.06 1761.46,1074.06 1761.46,1085.19 1762.92,1085.19 1762.92,1065.37 1764.37,1065.37 1764.37,1065.57 1765.83,1065.57 1765.83,1070.6 1767.29,1070.6 1767.29,1071.31 1768.75,1071.31 1768.75,1087.13 1770.21,1087.13 1770.21,1064.89 1771.67,1064.89 1771.67,1061.74 1773.12,1061.74 1773.12,1080.33 1774.58,1080.33 1774.58,1065.18 1776.04,1065.18 1776.04,1087.05 1777.5,1087.05 1777.5,1113.64 1778.96,1113.64 1778.96,1104.16 1780.42,1104.16 1780.42,1096.19 1781.87,1096.19 1781.87,1110.58 1783.33,1110.58 1783.33,1109.98 1784.79,1109.98 1784.79,1101.9 1786.25,1101.9 1786.25,1077.95 1787.71,1077.95 1787.71,1067.96 1789.17,1067.96 1789.17,1080.88 1790.62,1080.88 1790.62,1082.97 1792.08,1082.97 1792.08,1070.42 1793.54,1070.42 1793.54,1066.04 1795,1066.04 1795,1078.23 1796.46,1078.23 1796.46,1088.31 1797.92,1088.31 1797.92,1091.53 1799.37,1091.53 1799.37,1062.76 1800.83,1062.76 1800.83,1052.23 1802.29,1052.23 1802.29,1045.6 1803.75,1045.6 1803.75,1044.99 1805.21,1044.99 1805.21,1065.22 1806.67,1065.22 1806.67,1077.15 1808.13,1077.15 1808.13,1081.76 1809.58,1081.76 1809.58,1072.14 1811.04,1072.14 1811.04,1069.41 1812.5,1069.41 1812.5,1060.17 1813.96,1060.17 1813.96,1067.38 1815.42,1067.38 1815.42,1059.99 1816.88,1059.99 1816.88,1077.29 1818.33,1077.29 1818.33,1087.34 1819.79,1087.34 1819.79,1061.66 1821.25,1061.66 1821.25,1055.09 1822.71,1055.09 1822.71,1051.95 1824.17,1051.95 1824.17,1030.36 1825.63,1030.36 1825.63,1035.01 1827.08,1035.01 1827.08,1030.54 1828.54,1030.54 1828.54,1009.03 1830,1009.03 1830,1002.71 1831.46,1002.71 1831.46,1013.17 1832.92,1013.17 1832.92,992.283 1834.38,992.283 1834.38,974.399 1835.83,974.399 1835.83,987.066 1837.29,987.066 1837.29,982.53 1838.75,982.53 1838.75,988.934 1840.21,988.934 1840.21,989.704 1841.67,989.704 1841.67,987.115 1843.13,987.115 1843.13,992.683 1844.58,992.683 1844.58,980.79 1846.04,980.79 1846.04,986.087 1847.5,986.087 1847.5,955.37 1848.96,955.37 1848.96,963.356 1850.42,963.356 1850.42,967.809 1851.88,967.809 1851.88,955.083 1853.34,955.083 1853.34,961.564 1854.79,961.564 1854.79,963.413 1856.25,963.413 1856.25,984.256 1857.71,984.256 1857.71,996.936 1859.17,996.936 1859.17,968.508 1860.63,968.508 1860.63,953.639 1862.09,953.639 1862.09,949.757 1863.54,949.757 1863.54,987.503 1865,987.503 1865,1002.67 1866.46,1002.67 1866.46,1008.94 1867.92,1008.94 1867.92,1010.32 1869.38,1010.32 1869.38,991.108 1870.84,991.108 1870.84,1008.63 1872.29,1008.63 1872.29,1010 1873.75,1010 1873.75,1034.99 1875.21,1034.99 1875.21,1051.22 1876.67,1051.22 1876.67,1045.13 1878.13,1045.13 1878.13,1067.1 1879.59,1067.1 1879.59,1099.42 1881.04,1099.42 1881.04,1079.46 1882.5,1079.46 1882.5,1074.8 1883.96,1074.8 1883.96,1072.17 1885.42,1072.17 1885.42,1087.93 1886.88,1087.93 1886.88,1085.04 1888.34,1085.04 1888.34,1089.55 1889.79,1089.55 1889.79,1086.62 1891.25,1086.62 1891.25,1080.53 1892.71,1080.53 1892.71,1071.88 1894.17,1071.88 1894.17,1048.75 1895.63,1048.75 1895.63,1055.66 1897.09,1055.66 1897.09,1041.81 1898.55,1041.81 1898.55,1020.52 1900,1020.52 1900,1006.18 1901.46,1006.18 1901.46,1022.98 1902.92,1022.98 1902.92,1036.56 1904.38,1036.56 1904.38,1036.34 1905.84,1036.34 1905.84,993.804 1907.3,993.804 1907.3,1041.86 1908.75,1041.86 1908.75,1061.47 1910.21,1061.47 1910.21,1052.06 1911.67,1052.06 1911.67,1048.51 1913.13,1048.51 1913.13,1031.46 1914.59,1031.46 1914.59,1024.27 1916.05,1024.27 1916.05,1012.58 1917.5,1012.58 1917.5,1034.09 1918.96,1034.09 1918.96,1037.85 1920.42,1037.85 1920.42,1046.5 1921.88,1046.5 1921.88,1046.16 1923.34,1046.16 1923.34,1023.77 1924.8,1023.77 1924.8,1033.83 1926.25,1033.83 1926.25,1031.27 1927.71,1031.27 1927.71,1041.47 1929.17,1041.47 1929.17,1040.14 1930.63,1040.14 1930.63,1040.74 1932.09,1040.74 1932.09,1023.13 1933.55,1023.13 1933.55,1054.33 1935,1054.33 1935,1050.99 1936.46,1050.99 1936.46,1058.64 1937.92,1058.64 1937.92,1033.2 1939.38,1033.2 1939.38,1044.88 1940.84,1044.88 1940.84,1042.96 1942.3,1042.96 1942.3,1035.53 1943.76,1035.53 1943.76,1023.14 1945.21,1023.14 1945.21,1012.88 1946.67,1012.88 1946.67,1001.5 1948.13,1001.5 1948.13,979.169 1949.59,979.169 1949.59,974.234 1951.05,974.234 1951.05,973.874 1952.51,973.874 1952.51,951.288 1953.96,951.288 1953.96,941.461 1955.42,941.461 1955.42,940.019 1956.88,940.019 1956.88,932.482 1958.34,932.482 1958.34,915.346 1959.8,915.346 1959.8,891.823 1961.26,891.823 1961.26,901.555 1962.71,901.555 1962.71,925.258 1964.17,925.258 1964.17,943.124 1965.63,943.124 1965.63,954.974 1967.09,954.974 1967.09,980.176 1968.55,980.176 1968.55,989.833 1970.01,989.833 1970.01,988.72 1971.46,988.72 1971.46,992.274 1972.92,992.274 1972.92,973.531 1974.38,973.531 1974.38,981.264 1975.84,981.264 1975.84,987.208 1977.3,987.208 1977.3,974.985 1978.76,974.985 1978.76,960.364 1980.21,960.364 1980.21,977.814 1981.67,977.814 1981.67,990.96 1983.13,990.96 1983.13,1002.54 1984.59,1002.54 1984.59,1025.06 1986.05,1025.06 1986.05,1038.78 1987.51,1038.78 1987.51,1045.92 1988.96,1045.92 1988.96,1047.6 1990.42,1047.6 1990.42,1069.5 1991.88,1069.5 1991.88,1051.98 1993.34,1051.98 1993.34,1043.82 1994.8,1043.82 1994.8,1054.12 1996.26,1054.12 1996.26,1052.62 1997.72,1052.62 1997.72,1053.82 1999.17,1053.82 1999.17,1049.69 2000.63,1049.69 2000.63,1054.32 2002.09,1054.32 2002.09,1041.85 2003.55,1041.85 2003.55,1050.43 2005.01,1050.43 2005.01,1051.27 2006.47,1051.27 2006.47,1050.55 2007.92,1050.55 2007.92,1066.24 2009.38,1066.24 2009.38,1079.92 2010.84,1079.92 2010.84,1073.51 2012.3,1073.51 2012.3,1069.41 2013.76,1069.41 2013.76,1068.16 2015.22,1068.16 2015.22,1058.21 2016.67,1058.21 2016.67,1061.22 2018.13,1061.22 2018.13,1071.4 2019.59,1071.4 2019.59,1100.04 2021.05,1100.04 2021.05,1095.24 2022.51,1095.24 2022.51,1094.48 2023.97,1094.48 2023.97,1071.79 2025.42,1071.79 2025.42,1081.57 2026.88,1081.57 2026.88,1075.62 2028.34,1075.62 2028.34,1094.4 2029.8,1094.4 2029.8,1135.5 2031.26,1135.5 2031.26,1146.87 2032.72,1146.87 2032.72,1141.57 2034.17,1141.57 2034.17,1144.82 2035.63,1144.82 2035.63,1160.77 2037.09,1160.77 2037.09,1134.59 2038.55,1134.59 2038.55,1134.96 2040.01,1134.96 2040.01,1127.39 2041.47,1127.39 2041.47,1121.76 2042.93,1121.76 2042.93,1144.48 2044.38,1144.48 2044.38,1139.63 2045.84,1139.63 2045.84,1151.97 2047.3,1151.97 2047.3,1171.09 2048.76,1171.09 2048.76,1167.33 2050.22,1167.33 2050.22,1175.84 2051.68,1175.84 2051.68,1182 2053.13,1182 2053.13,1196.12 2054.59,1196.12 2054.59,1184.24 2056.05,1184.24 2056.05,1205.74 2057.51,1205.74 2057.51,1194.64 2058.97,1194.64 2058.97,1215.18 2060.43,1215.18 2060.43,1227.64 2061.88,1227.64 2061.88,1212.49 2063.34,1212.49 2063.34,1204.59 2064.8,1204.59 2064.8,1206.43 2066.26,1206.43 2066.26,1216.21 2067.72,1216.21 2067.72,1185.72 2069.18,1185.72 2069.18,1201.41 2070.63,1201.41 2070.63,1185.23 2072.09,1185.23 2072.09,1195.16 2073.55,1195.16 2073.55,1165.08 2075.01,1165.08 2075.01,1180.23 2076.47,1180.23 2076.47,1180.15 2077.93,1180.15 2077.93,1156.71 2079.38,1156.71 2079.38,1160.75 2080.84,1160.75 2080.84,1166.3 2082.3,1166.3 2082.3,1163.36 2083.76,1163.36 2083.76,1162.52 2085.22,1162.52 2085.22,1176.25 2086.68,1176.25 2086.68,1178.31 2088.14,1178.31 2088.14,1158.39 2089.59,1158.39 2089.59,1168.71 2091.05,1168.71 2091.05,1166.36 2092.51,1166.36 2092.51,1169.55 2093.97,1169.55 2093.97,1175.32 2095.43,1175.32 2095.43,1181.18 2096.89,1181.18 2096.89,1175.63 2098.34,1175.63 2098.34,1194.78 2099.8,1194.78 2099.8,1203.21 2101.26,1203.21 2101.26,1196.72 2102.72,1196.72 2102.72,1198.44 2104.18,1198.44 2104.18,1197.77 2105.64,1197.77 2105.64,1176.39 2107.09,1176.39 2107.09,1170.74 2108.55,1170.74 2108.55,1173.08 2110.01,1173.08 2110.01,1197.22 2111.47,1197.22 2111.47,1198.81 2112.93,1198.81 2112.93,1178.06 2114.39,1178.06 2114.39,1168.57 2115.84,1168.57 2115.84,1154.52 2117.3,1154.52 2117.3,1130.68 2118.76,1130.68 2118.76,1129 2120.22,1129 2120.22,1139.28 2121.68,1139.28 2121.68,1139.88 2123.14,1139.88 2123.14,1132.38 2124.59,1132.38 2124.59,1130.58 2126.05,1130.58 2126.05,1106.35 2127.51,1106.35 2127.51,1126.85 2128.97,1126.85 2128.97,1167.79 2130.43,1167.79 2130.43,1191.51 2131.89,1191.51 2131.89,1178.25 2133.35,1178.25 2133.35,1180 2134.8,1180 2134.8,1179.08 2136.26,1179.08 2136.26,1157.54 2137.72,1157.54 2137.72,1160.42 2139.18,1160.42 2139.18,1170.82 2140.64,1170.82 2140.64,1176.55 2142.1,1176.55 2142.1,1183.32 2143.55,1183.32 2143.55,1167.35 2145.01,1167.35 2145.01,1167.22 2146.47,1167.22 2146.47,1174.32 2147.93,1174.32 2147.93,1190.45 2149.39,1190.45 2149.39,1183.57 2150.85,1183.57 2150.85,1197.91 2152.3,1197.91 2152.3,1168.15 2153.76,1168.15 2153.76,1173.31 2155.22,1173.31 2155.22,1146.06 2156.68,1146.06 2156.68,1147.34 2158.14,1147.34 2158.14,1134.98 2159.6,1134.98 2159.6,1135.63 2161.05,1135.63 2161.05,1113.47 2162.51,1113.47 2162.51,1103.3 2163.97,1103.3 2163.97,1096.29 2165.43,1096.29 2165.43,1108.03 2166.89,1108.03 2166.89,1112.03 2168.35,1112.03 2168.35,1105.4 2169.8,1105.4 2169.8,1098.62 2171.26,1098.62 2171.26,1099.8 2172.72,1099.8 2172.72,1081.78 2174.18,1081.78 2174.18,1096.35 2175.64,1096.35 2175.64,1078.22 2177.1,1078.22 2177.1,1096.33 2178.55,1096.33 2178.55,1093.66 2180.01,1093.66 2180.01,1105.34 2181.47,1105.34 2181.47,1111.77 2182.93,1111.77 2182.93,1132.7 2184.39,1132.7 2184.39,1116.46 2185.85,1116.46 2185.85,1137.26 2187.31,1137.26 2187.31,1147.02 2188.76,1147.02 2188.76,1143.28 2190.22,1143.28 2190.22,1154.91 2191.68,1154.91 2191.68,1180.42 2193.14,1180.42 2193.14,1144.9 2194.6,1144.9 2194.6,1156.83 2196.06,1156.83 2196.06,1145.59 2197.51,1145.59 2197.51,1156.53 2198.97,1156.53 2198.97,1171.08 2200.43,1171.08 2200.43,1180.02 2201.89,1180.02 2201.89,1172.65 2203.35,1172.65 2203.35,1156.47 2204.81,1156.47 2204.81,1137.16 2206.26,1137.16 2206.26,1140.58 2207.72,1140.58 2207.72,1122.62 2209.18,1122.62 2209.18,1105.04 2210.64,1105.04 2210.64,1096.46 2212.1,1096.46 2212.1,1107.26 2213.56,1107.26 2213.56,1115.31 2215.01,1115.31 2215.01,1107.21 2216.47,1107.21 2216.47,1122.7 2217.93,1122.7 2217.93,1127.86 2219.39,1127.86 2219.39,1155.34 2220.85,1155.34 2220.85,1138.19 2222.31,1138.19 2222.31,1134.67 2223.76,1134.67 2223.76,1110.02 2225.22,1110.02 2225.22,1092.16 2226.68,1092.16 2226.68,1077.23 2228.14,1077.23 2228.14,1097.82 2229.6,1097.82 2229.6,1118.07 2231.06,1118.07 2231.06,1079.46 2232.52,1079.46 2232.52,1085.53 2233.97,1085.53 2233.97,1105.83 2235.43,1105.83 2235.43,1097.64 2236.89,1097.64 2236.89,1108.49 2238.35,1108.49 2238.35,1076.09 2239.81,1076.09 2239.81,1060.63 2241.27,1060.63 2241.27,1067.35 2242.72,1067.35 2242.72,1068.26 2244.18,1068.26 2244.18,1047.07 2245.64,1047.07 2245.64,1056.21 2247.1,1056.21 2247.1,1084.07 2248.56,1084.07 2248.56,1086.44 2250.02,1086.44 2250.02,1088.48 2251.47,1088.48 2251.47,1069.65 2252.93,1069.65 2252.93,1076.94 2254.39,1076.94 2254.39,1076.94 2255.85,1076.94 2255.85,1073.47 2257.31,1073.47 2257.31,1078 2258.77,1078 2258.77,1096.55 2260.22,1096.55 2260.22,1118.28 2261.68,1118.28 2261.68,1120.43 2263.14,1120.43 2263.14,1126.12 2264.6,1126.12 2264.6,1155.37 2266.06,1155.37 2266.06,1150.8 2267.52,1150.8 2267.52,1137.06 2268.97,1137.06 2268.97,1131.1 2270.43,1131.1 2270.43,1129.15 2271.89,1129.15 2271.89,1136.62 2273.35,1136.62 2273.35,1148.47 2274.81,1148.47 2274.81,1149.63 2276.27,1149.63 2276.27,1154.17 2277.73,1154.17 2277.73,1130.21 2279.18,1130.21 2279.18,1135.5 2280.64,1135.5 2280.64,1127.37 2282.1,1127.37 2282.1,1145.27 2283.56,1145.27 2283.56,1142.2 2285.02,1142.2 2285.02,1137.33 2286.48,1137.33 2286.48,1137.94 2287.93,1137.94 2287.93,1167.3 2289.39,1167.3 2289.39,1151.01 2290.85,1151.01 2290.85,1140.09 2292.31,1140.09 2292.31,1125.87 2293.77,1125.87 2293.77,1113.19 2295.23,1113.19 2295.23,1100.32 2296.68,1100.32 2296.68,1072.49 2298.14,1072.49 2298.14,1059.81 2299.6,1059.81 2299.6,1041.35 2301.06,1041.35 2301.06,1026.15 2302.52,1026.15 2302.52,1040.86 2303.98,1040.86 2303.98,1001.83 2305.43,1001.83 2305.43,988.581 2306.89,988.581 2306.89,994.699 2308.35,994.699 2308.35,991.962 2309.81,991.962 2309.81,1008.14 2311.27,1008.14 2311.27,994.679 2312.73,994.679 2312.73,988.765 2314.18,988.765 2314.18,992.174 2315.64,992.174 2315.64,979.911 2317.1,979.911 2317.1,967.978 2318.56,967.978 2318.56,982.127 2320.02,982.127 2320.02,983.61 2321.48,983.61 2321.48,973.53 2322.94,973.53 2322.94,974.177 2324.39,974.177 2324.39,961.671 2325.85,961.671 2325.85,953.819 2327.31,953.819 2327.31,953.223 2328.77,953.223 2328.77,961.356 2330.23,961.356 2330.23,949.497 2331.69,949.497 2331.69,932.463 2333.14,932.463 2333.14,914.393 2334.6,914.393 2334.6,919.958 2336.06,919.958 2336.06,917.726 2337.52,917.726 2337.52,884.109 2338.98,884.109 2338.98,884.738 2340.44,884.738 2340.44,856.774 2341.89,856.774 2341.89,849.517 2343.35,849.517 2343.35,857.848 2344.81,857.848 2344.81,872.829 2346.27,872.829 2346.27,877.049 2347.73,877.049 2347.73,865.697 2349.19,865.697 2349.19,863.308 2350.64,863.308 2350.64,858.798 2352.1,858.798 2352.1,854.289 2353.56,854.289 2353.56,841.474 2355.02,841.474 2355.02,863.989 2356.48,863.989 2356.48,857.943 2357.94,857.943 2357.94,851.635 2359.39,851.635 2359.39,863.335 2360.85,863.335 2360.85,874.581 2362.31,874.581 2362.31,862.736 2363.77,862.736 2363.77,856.151 2365.23,856.151 2365.23,844.933 2366.69,844.933 2366.69,825.996 2368.14,825.996 2368.14,802.149 2369.6,802.149 2369.6,813.208 2371.06,813.208 2371.06,804.977 2372.52,804.977 2372.52,800.98 2373.98,800.98 2373.98,782.861 2375.44,782.861 2375.44,784.614 2376.9,784.614 2376.9,787.925 2378.35,787.925 2378.35,780.491 2379.81,780.491 2379.81,790.224 2381.27,790.224 2381.27,765.6 2382.73,765.6 2382.73,769.05 2384.19,769.05 2384.19,763.049 2385.65,763.049 2385.65,762.98 2387.1,762.98 2387.1,782.873 2388.56,782.873 2388.56,780.634 2390.02,780.634 2390.02,782.849 2391.48,782.849 2391.48,776.715 2392.94,776.715 2392.94,793.033 2394.4,793.033 2394.4,820.83 2395.85,820.83 2395.85,806.99 2397.31,806.99 2397.31,813.978 2398.77,813.978 2398.77,814.055 2400.23,814.055 2400.23,798.108 2401.69,798.108 2401.69,810.202 2403.15,810.202 2403.15,822.56 2404.6,822.56 2404.6,846.287 2406.06,846.287 2406.06,838.876 2407.52,838.876 2407.52,862.005 2408.98,862.005 2408.98,892.452 2410.44,892.452 2410.44,900.312 2411.9,900.312 2411.9,906.212 2413.35,906.212 2413.35,883.779 2414.81,883.779 2414.81,890.77 2416.27,890.77 2416.27,872.932 2417.73,872.932 2417.73,893.144 2419.19,893.144 2419.19,888.042 2420.65,888.042 2420.65,868.67 2422.11,868.67 2422.11,847.438 2423.56,847.438 2423.56,854.126 2425.02,854.126 2425.02,849.724 2426.48,849.724 2426.48,834.828 2427.94,834.828 2427.94,841.514 2429.4,841.514 2429.4,851.244 2430.86,851.244 2430.86,858.113 2432.31,858.113 2432.31,833.97 2433.77,833.97 2433.77,825.17 2435.23,825.17 2435.23,814.392 2436.69,814.392 2436.69,821.796 2438.15,821.796 2438.15,822.436 2439.61,822.436 2439.61,824.442 2441.06,824.442 2441.06,830.641 2442.52,830.641 2442.52,822.599 2443.98,822.599 2443.98,816.209 2445.44,816.209 2445.44,804.703 2446.9,804.703 2446.9,812.861 2448.36,812.861 2448.36,811.614 2449.81,811.614 2449.81,792.544 2451.27,792.544 2451.27,793.434 2452.73,793.434 2452.73,797.233 2454.19,797.233 2454.19,801.565 2455.65,801.565 2455.65,814.369 2457.11,814.369 2457.11,794.688 2458.56,794.688 2458.56,813.031 2460.02,813.031 2460.02,823.676 2461.48,823.676 2461.48,841.629 2462.94,841.629 2462.94,852.958 2464.4,852.958 2464.4,858.971 2465.86,858.971 2465.86,842.092 2467.32,842.092 2467.32,814.738 2468.77,814.738 2468.77,814.57 2470.23,814.57 2470.23,823.887 2471.69,823.887 2471.69,819.269 2473.15,819.269 2473.15,813.83 2474.61,813.83 2474.61,806.656 2476.07,806.656 2476.07,788.958 2477.52,788.958 2477.52,794.845 2478.98,794.845 2478.98,786.857 2480.44,786.857 2480.44,792.385 2481.9,792.385 2481.9,786.31 2483.36,786.31 2483.36,796.604 2484.82,796.604 2484.82,791.697 2486.27,791.697 2486.27,793.934 2487.73,793.934 2487.73,793.365 2489.19,793.365 2489.19,775.327 2490.65,775.327 2490.65,803.138 2492.11,803.138 2492.11,774.198 2493.57,774.198 2493.57,759.944 2495.02,759.944 2495.02,768.851 2496.48,768.851 2496.48,770.491 2497.94,770.491 2497.94,771.911 2499.4,771.911 2499.4,758.148 2500.86,758.148 2500.86,764.737 2502.32,764.737 2502.32,761.073 2503.77,761.073 2503.77,760.651 2505.23,760.651 2505.23,750.363 2506.69,750.363 2506.69,768.367 2508.15,768.367 2508.15,778.35 2509.61,778.35 2509.61,761.279 2511.07,761.279 2511.07,750.253 2512.53,750.253 2512.53,773.147 2513.98,773.147 2513.98,757.379 2515.44,757.379 2515.44,769.454 2516.9,769.454 2516.9,771.529 2518.36,771.529 2518.36,798.311 2519.82,798.311 2519.82,777.432 2521.28,777.432 2521.28,767.696 2522.73,767.696 2522.73,766.087 2524.19,766.087 2524.19,777.201 2525.65,777.201 2525.65,763.698 2527.11,763.698 2527.11,765.814 2528.57,765.814 2528.57,783.415 2530.03,783.415 2530.03,764.508 2531.48,764.508 2531.48,771.426 2532.94,771.426 2532.94,781.185 2534.4,781.185 2534.4,782.916 2535.86,782.916 2535.86,777.188 2537.32,777.188 2537.32,774.572 2538.78,774.572 2538.78,782.752 2540.23,782.752 2540.23,774.98 2541.69,774.98 2541.69,763.834 2543.15,763.834 2543.15,768.617 2544.61,768.617 2544.61,756.592 2546.07,756.592 2546.07,749.792 2547.53,749.792 2547.53,740.388 2548.98,740.388 2548.98,738.877 2550.44,738.877 2550.44,756.592 2551.9,756.592 2551.9,762.101 2553.36,762.101 2553.36,741.51 2554.82,741.51 2554.82,749.033 2556.28,749.033 2556.28,736.281 2557.73,736.281 2557.73,727.418 2559.19,727.418 2559.19,728.434 2560.65,728.434 2560.65,719.784 2562.11,719.784 2562.11,735.96 2563.57,735.96 2563.57,734.427 2565.03,734.427 2565.03,739.79 2566.49,739.79 2566.49,746.148 2567.94,746.148 2567.94,748.508 2569.4,748.508 2569.4,738.899 2570.86,738.899 2570.86,734.995 2572.32,734.995 2572.32,726.123 2573.78,726.123 2573.78,719.171 2575.24,719.171 2575.24,723.559 2576.69,723.559 2576.69,713.27 2578.15,713.27 2578.15,704.003 2579.61,704.003 2579.61,690.671 2581.07,690.671 2581.07,684.045 2582.53,684.045 2582.53,685.77 2583.99,685.77 2583.99,682.185 2585.44,682.185 2585.44,676.58 2586.9,676.58 2586.9,673.951 2588.36,673.951 2588.36,671.183 2589.82,671.183 2589.82,677.005 2591.28,677.005 2591.28,682.189 2592.74,682.189 2592.74,681.388 2594.19,681.388 2594.19,664.206 2595.65,664.206 2595.65,647.348 2597.11,647.348 2597.11,644.138 2598.57,644.138 2598.57,638.479 2600.03,638.479 2600.03,652.014 2601.49,652.014 2601.49,634.262 2602.94,634.262 2602.94,637.484 2604.4,637.484 2604.4,643.694 2605.86,643.694 2605.86,654.415 2607.32,654.415 2607.32,655.432 2608.78,655.432 2608.78,656.543 2610.24,656.543 2610.24,644.346 2611.7,644.346 2611.7,635.169 2613.15,635.169 2613.15,638.242 2614.61,638.242 2614.61,625.32 2616.07,625.32 2616.07,629.522 2617.53,629.522 2617.53,616.103 2618.99,616.103 2618.99,617.892 2620.45,617.892 2620.45,618.061 2621.9,618.061 2621.9,617.817 2623.36,617.817 2623.36,609.885 2624.82,609.885 2624.82,600.045 2626.28,600.045 2626.28,592.644 2627.74,592.644 2627.74,587.33 2629.2,587.33 2629.2,615.955 2630.65,615.955 2630.65,608.702 2632.11,608.702 2632.11,607.615 2633.57,607.615 2633.57,613.145 2635.03,613.145 2635.03,617.824 2636.49,617.824 2636.49,612.723 2637.95,612.723 2637.95,614.339 2639.4,614.339 2639.4,615.478 2640.86,615.478 2640.86,615.153 2642.32,615.153 2642.32,601.13 2643.78,601.13 2643.78,601.273 2645.24,601.273 2645.24,611.147 2646.7,611.147 2646.7,619.98 2648.15,619.98 2648.15,621.657 2649.61,621.657 2649.61,618.064 2651.07,618.064 2651.07,612.059 2652.53,612.059 2652.53,613.694 2653.99,613.694 2653.99,615.71 2655.45,615.71 2655.45,595.749 2656.91,595.749 2656.91,575.158 2658.36,575.158 2658.36,564.221 2659.82,564.221 2659.82,556.998 2661.28,556.998 2661.28,550.021 2662.74,550.021 2662.74,556.017 2664.2,556.017 2664.2,556.142 2665.66,556.142 2665.66,535.767 2667.11,535.767 2667.11,512.933 2668.57,512.933 2668.57,517.096 2670.03,517.096 2670.03,489.595 2671.49,489.595 2671.49,509.101 2672.95,509.101 2672.95,498.984 2674.41,498.984 2674.41,501.715 2675.86,501.715 2675.86,498.443 2677.32,498.443 2677.32,503.178 2678.78,503.178 2678.78,478.887 2680.24,478.887 2680.24,472.754 2681.7,472.754 2681.7,475.648 2683.16,475.648 2683.16,470.121 2684.61,470.121 2684.61,470.493 2686.07,470.493 2686.07,470.449 2687.53,470.449 2687.53,476.239 2688.99,476.239 2688.99,460.662 2690.45,460.662 2690.45,472.106 2691.91,472.106 2691.91,474.428 2693.36,474.428 2693.36,467.952 2694.82,467.952 2694.82,451.625 2696.28,451.625 2696.28,459.725 2697.74,459.725 2697.74,444.648 2699.2,444.648 2699.2,437.946 2700.66,437.946 2700.66,451.414 2702.12,451.414 2702.12,467.51 2703.57,467.51 2703.57,489.416 2705.03,489.416 2705.03,488.986 2706.49,488.986 2706.49,484.586 2707.95,484.586 2707.95,459.213 2709.41,459.213 2709.41,461.412 2710.87,461.412 2710.87,446.934 2712.32,446.934 2712.32,451.157 2713.78,451.157 2713.78,437.81 2715.24,437.81 2715.24,429.464 2716.7,429.464 2716.7,448.069 2718.16,448.069 2718.16,451.05 2719.62,451.05 2719.62,450.804 2721.07,450.804 2721.07,441.346 2722.53,441.346 2722.53,440.929 2723.99,440.929 2723.99,432.407 2725.45,432.407 2725.45,432.683 2726.91,432.683 2726.91,446.784 2728.37,446.784 2728.37,421.933 2729.82,421.933 2729.82,421.115 2731.28,421.115 2731.28,413.516 2732.74,413.516 2732.74,417.787 2734.2,417.787 2734.2,405.855 2735.66,405.855 2735.66,391.794 2737.12,391.794 2737.12,377.814 2738.57,377.814 2738.57,367.259 2740.03,367.259 2740.03,378.048 2741.49,378.048 2741.49,391.354 2742.95,391.354 2742.95,380.769 2744.41,380.769 2744.41,363.335 2745.87,363.335 2745.87,373.195 2747.32,373.195 2747.32,362.13 2748.78,362.13 2748.78,368.21 2750.24,368.21 2750.24,345.677 2751.7,345.677 2751.7,348.352 2753.16,348.352 2753.16,352.677 2754.62,352.677 2754.62,370.868 2756.08,370.868 2756.08,370.058 2757.53,370.058 2757.53,382.577 2758.99,382.577 2758.99,403.432 2760.45,403.432 2760.45,396.384 2761.91,396.384 2761.91,401.143 2763.37,401.143 2763.37,397.029 2764.83,397.029 2764.83,384.129 2766.28,384.129 2766.28,402.502 2767.74,402.502 2767.74,407.3 2769.2,407.3 2769.2,429.731 2770.66,429.731 2770.66,423.601 2772.12,423.601 2772.12,412.878 2773.58,412.878 2773.58,397.46 2775.03,397.46 2775.03,396.29 2776.49,396.29 2776.49,387.999 2777.95,387.999 2777.95,390.161 2779.41,390.161 2779.41,374.569 2780.87,374.569 2780.87,396.338 2782.33,396.338 2782.33,387.125 2783.78,387.125 2783.78,399.075 2785.24,399.075 2785.24,397.215 2786.7,397.215 2786.7,371.49 2788.16,371.49 2788.16,363.755 2789.62,363.755 2789.62,373.813 2791.08,373.813 2791.08,384.645 2792.53,384.645 2792.53,370.139 2793.99,370.139 2793.99,390.581 2795.45,390.581 2795.45,399.032 2796.91,399.032 2796.91,406.872 2798.37,406.872 2798.37,394.423 2799.83,394.423 2799.83,390.927 2801.29,390.927 2801.29,396.18 2802.74,396.18 2802.74,393.159 2804.2,393.159 2804.2,374.039 2805.66,374.039 2805.66,371.056 2807.12,371.056 2807.12,373.189 2808.58,373.189 2808.58,358.893 2810.04,358.893 2810.04,363.225 2811.49,363.225 2811.49,369.881 2812.95,369.881 2812.95,354.611 2814.41,354.611 2814.41,354.494 2815.87,354.494 2815.87,350.317 2817.33,350.317 2817.33,356.156 2818.79,356.156 2818.79,365.781 2820.24,365.781 2820.24,368.849 2821.7,368.849 2821.7,357.538 2823.16,357.538 2823.16,333.542 2824.62,333.542 2824.62,305.479 2826.08,305.479 2826.08,308.981 2827.54,308.981 2827.54,307.122 2828.99,307.122 2828.99,288.459 2830.45,288.459 2830.45,284.422 2831.91,284.422 2831.91,285.869 2833.37,285.869 2833.37,295.573 2834.83,295.573 2834.83,292.395 2836.29,292.395 2836.29,272.471 2837.74,272.471 2837.74,276.624 2839.2,276.624 2839.2,277.083 2840.66,277.083 2840.66,289.19 2842.12,289.19 2842.12,306.555 2843.58,306.555 2843.58,308.103 2845.04,308.103 2845.04,300.834 2846.5,300.834 2846.5,299.767 2847.95,299.767 2847.95,287.747 2849.41,287.747 2849.41,279.766 2850.87,279.766 2850.87,295.793 2852.33,295.793 2852.33,306.395 2853.79,306.395 2853.79,332.128 2855.25,332.128 2855.25,329.271 2856.7,329.271 2856.7,340.03 2858.16,340.03 2858.16,344.242 2859.62,344.242 2859.62,364.551 2861.08,364.551 2861.08,363.776 2862.54,363.776 2862.54,337.767 2864,337.767 2864,345.997 2865.45,345.997 2865.45,357.243 2866.91,357.243 2866.91,354.486 2868.37,354.486 2868.37,327.869 2869.83,327.869 2869.83,316.501 2871.29,316.501 2871.29,307.7 2872.75,307.7 2872.75,312.68 2874.2,312.68 2874.2,346.608 2875.66,346.608 2875.66,361.176 2877.12,361.176 2877.12,361.928 2878.58,361.928 2878.58,392.82 2880.04,392.82 2880.04,391.113 2881.5,391.113 2881.5,370.544 2882.95,370.544 2882.95,367.801 2884.41,367.801 2884.41,373.954 2885.87,373.954 2885.87,376.196 2887.33,376.196 2887.33,391.523 2888.79,391.523 2888.79,385.944 2890.25,385.944 2890.25,379.103 2891.71,379.103 2891.71,383.692 2893.16,383.692 2893.16,371.064 2894.62,371.064 2894.62,376.843 2896.08,376.843 2896.08,382.18 2897.54,382.18 2897.54,399.589 2899,399.589 2899,370.64 2900.46,370.64 2900.46,359.592 2901.91,359.592 2901.91,369.43 2903.37,369.43 2903.37,359.557 2904.83,359.557 2904.83,361.113 2906.29,361.113 2906.29,379.367 2907.75,379.367 2907.75,377.624 2909.21,377.624 2909.21,391.195 2910.66,391.195 2910.66,400.888 2912.12,400.888 2912.12,399.022 2913.58,399.022 2913.58,404.712 2915.04,404.712 2915.04,416.572 2916.5,416.572 2916.5,406.559 2917.96,406.559 2917.96,406.597 2919.41,406.597 2919.41,397.762 2920.87,397.762 2920.87,384.478 2922.33,384.478 2922.33,378.362 2923.79,378.362 2923.79,380.415 2925.25,380.415 2925.25,370 2926.71,370 2926.71,360.6 2928.16,360.6 2928.16,361.88 2929.62,361.88 2929.62,349.041 2931.08,349.041 2931.08,330.52 2932.54,330.52 2932.54,327.223 2934,327.223 2934,330.568 2935.46,330.568 2935.46,342.755 2936.91,342.755 2936.91,325.876 2938.37,325.876 2938.37,340.655 2939.83,340.655 2939.83,340.926 2941.29,340.926 2941.29,328.791 2942.75,328.791 2942.75,329.756 2944.21,329.756 2944.21,308.492 2945.67,308.492 2945.67,291.909 2947.12,291.909 2947.12,302.519 2948.58,302.519 2948.58,297.081 2950.04,297.081 2950.04,309.173 2951.5,309.173 2951.5,302.058 2952.96,302.058 2952.96,292.901 2954.42,292.901 2954.42,283.065 2955.87,283.065 2955.87,293.437 2957.33,293.437 2957.33,297.097 2958.79,297.097 2958.79,297.451 2960.25,297.451 2960.25,296.832 2961.71,296.832 2961.71,309.239 2963.17,309.239 2963.17,290.432 2964.62,290.432 2964.62,305.667 2966.08,305.667 2966.08,326.71 2967.54,326.71 2967.54,335.296 2969,335.296 2969,339.306 2970.46,339.306 2970.46,306.176 2971.92,306.176 2971.92,304.079 2973.37,304.079 2973.37,308.297 2974.83,308.297 2974.83,324.05 2976.29,324.05 2976.29,310.817 2977.75,310.817 2977.75,308.705 2979.21,308.705 2979.21,311.299 2980.67,311.299 2980.67,310.318 2982.12,310.318 2982.12,316.034 2983.58,316.034 2983.58,327.02 2985.04,327.02 2985.04,365.921 2986.5,365.921 2986.5,360.451 2987.96,360.451 2987.96,348.738 2989.42,348.738 2989.42,328.476 2990.88,328.476 2990.88,333.74 2992.33,333.74 2992.33,343.459 2993.79,343.459 2993.79,346.477 2995.25,346.477 2995.25,343.615 2996.71,343.615 2996.71,344.089 2998.17,344.089 2998.17,321.83 2999.63,321.83 2999.63,334.045 3001.08,334.045 3001.08,342.955 3002.54,342.955 3002.54,331.622 3004,331.622 3004,335.918 3005.46,335.918 3005.46,352.721 3006.92,352.721 3006.92,318.727 3008.38,318.727 3008.38,308.358 3009.83,308.358 3009.83,313.239 3011.29,313.239 3011.29,304.342 3012.75,304.342 3012.75,297.974 3014.21,297.974 3014.21,321.63 3015.67,321.63 3015.67,316.151 3017.13,316.151 3017.13,318.344 3018.58,318.344 3018.58,318.432 3020.04,318.432 3020.04,325.401 3021.5,325.401 3021.5,328.443 3022.96,328.443 3022.96,348.344 3024.42,348.344 3024.42,375.632 3025.88,375.632 3025.88,402.748 3027.33,402.748 3027.33,405.449 3028.79,405.449 3028.79,379.797 3030.25,379.797 3030.25,395.951 3031.71,395.951 3031.71,414.756 3033.17,414.756 3033.17,395.543 3034.63,395.543 3034.63,394.792 3036.09,394.792 3036.09,374.986 3037.54,374.986 3037.54,366.616 3039,366.616 3039,335.956 3040.46,335.956 3040.46,322.257 3041.92,322.257 3041.92,326.67 3043.38,326.67 3043.38,311.622 3044.84,311.622 3044.84,302.314 3046.29,302.314 3046.29,292.629 3047.75,292.629 3047.75,284.964 3049.21,284.964 3049.21,292.368 3050.67,292.368 3050.67,235.796 3052.13,235.796 3052.13,239.97 3053.59,239.97 3053.59,256.963 3055.04,256.963 3055.04,223.6 3056.5,223.6 3056.5,236.259 3057.96,236.259 3057.96,215.606 3059.42,215.606 3059.42,207.387 3060.88,207.387 3060.88,191.042 3062.34,191.042 3062.34,197.291 3063.79,197.291 3063.79,208.738 3065.25,208.738 3065.25,236.157 3066.71,236.157 3066.71,250.962 3068.17,250.962 3068.17,231.869 3069.63,231.869 3069.63,227.543 3071.09,227.543 3071.09,243.782 3072.54,243.782 3072.54,255.148 3074,255.148 3074,243.65 3075.46,243.65 3075.46,229.302 3076.92,229.302 3076.92,197.74 3078.38,197.74 3078.38,185.235 3079.84,185.235 3079.84,211.969 3081.3,211.969 3081.3,203.197 3082.75,203.197 3082.75,185.777 3084.21,185.777 3084.21,161.447 3085.67,161.447 3085.67,182.408 3087.13,182.408 3087.13,180.392 3088.59,180.392 3088.59,178.952 3090.05,178.952 3090.05,208.101 3091.5,208.101 3091.5,197.027 3092.96,197.027 3092.96,173.115 3094.42,173.115 3094.42,174.905 3095.88,174.905 3095.88,178.061 3097.34,178.061 3097.34,208.286 3098.8,208.286 3098.8,175.171 3100.25,175.171 3100.25,176.043 3101.71,176.043 3101.71,160.815 3103.17,160.815 3103.17,169.633 3104.63,169.633 3104.63,190.787 3106.09,190.787 3106.09,184.501 3107.55,184.501 3107.55,185.537 3109,185.537 3109,186.339 3110.46,186.339 3110.46,178.912 3111.92,178.912 3111.92,166.408 3113.38,166.408 3113.38,171.839 3114.84,171.839 3114.84,171.711 3116.3,171.711 3116.3,165.63 3117.75,165.63 3117.75,114.367 3119.21,114.367 3119.21,95.3921 3120.67,95.3921 3120.67,113.451 3122.13,113.451 3122.13,128.591 3123.59,128.591 3123.59,115.988 3125.05,115.988 3125.05,138.405 3126.5,138.405 3126.5,150.903 3127.96,150.903 3127.96,146.872 3129.42,146.872 3129.42,156.505 3130.88,156.505 3130.88,171.549 3132.34,171.549 3132.34,188.807 3133.8,188.807 3133.8,188.629 3135.26,188.629 3135.26,194.512 3136.71,194.512 3136.71,180.486 3138.17,180.486 3138.17,212.047 3139.63,212.047 3139.63,226.575 3141.09,226.575 3141.09,221.406 3142.55,221.406 3142.55,236.697 3144.01,236.697 3144.01,207.043 3145.46,207.043 3145.46,197.885 3146.92,197.885 3146.92,195.565 3148.38,195.565 3148.38,188.698 3149.84,188.698 3149.84,193.173 3151.3,193.173 3151.3,175.785 3152.76,175.785 3152.76,168.948 "/>
<path clip-path="url(#clip370)" d="M334.622 245.729 L769.995 245.729 L769.995 142.049 L334.622 142.049  Z" fill="#282c34" fill-rule="evenodd" fill-opacity="1"/>
<polyline clip-path="url(#clip370)" style="stroke:#000000; stroke-linecap:round; stroke-linejoin:round; stroke-width:4; stroke-opacity:0; fill:none" points="334.622,245.729 769.995,245.729 769.995,142.049 334.622,142.049 334.622,245.729 "/>
<polyline clip-path="url(#clip370)" style="stroke:#bbbb00; stroke-linecap:round; stroke-linejoin:round; stroke-width:4; stroke-opacity:1; fill:none" points="367.014,193.889 561.368,193.889 "/>
<path clip-path="url(#clip370)" d="M593.761 176.609 L615.613 176.609 L615.613 180.544 L598.437 180.544 L598.437 190.775 L614.895 190.775 L614.895 194.71 L598.437 194.71 L598.437 207.233 L616.029 207.233 L616.029 211.169 L593.761 211.169 L593.761 176.609 Z" fill="#adb2b7" fill-rule="nonzero" fill-opacity="1" /><path clip-path="url(#clip370)" d="M626.075 198.229 Q626.075 202.928 627.997 205.613 Q629.941 208.275 633.321 208.275 Q636.7 208.275 638.645 205.613 Q640.589 202.928 640.589 198.229 Q640.589 193.53 638.645 190.868 Q636.7 188.183 633.321 188.183 Q629.941 188.183 627.997 190.868 Q626.075 193.53 626.075 198.229 M640.589 207.28 Q639.247 209.595 637.187 210.729 Q635.15 211.84 632.279 211.84 Q627.58 211.84 624.617 208.09 Q621.677 204.34 621.677 198.229 Q621.677 192.118 624.617 188.368 Q627.58 184.618 632.279 184.618 Q635.15 184.618 637.187 185.752 Q639.247 186.863 640.589 189.178 L640.589 185.243 L644.849 185.243 L644.849 221.03 L640.589 221.03 L640.589 207.28 Z" fill="#adb2b7" fill-rule="nonzero" fill-opacity="1" /><path clip-path="url(#clip370)" d="M653.182 200.937 L653.182 185.243 L657.441 185.243 L657.441 200.775 Q657.441 204.456 658.876 206.308 Q660.311 208.136 663.182 208.136 Q666.631 208.136 668.622 205.937 Q670.635 203.738 670.635 199.942 L670.635 185.243 L674.895 185.243 L674.895 211.169 L670.635 211.169 L670.635 207.187 Q669.085 209.548 667.024 210.706 Q664.987 211.84 662.279 211.84 Q657.811 211.84 655.497 209.062 Q653.182 206.284 653.182 200.937 M663.899 184.618 L663.899 184.618 Z" fill="#adb2b7" fill-rule="nonzero" fill-opacity="1" /><path clip-path="url(#clip370)" d="M683.668 185.243 L687.927 185.243 L687.927 211.169 L683.668 211.169 L683.668 185.243 M683.668 175.15 L687.927 175.15 L687.927 180.544 L683.668 180.544 L683.668 175.15 Z" fill="#adb2b7" fill-rule="nonzero" fill-opacity="1" /><path clip-path="url(#clip370)" d="M701.052 177.882 L701.052 185.243 L709.825 185.243 L709.825 188.553 L701.052 188.553 L701.052 202.627 Q701.052 205.798 701.908 206.701 Q702.788 207.604 705.45 207.604 L709.825 207.604 L709.825 211.169 L705.45 211.169 Q700.52 211.169 698.645 209.34 Q696.77 207.488 696.77 202.627 L696.77 188.553 L693.645 188.553 L693.645 185.243 L696.77 185.243 L696.77 177.882 L701.052 177.882 Z" fill="#adb2b7" fill-rule="nonzero" fill-opacity="1" /><path clip-path="url(#clip370)" d="M726.214 213.576 Q724.408 218.206 722.695 219.618 Q720.982 221.03 718.112 221.03 L714.709 221.03 L714.709 217.465 L717.209 217.465 Q718.968 217.465 719.941 216.632 Q720.913 215.798 722.093 212.696 L722.857 210.752 L712.371 185.243 L716.885 185.243 L724.987 205.521 L733.089 185.243 L737.603 185.243 L726.214 213.576 Z" fill="#adb2b7" fill-rule="nonzero" fill-opacity="1" /></svg>
