<?xml version="1.0" encoding="utf-8"?>
<svg xmlns="http://www.w3.org/2000/svg" xmlns:xlink="http://www.w3.org/1999/xlink" width="800" height="400" viewBox="0 0 3200 1600">
<defs>
  <clipPath id="clip180">
    <rect x="0" y="0" width="3200" height="1600"/>
  </clipPath>
</defs>
<path clip-path="url(#clip180)" d="M0 1600 L3200 1600 L3200 0 L0 0  Z" fill="#282c34" fill-rule="evenodd" fill-opacity="1"/>
<defs>
  <clipPath id="clip181">
    <rect x="237" y="108" width="2916" height="1388"/>
  </clipPath>
</defs>
<path clip-path="url(#clip180)" d="M237.445 1495.09 L3152.76 1495.09 L3152.76 108.352 L237.445 108.352  Z" fill="#21252b" fill-rule="evenodd" fill-opacity="1"/>
<polyline clip-path="url(#clip181)" style="stroke:#adb2b7; stroke-linecap:round; stroke-linejoin:round; stroke-width:2; stroke-opacity:0.1; fill:none" points="319.954,1495.09 319.954,108.352 "/>
<polyline clip-path="url(#clip181)" style="stroke:#adb2b7; stroke-linecap:round; stroke-linejoin:round; stroke-width:2; stroke-opacity:0.1; fill:none" points="1054.39,1495.09 1054.39,108.352 "/>
<polyline clip-path="url(#clip181)" style="stroke:#adb2b7; stroke-linecap:round; stroke-linejoin:round; stroke-width:2; stroke-opacity:0.1; fill:none" points="1788.82,1495.09 1788.82,108.352 "/>
<polyline clip-path="url(#clip181)" style="stroke:#adb2b7; stroke-linecap:round; stroke-linejoin:round; stroke-width:2; stroke-opacity:0.1; fill:none" points="2523.25,1495.09 2523.25,108.352 "/>
<polyline clip-path="url(#clip181)" style="stroke:#adb2b7; stroke-linecap:round; stroke-linejoin:round; stroke-width:2; stroke-opacity:0.1; fill:none" points="237.445,1291.05 3152.76,1291.05 "/>
<polyline clip-path="url(#clip181)" style="stroke:#adb2b7; stroke-linecap:round; stroke-linejoin:round; stroke-width:2; stroke-opacity:0.1; fill:none" points="237.445,1084.76 3152.76,1084.76 "/>
<polyline clip-path="url(#clip181)" style="stroke:#adb2b7; stroke-linecap:round; stroke-linejoin:round; stroke-width:2; stroke-opacity:0.1; fill:none" points="237.445,878.474 3152.76,878.474 "/>
<polyline clip-path="url(#clip181)" style="stroke:#adb2b7; stroke-linecap:round; stroke-linejoin:round; stroke-width:2; stroke-opacity:0.1; fill:none" points="237.445,672.184 3152.76,672.184 "/>
<polyline clip-path="url(#clip181)" style="stroke:#adb2b7; stroke-linecap:round; stroke-linejoin:round; stroke-width:2; stroke-opacity:0.1; fill:none" points="237.445,465.894 3152.76,465.894 "/>
<polyline clip-path="url(#clip181)" style="stroke:#adb2b7; stroke-linecap:round; stroke-linejoin:round; stroke-width:2; stroke-opacity:0.1; fill:none" points="237.445,259.604 3152.76,259.604 "/>
<polyline clip-path="url(#clip180)" style="stroke:#adb2b7; stroke-linecap:round; stroke-linejoin:round; stroke-width:4; stroke-opacity:1; fill:none" points="237.445,1495.09 3152.76,1495.09 "/>
<polyline clip-path="url(#clip180)" style="stroke:#adb2b7; stroke-linecap:round; stroke-linejoin:round; stroke-width:4; stroke-opacity:1; fill:none" points="319.954,1495.09 319.954,1476.19 "/>
<polyline clip-path="url(#clip180)" style="stroke:#adb2b7; stroke-linecap:round; stroke-linejoin:round; stroke-width:4; stroke-opacity:1; fill:none" points="1054.39,1495.09 1054.39,1476.19 "/>
<polyline clip-path="url(#clip180)" style="stroke:#adb2b7; stroke-linecap:round; stroke-linejoin:round; stroke-width:4; stroke-opacity:1; fill:none" points="1788.82,1495.09 1788.82,1476.19 "/>
<polyline clip-path="url(#clip180)" style="stroke:#adb2b7; stroke-linecap:round; stroke-linejoin:round; stroke-width:4; stroke-opacity:1; fill:none" points="2523.25,1495.09 2523.25,1476.19 "/>
<path clip-path="url(#clip180)" d="M191.749 1559.95 L208.068 1559.95 L208.068 1563.89 L186.124 1563.89 L186.124 1559.95 Q188.786 1557.2 193.369 1552.57 Q197.975 1547.92 199.156 1546.57 Q201.401 1544.05 202.281 1542.31 Q203.184 1540.55 203.184 1538.86 Q203.184 1536.11 201.239 1534.37 Q199.318 1532.64 196.216 1532.64 Q194.017 1532.64 191.563 1533.4 Q189.133 1534.17 186.355 1535.72 L186.355 1530.99 Q189.179 1529.86 191.633 1529.28 Q194.086 1528.7 196.124 1528.7 Q201.494 1528.7 204.688 1531.39 Q207.883 1534.07 207.883 1538.56 Q207.883 1540.69 207.073 1542.61 Q206.285 1544.51 204.179 1547.11 Q203.6 1547.78 200.498 1550.99 Q197.397 1554.19 191.749 1559.95 Z" fill="#9eb1be" fill-rule="nonzero" fill-opacity="1" /><path clip-path="url(#clip180)" d="M227.883 1532.41 Q224.272 1532.41 222.443 1535.97 Q220.637 1539.51 220.637 1546.64 Q220.637 1553.75 222.443 1557.31 Q224.272 1560.86 227.883 1560.86 Q231.517 1560.86 233.322 1557.31 Q235.151 1553.75 235.151 1546.64 Q235.151 1539.51 233.322 1535.97 Q231.517 1532.41 227.883 1532.41 M227.883 1528.7 Q233.693 1528.7 236.748 1533.31 Q239.827 1537.89 239.827 1546.64 Q239.827 1555.37 236.748 1559.98 Q233.693 1564.56 227.883 1564.56 Q222.072 1564.56 218.994 1559.98 Q215.938 1555.37 215.938 1546.64 Q215.938 1537.89 218.994 1533.31 Q222.072 1528.7 227.883 1528.7 Z" fill="#9eb1be" fill-rule="nonzero" fill-opacity="1" /><path clip-path="url(#clip180)" d="M252.072 1559.95 L268.392 1559.95 L268.392 1563.89 L246.447 1563.89 L246.447 1559.95 Q249.109 1557.2 253.693 1552.57 Q258.299 1547.92 259.48 1546.57 Q261.725 1544.05 262.605 1542.31 Q263.507 1540.55 263.507 1538.86 Q263.507 1536.11 261.563 1534.37 Q259.642 1532.64 256.54 1532.64 Q254.341 1532.64 251.887 1533.4 Q249.457 1534.17 246.679 1535.72 L246.679 1530.99 Q249.503 1529.86 251.957 1529.28 Q254.41 1528.7 256.447 1528.7 Q261.818 1528.7 265.012 1531.39 Q268.206 1534.07 268.206 1538.56 Q268.206 1540.69 267.396 1542.61 Q266.609 1544.51 264.503 1547.11 Q263.924 1547.78 260.822 1550.99 Q257.72 1554.19 252.072 1559.95 Z" fill="#9eb1be" fill-rule="nonzero" fill-opacity="1" /><path clip-path="url(#clip180)" d="M291.054 1533.4 L279.248 1551.85 L291.054 1551.85 L291.054 1533.4 M289.827 1529.33 L295.706 1529.33 L295.706 1551.85 L300.637 1551.85 L300.637 1555.74 L295.706 1555.74 L295.706 1563.89 L291.054 1563.89 L291.054 1555.74 L275.452 1555.74 L275.452 1551.23 L289.827 1529.33 Z" fill="#9eb1be" fill-rule="nonzero" fill-opacity="1" /><path clip-path="url(#clip180)" d="M305.614 1549 L318.09 1549 L318.09 1552.8 L305.614 1552.8 L305.614 1549 Z" fill="#9eb1be" fill-rule="nonzero" fill-opacity="1" /><path clip-path="url(#clip180)" d="M335.475 1532.41 Q331.864 1532.41 330.035 1535.97 Q328.229 1539.51 328.229 1546.64 Q328.229 1553.75 330.035 1557.31 Q331.864 1560.86 335.475 1560.86 Q339.109 1560.86 340.914 1557.31 Q342.743 1553.75 342.743 1546.64 Q342.743 1539.51 340.914 1535.97 Q339.109 1532.41 335.475 1532.41 M335.475 1528.7 Q341.285 1528.7 344.34 1533.31 Q347.419 1537.89 347.419 1546.64 Q347.419 1555.37 344.34 1559.98 Q341.285 1564.56 335.475 1564.56 Q329.664 1564.56 326.586 1559.98 Q323.53 1555.37 323.53 1546.64 Q323.53 1537.89 326.586 1533.31 Q329.664 1528.7 335.475 1528.7 Z" fill="#9eb1be" fill-rule="nonzero" fill-opacity="1" /><path clip-path="url(#clip180)" d="M356.447 1559.95 L364.086 1559.95 L364.086 1533.59 L355.775 1535.25 L355.775 1530.99 L364.039 1529.33 L368.715 1529.33 L368.715 1559.95 L376.354 1559.95 L376.354 1563.89 L356.447 1563.89 L356.447 1559.95 Z" fill="#9eb1be" fill-rule="nonzero" fill-opacity="1" /><path clip-path="url(#clip180)" d="M383.044 1549 L395.521 1549 L395.521 1552.8 L383.044 1552.8 L383.044 1549 Z" fill="#9eb1be" fill-rule="nonzero" fill-opacity="1" /><path clip-path="url(#clip180)" d="M412.905 1532.41 Q409.294 1532.41 407.465 1535.97 Q405.659 1539.51 405.659 1546.64 Q405.659 1553.75 407.465 1557.31 Q409.294 1560.86 412.905 1560.86 Q416.539 1560.86 418.345 1557.31 Q420.173 1553.75 420.173 1546.64 Q420.173 1539.51 418.345 1535.97 Q416.539 1532.41 412.905 1532.41 M412.905 1528.7 Q418.715 1528.7 421.77 1533.31 Q424.849 1537.89 424.849 1546.64 Q424.849 1555.37 421.77 1559.98 Q418.715 1564.56 412.905 1564.56 Q407.095 1564.56 404.016 1559.98 Q400.96 1555.37 400.96 1546.64 Q400.96 1537.89 404.016 1533.31 Q407.095 1528.7 412.905 1528.7 Z" fill="#9eb1be" fill-rule="nonzero" fill-opacity="1" /><path clip-path="url(#clip180)" d="M433.877 1559.95 L441.516 1559.95 L441.516 1533.59 L433.206 1535.25 L433.206 1530.99 L441.469 1529.33 L446.145 1529.33 L446.145 1559.95 L453.784 1559.95 L453.784 1563.89 L433.877 1563.89 L433.877 1559.95 Z" fill="#9eb1be" fill-rule="nonzero" fill-opacity="1" /><path clip-path="url(#clip180)" d="M925.659 1559.95 L941.979 1559.95 L941.979 1563.89 L920.034 1563.89 L920.034 1559.95 Q922.696 1557.2 927.28 1552.57 Q931.886 1547.92 933.067 1546.57 Q935.312 1544.05 936.192 1542.31 Q937.094 1540.55 937.094 1538.86 Q937.094 1536.11 935.15 1534.37 Q933.229 1532.64 930.127 1532.64 Q927.928 1532.64 925.474 1533.4 Q923.044 1534.17 920.266 1535.72 L920.266 1530.99 Q923.09 1529.86 925.544 1529.28 Q927.997 1528.7 930.034 1528.7 Q935.405 1528.7 938.599 1531.39 Q941.793 1534.07 941.793 1538.56 Q941.793 1540.69 940.983 1542.61 Q940.196 1544.51 938.09 1547.11 Q937.511 1547.78 934.409 1550.99 Q931.307 1554.19 925.659 1559.95 Z" fill="#9eb1be" fill-rule="nonzero" fill-opacity="1" /><path clip-path="url(#clip180)" d="M961.793 1532.41 Q958.182 1532.41 956.354 1535.97 Q954.548 1539.51 954.548 1546.64 Q954.548 1553.75 956.354 1557.31 Q958.182 1560.86 961.793 1560.86 Q965.428 1560.86 967.233 1557.31 Q969.062 1553.75 969.062 1546.64 Q969.062 1539.51 967.233 1535.97 Q965.428 1532.41 961.793 1532.41 M961.793 1528.7 Q967.603 1528.7 970.659 1533.31 Q973.738 1537.89 973.738 1546.64 Q973.738 1555.37 970.659 1559.98 Q967.603 1564.56 961.793 1564.56 Q955.983 1564.56 952.905 1559.98 Q949.849 1555.37 949.849 1546.64 Q949.849 1537.89 952.905 1533.31 Q955.983 1528.7 961.793 1528.7 Z" fill="#9eb1be" fill-rule="nonzero" fill-opacity="1" /><path clip-path="url(#clip180)" d="M985.983 1559.95 L1002.3 1559.95 L1002.3 1563.89 L980.358 1563.89 L980.358 1559.95 Q983.02 1557.2 987.603 1552.57 Q992.21 1547.92 993.39 1546.57 Q995.636 1544.05 996.515 1542.31 Q997.418 1540.55 997.418 1538.86 Q997.418 1536.11 995.474 1534.37 Q993.552 1532.64 990.451 1532.64 Q988.252 1532.64 985.798 1533.4 Q983.367 1534.17 980.59 1535.72 L980.59 1530.99 Q983.414 1529.86 985.867 1529.28 Q988.321 1528.7 990.358 1528.7 Q995.728 1528.7 998.923 1531.39 Q1002.12 1534.07 1002.12 1538.56 Q1002.12 1540.69 1001.31 1542.61 Q1000.52 1544.51 998.414 1547.11 Q997.835 1547.78 994.733 1550.99 Q991.631 1554.19 985.983 1559.95 Z" fill="#9eb1be" fill-rule="nonzero" fill-opacity="1" /><path clip-path="url(#clip180)" d="M1024.96 1533.4 L1013.16 1551.85 L1024.96 1551.85 L1024.96 1533.4 M1023.74 1529.33 L1029.62 1529.33 L1029.62 1551.85 L1034.55 1551.85 L1034.55 1555.74 L1029.62 1555.74 L1029.62 1563.89 L1024.96 1563.89 L1024.96 1555.74 L1009.36 1555.74 L1009.36 1551.23 L1023.74 1529.33 Z" fill="#9eb1be" fill-rule="nonzero" fill-opacity="1" /><path clip-path="url(#clip180)" d="M1039.52 1549 L1052 1549 L1052 1552.8 L1039.52 1552.8 L1039.52 1549 Z" fill="#9eb1be" fill-rule="nonzero" fill-opacity="1" /><path clip-path="url(#clip180)" d="M1069.39 1532.41 Q1065.77 1532.41 1063.95 1535.97 Q1062.14 1539.51 1062.14 1546.64 Q1062.14 1553.75 1063.95 1557.31 Q1065.77 1560.86 1069.39 1560.86 Q1073.02 1560.86 1074.83 1557.31 Q1076.65 1553.75 1076.65 1546.64 Q1076.65 1539.51 1074.83 1535.97 Q1073.02 1532.41 1069.39 1532.41 M1069.39 1528.7 Q1075.2 1528.7 1078.25 1533.31 Q1081.33 1537.89 1081.33 1546.64 Q1081.33 1555.37 1078.25 1559.98 Q1075.2 1564.56 1069.39 1564.56 Q1063.58 1564.56 1060.5 1559.98 Q1057.44 1555.37 1057.44 1546.64 Q1057.44 1537.89 1060.5 1533.31 Q1063.58 1528.7 1069.39 1528.7 Z" fill="#9eb1be" fill-rule="nonzero" fill-opacity="1" /><path clip-path="url(#clip180)" d="M1090.36 1559.95 L1098 1559.95 L1098 1533.59 L1089.69 1535.25 L1089.69 1530.99 L1097.95 1529.33 L1102.63 1529.33 L1102.63 1559.95 L1110.26 1559.95 L1110.26 1563.89 L1090.36 1563.89 L1090.36 1559.95 Z" fill="#9eb1be" fill-rule="nonzero" fill-opacity="1" /><path clip-path="url(#clip180)" d="M1116.95 1549 L1129.43 1549 L1129.43 1552.8 L1116.95 1552.8 L1116.95 1549 Z" fill="#9eb1be" fill-rule="nonzero" fill-opacity="1" /><path clip-path="url(#clip180)" d="M1146.82 1532.41 Q1143.2 1532.41 1141.38 1535.97 Q1139.57 1539.51 1139.57 1546.64 Q1139.57 1553.75 1141.38 1557.31 Q1143.2 1560.86 1146.82 1560.86 Q1150.45 1560.86 1152.26 1557.31 Q1154.08 1553.75 1154.08 1546.64 Q1154.08 1539.51 1152.26 1535.97 Q1150.45 1532.41 1146.82 1532.41 M1146.82 1528.7 Q1152.63 1528.7 1155.68 1533.31 Q1158.76 1537.89 1158.76 1546.64 Q1158.76 1555.37 1155.68 1559.98 Q1152.63 1564.56 1146.82 1564.56 Q1141.01 1564.56 1137.93 1559.98 Q1134.87 1555.37 1134.87 1546.64 Q1134.87 1537.89 1137.93 1533.31 Q1141.01 1528.7 1146.82 1528.7 Z" fill="#9eb1be" fill-rule="nonzero" fill-opacity="1" /><path clip-path="url(#clip180)" d="M1167.12 1563.17 L1167.12 1558.91 Q1168.88 1559.74 1170.68 1560.18 Q1172.49 1560.62 1174.22 1560.62 Q1178.85 1560.62 1181.28 1557.52 Q1183.74 1554.4 1184.08 1548.05 Q1182.74 1550.05 1180.68 1551.11 Q1178.62 1552.17 1176.12 1552.17 Q1170.94 1552.17 1167.9 1549.05 Q1164.89 1545.9 1164.89 1540.46 Q1164.89 1535.14 1168.04 1531.92 Q1171.19 1528.7 1176.42 1528.7 Q1182.42 1528.7 1185.57 1533.31 Q1188.74 1537.89 1188.74 1546.64 Q1188.74 1554.81 1184.85 1559.7 Q1180.98 1564.56 1174.43 1564.56 Q1172.67 1564.56 1170.87 1564.21 Q1169.06 1563.86 1167.12 1563.17 M1176.42 1548.52 Q1179.57 1548.52 1181.4 1546.36 Q1183.25 1544.21 1183.25 1540.46 Q1183.25 1536.74 1181.4 1534.58 Q1179.57 1532.41 1176.42 1532.41 Q1173.27 1532.41 1171.42 1534.58 Q1169.59 1536.74 1169.59 1540.46 Q1169.59 1544.21 1171.42 1546.36 Q1173.27 1548.52 1176.42 1548.52 Z" fill="#9eb1be" fill-rule="nonzero" fill-opacity="1" /><path clip-path="url(#clip180)" d="M1660.45 1559.95 L1676.77 1559.95 L1676.77 1563.89 L1654.82 1563.89 L1654.82 1559.95 Q1657.49 1557.2 1662.07 1552.57 Q1666.68 1547.92 1667.86 1546.57 Q1670.1 1544.05 1670.98 1542.31 Q1671.88 1540.55 1671.88 1538.86 Q1671.88 1536.11 1669.94 1534.37 Q1668.02 1532.64 1664.92 1532.64 Q1662.72 1532.64 1660.26 1533.4 Q1657.83 1534.17 1655.06 1535.72 L1655.06 1530.99 Q1657.88 1529.86 1660.33 1529.28 Q1662.79 1528.7 1664.82 1528.7 Q1670.19 1528.7 1673.39 1531.39 Q1676.58 1534.07 1676.58 1538.56 Q1676.58 1540.69 1675.77 1542.61 Q1674.99 1544.51 1672.88 1547.11 Q1672.3 1547.78 1669.2 1550.99 Q1666.1 1554.19 1660.45 1559.95 Z" fill="#9eb1be" fill-rule="nonzero" fill-opacity="1" /><path clip-path="url(#clip180)" d="M1696.58 1532.41 Q1692.97 1532.41 1691.14 1535.97 Q1689.34 1539.51 1689.34 1546.64 Q1689.34 1553.75 1691.14 1557.31 Q1692.97 1560.86 1696.58 1560.86 Q1700.22 1560.86 1702.02 1557.31 Q1703.85 1553.75 1703.85 1546.64 Q1703.85 1539.51 1702.02 1535.97 Q1700.22 1532.41 1696.58 1532.41 M1696.58 1528.7 Q1702.39 1528.7 1705.45 1533.31 Q1708.53 1537.89 1708.53 1546.64 Q1708.53 1555.37 1705.45 1559.98 Q1702.39 1564.56 1696.58 1564.56 Q1690.77 1564.56 1687.69 1559.98 Q1684.64 1555.37 1684.64 1546.64 Q1684.64 1537.89 1687.69 1533.31 Q1690.77 1528.7 1696.58 1528.7 Z" fill="#9eb1be" fill-rule="nonzero" fill-opacity="1" /><path clip-path="url(#clip180)" d="M1720.77 1559.95 L1737.09 1559.95 L1737.09 1563.89 L1715.15 1563.89 L1715.15 1559.95 Q1717.81 1557.2 1722.39 1552.57 Q1727 1547.92 1728.18 1546.57 Q1730.43 1544.05 1731.31 1542.31 Q1732.21 1540.55 1732.21 1538.86 Q1732.21 1536.11 1730.26 1534.37 Q1728.34 1532.64 1725.24 1532.64 Q1723.04 1532.64 1720.59 1533.4 Q1718.16 1534.17 1715.38 1535.72 L1715.38 1530.99 Q1718.2 1529.86 1720.66 1529.28 Q1723.11 1528.7 1725.15 1528.7 Q1730.52 1528.7 1733.71 1531.39 Q1736.91 1534.07 1736.91 1538.56 Q1736.91 1540.69 1736.1 1542.61 Q1735.31 1544.51 1733.2 1547.11 Q1732.63 1547.78 1729.52 1550.99 Q1726.42 1554.19 1720.77 1559.95 Z" fill="#9eb1be" fill-rule="nonzero" fill-opacity="1" /><path clip-path="url(#clip180)" d="M1759.75 1533.4 L1747.95 1551.85 L1759.75 1551.85 L1759.75 1533.4 M1758.53 1529.33 L1764.41 1529.33 L1764.41 1551.85 L1769.34 1551.85 L1769.34 1555.74 L1764.41 1555.74 L1764.41 1563.89 L1759.75 1563.89 L1759.75 1555.74 L1744.15 1555.74 L1744.15 1551.23 L1758.53 1529.33 Z" fill="#9eb1be" fill-rule="nonzero" fill-opacity="1" /><path clip-path="url(#clip180)" d="M1774.31 1549 L1786.79 1549 L1786.79 1552.8 L1774.31 1552.8 L1774.31 1549 Z" fill="#9eb1be" fill-rule="nonzero" fill-opacity="1" /><path clip-path="url(#clip180)" d="M1804.18 1532.41 Q1800.56 1532.41 1798.74 1535.97 Q1796.93 1539.51 1796.93 1546.64 Q1796.93 1553.75 1798.74 1557.31 Q1800.56 1560.86 1804.18 1560.86 Q1807.81 1560.86 1809.62 1557.31 Q1811.44 1553.75 1811.44 1546.64 Q1811.44 1539.51 1809.62 1535.97 Q1807.81 1532.41 1804.18 1532.41 M1804.18 1528.7 Q1809.99 1528.7 1813.04 1533.31 Q1816.12 1537.89 1816.12 1546.64 Q1816.12 1555.37 1813.04 1559.98 Q1809.99 1564.56 1804.18 1564.56 Q1798.37 1564.56 1795.29 1559.98 Q1792.23 1555.37 1792.23 1546.64 Q1792.23 1537.89 1795.29 1533.31 Q1798.37 1528.7 1804.18 1528.7 Z" fill="#9eb1be" fill-rule="nonzero" fill-opacity="1" /><path clip-path="url(#clip180)" d="M1825.15 1559.95 L1832.79 1559.95 L1832.79 1533.59 L1824.48 1535.25 L1824.48 1530.99 L1832.74 1529.33 L1837.42 1529.33 L1837.42 1559.95 L1845.06 1559.95 L1845.06 1563.89 L1825.15 1563.89 L1825.15 1559.95 Z" fill="#9eb1be" fill-rule="nonzero" fill-opacity="1" /><path clip-path="url(#clip180)" d="M1851.74 1549 L1864.22 1549 L1864.22 1552.8 L1851.74 1552.8 L1851.74 1549 Z" fill="#9eb1be" fill-rule="nonzero" fill-opacity="1" /><path clip-path="url(#clip180)" d="M1872.42 1559.95 L1880.05 1559.95 L1880.05 1533.59 L1871.74 1535.25 L1871.74 1530.99 L1880.01 1529.33 L1884.68 1529.33 L1884.68 1559.95 L1892.32 1559.95 L1892.32 1563.89 L1872.42 1563.89 L1872.42 1559.95 Z" fill="#9eb1be" fill-rule="nonzero" fill-opacity="1" /><path clip-path="url(#clip180)" d="M1900.59 1529.33 L1922.81 1529.33 L1922.81 1531.32 L1910.26 1563.89 L1905.38 1563.89 L1917.18 1533.26 L1900.59 1533.26 L1900.59 1529.33 Z" fill="#9eb1be" fill-rule="nonzero" fill-opacity="1" /><path clip-path="url(#clip180)" d="M2394.93 1559.95 L2411.25 1559.95 L2411.25 1563.89 L2389.3 1563.89 L2389.3 1559.95 Q2391.96 1557.2 2396.55 1552.57 Q2401.15 1547.92 2402.33 1546.57 Q2404.58 1544.05 2405.46 1542.31 Q2406.36 1540.55 2406.36 1538.86 Q2406.36 1536.11 2404.42 1534.37 Q2402.5 1532.64 2399.4 1532.64 Q2397.2 1532.64 2394.74 1533.4 Q2392.31 1534.17 2389.53 1535.72 L2389.53 1530.99 Q2392.36 1529.86 2394.81 1529.28 Q2397.27 1528.7 2399.3 1528.7 Q2404.67 1528.7 2407.87 1531.39 Q2411.06 1534.07 2411.06 1538.56 Q2411.06 1540.69 2410.25 1542.61 Q2409.46 1544.51 2407.36 1547.11 Q2406.78 1547.78 2403.68 1550.99 Q2400.58 1554.19 2394.93 1559.95 Z" fill="#9eb1be" fill-rule="nonzero" fill-opacity="1" /><path clip-path="url(#clip180)" d="M2431.06 1532.41 Q2427.45 1532.41 2425.62 1535.97 Q2423.82 1539.51 2423.82 1546.64 Q2423.82 1553.75 2425.62 1557.31 Q2427.45 1560.86 2431.06 1560.86 Q2434.7 1560.86 2436.5 1557.31 Q2438.33 1553.75 2438.33 1546.64 Q2438.33 1539.51 2436.5 1535.97 Q2434.7 1532.41 2431.06 1532.41 M2431.06 1528.7 Q2436.87 1528.7 2439.93 1533.31 Q2443.01 1537.89 2443.01 1546.64 Q2443.01 1555.37 2439.93 1559.98 Q2436.87 1564.56 2431.06 1564.56 Q2425.25 1564.56 2422.17 1559.98 Q2419.12 1555.37 2419.12 1546.64 Q2419.12 1537.89 2422.17 1533.31 Q2425.25 1528.7 2431.06 1528.7 Z" fill="#9eb1be" fill-rule="nonzero" fill-opacity="1" /><path clip-path="url(#clip180)" d="M2455.25 1559.95 L2471.57 1559.95 L2471.57 1563.89 L2449.63 1563.89 L2449.63 1559.95 Q2452.29 1557.2 2456.87 1552.57 Q2461.48 1547.92 2462.66 1546.57 Q2464.9 1544.05 2465.78 1542.31 Q2466.69 1540.55 2466.69 1538.86 Q2466.69 1536.11 2464.74 1534.37 Q2462.82 1532.64 2459.72 1532.64 Q2457.52 1532.64 2455.07 1533.4 Q2452.64 1534.17 2449.86 1535.72 L2449.86 1530.99 Q2452.68 1529.86 2455.14 1529.28 Q2457.59 1528.7 2459.63 1528.7 Q2465 1528.7 2468.19 1531.39 Q2471.39 1534.07 2471.39 1538.56 Q2471.39 1540.69 2470.58 1542.61 Q2469.79 1544.51 2467.68 1547.11 Q2467.1 1547.78 2464 1550.99 Q2460.9 1554.19 2455.25 1559.95 Z" fill="#9eb1be" fill-rule="nonzero" fill-opacity="1" /><path clip-path="url(#clip180)" d="M2494.23 1533.4 L2482.43 1551.85 L2494.23 1551.85 L2494.23 1533.4 M2493.01 1529.33 L2498.89 1529.33 L2498.89 1551.85 L2503.82 1551.85 L2503.82 1555.74 L2498.89 1555.74 L2498.89 1563.89 L2494.23 1563.89 L2494.23 1555.74 L2478.63 1555.74 L2478.63 1551.23 L2493.01 1529.33 Z" fill="#9eb1be" fill-rule="nonzero" fill-opacity="1" /><path clip-path="url(#clip180)" d="M2508.79 1549 L2521.27 1549 L2521.27 1552.8 L2508.79 1552.8 L2508.79 1549 Z" fill="#9eb1be" fill-rule="nonzero" fill-opacity="1" /><path clip-path="url(#clip180)" d="M2538.65 1532.41 Q2535.04 1532.41 2533.21 1535.97 Q2531.41 1539.51 2531.41 1546.64 Q2531.41 1553.75 2533.21 1557.31 Q2535.04 1560.86 2538.65 1560.86 Q2542.29 1560.86 2544.09 1557.31 Q2545.92 1553.75 2545.92 1546.64 Q2545.92 1539.51 2544.09 1535.97 Q2542.29 1532.41 2538.65 1532.41 M2538.65 1528.7 Q2544.46 1528.7 2547.52 1533.31 Q2550.6 1537.89 2550.6 1546.64 Q2550.6 1555.37 2547.52 1559.98 Q2544.46 1564.56 2538.65 1564.56 Q2532.84 1564.56 2529.76 1559.98 Q2526.71 1555.37 2526.71 1546.64 Q2526.71 1537.89 2529.76 1533.31 Q2532.84 1528.7 2538.65 1528.7 Z" fill="#9eb1be" fill-rule="nonzero" fill-opacity="1" /><path clip-path="url(#clip180)" d="M2559.63 1559.95 L2567.26 1559.95 L2567.26 1533.59 L2558.95 1535.25 L2558.95 1530.99 L2567.22 1529.33 L2571.89 1529.33 L2571.89 1559.95 L2579.53 1559.95 L2579.53 1563.89 L2559.63 1563.89 L2559.63 1559.95 Z" fill="#9eb1be" fill-rule="nonzero" fill-opacity="1" /><path clip-path="url(#clip180)" d="M2586.22 1549 L2598.7 1549 L2598.7 1552.8 L2586.22 1552.8 L2586.22 1549 Z" fill="#9eb1be" fill-rule="nonzero" fill-opacity="1" /><path clip-path="url(#clip180)" d="M2610.11 1559.95 L2626.43 1559.95 L2626.43 1563.89 L2604.49 1563.89 L2604.49 1559.95 Q2607.15 1557.2 2611.73 1552.57 Q2616.34 1547.92 2617.52 1546.57 Q2619.76 1544.05 2620.64 1542.31 Q2621.55 1540.55 2621.55 1538.86 Q2621.55 1536.11 2619.6 1534.37 Q2617.68 1532.64 2614.58 1532.64 Q2612.38 1532.64 2609.93 1533.4 Q2607.5 1534.17 2604.72 1535.72 L2604.72 1530.99 Q2607.54 1529.86 2610 1529.28 Q2612.45 1528.7 2614.49 1528.7 Q2619.86 1528.7 2623.05 1531.39 Q2626.25 1534.07 2626.25 1538.56 Q2626.25 1540.69 2625.44 1542.61 Q2624.65 1544.51 2622.54 1547.11 Q2621.96 1547.78 2618.86 1550.99 Q2615.76 1554.19 2610.11 1559.95 Z" fill="#9eb1be" fill-rule="nonzero" fill-opacity="1" /><path clip-path="url(#clip180)" d="M2636.29 1529.33 L2654.65 1529.33 L2654.65 1533.26 L2640.57 1533.26 L2640.57 1541.74 Q2641.59 1541.39 2642.61 1541.23 Q2643.63 1541.04 2644.65 1541.04 Q2650.44 1541.04 2653.82 1544.21 Q2657.19 1547.38 2657.19 1552.8 Q2657.19 1558.38 2653.72 1561.48 Q2650.25 1564.56 2643.93 1564.56 Q2641.75 1564.56 2639.49 1564.19 Q2637.24 1563.82 2634.83 1563.08 L2634.83 1558.38 Q2636.92 1559.51 2639.14 1560.07 Q2641.36 1560.62 2643.84 1560.62 Q2647.84 1560.62 2650.18 1558.52 Q2652.52 1556.41 2652.52 1552.8 Q2652.52 1549.19 2650.18 1547.08 Q2647.84 1544.98 2643.84 1544.98 Q2641.96 1544.98 2640.09 1545.39 Q2638.24 1545.81 2636.29 1546.69 L2636.29 1529.33 Z" fill="#9eb1be" fill-rule="nonzero" fill-opacity="1" /><polyline clip-path="url(#clip180)" style="stroke:#adb2b7; stroke-linecap:round; stroke-linejoin:round; stroke-width:4; stroke-opacity:1; fill:none" points="237.445,1495.09 237.445,108.352 "/>
<polyline clip-path="url(#clip180)" style="stroke:#adb2b7; stroke-linecap:round; stroke-linejoin:round; stroke-width:4; stroke-opacity:1; fill:none" points="237.445,1291.05 256.343,1291.05 "/>
<polyline clip-path="url(#clip180)" style="stroke:#adb2b7; stroke-linecap:round; stroke-linejoin:round; stroke-width:4; stroke-opacity:1; fill:none" points="237.445,1084.76 256.343,1084.76 "/>
<polyline clip-path="url(#clip180)" style="stroke:#adb2b7; stroke-linecap:round; stroke-linejoin:round; stroke-width:4; stroke-opacity:1; fill:none" points="237.445,878.474 256.343,878.474 "/>
<polyline clip-path="url(#clip180)" style="stroke:#adb2b7; stroke-linecap:round; stroke-linejoin:round; stroke-width:4; stroke-opacity:1; fill:none" points="237.445,672.184 256.343,672.184 "/>
<polyline clip-path="url(#clip180)" style="stroke:#adb2b7; stroke-linecap:round; stroke-linejoin:round; stroke-width:4; stroke-opacity:1; fill:none" points="237.445,465.894 256.343,465.894 "/>
<polyline clip-path="url(#clip180)" style="stroke:#adb2b7; stroke-linecap:round; stroke-linejoin:round; stroke-width:4; stroke-opacity:1; fill:none" points="237.445,259.604 256.343,259.604 "/>
<path clip-path="url(#clip180)" d="M47.6634 1304.4 L55.3023 1304.4 L55.3023 1278.03 L46.9921 1279.7 L46.9921 1275.44 L55.256 1273.77 L59.9319 1273.77 L59.9319 1304.4 L67.5707 1304.4 L67.5707 1308.33 L47.6634 1308.33 L47.6634 1304.4 Z" fill="#9eb1be" fill-rule="nonzero" fill-opacity="1" /><path clip-path="url(#clip180)" d="M87.0151 1276.85 Q83.404 1276.85 81.5753 1280.42 Q79.7697 1283.96 79.7697 1291.09 Q79.7697 1298.19 81.5753 1301.76 Q83.404 1305.3 87.0151 1305.3 Q90.6493 1305.3 92.4548 1301.76 Q94.2835 1298.19 94.2835 1291.09 Q94.2835 1283.96 92.4548 1280.42 Q90.6493 1276.85 87.0151 1276.85 M87.0151 1273.15 Q92.8252 1273.15 95.8808 1277.75 Q98.9594 1282.34 98.9594 1291.09 Q98.9594 1299.81 95.8808 1304.42 Q92.8252 1309 87.0151 1309 Q81.2049 1309 78.1262 1304.42 Q75.0707 1299.81 75.0707 1291.09 Q75.0707 1282.34 78.1262 1277.75 Q81.2049 1273.15 87.0151 1273.15 Z" fill="#9eb1be" fill-rule="nonzero" fill-opacity="1" /><path clip-path="url(#clip180)" d="M117.177 1276.85 Q113.566 1276.85 111.737 1280.42 Q109.932 1283.96 109.932 1291.09 Q109.932 1298.19 111.737 1301.76 Q113.566 1305.3 117.177 1305.3 Q120.811 1305.3 122.617 1301.76 Q124.445 1298.19 124.445 1291.09 Q124.445 1283.96 122.617 1280.42 Q120.811 1276.85 117.177 1276.85 M117.177 1273.15 Q122.987 1273.15 126.043 1277.75 Q129.121 1282.34 129.121 1291.09 Q129.121 1299.81 126.043 1304.42 Q122.987 1309 117.177 1309 Q111.367 1309 108.288 1304.42 Q105.233 1299.81 105.233 1291.09 Q105.233 1282.34 108.288 1277.75 Q111.367 1273.15 117.177 1273.15 Z" fill="#9eb1be" fill-rule="nonzero" fill-opacity="1" /><path clip-path="url(#clip180)" d="M147.339 1276.85 Q143.728 1276.85 141.899 1280.42 Q140.093 1283.96 140.093 1291.09 Q140.093 1298.19 141.899 1301.76 Q143.728 1305.3 147.339 1305.3 Q150.973 1305.3 152.779 1301.76 Q154.607 1298.19 154.607 1291.09 Q154.607 1283.96 152.779 1280.42 Q150.973 1276.85 147.339 1276.85 M147.339 1273.15 Q153.149 1273.15 156.205 1277.75 Q159.283 1282.34 159.283 1291.09 Q159.283 1299.81 156.205 1304.42 Q153.149 1309 147.339 1309 Q141.529 1309 138.45 1304.42 Q135.394 1299.81 135.394 1291.09 Q135.394 1282.34 138.45 1277.75 Q141.529 1273.15 147.339 1273.15 Z" fill="#9eb1be" fill-rule="nonzero" fill-opacity="1" /><path clip-path="url(#clip180)" d="M177.501 1276.85 Q173.89 1276.85 172.061 1280.42 Q170.255 1283.96 170.255 1291.09 Q170.255 1298.19 172.061 1301.76 Q173.89 1305.3 177.501 1305.3 Q181.135 1305.3 182.94 1301.76 Q184.769 1298.19 184.769 1291.09 Q184.769 1283.96 182.94 1280.42 Q181.135 1276.85 177.501 1276.85 M177.501 1273.15 Q183.311 1273.15 186.366 1277.75 Q189.445 1282.34 189.445 1291.09 Q189.445 1299.81 186.366 1304.42 Q183.311 1309 177.501 1309 Q171.691 1309 168.612 1304.42 Q165.556 1299.81 165.556 1291.09 Q165.556 1282.34 168.612 1277.75 Q171.691 1273.15 177.501 1273.15 Z" fill="#9eb1be" fill-rule="nonzero" fill-opacity="1" /><path clip-path="url(#clip180)" d="M47.6634 1098.11 L55.3023 1098.11 L55.3023 1071.74 L46.9921 1073.41 L46.9921 1069.15 L55.256 1067.48 L59.9319 1067.48 L59.9319 1098.11 L67.5707 1098.11 L67.5707 1102.04 L47.6634 1102.04 L47.6634 1098.11 Z" fill="#9eb1be" fill-rule="nonzero" fill-opacity="1" /><path clip-path="url(#clip180)" d="M87.0151 1070.56 Q83.404 1070.56 81.5753 1074.13 Q79.7697 1077.67 79.7697 1084.8 Q79.7697 1091.9 81.5753 1095.47 Q83.404 1099.01 87.0151 1099.01 Q90.6493 1099.01 92.4548 1095.47 Q94.2835 1091.9 94.2835 1084.8 Q94.2835 1077.67 92.4548 1074.13 Q90.6493 1070.56 87.0151 1070.56 M87.0151 1066.86 Q92.8252 1066.86 95.8808 1071.46 Q98.9594 1076.05 98.9594 1084.8 Q98.9594 1093.53 95.8808 1098.13 Q92.8252 1102.71 87.0151 1102.71 Q81.2049 1102.71 78.1262 1098.13 Q75.0707 1093.53 75.0707 1084.8 Q75.0707 1076.05 78.1262 1071.46 Q81.2049 1066.86 87.0151 1066.86 Z" fill="#9eb1be" fill-rule="nonzero" fill-opacity="1" /><path clip-path="url(#clip180)" d="M107.223 1067.48 L125.58 1067.48 L125.58 1071.42 L111.506 1071.42 L111.506 1079.89 Q112.524 1079.54 113.543 1079.38 Q114.561 1079.2 115.58 1079.2 Q121.367 1079.2 124.746 1082.37 Q128.126 1085.54 128.126 1090.96 Q128.126 1096.53 124.654 1099.64 Q121.182 1102.71 114.862 1102.71 Q112.686 1102.71 110.418 1102.34 Q108.172 1101.97 105.765 1101.23 L105.765 1096.53 Q107.848 1097.67 110.07 1098.22 Q112.293 1098.78 114.77 1098.78 Q118.774 1098.78 121.112 1096.67 Q123.45 1094.57 123.45 1090.96 Q123.45 1087.34 121.112 1085.24 Q118.774 1083.13 114.77 1083.13 Q112.895 1083.13 111.02 1083.55 Q109.168 1083.96 107.223 1084.84 L107.223 1067.48 Z" fill="#9eb1be" fill-rule="nonzero" fill-opacity="1" /><path clip-path="url(#clip180)" d="M147.339 1070.56 Q143.728 1070.56 141.899 1074.13 Q140.093 1077.67 140.093 1084.8 Q140.093 1091.9 141.899 1095.47 Q143.728 1099.01 147.339 1099.01 Q150.973 1099.01 152.779 1095.47 Q154.607 1091.9 154.607 1084.8 Q154.607 1077.67 152.779 1074.13 Q150.973 1070.56 147.339 1070.56 M147.339 1066.86 Q153.149 1066.86 156.205 1071.46 Q159.283 1076.05 159.283 1084.8 Q159.283 1093.53 156.205 1098.13 Q153.149 1102.71 147.339 1102.71 Q141.529 1102.71 138.45 1098.13 Q135.394 1093.53 135.394 1084.8 Q135.394 1076.05 138.45 1071.46 Q141.529 1066.86 147.339 1066.86 Z" fill="#9eb1be" fill-rule="nonzero" fill-opacity="1" /><path clip-path="url(#clip180)" d="M177.501 1070.56 Q173.89 1070.56 172.061 1074.13 Q170.255 1077.67 170.255 1084.8 Q170.255 1091.9 172.061 1095.47 Q173.89 1099.01 177.501 1099.01 Q181.135 1099.01 182.94 1095.47 Q184.769 1091.9 184.769 1084.8 Q184.769 1077.67 182.94 1074.13 Q181.135 1070.56 177.501 1070.56 M177.501 1066.86 Q183.311 1066.86 186.366 1071.46 Q189.445 1076.05 189.445 1084.8 Q189.445 1093.53 186.366 1098.13 Q183.311 1102.71 177.501 1102.71 Q171.691 1102.71 168.612 1098.13 Q165.556 1093.53 165.556 1084.8 Q165.556 1076.05 168.612 1071.46 Q171.691 1066.86 177.501 1066.86 Z" fill="#9eb1be" fill-rule="nonzero" fill-opacity="1" /><path clip-path="url(#clip180)" d="M47.6634 891.818 L55.3023 891.818 L55.3023 865.453 L46.9921 867.12 L46.9921 862.86 L55.256 861.194 L59.9319 861.194 L59.9319 891.818 L67.5707 891.818 L67.5707 895.754 L47.6634 895.754 L47.6634 891.818 Z" fill="#9eb1be" fill-rule="nonzero" fill-opacity="1" /><path clip-path="url(#clip180)" d="M77.8253 891.818 L85.4641 891.818 L85.4641 865.453 L77.154 867.12 L77.154 862.86 L85.4178 861.194 L90.0937 861.194 L90.0937 891.818 L97.7326 891.818 L97.7326 895.754 L77.8253 895.754 L77.8253 891.818 Z" fill="#9eb1be" fill-rule="nonzero" fill-opacity="1" /><path clip-path="url(#clip180)" d="M117.177 864.272 Q113.566 864.272 111.737 867.837 Q109.932 871.379 109.932 878.508 Q109.932 885.615 111.737 889.18 Q113.566 892.721 117.177 892.721 Q120.811 892.721 122.617 889.18 Q124.445 885.615 124.445 878.508 Q124.445 871.379 122.617 867.837 Q120.811 864.272 117.177 864.272 M117.177 860.569 Q122.987 860.569 126.043 865.175 Q129.121 869.758 129.121 878.508 Q129.121 887.235 126.043 891.842 Q122.987 896.425 117.177 896.425 Q111.367 896.425 108.288 891.842 Q105.233 887.235 105.233 878.508 Q105.233 869.758 108.288 865.175 Q111.367 860.569 117.177 860.569 Z" fill="#9eb1be" fill-rule="nonzero" fill-opacity="1" /><path clip-path="url(#clip180)" d="M147.339 864.272 Q143.728 864.272 141.899 867.837 Q140.093 871.379 140.093 878.508 Q140.093 885.615 141.899 889.18 Q143.728 892.721 147.339 892.721 Q150.973 892.721 152.779 889.18 Q154.607 885.615 154.607 878.508 Q154.607 871.379 152.779 867.837 Q150.973 864.272 147.339 864.272 M147.339 860.569 Q153.149 860.569 156.205 865.175 Q159.283 869.758 159.283 878.508 Q159.283 887.235 156.205 891.842 Q153.149 896.425 147.339 896.425 Q141.529 896.425 138.45 891.842 Q135.394 887.235 135.394 878.508 Q135.394 869.758 138.45 865.175 Q141.529 860.569 147.339 860.569 Z" fill="#9eb1be" fill-rule="nonzero" fill-opacity="1" /><path clip-path="url(#clip180)" d="M177.501 864.272 Q173.89 864.272 172.061 867.837 Q170.255 871.379 170.255 878.508 Q170.255 885.615 172.061 889.18 Q173.89 892.721 177.501 892.721 Q181.135 892.721 182.94 889.18 Q184.769 885.615 184.769 878.508 Q184.769 871.379 182.94 867.837 Q181.135 864.272 177.501 864.272 M177.501 860.569 Q183.311 860.569 186.366 865.175 Q189.445 869.758 189.445 878.508 Q189.445 887.235 186.366 891.842 Q183.311 896.425 177.501 896.425 Q171.691 896.425 168.612 891.842 Q165.556 887.235 165.556 878.508 Q165.556 869.758 168.612 865.175 Q171.691 860.569 177.501 860.569 Z" fill="#9eb1be" fill-rule="nonzero" fill-opacity="1" /><path clip-path="url(#clip180)" d="M47.6634 685.529 L55.3023 685.529 L55.3023 659.163 L46.9921 660.83 L46.9921 656.57 L55.256 654.904 L59.9319 654.904 L59.9319 685.529 L67.5707 685.529 L67.5707 689.464 L47.6634 689.464 L47.6634 685.529 Z" fill="#9eb1be" fill-rule="nonzero" fill-opacity="1" /><path clip-path="url(#clip180)" d="M77.8253 685.529 L85.4641 685.529 L85.4641 659.163 L77.154 660.83 L77.154 656.57 L85.4178 654.904 L90.0937 654.904 L90.0937 685.529 L97.7326 685.529 L97.7326 689.464 L77.8253 689.464 L77.8253 685.529 Z" fill="#9eb1be" fill-rule="nonzero" fill-opacity="1" /><path clip-path="url(#clip180)" d="M107.223 654.904 L125.58 654.904 L125.58 658.839 L111.506 658.839 L111.506 667.311 Q112.524 666.964 113.543 666.802 Q114.561 666.617 115.58 666.617 Q121.367 666.617 124.746 669.788 Q128.126 672.959 128.126 678.376 Q128.126 683.955 124.654 687.056 Q121.182 690.135 114.862 690.135 Q112.686 690.135 110.418 689.765 Q108.172 689.394 105.765 688.654 L105.765 683.955 Q107.848 685.089 110.07 685.644 Q112.293 686.2 114.77 686.2 Q118.774 686.2 121.112 684.093 Q123.45 681.987 123.45 678.376 Q123.45 674.765 121.112 672.658 Q118.774 670.552 114.77 670.552 Q112.895 670.552 111.02 670.968 Q109.168 671.385 107.223 672.265 L107.223 654.904 Z" fill="#9eb1be" fill-rule="nonzero" fill-opacity="1" /><path clip-path="url(#clip180)" d="M147.339 657.982 Q143.728 657.982 141.899 661.547 Q140.093 665.089 140.093 672.218 Q140.093 679.325 141.899 682.89 Q143.728 686.431 147.339 686.431 Q150.973 686.431 152.779 682.89 Q154.607 679.325 154.607 672.218 Q154.607 665.089 152.779 661.547 Q150.973 657.982 147.339 657.982 M147.339 654.279 Q153.149 654.279 156.205 658.885 Q159.283 663.469 159.283 672.218 Q159.283 680.945 156.205 685.552 Q153.149 690.135 147.339 690.135 Q141.529 690.135 138.45 685.552 Q135.394 680.945 135.394 672.218 Q135.394 663.469 138.45 658.885 Q141.529 654.279 147.339 654.279 Z" fill="#9eb1be" fill-rule="nonzero" fill-opacity="1" /><path clip-path="url(#clip180)" d="M177.501 657.982 Q173.89 657.982 172.061 661.547 Q170.255 665.089 170.255 672.218 Q170.255 679.325 172.061 682.89 Q173.89 686.431 177.501 686.431 Q181.135 686.431 182.94 682.89 Q184.769 679.325 184.769 672.218 Q184.769 665.089 182.94 661.547 Q181.135 657.982 177.501 657.982 M177.501 654.279 Q183.311 654.279 186.366 658.885 Q189.445 663.469 189.445 672.218 Q189.445 680.945 186.366 685.552 Q183.311 690.135 177.501 690.135 Q171.691 690.135 168.612 685.552 Q165.556 680.945 165.556 672.218 Q165.556 663.469 168.612 658.885 Q171.691 654.279 177.501 654.279 Z" fill="#9eb1be" fill-rule="nonzero" fill-opacity="1" /><path clip-path="url(#clip180)" d="M47.6634 479.239 L55.3023 479.239 L55.3023 452.873 L46.9921 454.54 L46.9921 450.28 L55.256 448.614 L59.9319 448.614 L59.9319 479.239 L67.5707 479.239 L67.5707 483.174 L47.6634 483.174 L47.6634 479.239 Z" fill="#9eb1be" fill-rule="nonzero" fill-opacity="1" /><path clip-path="url(#clip180)" d="M81.0429 479.239 L97.3622 479.239 L97.3622 483.174 L75.4179 483.174 L75.4179 479.239 Q78.0799 476.484 82.6632 471.854 Q87.2697 467.202 88.4502 465.859 Q90.6956 463.336 91.5752 461.6 Q92.478 459.841 92.478 458.151 Q92.478 455.396 90.5336 453.66 Q88.6123 451.924 85.5104 451.924 Q83.3114 451.924 80.8577 452.688 Q78.4271 453.452 75.6494 455.003 L75.6494 450.28 Q78.4734 449.146 80.9271 448.568 Q83.3808 447.989 85.4178 447.989 Q90.7882 447.989 93.9826 450.674 Q97.177 453.359 97.177 457.85 Q97.177 459.98 96.3669 461.901 Q95.5798 463.799 93.4734 466.392 Q92.8947 467.063 89.7928 470.28 Q86.691 473.475 81.0429 479.239 Z" fill="#9eb1be" fill-rule="nonzero" fill-opacity="1" /><path clip-path="url(#clip180)" d="M117.177 451.693 Q113.566 451.693 111.737 455.257 Q109.932 458.799 109.932 465.929 Q109.932 473.035 111.737 476.6 Q113.566 480.141 117.177 480.141 Q120.811 480.141 122.617 476.6 Q124.445 473.035 124.445 465.929 Q124.445 458.799 122.617 455.257 Q120.811 451.693 117.177 451.693 M117.177 447.989 Q122.987 447.989 126.043 452.595 Q129.121 457.179 129.121 465.929 Q129.121 474.655 126.043 479.262 Q122.987 483.845 117.177 483.845 Q111.367 483.845 108.288 479.262 Q105.233 474.655 105.233 465.929 Q105.233 457.179 108.288 452.595 Q111.367 447.989 117.177 447.989 Z" fill="#9eb1be" fill-rule="nonzero" fill-opacity="1" /><path clip-path="url(#clip180)" d="M147.339 451.693 Q143.728 451.693 141.899 455.257 Q140.093 458.799 140.093 465.929 Q140.093 473.035 141.899 476.6 Q143.728 480.141 147.339 480.141 Q150.973 480.141 152.779 476.6 Q154.607 473.035 154.607 465.929 Q154.607 458.799 152.779 455.257 Q150.973 451.693 147.339 451.693 M147.339 447.989 Q153.149 447.989 156.205 452.595 Q159.283 457.179 159.283 465.929 Q159.283 474.655 156.205 479.262 Q153.149 483.845 147.339 483.845 Q141.529 483.845 138.45 479.262 Q135.394 474.655 135.394 465.929 Q135.394 457.179 138.45 452.595 Q141.529 447.989 147.339 447.989 Z" fill="#9eb1be" fill-rule="nonzero" fill-opacity="1" /><path clip-path="url(#clip180)" d="M177.501 451.693 Q173.89 451.693 172.061 455.257 Q170.255 458.799 170.255 465.929 Q170.255 473.035 172.061 476.6 Q173.89 480.141 177.501 480.141 Q181.135 480.141 182.94 476.6 Q184.769 473.035 184.769 465.929 Q184.769 458.799 182.94 455.257 Q181.135 451.693 177.501 451.693 M177.501 447.989 Q183.311 447.989 186.366 452.595 Q189.445 457.179 189.445 465.929 Q189.445 474.655 186.366 479.262 Q183.311 483.845 177.501 483.845 Q171.691 483.845 168.612 479.262 Q165.556 474.655 165.556 465.929 Q165.556 457.179 168.612 452.595 Q171.691 447.989 177.501 447.989 Z" fill="#9eb1be" fill-rule="nonzero" fill-opacity="1" /><path clip-path="url(#clip180)" d="M47.6634 272.949 L55.3023 272.949 L55.3023 246.583 L46.9921 248.25 L46.9921 243.991 L55.256 242.324 L59.9319 242.324 L59.9319 272.949 L67.5707 272.949 L67.5707 276.884 L47.6634 276.884 L47.6634 272.949 Z" fill="#9eb1be" fill-rule="nonzero" fill-opacity="1" /><path clip-path="url(#clip180)" d="M81.0429 272.949 L97.3622 272.949 L97.3622 276.884 L75.4179 276.884 L75.4179 272.949 Q78.0799 270.194 82.6632 265.565 Q87.2697 260.912 88.4502 259.569 Q90.6956 257.046 91.5752 255.31 Q92.478 253.551 92.478 251.861 Q92.478 249.106 90.5336 247.37 Q88.6123 245.634 85.5104 245.634 Q83.3114 245.634 80.8577 246.398 Q78.4271 247.162 75.6494 248.713 L75.6494 243.991 Q78.4734 242.856 80.9271 242.278 Q83.3808 241.699 85.4178 241.699 Q90.7882 241.699 93.9826 244.384 Q97.177 247.069 97.177 251.56 Q97.177 253.69 96.3669 255.611 Q95.5798 257.509 93.4734 260.102 Q92.8947 260.773 89.7928 263.99 Q86.691 267.185 81.0429 272.949 Z" fill="#9eb1be" fill-rule="nonzero" fill-opacity="1" /><path clip-path="url(#clip180)" d="M107.223 242.324 L125.58 242.324 L125.58 246.259 L111.506 246.259 L111.506 254.731 Q112.524 254.384 113.543 254.222 Q114.561 254.037 115.58 254.037 Q121.367 254.037 124.746 257.208 Q128.126 260.379 128.126 265.796 Q128.126 271.375 124.654 274.477 Q121.182 277.555 114.862 277.555 Q112.686 277.555 110.418 277.185 Q108.172 276.815 105.765 276.074 L105.765 271.375 Q107.848 272.509 110.07 273.065 Q112.293 273.62 114.77 273.62 Q118.774 273.62 121.112 271.514 Q123.45 269.407 123.45 265.796 Q123.45 262.185 121.112 260.078 Q118.774 257.972 114.77 257.972 Q112.895 257.972 111.02 258.389 Q109.168 258.805 107.223 259.685 L107.223 242.324 Z" fill="#9eb1be" fill-rule="nonzero" fill-opacity="1" /><path clip-path="url(#clip180)" d="M147.339 245.403 Q143.728 245.403 141.899 248.967 Q140.093 252.509 140.093 259.639 Q140.093 266.745 141.899 270.31 Q143.728 273.852 147.339 273.852 Q150.973 273.852 152.779 270.31 Q154.607 266.745 154.607 259.639 Q154.607 252.509 152.779 248.967 Q150.973 245.403 147.339 245.403 M147.339 241.699 Q153.149 241.699 156.205 246.305 Q159.283 250.889 159.283 259.639 Q159.283 268.365 156.205 272.972 Q153.149 277.555 147.339 277.555 Q141.529 277.555 138.45 272.972 Q135.394 268.365 135.394 259.639 Q135.394 250.889 138.45 246.305 Q141.529 241.699 147.339 241.699 Z" fill="#9eb1be" fill-rule="nonzero" fill-opacity="1" /><path clip-path="url(#clip180)" d="M177.501 245.403 Q173.89 245.403 172.061 248.967 Q170.255 252.509 170.255 259.639 Q170.255 266.745 172.061 270.31 Q173.89 273.852 177.501 273.852 Q181.135 273.852 182.94 270.31 Q184.769 266.745 184.769 259.639 Q184.769 252.509 182.94 248.967 Q181.135 245.403 177.501 245.403 M177.501 241.699 Q183.311 241.699 186.366 246.305 Q189.445 250.889 189.445 259.639 Q189.445 268.365 186.366 272.972 Q183.311 277.555 177.501 277.555 Q171.691 277.555 168.612 272.972 Q165.556 268.365 165.556 259.639 Q165.556 250.889 168.612 246.305 Q171.691 241.699 177.501 241.699 Z" fill="#9eb1be" fill-rule="nonzero" fill-opacity="1" /><path clip-path="url(#clip180)" d="M1569.24 12.096 L1607.48 12.096 L1607.48 18.9825 L1577.42 18.9825 L1577.42 36.8875 L1606.22 36.8875 L1606.22 43.7741 L1577.42 43.7741 L1577.42 65.6895 L1608.21 65.6895 L1608.21 72.576 L1569.24 72.576 L1569.24 12.096 Z" fill="#adb2b7" fill-rule="nonzero" fill-opacity="1" /><path clip-path="url(#clip180)" d="M1625.79 49.9314 Q1625.79 58.1548 1629.15 62.8538 Q1632.55 67.5124 1638.47 67.5124 Q1644.38 67.5124 1647.79 62.8538 Q1651.19 58.1548 1651.19 49.9314 Q1651.19 41.7081 1647.79 37.0496 Q1644.38 32.3505 1638.47 32.3505 Q1632.55 32.3505 1629.15 37.0496 Q1625.79 41.7081 1625.79 49.9314 M1651.19 65.7705 Q1648.84 69.8214 1645.23 71.8063 Q1641.67 73.7508 1636.65 73.7508 Q1628.42 73.7508 1623.24 67.1883 Q1618.09 60.6258 1618.09 49.9314 Q1618.09 39.2371 1623.24 32.6746 Q1628.42 26.1121 1636.65 26.1121 Q1641.67 26.1121 1645.23 28.0971 Q1648.84 30.0415 1651.19 34.0924 L1651.19 27.2059 L1658.64 27.2059 L1658.64 89.8329 L1651.19 89.8329 L1651.19 65.7705 Z" fill="#adb2b7" fill-rule="nonzero" fill-opacity="1" /><path clip-path="url(#clip180)" d="M1673.23 54.671 L1673.23 27.2059 L1680.68 27.2059 L1680.68 54.3874 Q1680.68 60.8284 1683.19 64.0691 Q1685.7 67.2693 1690.73 67.2693 Q1696.76 67.2693 1700.25 63.421 Q1703.77 59.5726 1703.77 52.9291 L1703.77 27.2059 L1711.22 27.2059 L1711.22 72.576 L1703.77 72.576 L1703.77 65.6084 Q1701.06 69.7404 1697.45 71.7658 Q1693.89 73.7508 1689.15 73.7508 Q1681.33 73.7508 1677.28 68.8897 Q1673.23 64.0286 1673.23 54.671 M1691.98 26.1121 L1691.98 26.1121 Z" fill="#adb2b7" fill-rule="nonzero" fill-opacity="1" /><path clip-path="url(#clip180)" d="M1726.58 27.2059 L1734.03 27.2059 L1734.03 72.576 L1726.58 72.576 L1726.58 27.2059 M1726.58 9.54393 L1734.03 9.54393 L1734.03 18.9825 L1726.58 18.9825 L1726.58 9.54393 Z" fill="#adb2b7" fill-rule="nonzero" fill-opacity="1" /><path clip-path="url(#clip180)" d="M1757 14.324 L1757 27.2059 L1772.35 27.2059 L1772.35 32.9987 L1757 32.9987 L1757 57.6282 Q1757 63.1779 1758.5 64.7578 Q1760.04 66.3376 1764.7 66.3376 L1772.35 66.3376 L1772.35 72.576 L1764.7 72.576 Q1756.07 72.576 1752.79 69.3758 Q1749.5 66.1351 1749.5 57.6282 L1749.5 32.9987 L1744.04 32.9987 L1744.04 27.2059 L1749.5 27.2059 L1749.5 14.324 L1757 14.324 Z" fill="#adb2b7" fill-rule="nonzero" fill-opacity="1" /><path clip-path="url(#clip180)" d="M1801.03 76.7889 Q1797.87 84.8907 1794.87 87.3618 Q1791.88 89.8329 1786.85 89.8329 L1780.9 89.8329 L1780.9 83.5945 L1785.27 83.5945 Q1788.35 83.5945 1790.05 82.1361 Q1791.76 80.6778 1793.82 75.2496 L1795.16 71.8468 L1776.81 27.2059 L1784.71 27.2059 L1798.88 62.6918 L1813.06 27.2059 L1820.96 27.2059 L1801.03 76.7889 Z" fill="#adb2b7" fill-rule="nonzero" fill-opacity="1" /><polyline clip-path="url(#clip181)" style="stroke:#bbbb00; stroke-linecap:round; stroke-linejoin:round; stroke-width:4; stroke-opacity:1; fill:none" points="319.954,1291.05 323.779,1291.05 327.604,1291.05 331.429,1291.05 335.255,1291.05 339.08,1291.05 342.905,1291.05 346.73,1291.05 350.555,1291.05 354.38,1291.05 358.206,1291.05 362.031,1291.05 365.856,1291.05 369.681,1291.05 373.506,1291.05 377.331,1291.05 381.156,1291.05 384.982,1291.05 388.807,1291.05 392.632,1291.05 396.457,1291.05 400.282,1291.05 404.107,1291.05 407.933,1291.05 407.933,1297.24 411.758,1297.24 411.758,1313.72 415.583,1313.72 415.583,1319.87 419.408,1319.87 419.408,1345.21 423.233,1345.21 427.058,1345.21 430.884,1345.21 434.709,1345.21 438.534,1345.21 442.359,1345.21 446.184,1345.21 446.184,1351.32 450.009,1351.32 450.009,1365.97 453.835,1365.97 453.835,1385.92 457.66,1385.92 457.66,1405.4 461.485,1405.4 461.485,1411.41 465.31,1411.41 465.31,1418.25 469.135,1418.25 469.135,1449.89 472.96,1449.89 476.786,1449.89 480.611,1449.89 480.611,1455.84 484.436,1455.84 484.436,1449.09 488.261,1449.09 488.261,1427.35 492.086,1427.35 492.086,1397.77 495.911,1397.77 495.911,1350.39 499.737,1350.39 499.737,1311.28 503.562,1311.28 503.562,1323.59 507.387,1323.59 507.387,1288.4 511.212,1288.4 511.212,1271.11 515.037,1271.11 515.037,1253.19 518.862,1253.19 518.862,1266.67 522.688,1266.67 522.688,1266.49 526.513,1266.49 526.513,1292.47 530.338,1292.47 530.338,1258.5 534.163,1258.5 534.163,1266.09 537.988,1266.09 537.988,1260.37 541.813,1260.37 541.813,1238.07 545.639,1238.07 545.639,1180.51 549.464,1180.51 549.464,1145.57 553.289,1145.57 553.289,1148.44 557.114,1148.44 557.114,1103.47 560.939,1103.47 560.939,1077.58 564.764,1077.58 564.764,1037.44 568.59,1037.44 568.59,1050.87 572.415,1050.87 572.415,1045.49 576.24,1045.49 576.24,992.245 580.065,992.245 580.065,983.489 583.89,983.489 583.89,993.737 587.715,993.737 587.715,971.62 591.541,971.62 591.541,972.531 595.366,972.531 595.366,960.602 599.191,960.602 599.191,979.06 603.016,979.06 603.016,976.452 606.841,976.452 606.841,942.253 610.666,942.253 610.666,934.303 614.492,934.303 614.492,927.479 618.317,927.479 618.317,924.206 622.142,924.206 622.142,920.736 625.967,920.736 625.967,886.367 629.792,886.367 629.792,877.968 633.617,877.968 633.617,894.255 637.443,894.255 637.443,877.516 641.268,877.516 641.268,863.148 645.093,863.148 645.093,903.381 648.918,903.381 648.918,904.334 652.743,904.334 652.743,889.924 656.568,889.924 656.568,906.448 660.394,906.448 660.394,932.199 664.219,932.199 668.044,932.199 668.044,938.92 671.869,938.92 671.869,930.968 675.694,930.968 675.694,989.245 679.519,989.245 679.519,995.881 683.344,995.881 683.344,986.308 687.17,986.308 687.17,1004.09 690.995,1004.09 690.995,998.476 694.82,998.476 694.82,945.088 698.645,945.088 698.645,898.021 702.47,898.021 702.47,889.827 706.295,889.827 706.295,913.183 710.121,913.183 710.121,927.683 713.946,927.683 713.946,908.766 717.771,908.766 717.771,914.964 721.596,914.964 721.596,881.194 725.421,881.194 725.421,934.05 729.246,934.05 729.246,896.169 733.072,896.169 733.072,880.679 736.897,880.679 736.897,914.155 740.722,914.155 740.722,912.62 744.547,912.62 744.547,896.691 748.372,896.691 748.372,926.383 752.197,926.383 752.197,908.788 756.023,908.788 756.023,917.539 759.848,917.539 759.848,876.157 763.673,876.157 763.673,848.626 767.498,848.626 767.498,868.744 771.323,868.744 771.323,826.786 775.148,826.786 775.148,813.116 778.974,813.116 778.974,814.078 782.799,814.078 782.799,819.935 786.624,819.935 786.624,778.124 790.449,778.124 790.449,788.986 794.274,788.986 794.274,767 798.099,767 798.099,829.544 801.925,829.544 801.925,831.225 805.75,831.225 805.75,821.463 809.575,821.463 809.575,862.11 813.4,862.11 817.225,862.11 817.225,868.935 821.05,868.935 821.05,831.81 824.876,831.81 824.876,849.703 828.701,849.703 828.701,872.263 832.526,872.263 836.351,872.263 840.176,872.263 844.001,872.263 847.827,872.263 851.652,872.263 855.477,872.263 855.477,879.07 859.302,879.07 859.302,850.63 863.127,850.63 863.127,832.032 866.952,832.032 866.952,823.192 870.778,823.192 870.778,844.637 874.603,844.637 874.603,903.249 878.428,903.249 882.253,903.249 886.078,903.249 886.078,910.012 889.903,910.012 889.903,937.979 893.729,937.979 897.554,937.979 897.554,944.696 901.379,944.696 901.379,893.398 905.204,893.398 905.204,862.793 909.029,862.793 909.029,880.69 912.854,880.69 912.854,888.952 916.68,888.952 916.68,892.255 920.505,892.255 920.505,929.916 924.33,929.916 924.33,945.464 928.155,945.464 928.155,952.167 931.98,952.167 931.98,957.173 935.805,957.173 935.805,960.046 939.631,960.046 939.631,1014.18 943.456,1014.18 947.281,1014.18 951.106,1014.18 954.931,1014.18 958.756,1014.18 962.581,1014.18 966.407,1014.18 970.232,1014.18 974.057,1014.18 974.057,1020.78 977.882,1020.78 977.882,1019.82 981.707,1019.82 981.707,1086.95 985.532,1086.95 989.358,1086.95 993.183,1086.95 993.183,1093.43 997.008,1093.43 997.008,1073.81 1000.83,1073.81 1000.83,1127.24 1004.66,1127.24 1008.48,1127.24 1012.31,1127.24 1016.13,1127.24 1016.13,1133.67 1019.96,1133.67 1019.96,1153.98 1023.78,1153.98 1027.61,1153.98 1031.43,1153.98 1035.26,1153.98 1039.08,1153.98 1039.08,1160.37 1042.91,1160.37 1042.91,1106.63 1046.74,1106.63 1046.74,1111.39 1050.56,1111.39 1050.56,1138.51 1054.39,1138.51 1054.39,1122.53 1058.21,1122.53 1058.21,1083.91 1062.04,1083.91 1062.04,1067.81 1065.86,1067.81 1065.86,1073.58 1069.69,1073.58 1069.69,1103.49 1073.51,1103.49 1073.51,1095.63 1077.34,1095.63 1077.34,1114.64 1081.16,1114.64 1081.16,1158.84 1084.99,1158.84 1088.81,1158.84 1092.64,1158.84 1096.46,1158.84 1096.46,1165.22 1100.29,1165.22 1100.29,1173.12 1104.11,1173.12 1104.11,1172.62 1107.94,1172.62 1107.94,1222.68 1111.76,1222.68 1111.76,1228.97 1115.59,1228.97 1115.59,1177.55 1119.41,1177.55 1119.41,1155.77 1123.24,1155.77 1123.24,1126.41 1127.06,1126.41 1127.06,1098.39 1130.89,1098.39 1130.89,1073.02 1134.71,1073.02 1134.71,1076.48 1138.54,1076.48 1138.54,1113.96 1142.36,1113.96 1142.36,1083.12 1146.19,1083.12 1146.19,1068.15 1150.01,1068.15 1150.01,1065.3 1153.84,1065.3 1153.84,1051.81 1157.66,1051.81 1157.66,1056.81 1161.49,1056.81 1161.49,1054.5 1165.32,1054.5 1165.32,1027.48 1169.14,1027.48 1169.14,1012.31 1172.97,1012.31 1172.97,962.555 1176.79,962.555 1176.79,926.246 1180.62,926.246 1180.62,890.719 1184.44,890.719 1184.44,893.005 1188.27,893.005 1188.27,929.833 1192.09,929.833 1192.09,877.227 1195.92,877.227 1195.92,899.551 1199.74,899.551 1199.74,889.332 1203.57,889.332 1203.57,908.45 1207.39,908.45 1207.39,909.903 1211.22,909.903 1211.22,896.82 1215.04,896.82 1215.04,883.256 1218.87,883.256 1218.87,878.967 1222.69,878.967 1222.69,851.733 1226.52,851.733 1226.52,890.844 1230.34,890.844 1230.34,911.033 1234.17,911.033 1234.17,943.175 1237.99,943.175 1241.82,943.175 1245.64,943.175 1245.64,949.881 1249.47,949.881 1249.47,961.279 1253.29,961.279 1253.29,965.596 1257.12,965.596 1257.12,972.519 1260.94,972.519 1260.94,979.179 1264.77,979.179 1264.77,943.159 1268.59,943.159 1268.59,937.789 1272.42,937.789 1272.42,966.166 1276.24,966.166 1276.24,949.256 1280.07,949.256 1280.07,935.282 1283.9,935.282 1283.9,953.744 1287.72,953.744 1287.72,953.839 1291.55,953.839 1291.55,990.049 1295.37,990.049 1299.2,990.049 1303.02,990.049 1303.02,996.684 1306.85,996.684 1306.85,986.662 1310.67,986.662 1310.67,952.296 1314.5,952.296 1314.5,980.172 1318.32,980.172 1318.32,951.392 1322.15,951.392 1322.15,1011.5 1325.97,1011.5 1329.8,1011.5 1333.62,1011.5 1337.45,1011.5 1337.45,1018.1 1341.27,1018.1 1341.27,1050.52 1345.1,1050.52 1345.1,1057.69 1348.92,1057.69 1348.92,1064.31 1352.75,1064.31 1352.75,1076.54 1356.57,1076.54 1360.4,1076.54 1360.4,1083.05 1364.22,1083.05 1364.22,1140.47 1368.05,1140.47 1371.87,1140.47 1375.7,1140.47 1379.52,1140.47 1383.35,1140.47 1387.17,1140.47 1387.17,1146.89 1391,1146.89 1391,1101.24 1394.83,1101.24 1394.83,1038.07 1398.65,1038.07 1398.65,1001.81 1402.48,1001.81 1402.48,1046.01 1406.3,1046.01 1406.3,1059.52 1410.13,1059.52 1410.13,1105.48 1413.95,1105.48 1413.95,1089.98 1417.78,1089.98 1417.78,1097.66 1421.6,1097.66 1421.6,1128.32 1425.43,1128.32 1429.25,1128.32 1433.08,1128.32 1433.08,1134.75 1436.9,1134.75 1436.9,1154.48 1440.73,1154.48 1444.55,1154.48 1448.38,1154.48 1452.2,1154.48 1456.03,1154.48 1459.85,1154.48 1463.68,1154.48 1467.5,1154.48 1471.33,1154.48 1475.15,1154.48 1478.98,1154.48 1482.8,1154.48 1482.8,1160.87 1486.63,1160.87 1486.63,1155.35 1490.45,1155.35 1490.45,1147.5 1494.28,1147.5 1494.28,1157.81 1498.1,1157.81 1498.1,1187.16 1501.93,1187.16 1501.93,1193.5 1505.75,1193.5 1505.75,1188.49 1509.58,1188.49 1509.58,1196.53 1513.41,1196.53 1513.41,1195.38 1517.23,1195.38 1517.23,1190.54 1521.06,1190.54 1521.06,1224.02 1524.88,1224.02 1524.88,1230.3 1528.71,1230.3 1528.71,1258.3 1532.53,1258.3 1532.53,1264.53 1536.36,1264.53 1536.36,1261.01 1540.18,1261.01 1540.18,1265.77 1544.01,1265.77 1544.01,1258.09 1547.83,1258.09 1547.83,1267.11 1551.66,1267.11 1551.66,1267.82 1555.48,1267.82 1555.48,1256.63 1559.31,1256.63 1559.31,1302.02 1563.13,1302.02 1563.13,1308.19 1566.96,1308.19 1566.96,1256.88 1570.78,1256.88 1570.78,1223.29 1574.61,1223.29 1574.61,1173.47 1578.43,1173.47 1578.43,1140.47 1582.26,1140.47 1582.26,1145.32 1586.08,1145.32 1586.08,1156.66 1589.91,1156.66 1589.91,1156.7 1593.73,1156.7 1593.73,1153.8 1597.56,1153.8 1597.56,1139.18 1601.38,1139.18 1601.38,1167.82 1605.21,1167.82 1605.21,1156.64 1609.03,1156.64 1609.03,1163.65 1612.86,1163.65 1612.86,1181.34 1616.68,1181.34 1616.68,1223.24 1620.51,1223.24 1620.51,1229.53 1624.33,1229.53 1624.33,1199.71 1628.16,1199.71 1628.16,1182.32 1631.99,1182.32 1631.99,1193.26 1635.81,1193.26 1635.81,1200.63 1639.64,1200.63 1639.64,1170.15 1643.46,1170.15 1643.46,1159.31 1647.29,1159.31 1647.29,1146.32 1651.11,1146.32 1651.11,1122.3 1654.94,1122.3 1654.94,1103.57 1658.76,1103.57 1658.76,1089.06 1662.59,1089.06 1662.59,1102.11 1666.41,1102.11 1666.41,1082.05 1670.24,1082.05 1670.24,1144.26 1674.06,1144.26 1674.06,1168.38 1677.89,1168.38 1681.71,1168.38 1685.54,1168.38 1689.36,1168.38 1689.36,1174.74 1693.19,1174.74 1693.19,1157.89 1697.01,1157.89 1697.01,1139.78 1700.84,1139.78 1700.84,1196.41 1704.66,1196.41 1708.49,1196.41 1712.31,1196.41 1716.14,1196.41 1716.14,1202.74 1719.96,1202.74 1719.96,1214.79 1723.79,1214.79 1723.79,1199.95 1727.61,1199.95 1727.61,1205.71 1731.44,1205.71 1731.44,1158.05 1735.26,1158.05 1735.26,1160.16 1739.09,1160.16 1739.09,1167.87 1742.92,1167.87 1742.92,1181.94 1746.74,1181.94 1746.74,1222.84 1750.57,1222.84 1750.57,1229.13 1754.39,1229.13 1754.39,1198.95 1758.22,1198.95 1758.22,1201.82 1762.04,1201.82 1762.04,1287.37 1765.87,1287.37 1769.69,1287.37 1769.69,1293.55 1773.52,1293.55 1773.52,1264.54 1777.34,1264.54 1777.34,1243.77 1781.17,1243.77 1781.17,1258.61 1784.99,1258.61 1784.99,1242.55 1788.82,1242.55 1788.82,1244.05 1792.64,1244.05 1792.64,1205.34 1796.47,1205.34 1796.47,1182.54 1800.29,1182.54 1800.29,1142.61 1804.12,1142.61 1804.12,1139.27 1807.94,1139.27 1807.94,1146.53 1811.77,1146.53 1811.77,1119.14 1815.59,1119.14 1815.59,1099.71 1819.42,1099.71 1819.42,1096.39 1823.24,1096.39 1823.24,1088.22 1827.07,1088.22 1827.07,1021.56 1830.89,1021.56 1830.89,1000.48 1834.72,1000.48 1834.72,970.409 1838.54,970.409 1838.54,1002.46 1842.37,1002.46 1842.37,985.936 1846.19,985.936 1846.19,977.461 1850.02,977.461 1850.02,981.371 1853.84,981.371 1853.84,997.339 1857.67,997.339 1857.67,954.154 1861.5,954.154 1861.5,925.981 1865.32,925.981 1865.32,948.443 1869.15,948.443 1869.15,927.933 1872.97,927.933 1872.97,873.751 1876.8,873.751 1876.8,887.894 1880.62,887.894 1880.62,912.531 1884.45,912.531 1884.45,869.115 1888.27,869.115 1888.27,874.724 1892.1,874.724 1892.1,901.139 1895.92,901.139 1895.92,904.864 1899.75,904.864 1899.75,923.902 1903.57,923.902 1903.57,923.653 1907.4,923.653 1907.4,979.406 1911.22,979.406 1911.22,986.059 1915.05,986.059 1915.05,961.729 1918.87,961.729 1918.87,932.107 1922.7,932.107 1922.7,953.49 1926.52,953.49 1926.52,901.437 1930.35,901.437 1930.35,875.822 1934.17,875.822 1934.17,873.436 1938,873.436 1938,888.735 1941.82,888.735 1941.82,889.289 1945.65,889.289 1945.65,894.397 1949.47,894.397 1949.47,911.712 1953.3,911.712 1953.3,876.305 1957.12,876.305 1957.12,934.948 1960.95,934.948 1960.95,945.549 1964.77,945.549 1964.77,971.489 1968.6,971.489 1972.42,971.489 1972.42,978.157 1976.25,978.157 1976.25,935.712 1980.08,935.712 1980.08,894.24 1983.9,894.24 1983.9,876.02 1987.73,876.02 1987.73,889.338 1991.55,889.338 1991.55,877.918 1995.38,877.918 1995.38,921.696 1999.2,921.696 1999.2,934.817 2003.03,934.817 2003.03,918.009 2006.85,918.009 2006.85,928.383 2010.68,928.383 2010.68,942.641 2014.5,942.641 2014.5,958.403 2018.33,958.403 2018.33,951.694 2022.15,951.694 2022.15,973.03 2025.98,973.03 2025.98,979.691 2029.8,979.691 2029.8,998.091 2033.63,998.091 2033.63,1004.72 2037.45,1004.72 2037.45,969.406 2041.28,969.406 2041.28,966.262 2045.1,966.262 2045.1,954.816 2048.93,954.816 2048.93,985.853 2052.75,985.853 2052.75,1042.22 2056.58,1042.22 2056.58,1029.91 2060.4,1029.91 2060.4,1021.1 2064.23,1021.1 2064.23,1043.23 2068.05,1043.23 2068.05,1017.24 2071.88,1017.24 2071.88,1025.69 2075.7,1025.69 2075.7,984.748 2079.53,984.748 2079.53,994.872 2083.35,994.872 2083.35,949.222 2087.18,949.222 2087.18,929.564 2091.01,929.564 2091.01,950.548 2094.83,950.548 2094.83,923.918 2098.66,923.918 2098.66,939.254 2102.48,939.254 2102.48,932.744 2106.31,932.744 2106.31,930.63 2110.13,930.63 2110.13,932.443 2113.96,932.443 2113.96,911.015 2117.78,911.015 2117.78,926.993 2121.61,926.993 2121.61,902.798 2125.43,902.798 2125.43,923.98 2129.26,923.98 2129.26,918.629 2133.08,918.629 2133.08,901.209 2136.91,901.209 2136.91,921.147 2140.73,921.147 2140.73,925.477 2144.56,925.477 2144.56,920.607 2148.38,920.607 2148.38,895.901 2152.21,895.901 2152.21,853.679 2156.03,853.679 2156.03,848.996 2159.86,848.996 2159.86,866.576 2163.68,866.576 2163.68,819.399 2167.51,819.399 2167.51,818.149 2171.33,818.149 2171.33,806.394 2175.16,806.394 2175.16,789.005 2178.98,789.005 2178.98,794.103 2182.81,794.103 2182.81,789.258 2186.63,789.258 2186.63,764.833 2190.46,764.833 2190.46,766.326 2194.28,766.326 2194.28,766.911 2198.11,766.911 2198.11,760.768 2201.93,760.768 2201.93,734.91 2205.76,734.91 2205.76,726.764 2209.59,726.764 2209.59,714.792 2213.41,714.792 2213.41,745.452 2217.24,745.452 2217.24,734.385 2221.06,734.385 2221.06,730.368 2224.89,730.368 2224.89,760.126 2228.71,760.126 2228.71,765.705 2232.54,765.705 2232.54,746.865 2236.36,746.865 2236.36,737.584 2240.19,737.584 2240.19,770.529 2244.01,770.529 2244.01,777.492 2247.84,777.492 2247.84,782.769 2251.66,782.769 2251.66,798.708 2255.49,798.708 2255.49,832.969 2259.31,832.969 2263.14,832.969 2266.96,832.969 2270.79,832.969 2270.79,839.838 2274.61,839.838 2274.61,803.799 2278.44,803.799 2278.44,792.542 2282.26,792.542 2282.26,788.017 2286.09,788.017 2286.09,777.62 2289.91,777.62 2289.91,803.957 2293.74,803.957 2293.74,771.705 2297.56,771.705 2297.56,753.53 2301.39,753.53 2301.39,766.373 2305.21,766.373 2305.21,799.59 2309.04,799.59 2309.04,747.223 2312.86,747.223 2312.86,726.526 2316.69,726.526 2316.69,709.689 2320.51,709.689 2320.51,698.879 2324.34,698.879 2324.34,741.837 2328.17,741.837 2328.17,710.196 2331.99,710.196 2331.99,664.89 2335.82,664.89 2335.82,708.818 2339.64,708.818 2339.64,725.522 2343.47,725.522 2343.47,720.741 2347.29,720.741 2347.29,698.25 2351.12,698.25 2351.12,716.322 2354.94,716.322 2354.94,693.489 2358.77,693.489 2358.77,696.427 2362.59,696.427 2362.59,670.106 2366.42,670.106 2366.42,679.597 2370.24,679.597 2370.24,675.423 2374.07,675.423 2374.07,653.041 2377.89,653.041 2377.89,622.163 2381.72,622.163 2381.72,628.72 2385.54,628.72 2385.54,637.151 2389.37,637.151 2389.37,659.336 2393.19,659.336 2393.19,649.19 2397.02,649.19 2397.02,632.205 2400.84,632.205 2400.84,611.129 2404.67,611.129 2404.67,597.303 2408.49,597.303 2408.49,607.683 2412.32,607.683 2412.32,578.069 2416.14,578.069 2416.14,570.704 2419.97,570.704 2419.97,595.109 2423.79,595.109 2423.79,596.582 2427.62,596.582 2427.62,612.159 2431.44,612.159 2431.44,645.278 2435.27,645.278 2439.09,645.278 2442.92,645.278 2442.92,652.432 2446.75,652.432 2446.75,600.917 2450.57,600.917 2450.57,595.206 2454.4,595.206 2454.4,544.268 2458.22,544.268 2458.22,577.859 2462.05,577.859 2462.05,585.335 2465.87,585.335 2465.87,581.103 2469.7,581.103 2469.7,534.298 2473.52,534.298 2473.52,571.355 2477.35,571.355 2477.35,577.099 2481.17,577.099 2481.17,594.768 2485,594.768 2485,613.14 2488.82,613.14 2488.82,597.746 2492.65,597.746 2492.65,576.655 2496.47,576.655 2496.47,550.24 2500.3,550.24 2500.3,527.505 2504.12,527.505 2504.12,534.894 2507.95,534.894 2507.95,526.07 2511.77,526.07 2511.77,514.016 2515.6,514.016 2515.6,553.479 2519.42,553.479 2519.42,570.656 2523.25,570.656 2527.07,570.656 2527.07,577.918 2530.9,577.918 2530.9,606.317 2534.72,606.317 2534.72,613.529 2538.55,613.529 2538.55,573.29 2542.37,573.29 2542.37,561.688 2546.2,561.688 2546.2,575.089 2550.02,575.089 2550.02,597.426 2553.85,597.426 2553.85,615.664 2557.68,615.664 2561.5,615.664 2561.5,622.859 2565.33,622.859 2565.33,598.143 2569.15,598.143 2569.15,630.029 2572.98,630.029 2572.98,684.709 2576.8,684.709 2576.8,691.801 2580.63,691.801 2580.63,676.392 2584.45,676.392 2584.45,690.395 2588.28,690.395 2588.28,681.893 2592.1,681.893 2592.1,644.782 2595.93,644.782 2595.93,606.793 2599.75,606.793 2599.75,607.013 2603.58,607.013 2603.58,575.756 2607.4,575.756 2607.4,562.364 2611.23,562.364 2611.23,538.451 2615.05,538.451 2615.05,510.135 2618.88,510.135 2618.88,499.475 2622.7,499.475 2622.7,487.154 2626.53,487.154 2626.53,497.375 2630.35,497.375 2630.35,504.172 2634.18,504.172 2634.18,454.059 2638,454.059 2638,473.444 2641.83,473.444 2641.83,455.809 2645.65,455.809 2645.65,409.102 2649.48,409.102 2649.48,383.459 2653.3,383.459 2653.3,393.028 2657.13,393.028 2657.13,355.383 2660.95,355.383 2660.95,396.736 2664.78,396.736 2664.78,439.821 2668.6,439.821 2668.6,473.06 2672.43,473.06 2672.43,504.849 2676.26,504.849 2680.08,504.849 2680.08,512.214 2683.91,512.214 2683.91,509.574 2687.73,509.574 2687.73,459.012 2691.56,459.012 2691.56,417.595 2695.38,417.595 2695.38,385.608 2699.21,385.608 2699.21,358.727 2703.03,358.727 2703.03,356.777 2706.86,356.777 2706.86,370.408 2710.68,370.408 2710.68,415.386 2714.51,415.386 2714.51,431.903 2718.33,431.903 2718.33,419.888 2722.16,419.888 2722.16,446.81 2725.98,446.81 2725.98,454.262 2729.81,454.262 2729.81,493.899 2733.63,493.899 2737.46,493.899 2737.46,501.28 2741.28,501.28 2741.28,597.013 2745.11,597.013 2745.11,626.838 2748.93,626.838 2752.76,626.838 2752.76,634.023 2756.58,634.023 2756.58,628.779 2760.41,628.779 2760.41,628.492 2764.23,628.492 2764.23,602.53 2768.06,602.53 2768.06,558.146 2771.88,558.146 2771.88,577.072 2775.71,577.072 2775.71,599.884 2779.53,599.884 2779.53,615.949 2783.36,615.949 2783.36,623.142 2787.18,623.142 2787.18,591.816 2791.01,591.816 2791.01,586.07 2794.84,586.07 2794.84,574.564 2798.66,574.564 2798.66,480.889 2802.49,480.889 2802.49,429.232 2806.31,429.232 2806.31,460.082 2810.14,460.082 2810.14,443.939 2813.96,443.939 2813.96,421.54 2817.79,421.54 2817.79,391.092 2821.61,391.092 2821.61,393.721 2825.44,393.721 2825.44,373.065 2829.26,373.065 2829.26,353.138 2833.09,353.138 2833.09,389.64 2836.91,389.64 2836.91,373.364 2840.74,373.364 2840.74,364.09 2844.56,364.09 2844.56,337.793 2848.39,337.793 2848.39,333.555 2852.21,333.555 2852.21,356.307 2856.04,356.307 2856.04,352.235 2859.86,352.235 2859.86,335.786 2863.69,335.786 2863.69,333.607 2867.51,333.607 2867.51,339.919 2871.34,339.919 2871.34,328.38 2875.16,328.38 2875.16,363.902 2878.99,363.902 2878.99,325.168 2882.81,325.168 2882.81,351.444 2886.64,351.444 2886.64,414.884 2890.46,414.884 2890.46,422.383 2894.29,422.383 2894.29,395.956 2898.11,395.956 2898.11,354.312 2901.94,354.312 2901.94,305.724 2905.77,305.724 2905.77,314.053 2909.59,314.053 2909.59,298.398 2913.42,298.398 2913.42,346.421 2917.24,346.421 2917.24,357.075 2921.07,357.075 2921.07,315.896 2924.89,315.896 2924.89,291.682 2928.72,291.682 2928.72,311.787 2932.54,311.787 2932.54,381.175 2936.37,381.175 2936.37,291.517 2940.19,291.517 2940.19,269.24 2944.02,269.24 2944.02,269.965 2947.84,269.965 2947.84,236.868 2951.67,236.868 2951.67,254.943 2955.49,254.943 2955.49,276.215 2959.32,276.215 2959.32,244.092 2963.14,244.092 2963.14,225.601 2966.97,225.601 2966.97,219.944 2970.79,219.944 2970.79,221.367 2974.62,221.367 2974.62,214.936 2978.44,214.936 2978.44,202.758 2982.27,202.758 2982.27,168.579 2986.09,168.579 2986.09,209.567 2989.92,209.567 2989.92,195.17 2993.74,195.17 2993.74,152.807 2997.57,152.807 2997.57,147.599 3001.39,147.599 3001.39,168.148 3005.22,168.148 3005.22,193.734 3009.04,193.734 3009.04,277.674 3012.87,277.674 3012.87,285.377 3016.69,285.377 3016.69,243.124 3020.52,243.124 3020.52,312.015 3024.35,312.015 3024.35,278.982 3028.17,278.982 3028.17,286.727 3032,286.727 3032,264.515 3035.82,264.515 3035.82,241.617 3039.65,241.617 3039.65,258.669 3043.47,258.669 3043.47,335.488 3047.3,335.488 3051.12,335.488 3051.12,343.109 3054.95,343.109 3054.95,343.469 3058.77,343.469 3058.77,340.567 3062.6,340.567 3062.6,311.301 3066.42,311.301 3066.42,309.859 3070.25,309.859 3070.25,213.772 "/>
</svg>
