<?xml version="1.0" encoding="utf-8"?>
<svg xmlns="http://www.w3.org/2000/svg" xmlns:xlink="http://www.w3.org/1999/xlink" width="800" height="400" viewBox="0 0 3200 1600">
<defs>
  <clipPath id="clip810">
    <rect x="0" y="0" width="3200" height="1600"/>
  </clipPath>
</defs>
<path clip-path="url(#clip810)" d="M0 1600 L3200 1600 L3200 0 L0 0  Z" fill="#282c34" fill-rule="evenodd" fill-opacity="1"/>
<defs>
  <clipPath id="clip811">
    <rect x="237" y="108" width="2916" height="1388"/>
  </clipPath>
</defs>
<path clip-path="url(#clip810)" d="M237.445 1495.09 L3152.76 1495.09 L3152.76 108.352 L237.445 108.352  Z" fill="#21252b" fill-rule="evenodd" fill-opacity="1"/>
<polyline clip-path="url(#clip811)" style="stroke:#adb2b7; stroke-linecap:round; stroke-linejoin:round; stroke-width:2; stroke-opacity:0.1; fill:none" points="319.954,1495.09 319.954,108.352 "/>
<polyline clip-path="url(#clip811)" style="stroke:#adb2b7; stroke-linecap:round; stroke-linejoin:round; stroke-width:2; stroke-opacity:0.1; fill:none" points="1054.39,1495.09 1054.39,108.352 "/>
<polyline clip-path="url(#clip811)" style="stroke:#adb2b7; stroke-linecap:round; stroke-linejoin:round; stroke-width:2; stroke-opacity:0.1; fill:none" points="1788.82,1495.09 1788.82,108.352 "/>
<polyline clip-path="url(#clip811)" style="stroke:#adb2b7; stroke-linecap:round; stroke-linejoin:round; stroke-width:2; stroke-opacity:0.1; fill:none" points="2523.25,1495.09 2523.25,108.352 "/>
<polyline clip-path="url(#clip811)" style="stroke:#adb2b7; stroke-linecap:round; stroke-linejoin:round; stroke-width:2; stroke-opacity:0.1; fill:none" points="237.445,1317.3 3152.76,1317.3 "/>
<polyline clip-path="url(#clip811)" style="stroke:#adb2b7; stroke-linecap:round; stroke-linejoin:round; stroke-width:2; stroke-opacity:0.1; fill:none" points="237.445,948.869 3152.76,948.869 "/>
<polyline clip-path="url(#clip811)" style="stroke:#adb2b7; stroke-linecap:round; stroke-linejoin:round; stroke-width:2; stroke-opacity:0.1; fill:none" points="237.445,580.434 3152.76,580.434 "/>
<polyline clip-path="url(#clip811)" style="stroke:#adb2b7; stroke-linecap:round; stroke-linejoin:round; stroke-width:2; stroke-opacity:0.1; fill:none" points="237.445,211.999 3152.76,211.999 "/>
<polyline clip-path="url(#clip810)" style="stroke:#adb2b7; stroke-linecap:round; stroke-linejoin:round; stroke-width:4; stroke-opacity:1; fill:none" points="237.445,1495.09 3152.76,1495.09 "/>
<polyline clip-path="url(#clip810)" style="stroke:#adb2b7; stroke-linecap:round; stroke-linejoin:round; stroke-width:4; stroke-opacity:1; fill:none" points="319.954,1495.09 319.954,1476.19 "/>
<polyline clip-path="url(#clip810)" style="stroke:#adb2b7; stroke-linecap:round; stroke-linejoin:round; stroke-width:4; stroke-opacity:1; fill:none" points="1054.39,1495.09 1054.39,1476.19 "/>
<polyline clip-path="url(#clip810)" style="stroke:#adb2b7; stroke-linecap:round; stroke-linejoin:round; stroke-width:4; stroke-opacity:1; fill:none" points="1788.82,1495.09 1788.82,1476.19 "/>
<polyline clip-path="url(#clip810)" style="stroke:#adb2b7; stroke-linecap:round; stroke-linejoin:round; stroke-width:4; stroke-opacity:1; fill:none" points="2523.25,1495.09 2523.25,1476.19 "/>
<path clip-path="url(#clip810)" d="M191.749 1559.95 L208.068 1559.95 L208.068 1563.89 L186.124 1563.89 L186.124 1559.95 Q188.786 1557.2 193.369 1552.57 Q197.975 1547.92 199.156 1546.57 Q201.401 1544.05 202.281 1542.31 Q203.184 1540.55 203.184 1538.86 Q203.184 1536.11 201.239 1534.37 Q199.318 1532.64 196.216 1532.64 Q194.017 1532.64 191.563 1533.4 Q189.133 1534.17 186.355 1535.72 L186.355 1530.99 Q189.179 1529.86 191.633 1529.28 Q194.086 1528.7 196.124 1528.7 Q201.494 1528.7 204.688 1531.39 Q207.883 1534.07 207.883 1538.56 Q207.883 1540.69 207.073 1542.61 Q206.285 1544.51 204.179 1547.11 Q203.6 1547.78 200.498 1550.99 Q197.397 1554.19 191.749 1559.95 Z" fill="#9eb1be" fill-rule="nonzero" fill-opacity="1" /><path clip-path="url(#clip810)" d="M227.883 1532.41 Q224.272 1532.41 222.443 1535.97 Q220.637 1539.51 220.637 1546.64 Q220.637 1553.75 222.443 1557.31 Q224.272 1560.86 227.883 1560.86 Q231.517 1560.86 233.322 1557.31 Q235.151 1553.75 235.151 1546.64 Q235.151 1539.51 233.322 1535.97 Q231.517 1532.41 227.883 1532.41 M227.883 1528.7 Q233.693 1528.7 236.748 1533.31 Q239.827 1537.89 239.827 1546.64 Q239.827 1555.37 236.748 1559.98 Q233.693 1564.56 227.883 1564.56 Q222.072 1564.56 218.994 1559.98 Q215.938 1555.37 215.938 1546.64 Q215.938 1537.89 218.994 1533.31 Q222.072 1528.7 227.883 1528.7 Z" fill="#9eb1be" fill-rule="nonzero" fill-opacity="1" /><path clip-path="url(#clip810)" d="M252.072 1559.95 L268.392 1559.95 L268.392 1563.89 L246.447 1563.89 L246.447 1559.95 Q249.109 1557.2 253.693 1552.57 Q258.299 1547.92 259.48 1546.57 Q261.725 1544.05 262.605 1542.31 Q263.507 1540.55 263.507 1538.86 Q263.507 1536.11 261.563 1534.37 Q259.642 1532.64 256.54 1532.64 Q254.341 1532.64 251.887 1533.4 Q249.457 1534.17 246.679 1535.72 L246.679 1530.99 Q249.503 1529.86 251.957 1529.28 Q254.41 1528.7 256.447 1528.7 Q261.818 1528.7 265.012 1531.39 Q268.206 1534.07 268.206 1538.56 Q268.206 1540.69 267.396 1542.61 Q266.609 1544.51 264.503 1547.11 Q263.924 1547.78 260.822 1550.99 Q257.72 1554.19 252.072 1559.95 Z" fill="#9eb1be" fill-rule="nonzero" fill-opacity="1" /><path clip-path="url(#clip810)" d="M291.054 1533.4 L279.248 1551.85 L291.054 1551.85 L291.054 1533.4 M289.827 1529.33 L295.706 1529.33 L295.706 1551.85 L300.637 1551.85 L300.637 1555.74 L295.706 1555.74 L295.706 1563.89 L291.054 1563.89 L291.054 1555.74 L275.452 1555.74 L275.452 1551.23 L289.827 1529.33 Z" fill="#9eb1be" fill-rule="nonzero" fill-opacity="1" /><path clip-path="url(#clip810)" d="M305.614 1549 L318.09 1549 L318.09 1552.8 L305.614 1552.8 L305.614 1549 Z" fill="#9eb1be" fill-rule="nonzero" fill-opacity="1" /><path clip-path="url(#clip810)" d="M335.475 1532.41 Q331.864 1532.41 330.035 1535.97 Q328.229 1539.51 328.229 1546.64 Q328.229 1553.75 330.035 1557.31 Q331.864 1560.86 335.475 1560.86 Q339.109 1560.86 340.914 1557.31 Q342.743 1553.75 342.743 1546.64 Q342.743 1539.51 340.914 1535.97 Q339.109 1532.41 335.475 1532.41 M335.475 1528.7 Q341.285 1528.7 344.34 1533.31 Q347.419 1537.89 347.419 1546.64 Q347.419 1555.37 344.34 1559.98 Q341.285 1564.56 335.475 1564.56 Q329.664 1564.56 326.586 1559.98 Q323.53 1555.37 323.53 1546.64 Q323.53 1537.89 326.586 1533.31 Q329.664 1528.7 335.475 1528.7 Z" fill="#9eb1be" fill-rule="nonzero" fill-opacity="1" /><path clip-path="url(#clip810)" d="M356.447 1559.95 L364.086 1559.95 L364.086 1533.59 L355.775 1535.25 L355.775 1530.99 L364.039 1529.33 L368.715 1529.33 L368.715 1559.95 L376.354 1559.95 L376.354 1563.89 L356.447 1563.89 L356.447 1559.95 Z" fill="#9eb1be" fill-rule="nonzero" fill-opacity="1" /><path clip-path="url(#clip810)" d="M383.044 1549 L395.521 1549 L395.521 1552.8 L383.044 1552.8 L383.044 1549 Z" fill="#9eb1be" fill-rule="nonzero" fill-opacity="1" /><path clip-path="url(#clip810)" d="M412.905 1532.41 Q409.294 1532.41 407.465 1535.97 Q405.659 1539.51 405.659 1546.64 Q405.659 1553.75 407.465 1557.31 Q409.294 1560.86 412.905 1560.86 Q416.539 1560.86 418.345 1557.31 Q420.173 1553.75 420.173 1546.64 Q420.173 1539.51 418.345 1535.97 Q416.539 1532.41 412.905 1532.41 M412.905 1528.7 Q418.715 1528.7 421.77 1533.31 Q424.849 1537.89 424.849 1546.64 Q424.849 1555.37 421.77 1559.98 Q418.715 1564.56 412.905 1564.56 Q407.095 1564.56 404.016 1559.98 Q400.96 1555.37 400.96 1546.64 Q400.96 1537.89 404.016 1533.31 Q407.095 1528.7 412.905 1528.7 Z" fill="#9eb1be" fill-rule="nonzero" fill-opacity="1" /><path clip-path="url(#clip810)" d="M433.877 1559.95 L441.516 1559.95 L441.516 1533.59 L433.206 1535.25 L433.206 1530.99 L441.469 1529.33 L446.145 1529.33 L446.145 1559.95 L453.784 1559.95 L453.784 1563.89 L433.877 1563.89 L433.877 1559.95 Z" fill="#9eb1be" fill-rule="nonzero" fill-opacity="1" /><path clip-path="url(#clip810)" d="M925.659 1559.95 L941.979 1559.95 L941.979 1563.89 L920.034 1563.89 L920.034 1559.95 Q922.696 1557.2 927.28 1552.57 Q931.886 1547.92 933.067 1546.57 Q935.312 1544.05 936.192 1542.31 Q937.094 1540.55 937.094 1538.86 Q937.094 1536.11 935.15 1534.37 Q933.229 1532.64 930.127 1532.64 Q927.928 1532.64 925.474 1533.4 Q923.044 1534.17 920.266 1535.72 L920.266 1530.99 Q923.09 1529.86 925.544 1529.28 Q927.997 1528.7 930.034 1528.7 Q935.405 1528.7 938.599 1531.39 Q941.793 1534.07 941.793 1538.56 Q941.793 1540.69 940.983 1542.61 Q940.196 1544.51 938.09 1547.11 Q937.511 1547.78 934.409 1550.99 Q931.307 1554.19 925.659 1559.95 Z" fill="#9eb1be" fill-rule="nonzero" fill-opacity="1" /><path clip-path="url(#clip810)" d="M961.793 1532.41 Q958.182 1532.41 956.354 1535.97 Q954.548 1539.51 954.548 1546.64 Q954.548 1553.75 956.354 1557.31 Q958.182 1560.86 961.793 1560.86 Q965.428 1560.86 967.233 1557.31 Q969.062 1553.75 969.062 1546.64 Q969.062 1539.51 967.233 1535.97 Q965.428 1532.41 961.793 1532.41 M961.793 1528.7 Q967.603 1528.7 970.659 1533.31 Q973.738 1537.89 973.738 1546.64 Q973.738 1555.37 970.659 1559.98 Q967.603 1564.56 961.793 1564.56 Q955.983 1564.56 952.905 1559.98 Q949.849 1555.37 949.849 1546.64 Q949.849 1537.89 952.905 1533.31 Q955.983 1528.7 961.793 1528.7 Z" fill="#9eb1be" fill-rule="nonzero" fill-opacity="1" /><path clip-path="url(#clip810)" d="M985.983 1559.95 L1002.3 1559.95 L1002.3 1563.89 L980.358 1563.89 L980.358 1559.95 Q983.02 1557.2 987.603 1552.57 Q992.21 1547.92 993.39 1546.57 Q995.636 1544.05 996.515 1542.31 Q997.418 1540.55 997.418 1538.86 Q997.418 1536.11 995.474 1534.37 Q993.552 1532.64 990.451 1532.64 Q988.252 1532.64 985.798 1533.4 Q983.367 1534.17 980.59 1535.72 L980.59 1530.99 Q983.414 1529.86 985.867 1529.28 Q988.321 1528.7 990.358 1528.7 Q995.728 1528.7 998.923 1531.39 Q1002.12 1534.07 1002.12 1538.56 Q1002.12 1540.69 1001.31 1542.61 Q1000.52 1544.51 998.414 1547.11 Q997.835 1547.78 994.733 1550.99 Q991.631 1554.19 985.983 1559.95 Z" fill="#9eb1be" fill-rule="nonzero" fill-opacity="1" /><path clip-path="url(#clip810)" d="M1024.96 1533.4 L1013.16 1551.85 L1024.96 1551.85 L1024.96 1533.4 M1023.74 1529.33 L1029.62 1529.33 L1029.62 1551.85 L1034.55 1551.85 L1034.55 1555.74 L1029.62 1555.74 L1029.62 1563.89 L1024.96 1563.89 L1024.96 1555.74 L1009.36 1555.74 L1009.36 1551.23 L1023.74 1529.33 Z" fill="#9eb1be" fill-rule="nonzero" fill-opacity="1" /><path clip-path="url(#clip810)" d="M1039.52 1549 L1052 1549 L1052 1552.8 L1039.52 1552.8 L1039.52 1549 Z" fill="#9eb1be" fill-rule="nonzero" fill-opacity="1" /><path clip-path="url(#clip810)" d="M1069.39 1532.41 Q1065.77 1532.41 1063.95 1535.97 Q1062.14 1539.51 1062.14 1546.64 Q1062.14 1553.75 1063.95 1557.31 Q1065.77 1560.86 1069.39 1560.86 Q1073.02 1560.86 1074.83 1557.31 Q1076.65 1553.75 1076.65 1546.64 Q1076.65 1539.51 1074.83 1535.97 Q1073.02 1532.41 1069.39 1532.41 M1069.39 1528.7 Q1075.2 1528.7 1078.25 1533.31 Q1081.33 1537.89 1081.33 1546.64 Q1081.33 1555.37 1078.25 1559.98 Q1075.2 1564.56 1069.39 1564.56 Q1063.58 1564.56 1060.5 1559.98 Q1057.44 1555.37 1057.44 1546.64 Q1057.44 1537.89 1060.5 1533.31 Q1063.58 1528.7 1069.39 1528.7 Z" fill="#9eb1be" fill-rule="nonzero" fill-opacity="1" /><path clip-path="url(#clip810)" d="M1090.36 1559.95 L1098 1559.95 L1098 1533.59 L1089.69 1535.25 L1089.69 1530.99 L1097.95 1529.33 L1102.63 1529.33 L1102.63 1559.95 L1110.26 1559.95 L1110.26 1563.89 L1090.36 1563.89 L1090.36 1559.95 Z" fill="#9eb1be" fill-rule="nonzero" fill-opacity="1" /><path clip-path="url(#clip810)" d="M1116.95 1549 L1129.43 1549 L1129.43 1552.8 L1116.95 1552.8 L1116.95 1549 Z" fill="#9eb1be" fill-rule="nonzero" fill-opacity="1" /><path clip-path="url(#clip810)" d="M1146.82 1532.41 Q1143.2 1532.41 1141.38 1535.97 Q1139.57 1539.51 1139.57 1546.64 Q1139.57 1553.75 1141.38 1557.31 Q1143.2 1560.86 1146.82 1560.86 Q1150.45 1560.86 1152.26 1557.31 Q1154.08 1553.75 1154.08 1546.64 Q1154.08 1539.51 1152.26 1535.97 Q1150.45 1532.41 1146.82 1532.41 M1146.82 1528.7 Q1152.63 1528.7 1155.68 1533.31 Q1158.76 1537.89 1158.76 1546.64 Q1158.76 1555.37 1155.68 1559.98 Q1152.63 1564.56 1146.82 1564.56 Q1141.01 1564.56 1137.93 1559.98 Q1134.87 1555.37 1134.87 1546.64 Q1134.87 1537.89 1137.93 1533.31 Q1141.01 1528.7 1146.82 1528.7 Z" fill="#9eb1be" fill-rule="nonzero" fill-opacity="1" /><path clip-path="url(#clip810)" d="M1167.12 1563.17 L1167.12 1558.91 Q1168.88 1559.74 1170.68 1560.18 Q1172.49 1560.62 1174.22 1560.62 Q1178.85 1560.62 1181.28 1557.52 Q1183.74 1554.4 1184.08 1548.05 Q1182.74 1550.05 1180.68 1551.11 Q1178.62 1552.17 1176.12 1552.17 Q1170.94 1552.17 1167.9 1549.05 Q1164.89 1545.9 1164.89 1540.46 Q1164.89 1535.14 1168.04 1531.92 Q1171.19 1528.7 1176.42 1528.7 Q1182.42 1528.7 1185.57 1533.31 Q1188.74 1537.89 1188.74 1546.64 Q1188.74 1554.81 1184.85 1559.7 Q1180.98 1564.56 1174.43 1564.56 Q1172.67 1564.56 1170.87 1564.21 Q1169.06 1563.86 1167.12 1563.17 M1176.42 1548.52 Q1179.57 1548.52 1181.4 1546.36 Q1183.25 1544.21 1183.25 1540.46 Q1183.25 1536.74 1181.4 1534.58 Q1179.57 1532.41 1176.42 1532.41 Q1173.27 1532.41 1171.42 1534.58 Q1169.59 1536.74 1169.59 1540.46 Q1169.59 1544.21 1171.42 1546.36 Q1173.27 1548.52 1176.42 1548.52 Z" fill="#9eb1be" fill-rule="nonzero" fill-opacity="1" /><path clip-path="url(#clip810)" d="M1660.45 1559.95 L1676.77 1559.95 L1676.77 1563.89 L1654.82 1563.89 L1654.82 1559.95 Q1657.49 1557.2 1662.07 1552.57 Q1666.68 1547.92 1667.86 1546.57 Q1670.1 1544.05 1670.98 1542.31 Q1671.88 1540.55 1671.88 1538.86 Q1671.88 1536.11 1669.94 1534.37 Q1668.02 1532.64 1664.92 1532.64 Q1662.72 1532.64 1660.26 1533.4 Q1657.83 1534.17 1655.06 1535.72 L1655.06 1530.99 Q1657.88 1529.86 1660.33 1529.28 Q1662.79 1528.7 1664.82 1528.7 Q1670.19 1528.7 1673.39 1531.39 Q1676.58 1534.07 1676.58 1538.56 Q1676.58 1540.69 1675.77 1542.61 Q1674.99 1544.51 1672.88 1547.11 Q1672.3 1547.78 1669.2 1550.99 Q1666.1 1554.19 1660.45 1559.95 Z" fill="#9eb1be" fill-rule="nonzero" fill-opacity="1" /><path clip-path="url(#clip810)" d="M1696.58 1532.41 Q1692.97 1532.41 1691.14 1535.97 Q1689.34 1539.51 1689.34 1546.64 Q1689.34 1553.75 1691.14 1557.31 Q1692.97 1560.86 1696.58 1560.86 Q1700.22 1560.86 1702.02 1557.31 Q1703.85 1553.75 1703.85 1546.64 Q1703.85 1539.51 1702.02 1535.97 Q1700.22 1532.41 1696.58 1532.41 M1696.58 1528.7 Q1702.39 1528.7 1705.45 1533.31 Q1708.53 1537.89 1708.53 1546.64 Q1708.53 1555.37 1705.45 1559.98 Q1702.39 1564.56 1696.58 1564.56 Q1690.77 1564.56 1687.69 1559.98 Q1684.64 1555.37 1684.64 1546.64 Q1684.64 1537.89 1687.69 1533.31 Q1690.77 1528.7 1696.58 1528.7 Z" fill="#9eb1be" fill-rule="nonzero" fill-opacity="1" /><path clip-path="url(#clip810)" d="M1720.77 1559.95 L1737.09 1559.95 L1737.09 1563.89 L1715.15 1563.89 L1715.15 1559.95 Q1717.81 1557.2 1722.39 1552.57 Q1727 1547.92 1728.18 1546.57 Q1730.43 1544.05 1731.31 1542.31 Q1732.21 1540.55 1732.21 1538.86 Q1732.21 1536.11 1730.26 1534.37 Q1728.34 1532.64 1725.24 1532.64 Q1723.04 1532.64 1720.59 1533.4 Q1718.16 1534.17 1715.38 1535.72 L1715.38 1530.99 Q1718.2 1529.86 1720.66 1529.28 Q1723.11 1528.7 1725.15 1528.7 Q1730.52 1528.7 1733.71 1531.39 Q1736.91 1534.07 1736.91 1538.56 Q1736.91 1540.69 1736.1 1542.61 Q1735.31 1544.51 1733.2 1547.11 Q1732.63 1547.78 1729.52 1550.99 Q1726.42 1554.19 1720.77 1559.95 Z" fill="#9eb1be" fill-rule="nonzero" fill-opacity="1" /><path clip-path="url(#clip810)" d="M1759.75 1533.4 L1747.95 1551.85 L1759.75 1551.85 L1759.75 1533.4 M1758.53 1529.33 L1764.41 1529.33 L1764.41 1551.85 L1769.34 1551.85 L1769.34 1555.74 L1764.41 1555.74 L1764.41 1563.89 L1759.75 1563.89 L1759.75 1555.74 L1744.15 1555.74 L1744.15 1551.23 L1758.53 1529.33 Z" fill="#9eb1be" fill-rule="nonzero" fill-opacity="1" /><path clip-path="url(#clip810)" d="M1774.31 1549 L1786.79 1549 L1786.79 1552.8 L1774.31 1552.8 L1774.31 1549 Z" fill="#9eb1be" fill-rule="nonzero" fill-opacity="1" /><path clip-path="url(#clip810)" d="M1804.18 1532.41 Q1800.56 1532.41 1798.74 1535.97 Q1796.93 1539.51 1796.93 1546.64 Q1796.93 1553.75 1798.74 1557.31 Q1800.56 1560.86 1804.18 1560.86 Q1807.81 1560.86 1809.62 1557.31 Q1811.44 1553.75 1811.44 1546.64 Q1811.44 1539.51 1809.62 1535.97 Q1807.81 1532.41 1804.18 1532.41 M1804.18 1528.7 Q1809.99 1528.7 1813.04 1533.31 Q1816.12 1537.89 1816.12 1546.64 Q1816.12 1555.37 1813.04 1559.98 Q1809.99 1564.56 1804.18 1564.56 Q1798.37 1564.56 1795.29 1559.98 Q1792.23 1555.37 1792.23 1546.64 Q1792.23 1537.89 1795.29 1533.31 Q1798.37 1528.7 1804.18 1528.7 Z" fill="#9eb1be" fill-rule="nonzero" fill-opacity="1" /><path clip-path="url(#clip810)" d="M1825.15 1559.95 L1832.79 1559.95 L1832.79 1533.59 L1824.48 1535.25 L1824.48 1530.99 L1832.74 1529.33 L1837.42 1529.33 L1837.42 1559.95 L1845.06 1559.95 L1845.06 1563.89 L1825.15 1563.89 L1825.15 1559.95 Z" fill="#9eb1be" fill-rule="nonzero" fill-opacity="1" /><path clip-path="url(#clip810)" d="M1851.74 1549 L1864.22 1549 L1864.22 1552.8 L1851.74 1552.8 L1851.74 1549 Z" fill="#9eb1be" fill-rule="nonzero" fill-opacity="1" /><path clip-path="url(#clip810)" d="M1872.42 1559.95 L1880.05 1559.95 L1880.05 1533.59 L1871.74 1535.25 L1871.74 1530.99 L1880.01 1529.33 L1884.68 1529.33 L1884.68 1559.95 L1892.32 1559.95 L1892.32 1563.89 L1872.42 1563.89 L1872.42 1559.95 Z" fill="#9eb1be" fill-rule="nonzero" fill-opacity="1" /><path clip-path="url(#clip810)" d="M1900.59 1529.33 L1922.81 1529.33 L1922.81 1531.32 L1910.26 1563.89 L1905.38 1563.89 L1917.18 1533.26 L1900.59 1533.26 L1900.59 1529.33 Z" fill="#9eb1be" fill-rule="nonzero" fill-opacity="1" /><path clip-path="url(#clip810)" d="M2394.93 1559.95 L2411.25 1559.95 L2411.25 1563.89 L2389.3 1563.89 L2389.3 1559.95 Q2391.96 1557.2 2396.55 1552.57 Q2401.15 1547.92 2402.33 1546.57 Q2404.58 1544.05 2405.46 1542.31 Q2406.36 1540.55 2406.36 1538.86 Q2406.36 1536.11 2404.42 1534.37 Q2402.5 1532.64 2399.4 1532.64 Q2397.2 1532.64 2394.74 1533.4 Q2392.31 1534.17 2389.53 1535.72 L2389.53 1530.99 Q2392.36 1529.86 2394.81 1529.28 Q2397.27 1528.7 2399.3 1528.7 Q2404.67 1528.7 2407.87 1531.39 Q2411.06 1534.07 2411.06 1538.56 Q2411.06 1540.69 2410.25 1542.61 Q2409.46 1544.51 2407.36 1547.11 Q2406.78 1547.78 2403.68 1550.99 Q2400.58 1554.19 2394.93 1559.95 Z" fill="#9eb1be" fill-rule="nonzero" fill-opacity="1" /><path clip-path="url(#clip810)" d="M2431.06 1532.41 Q2427.45 1532.41 2425.62 1535.97 Q2423.82 1539.51 2423.82 1546.64 Q2423.82 1553.75 2425.62 1557.31 Q2427.45 1560.86 2431.06 1560.86 Q2434.7 1560.86 2436.5 1557.31 Q2438.33 1553.75 2438.33 1546.64 Q2438.33 1539.51 2436.5 1535.97 Q2434.7 1532.41 2431.06 1532.41 M2431.06 1528.7 Q2436.87 1528.7 2439.93 1533.31 Q2443.01 1537.89 2443.01 1546.64 Q2443.01 1555.37 2439.93 1559.98 Q2436.87 1564.56 2431.06 1564.56 Q2425.25 1564.56 2422.17 1559.98 Q2419.12 1555.37 2419.12 1546.64 Q2419.12 1537.89 2422.17 1533.31 Q2425.25 1528.7 2431.06 1528.7 Z" fill="#9eb1be" fill-rule="nonzero" fill-opacity="1" /><path clip-path="url(#clip810)" d="M2455.25 1559.95 L2471.57 1559.95 L2471.57 1563.89 L2449.63 1563.89 L2449.63 1559.95 Q2452.29 1557.2 2456.87 1552.57 Q2461.48 1547.92 2462.66 1546.57 Q2464.9 1544.05 2465.78 1542.31 Q2466.69 1540.55 2466.69 1538.86 Q2466.69 1536.11 2464.74 1534.37 Q2462.82 1532.64 2459.72 1532.64 Q2457.52 1532.64 2455.07 1533.4 Q2452.64 1534.17 2449.86 1535.72 L2449.86 1530.99 Q2452.68 1529.86 2455.14 1529.28 Q2457.59 1528.7 2459.63 1528.7 Q2465 1528.7 2468.19 1531.39 Q2471.39 1534.07 2471.39 1538.56 Q2471.39 1540.69 2470.58 1542.61 Q2469.79 1544.51 2467.68 1547.11 Q2467.1 1547.78 2464 1550.99 Q2460.9 1554.19 2455.25 1559.95 Z" fill="#9eb1be" fill-rule="nonzero" fill-opacity="1" /><path clip-path="url(#clip810)" d="M2494.23 1533.4 L2482.43 1551.85 L2494.23 1551.85 L2494.23 1533.4 M2493.01 1529.33 L2498.89 1529.33 L2498.89 1551.85 L2503.82 1551.85 L2503.82 1555.74 L2498.89 1555.74 L2498.89 1563.89 L2494.23 1563.89 L2494.23 1555.74 L2478.63 1555.74 L2478.63 1551.23 L2493.01 1529.33 Z" fill="#9eb1be" fill-rule="nonzero" fill-opacity="1" /><path clip-path="url(#clip810)" d="M2508.79 1549 L2521.27 1549 L2521.27 1552.8 L2508.79 1552.8 L2508.79 1549 Z" fill="#9eb1be" fill-rule="nonzero" fill-opacity="1" /><path clip-path="url(#clip810)" d="M2538.65 1532.41 Q2535.04 1532.41 2533.21 1535.97 Q2531.41 1539.51 2531.41 1546.64 Q2531.41 1553.75 2533.21 1557.31 Q2535.04 1560.86 2538.65 1560.86 Q2542.29 1560.86 2544.09 1557.31 Q2545.92 1553.75 2545.92 1546.64 Q2545.92 1539.51 2544.09 1535.97 Q2542.29 1532.41 2538.65 1532.41 M2538.65 1528.7 Q2544.46 1528.7 2547.52 1533.31 Q2550.6 1537.89 2550.6 1546.64 Q2550.6 1555.37 2547.52 1559.98 Q2544.46 1564.56 2538.65 1564.56 Q2532.84 1564.56 2529.76 1559.98 Q2526.71 1555.37 2526.71 1546.64 Q2526.71 1537.89 2529.76 1533.31 Q2532.84 1528.7 2538.65 1528.7 Z" fill="#9eb1be" fill-rule="nonzero" fill-opacity="1" /><path clip-path="url(#clip810)" d="M2559.63 1559.95 L2567.26 1559.95 L2567.26 1533.59 L2558.95 1535.25 L2558.95 1530.99 L2567.22 1529.33 L2571.89 1529.33 L2571.89 1559.95 L2579.53 1559.95 L2579.53 1563.89 L2559.63 1563.89 L2559.63 1559.95 Z" fill="#9eb1be" fill-rule="nonzero" fill-opacity="1" /><path clip-path="url(#clip810)" d="M2586.22 1549 L2598.7 1549 L2598.7 1552.8 L2586.22 1552.8 L2586.22 1549 Z" fill="#9eb1be" fill-rule="nonzero" fill-opacity="1" /><path clip-path="url(#clip810)" d="M2610.11 1559.95 L2626.43 1559.95 L2626.43 1563.89 L2604.49 1563.89 L2604.49 1559.95 Q2607.15 1557.2 2611.73 1552.57 Q2616.34 1547.92 2617.52 1546.57 Q2619.76 1544.05 2620.64 1542.31 Q2621.55 1540.55 2621.55 1538.86 Q2621.55 1536.11 2619.6 1534.37 Q2617.68 1532.64 2614.58 1532.64 Q2612.38 1532.64 2609.93 1533.4 Q2607.5 1534.17 2604.72 1535.72 L2604.72 1530.99 Q2607.54 1529.86 2610 1529.28 Q2612.45 1528.7 2614.49 1528.7 Q2619.86 1528.7 2623.05 1531.39 Q2626.25 1534.07 2626.25 1538.56 Q2626.25 1540.69 2625.44 1542.61 Q2624.65 1544.51 2622.54 1547.11 Q2621.96 1547.78 2618.86 1550.99 Q2615.76 1554.19 2610.11 1559.95 Z" fill="#9eb1be" fill-rule="nonzero" fill-opacity="1" /><path clip-path="url(#clip810)" d="M2636.29 1529.33 L2654.65 1529.33 L2654.65 1533.26 L2640.57 1533.26 L2640.57 1541.74 Q2641.59 1541.39 2642.61 1541.23 Q2643.63 1541.04 2644.65 1541.04 Q2650.44 1541.04 2653.82 1544.21 Q2657.19 1547.38 2657.19 1552.8 Q2657.19 1558.38 2653.72 1561.48 Q2650.25 1564.56 2643.93 1564.56 Q2641.75 1564.56 2639.49 1564.19 Q2637.24 1563.82 2634.83 1563.08 L2634.83 1558.38 Q2636.92 1559.51 2639.14 1560.07 Q2641.36 1560.62 2643.84 1560.62 Q2647.84 1560.62 2650.18 1558.52 Q2652.52 1556.41 2652.52 1552.8 Q2652.52 1549.19 2650.18 1547.08 Q2647.84 1544.98 2643.84 1544.98 Q2641.96 1544.98 2640.09 1545.39 Q2638.24 1545.81 2636.29 1546.69 L2636.29 1529.33 Z" fill="#9eb1be" fill-rule="nonzero" fill-opacity="1" /><polyline clip-path="url(#clip810)" style="stroke:#adb2b7; stroke-linecap:round; stroke-linejoin:round; stroke-width:4; stroke-opacity:1; fill:none" points="237.445,1495.09 237.445,108.352 "/>
<polyline clip-path="url(#clip810)" style="stroke:#adb2b7; stroke-linecap:round; stroke-linejoin:round; stroke-width:4; stroke-opacity:1; fill:none" points="237.445,1317.3 256.343,1317.3 "/>
<polyline clip-path="url(#clip810)" style="stroke:#adb2b7; stroke-linecap:round; stroke-linejoin:round; stroke-width:4; stroke-opacity:1; fill:none" points="237.445,948.869 256.343,948.869 "/>
<polyline clip-path="url(#clip810)" style="stroke:#adb2b7; stroke-linecap:round; stroke-linejoin:round; stroke-width:4; stroke-opacity:1; fill:none" points="237.445,580.434 256.343,580.434 "/>
<polyline clip-path="url(#clip810)" style="stroke:#adb2b7; stroke-linecap:round; stroke-linejoin:round; stroke-width:4; stroke-opacity:1; fill:none" points="237.445,211.999 256.343,211.999 "/>
<path clip-path="url(#clip810)" d="M47.6634 1330.65 L55.3023 1330.65 L55.3023 1304.28 L46.9921 1305.95 L46.9921 1301.69 L55.256 1300.02 L59.9319 1300.02 L59.9319 1330.65 L67.5707 1330.65 L67.5707 1334.58 L47.6634 1334.58 L47.6634 1330.65 Z" fill="#9eb1be" fill-rule="nonzero" fill-opacity="1" /><path clip-path="url(#clip810)" d="M87.0151 1303.1 Q83.404 1303.1 81.5753 1306.67 Q79.7697 1310.21 79.7697 1317.34 Q79.7697 1324.45 81.5753 1328.01 Q83.404 1331.55 87.0151 1331.55 Q90.6493 1331.55 92.4548 1328.01 Q94.2835 1324.45 94.2835 1317.34 Q94.2835 1310.21 92.4548 1306.67 Q90.6493 1303.1 87.0151 1303.1 M87.0151 1299.4 Q92.8252 1299.4 95.8808 1304.01 Q98.9594 1308.59 98.9594 1317.34 Q98.9594 1326.07 95.8808 1330.67 Q92.8252 1335.26 87.0151 1335.26 Q81.2049 1335.26 78.1262 1330.67 Q75.0707 1326.07 75.0707 1317.34 Q75.0707 1308.59 78.1262 1304.01 Q81.2049 1299.4 87.0151 1299.4 Z" fill="#9eb1be" fill-rule="nonzero" fill-opacity="1" /><path clip-path="url(#clip810)" d="M117.177 1303.1 Q113.566 1303.1 111.737 1306.67 Q109.932 1310.21 109.932 1317.34 Q109.932 1324.45 111.737 1328.01 Q113.566 1331.55 117.177 1331.55 Q120.811 1331.55 122.617 1328.01 Q124.445 1324.45 124.445 1317.34 Q124.445 1310.21 122.617 1306.67 Q120.811 1303.1 117.177 1303.1 M117.177 1299.4 Q122.987 1299.4 126.043 1304.01 Q129.121 1308.59 129.121 1317.34 Q129.121 1326.07 126.043 1330.67 Q122.987 1335.26 117.177 1335.26 Q111.367 1335.26 108.288 1330.67 Q105.233 1326.07 105.233 1317.34 Q105.233 1308.59 108.288 1304.01 Q111.367 1299.4 117.177 1299.4 Z" fill="#9eb1be" fill-rule="nonzero" fill-opacity="1" /><path clip-path="url(#clip810)" d="M147.339 1303.1 Q143.728 1303.1 141.899 1306.67 Q140.093 1310.21 140.093 1317.34 Q140.093 1324.45 141.899 1328.01 Q143.728 1331.55 147.339 1331.55 Q150.973 1331.55 152.779 1328.01 Q154.607 1324.45 154.607 1317.34 Q154.607 1310.21 152.779 1306.67 Q150.973 1303.1 147.339 1303.1 M147.339 1299.4 Q153.149 1299.4 156.205 1304.01 Q159.283 1308.59 159.283 1317.34 Q159.283 1326.07 156.205 1330.67 Q153.149 1335.26 147.339 1335.26 Q141.529 1335.26 138.45 1330.67 Q135.394 1326.07 135.394 1317.34 Q135.394 1308.59 138.45 1304.01 Q141.529 1299.4 147.339 1299.4 Z" fill="#9eb1be" fill-rule="nonzero" fill-opacity="1" /><path clip-path="url(#clip810)" d="M177.501 1303.1 Q173.89 1303.1 172.061 1306.67 Q170.255 1310.21 170.255 1317.34 Q170.255 1324.45 172.061 1328.01 Q173.89 1331.55 177.501 1331.55 Q181.135 1331.55 182.94 1328.01 Q184.769 1324.45 184.769 1317.34 Q184.769 1310.21 182.94 1306.67 Q181.135 1303.1 177.501 1303.1 M177.501 1299.4 Q183.311 1299.4 186.366 1304.01 Q189.445 1308.59 189.445 1317.34 Q189.445 1326.07 186.366 1330.67 Q183.311 1335.26 177.501 1335.26 Q171.691 1335.26 168.612 1330.67 Q165.556 1326.07 165.556 1317.34 Q165.556 1308.59 168.612 1304.01 Q171.691 1299.4 177.501 1299.4 Z" fill="#9eb1be" fill-rule="nonzero" fill-opacity="1" /><path clip-path="url(#clip810)" d="M47.6634 962.214 L55.3023 962.214 L55.3023 935.849 L46.9921 937.515 L46.9921 933.256 L55.256 931.589 L59.9319 931.589 L59.9319 962.214 L67.5707 962.214 L67.5707 966.149 L47.6634 966.149 L47.6634 962.214 Z" fill="#9eb1be" fill-rule="nonzero" fill-opacity="1" /><path clip-path="url(#clip810)" d="M77.8253 962.214 L85.4641 962.214 L85.4641 935.849 L77.154 937.515 L77.154 933.256 L85.4178 931.589 L90.0937 931.589 L90.0937 962.214 L97.7326 962.214 L97.7326 966.149 L77.8253 966.149 L77.8253 962.214 Z" fill="#9eb1be" fill-rule="nonzero" fill-opacity="1" /><path clip-path="url(#clip810)" d="M117.177 934.668 Q113.566 934.668 111.737 938.233 Q109.932 941.774 109.932 948.904 Q109.932 956.011 111.737 959.575 Q113.566 963.117 117.177 963.117 Q120.811 963.117 122.617 959.575 Q124.445 956.011 124.445 948.904 Q124.445 941.774 122.617 938.233 Q120.811 934.668 117.177 934.668 M117.177 930.964 Q122.987 930.964 126.043 935.571 Q129.121 940.154 129.121 948.904 Q129.121 957.631 126.043 962.237 Q122.987 966.821 117.177 966.821 Q111.367 966.821 108.288 962.237 Q105.233 957.631 105.233 948.904 Q105.233 940.154 108.288 935.571 Q111.367 930.964 117.177 930.964 Z" fill="#9eb1be" fill-rule="nonzero" fill-opacity="1" /><path clip-path="url(#clip810)" d="M147.339 934.668 Q143.728 934.668 141.899 938.233 Q140.093 941.774 140.093 948.904 Q140.093 956.011 141.899 959.575 Q143.728 963.117 147.339 963.117 Q150.973 963.117 152.779 959.575 Q154.607 956.011 154.607 948.904 Q154.607 941.774 152.779 938.233 Q150.973 934.668 147.339 934.668 M147.339 930.964 Q153.149 930.964 156.205 935.571 Q159.283 940.154 159.283 948.904 Q159.283 957.631 156.205 962.237 Q153.149 966.821 147.339 966.821 Q141.529 966.821 138.45 962.237 Q135.394 957.631 135.394 948.904 Q135.394 940.154 138.45 935.571 Q141.529 930.964 147.339 930.964 Z" fill="#9eb1be" fill-rule="nonzero" fill-opacity="1" /><path clip-path="url(#clip810)" d="M177.501 934.668 Q173.89 934.668 172.061 938.233 Q170.255 941.774 170.255 948.904 Q170.255 956.011 172.061 959.575 Q173.89 963.117 177.501 963.117 Q181.135 963.117 182.94 959.575 Q184.769 956.011 184.769 948.904 Q184.769 941.774 182.94 938.233 Q181.135 934.668 177.501 934.668 M177.501 930.964 Q183.311 930.964 186.366 935.571 Q189.445 940.154 189.445 948.904 Q189.445 957.631 186.366 962.237 Q183.311 966.821 177.501 966.821 Q171.691 966.821 168.612 962.237 Q165.556 957.631 165.556 948.904 Q165.556 940.154 168.612 935.571 Q171.691 930.964 177.501 930.964 Z" fill="#9eb1be" fill-rule="nonzero" fill-opacity="1" /><path clip-path="url(#clip810)" d="M47.6634 593.779 L55.3023 593.779 L55.3023 567.413 L46.9921 569.08 L46.9921 564.821 L55.256 563.154 L59.9319 563.154 L59.9319 593.779 L67.5707 593.779 L67.5707 597.714 L47.6634 597.714 L47.6634 593.779 Z" fill="#9eb1be" fill-rule="nonzero" fill-opacity="1" /><path clip-path="url(#clip810)" d="M81.0429 593.779 L97.3622 593.779 L97.3622 597.714 L75.4179 597.714 L75.4179 593.779 Q78.0799 591.024 82.6632 586.395 Q87.2697 581.742 88.4502 580.399 Q90.6956 577.876 91.5752 576.14 Q92.478 574.381 92.478 572.691 Q92.478 569.937 90.5336 568.2 Q88.6123 566.464 85.5104 566.464 Q83.3114 566.464 80.8577 567.228 Q78.4271 567.992 75.6494 569.543 L75.6494 564.821 Q78.4734 563.687 80.9271 563.108 Q83.3808 562.529 85.4178 562.529 Q90.7882 562.529 93.9826 565.214 Q97.177 567.899 97.177 572.39 Q97.177 574.52 96.3669 576.441 Q95.5798 578.339 93.4734 580.932 Q92.8947 581.603 89.7928 584.821 Q86.691 588.015 81.0429 593.779 Z" fill="#9eb1be" fill-rule="nonzero" fill-opacity="1" /><path clip-path="url(#clip810)" d="M117.177 566.233 Q113.566 566.233 111.737 569.798 Q109.932 573.339 109.932 580.469 Q109.932 587.575 111.737 591.14 Q113.566 594.682 117.177 594.682 Q120.811 594.682 122.617 591.14 Q124.445 587.575 124.445 580.469 Q124.445 573.339 122.617 569.798 Q120.811 566.233 117.177 566.233 M117.177 562.529 Q122.987 562.529 126.043 567.136 Q129.121 571.719 129.121 580.469 Q129.121 589.196 126.043 593.802 Q122.987 598.385 117.177 598.385 Q111.367 598.385 108.288 593.802 Q105.233 589.196 105.233 580.469 Q105.233 571.719 108.288 567.136 Q111.367 562.529 117.177 562.529 Z" fill="#9eb1be" fill-rule="nonzero" fill-opacity="1" /><path clip-path="url(#clip810)" d="M147.339 566.233 Q143.728 566.233 141.899 569.798 Q140.093 573.339 140.093 580.469 Q140.093 587.575 141.899 591.14 Q143.728 594.682 147.339 594.682 Q150.973 594.682 152.779 591.14 Q154.607 587.575 154.607 580.469 Q154.607 573.339 152.779 569.798 Q150.973 566.233 147.339 566.233 M147.339 562.529 Q153.149 562.529 156.205 567.136 Q159.283 571.719 159.283 580.469 Q159.283 589.196 156.205 593.802 Q153.149 598.385 147.339 598.385 Q141.529 598.385 138.45 593.802 Q135.394 589.196 135.394 580.469 Q135.394 571.719 138.45 567.136 Q141.529 562.529 147.339 562.529 Z" fill="#9eb1be" fill-rule="nonzero" fill-opacity="1" /><path clip-path="url(#clip810)" d="M177.501 566.233 Q173.89 566.233 172.061 569.798 Q170.255 573.339 170.255 580.469 Q170.255 587.575 172.061 591.14 Q173.89 594.682 177.501 594.682 Q181.135 594.682 182.94 591.14 Q184.769 587.575 184.769 580.469 Q184.769 573.339 182.94 569.798 Q181.135 566.233 177.501 566.233 M177.501 562.529 Q183.311 562.529 186.366 567.136 Q189.445 571.719 189.445 580.469 Q189.445 589.196 186.366 593.802 Q183.311 598.385 177.501 598.385 Q171.691 598.385 168.612 593.802 Q165.556 589.196 165.556 580.469 Q165.556 571.719 168.612 567.136 Q171.691 562.529 177.501 562.529 Z" fill="#9eb1be" fill-rule="nonzero" fill-opacity="1" /><path clip-path="url(#clip810)" d="M47.6634 225.344 L55.3023 225.344 L55.3023 198.978 L46.9921 200.645 L46.9921 196.386 L55.256 194.719 L59.9319 194.719 L59.9319 225.344 L67.5707 225.344 L67.5707 229.279 L47.6634 229.279 L47.6634 225.344 Z" fill="#9eb1be" fill-rule="nonzero" fill-opacity="1" /><path clip-path="url(#clip810)" d="M91.1817 210.645 Q94.5382 211.362 96.4132 213.631 Q98.3113 215.899 98.3113 219.233 Q98.3113 224.348 94.7928 227.149 Q91.2743 229.95 84.7928 229.95 Q82.6169 229.95 80.3021 229.51 Q78.0105 229.094 75.5568 228.237 L75.5568 223.723 Q77.5012 224.858 79.816 225.436 Q82.1308 226.015 84.654 226.015 Q89.0521 226.015 91.3437 224.279 Q93.6585 222.543 93.6585 219.233 Q93.6585 216.177 91.5058 214.464 Q89.3762 212.728 85.5567 212.728 L81.529 212.728 L81.529 208.886 L85.7419 208.886 Q89.191 208.886 91.0197 207.52 Q92.8484 206.131 92.8484 203.538 Q92.8484 200.876 90.9502 199.464 Q89.0752 198.029 85.5567 198.029 Q83.6354 198.029 81.4364 198.446 Q79.2373 198.862 76.5984 199.742 L76.5984 195.575 Q79.2605 194.835 81.5753 194.464 Q83.9132 194.094 85.9734 194.094 Q91.2974 194.094 94.3993 196.524 Q97.5011 198.932 97.5011 203.052 Q97.5011 205.923 95.8576 207.913 Q94.2141 209.881 91.1817 210.645 Z" fill="#9eb1be" fill-rule="nonzero" fill-opacity="1" /><path clip-path="url(#clip810)" d="M117.177 197.798 Q113.566 197.798 111.737 201.362 Q109.932 204.904 109.932 212.034 Q109.932 219.14 111.737 222.705 Q113.566 226.247 117.177 226.247 Q120.811 226.247 122.617 222.705 Q124.445 219.14 124.445 212.034 Q124.445 204.904 122.617 201.362 Q120.811 197.798 117.177 197.798 M117.177 194.094 Q122.987 194.094 126.043 198.7 Q129.121 203.284 129.121 212.034 Q129.121 220.76 126.043 225.367 Q122.987 229.95 117.177 229.95 Q111.367 229.95 108.288 225.367 Q105.233 220.76 105.233 212.034 Q105.233 203.284 108.288 198.7 Q111.367 194.094 117.177 194.094 Z" fill="#9eb1be" fill-rule="nonzero" fill-opacity="1" /><path clip-path="url(#clip810)" d="M147.339 197.798 Q143.728 197.798 141.899 201.362 Q140.093 204.904 140.093 212.034 Q140.093 219.14 141.899 222.705 Q143.728 226.247 147.339 226.247 Q150.973 226.247 152.779 222.705 Q154.607 219.14 154.607 212.034 Q154.607 204.904 152.779 201.362 Q150.973 197.798 147.339 197.798 M147.339 194.094 Q153.149 194.094 156.205 198.7 Q159.283 203.284 159.283 212.034 Q159.283 220.76 156.205 225.367 Q153.149 229.95 147.339 229.95 Q141.529 229.95 138.45 225.367 Q135.394 220.76 135.394 212.034 Q135.394 203.284 138.45 198.7 Q141.529 194.094 147.339 194.094 Z" fill="#9eb1be" fill-rule="nonzero" fill-opacity="1" /><path clip-path="url(#clip810)" d="M177.501 197.798 Q173.89 197.798 172.061 201.362 Q170.255 204.904 170.255 212.034 Q170.255 219.14 172.061 222.705 Q173.89 226.247 177.501 226.247 Q181.135 226.247 182.94 222.705 Q184.769 219.14 184.769 212.034 Q184.769 204.904 182.94 201.362 Q181.135 197.798 177.501 197.798 M177.501 194.094 Q183.311 194.094 186.366 198.7 Q189.445 203.284 189.445 212.034 Q189.445 220.76 186.366 225.367 Q183.311 229.95 177.501 229.95 Q171.691 229.95 168.612 225.367 Q165.556 220.76 165.556 212.034 Q165.556 203.284 168.612 198.7 Q171.691 194.094 177.501 194.094 Z" fill="#9eb1be" fill-rule="nonzero" fill-opacity="1" /><path clip-path="url(#clip810)" d="M1569.24 12.096 L1607.48 12.096 L1607.48 18.9825 L1577.42 18.9825 L1577.42 36.8875 L1606.22 36.8875 L1606.22 43.7741 L1577.42 43.7741 L1577.42 65.6895 L1608.21 65.6895 L1608.21 72.576 L1569.24 72.576 L1569.24 12.096 Z" fill="#adb2b7" fill-rule="nonzero" fill-opacity="1" /><path clip-path="url(#clip810)" d="M1625.79 49.9314 Q1625.79 58.1548 1629.15 62.8538 Q1632.55 67.5124 1638.47 67.5124 Q1644.38 67.5124 1647.79 62.8538 Q1651.19 58.1548 1651.19 49.9314 Q1651.19 41.7081 1647.79 37.0496 Q1644.38 32.3505 1638.47 32.3505 Q1632.55 32.3505 1629.15 37.0496 Q1625.79 41.7081 1625.79 49.9314 M1651.19 65.7705 Q1648.84 69.8214 1645.23 71.8063 Q1641.67 73.7508 1636.65 73.7508 Q1628.42 73.7508 1623.24 67.1883 Q1618.09 60.6258 1618.09 49.9314 Q1618.09 39.2371 1623.24 32.6746 Q1628.42 26.1121 1636.65 26.1121 Q1641.67 26.1121 1645.23 28.0971 Q1648.84 30.0415 1651.19 34.0924 L1651.19 27.2059 L1658.64 27.2059 L1658.64 89.8329 L1651.19 89.8329 L1651.19 65.7705 Z" fill="#adb2b7" fill-rule="nonzero" fill-opacity="1" /><path clip-path="url(#clip810)" d="M1673.23 54.671 L1673.23 27.2059 L1680.68 27.2059 L1680.68 54.3874 Q1680.68 60.8284 1683.19 64.0691 Q1685.7 67.2693 1690.73 67.2693 Q1696.76 67.2693 1700.25 63.421 Q1703.77 59.5726 1703.77 52.9291 L1703.77 27.2059 L1711.22 27.2059 L1711.22 72.576 L1703.77 72.576 L1703.77 65.6084 Q1701.06 69.7404 1697.45 71.7658 Q1693.89 73.7508 1689.15 73.7508 Q1681.33 73.7508 1677.28 68.8897 Q1673.23 64.0286 1673.23 54.671 M1691.98 26.1121 L1691.98 26.1121 Z" fill="#adb2b7" fill-rule="nonzero" fill-opacity="1" /><path clip-path="url(#clip810)" d="M1726.58 27.2059 L1734.03 27.2059 L1734.03 72.576 L1726.58 72.576 L1726.58 27.2059 M1726.58 9.54393 L1734.03 9.54393 L1734.03 18.9825 L1726.58 18.9825 L1726.58 9.54393 Z" fill="#adb2b7" fill-rule="nonzero" fill-opacity="1" /><path clip-path="url(#clip810)" d="M1757 14.324 L1757 27.2059 L1772.35 27.2059 L1772.35 32.9987 L1757 32.9987 L1757 57.6282 Q1757 63.1779 1758.5 64.7578 Q1760.04 66.3376 1764.7 66.3376 L1772.35 66.3376 L1772.35 72.576 L1764.7 72.576 Q1756.07 72.576 1752.79 69.3758 Q1749.5 66.1351 1749.5 57.6282 L1749.5 32.9987 L1744.04 32.9987 L1744.04 27.2059 L1749.5 27.2059 L1749.5 14.324 L1757 14.324 Z" fill="#adb2b7" fill-rule="nonzero" fill-opacity="1" /><path clip-path="url(#clip810)" d="M1801.03 76.7889 Q1797.87 84.8907 1794.87 87.3618 Q1791.88 89.8329 1786.85 89.8329 L1780.9 89.8329 L1780.9 83.5945 L1785.27 83.5945 Q1788.35 83.5945 1790.05 82.1361 Q1791.76 80.6778 1793.82 75.2496 L1795.16 71.8468 L1776.81 27.2059 L1784.71 27.2059 L1798.88 62.6918 L1813.06 27.2059 L1820.96 27.2059 L1801.03 76.7889 Z" fill="#adb2b7" fill-rule="nonzero" fill-opacity="1" /><polyline clip-path="url(#clip811)" style="stroke:#bbbb00; stroke-linecap:round; stroke-linejoin:round; stroke-width:4; stroke-opacity:1; fill:none" points="319.954,1317.3 323.779,1317.3 327.604,1317.3 331.429,1317.3 335.255,1317.3 339.08,1317.3 342.905,1317.3 346.73,1317.3 350.555,1317.3 354.38,1317.3 358.206,1317.3 362.031,1317.3 365.856,1317.3 369.681,1317.3 373.506,1317.3 377.331,1317.3 381.156,1317.3 384.982,1317.3 388.807,1317.3 392.632,1317.3 396.457,1317.3 400.282,1317.3 404.107,1317.3 407.933,1317.3 407.933,1321.83 411.758,1321.83 411.758,1335.4 415.583,1335.4 415.583,1340.04 419.408,1340.04 419.408,1361.89 423.233,1361.89 427.058,1361.89 430.884,1361.89 434.709,1361.89 438.534,1361.89 442.359,1361.89 446.184,1361.89 446.184,1366.4 450.009,1366.4 450.009,1379.49 453.835,1379.49 453.835,1397.35 457.66,1397.35 457.66,1413.72 461.485,1413.72 461.485,1417.87 465.31,1417.87 465.31,1423.99 469.135,1423.99 469.135,1451.39 472.96,1451.39 476.786,1451.39 480.611,1451.39 480.611,1455.84 484.436,1455.84 484.436,1449.8 488.261,1449.8 488.261,1430.33 492.086,1430.33 492.086,1403.81 495.911,1403.81 495.911,1361.39 499.737,1361.39 499.737,1326.34 503.562,1326.34 503.562,1337.38 507.387,1337.38 507.387,1305.85 511.212,1305.85 511.212,1290.35 515.037,1290.35 515.037,1274.29 518.862,1274.29 518.862,1286.37 522.688,1286.37 522.688,1286.2 526.513,1286.2 526.513,1309.49 530.338,1309.49 530.338,1279.09 534.163,1279.09 534.163,1285.9 537.988,1285.9 537.988,1280.77 541.813,1280.77 541.813,1260.78 545.639,1260.78 545.639,1209.23 549.464,1209.23 549.464,1177.91 553.289,1177.91 553.289,1180.48 557.114,1180.48 557.114,1140.19 560.939,1140.19 560.939,1117 564.764,1117 564.764,1081.04 568.59,1081.04 568.59,1093.08 572.415,1093.08 572.415,1088.27 576.24,1088.27 576.24,1040.54 580.065,1040.54 580.065,1032.69 583.89,1032.69 583.89,1041.87 587.715,1041.87 587.715,1022.06 591.541,1022.06 591.541,1022.87 595.366,1022.87 595.366,1012.17 599.191,1012.17 599.191,1028.7 603.016,1028.7 603.016,1026.37 606.841,1026.37 606.841,995.725 610.666,995.725 610.666,988.603 614.492,988.603 614.492,982.499 618.317,982.499 618.317,979.56 622.142,979.56 622.142,976.455 625.967,976.455 625.967,945.654 629.792,945.654 629.792,938.128 633.617,938.128 633.617,952.711 637.443,952.711 637.443,937.709 641.268,937.709 641.268,924.832 645.093,924.832 645.093,960.84 648.918,960.84 648.918,961.694 652.743,961.694 652.743,948.779 656.568,948.779 656.568,963.569 660.394,963.569 660.394,985.327 664.219,985.327 668.044,985.327 668.044,989.979 671.869,989.979 671.869,982.849 675.694,982.849 675.694,1033.87 679.519,1033.87 679.519,1038.53 683.344,1038.53 683.344,1029.94 687.17,1029.94 687.17,1045.89 690.995,1045.89 690.995,1040.85 694.82,1040.85 694.82,992.964 698.645,992.964 698.645,950.759 702.47,950.759 702.47,943.41 706.295,943.41 706.295,964.341 710.121,964.341 710.121,977.342 713.946,977.342 713.946,960.361 717.771,960.361 717.771,965.929 721.596,965.929 721.596,935.641 725.421,935.641 725.421,983.085 729.246,983.085 729.246,949.113 733.072,949.113 733.072,935.216 736.897,935.216 736.897,965.219 740.722,965.219 740.722,963.843 744.547,963.843 744.547,949.548 748.372,949.548 748.372,976.173 752.197,976.173 752.197,960.392 756.023,960.392 756.023,968.236 759.848,968.236 759.848,931.133 763.673,931.133 763.673,906.429 767.498,906.429 767.498,924.476 771.323,924.476 771.323,886.841 775.148,886.841 775.148,874.566 778.974,874.566 778.974,875.429 782.799,875.429 782.799,880.678 786.624,880.678 786.624,843.152 790.449,843.152 790.449,852.883 794.274,852.883 794.274,833.138 798.099,833.138 798.099,889.226 801.925,889.226 801.925,890.735 805.75,890.735 805.75,881.978 809.575,881.978 809.575,917.707 813.4,917.707 817.225,917.707 817.225,922.561 821.05,922.561 821.05,889.23 824.876,889.23 824.876,905.292 828.701,905.292 828.701,924.853 832.526,924.853 836.351,924.853 840.176,924.853 844.001,924.853 847.827,924.853 851.652,924.853 855.477,924.853 855.477,929.977 859.302,929.977 859.302,904.428 863.127,904.428 863.127,887.715 866.952,887.715 866.952,879.77 870.778,879.77 870.778,899.033 874.603,899.033 874.603,950.303 878.428,950.303 882.253,950.303 886.078,950.303 886.078,955.446 889.903,955.446 889.903,979.671 893.729,979.671 897.554,979.671 897.554,984.311 901.379,984.311 901.379,938.22 905.204,938.22 905.204,910.711 909.029,910.711 909.029,926.796 912.854,926.796 912.854,934.231 916.68,934.231 916.68,937.195 920.505,937.195 920.505,971.031 924.33,971.031 924.33,984.233 928.155,984.233 928.155,989.002 931.98,989.002 931.98,993.498 935.805,993.498 935.805,996.078 939.631,996.078 939.631,1043.76 943.456,1043.76 947.281,1043.76 951.106,1043.76 954.931,1043.76 958.756,1043.76 962.581,1043.76 966.407,1043.76 970.232,1043.76 974.057,1043.76 974.057,1048.3 977.882,1048.3 977.882,1047.44 981.707,1047.44 981.707,1106.65 985.532,1106.65 989.358,1106.65 993.183,1106.65 993.183,1111.25 997.008,1111.25 997.008,1093.57 1000.83,1093.57 1000.83,1140.44 1004.66,1140.44 1008.48,1140.44 1012.31,1140.44 1016.13,1140.44 1016.13,1145.4 1019.96,1145.4 1019.96,1162.28 1023.78,1162.28 1027.61,1162.28 1031.43,1162.28 1035.26,1162.28 1039.08,1162.28 1039.08,1166.83 1042.91,1166.83 1042.91,1118.38 1046.74,1118.38 1046.74,1122.67 1050.56,1122.67 1050.56,1147.1 1054.39,1147.1 1054.39,1132.7 1058.21,1132.7 1058.21,1097.84 1062.04,1097.84 1062.04,1083.33 1065.86,1083.33 1065.86,1088.54 1069.69,1088.54 1069.69,1115.49 1073.51,1115.49 1073.51,1108.39 1077.34,1108.39 1077.34,1125.53 1081.16,1125.53 1081.16,1164.04 1084.99,1164.04 1088.81,1164.04 1092.64,1164.04 1096.46,1164.04 1096.46,1169.16 1100.29,1169.16 1100.29,1176.29 1104.11,1176.29 1104.11,1175.84 1107.94,1175.84 1107.94,1219.74 1111.76,1219.74 1111.76,1224.86 1115.59,1224.86 1115.59,1178.42 1119.41,1178.42 1119.41,1158.78 1123.24,1158.78 1123.24,1132.26 1127.06,1132.26 1127.06,1106.97 1130.89,1106.97 1130.89,1084.06 1134.71,1084.06 1134.71,1087.18 1138.54,1087.18 1138.54,1120.98 1142.36,1120.98 1142.36,1093.17 1146.19,1093.17 1146.19,1079.64 1150.01,1079.64 1150.01,1077.07 1153.84,1077.07 1153.84,1064.88 1157.66,1064.88 1157.66,1069.4 1161.49,1069.4 1161.49,1067.31 1165.32,1067.31 1165.32,1042.93 1169.14,1042.93 1169.14,1029.23 1172.97,1029.23 1172.97,984.301 1176.79,984.301 1176.79,951.511 1180.62,951.511 1180.62,919.42 1184.44,919.42 1184.44,921.487 1188.27,921.487 1188.27,954.71 1192.09,954.71 1192.09,907.254 1195.92,907.254 1195.92,927.403 1199.74,927.403 1199.74,918.166 1203.57,918.166 1203.57,935.401 1207.39,935.401 1207.39,936.715 1211.22,936.715 1211.22,924.901 1215.04,924.901 1215.04,912.656 1218.87,912.656 1218.87,908.784 1222.69,908.784 1222.69,884.196 1226.52,884.196 1226.52,919.483 1230.34,919.483 1230.34,937.71 1234.17,937.71 1234.17,965.561 1237.99,965.561 1241.82,965.561 1245.64,965.561 1245.64,970.406 1249.47,970.406 1249.47,980.685 1253.29,980.685 1253.29,984.584 1257.12,984.584 1257.12,989.386 1260.94,989.386 1260.94,994.433 1264.77,994.433 1264.77,961.875 1268.59,961.875 1268.59,957.02 1272.42,957.02 1272.42,982.67 1276.24,982.67 1276.24,967.383 1280.07,967.383 1280.07,954.758 1283.9,954.758 1283.9,971.436 1287.72,971.436 1287.72,971.522 1291.55,971.522 1291.55,1002.45 1295.37,1002.45 1299.2,1002.45 1303.02,1002.45 1303.02,1007.27 1306.85,1007.27 1306.85,998.212 1310.67,998.212 1310.67,967.115 1314.5,967.115 1314.5,992.311 1318.32,992.311 1318.32,966.291 1322.15,966.291 1322.15,1019.48 1325.97,1019.48 1329.8,1019.48 1333.62,1019.48 1337.45,1019.48 1337.45,1024.63 1341.27,1024.63 1341.27,1053.94 1345.1,1053.94 1345.1,1060.43 1348.92,1060.43 1348.92,1066.43 1352.75,1066.43 1352.75,1075.89 1356.57,1075.89 1360.4,1075.89 1360.4,1080.45 1364.22,1080.45 1364.22,1131.26 1368.05,1131.26 1371.87,1131.26 1375.7,1131.26 1379.52,1131.26 1383.35,1131.26 1387.17,1131.26 1387.17,1135.65 1391,1135.65 1391,1094.32 1394.83,1094.32 1394.83,1037.09 1398.65,1037.09 1398.65,1004.23 1402.48,1004.23 1402.48,1044.26 1406.3,1044.26 1406.3,1056.5 1410.13,1056.5 1410.13,1098.17 1413.95,1098.17 1413.95,1084.11 1417.78,1084.11 1417.78,1091.07 1421.6,1091.07 1421.6,1117.81 1425.43,1117.81 1429.25,1117.81 1433.08,1117.81 1433.08,1122.47 1436.9,1122.47 1436.9,1139.23 1440.73,1139.23 1444.55,1139.23 1448.38,1139.23 1452.2,1139.23 1456.03,1139.23 1459.85,1139.23 1463.68,1139.23 1467.5,1139.23 1471.33,1139.23 1475.15,1139.23 1478.98,1139.23 1482.8,1139.23 1482.8,1143.65 1486.63,1143.65 1486.63,1138.64 1490.45,1138.64 1490.45,1131.52 1494.28,1131.52 1494.28,1140.87 1498.1,1140.87 1498.1,1166.03 1501.93,1166.03 1501.93,1170.76 1505.75,1170.76 1505.75,1166.2 1509.58,1166.2 1509.58,1173.51 1513.41,1173.51 1513.41,1172.47 1517.23,1172.47 1517.23,1168.08 1521.06,1168.08 1521.06,1197.37 1524.88,1197.37 1524.88,1201.78 1528.71,1201.78 1528.71,1226.03 1532.53,1226.03 1532.53,1230.78 1536.36,1230.78 1536.36,1227.58 1540.18,1227.58 1540.18,1231.9 1544.01,1231.9 1544.01,1224.92 1547.83,1224.92 1547.83,1233.11 1551.66,1233.11 1551.66,1233.75 1555.48,1233.75 1555.48,1223.57 1559.31,1223.57 1559.31,1263.6 1563.13,1263.6 1563.13,1268.29 1566.96,1268.29 1566.96,1221.66 1570.78,1221.66 1570.78,1191.1 1574.61,1191.1 1574.61,1145.8 1578.43,1145.8 1578.43,1115.79 1582.26,1115.79 1582.26,1120.18 1586.08,1120.18 1586.08,1130.5 1589.91,1130.5 1589.91,1130.54 1593.73,1130.54 1593.73,1127.9 1597.56,1127.9 1597.56,1114.61 1601.38,1114.61 1601.38,1140.63 1605.21,1140.63 1605.21,1130.45 1609.03,1130.45 1609.03,1136.82 1612.86,1136.82 1612.86,1152.91 1616.68,1152.91 1616.68,1190.02 1620.51,1190.02 1620.51,1193.73 1624.33,1193.73 1624.33,1166.63 1628.16,1166.63 1628.16,1150.78 1631.99,1150.78 1631.99,1160.74 1635.81,1160.74 1635.81,1167.44 1639.64,1167.44 1639.64,1139.68 1643.46,1139.68 1643.46,1129.81 1647.29,1129.81 1647.29,1117.99 1651.11,1117.99 1651.11,1096.14 1654.94,1096.14 1654.94,1079.09 1658.76,1079.09 1658.76,1065.86 1662.59,1065.86 1662.59,1077.73 1666.41,1077.73 1666.41,1059.47 1670.24,1059.47 1670.24,1116.09 1674.06,1116.09 1674.06,1137.22 1677.89,1137.22 1681.71,1137.22 1685.54,1137.22 1689.36,1137.22 1689.36,1141.85 1693.19,1141.85 1693.19,1126.5 1697.01,1126.5 1697.01,1110.01 1700.84,1110.01 1700.84,1160.85 1704.66,1160.85 1708.49,1160.85 1712.31,1160.85 1716.14,1160.85 1716.14,1165.44 1719.96,1165.44 1719.96,1176.4 1723.79,1176.4 1723.79,1162.87 1727.61,1162.87 1727.61,1168.11 1731.44,1168.11 1731.44,1124.66 1735.26,1124.66 1735.26,1126.58 1739.09,1126.58 1739.09,1133.59 1742.92,1133.59 1742.92,1146.4 1746.74,1146.4 1746.74,1182.58 1750.57,1182.58 1750.57,1186.7 1754.39,1186.7 1754.39,1159.22 1758.22,1159.22 1758.22,1161.83 1762.04,1161.83 1762.04,1239.07 1765.87,1239.07 1769.69,1239.07 1769.69,1243.63 1773.52,1243.63 1773.52,1217.15 1777.34,1217.15 1777.34,1198.19 1781.17,1198.19 1781.17,1211.72 1784.99,1211.72 1784.99,1197.06 1788.82,1197.06 1788.82,1198.42 1792.64,1198.42 1792.64,1163.11 1796.47,1163.11 1796.47,1142.32 1800.29,1142.32 1800.29,1105.89 1804.12,1105.89 1804.12,1102.84 1807.94,1102.84 1807.94,1109.45 1811.77,1109.45 1811.77,1084.44 1815.59,1084.44 1815.59,1066.73 1819.42,1066.73 1819.42,1063.69 1823.24,1063.69 1823.24,1056.23 1827.07,1056.23 1827.07,995.41 1830.89,995.41 1830.89,976.192 1834.72,976.192 1834.72,948.735 1838.54,948.735 1838.54,977.937 1842.37,977.937 1842.37,962.852 1846.19,962.852 1846.19,955.121 1850.02,955.121 1850.02,958.686 1853.84,958.686 1853.84,973.244 1857.67,973.244 1857.67,933.833 1861.5,933.833 1861.5,908.109 1865.32,908.109 1865.32,928.592 1869.15,928.592 1869.15,909.884 1872.97,909.884 1872.97,860.471 1876.8,860.471 1876.8,873.374 1880.62,873.374 1880.62,895.837 1884.45,895.837 1884.45,856.219 1888.27,856.219 1888.27,861.338 1892.1,861.338 1892.1,885.425 1895.92,885.425 1895.92,888.821 1899.75,888.821 1899.75,906.183 1903.57,906.183 1903.57,905.956 1907.4,905.956 1907.4,955.574 1911.22,955.574 1911.22,960.216 1915.05,960.216 1915.05,938.014 1918.87,938.014 1918.87,910.987 1922.7,910.987 1922.7,930.506 1926.52,930.506 1926.52,883.013 1930.35,883.013 1930.35,859.639 1934.17,859.639 1934.17,857.464 1938,857.464 1938,871.421 1941.82,871.421 1941.82,871.927 1945.65,871.927 1945.65,876.585 1949.47,876.585 1949.47,892.395 1953.3,892.395 1953.3,860.047 1957.12,860.047 1957.12,913.529 1960.95,913.529 1960.95,923.193 1964.77,923.193 1964.77,945.802 1968.6,945.802 1972.42,945.802 1972.42,951.017 1976.25,951.017 1976.25,912.287 1980.08,912.287 1980.08,874.383 1983.9,874.383 1983.9,857.738 1987.73,857.738 1987.73,869.904 1991.55,869.904 1991.55,859.465 1995.38,859.465 1995.38,899.43 1999.2,899.43 1999.2,911.401 2003.03,911.401 2003.03,896.055 2006.85,896.055 2006.85,905.516 2010.68,905.516 2010.68,918.535 2014.5,918.535 2014.5,932.915 2018.33,932.915 2018.33,926.782 2022.15,926.782 2022.15,945 2025.98,945 2025.98,949.767 2029.8,949.767 2029.8,966.029 2033.63,966.029 2033.63,970.783 2037.45,970.783 2037.45,938.534 2041.28,938.534 2041.28,935.653 2045.1,935.653 2045.1,925.191 2048.93,925.191 2048.93,953.57 2052.75,953.57 2052.75,1005.06 2056.58,1005.06 2056.58,993.804 2060.4,993.804 2060.4,985.748 2064.23,985.748 2064.23,1005.99 2068.05,1005.99 2068.05,982.231 2071.88,982.231 2071.88,989.952 2075.7,989.952 2075.7,952.522 2079.53,952.522 2079.53,961.764 2083.35,961.764 2083.35,919.995 2087.18,919.995 2087.18,902.029 2091.01,902.029 2091.01,921.213 2094.83,921.213 2094.83,896.874 2098.66,896.874 2098.66,910.885 2102.48,910.885 2102.48,904.931 2106.31,904.931 2106.31,903.001 2110.13,903.001 2110.13,904.659 2113.96,904.659 2113.96,885.078 2117.78,885.078 2117.78,899.683 2121.61,899.683 2121.61,877.547 2125.43,877.547 2125.43,896.916 2129.26,896.916 2129.26,892.031 2133.08,892.031 2133.08,876.097 2136.91,876.097 2136.91,894.331 2140.73,894.331 2140.73,898.285 2144.56,898.285 2144.56,893.825 2148.38,893.825 2148.38,871.233 2152.21,871.233 2152.21,832.633 2156.03,832.633 2156.03,828.357 2159.86,828.357 2159.86,844.429 2163.68,844.429 2163.68,801.279 2167.51,801.279 2167.51,800.138 2171.33,800.138 2171.33,789.396 2175.16,789.396 2175.16,773.493 2178.98,773.493 2178.98,778.158 2182.81,778.158 2182.81,773.735 2186.63,773.735 2186.63,751.397 2190.46,751.397 2190.46,752.763 2194.28,752.763 2194.28,753.298 2198.11,753.298 2198.11,747.689 2201.93,747.689 2201.93,724.034 2205.76,724.034 2205.76,716.583 2209.59,716.583 2209.59,705.627 2213.41,705.627 2213.41,733.634 2217.24,733.634 2217.24,723.515 2221.06,723.515 2221.06,719.836 2224.89,719.836 2224.89,747.026 2228.71,747.026 2228.71,752.134 2232.54,752.134 2232.54,734.912 2236.36,734.912 2236.36,726.427 2240.19,726.427 2240.19,755.646 2244.01,755.646 2244.01,760.465 2247.84,760.465 2247.84,765.285 2251.66,765.285 2251.66,779.879 2255.49,779.879 2255.49,810.295 2259.31,810.295 2263.14,810.295 2266.96,810.295 2270.79,810.295 2270.79,815.267 2274.61,815.267 2274.61,782.278 2278.44,782.278 2278.44,771.965 2282.26,771.965 2282.26,767.823 2286.09,767.823 2286.09,758.309 2289.91,758.309 2289.91,782.41 2293.74,782.41 2293.74,752.873 2297.56,752.873 2297.56,736.241 2301.39,736.241 2301.39,747.987 2305.21,747.987 2305.21,778.368 2309.04,778.368 2309.04,730.412 2312.86,730.412 2312.86,711.449 2316.69,711.449 2316.69,696.027 2320.51,696.027 2320.51,686.124 2324.34,686.124 2324.34,725.413 2328.17,725.413 2328.17,696.451 2331.99,696.451 2331.99,654.964 2335.82,654.964 2335.82,695.122 2339.64,695.122 2339.64,710.419 2343.47,710.419 2343.47,706.043 2347.29,706.043 2347.29,685.46 2351.12,685.46 2351.12,701.994 2354.94,701.994 2354.94,681.096 2358.77,681.096 2358.77,683.782 2362.59,683.782 2362.59,659.673 2366.42,659.673 2366.42,668.364 2370.24,668.364 2370.24,664.541 2374.07,664.541 2374.07,644.04 2377.89,644.04 2377.89,615.741 2381.72,615.741 2381.72,621.734 2385.54,621.734 2385.54,629.449 2389.37,629.449 2389.37,649.755 2393.19,649.755 2393.19,640.468 2397.02,640.468 2397.02,624.909 2400.84,624.909 2400.84,605.6 2404.67,605.6 2404.67,592.93 2408.49,592.93 2408.49,602.417 2412.32,602.417 2412.32,575.297 2416.14,575.297 2416.14,568.551 2419.97,568.551 2419.97,590.874 2423.79,590.874 2423.79,592.224 2427.62,592.224 2427.62,606.468 2431.44,606.468 2431.44,635.9 2435.27,635.9 2439.09,635.9 2442.92,635.9 2442.92,640.726 2446.75,640.726 2446.75,593.553 2450.57,593.553 2450.57,588.329 2454.4,588.329 2454.4,541.64 2458.22,541.64 2458.22,572.411 2462.05,572.411 2462.05,579.267 2465.87,579.267 2465.87,575.396 2469.7,575.396 2469.7,532.52 2473.52,532.52 2473.52,566.472 2477.35,566.472 2477.35,571.73 2481.17,571.73 2481.17,587.919 2485,587.919 2485,604.752 2488.82,604.752 2488.82,590.643 2492.65,590.643 2492.65,571.324 2496.47,571.324 2496.47,547.115 2500.3,547.115 2500.3,526.273 2504.12,526.273 2504.12,533.039 2507.95,533.039 2507.95,524.953 2511.77,524.953 2511.77,513.903 2515.6,513.903 2515.6,550.021 2519.42,550.021 2519.42,564.561 2523.25,564.561 2527.07,564.561 2527.07,570.459 2530.9,570.459 2530.9,594.805 2534.72,594.805 2534.72,600.467 2538.55,600.467 2538.55,563.583 2542.37,563.583 2542.37,552.949 2546.2,552.949 2546.2,565.239 2550.02,565.239 2550.02,585.723 2553.85,585.723 2553.85,601.013 2557.68,601.013 2561.5,601.013 2561.5,606.538 2565.33,606.538 2565.33,583.853 2569.15,583.853 2569.15,613.098 2572.98,613.098 2572.98,662.123 2576.8,662.123 2576.8,667.156 2580.63,667.156 2580.63,653.009 2584.45,653.009 2584.45,665.854 2588.28,665.854 2588.28,658.047 2592.1,658.047 2592.1,623.973 2595.93,623.973 2595.93,589.073 2599.75,589.073 2599.75,589.275 2603.58,589.275 2603.58,560.593 2607.4,560.593 2607.4,548.29 2611.23,548.29 2611.23,526.338 2615.05,526.338 2615.05,500.357 2618.88,500.357 2618.88,490.575 2622.7,490.575 2622.7,479.268 2626.53,479.268 2626.53,488.652 2630.35,488.652 2630.35,494.89 2634.18,494.89 2634.18,448.857 2638,448.857 2638,466.649 2641.83,466.649 2641.83,450.463 2645.65,450.463 2645.65,407.593 2649.48,407.593 2649.48,384.046 2653.3,384.046 2653.3,392.829 2657.13,392.829 2657.13,358.271 2660.95,358.271 2660.95,396.235 2664.78,396.235 2664.78,435.752 2668.6,435.752 2668.6,466.243 2672.43,466.243 2672.43,494.229 2676.26,494.229 2680.08,494.229 2680.08,499.537 2683.91,499.537 2683.91,497.109 2687.73,497.109 2687.73,450.67 2691.56,450.67 2691.56,412.651 2695.38,412.651 2695.38,383.256 2699.21,383.256 2699.21,358.567 2703.03,358.567 2703.03,356.778 2706.86,356.778 2706.86,369.291 2710.68,369.291 2710.68,410.614 2714.51,410.614 2714.51,425.787 2718.33,425.787 2718.33,414.737 2722.16,414.737 2722.16,438.297 2725.98,438.297 2725.98,443.772 2729.81,443.772 2729.81,479.047 2733.63,479.047 2737.46,479.047 2737.46,484.343 2741.28,484.343 2741.28,569.118 2745.11,569.118 2745.11,595.17 2748.93,595.17 2752.76,595.17 2752.76,600.357 2756.58,600.357 2756.58,595.526 2760.41,595.526 2760.41,595.262 2764.23,595.262 2764.23,571.353 2768.06,571.353 2768.06,530.483 2771.88,530.483 2771.88,547.902 2775.71,547.902 2775.71,568.891 2779.53,568.891 2779.53,582.951 2783.36,582.951 2783.36,588.304 2787.18,588.304 2787.18,559.431 2791.01,559.431 2791.01,554.144 2794.84,554.144 2794.84,543.533 2798.66,543.533 2798.66,457.265 2802.49,457.265 2802.49,409.663 2806.31,409.663 2806.31,438.064 2810.14,438.064 2810.14,423.183 2813.96,423.183 2813.96,402.538 2817.79,402.538 2817.79,374.501 2821.61,374.501 2821.61,376.925 2825.44,376.925 2825.44,357.904 2829.26,357.904 2829.26,339.546 2833.09,339.546 2833.09,373.17 2836.91,373.17 2836.91,358.17 2840.74,358.17 2840.74,349.627 2844.56,349.627 2844.56,325.397 2848.39,325.397 2848.39,321.498 2852.21,321.498 2852.21,342.461 2856.04,342.461 2856.04,338.715 2859.86,338.715 2859.86,323.554 2863.69,323.554 2863.69,321.548 2867.51,321.548 2867.51,327.359 2871.34,327.359 2871.34,316.715 2875.16,316.715 2875.16,349.422 2878.99,349.422 2878.99,313.74 2882.81,313.74 2882.81,337.943 2886.64,337.943 2886.64,395.596 2890.46,395.596 2890.46,401.073 2894.29,401.073 2894.29,376.729 2898.11,376.729 2898.11,338.308 2901.94,338.308 2901.94,293.535 2905.77,293.535 2905.77,301.218 2909.59,301.218 2909.59,286.793 2913.42,286.793 2913.42,331.031 2917.24,331.031 2917.24,340.854 2921.07,340.854 2921.07,302.878 2924.89,302.878 2924.89,280.542 2928.72,280.542 2928.72,299.052 2932.54,299.052 2932.54,362.993 2936.37,362.993 2936.37,280.351 2940.19,280.351 2940.19,259.816 2944.02,259.816 2944.02,260.485 2947.84,260.485 2947.84,229.984 2951.67,229.984 2951.67,246.634 2955.49,246.634 2955.49,266.23 2959.32,266.23 2959.32,236.607 2963.14,236.607 2963.14,219.551 2966.97,219.551 2966.97,214.327 2970.79,214.327 2970.79,215.632 2974.62,215.632 2974.62,209.695 2978.44,209.695 2978.44,198.468 2982.27,198.468 2982.27,166.975 2986.09,166.975 2986.09,204.754 2989.92,204.754 2989.92,191.479 2993.74,191.479 2993.74,152.399 2997.57,152.399 2997.57,147.599 3001.39,147.599 3001.39,166.527 3005.22,166.527 3005.22,190.117 3009.04,190.117 3009.04,265.915 3012.87,265.915 3012.87,271.782 3016.69,271.782 3016.69,232.808 3020.52,232.808 3020.52,296.295 3024.35,296.295 3024.35,265.826 3028.17,265.826 3028.17,272.962 3032,272.962 3032,252.484 3035.82,252.484 3035.82,231.353 3039.65,231.353 3039.65,247.071 3043.47,247.071 3043.47,316.817 3047.3,316.817 3051.12,316.817 3051.12,322.193 3054.95,322.193 3054.95,322.516 3058.77,322.516 3058.77,319.834 3062.6,319.834 3062.6,292.824 3066.42,292.824 3066.42,291.486 3070.25,291.486 3070.25,202.807 "/>
</svg>
