<?xml version="1.0" encoding="utf-8"?>
<svg xmlns="http://www.w3.org/2000/svg" xmlns:xlink="http://www.w3.org/1999/xlink" width="800" height="400" viewBox="0 0 3200 1600">
<defs>
  <clipPath id="clip090">
    <rect x="0" y="0" width="3200" height="1600"/>
  </clipPath>
</defs>
<path clip-path="url(#clip090)" d="M0 1600 L3200 1600 L3200 0 L0 0  Z" fill="#282c34" fill-rule="evenodd" fill-opacity="1"/>
<defs>
  <clipPath id="clip091">
    <rect x="240" y="95" width="2913" height="1401"/>
  </clipPath>
</defs>
<path clip-path="url(#clip090)" d="M240.339 1495.09 L3152.76 1495.09 L3152.76 95.3921 L240.339 95.3921  Z" fill="#21252b" fill-rule="evenodd" fill-opacity="1"/>
<polyline clip-path="url(#clip091)" style="stroke:#adb2b7; stroke-linecap:round; stroke-linejoin:round; stroke-width:2; stroke-opacity:0.1; fill:none" points="322.765,1495.09 322.765,95.3921 "/>
<polyline clip-path="url(#clip091)" style="stroke:#adb2b7; stroke-linecap:round; stroke-linejoin:round; stroke-width:2; stroke-opacity:0.1; fill:none" points="1345.37,1495.09 1345.37,95.3921 "/>
<polyline clip-path="url(#clip091)" style="stroke:#adb2b7; stroke-linecap:round; stroke-linejoin:round; stroke-width:2; stroke-opacity:0.1; fill:none" points="2302,1495.09 2302,95.3921 "/>
<polyline clip-path="url(#clip091)" style="stroke:#adb2b7; stroke-linecap:round; stroke-linejoin:round; stroke-width:2; stroke-opacity:0.1; fill:none" points="240.339,1317.19 3152.76,1317.19 "/>
<polyline clip-path="url(#clip091)" style="stroke:#adb2b7; stroke-linecap:round; stroke-linejoin:round; stroke-width:2; stroke-opacity:0.1; fill:none" points="240.339,927.865 3152.76,927.865 "/>
<polyline clip-path="url(#clip091)" style="stroke:#adb2b7; stroke-linecap:round; stroke-linejoin:round; stroke-width:2; stroke-opacity:0.1; fill:none" points="240.339,538.537 3152.76,538.537 "/>
<polyline clip-path="url(#clip091)" style="stroke:#adb2b7; stroke-linecap:round; stroke-linejoin:round; stroke-width:2; stroke-opacity:0.1; fill:none" points="240.339,149.208 3152.76,149.208 "/>
<polyline clip-path="url(#clip090)" style="stroke:#adb2b7; stroke-linecap:round; stroke-linejoin:round; stroke-width:4; stroke-opacity:1; fill:none" points="240.339,1495.09 3152.76,1495.09 "/>
<polyline clip-path="url(#clip090)" style="stroke:#adb2b7; stroke-linecap:round; stroke-linejoin:round; stroke-width:4; stroke-opacity:1; fill:none" points="322.765,1495.09 322.765,1476.19 "/>
<polyline clip-path="url(#clip090)" style="stroke:#adb2b7; stroke-linecap:round; stroke-linejoin:round; stroke-width:4; stroke-opacity:1; fill:none" points="1345.37,1495.09 1345.37,1476.19 "/>
<polyline clip-path="url(#clip090)" style="stroke:#adb2b7; stroke-linecap:round; stroke-linejoin:round; stroke-width:4; stroke-opacity:1; fill:none" points="2302,1495.09 2302,1476.19 "/>
<path clip-path="url(#clip090)" d="M194.56 1559.95 L210.88 1559.95 L210.88 1563.89 L188.935 1563.89 L188.935 1559.95 Q191.597 1557.2 196.181 1552.57 Q200.787 1547.92 201.968 1546.57 Q204.213 1544.05 205.092 1542.31 Q205.995 1540.55 205.995 1538.86 Q205.995 1536.11 204.051 1534.37 Q202.13 1532.64 199.028 1532.64 Q196.829 1532.64 194.375 1533.4 Q191.944 1534.17 189.167 1535.72 L189.167 1530.99 Q191.991 1529.86 194.444 1529.28 Q196.898 1528.7 198.935 1528.7 Q204.305 1528.7 207.5 1531.39 Q210.694 1534.07 210.694 1538.56 Q210.694 1540.69 209.884 1542.61 Q209.097 1544.51 206.991 1547.11 Q206.412 1547.78 203.31 1550.99 Q200.208 1554.19 194.56 1559.95 Z" fill="#9eb1be" fill-rule="nonzero" fill-opacity="1" /><path clip-path="url(#clip090)" d="M230.694 1532.41 Q227.083 1532.41 225.254 1535.97 Q223.449 1539.51 223.449 1546.64 Q223.449 1553.75 225.254 1557.31 Q227.083 1560.86 230.694 1560.86 Q234.328 1560.86 236.134 1557.31 Q237.963 1553.75 237.963 1546.64 Q237.963 1539.51 236.134 1535.97 Q234.328 1532.41 230.694 1532.41 M230.694 1528.7 Q236.504 1528.7 239.56 1533.31 Q242.639 1537.89 242.639 1546.64 Q242.639 1555.37 239.56 1559.98 Q236.504 1564.56 230.694 1564.56 Q224.884 1564.56 221.805 1559.98 Q218.75 1555.37 218.75 1546.64 Q218.75 1537.89 221.805 1533.31 Q224.884 1528.7 230.694 1528.7 Z" fill="#9eb1be" fill-rule="nonzero" fill-opacity="1" /><path clip-path="url(#clip090)" d="M254.884 1559.95 L271.203 1559.95 L271.203 1563.89 L249.259 1563.89 L249.259 1559.95 Q251.921 1557.2 256.504 1552.57 Q261.111 1547.92 262.291 1546.57 Q264.537 1544.05 265.416 1542.31 Q266.319 1540.55 266.319 1538.86 Q266.319 1536.11 264.375 1534.37 Q262.453 1532.64 259.351 1532.64 Q257.152 1532.64 254.699 1533.4 Q252.268 1534.17 249.49 1535.72 L249.49 1530.99 Q252.314 1529.86 254.768 1529.28 Q257.222 1528.7 259.259 1528.7 Q264.629 1528.7 267.824 1531.39 Q271.018 1534.07 271.018 1538.56 Q271.018 1540.69 270.208 1542.61 Q269.421 1544.51 267.314 1547.11 Q266.736 1547.78 263.634 1550.99 Q260.532 1554.19 254.884 1559.95 Z" fill="#9eb1be" fill-rule="nonzero" fill-opacity="1" /><path clip-path="url(#clip090)" d="M291.018 1532.41 Q287.407 1532.41 285.578 1535.97 Q283.773 1539.51 283.773 1546.64 Q283.773 1553.75 285.578 1557.31 Q287.407 1560.86 291.018 1560.86 Q294.652 1560.86 296.458 1557.31 Q298.286 1553.75 298.286 1546.64 Q298.286 1539.51 296.458 1535.97 Q294.652 1532.41 291.018 1532.41 M291.018 1528.7 Q296.828 1528.7 299.884 1533.31 Q302.962 1537.89 302.962 1546.64 Q302.962 1555.37 299.884 1559.98 Q296.828 1564.56 291.018 1564.56 Q285.208 1564.56 282.129 1559.98 Q279.074 1555.37 279.074 1546.64 Q279.074 1537.89 282.129 1533.31 Q285.208 1528.7 291.018 1528.7 Z" fill="#9eb1be" fill-rule="nonzero" fill-opacity="1" /><path clip-path="url(#clip090)" d="M308.425 1549 L320.902 1549 L320.902 1552.8 L308.425 1552.8 L308.425 1549 Z" fill="#9eb1be" fill-rule="nonzero" fill-opacity="1" /><path clip-path="url(#clip090)" d="M338.286 1532.41 Q334.675 1532.41 332.846 1535.97 Q331.041 1539.51 331.041 1546.64 Q331.041 1553.75 332.846 1557.31 Q334.675 1560.86 338.286 1560.86 Q341.92 1560.86 343.726 1557.31 Q345.555 1553.75 345.555 1546.64 Q345.555 1539.51 343.726 1535.97 Q341.92 1532.41 338.286 1532.41 M338.286 1528.7 Q344.096 1528.7 347.152 1533.31 Q350.231 1537.89 350.231 1546.64 Q350.231 1555.37 347.152 1559.98 Q344.096 1564.56 338.286 1564.56 Q332.476 1564.56 329.397 1559.98 Q326.342 1555.37 326.342 1546.64 Q326.342 1537.89 329.397 1533.31 Q332.476 1528.7 338.286 1528.7 Z" fill="#9eb1be" fill-rule="nonzero" fill-opacity="1" /><path clip-path="url(#clip090)" d="M359.258 1559.95 L366.897 1559.95 L366.897 1533.59 L358.587 1535.25 L358.587 1530.99 L366.851 1529.33 L371.527 1529.33 L371.527 1559.95 L379.166 1559.95 L379.166 1563.89 L359.258 1563.89 L359.258 1559.95 Z" fill="#9eb1be" fill-rule="nonzero" fill-opacity="1" /><path clip-path="url(#clip090)" d="M385.855 1549 L398.332 1549 L398.332 1552.8 L385.855 1552.8 L385.855 1549 Z" fill="#9eb1be" fill-rule="nonzero" fill-opacity="1" /><path clip-path="url(#clip090)" d="M415.716 1532.41 Q412.105 1532.41 410.277 1535.97 Q408.471 1539.51 408.471 1546.64 Q408.471 1553.75 410.277 1557.31 Q412.105 1560.86 415.716 1560.86 Q419.351 1560.86 421.156 1557.31 Q422.985 1553.75 422.985 1546.64 Q422.985 1539.51 421.156 1535.97 Q419.351 1532.41 415.716 1532.41 M415.716 1528.7 Q421.527 1528.7 424.582 1533.31 Q427.661 1537.89 427.661 1546.64 Q427.661 1555.37 424.582 1559.98 Q421.527 1564.56 415.716 1564.56 Q409.906 1564.56 406.828 1559.98 Q403.772 1555.37 403.772 1546.64 Q403.772 1537.89 406.828 1533.31 Q409.906 1528.7 415.716 1528.7 Z" fill="#9eb1be" fill-rule="nonzero" fill-opacity="1" /><path clip-path="url(#clip090)" d="M436.688 1559.95 L444.327 1559.95 L444.327 1533.59 L436.017 1535.25 L436.017 1530.99 L444.281 1529.33 L448.957 1529.33 L448.957 1559.95 L456.596 1559.95 L456.596 1563.89 L436.688 1563.89 L436.688 1559.95 Z" fill="#9eb1be" fill-rule="nonzero" fill-opacity="1" /><path clip-path="url(#clip090)" d="M1217.17 1559.95 L1233.48 1559.95 L1233.48 1563.89 L1211.54 1563.89 L1211.54 1559.95 Q1214.2 1557.2 1218.79 1552.57 Q1223.39 1547.92 1224.57 1546.57 Q1226.82 1544.05 1227.7 1542.31 Q1228.6 1540.55 1228.6 1538.86 Q1228.6 1536.11 1226.66 1534.37 Q1224.73 1532.64 1221.63 1532.64 Q1219.43 1532.64 1216.98 1533.4 Q1214.55 1534.17 1211.77 1535.72 L1211.77 1530.99 Q1214.6 1529.86 1217.05 1529.28 Q1219.5 1528.7 1221.54 1528.7 Q1226.91 1528.7 1230.1 1531.39 Q1233.3 1534.07 1233.3 1538.56 Q1233.3 1540.69 1232.49 1542.61 Q1231.7 1544.51 1229.6 1547.11 Q1229.02 1547.78 1225.92 1550.99 Q1222.81 1554.19 1217.17 1559.95 Z" fill="#9eb1be" fill-rule="nonzero" fill-opacity="1" /><path clip-path="url(#clip090)" d="M1253.3 1532.41 Q1249.69 1532.41 1247.86 1535.97 Q1246.05 1539.51 1246.05 1546.64 Q1246.05 1553.75 1247.86 1557.31 Q1249.69 1560.86 1253.3 1560.86 Q1256.93 1560.86 1258.74 1557.31 Q1260.57 1553.75 1260.57 1546.64 Q1260.57 1539.51 1258.74 1535.97 Q1256.93 1532.41 1253.3 1532.41 M1253.3 1528.7 Q1259.11 1528.7 1262.16 1533.31 Q1265.24 1537.89 1265.24 1546.64 Q1265.24 1555.37 1262.16 1559.98 Q1259.11 1564.56 1253.3 1564.56 Q1247.49 1564.56 1244.41 1559.98 Q1241.35 1555.37 1241.35 1546.64 Q1241.35 1537.89 1244.41 1533.31 Q1247.49 1528.7 1253.3 1528.7 Z" fill="#9eb1be" fill-rule="nonzero" fill-opacity="1" /><path clip-path="url(#clip090)" d="M1277.49 1559.95 L1293.81 1559.95 L1293.81 1563.89 L1271.86 1563.89 L1271.86 1559.95 Q1274.53 1557.2 1279.11 1552.57 Q1283.72 1547.92 1284.9 1546.57 Q1287.14 1544.05 1288.02 1542.31 Q1288.92 1540.55 1288.92 1538.86 Q1288.92 1536.11 1286.98 1534.37 Q1285.06 1532.64 1281.96 1532.64 Q1279.76 1532.64 1277.3 1533.4 Q1274.87 1534.17 1272.1 1535.72 L1272.1 1530.99 Q1274.92 1529.86 1277.37 1529.28 Q1279.83 1528.7 1281.86 1528.7 Q1287.23 1528.7 1290.43 1531.39 Q1293.62 1534.07 1293.62 1538.56 Q1293.62 1540.69 1292.81 1542.61 Q1292.03 1544.51 1289.92 1547.11 Q1289.34 1547.78 1286.24 1550.99 Q1283.14 1554.19 1277.49 1559.95 Z" fill="#9eb1be" fill-rule="nonzero" fill-opacity="1" /><path clip-path="url(#clip090)" d="M1313.62 1532.41 Q1310.01 1532.41 1308.18 1535.97 Q1306.38 1539.51 1306.38 1546.64 Q1306.38 1553.75 1308.18 1557.31 Q1310.01 1560.86 1313.62 1560.86 Q1317.26 1560.86 1319.06 1557.31 Q1320.89 1553.75 1320.89 1546.64 Q1320.89 1539.51 1319.06 1535.97 Q1317.26 1532.41 1313.62 1532.41 M1313.62 1528.7 Q1319.43 1528.7 1322.49 1533.31 Q1325.57 1537.89 1325.57 1546.64 Q1325.57 1555.37 1322.49 1559.98 Q1319.43 1564.56 1313.62 1564.56 Q1307.81 1564.56 1304.73 1559.98 Q1301.68 1555.37 1301.68 1546.64 Q1301.68 1537.89 1304.73 1533.31 Q1307.81 1528.7 1313.62 1528.7 Z" fill="#9eb1be" fill-rule="nonzero" fill-opacity="1" /><path clip-path="url(#clip090)" d="M1331.03 1549 L1343.51 1549 L1343.51 1552.8 L1331.03 1552.8 L1331.03 1549 Z" fill="#9eb1be" fill-rule="nonzero" fill-opacity="1" /><path clip-path="url(#clip090)" d="M1360.89 1532.41 Q1357.28 1532.41 1355.45 1535.97 Q1353.65 1539.51 1353.65 1546.64 Q1353.65 1553.75 1355.45 1557.31 Q1357.28 1560.86 1360.89 1560.86 Q1364.53 1560.86 1366.33 1557.31 Q1368.16 1553.75 1368.16 1546.64 Q1368.16 1539.51 1366.33 1535.97 Q1364.53 1532.41 1360.89 1532.41 M1360.89 1528.7 Q1366.7 1528.7 1369.76 1533.31 Q1372.84 1537.89 1372.84 1546.64 Q1372.84 1555.37 1369.76 1559.98 Q1366.7 1564.56 1360.89 1564.56 Q1355.08 1564.56 1352 1559.98 Q1348.95 1555.37 1348.95 1546.64 Q1348.95 1537.89 1352 1533.31 Q1355.08 1528.7 1360.89 1528.7 Z" fill="#9eb1be" fill-rule="nonzero" fill-opacity="1" /><path clip-path="url(#clip090)" d="M1385.08 1559.95 L1401.4 1559.95 L1401.4 1563.89 L1379.46 1563.89 L1379.46 1559.95 Q1382.12 1557.2 1386.7 1552.57 Q1391.31 1547.92 1392.49 1546.57 Q1394.73 1544.05 1395.61 1542.31 Q1396.52 1540.55 1396.52 1538.86 Q1396.52 1536.11 1394.57 1534.37 Q1392.65 1532.64 1389.55 1532.64 Q1387.35 1532.64 1384.9 1533.4 Q1382.47 1534.17 1379.69 1535.72 L1379.69 1530.99 Q1382.51 1529.86 1384.97 1529.28 Q1387.42 1528.7 1389.46 1528.7 Q1394.83 1528.7 1398.02 1531.39 Q1401.22 1534.07 1401.22 1538.56 Q1401.22 1540.69 1400.4 1542.61 Q1399.62 1544.51 1397.51 1547.11 Q1396.93 1547.78 1393.83 1550.99 Q1390.73 1554.19 1385.08 1559.95 Z" fill="#9eb1be" fill-rule="nonzero" fill-opacity="1" /><path clip-path="url(#clip090)" d="M1408.46 1549 L1420.94 1549 L1420.94 1552.8 L1408.46 1552.8 L1408.46 1549 Z" fill="#9eb1be" fill-rule="nonzero" fill-opacity="1" /><path clip-path="url(#clip090)" d="M1438.32 1532.41 Q1434.71 1532.41 1432.88 1535.97 Q1431.08 1539.51 1431.08 1546.64 Q1431.08 1553.75 1432.88 1557.31 Q1434.71 1560.86 1438.32 1560.86 Q1441.96 1560.86 1443.76 1557.31 Q1445.59 1553.75 1445.59 1546.64 Q1445.59 1539.51 1443.76 1535.97 Q1441.96 1532.41 1438.32 1532.41 M1438.32 1528.7 Q1444.13 1528.7 1447.19 1533.31 Q1450.27 1537.89 1450.27 1546.64 Q1450.27 1555.37 1447.19 1559.98 Q1444.13 1564.56 1438.32 1564.56 Q1432.51 1564.56 1429.43 1559.98 Q1426.38 1555.37 1426.38 1546.64 Q1426.38 1537.89 1429.43 1533.31 Q1432.51 1528.7 1438.32 1528.7 Z" fill="#9eb1be" fill-rule="nonzero" fill-opacity="1" /><path clip-path="url(#clip090)" d="M1459.29 1559.95 L1466.93 1559.95 L1466.93 1533.59 L1458.62 1535.25 L1458.62 1530.99 L1466.89 1529.33 L1471.56 1529.33 L1471.56 1559.95 L1479.2 1559.95 L1479.2 1563.89 L1459.29 1563.89 L1459.29 1559.95 Z" fill="#9eb1be" fill-rule="nonzero" fill-opacity="1" /><path clip-path="url(#clip090)" d="M2173.8 1559.95 L2190.11 1559.95 L2190.11 1563.89 L2168.17 1563.89 L2168.17 1559.95 Q2170.83 1557.2 2175.42 1552.57 Q2180.02 1547.92 2181.2 1546.57 Q2183.45 1544.05 2184.33 1542.31 Q2185.23 1540.55 2185.23 1538.86 Q2185.23 1536.11 2183.29 1534.37 Q2181.36 1532.64 2178.26 1532.64 Q2176.06 1532.64 2173.61 1533.4 Q2171.18 1534.17 2168.4 1535.72 L2168.4 1530.99 Q2171.23 1529.86 2173.68 1529.28 Q2176.13 1528.7 2178.17 1528.7 Q2183.54 1528.7 2186.74 1531.39 Q2189.93 1534.07 2189.93 1538.56 Q2189.93 1540.69 2189.12 1542.61 Q2188.33 1544.51 2186.23 1547.11 Q2185.65 1547.78 2182.55 1550.99 Q2179.44 1554.19 2173.8 1559.95 Z" fill="#9eb1be" fill-rule="nonzero" fill-opacity="1" /><path clip-path="url(#clip090)" d="M2209.93 1532.41 Q2206.32 1532.41 2204.49 1535.97 Q2202.68 1539.51 2202.68 1546.64 Q2202.68 1553.75 2204.49 1557.31 Q2206.32 1560.86 2209.93 1560.86 Q2213.56 1560.86 2215.37 1557.31 Q2217.2 1553.75 2217.2 1546.64 Q2217.2 1539.51 2215.37 1535.97 Q2213.56 1532.41 2209.93 1532.41 M2209.93 1528.7 Q2215.74 1528.7 2218.8 1533.31 Q2221.87 1537.89 2221.87 1546.64 Q2221.87 1555.37 2218.8 1559.98 Q2215.74 1564.56 2209.93 1564.56 Q2204.12 1564.56 2201.04 1559.98 Q2197.99 1555.37 2197.99 1546.64 Q2197.99 1537.89 2201.04 1533.31 Q2204.12 1528.7 2209.93 1528.7 Z" fill="#9eb1be" fill-rule="nonzero" fill-opacity="1" /><path clip-path="url(#clip090)" d="M2234.12 1559.95 L2250.44 1559.95 L2250.44 1563.89 L2228.49 1563.89 L2228.49 1559.95 Q2231.16 1557.2 2235.74 1552.57 Q2240.35 1547.92 2241.53 1546.57 Q2243.77 1544.05 2244.65 1542.31 Q2245.55 1540.55 2245.55 1538.86 Q2245.55 1536.11 2243.61 1534.37 Q2241.69 1532.64 2238.59 1532.64 Q2236.39 1532.64 2233.93 1533.4 Q2231.5 1534.17 2228.73 1535.72 L2228.73 1530.99 Q2231.55 1529.86 2234 1529.28 Q2236.46 1528.7 2238.49 1528.7 Q2243.86 1528.7 2247.06 1531.39 Q2250.25 1534.07 2250.25 1538.56 Q2250.25 1540.69 2249.44 1542.61 Q2248.66 1544.51 2246.55 1547.11 Q2245.97 1547.78 2242.87 1550.99 Q2239.77 1554.19 2234.12 1559.95 Z" fill="#9eb1be" fill-rule="nonzero" fill-opacity="1" /><path clip-path="url(#clip090)" d="M2270.25 1532.41 Q2266.64 1532.41 2264.81 1535.97 Q2263.01 1539.51 2263.01 1546.64 Q2263.01 1553.75 2264.81 1557.31 Q2266.64 1560.86 2270.25 1560.86 Q2273.89 1560.86 2275.69 1557.31 Q2277.52 1553.75 2277.52 1546.64 Q2277.52 1539.51 2275.69 1535.97 Q2273.89 1532.41 2270.25 1532.41 M2270.25 1528.7 Q2276.06 1528.7 2279.12 1533.31 Q2282.2 1537.89 2282.2 1546.64 Q2282.2 1555.37 2279.12 1559.98 Q2276.06 1564.56 2270.25 1564.56 Q2264.44 1564.56 2261.36 1559.98 Q2258.31 1555.37 2258.31 1546.64 Q2258.31 1537.89 2261.36 1533.31 Q2264.44 1528.7 2270.25 1528.7 Z" fill="#9eb1be" fill-rule="nonzero" fill-opacity="1" /><path clip-path="url(#clip090)" d="M2287.66 1549 L2300.14 1549 L2300.14 1552.8 L2287.66 1552.8 L2287.66 1549 Z" fill="#9eb1be" fill-rule="nonzero" fill-opacity="1" /><path clip-path="url(#clip090)" d="M2317.52 1532.41 Q2313.91 1532.41 2312.08 1535.97 Q2310.28 1539.51 2310.28 1546.64 Q2310.28 1553.75 2312.08 1557.31 Q2313.91 1560.86 2317.52 1560.86 Q2321.16 1560.86 2322.96 1557.31 Q2324.79 1553.75 2324.79 1546.64 Q2324.79 1539.51 2322.96 1535.97 Q2321.16 1532.41 2317.52 1532.41 M2317.52 1528.7 Q2323.33 1528.7 2326.39 1533.31 Q2329.47 1537.89 2329.47 1546.64 Q2329.47 1555.37 2326.39 1559.98 Q2323.33 1564.56 2317.52 1564.56 Q2311.71 1564.56 2308.63 1559.98 Q2305.58 1555.37 2305.58 1546.64 Q2305.58 1537.89 2308.63 1533.31 Q2311.71 1528.7 2317.52 1528.7 Z" fill="#9eb1be" fill-rule="nonzero" fill-opacity="1" /><path clip-path="url(#clip090)" d="M2351.85 1545.25 Q2355.21 1545.97 2357.08 1548.24 Q2358.98 1550.51 2358.98 1553.84 Q2358.98 1558.96 2355.46 1561.76 Q2351.94 1564.56 2345.46 1564.56 Q2343.29 1564.56 2340.97 1564.12 Q2338.68 1563.7 2336.23 1562.85 L2336.23 1558.33 Q2338.17 1559.47 2340.48 1560.05 Q2342.8 1560.62 2345.32 1560.62 Q2349.72 1560.62 2352.01 1558.89 Q2354.33 1557.15 2354.33 1553.84 Q2354.33 1550.79 2352.17 1549.07 Q2350.04 1547.34 2346.23 1547.34 L2342.2 1547.34 L2342.2 1543.49 L2346.41 1543.49 Q2349.86 1543.49 2351.69 1542.13 Q2353.52 1540.74 2353.52 1538.15 Q2353.52 1535.49 2351.62 1534.07 Q2349.74 1532.64 2346.23 1532.64 Q2344.3 1532.64 2342.1 1533.05 Q2339.91 1533.47 2337.27 1534.35 L2337.27 1530.18 Q2339.93 1529.44 2342.24 1529.07 Q2344.58 1528.7 2346.64 1528.7 Q2351.97 1528.7 2355.07 1531.13 Q2358.17 1533.54 2358.17 1537.66 Q2358.17 1540.53 2356.53 1542.52 Q2354.88 1544.49 2351.85 1545.25 Z" fill="#9eb1be" fill-rule="nonzero" fill-opacity="1" /><path clip-path="url(#clip090)" d="M2365.09 1549 L2377.57 1549 L2377.57 1552.8 L2365.09 1552.8 L2365.09 1549 Z" fill="#9eb1be" fill-rule="nonzero" fill-opacity="1" /><path clip-path="url(#clip090)" d="M2394.95 1532.41 Q2391.34 1532.41 2389.51 1535.97 Q2387.71 1539.51 2387.71 1546.64 Q2387.71 1553.75 2389.51 1557.31 Q2391.34 1560.86 2394.95 1560.86 Q2398.59 1560.86 2400.39 1557.31 Q2402.22 1553.75 2402.22 1546.64 Q2402.22 1539.51 2400.39 1535.97 Q2398.59 1532.41 2394.95 1532.41 M2394.95 1528.7 Q2400.76 1528.7 2403.82 1533.31 Q2406.9 1537.89 2406.9 1546.64 Q2406.9 1555.37 2403.82 1559.98 Q2400.76 1564.56 2394.95 1564.56 Q2389.14 1564.56 2386.06 1559.98 Q2383.01 1555.37 2383.01 1546.64 Q2383.01 1537.89 2386.06 1533.31 Q2389.14 1528.7 2394.95 1528.7 Z" fill="#9eb1be" fill-rule="nonzero" fill-opacity="1" /><path clip-path="url(#clip090)" d="M2415.92 1559.95 L2423.56 1559.95 L2423.56 1533.59 L2415.25 1535.25 L2415.25 1530.99 L2423.52 1529.33 L2428.19 1529.33 L2428.19 1559.95 L2435.83 1559.95 L2435.83 1563.89 L2415.92 1563.89 L2415.92 1559.95 Z" fill="#9eb1be" fill-rule="nonzero" fill-opacity="1" /><polyline clip-path="url(#clip090)" style="stroke:#adb2b7; stroke-linecap:round; stroke-linejoin:round; stroke-width:4; stroke-opacity:1; fill:none" points="240.339,1495.09 240.339,95.3921 "/>
<polyline clip-path="url(#clip090)" style="stroke:#adb2b7; stroke-linecap:round; stroke-linejoin:round; stroke-width:4; stroke-opacity:1; fill:none" points="240.339,1317.19 259.236,1317.19 "/>
<polyline clip-path="url(#clip090)" style="stroke:#adb2b7; stroke-linecap:round; stroke-linejoin:round; stroke-width:4; stroke-opacity:1; fill:none" points="240.339,927.865 259.236,927.865 "/>
<polyline clip-path="url(#clip090)" style="stroke:#adb2b7; stroke-linecap:round; stroke-linejoin:round; stroke-width:4; stroke-opacity:1; fill:none" points="240.339,538.537 259.236,538.537 "/>
<polyline clip-path="url(#clip090)" style="stroke:#adb2b7; stroke-linecap:round; stroke-linejoin:round; stroke-width:4; stroke-opacity:1; fill:none" points="240.339,149.208 259.236,149.208 "/>
<path clip-path="url(#clip090)" d="M62.5939 1303.99 L50.7884 1322.44 L62.5939 1322.44 L62.5939 1303.99 M61.367 1299.91 L67.2466 1299.91 L67.2466 1322.44 L72.1772 1322.44 L72.1772 1326.33 L67.2466 1326.33 L67.2466 1334.47 L62.5939 1334.47 L62.5939 1326.33 L46.9921 1326.33 L46.9921 1321.81 L61.367 1299.91 Z" fill="#9eb1be" fill-rule="nonzero" fill-opacity="1" /><path clip-path="url(#clip090)" d="M80.7188 1330.54 L88.3576 1330.54 L88.3576 1304.17 L80.0475 1305.84 L80.0475 1301.58 L88.3113 1299.91 L92.9872 1299.91 L92.9872 1330.54 L100.626 1330.54 L100.626 1334.47 L80.7188 1334.47 L80.7188 1330.54 Z" fill="#9eb1be" fill-rule="nonzero" fill-opacity="1" /><path clip-path="url(#clip090)" d="M120.07 1302.99 Q116.459 1302.99 114.631 1306.56 Q112.825 1310.1 112.825 1317.23 Q112.825 1324.33 114.631 1327.9 Q116.459 1331.44 120.07 1331.44 Q123.705 1331.44 125.51 1327.9 Q127.339 1324.33 127.339 1317.23 Q127.339 1310.1 125.51 1306.56 Q123.705 1302.99 120.07 1302.99 M120.07 1299.29 Q125.881 1299.29 128.936 1303.9 Q132.015 1308.48 132.015 1317.23 Q132.015 1325.96 128.936 1330.56 Q125.881 1335.14 120.07 1335.14 Q114.26 1335.14 111.182 1330.56 Q108.126 1325.96 108.126 1317.23 Q108.126 1308.48 111.182 1303.9 Q114.26 1299.29 120.07 1299.29 Z" fill="#9eb1be" fill-rule="nonzero" fill-opacity="1" /><path clip-path="url(#clip090)" d="M150.232 1302.99 Q146.621 1302.99 144.793 1306.56 Q142.987 1310.1 142.987 1317.23 Q142.987 1324.33 144.793 1327.9 Q146.621 1331.44 150.232 1331.44 Q153.867 1331.44 155.672 1327.9 Q157.501 1324.33 157.501 1317.23 Q157.501 1310.1 155.672 1306.56 Q153.867 1302.99 150.232 1302.99 M150.232 1299.29 Q156.042 1299.29 159.098 1303.9 Q162.177 1308.48 162.177 1317.23 Q162.177 1325.96 159.098 1330.56 Q156.042 1335.14 150.232 1335.14 Q144.422 1335.14 141.343 1330.56 Q138.288 1325.96 138.288 1317.23 Q138.288 1308.48 141.343 1303.9 Q144.422 1299.29 150.232 1299.29 Z" fill="#9eb1be" fill-rule="nonzero" fill-opacity="1" /><path clip-path="url(#clip090)" d="M180.394 1302.99 Q176.783 1302.99 174.954 1306.56 Q173.149 1310.1 173.149 1317.23 Q173.149 1324.33 174.954 1327.9 Q176.783 1331.44 180.394 1331.44 Q184.028 1331.44 185.834 1327.9 Q187.663 1324.33 187.663 1317.23 Q187.663 1310.1 185.834 1306.56 Q184.028 1302.99 180.394 1302.99 M180.394 1299.29 Q186.204 1299.29 189.26 1303.9 Q192.339 1308.48 192.339 1317.23 Q192.339 1325.96 189.26 1330.56 Q186.204 1335.14 180.394 1335.14 Q174.584 1335.14 171.505 1330.56 Q168.45 1325.96 168.45 1317.23 Q168.45 1308.48 171.505 1303.9 Q174.584 1299.29 180.394 1299.29 Z" fill="#9eb1be" fill-rule="nonzero" fill-opacity="1" /><path clip-path="url(#clip090)" d="M62.5939 914.659 L50.7884 933.108 L62.5939 933.108 L62.5939 914.659 M61.367 910.585 L67.2466 910.585 L67.2466 933.108 L72.1772 933.108 L72.1772 936.997 L67.2466 936.997 L67.2466 945.145 L62.5939 945.145 L62.5939 936.997 L46.9921 936.997 L46.9921 932.483 L61.367 910.585 Z" fill="#9eb1be" fill-rule="nonzero" fill-opacity="1" /><path clip-path="url(#clip090)" d="M83.9364 941.21 L100.256 941.21 L100.256 945.145 L78.3114 945.145 L78.3114 941.21 Q80.9734 938.455 85.5567 933.826 Q90.1632 929.173 91.3437 927.83 Q93.5891 925.307 94.4687 923.571 Q95.3715 921.812 95.3715 920.122 Q95.3715 917.368 93.4271 915.631 Q91.5058 913.895 88.4039 913.895 Q86.2049 913.895 83.7512 914.659 Q81.3206 915.423 78.5429 916.974 L78.5429 912.252 Q81.3669 911.118 83.8206 910.539 Q86.2743 909.96 88.3113 909.96 Q93.6817 909.96 96.8761 912.645 Q100.071 915.33 100.071 919.821 Q100.071 921.951 99.2604 923.872 Q98.4733 925.77 96.3669 928.363 Q95.7882 929.034 92.6863 932.252 Q89.5845 935.446 83.9364 941.21 Z" fill="#9eb1be" fill-rule="nonzero" fill-opacity="1" /><path clip-path="url(#clip090)" d="M120.07 913.664 Q116.459 913.664 114.631 917.229 Q112.825 920.77 112.825 927.9 Q112.825 935.006 114.631 938.571 Q116.459 942.113 120.07 942.113 Q123.705 942.113 125.51 938.571 Q127.339 935.006 127.339 927.9 Q127.339 920.77 125.51 917.229 Q123.705 913.664 120.07 913.664 M120.07 909.96 Q125.881 909.96 128.936 914.567 Q132.015 919.15 132.015 927.9 Q132.015 936.627 128.936 941.233 Q125.881 945.816 120.07 945.816 Q114.26 945.816 111.182 941.233 Q108.126 936.627 108.126 927.9 Q108.126 919.15 111.182 914.567 Q114.26 909.96 120.07 909.96 Z" fill="#9eb1be" fill-rule="nonzero" fill-opacity="1" /><path clip-path="url(#clip090)" d="M150.232 913.664 Q146.621 913.664 144.793 917.229 Q142.987 920.77 142.987 927.9 Q142.987 935.006 144.793 938.571 Q146.621 942.113 150.232 942.113 Q153.867 942.113 155.672 938.571 Q157.501 935.006 157.501 927.9 Q157.501 920.77 155.672 917.229 Q153.867 913.664 150.232 913.664 M150.232 909.96 Q156.042 909.96 159.098 914.567 Q162.177 919.15 162.177 927.9 Q162.177 936.627 159.098 941.233 Q156.042 945.816 150.232 945.816 Q144.422 945.816 141.343 941.233 Q138.288 936.627 138.288 927.9 Q138.288 919.15 141.343 914.567 Q144.422 909.96 150.232 909.96 Z" fill="#9eb1be" fill-rule="nonzero" fill-opacity="1" /><path clip-path="url(#clip090)" d="M180.394 913.664 Q176.783 913.664 174.954 917.229 Q173.149 920.77 173.149 927.9 Q173.149 935.006 174.954 938.571 Q176.783 942.113 180.394 942.113 Q184.028 942.113 185.834 938.571 Q187.663 935.006 187.663 927.9 Q187.663 920.77 185.834 917.229 Q184.028 913.664 180.394 913.664 M180.394 909.96 Q186.204 909.96 189.26 914.567 Q192.339 919.15 192.339 927.9 Q192.339 936.627 189.26 941.233 Q186.204 945.816 180.394 945.816 Q174.584 945.816 171.505 941.233 Q168.45 936.627 168.45 927.9 Q168.45 919.15 171.505 914.567 Q174.584 909.96 180.394 909.96 Z" fill="#9eb1be" fill-rule="nonzero" fill-opacity="1" /><path clip-path="url(#clip090)" d="M62.5939 525.331 L50.7884 543.78 L62.5939 543.78 L62.5939 525.331 M61.367 521.257 L67.2466 521.257 L67.2466 543.78 L72.1772 543.78 L72.1772 547.669 L67.2466 547.669 L67.2466 555.817 L62.5939 555.817 L62.5939 547.669 L46.9921 547.669 L46.9921 543.155 L61.367 521.257 Z" fill="#9eb1be" fill-rule="nonzero" fill-opacity="1" /><path clip-path="url(#clip090)" d="M94.0752 537.183 Q97.4317 537.9 99.3067 540.169 Q101.205 542.437 101.205 545.77 Q101.205 550.886 97.6863 553.687 Q94.1678 556.488 87.6864 556.488 Q85.5104 556.488 83.1956 556.048 Q80.904 555.632 78.4503 554.775 L78.4503 550.261 Q80.3947 551.395 82.7095 551.974 Q85.0243 552.553 87.5475 552.553 Q91.9456 552.553 94.2372 550.817 Q96.552 549.081 96.552 545.77 Q96.552 542.715 94.3993 541.002 Q92.2697 539.266 88.4502 539.266 L84.4225 539.266 L84.4225 535.423 L88.6354 535.423 Q92.0845 535.423 93.9132 534.058 Q95.7419 532.669 95.7419 530.076 Q95.7419 527.414 93.8437 526.002 Q91.9687 524.567 88.4502 524.567 Q86.529 524.567 84.3299 524.984 Q82.1308 525.4 79.492 526.28 L79.492 522.113 Q82.154 521.372 84.4688 521.002 Q86.8067 520.632 88.8669 520.632 Q94.1909 520.632 97.2928 523.062 Q100.395 525.47 100.395 529.59 Q100.395 532.46 98.7511 534.451 Q97.1076 536.419 94.0752 537.183 Z" fill="#9eb1be" fill-rule="nonzero" fill-opacity="1" /><path clip-path="url(#clip090)" d="M120.07 524.335 Q116.459 524.335 114.631 527.9 Q112.825 531.442 112.825 538.571 Q112.825 545.678 114.631 549.243 Q116.459 552.784 120.07 552.784 Q123.705 552.784 125.51 549.243 Q127.339 545.678 127.339 538.571 Q127.339 531.442 125.51 527.9 Q123.705 524.335 120.07 524.335 M120.07 520.632 Q125.881 520.632 128.936 525.238 Q132.015 529.821 132.015 538.571 Q132.015 547.298 128.936 551.905 Q125.881 556.488 120.07 556.488 Q114.26 556.488 111.182 551.905 Q108.126 547.298 108.126 538.571 Q108.126 529.821 111.182 525.238 Q114.26 520.632 120.07 520.632 Z" fill="#9eb1be" fill-rule="nonzero" fill-opacity="1" /><path clip-path="url(#clip090)" d="M150.232 524.335 Q146.621 524.335 144.793 527.9 Q142.987 531.442 142.987 538.571 Q142.987 545.678 144.793 549.243 Q146.621 552.784 150.232 552.784 Q153.867 552.784 155.672 549.243 Q157.501 545.678 157.501 538.571 Q157.501 531.442 155.672 527.9 Q153.867 524.335 150.232 524.335 M150.232 520.632 Q156.042 520.632 159.098 525.238 Q162.177 529.821 162.177 538.571 Q162.177 547.298 159.098 551.905 Q156.042 556.488 150.232 556.488 Q144.422 556.488 141.343 551.905 Q138.288 547.298 138.288 538.571 Q138.288 529.821 141.343 525.238 Q144.422 520.632 150.232 520.632 Z" fill="#9eb1be" fill-rule="nonzero" fill-opacity="1" /><path clip-path="url(#clip090)" d="M180.394 524.335 Q176.783 524.335 174.954 527.9 Q173.149 531.442 173.149 538.571 Q173.149 545.678 174.954 549.243 Q176.783 552.784 180.394 552.784 Q184.028 552.784 185.834 549.243 Q187.663 545.678 187.663 538.571 Q187.663 531.442 185.834 527.9 Q184.028 524.335 180.394 524.335 M180.394 520.632 Q186.204 520.632 189.26 525.238 Q192.339 529.821 192.339 538.571 Q192.339 547.298 189.26 551.905 Q186.204 556.488 180.394 556.488 Q174.584 556.488 171.505 551.905 Q168.45 547.298 168.45 538.571 Q168.45 529.821 171.505 525.238 Q174.584 520.632 180.394 520.632 Z" fill="#9eb1be" fill-rule="nonzero" fill-opacity="1" /><path clip-path="url(#clip090)" d="M62.5939 136.002 L50.7884 154.451 L62.5939 154.451 L62.5939 136.002 M61.367 131.928 L67.2466 131.928 L67.2466 154.451 L72.1772 154.451 L72.1772 158.34 L67.2466 158.34 L67.2466 166.488 L62.5939 166.488 L62.5939 158.34 L46.9921 158.34 L46.9921 153.826 L61.367 131.928 Z" fill="#9eb1be" fill-rule="nonzero" fill-opacity="1" /><path clip-path="url(#clip090)" d="M92.7558 136.002 L80.9503 154.451 L92.7558 154.451 L92.7558 136.002 M91.5289 131.928 L97.4085 131.928 L97.4085 154.451 L102.339 154.451 L102.339 158.34 L97.4085 158.34 L97.4085 166.488 L92.7558 166.488 L92.7558 158.34 L77.154 158.34 L77.154 153.826 L91.5289 131.928 Z" fill="#9eb1be" fill-rule="nonzero" fill-opacity="1" /><path clip-path="url(#clip090)" d="M120.07 135.007 Q116.459 135.007 114.631 138.572 Q112.825 142.113 112.825 149.243 Q112.825 156.349 114.631 159.914 Q116.459 163.456 120.07 163.456 Q123.705 163.456 125.51 159.914 Q127.339 156.349 127.339 149.243 Q127.339 142.113 125.51 138.572 Q123.705 135.007 120.07 135.007 M120.07 131.303 Q125.881 131.303 128.936 135.91 Q132.015 140.493 132.015 149.243 Q132.015 157.97 128.936 162.576 Q125.881 167.16 120.07 167.16 Q114.26 167.16 111.182 162.576 Q108.126 157.97 108.126 149.243 Q108.126 140.493 111.182 135.91 Q114.26 131.303 120.07 131.303 Z" fill="#9eb1be" fill-rule="nonzero" fill-opacity="1" /><path clip-path="url(#clip090)" d="M150.232 135.007 Q146.621 135.007 144.793 138.572 Q142.987 142.113 142.987 149.243 Q142.987 156.349 144.793 159.914 Q146.621 163.456 150.232 163.456 Q153.867 163.456 155.672 159.914 Q157.501 156.349 157.501 149.243 Q157.501 142.113 155.672 138.572 Q153.867 135.007 150.232 135.007 M150.232 131.303 Q156.042 131.303 159.098 135.91 Q162.177 140.493 162.177 149.243 Q162.177 157.97 159.098 162.576 Q156.042 167.16 150.232 167.16 Q144.422 167.16 141.343 162.576 Q138.288 157.97 138.288 149.243 Q138.288 140.493 141.343 135.91 Q144.422 131.303 150.232 131.303 Z" fill="#9eb1be" fill-rule="nonzero" fill-opacity="1" /><path clip-path="url(#clip090)" d="M180.394 135.007 Q176.783 135.007 174.954 138.572 Q173.149 142.113 173.149 149.243 Q173.149 156.349 174.954 159.914 Q176.783 163.456 180.394 163.456 Q184.028 163.456 185.834 159.914 Q187.663 156.349 187.663 149.243 Q187.663 142.113 185.834 138.572 Q184.028 135.007 180.394 135.007 M180.394 131.303 Q186.204 131.303 189.26 135.91 Q192.339 140.493 192.339 149.243 Q192.339 157.97 189.26 162.576 Q186.204 167.16 180.394 167.16 Q174.584 167.16 171.505 162.576 Q168.45 157.97 168.45 149.243 Q168.45 140.493 171.505 135.91 Q174.584 131.303 180.394 131.303 Z" fill="#9eb1be" fill-rule="nonzero" fill-opacity="1" /><path clip-path="url(#clip090)" d="M240.339 8.64 L267.653 8.64 L267.653 13.559 L246.183 13.559 L246.183 26.3482 L266.756 26.3482 L266.756 31.2672 L246.183 31.2672 L246.183 46.921 L268.174 46.921 L268.174 51.84 L240.339 51.84 L240.339 8.64 Z" fill="#adb2b7" fill-rule="nonzero" fill-opacity="1" /><path clip-path="url(#clip090)" d="M280.732 35.6653 Q280.732 41.5391 283.133 44.8956 Q285.564 48.2231 289.789 48.2231 Q294.013 48.2231 296.444 44.8956 Q298.874 41.5391 298.874 35.6653 Q298.874 29.7915 296.444 26.464 Q294.013 23.1075 289.789 23.1075 Q285.564 23.1075 283.133 26.464 Q280.732 29.7915 280.732 35.6653 M298.874 46.9789 Q297.196 49.8724 294.621 51.2902 Q292.074 52.6791 288.486 52.6791 Q282.613 52.6791 278.909 47.9916 Q275.234 43.3042 275.234 35.6653 Q275.234 28.0265 278.909 23.339 Q282.613 18.6515 288.486 18.6515 Q292.074 18.6515 294.621 20.0693 Q297.196 21.4582 298.874 24.3517 L298.874 19.4328 L304.198 19.4328 L304.198 64.1663 L298.874 64.1663 L298.874 46.9789 Z" fill="#adb2b7" fill-rule="nonzero" fill-opacity="1" /><path clip-path="url(#clip090)" d="M314.615 39.0507 L314.615 19.4328 L319.939 19.4328 L319.939 38.8482 Q319.939 43.4488 321.733 45.7636 Q323.527 48.0495 327.115 48.0495 Q331.426 48.0495 333.914 45.3007 Q336.432 42.5519 336.432 37.8065 L336.432 19.4328 L341.756 19.4328 L341.756 51.84 L336.432 51.84 L336.432 46.8632 Q334.493 49.8145 331.918 51.2613 Q329.372 52.6791 325.986 52.6791 Q320.402 52.6791 317.508 49.2069 Q314.615 45.7347 314.615 39.0507 M328.012 18.6515 L328.012 18.6515 Z" fill="#adb2b7" fill-rule="nonzero" fill-opacity="1" /><path clip-path="url(#clip090)" d="M352.722 19.4328 L358.046 19.4328 L358.046 51.84 L352.722 51.84 L352.722 19.4328 M352.722 6.81709 L358.046 6.81709 L358.046 13.559 L352.722 13.559 L352.722 6.81709 Z" fill="#adb2b7" fill-rule="nonzero" fill-opacity="1" /><path clip-path="url(#clip090)" d="M374.452 10.2314 L374.452 19.4328 L385.419 19.4328 L385.419 23.5705 L374.452 23.5705 L374.452 41.163 Q374.452 45.1271 375.523 46.2555 Q376.623 47.384 379.95 47.384 L385.419 47.384 L385.419 51.84 L379.95 51.84 Q373.787 51.84 371.443 49.5541 Q369.099 47.2393 369.099 41.163 L369.099 23.5705 L365.193 23.5705 L365.193 19.4328 L369.099 19.4328 L369.099 10.2314 L374.452 10.2314 Z" fill="#adb2b7" fill-rule="nonzero" fill-opacity="1" /><path clip-path="url(#clip090)" d="M405.905 54.8492 Q403.648 60.6362 401.507 62.4013 Q399.365 64.1663 395.778 64.1663 L391.524 64.1663 L391.524 59.7103 L394.649 59.7103 Q396.848 59.7103 398.063 58.6687 Q399.279 57.627 400.754 53.7497 L401.709 51.3192 L388.602 19.4328 L394.244 19.4328 L404.371 44.7799 L414.499 19.4328 L420.141 19.4328 L405.905 54.8492 Z" fill="#adb2b7" fill-rule="nonzero" fill-opacity="1" /><polyline clip-path="url(#clip091)" style="stroke:#bbbb00; stroke-linecap:round; stroke-linejoin:round; stroke-width:4; stroke-opacity:1; fill:none" points="322.765,1414.53 324.14,1414.53 325.514,1414.53 326.889,1414.53 328.263,1414.53 329.638,1414.53 331.012,1414.53 332.387,1414.53 333.761,1414.53 335.136,1414.53 336.51,1414.53 337.885,1414.53 339.259,1414.53 340.634,1414.53 342.008,1414.53 343.383,1414.53 344.757,1414.53 346.131,1414.53 347.506,1414.53 348.88,1414.53 350.255,1414.53 351.629,1414.53 353.004,1414.53 354.378,1414.53 355.753,1414.53 357.127,1414.53 358.502,1414.53 359.876,1414.53 361.251,1414.53 362.625,1414.53 364,1414.53 365.374,1414.53 366.748,1414.53 368.123,1414.53 369.497,1414.53 370.872,1414.53 372.246,1414.53 373.621,1414.53 374.995,1414.53 376.37,1414.53 377.744,1414.53 379.119,1414.53 380.493,1414.53 381.868,1414.53 383.242,1414.53 384.617,1414.53 385.991,1414.53 387.366,1414.53 388.74,1414.53 390.114,1414.53 391.489,1414.53 392.863,1414.53 394.238,1414.53 395.612,1414.53 396.987,1414.53 398.361,1414.53 398.361,1415.23 399.736,1415.23 399.736,1421.51 401.11,1421.51 401.11,1424.57 402.485,1424.57 402.485,1419 403.859,1419 403.859,1418.44 405.234,1418.44 405.234,1413.2 406.608,1413.2 406.608,1407.66 407.983,1407.66 407.983,1408.9 409.357,1408.9 409.357,1415.37 410.731,1415.37 410.731,1411.17 412.106,1411.17 412.106,1415.27 413.48,1415.27 413.48,1412.69 414.855,1412.69 414.855,1420.5 416.229,1420.5 416.229,1421.94 417.604,1421.94 417.604,1423.6 418.978,1423.6 418.978,1427.22 420.353,1427.22 420.353,1422.09 421.727,1422.09 421.727,1418 423.102,1418 423.102,1417.66 424.476,1417.66 424.476,1420.66 425.851,1420.66 425.851,1416.63 427.225,1416.63 427.225,1422.38 428.6,1422.38 428.6,1423.68 429.974,1423.68 429.974,1423.04 431.349,1423.04 431.349,1425.66 432.723,1425.66 432.723,1423.74 434.097,1423.74 434.097,1428.74 435.472,1428.74 435.472,1433.08 436.846,1433.08 436.846,1433.1 438.221,1433.1 438.221,1435.69 439.595,1435.69 439.595,1436.81 440.97,1436.81 440.97,1443.07 442.344,1443.07 442.344,1440.43 443.719,1440.43 443.719,1441.49 445.093,1441.49 445.093,1442 446.468,1442 446.468,1437.55 447.842,1437.55 447.842,1437.09 449.217,1437.09 449.217,1442.46 450.591,1442.46 450.591,1440.97 451.966,1440.97 451.966,1444.64 453.34,1444.64 453.34,1440.13 454.714,1440.13 454.714,1436.85 456.089,1436.85 456.089,1433.06 457.463,1433.06 457.463,1431.16 458.838,1431.16 458.838,1430.87 460.212,1430.87 460.212,1423.75 461.587,1423.75 461.587,1427.3 462.961,1427.3 462.961,1427.4 464.336,1427.4 464.336,1433.26 465.71,1433.26 465.71,1433.04 467.085,1433.04 467.085,1431.74 468.459,1431.74 468.459,1425.31 469.834,1425.31 469.834,1423.78 471.208,1423.78 471.208,1416.58 472.583,1416.58 472.583,1419.53 473.957,1419.53 473.957,1420.73 475.332,1420.73 475.332,1421.33 476.706,1421.33 476.706,1424.11 478.08,1424.11 478.08,1419.92 479.455,1419.92 479.455,1414.61 480.829,1414.61 480.829,1411.78 482.204,1411.78 482.204,1412.63 483.578,1412.63 483.578,1419.42 484.953,1419.42 484.953,1425.99 486.327,1425.99 486.327,1426.7 487.702,1426.7 487.702,1424.19 489.076,1424.19 489.076,1422.49 490.451,1422.49 490.451,1422.95 491.825,1422.95 491.825,1426.36 493.2,1426.36 493.2,1425.12 494.574,1425.12 494.574,1424.12 495.949,1424.12 495.949,1423.18 497.323,1423.18 497.323,1423.28 498.698,1423.28 498.698,1421.08 500.072,1421.08 500.072,1421.79 501.446,1421.79 501.446,1418.13 502.821,1418.13 502.821,1416.56 504.195,1416.56 504.195,1418.77 505.57,1418.77 505.57,1424.28 506.944,1424.28 506.944,1427.12 508.319,1427.12 508.319,1424.49 509.693,1424.49 509.693,1428.32 511.068,1428.32 511.068,1422.25 512.442,1422.25 512.442,1425.14 513.817,1425.14 513.817,1426.26 515.191,1426.26 515.191,1425.43 516.566,1425.43 516.566,1426.23 517.94,1426.23 517.94,1419.85 519.315,1419.85 519.315,1417.5 520.689,1417.5 520.689,1415.68 522.063,1415.68 522.063,1411.01 523.438,1411.01 523.438,1407.74 524.812,1407.74 524.812,1408.84 526.187,1408.84 526.187,1412.41 527.561,1412.41 527.561,1416.02 528.936,1416.02 528.936,1414.94 530.31,1414.94 530.31,1416.45 531.685,1416.45 531.685,1412.86 533.059,1412.86 533.059,1413.91 534.434,1413.91 534.434,1411.67 535.808,1411.67 535.808,1414.36 537.183,1414.36 537.183,1418.59 538.557,1418.59 538.557,1423.89 539.932,1423.89 539.932,1420.26 541.306,1420.26 541.306,1424.06 542.681,1424.06 542.681,1418.96 544.055,1418.96 544.055,1412.52 545.429,1412.52 545.429,1420.49 546.804,1420.49 546.804,1414.29 548.178,1414.29 548.178,1415.03 549.553,1415.03 549.553,1399.98 550.927,1399.98 550.927,1395.14 552.302,1395.14 552.302,1391.18 553.676,1391.18 553.676,1398.51 555.051,1398.51 555.051,1389.68 556.425,1389.68 556.425,1386.31 557.8,1386.31 557.8,1387.83 559.174,1387.83 559.174,1383.88 560.549,1383.88 560.549,1381.24 561.923,1381.24 561.923,1378.61 563.298,1378.61 563.298,1374.41 564.672,1374.41 564.672,1381.79 566.046,1381.79 566.046,1381.21 567.421,1381.21 567.421,1370.6 568.795,1370.6 568.795,1359.45 570.17,1359.45 570.17,1356.41 571.544,1356.41 571.544,1354 572.919,1354 572.919,1347.06 574.293,1347.06 574.293,1347.69 575.668,1347.69 575.668,1341.53 577.042,1341.53 577.042,1345.94 578.417,1345.94 578.417,1345.43 579.791,1345.43 579.791,1342.43 581.166,1342.43 581.166,1342.63 582.54,1342.63 582.54,1336.65 583.915,1336.65 583.915,1348.72 585.289,1348.72 585.289,1343.83 586.664,1343.83 586.664,1333.67 588.038,1333.67 588.038,1330.57 589.412,1330.57 589.412,1333.85 590.787,1333.85 590.787,1338.31 592.161,1338.31 592.161,1335.98 593.536,1335.98 593.536,1337.51 594.91,1337.51 594.91,1337.86 596.285,1337.86 596.285,1340.2 597.659,1340.2 597.659,1345.12 599.034,1345.12 599.034,1344.25 600.408,1344.25 600.408,1352.51 601.783,1352.51 601.783,1346.58 603.157,1346.58 603.157,1363.47 604.532,1363.47 604.532,1372.51 605.906,1372.51 605.906,1364.49 607.281,1364.49 607.281,1357.89 608.655,1357.89 608.655,1357.55 610.029,1357.55 610.029,1348.02 611.404,1348.02 611.404,1350.45 612.778,1350.45 612.778,1339.58 614.153,1339.58 614.153,1335.29 615.527,1335.29 615.527,1331.13 616.902,1331.13 616.902,1332.49 618.276,1332.49 618.276,1326.72 619.651,1326.72 619.651,1343.43 621.025,1343.43 621.025,1344.76 622.4,1344.76 622.4,1346.6 623.774,1346.6 623.774,1333.53 625.149,1333.53 625.149,1334.27 626.523,1334.27 626.523,1342.05 627.898,1342.05 627.898,1347.08 629.272,1347.08 629.272,1334.06 630.647,1334.06 630.647,1338.32 632.021,1338.32 632.021,1348.22 633.395,1348.22 633.395,1335.6 634.77,1335.6 634.77,1334.21 636.144,1334.21 636.144,1326.65 637.519,1326.65 637.519,1334.77 638.893,1334.77 638.893,1329.16 640.268,1329.16 640.268,1340.02 641.642,1340.02 641.642,1344.72 643.017,1344.72 643.017,1348.17 644.391,1348.17 644.391,1360.6 645.766,1360.6 645.766,1365.79 647.14,1365.79 647.14,1376.39 648.515,1376.39 648.515,1361.97 649.889,1361.97 649.889,1360.54 651.264,1360.54 651.264,1372 652.638,1372 652.638,1371.37 654.013,1371.37 654.013,1381.71 655.387,1381.71 655.387,1365.45 656.761,1365.45 656.761,1354.3 658.136,1354.3 658.136,1350.06 659.51,1350.06 659.51,1364.29 660.885,1364.29 660.885,1382.24 662.259,1382.24 662.259,1383.03 663.634,1383.03 663.634,1401.3 665.008,1401.3 665.008,1416.95 666.383,1416.95 666.383,1417.42 667.757,1417.42 667.757,1409.95 669.132,1409.95 669.132,1406.46 670.506,1406.46 670.506,1414.4 671.881,1414.4 671.881,1417.46 673.255,1417.46 673.255,1405.48 674.63,1405.48 674.63,1411.84 676.004,1411.84 676.004,1404.15 677.378,1404.15 677.378,1414.82 678.753,1414.82 678.753,1405.08 680.127,1405.08 680.127,1397.48 681.502,1397.48 681.502,1391.75 682.876,1391.75 682.876,1392.16 684.251,1392.16 684.251,1384.47 685.625,1384.47 685.625,1378.2 687,1378.2 687,1363.89 688.374,1363.89 688.374,1367.47 689.749,1367.47 689.749,1374.3 691.123,1374.3 691.123,1381.56 692.498,1381.56 692.498,1387.47 693.872,1387.47 693.872,1387.11 695.247,1387.11 695.247,1379.17 696.621,1379.17 696.621,1387.45 697.996,1387.45 697.996,1389.56 699.37,1389.56 699.37,1385.87 700.744,1385.87 700.744,1374.06 702.119,1374.06 702.119,1373.76 703.493,1373.76 703.493,1382.47 704.868,1382.47 704.868,1373.6 706.242,1373.6 706.242,1367.23 707.617,1367.23 707.617,1371.93 708.991,1371.93 708.991,1372.48 710.366,1372.48 710.366,1362.55 711.74,1362.55 711.74,1371.83 713.115,1371.83 713.115,1378.48 714.489,1378.48 714.489,1384.13 715.864,1384.13 715.864,1382.53 717.238,1382.53 717.238,1377.51 718.613,1377.51 718.613,1361.27 719.987,1361.27 719.987,1354.63 721.361,1354.63 721.361,1349 722.736,1349 722.736,1361.94 724.11,1361.94 724.11,1352.14 725.485,1352.14 725.485,1347.99 726.859,1347.99 726.859,1361.4 728.234,1361.4 728.234,1348.9 729.608,1348.9 729.608,1336.37 730.983,1336.37 730.983,1341.56 732.357,1341.56 732.357,1328.08 733.732,1328.08 733.732,1321.78 735.106,1321.78 735.106,1324.05 736.481,1324.05 736.481,1320.21 737.855,1320.21 737.855,1311.06 739.23,1311.06 739.23,1316.74 740.604,1316.74 740.604,1320.35 741.979,1320.35 741.979,1300.59 743.353,1300.59 743.353,1300.83 744.727,1300.83 744.727,1315.41 746.102,1315.41 746.102,1317.67 747.476,1317.67 747.476,1320.79 748.851,1320.79 748.851,1318.28 750.225,1318.28 750.225,1307.7 751.6,1307.7 751.6,1304.07 752.974,1304.07 752.974,1298.08 754.349,1298.08 754.349,1310.27 755.723,1310.27 755.723,1309.53 757.098,1309.53 757.098,1326.7 758.472,1326.7 758.472,1322.7 759.847,1322.7 759.847,1330.09 761.221,1330.09 761.221,1328.68 762.596,1328.68 762.596,1329.96 763.97,1329.96 763.97,1326.29 765.344,1326.29 765.344,1327.97 766.719,1327.97 766.719,1327.12 768.093,1327.12 768.093,1312.03 769.468,1312.03 769.468,1317.7 770.842,1317.7 770.842,1315.01 772.217,1315.01 772.217,1322.3 773.591,1322.3 773.591,1323.39 774.966,1323.39 774.966,1324.96 776.34,1324.96 776.34,1326.71 777.715,1326.71 777.715,1338.87 779.089,1338.87 779.089,1345.91 780.464,1345.91 780.464,1353.53 781.838,1353.53 781.838,1359.38 783.213,1359.38 783.213,1351.55 784.587,1351.55 784.587,1348.37 785.962,1348.37 785.962,1334.22 787.336,1334.22 787.336,1333.43 788.71,1333.43 788.71,1334.97 790.085,1334.97 790.085,1338.13 791.459,1338.13 791.459,1342.25 792.834,1342.25 792.834,1351.36 794.208,1351.36 794.208,1345.1 795.583,1345.1 795.583,1353.22 796.957,1353.22 796.957,1354.2 798.332,1354.2 798.332,1357.22 799.706,1357.22 799.706,1364.52 801.081,1364.52 801.081,1375.08 802.455,1375.08 802.455,1383.13 803.83,1383.13 803.83,1370.91 805.204,1370.91 805.204,1376.52 806.579,1376.52 806.579,1374.06 807.953,1374.06 807.953,1384.75 809.328,1384.75 809.328,1394.81 810.702,1394.81 810.702,1403.89 812.076,1403.89 812.076,1400.69 813.451,1400.69 813.451,1415.89 814.825,1415.89 814.825,1428.52 816.2,1428.52 816.2,1437.58 817.574,1437.58 817.574,1440.8 818.949,1440.8 818.949,1438.07 820.323,1438.07 820.323,1442.93 821.698,1442.93 821.698,1431.85 823.072,1431.85 823.072,1425.74 824.447,1425.74 824.447,1433.7 825.821,1433.7 825.821,1445.09 827.196,1445.09 827.196,1444.52 828.57,1444.52 828.57,1444.88 829.945,1444.88 829.945,1442.32 831.319,1442.32 831.319,1449.54 832.693,1449.54 832.693,1441.18 834.068,1441.18 834.068,1420.11 835.442,1420.11 835.442,1434.23 836.817,1434.23 836.817,1448.61 838.191,1448.61 838.191,1451.53 839.566,1451.53 839.566,1451.75 840.94,1451.75 840.94,1446.04 842.315,1446.04 842.315,1444.6 843.689,1444.6 843.689,1450.01 845.064,1450.01 845.064,1455.47 846.438,1455.47 846.438,1452.92 847.813,1452.92 847.813,1445.7 849.187,1445.7 849.187,1438.86 850.562,1438.86 850.562,1429.15 851.936,1429.15 851.936,1428.09 853.311,1428.09 853.311,1433.75 854.685,1433.75 854.685,1435.45 856.059,1435.45 856.059,1437.35 857.434,1437.35 857.434,1433.07 858.808,1433.07 858.808,1426.7 860.183,1426.7 860.183,1426.67 861.557,1426.67 861.557,1423.46 862.932,1423.46 862.932,1437.8 864.306,1437.8 864.306,1435.35 865.681,1435.35 865.681,1434.22 867.055,1434.22 867.055,1435.29 868.43,1435.29 868.43,1428.21 869.804,1428.21 869.804,1425.51 871.179,1425.51 871.179,1422.8 872.553,1422.8 872.553,1407.58 873.928,1407.58 873.928,1408.68 875.302,1408.68 875.302,1411.42 876.676,1411.42 876.676,1395.59 878.051,1395.59 878.051,1406.47 879.425,1406.47 879.425,1405.2 880.8,1405.2 880.8,1406.08 882.174,1406.08 882.174,1396.34 883.549,1396.34 883.549,1394.03 884.923,1394.03 884.923,1390.32 886.298,1390.32 886.298,1401.46 887.672,1401.46 887.672,1419.82 889.047,1419.82 889.047,1405.63 890.421,1405.63 890.421,1405.44 891.796,1405.44 891.796,1400.58 893.17,1400.58 893.17,1408.99 894.545,1408.99 894.545,1418.96 895.919,1418.96 895.919,1412.21 897.294,1412.21 897.294,1408 898.668,1408 898.668,1395.93 900.042,1395.93 900.042,1395.97 901.417,1395.97 901.417,1404.52 902.791,1404.52 902.791,1385.06 904.166,1385.06 904.166,1383.29 905.54,1383.29 905.54,1373.62 906.915,1373.62 906.915,1371.17 908.289,1371.17 908.289,1365.29 909.664,1365.29 909.664,1360.74 911.038,1360.74 911.038,1357.56 912.413,1357.56 912.413,1351.68 913.787,1351.68 913.787,1358.73 915.162,1358.73 915.162,1371.27 916.536,1371.27 916.536,1385.23 917.911,1385.23 917.911,1377.38 919.285,1377.38 919.285,1378.87 920.659,1378.87 920.659,1385.13 922.034,1385.13 922.034,1388.21 923.408,1388.21 923.408,1388.66 924.783,1388.66 924.783,1381.51 926.157,1381.51 926.157,1388.08 927.532,1388.08 927.532,1402.46 928.906,1402.46 928.906,1403.33 930.281,1403.33 930.281,1386.56 931.655,1386.56 931.655,1383.89 933.03,1383.89 933.03,1377.16 934.404,1377.16 934.404,1374.85 935.779,1374.85 935.779,1366.47 937.153,1366.47 937.153,1363.1 938.528,1363.1 938.528,1360.35 939.902,1360.35 939.902,1361 941.277,1361 941.277,1364.75 942.651,1364.75 942.651,1364.04 944.025,1364.04 944.025,1347.43 945.4,1347.43 945.4,1343.3 946.774,1343.3 946.774,1335.87 948.149,1335.87 948.149,1332.91 949.523,1332.91 949.523,1326.02 950.898,1326.02 950.898,1324.33 952.272,1324.33 952.272,1333.94 953.647,1333.94 953.647,1346.61 955.021,1346.61 955.021,1338.13 956.396,1338.13 956.396,1337.48 957.77,1337.48 957.77,1348.34 959.145,1348.34 959.145,1352.25 960.519,1352.25 960.519,1350.72 961.894,1350.72 961.894,1351.81 963.268,1351.81 963.268,1352.27 964.642,1352.27 964.642,1356.89 966.017,1356.89 966.017,1344.5 967.391,1344.5 967.391,1339.18 968.766,1339.18 968.766,1339.61 970.14,1339.61 970.14,1335.73 971.515,1335.73 971.515,1329.39 972.889,1329.39 972.889,1326.35 974.264,1326.35 974.264,1316.88 975.638,1316.88 975.638,1302.56 977.013,1302.56 977.013,1314.86 978.387,1314.86 978.387,1317.61 979.762,1317.61 979.762,1321.79 981.136,1321.79 981.136,1309.12 982.511,1309.12 982.511,1305.68 983.885,1305.68 983.885,1326.07 985.26,1326.07 985.26,1314.7 986.634,1314.7 986.634,1318.8 988.008,1318.8 988.008,1317.16 989.383,1317.16 989.383,1317.24 990.757,1317.24 990.757,1330.21 992.132,1330.21 992.132,1334.9 993.506,1334.9 993.506,1331.37 994.881,1331.37 994.881,1335.36 996.255,1335.36 996.255,1335.46 997.63,1335.46 997.63,1330.37 999.004,1330.37 999.004,1332.31 1000.38,1332.31 1000.38,1344.54 1001.75,1344.54 1001.75,1349.21 1003.13,1349.21 1003.13,1341.02 1004.5,1341.02 1004.5,1344.6 1005.88,1344.6 1005.88,1346.72 1007.25,1346.72 1007.25,1332.37 1008.63,1332.37 1008.63,1332.47 1010,1332.47 1010,1339.23 1011.37,1339.23 1011.37,1342.57 1012.75,1342.57 1012.75,1333.31 1014.12,1333.31 1014.12,1329.76 1015.5,1329.76 1015.5,1327.11 1016.87,1327.11 1016.87,1330.09 1018.25,1330.09 1018.25,1333.47 1019.62,1333.47 1019.62,1349.12 1021,1349.12 1021,1364.03 1022.37,1364.03 1022.37,1365.32 1023.74,1365.32 1023.74,1358.55 1025.12,1358.55 1025.12,1351.79 1026.49,1351.79 1026.49,1353.14 1027.87,1353.14 1027.87,1337.26 1029.24,1337.26 1029.24,1333.58 1030.62,1333.58 1030.62,1325.5 1031.99,1325.5 1031.99,1331.39 1033.37,1331.39 1033.37,1330.63 1034.74,1330.63 1034.74,1328.45 1036.11,1328.45 1036.11,1336.75 1037.49,1336.75 1037.49,1333.1 1038.86,1333.1 1038.86,1336.98 1040.24,1336.98 1040.24,1335.29 1041.61,1335.29 1041.61,1338.55 1042.99,1338.55 1042.99,1339.35 1044.36,1339.35 1044.36,1330.33 1045.74,1330.33 1045.74,1340.1 1047.11,1340.1 1047.11,1336.04 1048.49,1336.04 1048.49,1331.68 1049.86,1331.68 1049.86,1337.2 1051.23,1337.2 1051.23,1342.56 1052.61,1342.56 1052.61,1342.97 1053.98,1342.97 1053.98,1351.17 1055.36,1351.17 1055.36,1361.8 1056.73,1361.8 1056.73,1361.51 1058.11,1361.51 1058.11,1362.55 1059.48,1362.55 1059.48,1366.87 1060.86,1366.87 1060.86,1375.59 1062.23,1375.59 1062.23,1372.75 1063.6,1372.75 1063.6,1376.12 1064.98,1376.12 1064.98,1381.92 1066.35,1381.92 1066.35,1375.94 1067.73,1375.94 1067.73,1388.52 1069.1,1388.52 1069.1,1401.44 1070.48,1401.44 1070.48,1404.37 1071.85,1404.37 1071.85,1399.42 1073.23,1399.42 1073.23,1404.96 1074.6,1404.96 1074.6,1403.2 1075.97,1403.2 1075.97,1398.38 1077.35,1398.38 1077.35,1390.96 1078.72,1390.96 1078.72,1397.66 1080.1,1397.66 1080.1,1387.35 1081.47,1387.35 1081.47,1394.95 1082.85,1394.95 1082.85,1391.68 1084.22,1391.68 1084.22,1399.56 1085.6,1399.56 1085.6,1390.32 1086.97,1390.32 1086.97,1385.62 1088.34,1385.62 1088.34,1382.18 1089.72,1382.18 1089.72,1384.93 1091.09,1384.93 1091.09,1385.44 1092.47,1385.44 1092.47,1382.64 1093.84,1382.64 1093.84,1381.01 1095.22,1381.01 1095.22,1372.79 1096.59,1372.79 1096.59,1376.89 1097.97,1376.89 1097.97,1379.99 1099.34,1379.99 1099.34,1374.47 1100.71,1374.47 1100.71,1378.03 1102.09,1378.03 1102.09,1387.27 1103.46,1387.27 1103.46,1387.73 1104.84,1387.73 1104.84,1391.37 1106.21,1391.37 1106.21,1390.31 1107.59,1390.31 1107.59,1394.22 1108.96,1394.22 1108.96,1390.89 1110.34,1390.89 1110.34,1389.3 1111.71,1389.3 1111.71,1390.52 1113.09,1390.52 1113.09,1388.87 1114.46,1388.87 1114.46,1387.83 1115.83,1387.83 1115.83,1378.51 1117.21,1378.51 1117.21,1379.75 1118.58,1379.75 1118.58,1372.01 1119.96,1372.01 1119.96,1373.31 1121.33,1373.31 1121.33,1370.34 1122.71,1370.34 1122.71,1378.01 1124.08,1378.01 1124.08,1384.32 1125.46,1384.32 1125.46,1374.68 1126.83,1374.68 1126.83,1371.21 1128.2,1371.21 1128.2,1388.01 1129.58,1388.01 1129.58,1383.04 1130.95,1383.04 1130.95,1379.34 1132.33,1379.34 1132.33,1375.09 1133.7,1375.09 1133.7,1369.2 1135.08,1369.2 1135.08,1372.86 1136.45,1372.86 1136.45,1376.29 1137.83,1376.29 1137.83,1368.89 1139.2,1368.89 1139.2,1366.49 1140.57,1366.49 1140.57,1371.1 1141.95,1371.1 1141.95,1365.82 1143.32,1365.82 1143.32,1367.22 1144.7,1367.22 1144.7,1377.46 1146.07,1377.46 1146.07,1380.17 1147.45,1380.17 1147.45,1373.44 1148.82,1373.44 1148.82,1366.96 1150.2,1366.96 1150.2,1360.78 1151.57,1360.78 1151.57,1363.05 1152.94,1363.05 1152.94,1367.08 1154.32,1367.08 1154.32,1366.42 1155.69,1366.42 1155.69,1360.53 1157.07,1360.53 1157.07,1359.12 1158.44,1359.12 1158.44,1368.06 1159.82,1368.06 1159.82,1376.28 1161.19,1376.28 1161.19,1363.58 1162.57,1363.58 1162.57,1373.7 1163.94,1373.7 1163.94,1375.34 1165.31,1375.34 1165.31,1377.18 1166.69,1377.18 1166.69,1367.42 1168.06,1367.42 1168.06,1375.47 1169.44,1375.47 1169.44,1366.74 1170.81,1366.74 1170.81,1366.62 1172.19,1366.62 1172.19,1380.95 1173.56,1380.95 1173.56,1371.85 1174.94,1371.85 1174.94,1372.75 1176.31,1372.75 1176.31,1377.73 1177.69,1377.73 1177.69,1380.16 1179.06,1380.16 1179.06,1381.14 1180.43,1381.14 1180.43,1386.13 1181.81,1386.13 1181.81,1386.17 1183.18,1386.17 1183.18,1388.26 1184.56,1388.26 1184.56,1389.21 1185.93,1389.21 1185.93,1389.33 1187.31,1389.33 1187.31,1397.72 1188.68,1397.72 1188.68,1401.15 1190.06,1401.15 1190.06,1394.85 1191.43,1394.85 1191.43,1404.32 1192.8,1404.32 1192.8,1413.82 1194.18,1413.82 1194.18,1404.56 1195.55,1404.56 1195.55,1397.68 1196.93,1397.68 1196.93,1400.43 1198.3,1400.43 1198.3,1398.64 1199.68,1398.64 1199.68,1388.22 1201.05,1388.22 1201.05,1374.05 1202.43,1374.05 1202.43,1360.62 1203.8,1360.62 1203.8,1370.06 1205.17,1370.06 1205.17,1362.16 1206.55,1362.16 1206.55,1356.11 1207.92,1356.11 1207.92,1363.31 1209.3,1363.31 1209.3,1354.58 1210.67,1354.58 1210.67,1347.47 1212.05,1347.47 1212.05,1339.6 1213.42,1339.6 1213.42,1333.99 1214.8,1333.99 1214.8,1332.15 1216.17,1332.15 1216.17,1321.75 1217.54,1321.75 1217.54,1319.25 1218.92,1319.25 1218.92,1317.83 1220.29,1317.83 1220.29,1322.58 1221.67,1322.58 1221.67,1314.46 1223.04,1314.46 1223.04,1311.94 1224.42,1311.94 1224.42,1309.01 1225.79,1309.01 1225.79,1310.83 1227.17,1310.83 1227.17,1311.19 1228.54,1311.19 1228.54,1306.29 1229.92,1306.29 1229.92,1304.64 1231.29,1304.64 1231.29,1297.9 1232.66,1297.9 1232.66,1287.43 1234.04,1287.43 1234.04,1279.9 1235.41,1279.9 1235.41,1288.01 1236.79,1288.01 1236.79,1286.83 1238.16,1286.83 1238.16,1301.68 1239.54,1301.68 1239.54,1308.86 1240.91,1308.86 1240.91,1309.43 1242.29,1309.43 1242.29,1311.39 1243.66,1311.39 1243.66,1310.62 1245.03,1310.62 1245.03,1304.91 1246.41,1304.91 1246.41,1319.63 1247.78,1319.63 1247.78,1324.54 1249.16,1324.54 1249.16,1318.57 1250.53,1318.57 1250.53,1311.33 1251.91,1311.33 1251.91,1308.92 1253.28,1308.92 1253.28,1310.71 1254.66,1310.71 1254.66,1329.3 1256.03,1329.3 1256.03,1325.97 1257.4,1325.97 1257.4,1337.19 1258.78,1337.19 1258.78,1336.87 1260.15,1336.87 1260.15,1333.15 1261.53,1333.15 1261.53,1333.12 1262.9,1333.12 1262.9,1334.38 1264.28,1334.38 1264.28,1328.19 1265.65,1328.19 1265.65,1325.55 1267.03,1325.55 1267.03,1320.71 1268.4,1320.71 1268.4,1331.21 1269.77,1331.21 1269.77,1324.51 1271.15,1324.51 1271.15,1310.26 1272.52,1310.26 1272.52,1304.63 1273.9,1304.63 1273.9,1302.38 1275.27,1302.38 1275.27,1291.65 1276.65,1291.65 1276.65,1293.06 1278.02,1293.06 1278.02,1285.06 1279.4,1285.06 1279.4,1284.53 1280.77,1284.53 1280.77,1283.92 1282.14,1283.92 1282.14,1300.43 1283.52,1300.43 1283.52,1298.18 1284.89,1298.18 1284.89,1288.31 1286.27,1288.31 1286.27,1293.12 1287.64,1293.12 1287.64,1290.55 1289.02,1290.55 1289.02,1281.11 1290.39,1281.11 1290.39,1284.53 1291.77,1284.53 1291.77,1278.56 1293.14,1278.56 1293.14,1281.62 1294.52,1281.62 1294.52,1282.9 1295.89,1282.9 1295.89,1285.13 1297.26,1285.13 1297.26,1284.07 1298.64,1284.07 1298.64,1276.37 1300.01,1276.37 1300.01,1271.55 1301.39,1271.55 1301.39,1266.48 1302.76,1266.48 1302.76,1267.83 1304.14,1267.83 1304.14,1276.52 1305.51,1276.52 1305.51,1283.23 1306.89,1283.23 1306.89,1285.11 1308.26,1285.11 1308.26,1280.83 1309.63,1280.83 1309.63,1278.83 1311.01,1278.83 1311.01,1277.67 1312.38,1277.67 1312.38,1272.85 1313.76,1272.85 1313.76,1267.87 1315.13,1267.87 1315.13,1267.38 1316.51,1267.38 1316.51,1264.92 1317.88,1264.92 1317.88,1269.67 1319.26,1269.67 1319.26,1264.88 1320.63,1264.88 1320.63,1276 1322,1276 1322,1284.23 1323.38,1284.23 1323.38,1294.28 1324.75,1294.28 1324.75,1288.19 1326.13,1288.19 1326.13,1273.7 1327.5,1273.7 1327.5,1274.18 1328.88,1274.18 1328.88,1272.14 1330.25,1272.14 1330.25,1261.69 1331.63,1261.69 1331.63,1262.83 1333,1262.83 1333,1257.18 1334.37,1257.18 1334.37,1271.18 1335.75,1271.18 1335.75,1260.7 1337.12,1260.7 1337.12,1260.39 1338.5,1260.39 1338.5,1249.8 1339.87,1249.8 1339.87,1247.08 1341.25,1247.08 1341.25,1233.46 1342.62,1233.46 1342.62,1235.8 1344,1235.8 1344,1230.82 1345.37,1230.82 1345.37,1220.33 1346.74,1220.33 1346.74,1217 1348.12,1217 1348.12,1213.08 1349.49,1213.08 1349.49,1214.61 1350.87,1214.61 1350.87,1216 1352.24,1216 1352.24,1206.12 1353.62,1206.12 1353.62,1211.05 1354.99,1211.05 1354.99,1208.32 1356.37,1208.32 1356.37,1198.83 1357.74,1198.83 1357.74,1187.83 1359.12,1187.83 1359.12,1186.21 1360.49,1186.21 1360.49,1180.96 1361.86,1180.96 1361.86,1187.66 1363.24,1187.66 1363.24,1187.84 1364.61,1187.84 1364.61,1198.64 1365.99,1198.64 1365.99,1191.86 1367.36,1191.86 1367.36,1193.83 1368.74,1193.83 1368.74,1204.46 1370.11,1204.46 1370.11,1206.97 1371.49,1206.97 1371.49,1203.8 1372.86,1203.8 1372.86,1213.1 1374.23,1213.1 1374.23,1204.1 1375.61,1204.1 1375.61,1201.46 1376.98,1201.46 1376.98,1189.28 1378.36,1189.28 1378.36,1192.26 1379.73,1192.26 1379.73,1191.57 1381.11,1191.57 1381.11,1182.36 1382.48,1182.36 1382.48,1183.55 1383.86,1183.55 1383.86,1179.91 1385.23,1179.91 1385.23,1175.8 1386.6,1175.8 1386.6,1170.79 1387.98,1170.79 1387.98,1168.97 1389.35,1168.97 1389.35,1166 1390.73,1166 1390.73,1155.15 1392.1,1155.15 1392.1,1160.55 1393.48,1160.55 1393.48,1155.36 1394.85,1155.36 1394.85,1150.66 1396.23,1150.66 1396.23,1160.78 1397.6,1160.78 1397.6,1152.87 1398.97,1152.87 1398.97,1136.41 1400.35,1136.41 1400.35,1139.16 1401.72,1139.16 1401.72,1141.55 1403.1,1141.55 1403.1,1127.3 1404.47,1127.3 1404.47,1134.28 1405.85,1134.28 1405.85,1142.16 1407.22,1142.16 1407.22,1133.57 1408.6,1133.57 1408.6,1126.78 1409.97,1126.78 1409.97,1136.58 1411.34,1136.58 1411.34,1134.53 1412.72,1134.53 1412.72,1142.27 1414.09,1142.27 1414.09,1135.26 1415.47,1135.26 1415.47,1138.26 1416.84,1138.26 1416.84,1126.38 1418.22,1126.38 1418.22,1125.22 1419.59,1125.22 1419.59,1135.59 1420.97,1135.59 1420.97,1135.02 1422.34,1135.02 1422.34,1145.14 1423.72,1145.14 1423.72,1140.39 1425.09,1140.39 1425.09,1140.08 1426.46,1140.08 1426.46,1149.41 1427.84,1149.41 1427.84,1149.22 1429.21,1149.22 1429.21,1147.76 1430.59,1147.76 1430.59,1130.08 1431.96,1130.08 1431.96,1151.19 1433.34,1151.19 1433.34,1144.7 1434.71,1144.7 1434.71,1135.81 1436.09,1135.81 1436.09,1140.34 1437.46,1140.34 1437.46,1130.08 1438.83,1130.08 1438.83,1142.92 1440.21,1142.92 1440.21,1137.75 1441.58,1137.75 1441.58,1152.48 1442.96,1152.48 1442.96,1156.4 1444.33,1156.4 1444.33,1161.61 1445.71,1161.61 1445.71,1163.69 1447.08,1163.69 1447.08,1170.81 1448.46,1170.81 1448.46,1173.08 1449.83,1173.08 1449.83,1161.01 1451.2,1161.01 1451.2,1163.95 1452.58,1163.95 1452.58,1165.16 1453.95,1165.16 1453.95,1157.08 1455.33,1157.08 1455.33,1145.63 1456.7,1145.63 1456.7,1155.53 1458.08,1155.53 1458.08,1144.29 1459.45,1144.29 1459.45,1139.52 1460.83,1139.52 1460.83,1141.18 1462.2,1141.18 1462.2,1115.28 1463.57,1115.28 1463.57,1122.35 1464.95,1122.35 1464.95,1125.93 1466.32,1125.93 1466.32,1130.02 1467.7,1130.02 1467.7,1132.26 1469.07,1132.26 1469.07,1149.14 1470.45,1149.14 1470.45,1156.02 1471.82,1156.02 1471.82,1163.04 1473.2,1163.04 1473.2,1158.22 1474.57,1158.22 1474.57,1160.06 1475.94,1160.06 1475.94,1162.54 1477.32,1162.54 1477.32,1162.61 1478.69,1162.61 1478.69,1171.16 1480.07,1171.16 1480.07,1171.36 1481.44,1171.36 1481.44,1161.52 1482.82,1161.52 1482.82,1154.58 1484.19,1154.58 1484.19,1160.54 1485.57,1160.54 1485.57,1153.78 1486.94,1153.78 1486.94,1140.42 1488.32,1140.42 1488.32,1120.31 1489.69,1120.31 1489.69,1138.59 1491.06,1138.59 1491.06,1118.68 1492.44,1118.68 1492.44,1122.92 1493.81,1122.92 1493.81,1130.34 1495.19,1130.34 1495.19,1134.58 1496.56,1134.58 1496.56,1132.09 1497.94,1132.09 1497.94,1145.54 1499.31,1145.54 1499.31,1133.51 1500.69,1133.51 1500.69,1133.21 1502.06,1133.21 1502.06,1136.2 1503.43,1136.2 1503.43,1130.79 1504.81,1130.79 1504.81,1142.42 1506.18,1142.42 1506.18,1153.39 1507.56,1153.39 1507.56,1153.67 1508.93,1153.67 1508.93,1156.49 1510.31,1156.49 1510.31,1162.24 1511.68,1162.24 1511.68,1179.76 1513.06,1179.76 1513.06,1172.3 1514.43,1172.3 1514.43,1160.66 1515.8,1160.66 1515.8,1146.32 1517.18,1146.32 1517.18,1150.06 1518.55,1150.06 1518.55,1161.37 1519.93,1161.37 1519.93,1144.41 1521.3,1144.41 1521.3,1145.28 1522.68,1145.28 1522.68,1153.39 1524.05,1153.39 1524.05,1154.69 1525.43,1154.69 1525.43,1142.1 1526.8,1142.1 1526.8,1149.61 1528.17,1149.61 1528.17,1148.45 1529.55,1148.45 1529.55,1155.84 1530.92,1155.84 1530.92,1149.02 1532.3,1149.02 1532.3,1145.79 1533.67,1145.79 1533.67,1128.87 1535.05,1128.87 1535.05,1117.09 1536.42,1117.09 1536.42,1131.11 1537.8,1131.11 1537.8,1120.75 1539.17,1120.75 1539.17,1126.78 1540.55,1126.78 1540.55,1129.16 1541.92,1129.16 1541.92,1117.78 1543.29,1117.78 1543.29,1120.24 1544.67,1120.24 1544.67,1125.93 1546.04,1125.93 1546.04,1121.2 1547.42,1121.2 1547.42,1111.84 1548.79,1111.84 1548.79,1132.92 1550.17,1132.92 1550.17,1140.45 1551.54,1140.45 1551.54,1140.67 1552.92,1140.67 1552.92,1123.99 1554.29,1123.99 1554.29,1118.56 1555.66,1118.56 1555.66,1117.03 1557.04,1117.03 1557.04,1110.41 1558.41,1110.41 1558.41,1102.06 1559.79,1102.06 1559.79,1092.67 1561.16,1092.67 1561.16,1093.21 1562.54,1093.21 1562.54,1094.32 1563.91,1094.32 1563.91,1085.19 1565.29,1085.19 1565.29,1091.47 1566.66,1091.47 1566.66,1096.97 1568.03,1096.97 1568.03,1091.35 1569.41,1091.35 1569.41,1095.5 1570.78,1095.5 1570.78,1077.55 1572.16,1077.55 1572.16,1080.45 1573.53,1080.45 1573.53,1056.64 1574.91,1056.64 1574.91,1047.61 1576.28,1047.61 1576.28,1062.42 1577.66,1062.42 1577.66,1061.47 1579.03,1061.47 1579.03,1057.49 1580.4,1057.49 1580.4,1061.07 1581.78,1061.07 1581.78,1060.5 1583.15,1060.5 1583.15,1044.21 1584.53,1044.21 1584.53,1037.71 1585.9,1037.71 1585.9,1042.15 1587.28,1042.15 1587.28,1033.69 1588.65,1033.69 1588.65,1046.83 1590.03,1046.83 1590.03,1046.22 1591.4,1046.22 1591.4,1037.24 1592.77,1037.24 1592.77,1038.27 1594.15,1038.27 1594.15,1053.18 1595.52,1053.18 1595.52,1060.11 1596.9,1060.11 1596.9,1072.58 1598.27,1072.58 1598.27,1076.68 1599.65,1076.68 1599.65,1081.17 1601.02,1081.17 1601.02,1069.96 1602.4,1069.96 1602.4,1075.65 1603.77,1075.65 1603.77,1079.46 1605.15,1079.46 1605.15,1077.34 1606.52,1077.34 1606.52,1086.74 1607.89,1086.74 1607.89,1080.41 1609.27,1080.41 1609.27,1076.11 1610.64,1076.11 1610.64,1082.51 1612.02,1082.51 1612.02,1083.9 1613.39,1083.9 1613.39,1087.9 1614.77,1087.9 1614.77,1094.14 1616.14,1094.14 1616.14,1106.36 1617.52,1106.36 1617.52,1111.43 1618.89,1111.43 1618.89,1108.47 1620.26,1108.47 1620.26,1129.22 1621.64,1129.22 1621.64,1121.74 1623.01,1121.74 1623.01,1132.82 1624.39,1132.82 1624.39,1131.91 1625.76,1131.91 1625.76,1142.81 1627.14,1142.81 1627.14,1137.69 1628.51,1137.69 1628.51,1137.54 1629.89,1137.54 1629.89,1141.44 1631.26,1141.44 1631.26,1131.5 1632.63,1131.5 1632.63,1121.9 1634.01,1121.9 1634.01,1120.22 1635.38,1120.22 1635.38,1107.34 1636.76,1107.34 1636.76,1104.91 1638.13,1104.91 1638.13,1113.25 1639.51,1113.25 1639.51,1120.87 1640.88,1120.87 1640.88,1123.57 1642.26,1123.57 1642.26,1115.59 1643.63,1115.59 1643.63,1120.14 1645,1120.14 1645,1129 1646.38,1129 1646.38,1122.47 1647.75,1122.47 1647.75,1119.28 1649.13,1119.28 1649.13,1117.61 1650.5,1117.61 1650.5,1100.95 1651.88,1100.95 1651.88,1095.35 1653.25,1095.35 1653.25,1103.22 1654.63,1103.22 1654.63,1093.83 1656,1093.83 1656,1097.4 1657.37,1097.4 1657.37,1097.41 1658.75,1097.41 1658.75,1102.93 1660.12,1102.93 1660.12,1093.01 1661.5,1093.01 1661.5,1081.15 1662.87,1081.15 1662.87,1075.39 1664.25,1075.39 1664.25,1069.39 1665.62,1069.39 1665.62,1065.84 1667,1065.84 1667,1075.45 1668.37,1075.45 1668.37,1062.31 1669.75,1062.31 1669.75,1069.37 1671.12,1069.37 1671.12,1068.75 1672.49,1068.75 1672.49,1076.22 1673.87,1076.22 1673.87,1075.96 1675.24,1075.96 1675.24,1073.68 1676.62,1073.68 1676.62,1075.4 1677.99,1075.4 1677.99,1077.36 1679.37,1077.36 1679.37,1080.57 1680.74,1080.57 1680.74,1092.55 1682.12,1092.55 1682.12,1123.58 1683.49,1123.58 1683.49,1115.2 1684.86,1115.2 1684.86,1123.6 1686.24,1123.6 1686.24,1146.28 1687.61,1146.28 1687.61,1154.93 1688.99,1154.93 1688.99,1164.85 1690.36,1164.85 1690.36,1161.09 1691.74,1161.09 1691.74,1154.69 1693.11,1154.69 1693.11,1150.77 1694.49,1150.77 1694.49,1148.25 1695.86,1148.25 1695.86,1142.86 1697.23,1142.86 1697.23,1135.82 1698.61,1135.82 1698.61,1127 1699.98,1127 1699.98,1135.48 1701.36,1135.48 1701.36,1134.87 1702.73,1134.87 1702.73,1142.19 1704.11,1142.19 1704.11,1148.92 1705.48,1148.92 1705.48,1146.22 1706.86,1146.22 1706.86,1154.75 1708.23,1154.75 1708.23,1158.07 1709.6,1158.07 1709.6,1134.66 1710.98,1134.66 1710.98,1130.59 1712.35,1130.59 1712.35,1128.21 1713.73,1128.21 1713.73,1136.23 1715.1,1136.23 1715.1,1128.59 1716.48,1128.59 1716.48,1126.63 1717.85,1126.63 1717.85,1125.37 1719.23,1125.37 1719.23,1122.9 1720.6,1122.9 1720.6,1096.93 1721.97,1096.93 1721.97,1105.46 1723.35,1105.46 1723.35,1106.66 1724.72,1106.66 1724.72,1119.88 1726.1,1119.88 1726.1,1122.55 1727.47,1122.55 1727.47,1122.45 1728.85,1122.45 1728.85,1134.07 1730.22,1134.07 1730.22,1132.13 1731.6,1132.13 1731.6,1141.8 1732.97,1141.8 1732.97,1147.76 1734.35,1147.76 1734.35,1152.17 1735.72,1152.17 1735.72,1150.93 1737.09,1150.93 1737.09,1154.45 1738.47,1154.45 1738.47,1152.27 1739.84,1152.27 1739.84,1141.74 1741.22,1141.74 1741.22,1135.1 1742.59,1135.1 1742.59,1131.15 1743.97,1131.15 1743.97,1138.76 1745.34,1138.76 1745.34,1135.05 1746.72,1135.05 1746.72,1129.51 1748.09,1129.51 1748.09,1123.99 1749.46,1123.99 1749.46,1108.49 1750.84,1108.49 1750.84,1114.86 1752.21,1114.86 1752.21,1113.67 1753.59,1113.67 1753.59,1106.43 1754.96,1106.43 1754.96,1115.09 1756.34,1115.09 1756.34,1116.65 1757.71,1116.65 1757.71,1121.46 1759.09,1121.46 1759.09,1117.61 1760.46,1117.61 1760.46,1109.52 1761.83,1109.52 1761.83,1109.13 1763.21,1109.13 1763.21,1100.7 1764.58,1100.7 1764.58,1096.34 1765.96,1096.34 1765.96,1085.87 1767.33,1085.87 1767.33,1068.67 1768.71,1068.67 1768.71,1071.92 1770.08,1071.92 1770.08,1068.2 1771.46,1068.2 1771.46,1080.28 1772.83,1080.28 1772.83,1090.76 1774.2,1090.76 1774.2,1107.2 1775.58,1107.2 1775.58,1111.77 1776.95,1111.77 1776.95,1122.89 1778.33,1122.89 1778.33,1121.07 1779.7,1121.07 1779.7,1123.28 1781.08,1123.28 1781.08,1103.28 1782.45,1103.28 1782.45,1100.83 1783.83,1100.83 1783.83,1081.46 1785.2,1081.46 1785.2,1085.82 1786.57,1085.82 1786.57,1083.16 1787.95,1083.16 1787.95,1088.49 1789.32,1088.49 1789.32,1080.09 1790.7,1080.09 1790.7,1073.29 1792.07,1073.29 1792.07,1064.6 1793.45,1064.6 1793.45,1071.55 1794.82,1071.55 1794.82,1062.43 1796.2,1062.43 1796.2,1061.35 1797.57,1061.35 1797.57,1058.45 1798.95,1058.45 1798.95,1047.44 1800.32,1047.44 1800.32,1051.21 1801.69,1051.21 1801.69,1054.36 1803.07,1054.36 1803.07,1050.4 1804.44,1050.4 1804.44,1037.71 1805.82,1037.71 1805.82,1021.67 1807.19,1021.67 1807.19,1011.62 1808.57,1011.62 1808.57,1036.86 1809.94,1036.86 1809.94,1048.39 1811.32,1048.39 1811.32,1053.88 1812.69,1053.88 1812.69,1064.6 1814.06,1064.6 1814.06,1065.92 1815.44,1065.92 1815.44,1061.19 1816.81,1061.19 1816.81,1053.4 1818.19,1053.4 1818.19,1054.67 1819.56,1054.67 1819.56,1040.99 1820.94,1040.99 1820.94,1052.71 1822.31,1052.71 1822.31,1044.74 1823.69,1044.74 1823.69,1033.47 1825.06,1033.47 1825.06,1030.84 1826.43,1030.84 1826.43,1022.03 1827.81,1022.03 1827.81,1007.8 1829.18,1007.8 1829.18,1007.25 1830.56,1007.25 1830.56,993.28 1831.93,993.28 1831.93,998.951 1833.31,998.951 1833.31,981.425 1834.68,981.425 1834.68,979.3 1836.06,979.3 1836.06,996.523 1837.43,996.523 1837.43,988.095 1838.8,988.095 1838.8,993.324 1840.18,993.324 1840.18,986.774 1841.55,986.774 1841.55,988.276 1842.93,988.276 1842.93,975.564 1844.3,975.564 1844.3,973.603 1845.68,973.603 1845.68,979.359 1847.05,979.359 1847.05,970.172 1848.43,970.172 1848.43,980.261 1849.8,980.261 1849.8,989.965 1851.17,989.965 1851.17,980.455 1852.55,980.455 1852.55,977.319 1853.92,977.319 1853.92,984.28 1855.3,984.28 1855.3,1001.79 1856.67,1001.79 1856.67,1011.26 1858.05,1011.26 1858.05,1016.1 1859.42,1016.1 1859.42,1010.24 1860.8,1010.24 1860.8,1006.94 1862.17,1006.94 1862.17,1009.84 1863.55,1009.84 1863.55,1021.21 1864.92,1021.21 1864.92,1022.66 1866.29,1022.66 1866.29,1022.22 1867.67,1022.22 1867.67,1015.73 1869.04,1015.73 1869.04,1038.33 1870.42,1038.33 1870.42,1051.2 1871.79,1051.2 1871.79,1034.89 1873.17,1034.89 1873.17,1027.16 1874.54,1027.16 1874.54,1038.06 1875.92,1038.06 1875.92,1049.81 1877.29,1049.81 1877.29,1050.24 1878.66,1050.24 1878.66,1050.89 1880.04,1050.89 1880.04,1041.85 1881.41,1041.85 1881.41,1045.17 1882.79,1045.17 1882.79,1048.93 1884.16,1048.93 1884.16,1043.28 1885.54,1043.28 1885.54,1048.94 1886.91,1048.94 1886.91,1051.16 1888.29,1051.16 1888.29,1039.45 1889.66,1039.45 1889.66,1045.54 1891.03,1045.54 1891.03,1045.07 1892.41,1045.07 1892.41,1039.67 1893.78,1039.67 1893.78,1040.86 1895.16,1040.86 1895.16,1031.22 1896.53,1031.22 1896.53,1036.15 1897.91,1036.15 1897.91,1049.93 1899.28,1049.93 1899.28,1030.47 1900.66,1030.47 1900.66,1041.57 1902.03,1041.57 1902.03,1029.57 1903.4,1029.57 1903.4,1023.51 1904.78,1023.51 1904.78,1023.63 1906.15,1023.63 1906.15,997.317 1907.53,997.317 1907.53,1002.16 1908.9,1002.16 1908.9,995.771 1910.28,995.771 1910.28,997.434 1911.65,997.434 1911.65,1000.31 1913.03,1000.31 1913.03,1018.11 1914.4,1018.11 1914.4,1014.56 1915.78,1014.56 1915.78,1015.76 1917.15,1015.76 1917.15,995.528 1918.52,995.528 1918.52,1020.58 1919.9,1020.58 1919.9,997.815 1921.27,997.815 1921.27,1001.57 1922.65,1001.57 1922.65,994.521 1924.02,994.521 1924.02,1001.76 1925.4,1001.76 1925.4,992.034 1926.77,992.034 1926.77,966.81 1928.15,966.81 1928.15,958.49 1929.52,958.49 1929.52,964.763 1930.89,964.763 1930.89,953.617 1932.27,953.617 1932.27,947.894 1933.64,947.894 1933.64,954.324 1935.02,954.324 1935.02,944.508 1936.39,944.508 1936.39,933.192 1937.77,933.192 1937.77,925.978 1939.14,925.978 1939.14,907.636 1940.52,907.636 1940.52,903.068 1941.89,903.068 1941.89,894.865 1943.26,894.865 1943.26,881.07 1944.64,881.07 1944.64,878.799 1946.01,878.799 1946.01,873.773 1947.39,873.773 1947.39,881.71 1948.76,881.71 1948.76,895.052 1950.14,895.052 1950.14,896.29 1951.51,896.29 1951.51,895.833 1952.89,895.833 1952.89,895.568 1954.26,895.568 1954.26,900.818 1955.63,900.818 1955.63,904.858 1957.01,904.858 1957.01,892.322 1958.38,892.322 1958.38,890.059 1959.76,890.059 1959.76,899.04 1961.13,899.04 1961.13,901.127 1962.51,901.127 1962.51,891.708 1963.88,891.708 1963.88,895.611 1965.26,895.611 1965.26,901.429 1966.63,901.429 1966.63,915.684 1968,915.684 1968,919.322 1969.38,919.322 1969.38,936.247 1970.75,936.247 1970.75,936.443 1972.13,936.443 1972.13,952.611 1973.5,952.611 1973.5,974.902 1974.88,974.902 1974.88,977.621 1976.25,977.621 1976.25,977.069 1977.63,977.069 1977.63,963.84 1979,963.84 1979,962.765 1980.38,962.765 1980.38,964.057 1981.75,964.057 1981.75,965.192 1983.12,965.192 1983.12,961.431 1984.5,961.431 1984.5,962.039 1985.87,962.039 1985.87,962.654 1987.25,962.654 1987.25,972.517 1988.62,972.517 1988.62,975.766 1990,975.766 1990,979.898 1991.37,979.898 1991.37,990.034 1992.75,990.034 1992.75,991.09 1994.12,991.09 1994.12,989.068 1995.49,989.068 1995.49,996.587 1996.87,996.587 1996.87,998.336 1998.24,998.336 1998.24,996.533 1999.62,996.533 1999.62,998.721 2000.99,998.721 2000.99,1000.26 2002.37,1000.26 2002.37,996.622 2003.74,996.622 2003.74,1000.35 2005.12,1000.35 2005.12,1007.71 2006.49,1007.71 2006.49,1005.58 2007.86,1005.58 2007.86,1009.99 2009.24,1009.99 2009.24,1009.16 2010.61,1009.16 2010.61,1006.01 2011.99,1006.01 2011.99,1008.06 2013.36,1008.06 2013.36,1005.35 2014.74,1005.35 2014.74,1006.38 2016.11,1006.38 2016.11,1001.55 2017.49,1001.55 2017.49,1003.12 2018.86,1003.12 2018.86,998.678 2020.23,998.678 2020.23,1003.6 2021.61,1003.6 2021.61,1002.85 2022.98,1002.85 2022.98,1003.97 2024.36,1003.97 2024.36,1009.61 2025.73,1009.61 2025.73,1010.84 2027.11,1010.84 2027.11,1013.31 2028.48,1013.31 2028.48,1008.31 2029.86,1008.31 2029.86,1005.66 2031.23,1005.66 2031.23,1004.56 2032.6,1004.56 2032.6,999.051 2033.98,999.051 2033.98,996.893 2035.35,996.893 2035.35,995.185 2036.73,995.185 2036.73,996.203 2038.1,996.203 2038.1,993.592 2039.48,993.592 2039.48,996.063 2040.85,996.063 2040.85,991.258 2042.23,991.258 2042.23,994.21 2043.6,994.21 2043.6,997.142 2044.98,997.142 2044.98,998.892 2046.35,998.892 2046.35,994.537 2047.72,994.537 2047.72,995.577 2049.1,995.577 2049.1,995.2 2050.47,995.2 2050.47,1001.06 2051.85,1001.06 2051.85,994.578 2053.22,994.578 2053.22,992.388 2054.6,992.388 2054.6,986.67 2055.97,986.67 2055.97,991.838 2057.35,991.838 2057.35,996.722 2058.72,996.722 2058.72,992.571 2060.09,992.571 2060.09,991.593 2061.47,991.593 2061.47,990.04 2062.84,990.04 2062.84,989.689 2064.22,989.689 2064.22,988.238 2065.59,988.238 2065.59,983.6 2066.97,983.6 2066.97,986.457 2068.34,986.457 2068.34,980.196 2069.72,980.196 2069.72,980.448 2071.09,980.448 2071.09,983.493 2072.46,983.493 2072.46,989.34 2073.84,989.34 2073.84,981.186 2075.21,981.186 2075.21,984.362 2076.59,984.362 2076.59,985.659 2077.96,985.659 2077.96,987.326 2079.34,987.326 2079.34,985.039 2080.71,985.039 2080.71,987.062 2082.09,987.062 2082.09,985.318 2083.46,985.318 2083.46,985.557 2084.83,985.557 2084.83,981.623 2086.21,981.623 2086.21,982.383 2087.58,982.383 2087.58,985.357 2088.96,985.357 2088.96,983.666 2090.33,983.666 2090.33,986.988 2091.71,986.988 2091.71,981.085 2093.08,981.085 2093.08,975.957 2094.46,975.957 2094.46,973.326 2095.83,973.326 2095.83,971.578 2097.2,971.578 2097.2,974.234 2098.58,974.234 2098.58,974.63 2099.95,974.63 2099.95,972.052 2101.33,972.052 2101.33,964.597 2102.7,964.597 2102.7,967.058 2104.08,967.058 2104.08,970.308 2105.45,970.308 2105.45,962.952 2106.83,962.952 2106.83,966.941 2108.2,966.941 2108.2,968.85 2109.58,968.85 2109.58,964.22 2110.95,964.22 2110.95,973.573 2112.32,973.573 2112.32,974.154 2113.7,974.154 2113.7,964.548 2115.07,964.548 2115.07,959.598 2116.45,959.598 2116.45,958.275 2117.82,958.275 2117.82,951.462 2119.2,951.462 2119.2,947.72 2120.57,947.72 2120.57,944.296 2121.95,944.296 2121.95,947.414 2123.32,947.414 2123.32,944.941 2124.69,944.941 2124.69,945.629 2126.07,945.629 2126.07,945.98 2127.44,945.98 2127.44,946.441 2128.82,946.441 2128.82,948.225 2130.19,948.225 2130.19,946.825 2131.57,946.825 2131.57,946.389 2132.94,946.389 2132.94,947.797 2134.32,947.797 2134.32,951.1 2135.69,951.1 2135.69,949.309 2137.06,949.309 2137.06,952.738 2138.44,952.738 2138.44,951.531 2139.81,951.531 2139.81,945.657 2141.19,945.657 2141.19,946.696 2142.56,946.696 2142.56,942.536 2143.94,942.536 2143.94,939.943 2145.31,939.943 2145.31,938.745 2146.69,938.745 2146.69,937.981 2148.06,937.981 2148.06,941.671 2149.43,941.671 2149.43,943.229 2150.81,943.229 2150.81,949.846 2152.18,949.846 2152.18,949.846 2153.56,949.846 2153.56,949.396 2154.93,949.396 2154.93,952.649 2156.31,952.649 2156.31,946.647 2157.68,946.647 2157.68,957.447 2159.06,957.447 2159.06,962.153 2160.43,962.153 2160.43,958.215 2161.8,958.215 2161.8,960.789 2163.18,960.789 2163.18,960.517 2164.55,960.517 2164.55,958.262 2165.93,958.262 2165.93,959.758 2167.3,959.758 2167.3,958.96 2168.68,958.96 2168.68,954.258 2170.05,954.258 2170.05,958.87 2171.43,958.87 2171.43,959.008 2172.8,959.008 2172.8,958.225 2174.18,958.225 2174.18,954.871 2175.55,954.871 2175.55,957.42 2176.92,957.42 2176.92,955.768 2178.3,955.768 2178.3,950.029 2179.67,950.029 2179.67,961.514 2181.05,961.514 2181.05,958.571 2182.42,958.571 2182.42,960.362 2183.8,960.362 2183.8,959.87 2185.17,959.87 2185.17,958.25 2186.55,958.25 2186.55,958.754 2187.92,958.754 2187.92,956.566 2189.29,956.566 2189.29,952.431 2190.67,952.431 2190.67,963.775 2192.04,963.775 2192.04,956.849 2193.42,956.849 2193.42,952.646 2194.79,952.646 2194.79,947.458 2196.17,947.458 2196.17,941.977 2197.54,941.977 2197.54,936.623 2198.92,936.623 2198.92,946.435 2200.29,946.435 2200.29,945.711 2201.66,945.711 2201.66,937.061 2203.04,937.061 2203.04,938.379 2204.41,938.379 2204.41,942.002 2205.79,942.002 2205.79,934.759 2207.16,934.759 2207.16,935.836 2208.54,935.836 2208.54,916.344 2209.91,916.344 2209.91,909.382 2211.29,909.382 2211.29,911.637 2212.66,911.637 2212.66,915.484 2214.03,915.484 2214.03,908.289 2215.41,908.289 2215.41,915.563 2216.78,915.563 2216.78,917.394 2218.16,917.394 2218.16,911.833 2219.53,911.833 2219.53,912.91 2220.91,912.91 2220.91,902.951 2222.28,902.951 2222.28,900.914 2223.66,900.914 2223.66,899.632 2225.03,899.632 2225.03,887.146 2226.41,887.146 2226.41,888.886 2227.78,888.886 2227.78,894.192 2229.15,894.192 2229.15,892.159 2230.53,892.159 2230.53,896.42 2231.9,896.42 2231.9,897.52 2233.28,897.52 2233.28,901.643 2234.65,901.643 2234.65,905.524 2236.03,905.524 2236.03,900.272 2237.4,900.272 2237.4,893.876 2238.78,893.876 2238.78,890.389 2240.15,890.389 2240.15,895.552 2241.52,895.552 2241.52,900.826 2242.9,900.826 2242.9,896.992 2244.27,896.992 2244.27,899.285 2245.65,899.285 2245.65,889.658 2247.02,889.658 2247.02,897.093 2248.4,897.093 2248.4,892.74 2249.77,892.74 2249.77,897.175 2251.15,897.175 2251.15,897.205 2252.52,897.205 2252.52,890.981 2253.89,890.981 2253.89,891.53 2255.27,891.53 2255.27,901.857 2256.64,901.857 2256.64,893.972 2258.02,893.972 2258.02,885.115 2259.39,885.115 2259.39,886.911 2260.77,886.911 2260.77,875.913 2262.14,875.913 2262.14,873.169 2263.52,873.169 2263.52,863.844 2264.89,863.844 2264.89,861.106 2266.26,861.106 2266.26,862.562 2267.64,862.562 2267.64,858.477 2269.01,858.477 2269.01,856.291 2270.39,856.291 2270.39,845.19 2271.76,845.19 2271.76,838.809 2273.14,838.809 2273.14,836.524 2274.51,836.524 2274.51,839.225 2275.89,839.225 2275.89,844.864 2277.26,844.864 2277.26,834.552 2278.63,834.552 2278.63,826.848 2280.01,826.848 2280.01,832.495 2281.38,832.495 2281.38,823.401 2282.76,823.401 2282.76,814.109 2284.13,814.109 2284.13,825.547 2285.51,825.547 2285.51,821.111 2286.88,821.111 2286.88,820.778 2288.26,820.778 2288.26,817.66 2289.63,817.66 2289.63,812.566 2291.01,812.566 2291.01,806.49 2292.38,806.49 2292.38,809.362 2293.75,809.362 2293.75,807.513 2295.13,807.513 2295.13,810.233 2296.5,810.233 2296.5,799.261 2297.88,799.261 2297.88,796.719 2299.25,796.719 2299.25,802.879 2300.63,802.879 2300.63,796.045 2302,796.045 2302,781.854 2303.38,781.854 2303.38,786.521 2304.75,786.521 2304.75,768.545 2306.12,768.545 2306.12,762.321 2307.5,762.321 2307.5,767.887 2308.87,767.887 2308.87,775.58 2310.25,775.58 2310.25,776.08 2311.62,776.08 2311.62,769.88 2313,769.88 2313,767.528 2314.37,767.528 2314.37,760.421 2315.75,760.421 2315.75,751.166 2317.12,751.166 2317.12,748.275 2318.49,748.275 2318.49,762.207 2319.87,762.207 2319.87,760.139 2321.24,760.139 2321.24,754.256 2322.62,754.256 2322.62,771.154 2323.99,771.154 2323.99,782.51 2325.37,782.51 2325.37,772.777 2326.74,772.777 2326.74,769.647 2328.12,769.647 2328.12,755.003 2329.49,755.003 2329.49,741.105 2330.86,741.105 2330.86,722.437 2332.24,722.437 2332.24,728.554 2333.61,728.554 2333.61,727.101 2334.99,727.101 2334.99,732.175 2336.36,732.175 2336.36,725.998 2337.74,725.998 2337.74,734.781 2339.11,734.781 2339.11,736.444 2340.49,736.444 2340.49,739.467 2341.86,739.467 2341.86,743.852 2343.23,743.852 2343.23,733.37 2344.61,733.37 2344.61,736.115 2345.98,736.115 2345.98,728.822 2347.36,728.822 2347.36,726.292 2348.73,726.292 2348.73,735.057 2350.11,735.057 2350.11,732.437 2351.48,732.437 2351.48,734.118 2352.86,734.118 2352.86,727.16 2354.23,727.16 2354.23,746.706 2355.61,746.706 2355.61,765.359 2356.98,765.359 2356.98,754.365 2358.35,754.365 2358.35,766.79 2359.73,766.79 2359.73,768.012 2361.1,768.012 2361.1,767.811 2362.48,767.811 2362.48,784.421 2363.85,784.421 2363.85,792.362 2365.23,792.362 2365.23,815.188 2366.6,815.188 2366.6,817.84 2367.98,817.84 2367.98,827.442 2369.35,827.442 2369.35,843.294 2370.72,843.294 2370.72,853.02 2372.1,853.02 2372.1,844.907 2373.47,844.907 2373.47,828.839 2374.85,828.839 2374.85,823.825 2376.22,823.825 2376.22,812.2 2377.6,812.2 2377.6,815.931 2378.97,815.931 2378.97,810.473 2380.35,810.473 2380.35,794.959 2381.72,794.959 2381.72,781.323 2383.09,781.323 2383.09,803.342 2384.47,803.342 2384.47,799.843 2385.84,799.843 2385.84,792.626 2387.22,792.626 2387.22,793.889 2388.59,793.889 2388.59,809.892 2389.97,809.892 2389.97,816.063 2391.34,816.063 2391.34,793.772 2392.72,793.772 2392.72,789.082 2394.09,789.082 2394.09,792.914 2395.46,792.914 2395.46,793.117 2396.84,793.117 2396.84,812.113 2398.21,812.113 2398.21,813.668 2399.59,813.668 2399.59,810.575 2400.96,810.575 2400.96,805.231 2402.34,805.231 2402.34,795.624 2403.71,795.624 2403.71,798.693 2405.09,798.693 2405.09,792.856 2406.46,792.856 2406.46,783.767 2407.83,783.767 2407.83,762.915 2409.21,762.915 2409.21,769.291 2410.58,769.291 2410.58,777.165 2411.96,777.165 2411.96,776.678 2413.33,776.678 2413.33,787.234 2414.71,787.234 2414.71,774.038 2416.08,774.038 2416.08,786.343 2417.46,786.343 2417.46,794.089 2418.83,794.089 2418.83,813.653 2420.21,813.653 2420.21,812.482 2421.58,812.482 2421.58,809.223 2422.95,809.223 2422.95,799.871 2424.33,799.871 2424.33,779.502 2425.7,779.502 2425.7,770.161 2427.08,770.161 2427.08,776.035 2428.45,776.035 2428.45,769.031 2429.83,769.031 2429.83,759.136 2431.2,759.136 2431.2,742.773 2432.58,742.773 2432.58,741.06 2433.95,741.06 2433.95,731.438 2435.32,731.438 2435.32,721.854 2436.7,721.854 2436.7,732.09 2438.07,732.09 2438.07,721.437 2439.45,721.437 2439.45,721.766 2440.82,721.766 2440.82,734.932 2442.2,734.932 2442.2,733.305 2443.57,733.305 2443.57,728.164 2444.95,728.164 2444.95,721.899 2446.32,721.899 2446.32,742.494 2447.69,742.494 2447.69,724.807 2449.07,724.807 2449.07,710.968 2450.44,710.968 2450.44,720.809 2451.82,720.809 2451.82,721.096 2453.19,721.096 2453.19,720.224 2454.57,720.224 2454.57,713.026 2455.94,713.026 2455.94,715.332 2457.32,715.332 2457.32,702.632 2458.69,702.632 2458.69,697.807 2460.06,697.807 2460.06,693.92 2461.44,693.92 2461.44,718.987 2462.81,718.987 2462.81,710.232 2464.19,710.232 2464.19,700.375 2465.56,700.375 2465.56,697.685 2466.94,697.685 2466.94,704.647 2468.31,704.647 2468.31,696.648 2469.69,696.648 2469.69,708.064 2471.06,708.064 2471.06,703.369 2472.43,703.369 2472.43,725.143 2473.81,725.143 2473.81,712.264 2475.18,712.264 2475.18,698.234 2476.56,698.234 2476.56,689.424 2477.93,689.424 2477.93,697.687 2479.31,697.687 2479.31,692.368 2480.68,692.368 2480.68,700.434 2482.06,700.434 2482.06,714.587 2483.43,714.587 2483.43,707.8 2484.81,707.8 2484.81,706.372 2486.18,706.372 2486.18,704.45 2487.55,704.45 2487.55,703.469 2488.93,703.469 2488.93,701.687 2490.3,701.687 2490.3,700.859 2491.68,700.859 2491.68,704.208 2493.05,704.208 2493.05,709.672 2494.43,709.672 2494.43,699.424 2495.8,699.424 2495.8,690.158 2497.18,690.158 2497.18,672.273 2498.55,672.273 2498.55,668.824 2499.92,668.824 2499.92,658.825 2501.3,658.825 2501.3,643.432 2502.67,643.432 2502.67,656.632 2504.05,656.632 2504.05,667.077 2505.42,667.077 2505.42,657.343 2506.8,657.343 2506.8,669.501 2508.17,669.501 2508.17,660.255 2509.55,660.255 2509.55,660.427 2510.92,660.427 2510.92,664.258 2512.29,664.258 2512.29,654.841 2513.67,654.841 2513.67,661.9 2515.04,661.9 2515.04,654.874 2516.42,654.874 2516.42,667.448 2517.79,667.448 2517.79,688.903 2519.17,688.903 2519.17,687.269 2520.54,687.269 2520.54,694.775 2521.92,694.775 2521.92,699.665 2523.29,699.665 2523.29,685.429 2524.66,685.429 2524.66,672.185 2526.04,672.185 2526.04,678.107 2527.41,678.107 2527.41,670.61 2528.79,670.61 2528.79,656.369 2530.16,656.369 2530.16,653.679 2531.54,653.679 2531.54,653.04 2532.91,653.04 2532.91,652.258 2534.29,652.258 2534.29,648.12 2535.66,648.12 2535.66,648.44 2537.04,648.44 2537.04,647.872 2538.41,647.872 2538.41,640.647 2539.78,640.647 2539.78,650.574 2541.16,650.574 2541.16,657.905 2542.53,657.905 2542.53,649.934 2543.91,649.934 2543.91,623.559 2545.28,623.559 2545.28,610.763 2546.66,610.763 2546.66,613.222 2548.03,613.222 2548.03,611.552 2549.41,611.552 2549.41,622.492 2550.78,622.492 2550.78,600.637 2552.15,600.637 2552.15,610.435 2553.53,610.435 2553.53,616.438 2554.9,616.438 2554.9,632.628 2556.28,632.628 2556.28,627.154 2557.65,627.154 2557.65,620.93 2559.03,620.93 2559.03,600.939 2560.4,600.939 2560.4,583.592 2561.78,583.592 2561.78,592.809 2563.15,592.809 2563.15,596.684 2564.52,596.684 2564.52,596.737 2565.9,596.737 2565.9,580.401 2567.27,580.401 2567.27,578.357 2568.65,578.357 2568.65,578.257 2570.02,578.257 2570.02,567.292 2571.4,567.292 2571.4,550.766 2572.77,550.766 2572.77,544.283 2574.15,544.283 2574.15,530.573 2575.52,530.573 2575.52,517.983 2576.89,517.983 2576.89,551.434 2578.27,551.434 2578.27,539.707 2579.64,539.707 2579.64,536.525 2581.02,536.525 2581.02,547.357 2582.39,547.357 2582.39,557.929 2583.77,557.929 2583.77,563.322 2585.14,563.322 2585.14,562.159 2586.52,562.159 2586.52,539.91 2587.89,539.91 2587.89,524.634 2589.26,524.634 2589.26,518.415 2590.64,518.415 2590.64,518.507 2592.01,518.507 2592.01,529.122 2593.39,529.122 2593.39,526.178 2594.76,526.178 2594.76,514.133 2596.14,514.133 2596.14,508.654 2597.51,508.654 2597.51,508.206 2598.89,508.206 2598.89,515.788 2600.26,515.788 2600.26,525.57 2601.64,525.57 2601.64,504.324 2603.01,504.324 2603.01,480.512 2604.38,480.512 2604.38,486.147 2605.76,486.147 2605.76,491.001 2607.13,491.001 2607.13,479.653 2608.51,479.653 2608.51,476.495 2609.88,476.495 2609.88,472.409 2611.26,472.409 2611.26,456.881 2612.63,456.881 2612.63,436.548 2614.01,436.548 2614.01,437.379 2615.38,437.379 2615.38,420.378 2616.75,420.378 2616.75,433.632 2618.13,433.632 2618.13,436.689 2619.5,436.689 2619.5,444.842 2620.88,444.842 2620.88,449.815 2622.25,449.815 2622.25,452.327 2623.63,452.327 2623.63,438.681 2625,438.681 2625,433.48 2626.38,433.48 2626.38,439.863 2627.75,439.863 2627.75,435.306 2629.12,435.306 2629.12,433.479 2630.5,433.479 2630.5,430.026 2631.87,430.026 2631.87,432.595 2633.25,432.595 2633.25,418.805 2634.62,418.805 2634.62,430.581 2636,430.581 2636,429.557 2637.37,429.557 2637.37,423 2638.75,423 2638.75,407.261 2640.12,407.261 2640.12,415.229 2641.49,415.229 2641.49,405.349 2642.87,405.349 2642.87,396.229 2644.24,396.229 2644.24,396.808 2645.62,396.808 2645.62,409.845 2646.99,409.845 2646.99,423.821 2648.37,423.821 2648.37,420.374 2649.74,420.374 2649.74,420.022 2651.12,420.022 2651.12,398.764 2652.49,398.764 2652.49,397.862 2653.86,397.862 2653.86,388.089 2655.24,388.089 2655.24,385.057 2656.61,385.057 2656.61,378.391 2657.99,378.391 2657.99,381.597 2659.36,381.597 2659.36,383.265 2660.74,383.265 2660.74,378.914 2662.11,378.914 2662.11,391.204 2663.49,391.204 2663.49,392.182 2664.86,392.182 2664.86,401.727 2666.24,401.727 2666.24,400.183 2667.61,400.183 2667.61,396.48 2668.98,396.48 2668.98,408.927 2670.36,408.927 2670.36,400.302 2671.73,400.302 2671.73,394.377 2673.11,394.377 2673.11,402.779 2674.48,402.779 2674.48,406.373 2675.86,406.373 2675.86,399.234 2677.23,399.234 2677.23,389.88 2678.61,389.88 2678.61,376.194 2679.98,376.194 2679.98,371.869 2681.35,371.869 2681.35,383.769 2682.73,383.769 2682.73,397.535 2684.1,397.535 2684.1,396.387 2685.48,396.387 2685.48,386.26 2686.85,386.26 2686.85,384.438 2688.23,384.438 2688.23,377.62 2689.6,377.62 2689.6,386.623 2690.98,386.623 2690.98,382.024 2692.35,382.024 2692.35,378.186 2693.72,378.186 2693.72,386.726 2695.1,386.726 2695.1,396.21 2696.47,396.21 2696.47,394.345 2697.85,394.345 2697.85,398.821 2699.22,398.821 2699.22,406.054 2700.6,406.054 2700.6,394.526 2701.97,394.526 2701.97,400.328 2703.35,400.328 2703.35,380.836 2704.72,380.836 2704.72,366.973 2706.09,366.973 2706.09,379.922 2707.47,379.922 2707.47,389.444 2708.84,389.444 2708.84,392.188 2710.22,392.188 2710.22,396.169 2711.59,396.169 2711.59,394.775 2712.97,394.775 2712.97,388.186 2714.34,388.186 2714.34,398.218 2715.72,398.218 2715.72,387.279 2717.09,387.279 2717.09,388.98 2718.46,388.98 2718.46,383.865 2719.84,383.865 2719.84,400.058 2721.21,400.058 2721.21,393.403 2722.59,393.403 2722.59,407.034 2723.96,407.034 2723.96,412.782 2725.34,412.782 2725.34,402.569 2726.71,402.569 2726.71,399.118 2728.09,399.118 2728.09,398.363 2729.46,398.363 2729.46,401.935 2730.84,401.935 2730.84,387.848 2732.21,387.848 2732.21,399.299 2733.58,399.299 2733.58,403.292 2734.96,403.292 2734.96,405.72 2736.33,405.72 2736.33,391.494 2737.71,391.494 2737.71,382.4 2739.08,382.4 2739.08,394.42 2740.46,394.42 2740.46,381.034 2741.83,381.034 2741.83,367.169 2743.21,367.169 2743.21,366.327 2744.58,366.327 2744.58,389.112 2745.95,389.112 2745.95,381.148 2747.33,381.148 2747.33,369.824 2748.7,369.824 2748.7,382.179 2750.08,382.179 2750.08,371.688 2751.45,371.688 2751.45,371.419 2752.83,371.419 2752.83,351.684 2754.2,351.684 2754.2,358.246 2755.58,358.246 2755.58,359.895 2756.95,359.895 2756.95,368.073 2758.32,368.073 2758.32,361.951 2759.7,361.951 2759.7,349.994 2761.07,349.994 2761.07,324.239 2762.45,324.239 2762.45,323.351 2763.82,323.351 2763.82,327.05 2765.2,327.05 2765.2,321.067 2766.57,321.067 2766.57,328.079 2767.95,328.079 2767.95,316.078 2769.32,316.078 2769.32,328.378 2770.69,328.378 2770.69,313.003 2772.07,313.003 2772.07,308.407 2773.44,308.407 2773.44,318.789 2774.82,318.789 2774.82,317.557 2776.19,317.557 2776.19,323.31 2777.57,323.31 2777.57,332.445 2778.94,332.445 2778.94,322.735 2780.32,322.735 2780.32,307.034 2781.69,307.034 2781.69,321.532 2783.06,321.532 2783.06,297.147 2784.44,297.147 2784.44,289.491 2785.81,289.491 2785.81,312.781 2787.19,312.781 2787.19,314.744 2788.56,314.744 2788.56,343.455 2789.94,343.455 2789.94,319.366 2791.31,319.366 2791.31,326.691 2792.69,326.691 2792.69,325.087 2794.06,325.087 2794.06,347.602 2795.44,347.602 2795.44,337.658 2796.81,337.658 2796.81,317.231 2798.18,317.231 2798.18,328.654 2799.56,328.654 2799.56,332.671 2800.93,332.671 2800.93,328.691 2802.31,328.691 2802.31,294.348 2803.68,294.348 2803.68,278.093 2805.06,278.093 2805.06,262.108 2806.43,262.108 2806.43,272.309 2807.81,272.309 2807.81,310.582 2809.18,310.582 2809.18,319.561 2810.55,319.561 2810.55,336.411 2811.93,336.411 2811.93,367.221 2813.3,367.221 2813.3,355.199 2814.68,355.199 2814.68,331.422 2816.05,331.422 2816.05,330.089 2817.43,330.089 2817.43,345.887 2818.8,345.887 2818.8,358.646 2820.18,358.646 2820.18,392.174 2821.55,392.174 2821.55,392.537 2822.92,392.537 2822.92,399.404 2824.3,399.404 2824.3,388.575 2825.67,388.575 2825.67,388.203 2827.05,388.203 2827.05,404.905 2828.42,404.905 2828.42,410.616 2829.8,410.616 2829.8,423.874 2831.17,423.874 2831.17,375.302 2832.55,375.302 2832.55,352.7 2833.92,352.7 2833.92,375.256 2835.29,375.256 2835.29,369.776 2836.67,369.776 2836.67,368.826 2838.04,368.826 2838.04,387.835 2839.42,387.835 2839.42,366.592 2840.79,366.592 2840.79,374.826 2842.17,374.826 2842.17,366.431 2843.54,366.431 2843.54,347.909 2844.92,347.909 2844.92,356.678 2846.29,356.678 2846.29,352.916 2847.67,352.916 2847.67,338.252 2849.04,338.252 2849.04,335.353 2850.41,335.353 2850.41,340.086 2851.79,340.086 2851.79,321.801 2853.16,321.801 2853.16,318.887 2854.54,318.887 2854.54,315.604 2855.91,315.604 2855.91,299.418 2857.29,299.418 2857.29,276.835 2858.66,276.835 2858.66,283.967 2860.04,283.967 2860.04,280.682 2861.41,280.682 2861.41,255.942 2862.78,255.942 2862.78,256.845 2864.16,256.845 2864.16,262.495 2865.53,262.495 2865.53,285.733 2866.91,285.733 2866.91,269.755 2868.28,269.755 2868.28,292.583 2869.66,292.583 2869.66,296.857 2871.03,296.857 2871.03,282.049 2872.41,282.049 2872.41,285.807 2873.78,285.807 2873.78,266.815 2875.15,266.815 2875.15,250.461 2876.53,250.461 2876.53,257.763 2877.9,257.763 2877.9,262.581 2879.28,262.581 2879.28,260.083 2880.65,260.083 2880.65,261.006 2882.03,261.006 2882.03,244.788 2883.4,244.788 2883.4,213.827 2884.78,213.827 2884.78,217.497 2886.15,217.497 2886.15,230.153 2887.52,230.153 2887.52,229.387 2888.9,229.387 2888.9,229.356 2890.27,229.356 2890.27,230.604 2891.65,230.604 2891.65,201.651 2893.02,201.651 2893.02,228.585 2894.4,228.585 2894.4,238.575 2895.77,238.575 2895.77,224.843 2897.15,224.843 2897.15,223.989 2898.52,223.989 2898.52,197.254 2899.89,197.254 2899.89,199.899 2901.27,199.899 2901.27,202.362 2902.64,202.362 2902.64,218.856 2904.02,218.856 2904.02,230.456 2905.39,230.456 2905.39,233.56 2906.77,233.56 2906.77,243.174 2908.14,243.174 2908.14,249.961 2909.52,249.961 2909.52,250.315 2910.89,250.315 2910.89,240.11 2912.27,240.11 2912.27,264.233 2913.64,264.233 2913.64,258.227 2915.01,258.227 2915.01,250.051 2916.39,250.051 2916.39,230.373 2917.76,230.373 2917.76,233.279 2919.14,233.279 2919.14,242.344 2920.51,242.344 2920.51,255.778 2921.89,255.778 2921.89,246.831 2923.26,246.831 2923.26,261.474 2924.64,261.474 2924.64,239.673 2926.01,239.673 2926.01,237.85 2927.38,237.85 2927.38,225.208 2928.76,225.208 2928.76,214.33 2930.13,214.33 2930.13,202.766 2931.51,202.766 2931.51,214.675 2932.88,214.675 2932.88,185.155 2934.26,185.155 2934.26,187.607 2935.63,187.607 2935.63,185.833 2937.01,185.833 2937.01,174.006 2938.38,174.006 2938.38,181.65 2939.75,181.65 2939.75,206.668 2941.13,206.668 2941.13,199.892 2942.5,199.892 2942.5,202.461 2943.88,202.461 2943.88,193.53 2945.25,193.53 2945.25,209.113 2946.63,209.113 2946.63,207.268 2948,207.268 2948,205.647 2949.38,205.647 2949.38,245.517 2950.75,245.517 2950.75,261.817 2952.12,261.817 2952.12,253.325 2953.5,253.325 2953.5,247.745 2954.87,247.745 2954.87,265.196 2956.25,265.196 2956.25,293.728 2957.62,293.728 2957.62,283.283 2959,283.283 2959,272.867 2960.37,272.867 2960.37,283.61 2961.75,283.61 2961.75,280.593 2963.12,280.593 2963.12,242.476 2964.49,242.476 2964.49,223.669 2965.87,223.669 2965.87,246.788 2967.24,246.788 2967.24,233.705 2968.62,233.705 2968.62,251.746 2969.99,251.746 2969.99,235.532 2971.37,235.532 2971.37,242.394 2972.74,242.394 2972.74,251.803 2974.12,251.803 2974.12,222.108 2975.49,222.108 2975.49,222.305 2976.87,222.305 2976.87,222.472 2978.24,222.472 2978.24,202.658 2979.61,202.658 2979.61,192.056 2980.99,192.056 2980.99,178.597 2982.36,178.597 2982.36,171.006 2983.74,171.006 2983.74,147.444 2985.11,147.444 2985.11,143.119 2986.49,143.119 2986.49,161.04 2987.86,161.04 2987.86,198.033 2989.24,198.033 2989.24,211.135 2990.61,211.135 2990.61,204.518 2991.98,204.518 2991.98,207.128 2993.36,207.128 2993.36,214.597 2994.73,214.597 2994.73,240.178 2996.11,240.178 2996.11,241.769 2997.48,241.769 2997.48,249.686 2998.86,249.686 2998.86,228.297 3000.23,228.297 3000.23,239.077 3001.61,239.077 3001.61,268.029 3002.98,268.029 3002.98,275.633 3004.35,275.633 3004.35,255.267 3005.73,255.267 3005.73,242.747 3007.1,242.747 3007.1,259.485 3008.48,259.485 3008.48,277.3 3009.85,277.3 3009.85,292.544 3011.23,292.544 3011.23,306.523 3012.6,306.523 3012.6,312.477 3013.98,312.477 3013.98,311.882 3015.35,311.882 3015.35,309.977 3016.72,309.977 3016.72,316.842 3018.1,316.842 3018.1,328.96 3019.47,328.96 3019.47,320.453 3020.85,320.453 3020.85,320.841 3022.22,320.841 3022.22,321.447 3023.6,321.447 3023.6,308.433 3024.97,308.433 3024.97,303.126 3026.35,303.126 3026.35,276.904 3027.72,276.904 3027.72,290.475 3029.09,290.475 3029.09,269.284 3030.47,269.284 3030.47,259.515 3031.84,259.515 3031.84,254.235 3033.22,254.235 3033.22,256.657 3034.59,256.657 3034.59,241.892 3035.97,241.892 3035.97,237.578 3037.34,237.578 3037.34,186.682 3038.72,186.682 3038.72,149.067 3040.09,149.067 3040.09,152.203 3041.47,152.203 3041.47,161.138 3042.84,161.138 3042.84,138.412 3044.21,138.412 3044.21,173.159 3045.59,173.159 3045.59,179.005 3046.96,179.005 3046.96,157.278 3048.34,157.278 3048.34,166.41 3049.71,166.41 3049.71,141.353 3051.09,141.353 3051.09,166.856 3052.46,166.856 3052.46,181.281 3053.84,181.281 3053.84,186.445 3055.21,186.445 3055.21,179.175 3056.58,179.175 3056.58,189.546 3057.96,189.546 3057.96,204.197 3059.33,204.197 3059.33,214.17 3060.71,214.17 3060.71,228.928 3062.08,228.928 3062.08,205.026 3063.46,205.026 3063.46,189.52 3064.83,189.52 3064.83,172.513 3066.21,172.513 3066.21,153.728 3067.58,153.728 3067.58,152.568 3068.95,152.568 3068.95,141.408 3070.33,141.408 3070.33,135.006 "/>
</svg>
