<?xml version="1.0" encoding="utf-8"?>
<svg xmlns="http://www.w3.org/2000/svg" xmlns:xlink="http://www.w3.org/1999/xlink" width="800" height="400" viewBox="0 0 3200 1600">
<defs>
  <clipPath id="clip590">
    <rect x="0" y="0" width="3200" height="1600"/>
  </clipPath>
</defs>
<path clip-path="url(#clip590)" d="M0 1600 L3200 1600 L3200 0 L0 0  Z" fill="#282c34" fill-rule="evenodd" fill-opacity="1"/>
<defs>
  <clipPath id="clip591">
    <rect x="240" y="108" width="2913" height="1388"/>
  </clipPath>
</defs>
<path clip-path="url(#clip590)" d="M240.339 1495.09 L3152.76 1495.09 L3152.76 108.352 L240.339 108.352  Z" fill="#21252b" fill-rule="evenodd" fill-opacity="1"/>
<polyline clip-path="url(#clip591)" style="stroke:#adb2b7; stroke-linecap:round; stroke-linejoin:round; stroke-width:2; stroke-opacity:0.1; fill:none" points="322.765,1495.09 322.765,108.352 "/>
<polyline clip-path="url(#clip591)" style="stroke:#adb2b7; stroke-linecap:round; stroke-linejoin:round; stroke-width:2; stroke-opacity:0.1; fill:none" points="1345.37,1495.09 1345.37,108.352 "/>
<polyline clip-path="url(#clip591)" style="stroke:#adb2b7; stroke-linecap:round; stroke-linejoin:round; stroke-width:2; stroke-opacity:0.1; fill:none" points="2302,1495.09 2302,108.352 "/>
<polyline clip-path="url(#clip591)" style="stroke:#adb2b7; stroke-linecap:round; stroke-linejoin:round; stroke-width:2; stroke-opacity:0.1; fill:none" points="240.339,1318.84 3152.76,1318.84 "/>
<polyline clip-path="url(#clip591)" style="stroke:#adb2b7; stroke-linecap:round; stroke-linejoin:round; stroke-width:2; stroke-opacity:0.1; fill:none" points="240.339,933.117 3152.76,933.117 "/>
<polyline clip-path="url(#clip591)" style="stroke:#adb2b7; stroke-linecap:round; stroke-linejoin:round; stroke-width:2; stroke-opacity:0.1; fill:none" points="240.339,547.394 3152.76,547.394 "/>
<polyline clip-path="url(#clip591)" style="stroke:#adb2b7; stroke-linecap:round; stroke-linejoin:round; stroke-width:2; stroke-opacity:0.1; fill:none" points="240.339,161.67 3152.76,161.67 "/>
<polyline clip-path="url(#clip590)" style="stroke:#adb2b7; stroke-linecap:round; stroke-linejoin:round; stroke-width:4; stroke-opacity:1; fill:none" points="240.339,1495.09 3152.76,1495.09 "/>
<polyline clip-path="url(#clip590)" style="stroke:#adb2b7; stroke-linecap:round; stroke-linejoin:round; stroke-width:4; stroke-opacity:1; fill:none" points="322.765,1495.09 322.765,1476.19 "/>
<polyline clip-path="url(#clip590)" style="stroke:#adb2b7; stroke-linecap:round; stroke-linejoin:round; stroke-width:4; stroke-opacity:1; fill:none" points="1345.37,1495.09 1345.37,1476.19 "/>
<polyline clip-path="url(#clip590)" style="stroke:#adb2b7; stroke-linecap:round; stroke-linejoin:round; stroke-width:4; stroke-opacity:1; fill:none" points="2302,1495.09 2302,1476.19 "/>
<path clip-path="url(#clip590)" d="M194.56 1559.95 L210.88 1559.95 L210.88 1563.89 L188.935 1563.89 L188.935 1559.95 Q191.597 1557.2 196.181 1552.57 Q200.787 1547.92 201.968 1546.57 Q204.213 1544.05 205.092 1542.31 Q205.995 1540.55 205.995 1538.86 Q205.995 1536.11 204.051 1534.37 Q202.13 1532.64 199.028 1532.64 Q196.829 1532.64 194.375 1533.4 Q191.944 1534.17 189.167 1535.72 L189.167 1530.99 Q191.991 1529.86 194.444 1529.28 Q196.898 1528.7 198.935 1528.7 Q204.305 1528.7 207.5 1531.39 Q210.694 1534.07 210.694 1538.56 Q210.694 1540.69 209.884 1542.61 Q209.097 1544.51 206.991 1547.11 Q206.412 1547.78 203.31 1550.99 Q200.208 1554.19 194.56 1559.95 Z" fill="#9eb1be" fill-rule="nonzero" fill-opacity="1" /><path clip-path="url(#clip590)" d="M230.694 1532.41 Q227.083 1532.41 225.254 1535.97 Q223.449 1539.51 223.449 1546.64 Q223.449 1553.75 225.254 1557.31 Q227.083 1560.86 230.694 1560.86 Q234.328 1560.86 236.134 1557.31 Q237.963 1553.75 237.963 1546.64 Q237.963 1539.51 236.134 1535.97 Q234.328 1532.41 230.694 1532.41 M230.694 1528.7 Q236.504 1528.7 239.56 1533.31 Q242.639 1537.89 242.639 1546.64 Q242.639 1555.37 239.56 1559.98 Q236.504 1564.56 230.694 1564.56 Q224.884 1564.56 221.805 1559.98 Q218.75 1555.37 218.75 1546.64 Q218.75 1537.89 221.805 1533.31 Q224.884 1528.7 230.694 1528.7 Z" fill="#9eb1be" fill-rule="nonzero" fill-opacity="1" /><path clip-path="url(#clip590)" d="M254.884 1559.95 L271.203 1559.95 L271.203 1563.89 L249.259 1563.89 L249.259 1559.95 Q251.921 1557.2 256.504 1552.57 Q261.111 1547.92 262.291 1546.57 Q264.537 1544.05 265.416 1542.31 Q266.319 1540.55 266.319 1538.86 Q266.319 1536.11 264.375 1534.37 Q262.453 1532.64 259.351 1532.64 Q257.152 1532.64 254.699 1533.4 Q252.268 1534.17 249.49 1535.72 L249.49 1530.99 Q252.314 1529.86 254.768 1529.28 Q257.222 1528.7 259.259 1528.7 Q264.629 1528.7 267.824 1531.39 Q271.018 1534.07 271.018 1538.56 Q271.018 1540.69 270.208 1542.61 Q269.421 1544.51 267.314 1547.11 Q266.736 1547.78 263.634 1550.99 Q260.532 1554.19 254.884 1559.95 Z" fill="#9eb1be" fill-rule="nonzero" fill-opacity="1" /><path clip-path="url(#clip590)" d="M291.018 1532.41 Q287.407 1532.41 285.578 1535.97 Q283.773 1539.51 283.773 1546.64 Q283.773 1553.75 285.578 1557.31 Q287.407 1560.86 291.018 1560.86 Q294.652 1560.86 296.458 1557.31 Q298.286 1553.75 298.286 1546.64 Q298.286 1539.51 296.458 1535.97 Q294.652 1532.41 291.018 1532.41 M291.018 1528.7 Q296.828 1528.7 299.884 1533.31 Q302.962 1537.89 302.962 1546.64 Q302.962 1555.37 299.884 1559.98 Q296.828 1564.56 291.018 1564.56 Q285.208 1564.56 282.129 1559.98 Q279.074 1555.37 279.074 1546.64 Q279.074 1537.89 282.129 1533.31 Q285.208 1528.7 291.018 1528.7 Z" fill="#9eb1be" fill-rule="nonzero" fill-opacity="1" /><path clip-path="url(#clip590)" d="M308.425 1549 L320.902 1549 L320.902 1552.8 L308.425 1552.8 L308.425 1549 Z" fill="#9eb1be" fill-rule="nonzero" fill-opacity="1" /><path clip-path="url(#clip590)" d="M338.286 1532.41 Q334.675 1532.41 332.846 1535.97 Q331.041 1539.51 331.041 1546.64 Q331.041 1553.75 332.846 1557.31 Q334.675 1560.86 338.286 1560.86 Q341.92 1560.86 343.726 1557.31 Q345.555 1553.75 345.555 1546.64 Q345.555 1539.51 343.726 1535.97 Q341.92 1532.41 338.286 1532.41 M338.286 1528.7 Q344.096 1528.7 347.152 1533.31 Q350.231 1537.89 350.231 1546.64 Q350.231 1555.37 347.152 1559.98 Q344.096 1564.56 338.286 1564.56 Q332.476 1564.56 329.397 1559.98 Q326.342 1555.37 326.342 1546.64 Q326.342 1537.89 329.397 1533.31 Q332.476 1528.7 338.286 1528.7 Z" fill="#9eb1be" fill-rule="nonzero" fill-opacity="1" /><path clip-path="url(#clip590)" d="M359.258 1559.95 L366.897 1559.95 L366.897 1533.59 L358.587 1535.25 L358.587 1530.99 L366.851 1529.33 L371.527 1529.33 L371.527 1559.95 L379.166 1559.95 L379.166 1563.89 L359.258 1563.89 L359.258 1559.95 Z" fill="#9eb1be" fill-rule="nonzero" fill-opacity="1" /><path clip-path="url(#clip590)" d="M385.855 1549 L398.332 1549 L398.332 1552.8 L385.855 1552.8 L385.855 1549 Z" fill="#9eb1be" fill-rule="nonzero" fill-opacity="1" /><path clip-path="url(#clip590)" d="M415.716 1532.41 Q412.105 1532.41 410.277 1535.97 Q408.471 1539.51 408.471 1546.64 Q408.471 1553.75 410.277 1557.31 Q412.105 1560.86 415.716 1560.86 Q419.351 1560.86 421.156 1557.31 Q422.985 1553.75 422.985 1546.64 Q422.985 1539.51 421.156 1535.97 Q419.351 1532.41 415.716 1532.41 M415.716 1528.7 Q421.527 1528.7 424.582 1533.31 Q427.661 1537.89 427.661 1546.64 Q427.661 1555.37 424.582 1559.98 Q421.527 1564.56 415.716 1564.56 Q409.906 1564.56 406.828 1559.98 Q403.772 1555.37 403.772 1546.64 Q403.772 1537.89 406.828 1533.31 Q409.906 1528.7 415.716 1528.7 Z" fill="#9eb1be" fill-rule="nonzero" fill-opacity="1" /><path clip-path="url(#clip590)" d="M436.688 1559.95 L444.327 1559.95 L444.327 1533.59 L436.017 1535.25 L436.017 1530.99 L444.281 1529.33 L448.957 1529.33 L448.957 1559.95 L456.596 1559.95 L456.596 1563.89 L436.688 1563.89 L436.688 1559.95 Z" fill="#9eb1be" fill-rule="nonzero" fill-opacity="1" /><path clip-path="url(#clip590)" d="M1217.17 1559.95 L1233.48 1559.95 L1233.48 1563.89 L1211.54 1563.89 L1211.54 1559.95 Q1214.2 1557.2 1218.79 1552.57 Q1223.39 1547.92 1224.57 1546.57 Q1226.82 1544.05 1227.7 1542.31 Q1228.6 1540.55 1228.6 1538.86 Q1228.6 1536.11 1226.66 1534.37 Q1224.73 1532.64 1221.63 1532.64 Q1219.43 1532.64 1216.98 1533.4 Q1214.55 1534.17 1211.77 1535.72 L1211.77 1530.99 Q1214.6 1529.86 1217.05 1529.28 Q1219.5 1528.7 1221.54 1528.7 Q1226.91 1528.7 1230.1 1531.39 Q1233.3 1534.07 1233.3 1538.56 Q1233.3 1540.69 1232.49 1542.61 Q1231.7 1544.51 1229.6 1547.11 Q1229.02 1547.78 1225.92 1550.99 Q1222.81 1554.19 1217.17 1559.95 Z" fill="#9eb1be" fill-rule="nonzero" fill-opacity="1" /><path clip-path="url(#clip590)" d="M1253.3 1532.41 Q1249.69 1532.41 1247.86 1535.97 Q1246.05 1539.51 1246.05 1546.64 Q1246.05 1553.75 1247.86 1557.31 Q1249.69 1560.86 1253.3 1560.86 Q1256.93 1560.86 1258.74 1557.31 Q1260.57 1553.75 1260.57 1546.64 Q1260.57 1539.51 1258.74 1535.97 Q1256.93 1532.41 1253.3 1532.41 M1253.3 1528.7 Q1259.11 1528.7 1262.16 1533.31 Q1265.24 1537.89 1265.24 1546.64 Q1265.24 1555.37 1262.16 1559.98 Q1259.11 1564.56 1253.3 1564.56 Q1247.49 1564.56 1244.41 1559.98 Q1241.35 1555.37 1241.35 1546.64 Q1241.35 1537.89 1244.41 1533.31 Q1247.49 1528.7 1253.3 1528.7 Z" fill="#9eb1be" fill-rule="nonzero" fill-opacity="1" /><path clip-path="url(#clip590)" d="M1277.49 1559.95 L1293.81 1559.95 L1293.81 1563.89 L1271.86 1563.89 L1271.86 1559.95 Q1274.53 1557.2 1279.11 1552.57 Q1283.72 1547.92 1284.9 1546.57 Q1287.14 1544.05 1288.02 1542.31 Q1288.92 1540.55 1288.92 1538.86 Q1288.92 1536.11 1286.98 1534.37 Q1285.06 1532.64 1281.96 1532.64 Q1279.76 1532.64 1277.3 1533.4 Q1274.87 1534.17 1272.1 1535.72 L1272.1 1530.99 Q1274.92 1529.86 1277.37 1529.28 Q1279.83 1528.7 1281.86 1528.7 Q1287.23 1528.7 1290.43 1531.39 Q1293.62 1534.07 1293.62 1538.56 Q1293.62 1540.69 1292.81 1542.61 Q1292.03 1544.51 1289.92 1547.11 Q1289.34 1547.78 1286.24 1550.99 Q1283.14 1554.19 1277.49 1559.95 Z" fill="#9eb1be" fill-rule="nonzero" fill-opacity="1" /><path clip-path="url(#clip590)" d="M1313.62 1532.41 Q1310.01 1532.41 1308.18 1535.97 Q1306.38 1539.51 1306.38 1546.64 Q1306.38 1553.75 1308.18 1557.31 Q1310.01 1560.86 1313.62 1560.86 Q1317.26 1560.86 1319.06 1557.31 Q1320.89 1553.75 1320.89 1546.64 Q1320.89 1539.51 1319.06 1535.97 Q1317.26 1532.41 1313.62 1532.41 M1313.62 1528.7 Q1319.43 1528.7 1322.49 1533.31 Q1325.57 1537.89 1325.57 1546.64 Q1325.57 1555.37 1322.49 1559.98 Q1319.43 1564.56 1313.62 1564.56 Q1307.81 1564.56 1304.73 1559.98 Q1301.68 1555.37 1301.68 1546.64 Q1301.68 1537.89 1304.73 1533.31 Q1307.81 1528.7 1313.62 1528.7 Z" fill="#9eb1be" fill-rule="nonzero" fill-opacity="1" /><path clip-path="url(#clip590)" d="M1331.03 1549 L1343.51 1549 L1343.51 1552.8 L1331.03 1552.8 L1331.03 1549 Z" fill="#9eb1be" fill-rule="nonzero" fill-opacity="1" /><path clip-path="url(#clip590)" d="M1360.89 1532.41 Q1357.28 1532.41 1355.45 1535.97 Q1353.65 1539.51 1353.65 1546.64 Q1353.65 1553.75 1355.45 1557.31 Q1357.28 1560.86 1360.89 1560.86 Q1364.53 1560.86 1366.33 1557.31 Q1368.16 1553.75 1368.16 1546.64 Q1368.16 1539.51 1366.33 1535.97 Q1364.53 1532.41 1360.89 1532.41 M1360.89 1528.7 Q1366.7 1528.7 1369.76 1533.31 Q1372.84 1537.89 1372.84 1546.64 Q1372.84 1555.37 1369.76 1559.98 Q1366.7 1564.56 1360.89 1564.56 Q1355.08 1564.56 1352 1559.98 Q1348.95 1555.37 1348.95 1546.64 Q1348.95 1537.89 1352 1533.31 Q1355.08 1528.7 1360.89 1528.7 Z" fill="#9eb1be" fill-rule="nonzero" fill-opacity="1" /><path clip-path="url(#clip590)" d="M1385.08 1559.95 L1401.4 1559.95 L1401.4 1563.89 L1379.46 1563.89 L1379.46 1559.95 Q1382.12 1557.2 1386.7 1552.57 Q1391.31 1547.92 1392.49 1546.57 Q1394.73 1544.05 1395.61 1542.31 Q1396.52 1540.55 1396.52 1538.86 Q1396.52 1536.11 1394.57 1534.37 Q1392.65 1532.64 1389.55 1532.64 Q1387.35 1532.64 1384.9 1533.4 Q1382.47 1534.17 1379.69 1535.72 L1379.69 1530.99 Q1382.51 1529.86 1384.97 1529.28 Q1387.42 1528.7 1389.46 1528.7 Q1394.83 1528.7 1398.02 1531.39 Q1401.22 1534.07 1401.22 1538.56 Q1401.22 1540.69 1400.4 1542.61 Q1399.62 1544.51 1397.51 1547.11 Q1396.93 1547.78 1393.83 1550.99 Q1390.73 1554.19 1385.08 1559.95 Z" fill="#9eb1be" fill-rule="nonzero" fill-opacity="1" /><path clip-path="url(#clip590)" d="M1408.46 1549 L1420.94 1549 L1420.94 1552.8 L1408.46 1552.8 L1408.46 1549 Z" fill="#9eb1be" fill-rule="nonzero" fill-opacity="1" /><path clip-path="url(#clip590)" d="M1438.32 1532.41 Q1434.71 1532.41 1432.88 1535.97 Q1431.08 1539.51 1431.08 1546.64 Q1431.08 1553.75 1432.88 1557.31 Q1434.71 1560.86 1438.32 1560.86 Q1441.96 1560.86 1443.76 1557.31 Q1445.59 1553.75 1445.59 1546.64 Q1445.59 1539.51 1443.76 1535.97 Q1441.96 1532.41 1438.32 1532.41 M1438.32 1528.7 Q1444.13 1528.7 1447.19 1533.31 Q1450.27 1537.89 1450.27 1546.64 Q1450.27 1555.37 1447.19 1559.98 Q1444.13 1564.56 1438.32 1564.56 Q1432.51 1564.56 1429.43 1559.98 Q1426.38 1555.37 1426.38 1546.64 Q1426.38 1537.89 1429.43 1533.31 Q1432.51 1528.7 1438.32 1528.7 Z" fill="#9eb1be" fill-rule="nonzero" fill-opacity="1" /><path clip-path="url(#clip590)" d="M1459.29 1559.95 L1466.93 1559.95 L1466.93 1533.59 L1458.62 1535.25 L1458.62 1530.99 L1466.89 1529.33 L1471.56 1529.33 L1471.56 1559.95 L1479.2 1559.95 L1479.2 1563.89 L1459.29 1563.89 L1459.29 1559.95 Z" fill="#9eb1be" fill-rule="nonzero" fill-opacity="1" /><path clip-path="url(#clip590)" d="M2173.8 1559.95 L2190.11 1559.95 L2190.11 1563.89 L2168.17 1563.89 L2168.17 1559.95 Q2170.83 1557.2 2175.42 1552.57 Q2180.02 1547.92 2181.2 1546.57 Q2183.45 1544.05 2184.33 1542.31 Q2185.23 1540.55 2185.23 1538.86 Q2185.23 1536.11 2183.29 1534.37 Q2181.36 1532.64 2178.26 1532.64 Q2176.06 1532.64 2173.61 1533.4 Q2171.18 1534.17 2168.4 1535.72 L2168.4 1530.99 Q2171.23 1529.86 2173.68 1529.28 Q2176.13 1528.7 2178.17 1528.7 Q2183.54 1528.7 2186.74 1531.39 Q2189.93 1534.07 2189.93 1538.56 Q2189.93 1540.69 2189.12 1542.61 Q2188.33 1544.51 2186.23 1547.11 Q2185.65 1547.78 2182.55 1550.99 Q2179.44 1554.19 2173.8 1559.95 Z" fill="#9eb1be" fill-rule="nonzero" fill-opacity="1" /><path clip-path="url(#clip590)" d="M2209.93 1532.41 Q2206.32 1532.41 2204.49 1535.97 Q2202.68 1539.51 2202.68 1546.64 Q2202.68 1553.75 2204.49 1557.31 Q2206.32 1560.86 2209.93 1560.86 Q2213.56 1560.86 2215.37 1557.31 Q2217.2 1553.75 2217.2 1546.64 Q2217.2 1539.51 2215.37 1535.97 Q2213.56 1532.41 2209.93 1532.41 M2209.93 1528.7 Q2215.74 1528.7 2218.8 1533.31 Q2221.87 1537.89 2221.87 1546.64 Q2221.87 1555.37 2218.8 1559.98 Q2215.74 1564.56 2209.93 1564.56 Q2204.12 1564.56 2201.04 1559.98 Q2197.99 1555.37 2197.99 1546.64 Q2197.99 1537.89 2201.04 1533.31 Q2204.12 1528.7 2209.93 1528.7 Z" fill="#9eb1be" fill-rule="nonzero" fill-opacity="1" /><path clip-path="url(#clip590)" d="M2234.12 1559.95 L2250.44 1559.95 L2250.44 1563.89 L2228.49 1563.89 L2228.49 1559.95 Q2231.16 1557.2 2235.74 1552.57 Q2240.35 1547.92 2241.53 1546.57 Q2243.77 1544.05 2244.65 1542.31 Q2245.55 1540.55 2245.55 1538.86 Q2245.55 1536.11 2243.61 1534.37 Q2241.69 1532.64 2238.59 1532.64 Q2236.39 1532.64 2233.93 1533.4 Q2231.5 1534.17 2228.73 1535.72 L2228.73 1530.99 Q2231.55 1529.86 2234 1529.28 Q2236.46 1528.7 2238.49 1528.7 Q2243.86 1528.7 2247.06 1531.39 Q2250.25 1534.07 2250.25 1538.56 Q2250.25 1540.69 2249.44 1542.61 Q2248.66 1544.51 2246.55 1547.11 Q2245.97 1547.78 2242.87 1550.99 Q2239.77 1554.19 2234.12 1559.95 Z" fill="#9eb1be" fill-rule="nonzero" fill-opacity="1" /><path clip-path="url(#clip590)" d="M2270.25 1532.41 Q2266.64 1532.41 2264.81 1535.97 Q2263.01 1539.51 2263.01 1546.64 Q2263.01 1553.75 2264.81 1557.31 Q2266.64 1560.86 2270.25 1560.86 Q2273.89 1560.86 2275.69 1557.31 Q2277.52 1553.75 2277.52 1546.64 Q2277.52 1539.51 2275.69 1535.97 Q2273.89 1532.41 2270.25 1532.41 M2270.25 1528.7 Q2276.06 1528.7 2279.12 1533.31 Q2282.2 1537.89 2282.2 1546.64 Q2282.2 1555.37 2279.12 1559.98 Q2276.06 1564.56 2270.25 1564.56 Q2264.44 1564.56 2261.36 1559.98 Q2258.31 1555.37 2258.31 1546.64 Q2258.31 1537.89 2261.36 1533.31 Q2264.44 1528.7 2270.25 1528.7 Z" fill="#9eb1be" fill-rule="nonzero" fill-opacity="1" /><path clip-path="url(#clip590)" d="M2287.66 1549 L2300.14 1549 L2300.14 1552.8 L2287.66 1552.8 L2287.66 1549 Z" fill="#9eb1be" fill-rule="nonzero" fill-opacity="1" /><path clip-path="url(#clip590)" d="M2317.52 1532.41 Q2313.91 1532.41 2312.08 1535.97 Q2310.28 1539.51 2310.28 1546.64 Q2310.28 1553.75 2312.08 1557.31 Q2313.91 1560.86 2317.52 1560.86 Q2321.16 1560.86 2322.96 1557.31 Q2324.79 1553.75 2324.79 1546.64 Q2324.79 1539.51 2322.96 1535.97 Q2321.16 1532.41 2317.52 1532.41 M2317.52 1528.7 Q2323.33 1528.7 2326.39 1533.31 Q2329.47 1537.89 2329.47 1546.64 Q2329.47 1555.37 2326.39 1559.98 Q2323.33 1564.56 2317.52 1564.56 Q2311.71 1564.56 2308.63 1559.98 Q2305.58 1555.37 2305.58 1546.64 Q2305.58 1537.89 2308.63 1533.31 Q2311.71 1528.7 2317.52 1528.7 Z" fill="#9eb1be" fill-rule="nonzero" fill-opacity="1" /><path clip-path="url(#clip590)" d="M2351.85 1545.25 Q2355.21 1545.97 2357.08 1548.24 Q2358.98 1550.51 2358.98 1553.84 Q2358.98 1558.96 2355.46 1561.76 Q2351.94 1564.56 2345.46 1564.56 Q2343.29 1564.56 2340.97 1564.12 Q2338.68 1563.7 2336.23 1562.85 L2336.23 1558.33 Q2338.17 1559.47 2340.48 1560.05 Q2342.8 1560.62 2345.32 1560.62 Q2349.72 1560.62 2352.01 1558.89 Q2354.33 1557.15 2354.33 1553.84 Q2354.33 1550.79 2352.17 1549.07 Q2350.04 1547.34 2346.23 1547.34 L2342.2 1547.34 L2342.2 1543.49 L2346.41 1543.49 Q2349.86 1543.49 2351.69 1542.13 Q2353.52 1540.74 2353.52 1538.15 Q2353.52 1535.49 2351.62 1534.07 Q2349.74 1532.64 2346.23 1532.64 Q2344.3 1532.64 2342.1 1533.05 Q2339.91 1533.47 2337.27 1534.35 L2337.27 1530.18 Q2339.93 1529.44 2342.24 1529.07 Q2344.58 1528.7 2346.64 1528.7 Q2351.97 1528.7 2355.07 1531.13 Q2358.17 1533.54 2358.17 1537.66 Q2358.17 1540.53 2356.53 1542.52 Q2354.88 1544.49 2351.85 1545.25 Z" fill="#9eb1be" fill-rule="nonzero" fill-opacity="1" /><path clip-path="url(#clip590)" d="M2365.09 1549 L2377.57 1549 L2377.57 1552.8 L2365.09 1552.8 L2365.09 1549 Z" fill="#9eb1be" fill-rule="nonzero" fill-opacity="1" /><path clip-path="url(#clip590)" d="M2394.95 1532.41 Q2391.34 1532.41 2389.51 1535.97 Q2387.71 1539.51 2387.71 1546.64 Q2387.71 1553.75 2389.51 1557.31 Q2391.34 1560.86 2394.95 1560.86 Q2398.59 1560.86 2400.39 1557.31 Q2402.22 1553.75 2402.22 1546.64 Q2402.22 1539.51 2400.39 1535.97 Q2398.59 1532.41 2394.95 1532.41 M2394.95 1528.7 Q2400.76 1528.7 2403.82 1533.31 Q2406.9 1537.89 2406.9 1546.64 Q2406.9 1555.37 2403.82 1559.98 Q2400.76 1564.56 2394.95 1564.56 Q2389.14 1564.56 2386.06 1559.98 Q2383.01 1555.37 2383.01 1546.64 Q2383.01 1537.89 2386.06 1533.31 Q2389.14 1528.7 2394.95 1528.7 Z" fill="#9eb1be" fill-rule="nonzero" fill-opacity="1" /><path clip-path="url(#clip590)" d="M2415.92 1559.95 L2423.56 1559.95 L2423.56 1533.59 L2415.25 1535.25 L2415.25 1530.99 L2423.52 1529.33 L2428.19 1529.33 L2428.19 1559.95 L2435.83 1559.95 L2435.83 1563.89 L2415.92 1563.89 L2415.92 1559.95 Z" fill="#9eb1be" fill-rule="nonzero" fill-opacity="1" /><polyline clip-path="url(#clip590)" style="stroke:#adb2b7; stroke-linecap:round; stroke-linejoin:round; stroke-width:4; stroke-opacity:1; fill:none" points="240.339,1495.09 240.339,108.352 "/>
<polyline clip-path="url(#clip590)" style="stroke:#adb2b7; stroke-linecap:round; stroke-linejoin:round; stroke-width:4; stroke-opacity:1; fill:none" points="240.339,1318.84 259.236,1318.84 "/>
<polyline clip-path="url(#clip590)" style="stroke:#adb2b7; stroke-linecap:round; stroke-linejoin:round; stroke-width:4; stroke-opacity:1; fill:none" points="240.339,933.117 259.236,933.117 "/>
<polyline clip-path="url(#clip590)" style="stroke:#adb2b7; stroke-linecap:round; stroke-linejoin:round; stroke-width:4; stroke-opacity:1; fill:none" points="240.339,547.394 259.236,547.394 "/>
<polyline clip-path="url(#clip590)" style="stroke:#adb2b7; stroke-linecap:round; stroke-linejoin:round; stroke-width:4; stroke-opacity:1; fill:none" points="240.339,161.67 259.236,161.67 "/>
<path clip-path="url(#clip590)" d="M62.5939 1305.63 L50.7884 1324.08 L62.5939 1324.08 L62.5939 1305.63 M61.367 1301.56 L67.2466 1301.56 L67.2466 1324.08 L72.1772 1324.08 L72.1772 1327.97 L67.2466 1327.97 L67.2466 1336.12 L62.5939 1336.12 L62.5939 1327.97 L46.9921 1327.97 L46.9921 1323.46 L61.367 1301.56 Z" fill="#9eb1be" fill-rule="nonzero" fill-opacity="1" /><path clip-path="url(#clip590)" d="M80.7188 1332.19 L88.3576 1332.19 L88.3576 1305.82 L80.0475 1307.49 L80.0475 1303.23 L88.3113 1301.56 L92.9872 1301.56 L92.9872 1332.19 L100.626 1332.19 L100.626 1336.12 L80.7188 1336.12 L80.7188 1332.19 Z" fill="#9eb1be" fill-rule="nonzero" fill-opacity="1" /><path clip-path="url(#clip590)" d="M120.07 1304.64 Q116.459 1304.64 114.631 1308.2 Q112.825 1311.75 112.825 1318.88 Q112.825 1325.98 114.631 1329.55 Q116.459 1333.09 120.07 1333.09 Q123.705 1333.09 125.51 1329.55 Q127.339 1325.98 127.339 1318.88 Q127.339 1311.75 125.51 1308.2 Q123.705 1304.64 120.07 1304.64 M120.07 1300.94 Q125.881 1300.94 128.936 1305.54 Q132.015 1310.13 132.015 1318.88 Q132.015 1327.6 128.936 1332.21 Q125.881 1336.79 120.07 1336.79 Q114.26 1336.79 111.182 1332.21 Q108.126 1327.6 108.126 1318.88 Q108.126 1310.13 111.182 1305.54 Q114.26 1300.94 120.07 1300.94 Z" fill="#9eb1be" fill-rule="nonzero" fill-opacity="1" /><path clip-path="url(#clip590)" d="M150.232 1304.64 Q146.621 1304.64 144.793 1308.2 Q142.987 1311.75 142.987 1318.88 Q142.987 1325.98 144.793 1329.55 Q146.621 1333.09 150.232 1333.09 Q153.867 1333.09 155.672 1329.55 Q157.501 1325.98 157.501 1318.88 Q157.501 1311.75 155.672 1308.2 Q153.867 1304.64 150.232 1304.64 M150.232 1300.94 Q156.042 1300.94 159.098 1305.54 Q162.177 1310.13 162.177 1318.88 Q162.177 1327.6 159.098 1332.21 Q156.042 1336.79 150.232 1336.79 Q144.422 1336.79 141.343 1332.21 Q138.288 1327.6 138.288 1318.88 Q138.288 1310.13 141.343 1305.54 Q144.422 1300.94 150.232 1300.94 Z" fill="#9eb1be" fill-rule="nonzero" fill-opacity="1" /><path clip-path="url(#clip590)" d="M180.394 1304.64 Q176.783 1304.64 174.954 1308.2 Q173.149 1311.75 173.149 1318.88 Q173.149 1325.98 174.954 1329.55 Q176.783 1333.09 180.394 1333.09 Q184.028 1333.09 185.834 1329.55 Q187.663 1325.98 187.663 1318.88 Q187.663 1311.75 185.834 1308.2 Q184.028 1304.64 180.394 1304.64 M180.394 1300.94 Q186.204 1300.94 189.26 1305.54 Q192.339 1310.13 192.339 1318.88 Q192.339 1327.6 189.26 1332.21 Q186.204 1336.79 180.394 1336.79 Q174.584 1336.79 171.505 1332.21 Q168.45 1327.6 168.45 1318.88 Q168.45 1310.13 171.505 1305.54 Q174.584 1300.94 180.394 1300.94 Z" fill="#9eb1be" fill-rule="nonzero" fill-opacity="1" /><path clip-path="url(#clip590)" d="M62.5939 919.911 L50.7884 938.36 L62.5939 938.36 L62.5939 919.911 M61.367 915.837 L67.2466 915.837 L67.2466 938.36 L72.1772 938.36 L72.1772 942.249 L67.2466 942.249 L67.2466 950.397 L62.5939 950.397 L62.5939 942.249 L46.9921 942.249 L46.9921 937.735 L61.367 915.837 Z" fill="#9eb1be" fill-rule="nonzero" fill-opacity="1" /><path clip-path="url(#clip590)" d="M83.9364 946.462 L100.256 946.462 L100.256 950.397 L78.3114 950.397 L78.3114 946.462 Q80.9734 943.707 85.5567 939.078 Q90.1632 934.425 91.3437 933.082 Q93.5891 930.559 94.4687 928.823 Q95.3715 927.064 95.3715 925.374 Q95.3715 922.62 93.4271 920.883 Q91.5058 919.147 88.4039 919.147 Q86.2049 919.147 83.7512 919.911 Q81.3206 920.675 78.5429 922.226 L78.5429 917.504 Q81.3669 916.37 83.8206 915.791 Q86.2743 915.212 88.3113 915.212 Q93.6817 915.212 96.8761 917.897 Q100.071 920.582 100.071 925.073 Q100.071 927.203 99.2604 929.124 Q98.4733 931.022 96.3669 933.615 Q95.7882 934.286 92.6863 937.504 Q89.5845 940.698 83.9364 946.462 Z" fill="#9eb1be" fill-rule="nonzero" fill-opacity="1" /><path clip-path="url(#clip590)" d="M120.07 918.916 Q116.459 918.916 114.631 922.481 Q112.825 926.022 112.825 933.152 Q112.825 940.258 114.631 943.823 Q116.459 947.365 120.07 947.365 Q123.705 947.365 125.51 943.823 Q127.339 940.258 127.339 933.152 Q127.339 926.022 125.51 922.481 Q123.705 918.916 120.07 918.916 M120.07 915.212 Q125.881 915.212 128.936 919.819 Q132.015 924.402 132.015 933.152 Q132.015 941.879 128.936 946.485 Q125.881 951.068 120.07 951.068 Q114.26 951.068 111.182 946.485 Q108.126 941.879 108.126 933.152 Q108.126 924.402 111.182 919.819 Q114.26 915.212 120.07 915.212 Z" fill="#9eb1be" fill-rule="nonzero" fill-opacity="1" /><path clip-path="url(#clip590)" d="M150.232 918.916 Q146.621 918.916 144.793 922.481 Q142.987 926.022 142.987 933.152 Q142.987 940.258 144.793 943.823 Q146.621 947.365 150.232 947.365 Q153.867 947.365 155.672 943.823 Q157.501 940.258 157.501 933.152 Q157.501 926.022 155.672 922.481 Q153.867 918.916 150.232 918.916 M150.232 915.212 Q156.042 915.212 159.098 919.819 Q162.177 924.402 162.177 933.152 Q162.177 941.879 159.098 946.485 Q156.042 951.068 150.232 951.068 Q144.422 951.068 141.343 946.485 Q138.288 941.879 138.288 933.152 Q138.288 924.402 141.343 919.819 Q144.422 915.212 150.232 915.212 Z" fill="#9eb1be" fill-rule="nonzero" fill-opacity="1" /><path clip-path="url(#clip590)" d="M180.394 918.916 Q176.783 918.916 174.954 922.481 Q173.149 926.022 173.149 933.152 Q173.149 940.258 174.954 943.823 Q176.783 947.365 180.394 947.365 Q184.028 947.365 185.834 943.823 Q187.663 940.258 187.663 933.152 Q187.663 926.022 185.834 922.481 Q184.028 918.916 180.394 918.916 M180.394 915.212 Q186.204 915.212 189.26 919.819 Q192.339 924.402 192.339 933.152 Q192.339 941.879 189.26 946.485 Q186.204 951.068 180.394 951.068 Q174.584 951.068 171.505 946.485 Q168.45 941.879 168.45 933.152 Q168.45 924.402 171.505 919.819 Q174.584 915.212 180.394 915.212 Z" fill="#9eb1be" fill-rule="nonzero" fill-opacity="1" /><path clip-path="url(#clip590)" d="M62.5939 534.188 L50.7884 552.637 L62.5939 552.637 L62.5939 534.188 M61.367 530.114 L67.2466 530.114 L67.2466 552.637 L72.1772 552.637 L72.1772 556.525 L67.2466 556.525 L67.2466 564.674 L62.5939 564.674 L62.5939 556.525 L46.9921 556.525 L46.9921 552.012 L61.367 530.114 Z" fill="#9eb1be" fill-rule="nonzero" fill-opacity="1" /><path clip-path="url(#clip590)" d="M94.0752 546.039 Q97.4317 546.757 99.3067 549.025 Q101.205 551.294 101.205 554.627 Q101.205 559.743 97.6863 562.544 Q94.1678 565.345 87.6864 565.345 Q85.5104 565.345 83.1956 564.905 Q80.904 564.488 78.4503 563.632 L78.4503 559.118 Q80.3947 560.252 82.7095 560.831 Q85.0243 561.41 87.5475 561.41 Q91.9456 561.41 94.2372 559.674 Q96.552 557.937 96.552 554.627 Q96.552 551.572 94.3993 549.859 Q92.2697 548.123 88.4502 548.123 L84.4225 548.123 L84.4225 544.28 L88.6354 544.28 Q92.0845 544.28 93.9132 542.914 Q95.7419 541.526 95.7419 538.933 Q95.7419 536.271 93.8437 534.859 Q91.9687 533.424 88.4502 533.424 Q86.529 533.424 84.3299 533.84 Q82.1308 534.257 79.492 535.137 L79.492 530.97 Q82.154 530.229 84.4688 529.859 Q86.8067 529.489 88.8669 529.489 Q94.1909 529.489 97.2928 531.919 Q100.395 534.326 100.395 538.447 Q100.395 541.317 98.7511 543.308 Q97.1076 545.276 94.0752 546.039 Z" fill="#9eb1be" fill-rule="nonzero" fill-opacity="1" /><path clip-path="url(#clip590)" d="M120.07 533.192 Q116.459 533.192 114.631 536.757 Q112.825 540.299 112.825 547.428 Q112.825 554.535 114.631 558.1 Q116.459 561.641 120.07 561.641 Q123.705 561.641 125.51 558.1 Q127.339 554.535 127.339 547.428 Q127.339 540.299 125.51 536.757 Q123.705 533.192 120.07 533.192 M120.07 529.489 Q125.881 529.489 128.936 534.095 Q132.015 538.678 132.015 547.428 Q132.015 556.155 128.936 560.762 Q125.881 565.345 120.07 565.345 Q114.26 565.345 111.182 560.762 Q108.126 556.155 108.126 547.428 Q108.126 538.678 111.182 534.095 Q114.26 529.489 120.07 529.489 Z" fill="#9eb1be" fill-rule="nonzero" fill-opacity="1" /><path clip-path="url(#clip590)" d="M150.232 533.192 Q146.621 533.192 144.793 536.757 Q142.987 540.299 142.987 547.428 Q142.987 554.535 144.793 558.1 Q146.621 561.641 150.232 561.641 Q153.867 561.641 155.672 558.1 Q157.501 554.535 157.501 547.428 Q157.501 540.299 155.672 536.757 Q153.867 533.192 150.232 533.192 M150.232 529.489 Q156.042 529.489 159.098 534.095 Q162.177 538.678 162.177 547.428 Q162.177 556.155 159.098 560.762 Q156.042 565.345 150.232 565.345 Q144.422 565.345 141.343 560.762 Q138.288 556.155 138.288 547.428 Q138.288 538.678 141.343 534.095 Q144.422 529.489 150.232 529.489 Z" fill="#9eb1be" fill-rule="nonzero" fill-opacity="1" /><path clip-path="url(#clip590)" d="M180.394 533.192 Q176.783 533.192 174.954 536.757 Q173.149 540.299 173.149 547.428 Q173.149 554.535 174.954 558.1 Q176.783 561.641 180.394 561.641 Q184.028 561.641 185.834 558.1 Q187.663 554.535 187.663 547.428 Q187.663 540.299 185.834 536.757 Q184.028 533.192 180.394 533.192 M180.394 529.489 Q186.204 529.489 189.26 534.095 Q192.339 538.678 192.339 547.428 Q192.339 556.155 189.26 560.762 Q186.204 565.345 180.394 565.345 Q174.584 565.345 171.505 560.762 Q168.45 556.155 168.45 547.428 Q168.45 538.678 171.505 534.095 Q174.584 529.489 180.394 529.489 Z" fill="#9eb1be" fill-rule="nonzero" fill-opacity="1" /><path clip-path="url(#clip590)" d="M62.5939 148.464 L50.7884 166.913 L62.5939 166.913 L62.5939 148.464 M61.367 144.39 L67.2466 144.39 L67.2466 166.913 L72.1772 166.913 L72.1772 170.802 L67.2466 170.802 L67.2466 178.95 L62.5939 178.95 L62.5939 170.802 L46.9921 170.802 L46.9921 166.288 L61.367 144.39 Z" fill="#9eb1be" fill-rule="nonzero" fill-opacity="1" /><path clip-path="url(#clip590)" d="M92.7558 148.464 L80.9503 166.913 L92.7558 166.913 L92.7558 148.464 M91.5289 144.39 L97.4085 144.39 L97.4085 166.913 L102.339 166.913 L102.339 170.802 L97.4085 170.802 L97.4085 178.95 L92.7558 178.95 L92.7558 170.802 L77.154 170.802 L77.154 166.288 L91.5289 144.39 Z" fill="#9eb1be" fill-rule="nonzero" fill-opacity="1" /><path clip-path="url(#clip590)" d="M120.07 147.469 Q116.459 147.469 114.631 151.033 Q112.825 154.575 112.825 161.705 Q112.825 168.811 114.631 172.376 Q116.459 175.918 120.07 175.918 Q123.705 175.918 125.51 172.376 Q127.339 168.811 127.339 161.705 Q127.339 154.575 125.51 151.033 Q123.705 147.469 120.07 147.469 M120.07 143.765 Q125.881 143.765 128.936 148.371 Q132.015 152.955 132.015 161.705 Q132.015 170.431 128.936 175.038 Q125.881 179.621 120.07 179.621 Q114.26 179.621 111.182 175.038 Q108.126 170.431 108.126 161.705 Q108.126 152.955 111.182 148.371 Q114.26 143.765 120.07 143.765 Z" fill="#9eb1be" fill-rule="nonzero" fill-opacity="1" /><path clip-path="url(#clip590)" d="M150.232 147.469 Q146.621 147.469 144.793 151.033 Q142.987 154.575 142.987 161.705 Q142.987 168.811 144.793 172.376 Q146.621 175.918 150.232 175.918 Q153.867 175.918 155.672 172.376 Q157.501 168.811 157.501 161.705 Q157.501 154.575 155.672 151.033 Q153.867 147.469 150.232 147.469 M150.232 143.765 Q156.042 143.765 159.098 148.371 Q162.177 152.955 162.177 161.705 Q162.177 170.431 159.098 175.038 Q156.042 179.621 150.232 179.621 Q144.422 179.621 141.343 175.038 Q138.288 170.431 138.288 161.705 Q138.288 152.955 141.343 148.371 Q144.422 143.765 150.232 143.765 Z" fill="#9eb1be" fill-rule="nonzero" fill-opacity="1" /><path clip-path="url(#clip590)" d="M180.394 147.469 Q176.783 147.469 174.954 151.033 Q173.149 154.575 173.149 161.705 Q173.149 168.811 174.954 172.376 Q176.783 175.918 180.394 175.918 Q184.028 175.918 185.834 172.376 Q187.663 168.811 187.663 161.705 Q187.663 154.575 185.834 151.033 Q184.028 147.469 180.394 147.469 M180.394 143.765 Q186.204 143.765 189.26 148.371 Q192.339 152.955 192.339 161.705 Q192.339 170.431 189.26 175.038 Q186.204 179.621 180.394 179.621 Q174.584 179.621 171.505 175.038 Q168.45 170.431 168.45 161.705 Q168.45 152.955 171.505 148.371 Q174.584 143.765 180.394 143.765 Z" fill="#9eb1be" fill-rule="nonzero" fill-opacity="1" /><path clip-path="url(#clip590)" d="M1570.69 12.096 L1608.93 12.096 L1608.93 18.9825 L1578.87 18.9825 L1578.87 36.8875 L1607.67 36.8875 L1607.67 43.7741 L1578.87 43.7741 L1578.87 65.6895 L1609.66 65.6895 L1609.66 72.576 L1570.69 72.576 L1570.69 12.096 Z" fill="#adb2b7" fill-rule="nonzero" fill-opacity="1" /><path clip-path="url(#clip590)" d="M1627.24 49.9314 Q1627.24 58.1548 1630.6 62.8538 Q1634 67.5124 1639.92 67.5124 Q1645.83 67.5124 1649.23 62.8538 Q1652.64 58.1548 1652.64 49.9314 Q1652.64 41.7081 1649.23 37.0496 Q1645.83 32.3505 1639.92 32.3505 Q1634 32.3505 1630.6 37.0496 Q1627.24 41.7081 1627.24 49.9314 M1652.64 65.7705 Q1650.29 69.8214 1646.68 71.8063 Q1643.12 73.7508 1638.09 73.7508 Q1629.87 73.7508 1624.68 67.1883 Q1619.54 60.6258 1619.54 49.9314 Q1619.54 39.2371 1624.68 32.6746 Q1629.87 26.1121 1638.09 26.1121 Q1643.12 26.1121 1646.68 28.0971 Q1650.29 30.0415 1652.64 34.0924 L1652.64 27.2059 L1660.09 27.2059 L1660.09 89.8329 L1652.64 89.8329 L1652.64 65.7705 Z" fill="#adb2b7" fill-rule="nonzero" fill-opacity="1" /><path clip-path="url(#clip590)" d="M1674.67 54.671 L1674.67 27.2059 L1682.13 27.2059 L1682.13 54.3874 Q1682.13 60.8284 1684.64 64.0691 Q1687.15 67.2693 1692.17 67.2693 Q1698.21 67.2693 1701.69 63.421 Q1705.22 59.5726 1705.22 52.9291 L1705.22 27.2059 L1712.67 27.2059 L1712.67 72.576 L1705.22 72.576 L1705.22 65.6084 Q1702.5 69.7404 1698.9 71.7658 Q1695.33 73.7508 1690.59 73.7508 Q1682.77 73.7508 1678.72 68.8897 Q1674.67 64.0286 1674.67 54.671 M1693.43 26.1121 L1693.43 26.1121 Z" fill="#adb2b7" fill-rule="nonzero" fill-opacity="1" /><path clip-path="url(#clip590)" d="M1728.02 27.2059 L1735.48 27.2059 L1735.48 72.576 L1728.02 72.576 L1728.02 27.2059 M1728.02 9.54393 L1735.48 9.54393 L1735.48 18.9825 L1728.02 18.9825 L1728.02 9.54393 Z" fill="#adb2b7" fill-rule="nonzero" fill-opacity="1" /><path clip-path="url(#clip590)" d="M1758.45 14.324 L1758.45 27.2059 L1773.8 27.2059 L1773.8 32.9987 L1758.45 32.9987 L1758.45 57.6282 Q1758.45 63.1779 1759.94 64.7578 Q1761.48 66.3376 1766.14 66.3376 L1773.8 66.3376 L1773.8 72.576 L1766.14 72.576 Q1757.51 72.576 1754.23 69.3758 Q1750.95 66.1351 1750.95 57.6282 L1750.95 32.9987 L1745.48 32.9987 L1745.48 27.2059 L1750.95 27.2059 L1750.95 14.324 L1758.45 14.324 Z" fill="#adb2b7" fill-rule="nonzero" fill-opacity="1" /><path clip-path="url(#clip590)" d="M1802.48 76.7889 Q1799.32 84.8907 1796.32 87.3618 Q1793.32 89.8329 1788.3 89.8329 L1782.35 89.8329 L1782.35 83.5945 L1786.72 83.5945 Q1789.8 83.5945 1791.5 82.1361 Q1793.2 80.6778 1795.27 75.2496 L1796.6 71.8468 L1778.25 27.2059 L1786.15 27.2059 L1800.33 62.6918 L1814.51 27.2059 L1822.41 27.2059 L1802.48 76.7889 Z" fill="#adb2b7" fill-rule="nonzero" fill-opacity="1" /><polyline clip-path="url(#clip591)" style="stroke:#bbbb00; stroke-linecap:round; stroke-linejoin:round; stroke-width:4; stroke-opacity:1; fill:none" points="322.765,1415.27 324.14,1415.27 325.514,1415.27 326.889,1415.27 328.263,1415.27 329.638,1415.27 331.012,1415.27 332.387,1415.27 333.761,1415.27 335.136,1415.27 336.51,1415.27 337.885,1415.27 339.259,1415.27 340.634,1415.27 342.008,1415.27 343.383,1415.27 344.757,1415.27 346.131,1415.27 347.506,1415.27 348.88,1415.27 350.255,1415.27 351.629,1415.27 353.004,1415.27 354.378,1415.27 355.753,1415.27 357.127,1415.27 358.502,1415.27 359.876,1415.27 361.251,1415.27 362.625,1415.27 364,1415.27 365.374,1415.27 366.748,1415.27 368.123,1415.27 369.497,1415.27 370.872,1415.27 372.246,1415.27 373.621,1415.27 374.995,1415.27 376.37,1415.27 377.744,1415.27 379.119,1415.27 380.493,1415.27 381.868,1415.27 383.242,1415.27 384.617,1415.27 385.991,1415.27 387.366,1415.27 388.74,1415.27 390.114,1415.27 391.489,1415.27 392.863,1415.27 394.238,1415.27 395.612,1415.27 396.987,1415.27 398.361,1415.27 398.361,1415.97 399.736,1415.97 399.736,1422.19 401.11,1422.19 401.11,1425.23 402.485,1425.23 402.485,1419.71 403.859,1419.71 403.859,1419.15 405.234,1419.15 405.234,1413.96 406.608,1413.96 406.608,1408.47 407.983,1408.47 407.983,1409.7 409.357,1409.7 409.357,1416.1 410.731,1416.1 410.731,1411.95 412.106,1411.95 412.106,1416.01 413.48,1416.01 413.48,1413.46 414.855,1413.46 414.855,1421.19 416.229,1421.19 416.229,1422.62 417.604,1422.62 417.604,1424.26 418.978,1424.26 418.978,1427.85 420.353,1427.85 420.353,1422.77 421.727,1422.77 421.727,1418.72 423.102,1418.72 423.102,1418.38 424.476,1418.38 424.476,1421.35 425.851,1421.35 425.851,1417.36 427.225,1417.36 427.225,1423.05 428.6,1423.05 428.6,1424.34 429.974,1424.34 429.974,1423.71 431.349,1423.71 431.349,1426.3 432.723,1426.3 432.723,1424.4 434.097,1424.4 434.097,1429.35 435.472,1429.35 435.472,1433.65 436.846,1433.65 436.846,1433.67 438.221,1433.67 438.221,1436.24 439.595,1436.24 439.595,1437.35 440.97,1437.35 440.97,1443.55 442.344,1443.55 442.344,1440.94 443.719,1440.94 443.719,1441.98 445.093,1441.98 445.093,1442.49 446.468,1442.49 446.468,1438.08 447.842,1438.08 447.842,1437.62 449.217,1437.62 449.217,1442.95 450.591,1442.95 450.591,1441.47 451.966,1441.47 451.966,1445.1 453.34,1445.1 453.34,1440.64 454.714,1440.64 454.714,1437.39 456.089,1437.39 456.089,1433.63 457.463,1433.63 457.463,1431.75 458.838,1431.75 458.838,1431.47 460.212,1431.47 460.212,1424.41 461.587,1424.41 461.587,1427.93 462.961,1427.93 462.961,1428.02 464.336,1428.02 464.336,1433.83 465.71,1433.83 465.71,1433.61 467.085,1433.61 467.085,1432.32 468.459,1432.32 468.459,1425.96 469.834,1425.96 469.834,1424.44 471.208,1424.44 471.208,1417.31 472.583,1417.31 472.583,1420.23 473.957,1420.23 473.957,1421.42 475.332,1421.42 475.332,1422.01 476.706,1422.01 476.706,1424.77 478.08,1424.77 478.08,1420.62 479.455,1420.62 479.455,1415.36 480.829,1415.36 480.829,1412.55 482.204,1412.55 482.204,1413.4 483.578,1413.4 483.578,1420.12 484.953,1420.12 484.953,1426.63 486.327,1426.63 486.327,1427.33 487.702,1427.33 487.702,1424.85 489.076,1424.85 489.076,1423.16 490.451,1423.16 490.451,1423.61 491.825,1423.61 491.825,1426.99 493.2,1426.99 493.2,1425.76 494.574,1425.76 494.574,1424.77 495.949,1424.77 495.949,1423.85 497.323,1423.85 497.323,1423.95 498.698,1423.95 498.698,1421.77 500.072,1421.77 500.072,1422.47 501.446,1422.47 501.446,1418.85 502.821,1418.85 502.821,1417.29 504.195,1417.29 504.195,1419.47 505.57,1419.47 505.57,1424.94 506.944,1424.94 506.944,1427.74 508.319,1427.74 508.319,1425.15 509.693,1425.15 509.693,1428.94 511.068,1428.94 511.068,1422.92 512.442,1422.92 512.442,1425.79 513.817,1425.79 513.817,1426.9 515.191,1426.9 515.191,1426.07 516.566,1426.07 516.566,1426.87 517.94,1426.87 517.94,1420.54 519.315,1420.54 519.315,1418.22 520.689,1418.22 520.689,1416.42 522.063,1416.42 522.063,1411.79 523.438,1411.79 523.438,1408.55 524.812,1408.55 524.812,1409.64 526.187,1409.64 526.187,1413.18 527.561,1413.18 527.561,1416.75 528.936,1416.75 528.936,1415.68 530.31,1415.68 530.31,1417.18 531.685,1417.18 531.685,1413.62 533.059,1413.62 533.059,1414.66 534.434,1414.66 534.434,1412.45 535.808,1412.45 535.808,1415.1 537.183,1415.1 537.183,1419.3 538.557,1419.3 538.557,1424.55 539.932,1424.55 539.932,1420.95 541.306,1420.95 541.306,1424.71 542.681,1424.71 542.681,1419.66 544.055,1419.66 544.055,1413.28 545.429,1413.28 545.429,1421.18 546.804,1421.18 546.804,1415.04 548.178,1415.04 548.178,1415.77 549.553,1415.77 549.553,1400.86 550.927,1400.86 550.927,1396.07 552.302,1396.07 552.302,1392.14 553.676,1392.14 553.676,1399.4 555.051,1399.4 555.051,1390.66 556.425,1390.66 556.425,1387.31 557.8,1387.31 557.8,1388.82 559.174,1388.82 559.174,1384.91 560.549,1384.91 560.549,1382.3 561.923,1382.3 561.923,1379.69 563.298,1379.69 563.298,1375.52 564.672,1375.52 564.672,1382.84 566.046,1382.84 566.046,1382.26 567.421,1382.26 567.421,1371.75 568.795,1371.75 568.795,1360.71 570.17,1360.71 570.17,1357.69 571.544,1357.69 571.544,1355.3 572.919,1355.3 572.919,1348.43 574.293,1348.43 574.293,1349.05 575.668,1349.05 575.668,1342.95 577.042,1342.95 577.042,1347.32 578.417,1347.32 578.417,1346.82 579.791,1346.82 579.791,1343.84 581.166,1343.84 581.166,1344.04 582.54,1344.04 582.54,1338.12 583.915,1338.12 583.915,1350.08 585.289,1350.08 585.289,1345.23 586.664,1345.23 586.664,1335.16 588.038,1335.16 588.038,1332.09 589.412,1332.09 589.412,1335.34 590.787,1335.34 590.787,1339.76 592.161,1339.76 592.161,1337.45 593.536,1337.45 593.536,1338.97 594.91,1338.97 594.91,1339.32 596.285,1339.32 596.285,1341.63 597.659,1341.63 597.659,1346.51 599.034,1346.51 599.034,1345.65 600.408,1345.65 600.408,1353.83 601.783,1353.83 601.783,1347.96 603.157,1347.96 603.157,1364.69 604.532,1364.69 604.532,1373.64 605.906,1373.64 605.906,1365.7 607.281,1365.7 607.281,1359.16 608.655,1359.16 608.655,1358.82 610.029,1358.82 610.029,1349.38 611.404,1349.38 611.404,1351.79 612.778,1351.79 612.778,1341.02 614.153,1341.02 614.153,1336.77 615.527,1336.77 615.527,1332.65 616.902,1332.65 616.902,1333.99 618.276,1333.99 618.276,1328.28 619.651,1328.28 619.651,1344.83 621.025,1344.83 621.025,1346.15 622.4,1346.15 622.4,1347.97 623.774,1347.97 623.774,1335.03 625.149,1335.03 625.149,1335.76 626.523,1335.76 626.523,1343.47 627.898,1343.47 627.898,1348.45 629.272,1348.45 629.272,1335.55 630.647,1335.55 630.647,1339.77 632.021,1339.77 632.021,1349.58 633.395,1349.58 633.395,1337.08 634.77,1337.08 634.77,1335.7 636.144,1335.7 636.144,1328.21 637.519,1328.21 637.519,1336.25 638.893,1336.25 638.893,1330.69 640.268,1330.69 640.268,1341.45 641.642,1341.45 641.642,1346.12 643.017,1346.12 643.017,1349.53 644.391,1349.53 644.391,1361.85 645.766,1361.85 645.766,1366.98 647.14,1366.98 647.14,1377.49 648.515,1377.49 648.515,1363.2 649.889,1363.2 649.889,1361.79 651.264,1361.79 651.264,1373.14 652.638,1373.14 652.638,1372.51 654.013,1372.51 654.013,1382.76 655.387,1382.76 655.387,1366.65 656.761,1366.65 656.761,1355.6 658.136,1355.6 658.136,1351.4 659.51,1351.4 659.51,1365.5 660.885,1365.5 660.885,1383.28 662.259,1383.28 662.259,1384.07 663.634,1384.07 663.634,1402.17 665.008,1402.17 665.008,1417.67 666.383,1417.67 666.383,1418.14 667.757,1418.14 667.757,1410.74 669.132,1410.74 669.132,1407.28 670.506,1407.28 670.506,1415.15 671.881,1415.15 671.881,1418.17 673.255,1418.17 673.255,1406.3 674.63,1406.3 674.63,1412.61 676.004,1412.61 676.004,1405 677.378,1405 677.378,1415.56 678.753,1415.56 678.753,1405.91 680.127,1405.91 680.127,1398.38 681.502,1398.38 681.502,1392.71 682.876,1392.71 682.876,1393.11 684.251,1393.11 684.251,1385.49 685.625,1385.49 685.625,1379.28 687,1379.28 687,1365.11 688.374,1365.11 688.374,1368.66 689.749,1368.66 689.749,1375.42 691.123,1375.42 691.123,1382.62 692.498,1382.62 692.498,1388.46 693.872,1388.46 693.872,1388.11 695.247,1388.11 695.247,1380.24 696.621,1380.24 696.621,1388.44 697.996,1388.44 697.996,1390.54 699.37,1390.54 699.37,1386.89 700.744,1386.89 700.744,1375.18 702.119,1375.18 702.119,1374.89 703.493,1374.89 703.493,1383.52 704.868,1383.52 704.868,1374.72 706.242,1374.72 706.242,1368.41 707.617,1368.41 707.617,1373.07 708.991,1373.07 708.991,1373.62 710.366,1373.62 710.366,1363.78 711.74,1363.78 711.74,1372.97 713.115,1372.97 713.115,1379.56 714.489,1379.56 714.489,1385.16 715.864,1385.16 715.864,1383.57 717.238,1383.57 717.238,1378.6 718.613,1378.6 718.613,1362.51 719.987,1362.51 719.987,1355.93 721.361,1355.93 721.361,1350.36 722.736,1350.36 722.736,1363.17 724.11,1363.17 724.11,1353.46 725.485,1353.46 725.485,1349.35 726.859,1349.35 726.859,1362.64 728.234,1362.64 728.234,1350.25 729.608,1350.25 729.608,1337.84 730.983,1337.84 730.983,1342.98 732.357,1342.98 732.357,1329.62 733.732,1329.62 733.732,1323.39 735.106,1323.39 735.106,1325.64 736.481,1325.64 736.481,1321.83 737.855,1321.83 737.855,1312.76 739.23,1312.76 739.23,1318.39 740.604,1318.39 740.604,1321.96 741.979,1321.96 741.979,1302.39 743.353,1302.39 743.353,1302.63 744.727,1302.63 744.727,1317.07 746.102,1317.07 746.102,1319.31 747.476,1319.31 747.476,1322.41 748.851,1322.41 748.851,1319.91 750.225,1319.91 750.225,1309.43 751.6,1309.43 751.6,1305.84 752.974,1305.84 752.974,1299.9 754.349,1299.9 754.349,1311.98 755.723,1311.98 755.723,1311.25 757.098,1311.25 757.098,1328.26 758.472,1328.26 758.472,1324.3 759.847,1324.3 759.847,1331.62 761.221,1331.62 761.221,1330.23 762.596,1330.23 762.596,1331.48 763.97,1331.48 763.97,1327.85 765.344,1327.85 765.344,1329.52 766.719,1329.52 766.719,1328.68 768.093,1328.68 768.093,1313.73 769.468,1313.73 769.468,1319.34 770.842,1319.34 770.842,1316.67 772.217,1316.67 772.217,1323.9 773.591,1323.9 773.591,1324.98 774.966,1324.98 774.966,1326.54 776.34,1326.54 776.34,1328.27 777.715,1328.27 777.715,1340.32 779.089,1340.32 779.089,1347.3 780.464,1347.3 780.464,1354.84 781.838,1354.84 781.838,1360.64 783.213,1360.64 783.213,1352.88 784.587,1352.88 784.587,1349.73 785.962,1349.73 785.962,1335.71 787.336,1335.71 787.336,1334.92 788.71,1334.92 788.71,1336.45 790.085,1336.45 790.085,1339.59 791.459,1339.59 791.459,1343.66 792.834,1343.66 792.834,1352.69 794.208,1352.69 794.208,1346.49 795.583,1346.49 795.583,1354.53 796.957,1354.53 796.957,1355.5 798.332,1355.5 798.332,1358.49 799.706,1358.49 799.706,1365.73 801.081,1365.73 801.081,1376.19 802.455,1376.19 802.455,1384.16 803.83,1384.16 803.83,1372.06 805.204,1372.06 805.204,1377.62 806.579,1377.62 806.579,1375.19 807.953,1375.19 807.953,1385.78 809.328,1385.78 809.328,1395.74 810.702,1395.74 810.702,1404.74 812.076,1404.74 812.076,1401.57 813.451,1401.57 813.451,1416.62 814.825,1416.62 814.825,1429.13 816.2,1429.13 816.2,1438.11 817.574,1438.11 817.574,1441.3 818.949,1441.3 818.949,1438.6 820.323,1438.6 820.323,1443.42 821.698,1443.42 821.698,1432.43 823.072,1432.43 823.072,1426.38 824.447,1426.38 824.447,1434.27 825.821,1434.27 825.821,1445.55 827.196,1445.55 827.196,1444.99 828.57,1444.99 828.57,1445.34 829.945,1445.34 829.945,1442.8 831.319,1442.8 831.319,1449.96 832.693,1449.96 832.693,1441.68 834.068,1441.68 834.068,1420.81 835.442,1420.81 835.442,1434.79 836.817,1434.79 836.817,1449.04 838.191,1449.04 838.191,1451.93 839.566,1451.93 839.566,1452.15 840.94,1452.15 840.94,1446.49 842.315,1446.49 842.315,1445.06 843.689,1445.06 843.689,1450.43 845.064,1450.43 845.064,1455.84 846.438,1455.84 846.438,1453.31 847.813,1453.31 847.813,1446.16 849.187,1446.16 849.187,1439.38 850.562,1439.38 850.562,1429.76 851.936,1429.76 851.936,1428.71 853.311,1428.71 853.311,1434.31 854.685,1434.31 854.685,1436 856.059,1436 856.059,1437.88 857.434,1437.88 857.434,1433.65 858.808,1433.65 858.808,1427.33 860.183,1427.33 860.183,1427.3 861.557,1427.3 861.557,1424.13 862.932,1424.13 862.932,1438.33 864.306,1438.33 864.306,1435.9 865.681,1435.9 865.681,1434.79 867.055,1434.79 867.055,1435.84 868.43,1435.84 868.43,1428.82 869.804,1428.82 869.804,1426.16 871.179,1426.16 871.179,1423.46 872.553,1423.46 872.553,1408.4 873.928,1408.4 873.928,1409.48 875.302,1409.48 875.302,1412.19 876.676,1412.19 876.676,1396.51 878.051,1396.51 878.051,1407.29 879.425,1407.29 879.425,1406.03 880.8,1406.03 880.8,1406.9 882.174,1406.9 882.174,1397.25 883.549,1397.25 883.549,1394.97 884.923,1394.97 884.923,1391.29 886.298,1391.29 886.298,1402.33 887.672,1402.33 887.672,1420.52 889.047,1420.52 889.047,1406.46 890.421,1406.46 890.421,1406.27 891.796,1406.27 891.796,1401.46 893.17,1401.46 893.17,1409.79 894.545,1409.79 894.545,1419.66 895.919,1419.66 895.919,1412.98 897.294,1412.98 897.294,1408.81 898.668,1408.81 898.668,1396.85 900.042,1396.85 900.042,1396.89 901.417,1396.89 901.417,1405.36 902.791,1405.36 902.791,1386.08 904.166,1386.08 904.166,1384.33 905.54,1384.33 905.54,1374.74 906.915,1374.74 906.915,1372.32 908.289,1372.32 908.289,1366.49 909.664,1366.49 909.664,1361.98 911.038,1361.98 911.038,1358.83 912.413,1358.83 912.413,1353.01 913.787,1353.01 913.787,1360 915.162,1360 915.162,1372.42 916.536,1372.42 916.536,1386.25 917.911,1386.25 917.911,1378.47 919.285,1378.47 919.285,1379.95 920.659,1379.95 920.659,1386.15 922.034,1386.15 922.034,1389.2 923.408,1389.2 923.408,1389.64 924.783,1389.64 924.783,1382.57 926.157,1382.57 926.157,1389.07 927.532,1389.07 927.532,1403.31 928.906,1403.31 928.906,1404.18 930.281,1404.18 930.281,1387.56 931.655,1387.56 931.655,1384.92 933.03,1384.92 933.03,1378.26 934.404,1378.26 934.404,1375.97 935.779,1375.97 935.779,1367.66 937.153,1367.66 937.153,1364.32 938.528,1364.32 938.528,1361.59 939.902,1361.59 939.902,1362.24 941.277,1362.24 941.277,1365.96 942.651,1365.96 942.651,1365.25 944.025,1365.25 944.025,1348.8 945.4,1348.8 945.4,1344.71 946.774,1344.71 946.774,1337.34 948.149,1337.34 948.149,1334.41 949.523,1334.41 949.523,1327.58 950.898,1327.58 950.898,1325.91 952.272,1325.91 952.272,1335.43 953.647,1335.43 953.647,1347.99 955.021,1347.99 955.021,1339.58 956.396,1339.58 956.396,1338.94 957.77,1338.94 957.77,1349.7 959.145,1349.7 959.145,1353.57 960.519,1353.57 960.519,1352.06 961.894,1352.06 961.894,1353.14 963.268,1353.14 963.268,1353.59 964.642,1353.59 964.642,1358.17 966.017,1358.17 966.017,1345.89 967.391,1345.89 967.391,1340.62 968.766,1340.62 968.766,1341.05 970.14,1341.05 970.14,1337.21 971.515,1337.21 971.515,1330.92 972.889,1330.92 972.889,1327.91 974.264,1327.91 974.264,1318.53 975.638,1318.53 975.638,1304.35 977.013,1304.35 977.013,1316.53 978.387,1316.53 978.387,1319.26 979.762,1319.26 979.762,1323.39 981.136,1323.39 981.136,1310.84 982.511,1310.84 982.511,1307.44 983.885,1307.44 983.885,1327.63 985.26,1327.63 985.26,1316.37 986.634,1316.37 986.634,1320.43 988.008,1320.43 988.008,1318.81 989.383,1318.81 989.383,1318.89 990.757,1318.89 990.757,1331.74 992.132,1331.74 992.132,1336.38 993.506,1336.38 993.506,1332.89 994.881,1332.89 994.881,1336.84 996.255,1336.84 996.255,1336.94 997.63,1336.94 997.63,1331.9 999.004,1331.9 999.004,1333.82 1000.38,1333.82 1000.38,1345.93 1001.75,1345.93 1001.75,1350.56 1003.13,1350.56 1003.13,1342.44 1004.5,1342.44 1004.5,1345.99 1005.88,1345.99 1005.88,1348.09 1007.25,1348.09 1007.25,1333.88 1008.63,1333.88 1008.63,1333.97 1010,1333.97 1010,1340.67 1011.37,1340.67 1011.37,1343.99 1012.75,1343.99 1012.75,1334.81 1014.12,1334.81 1014.12,1331.29 1015.5,1331.29 1015.5,1328.66 1016.87,1328.66 1016.87,1331.62 1018.25,1331.62 1018.25,1334.97 1019.62,1334.97 1019.62,1350.47 1021,1350.47 1021,1365.24 1022.37,1365.24 1022.37,1366.52 1023.74,1366.52 1023.74,1359.81 1025.12,1359.81 1025.12,1353.11 1026.49,1353.11 1026.49,1354.45 1027.87,1354.45 1027.87,1338.72 1029.24,1338.72 1029.24,1335.07 1030.62,1335.07 1030.62,1327.07 1031.99,1327.07 1031.99,1332.9 1033.37,1332.9 1033.37,1332.15 1034.74,1332.15 1034.74,1330 1036.11,1330 1036.11,1338.21 1037.49,1338.21 1037.49,1334.6 1038.86,1334.6 1038.86,1338.44 1040.24,1338.44 1040.24,1336.77 1041.61,1336.77 1041.61,1340 1042.99,1340 1042.99,1340.8 1044.36,1340.8 1044.36,1331.86 1045.74,1331.86 1045.74,1341.54 1047.11,1341.54 1047.11,1337.51 1048.49,1337.51 1048.49,1333.19 1049.86,1333.19 1049.86,1338.66 1051.23,1338.66 1051.23,1343.97 1052.61,1343.97 1052.61,1344.38 1053.98,1344.38 1053.98,1352.5 1055.36,1352.5 1055.36,1363.04 1056.73,1363.04 1056.73,1362.75 1058.11,1362.75 1058.11,1363.77 1059.48,1363.77 1059.48,1368.06 1060.86,1368.06 1060.86,1376.7 1062.23,1376.7 1062.23,1373.89 1063.6,1373.89 1063.6,1377.22 1064.98,1377.22 1064.98,1382.97 1066.35,1382.97 1066.35,1377.04 1067.73,1377.04 1067.73,1389.5 1069.1,1389.5 1069.1,1402.31 1070.48,1402.31 1070.48,1405.21 1071.85,1405.21 1071.85,1400.31 1073.23,1400.31 1073.23,1405.79 1074.6,1405.79 1074.6,1404.05 1075.97,1404.05 1075.97,1399.28 1077.35,1399.28 1077.35,1391.93 1078.72,1391.93 1078.72,1398.56 1080.1,1398.56 1080.1,1388.35 1081.47,1388.35 1081.47,1395.88 1082.85,1395.88 1082.85,1392.64 1084.22,1392.64 1084.22,1400.45 1085.6,1400.45 1085.6,1391.29 1086.97,1391.29 1086.97,1386.63 1088.34,1386.63 1088.34,1383.23 1089.72,1383.23 1089.72,1385.95 1091.09,1385.95 1091.09,1386.46 1092.47,1386.46 1092.47,1383.68 1093.84,1383.68 1093.84,1382.06 1095.22,1382.06 1095.22,1373.92 1096.59,1373.92 1096.59,1377.98 1097.97,1377.98 1097.97,1381.06 1099.34,1381.06 1099.34,1375.58 1100.71,1375.58 1100.71,1379.12 1102.09,1379.12 1102.09,1388.27 1103.46,1388.27 1103.46,1388.73 1104.84,1388.73 1104.84,1392.33 1106.21,1392.33 1106.21,1391.28 1107.59,1391.28 1107.59,1395.15 1108.96,1395.15 1108.96,1391.86 1110.34,1391.86 1110.34,1390.28 1111.71,1390.28 1111.71,1391.49 1113.09,1391.49 1113.09,1389.85 1114.46,1389.85 1114.46,1388.82 1115.83,1388.82 1115.83,1379.59 1117.21,1379.59 1117.21,1380.82 1118.58,1380.82 1118.58,1373.15 1119.96,1373.15 1119.96,1374.43 1121.33,1374.43 1121.33,1371.5 1122.71,1371.5 1122.71,1379.09 1124.08,1379.09 1124.08,1385.35 1125.46,1385.35 1125.46,1375.8 1126.83,1375.8 1126.83,1372.36 1128.2,1372.36 1128.2,1389 1129.58,1389 1129.58,1384.08 1130.95,1384.08 1130.95,1380.41 1132.33,1380.41 1132.33,1376.2 1133.7,1376.2 1133.7,1370.36 1135.08,1370.36 1135.08,1373.99 1136.45,1373.99 1136.45,1377.39 1137.83,1377.39 1137.83,1370.06 1139.2,1370.06 1139.2,1367.68 1140.57,1367.68 1140.57,1372.25 1141.95,1372.25 1141.95,1367.02 1143.32,1367.02 1143.32,1368.41 1144.7,1368.41 1144.7,1378.55 1146.07,1378.55 1146.07,1381.23 1147.45,1381.23 1147.45,1374.57 1148.82,1374.57 1148.82,1368.15 1150.2,1368.15 1150.2,1362.03 1151.57,1362.03 1151.57,1364.27 1152.94,1364.27 1152.94,1368.27 1154.32,1368.27 1154.32,1367.62 1155.69,1367.62 1155.69,1361.78 1157.07,1361.78 1157.07,1360.38 1158.44,1360.38 1158.44,1369.23 1159.82,1369.23 1159.82,1377.38 1161.19,1377.38 1161.19,1364.79 1162.57,1364.79 1162.57,1374.83 1163.94,1374.83 1163.94,1376.45 1165.31,1376.45 1165.31,1378.27 1166.69,1378.27 1166.69,1368.6 1168.06,1368.6 1168.06,1376.58 1169.44,1376.58 1169.44,1367.93 1170.81,1367.93 1170.81,1367.81 1172.19,1367.81 1172.19,1382.01 1173.56,1382.01 1173.56,1372.99 1174.94,1372.99 1174.94,1373.88 1176.31,1373.88 1176.31,1378.82 1177.69,1378.82 1177.69,1381.22 1179.06,1381.22 1179.06,1382.2 1180.43,1382.2 1180.43,1387.14 1181.81,1387.14 1181.81,1387.18 1183.18,1387.18 1183.18,1389.25 1184.56,1389.25 1184.56,1390.19 1185.93,1390.19 1185.93,1390.31 1187.31,1390.31 1187.31,1398.63 1188.68,1398.63 1188.68,1402.02 1190.06,1402.02 1190.06,1395.78 1191.43,1395.78 1191.43,1405.16 1192.8,1405.16 1192.8,1414.57 1194.18,1414.57 1194.18,1405.4 1195.55,1405.4 1195.55,1398.59 1196.93,1398.59 1196.93,1401.3 1198.3,1401.3 1198.3,1399.53 1199.68,1399.53 1199.68,1389.21 1201.05,1389.21 1201.05,1375.17 1202.43,1375.17 1202.43,1361.87 1203.8,1361.87 1203.8,1371.22 1205.17,1371.22 1205.17,1363.39 1206.55,1363.39 1206.55,1357.4 1207.92,1357.4 1207.92,1364.53 1209.3,1364.53 1209.3,1355.88 1210.67,1355.88 1210.67,1348.84 1212.05,1348.84 1212.05,1341.04 1213.42,1341.04 1213.42,1335.48 1214.8,1335.48 1214.8,1333.66 1216.17,1333.66 1216.17,1323.35 1217.54,1323.35 1217.54,1320.88 1218.92,1320.88 1218.92,1319.47 1220.29,1319.47 1220.29,1324.18 1221.67,1324.18 1221.67,1316.13 1223.04,1316.13 1223.04,1313.64 1224.42,1313.64 1224.42,1310.74 1225.79,1310.74 1225.79,1312.53 1227.17,1312.53 1227.17,1312.9 1228.54,1312.9 1228.54,1308.04 1229.92,1308.04 1229.92,1306.4 1231.29,1306.4 1231.29,1299.73 1232.66,1299.73 1232.66,1289.35 1234.04,1289.35 1234.04,1281.9 1235.41,1281.9 1235.41,1289.92 1236.79,1289.92 1236.79,1288.76 1238.16,1288.76 1238.16,1303.47 1239.54,1303.47 1239.54,1310.58 1240.91,1310.58 1240.91,1311.14 1242.29,1311.14 1242.29,1313.09 1243.66,1313.09 1243.66,1312.33 1245.03,1312.33 1245.03,1306.67 1246.41,1306.67 1246.41,1321.26 1247.78,1321.26 1247.78,1326.12 1249.16,1326.12 1249.16,1320.2 1250.53,1320.2 1250.53,1313.03 1251.91,1313.03 1251.91,1310.64 1253.28,1310.64 1253.28,1312.41 1254.66,1312.41 1254.66,1330.84 1256.03,1330.84 1256.03,1327.54 1257.4,1327.54 1257.4,1338.65 1258.78,1338.65 1258.78,1338.33 1260.15,1338.33 1260.15,1334.65 1261.53,1334.65 1261.53,1334.62 1262.9,1334.62 1262.9,1335.87 1264.28,1335.87 1264.28,1329.73 1265.65,1329.73 1265.65,1327.12 1267.03,1327.12 1267.03,1322.32 1268.4,1322.32 1268.4,1332.73 1269.77,1332.73 1269.77,1326.09 1271.15,1326.09 1271.15,1311.97 1272.52,1311.97 1272.52,1306.39 1273.9,1306.39 1273.9,1304.17 1275.27,1304.17 1275.27,1293.53 1276.65,1293.53 1276.65,1294.93 1278.02,1294.93 1278.02,1287.01 1279.4,1287.01 1279.4,1286.48 1280.77,1286.48 1280.77,1285.87 1282.14,1285.87 1282.14,1302.23 1283.52,1302.23 1283.52,1300.01 1284.89,1300.01 1284.89,1290.22 1286.27,1290.22 1286.27,1294.99 1287.64,1294.99 1287.64,1292.44 1289.02,1292.44 1289.02,1283.09 1290.39,1283.09 1290.39,1286.48 1291.77,1286.48 1291.77,1280.57 1293.14,1280.57 1293.14,1283.6 1294.52,1283.6 1294.52,1284.86 1295.89,1284.86 1295.89,1287.07 1297.26,1287.07 1297.26,1286.03 1298.64,1286.03 1298.64,1278.4 1300.01,1278.4 1300.01,1273.62 1301.39,1273.62 1301.39,1268.6 1302.76,1268.6 1302.76,1269.93 1304.14,1269.93 1304.14,1278.55 1305.51,1278.55 1305.51,1285.2 1306.89,1285.2 1306.89,1287.05 1308.26,1287.05 1308.26,1282.82 1309.63,1282.82 1309.63,1280.83 1311.01,1280.83 1311.01,1279.69 1312.38,1279.69 1312.38,1274.9 1313.76,1274.9 1313.76,1269.97 1315.13,1269.97 1315.13,1269.49 1316.51,1269.49 1316.51,1267.05 1317.88,1267.05 1317.88,1271.76 1319.26,1271.76 1319.26,1267.01 1320.63,1267.01 1320.63,1278.03 1322,1278.03 1322,1286.18 1323.38,1286.18 1323.38,1296.13 1324.75,1296.13 1324.75,1290.1 1326.13,1290.1 1326.13,1275.75 1327.5,1275.75 1327.5,1276.23 1328.88,1276.23 1328.88,1274.21 1330.25,1274.21 1330.25,1263.85 1331.63,1263.85 1331.63,1264.98 1333,1264.98 1333,1259.39 1334.37,1259.39 1334.37,1273.25 1335.75,1273.25 1335.75,1262.87 1337.12,1262.87 1337.12,1262.56 1338.5,1262.56 1338.5,1252.07 1339.87,1252.07 1339.87,1249.37 1341.25,1249.37 1341.25,1235.88 1342.62,1235.88 1342.62,1238.2 1344,1238.2 1344,1233.27 1345.37,1233.27 1345.37,1222.88 1346.74,1222.88 1346.74,1219.57 1348.12,1219.57 1348.12,1215.7 1349.49,1215.7 1349.49,1217.21 1350.87,1217.21 1350.87,1218.58 1352.24,1218.58 1352.24,1208.8 1353.62,1208.8 1353.62,1213.68 1354.99,1213.68 1354.99,1210.97 1356.37,1210.97 1356.37,1201.57 1357.74,1201.57 1357.74,1190.67 1359.12,1190.67 1359.12,1189.07 1360.49,1189.07 1360.49,1183.86 1361.86,1183.86 1361.86,1190.51 1363.24,1190.51 1363.24,1190.68 1364.61,1190.68 1364.61,1201.39 1365.99,1201.39 1365.99,1194.66 1367.36,1194.66 1367.36,1196.62 1368.74,1196.62 1368.74,1207.15 1370.11,1207.15 1370.11,1209.64 1371.49,1209.64 1371.49,1206.5 1372.86,1206.5 1372.86,1215.71 1374.23,1215.71 1374.23,1206.79 1375.61,1206.79 1375.61,1204.18 1376.98,1204.18 1376.98,1192.12 1378.36,1192.12 1378.36,1195.06 1379.73,1195.06 1379.73,1194.38 1381.11,1194.38 1381.11,1185.25 1382.48,1185.25 1382.48,1186.44 1383.86,1186.44 1383.86,1182.83 1385.23,1182.83 1385.23,1178.76 1386.6,1178.76 1386.6,1173.8 1387.98,1173.8 1387.98,1171.99 1389.35,1171.99 1389.35,1169.05 1390.73,1169.05 1390.73,1158.3 1392.1,1158.3 1392.1,1163.65 1393.48,1163.65 1393.48,1158.5 1394.85,1158.5 1394.85,1153.85 1396.23,1153.85 1396.23,1163.88 1397.6,1163.88 1397.6,1156.04 1398.97,1156.04 1398.97,1139.73 1400.35,1139.73 1400.35,1142.46 1401.72,1142.46 1401.72,1144.83 1403.1,1144.83 1403.1,1130.7 1404.47,1130.7 1404.47,1137.63 1405.85,1137.63 1405.85,1145.42 1407.22,1145.42 1407.22,1136.92 1408.6,1136.92 1408.6,1130.19 1409.97,1130.19 1409.97,1139.9 1411.34,1139.9 1411.34,1137.87 1412.72,1137.87 1412.72,1145.54 1414.09,1145.54 1414.09,1138.59 1415.47,1138.59 1415.47,1141.56 1416.84,1141.56 1416.84,1129.79 1418.22,1129.79 1418.22,1128.65 1419.59,1128.65 1419.59,1138.92 1420.97,1138.92 1420.97,1138.35 1422.34,1138.35 1422.34,1148.38 1423.72,1148.38 1423.72,1143.67 1425.09,1143.67 1425.09,1143.37 1426.46,1143.37 1426.46,1152.61 1427.84,1152.61 1427.84,1152.43 1429.21,1152.43 1429.21,1150.97 1430.59,1150.97 1430.59,1133.46 1431.96,1133.46 1431.96,1154.38 1433.34,1154.38 1433.34,1147.94 1434.71,1147.94 1434.71,1139.13 1436.09,1139.13 1436.09,1143.62 1437.46,1143.62 1437.46,1133.46 1438.83,1133.46 1438.83,1146.18 1440.21,1146.18 1440.21,1141.06 1441.58,1141.06 1441.58,1155.65 1442.96,1155.65 1442.96,1159.53 1444.33,1159.53 1444.33,1164.69 1445.71,1164.69 1445.71,1166.76 1447.08,1166.76 1447.08,1173.82 1448.46,1173.82 1448.46,1176.06 1449.83,1176.06 1449.83,1164.11 1451.2,1164.11 1451.2,1167.02 1452.58,1167.02 1452.58,1168.22 1453.95,1168.22 1453.95,1160.21 1455.33,1160.21 1455.33,1148.86 1456.7,1148.86 1456.7,1158.68 1458.08,1158.68 1458.08,1147.54 1459.45,1147.54 1459.45,1142.81 1460.83,1142.81 1460.83,1144.46 1462.2,1144.46 1462.2,1118.8 1463.57,1118.8 1463.57,1125.81 1464.95,1125.81 1464.95,1129.34 1466.32,1129.34 1466.32,1133.4 1467.7,1133.4 1467.7,1135.62 1469.07,1135.62 1469.07,1152.34 1470.45,1152.34 1470.45,1159.16 1471.82,1159.16 1471.82,1166.11 1473.2,1166.11 1473.2,1161.34 1474.57,1161.34 1474.57,1163.16 1475.94,1163.16 1475.94,1165.62 1477.32,1165.62 1477.32,1165.69 1478.69,1165.69 1478.69,1174.16 1480.07,1174.16 1480.07,1174.35 1481.44,1174.35 1481.44,1164.61 1482.82,1164.61 1482.82,1157.73 1484.19,1157.73 1484.19,1163.64 1485.57,1163.64 1485.57,1156.94 1486.94,1156.94 1486.94,1143.7 1488.32,1143.7 1488.32,1123.78 1489.69,1123.78 1489.69,1141.89 1491.06,1141.89 1491.06,1122.17 1492.44,1122.17 1492.44,1126.36 1493.81,1126.36 1493.81,1133.71 1495.19,1133.71 1495.19,1137.92 1496.56,1137.92 1496.56,1135.45 1497.94,1135.45 1497.94,1148.78 1499.31,1148.78 1499.31,1136.86 1500.69,1136.86 1500.69,1136.56 1502.06,1136.56 1502.06,1139.53 1503.43,1139.53 1503.43,1134.16 1504.81,1134.16 1504.81,1145.69 1506.18,1145.69 1506.18,1156.55 1507.56,1156.55 1507.56,1156.83 1508.93,1156.83 1508.93,1159.63 1510.31,1159.63 1510.31,1165.32 1511.68,1165.32 1511.68,1182.68 1513.06,1182.68 1513.06,1175.29 1514.43,1175.29 1514.43,1163.75 1515.8,1163.75 1515.8,1149.55 1517.18,1149.55 1517.18,1153.25 1518.55,1153.25 1518.55,1164.46 1519.93,1164.46 1519.93,1147.65 1521.3,1147.65 1521.3,1148.52 1522.68,1148.52 1522.68,1156.56 1524.05,1156.56 1524.05,1157.85 1525.43,1157.85 1525.43,1145.37 1526.8,1145.37 1526.8,1152.81 1528.17,1152.81 1528.17,1151.66 1529.55,1151.66 1529.55,1158.99 1530.92,1158.99 1530.92,1152.22 1532.3,1152.22 1532.3,1149.02 1533.67,1149.02 1533.67,1132.26 1535.05,1132.26 1535.05,1120.59 1536.42,1120.59 1536.42,1134.48 1537.8,1134.48 1537.8,1124.22 1539.17,1124.22 1539.17,1130.19 1540.55,1130.19 1540.55,1132.55 1541.92,1132.55 1541.92,1121.27 1543.29,1121.27 1543.29,1123.71 1544.67,1123.71 1544.67,1129.35 1546.04,1129.35 1546.04,1124.66 1547.42,1124.66 1547.42,1115.39 1548.79,1115.39 1548.79,1136.28 1550.17,1136.28 1550.17,1143.73 1551.54,1143.73 1551.54,1143.96 1552.92,1143.96 1552.92,1127.43 1554.29,1127.43 1554.29,1122.05 1555.66,1122.05 1555.66,1120.53 1557.04,1120.53 1557.04,1113.97 1558.41,1113.97 1558.41,1105.7 1559.79,1105.7 1559.79,1096.4 1561.16,1096.4 1561.16,1096.93 1562.54,1096.93 1562.54,1098.03 1563.91,1098.03 1563.91,1088.99 1565.29,1088.99 1565.29,1095.2 1566.66,1095.2 1566.66,1100.65 1568.03,1100.65 1568.03,1095.09 1569.41,1095.09 1569.41,1099.2 1570.78,1099.2 1570.78,1081.41 1572.16,1081.41 1572.16,1084.29 1573.53,1084.29 1573.53,1060.7 1574.91,1060.7 1574.91,1051.75 1576.28,1051.75 1576.28,1066.43 1577.66,1066.43 1577.66,1065.49 1579.03,1065.49 1579.03,1061.54 1580.4,1061.54 1580.4,1065.09 1581.78,1065.09 1581.78,1064.53 1583.15,1064.53 1583.15,1048.38 1584.53,1048.38 1584.53,1041.95 1585.9,1041.95 1585.9,1046.34 1587.28,1046.34 1587.28,1037.96 1588.65,1037.96 1588.65,1050.98 1590.03,1050.98 1590.03,1050.37 1591.4,1050.37 1591.4,1041.48 1592.77,1041.48 1592.77,1042.5 1594.15,1042.5 1594.15,1057.27 1595.52,1057.27 1595.52,1064.14 1596.9,1064.14 1596.9,1076.49 1598.27,1076.49 1598.27,1080.56 1599.65,1080.56 1599.65,1085 1601.02,1085 1601.02,1073.9 1602.4,1073.9 1602.4,1079.54 1603.77,1079.54 1603.77,1083.31 1605.15,1083.31 1605.15,1081.21 1606.52,1081.21 1606.52,1090.52 1607.89,1090.52 1607.89,1084.25 1609.27,1084.25 1609.27,1079.99 1610.64,1079.99 1610.64,1086.33 1612.02,1086.33 1612.02,1087.71 1613.39,1087.71 1613.39,1091.67 1614.77,1091.67 1614.77,1097.85 1616.14,1097.85 1616.14,1109.96 1617.52,1109.96 1617.52,1114.98 1618.89,1114.98 1618.89,1112.05 1620.26,1112.05 1620.26,1132.61 1621.64,1132.61 1621.64,1125.2 1623.01,1125.2 1623.01,1136.18 1624.39,1136.18 1624.39,1135.28 1625.76,1135.28 1625.76,1146.07 1627.14,1146.07 1627.14,1141 1628.51,1141 1628.51,1140.85 1629.89,1140.85 1629.89,1144.71 1631.26,1144.71 1631.26,1134.86 1632.63,1134.86 1632.63,1125.36 1634.01,1125.36 1634.01,1123.69 1635.38,1123.69 1635.38,1110.93 1636.76,1110.93 1636.76,1108.52 1638.13,1108.52 1638.13,1116.79 1639.51,1116.79 1639.51,1124.33 1640.88,1124.33 1640.88,1127.01 1642.26,1127.01 1642.26,1119.11 1643.63,1119.11 1643.63,1123.62 1645,1123.62 1645,1132.39 1646.38,1132.39 1646.38,1125.92 1647.75,1125.92 1647.75,1122.76 1649.13,1122.76 1649.13,1121.11 1650.5,1121.11 1650.5,1104.59 1651.88,1104.59 1651.88,1099.05 1653.25,1099.05 1653.25,1106.85 1654.63,1106.85 1654.63,1097.54 1656,1097.54 1656,1101.08 1657.37,1101.08 1657.37,1101.09 1658.75,1101.09 1658.75,1106.56 1660.12,1106.56 1660.12,1096.73 1661.5,1096.73 1661.5,1084.98 1662.87,1084.98 1662.87,1079.28 1664.25,1079.28 1664.25,1073.33 1665.62,1073.33 1665.62,1069.81 1667,1069.81 1667,1079.34 1668.37,1079.34 1668.37,1066.32 1669.75,1066.32 1669.75,1073.31 1671.12,1073.31 1671.12,1072.69 1672.49,1072.69 1672.49,1080.1 1673.87,1080.1 1673.87,1079.84 1675.24,1079.84 1675.24,1077.58 1676.62,1077.58 1676.62,1079.29 1677.99,1079.29 1677.99,1081.23 1679.37,1081.23 1679.37,1084.41 1680.74,1084.41 1680.74,1096.27 1682.12,1096.27 1682.12,1127.02 1683.49,1127.02 1683.49,1118.72 1684.86,1118.72 1684.86,1127.04 1686.24,1127.04 1686.24,1149.51 1687.61,1149.51 1687.61,1158.08 1688.99,1158.08 1688.99,1167.9 1690.36,1167.9 1690.36,1164.18 1691.74,1164.18 1691.74,1157.84 1693.11,1157.84 1693.11,1153.96 1694.49,1153.96 1694.49,1151.46 1695.86,1151.46 1695.86,1146.12 1697.23,1146.12 1697.23,1139.15 1698.61,1139.15 1698.61,1130.41 1699.98,1130.41 1699.98,1138.81 1701.36,1138.81 1701.36,1138.21 1702.73,1138.21 1702.73,1145.46 1704.11,1145.46 1704.11,1152.12 1705.48,1152.12 1705.48,1149.45 1706.86,1149.45 1706.86,1157.9 1708.23,1157.9 1708.23,1161.19 1709.6,1161.19 1709.6,1138 1710.98,1138 1710.98,1133.97 1712.35,1133.97 1712.35,1131.6 1713.73,1131.6 1713.73,1139.56 1715.1,1139.56 1715.1,1131.98 1716.48,1131.98 1716.48,1130.04 1717.85,1130.04 1717.85,1128.8 1719.23,1128.8 1719.23,1126.35 1720.6,1126.35 1720.6,1100.62 1721.97,1100.62 1721.97,1109.07 1723.35,1109.07 1723.35,1110.25 1724.72,1110.25 1724.72,1123.36 1726.1,1123.36 1726.1,1126 1727.47,1126 1727.47,1125.9 1728.85,1125.9 1728.85,1137.42 1730.22,1137.42 1730.22,1135.49 1731.6,1135.49 1731.6,1145.07 1732.97,1145.07 1732.97,1150.97 1734.35,1150.97 1734.35,1155.35 1735.72,1155.35 1735.72,1154.12 1737.09,1154.12 1737.09,1157.61 1738.47,1157.61 1738.47,1155.44 1739.84,1155.44 1739.84,1145.01 1741.22,1145.01 1741.22,1138.43 1742.59,1138.43 1742.59,1134.52 1743.97,1134.52 1743.97,1142.06 1745.34,1142.06 1745.34,1138.39 1746.72,1138.39 1746.72,1132.89 1748.09,1132.89 1748.09,1127.42 1749.46,1127.42 1749.46,1112.07 1750.84,1112.07 1750.84,1118.38 1752.21,1118.38 1752.21,1117.2 1753.59,1117.2 1753.59,1110.03 1754.96,1110.03 1754.96,1118.61 1756.34,1118.61 1756.34,1120.15 1757.71,1120.15 1757.71,1124.92 1759.09,1124.92 1759.09,1121.11 1760.46,1121.11 1760.46,1113.09 1761.83,1113.09 1761.83,1112.71 1763.21,1112.71 1763.21,1104.36 1764.58,1104.36 1764.58,1100.03 1765.96,1100.03 1765.96,1089.66 1767.33,1089.66 1767.33,1072.62 1768.71,1072.62 1768.71,1075.84 1770.08,1075.84 1770.08,1072.15 1771.46,1072.15 1771.46,1084.12 1772.83,1084.12 1772.83,1094.51 1774.2,1094.51 1774.2,1110.79 1775.58,1110.79 1775.58,1115.32 1776.95,1115.32 1776.95,1126.34 1778.33,1126.34 1778.33,1124.53 1779.7,1124.53 1779.7,1126.72 1781.08,1126.72 1781.08,1106.91 1782.45,1106.91 1782.45,1104.48 1783.83,1104.48 1783.83,1085.29 1785.2,1085.29 1785.2,1089.61 1786.57,1089.61 1786.57,1086.98 1787.95,1086.98 1787.95,1092.25 1789.32,1092.25 1789.32,1083.93 1790.7,1083.93 1790.7,1077.2 1792.07,1077.2 1792.07,1068.59 1793.45,1068.59 1793.45,1075.47 1794.82,1075.47 1794.82,1066.43 1796.2,1066.43 1796.2,1065.37 1797.57,1065.37 1797.57,1062.49 1798.95,1062.49 1798.95,1051.59 1800.32,1051.59 1800.32,1055.32 1801.69,1055.32 1801.69,1058.44 1803.07,1058.44 1803.07,1054.52 1804.44,1054.52 1804.44,1041.94 1805.82,1041.94 1805.82,1026.05 1807.19,1026.05 1807.19,1016.1 1808.57,1016.1 1808.57,1041.1 1809.94,1041.1 1809.94,1052.52 1811.32,1052.52 1811.32,1057.96 1812.69,1057.96 1812.69,1068.59 1814.06,1068.59 1814.06,1069.89 1815.44,1069.89 1815.44,1065.21 1816.81,1065.21 1816.81,1057.49 1818.19,1057.49 1818.19,1058.75 1819.56,1058.75 1819.56,1045.2 1820.94,1045.2 1820.94,1056.8 1822.31,1056.8 1822.31,1048.91 1823.69,1048.91 1823.69,1037.75 1825.06,1037.75 1825.06,1035.14 1826.43,1035.14 1826.43,1026.41 1827.81,1026.41 1827.81,1012.31 1829.18,1012.31 1829.18,1011.77 1830.56,1011.77 1830.56,997.926 1831.93,997.926 1831.93,1003.54 1833.31,1003.54 1833.31,986.181 1834.68,986.181 1834.68,984.076 1836.06,984.076 1836.06,1001.14 1837.43,1001.14 1837.43,992.789 1838.8,992.789 1838.8,997.97 1840.18,997.97 1840.18,991.481 1841.55,991.481 1841.55,992.969 1842.93,992.969 1842.93,980.374 1844.3,980.374 1844.3,978.431 1845.68,978.431 1845.68,984.134 1847.05,984.134 1847.05,975.032 1848.43,975.032 1848.43,985.028 1849.8,985.028 1849.8,994.642 1851.17,994.642 1851.17,985.22 1852.55,985.22 1852.55,982.113 1853.92,982.113 1853.92,989.01 1855.3,989.01 1855.3,1006.36 1856.67,1006.36 1856.67,1015.74 1858.05,1015.74 1858.05,1020.54 1859.42,1020.54 1859.42,1014.73 1860.8,1014.73 1860.8,1011.46 1862.17,1011.46 1862.17,1014.33 1863.55,1014.33 1863.55,1025.59 1864.92,1025.59 1864.92,1027.03 1866.29,1027.03 1866.29,1026.6 1867.67,1026.6 1867.67,1020.17 1869.04,1020.17 1869.04,1042.55 1870.42,1042.55 1870.42,1055.31 1871.79,1055.31 1871.79,1039.15 1873.17,1039.15 1873.17,1031.49 1874.54,1031.49 1874.54,1042.29 1875.92,1042.29 1875.92,1053.93 1877.29,1053.93 1877.29,1054.36 1878.66,1054.36 1878.66,1055 1880.04,1055 1880.04,1046.04 1881.41,1046.04 1881.41,1049.33 1882.79,1049.33 1882.79,1053.06 1884.16,1053.06 1884.16,1047.47 1885.54,1047.47 1885.54,1053.07 1886.91,1053.07 1886.91,1055.27 1888.29,1055.27 1888.29,1043.67 1889.66,1043.67 1889.66,1049.71 1891.03,1049.71 1891.03,1049.23 1892.41,1049.23 1892.41,1043.89 1893.78,1043.89 1893.78,1045.06 1895.16,1045.06 1895.16,1035.52 1896.53,1035.52 1896.53,1040.4 1897.91,1040.4 1897.91,1054.06 1899.28,1054.06 1899.28,1034.77 1900.66,1034.77 1900.66,1045.77 1902.03,1045.77 1902.03,1033.88 1903.4,1033.88 1903.4,1027.88 1904.78,1027.88 1904.78,1028 1906.15,1028 1906.15,1001.93 1907.53,1001.93 1907.53,1006.73 1908.9,1006.73 1908.9,1000.39 1910.28,1000.39 1910.28,1002.04 1911.65,1002.04 1911.65,1004.89 1913.03,1004.89 1913.03,1022.53 1914.4,1022.53 1914.4,1019.01 1915.78,1019.01 1915.78,1020.2 1917.15,1020.2 1917.15,1000.15 1918.52,1000.15 1918.52,1024.97 1919.9,1024.97 1919.9,1002.42 1921.27,1002.42 1921.27,1006.14 1922.65,1006.14 1922.65,999.156 1924.02,999.156 1924.02,1006.33 1925.4,1006.33 1925.4,996.692 1926.77,996.692 1926.77,971.701 1928.15,971.701 1928.15,963.458 1929.52,963.458 1929.52,969.673 1930.89,969.673 1930.89,958.631 1932.27,958.631 1932.27,952.96 1933.64,952.96 1933.64,959.331 1935.02,959.331 1935.02,949.606 1936.39,949.606 1936.39,938.395 1937.77,938.395 1937.77,931.247 1939.14,931.247 1939.14,913.075 1940.52,913.075 1940.52,908.55 1941.89,908.55 1941.89,900.422 1943.26,900.422 1943.26,886.755 1944.64,886.755 1944.64,884.505 1946.01,884.505 1946.01,879.526 1947.39,879.526 1947.39,887.39 1948.76,887.39 1948.76,900.608 1950.14,900.608 1950.14,901.834 1951.51,901.834 1951.51,901.382 1952.89,901.382 1952.89,901.119 1954.26,901.119 1954.26,906.32 1955.63,906.32 1955.63,910.323 1957.01,910.323 1957.01,897.903 1958.38,897.903 1958.38,895.661 1959.76,895.661 1959.76,904.559 1961.13,904.559 1961.13,906.627 1962.51,906.627 1962.51,897.295 1963.88,897.295 1963.88,901.161 1965.26,901.161 1965.26,906.926 1966.63,906.926 1966.63,921.049 1968,921.049 1968,924.653 1969.38,924.653 1969.38,941.422 1970.75,941.422 1970.75,941.616 1972.13,941.616 1972.13,957.634 1973.5,957.634 1973.5,979.719 1974.88,979.719 1974.88,982.412 1976.25,982.412 1976.25,981.866 1977.63,981.866 1977.63,968.759 1979,968.759 1979,967.694 1980.38,967.694 1980.38,968.974 1981.75,968.974 1981.75,970.098 1983.12,970.098 1983.12,966.372 1984.5,966.372 1984.5,966.975 1985.87,966.975 1985.87,967.583 1987.25,967.583 1987.25,977.355 1988.62,977.355 1988.62,980.574 1990,980.574 1990,984.668 1991.37,984.668 1991.37,994.71 1992.75,994.71 1992.75,995.757 1994.12,995.757 1994.12,993.753 1995.49,993.753 1995.49,1001.2 1996.87,1001.2 1996.87,1002.94 1998.24,1002.94 1998.24,1001.15 1999.62,1001.15 1999.62,1003.32 2000.99,1003.32 2000.99,1004.84 2002.37,1004.84 2002.37,1001.24 2003.74,1001.24 2003.74,1004.93 2005.12,1004.93 2005.12,1012.22 2006.49,1012.22 2006.49,1010.11 2007.86,1010.11 2007.86,1014.48 2009.24,1014.48 2009.24,1013.66 2010.61,1013.66 2010.61,1010.54 2011.99,1010.54 2011.99,1012.57 2013.36,1012.57 2013.36,1009.89 2014.74,1009.89 2014.74,1010.9 2016.11,1010.9 2016.11,1006.12 2017.49,1006.12 2017.49,1007.68 2018.86,1007.68 2018.86,1003.27 2020.23,1003.27 2020.23,1008.15 2021.61,1008.15 2021.61,1007.41 2022.98,1007.41 2022.98,1008.52 2024.36,1008.52 2024.36,1014.11 2025.73,1014.11 2025.73,1015.32 2027.11,1015.32 2027.11,1017.77 2028.48,1017.77 2028.48,1012.82 2029.86,1012.82 2029.86,1010.2 2031.23,1010.2 2031.23,1009.1 2032.6,1009.1 2032.6,1003.64 2033.98,1003.64 2033.98,1001.51 2035.35,1001.51 2035.35,999.814 2036.73,999.814 2036.73,1000.82 2038.1,1000.82 2038.1,998.235 2039.48,998.235 2039.48,1000.68 2040.85,1000.68 2040.85,995.923 2042.23,995.923 2042.23,998.848 2043.6,998.848 2043.6,1001.75 2044.98,1001.75 2044.98,1003.49 2046.35,1003.49 2046.35,999.171 2047.72,999.171 2047.72,1000.2 2049.1,1000.2 2049.1,999.829 2050.47,999.829 2050.47,1005.64 2051.85,1005.64 2051.85,999.213 2053.22,999.213 2053.22,997.042 2054.6,997.042 2054.6,991.377 2055.97,991.377 2055.97,996.498 2057.35,996.498 2057.35,1001.34 2058.72,1001.34 2058.72,997.224 2060.09,997.224 2060.09,996.255 2061.47,996.255 2061.47,994.716 2062.84,994.716 2062.84,994.369 2064.22,994.369 2064.22,992.931 2065.59,992.931 2065.59,988.336 2066.97,988.336 2066.97,991.167 2068.34,991.167 2068.34,984.963 2069.72,984.963 2069.72,985.213 2071.09,985.213 2071.09,988.23 2072.46,988.23 2072.46,994.023 2073.84,994.023 2073.84,985.944 2075.21,985.944 2075.21,989.091 2076.59,989.091 2076.59,990.376 2077.96,990.376 2077.96,992.027 2079.34,992.027 2079.34,989.762 2080.71,989.762 2080.71,991.766 2082.09,991.766 2082.09,990.038 2083.46,990.038 2083.46,990.274 2084.83,990.274 2084.83,986.377 2086.21,986.377 2086.21,987.13 2087.58,987.13 2087.58,990.077 2088.96,990.077 2088.96,988.401 2090.33,988.401 2090.33,991.693 2091.71,991.693 2091.71,985.844 2093.08,985.844 2093.08,980.763 2094.46,980.763 2094.46,978.157 2095.83,978.157 2095.83,976.425 2097.2,976.425 2097.2,979.057 2098.58,979.057 2098.58,979.449 2099.95,979.449 2099.95,976.895 2101.33,976.895 2101.33,969.509 2102.7,969.509 2102.7,971.947 2104.08,971.947 2104.08,975.167 2105.45,975.167 2105.45,967.879 2106.83,967.879 2106.83,971.831 2108.2,971.831 2108.2,973.723 2109.58,973.723 2109.58,969.135 2110.95,969.135 2110.95,978.402 2112.32,978.402 2112.32,978.977 2113.7,978.977 2113.7,969.46 2115.07,969.46 2115.07,964.556 2116.45,964.556 2116.45,963.245 2117.82,963.245 2117.82,956.496 2119.2,956.496 2119.2,952.788 2120.57,952.788 2120.57,949.396 2121.95,949.396 2121.95,952.485 2123.32,952.485 2123.32,950.035 2124.69,950.035 2124.69,950.717 2126.07,950.717 2126.07,951.064 2127.44,951.064 2127.44,951.521 2128.82,951.521 2128.82,953.288 2130.19,953.288 2130.19,951.901 2131.57,951.901 2131.57,951.47 2132.94,951.47 2132.94,952.865 2134.32,952.865 2134.32,956.137 2135.69,956.137 2135.69,954.363 2137.06,954.363 2137.06,957.759 2138.44,957.759 2138.44,956.564 2139.81,956.564 2139.81,950.744 2141.19,950.744 2141.19,951.773 2142.56,951.773 2142.56,947.652 2143.94,947.652 2143.94,945.083 2145.31,945.083 2145.31,943.896 2146.69,943.896 2146.69,943.139 2148.06,943.139 2148.06,946.796 2149.43,946.796 2149.43,948.339 2150.81,948.339 2150.81,954.895 2152.18,954.895 2152.18,954.894 2153.56,954.894 2153.56,954.448 2154.93,954.448 2154.93,957.672 2156.31,957.672 2156.31,951.725 2157.68,951.725 2157.68,962.425 2159.06,962.425 2159.06,967.088 2160.43,967.088 2160.43,963.186 2161.8,963.186 2161.8,965.736 2163.18,965.736 2163.18,965.466 2164.55,965.466 2164.55,963.233 2165.93,963.233 2165.93,964.715 2167.3,964.715 2167.3,963.924 2168.68,963.924 2168.68,959.265 2170.05,959.265 2170.05,963.835 2171.43,963.835 2171.43,963.972 2172.8,963.972 2172.8,963.196 2174.18,963.196 2174.18,959.873 2175.55,959.873 2175.55,962.398 2176.92,962.398 2176.92,960.761 2178.3,960.761 2178.3,955.076 2179.67,955.076 2179.67,966.454 2181.05,966.454 2181.05,963.539 2182.42,963.539 2182.42,965.313 2183.8,965.313 2183.8,964.826 2185.17,964.826 2185.17,963.221 2186.55,963.221 2186.55,963.72 2187.92,963.72 2187.92,961.552 2189.29,961.552 2189.29,957.456 2190.67,957.456 2190.67,968.694 2192.04,968.694 2192.04,961.833 2193.42,961.833 2193.42,957.669 2194.79,957.669 2194.79,952.528 2196.17,952.528 2196.17,947.098 2197.54,947.098 2197.54,941.794 2198.92,941.794 2198.92,951.515 2200.29,951.515 2200.29,950.798 2201.66,950.798 2201.66,942.227 2203.04,942.227 2203.04,943.533 2204.41,943.533 2204.41,947.123 2205.79,947.123 2205.79,939.947 2207.16,939.947 2207.16,941.015 2208.54,941.015 2208.54,921.703 2209.91,921.703 2209.91,914.805 2211.29,914.805 2211.29,917.039 2212.66,917.039 2212.66,920.85 2214.03,920.85 2214.03,913.722 2215.41,913.722 2215.41,920.929 2216.78,920.929 2216.78,922.743 2218.16,922.743 2218.16,917.234 2219.53,917.234 2219.53,918.301 2220.91,918.301 2220.91,908.433 2222.28,908.433 2222.28,906.415 2223.66,906.415 2223.66,905.145 2225.03,905.145 2225.03,892.775 2226.41,892.775 2226.41,894.499 2227.78,894.499 2227.78,899.756 2229.15,899.756 2229.15,897.741 2230.53,897.741 2230.53,901.963 2231.9,901.963 2231.9,903.053 2233.28,903.053 2233.28,907.137 2234.65,907.137 2234.65,910.983 2236.03,910.983 2236.03,905.78 2237.4,905.78 2237.4,899.443 2238.78,899.443 2238.78,895.988 2240.15,895.988 2240.15,901.104 2241.52,901.104 2241.52,906.328 2242.9,906.328 2242.9,902.53 2244.27,902.53 2244.27,904.802 2245.65,904.802 2245.65,895.264 2247.02,895.264 2247.02,902.63 2248.4,902.63 2248.4,898.317 2249.77,898.317 2249.77,902.711 2251.15,902.711 2251.15,902.741 2252.52,902.741 2252.52,896.574 2253.89,896.574 2253.89,897.119 2255.27,897.119 2255.27,907.35 2256.64,907.35 2256.64,899.538 2258.02,899.538 2258.02,890.763 2259.39,890.763 2259.39,892.542 2260.77,892.542 2260.77,881.646 2262.14,881.646 2262.14,878.927 2263.52,878.927 2263.52,869.689 2264.89,869.689 2264.89,866.976 2266.26,866.976 2266.26,868.419 2267.64,868.419 2267.64,864.372 2269.01,864.372 2269.01,862.206 2270.39,862.206 2270.39,851.208 2271.76,851.208 2271.76,844.885 2273.14,844.885 2273.14,842.622 2274.51,842.622 2274.51,845.297 2275.89,845.297 2275.89,850.884 2277.26,850.884 2277.26,840.668 2278.63,840.668 2278.63,833.035 2280.01,833.035 2280.01,838.63 2281.38,838.63 2281.38,829.62 2282.76,829.62 2282.76,820.414 2284.13,820.414 2284.13,831.746 2285.51,831.746 2285.51,827.352 2286.88,827.352 2286.88,827.022 2288.26,827.022 2288.26,823.933 2289.63,823.933 2289.63,818.886 2291.01,818.886 2291.01,812.866 2292.38,812.866 2292.38,815.711 2293.75,815.711 2293.75,813.879 2295.13,813.879 2295.13,816.574 2296.5,816.574 2296.5,805.704 2297.88,805.704 2297.88,803.185 2299.25,803.185 2299.25,809.288 2300.63,809.288 2300.63,802.518 2302,802.518 2302,788.458 2303.38,788.458 2303.38,793.081 2304.75,793.081 2304.75,775.272 2306.12,775.272 2306.12,769.105 2307.5,769.105 2307.5,774.62 2308.87,774.62 2308.87,782.242 2310.25,782.242 2310.25,782.737 2311.62,782.737 2311.62,776.595 2313,776.595 2313,774.265 2314.37,774.265 2314.37,767.224 2315.75,767.224 2315.75,758.054 2317.12,758.054 2317.12,755.19 2318.49,755.19 2318.49,768.993 2319.87,768.993 2319.87,766.944 2321.24,766.944 2321.24,761.115 2322.62,761.115 2322.62,777.857 2323.99,777.857 2323.99,789.108 2325.37,789.108 2325.37,779.465 2326.74,779.465 2326.74,776.364 2328.12,776.364 2328.12,761.856 2329.49,761.856 2329.49,748.086 2330.86,748.086 2330.86,729.591 2332.24,729.591 2332.24,735.652 2333.61,735.652 2333.61,734.212 2334.99,734.212 2334.99,739.239 2336.36,739.239 2336.36,733.119 2337.74,733.119 2337.74,741.82 2339.11,741.82 2339.11,743.468 2340.49,743.468 2340.49,746.463 2341.86,746.463 2341.86,750.808 2343.23,750.808 2343.23,740.423 2344.61,740.423 2344.61,743.143 2345.98,743.143 2345.98,735.917 2347.36,735.917 2347.36,733.411 2348.73,733.411 2348.73,742.095 2350.11,742.095 2350.11,739.499 2351.48,739.499 2351.48,741.164 2352.86,741.164 2352.86,734.27 2354.23,734.27 2354.23,753.636 2355.61,753.636 2355.61,772.116 2356.98,772.116 2356.98,761.223 2358.35,761.223 2358.35,773.533 2359.73,773.533 2359.73,774.744 2361.1,774.744 2361.1,774.545 2362.48,774.545 2362.48,791.001 2363.85,791.001 2363.85,798.868 2365.23,798.868 2365.23,821.484 2366.6,821.484 2366.6,824.111 2367.98,824.111 2367.98,833.624 2369.35,833.624 2369.35,849.329 2370.72,849.329 2370.72,858.965 2372.1,858.965 2372.1,850.927 2373.47,850.927 2373.47,835.008 2374.85,835.008 2374.85,830.04 2376.22,830.04 2376.22,818.523 2377.6,818.523 2377.6,822.22 2378.97,822.22 2378.97,816.812 2380.35,816.812 2380.35,801.442 2381.72,801.442 2381.72,787.931 2383.09,787.931 2383.09,809.747 2384.47,809.747 2384.47,806.28 2385.84,806.28 2385.84,799.13 2387.22,799.13 2387.22,800.381 2388.59,800.381 2388.59,816.236 2389.97,816.236 2389.97,822.35 2391.34,822.35 2391.34,800.266 2392.72,800.266 2392.72,795.619 2394.09,795.619 2394.09,799.415 2395.46,799.415 2395.46,799.617 2396.84,799.617 2396.84,818.437 2398.21,818.437 2398.21,819.977 2399.59,819.977 2399.59,816.913 2400.96,816.913 2400.96,811.618 2402.34,811.618 2402.34,802.1 2403.71,802.1 2403.71,805.141 2405.09,805.141 2405.09,799.358 2406.46,799.358 2406.46,790.353 2407.83,790.353 2407.83,769.694 2409.21,769.694 2409.21,776.011 2410.58,776.011 2410.58,783.813 2411.96,783.813 2411.96,783.329 2413.33,783.329 2413.33,793.788 2414.71,793.788 2414.71,780.714 2416.08,780.714 2416.08,792.906 2417.46,792.906 2417.46,800.58 2418.83,800.58 2418.83,819.962 2420.21,819.962 2420.21,818.803 2421.58,818.803 2421.58,815.573 2422.95,815.573 2422.95,806.309 2424.33,806.309 2424.33,786.127 2425.7,786.127 2425.7,776.873 2427.08,776.873 2427.08,782.693 2428.45,782.693 2428.45,775.754 2429.83,775.754 2429.83,765.95 2431.2,765.95 2431.2,749.739 2432.58,749.739 2432.58,748.042 2433.95,748.042 2433.95,738.509 2435.32,738.509 2435.32,729.013 2436.7,729.013 2436.7,739.154 2438.07,739.154 2438.07,728.6 2439.45,728.6 2439.45,728.926 2440.82,728.926 2440.82,741.97 2442.2,741.97 2442.2,740.358 2443.57,740.358 2443.57,735.265 2444.95,735.265 2444.95,729.058 2446.32,729.058 2446.32,749.462 2447.69,749.462 2447.69,731.939 2449.07,731.939 2449.07,718.228 2450.44,718.228 2450.44,727.978 2451.82,727.978 2451.82,728.262 2453.19,728.262 2453.19,727.399 2454.57,727.399 2454.57,720.268 2455.94,720.268 2455.94,722.552 2457.32,722.552 2457.32,709.97 2458.69,709.97 2458.69,705.19 2460.06,705.19 2460.06,701.338 2461.44,701.338 2461.44,726.173 2462.81,726.173 2462.81,717.499 2464.19,717.499 2464.19,707.734 2465.56,707.734 2465.56,705.068 2466.94,705.068 2466.94,711.966 2468.31,711.966 2468.31,704.041 2469.69,704.041 2469.69,715.351 2471.06,715.351 2471.06,710.7 2472.43,710.7 2472.43,732.272 2473.81,732.272 2473.81,719.512 2475.18,719.512 2475.18,705.612 2476.56,705.612 2476.56,696.883 2477.93,696.883 2477.93,705.07 2479.31,705.07 2479.31,699.801 2480.68,699.801 2480.68,707.792 2482.06,707.792 2482.06,721.814 2483.43,721.814 2483.43,715.09 2484.81,715.09 2484.81,713.675 2486.18,713.675 2486.18,711.771 2487.55,711.771 2487.55,710.799 2488.93,710.799 2488.93,709.034 2490.3,709.034 2490.3,708.213 2491.68,708.213 2491.68,711.531 2493.05,711.531 2493.05,716.944 2494.43,716.944 2494.43,706.791 2495.8,706.791 2495.8,697.611 2497.18,697.611 2497.18,679.891 2498.55,679.891 2498.55,676.475 2499.92,676.475 2499.92,666.568 2501.3,666.568 2501.3,651.318 2502.67,651.318 2502.67,664.395 2504.05,664.395 2504.05,674.744 2505.42,674.744 2505.42,665.1 2506.8,665.1 2506.8,677.146 2508.17,677.146 2508.17,667.985 2509.55,667.985 2509.55,668.155 2510.92,668.155 2510.92,671.951 2512.29,671.951 2512.29,662.621 2513.67,662.621 2513.67,669.615 2515.04,669.615 2515.04,662.654 2516.42,662.654 2516.42,675.111 2517.79,675.111 2517.79,696.368 2519.17,696.368 2519.17,694.749 2520.54,694.749 2520.54,702.185 2521.92,702.185 2521.92,707.03 2523.29,707.03 2523.29,692.926 2524.66,692.926 2524.66,679.805 2526.04,679.805 2526.04,685.671 2527.41,685.671 2527.41,678.244 2528.79,678.244 2528.79,664.135 2530.16,664.135 2530.16,661.47 2531.54,661.47 2531.54,660.837 2532.91,660.837 2532.91,660.062 2534.29,660.062 2534.29,655.962 2535.66,655.962 2535.66,656.279 2537.04,656.279 2537.04,655.716 2538.41,655.716 2538.41,648.559 2539.78,648.559 2539.78,658.393 2541.16,658.393 2541.16,665.657 2542.53,665.657 2542.53,657.759 2543.91,657.759 2543.91,631.629 2545.28,631.629 2545.28,618.951 2546.66,618.951 2546.66,621.388 2548.03,621.388 2548.03,619.733 2549.41,619.733 2549.41,630.571 2550.78,630.571 2550.78,608.919 2552.15,608.919 2552.15,618.626 2553.53,618.626 2553.53,624.573 2554.9,624.573 2554.9,640.613 2556.28,640.613 2556.28,635.19 2557.65,635.19 2557.65,629.024 2559.03,629.024 2559.03,609.218 2560.4,609.218 2560.4,592.032 2561.78,592.032 2561.78,601.164 2563.15,601.164 2563.15,605.002 2564.52,605.002 2564.52,605.055 2565.9,605.055 2565.9,588.87 2567.27,588.87 2567.27,586.845 2568.65,586.845 2568.65,586.746 2570.02,586.746 2570.02,575.882 2571.4,575.882 2571.4,559.51 2572.77,559.51 2572.77,553.087 2574.15,553.087 2574.15,539.503 2575.52,539.503 2575.52,527.03 2576.89,527.03 2576.89,560.172 2578.27,560.172 2578.27,548.553 2579.64,548.553 2579.64,545.4 2581.02,545.4 2581.02,556.133 2582.39,556.133 2582.39,566.607 2583.77,566.607 2583.77,571.949 2585.14,571.949 2585.14,570.797 2586.52,570.797 2586.52,548.754 2587.89,548.754 2587.89,533.62 2589.26,533.62 2589.26,527.458 2590.64,527.458 2590.64,527.549 2592.01,527.549 2592.01,538.066 2593.39,538.066 2593.39,535.15 2594.76,535.15 2594.76,523.216 2596.14,523.216 2596.14,517.788 2597.51,517.788 2597.51,517.344 2598.89,517.344 2598.89,524.856 2600.26,524.856 2600.26,534.547 2601.64,534.547 2601.64,513.497 2603.01,513.497 2603.01,489.906 2604.38,489.906 2604.38,495.489 2605.76,495.489 2605.76,500.298 2607.13,500.298 2607.13,489.055 2608.51,489.055 2608.51,485.926 2609.88,485.926 2609.88,481.879 2611.26,481.879 2611.26,466.494 2612.63,466.494 2612.63,446.349 2614.01,446.349 2614.01,447.173 2615.38,447.173 2615.38,430.329 2616.75,430.329 2616.75,443.46 2618.13,443.46 2618.13,446.489 2619.5,446.489 2619.5,454.566 2620.88,454.566 2620.88,459.493 2622.25,459.493 2622.25,461.982 2623.63,461.982 2623.63,448.462 2625,448.462 2625,443.31 2626.38,443.31 2626.38,449.634 2627.75,449.634 2627.75,445.119 2629.12,445.119 2629.12,443.308 2630.5,443.308 2630.5,439.887 2631.87,439.887 2631.87,442.433 2633.25,442.433 2633.25,428.77 2634.62,428.77 2634.62,440.437 2636,440.437 2636,439.423 2637.37,439.423 2637.37,432.927 2638.75,432.927 2638.75,417.334 2640.12,417.334 2640.12,425.227 2641.49,425.227 2641.49,415.439 2642.87,415.439 2642.87,406.404 2644.24,406.404 2644.24,406.977 2645.62,406.977 2645.62,419.893 2646.99,419.893 2646.99,433.74 2648.37,433.74 2648.37,430.325 2649.74,430.325 2649.74,429.976 2651.12,429.976 2651.12,408.915 2652.49,408.915 2652.49,408.021 2653.86,408.021 2653.86,398.339 2655.24,398.339 2655.24,395.335 2656.61,395.335 2656.61,388.731 2657.99,388.731 2657.99,391.907 2659.36,391.907 2659.36,393.559 2660.74,393.559 2660.74,389.249 2662.11,389.249 2662.11,401.425 2663.49,401.425 2663.49,402.394 2664.86,402.394 2664.86,411.851 2666.24,411.851 2666.24,410.321 2667.61,410.321 2667.61,406.653 2668.98,406.653 2668.98,418.984 2670.36,418.984 2670.36,410.439 2671.73,410.439 2671.73,404.569 2673.11,404.569 2673.11,412.893 2674.48,412.893 2674.48,416.454 2675.86,416.454 2675.86,409.381 2677.23,409.381 2677.23,400.113 2678.61,400.113 2678.61,386.554 2679.98,386.554 2679.98,382.269 2681.35,382.269 2681.35,394.058 2682.73,394.058 2682.73,407.698 2684.1,407.698 2684.1,406.56 2685.48,406.56 2685.48,396.526 2686.85,396.526 2686.85,394.722 2688.23,394.722 2688.23,387.967 2689.6,387.967 2689.6,396.886 2690.98,396.886 2690.98,392.33 2692.35,392.33 2692.35,388.528 2693.72,388.528 2693.72,396.988 2695.1,396.988 2695.1,406.384 2696.47,406.384 2696.47,404.537 2697.85,404.537 2697.85,408.972 2699.22,408.972 2699.22,416.137 2700.6,416.137 2700.6,404.716 2701.97,404.716 2701.97,410.465 2703.35,410.465 2703.35,391.153 2704.72,391.153 2704.72,377.418 2706.09,377.418 2706.09,390.248 2707.47,390.248 2707.47,399.681 2708.84,399.681 2708.84,402.4 2710.22,402.4 2710.22,406.344 2711.59,406.344 2711.59,404.963 2712.97,404.963 2712.97,398.435 2714.34,398.435 2714.34,408.374 2715.72,408.374 2715.72,397.536 2717.09,397.536 2717.09,399.221 2718.46,399.221 2718.46,394.154 2719.84,394.154 2719.84,410.197 2721.21,410.197 2721.21,403.604 2722.59,403.604 2722.59,417.108 2723.96,417.108 2723.96,422.803 2725.34,422.803 2725.34,412.685 2726.71,412.685 2726.71,409.266 2728.09,409.266 2728.09,408.518 2729.46,408.518 2729.46,412.057 2730.84,412.057 2730.84,398.1 2732.21,398.1 2732.21,409.445 2733.58,409.445 2733.58,413.401 2734.96,413.401 2734.96,415.806 2736.33,415.806 2736.33,401.713 2737.71,401.713 2737.71,392.702 2739.08,392.702 2739.08,404.611 2740.46,404.611 2740.46,391.35 2741.83,391.35 2741.83,377.613 2743.21,377.613 2743.21,376.778 2744.58,376.778 2744.58,399.352 2745.95,399.352 2745.95,391.462 2747.33,391.462 2747.33,380.243 2748.7,380.243 2748.7,392.484 2750.08,392.484 2750.08,382.09 2751.45,382.09 2751.45,381.823 2752.83,381.823 2752.83,362.271 2754.2,362.271 2754.2,368.772 2755.58,368.772 2755.58,370.406 2756.95,370.406 2756.95,378.508 2758.32,378.508 2758.32,372.442 2759.7,372.442 2759.7,360.596 2761.07,360.596 2761.07,335.08 2762.45,335.08 2762.45,334.2 2763.82,334.2 2763.82,337.865 2765.2,337.865 2765.2,331.937 2766.57,331.937 2766.57,338.885 2767.95,338.885 2767.95,326.995 2769.32,326.995 2769.32,339.181 2770.69,339.181 2770.69,323.948 2772.07,323.948 2772.07,319.395 2773.44,319.395 2773.44,329.68 2774.82,329.68 2774.82,328.46 2776.19,328.46 2776.19,334.159 2777.57,334.159 2777.57,343.211 2778.94,343.211 2778.94,333.59 2780.32,333.59 2780.32,318.035 2781.69,318.035 2781.69,332.398 2783.06,332.398 2783.06,308.239 2784.44,308.239 2784.44,300.653 2785.81,300.653 2785.81,323.728 2787.19,323.728 2787.19,325.673 2788.56,325.673 2788.56,354.118 2789.94,354.118 2789.94,330.252 2791.31,330.252 2791.31,337.509 2792.69,337.509 2792.69,335.92 2794.06,335.92 2794.06,358.227 2795.44,358.227 2795.44,348.375 2796.81,348.375 2796.81,328.137 2798.18,328.137 2798.18,339.454 2799.56,339.454 2799.56,343.434 2800.93,343.434 2800.93,339.491 2802.31,339.491 2802.31,305.466 2803.68,305.466 2803.68,289.361 2805.06,289.361 2805.06,273.525 2806.43,273.525 2806.43,283.631 2807.81,283.631 2807.81,321.55 2809.18,321.55 2809.18,330.445 2810.55,330.445 2810.55,347.14 2811.93,347.14 2811.93,377.664 2813.3,377.664 2813.3,365.753 2814.68,365.753 2814.68,342.197 2816.05,342.197 2816.05,340.876 2817.43,340.876 2817.43,356.527 2818.8,356.527 2818.8,369.168 2820.18,369.168 2820.18,402.386 2821.55,402.386 2821.55,402.746 2822.92,402.746 2822.92,409.549 2824.3,409.549 2824.3,398.82 2825.67,398.82 2825.67,398.452 2827.05,398.452 2827.05,415 2828.42,415 2828.42,420.657 2829.8,420.657 2829.8,433.793 2831.17,433.793 2831.17,385.671 2832.55,385.671 2832.55,363.277 2833.92,363.277 2833.92,385.625 2835.29,385.625 2835.29,380.195 2836.67,380.195 2836.67,379.254 2838.04,379.254 2838.04,398.087 2839.42,398.087 2839.42,377.041 2840.79,377.041 2840.79,385.199 2842.17,385.199 2842.17,376.881 2843.54,376.881 2843.54,358.531 2844.92,358.531 2844.92,367.219 2846.29,367.219 2846.29,363.492 2847.67,363.492 2847.67,348.963 2849.04,348.963 2849.04,346.091 2850.41,346.091 2850.41,350.78 2851.79,350.78 2851.79,332.664 2853.16,332.664 2853.16,329.777 2854.54,329.777 2854.54,326.525 2855.91,326.525 2855.91,310.489 2857.29,310.489 2857.29,288.115 2858.66,288.115 2858.66,295.181 2860.04,295.181 2860.04,291.926 2861.41,291.926 2861.41,267.415 2862.78,267.415 2862.78,268.31 2864.16,268.31 2864.16,273.908 2865.53,273.908 2865.53,296.93 2866.91,296.93 2866.91,281.1 2868.28,281.1 2868.28,303.717 2869.66,303.717 2869.66,307.951 2871.03,307.951 2871.03,293.28 2872.41,293.28 2872.41,297.004 2873.78,297.004 2873.78,278.188 2875.15,278.188 2875.15,261.985 2876.53,261.985 2876.53,269.219 2877.9,269.219 2877.9,273.993 2879.28,273.993 2879.28,271.518 2880.65,271.518 2880.65,272.433 2882.03,272.433 2882.03,256.365 2883.4,256.365 2883.4,225.691 2884.78,225.691 2884.78,229.326 2886.15,229.326 2886.15,241.865 2887.52,241.865 2887.52,241.107 2888.9,241.107 2888.9,241.076 2890.27,241.076 2890.27,242.312 2891.65,242.312 2891.65,213.627 2893.02,213.627 2893.02,240.312 2894.4,240.312 2894.4,250.209 2895.77,250.209 2895.77,236.604 2897.15,236.604 2897.15,235.758 2898.52,235.758 2898.52,209.271 2899.89,209.271 2899.89,211.892 2901.27,211.892 2901.27,214.332 2902.64,214.332 2902.64,230.673 2904.02,230.673 2904.02,242.165 2905.39,242.165 2905.39,245.24 2906.77,245.24 2906.77,254.765 2908.14,254.765 2908.14,261.49 2909.52,261.49 2909.52,261.84 2910.89,261.84 2910.89,251.73 2912.27,251.73 2912.27,275.629 2913.64,275.629 2913.64,269.679 2915.01,269.679 2915.01,261.579 2916.39,261.579 2916.39,242.083 2917.76,242.083 2917.76,244.963 2919.14,244.963 2919.14,253.943 2920.51,253.943 2920.51,267.253 2921.89,267.253 2921.89,258.389 2923.26,258.389 2923.26,272.896 2924.64,272.896 2924.64,251.297 2926.01,251.297 2926.01,249.491 2927.38,249.491 2927.38,236.966 2928.76,236.966 2928.76,226.189 2930.13,226.189 2930.13,214.732 2931.51,214.732 2931.51,226.53 2932.88,226.53 2932.88,197.284 2934.26,197.284 2934.26,199.713 2935.63,199.713 2935.63,197.956 2937.01,197.956 2937.01,186.238 2938.38,186.238 2938.38,193.811 2939.75,193.811 2939.75,218.598 2941.13,218.598 2941.13,211.884 2942.5,211.884 2942.5,214.43 2943.88,214.43 2943.88,205.581 2945.25,205.581 2945.25,221.02 2946.63,221.02 2946.63,219.192 2948,219.192 2948,217.586 2949.38,217.586 2949.38,257.087 2950.75,257.087 2950.75,273.236 2952.12,273.236 2952.12,264.823 2953.5,264.823 2953.5,259.294 2954.87,259.294 2954.87,276.584 2956.25,276.584 2956.25,304.852 2957.62,304.852 2957.62,294.503 2959,294.503 2959,284.184 2960.37,284.184 2960.37,294.827 2961.75,294.827 2961.75,291.838 2963.12,291.838 2963.12,254.074 2964.49,254.074 2964.49,235.441 2965.87,235.441 2965.87,258.346 2967.24,258.346 2967.24,245.385 2968.62,245.385 2968.62,263.259 2969.99,263.259 2969.99,247.194 2971.37,247.194 2971.37,253.993 2972.74,253.993 2972.74,263.314 2974.12,263.314 2974.12,233.895 2975.49,233.895 2975.49,234.089 2976.87,234.089 2976.87,234.255 2978.24,234.255 2978.24,214.625 2979.61,214.625 2979.61,204.121 2980.99,204.121 2980.99,190.787 2982.36,190.787 2982.36,183.266 2983.74,183.266 2983.74,159.922 2985.11,159.922 2985.11,155.637 2986.49,155.637 2986.49,173.392 2987.86,173.392 2987.86,210.042 2989.24,210.042 2989.24,223.024 2990.61,223.024 2990.61,216.468 2991.98,216.468 2991.98,219.054 2993.36,219.054 2993.36,226.453 2994.73,226.453 2994.73,251.797 2996.11,251.797 2996.11,253.374 2997.48,253.374 2997.48,261.218 2998.86,261.218 2998.86,240.027 3000.23,240.027 3000.23,250.707 3001.61,250.707 3001.61,279.39 3002.98,279.39 3002.98,286.924 3004.35,286.924 3004.35,266.747 3005.73,266.747 3005.73,254.342 3007.1,254.342 3007.1,270.926 3008.48,270.926 3008.48,288.576 3009.85,288.576 3009.85,303.679 3011.23,303.679 3011.23,317.528 3012.6,317.528 3012.6,323.427 3013.98,323.427 3013.98,322.838 3015.35,322.838 3015.35,320.95 3016.72,320.95 3016.72,327.752 3018.1,327.752 3018.1,339.757 3019.47,339.757 3019.47,331.329 3020.85,331.329 3020.85,331.713 3022.22,331.713 3022.22,332.314 3023.6,332.314 3023.6,319.421 3024.97,319.421 3024.97,314.162 3026.35,314.162 3026.35,288.183 3027.72,288.183 3027.72,301.628 3029.09,301.628 3029.09,280.634 3030.47,280.634 3030.47,270.955 3031.84,270.955 3031.84,265.724 3033.22,265.724 3033.22,268.123 3034.59,268.123 3034.59,253.496 3035.97,253.496 3035.97,249.222 3037.34,249.222 3037.34,198.797 3038.72,198.797 3038.72,161.53 3040.09,161.53 3040.09,164.637 3041.47,164.637 3041.47,173.489 3042.84,173.489 3042.84,150.973 3044.21,150.973 3044.21,185.399 3045.59,185.399 3045.59,191.191 3046.96,191.191 3046.96,169.665 3048.34,169.665 3048.34,178.712 3049.71,178.712 3049.71,153.887 3051.09,153.887 3051.09,179.154 3052.46,179.154 3052.46,193.446 3053.84,193.446 3053.84,198.562 3055.21,198.562 3055.21,191.359 3056.58,191.359 3056.58,201.634 3057.96,201.634 3057.96,216.15 3059.33,216.15 3059.33,226.03 3060.71,226.03 3060.71,240.652 3062.08,240.652 3062.08,216.971 3063.46,216.971 3063.46,201.609 3064.83,201.609 3064.83,184.759 3066.21,184.759 3066.21,166.147 3067.58,166.147 3067.58,164.999 3068.95,164.999 3068.95,153.942 3070.33,153.942 3070.33,147.599 "/>
</svg>
