<?xml version="1.0" encoding="utf-8"?>
<svg xmlns="http://www.w3.org/2000/svg" xmlns:xlink="http://www.w3.org/1999/xlink" width="800" height="400" viewBox="0 0 3200 1600">
<defs>
  <clipPath id="clip750">
    <rect x="0" y="0" width="3200" height="1600"/>
  </clipPath>
</defs>
<path clip-path="url(#clip750)" d="M0 1600 L3200 1600 L3200 0 L0 0  Z" fill="#282c34" fill-rule="evenodd" fill-opacity="1"/>
<defs>
  <clipPath id="clip751">
    <rect x="240" y="108" width="2913" height="1388"/>
  </clipPath>
</defs>
<path clip-path="url(#clip750)" d="M240.339 1495.09 L3152.76 1495.09 L3152.76 108.352 L240.339 108.352  Z" fill="#21252b" fill-rule="evenodd" fill-opacity="1"/>
<polyline clip-path="url(#clip751)" style="stroke:#adb2b7; stroke-linecap:round; stroke-linejoin:round; stroke-width:2; stroke-opacity:0.1; fill:none" points="322.765,1495.09 322.765,108.352 "/>
<polyline clip-path="url(#clip751)" style="stroke:#adb2b7; stroke-linecap:round; stroke-linejoin:round; stroke-width:2; stroke-opacity:0.1; fill:none" points="1345.37,1495.09 1345.37,108.352 "/>
<polyline clip-path="url(#clip751)" style="stroke:#adb2b7; stroke-linecap:round; stroke-linejoin:round; stroke-width:2; stroke-opacity:0.1; fill:none" points="2302,1495.09 2302,108.352 "/>
<polyline clip-path="url(#clip751)" style="stroke:#adb2b7; stroke-linecap:round; stroke-linejoin:round; stroke-width:2; stroke-opacity:0.1; fill:none" points="240.339,1306.52 3152.76,1306.52 "/>
<polyline clip-path="url(#clip751)" style="stroke:#adb2b7; stroke-linecap:round; stroke-linejoin:round; stroke-width:2; stroke-opacity:0.1; fill:none" points="240.339,915.328 3152.76,915.328 "/>
<polyline clip-path="url(#clip751)" style="stroke:#adb2b7; stroke-linecap:round; stroke-linejoin:round; stroke-width:2; stroke-opacity:0.1; fill:none" points="240.339,524.135 3152.76,524.135 "/>
<polyline clip-path="url(#clip751)" style="stroke:#adb2b7; stroke-linecap:round; stroke-linejoin:round; stroke-width:2; stroke-opacity:0.1; fill:none" points="240.339,132.943 3152.76,132.943 "/>
<polyline clip-path="url(#clip750)" style="stroke:#adb2b7; stroke-linecap:round; stroke-linejoin:round; stroke-width:4; stroke-opacity:1; fill:none" points="240.339,1495.09 3152.76,1495.09 "/>
<polyline clip-path="url(#clip750)" style="stroke:#adb2b7; stroke-linecap:round; stroke-linejoin:round; stroke-width:4; stroke-opacity:1; fill:none" points="322.765,1495.09 322.765,1476.19 "/>
<polyline clip-path="url(#clip750)" style="stroke:#adb2b7; stroke-linecap:round; stroke-linejoin:round; stroke-width:4; stroke-opacity:1; fill:none" points="1345.37,1495.09 1345.37,1476.19 "/>
<polyline clip-path="url(#clip750)" style="stroke:#adb2b7; stroke-linecap:round; stroke-linejoin:round; stroke-width:4; stroke-opacity:1; fill:none" points="2302,1495.09 2302,1476.19 "/>
<path clip-path="url(#clip750)" d="M194.56 1559.95 L210.88 1559.95 L210.88 1563.89 L188.935 1563.89 L188.935 1559.95 Q191.597 1557.2 196.181 1552.57 Q200.787 1547.92 201.968 1546.57 Q204.213 1544.05 205.092 1542.31 Q205.995 1540.55 205.995 1538.86 Q205.995 1536.11 204.051 1534.37 Q202.13 1532.64 199.028 1532.64 Q196.829 1532.64 194.375 1533.4 Q191.944 1534.17 189.167 1535.72 L189.167 1530.99 Q191.991 1529.86 194.444 1529.28 Q196.898 1528.7 198.935 1528.7 Q204.305 1528.7 207.5 1531.39 Q210.694 1534.07 210.694 1538.56 Q210.694 1540.69 209.884 1542.61 Q209.097 1544.51 206.991 1547.11 Q206.412 1547.78 203.31 1550.99 Q200.208 1554.19 194.56 1559.95 Z" fill="#9eb1be" fill-rule="nonzero" fill-opacity="1" /><path clip-path="url(#clip750)" d="M230.694 1532.41 Q227.083 1532.41 225.254 1535.97 Q223.449 1539.51 223.449 1546.64 Q223.449 1553.75 225.254 1557.31 Q227.083 1560.86 230.694 1560.86 Q234.328 1560.86 236.134 1557.31 Q237.963 1553.75 237.963 1546.64 Q237.963 1539.51 236.134 1535.97 Q234.328 1532.41 230.694 1532.41 M230.694 1528.7 Q236.504 1528.7 239.56 1533.31 Q242.639 1537.89 242.639 1546.64 Q242.639 1555.37 239.56 1559.98 Q236.504 1564.56 230.694 1564.56 Q224.884 1564.56 221.805 1559.98 Q218.75 1555.37 218.75 1546.64 Q218.75 1537.89 221.805 1533.31 Q224.884 1528.7 230.694 1528.7 Z" fill="#9eb1be" fill-rule="nonzero" fill-opacity="1" /><path clip-path="url(#clip750)" d="M254.884 1559.95 L271.203 1559.95 L271.203 1563.89 L249.259 1563.89 L249.259 1559.95 Q251.921 1557.2 256.504 1552.57 Q261.111 1547.92 262.291 1546.57 Q264.537 1544.05 265.416 1542.31 Q266.319 1540.55 266.319 1538.86 Q266.319 1536.11 264.375 1534.37 Q262.453 1532.64 259.351 1532.64 Q257.152 1532.64 254.699 1533.4 Q252.268 1534.17 249.49 1535.72 L249.49 1530.99 Q252.314 1529.86 254.768 1529.28 Q257.222 1528.7 259.259 1528.7 Q264.629 1528.7 267.824 1531.39 Q271.018 1534.07 271.018 1538.56 Q271.018 1540.69 270.208 1542.61 Q269.421 1544.51 267.314 1547.11 Q266.736 1547.78 263.634 1550.99 Q260.532 1554.19 254.884 1559.95 Z" fill="#9eb1be" fill-rule="nonzero" fill-opacity="1" /><path clip-path="url(#clip750)" d="M291.018 1532.41 Q287.407 1532.41 285.578 1535.97 Q283.773 1539.51 283.773 1546.64 Q283.773 1553.75 285.578 1557.31 Q287.407 1560.86 291.018 1560.86 Q294.652 1560.86 296.458 1557.31 Q298.286 1553.75 298.286 1546.64 Q298.286 1539.51 296.458 1535.97 Q294.652 1532.41 291.018 1532.41 M291.018 1528.7 Q296.828 1528.7 299.884 1533.31 Q302.962 1537.89 302.962 1546.64 Q302.962 1555.37 299.884 1559.98 Q296.828 1564.56 291.018 1564.56 Q285.208 1564.56 282.129 1559.98 Q279.074 1555.37 279.074 1546.64 Q279.074 1537.89 282.129 1533.31 Q285.208 1528.7 291.018 1528.7 Z" fill="#9eb1be" fill-rule="nonzero" fill-opacity="1" /><path clip-path="url(#clip750)" d="M308.425 1549 L320.902 1549 L320.902 1552.8 L308.425 1552.8 L308.425 1549 Z" fill="#9eb1be" fill-rule="nonzero" fill-opacity="1" /><path clip-path="url(#clip750)" d="M338.286 1532.41 Q334.675 1532.41 332.846 1535.97 Q331.041 1539.51 331.041 1546.64 Q331.041 1553.75 332.846 1557.31 Q334.675 1560.86 338.286 1560.86 Q341.92 1560.86 343.726 1557.31 Q345.555 1553.75 345.555 1546.64 Q345.555 1539.51 343.726 1535.97 Q341.92 1532.41 338.286 1532.41 M338.286 1528.7 Q344.096 1528.7 347.152 1533.31 Q350.231 1537.89 350.231 1546.64 Q350.231 1555.37 347.152 1559.98 Q344.096 1564.56 338.286 1564.56 Q332.476 1564.56 329.397 1559.98 Q326.342 1555.37 326.342 1546.64 Q326.342 1537.89 329.397 1533.31 Q332.476 1528.7 338.286 1528.7 Z" fill="#9eb1be" fill-rule="nonzero" fill-opacity="1" /><path clip-path="url(#clip750)" d="M359.258 1559.95 L366.897 1559.95 L366.897 1533.59 L358.587 1535.25 L358.587 1530.99 L366.851 1529.33 L371.527 1529.33 L371.527 1559.95 L379.166 1559.95 L379.166 1563.89 L359.258 1563.89 L359.258 1559.95 Z" fill="#9eb1be" fill-rule="nonzero" fill-opacity="1" /><path clip-path="url(#clip750)" d="M385.855 1549 L398.332 1549 L398.332 1552.8 L385.855 1552.8 L385.855 1549 Z" fill="#9eb1be" fill-rule="nonzero" fill-opacity="1" /><path clip-path="url(#clip750)" d="M415.716 1532.41 Q412.105 1532.41 410.277 1535.97 Q408.471 1539.51 408.471 1546.64 Q408.471 1553.75 410.277 1557.31 Q412.105 1560.86 415.716 1560.86 Q419.351 1560.86 421.156 1557.31 Q422.985 1553.75 422.985 1546.64 Q422.985 1539.51 421.156 1535.97 Q419.351 1532.41 415.716 1532.41 M415.716 1528.7 Q421.527 1528.7 424.582 1533.31 Q427.661 1537.89 427.661 1546.64 Q427.661 1555.37 424.582 1559.98 Q421.527 1564.56 415.716 1564.56 Q409.906 1564.56 406.828 1559.98 Q403.772 1555.37 403.772 1546.64 Q403.772 1537.89 406.828 1533.31 Q409.906 1528.7 415.716 1528.7 Z" fill="#9eb1be" fill-rule="nonzero" fill-opacity="1" /><path clip-path="url(#clip750)" d="M436.688 1559.95 L444.327 1559.95 L444.327 1533.59 L436.017 1535.25 L436.017 1530.99 L444.281 1529.33 L448.957 1529.33 L448.957 1559.95 L456.596 1559.95 L456.596 1563.89 L436.688 1563.89 L436.688 1559.95 Z" fill="#9eb1be" fill-rule="nonzero" fill-opacity="1" /><path clip-path="url(#clip750)" d="M1217.17 1559.95 L1233.48 1559.95 L1233.48 1563.89 L1211.54 1563.89 L1211.54 1559.95 Q1214.2 1557.2 1218.79 1552.57 Q1223.39 1547.92 1224.57 1546.57 Q1226.82 1544.05 1227.7 1542.31 Q1228.6 1540.55 1228.6 1538.86 Q1228.6 1536.11 1226.66 1534.37 Q1224.73 1532.64 1221.63 1532.64 Q1219.43 1532.64 1216.98 1533.4 Q1214.55 1534.17 1211.77 1535.72 L1211.77 1530.99 Q1214.6 1529.86 1217.05 1529.28 Q1219.5 1528.7 1221.54 1528.7 Q1226.91 1528.7 1230.1 1531.39 Q1233.3 1534.07 1233.3 1538.56 Q1233.3 1540.69 1232.49 1542.61 Q1231.7 1544.51 1229.6 1547.11 Q1229.02 1547.78 1225.92 1550.99 Q1222.81 1554.19 1217.17 1559.95 Z" fill="#9eb1be" fill-rule="nonzero" fill-opacity="1" /><path clip-path="url(#clip750)" d="M1253.3 1532.41 Q1249.69 1532.41 1247.86 1535.97 Q1246.05 1539.51 1246.05 1546.64 Q1246.05 1553.75 1247.86 1557.31 Q1249.69 1560.86 1253.3 1560.86 Q1256.93 1560.86 1258.74 1557.31 Q1260.57 1553.75 1260.57 1546.64 Q1260.57 1539.51 1258.74 1535.97 Q1256.93 1532.41 1253.3 1532.41 M1253.3 1528.7 Q1259.11 1528.7 1262.16 1533.31 Q1265.24 1537.89 1265.24 1546.64 Q1265.24 1555.37 1262.16 1559.98 Q1259.11 1564.56 1253.3 1564.56 Q1247.49 1564.56 1244.41 1559.98 Q1241.35 1555.37 1241.35 1546.64 Q1241.35 1537.89 1244.41 1533.31 Q1247.49 1528.7 1253.3 1528.7 Z" fill="#9eb1be" fill-rule="nonzero" fill-opacity="1" /><path clip-path="url(#clip750)" d="M1277.49 1559.95 L1293.81 1559.95 L1293.81 1563.89 L1271.86 1563.89 L1271.86 1559.95 Q1274.53 1557.2 1279.11 1552.57 Q1283.72 1547.92 1284.9 1546.57 Q1287.14 1544.05 1288.02 1542.31 Q1288.92 1540.55 1288.92 1538.86 Q1288.92 1536.11 1286.98 1534.37 Q1285.06 1532.64 1281.96 1532.64 Q1279.76 1532.64 1277.3 1533.4 Q1274.87 1534.17 1272.1 1535.72 L1272.1 1530.99 Q1274.92 1529.86 1277.37 1529.28 Q1279.83 1528.7 1281.86 1528.7 Q1287.23 1528.7 1290.43 1531.39 Q1293.62 1534.07 1293.62 1538.56 Q1293.62 1540.69 1292.81 1542.61 Q1292.03 1544.51 1289.92 1547.11 Q1289.34 1547.78 1286.24 1550.99 Q1283.14 1554.19 1277.49 1559.95 Z" fill="#9eb1be" fill-rule="nonzero" fill-opacity="1" /><path clip-path="url(#clip750)" d="M1313.62 1532.41 Q1310.01 1532.41 1308.18 1535.97 Q1306.38 1539.51 1306.38 1546.64 Q1306.38 1553.75 1308.18 1557.31 Q1310.01 1560.86 1313.62 1560.86 Q1317.26 1560.86 1319.06 1557.31 Q1320.89 1553.75 1320.89 1546.64 Q1320.89 1539.51 1319.06 1535.97 Q1317.26 1532.41 1313.62 1532.41 M1313.62 1528.7 Q1319.43 1528.7 1322.49 1533.31 Q1325.57 1537.89 1325.57 1546.64 Q1325.57 1555.37 1322.49 1559.98 Q1319.43 1564.56 1313.62 1564.56 Q1307.81 1564.56 1304.73 1559.98 Q1301.68 1555.37 1301.68 1546.64 Q1301.68 1537.89 1304.73 1533.31 Q1307.81 1528.7 1313.62 1528.7 Z" fill="#9eb1be" fill-rule="nonzero" fill-opacity="1" /><path clip-path="url(#clip750)" d="M1331.03 1549 L1343.51 1549 L1343.51 1552.8 L1331.03 1552.8 L1331.03 1549 Z" fill="#9eb1be" fill-rule="nonzero" fill-opacity="1" /><path clip-path="url(#clip750)" d="M1360.89 1532.41 Q1357.28 1532.41 1355.45 1535.97 Q1353.65 1539.51 1353.65 1546.64 Q1353.65 1553.75 1355.45 1557.31 Q1357.28 1560.86 1360.89 1560.86 Q1364.53 1560.86 1366.33 1557.31 Q1368.16 1553.75 1368.16 1546.64 Q1368.16 1539.51 1366.33 1535.97 Q1364.53 1532.41 1360.89 1532.41 M1360.89 1528.7 Q1366.7 1528.7 1369.76 1533.31 Q1372.84 1537.89 1372.84 1546.64 Q1372.84 1555.37 1369.76 1559.98 Q1366.7 1564.56 1360.89 1564.56 Q1355.08 1564.56 1352 1559.98 Q1348.95 1555.37 1348.95 1546.64 Q1348.95 1537.89 1352 1533.31 Q1355.08 1528.7 1360.89 1528.7 Z" fill="#9eb1be" fill-rule="nonzero" fill-opacity="1" /><path clip-path="url(#clip750)" d="M1385.08 1559.95 L1401.4 1559.95 L1401.4 1563.89 L1379.46 1563.89 L1379.46 1559.95 Q1382.12 1557.2 1386.7 1552.57 Q1391.31 1547.92 1392.49 1546.57 Q1394.73 1544.05 1395.61 1542.31 Q1396.52 1540.55 1396.52 1538.86 Q1396.52 1536.11 1394.57 1534.37 Q1392.65 1532.64 1389.55 1532.64 Q1387.35 1532.64 1384.9 1533.4 Q1382.47 1534.17 1379.69 1535.72 L1379.69 1530.99 Q1382.51 1529.86 1384.97 1529.28 Q1387.42 1528.7 1389.46 1528.7 Q1394.83 1528.7 1398.02 1531.39 Q1401.22 1534.07 1401.22 1538.56 Q1401.22 1540.69 1400.4 1542.61 Q1399.62 1544.51 1397.51 1547.11 Q1396.93 1547.78 1393.83 1550.99 Q1390.73 1554.19 1385.08 1559.95 Z" fill="#9eb1be" fill-rule="nonzero" fill-opacity="1" /><path clip-path="url(#clip750)" d="M1408.46 1549 L1420.94 1549 L1420.94 1552.8 L1408.46 1552.8 L1408.46 1549 Z" fill="#9eb1be" fill-rule="nonzero" fill-opacity="1" /><path clip-path="url(#clip750)" d="M1438.32 1532.41 Q1434.71 1532.41 1432.88 1535.97 Q1431.08 1539.51 1431.08 1546.64 Q1431.08 1553.75 1432.88 1557.31 Q1434.71 1560.86 1438.32 1560.86 Q1441.96 1560.86 1443.76 1557.31 Q1445.59 1553.75 1445.59 1546.64 Q1445.59 1539.51 1443.76 1535.97 Q1441.96 1532.41 1438.32 1532.41 M1438.32 1528.7 Q1444.13 1528.7 1447.19 1533.31 Q1450.27 1537.89 1450.27 1546.64 Q1450.27 1555.37 1447.19 1559.98 Q1444.13 1564.56 1438.32 1564.56 Q1432.51 1564.56 1429.43 1559.98 Q1426.38 1555.37 1426.38 1546.64 Q1426.38 1537.89 1429.43 1533.31 Q1432.51 1528.7 1438.32 1528.7 Z" fill="#9eb1be" fill-rule="nonzero" fill-opacity="1" /><path clip-path="url(#clip750)" d="M1459.29 1559.95 L1466.93 1559.95 L1466.93 1533.59 L1458.62 1535.25 L1458.62 1530.99 L1466.89 1529.33 L1471.56 1529.33 L1471.56 1559.95 L1479.2 1559.95 L1479.2 1563.89 L1459.29 1563.89 L1459.29 1559.95 Z" fill="#9eb1be" fill-rule="nonzero" fill-opacity="1" /><path clip-path="url(#clip750)" d="M2173.8 1559.95 L2190.11 1559.95 L2190.11 1563.89 L2168.17 1563.89 L2168.17 1559.95 Q2170.83 1557.2 2175.42 1552.57 Q2180.02 1547.92 2181.2 1546.57 Q2183.45 1544.05 2184.33 1542.31 Q2185.23 1540.55 2185.23 1538.86 Q2185.23 1536.11 2183.29 1534.37 Q2181.36 1532.64 2178.26 1532.64 Q2176.06 1532.64 2173.61 1533.4 Q2171.18 1534.17 2168.4 1535.72 L2168.4 1530.99 Q2171.23 1529.86 2173.68 1529.28 Q2176.13 1528.7 2178.17 1528.7 Q2183.54 1528.7 2186.74 1531.39 Q2189.93 1534.07 2189.93 1538.56 Q2189.93 1540.69 2189.12 1542.61 Q2188.33 1544.51 2186.23 1547.11 Q2185.65 1547.78 2182.55 1550.99 Q2179.44 1554.19 2173.8 1559.95 Z" fill="#9eb1be" fill-rule="nonzero" fill-opacity="1" /><path clip-path="url(#clip750)" d="M2209.93 1532.41 Q2206.32 1532.41 2204.49 1535.97 Q2202.68 1539.51 2202.68 1546.64 Q2202.68 1553.75 2204.49 1557.31 Q2206.32 1560.86 2209.93 1560.86 Q2213.56 1560.86 2215.37 1557.31 Q2217.2 1553.75 2217.2 1546.64 Q2217.2 1539.51 2215.37 1535.97 Q2213.56 1532.41 2209.93 1532.41 M2209.93 1528.7 Q2215.74 1528.7 2218.8 1533.31 Q2221.87 1537.89 2221.87 1546.64 Q2221.87 1555.37 2218.8 1559.98 Q2215.74 1564.56 2209.93 1564.56 Q2204.12 1564.56 2201.04 1559.98 Q2197.99 1555.37 2197.99 1546.64 Q2197.99 1537.89 2201.04 1533.31 Q2204.12 1528.7 2209.93 1528.7 Z" fill="#9eb1be" fill-rule="nonzero" fill-opacity="1" /><path clip-path="url(#clip750)" d="M2234.12 1559.95 L2250.44 1559.95 L2250.44 1563.89 L2228.49 1563.89 L2228.49 1559.95 Q2231.16 1557.2 2235.74 1552.57 Q2240.35 1547.92 2241.53 1546.57 Q2243.77 1544.05 2244.65 1542.31 Q2245.55 1540.55 2245.55 1538.86 Q2245.55 1536.11 2243.61 1534.37 Q2241.69 1532.64 2238.59 1532.64 Q2236.39 1532.64 2233.93 1533.4 Q2231.5 1534.17 2228.73 1535.72 L2228.73 1530.99 Q2231.55 1529.86 2234 1529.28 Q2236.46 1528.7 2238.49 1528.7 Q2243.86 1528.7 2247.06 1531.39 Q2250.25 1534.07 2250.25 1538.56 Q2250.25 1540.69 2249.44 1542.61 Q2248.66 1544.51 2246.55 1547.11 Q2245.97 1547.78 2242.87 1550.99 Q2239.77 1554.19 2234.12 1559.95 Z" fill="#9eb1be" fill-rule="nonzero" fill-opacity="1" /><path clip-path="url(#clip750)" d="M2270.25 1532.41 Q2266.64 1532.41 2264.81 1535.97 Q2263.01 1539.51 2263.01 1546.64 Q2263.01 1553.75 2264.81 1557.31 Q2266.64 1560.86 2270.25 1560.86 Q2273.89 1560.86 2275.69 1557.31 Q2277.52 1553.75 2277.52 1546.64 Q2277.52 1539.51 2275.69 1535.97 Q2273.89 1532.41 2270.25 1532.41 M2270.25 1528.7 Q2276.06 1528.7 2279.12 1533.31 Q2282.2 1537.89 2282.2 1546.64 Q2282.2 1555.37 2279.12 1559.98 Q2276.06 1564.56 2270.25 1564.56 Q2264.44 1564.56 2261.36 1559.98 Q2258.31 1555.37 2258.31 1546.64 Q2258.31 1537.89 2261.36 1533.31 Q2264.44 1528.7 2270.25 1528.7 Z" fill="#9eb1be" fill-rule="nonzero" fill-opacity="1" /><path clip-path="url(#clip750)" d="M2287.66 1549 L2300.14 1549 L2300.14 1552.8 L2287.66 1552.8 L2287.66 1549 Z" fill="#9eb1be" fill-rule="nonzero" fill-opacity="1" /><path clip-path="url(#clip750)" d="M2317.52 1532.41 Q2313.91 1532.41 2312.08 1535.97 Q2310.28 1539.51 2310.28 1546.64 Q2310.28 1553.75 2312.08 1557.31 Q2313.91 1560.86 2317.52 1560.86 Q2321.16 1560.86 2322.96 1557.31 Q2324.79 1553.75 2324.79 1546.64 Q2324.79 1539.51 2322.96 1535.97 Q2321.16 1532.41 2317.52 1532.41 M2317.52 1528.7 Q2323.33 1528.7 2326.39 1533.31 Q2329.47 1537.89 2329.47 1546.64 Q2329.47 1555.37 2326.39 1559.98 Q2323.33 1564.56 2317.52 1564.56 Q2311.71 1564.56 2308.63 1559.98 Q2305.58 1555.37 2305.58 1546.64 Q2305.58 1537.89 2308.63 1533.31 Q2311.71 1528.7 2317.52 1528.7 Z" fill="#9eb1be" fill-rule="nonzero" fill-opacity="1" /><path clip-path="url(#clip750)" d="M2351.85 1545.25 Q2355.21 1545.97 2357.08 1548.24 Q2358.98 1550.51 2358.98 1553.84 Q2358.98 1558.96 2355.46 1561.76 Q2351.94 1564.56 2345.46 1564.56 Q2343.29 1564.56 2340.97 1564.12 Q2338.68 1563.7 2336.23 1562.85 L2336.23 1558.33 Q2338.17 1559.47 2340.48 1560.05 Q2342.8 1560.62 2345.32 1560.62 Q2349.72 1560.62 2352.01 1558.89 Q2354.33 1557.15 2354.33 1553.84 Q2354.33 1550.79 2352.17 1549.07 Q2350.04 1547.34 2346.23 1547.34 L2342.2 1547.34 L2342.2 1543.49 L2346.41 1543.49 Q2349.86 1543.49 2351.69 1542.13 Q2353.52 1540.74 2353.52 1538.15 Q2353.52 1535.49 2351.62 1534.07 Q2349.74 1532.64 2346.23 1532.64 Q2344.3 1532.64 2342.1 1533.05 Q2339.91 1533.47 2337.27 1534.35 L2337.27 1530.18 Q2339.93 1529.44 2342.24 1529.07 Q2344.58 1528.7 2346.64 1528.7 Q2351.97 1528.7 2355.07 1531.13 Q2358.17 1533.54 2358.17 1537.66 Q2358.17 1540.53 2356.53 1542.52 Q2354.88 1544.49 2351.85 1545.25 Z" fill="#9eb1be" fill-rule="nonzero" fill-opacity="1" /><path clip-path="url(#clip750)" d="M2365.09 1549 L2377.57 1549 L2377.57 1552.8 L2365.09 1552.8 L2365.09 1549 Z" fill="#9eb1be" fill-rule="nonzero" fill-opacity="1" /><path clip-path="url(#clip750)" d="M2394.95 1532.41 Q2391.34 1532.41 2389.51 1535.97 Q2387.71 1539.51 2387.71 1546.64 Q2387.71 1553.75 2389.51 1557.31 Q2391.34 1560.86 2394.95 1560.86 Q2398.59 1560.86 2400.39 1557.31 Q2402.22 1553.75 2402.22 1546.64 Q2402.22 1539.51 2400.39 1535.97 Q2398.59 1532.41 2394.95 1532.41 M2394.95 1528.7 Q2400.76 1528.7 2403.82 1533.31 Q2406.9 1537.89 2406.9 1546.64 Q2406.9 1555.37 2403.82 1559.98 Q2400.76 1564.56 2394.95 1564.56 Q2389.14 1564.56 2386.06 1559.98 Q2383.01 1555.37 2383.01 1546.64 Q2383.01 1537.89 2386.06 1533.31 Q2389.14 1528.7 2394.95 1528.7 Z" fill="#9eb1be" fill-rule="nonzero" fill-opacity="1" /><path clip-path="url(#clip750)" d="M2415.92 1559.95 L2423.56 1559.95 L2423.56 1533.59 L2415.25 1535.25 L2415.25 1530.99 L2423.52 1529.33 L2428.19 1529.33 L2428.19 1559.95 L2435.83 1559.95 L2435.83 1563.89 L2415.92 1563.89 L2415.92 1559.95 Z" fill="#9eb1be" fill-rule="nonzero" fill-opacity="1" /><polyline clip-path="url(#clip750)" style="stroke:#adb2b7; stroke-linecap:round; stroke-linejoin:round; stroke-width:4; stroke-opacity:1; fill:none" points="240.339,1495.09 240.339,108.352 "/>
<polyline clip-path="url(#clip750)" style="stroke:#adb2b7; stroke-linecap:round; stroke-linejoin:round; stroke-width:4; stroke-opacity:1; fill:none" points="240.339,1306.52 259.236,1306.52 "/>
<polyline clip-path="url(#clip750)" style="stroke:#adb2b7; stroke-linecap:round; stroke-linejoin:round; stroke-width:4; stroke-opacity:1; fill:none" points="240.339,915.328 259.236,915.328 "/>
<polyline clip-path="url(#clip750)" style="stroke:#adb2b7; stroke-linecap:round; stroke-linejoin:round; stroke-width:4; stroke-opacity:1; fill:none" points="240.339,524.135 259.236,524.135 "/>
<polyline clip-path="url(#clip750)" style="stroke:#adb2b7; stroke-linecap:round; stroke-linejoin:round; stroke-width:4; stroke-opacity:1; fill:none" points="240.339,132.943 259.236,132.943 "/>
<path clip-path="url(#clip750)" d="M62.5939 1293.31 L50.7884 1311.76 L62.5939 1311.76 L62.5939 1293.31 M61.367 1289.24 L67.2466 1289.24 L67.2466 1311.76 L72.1772 1311.76 L72.1772 1315.65 L67.2466 1315.65 L67.2466 1323.8 L62.5939 1323.8 L62.5939 1315.65 L46.9921 1315.65 L46.9921 1311.14 L61.367 1289.24 Z" fill="#9eb1be" fill-rule="nonzero" fill-opacity="1" /><path clip-path="url(#clip750)" d="M80.7188 1319.86 L88.3576 1319.86 L88.3576 1293.5 L80.0475 1295.17 L80.0475 1290.91 L88.3113 1289.24 L92.9872 1289.24 L92.9872 1319.86 L100.626 1319.86 L100.626 1323.8 L80.7188 1323.8 L80.7188 1319.86 Z" fill="#9eb1be" fill-rule="nonzero" fill-opacity="1" /><path clip-path="url(#clip750)" d="M120.07 1292.32 Q116.459 1292.32 114.631 1295.88 Q112.825 1299.42 112.825 1306.55 Q112.825 1313.66 114.631 1317.23 Q116.459 1320.77 120.07 1320.77 Q123.705 1320.77 125.51 1317.23 Q127.339 1313.66 127.339 1306.55 Q127.339 1299.42 125.51 1295.88 Q123.705 1292.32 120.07 1292.32 M120.07 1288.61 Q125.881 1288.61 128.936 1293.22 Q132.015 1297.8 132.015 1306.55 Q132.015 1315.28 128.936 1319.89 Q125.881 1324.47 120.07 1324.47 Q114.26 1324.47 111.182 1319.89 Q108.126 1315.28 108.126 1306.55 Q108.126 1297.8 111.182 1293.22 Q114.26 1288.61 120.07 1288.61 Z" fill="#9eb1be" fill-rule="nonzero" fill-opacity="1" /><path clip-path="url(#clip750)" d="M150.232 1292.32 Q146.621 1292.32 144.793 1295.88 Q142.987 1299.42 142.987 1306.55 Q142.987 1313.66 144.793 1317.23 Q146.621 1320.77 150.232 1320.77 Q153.867 1320.77 155.672 1317.23 Q157.501 1313.66 157.501 1306.55 Q157.501 1299.42 155.672 1295.88 Q153.867 1292.32 150.232 1292.32 M150.232 1288.61 Q156.042 1288.61 159.098 1293.22 Q162.177 1297.8 162.177 1306.55 Q162.177 1315.28 159.098 1319.89 Q156.042 1324.47 150.232 1324.47 Q144.422 1324.47 141.343 1319.89 Q138.288 1315.28 138.288 1306.55 Q138.288 1297.8 141.343 1293.22 Q144.422 1288.61 150.232 1288.61 Z" fill="#9eb1be" fill-rule="nonzero" fill-opacity="1" /><path clip-path="url(#clip750)" d="M180.394 1292.32 Q176.783 1292.32 174.954 1295.88 Q173.149 1299.42 173.149 1306.55 Q173.149 1313.66 174.954 1317.23 Q176.783 1320.77 180.394 1320.77 Q184.028 1320.77 185.834 1317.23 Q187.663 1313.66 187.663 1306.55 Q187.663 1299.42 185.834 1295.88 Q184.028 1292.32 180.394 1292.32 M180.394 1288.61 Q186.204 1288.61 189.26 1293.22 Q192.339 1297.8 192.339 1306.55 Q192.339 1315.28 189.26 1319.89 Q186.204 1324.47 180.394 1324.47 Q174.584 1324.47 171.505 1319.89 Q168.45 1315.28 168.45 1306.55 Q168.45 1297.8 171.505 1293.22 Q174.584 1288.61 180.394 1288.61 Z" fill="#9eb1be" fill-rule="nonzero" fill-opacity="1" /><path clip-path="url(#clip750)" d="M62.5939 902.122 L50.7884 920.571 L62.5939 920.571 L62.5939 902.122 M61.367 898.048 L67.2466 898.048 L67.2466 920.571 L72.1772 920.571 L72.1772 924.459 L67.2466 924.459 L67.2466 932.608 L62.5939 932.608 L62.5939 924.459 L46.9921 924.459 L46.9921 919.946 L61.367 898.048 Z" fill="#9eb1be" fill-rule="nonzero" fill-opacity="1" /><path clip-path="url(#clip750)" d="M83.9364 928.672 L100.256 928.672 L100.256 932.608 L78.3114 932.608 L78.3114 928.672 Q80.9734 925.918 85.5567 921.288 Q90.1632 916.635 91.3437 915.293 Q93.5891 912.77 94.4687 911.034 Q95.3715 909.274 95.3715 907.585 Q95.3715 904.83 93.4271 903.094 Q91.5058 901.358 88.4039 901.358 Q86.2049 901.358 83.7512 902.122 Q81.3206 902.885 78.5429 904.436 L78.5429 899.714 Q81.3669 898.58 83.8206 898.001 Q86.2743 897.423 88.3113 897.423 Q93.6817 897.423 96.8761 900.108 Q100.071 902.793 100.071 907.284 Q100.071 909.413 99.2604 911.334 Q98.4733 913.233 96.3669 915.825 Q95.7882 916.496 92.6863 919.714 Q89.5845 922.908 83.9364 928.672 Z" fill="#9eb1be" fill-rule="nonzero" fill-opacity="1" /><path clip-path="url(#clip750)" d="M120.07 901.126 Q116.459 901.126 114.631 904.691 Q112.825 908.233 112.825 915.362 Q112.825 922.469 114.631 926.033 Q116.459 929.575 120.07 929.575 Q123.705 929.575 125.51 926.033 Q127.339 922.469 127.339 915.362 Q127.339 908.233 125.51 904.691 Q123.705 901.126 120.07 901.126 M120.07 897.423 Q125.881 897.423 128.936 902.029 Q132.015 906.612 132.015 915.362 Q132.015 924.089 128.936 928.696 Q125.881 933.279 120.07 933.279 Q114.26 933.279 111.182 928.696 Q108.126 924.089 108.126 915.362 Q108.126 906.612 111.182 902.029 Q114.26 897.423 120.07 897.423 Z" fill="#9eb1be" fill-rule="nonzero" fill-opacity="1" /><path clip-path="url(#clip750)" d="M150.232 901.126 Q146.621 901.126 144.793 904.691 Q142.987 908.233 142.987 915.362 Q142.987 922.469 144.793 926.033 Q146.621 929.575 150.232 929.575 Q153.867 929.575 155.672 926.033 Q157.501 922.469 157.501 915.362 Q157.501 908.233 155.672 904.691 Q153.867 901.126 150.232 901.126 M150.232 897.423 Q156.042 897.423 159.098 902.029 Q162.177 906.612 162.177 915.362 Q162.177 924.089 159.098 928.696 Q156.042 933.279 150.232 933.279 Q144.422 933.279 141.343 928.696 Q138.288 924.089 138.288 915.362 Q138.288 906.612 141.343 902.029 Q144.422 897.423 150.232 897.423 Z" fill="#9eb1be" fill-rule="nonzero" fill-opacity="1" /><path clip-path="url(#clip750)" d="M180.394 901.126 Q176.783 901.126 174.954 904.691 Q173.149 908.233 173.149 915.362 Q173.149 922.469 174.954 926.033 Q176.783 929.575 180.394 929.575 Q184.028 929.575 185.834 926.033 Q187.663 922.469 187.663 915.362 Q187.663 908.233 185.834 904.691 Q184.028 901.126 180.394 901.126 M180.394 897.423 Q186.204 897.423 189.26 902.029 Q192.339 906.612 192.339 915.362 Q192.339 924.089 189.26 928.696 Q186.204 933.279 180.394 933.279 Q174.584 933.279 171.505 928.696 Q168.45 924.089 168.45 915.362 Q168.45 906.612 171.505 902.029 Q174.584 897.423 180.394 897.423 Z" fill="#9eb1be" fill-rule="nonzero" fill-opacity="1" /><path clip-path="url(#clip750)" d="M62.5939 510.929 L50.7884 529.378 L62.5939 529.378 L62.5939 510.929 M61.367 506.855 L67.2466 506.855 L67.2466 529.378 L72.1772 529.378 L72.1772 533.267 L67.2466 533.267 L67.2466 541.415 L62.5939 541.415 L62.5939 533.267 L46.9921 533.267 L46.9921 528.753 L61.367 506.855 Z" fill="#9eb1be" fill-rule="nonzero" fill-opacity="1" /><path clip-path="url(#clip750)" d="M94.0752 522.781 Q97.4317 523.499 99.3067 525.767 Q101.205 528.036 101.205 531.369 Q101.205 536.485 97.6863 539.286 Q94.1678 542.087 87.6864 542.087 Q85.5104 542.087 83.1956 541.647 Q80.904 541.23 78.4503 540.374 L78.4503 535.86 Q80.3947 536.994 82.7095 537.573 Q85.0243 538.151 87.5475 538.151 Q91.9456 538.151 94.2372 536.415 Q96.552 534.679 96.552 531.369 Q96.552 528.314 94.3993 526.601 Q92.2697 524.864 88.4502 524.864 L84.4225 524.864 L84.4225 521.022 L88.6354 521.022 Q92.0845 521.022 93.9132 519.656 Q95.7419 518.267 95.7419 515.675 Q95.7419 513.013 93.8437 511.601 Q91.9687 510.165 88.4502 510.165 Q86.529 510.165 84.3299 510.582 Q82.1308 510.999 79.492 511.878 L79.492 507.712 Q82.154 506.971 84.4688 506.601 Q86.8067 506.23 88.8669 506.23 Q94.1909 506.23 97.2928 508.661 Q100.395 511.068 100.395 515.189 Q100.395 518.059 98.7511 520.05 Q97.1076 522.017 94.0752 522.781 Z" fill="#9eb1be" fill-rule="nonzero" fill-opacity="1" /><path clip-path="url(#clip750)" d="M120.07 509.934 Q116.459 509.934 114.631 513.499 Q112.825 517.04 112.825 524.17 Q112.825 531.276 114.631 534.841 Q116.459 538.383 120.07 538.383 Q123.705 538.383 125.51 534.841 Q127.339 531.276 127.339 524.17 Q127.339 517.04 125.51 513.499 Q123.705 509.934 120.07 509.934 M120.07 506.23 Q125.881 506.23 128.936 510.837 Q132.015 515.42 132.015 524.17 Q132.015 532.897 128.936 537.503 Q125.881 542.087 120.07 542.087 Q114.26 542.087 111.182 537.503 Q108.126 532.897 108.126 524.17 Q108.126 515.42 111.182 510.837 Q114.26 506.23 120.07 506.23 Z" fill="#9eb1be" fill-rule="nonzero" fill-opacity="1" /><path clip-path="url(#clip750)" d="M150.232 509.934 Q146.621 509.934 144.793 513.499 Q142.987 517.04 142.987 524.17 Q142.987 531.276 144.793 534.841 Q146.621 538.383 150.232 538.383 Q153.867 538.383 155.672 534.841 Q157.501 531.276 157.501 524.17 Q157.501 517.04 155.672 513.499 Q153.867 509.934 150.232 509.934 M150.232 506.23 Q156.042 506.23 159.098 510.837 Q162.177 515.42 162.177 524.17 Q162.177 532.897 159.098 537.503 Q156.042 542.087 150.232 542.087 Q144.422 542.087 141.343 537.503 Q138.288 532.897 138.288 524.17 Q138.288 515.42 141.343 510.837 Q144.422 506.23 150.232 506.23 Z" fill="#9eb1be" fill-rule="nonzero" fill-opacity="1" /><path clip-path="url(#clip750)" d="M180.394 509.934 Q176.783 509.934 174.954 513.499 Q173.149 517.04 173.149 524.17 Q173.149 531.276 174.954 534.841 Q176.783 538.383 180.394 538.383 Q184.028 538.383 185.834 534.841 Q187.663 531.276 187.663 524.17 Q187.663 517.04 185.834 513.499 Q184.028 509.934 180.394 509.934 M180.394 506.23 Q186.204 506.23 189.26 510.837 Q192.339 515.42 192.339 524.17 Q192.339 532.897 189.26 537.503 Q186.204 542.087 180.394 542.087 Q174.584 542.087 171.505 537.503 Q168.45 532.897 168.45 524.17 Q168.45 515.42 171.505 510.837 Q174.584 506.23 180.394 506.23 Z" fill="#9eb1be" fill-rule="nonzero" fill-opacity="1" /><path clip-path="url(#clip750)" d="M62.5939 119.737 L50.7884 138.186 L62.5939 138.186 L62.5939 119.737 M61.367 115.663 L67.2466 115.663 L67.2466 138.186 L72.1772 138.186 L72.1772 142.075 L67.2466 142.075 L67.2466 150.223 L62.5939 150.223 L62.5939 142.075 L46.9921 142.075 L46.9921 137.561 L61.367 115.663 Z" fill="#9eb1be" fill-rule="nonzero" fill-opacity="1" /><path clip-path="url(#clip750)" d="M92.7558 119.737 L80.9503 138.186 L92.7558 138.186 L92.7558 119.737 M91.5289 115.663 L97.4085 115.663 L97.4085 138.186 L102.339 138.186 L102.339 142.075 L97.4085 142.075 L97.4085 150.223 L92.7558 150.223 L92.7558 142.075 L77.154 142.075 L77.154 137.561 L91.5289 115.663 Z" fill="#9eb1be" fill-rule="nonzero" fill-opacity="1" /><path clip-path="url(#clip750)" d="M120.07 118.742 Q116.459 118.742 114.631 122.307 Q112.825 125.848 112.825 132.978 Q112.825 140.084 114.631 143.649 Q116.459 147.191 120.07 147.191 Q123.705 147.191 125.51 143.649 Q127.339 140.084 127.339 132.978 Q127.339 125.848 125.51 122.307 Q123.705 118.742 120.07 118.742 M120.07 115.038 Q125.881 115.038 128.936 119.645 Q132.015 124.228 132.015 132.978 Q132.015 141.705 128.936 146.311 Q125.881 150.894 120.07 150.894 Q114.26 150.894 111.182 146.311 Q108.126 141.705 108.126 132.978 Q108.126 124.228 111.182 119.645 Q114.26 115.038 120.07 115.038 Z" fill="#9eb1be" fill-rule="nonzero" fill-opacity="1" /><path clip-path="url(#clip750)" d="M150.232 118.742 Q146.621 118.742 144.793 122.307 Q142.987 125.848 142.987 132.978 Q142.987 140.084 144.793 143.649 Q146.621 147.191 150.232 147.191 Q153.867 147.191 155.672 143.649 Q157.501 140.084 157.501 132.978 Q157.501 125.848 155.672 122.307 Q153.867 118.742 150.232 118.742 M150.232 115.038 Q156.042 115.038 159.098 119.645 Q162.177 124.228 162.177 132.978 Q162.177 141.705 159.098 146.311 Q156.042 150.894 150.232 150.894 Q144.422 150.894 141.343 146.311 Q138.288 141.705 138.288 132.978 Q138.288 124.228 141.343 119.645 Q144.422 115.038 150.232 115.038 Z" fill="#9eb1be" fill-rule="nonzero" fill-opacity="1" /><path clip-path="url(#clip750)" d="M180.394 118.742 Q176.783 118.742 174.954 122.307 Q173.149 125.848 173.149 132.978 Q173.149 140.084 174.954 143.649 Q176.783 147.191 180.394 147.191 Q184.028 147.191 185.834 143.649 Q187.663 140.084 187.663 132.978 Q187.663 125.848 185.834 122.307 Q184.028 118.742 180.394 118.742 M180.394 115.038 Q186.204 115.038 189.26 119.645 Q192.339 124.228 192.339 132.978 Q192.339 141.705 189.26 146.311 Q186.204 150.894 180.394 150.894 Q174.584 150.894 171.505 146.311 Q168.45 141.705 168.45 132.978 Q168.45 124.228 171.505 119.645 Q174.584 115.038 180.394 115.038 Z" fill="#9eb1be" fill-rule="nonzero" fill-opacity="1" /><path clip-path="url(#clip750)" d="M1570.69 12.096 L1608.93 12.096 L1608.93 18.9825 L1578.87 18.9825 L1578.87 36.8875 L1607.67 36.8875 L1607.67 43.7741 L1578.87 43.7741 L1578.87 65.6895 L1609.66 65.6895 L1609.66 72.576 L1570.69 72.576 L1570.69 12.096 Z" fill="#adb2b7" fill-rule="nonzero" fill-opacity="1" /><path clip-path="url(#clip750)" d="M1627.24 49.9314 Q1627.24 58.1548 1630.6 62.8538 Q1634 67.5124 1639.92 67.5124 Q1645.83 67.5124 1649.23 62.8538 Q1652.64 58.1548 1652.64 49.9314 Q1652.64 41.7081 1649.23 37.0496 Q1645.83 32.3505 1639.92 32.3505 Q1634 32.3505 1630.6 37.0496 Q1627.24 41.7081 1627.24 49.9314 M1652.64 65.7705 Q1650.29 69.8214 1646.68 71.8063 Q1643.12 73.7508 1638.09 73.7508 Q1629.87 73.7508 1624.68 67.1883 Q1619.54 60.6258 1619.54 49.9314 Q1619.54 39.2371 1624.68 32.6746 Q1629.87 26.1121 1638.09 26.1121 Q1643.12 26.1121 1646.68 28.0971 Q1650.29 30.0415 1652.64 34.0924 L1652.64 27.2059 L1660.09 27.2059 L1660.09 89.8329 L1652.64 89.8329 L1652.64 65.7705 Z" fill="#adb2b7" fill-rule="nonzero" fill-opacity="1" /><path clip-path="url(#clip750)" d="M1674.67 54.671 L1674.67 27.2059 L1682.13 27.2059 L1682.13 54.3874 Q1682.13 60.8284 1684.64 64.0691 Q1687.15 67.2693 1692.17 67.2693 Q1698.21 67.2693 1701.69 63.421 Q1705.22 59.5726 1705.22 52.9291 L1705.22 27.2059 L1712.67 27.2059 L1712.67 72.576 L1705.22 72.576 L1705.22 65.6084 Q1702.5 69.7404 1698.9 71.7658 Q1695.33 73.7508 1690.59 73.7508 Q1682.77 73.7508 1678.72 68.8897 Q1674.67 64.0286 1674.67 54.671 M1693.43 26.1121 L1693.43 26.1121 Z" fill="#adb2b7" fill-rule="nonzero" fill-opacity="1" /><path clip-path="url(#clip750)" d="M1728.02 27.2059 L1735.48 27.2059 L1735.48 72.576 L1728.02 72.576 L1728.02 27.2059 M1728.02 9.54393 L1735.48 9.54393 L1735.48 18.9825 L1728.02 18.9825 L1728.02 9.54393 Z" fill="#adb2b7" fill-rule="nonzero" fill-opacity="1" /><path clip-path="url(#clip750)" d="M1758.45 14.324 L1758.45 27.2059 L1773.8 27.2059 L1773.8 32.9987 L1758.45 32.9987 L1758.45 57.6282 Q1758.45 63.1779 1759.94 64.7578 Q1761.48 66.3376 1766.14 66.3376 L1773.8 66.3376 L1773.8 72.576 L1766.14 72.576 Q1757.51 72.576 1754.23 69.3758 Q1750.95 66.1351 1750.95 57.6282 L1750.95 32.9987 L1745.48 32.9987 L1745.48 27.2059 L1750.95 27.2059 L1750.95 14.324 L1758.45 14.324 Z" fill="#adb2b7" fill-rule="nonzero" fill-opacity="1" /><path clip-path="url(#clip750)" d="M1802.48 76.7889 Q1799.32 84.8907 1796.32 87.3618 Q1793.32 89.8329 1788.3 89.8329 L1782.35 89.8329 L1782.35 83.5945 L1786.72 83.5945 Q1789.8 83.5945 1791.5 82.1361 Q1793.2 80.6778 1795.27 75.2496 L1796.6 71.8468 L1778.25 27.2059 L1786.15 27.2059 L1800.33 62.6918 L1814.51 27.2059 L1822.41 27.2059 L1802.48 76.7889 Z" fill="#adb2b7" fill-rule="nonzero" fill-opacity="1" /><polyline clip-path="url(#clip751)" style="stroke:#bbbb00; stroke-linecap:round; stroke-linejoin:round; stroke-width:4; stroke-opacity:1; fill:none" points="322.765,1404.32 324.14,1404.32 325.514,1404.32 326.889,1404.32 328.263,1404.32 329.638,1404.32 331.012,1404.32 332.387,1404.32 333.761,1404.32 335.136,1404.32 336.51,1404.32 337.885,1404.32 339.259,1404.32 340.634,1404.32 342.008,1404.32 343.383,1404.32 344.757,1404.32 346.131,1404.32 347.506,1404.32 348.88,1404.32 350.255,1404.32 351.629,1404.32 353.004,1404.32 354.378,1404.32 355.753,1404.32 357.127,1404.32 358.502,1404.32 359.876,1404.32 361.251,1404.32 362.625,1404.32 364,1404.32 365.374,1404.32 366.748,1404.32 368.123,1404.32 369.497,1404.32 370.872,1404.32 372.246,1404.32 373.621,1404.32 374.995,1404.32 376.37,1404.32 377.744,1404.32 379.119,1404.32 380.493,1404.32 381.868,1404.32 383.242,1404.32 384.617,1404.32 385.991,1404.32 387.366,1404.32 388.74,1404.32 390.114,1404.32 391.489,1404.32 392.863,1404.32 394.238,1404.32 395.612,1404.32 396.987,1404.32 398.361,1404.32 399.736,1404.32 401.11,1404.32 402.485,1404.32 402.485,1405.02 403.859,1405.02 403.859,1404.46 405.234,1404.46 405.234,1399.19 406.608,1399.19 406.608,1393.62 407.983,1393.62 407.983,1394.87 409.357,1394.87 409.357,1401.37 410.731,1401.37 410.731,1397.15 412.106,1397.15 412.106,1401.27 413.48,1401.27 413.48,1398.68 414.855,1398.68 414.855,1406.52 416.229,1406.52 416.229,1407.98 417.604,1407.98 417.604,1409.64 418.978,1409.64 418.978,1413.28 420.353,1413.28 420.353,1408.12 421.727,1408.12 421.727,1404.01 423.102,1404.01 423.102,1403.67 424.476,1403.67 424.476,1406.69 425.851,1406.69 425.851,1402.64 427.225,1402.64 427.225,1408.41 428.6,1408.41 428.6,1409.72 429.974,1409.72 429.974,1409.07 431.349,1409.07 431.349,1411.7 432.723,1411.7 432.723,1409.77 434.097,1409.77 434.097,1414.8 435.472,1414.8 435.472,1419.16 436.846,1419.16 436.846,1419.18 438.221,1419.18 438.221,1421.79 439.595,1421.79 439.595,1422.91 440.97,1422.91 440.97,1429.2 442.344,1429.2 442.344,1426.55 443.719,1426.55 443.719,1427.61 445.093,1427.61 445.093,1428.12 446.468,1428.12 446.468,1423.66 447.842,1423.66 447.842,1423.19 449.217,1423.19 449.217,1428.59 450.591,1428.59 450.591,1427.09 451.966,1427.09 451.966,1430.78 453.34,1430.78 453.34,1426.25 454.714,1426.25 454.714,1422.95 456.089,1422.95 456.089,1419.14 457.463,1419.14 457.463,1417.23 458.838,1417.23 458.838,1416.94 460.212,1416.94 460.212,1409.79 461.587,1409.79 461.587,1413.36 462.961,1413.36 462.961,1413.45 464.336,1413.45 464.336,1419.35 465.71,1419.35 465.71,1419.12 467.085,1419.12 467.085,1417.81 468.459,1417.81 468.459,1411.36 469.834,1411.36 469.834,1409.82 471.208,1409.82 471.208,1402.58 472.583,1402.58 472.583,1405.55 473.957,1405.55 473.957,1406.76 475.332,1406.76 475.332,1407.35 476.706,1407.35 476.706,1410.15 478.08,1410.15 478.08,1405.95 479.455,1405.95 479.455,1400.61 480.829,1400.61 480.829,1397.76 482.204,1397.76 482.204,1398.62 483.578,1398.62 483.578,1405.44 484.953,1405.44 484.953,1412.04 486.327,1412.04 486.327,1412.75 487.702,1412.75 487.702,1410.23 489.076,1410.23 489.076,1408.52 490.451,1408.52 490.451,1408.98 491.825,1408.98 491.825,1412.41 493.2,1412.41 493.2,1411.16 494.574,1411.16 494.574,1410.16 495.949,1410.16 495.949,1409.22 497.323,1409.22 497.323,1409.32 498.698,1409.32 498.698,1407.11 500.072,1407.11 500.072,1407.82 501.446,1407.82 501.446,1404.15 502.821,1404.15 502.821,1402.57 504.195,1402.57 504.195,1404.78 505.57,1404.78 505.57,1410.32 506.944,1410.32 506.944,1413.17 508.319,1413.17 508.319,1410.54 509.693,1410.54 509.693,1414.39 511.068,1414.39 511.068,1408.28 512.442,1408.28 512.442,1411.18 513.817,1411.18 513.817,1412.31 515.191,1412.31 515.191,1411.47 516.566,1411.47 516.566,1412.29 517.94,1412.29 517.94,1405.87 519.315,1405.87 519.315,1403.51 520.689,1403.51 520.689,1401.68 522.063,1401.68 522.063,1396.99 523.438,1396.99 523.438,1393.7 524.812,1393.7 524.812,1394.81 526.187,1394.81 526.187,1398.4 527.561,1398.4 527.561,1402.02 528.936,1402.02 528.936,1400.94 530.31,1400.94 530.31,1402.39 531.685,1402.39 531.685,1400.97 533.059,1400.97 533.059,1404.79 534.434,1404.79 534.434,1405.83 535.808,1405.83 535.808,1408.52 537.183,1408.52 537.183,1412.78 538.557,1412.78 538.557,1418.1 539.932,1418.1 539.932,1414.46 541.306,1414.46 541.306,1418.27 542.681,1418.27 542.681,1413.15 544.055,1413.15 544.055,1406.67 545.429,1406.67 545.429,1414.68 546.804,1414.68 546.804,1408.46 548.178,1408.46 548.178,1409.2 549.553,1409.2 549.553,1394.08 550.927,1394.08 550.927,1389.22 552.302,1389.22 552.302,1385.23 553.676,1385.23 553.676,1392.59 555.051,1392.59 555.051,1383.73 556.425,1383.73 556.425,1380.34 557.8,1380.34 557.8,1381.87 559.174,1381.87 559.174,1377.9 560.549,1377.9 560.549,1375.25 561.923,1375.25 561.923,1372.6 563.298,1372.6 563.298,1368.38 564.672,1368.38 564.672,1375.8 566.046,1375.8 566.046,1375.21 567.421,1375.21 567.421,1364.55 568.795,1364.55 568.795,1353.35 570.17,1353.35 570.17,1350.3 571.544,1350.3 571.544,1347.87 572.919,1347.87 572.919,1340.9 574.293,1340.9 574.293,1341.53 575.668,1341.53 575.668,1335.35 577.042,1335.35 577.042,1339.78 578.417,1339.78 578.417,1339.27 579.791,1339.27 579.791,1336.25 581.166,1336.25 581.166,1336.45 582.54,1336.45 582.54,1330.44 583.915,1330.44 583.915,1342.57 585.289,1342.57 585.289,1337.66 586.664,1337.66 586.664,1327.44 588.038,1327.44 588.038,1324.33 589.412,1324.33 589.412,1327.63 590.787,1327.63 590.787,1332.11 592.161,1332.11 592.161,1329.77 593.536,1329.77 593.536,1331.31 594.91,1331.31 594.91,1330.93 596.285,1330.93 596.285,1332.98 597.659,1332.98 597.659,1336.04 599.034,1336.04 599.034,1336.65 600.408,1336.65 600.408,1344.94 601.783,1344.94 601.783,1338.99 603.157,1338.99 603.157,1355.96 604.532,1355.96 604.532,1365.04 605.906,1365.04 605.906,1356.98 607.281,1356.98 607.281,1350.35 608.655,1350.35 608.655,1350.01 610.029,1350.01 610.029,1340.43 611.404,1340.43 611.404,1341.25 612.778,1341.25 612.778,1333.89 614.153,1333.89 614.153,1328.72 615.527,1328.72 615.527,1325.19 616.902,1325.19 616.902,1326.55 618.276,1326.55 618.276,1320.76 619.651,1320.76 619.651,1337.54 621.025,1337.54 621.025,1338.88 622.4,1338.88 622.4,1340.73 623.774,1340.73 623.774,1327.6 625.149,1327.6 625.149,1328.34 626.523,1328.34 626.523,1336.16 627.898,1336.16 627.898,1341.21 629.272,1341.21 629.272,1328.13 630.647,1328.13 630.647,1332.4 632.021,1332.4 632.021,1342.36 633.395,1342.36 633.395,1329.68 634.77,1329.68 634.77,1328.28 636.144,1328.28 636.144,1320.68 637.519,1320.68 637.519,1328.84 638.893,1328.84 638.893,1323.2 640.268,1323.2 640.268,1334.11 641.642,1334.11 641.642,1338.84 643.017,1338.84 643.017,1342.31 644.391,1342.31 644.391,1354.8 645.766,1354.8 645.766,1360.01 647.14,1360.01 647.14,1370.66 648.515,1370.66 648.515,1356.17 649.889,1356.17 649.889,1354.74 651.264,1354.74 651.264,1366.25 652.638,1366.25 652.638,1365.61 654.013,1365.61 654.013,1376.01 655.387,1376.01 655.387,1359.63 656.761,1359.63 656.761,1350.16 658.136,1350.16 658.136,1351.35 659.51,1351.35 659.51,1366.72 660.885,1366.72 660.885,1384.76 662.259,1384.76 662.259,1385.55 663.634,1385.55 663.634,1403.2 665.008,1403.2 665.008,1423.72 666.383,1423.72 666.383,1426.87 667.757,1426.87 667.757,1420.07 669.132,1420.07 669.132,1416.56 670.506,1416.56 670.506,1424.54 671.881,1424.54 671.881,1427.61 673.255,1427.61 673.255,1415.57 674.63,1415.57 674.63,1421.97 676.004,1421.97 676.004,1414.24 677.378,1414.24 677.378,1424.96 678.753,1424.96 678.753,1415.17 680.127,1415.17 680.127,1407.53 681.502,1407.53 681.502,1401.78 682.876,1401.78 682.876,1402.19 684.251,1402.19 684.251,1394.44 685.625,1394.44 685.625,1387.75 687,1387.75 687,1366.4 688.374,1366.4 688.374,1367.42 689.749,1367.42 689.749,1374.28 691.123,1374.28 691.123,1381.58 692.498,1381.58 692.498,1387.51 693.872,1387.51 693.872,1387.15 695.247,1387.15 695.247,1379.17 696.621,1379.17 696.621,1387.49 697.996,1387.49 697.996,1389.61 699.37,1389.61 699.37,1385.91 700.744,1385.91 700.744,1374.04 702.119,1374.04 702.119,1373.74 703.493,1373.74 703.493,1382.49 704.868,1382.49 704.868,1373.57 706.242,1373.57 706.242,1367.17 707.617,1367.17 707.617,1371.9 708.991,1371.9 708.991,1372.45 710.366,1372.45 710.366,1362.47 711.74,1362.47 711.74,1371.8 713.115,1371.8 713.115,1378.47 714.489,1378.47 714.489,1384.16 715.864,1384.16 715.864,1382.54 717.238,1382.54 717.238,1377.51 718.613,1377.51 718.613,1361.18 719.987,1361.18 719.987,1354.52 721.361,1354.52 721.361,1348.86 722.736,1348.86 722.736,1361.86 724.11,1361.86 724.11,1352.01 725.485,1352.01 725.485,1347.84 726.859,1347.84 726.859,1361.32 728.234,1361.32 728.234,1348.76 729.608,1348.76 729.608,1336.17 730.983,1336.17 730.983,1341.38 732.357,1341.38 732.357,1327.83 733.732,1327.83 733.732,1321.51 735.106,1321.51 735.106,1323.79 736.481,1323.79 736.481,1319.93 737.855,1319.93 737.855,1310.74 739.23,1310.74 739.23,1316.44 740.604,1316.44 740.604,1320.07 741.979,1320.07 741.979,1300.21 743.353,1300.21 743.353,1300.46 744.727,1300.46 744.727,1315.11 746.102,1315.11 746.102,1317.38 747.476,1317.38 747.476,1320.51 748.851,1320.51 748.851,1317.99 750.225,1317.99 750.225,1307.36 751.6,1307.36 751.6,1303.71 752.974,1303.71 752.974,1297.69 754.349,1297.69 754.349,1309.94 755.723,1309.94 755.723,1309.2 757.098,1309.2 757.098,1326.45 758.472,1326.45 758.472,1322.43 759.847,1322.43 759.847,1329.86 761.221,1329.86 761.221,1328.44 762.596,1328.44 762.596,1329.72 763.97,1329.72 763.97,1326.04 765.344,1326.04 765.344,1327.73 766.719,1327.73 766.719,1326.87 768.093,1326.87 768.093,1311.71 769.468,1311.71 769.468,1317.41 770.842,1317.41 770.842,1314.7 772.217,1314.7 772.217,1322.03 773.591,1322.03 773.591,1323.12 774.966,1323.12 774.966,1324.7 776.34,1324.7 776.34,1326.46 777.715,1326.46 777.715,1338.68 779.089,1338.68 779.089,1345.76 780.464,1345.76 780.464,1353.41 781.838,1353.41 781.838,1359.29 783.213,1359.29 783.213,1351.42 784.587,1351.42 784.587,1348.22 785.962,1348.22 785.962,1334.01 787.336,1334.01 787.336,1333.21 788.71,1333.21 788.71,1334.76 790.085,1334.76 790.085,1337.94 791.459,1337.94 791.459,1342.07 792.834,1342.07 792.834,1351.23 794.208,1351.23 794.208,1344.94 795.583,1344.94 795.583,1353.1 796.957,1353.1 796.957,1354.08 798.332,1354.08 798.332,1357.11 799.706,1357.11 799.706,1364.46 801.081,1364.46 801.081,1375.06 802.455,1375.06 802.455,1383.15 803.83,1383.15 803.83,1370.87 805.204,1370.87 805.204,1376.51 806.579,1376.51 806.579,1374.04 807.953,1374.04 807.953,1384.78 809.328,1384.78 809.328,1394.89 810.702,1394.89 810.702,1404.01 812.076,1404.01 812.076,1400.8 813.451,1400.8 813.451,1416.06 814.825,1416.06 814.825,1428.76 816.2,1428.76 816.2,1437.86 817.574,1437.86 817.574,1441.1 818.949,1441.1 818.949,1438.36 820.323,1438.36 820.323,1443.24 821.698,1443.24 821.698,1432.1 823.072,1432.1 823.072,1425.96 824.447,1425.96 824.447,1433.97 825.821,1433.97 825.821,1445.4 827.196,1445.4 827.196,1444.83 828.57,1444.83 828.57,1445.19 829.945,1445.19 829.945,1442.62 831.319,1442.62 831.319,1449.88 832.693,1449.88 832.693,1441.48 834.068,1441.48 834.068,1420.31 835.442,1420.31 835.442,1434.49 836.817,1434.49 836.817,1448.94 838.191,1448.94 838.191,1451.88 839.566,1451.88 839.566,1452.1 840.94,1452.1 840.94,1446.36 842.315,1446.36 842.315,1444.91 843.689,1444.91 843.689,1450.35 845.064,1450.35 845.064,1455.84 846.438,1455.84 846.438,1453.28 847.813,1453.28 847.813,1446.02 849.187,1446.02 849.187,1439.15 850.562,1439.15 850.562,1429.39 851.936,1429.39 851.936,1428.33 853.311,1428.33 853.311,1434.01 854.685,1434.01 854.685,1435.72 856.059,1435.72 856.059,1437.63 857.434,1437.63 857.434,1433.33 858.808,1433.33 858.808,1426.93 860.183,1426.93 860.183,1426.9 861.557,1426.9 861.557,1423.68 862.932,1423.68 862.932,1438.08 864.306,1438.08 864.306,1435.62 865.681,1435.62 865.681,1434.49 867.055,1434.49 867.055,1435.56 868.43,1435.56 868.43,1428.44 869.804,1428.44 869.804,1425.74 871.179,1425.74 871.179,1423.01 872.553,1423.01 872.553,1407.72 873.928,1407.72 873.928,1408.82 875.302,1408.82 875.302,1411.57 876.676,1411.57 876.676,1395.67 878.051,1395.67 878.051,1406.6 879.425,1406.6 879.425,1405.33 880.8,1405.33 880.8,1406.21 882.174,1406.21 882.174,1396.42 883.549,1396.42 883.549,1394.11 884.923,1394.11 884.923,1390.37 886.298,1390.37 886.298,1401.57 887.672,1401.57 887.672,1420.02 889.047,1420.02 889.047,1405.76 890.421,1405.76 890.421,1405.57 891.796,1405.57 891.796,1400.69 893.17,1400.69 893.17,1409.13 894.545,1409.13 894.545,1419.15 895.919,1419.15 895.919,1412.37 897.294,1412.37 897.294,1408.14 898.668,1408.14 898.668,1396.01 900.042,1396.01 900.042,1396.05 901.417,1396.05 901.417,1404.65 902.791,1404.65 902.791,1385.09 904.166,1385.09 904.166,1383.31 905.54,1383.31 905.54,1373.59 906.915,1373.59 906.915,1371.13 908.289,1371.13 908.289,1365.22 909.664,1365.22 909.664,1360.65 911.038,1360.65 911.038,1357.46 912.413,1357.46 912.413,1351.55 913.787,1351.55 913.787,1358.64 915.162,1358.64 915.162,1371.23 916.536,1371.23 916.536,1385.26 917.911,1385.26 917.911,1377.38 919.285,1377.38 919.285,1378.87 920.659,1378.87 920.659,1385.16 922.034,1385.16 922.034,1388.25 923.408,1388.25 923.408,1388.7 924.783,1388.7 924.783,1381.53 926.157,1381.53 926.157,1388.12 927.532,1388.12 927.532,1402.57 928.906,1402.57 928.906,1403.44 930.281,1403.44 930.281,1386.6 931.655,1386.6 931.655,1383.91 933.03,1383.91 933.03,1377.16 934.404,1377.16 934.404,1374.84 935.779,1374.84 935.779,1366.41 937.153,1366.41 937.153,1363.02 938.528,1363.02 938.528,1360.26 939.902,1360.26 939.902,1360.91 941.277,1360.91 941.277,1364.69 942.651,1364.69 942.651,1363.97 944.025,1363.97 944.025,1347.28 945.4,1347.28 945.4,1343.13 946.774,1343.13 946.774,1335.66 948.149,1335.66 948.149,1332.69 949.523,1332.69 949.523,1325.77 950.898,1325.77 950.898,1324.07 952.272,1324.07 952.272,1333.72 953.647,1333.72 953.647,1346.46 955.021,1346.46 955.021,1337.93 956.396,1337.93 956.396,1337.28 957.77,1337.28 957.77,1348.2 959.145,1348.2 959.145,1352.12 960.519,1352.12 960.519,1350.59 961.894,1350.59 961.894,1351.68 963.268,1351.68 963.268,1352.14 964.642,1352.14 964.642,1356.78 966.017,1356.78 966.017,1344.34 967.391,1344.34 967.391,1338.99 968.766,1338.99 968.766,1339.42 970.14,1339.42 970.14,1335.52 971.515,1335.52 971.515,1329.15 972.889,1329.15 972.889,1326.1 974.264,1326.1 974.264,1316.59 975.638,1316.59 975.638,1302.2 977.013,1302.2 977.013,1314.55 978.387,1314.55 978.387,1317.32 979.762,1317.32 979.762,1321.52 981.136,1321.52 981.136,1308.78 982.511,1308.78 982.511,1305.33 983.885,1305.33 983.885,1325.81 985.26,1325.81 985.26,1314.39 986.634,1314.39 986.634,1318.51 988.008,1318.51 988.008,1316.86 989.383,1316.86 989.383,1316.95 990.757,1316.95 990.757,1329.98 992.132,1329.98 992.132,1334.69 993.506,1334.69 993.506,1331.14 994.881,1331.14 994.881,1335.15 996.255,1335.15 996.255,1335.26 997.63,1335.26 997.63,1330.14 999.004,1330.14 999.004,1332.09 1000.38,1332.09 1000.38,1344.37 1001.75,1344.37 1001.75,1349.07 1003.13,1349.07 1003.13,1340.83 1004.5,1340.83 1004.5,1344.43 1005.88,1344.43 1005.88,1346.56 1007.25,1346.56 1007.25,1332.15 1008.63,1332.15 1008.63,1332.24 1010,1332.24 1010,1339.04 1011.37,1339.04 1011.37,1342.4 1012.75,1342.4 1012.75,1333.09 1014.12,1333.09 1014.12,1329.52 1015.5,1329.52 1015.5,1326.86 1016.87,1326.86 1016.87,1329.86 1018.25,1329.86 1018.25,1333.25 1019.62,1333.25 1019.62,1348.98 1021,1348.98 1021,1363.96 1022.37,1363.96 1022.37,1365.26 1023.74,1365.26 1023.74,1358.45 1025.12,1358.45 1025.12,1351.66 1026.49,1351.66 1026.49,1353.01 1027.87,1353.01 1027.87,1337.06 1029.24,1337.06 1029.24,1333.36 1030.62,1333.36 1030.62,1325.24 1031.99,1325.24 1031.99,1331.16 1033.37,1331.16 1033.37,1330.4 1034.74,1330.4 1034.74,1328.21 1036.11,1328.21 1036.11,1336.54 1037.49,1336.54 1037.49,1332.88 1038.86,1332.88 1038.86,1336.78 1040.24,1336.78 1040.24,1335.08 1041.61,1335.08 1041.61,1338.36 1042.99,1338.36 1042.99,1339.17 1044.36,1339.17 1044.36,1330.1 1045.74,1330.1 1045.74,1338.19 1047.11,1338.19 1047.11,1325.77 1048.49,1325.77 1048.49,1322.64 1049.86,1322.64 1049.86,1322.33 1051.23,1322.33 1051.23,1327.72 1052.61,1327.72 1052.61,1328.13 1053.98,1328.13 1053.98,1336.37 1055.36,1336.37 1055.36,1347.06 1056.73,1347.06 1056.73,1346.76 1058.11,1346.76 1058.11,1347.8 1059.48,1347.8 1059.48,1352.15 1060.86,1352.15 1060.86,1360.91 1062.23,1360.91 1062.23,1358.06 1063.6,1358.06 1063.6,1361.44 1064.98,1361.44 1064.98,1367.28 1066.35,1367.28 1066.35,1361.26 1067.73,1361.26 1067.73,1373.9 1069.1,1373.9 1069.1,1386.89 1070.48,1386.89 1070.48,1389.83 1071.85,1389.83 1071.85,1384.86 1073.23,1384.86 1073.23,1390.42 1074.6,1390.42 1074.6,1388.65 1075.97,1388.65 1075.97,1383.81 1077.35,1383.81 1077.35,1376.36 1078.72,1376.36 1078.72,1383.08 1080.1,1383.08 1080.1,1372.73 1081.47,1372.73 1081.47,1380.36 1082.85,1380.36 1082.85,1377.08 1084.22,1377.08 1084.22,1385 1085.6,1385 1085.6,1375.71 1086.97,1375.71 1086.97,1370.99 1088.34,1370.99 1088.34,1367.53 1089.72,1367.53 1089.72,1370.3 1091.09,1370.3 1091.09,1370.81 1092.47,1370.81 1092.47,1368 1093.84,1368 1093.84,1366.35 1095.22,1366.35 1095.22,1358.09 1096.59,1358.09 1096.59,1362.22 1097.97,1362.22 1097.97,1365.34 1099.34,1365.34 1099.34,1359.78 1100.71,1359.78 1100.71,1363.37 1102.09,1363.37 1102.09,1372.65 1103.46,1372.65 1103.46,1373.11 1104.84,1373.11 1104.84,1376.77 1106.21,1376.77 1106.21,1375.7 1107.59,1375.7 1107.59,1379.63 1108.96,1379.63 1108.96,1376.29 1110.34,1376.29 1110.34,1374.69 1111.71,1374.69 1111.71,1375.91 1113.09,1375.91 1113.09,1374.25 1114.46,1374.25 1114.46,1373.21 1115.83,1373.21 1115.83,1363.85 1117.21,1363.85 1117.21,1365.09 1118.58,1365.09 1118.58,1357.31 1119.96,1357.31 1119.96,1358.62 1121.33,1358.62 1121.33,1355.64 1122.71,1355.64 1122.71,1363.34 1124.08,1363.34 1124.08,1369.69 1125.46,1369.69 1125.46,1360 1126.83,1360 1126.83,1356.51 1128.2,1356.51 1128.2,1373.39 1129.58,1373.39 1129.58,1368.4 1130.95,1368.4 1130.95,1364.68 1132.33,1364.68 1132.33,1360.41 1133.7,1360.41 1133.7,1354.49 1135.08,1354.49 1135.08,1358.17 1136.45,1358.17 1136.45,1361.62 1137.83,1361.62 1137.83,1354.18 1139.2,1354.18 1139.2,1351.77 1140.57,1351.77 1140.57,1356.4 1141.95,1356.4 1141.95,1351.09 1143.32,1351.09 1143.32,1352.5 1144.7,1352.5 1144.7,1362.79 1146.07,1362.79 1146.07,1365.51 1147.45,1365.51 1147.45,1358.75 1148.82,1358.75 1148.82,1352.24 1150.2,1352.24 1150.2,1346.03 1151.57,1346.03 1151.57,1348.31 1152.94,1348.31 1152.94,1352.36 1154.32,1352.36 1154.32,1351.7 1155.69,1351.7 1155.69,1345.78 1157.07,1345.78 1157.07,1344.36 1158.44,1344.36 1158.44,1353.34 1159.82,1353.34 1159.82,1361.6 1161.19,1361.6 1161.19,1348.84 1162.57,1348.84 1162.57,1359.02 1163.94,1359.02 1163.94,1360.66 1165.31,1360.66 1165.31,1362.5 1166.69,1362.5 1166.69,1352.7 1168.06,1352.7 1168.06,1360.79 1169.44,1360.79 1169.44,1352.02 1170.81,1352.02 1170.81,1351.9 1172.19,1351.9 1172.19,1366.3 1173.56,1366.3 1173.56,1357.15 1174.94,1357.15 1174.94,1358.06 1176.31,1358.06 1176.31,1363.06 1177.69,1363.06 1177.69,1365.5 1179.06,1365.5 1179.06,1366.49 1180.43,1366.49 1180.43,1371.5 1181.81,1371.5 1181.81,1371.54 1183.18,1371.54 1183.18,1373.65 1184.56,1373.65 1184.56,1374.6 1185.93,1374.6 1185.93,1374.71 1187.31,1374.71 1187.31,1383.15 1188.68,1383.15 1188.68,1386.59 1190.06,1386.59 1190.06,1380.27 1191.43,1380.27 1191.43,1389.78 1192.8,1389.78 1192.8,1397.56 1194.18,1397.56 1194.18,1395.17 1195.55,1395.17 1195.55,1388.75 1196.93,1388.75 1196.93,1395.59 1198.3,1395.59 1198.3,1393.79 1199.68,1393.79 1199.68,1383.32 1201.05,1383.32 1201.05,1369.08 1202.43,1369.08 1202.43,1355.59 1203.8,1355.59 1203.8,1365.07 1205.17,1365.07 1205.17,1357.14 1206.55,1357.14 1206.55,1351.05 1207.92,1351.05 1207.92,1358.3 1209.3,1358.3 1209.3,1349.52 1210.67,1349.52 1210.67,1342.38 1212.05,1342.38 1212.05,1334.47 1213.42,1334.47 1213.42,1328.83 1214.8,1328.83 1214.8,1326.98 1216.17,1326.98 1216.17,1316.53 1217.54,1316.53 1217.54,1314.02 1218.92,1314.02 1218.92,1312.59 1220.29,1312.59 1220.29,1317.37 1221.67,1317.37 1221.67,1309.2 1223.04,1309.2 1223.04,1306.67 1224.42,1306.67 1224.42,1303.74 1225.79,1303.74 1225.79,1305.56 1227.17,1305.56 1227.17,1305.93 1228.54,1305.93 1228.54,1301 1229.92,1301 1229.92,1299.34 1231.29,1299.34 1231.29,1292.57 1232.66,1292.57 1232.66,1282.05 1234.04,1282.05 1234.04,1274.49 1235.41,1274.49 1235.41,1282.63 1236.79,1282.63 1236.79,1281.45 1238.16,1281.45 1238.16,1296.36 1239.54,1296.36 1239.54,1303.58 1240.91,1303.58 1240.91,1304.15 1242.29,1304.15 1242.29,1306.13 1243.66,1306.13 1243.66,1305.35 1245.03,1305.35 1245.03,1299.61 1246.41,1299.61 1246.41,1314.4 1247.78,1314.4 1247.78,1319.33 1249.16,1319.33 1249.16,1313.33 1250.53,1313.33 1250.53,1306.06 1251.91,1306.06 1251.91,1303.64 1253.28,1303.64 1253.28,1305.44 1254.66,1305.44 1254.66,1324.12 1256.03,1324.12 1256.03,1320.77 1257.4,1320.77 1257.4,1332.04 1258.78,1332.04 1258.78,1331.72 1260.15,1331.72 1260.15,1327.99 1261.53,1327.99 1261.53,1327.96 1262.9,1327.96 1262.9,1329.22 1264.28,1329.22 1264.28,1323 1265.65,1323 1265.65,1320.35 1267.03,1320.35 1267.03,1315.49 1268.4,1315.49 1268.4,1326.04 1269.77,1326.04 1269.77,1319.31 1271.15,1319.31 1271.15,1304.99 1272.52,1304.99 1272.52,1299.33 1273.9,1299.33 1273.9,1297.07 1275.27,1297.07 1275.27,1286.29 1276.65,1286.29 1276.65,1287.71 1278.02,1287.71 1278.02,1279.67 1279.4,1279.67 1279.4,1279.13 1280.77,1279.13 1280.77,1278.52 1282.14,1278.52 1282.14,1295.11 1283.52,1295.11 1283.52,1292.85 1284.89,1292.85 1284.89,1282.93 1286.27,1282.93 1286.27,1287.76 1287.64,1287.76 1287.64,1285.18 1289.02,1285.18 1289.02,1275.7 1290.39,1275.7 1290.39,1279.13 1291.77,1279.13 1291.77,1273.14 1293.14,1273.14 1293.14,1276.21 1294.52,1276.21 1294.52,1277.49 1295.89,1277.49 1295.89,1279.73 1297.26,1279.73 1297.26,1278.68 1298.64,1278.68 1298.64,1270.94 1300.01,1270.94 1300.01,1266.09 1301.39,1266.09 1301.39,1261 1302.76,1261 1302.76,1262.35 1304.14,1262.35 1304.14,1271.09 1305.51,1271.09 1305.51,1277.83 1306.89,1277.83 1306.89,1279.71 1308.26,1279.71 1308.26,1275.42 1309.63,1275.42 1309.63,1273.41 1311.01,1273.41 1311.01,1272.24 1312.38,1272.24 1312.38,1267.39 1313.76,1267.39 1313.76,1262.39 1315.13,1262.39 1315.13,1261.9 1316.51,1261.9 1316.51,1259.43 1317.88,1259.43 1317.88,1264.21 1319.26,1264.21 1319.26,1259.39 1320.63,1259.39 1320.63,1270.56 1322,1270.56 1322,1278.83 1323.38,1278.83 1323.38,1288.93 1324.75,1288.93 1324.75,1282.81 1326.13,1282.81 1326.13,1268.26 1327.5,1268.26 1327.5,1268.74 1328.88,1268.74 1328.88,1266.69 1330.25,1266.69 1330.25,1256.18 1331.63,1256.18 1331.63,1257.33 1333,1257.33 1333,1251.66 1334.37,1251.66 1334.37,1265.72 1335.75,1265.72 1335.75,1255.19 1337.12,1255.19 1337.12,1254.88 1338.5,1254.88 1338.5,1244.24 1339.87,1244.24 1339.87,1241.5 1341.25,1241.5 1341.25,1227.82 1342.62,1227.82 1342.62,1230.17 1344,1230.17 1344,1225.17 1345.37,1225.17 1345.37,1214.63 1346.74,1214.63 1346.74,1211.28 1348.12,1211.28 1348.12,1207.35 1349.49,1207.35 1349.49,1208.88 1350.87,1208.88 1350.87,1210.28 1352.24,1210.28 1352.24,1200.35 1353.62,1200.35 1353.62,1205.3 1354.99,1205.3 1354.99,1202.56 1356.37,1202.56 1356.37,1193.02 1357.74,1193.02 1357.74,1181.97 1359.12,1181.97 1359.12,1180.34 1360.49,1180.34 1360.49,1175.06 1361.86,1175.06 1361.86,1181.8 1363.24,1181.8 1363.24,1181.98 1364.61,1181.98 1364.61,1192.84 1365.99,1192.84 1365.99,1186.02 1367.36,1186.02 1367.36,1188 1368.74,1188 1368.74,1198.68 1370.11,1198.68 1370.11,1201.2 1371.49,1201.2 1371.49,1198.02 1372.86,1198.02 1372.86,1207.36 1374.23,1207.36 1374.23,1198.32 1375.61,1198.32 1375.61,1195.66 1376.98,1195.66 1376.98,1183.43 1378.36,1183.43 1378.36,1186.42 1379.73,1186.42 1379.73,1185.73 1381.11,1185.73 1381.11,1176.47 1382.48,1176.47 1382.48,1177.67 1383.86,1177.67 1383.86,1174.01 1385.23,1174.01 1385.23,1169.89 1386.6,1169.89 1386.6,1164.85 1387.98,1164.85 1387.98,1163.02 1389.35,1163.02 1389.35,1160.04 1390.73,1160.04 1390.73,1149.13 1392.1,1149.13 1392.1,1154.56 1393.48,1154.56 1393.48,1149.34 1394.85,1149.34 1394.85,1144.62 1396.23,1144.62 1396.23,1154.79 1397.6,1154.79 1397.6,1146.84 1398.97,1146.84 1398.97,1130.3 1400.35,1130.3 1400.35,1133.07 1401.72,1133.07 1401.72,1135.47 1403.1,1135.47 1403.1,1121.15 1404.47,1121.15 1404.47,1128.17 1405.85,1128.17 1405.85,1136.08 1407.22,1136.08 1407.22,1127.45 1408.6,1127.45 1408.6,1120.63 1409.97,1120.63 1409.97,1130.48 1411.34,1130.48 1411.34,1128.41 1412.72,1128.41 1412.72,1136.19 1414.09,1136.19 1414.09,1129.14 1415.47,1129.14 1415.47,1132.16 1416.84,1132.16 1416.84,1120.23 1418.22,1120.23 1418.22,1119.07 1419.59,1119.07 1419.59,1129.48 1420.97,1129.48 1420.97,1128.9 1422.34,1128.9 1422.34,1139.08 1423.72,1139.08 1423.72,1134.3 1425.09,1134.3 1425.09,1133.98 1426.46,1133.98 1426.46,1140.7 1427.84,1140.7 1427.84,1144.25 1429.21,1144.25 1429.21,1139.16 1430.59,1139.16 1430.59,1121.39 1431.96,1121.39 1431.96,1142.61 1433.34,1142.61 1433.34,1136.08 1434.71,1136.08 1434.71,1127.15 1436.09,1127.15 1436.09,1131.7 1437.46,1131.7 1437.46,1121.4 1438.83,1121.4 1438.83,1134.29 1440.21,1134.29 1440.21,1129.1 1441.58,1129.1 1441.58,1143.9 1442.96,1143.9 1442.96,1147.84 1444.33,1147.84 1444.33,1153.07 1445.71,1153.07 1445.71,1155.17 1447.08,1155.17 1447.08,1162.32 1448.46,1162.32 1448.46,1164.6 1449.83,1164.6 1449.83,1152.48 1451.2,1152.48 1451.2,1155.43 1452.58,1155.43 1452.58,1156.65 1453.95,1156.65 1453.95,1148.52 1455.33,1148.52 1455.33,1137.01 1456.7,1137.01 1456.7,1146.97 1458.08,1146.97 1458.08,1135.67 1459.45,1135.67 1459.45,1130.88 1460.83,1130.88 1460.83,1132.55 1462.2,1132.55 1462.2,1106.52 1463.57,1106.52 1463.57,1113.63 1464.95,1113.63 1464.95,1117.22 1466.32,1117.22 1466.32,1121.33 1467.7,1121.33 1467.7,1123.58 1469.07,1123.58 1469.07,1140.54 1470.45,1140.54 1470.45,1147.46 1471.82,1147.46 1471.82,1154.51 1473.2,1154.51 1473.2,1149.67 1474.57,1149.67 1474.57,1151.52 1475.94,1151.52 1475.94,1154.01 1477.32,1154.01 1477.32,1154.08 1478.69,1154.08 1478.69,1162.67 1480.07,1162.67 1480.07,1162.87 1481.44,1162.87 1481.44,1152.99 1482.82,1152.99 1482.82,1146.01 1484.19,1146.01 1484.19,1152 1485.57,1152 1485.57,1145.2 1486.94,1145.2 1486.94,1131.78 1488.32,1131.78 1488.32,1111.58 1489.69,1111.58 1489.69,1129.94 1491.06,1129.94 1491.06,1109.94 1492.44,1109.94 1492.44,1114.2 1493.81,1114.2 1493.81,1121.65 1495.19,1121.65 1495.19,1124 1496.56,1124 1496.56,1122.07 1497.94,1122.07 1497.94,1134.32 1499.31,1134.32 1499.31,1124.78 1500.69,1124.78 1500.69,1124.47 1502.06,1124.47 1502.06,1127.48 1503.43,1127.48 1503.43,1122.04 1504.81,1122.04 1504.81,1133.73 1506.18,1133.73 1506.18,1144.75 1507.56,1144.75 1507.56,1145.03 1508.93,1145.03 1508.93,1147.87 1510.31,1147.87 1510.31,1153.64 1511.68,1153.64 1511.68,1171.24 1513.06,1171.24 1513.06,1163.75 1514.43,1163.75 1514.43,1152.05 1515.8,1152.05 1515.8,1137.65 1517.18,1137.65 1517.18,1141.4 1518.55,1141.4 1518.55,1152.77 1519.93,1152.77 1519.93,1135.72 1521.3,1135.72 1521.3,1136.6 1522.68,1136.6 1522.68,1144.75 1524.05,1144.75 1524.05,1146.06 1525.43,1146.06 1525.43,1133.41 1526.8,1133.41 1526.8,1140.96 1528.17,1140.96 1528.17,1139.78 1529.55,1139.78 1529.55,1147.22 1530.92,1147.22 1530.92,1140.35 1532.3,1140.35 1532.3,1137.11 1533.67,1137.11 1533.67,1120.11 1535.05,1120.11 1535.05,1108.28 1536.42,1108.28 1536.42,1122.36 1537.8,1122.36 1537.8,1111.95 1539.17,1111.95 1539.17,1118.01 1540.55,1118.01 1540.55,1120.4 1541.92,1120.4 1541.92,1108.97 1543.29,1108.97 1543.29,1111.44 1544.67,1111.44 1544.67,1117.16 1546.04,1117.16 1546.04,1112.4 1547.42,1112.4 1547.42,1103 1548.79,1103 1548.79,1124.18 1550.17,1124.18 1550.17,1131.75 1551.54,1131.75 1551.54,1131.97 1552.92,1131.97 1552.92,1115.21 1554.29,1115.21 1554.29,1109.75 1555.66,1109.75 1555.66,1108.21 1557.04,1108.21 1557.04,1101.56 1558.41,1101.56 1558.41,1093.17 1559.79,1093.17 1559.79,1083.74 1561.16,1083.74 1561.16,1084.28 1562.54,1084.28 1562.54,1085.4 1563.91,1085.4 1563.91,1076.22 1565.29,1076.22 1565.29,1082.53 1566.66,1082.53 1566.66,1088.05 1568.03,1088.05 1568.03,1082.41 1569.41,1082.41 1569.41,1086.58 1570.78,1086.58 1570.78,1068.54 1572.16,1068.54 1572.16,1071.46 1573.53,1071.46 1573.53,1047.54 1574.91,1047.54 1574.91,1038.46 1576.28,1038.46 1576.28,1053.35 1577.66,1053.35 1577.66,1052.39 1579.03,1052.39 1579.03,1048.39 1580.4,1048.39 1580.4,1051.99 1581.78,1051.99 1581.78,1051.42 1583.15,1051.42 1583.15,1035.04 1584.53,1035.04 1584.53,1028.52 1585.9,1028.52 1585.9,1032.98 1587.28,1032.98 1587.28,1024.47 1588.65,1024.47 1588.65,1037.68 1590.03,1037.68 1590.03,1037.06 1591.4,1037.06 1591.4,1028.05 1592.77,1028.05 1592.77,1029.08 1594.15,1029.08 1594.15,1044.06 1595.52,1044.06 1595.52,1051.02 1596.9,1051.02 1596.9,1063.55 1598.27,1063.55 1598.27,1067.68 1599.65,1067.68 1599.65,1072.18 1601.02,1072.18 1601.02,1060.92 1602.4,1060.92 1602.4,1066.64 1603.77,1066.64 1603.77,1070.46 1605.15,1070.46 1605.15,1068.33 1606.52,1068.33 1606.52,1077.78 1607.89,1077.78 1607.89,1071.42 1609.27,1071.42 1609.27,1067.1 1610.64,1067.1 1610.64,1073.53 1612.02,1073.53 1612.02,1074.92 1613.39,1074.92 1613.39,1078.94 1614.77,1078.94 1614.77,1085.21 1616.14,1085.21 1616.14,1097.5 1617.52,1097.5 1617.52,1102.59 1618.89,1102.59 1618.89,1099.61 1620.26,1099.61 1620.26,1120.46 1621.64,1120.46 1621.64,1112.95 1623.01,1112.95 1623.01,1124.08 1624.39,1124.08 1624.39,1123.17 1625.76,1123.17 1625.76,1134.12 1627.14,1134.12 1627.14,1128.97 1628.51,1128.97 1628.51,1128.82 1629.89,1128.82 1629.89,1132.74 1631.26,1132.74 1631.26,1122.75 1632.63,1122.75 1632.63,1113.11 1634.01,1113.11 1634.01,1111.42 1635.38,1111.42 1635.38,1098.48 1636.76,1098.48 1636.76,1096.04 1638.13,1096.04 1638.13,1104.42 1639.51,1104.42 1639.51,1112.07 1640.88,1112.07 1640.88,1114.78 1642.26,1114.78 1642.26,1106.77 1643.63,1106.77 1643.63,1111.34 1645,1111.34 1645,1120.24 1646.38,1120.24 1646.38,1113.68 1647.75,1113.68 1647.75,1110.47 1649.13,1110.47 1649.13,1108.8 1650.5,1108.8 1650.5,1092.05 1651.88,1092.05 1651.88,1086.43 1653.25,1086.43 1653.25,1094.34 1654.63,1094.34 1654.63,1084.9 1656,1084.9 1656,1088.49 1657.37,1088.49 1657.37,1088.5 1658.75,1088.5 1658.75,1094.05 1660.12,1094.05 1660.12,1084.08 1661.5,1084.08 1661.5,1072.16 1662.87,1072.16 1662.87,1066.38 1664.25,1066.38 1664.25,1060.35 1665.62,1060.35 1665.62,1056.78 1667,1056.78 1667,1066.44 1668.37,1066.44 1668.37,1053.24 1669.75,1053.24 1669.75,1060.33 1671.12,1060.33 1671.12,1059.7 1672.49,1059.7 1672.49,1067.21 1673.87,1067.21 1673.87,1066.94 1675.24,1066.94 1675.24,1064.66 1676.62,1064.66 1676.62,1066.39 1677.99,1066.39 1677.99,1068.36 1679.37,1068.36 1679.37,1071.58 1680.74,1071.58 1680.74,1083.61 1682.12,1083.61 1682.12,1114.79 1683.49,1114.79 1683.49,1106.38 1684.86,1106.38 1684.86,1114.81 1686.24,1114.81 1686.24,1137.61 1687.61,1137.61 1687.61,1146.3 1688.99,1146.3 1688.99,1156.26 1690.36,1156.26 1690.36,1152.48 1691.74,1152.48 1691.74,1146.06 1693.11,1146.06 1693.11,1142.12 1694.49,1142.12 1694.49,1139.58 1695.86,1139.58 1695.86,1134.17 1697.23,1134.17 1697.23,1127.1 1698.61,1127.1 1698.61,1118.23 1699.98,1118.23 1699.98,1126.75 1701.36,1126.75 1701.36,1126.14 1702.73,1126.14 1702.73,1133.5 1704.11,1133.5 1704.11,1140.26 1705.48,1140.26 1705.48,1137.55 1706.86,1137.55 1706.86,1146.11 1708.23,1146.11 1708.23,1149.45 1709.6,1149.45 1709.6,1125.93 1710.98,1125.93 1710.98,1121.84 1712.35,1121.84 1712.35,1119.44 1713.73,1119.44 1713.73,1127.51 1715.1,1127.51 1715.1,1119.83 1716.48,1119.83 1716.48,1117.86 1717.85,1117.86 1717.85,1116.6 1719.23,1116.6 1719.23,1114.12 1720.6,1114.12 1720.6,1088.02 1721.97,1088.02 1721.97,1096.59 1723.35,1096.59 1723.35,1097.79 1724.72,1097.79 1724.72,1111.08 1726.1,1111.08 1726.1,1113.77 1727.47,1113.77 1727.47,1113.66 1728.85,1113.66 1728.85,1125.34 1730.22,1125.34 1730.22,1123.39 1731.6,1123.39 1731.6,1133.1 1732.97,1133.1 1732.97,1139.09 1734.35,1139.09 1734.35,1143.52 1735.72,1143.52 1735.72,1142.28 1737.09,1142.28 1737.09,1145.82 1738.47,1145.82 1738.47,1143.62 1739.84,1143.62 1739.84,1133.04 1741.22,1133.04 1741.22,1126.37 1742.59,1126.37 1742.59,1122.4 1743.97,1122.4 1743.97,1130.05 1745.34,1130.05 1745.34,1126.32 1746.72,1126.32 1746.72,1120.75 1748.09,1120.75 1748.09,1115.21 1749.46,1115.21 1749.46,1099.64 1750.84,1099.64 1750.84,1106.03 1752.21,1106.03 1752.21,1104.84 1753.59,1104.84 1753.59,1097.56 1754.96,1097.56 1754.96,1106.27 1756.34,1106.27 1756.34,1107.83 1757.71,1107.83 1757.71,1112.67 1759.09,1112.67 1759.09,1108.8 1760.46,1108.8 1760.46,1100.67 1761.83,1100.67 1761.83,1100.28 1763.21,1100.28 1763.21,1091.81 1764.58,1091.81 1764.58,1087.43 1765.96,1087.43 1765.96,1076.9 1767.33,1076.9 1767.33,1059.62 1768.71,1059.62 1768.71,1062.89 1770.08,1062.89 1770.08,1059.15 1771.46,1059.15 1771.46,1071.29 1772.83,1071.29 1772.83,1081.82 1774.2,1081.82 1774.2,1098.34 1775.58,1098.34 1775.58,1102.93 1776.95,1102.93 1776.95,1114.1 1778.33,1114.1 1778.33,1112.28 1779.7,1112.28 1779.7,1114.5 1781.08,1114.5 1781.08,1094.4 1782.45,1094.4 1782.45,1091.94 1783.83,1091.94 1783.83,1072.47 1785.2,1072.47 1785.2,1076.85 1786.57,1076.85 1786.57,1074.19 1787.95,1074.19 1787.95,1079.54 1789.32,1079.54 1789.32,1071.09 1790.7,1071.09 1790.7,1064.27 1792.07,1064.27 1792.07,1055.54 1793.45,1055.54 1793.45,1062.51 1794.82,1062.51 1794.82,1053.35 1796.2,1053.35 1796.2,1052.27 1797.57,1052.27 1797.57,1049.35 1798.95,1049.35 1798.95,1038.3 1800.32,1038.3 1800.32,1042.08 1801.69,1042.08 1801.69,1045.25 1803.07,1045.25 1803.07,1041.27 1804.44,1041.27 1804.44,1028.51 1805.82,1028.51 1805.82,1012.4 1807.19,1012.4 1807.19,1002.3 1808.57,1002.3 1808.57,1027.66 1809.94,1027.66 1809.94,1039.24 1811.32,1039.24 1811.32,1044.76 1812.69,1044.76 1812.69,1055.54 1814.06,1055.54 1814.06,1056.86 1815.44,1056.86 1815.44,1052.11 1816.81,1052.11 1816.81,1044.28 1818.19,1044.28 1818.19,1045.56 1819.56,1045.56 1819.56,1031.81 1820.94,1031.81 1820.94,1043.58 1822.31,1043.58 1822.31,1035.58 1823.69,1035.58 1823.69,1024.26 1825.06,1024.26 1825.06,1021.61 1826.43,1021.61 1826.43,1012.76 1827.81,1012.76 1827.81,998.462 1829.18,998.462 1829.18,997.91 1830.56,997.91 1830.56,983.872 1831.93,983.872 1831.93,989.57 1833.31,989.57 1833.31,971.961 1834.68,971.961 1834.68,969.826 1836.06,969.826 1836.06,987.131 1837.43,987.131 1837.43,978.663 1838.8,978.663 1838.8,983.917 1840.18,983.917 1840.18,977.335 1841.55,977.335 1841.55,978.845 1842.93,978.845 1842.93,966.072 1844.3,966.072 1844.3,964.101 1845.68,964.101 1845.68,969.885 1847.05,969.885 1847.05,960.654 1848.43,960.654 1848.43,970.792 1849.8,970.792 1849.8,980.541 1851.17,980.541 1851.17,970.986 1852.55,970.986 1852.55,967.835 1853.92,967.835 1853.92,974.829 1855.3,974.829 1855.3,992.427 1856.67,992.427 1856.67,1001.94 1858.05,1001.94 1858.05,1006.8 1859.42,1006.8 1859.42,1000.91 1860.8,1000.91 1860.8,997.593 1862.17,997.593 1862.17,1000.51 1863.55,1000.51 1863.55,1011.93 1864.92,1011.93 1864.92,1013.39 1866.29,1013.39 1866.29,1012.96 1867.67,1012.96 1867.67,1006.43 1869.04,1006.43 1869.04,1029.13 1870.42,1029.13 1870.42,1042.07 1871.79,1042.07 1871.79,1025.68 1873.17,1025.68 1873.17,1017.91 1874.54,1017.91 1874.54,1028.86 1875.92,1028.86 1875.92,1040.67 1877.29,1040.67 1877.29,1041.1 1878.66,1041.1 1878.66,1041.76 1880.04,1041.76 1880.04,1032.67 1881.41,1032.67 1881.41,1036.01 1882.79,1036.01 1882.79,1039.79 1884.16,1039.79 1884.16,1034.12 1885.54,1034.12 1885.54,1039.8 1886.91,1039.8 1886.91,1042.03 1888.29,1042.03 1888.29,1030.27 1889.66,1030.27 1889.66,1036.39 1891.03,1036.39 1891.03,1035.91 1892.41,1035.91 1892.41,1030.48 1893.78,1030.48 1893.78,1031.68 1895.16,1031.68 1895.16,1022 1896.53,1022 1896.53,1026.94 1897.91,1026.94 1897.91,1040.8 1899.28,1040.8 1899.28,1021.24 1900.66,1021.24 1900.66,1032.4 1902.03,1032.4 1902.03,1020.34 1903.4,1020.34 1903.4,1014.25 1904.78,1014.25 1904.78,1014.37 1906.15,1014.37 1906.15,987.952 1907.53,987.952 1907.53,992.824 1908.9,992.824 1908.9,986.4 1910.28,986.4 1910.28,988.071 1911.65,988.071 1911.65,990.96 1913.03,990.96 1913.03,1008.84 1914.4,1008.84 1914.4,1005.28 1915.78,1005.28 1915.78,1006.49 1917.15,1006.49 1917.15,986.155 1918.52,986.155 1918.52,1011.32 1919.9,1011.32 1919.9,988.453 1921.27,988.453 1921.27,992.23 1922.65,992.23 1922.65,985.143 1924.02,985.143 1924.02,992.418 1925.4,992.418 1925.4,982.645 1926.77,982.645 1926.77,957.299 1928.15,957.299 1928.15,948.939 1929.52,948.939 1929.52,955.242 1930.89,955.242 1930.89,944.044 1932.27,944.044 1932.27,938.293 1933.64,938.293 1933.64,944.754 1935.02,944.754 1935.02,934.891 1936.39,934.891 1936.39,923.521 1937.77,923.521 1937.77,916.272 1939.14,916.272 1939.14,897.842 1940.52,897.842 1940.52,893.253 1941.89,893.253 1941.89,885.01 1943.26,885.01 1943.26,871.149 1944.64,871.149 1944.64,868.867 1946.01,868.867 1946.01,863.818 1947.39,863.818 1947.39,871.793 1948.76,871.793 1948.76,885.198 1950.14,885.198 1950.14,886.442 1951.51,886.442 1951.51,885.983 1952.89,885.983 1952.89,885.717 1954.26,885.717 1954.26,890.992 1955.63,890.992 1955.63,895.051 1957.01,895.051 1957.01,882.455 1958.38,882.455 1958.38,880.181 1959.76,880.181 1959.76,889.205 1961.13,889.205 1961.13,891.303 1962.51,891.303 1962.51,881.838 1963.88,881.838 1963.88,885.759 1965.26,885.759 1965.26,891.605 1966.63,891.605 1966.63,905.929 1968,905.929 1968,909.584 1969.38,909.584 1969.38,926.591 1970.75,926.591 1970.75,926.787 1972.13,926.787 1972.13,943.033 1973.5,943.033 1973.5,965.431 1974.88,965.431 1974.88,968.162 1976.25,968.162 1976.25,967.608 1977.63,967.608 1977.63,954.315 1979,954.315 1979,953.235 1980.38,953.235 1980.38,954.533 1981.75,954.533 1981.75,955.674 1983.12,955.674 1983.12,951.895 1984.5,951.895 1984.5,952.46 1985.87,952.46 1985.87,957.247 1987.25,957.247 1987.25,974.756 1988.62,974.756 1988.62,981.159 1990,981.159 1990,985.311 1991.37,985.311 1991.37,994.54 1992.75,994.54 1992.75,999.339 1994.12,999.339 1994.12,995.442 1995.49,995.442 1995.49,1002.73 1996.87,1002.73 1996.87,1004.49 1998.24,1004.49 1998.24,1002.67 1999.62,1002.67 1999.62,1004.87 2000.99,1004.87 2000.99,1006.42 2002.37,1006.42 2002.37,1002.76 2003.74,1002.76 2003.74,1006.51 2005.12,1006.51 2005.12,1013.9 2006.49,1013.9 2006.49,1011.77 2007.86,1011.77 2007.86,1016.2 2009.24,1016.2 2009.24,1015.36 2010.61,1015.36 2010.61,1012.2 2011.99,1012.2 2011.99,1014.26 2013.36,1014.26 2013.36,1011.54 2014.74,1011.54 2014.74,1012.57 2016.11,1012.57 2016.11,1007.72 2017.49,1007.72 2017.49,1009.3 2018.86,1009.3 2018.86,1004.83 2020.23,1004.83 2020.23,1009.77 2021.61,1009.77 2021.61,1009.02 2022.98,1009.02 2022.98,1010.15 2024.36,1010.15 2024.36,1015.82 2025.73,1015.82 2025.73,1017.05 2027.11,1017.05 2027.11,1019.53 2028.48,1019.53 2028.48,1014.51 2029.86,1014.51 2029.86,1011.85 2031.23,1011.85 2031.23,1010.74 2032.6,1010.74 2032.6,1005.2 2033.98,1005.2 2033.98,1003.04 2035.35,1003.04 2035.35,1001.32 2036.73,1001.32 2036.73,1002.34 2038.1,1002.34 2038.1,999.72 2039.48,999.72 2039.48,1002.2 2040.85,1002.2 2040.85,997.375 2042.23,997.375 2042.23,1000.34 2043.6,1000.34 2043.6,1003.29 2044.98,1003.29 2044.98,1005.05 2046.35,1005.05 2046.35,1000.67 2047.72,1000.67 2047.72,1001.71 2049.1,1001.71 2049.1,1001.34 2050.47,1001.34 2050.47,1007.23 2051.85,1007.23 2051.85,1000.71 2053.22,1000.71 2053.22,998.51 2054.6,998.51 2054.6,992.765 2055.97,992.765 2055.97,997.958 2057.35,997.958 2057.35,1002.87 2058.72,1002.87 2058.72,998.695 2060.09,998.695 2060.09,997.712 2061.47,997.712 2061.47,996.151 2062.84,996.151 2062.84,995.799 2064.22,995.799 2064.22,994.34 2065.59,994.34 2065.59,989.68 2066.97,989.68 2066.97,992.551 2068.34,992.551 2068.34,986.26 2069.72,986.26 2069.72,986.513 2071.09,986.513 2071.09,989.573 2072.46,989.573 2072.46,995.448 2073.84,995.448 2073.84,987.255 2075.21,987.255 2075.21,990.446 2076.59,990.446 2076.59,991.749 2077.96,991.749 2077.96,993.424 2079.34,993.424 2079.34,991.126 2080.71,991.126 2080.71,993.159 2082.09,993.159 2082.09,991.406 2083.46,991.406 2083.46,991.646 2084.83,991.646 2084.83,987.693 2086.21,987.693 2086.21,988.457 2087.58,988.457 2087.58,991.446 2088.96,991.446 2088.96,989.746 2090.33,989.746 2090.33,993.085 2091.71,993.085 2091.71,987.153 2093.08,987.153 2093.08,982 2094.46,982 2094.46,979.357 2095.83,979.357 2095.83,977.601 2097.2,977.601 2097.2,980.27 2098.58,980.27 2098.58,980.667 2099.95,980.667 2099.95,978.077 2101.33,978.077 2101.33,970.586 2102.7,970.586 2102.7,973.059 2104.08,973.059 2104.08,976.325 2105.45,976.325 2105.45,968.933 2106.83,968.933 2106.83,972.942 2108.2,972.942 2108.2,974.86 2109.58,974.86 2109.58,970.208 2110.95,970.208 2110.95,979.605 2112.32,979.605 2112.32,980.189 2113.7,980.189 2113.7,970.537 2115.07,970.537 2115.07,965.563 2116.45,965.563 2116.45,964.234 2117.82,964.234 2117.82,957.389 2119.2,957.389 2119.2,953.629 2120.57,953.629 2120.57,950.188 2121.95,950.188 2121.95,953.321 2123.32,953.321 2123.32,950.836 2124.69,950.836 2124.69,951.528 2126.07,951.528 2126.07,951.88 2127.44,951.88 2127.44,952.343 2128.82,952.343 2128.82,954.136 2130.19,954.136 2130.19,952.729 2131.57,952.729 2131.57,952.291 2132.94,952.291 2132.94,953.706 2134.32,953.706 2134.32,957.025 2135.69,957.025 2135.69,955.225 2137.06,955.225 2137.06,958.67 2138.44,958.67 2138.44,957.458 2139.81,957.458 2139.81,951.556 2141.19,951.556 2141.19,952.599 2142.56,952.599 2142.56,948.419 2143.94,948.419 2143.94,945.814 2145.31,945.814 2145.31,944.61 2146.69,944.61 2146.69,943.843 2148.06,943.843 2148.06,947.551 2149.43,947.551 2149.43,949.116 2150.81,949.116 2150.81,955.765 2152.18,955.765 2152.18,955.765 2153.56,955.765 2153.56,955.312 2154.93,955.312 2154.93,958.581 2156.31,958.581 2156.31,952.55 2157.68,952.55 2157.68,963.402 2159.06,963.402 2159.06,968.131 2160.43,968.131 2160.43,964.174 2161.8,964.174 2161.8,966.76 2163.18,966.76 2163.18,966.486 2164.55,966.486 2164.55,964.221 2165.93,964.221 2165.93,965.724 2167.3,965.724 2167.3,964.922 2168.68,964.922 2168.68,960.197 2170.05,960.197 2170.05,964.831 2171.43,964.831 2171.43,964.971 2172.8,964.971 2172.8,964.184 2174.18,964.184 2174.18,960.814 2175.55,960.814 2175.55,963.374 2176.92,963.374 2176.92,961.715 2178.3,961.715 2178.3,955.949 2179.67,955.949 2179.67,967.489 2181.05,967.489 2181.05,964.532 2182.42,964.532 2182.42,966.331 2183.8,966.331 2183.8,965.837 2185.17,965.837 2185.17,963.257 2186.55,963.257 2186.55,966.099 2187.92,966.099 2187.92,959.661 2189.29,959.661 2189.29,955.094 2190.67,955.094 2190.67,966.492 2192.04,966.492 2192.04,959.533 2193.42,959.533 2193.42,955.31 2194.79,955.31 2194.79,950.097 2196.17,950.097 2196.17,944.59 2197.54,944.59 2197.54,939.21 2198.92,939.21 2198.92,949.069 2200.29,949.069 2200.29,948.342 2201.66,948.342 2201.66,939.65 2203.04,939.65 2203.04,940.974 2204.41,940.974 2204.41,944.615 2205.79,944.615 2205.79,937.337 2207.16,937.337 2207.16,938.42 2208.54,938.42 2208.54,918.835 2209.91,918.835 2209.91,911.839 2211.29,911.839 2211.29,914.105 2212.66,914.105 2212.66,917.97 2214.03,917.97 2214.03,910.741 2215.41,910.741 2215.41,918.05 2216.78,918.05 2216.78,919.889 2218.16,919.889 2218.16,914.302 2219.53,914.302 2219.53,915.384 2220.91,915.384 2220.91,905.377 2222.28,905.377 2222.28,903.33 2223.66,903.33 2223.66,902.042 2225.03,902.042 2225.03,889.496 2226.41,889.496 2226.41,891.245 2227.78,891.245 2227.78,896.576 2229.15,896.576 2229.15,894.533 2230.53,894.533 2230.53,898.815 2231.9,898.815 2231.9,899.921 2233.28,899.921 2233.28,904.063 2234.65,904.063 2234.65,907.963 2236.03,907.963 2236.03,902.686 2237.4,902.686 2237.4,896.259 2238.78,896.259 2238.78,892.755 2240.15,892.755 2240.15,897.943 2241.52,897.943 2241.52,903.242 2242.9,903.242 2242.9,899.39 2244.27,899.39 2244.27,901.694 2245.65,901.694 2245.65,892.021 2247.02,892.021 2247.02,899.491 2248.4,899.491 2248.4,895.117 2249.77,895.117 2249.77,899.574 2251.15,899.574 2251.15,899.603 2252.52,899.603 2252.52,893.35 2253.89,893.35 2253.89,893.902 2255.27,893.902 2255.27,904.278 2256.64,904.278 2256.64,896.355 2258.02,896.355 2258.02,887.456 2259.39,887.456 2259.39,889.26 2260.77,889.26 2260.77,878.21 2262.14,878.21 2262.14,875.453 2263.52,875.453 2263.52,866.083 2264.89,866.083 2264.89,863.332 2266.26,863.332 2266.26,864.795 2267.64,864.795 2267.64,860.691 2269.01,860.691 2269.01,858.494 2270.39,858.494 2270.39,847.34 2271.76,847.34 2271.76,840.928 2273.14,840.928 2273.14,838.632 2274.51,838.632 2274.51,841.346 2275.89,841.346 2275.89,847.012 2277.26,847.012 2277.26,835.655 2278.63,835.655 2278.63,829.641 2280.01,829.641 2280.01,834.443 2281.38,834.443 2281.38,829.802 2282.76,829.802 2282.76,820.465 2284.13,820.465 2284.13,831.958 2285.51,831.958 2285.51,827.501 2286.88,827.501 2286.88,827.167 2288.26,827.167 2288.26,824.034 2289.63,824.034 2289.63,818.915 2291.01,818.915 2291.01,812.81 2292.38,812.81 2292.38,815.696 2293.75,815.696 2293.75,813.838 2295.13,813.838 2295.13,816.571 2296.5,816.571 2296.5,805.547 2297.88,805.547 2297.88,802.992 2299.25,802.992 2299.25,809.181 2300.63,809.181 2300.63,802.315 2302,802.315 2302,788.057 2303.38,788.057 2303.38,792.745 2304.75,792.745 2304.75,774.683 2306.12,774.683 2306.12,768.429 2307.5,768.429 2307.5,774.022 2308.87,774.022 2308.87,781.752 2310.25,781.752 2310.25,782.254 2311.62,782.254 2311.62,776.025 2313,776.025 2313,773.662 2314.37,773.662 2314.37,766.521 2315.75,766.521 2315.75,757.221 2317.12,757.221 2317.12,754.317 2318.49,754.317 2318.49,768.316 2319.87,768.316 2319.87,766.237 2321.24,766.237 2321.24,760.326 2322.62,760.326 2322.62,777.305 2323.99,777.305 2323.99,788.716 2325.37,788.716 2325.37,778.936 2326.74,778.936 2326.74,775.791 2328.12,775.791 2328.12,761.077 2329.49,761.077 2329.49,747.112 2330.86,747.112 2330.86,728.355 2332.24,728.355 2332.24,734.501 2333.61,734.501 2333.61,733.041 2334.99,733.041 2334.99,738.139 2336.36,738.139 2336.36,731.932 2337.74,731.932 2337.74,740.757 2339.11,740.757 2339.11,742.429 2340.49,742.429 2340.49,745.466 2341.86,745.466 2341.86,749.873 2343.23,749.873 2343.23,739.34 2344.61,739.34 2344.61,742.098 2345.98,742.098 2345.98,734.77 2347.36,734.77 2347.36,732.229 2348.73,732.229 2348.73,741.035 2350.11,741.035 2350.11,738.403 2351.48,738.403 2351.48,740.091 2352.86,740.091 2352.86,733.1 2354.23,733.1 2354.23,750.55 2355.61,750.55 2355.61,766.692 2356.98,766.692 2356.98,756.223 2358.35,756.223 2358.35,769.181 2359.73,769.181 2359.73,770.409 2361.1,770.409 2361.1,770.207 2362.48,770.207 2362.48,786.896 2363.85,786.896 2363.85,794.875 2365.23,794.875 2365.23,817.811 2366.6,817.811 2366.6,820.476 2367.98,820.476 2367.98,830.124 2369.35,830.124 2369.35,846.052 2370.72,846.052 2370.72,855.825 2372.1,855.825 2372.1,847.673 2373.47,847.673 2373.47,831.527 2374.85,831.527 2374.85,826.49 2376.22,826.49 2376.22,814.809 2377.6,814.809 2377.6,818.558 2378.97,818.558 2378.97,813.073 2380.35,813.073 2380.35,797.486 2381.72,797.486 2381.72,783.784 2383.09,783.784 2383.09,805.908 2384.47,805.908 2384.47,802.392 2385.84,802.392 2385.84,795.141 2387.22,795.141 2387.22,796.41 2388.59,796.41 2388.59,812.49 2389.97,812.49 2389.97,818.69 2391.34,818.69 2391.34,796.293 2392.72,796.293 2392.72,791.58 2394.09,791.58 2394.09,795.43 2395.46,795.43 2395.46,795.635 2396.84,795.635 2396.84,814.722 2398.21,814.722 2398.21,816.284 2399.59,816.284 2399.59,813.176 2400.96,813.176 2400.96,807.806 2402.34,807.806 2402.34,798.153 2403.71,798.153 2403.71,801.237 2405.09,801.237 2405.09,795.372 2406.46,795.372 2406.46,786.239 2407.83,786.239 2407.83,765.288 2409.21,765.288 2409.21,771.694 2410.58,771.694 2410.58,779.606 2411.96,779.606 2411.96,779.116 2413.33,779.116 2413.33,789.723 2414.71,789.723 2414.71,776.464 2416.08,776.464 2416.08,788.828 2417.46,788.828 2417.46,796.611 2418.83,796.611 2418.83,816.268 2420.21,816.268 2420.21,815.092 2421.58,815.092 2421.58,811.817 2422.95,811.817 2422.95,802.421 2424.33,802.421 2424.33,781.954 2425.7,781.954 2425.7,772.569 2427.08,772.569 2427.08,778.471 2428.45,778.471 2428.45,771.433 2429.83,771.433 2429.83,761.491 2431.2,761.491 2431.2,745.049 2432.58,745.049 2432.58,743.328 2433.95,743.328 2433.95,733.66 2435.32,733.66 2435.32,724.03 2436.7,724.03 2436.7,734.315 2438.07,734.315 2438.07,723.611 2439.45,723.611 2439.45,723.942 2440.82,723.942 2440.82,737.171 2442.2,737.171 2442.2,735.536 2443.57,735.536 2443.57,730.37 2444.95,730.37 2444.95,724.076 2446.32,724.076 2446.32,744.769 2447.69,744.769 2447.69,726.997 2449.07,726.997 2449.07,713.092 2450.44,713.092 2450.44,722.98 2451.82,722.98 2451.82,723.268 2453.19,723.268 2453.19,722.393 2454.57,722.393 2454.57,715.16 2455.94,715.16 2455.94,717.477 2457.32,717.477 2457.32,704.717 2458.69,704.717 2458.69,699.869 2460.06,699.869 2460.06,695.962 2461.44,695.962 2461.44,721.15 2462.81,721.15 2462.81,712.353 2464.19,712.353 2464.19,702.449 2465.56,702.449 2465.56,699.745 2466.94,699.745 2466.94,706.741 2468.31,706.741 2468.31,698.703 2469.69,698.703 2469.69,709.156 2471.06,709.156 2471.06,704.439 2472.43,704.439 2472.43,726.317 2473.81,726.317 2473.81,713.376 2475.18,713.376 2475.18,699.278 2476.56,699.278 2476.56,690.426 2477.93,690.426 2477.93,698.729 2479.31,698.729 2479.31,693.385 2480.68,693.385 2480.68,701.49 2482.06,701.49 2482.06,715.71 2483.43,715.71 2483.43,708.891 2484.81,708.891 2484.81,707.456 2486.18,707.456 2486.18,705.525 2487.55,705.525 2487.55,704.539 2488.93,704.539 2488.93,702.749 2490.3,702.749 2490.3,701.916 2491.68,701.916 2491.68,705.282 2493.05,705.282 2493.05,710.771 2494.43,710.771 2494.43,700.474 2495.8,700.474 2495.8,691.164 2497.18,691.164 2497.18,673.193 2498.55,673.193 2498.55,669.728 2499.92,669.728 2499.92,659.681 2501.3,659.681 2501.3,644.214 2502.67,644.214 2502.67,657.478 2504.05,657.478 2504.05,667.973 2505.42,667.973 2505.42,658.192 2506.8,658.192 2506.8,670.409 2508.17,670.409 2508.17,661.118 2509.55,661.118 2509.55,661.291 2510.92,661.291 2510.92,665.14 2512.29,665.14 2512.29,655.679 2513.67,655.679 2513.67,662.771 2515.04,662.771 2515.04,655.711 2516.42,655.711 2516.42,668.345 2517.79,668.345 2517.79,689.903 2519.17,689.903 2519.17,688.261 2520.54,688.261 2520.54,695.803 2521.92,695.803 2521.92,700.716 2523.29,700.716 2523.29,686.412 2524.66,686.412 2524.66,673.105 2526.04,673.105 2526.04,679.055 2527.41,679.055 2527.41,671.523 2528.79,671.523 2528.79,657.213 2530.16,657.213 2530.16,654.511 2531.54,654.511 2531.54,653.869 2532.91,653.869 2532.91,653.083 2534.29,653.083 2534.29,648.925 2535.66,648.925 2535.66,649.247 2537.04,649.247 2537.04,648.675 2538.41,648.675 2538.41,641.416 2539.78,641.416 2539.78,651.39 2541.16,651.39 2541.16,658.757 2542.53,658.757 2542.53,650.747 2543.91,650.747 2543.91,624.246 2545.28,624.246 2545.28,611.389 2546.66,611.389 2546.66,613.86 2548.03,613.86 2548.03,612.182 2549.41,612.182 2549.41,623.174 2550.78,623.174 2550.78,601.215 2552.15,601.215 2552.15,611.059 2553.53,611.059 2553.53,617.091 2554.9,617.091 2554.9,633.358 2556.28,633.358 2556.28,627.858 2557.65,627.858 2557.65,621.604 2559.03,621.604 2559.03,601.518 2560.4,601.518 2560.4,584.088 2561.78,584.088 2561.78,593.349 2563.15,593.349 2563.15,597.243 2564.52,597.243 2564.52,597.296 2565.9,597.296 2565.9,580.882 2567.27,580.882 2567.27,578.828 2568.65,578.828 2568.65,578.728 2570.02,578.728 2570.02,567.71 2571.4,567.71 2571.4,551.105 2572.77,551.105 2572.77,544.591 2574.15,544.591 2574.15,530.815 2575.52,530.815 2575.52,518.165 2576.89,518.165 2576.89,551.776 2578.27,551.776 2578.27,539.993 2579.64,539.993 2579.64,536.795 2581.02,536.795 2581.02,547.68 2582.39,547.68 2582.39,558.302 2583.77,558.302 2583.77,563.721 2585.14,563.721 2585.14,562.552 2586.52,562.552 2586.52,540.197 2587.89,540.197 2587.89,524.848 2589.26,524.848 2589.26,518.599 2590.64,518.599 2590.64,518.691 2592.01,518.691 2592.01,529.358 2593.39,529.358 2593.39,526.399 2594.76,526.399 2594.76,514.296 2596.14,514.296 2596.14,508.792 2597.51,508.792 2597.51,508.341 2598.89,508.341 2598.89,515.96 2600.26,515.96 2600.26,525.788 2601.64,525.788 2601.64,504.44 2603.01,504.44 2603.01,480.514 2604.38,480.514 2604.38,486.177 2605.76,486.177 2605.76,491.053 2607.13,491.053 2607.13,484.976 2608.51,484.976 2608.51,481.803 2609.88,481.803 2609.88,477.698 2611.26,477.698 2611.26,462.095 2612.63,462.095 2612.63,441.664 2614.01,441.664 2614.01,442.5 2615.38,442.5 2615.38,425.418 2616.75,425.418 2616.75,438.734 2618.13,438.734 2618.13,441.806 2619.5,441.806 2619.5,449.853 2620.88,449.853 2620.88,453.181 2622.25,453.181 2622.25,457.779 2623.63,457.779 2623.63,444.145 2625,444.145 2625,438.92 2626.38,438.92 2626.38,445.333 2627.75,445.333 2627.75,440.755 2629.12,440.755 2629.12,438.918 2630.5,438.918 2630.5,435.449 2631.87,435.449 2631.87,438.031 2633.25,438.031 2633.25,424.174 2634.62,424.174 2634.62,436.006 2636,436.006 2636,434.978 2637.37,434.978 2637.37,428.39 2638.75,428.39 2638.75,412.576 2640.12,412.576 2640.12,420.581 2641.49,420.581 2641.49,410.654 2642.87,410.654 2642.87,401.49 2644.24,401.49 2644.24,401.957 2645.62,401.957 2645.62,412.759 2646.99,412.759 2646.99,423.064 2648.37,423.064 2648.37,422.147 2649.74,422.147 2649.74,421.792 2651.12,421.792 2651.12,400.433 2652.49,400.433 2652.49,399.526 2653.86,399.526 2653.86,389.707 2655.24,389.707 2655.24,386.661 2656.61,386.661 2656.61,379.963 2657.99,379.963 2657.99,383.184 2659.36,383.184 2659.36,384.859 2660.74,384.859 2660.74,380.488 2662.11,380.488 2662.11,392.837 2663.49,392.837 2663.49,393.819 2664.86,393.819 2664.86,403.41 2666.24,403.41 2666.24,401.859 2667.61,401.859 2667.61,398.138 2668.98,398.138 2668.98,410.645 2670.36,410.645 2670.36,401.978 2671.73,401.978 2671.73,396.025 2673.11,396.025 2673.11,404.467 2674.48,404.467 2674.48,408.079 2675.86,408.079 2675.86,400.905 2677.23,400.905 2677.23,391.506 2678.61,391.506 2678.61,377.755 2679.98,377.755 2679.98,373.409 2681.35,373.409 2681.35,385.366 2682.73,385.366 2682.73,399.198 2684.1,399.198 2684.1,398.045 2685.48,398.045 2685.48,387.869 2686.85,387.869 2686.85,386.038 2688.23,386.038 2688.23,379.188 2689.6,379.188 2689.6,388.233 2690.98,388.233 2690.98,383.613 2692.35,383.613 2692.35,379.756 2693.72,379.756 2693.72,388.337 2695.1,388.337 2695.1,397.866 2696.47,397.866 2696.47,395.992 2697.85,395.992 2697.85,400.49 2699.22,400.49 2699.22,407.758 2700.6,407.758 2700.6,396.175 2701.97,396.175 2701.97,402.005 2703.35,402.005 2703.35,382.419 2704.72,382.419 2704.72,368.489 2706.09,368.489 2706.09,381.501 2707.47,381.501 2707.47,391.068 2708.84,391.068 2708.84,393.825 2710.22,393.825 2710.22,397.826 2711.59,397.826 2711.59,396.425 2712.97,396.425 2712.97,389.804 2714.34,389.804 2714.34,399.884 2715.72,399.884 2715.72,388.893 2717.09,388.893 2717.09,390.602 2718.46,390.602 2718.46,385.462 2719.84,385.462 2719.84,401.733 2721.21,401.733 2721.21,395.047 2722.59,395.047 2722.59,408.742 2723.96,408.742 2723.96,414.518 2725.34,414.518 2725.34,404.256 2726.71,404.256 2726.71,400.789 2728.09,400.789 2728.09,400.03 2729.46,400.03 2729.46,403.62 2730.84,403.62 2730.84,389.464 2732.21,389.464 2732.21,400.97 2733.58,400.97 2733.58,404.982 2734.96,404.982 2734.96,407.422 2736.33,407.422 2736.33,393.128 2737.71,393.128 2737.71,383.99 2739.08,383.99 2739.08,396.068 2740.46,396.068 2740.46,382.618 2741.83,382.618 2741.83,368.687 2743.21,368.687 2743.21,367.841 2744.58,367.841 2744.58,390.734 2745.95,390.734 2745.95,382.733 2747.33,382.733 2747.33,371.354 2748.7,371.354 2748.7,383.768 2750.08,383.768 2750.08,373.227 2751.45,373.227 2751.45,372.957 2752.83,372.957 2752.83,353.128 2754.2,353.128 2754.2,359.721 2755.58,359.721 2755.58,361.378 2756.95,361.378 2756.95,369.595 2758.32,369.595 2758.32,363.443 2759.7,363.443 2759.7,351.429 2761.07,351.429 2761.07,325.551 2762.45,325.551 2762.45,324.659 2763.82,324.659 2763.82,328.376 2765.2,328.376 2765.2,322.364 2766.57,322.364 2766.57,329.219 2767.95,329.219 2767.95,323.27 2769.32,323.27 2769.32,332.764 2770.69,332.764 2770.69,324.967 2772.07,324.967 2772.07,320.349 2773.44,320.349 2773.44,330.78 2774.82,330.78 2774.82,328.275 2776.19,328.275 2776.19,330.084 2777.57,330.084 2777.57,333.533 2778.94,333.533 2778.94,324.594 2780.32,324.594 2780.32,308.818 2781.69,308.818 2781.69,323.385 2783.06,323.385 2783.06,298.883 2784.44,298.883 2784.44,291.19 2785.81,291.19 2785.81,314.592 2787.19,314.592 2787.19,316.565 2788.56,316.565 2788.56,345.413 2789.94,345.413 2789.94,321.209 2791.31,321.209 2791.31,328.569 2792.69,328.569 2792.69,326.957 2794.06,326.957 2794.06,349.58 2795.44,349.58 2795.44,339.588 2796.81,339.588 2796.81,319.064 2798.18,319.064 2798.18,330.541 2799.56,330.541 2799.56,334.578 2800.93,334.578 2800.93,330.578 2802.31,330.578 2802.31,296.071 2803.68,296.071 2803.68,279.738 2805.06,279.738 2805.06,263.677 2806.43,263.677 2806.43,273.927 2807.81,273.927 2807.81,312.383 2809.18,312.383 2809.18,321.404 2810.55,321.404 2810.55,338.336 2811.93,338.336 2811.93,369.293 2813.3,369.293 2813.3,357.213 2814.68,357.213 2814.68,333.323 2816.05,333.323 2816.05,331.983 2817.43,331.983 2817.43,347.856 2818.8,347.856 2818.8,360.677 2820.18,360.677 2820.18,394.365 2821.55,394.365 2821.55,394.73 2822.92,394.73 2822.92,404.28 2824.3,404.28 2824.3,393.399 2825.67,393.399 2825.67,393.026 2827.05,393.026 2827.05,409.808 2828.42,409.808 2828.42,415.546 2829.8,415.546 2829.8,428.867 2831.17,428.867 2831.17,380.063 2832.55,380.063 2832.55,357.352 2833.92,357.352 2833.92,380.016 2835.29,380.016 2835.29,374.51 2836.67,374.51 2836.67,373.555 2838.04,373.555 2838.04,392.655 2839.42,392.655 2839.42,371.311 2840.79,371.311 2840.79,379.584 2842.17,379.584 2842.17,371.149 2843.54,371.149 2843.54,352.539 2844.92,352.539 2844.92,361.349 2846.29,361.349 2846.29,357.569 2847.67,357.569 2847.67,342.835 2849.04,342.835 2849.04,339.923 2850.41,339.923 2850.41,344.678 2851.79,344.678 2851.79,326.305 2853.16,326.305 2853.16,323.377 2854.54,323.377 2854.54,320.078 2855.91,320.078 2855.91,303.815 2857.29,303.815 2857.29,281.124 2858.66,281.124 2858.66,288.29 2860.04,288.29 2860.04,284.989 2861.41,284.989 2861.41,260.131 2862.78,260.131 2862.78,261.038 2864.16,261.038 2864.16,266.716 2865.53,266.716 2865.53,290.064 2866.91,290.064 2866.91,274.01 2868.28,274.01 2868.28,296.948 2869.66,296.948 2869.66,301.242 2871.03,301.242 2871.03,286.363 2872.41,286.363 2872.41,290.139 2873.78,290.139 2873.78,271.056 2875.15,271.056 2875.15,254.624 2876.53,254.624 2876.53,261.961 2877.9,261.961 2877.9,266.802 2879.28,266.802 2879.28,264.292 2880.65,264.292 2880.65,265.22 2882.03,265.22 2882.03,248.924 2883.4,248.924 2883.4,217.815 2884.78,217.815 2884.78,221.502 2886.15,221.502 2886.15,234.218 2887.52,234.218 2887.52,233.449 2888.9,233.449 2888.9,233.418 2890.27,233.418 2890.27,242.568 2891.65,242.568 2891.65,213.477 2893.02,213.477 2893.02,240.54 2894.4,240.54 2894.4,250.577 2895.77,250.577 2895.77,236.779 2897.15,236.779 2897.15,235.922 2898.52,235.922 2898.52,209.059 2899.89,209.059 2899.89,211.717 2901.27,211.717 2901.27,214.191 2902.64,214.191 2902.64,230.764 2904.02,230.764 2904.02,242.419 2905.39,242.419 2905.39,245.538 2906.77,245.538 2906.77,255.198 2908.14,255.198 2908.14,262.018 2909.52,262.018 2909.52,262.373 2910.89,262.373 2910.89,252.12 2912.27,252.12 2912.27,276.358 2913.64,276.358 2913.64,270.323 2915.01,270.323 2915.01,262.109 2916.39,262.109 2916.39,242.336 2917.76,242.336 2917.76,245.256 2919.14,245.256 2919.14,254.364 2920.51,254.364 2920.51,267.863 2921.89,267.863 2921.89,258.873 2923.26,258.873 2923.26,273.586 2924.64,273.586 2924.64,251.68 2926.01,251.68 2926.01,249.849 2927.38,249.849 2927.38,237.147 2928.76,237.147 2928.76,226.216 2930.13,226.216 2930.13,214.597 2931.51,214.597 2931.51,226.563 2932.88,226.563 2932.88,196.902 2934.26,196.902 2934.26,199.365 2935.63,199.365 2935.63,197.583 2937.01,197.583 2937.01,185.699 2938.38,185.699 2938.38,193.379 2939.75,193.379 2939.75,218.518 2941.13,218.518 2941.13,211.709 2942.5,211.709 2942.5,214.291 2943.88,214.291 2943.88,205.316 2945.25,205.316 2945.25,220.975 2946.63,220.975 2946.63,216.77 2948,216.77 2948,218.769 2949.38,218.769 2949.38,251.574 2950.75,251.574 2950.75,276.081 2952.12,276.081 2952.12,267.548 2953.5,267.548 2953.5,261.941 2954.87,261.941 2954.87,278.231 2956.25,278.231 2956.25,301.245 2957.62,301.245 2957.62,290.749 2959,290.749 2959,281.529 2960.37,281.529 2960.37,288.763 2961.75,288.763 2961.75,285.731 2963.12,285.731 2963.12,247.432 2964.49,247.432 2964.49,228.535 2965.87,228.535 2965.87,251.765 2967.24,251.765 2967.24,238.62 2968.62,238.62 2968.62,256.747 2969.99,256.747 2969.99,240.455 2971.37,240.455 2971.37,247.35 2972.74,247.35 2972.74,256.804 2974.12,256.804 2974.12,226.967 2975.49,226.967 2975.49,227.164 2976.87,227.164 2976.87,227.332 2978.24,227.332 2978.24,207.424 2979.61,207.424 2979.61,196.771 2980.99,196.771 2980.99,183.248 2982.36,183.248 2982.36,175.62 2983.74,175.62 2983.74,151.946 2985.11,151.946 2985.11,147.599 2986.49,147.599 2986.49,165.606 2987.86,165.606 2987.86,202.776 2989.24,202.776 2989.24,215.941 2990.61,215.941 2990.61,209.293 2991.98,209.293 2991.98,211.915 2993.36,211.915 2993.36,219.42 2994.73,219.42 2994.73,245.123 2996.11,245.123 2996.11,246.722 2997.48,246.722 2997.48,254.677 2998.86,254.677 2998.86,233.185 3000.23,233.185 3000.23,244.017 3001.61,244.017 3001.61,273.107 3002.98,273.107 3002.98,280.748 3004.35,280.748 3004.35,260.285 3005.73,260.285 3005.73,247.704 3007.1,247.704 3007.1,264.523 3008.48,264.523 3008.48,282.423 3009.85,282.423 3009.85,297.74 3011.23,297.74 3011.23,311.785 3012.6,311.785 3012.6,317.768 3013.98,317.768 3013.98,317.171 3015.35,317.171 3015.35,315.257 3016.72,315.257 3016.72,322.154 3018.1,322.154 3018.1,334.33 3019.47,334.33 3019.47,325.782 3020.85,325.782 3020.85,326.172 3022.22,326.172 3022.22,326.782 3023.6,326.782 3023.6,313.705 3024.97,313.705 3024.97,308.372 3026.35,308.372 3026.35,282.025 3027.72,282.025 3027.72,295.661 3029.09,295.661 3029.09,290.868 3030.47,290.868 3030.47,281.053 3031.84,281.053 3031.84,275.747 3033.22,275.747 3033.22,278.181 3034.59,278.181 3034.59,263.346 3035.97,263.346 3035.97,259.011 3037.34,259.011 3037.34,207.871 3038.72,207.871 3038.72,170.076 3040.09,170.076 3040.09,166.488 3041.47,166.488 3041.47,175.466 3042.84,175.466 3042.84,152.631 3044.21,152.631 3044.21,187.544 3045.59,187.544 3045.59,193.419 3046.96,193.419 3046.96,171.587 3048.34,171.587 3048.34,180.763 3049.71,180.763 3049.71,155.586 3051.09,155.586 3051.09,181.211 3052.46,181.211 3052.46,195.706 3053.84,195.706 3053.84,200.894 3055.21,200.894 3055.21,193.589 3056.58,193.589 3056.58,204.01 3057.96,204.01 3057.96,218.731 3059.33,218.731 3059.33,228.752 3060.71,228.752 3060.71,243.581 3062.08,243.581 3062.08,219.564 3063.46,219.564 3063.46,203.984 3064.83,203.984 3064.83,186.896 3066.21,186.896 3066.21,168.02 3067.58,168.02 3067.58,166.855 3068.95,166.855 3068.95,155.642 3070.33,155.642 3070.33,149.209 "/>
</svg>
