<?xml version="1.0" encoding="utf-8"?>
<svg xmlns="http://www.w3.org/2000/svg" xmlns:xlink="http://www.w3.org/1999/xlink" width="800" height="400" viewBox="0 0 3200 1600">
<defs>
  <clipPath id="clip150">
    <rect x="0" y="0" width="3200" height="1600"/>
  </clipPath>
</defs>
<path clip-path="url(#clip150)" d="M0 1600 L3200 1600 L3200 0 L0 0  Z" fill="#282c34" fill-rule="evenodd" fill-opacity="1"/>
<defs>
  <clipPath id="clip151">
    <rect x="237" y="95" width="2916" height="1401"/>
  </clipPath>
</defs>
<path clip-path="url(#clip150)" d="M237.445 1495.09 L3152.76 1495.09 L3152.76 95.3921 L237.445 95.3921  Z" fill="#21252b" fill-rule="evenodd" fill-opacity="1"/>
<polyline clip-path="url(#clip151)" style="stroke:#adb2b7; stroke-linecap:round; stroke-linejoin:round; stroke-width:2; stroke-opacity:0.1; fill:none" points="319.954,1495.09 319.954,95.3921 "/>
<polyline clip-path="url(#clip151)" style="stroke:#adb2b7; stroke-linecap:round; stroke-linejoin:round; stroke-width:2; stroke-opacity:0.1; fill:none" points="1054.39,1495.09 1054.39,95.3921 "/>
<polyline clip-path="url(#clip151)" style="stroke:#adb2b7; stroke-linecap:round; stroke-linejoin:round; stroke-width:2; stroke-opacity:0.1; fill:none" points="1788.82,1495.09 1788.82,95.3921 "/>
<polyline clip-path="url(#clip151)" style="stroke:#adb2b7; stroke-linecap:round; stroke-linejoin:round; stroke-width:2; stroke-opacity:0.1; fill:none" points="2523.25,1495.09 2523.25,95.3921 "/>
<polyline clip-path="url(#clip151)" style="stroke:#adb2b7; stroke-linecap:round; stroke-linejoin:round; stroke-width:2; stroke-opacity:0.1; fill:none" points="237.445,1289.15 3152.76,1289.15 "/>
<polyline clip-path="url(#clip151)" style="stroke:#adb2b7; stroke-linecap:round; stroke-linejoin:round; stroke-width:2; stroke-opacity:0.1; fill:none" points="237.445,1080.93 3152.76,1080.93 "/>
<polyline clip-path="url(#clip151)" style="stroke:#adb2b7; stroke-linecap:round; stroke-linejoin:round; stroke-width:2; stroke-opacity:0.1; fill:none" points="237.445,872.711 3152.76,872.711 "/>
<polyline clip-path="url(#clip151)" style="stroke:#adb2b7; stroke-linecap:round; stroke-linejoin:round; stroke-width:2; stroke-opacity:0.1; fill:none" points="237.445,664.493 3152.76,664.493 "/>
<polyline clip-path="url(#clip151)" style="stroke:#adb2b7; stroke-linecap:round; stroke-linejoin:round; stroke-width:2; stroke-opacity:0.1; fill:none" points="237.445,456.275 3152.76,456.275 "/>
<polyline clip-path="url(#clip151)" style="stroke:#adb2b7; stroke-linecap:round; stroke-linejoin:round; stroke-width:2; stroke-opacity:0.1; fill:none" points="237.445,248.057 3152.76,248.057 "/>
<polyline clip-path="url(#clip150)" style="stroke:#adb2b7; stroke-linecap:round; stroke-linejoin:round; stroke-width:4; stroke-opacity:1; fill:none" points="237.445,1495.09 3152.76,1495.09 "/>
<polyline clip-path="url(#clip150)" style="stroke:#adb2b7; stroke-linecap:round; stroke-linejoin:round; stroke-width:4; stroke-opacity:1; fill:none" points="319.954,1495.09 319.954,1476.19 "/>
<polyline clip-path="url(#clip150)" style="stroke:#adb2b7; stroke-linecap:round; stroke-linejoin:round; stroke-width:4; stroke-opacity:1; fill:none" points="1054.39,1495.09 1054.39,1476.19 "/>
<polyline clip-path="url(#clip150)" style="stroke:#adb2b7; stroke-linecap:round; stroke-linejoin:round; stroke-width:4; stroke-opacity:1; fill:none" points="1788.82,1495.09 1788.82,1476.19 "/>
<polyline clip-path="url(#clip150)" style="stroke:#adb2b7; stroke-linecap:round; stroke-linejoin:round; stroke-width:4; stroke-opacity:1; fill:none" points="2523.25,1495.09 2523.25,1476.19 "/>
<path clip-path="url(#clip150)" d="M191.749 1559.95 L208.068 1559.95 L208.068 1563.89 L186.124 1563.89 L186.124 1559.95 Q188.786 1557.2 193.369 1552.57 Q197.975 1547.92 199.156 1546.57 Q201.401 1544.05 202.281 1542.31 Q203.184 1540.55 203.184 1538.86 Q203.184 1536.11 201.239 1534.37 Q199.318 1532.64 196.216 1532.64 Q194.017 1532.64 191.563 1533.4 Q189.133 1534.17 186.355 1535.72 L186.355 1530.99 Q189.179 1529.86 191.633 1529.28 Q194.086 1528.7 196.124 1528.7 Q201.494 1528.7 204.688 1531.39 Q207.883 1534.07 207.883 1538.56 Q207.883 1540.69 207.073 1542.61 Q206.285 1544.51 204.179 1547.11 Q203.6 1547.78 200.498 1550.99 Q197.397 1554.19 191.749 1559.95 Z" fill="#9eb1be" fill-rule="nonzero" fill-opacity="1" /><path clip-path="url(#clip150)" d="M227.883 1532.41 Q224.272 1532.41 222.443 1535.97 Q220.637 1539.51 220.637 1546.64 Q220.637 1553.75 222.443 1557.31 Q224.272 1560.86 227.883 1560.86 Q231.517 1560.86 233.322 1557.31 Q235.151 1553.75 235.151 1546.64 Q235.151 1539.51 233.322 1535.97 Q231.517 1532.41 227.883 1532.41 M227.883 1528.7 Q233.693 1528.7 236.748 1533.31 Q239.827 1537.89 239.827 1546.64 Q239.827 1555.37 236.748 1559.98 Q233.693 1564.56 227.883 1564.56 Q222.072 1564.56 218.994 1559.98 Q215.938 1555.37 215.938 1546.64 Q215.938 1537.89 218.994 1533.31 Q222.072 1528.7 227.883 1528.7 Z" fill="#9eb1be" fill-rule="nonzero" fill-opacity="1" /><path clip-path="url(#clip150)" d="M252.072 1559.95 L268.392 1559.95 L268.392 1563.89 L246.447 1563.89 L246.447 1559.95 Q249.109 1557.2 253.693 1552.57 Q258.299 1547.92 259.48 1546.57 Q261.725 1544.05 262.605 1542.31 Q263.507 1540.55 263.507 1538.86 Q263.507 1536.11 261.563 1534.37 Q259.642 1532.64 256.54 1532.64 Q254.341 1532.64 251.887 1533.4 Q249.457 1534.17 246.679 1535.72 L246.679 1530.99 Q249.503 1529.86 251.957 1529.28 Q254.41 1528.7 256.447 1528.7 Q261.818 1528.7 265.012 1531.39 Q268.206 1534.07 268.206 1538.56 Q268.206 1540.69 267.396 1542.61 Q266.609 1544.51 264.503 1547.11 Q263.924 1547.78 260.822 1550.99 Q257.72 1554.19 252.072 1559.95 Z" fill="#9eb1be" fill-rule="nonzero" fill-opacity="1" /><path clip-path="url(#clip150)" d="M291.054 1533.4 L279.248 1551.85 L291.054 1551.85 L291.054 1533.4 M289.827 1529.33 L295.706 1529.33 L295.706 1551.85 L300.637 1551.85 L300.637 1555.74 L295.706 1555.74 L295.706 1563.89 L291.054 1563.89 L291.054 1555.74 L275.452 1555.74 L275.452 1551.23 L289.827 1529.33 Z" fill="#9eb1be" fill-rule="nonzero" fill-opacity="1" /><path clip-path="url(#clip150)" d="M305.614 1549 L318.09 1549 L318.09 1552.8 L305.614 1552.8 L305.614 1549 Z" fill="#9eb1be" fill-rule="nonzero" fill-opacity="1" /><path clip-path="url(#clip150)" d="M335.475 1532.41 Q331.864 1532.41 330.035 1535.97 Q328.229 1539.51 328.229 1546.64 Q328.229 1553.75 330.035 1557.31 Q331.864 1560.86 335.475 1560.86 Q339.109 1560.86 340.914 1557.31 Q342.743 1553.75 342.743 1546.64 Q342.743 1539.51 340.914 1535.97 Q339.109 1532.41 335.475 1532.41 M335.475 1528.7 Q341.285 1528.7 344.34 1533.31 Q347.419 1537.89 347.419 1546.64 Q347.419 1555.37 344.34 1559.98 Q341.285 1564.56 335.475 1564.56 Q329.664 1564.56 326.586 1559.98 Q323.53 1555.37 323.53 1546.64 Q323.53 1537.89 326.586 1533.31 Q329.664 1528.7 335.475 1528.7 Z" fill="#9eb1be" fill-rule="nonzero" fill-opacity="1" /><path clip-path="url(#clip150)" d="M356.447 1559.95 L364.086 1559.95 L364.086 1533.59 L355.775 1535.25 L355.775 1530.99 L364.039 1529.33 L368.715 1529.33 L368.715 1559.95 L376.354 1559.95 L376.354 1563.89 L356.447 1563.89 L356.447 1559.95 Z" fill="#9eb1be" fill-rule="nonzero" fill-opacity="1" /><path clip-path="url(#clip150)" d="M383.044 1549 L395.521 1549 L395.521 1552.8 L383.044 1552.8 L383.044 1549 Z" fill="#9eb1be" fill-rule="nonzero" fill-opacity="1" /><path clip-path="url(#clip150)" d="M412.905 1532.41 Q409.294 1532.41 407.465 1535.97 Q405.659 1539.51 405.659 1546.64 Q405.659 1553.75 407.465 1557.31 Q409.294 1560.86 412.905 1560.86 Q416.539 1560.86 418.345 1557.31 Q420.173 1553.75 420.173 1546.64 Q420.173 1539.51 418.345 1535.97 Q416.539 1532.41 412.905 1532.41 M412.905 1528.7 Q418.715 1528.7 421.77 1533.31 Q424.849 1537.89 424.849 1546.64 Q424.849 1555.37 421.77 1559.98 Q418.715 1564.56 412.905 1564.56 Q407.095 1564.56 404.016 1559.98 Q400.96 1555.37 400.96 1546.64 Q400.96 1537.89 404.016 1533.31 Q407.095 1528.7 412.905 1528.7 Z" fill="#9eb1be" fill-rule="nonzero" fill-opacity="1" /><path clip-path="url(#clip150)" d="M433.877 1559.95 L441.516 1559.95 L441.516 1533.59 L433.206 1535.25 L433.206 1530.99 L441.469 1529.33 L446.145 1529.33 L446.145 1559.95 L453.784 1559.95 L453.784 1563.89 L433.877 1563.89 L433.877 1559.95 Z" fill="#9eb1be" fill-rule="nonzero" fill-opacity="1" /><path clip-path="url(#clip150)" d="M925.659 1559.95 L941.979 1559.95 L941.979 1563.89 L920.034 1563.89 L920.034 1559.95 Q922.696 1557.2 927.28 1552.57 Q931.886 1547.92 933.067 1546.57 Q935.312 1544.05 936.192 1542.31 Q937.094 1540.55 937.094 1538.86 Q937.094 1536.11 935.15 1534.37 Q933.229 1532.64 930.127 1532.64 Q927.928 1532.64 925.474 1533.4 Q923.044 1534.17 920.266 1535.72 L920.266 1530.99 Q923.09 1529.86 925.544 1529.28 Q927.997 1528.7 930.034 1528.7 Q935.405 1528.7 938.599 1531.39 Q941.793 1534.07 941.793 1538.56 Q941.793 1540.69 940.983 1542.61 Q940.196 1544.51 938.09 1547.11 Q937.511 1547.78 934.409 1550.99 Q931.307 1554.19 925.659 1559.95 Z" fill="#9eb1be" fill-rule="nonzero" fill-opacity="1" /><path clip-path="url(#clip150)" d="M961.793 1532.41 Q958.182 1532.41 956.354 1535.97 Q954.548 1539.51 954.548 1546.64 Q954.548 1553.75 956.354 1557.31 Q958.182 1560.86 961.793 1560.86 Q965.428 1560.86 967.233 1557.31 Q969.062 1553.75 969.062 1546.64 Q969.062 1539.51 967.233 1535.97 Q965.428 1532.41 961.793 1532.41 M961.793 1528.7 Q967.603 1528.7 970.659 1533.31 Q973.738 1537.89 973.738 1546.64 Q973.738 1555.37 970.659 1559.98 Q967.603 1564.56 961.793 1564.56 Q955.983 1564.56 952.905 1559.98 Q949.849 1555.37 949.849 1546.64 Q949.849 1537.89 952.905 1533.31 Q955.983 1528.7 961.793 1528.7 Z" fill="#9eb1be" fill-rule="nonzero" fill-opacity="1" /><path clip-path="url(#clip150)" d="M985.983 1559.95 L1002.3 1559.95 L1002.3 1563.89 L980.358 1563.89 L980.358 1559.95 Q983.02 1557.2 987.603 1552.57 Q992.21 1547.92 993.39 1546.57 Q995.636 1544.05 996.515 1542.31 Q997.418 1540.55 997.418 1538.86 Q997.418 1536.11 995.474 1534.37 Q993.552 1532.64 990.451 1532.64 Q988.252 1532.64 985.798 1533.4 Q983.367 1534.17 980.59 1535.72 L980.59 1530.99 Q983.414 1529.86 985.867 1529.28 Q988.321 1528.7 990.358 1528.7 Q995.728 1528.7 998.923 1531.39 Q1002.12 1534.07 1002.12 1538.56 Q1002.12 1540.69 1001.31 1542.61 Q1000.52 1544.51 998.414 1547.11 Q997.835 1547.78 994.733 1550.99 Q991.631 1554.19 985.983 1559.95 Z" fill="#9eb1be" fill-rule="nonzero" fill-opacity="1" /><path clip-path="url(#clip150)" d="M1024.96 1533.4 L1013.16 1551.85 L1024.96 1551.85 L1024.96 1533.4 M1023.74 1529.33 L1029.62 1529.33 L1029.62 1551.85 L1034.55 1551.85 L1034.55 1555.74 L1029.62 1555.74 L1029.62 1563.89 L1024.96 1563.89 L1024.96 1555.74 L1009.36 1555.74 L1009.36 1551.23 L1023.74 1529.33 Z" fill="#9eb1be" fill-rule="nonzero" fill-opacity="1" /><path clip-path="url(#clip150)" d="M1039.52 1549 L1052 1549 L1052 1552.8 L1039.52 1552.8 L1039.52 1549 Z" fill="#9eb1be" fill-rule="nonzero" fill-opacity="1" /><path clip-path="url(#clip150)" d="M1069.39 1532.41 Q1065.77 1532.41 1063.95 1535.97 Q1062.14 1539.51 1062.14 1546.64 Q1062.14 1553.75 1063.95 1557.31 Q1065.77 1560.86 1069.39 1560.86 Q1073.02 1560.86 1074.83 1557.31 Q1076.65 1553.75 1076.65 1546.64 Q1076.65 1539.51 1074.83 1535.97 Q1073.02 1532.41 1069.39 1532.41 M1069.39 1528.7 Q1075.2 1528.7 1078.25 1533.31 Q1081.33 1537.89 1081.33 1546.64 Q1081.33 1555.37 1078.25 1559.98 Q1075.2 1564.56 1069.39 1564.56 Q1063.58 1564.56 1060.5 1559.98 Q1057.44 1555.37 1057.44 1546.64 Q1057.44 1537.89 1060.5 1533.31 Q1063.58 1528.7 1069.39 1528.7 Z" fill="#9eb1be" fill-rule="nonzero" fill-opacity="1" /><path clip-path="url(#clip150)" d="M1090.36 1559.95 L1098 1559.95 L1098 1533.59 L1089.69 1535.25 L1089.69 1530.99 L1097.95 1529.33 L1102.63 1529.33 L1102.63 1559.95 L1110.26 1559.95 L1110.26 1563.89 L1090.36 1563.89 L1090.36 1559.95 Z" fill="#9eb1be" fill-rule="nonzero" fill-opacity="1" /><path clip-path="url(#clip150)" d="M1116.95 1549 L1129.43 1549 L1129.43 1552.8 L1116.95 1552.8 L1116.95 1549 Z" fill="#9eb1be" fill-rule="nonzero" fill-opacity="1" /><path clip-path="url(#clip150)" d="M1146.82 1532.41 Q1143.2 1532.41 1141.38 1535.97 Q1139.57 1539.51 1139.57 1546.64 Q1139.57 1553.75 1141.38 1557.31 Q1143.2 1560.86 1146.82 1560.86 Q1150.45 1560.86 1152.26 1557.31 Q1154.08 1553.75 1154.08 1546.64 Q1154.08 1539.51 1152.26 1535.97 Q1150.45 1532.41 1146.82 1532.41 M1146.82 1528.7 Q1152.63 1528.7 1155.68 1533.31 Q1158.76 1537.89 1158.76 1546.64 Q1158.76 1555.37 1155.68 1559.98 Q1152.63 1564.56 1146.82 1564.56 Q1141.01 1564.56 1137.93 1559.98 Q1134.87 1555.37 1134.87 1546.64 Q1134.87 1537.89 1137.93 1533.31 Q1141.01 1528.7 1146.82 1528.7 Z" fill="#9eb1be" fill-rule="nonzero" fill-opacity="1" /><path clip-path="url(#clip150)" d="M1167.12 1563.17 L1167.12 1558.91 Q1168.88 1559.74 1170.68 1560.18 Q1172.49 1560.62 1174.22 1560.62 Q1178.85 1560.62 1181.28 1557.52 Q1183.74 1554.4 1184.08 1548.05 Q1182.74 1550.05 1180.68 1551.11 Q1178.62 1552.17 1176.12 1552.17 Q1170.94 1552.17 1167.9 1549.05 Q1164.89 1545.9 1164.89 1540.46 Q1164.89 1535.14 1168.04 1531.92 Q1171.19 1528.7 1176.42 1528.7 Q1182.42 1528.7 1185.57 1533.31 Q1188.74 1537.89 1188.74 1546.64 Q1188.74 1554.81 1184.85 1559.7 Q1180.98 1564.56 1174.43 1564.56 Q1172.67 1564.56 1170.87 1564.21 Q1169.06 1563.86 1167.12 1563.17 M1176.42 1548.52 Q1179.57 1548.52 1181.4 1546.36 Q1183.25 1544.21 1183.25 1540.46 Q1183.25 1536.74 1181.4 1534.58 Q1179.57 1532.41 1176.42 1532.41 Q1173.27 1532.41 1171.42 1534.58 Q1169.59 1536.74 1169.59 1540.46 Q1169.59 1544.21 1171.42 1546.36 Q1173.27 1548.52 1176.42 1548.52 Z" fill="#9eb1be" fill-rule="nonzero" fill-opacity="1" /><path clip-path="url(#clip150)" d="M1660.45 1559.95 L1676.77 1559.95 L1676.77 1563.89 L1654.82 1563.89 L1654.82 1559.95 Q1657.49 1557.2 1662.07 1552.57 Q1666.68 1547.92 1667.86 1546.57 Q1670.1 1544.05 1670.98 1542.31 Q1671.88 1540.55 1671.88 1538.86 Q1671.88 1536.11 1669.94 1534.37 Q1668.02 1532.64 1664.92 1532.64 Q1662.72 1532.64 1660.26 1533.4 Q1657.83 1534.17 1655.06 1535.72 L1655.06 1530.99 Q1657.88 1529.86 1660.33 1529.28 Q1662.79 1528.7 1664.82 1528.7 Q1670.19 1528.7 1673.39 1531.39 Q1676.58 1534.07 1676.58 1538.56 Q1676.58 1540.69 1675.77 1542.61 Q1674.99 1544.51 1672.88 1547.11 Q1672.3 1547.78 1669.2 1550.99 Q1666.1 1554.19 1660.45 1559.95 Z" fill="#9eb1be" fill-rule="nonzero" fill-opacity="1" /><path clip-path="url(#clip150)" d="M1696.58 1532.41 Q1692.97 1532.41 1691.14 1535.97 Q1689.34 1539.51 1689.34 1546.64 Q1689.34 1553.75 1691.14 1557.31 Q1692.97 1560.86 1696.58 1560.86 Q1700.22 1560.86 1702.02 1557.31 Q1703.85 1553.75 1703.85 1546.64 Q1703.85 1539.51 1702.02 1535.97 Q1700.22 1532.41 1696.58 1532.41 M1696.58 1528.7 Q1702.39 1528.7 1705.45 1533.31 Q1708.53 1537.89 1708.53 1546.64 Q1708.53 1555.37 1705.45 1559.98 Q1702.39 1564.56 1696.58 1564.56 Q1690.77 1564.56 1687.69 1559.98 Q1684.64 1555.37 1684.64 1546.64 Q1684.64 1537.89 1687.69 1533.31 Q1690.77 1528.7 1696.58 1528.7 Z" fill="#9eb1be" fill-rule="nonzero" fill-opacity="1" /><path clip-path="url(#clip150)" d="M1720.77 1559.95 L1737.09 1559.95 L1737.09 1563.89 L1715.15 1563.89 L1715.15 1559.95 Q1717.81 1557.2 1722.39 1552.57 Q1727 1547.92 1728.18 1546.57 Q1730.43 1544.05 1731.31 1542.31 Q1732.21 1540.55 1732.21 1538.86 Q1732.21 1536.11 1730.26 1534.37 Q1728.34 1532.64 1725.24 1532.64 Q1723.04 1532.64 1720.59 1533.4 Q1718.16 1534.17 1715.38 1535.72 L1715.38 1530.99 Q1718.2 1529.86 1720.66 1529.28 Q1723.11 1528.7 1725.15 1528.7 Q1730.52 1528.7 1733.71 1531.39 Q1736.91 1534.07 1736.91 1538.56 Q1736.91 1540.69 1736.1 1542.61 Q1735.31 1544.51 1733.2 1547.11 Q1732.63 1547.78 1729.52 1550.99 Q1726.42 1554.19 1720.77 1559.95 Z" fill="#9eb1be" fill-rule="nonzero" fill-opacity="1" /><path clip-path="url(#clip150)" d="M1759.75 1533.4 L1747.95 1551.85 L1759.75 1551.85 L1759.75 1533.4 M1758.53 1529.33 L1764.41 1529.33 L1764.41 1551.85 L1769.34 1551.85 L1769.34 1555.74 L1764.41 1555.74 L1764.41 1563.89 L1759.75 1563.89 L1759.75 1555.74 L1744.15 1555.74 L1744.15 1551.23 L1758.53 1529.33 Z" fill="#9eb1be" fill-rule="nonzero" fill-opacity="1" /><path clip-path="url(#clip150)" d="M1774.31 1549 L1786.79 1549 L1786.79 1552.8 L1774.31 1552.8 L1774.31 1549 Z" fill="#9eb1be" fill-rule="nonzero" fill-opacity="1" /><path clip-path="url(#clip150)" d="M1804.18 1532.41 Q1800.56 1532.41 1798.74 1535.97 Q1796.93 1539.51 1796.93 1546.64 Q1796.93 1553.75 1798.74 1557.31 Q1800.56 1560.86 1804.18 1560.86 Q1807.81 1560.86 1809.62 1557.31 Q1811.44 1553.75 1811.44 1546.64 Q1811.44 1539.51 1809.62 1535.97 Q1807.81 1532.41 1804.18 1532.41 M1804.18 1528.7 Q1809.99 1528.7 1813.04 1533.31 Q1816.12 1537.89 1816.12 1546.64 Q1816.12 1555.37 1813.04 1559.98 Q1809.99 1564.56 1804.18 1564.56 Q1798.37 1564.56 1795.29 1559.98 Q1792.23 1555.37 1792.23 1546.64 Q1792.23 1537.89 1795.29 1533.31 Q1798.37 1528.7 1804.18 1528.7 Z" fill="#9eb1be" fill-rule="nonzero" fill-opacity="1" /><path clip-path="url(#clip150)" d="M1825.15 1559.95 L1832.79 1559.95 L1832.79 1533.59 L1824.48 1535.25 L1824.48 1530.99 L1832.74 1529.33 L1837.42 1529.33 L1837.42 1559.95 L1845.06 1559.95 L1845.06 1563.89 L1825.15 1563.89 L1825.15 1559.95 Z" fill="#9eb1be" fill-rule="nonzero" fill-opacity="1" /><path clip-path="url(#clip150)" d="M1851.74 1549 L1864.22 1549 L1864.22 1552.8 L1851.74 1552.8 L1851.74 1549 Z" fill="#9eb1be" fill-rule="nonzero" fill-opacity="1" /><path clip-path="url(#clip150)" d="M1872.42 1559.95 L1880.05 1559.95 L1880.05 1533.59 L1871.74 1535.25 L1871.74 1530.99 L1880.01 1529.33 L1884.68 1529.33 L1884.68 1559.95 L1892.32 1559.95 L1892.32 1563.89 L1872.42 1563.89 L1872.42 1559.95 Z" fill="#9eb1be" fill-rule="nonzero" fill-opacity="1" /><path clip-path="url(#clip150)" d="M1900.59 1529.33 L1922.81 1529.33 L1922.81 1531.32 L1910.26 1563.89 L1905.38 1563.89 L1917.18 1533.26 L1900.59 1533.26 L1900.59 1529.33 Z" fill="#9eb1be" fill-rule="nonzero" fill-opacity="1" /><path clip-path="url(#clip150)" d="M2394.93 1559.95 L2411.25 1559.95 L2411.25 1563.89 L2389.3 1563.89 L2389.3 1559.95 Q2391.96 1557.2 2396.55 1552.57 Q2401.15 1547.92 2402.33 1546.57 Q2404.58 1544.05 2405.46 1542.31 Q2406.36 1540.55 2406.36 1538.86 Q2406.36 1536.11 2404.42 1534.37 Q2402.5 1532.64 2399.4 1532.64 Q2397.2 1532.64 2394.74 1533.4 Q2392.31 1534.17 2389.53 1535.72 L2389.53 1530.99 Q2392.36 1529.86 2394.81 1529.28 Q2397.27 1528.7 2399.3 1528.7 Q2404.67 1528.7 2407.87 1531.39 Q2411.06 1534.07 2411.06 1538.56 Q2411.06 1540.69 2410.25 1542.61 Q2409.46 1544.51 2407.36 1547.11 Q2406.78 1547.78 2403.68 1550.99 Q2400.58 1554.19 2394.93 1559.95 Z" fill="#9eb1be" fill-rule="nonzero" fill-opacity="1" /><path clip-path="url(#clip150)" d="M2431.06 1532.41 Q2427.45 1532.41 2425.62 1535.97 Q2423.82 1539.51 2423.82 1546.64 Q2423.82 1553.75 2425.62 1557.31 Q2427.45 1560.86 2431.06 1560.86 Q2434.7 1560.86 2436.5 1557.31 Q2438.33 1553.75 2438.33 1546.64 Q2438.33 1539.51 2436.5 1535.97 Q2434.7 1532.41 2431.06 1532.41 M2431.06 1528.7 Q2436.87 1528.7 2439.93 1533.31 Q2443.01 1537.89 2443.01 1546.64 Q2443.01 1555.37 2439.93 1559.98 Q2436.87 1564.56 2431.06 1564.56 Q2425.25 1564.56 2422.17 1559.98 Q2419.12 1555.37 2419.12 1546.64 Q2419.12 1537.89 2422.17 1533.31 Q2425.25 1528.7 2431.06 1528.7 Z" fill="#9eb1be" fill-rule="nonzero" fill-opacity="1" /><path clip-path="url(#clip150)" d="M2455.25 1559.95 L2471.57 1559.95 L2471.57 1563.89 L2449.63 1563.89 L2449.63 1559.95 Q2452.29 1557.2 2456.87 1552.57 Q2461.48 1547.92 2462.66 1546.57 Q2464.9 1544.05 2465.78 1542.31 Q2466.69 1540.55 2466.69 1538.86 Q2466.69 1536.11 2464.74 1534.37 Q2462.82 1532.64 2459.72 1532.64 Q2457.52 1532.64 2455.07 1533.4 Q2452.64 1534.17 2449.86 1535.72 L2449.86 1530.99 Q2452.68 1529.86 2455.14 1529.28 Q2457.59 1528.7 2459.63 1528.7 Q2465 1528.7 2468.19 1531.39 Q2471.39 1534.07 2471.39 1538.56 Q2471.39 1540.69 2470.58 1542.61 Q2469.79 1544.51 2467.68 1547.11 Q2467.1 1547.78 2464 1550.99 Q2460.9 1554.19 2455.25 1559.95 Z" fill="#9eb1be" fill-rule="nonzero" fill-opacity="1" /><path clip-path="url(#clip150)" d="M2494.23 1533.4 L2482.43 1551.85 L2494.23 1551.85 L2494.23 1533.4 M2493.01 1529.33 L2498.89 1529.33 L2498.89 1551.85 L2503.82 1551.85 L2503.82 1555.74 L2498.89 1555.74 L2498.89 1563.89 L2494.23 1563.89 L2494.23 1555.74 L2478.63 1555.74 L2478.63 1551.23 L2493.01 1529.33 Z" fill="#9eb1be" fill-rule="nonzero" fill-opacity="1" /><path clip-path="url(#clip150)" d="M2508.79 1549 L2521.27 1549 L2521.27 1552.8 L2508.79 1552.8 L2508.79 1549 Z" fill="#9eb1be" fill-rule="nonzero" fill-opacity="1" /><path clip-path="url(#clip150)" d="M2538.65 1532.41 Q2535.04 1532.41 2533.21 1535.97 Q2531.41 1539.51 2531.41 1546.64 Q2531.41 1553.75 2533.21 1557.31 Q2535.04 1560.86 2538.65 1560.86 Q2542.29 1560.86 2544.09 1557.31 Q2545.92 1553.75 2545.92 1546.64 Q2545.92 1539.51 2544.09 1535.97 Q2542.29 1532.41 2538.65 1532.41 M2538.65 1528.7 Q2544.46 1528.7 2547.52 1533.31 Q2550.6 1537.89 2550.6 1546.64 Q2550.6 1555.37 2547.52 1559.98 Q2544.46 1564.56 2538.65 1564.56 Q2532.84 1564.56 2529.76 1559.98 Q2526.71 1555.37 2526.71 1546.64 Q2526.71 1537.89 2529.76 1533.31 Q2532.84 1528.7 2538.65 1528.7 Z" fill="#9eb1be" fill-rule="nonzero" fill-opacity="1" /><path clip-path="url(#clip150)" d="M2559.63 1559.95 L2567.26 1559.95 L2567.26 1533.59 L2558.95 1535.25 L2558.95 1530.99 L2567.22 1529.33 L2571.89 1529.33 L2571.89 1559.95 L2579.53 1559.95 L2579.53 1563.89 L2559.63 1563.89 L2559.63 1559.95 Z" fill="#9eb1be" fill-rule="nonzero" fill-opacity="1" /><path clip-path="url(#clip150)" d="M2586.22 1549 L2598.7 1549 L2598.7 1552.8 L2586.22 1552.8 L2586.22 1549 Z" fill="#9eb1be" fill-rule="nonzero" fill-opacity="1" /><path clip-path="url(#clip150)" d="M2610.11 1559.95 L2626.43 1559.95 L2626.43 1563.89 L2604.49 1563.89 L2604.49 1559.95 Q2607.15 1557.2 2611.73 1552.57 Q2616.34 1547.92 2617.52 1546.57 Q2619.76 1544.05 2620.64 1542.31 Q2621.55 1540.55 2621.55 1538.86 Q2621.55 1536.11 2619.6 1534.37 Q2617.68 1532.64 2614.58 1532.64 Q2612.38 1532.64 2609.93 1533.4 Q2607.5 1534.17 2604.72 1535.72 L2604.72 1530.99 Q2607.54 1529.86 2610 1529.28 Q2612.45 1528.7 2614.49 1528.7 Q2619.86 1528.7 2623.05 1531.39 Q2626.25 1534.07 2626.25 1538.56 Q2626.25 1540.69 2625.44 1542.61 Q2624.65 1544.51 2622.54 1547.11 Q2621.96 1547.78 2618.86 1550.99 Q2615.76 1554.19 2610.11 1559.95 Z" fill="#9eb1be" fill-rule="nonzero" fill-opacity="1" /><path clip-path="url(#clip150)" d="M2636.29 1529.33 L2654.65 1529.33 L2654.65 1533.26 L2640.57 1533.26 L2640.57 1541.74 Q2641.59 1541.39 2642.61 1541.23 Q2643.63 1541.04 2644.65 1541.04 Q2650.44 1541.04 2653.82 1544.21 Q2657.19 1547.38 2657.19 1552.8 Q2657.19 1558.38 2653.72 1561.48 Q2650.25 1564.56 2643.93 1564.56 Q2641.75 1564.56 2639.49 1564.19 Q2637.24 1563.82 2634.83 1563.08 L2634.83 1558.38 Q2636.92 1559.51 2639.14 1560.07 Q2641.36 1560.62 2643.84 1560.62 Q2647.84 1560.62 2650.18 1558.52 Q2652.52 1556.41 2652.52 1552.8 Q2652.52 1549.19 2650.18 1547.08 Q2647.84 1544.98 2643.84 1544.98 Q2641.96 1544.98 2640.09 1545.39 Q2638.24 1545.81 2636.29 1546.69 L2636.29 1529.33 Z" fill="#9eb1be" fill-rule="nonzero" fill-opacity="1" /><polyline clip-path="url(#clip150)" style="stroke:#adb2b7; stroke-linecap:round; stroke-linejoin:round; stroke-width:4; stroke-opacity:1; fill:none" points="237.445,1495.09 237.445,95.3921 "/>
<polyline clip-path="url(#clip150)" style="stroke:#adb2b7; stroke-linecap:round; stroke-linejoin:round; stroke-width:4; stroke-opacity:1; fill:none" points="237.445,1289.15 256.343,1289.15 "/>
<polyline clip-path="url(#clip150)" style="stroke:#adb2b7; stroke-linecap:round; stroke-linejoin:round; stroke-width:4; stroke-opacity:1; fill:none" points="237.445,1080.93 256.343,1080.93 "/>
<polyline clip-path="url(#clip150)" style="stroke:#adb2b7; stroke-linecap:round; stroke-linejoin:round; stroke-width:4; stroke-opacity:1; fill:none" points="237.445,872.711 256.343,872.711 "/>
<polyline clip-path="url(#clip150)" style="stroke:#adb2b7; stroke-linecap:round; stroke-linejoin:round; stroke-width:4; stroke-opacity:1; fill:none" points="237.445,664.493 256.343,664.493 "/>
<polyline clip-path="url(#clip150)" style="stroke:#adb2b7; stroke-linecap:round; stroke-linejoin:round; stroke-width:4; stroke-opacity:1; fill:none" points="237.445,456.275 256.343,456.275 "/>
<polyline clip-path="url(#clip150)" style="stroke:#adb2b7; stroke-linecap:round; stroke-linejoin:round; stroke-width:4; stroke-opacity:1; fill:none" points="237.445,248.057 256.343,248.057 "/>
<path clip-path="url(#clip150)" d="M47.6634 1302.49 L55.3023 1302.49 L55.3023 1276.13 L46.9921 1277.79 L46.9921 1273.53 L55.256 1271.87 L59.9319 1271.87 L59.9319 1302.49 L67.5707 1302.49 L67.5707 1306.43 L47.6634 1306.43 L47.6634 1302.49 Z" fill="#9eb1be" fill-rule="nonzero" fill-opacity="1" /><path clip-path="url(#clip150)" d="M87.0151 1274.95 Q83.404 1274.95 81.5753 1278.51 Q79.7697 1282.05 79.7697 1289.18 Q79.7697 1296.29 81.5753 1299.85 Q83.404 1303.39 87.0151 1303.39 Q90.6493 1303.39 92.4548 1299.85 Q94.2835 1296.29 94.2835 1289.18 Q94.2835 1282.05 92.4548 1278.51 Q90.6493 1274.95 87.0151 1274.95 M87.0151 1271.24 Q92.8252 1271.24 95.8808 1275.85 Q98.9594 1280.43 98.9594 1289.18 Q98.9594 1297.91 95.8808 1302.51 Q92.8252 1307.1 87.0151 1307.1 Q81.2049 1307.1 78.1262 1302.51 Q75.0707 1297.91 75.0707 1289.18 Q75.0707 1280.43 78.1262 1275.85 Q81.2049 1271.24 87.0151 1271.24 Z" fill="#9eb1be" fill-rule="nonzero" fill-opacity="1" /><path clip-path="url(#clip150)" d="M117.177 1274.95 Q113.566 1274.95 111.737 1278.51 Q109.932 1282.05 109.932 1289.18 Q109.932 1296.29 111.737 1299.85 Q113.566 1303.39 117.177 1303.39 Q120.811 1303.39 122.617 1299.85 Q124.445 1296.29 124.445 1289.18 Q124.445 1282.05 122.617 1278.51 Q120.811 1274.95 117.177 1274.95 M117.177 1271.24 Q122.987 1271.24 126.043 1275.85 Q129.121 1280.43 129.121 1289.18 Q129.121 1297.91 126.043 1302.51 Q122.987 1307.1 117.177 1307.1 Q111.367 1307.1 108.288 1302.51 Q105.233 1297.91 105.233 1289.18 Q105.233 1280.43 108.288 1275.85 Q111.367 1271.24 117.177 1271.24 Z" fill="#9eb1be" fill-rule="nonzero" fill-opacity="1" /><path clip-path="url(#clip150)" d="M147.339 1274.95 Q143.728 1274.95 141.899 1278.51 Q140.093 1282.05 140.093 1289.18 Q140.093 1296.29 141.899 1299.85 Q143.728 1303.39 147.339 1303.39 Q150.973 1303.39 152.779 1299.85 Q154.607 1296.29 154.607 1289.18 Q154.607 1282.05 152.779 1278.51 Q150.973 1274.95 147.339 1274.95 M147.339 1271.24 Q153.149 1271.24 156.205 1275.85 Q159.283 1280.43 159.283 1289.18 Q159.283 1297.91 156.205 1302.51 Q153.149 1307.1 147.339 1307.1 Q141.529 1307.1 138.45 1302.51 Q135.394 1297.91 135.394 1289.18 Q135.394 1280.43 138.45 1275.85 Q141.529 1271.24 147.339 1271.24 Z" fill="#9eb1be" fill-rule="nonzero" fill-opacity="1" /><path clip-path="url(#clip150)" d="M177.501 1274.95 Q173.89 1274.95 172.061 1278.51 Q170.255 1282.05 170.255 1289.18 Q170.255 1296.29 172.061 1299.85 Q173.89 1303.39 177.501 1303.39 Q181.135 1303.39 182.94 1299.85 Q184.769 1296.29 184.769 1289.18 Q184.769 1282.05 182.94 1278.51 Q181.135 1274.95 177.501 1274.95 M177.501 1271.24 Q183.311 1271.24 186.366 1275.85 Q189.445 1280.43 189.445 1289.18 Q189.445 1297.91 186.366 1302.51 Q183.311 1307.1 177.501 1307.1 Q171.691 1307.1 168.612 1302.51 Q165.556 1297.91 165.556 1289.18 Q165.556 1280.43 168.612 1275.85 Q171.691 1271.24 177.501 1271.24 Z" fill="#9eb1be" fill-rule="nonzero" fill-opacity="1" /><path clip-path="url(#clip150)" d="M47.6634 1094.27 L55.3023 1094.27 L55.3023 1067.91 L46.9921 1069.57 L46.9921 1065.32 L55.256 1063.65 L59.9319 1063.65 L59.9319 1094.27 L67.5707 1094.27 L67.5707 1098.21 L47.6634 1098.21 L47.6634 1094.27 Z" fill="#9eb1be" fill-rule="nonzero" fill-opacity="1" /><path clip-path="url(#clip150)" d="M87.0151 1066.73 Q83.404 1066.73 81.5753 1070.29 Q79.7697 1073.83 79.7697 1080.96 Q79.7697 1088.07 81.5753 1091.63 Q83.404 1095.18 87.0151 1095.18 Q90.6493 1095.18 92.4548 1091.63 Q94.2835 1088.07 94.2835 1080.96 Q94.2835 1073.83 92.4548 1070.29 Q90.6493 1066.73 87.0151 1066.73 M87.0151 1063.02 Q92.8252 1063.02 95.8808 1067.63 Q98.9594 1072.21 98.9594 1080.96 Q98.9594 1089.69 95.8808 1094.3 Q92.8252 1098.88 87.0151 1098.88 Q81.2049 1098.88 78.1262 1094.3 Q75.0707 1089.69 75.0707 1080.96 Q75.0707 1072.21 78.1262 1067.63 Q81.2049 1063.02 87.0151 1063.02 Z" fill="#9eb1be" fill-rule="nonzero" fill-opacity="1" /><path clip-path="url(#clip150)" d="M107.223 1063.65 L125.58 1063.65 L125.58 1067.58 L111.506 1067.58 L111.506 1076.06 Q112.524 1075.71 113.543 1075.55 Q114.561 1075.36 115.58 1075.36 Q121.367 1075.36 124.746 1078.53 Q128.126 1081.7 128.126 1087.12 Q128.126 1092.7 124.654 1095.8 Q121.182 1098.88 114.862 1098.88 Q112.686 1098.88 110.418 1098.51 Q108.172 1098.14 105.765 1097.4 L105.765 1092.7 Q107.848 1093.83 110.07 1094.39 Q112.293 1094.94 114.77 1094.94 Q118.774 1094.94 121.112 1092.84 Q123.45 1090.73 123.45 1087.12 Q123.45 1083.51 121.112 1081.4 Q118.774 1079.3 114.77 1079.3 Q112.895 1079.3 111.02 1079.71 Q109.168 1080.13 107.223 1081.01 L107.223 1063.65 Z" fill="#9eb1be" fill-rule="nonzero" fill-opacity="1" /><path clip-path="url(#clip150)" d="M147.339 1066.73 Q143.728 1066.73 141.899 1070.29 Q140.093 1073.83 140.093 1080.96 Q140.093 1088.07 141.899 1091.63 Q143.728 1095.18 147.339 1095.18 Q150.973 1095.18 152.779 1091.63 Q154.607 1088.07 154.607 1080.96 Q154.607 1073.83 152.779 1070.29 Q150.973 1066.73 147.339 1066.73 M147.339 1063.02 Q153.149 1063.02 156.205 1067.63 Q159.283 1072.21 159.283 1080.96 Q159.283 1089.69 156.205 1094.3 Q153.149 1098.88 147.339 1098.88 Q141.529 1098.88 138.45 1094.3 Q135.394 1089.69 135.394 1080.96 Q135.394 1072.21 138.45 1067.63 Q141.529 1063.02 147.339 1063.02 Z" fill="#9eb1be" fill-rule="nonzero" fill-opacity="1" /><path clip-path="url(#clip150)" d="M177.501 1066.73 Q173.89 1066.73 172.061 1070.29 Q170.255 1073.83 170.255 1080.96 Q170.255 1088.07 172.061 1091.63 Q173.89 1095.18 177.501 1095.18 Q181.135 1095.18 182.94 1091.63 Q184.769 1088.07 184.769 1080.96 Q184.769 1073.83 182.94 1070.29 Q181.135 1066.73 177.501 1066.73 M177.501 1063.02 Q183.311 1063.02 186.366 1067.63 Q189.445 1072.21 189.445 1080.96 Q189.445 1089.69 186.366 1094.3 Q183.311 1098.88 177.501 1098.88 Q171.691 1098.88 168.612 1094.3 Q165.556 1089.69 165.556 1080.96 Q165.556 1072.21 168.612 1067.63 Q171.691 1063.02 177.501 1063.02 Z" fill="#9eb1be" fill-rule="nonzero" fill-opacity="1" /><path clip-path="url(#clip150)" d="M47.6634 886.056 L55.3023 886.056 L55.3023 859.69 L46.9921 861.357 L46.9921 857.098 L55.256 855.431 L59.9319 855.431 L59.9319 886.056 L67.5707 886.056 L67.5707 889.991 L47.6634 889.991 L47.6634 886.056 Z" fill="#9eb1be" fill-rule="nonzero" fill-opacity="1" /><path clip-path="url(#clip150)" d="M77.8253 886.056 L85.4641 886.056 L85.4641 859.69 L77.154 861.357 L77.154 857.098 L85.4178 855.431 L90.0937 855.431 L90.0937 886.056 L97.7326 886.056 L97.7326 889.991 L77.8253 889.991 L77.8253 886.056 Z" fill="#9eb1be" fill-rule="nonzero" fill-opacity="1" /><path clip-path="url(#clip150)" d="M117.177 858.51 Q113.566 858.51 111.737 862.074 Q109.932 865.616 109.932 872.746 Q109.932 879.852 111.737 883.417 Q113.566 886.959 117.177 886.959 Q120.811 886.959 122.617 883.417 Q124.445 879.852 124.445 872.746 Q124.445 865.616 122.617 862.074 Q120.811 858.51 117.177 858.51 M117.177 854.806 Q122.987 854.806 126.043 859.412 Q129.121 863.996 129.121 872.746 Q129.121 881.472 126.043 886.079 Q122.987 890.662 117.177 890.662 Q111.367 890.662 108.288 886.079 Q105.233 881.472 105.233 872.746 Q105.233 863.996 108.288 859.412 Q111.367 854.806 117.177 854.806 Z" fill="#9eb1be" fill-rule="nonzero" fill-opacity="1" /><path clip-path="url(#clip150)" d="M147.339 858.51 Q143.728 858.51 141.899 862.074 Q140.093 865.616 140.093 872.746 Q140.093 879.852 141.899 883.417 Q143.728 886.959 147.339 886.959 Q150.973 886.959 152.779 883.417 Q154.607 879.852 154.607 872.746 Q154.607 865.616 152.779 862.074 Q150.973 858.51 147.339 858.51 M147.339 854.806 Q153.149 854.806 156.205 859.412 Q159.283 863.996 159.283 872.746 Q159.283 881.472 156.205 886.079 Q153.149 890.662 147.339 890.662 Q141.529 890.662 138.45 886.079 Q135.394 881.472 135.394 872.746 Q135.394 863.996 138.45 859.412 Q141.529 854.806 147.339 854.806 Z" fill="#9eb1be" fill-rule="nonzero" fill-opacity="1" /><path clip-path="url(#clip150)" d="M177.501 858.51 Q173.89 858.51 172.061 862.074 Q170.255 865.616 170.255 872.746 Q170.255 879.852 172.061 883.417 Q173.89 886.959 177.501 886.959 Q181.135 886.959 182.94 883.417 Q184.769 879.852 184.769 872.746 Q184.769 865.616 182.94 862.074 Q181.135 858.51 177.501 858.51 M177.501 854.806 Q183.311 854.806 186.366 859.412 Q189.445 863.996 189.445 872.746 Q189.445 881.472 186.366 886.079 Q183.311 890.662 177.501 890.662 Q171.691 890.662 168.612 886.079 Q165.556 881.472 165.556 872.746 Q165.556 863.996 168.612 859.412 Q171.691 854.806 177.501 854.806 Z" fill="#9eb1be" fill-rule="nonzero" fill-opacity="1" /><path clip-path="url(#clip150)" d="M47.6634 677.838 L55.3023 677.838 L55.3023 651.472 L46.9921 653.139 L46.9921 648.88 L55.256 647.213 L59.9319 647.213 L59.9319 677.838 L67.5707 677.838 L67.5707 681.773 L47.6634 681.773 L47.6634 677.838 Z" fill="#9eb1be" fill-rule="nonzero" fill-opacity="1" /><path clip-path="url(#clip150)" d="M77.8253 677.838 L85.4641 677.838 L85.4641 651.472 L77.154 653.139 L77.154 648.88 L85.4178 647.213 L90.0937 647.213 L90.0937 677.838 L97.7326 677.838 L97.7326 681.773 L77.8253 681.773 L77.8253 677.838 Z" fill="#9eb1be" fill-rule="nonzero" fill-opacity="1" /><path clip-path="url(#clip150)" d="M107.223 647.213 L125.58 647.213 L125.58 651.148 L111.506 651.148 L111.506 659.62 Q112.524 659.273 113.543 659.111 Q114.561 658.926 115.58 658.926 Q121.367 658.926 124.746 662.097 Q128.126 665.269 128.126 670.685 Q128.126 676.264 124.654 679.366 Q121.182 682.444 114.862 682.444 Q112.686 682.444 110.418 682.074 Q108.172 681.704 105.765 680.963 L105.765 676.264 Q107.848 677.398 110.07 677.954 Q112.293 678.509 114.77 678.509 Q118.774 678.509 121.112 676.403 Q123.45 674.296 123.45 670.685 Q123.45 667.074 121.112 664.968 Q118.774 662.861 114.77 662.861 Q112.895 662.861 111.02 663.278 Q109.168 663.695 107.223 664.574 L107.223 647.213 Z" fill="#9eb1be" fill-rule="nonzero" fill-opacity="1" /><path clip-path="url(#clip150)" d="M147.339 650.292 Q143.728 650.292 141.899 653.857 Q140.093 657.398 140.093 664.528 Q140.093 671.634 141.899 675.199 Q143.728 678.741 147.339 678.741 Q150.973 678.741 152.779 675.199 Q154.607 671.634 154.607 664.528 Q154.607 657.398 152.779 653.857 Q150.973 650.292 147.339 650.292 M147.339 646.588 Q153.149 646.588 156.205 651.195 Q159.283 655.778 159.283 664.528 Q159.283 673.255 156.205 677.861 Q153.149 682.444 147.339 682.444 Q141.529 682.444 138.45 677.861 Q135.394 673.255 135.394 664.528 Q135.394 655.778 138.45 651.195 Q141.529 646.588 147.339 646.588 Z" fill="#9eb1be" fill-rule="nonzero" fill-opacity="1" /><path clip-path="url(#clip150)" d="M177.501 650.292 Q173.89 650.292 172.061 653.857 Q170.255 657.398 170.255 664.528 Q170.255 671.634 172.061 675.199 Q173.89 678.741 177.501 678.741 Q181.135 678.741 182.94 675.199 Q184.769 671.634 184.769 664.528 Q184.769 657.398 182.94 653.857 Q181.135 650.292 177.501 650.292 M177.501 646.588 Q183.311 646.588 186.366 651.195 Q189.445 655.778 189.445 664.528 Q189.445 673.255 186.366 677.861 Q183.311 682.444 177.501 682.444 Q171.691 682.444 168.612 677.861 Q165.556 673.255 165.556 664.528 Q165.556 655.778 168.612 651.195 Q171.691 646.588 177.501 646.588 Z" fill="#9eb1be" fill-rule="nonzero" fill-opacity="1" /><path clip-path="url(#clip150)" d="M47.6634 469.62 L55.3023 469.62 L55.3023 443.255 L46.9921 444.921 L46.9921 440.662 L55.256 438.995 L59.9319 438.995 L59.9319 469.62 L67.5707 469.62 L67.5707 473.555 L47.6634 473.555 L47.6634 469.62 Z" fill="#9eb1be" fill-rule="nonzero" fill-opacity="1" /><path clip-path="url(#clip150)" d="M81.0429 469.62 L97.3622 469.62 L97.3622 473.555 L75.4179 473.555 L75.4179 469.62 Q78.0799 466.866 82.6632 462.236 Q87.2697 457.583 88.4502 456.241 Q90.6956 453.717 91.5752 451.981 Q92.478 450.222 92.478 448.532 Q92.478 445.778 90.5336 444.042 Q88.6123 442.305 85.5104 442.305 Q83.3114 442.305 80.8577 443.069 Q78.4271 443.833 75.6494 445.384 L75.6494 440.662 Q78.4734 439.528 80.9271 438.949 Q83.3808 438.37 85.4178 438.37 Q90.7882 438.37 93.9826 441.055 Q97.177 443.741 97.177 448.231 Q97.177 450.361 96.3669 452.282 Q95.5798 454.18 93.4734 456.773 Q92.8947 457.444 89.7928 460.662 Q86.691 463.856 81.0429 469.62 Z" fill="#9eb1be" fill-rule="nonzero" fill-opacity="1" /><path clip-path="url(#clip150)" d="M117.177 442.074 Q113.566 442.074 111.737 445.639 Q109.932 449.18 109.932 456.31 Q109.932 463.416 111.737 466.981 Q113.566 470.523 117.177 470.523 Q120.811 470.523 122.617 466.981 Q124.445 463.416 124.445 456.31 Q124.445 449.18 122.617 445.639 Q120.811 442.074 117.177 442.074 M117.177 438.37 Q122.987 438.37 126.043 442.977 Q129.121 447.56 129.121 456.31 Q129.121 465.037 126.043 469.643 Q122.987 474.227 117.177 474.227 Q111.367 474.227 108.288 469.643 Q105.233 465.037 105.233 456.31 Q105.233 447.56 108.288 442.977 Q111.367 438.37 117.177 438.37 Z" fill="#9eb1be" fill-rule="nonzero" fill-opacity="1" /><path clip-path="url(#clip150)" d="M147.339 442.074 Q143.728 442.074 141.899 445.639 Q140.093 449.18 140.093 456.31 Q140.093 463.416 141.899 466.981 Q143.728 470.523 147.339 470.523 Q150.973 470.523 152.779 466.981 Q154.607 463.416 154.607 456.31 Q154.607 449.18 152.779 445.639 Q150.973 442.074 147.339 442.074 M147.339 438.37 Q153.149 438.37 156.205 442.977 Q159.283 447.56 159.283 456.31 Q159.283 465.037 156.205 469.643 Q153.149 474.227 147.339 474.227 Q141.529 474.227 138.45 469.643 Q135.394 465.037 135.394 456.31 Q135.394 447.56 138.45 442.977 Q141.529 438.37 147.339 438.37 Z" fill="#9eb1be" fill-rule="nonzero" fill-opacity="1" /><path clip-path="url(#clip150)" d="M177.501 442.074 Q173.89 442.074 172.061 445.639 Q170.255 449.18 170.255 456.31 Q170.255 463.416 172.061 466.981 Q173.89 470.523 177.501 470.523 Q181.135 470.523 182.94 466.981 Q184.769 463.416 184.769 456.31 Q184.769 449.18 182.94 445.639 Q181.135 442.074 177.501 442.074 M177.501 438.37 Q183.311 438.37 186.366 442.977 Q189.445 447.56 189.445 456.31 Q189.445 465.037 186.366 469.643 Q183.311 474.227 177.501 474.227 Q171.691 474.227 168.612 469.643 Q165.556 465.037 165.556 456.31 Q165.556 447.56 168.612 442.977 Q171.691 438.37 177.501 438.37 Z" fill="#9eb1be" fill-rule="nonzero" fill-opacity="1" /><path clip-path="url(#clip150)" d="M47.6634 261.402 L55.3023 261.402 L55.3023 235.037 L46.9921 236.703 L46.9921 232.444 L55.256 230.777 L59.9319 230.777 L59.9319 261.402 L67.5707 261.402 L67.5707 265.337 L47.6634 265.337 L47.6634 261.402 Z" fill="#9eb1be" fill-rule="nonzero" fill-opacity="1" /><path clip-path="url(#clip150)" d="M81.0429 261.402 L97.3622 261.402 L97.3622 265.337 L75.4179 265.337 L75.4179 261.402 Q78.0799 258.648 82.6632 254.018 Q87.2697 249.365 88.4502 248.023 Q90.6956 245.5 91.5752 243.764 Q92.478 242.004 92.478 240.314 Q92.478 237.56 90.5336 235.824 Q88.6123 234.088 85.5104 234.088 Q83.3114 234.088 80.8577 234.852 Q78.4271 235.615 75.6494 237.166 L75.6494 232.444 Q78.4734 231.31 80.9271 230.731 Q83.3808 230.153 85.4178 230.153 Q90.7882 230.153 93.9826 232.838 Q97.177 235.523 97.177 240.014 Q97.177 242.143 96.3669 244.064 Q95.5798 245.963 93.4734 248.555 Q92.8947 249.226 89.7928 252.444 Q86.691 255.638 81.0429 261.402 Z" fill="#9eb1be" fill-rule="nonzero" fill-opacity="1" /><path clip-path="url(#clip150)" d="M107.223 230.777 L125.58 230.777 L125.58 234.713 L111.506 234.713 L111.506 243.185 Q112.524 242.838 113.543 242.676 Q114.561 242.49 115.58 242.49 Q121.367 242.49 124.746 245.662 Q128.126 248.833 128.126 254.25 Q128.126 259.828 124.654 262.93 Q121.182 266.009 114.862 266.009 Q112.686 266.009 110.418 265.638 Q108.172 265.268 105.765 264.527 L105.765 259.828 Q107.848 260.963 110.07 261.518 Q112.293 262.074 114.77 262.074 Q118.774 262.074 121.112 259.967 Q123.45 257.861 123.45 254.25 Q123.45 250.639 121.112 248.532 Q118.774 246.426 114.77 246.426 Q112.895 246.426 111.02 246.842 Q109.168 247.259 107.223 248.139 L107.223 230.777 Z" fill="#9eb1be" fill-rule="nonzero" fill-opacity="1" /><path clip-path="url(#clip150)" d="M147.339 233.856 Q143.728 233.856 141.899 237.421 Q140.093 240.963 140.093 248.092 Q140.093 255.199 141.899 258.763 Q143.728 262.305 147.339 262.305 Q150.973 262.305 152.779 258.763 Q154.607 255.199 154.607 248.092 Q154.607 240.963 152.779 237.421 Q150.973 233.856 147.339 233.856 M147.339 230.153 Q153.149 230.153 156.205 234.759 Q159.283 239.342 159.283 248.092 Q159.283 256.819 156.205 261.425 Q153.149 266.009 147.339 266.009 Q141.529 266.009 138.45 261.425 Q135.394 256.819 135.394 248.092 Q135.394 239.342 138.45 234.759 Q141.529 230.153 147.339 230.153 Z" fill="#9eb1be" fill-rule="nonzero" fill-opacity="1" /><path clip-path="url(#clip150)" d="M177.501 233.856 Q173.89 233.856 172.061 237.421 Q170.255 240.963 170.255 248.092 Q170.255 255.199 172.061 258.763 Q173.89 262.305 177.501 262.305 Q181.135 262.305 182.94 258.763 Q184.769 255.199 184.769 248.092 Q184.769 240.963 182.94 237.421 Q181.135 233.856 177.501 233.856 M177.501 230.153 Q183.311 230.153 186.366 234.759 Q189.445 239.342 189.445 248.092 Q189.445 256.819 186.366 261.425 Q183.311 266.009 177.501 266.009 Q171.691 266.009 168.612 261.425 Q165.556 256.819 165.556 248.092 Q165.556 239.342 168.612 234.759 Q171.691 230.153 177.501 230.153 Z" fill="#9eb1be" fill-rule="nonzero" fill-opacity="1" /><path clip-path="url(#clip150)" d="M237.445 8.64 L264.76 8.64 L264.76 13.559 L243.29 13.559 L243.29 26.3482 L263.863 26.3482 L263.863 31.2672 L243.29 31.2672 L243.29 46.921 L265.281 46.921 L265.281 51.84 L237.445 51.84 L237.445 8.64 Z" fill="#adb2b7" fill-rule="nonzero" fill-opacity="1" /><path clip-path="url(#clip150)" d="M277.838 35.6653 Q277.838 41.5391 280.24 44.8956 Q282.671 48.2231 286.895 48.2231 Q291.12 48.2231 293.55 44.8956 Q295.981 41.5391 295.981 35.6653 Q295.981 29.7915 293.55 26.464 Q291.12 23.1075 286.895 23.1075 Q282.671 23.1075 280.24 26.464 Q277.838 29.7915 277.838 35.6653 M295.981 46.9789 Q294.302 49.8724 291.727 51.2902 Q289.181 52.6791 285.593 52.6791 Q279.719 52.6791 276.015 47.9916 Q272.341 43.3042 272.341 35.6653 Q272.341 28.0265 276.015 23.339 Q279.719 18.6515 285.593 18.6515 Q289.181 18.6515 291.727 20.0693 Q294.302 21.4582 295.981 24.3517 L295.981 19.4328 L301.305 19.4328 L301.305 64.1663 L295.981 64.1663 L295.981 46.9789 Z" fill="#adb2b7" fill-rule="nonzero" fill-opacity="1" /><path clip-path="url(#clip150)" d="M311.721 39.0507 L311.721 19.4328 L317.045 19.4328 L317.045 38.8482 Q317.045 43.4488 318.839 45.7636 Q320.633 48.0495 324.221 48.0495 Q328.533 48.0495 331.021 45.3007 Q333.538 42.5519 333.538 37.8065 L333.538 19.4328 L338.862 19.4328 L338.862 51.84 L333.538 51.84 L333.538 46.8632 Q331.6 49.8145 329.024 51.2613 Q326.478 52.6791 323.093 52.6791 Q317.508 52.6791 314.615 49.2069 Q311.721 45.7347 311.721 39.0507 M325.118 18.6515 L325.118 18.6515 Z" fill="#adb2b7" fill-rule="nonzero" fill-opacity="1" /><path clip-path="url(#clip150)" d="M349.829 19.4328 L355.153 19.4328 L355.153 51.84 L349.829 51.84 L349.829 19.4328 M349.829 6.81709 L355.153 6.81709 L355.153 13.559 L349.829 13.559 L349.829 6.81709 Z" fill="#adb2b7" fill-rule="nonzero" fill-opacity="1" /><path clip-path="url(#clip150)" d="M371.559 10.2314 L371.559 19.4328 L382.525 19.4328 L382.525 23.5705 L371.559 23.5705 L371.559 41.163 Q371.559 45.1271 372.63 46.2555 Q373.729 47.384 377.057 47.384 L382.525 47.384 L382.525 51.84 L377.057 51.84 Q370.893 51.84 368.55 49.5541 Q366.206 47.2393 366.206 41.163 L366.206 23.5705 L362.3 23.5705 L362.3 19.4328 L366.206 19.4328 L366.206 10.2314 L371.559 10.2314 Z" fill="#adb2b7" fill-rule="nonzero" fill-opacity="1" /><path clip-path="url(#clip150)" d="M403.011 54.8492 Q400.754 60.6362 398.613 62.4013 Q396.472 64.1663 392.884 64.1663 L388.631 64.1663 L388.631 59.7103 L391.756 59.7103 Q393.955 59.7103 395.17 58.6687 Q396.385 57.627 397.861 53.7497 L398.816 51.3192 L385.708 19.4328 L391.35 19.4328 L401.478 44.7799 L411.605 19.4328 L417.247 19.4328 L403.011 54.8492 Z" fill="#adb2b7" fill-rule="nonzero" fill-opacity="1" /><polyline clip-path="url(#clip151)" style="stroke:#bbbb00; stroke-linecap:round; stroke-linejoin:round; stroke-width:4; stroke-opacity:1; fill:none" points="319.954,1289.15 323.779,1289.15 327.604,1289.15 331.429,1289.15 335.255,1289.15 339.08,1289.15 342.905,1289.15 346.73,1289.15 350.555,1289.15 354.38,1289.15 358.206,1289.15 362.031,1289.15 365.856,1289.15 369.681,1289.15 373.506,1289.15 377.331,1289.15 381.156,1289.15 384.982,1289.15 388.807,1289.15 392.632,1289.15 396.457,1289.15 400.282,1289.15 404.107,1289.15 407.933,1289.15 407.933,1295.39 411.758,1295.39 411.758,1312.02 415.583,1312.02 415.583,1318.23 419.408,1318.23 419.408,1343.81 423.233,1343.81 427.058,1343.81 430.884,1343.81 434.709,1343.81 438.534,1343.81 442.359,1343.81 446.184,1343.81 446.184,1349.97 450.009,1349.97 450.009,1364.76 453.835,1364.76 453.835,1384.9 457.66,1384.9 457.66,1404.57 461.485,1404.57 461.485,1410.63 465.31,1410.63 465.31,1417.53 469.135,1417.53 469.135,1449.47 472.96,1449.47 476.786,1449.47 480.611,1449.47 480.611,1455.47 484.436,1455.47 484.436,1448.66 488.261,1448.66 488.261,1426.72 492.086,1426.72 492.086,1396.86 495.911,1396.86 495.911,1349.04 499.737,1349.04 499.737,1309.56 503.562,1309.56 503.562,1321.99 507.387,1321.99 507.387,1286.47 511.212,1286.47 511.212,1269.01 515.037,1269.01 515.037,1250.93 518.862,1250.93 518.862,1264.54 522.688,1264.54 522.688,1264.35 526.513,1264.35 526.513,1290.57 530.338,1290.57 530.338,1256.29 534.163,1256.29 534.163,1263.95 537.988,1263.95 537.988,1258.17 541.813,1258.17 541.813,1235.67 545.639,1235.67 545.639,1177.57 549.464,1177.57 549.464,1142.31 553.289,1142.31 553.289,1145.2 557.114,1145.2 557.114,1099.81 560.939,1099.81 560.939,1073.68 564.764,1073.68 564.764,1033.16 568.59,1033.16 568.59,1046.72 572.415,1046.72 572.415,1041.29 576.24,1041.29 576.24,987.546 580.065,987.546 580.065,978.708 583.89,978.708 583.89,989.052 587.715,989.052 587.715,966.728 591.541,966.728 591.541,967.647 595.366,967.647 595.366,955.607 599.191,955.607 599.191,974.237 603.016,974.237 603.016,971.605 606.841,971.605 606.841,937.087 610.666,937.087 610.666,929.062 614.492,929.062 614.492,922.174 618.317,922.174 618.317,918.871 622.142,918.871 622.142,915.369 625.967,915.369 625.967,880.678 629.792,880.678 629.792,872.201 633.617,872.201 633.617,888.64 637.443,888.64 637.443,871.744 641.268,871.744 641.268,857.242 645.093,857.242 645.093,897.851 648.918,897.851 648.918,898.813 652.743,898.813 652.743,884.269 656.568,884.269 656.568,900.947 660.394,900.947 660.394,926.939 664.219,926.939 668.044,926.939 668.044,933.722 671.869,933.722 671.869,925.696 675.694,925.696 675.694,984.518 679.519,984.518 679.519,991.216 683.344,991.216 683.344,981.553 687.17,981.553 687.17,999.502 690.995,999.502 690.995,993.835 694.82,993.835 694.82,939.948 698.645,939.948 698.645,892.441 702.47,892.441 702.47,884.17 706.295,884.17 706.295,907.745 710.121,907.745 710.121,922.38 713.946,922.38 713.946,903.287 717.771,903.287 717.771,909.542 721.596,909.542 721.596,875.456 725.421,875.456 725.421,928.807 729.246,928.807 729.246,890.572 733.072,890.572 733.072,874.937 736.897,874.937 736.897,908.726 740.722,908.726 740.722,907.176 744.547,907.176 744.547,891.099 748.372,891.099 748.372,921.068 752.197,921.068 752.197,903.309 756.023,903.309 756.023,912.141 759.848,912.141 759.848,870.372 763.673,870.372 763.673,842.585 767.498,842.585 767.498,862.891 771.323,862.891 771.323,820.54 775.148,820.54 775.148,806.742 778.974,806.742 778.974,807.713 782.799,807.713 782.799,813.626 786.624,813.626 786.624,771.423 790.449,771.423 790.449,782.387 794.274,782.387 794.274,760.196 798.099,760.196 798.099,823.324 801.925,823.324 801.925,825.021 805.75,825.021 805.75,815.168 809.575,815.168 809.575,856.195 813.4,856.195 817.225,856.195 817.225,863.083 821.05,863.083 821.05,825.611 824.876,825.611 824.876,843.671 828.701,843.671 828.701,866.443 832.526,866.443 836.351,866.443 840.176,866.443 844.001,866.443 847.827,866.443 851.652,866.443 855.477,866.443 855.477,873.313 859.302,873.313 859.302,844.607 863.127,844.607 863.127,825.836 866.952,825.836 866.952,816.913 870.778,816.913 870.778,838.558 874.603,838.558 874.603,897.718 878.428,897.718 882.253,897.718 886.078,897.718 886.078,904.544 889.903,904.544 889.903,932.772 893.729,932.772 897.554,932.772 897.554,939.553 901.379,939.553 901.379,887.775 905.204,887.775 905.204,856.884 909.029,856.884 909.029,874.948 912.854,874.948 912.854,883.287 916.68,883.287 916.68,886.621 920.505,886.621 920.505,924.634 924.33,924.634 924.33,940.327 928.155,940.327 928.155,947.093 931.98,947.093 931.98,952.145 935.805,952.145 935.805,955.046 939.631,955.046 939.631,1009.69 943.456,1009.69 947.281,1009.69 951.106,1009.69 954.931,1009.69 958.756,1009.69 962.581,1009.69 966.407,1009.69 970.232,1009.69 974.057,1009.69 974.057,1016.35 977.882,1016.35 977.882,1015.38 981.707,1015.38 981.707,1083.13 985.532,1083.13 989.358,1083.13 993.183,1083.13 993.183,1089.68 997.008,1089.68 997.008,1069.87 1000.83,1069.87 1000.83,1123.81 1004.66,1123.81 1008.48,1123.81 1012.31,1123.81 1016.13,1123.81 1016.13,1130.29 1019.96,1130.29 1019.96,1150.79 1023.78,1150.79 1027.61,1150.79 1031.43,1150.79 1035.26,1150.79 1039.08,1150.79 1039.08,1157.24 1042.91,1157.24 1042.91,1103 1046.74,1103 1046.74,1107.81 1050.56,1107.81 1050.56,1135.18 1054.39,1135.18 1054.39,1119.05 1058.21,1119.05 1058.21,1080.06 1062.04,1080.06 1062.04,1063.81 1065.86,1063.81 1065.86,1069.64 1069.69,1069.64 1069.69,1099.83 1073.51,1099.83 1073.51,1091.89 1077.34,1091.89 1077.34,1111.08 1081.16,1111.08 1081.16,1155.69 1084.99,1155.69 1088.81,1155.69 1092.64,1155.69 1096.46,1155.69 1096.46,1162.14 1100.29,1162.14 1100.29,1170.12 1104.11,1170.12 1104.11,1169.61 1107.94,1169.61 1107.94,1220.14 1111.76,1220.14 1111.76,1226.48 1115.59,1226.48 1115.59,1174.58 1119.41,1174.58 1119.41,1152.6 1123.24,1152.6 1123.24,1122.96 1127.06,1122.96 1127.06,1094.68 1130.89,1094.68 1130.89,1069.07 1134.71,1069.07 1134.71,1072.57 1138.54,1072.57 1138.54,1110.39 1142.36,1110.39 1142.36,1079.27 1146.19,1079.27 1146.19,1064.16 1150.01,1064.16 1150.01,1061.28 1153.84,1061.28 1153.84,1047.67 1157.66,1047.67 1157.66,1052.71 1161.49,1052.71 1161.49,1050.39 1165.32,1050.39 1165.32,1023.11 1169.14,1023.11 1169.14,1007.8 1172.97,1007.8 1172.97,957.578 1176.79,957.578 1176.79,920.929 1180.62,920.929 1180.62,885.071 1184.44,885.071 1184.44,887.378 1188.27,887.378 1188.27,924.55 1192.09,924.55 1192.09,871.452 1195.92,871.452 1195.92,893.985 1199.74,893.985 1199.74,883.671 1203.57,883.671 1203.57,902.968 1207.39,902.968 1207.39,904.434 1211.22,904.434 1211.22,891.228 1215.04,891.228 1215.04,877.538 1218.87,877.538 1218.87,873.209 1222.69,873.209 1222.69,845.72 1226.52,845.72 1226.52,885.197 1230.34,885.197 1230.34,905.575 1234.17,905.575 1234.17,938.017 1237.99,938.017 1241.82,938.017 1245.64,938.017 1245.64,944.786 1249.47,944.786 1249.47,956.29 1253.29,956.29 1253.29,960.648 1257.12,960.648 1257.12,967.635 1260.94,967.635 1260.94,974.358 1264.77,974.358 1264.77,938.001 1268.59,938.001 1268.59,932.58 1272.42,932.58 1272.42,961.223 1276.24,961.223 1276.24,944.155 1280.07,944.155 1280.07,930.051 1283.9,930.051 1283.9,948.685 1287.72,948.685 1287.72,948.781 1291.55,948.781 1291.55,985.329 1295.37,985.329 1299.2,985.329 1303.02,985.329 1303.02,992.026 1306.85,992.026 1306.85,981.911 1310.67,981.911 1310.67,947.223 1314.5,947.223 1314.5,975.359 1318.32,975.359 1318.32,946.311 1322.15,946.311 1322.15,1006.98 1325.97,1006.98 1329.8,1006.98 1333.62,1006.98 1337.45,1006.98 1337.45,1013.65 1341.27,1013.65 1341.27,1046.37 1345.1,1046.37 1345.1,1053.6 1348.92,1053.6 1348.92,1060.29 1352.75,1060.29 1352.75,1072.63 1356.57,1072.63 1360.4,1072.63 1360.4,1079.2 1364.22,1079.2 1364.22,1137.16 1368.05,1137.16 1371.87,1137.16 1375.7,1137.16 1379.52,1137.16 1383.35,1137.16 1387.17,1137.16 1387.17,1143.63 1391,1143.63 1391,1097.56 1394.83,1097.56 1394.83,1033.8 1398.65,1033.8 1398.65,997.196 1402.48,997.196 1402.48,1041.81 1406.3,1041.81 1406.3,1055.45 1410.13,1055.45 1410.13,1101.84 1413.95,1101.84 1413.95,1086.2 1417.78,1086.2 1417.78,1093.95 1421.6,1093.95 1421.6,1124.89 1425.43,1124.89 1429.25,1124.89 1433.08,1124.89 1433.08,1131.38 1436.9,1131.38 1436.9,1151.3 1440.73,1151.3 1444.55,1151.3 1448.38,1151.3 1452.2,1151.3 1456.03,1151.3 1459.85,1151.3 1463.68,1151.3 1467.5,1151.3 1471.33,1151.3 1475.15,1151.3 1478.98,1151.3 1482.8,1151.3 1482.8,1157.75 1486.63,1157.75 1486.63,1152.18 1490.45,1152.18 1490.45,1144.25 1494.28,1144.25 1494.28,1154.66 1498.1,1154.66 1498.1,1184.28 1501.93,1184.28 1501.93,1190.68 1505.75,1190.68 1505.75,1185.62 1509.58,1185.62 1509.58,1193.74 1513.41,1193.74 1513.41,1192.58 1517.23,1192.58 1517.23,1187.69 1521.06,1187.69 1521.06,1221.48 1524.88,1221.48 1524.88,1227.83 1528.71,1227.83 1528.71,1256.08 1532.53,1256.08 1532.53,1262.37 1536.36,1262.37 1536.36,1258.82 1540.18,1258.82 1540.18,1263.62 1544.01,1263.62 1544.01,1255.87 1547.83,1255.87 1547.83,1264.97 1551.66,1264.97 1551.66,1265.7 1555.48,1265.7 1555.48,1254.41 1559.31,1254.41 1559.31,1300.22 1563.13,1300.22 1563.13,1306.45 1566.96,1306.45 1566.96,1254.65 1570.78,1254.65 1570.78,1220.75 1574.61,1220.75 1574.61,1170.46 1578.43,1170.46 1578.43,1137.16 1582.26,1137.16 1582.26,1142.05 1586.08,1142.05 1586.08,1153.5 1589.91,1153.5 1589.91,1153.54 1593.73,1153.54 1593.73,1150.61 1597.56,1150.61 1597.56,1135.86 1601.38,1135.86 1601.38,1164.76 1605.21,1164.76 1605.21,1153.48 1609.03,1153.48 1609.03,1160.55 1612.86,1160.55 1612.86,1178.41 1616.68,1178.41 1616.68,1220.7 1620.51,1220.7 1620.51,1227.05 1624.33,1227.05 1624.33,1196.95 1628.16,1196.95 1628.16,1179.4 1631.99,1179.4 1631.99,1190.44 1635.81,1190.44 1635.81,1197.88 1639.64,1197.88 1639.64,1167.11 1643.46,1167.11 1643.46,1156.17 1647.29,1156.17 1647.29,1143.06 1651.11,1143.06 1651.11,1118.82 1654.94,1118.82 1654.94,1099.91 1658.76,1099.91 1658.76,1085.27 1662.59,1085.27 1662.59,1098.44 1666.41,1098.44 1666.41,1078.19 1670.24,1078.19 1670.24,1140.98 1674.06,1140.98 1674.06,1165.32 1677.89,1165.32 1681.71,1165.32 1685.54,1165.32 1689.36,1165.32 1689.36,1171.75 1693.19,1171.75 1693.19,1154.74 1697.01,1154.74 1697.01,1136.46 1700.84,1136.46 1700.84,1193.62 1704.66,1193.62 1708.49,1193.62 1712.31,1193.62 1716.14,1193.62 1716.14,1200.01 1719.96,1200.01 1719.96,1212.17 1723.79,1212.17 1723.79,1197.19 1727.61,1197.19 1727.61,1203 1731.44,1203 1731.44,1154.9 1735.26,1154.9 1735.26,1157.03 1739.09,1157.03 1739.09,1164.81 1742.92,1164.81 1742.92,1179.01 1746.74,1179.01 1746.74,1220.29 1750.57,1220.29 1750.57,1226.64 1754.39,1226.64 1754.39,1196.19 1758.22,1196.19 1758.22,1199.07 1762.04,1199.07 1762.04,1285.43 1765.87,1285.43 1769.69,1285.43 1769.69,1291.67 1773.52,1291.67 1773.52,1262.38 1777.34,1262.38 1777.34,1241.42 1781.17,1241.42 1781.17,1256.4 1784.99,1256.4 1784.99,1240.19 1788.82,1240.19 1788.82,1241.7 1792.64,1241.7 1792.64,1202.63 1796.47,1202.63 1796.47,1179.62 1800.29,1179.62 1800.29,1139.32 1804.12,1139.32 1804.12,1135.95 1807.94,1135.95 1807.94,1143.28 1811.77,1143.28 1811.77,1115.63 1815.59,1115.63 1815.59,1096.02 1819.42,1096.02 1819.42,1092.66 1823.24,1092.66 1823.24,1084.41 1827.07,1084.41 1827.07,1017.13 1830.89,1017.13 1830.89,995.857 1834.72,995.857 1834.72,965.506 1838.54,965.506 1838.54,997.861 1842.37,997.861 1842.37,981.177 1846.19,981.177 1846.19,972.624 1850.02,972.624 1850.02,976.57 1853.84,976.57 1853.84,992.687 1857.67,992.687 1857.67,949.098 1861.5,949.098 1861.5,920.662 1865.32,920.662 1865.32,943.334 1869.15,943.334 1869.15,922.633 1872.97,922.633 1872.97,867.945 1876.8,867.945 1876.8,882.219 1880.62,882.219 1880.62,907.087 1884.45,907.087 1884.45,863.265 1888.27,863.265 1888.27,868.926 1892.1,868.926 1892.1,895.588 1895.92,895.588 1895.92,899.348 1899.75,899.348 1899.75,918.564 1903.57,918.564 1903.57,918.312 1907.4,918.312 1907.4,974.587 1911.22,974.587 1911.22,981.302 1915.05,981.302 1915.05,956.744 1918.87,956.744 1918.87,926.845 1922.7,926.845 1922.7,948.429 1926.52,948.429 1926.52,895.889 1930.35,895.889 1930.35,870.034 1934.17,870.034 1934.17,867.626 1938,867.626 1938,883.068 1941.82,883.068 1941.82,883.627 1945.65,883.627 1945.65,888.783 1949.47,888.783 1949.47,906.26 1953.3,906.26 1953.3,870.522 1957.12,870.522 1957.12,929.713 1960.95,929.713 1960.95,940.413 1964.77,940.413 1964.77,966.595 1968.6,966.595 1972.42,966.595 1972.42,973.326 1976.25,973.326 1976.25,930.485 1980.08,930.485 1980.08,888.625 1983.9,888.625 1983.9,870.234 1987.73,870.234 1987.73,883.677 1991.55,883.677 1991.55,872.15 1995.38,872.15 1995.38,916.337 1999.2,916.337 1999.2,929.581 2003.03,929.581 2003.03,912.616 2006.85,912.616 2006.85,923.087 2010.68,923.087 2010.68,937.478 2014.5,937.478 2014.5,953.387 2018.33,953.387 2018.33,946.616 2022.15,946.616 2022.15,968.151 2025.98,968.151 2025.98,974.875 2029.8,974.875 2029.8,993.446 2033.63,993.446 2033.63,1000.14 2037.45,1000.14 2037.45,964.493 2041.28,964.493 2041.28,961.319 2045.1,961.319 2045.1,949.767 2048.93,949.767 2048.93,981.094 2052.75,981.094 2052.75,1037.99 2056.58,1037.99 2056.58,1025.56 2060.4,1025.56 2060.4,1016.67 2064.23,1016.67 2064.23,1039.01 2068.05,1039.01 2068.05,1012.78 2071.88,1012.78 2071.88,1021.3 2075.7,1021.3 2075.7,979.978 2079.53,979.978 2079.53,990.197 2083.35,990.197 2083.35,944.121 2087.18,944.121 2087.18,924.279 2091.01,924.279 2091.01,945.459 2094.83,945.459 2094.83,918.58 2098.66,918.58 2098.66,934.059 2102.48,934.059 2102.48,927.489 2106.31,927.489 2106.31,925.355 2110.13,925.355 2110.13,927.185 2113.96,927.185 2113.96,905.556 2117.78,905.556 2117.78,921.684 2121.61,921.684 2121.61,897.262 2125.43,897.262 2125.43,918.642 2129.26,918.642 2129.26,913.242 2133.08,913.242 2133.08,895.659 2136.91,895.659 2136.91,915.783 2140.73,915.783 2140.73,920.154 2144.56,920.154 2144.56,915.238 2148.38,915.238 2148.38,890.301 2152.21,890.301 2152.21,847.684 2156.03,847.684 2156.03,842.958 2159.86,842.958 2159.86,860.702 2163.68,860.702 2163.68,813.084 2167.51,813.084 2167.51,811.822 2171.33,811.822 2171.33,799.958 2175.16,799.958 2175.16,782.406 2178.98,782.406 2178.98,787.552 2182.81,787.552 2182.81,782.661 2186.63,782.661 2186.63,758.008 2190.46,758.008 2190.46,759.516 2194.28,759.516 2194.28,760.106 2198.11,760.106 2198.11,753.906 2201.93,753.906 2201.93,727.806 2205.76,727.806 2205.76,719.584 2209.59,719.584 2209.59,707.5 2213.41,707.5 2213.41,738.447 2217.24,738.447 2217.24,727.275 2221.06,727.275 2221.06,723.221 2224.89,723.221 2224.89,753.257 2228.71,753.257 2228.71,758.888 2232.54,758.888 2232.54,739.872 2236.36,739.872 2236.36,730.504 2240.19,730.504 2240.19,763.758 2244.01,763.758 2244.01,770.786 2247.84,770.786 2247.84,776.111 2251.66,776.111 2251.66,792.2 2255.49,792.2 2255.49,826.781 2259.31,826.781 2263.14,826.781 2266.96,826.781 2270.79,826.781 2270.79,833.715 2274.61,833.715 2274.61,797.338 2278.44,797.338 2278.44,785.976 2282.26,785.976 2282.26,781.409 2286.09,781.409 2286.09,770.915 2289.91,770.915 2289.91,797.498 2293.74,797.498 2293.74,764.945 2297.56,764.945 2297.56,746.599 2301.39,746.599 2301.39,759.562 2305.21,759.562 2305.21,793.091 2309.04,793.091 2309.04,740.234 2312.86,740.234 2312.86,719.343 2316.69,719.343 2316.69,702.349 2320.51,702.349 2320.51,691.438 2324.34,691.438 2324.34,734.797 2328.17,734.797 2328.17,702.861 2331.99,702.861 2331.99,657.131 2335.82,657.131 2335.82,701.47 2339.64,701.47 2339.64,718.329 2343.47,718.329 2343.47,713.504 2347.29,713.504 2347.29,690.803 2351.12,690.803 2351.12,709.044 2354.94,709.044 2354.94,685.997 2358.77,685.997 2358.77,688.963 2362.59,688.963 2362.59,662.396 2366.42,662.396 2366.42,671.976 2370.24,671.976 2370.24,667.763 2374.07,667.763 2374.07,645.171 2377.89,645.171 2377.89,614.005 2381.72,614.005 2381.72,620.623 2385.54,620.623 2385.54,629.133 2389.37,629.133 2389.37,651.526 2393.19,651.526 2393.19,641.285 2397.02,641.285 2397.02,624.141 2400.84,624.141 2400.84,602.868 2404.67,602.868 2404.67,588.912 2408.49,588.912 2408.49,599.389 2412.32,599.389 2412.32,569.499 2416.14,569.499 2416.14,562.065 2419.97,562.065 2419.97,586.698 2423.79,586.698 2423.79,588.185 2427.62,588.185 2427.62,603.907 2431.44,603.907 2431.44,637.336 2435.27,637.336 2439.09,637.336 2442.92,637.336 2442.92,644.556 2446.75,644.556 2446.75,592.56 2450.57,592.56 2450.57,586.796 2454.4,586.796 2454.4,535.382 2458.22,535.382 2458.22,569.287 2462.05,569.287 2462.05,576.832 2465.87,576.832 2465.87,572.561 2469.7,572.561 2469.7,525.319 2473.52,525.319 2473.52,562.722 2477.35,562.722 2477.35,568.52 2481.17,568.52 2481.17,586.354 2485,586.354 2485,604.898 2488.82,604.898 2488.82,589.36 2492.65,589.36 2492.65,568.072 2496.47,568.072 2496.47,541.41 2500.3,541.41 2500.3,518.462 2504.12,518.462 2504.12,525.92 2507.95,525.92 2507.95,517.014 2511.77,517.014 2511.77,504.847 2515.6,504.847 2515.6,544.679 2519.42,544.679 2519.42,562.016 2523.25,562.016 2527.07,562.016 2527.07,569.346 2530.9,569.346 2530.9,598.011 2534.72,598.011 2534.72,605.291 2538.55,605.291 2538.55,564.675 2542.37,564.675 2542.37,552.965 2546.2,552.965 2546.2,566.491 2550.02,566.491 2550.02,589.037 2553.85,589.037 2553.85,607.445 2557.68,607.445 2561.5,607.445 2561.5,614.708 2565.33,614.708 2565.33,589.76 2569.15,589.76 2569.15,621.945 2572.98,621.945 2572.98,677.136 2576.8,677.136 2576.8,684.294 2580.63,684.294 2580.63,668.741 2584.45,668.741 2584.45,682.875 2588.28,682.875 2588.28,674.293 2592.1,674.293 2592.1,636.835 2595.93,636.835 2595.93,598.491 2599.75,598.491 2599.75,598.713 2603.58,598.713 2603.58,567.164 2607.4,567.164 2607.4,553.647 2611.23,553.647 2611.23,529.51 2615.05,529.51 2615.05,500.93 2618.88,500.93 2618.88,490.17 2622.7,490.17 2622.7,477.734 2626.53,477.734 2626.53,488.05 2630.35,488.05 2630.35,494.911 2634.18,494.911 2634.18,444.33 2638,444.33 2638,463.896 2641.83,463.896 2641.83,446.096 2645.65,446.096 2645.65,398.953 2649.48,398.953 2649.48,373.07 2653.3,373.07 2653.3,382.729 2657.13,382.729 2657.13,344.732 2660.95,344.732 2660.95,386.472 2664.78,386.472 2664.78,429.959 2668.6,429.959 2668.6,463.508 2672.43,463.508 2672.43,495.594 2676.26,495.594 2680.08,495.594 2680.08,503.029 2683.91,503.029 2683.91,500.363 2687.73,500.363 2687.73,449.329 2691.56,449.329 2691.56,407.525 2695.38,407.525 2695.38,375.24 2699.21,375.24 2699.21,348.107 2703.03,348.107 2703.03,346.139 2706.86,346.139 2706.86,359.897 2710.68,359.897 2710.68,405.295 2714.51,405.295 2714.51,421.967 2718.33,421.967 2718.33,409.839 2722.16,409.839 2722.16,437.013 2725.98,437.013 2725.98,444.534 2729.81,444.534 2729.81,484.542 2733.63,484.542 2737.46,484.542 2737.46,491.993 2741.28,491.993 2741.28,588.62 2745.11,588.62 2745.11,618.724 2748.93,618.724 2752.76,618.724 2752.76,625.976 2756.58,625.976 2756.58,620.682 2760.41,620.682 2760.41,620.393 2764.23,620.393 2764.23,594.189 2768.06,594.189 2768.06,549.39 2771.88,549.39 2771.88,568.492 2775.71,568.492 2775.71,591.518 2779.53,591.518 2779.53,607.733 2783.36,607.733 2783.36,614.993 2787.18,614.993 2787.18,583.374 2791.01,583.374 2791.01,577.574 2794.84,577.574 2794.84,565.961 2798.66,565.961 2798.66,471.411 2802.49,471.411 2802.49,419.27 2806.31,419.27 2806.31,450.409 2810.14,450.409 2810.14,434.115 2813.96,434.115 2813.96,411.507 2817.79,411.507 2817.79,380.774 2821.61,380.774 2821.61,383.428 2825.44,383.428 2825.44,362.579 2829.26,362.579 2829.26,342.465 2833.09,342.465 2833.09,379.308 2836.91,379.308 2836.91,362.88 2840.74,362.88 2840.74,353.52 2844.56,353.52 2844.56,326.977 2848.39,326.977 2848.39,322.7 2852.21,322.7 2852.21,345.664 2856.04,345.664 2856.04,341.554 2859.86,341.554 2859.86,324.952 2863.69,324.952 2863.69,322.753 2867.51,322.753 2867.51,329.123 2871.34,329.123 2871.34,317.477 2875.16,317.477 2875.16,353.33 2878.99,353.33 2878.99,314.234 2882.81,314.234 2882.81,340.756 2886.64,340.756 2886.64,404.789 2890.46,404.789 2890.46,412.358 2894.29,412.358 2894.29,385.684 2898.11,385.684 2898.11,343.651 2901.94,343.651 2901.94,294.608 2905.77,294.608 2905.77,303.016 2909.59,303.016 2909.59,287.214 2913.42,287.214 2913.42,335.686 2917.24,335.686 2917.24,346.439 2921.07,346.439 2921.07,304.876 2924.89,304.876 2924.89,280.436 2928.72,280.436 2928.72,300.728 2932.54,300.728 2932.54,370.764 2936.37,370.764 2936.37,280.269 2940.19,280.269 2940.19,257.784 2944.02,257.784 2944.02,258.515 2947.84,258.515 2947.84,225.109 2951.67,225.109 2951.67,243.353 2955.49,243.353 2955.49,264.824 2959.32,264.824 2959.32,232.401 2963.14,232.401 2963.14,213.737 2966.97,213.737 2966.97,208.027 2970.79,208.027 2970.79,209.463 2974.62,209.463 2974.62,202.972 2978.44,202.972 2978.44,190.68 2982.27,190.68 2982.27,156.182 2986.09,156.182 2986.09,197.553 2989.92,197.553 2989.92,183.022 2993.74,183.022 2993.74,140.263 2997.57,140.263 2997.57,135.006 3001.39,135.006 3001.39,155.747 3005.22,155.747 3005.22,181.572 3009.04,181.572 3009.04,266.296 3012.87,266.296 3012.87,274.071 3016.69,274.071 3016.69,231.424 3020.52,231.424 3020.52,300.958 3024.35,300.958 3024.35,267.617 3028.17,267.617 3028.17,275.434 3032,275.434 3032,253.015 3035.82,253.015 3035.82,229.903 3039.65,229.903 3039.65,247.114 3043.47,247.114 3043.47,324.651 3047.3,324.651 3051.12,324.651 3051.12,332.343 3054.95,332.343 3054.95,332.706 3058.77,332.706 3058.77,329.777 3062.6,329.777 3062.6,300.238 3066.42,300.238 3066.42,298.782 3070.25,298.782 3070.25,201.797 "/>
</svg>
